<?xml version="1.0" encoding="UTF-8" standalone="no"?>
<!DOCTYPE svg PUBLIC "-//W3C//DTD SVG 1.1//EN"
 "http://www.w3.org/Graphics/SVG/1.1/DTD/svg11.dtd">
<!-- Generated by graphviz version 2.43.0 (0)
 -->
<!-- Title: Catch::Generators::RandomIntegerGenerator&lt; Integer &gt; Pages: 1 -->
<!--zoomable 172 -->
<svg id="main" version="1.1" xmlns="http://www.w3.org/2000/svg" xmlns:xlink="http://www.w3.org/1999/xlink" xml:space="preserve" onload="init(evt)">
<style type="text/css"><![CDATA[
.edge:hover path { stroke: red; }
.edge:hover polygon { stroke: red; fill: red; }
]]></style>
<script type="text/javascript"><![CDATA[
var edges = document.getElementsByTagName('g');
if (edges && edges.length) {
  for (var i=0;i<edges.length;i++) {
    if (edges[i].id.substr(0,4)=='edge') {
      edges[i].setAttribute('class','edge');
    }
  }
}
]]></script>
        <defs>
                <circle id="rim" cx="0" cy="0" r="7"/>
                <circle id="rim2" cx="0" cy="0" r="3.5"/>
                <g id="zoomPlus">
                        <use xlink:href="#rim" fill="#404040">
                                <set attributeName="fill" to="#808080" begin="zoomplus.mouseover" end="zoomplus.mouseout"/>
                        </use>
                        <path d="M-4,0h8M0,-4v8" fill="none" stroke="white" stroke-width="1.5" pointer-events="none"/>
                </g>
                <g id="zoomMin">
                        <use xlink:href="#rim" fill="#404040">
                                <set attributeName="fill" to="#808080" begin="zoomminus.mouseover" end="zoomminus.mouseout"/>
                        </use>
                        <path d="M-4,0h8" fill="none" stroke="white" stroke-width="1.5" pointer-events="none"/>
                </g>
                <g id="dirArrow">
                        <path fill="none" stroke="white" stroke-width="1.5" d="M0,-3.0v7 M-2.5,-0.5L0,-3.0L2.5,-0.5"/>
                </g>
               <g id="resetDef">
                       <use xlink:href="#rim2" fill="#404040">
                               <set attributeName="fill" to="#808080" begin="reset.mouseover" end="reset.mouseout"/>
                       </use>
               </g>
        </defs>

<script type="text/javascript">
var viewWidth = 789;
var viewHeight = 172;
var sectionId = 'dynsection-1';
</script>
<script xlink:href="svgpan.js"/>
<svg id="graph" class="graph">
<g id="viewport">
<title>Catch::Generators::RandomIntegerGenerator&lt; Integer &gt;</title>
<polygon fill="white" stroke="transparent" points="-4,4 -4,-168.49 785,-168.49 785,4 -4,4"/>
<!-- Node1 -->
<g id="node1" class="node">
<title>Node1</title>
<g id="a_node1"><a xlink:title=" ">
<polygon fill="#bfbfbf" stroke="black" points="641,-62.49 641,-103.49 781,-103.49 781,-62.49 641,-62.49"/>
<text text-anchor="start" x="649" y="-91.49" font-family="Helvetica,sans-Serif" font-size="10.00">Catch::Generators::</text>
<text text-anchor="start" x="649" y="-80.49" font-family="Helvetica,sans-Serif" font-size="10.00">RandomIntegerGenerator</text>
<text text-anchor="middle" x="711" y="-69.49" font-family="Helvetica,sans-Serif" font-size="10.00">&lt; Integer &gt;</text>
</a>
</g>
</g>
<!-- Node2 -->
<g id="node2" class="node">
<title>Node2</title>
<g id="a_node2"><a xlink:href="structCatch_1_1Generators_1_1IGenerator.html" target="_top" xlink:title=" ">
<polygon fill="white" stroke="black" points="379.5,-133.99 379.5,-163.99 504.5,-163.99 504.5,-133.99 379.5,-133.99"/>
<text text-anchor="start" x="387.5" y="-151.99" font-family="Helvetica,sans-Serif" font-size="10.00">Catch::Generators::</text>
<text text-anchor="middle" x="442" y="-140.99" font-family="Helvetica,sans-Serif" font-size="10.00">IGenerator&lt; Integer &gt;</text>
</a>
</g>
</g>
<!-- Node2&#45;&gt;Node1 -->
<g id="edge1" class="edge">
<title>Node2&#45;&gt;Node1</title>
<path fill="none" stroke="midnightblue" d="M514.73,-136.28C547.89,-129.88 587.68,-121.47 623,-111.99 632.23,-109.51 641.91,-106.6 651.32,-103.6"/>
<polygon fill="midnightblue" stroke="midnightblue" points="513.83,-132.88 504.66,-138.19 515.14,-139.76 513.83,-132.88"/>
</g>
<!-- Node3 -->
<g id="node3" class="node">
<title>Node3</title>
<g id="a_node3"><a xlink:href="classCatch_1_1Generators_1_1GeneratorUntypedBase.html" target="_top" xlink:title=" ">
<polygon fill="white" stroke="black" points="0,-128.99 0,-158.99 131,-158.99 131,-128.99 0,-128.99"/>
<text text-anchor="start" x="8" y="-146.99" font-family="Helvetica,sans-Serif" font-size="10.00">Catch::Generators::</text>
<text text-anchor="middle" x="65.5" y="-135.99" font-family="Helvetica,sans-Serif" font-size="10.00">GeneratorUntypedBase</text>
</a>
</g>
</g>
<!-- Node3&#45;&gt;Node2 -->
<g id="edge2" class="edge">
<title>Node3&#45;&gt;Node2</title>
<path fill="none" stroke="midnightblue" d="M141.39,-147.92C200.05,-150.54 283.71,-153.3 357,-151.99 364.15,-151.86 371.64,-151.67 379.08,-151.45"/>
<polygon fill="midnightblue" stroke="midnightblue" points="141.25,-144.41 131.1,-147.45 140.93,-151.4 141.25,-144.41"/>
</g>
<!-- Node4 -->
<g id="node4" class="node">
<title>Node4</title>
<g id="a_node4"><a xlink:href="structCatch_1_1Generators_1_1IGenerator.html" target="_top" xlink:title=" ">
<polygon fill="white" stroke="black" points="168,-106.99 168,-136.99 278,-136.99 278,-106.99 168,-106.99"/>
<text text-anchor="start" x="176" y="-124.99" font-family="Helvetica,sans-Serif" font-size="10.00">Catch::Generators::</text>
<text text-anchor="middle" x="223" y="-113.99" font-family="Helvetica,sans-Serif" font-size="10.00">IGenerator&lt; T &gt;</text>
</a>
</g>
</g>
<!-- Node3&#45;&gt;Node4 -->
<g id="edge4" class="edge">
<title>Node3&#45;&gt;Node4</title>
<path fill="none" stroke="midnightblue" d="M141.16,-133.42C150.12,-132.16 159.14,-130.88 167.73,-129.67"/>
<polygon fill="midnightblue" stroke="midnightblue" points="140.51,-129.98 131.1,-134.85 141.49,-136.91 140.51,-129.98"/>
</g>
<!-- Node4&#45;&gt;Node2 -->
<g id="edge3" class="edge">
<title>Node4&#45;&gt;Node2</title>
<path fill="none" stroke="orange" stroke-dasharray="5,2" d="M288.17,-129.97C317.02,-133.56 350.92,-137.78 379.45,-141.33"/>
<polygon fill="orange" stroke="orange" points="288.55,-126.49 278.2,-128.73 287.69,-133.44 288.55,-126.49"/>
<text text-anchor="middle" x="326.5" y="-139.99" font-family="Helvetica,sans-Serif" font-size="10.00"> &lt; Integer &gt;</text>
</g>
<!-- Node5 -->
<g id="node5" class="node">
<title>Node5</title>
<g id="a_node5"><a xlink:title=" ">
<polygon fill="white" stroke="#bfbfbf" points="416.5,-95.49 416.5,-114.49 467.5,-114.49 467.5,-95.49 416.5,-95.49"/>
<text text-anchor="middle" x="442" y="-102.49" font-family="Helvetica,sans-Serif" font-size="10.00">Integer</text>
</a>
</g>
</g>
<!-- Node5&#45;&gt;Node1 -->
<g id="edge5" class="edge">
<title>Node5&#45;&gt;Node1</title>
<path fill="none" stroke="#9a32cd" stroke-dasharray="5,2" d="M477.71,-102.13C518.88,-98.74 588.5,-93 640.81,-88.69"/>
<polygon fill="#9a32cd" stroke="#9a32cd" points="477.32,-98.65 467.64,-102.96 477.89,-105.62 477.32,-98.65"/>
<text text-anchor="middle" x="575" y="-99.99" font-family="Helvetica,sans-Serif" font-size="10.00"> m_current_number</text>
</g>
<!-- Node6 -->
<g id="node6" class="node">
<title>Node6</title>
<g id="a_node6"><a xlink:title=" ">
<polygon fill="white" stroke="#bfbfbf" points="375,-45.99 375,-75.99 509,-75.99 509,-45.99 375,-45.99"/>
<text text-anchor="start" x="383" y="-63.99" font-family="Helvetica,sans-Serif" font-size="10.00">uniform_int_distribution</text>
<text text-anchor="middle" x="442" y="-52.99" font-family="Helvetica,sans-Serif" font-size="10.00">&lt; Integer &gt;</text>
</a>
</g>
</g>
<!-- Node6&#45;&gt;Node1 -->
<g id="edge6" class="edge">
<title>Node6&#45;&gt;Node1</title>
<path fill="none" stroke="#9a32cd" stroke-dasharray="5,2" d="M519.45,-66.7C551.46,-69.15 589.04,-72.11 623,-74.99 628.74,-75.48 634.7,-75.99 640.68,-76.52"/>
<polygon fill="#9a32cd" stroke="#9a32cd" points="519.51,-63.19 509.27,-65.92 518.98,-70.17 519.51,-63.19"/>
<text text-anchor="middle" x="575" y="-77.99" font-family="Helvetica,sans-Serif" font-size="10.00"> m_dist</text>
</g>
<!-- Node7 -->
<g id="node7" class="node">
<title>Node7</title>
<g id="a_node7"><a xlink:href="classCatch_1_1SimplePcg32.html" target="_top" xlink:title=" ">
<polygon fill="white" stroke="black" points="385.5,-7.49 385.5,-26.49 498.5,-26.49 498.5,-7.49 385.5,-7.49"/>
<text text-anchor="middle" x="442" y="-14.49" font-family="Helvetica,sans-Serif" font-size="10.00">Catch::SimplePcg32</text>
</a>
</g>
</g>
<!-- Node7&#45;&gt;Node1 -->
<g id="edge7" class="edge">
<title>Node7&#45;&gt;Node1</title>
<path fill="none" stroke="#9a32cd" stroke-dasharray="5,2" d="M508.56,-27.29C542.93,-33.31 585.55,-41.74 623,-51.99 633.83,-54.95 645.24,-58.61 656.1,-62.37"/>
<polygon fill="#9a32cd" stroke="#9a32cd" points="509.09,-23.83 498.64,-25.58 507.9,-30.73 509.09,-23.83"/>
<text text-anchor="middle" x="575" y="-54.99" font-family="Helvetica,sans-Serif" font-size="10.00"> m_rng</text>
</g>
<!-- Node8 -->
<g id="node8" class="node">
<title>Node8</title>
<g id="a_node8"><a xlink:title=" ">
<polygon fill="white" stroke="#bfbfbf" points="195,-7.49 195,-26.49 251,-26.49 251,-7.49 195,-7.49"/>
<text text-anchor="middle" x="223" y="-14.49" font-family="Helvetica,sans-Serif" font-size="10.00">uint64_t</text>
</a>
</g>
</g>
<!-- Node8&#45;&gt;Node7 -->
<g id="edge8" class="edge">
<title>Node8&#45;&gt;Node7</title>
<path fill="none" stroke="#9a32cd" stroke-dasharray="5,2" d="M261.05,-16.99C295.13,-16.99 346.16,-16.99 385.18,-16.99"/>
<polygon fill="#9a32cd" stroke="#9a32cd" points="261.04,-13.49 251.04,-16.99 261.04,-20.49 261.04,-13.49"/>
<text text-anchor="middle" x="326.5" y="-19.99" font-family="Helvetica,sans-Serif" font-size="10.00"> m_state</text>
</g>
<!-- Node8&#45;&gt;Node7 -->
<g id="edge9" class="edge">
<title>Node8&#45;&gt;Node7</title>
<path fill="none" stroke="#9a32cd" stroke-dasharray="5,2" d="M261.01,-7.76C272.18,-5.39 284.53,-3.17 296,-1.99 322.97,0.79 329.99,0.4 357,-1.99 369.69,-3.11 383.33,-5.17 395.86,-7.42"/>
<polygon fill="#9a32cd" stroke="#9a32cd" points="260.14,-4.37 251.14,-9.96 261.67,-11.2 260.14,-4.37"/>
<text text-anchor="middle" x="326.5" y="-4.99" font-family="Helvetica,sans-Serif" font-size="10.00"> s_inc</text>
</g>
</g>
</svg>
        <g id="navigator" transform="translate(0 0)" fill="#404254">
                <rect fill="#f2f5e9" fill-opacity="0.5" stroke="#606060" stroke-width=".5" x="0" y="0" width="60" height="60"/>
                <use id="zoomplus" xlink:href="#zoomPlus" x="17" y="9" onmousedown="handleZoom(evt,'in')"/>
                <use id="zoomminus" xlink:href="#zoomMin" x="42" y="9" onmousedown="handleZoom(evt,'out')"/>
                <use id="reset" xlink:href="#resetDef" x="30" y="36" onmousedown="handleReset()"/>
                <g id="arrowUp" xlink:href="#dirArrow" transform="translate(30 24)" onmousedown="handlePan(0,-1)">
                  <use xlink:href="#rim" fill="#404040">
                        <set attributeName="fill" to="#808080" begin="arrowUp.mouseover" end="arrowUp.mouseout"/>
                  </use>
                  <path fill="none" stroke="white" stroke-width="1.5" d="M0,-3.0v7 M-2.5,-0.5L0,-3.0L2.5,-0.5"/>
                </g>
                <g id="arrowRight" xlink:href="#dirArrow" transform="rotate(90) translate(36 -43)" onmousedown="handlePan(1,0)">
                  <use xlink:href="#rim" fill="#404040">
                        <set attributeName="fill" to="#808080" begin="arrowRight.mouseover" end="arrowRight.mouseout"/>
                  </use>
                  <path fill="none" stroke="white" stroke-width="1.5" d="M0,-3.0v7 M-2.5,-0.5L0,-3.0L2.5,-0.5"/>
                </g>
                <g id="arrowDown" xlink:href="#dirArrow" transform="rotate(180) translate(-30 -48)" onmousedown="handlePan(0,1)">
                  <use xlink:href="#rim" fill="#404040">
                        <set attributeName="fill" to="#808080" begin="arrowDown.mouseover" end="arrowDown.mouseout"/>
                  </use>
                  <path fill="none" stroke="white" stroke-width="1.5" d="M0,-3.0v7 M-2.5,-0.5L0,-3.0L2.5,-0.5"/>
                </g>
                <g id="arrowLeft" xlink:href="#dirArrow" transform="rotate(270) translate(-36 17)" onmousedown="handlePan(-1,0)">
                  <use xlink:href="#rim" fill="#404040">
                        <set attributeName="fill" to="#808080" begin="arrowLeft.mouseover" end="arrowLeft.mouseout"/>
                  </use>
                  <path fill="none" stroke="white" stroke-width="1.5" d="M0,-3.0v7 M-2.5,-0.5L0,-3.0L2.5,-0.5"/>
                </g>
        </g>
        <svg viewBox="0 0 15 15" width="100%" height="30px" preserveAspectRatio="xMaxYMin meet">
         <g id="arrow_out" transform="scale(0.3 0.3)">
          <a xlink:href="classCatch_1_1Generators_1_1RandomIntegerGenerator__coll__graph_org.svg" target="_base">
           <rect id="button" ry="5" rx="5" y="6" x="6" height="38" width="38"
                fill="#f2f5e9" fill-opacity="0.5" stroke="#606060" stroke-width="1.0"/>
           <path id="arrow"
             d="M 11.500037,31.436501 C 11.940474,20.09759 22.043105,11.32322 32.158766,21.979434 L 37.068811,17.246167 C 37.068811,17.246167 37.088388,32 37.088388,32 L 22.160133,31.978069 C 22.160133,31.978069 26.997745,27.140456 26.997745,27.140456 C 18.528582,18.264221 13.291696,25.230495 11.500037,31.436501 z"
             style="fill:#404040;"/>
          </a>
         </g>
        </svg>
</svg>
