<?xml version="1.0" encoding="UTF-8" standalone="no"?>
<!DOCTYPE svg PUBLIC "-//W3C//DTD SVG 1.1//EN"
 "http://www.w3.org/Graphics/SVG/1.1/DTD/svg11.dtd">
<!-- Generated by graphviz version 2.43.0 (0)
 -->
<!-- Title: irr::io::CZipReader Pages: 1 -->
<svg width="220pt" height="196pt"
 viewBox="0.00 0.00 220.00 196.00" xmlns="http://www.w3.org/2000/svg" xmlns:xlink="http://www.w3.org/1999/xlink">
<g id="graph0" class="graph" transform="scale(1 1) rotate(0) translate(4 192)">
<title>irr::io::CZipReader</title>
<polygon fill="white" stroke="transparent" points="-4,4 -4,-192 216,-192 216,4 -4,4"/>
<!-- Node1 -->
<g id="node1" class="node">
<title>Node1</title>
<g id="a_node1"><a xlink:title=" ">
<polygon fill="#bfbfbf" stroke="black" points="57,-0.5 57,-19.5 162,-19.5 162,-0.5 57,-0.5"/>
<text text-anchor="middle" x="109.5" y="-7.5" font-family="Helvetica,sans-Serif" font-size="10.00">irr::io::CZipReader</text>
</a>
</g>
</g>
<!-- Node2 -->
<g id="node2" class="node">
<title>Node2</title>
<g id="a_node2"><a xlink:href="classirr_1_1io_1_1IFileArchive.html" target="_top" xlink:title="The FileArchive manages archives and provides access to files inside them.">
<polygon fill="white" stroke="black" points="0,-56.5 0,-75.5 105,-75.5 105,-56.5 0,-56.5"/>
<text text-anchor="middle" x="52.5" y="-63.5" font-family="Helvetica,sans-Serif" font-size="10.00">irr::io::IFileArchive</text>
</a>
</g>
</g>
<!-- Node2&#45;&gt;Node1 -->
<g id="edge1" class="edge">
<title>Node2&#45;&gt;Node1</title>
<path fill="none" stroke="midnightblue" d="M69.12,-49.25C79.23,-39.67 91.78,-27.79 100.18,-19.83"/>
<polygon fill="midnightblue" stroke="midnightblue" points="66.51,-46.91 61.66,-56.32 71.32,-51.99 66.51,-46.91"/>
</g>
<!-- Node3 -->
<g id="node3" class="node">
<title>Node3</title>
<g id="a_node3"><a xlink:href="classirr_1_1IReferenceCounted.html" target="_top" xlink:title="Base class of most objects of the Irrlicht Engine.">
<polygon fill="white" stroke="black" points="46.5,-168.5 46.5,-187.5 172.5,-187.5 172.5,-168.5 46.5,-168.5"/>
<text text-anchor="middle" x="109.5" y="-175.5" font-family="Helvetica,sans-Serif" font-size="10.00">irr::IReferenceCounted</text>
</a>
</g>
</g>
<!-- Node3&#45;&gt;Node2 -->
<g id="edge2" class="edge">
<title>Node3&#45;&gt;Node2</title>
<path fill="none" stroke="midnightblue" d="M100.34,-159.32C87.93,-135.37 66.26,-93.55 56.95,-75.59"/>
<polygon fill="midnightblue" stroke="midnightblue" points="97.32,-161.1 105.03,-168.37 103.53,-157.88 97.32,-161.1"/>
</g>
<!-- Node5 -->
<g id="node5" class="node">
<title>Node5</title>
<g id="a_node5"><a xlink:href="classirr_1_1io_1_1IFileList.html" target="_top" xlink:title="Provides a list of files and folders.">
<polygon fill="white" stroke="black" points="113.5,-112.5 113.5,-131.5 199.5,-131.5 199.5,-112.5 113.5,-112.5"/>
<text text-anchor="middle" x="156.5" y="-119.5" font-family="Helvetica,sans-Serif" font-size="10.00">irr::io::IFileList</text>
</a>
</g>
</g>
<!-- Node3&#45;&gt;Node5 -->
<g id="edge5" class="edge">
<title>Node3&#45;&gt;Node5</title>
<path fill="none" stroke="midnightblue" d="M123.92,-160.43C132.16,-150.97 142.15,-139.48 148.88,-131.75"/>
<polygon fill="midnightblue" stroke="midnightblue" points="121.19,-158.24 117.26,-168.08 126.47,-162.84 121.19,-158.24"/>
</g>
<!-- Node4 -->
<g id="node4" class="node">
<title>Node4</title>
<g id="a_node4"><a xlink:href="classirr_1_1io_1_1CFileList.html" target="_top" xlink:title="Implementation of a file list.">
<polygon fill="white" stroke="black" points="123,-56.5 123,-75.5 212,-75.5 212,-56.5 123,-56.5"/>
<text text-anchor="middle" x="167.5" y="-63.5" font-family="Helvetica,sans-Serif" font-size="10.00">irr::io::CFileList</text>
</a>
</g>
</g>
<!-- Node4&#45;&gt;Node1 -->
<g id="edge3" class="edge">
<title>Node4&#45;&gt;Node1</title>
<path fill="none" stroke="#8b1a1a" d="M150.59,-49.25C140.3,-39.67 127.53,-27.79 118.99,-19.83"/>
<polygon fill="#8b1a1a" stroke="#8b1a1a" points="148.48,-52.07 158.18,-56.32 153.25,-46.95 148.48,-52.07"/>
</g>
<!-- Node5&#45;&gt;Node4 -->
<g id="edge4" class="edge">
<title>Node5&#45;&gt;Node4</title>
<path fill="none" stroke="midnightblue" d="M160.35,-102.1C162.18,-93.14 164.27,-82.86 165.72,-75.75"/>
<polygon fill="midnightblue" stroke="midnightblue" points="156.88,-101.59 158.32,-112.08 163.74,-102.98 156.88,-101.59"/>
</g>
</g>
</svg>
