<?xml version="1.0" encoding="UTF-8" standalone="no"?>
<!DOCTYPE svg PUBLIC "-//W3C//DTD SVG 1.1//EN"
 "http://www.w3.org/Graphics/SVG/1.1/DTD/svg11.dtd">
<!-- Generated by graphviz version 2.43.0 (0)
 -->
<!-- Title: TextureBuffer::ensureTexture Pages: 1 -->
<svg width="533pt" height="333pt"
 viewBox="0.00 0.00 533.00 333.00" xmlns="http://www.w3.org/2000/svg" xmlns:xlink="http://www.w3.org/1999/xlink">
<g id="graph0" class="graph" transform="scale(1 1) rotate(0) translate(4 329)">
<title>TextureBuffer::ensureTexture</title>
<polygon fill="white" stroke="transparent" points="-4,4 -4,-329 529,-329 529,4 -4,4"/>
<!-- Node1 -->
<g id="node1" class="node">
<title>Node1</title>
<g id="a_node1"><a xlink:title=" ">
<polygon fill="#bfbfbf" stroke="black" points="0,-153 0,-172 157,-172 157,-153 0,-153"/>
<text text-anchor="middle" x="78.5" y="-160" font-family="Helvetica,sans-Serif" font-size="10.00">TextureBuffer::ensureTexture</text>
</a>
</g>
</g>
<!-- Node2 -->
<g id="node2" class="node">
<title>Node2</title>
<g id="a_node2"><a xlink:href="classirr_1_1video_1_1IVideoDriver.html#aa704cece826ee37d02e4bb054b0b8797" target="_top" xlink:title="Adds a new render target texture to the texture cache.">
<polygon fill="white" stroke="black" points="193,-294.5 193,-324.5 334,-324.5 334,-294.5 193,-294.5"/>
<text text-anchor="start" x="201" y="-312.5" font-family="Helvetica,sans-Serif" font-size="10.00">irr::video::IVideoDriver</text>
<text text-anchor="middle" x="263.5" y="-301.5" font-family="Helvetica,sans-Serif" font-size="10.00">::addRenderTargetTexture</text>
</a>
</g>
</g>
<!-- Node1&#45;&gt;Node2 -->
<g id="edge1" class="edge">
<title>Node1&#45;&gt;Node2</title>
<path fill="none" stroke="midnightblue" d="M85.96,-172.32C101.61,-195.37 143.87,-253.38 193,-285.5 195.4,-287.07 197.92,-288.55 200.52,-289.95"/>
<polygon fill="midnightblue" stroke="midnightblue" points="199.05,-293.12 209.57,-294.36 202.11,-286.83 199.05,-293.12"/>
</g>
<!-- Node3 -->
<g id="node3" class="node">
<title>Node3</title>
<g id="a_node3"><a xlink:href="classirr_1_1video_1_1IVideoDriver.html#a8c02ee280bb738cdf38b77e7a798244e" target="_top" xlink:title="Creates an empty texture of specified size.">
<polygon fill="white" stroke="black" points="200,-245.5 200,-275.5 327,-275.5 327,-245.5 200,-245.5"/>
<text text-anchor="start" x="208" y="-263.5" font-family="Helvetica,sans-Serif" font-size="10.00">irr::video::IVideoDriver</text>
<text text-anchor="middle" x="263.5" y="-252.5" font-family="Helvetica,sans-Serif" font-size="10.00">::addTexture</text>
</a>
</g>
</g>
<!-- Node1&#45;&gt;Node3 -->
<g id="edge2" class="edge">
<title>Node1&#45;&gt;Node3</title>
<path fill="none" stroke="midnightblue" d="M91.83,-172C112.05,-187.24 153.91,-217.37 193,-236.5 196.74,-238.33 200.66,-240.08 204.64,-241.75"/>
<polygon fill="midnightblue" stroke="midnightblue" points="203.43,-245.04 214.02,-245.48 206.02,-238.53 203.43,-245.04"/>
</g>
<!-- Node4 -->
<g id="node4" class="node">
<title>Node4</title>
<g id="a_node4"><a xlink:href="classirr_1_1video_1_1IVideoDriver.html#aee1578fdd92118665755f31c0dd1dbb5" target="_top" xlink:title="Creates an empty software image.">
<polygon fill="white" stroke="black" points="200,-196.5 200,-226.5 327,-226.5 327,-196.5 200,-196.5"/>
<text text-anchor="start" x="208" y="-214.5" font-family="Helvetica,sans-Serif" font-size="10.00">irr::video::IVideoDriver</text>
<text text-anchor="middle" x="263.5" y="-203.5" font-family="Helvetica,sans-Serif" font-size="10.00">::createImage</text>
</a>
</g>
</g>
<!-- Node1&#45;&gt;Node4 -->
<g id="edge3" class="edge">
<title>Node1&#45;&gt;Node4</title>
<path fill="none" stroke="midnightblue" d="M115.22,-172.06C138.29,-178.24 169,-186.46 196.41,-193.8"/>
<polygon fill="midnightblue" stroke="midnightblue" points="195.78,-197.26 206.34,-196.46 197.59,-190.5 195.78,-197.26"/>
</g>
<!-- Node5 -->
<g id="node5" class="node">
<title>Node5</title>
<g id="a_node5"><a xlink:href="classirr_1_1IReferenceCounted.html#a03856a09355b89d178090c4a5f738543" target="_top" xlink:title="Drops the object. Decrements the reference counter by one.">
<polygon fill="white" stroke="black" points="200.5,-147.5 200.5,-177.5 326.5,-177.5 326.5,-147.5 200.5,-147.5"/>
<text text-anchor="start" x="208.5" y="-165.5" font-family="Helvetica,sans-Serif" font-size="10.00">irr::IReferenceCounted</text>
<text text-anchor="middle" x="263.5" y="-154.5" font-family="Helvetica,sans-Serif" font-size="10.00">::drop</text>
</a>
</g>
</g>
<!-- Node1&#45;&gt;Node5 -->
<g id="edge4" class="edge">
<title>Node1&#45;&gt;Node5</title>
<path fill="none" stroke="midnightblue" d="M157.11,-162.5C168.03,-162.5 179.23,-162.5 190.05,-162.5"/>
<polygon fill="midnightblue" stroke="midnightblue" points="190.3,-166 200.3,-162.5 190.3,-159 190.3,-166"/>
</g>
<!-- Node6 -->
<g id="node6" class="node">
<title>Node6</title>
<g id="a_node6"><a xlink:href="classirr_1_1video_1_1IImage.html#a226cba5c336847caae221a19a0ba932d" target="_top" xlink:title="Use this to get a pointer to the image data.">
<polygon fill="white" stroke="black" points="213.5,-98.5 213.5,-128.5 313.5,-128.5 313.5,-98.5 213.5,-98.5"/>
<text text-anchor="start" x="221.5" y="-116.5" font-family="Helvetica,sans-Serif" font-size="10.00">irr::video::IImage</text>
<text text-anchor="middle" x="263.5" y="-105.5" font-family="Helvetica,sans-Serif" font-size="10.00">::getData</text>
</a>
</g>
</g>
<!-- Node1&#45;&gt;Node6 -->
<g id="edge5" class="edge">
<title>Node1&#45;&gt;Node6</title>
<path fill="none" stroke="midnightblue" d="M115.22,-152.94C140.36,-146.2 174.58,-137.04 203.71,-129.24"/>
<polygon fill="midnightblue" stroke="midnightblue" points="204.62,-132.62 213.37,-126.65 202.81,-125.86 204.62,-132.62"/>
</g>
<!-- Node7 -->
<g id="node7" class="node">
<title>Node7</title>
<g id="a_node7"><a xlink:href="classirr_1_1video_1_1IImage.html#a32517f3c1eb9c6da812b76ff89e74132" target="_top" xlink:title="calculate image data size in bytes for selected format, width and height.">
<polygon fill="white" stroke="black" points="193,-49.5 193,-79.5 334,-79.5 334,-49.5 193,-49.5"/>
<text text-anchor="start" x="201" y="-67.5" font-family="Helvetica,sans-Serif" font-size="10.00">irr::video::IImage</text>
<text text-anchor="middle" x="263.5" y="-56.5" font-family="Helvetica,sans-Serif" font-size="10.00">::getDataSizeFromFormat</text>
</a>
</g>
</g>
<!-- Node1&#45;&gt;Node7 -->
<g id="edge6" class="edge">
<title>Node1&#45;&gt;Node7</title>
<path fill="none" stroke="midnightblue" d="M92.21,-152.95C112.62,-137.94 154.34,-108.58 193,-89.5 197.3,-87.38 201.83,-85.34 206.43,-83.41"/>
<polygon fill="midnightblue" stroke="midnightblue" points="207.93,-86.58 215.91,-79.61 205.32,-80.08 207.93,-86.58"/>
</g>
<!-- Node9 -->
<g id="node9" class="node">
<title>Node9</title>
<g id="a_node9"><a xlink:href="classirr_1_1video_1_1IVideoDriver.html#ac88319ec41daa23fef2ae935285afcc9" target="_top" xlink:title="Removes a texture from the texture cache and deletes it.">
<polygon fill="white" stroke="black" points="200,-0.5 200,-30.5 327,-30.5 327,-0.5 200,-0.5"/>
<text text-anchor="start" x="208" y="-18.5" font-family="Helvetica,sans-Serif" font-size="10.00">irr::video::IVideoDriver</text>
<text text-anchor="middle" x="263.5" y="-7.5" font-family="Helvetica,sans-Serif" font-size="10.00">::removeTexture</text>
</a>
</g>
</g>
<!-- Node1&#45;&gt;Node9 -->
<g id="edge8" class="edge">
<title>Node1&#45;&gt;Node9</title>
<path fill="none" stroke="midnightblue" d="M86.01,-152.8C101.76,-130.04 144.23,-72.69 193,-40.5 196.07,-38.47 199.32,-36.59 202.68,-34.84"/>
<polygon fill="midnightblue" stroke="midnightblue" points="204.25,-37.97 211.77,-30.51 201.23,-31.65 204.25,-37.97"/>
</g>
<!-- Node8 -->
<g id="node8" class="node">
<title>Node8</title>
<g id="a_node8"><a xlink:href="classirr_1_1video_1_1IImage.html#a70b50ef1bbb6f90ec4c43a91f521c2b6" target="_top" xlink:title="get the amount of Bits per Pixel of the given color format">
<polygon fill="white" stroke="black" points="370,-49.5 370,-79.5 525,-79.5 525,-49.5 370,-49.5"/>
<text text-anchor="start" x="378" y="-67.5" font-family="Helvetica,sans-Serif" font-size="10.00">irr::video::IImage</text>
<text text-anchor="middle" x="447.5" y="-56.5" font-family="Helvetica,sans-Serif" font-size="10.00">::getBitsPerPixelFromFormat</text>
</a>
</g>
</g>
<!-- Node7&#45;&gt;Node8 -->
<g id="edge7" class="edge">
<title>Node7&#45;&gt;Node8</title>
<path fill="none" stroke="midnightblue" d="M334.09,-64.5C342.52,-64.5 351.22,-64.5 359.87,-64.5"/>
<polygon fill="midnightblue" stroke="midnightblue" points="359.98,-68 369.98,-64.5 359.98,-61 359.98,-68"/>
</g>
</g>
</svg>
