<?xml version="1.0" encoding="UTF-8" standalone="no"?>
<!DOCTYPE svg PUBLIC "-//W3C//DTD SVG 1.1//EN"
 "http://www.w3.org/Graphics/SVG/1.1/DTD/svg11.dtd">
<!-- Generated by graphviz version 2.43.0 (0)
 -->
<!-- Title: irr::gui::IGUIElement::setTabOrder Pages: 1 -->
<svg width="428pt" height="127pt"
 viewBox="0.00 0.00 428.00 127.00" xmlns="http://www.w3.org/2000/svg" xmlns:xlink="http://www.w3.org/1999/xlink">
<g id="graph0" class="graph" transform="scale(1 1) rotate(0) translate(4 123)">
<title>irr::gui::IGUIElement::setTabOrder</title>
<polygon fill="white" stroke="transparent" points="-4,4 -4,-123 424,-123 424,4 -4,4"/>
<!-- Node1 -->
<g id="node1" class="node">
<title>Node1</title>
<g id="a_node1"><a xlink:title="Sets the priority of focus when using the tab key to navigate between a group of elements.">
<polygon fill="#bfbfbf" stroke="black" points="0,-44.5 0,-74.5 116,-74.5 116,-44.5 0,-44.5"/>
<text text-anchor="start" x="8" y="-62.5" font-family="Helvetica,sans-Serif" font-size="10.00">irr::gui::IGUIElement</text>
<text text-anchor="middle" x="58" y="-51.5" font-family="Helvetica,sans-Serif" font-size="10.00">::setTabOrder</text>
</a>
</g>
</g>
<!-- Node2 -->
<g id="node2" class="node">
<title>Node2</title>
<g id="a_node2"><a xlink:href="classirr_1_1gui_1_1IGUIElement.html#aa1d5846a06c6f24140cbfbd831cc8a04" target="_top" xlink:title="searches elements to find the closest next element to tab to">
<polygon fill="white" stroke="black" points="152,-88.5 152,-118.5 268,-118.5 268,-88.5 152,-88.5"/>
<text text-anchor="start" x="160" y="-106.5" font-family="Helvetica,sans-Serif" font-size="10.00">irr::gui::IGUIElement</text>
<text text-anchor="middle" x="210" y="-95.5" font-family="Helvetica,sans-Serif" font-size="10.00">::getNextElement</text>
</a>
</g>
</g>
<!-- Node1&#45;&gt;Node2 -->
<g id="edge1" class="edge">
<title>Node1&#45;&gt;Node2</title>
<path fill="none" stroke="midnightblue" d="M110.2,-74.52C122.32,-78.07 135.37,-81.9 147.88,-85.57"/>
<polygon fill="midnightblue" stroke="midnightblue" points="147.19,-89.02 157.77,-88.47 149.16,-82.3 147.19,-89.02"/>
</g>
<!-- Node3 -->
<g id="node3" class="node">
<title>Node3</title>
<g id="a_node3"><a xlink:href="classirr_1_1gui_1_1IGUIElement.html#af1f535aacf6e19fda64511715100e069" target="_top" xlink:title="Returns the number in the tab order sequence.">
<polygon fill="white" stroke="black" points="304,-66.5 304,-96.5 420,-96.5 420,-66.5 304,-66.5"/>
<text text-anchor="start" x="312" y="-84.5" font-family="Helvetica,sans-Serif" font-size="10.00">irr::gui::IGUIElement</text>
<text text-anchor="middle" x="362" y="-73.5" font-family="Helvetica,sans-Serif" font-size="10.00">::getTabOrder</text>
</a>
</g>
</g>
<!-- Node1&#45;&gt;Node3 -->
<g id="edge4" class="edge">
<title>Node1&#45;&gt;Node3</title>
<path fill="none" stroke="midnightblue" d="M116.16,-63.66C166.68,-67.34 240.43,-72.72 293.77,-76.6"/>
<polygon fill="midnightblue" stroke="midnightblue" points="293.59,-80.1 303.82,-77.33 294.1,-73.12 293.59,-80.1"/>
</g>
<!-- Node4 -->
<g id="node4" class="node">
<title>Node4</title>
<g id="a_node4"><a xlink:href="classirr_1_1gui_1_1IGUIElement.html#ab6266a2fd3d8b0be385f9f3f3364e9ff" target="_top" xlink:title="Returns the container element which holds all elements in this element&#39;s tab group.">
<polygon fill="white" stroke="black" points="152,-0.5 152,-30.5 268,-30.5 268,-0.5 152,-0.5"/>
<text text-anchor="start" x="160" y="-18.5" font-family="Helvetica,sans-Serif" font-size="10.00">irr::gui::IGUIElement</text>
<text text-anchor="middle" x="210" y="-7.5" font-family="Helvetica,sans-Serif" font-size="10.00">::getTabGroup</text>
</a>
</g>
</g>
<!-- Node1&#45;&gt;Node4 -->
<g id="edge3" class="edge">
<title>Node1&#45;&gt;Node4</title>
<path fill="none" stroke="midnightblue" d="M110.2,-44.48C122.32,-40.93 135.37,-37.1 147.88,-33.43"/>
<polygon fill="midnightblue" stroke="midnightblue" points="149.16,-36.7 157.77,-30.53 147.19,-29.98 149.16,-36.7"/>
</g>
<!-- Node2&#45;&gt;Node3 -->
<g id="edge2" class="edge">
<title>Node2&#45;&gt;Node3</title>
<path fill="none" stroke="midnightblue" d="M268.14,-95.12C276.47,-93.9 285.11,-92.63 293.62,-91.38"/>
<polygon fill="midnightblue" stroke="midnightblue" points="294.14,-94.84 303.53,-89.93 293.12,-87.92 294.14,-94.84"/>
</g>
</g>
</svg>
