<?xml version="1.0" encoding="UTF-8" standalone="no"?>
<!DOCTYPE svg PUBLIC "-//W3C//DTD SVG 1.1//EN"
 "http://www.w3.org/Graphics/SVG/1.1/DTD/svg11.dtd">
<!-- Generated by graphviz version 2.43.0 (0)
 -->
<!-- Title: irr::video::SColor::getInterpolated_quadratic Pages: 1 -->
<svg width="414pt" height="293pt"
 viewBox="0.00 0.00 414.00 292.50" xmlns="http://www.w3.org/2000/svg" xmlns:xlink="http://www.w3.org/1999/xlink">
<g id="graph0" class="graph" transform="scale(1 1) rotate(0) translate(4 288.5)">
<title>irr::video::SColor::getInterpolated_quadratic</title>
<polygon fill="white" stroke="transparent" points="-4,4 -4,-288.5 410,-288.5 410,4 -4,4"/>
<!-- Node1 -->
<g id="node1" class="node">
<title>Node1</title>
<g id="a_node1"><a xlink:title="Returns interpolated color. ( quadratic )">
<polygon fill="#bfbfbf" stroke="black" points="0,-122.5 0,-152.5 149,-152.5 149,-122.5 0,-122.5"/>
<text text-anchor="start" x="8" y="-140.5" font-family="Helvetica,sans-Serif" font-size="10.00">irr::video::SColor</text>
<text text-anchor="middle" x="74.5" y="-129.5" font-family="Helvetica,sans-Serif" font-size="10.00">::getInterpolated_quadratic</text>
</a>
</g>
</g>
<!-- Node2 -->
<g id="node2" class="node">
<title>Node2</title>
<g id="a_node2"><a xlink:href="namespaceirr_1_1core.html#a6162f685b68f629e77336081d3316969" target="_top" xlink:title="clamps a value between low and high">
<polygon fill="white" stroke="black" points="189,-246 189,-265 279,-265 279,-246 189,-246"/>
<text text-anchor="middle" x="234" y="-253" font-family="Helvetica,sans-Serif" font-size="10.00">irr::core::clamp</text>
</a>
</g>
</g>
<!-- Node1&#45;&gt;Node2 -->
<g id="edge1" class="edge">
<title>Node1&#45;&gt;Node2</title>
<path fill="none" stroke="midnightblue" d="M89.1,-152.51C108.65,-173.37 146.58,-211.29 185,-235.5 188.57,-237.75 192.43,-239.84 196.36,-241.76"/>
<polygon fill="midnightblue" stroke="midnightblue" points="195,-244.99 205.55,-245.92 197.88,-238.61 195,-244.99"/>
</g>
<!-- Node5 -->
<g id="node5" class="node">
<title>Node5</title>
<g id="a_node5"><a xlink:href="classirr_1_1video_1_1SColor.html#a8b0bcff9036b06e3483978a84a924b91" target="_top" xlink:title="Returns the alpha component of the color.">
<polygon fill="white" stroke="black" points="185,-196.5 185,-226.5 283,-226.5 283,-196.5 185,-196.5"/>
<text text-anchor="start" x="193" y="-214.5" font-family="Helvetica,sans-Serif" font-size="10.00">irr::video::SColor</text>
<text text-anchor="middle" x="234" y="-203.5" font-family="Helvetica,sans-Serif" font-size="10.00">::getAlpha</text>
</a>
</g>
</g>
<!-- Node1&#45;&gt;Node5 -->
<g id="edge4" class="edge">
<title>Node1&#45;&gt;Node5</title>
<path fill="none" stroke="midnightblue" d="M107.75,-152.65C132.04,-164.06 165.52,-179.79 191.75,-192.12"/>
<polygon fill="midnightblue" stroke="midnightblue" points="190.52,-195.41 201.06,-196.49 193.5,-189.07 190.52,-195.41"/>
</g>
<!-- Node6 -->
<g id="node6" class="node">
<title>Node6</title>
<g id="a_node6"><a xlink:href="classirr_1_1video_1_1SColor.html#afb60ac456b2efc2f2a4f04a643293d26" target="_top" xlink:title="Returns the blue component of the color.">
<polygon fill="white" stroke="black" points="185,-147.5 185,-177.5 283,-177.5 283,-147.5 185,-147.5"/>
<text text-anchor="start" x="193" y="-165.5" font-family="Helvetica,sans-Serif" font-size="10.00">irr::video::SColor</text>
<text text-anchor="middle" x="234" y="-154.5" font-family="Helvetica,sans-Serif" font-size="10.00">::getBlue</text>
</a>
</g>
</g>
<!-- Node1&#45;&gt;Node6 -->
<g id="edge5" class="edge">
<title>Node1&#45;&gt;Node6</title>
<path fill="none" stroke="midnightblue" d="M149.18,-149.19C157.72,-150.55 166.33,-151.92 174.63,-153.23"/>
<polygon fill="midnightblue" stroke="midnightblue" points="174.13,-156.7 184.56,-154.81 175.23,-149.79 174.13,-156.7"/>
</g>
<!-- Node7 -->
<g id="node7" class="node">
<title>Node7</title>
<g id="a_node7"><a xlink:href="classirr_1_1video_1_1SColor.html#a198773366f2a5436c1ca4adc9037bb8d" target="_top" xlink:title="Returns the green component of the color.">
<polygon fill="white" stroke="black" points="185,-98.5 185,-128.5 283,-128.5 283,-98.5 185,-98.5"/>
<text text-anchor="start" x="193" y="-116.5" font-family="Helvetica,sans-Serif" font-size="10.00">irr::video::SColor</text>
<text text-anchor="middle" x="234" y="-105.5" font-family="Helvetica,sans-Serif" font-size="10.00">::getGreen</text>
</a>
</g>
</g>
<!-- Node1&#45;&gt;Node7 -->
<g id="edge6" class="edge">
<title>Node1&#45;&gt;Node7</title>
<path fill="none" stroke="midnightblue" d="M149.18,-126.27C157.72,-124.97 166.33,-123.66 174.63,-122.4"/>
<polygon fill="midnightblue" stroke="midnightblue" points="175.2,-125.85 184.56,-120.88 174.14,-118.93 175.2,-125.85"/>
</g>
<!-- Node8 -->
<g id="node8" class="node">
<title>Node8</title>
<g id="a_node8"><a xlink:href="classirr_1_1video_1_1SColor.html#a70d11ec2247581c79ee11e0e1b511978" target="_top" xlink:title="Returns the red component of the color.">
<polygon fill="white" stroke="black" points="185,-49.5 185,-79.5 283,-79.5 283,-49.5 185,-49.5"/>
<text text-anchor="start" x="193" y="-67.5" font-family="Helvetica,sans-Serif" font-size="10.00">irr::video::SColor</text>
<text text-anchor="middle" x="234" y="-56.5" font-family="Helvetica,sans-Serif" font-size="10.00">::getRed</text>
</a>
</g>
</g>
<!-- Node1&#45;&gt;Node8 -->
<g id="edge7" class="edge">
<title>Node1&#45;&gt;Node8</title>
<path fill="none" stroke="midnightblue" d="M108.13,-122.37C132.21,-111.22 165.16,-95.94 191.17,-83.89"/>
<polygon fill="midnightblue" stroke="midnightblue" points="192.81,-86.99 200.41,-79.61 189.86,-80.64 192.81,-86.99"/>
</g>
<!-- Node9 -->
<g id="node9" class="node">
<title>Node9</title>
<g id="a_node9"><a xlink:href="classirr_1_1video_1_1SColor.html#ab001c0c2515ff5f8a0b324d1345485f4" target="_top" xlink:title="Constructor of the Color. Does nothing.">
<polygon fill="white" stroke="black" points="185,-0.5 185,-30.5 283,-30.5 283,-0.5 185,-0.5"/>
<text text-anchor="start" x="193" y="-18.5" font-family="Helvetica,sans-Serif" font-size="10.00">irr::video::SColor</text>
<text text-anchor="middle" x="234" y="-7.5" font-family="Helvetica,sans-Serif" font-size="10.00">::SColor</text>
</a>
</g>
</g>
<!-- Node1&#45;&gt;Node9 -->
<g id="edge8" class="edge">
<title>Node1&#45;&gt;Node9</title>
<path fill="none" stroke="midnightblue" d="M90.02,-122.16C110.03,-101.59 147.86,-64.74 185,-39.5 186.91,-38.2 188.9,-36.93 190.94,-35.69"/>
<polygon fill="midnightblue" stroke="midnightblue" points="193.1,-38.49 200.06,-30.5 189.64,-32.41 193.1,-38.49"/>
</g>
<!-- Node3 -->
<g id="node3" class="node">
<title>Node3</title>
<g id="a_node3"><a xlink:href="namespaceirr_1_1core.html#afca1ce7ac54e0c31a9047947f4c7319b" target="_top" xlink:title="returns maximum of two values. Own implementation to get rid of the STL (VS6 problems)">
<polygon fill="white" stroke="black" points="319,-265 319,-284 406,-284 406,-265 319,-265"/>
<text text-anchor="middle" x="362.5" y="-272" font-family="Helvetica,sans-Serif" font-size="10.00">irr::core::max_</text>
</a>
</g>
</g>
<!-- Node2&#45;&gt;Node3 -->
<g id="edge2" class="edge">
<title>Node2&#45;&gt;Node3</title>
<path fill="none" stroke="midnightblue" d="M279.24,-262.15C288.76,-263.57 298.91,-265.1 308.72,-266.57"/>
<polygon fill="midnightblue" stroke="midnightblue" points="308.36,-270.06 318.77,-268.08 309.4,-263.14 308.36,-270.06"/>
</g>
<!-- Node4 -->
<g id="node4" class="node">
<title>Node4</title>
<g id="a_node4"><a xlink:href="namespaceirr_1_1core.html#a9d34bfdbbe9c136b01ae04974572bc11" target="_top" xlink:title="returns minimum of two values. Own implementation to get rid of the STL (VS6 problems)">
<polygon fill="white" stroke="black" points="320.5,-227 320.5,-246 404.5,-246 404.5,-227 320.5,-227"/>
<text text-anchor="middle" x="362.5" y="-234" font-family="Helvetica,sans-Serif" font-size="10.00">irr::core::min_</text>
</a>
</g>
</g>
<!-- Node2&#45;&gt;Node4 -->
<g id="edge3" class="edge">
<title>Node2&#45;&gt;Node4</title>
<path fill="none" stroke="midnightblue" d="M279.24,-248.85C289.29,-247.35 300.04,-245.73 310.35,-244.18"/>
<polygon fill="midnightblue" stroke="midnightblue" points="311.09,-247.61 320.46,-242.66 310.05,-240.69 311.09,-247.61"/>
</g>
</g>
</svg>
