<?xml version="1.0" encoding="UTF-8" standalone="no"?>
<!DOCTYPE svg PUBLIC "-//W3C//DTD SVG 1.1//EN"
 "http://www.w3.org/Graphics/SVG/1.1/DTD/svg11.dtd">
<!-- Generated by graphviz version 2.43.0 (0)
 -->
<!-- Title: Json::Exception Pages: 1 -->
<svg width="224pt" height="117pt"
 viewBox="0.00 0.00 223.50 117.00" xmlns="http://www.w3.org/2000/svg" xmlns:xlink="http://www.w3.org/1999/xlink">
<g id="graph0" class="graph" transform="scale(1 1) rotate(0) translate(4 113)">
<title>Json::Exception</title>
<polygon fill="white" stroke="transparent" points="-4,4 -4,-113 219.5,-113 219.5,4 -4,4"/>
<!-- Node1 -->
<g id="node1" class="node">
<title>Node1</title>
<g id="a_node1"><a xlink:title=" ">
<polygon fill="#bfbfbf" stroke="black" points="45,-0.5 45,-19.5 136,-19.5 136,-0.5 45,-0.5"/>
<text text-anchor="middle" x="90.5" y="-7.5" font-family="Helvetica,sans-Serif" font-size="10.00">Json::Exception</text>
</a>
</g>
</g>
<!-- Node2 -->
<g id="node2" class="node">
<title>Node2</title>
<g id="a_node2"><a xlink:title=" ">
<polygon fill="white" stroke="#bfbfbf" points="0,-78.5 0,-97.5 65,-97.5 65,-78.5 0,-78.5"/>
<text text-anchor="middle" x="32.5" y="-85.5" font-family="Helvetica,sans-Serif" font-size="10.00">exception</text>
</a>
</g>
</g>
<!-- Node2&#45;&gt;Node1 -->
<g id="edge1" class="edge">
<title>Node2&#45;&gt;Node1</title>
<path fill="none" stroke="midnightblue" d="M45.47,-70.01C57.4,-54.37 74.62,-31.81 83.92,-19.62"/>
<polygon fill="midnightblue" stroke="midnightblue" points="42.44,-68.21 39.15,-78.28 48,-72.46 42.44,-68.21"/>
</g>
<!-- Node3 -->
<g id="node3" class="node">
<title>Node3</title>
<g id="a_node3"><a xlink:title=" ">
<polygon fill="white" stroke="#bfbfbf" points="83.5,-67.5 83.5,-108.5 215.5,-108.5 215.5,-67.5 83.5,-67.5"/>
<text text-anchor="start" x="91.5" y="-96.5" font-family="Helvetica,sans-Serif" font-size="10.00">basic_string&lt; char,</text>
<text text-anchor="start" x="91.5" y="-85.5" font-family="Helvetica,sans-Serif" font-size="10.00"> std::char_traits&lt; char</text>
<text text-anchor="middle" x="149.5" y="-74.5" font-family="Helvetica,sans-Serif" font-size="10.00"> &gt;, Allocator&lt; char &gt; &gt;</text>
</a>
</g>
</g>
<!-- Node3&#45;&gt;Node1 -->
<g id="edge2" class="edge">
<title>Node3&#45;&gt;Node1</title>
<path fill="none" stroke="#9a32cd" stroke-dasharray="5,2" d="M128.1,-59.44C117.17,-45.35 104.62,-29.19 97.14,-19.55"/>
<polygon fill="#9a32cd" stroke="#9a32cd" points="125.41,-61.68 134.31,-67.43 130.94,-57.38 125.41,-61.68"/>
<text text-anchor="middle" x="134.5" y="-41" font-family="Helvetica,sans-Serif" font-size="10.00"> msg_</text>
</g>
</g>
</svg>
