<?xml version="1.0" encoding="UTF-8" standalone="no"?>
<!DOCTYPE svg PUBLIC "-//W3C//DTD SVG 1.1//EN"
 "http://www.w3.org/Graphics/SVG/1.1/DTD/svg11.dtd">
<!-- Generated by graphviz version 2.43.0 (0)
 -->
<!-- Title: irr::io::CAttributes Pages: 1 -->
<svg width="832pt" height="187pt"
 viewBox="0.00 0.00 832.00 187.00" xmlns="http://www.w3.org/2000/svg" xmlns:xlink="http://www.w3.org/1999/xlink">
<g id="graph0" class="graph" transform="scale(1 1) rotate(0) translate(4 183)">
<title>irr::io::CAttributes</title>
<polygon fill="white" stroke="transparent" points="-4,4 -4,-183 828,-183 828,4 -4,4"/>
<!-- Node1 -->
<g id="node1" class="node">
<title>Node1</title>
<g id="a_node1"><a xlink:title="Implementation of the IAttributes interface.">
<polygon fill="#bfbfbf" stroke="black" points="721,-109.5 721,-128.5 824,-128.5 824,-109.5 721,-109.5"/>
<text text-anchor="middle" x="772.5" y="-116.5" font-family="Helvetica,sans-Serif" font-size="10.00">irr::io::CAttributes</text>
</a>
</g>
</g>
<!-- Node2 -->
<g id="node2" class="node">
<title>Node2</title>
<g id="a_node2"><a xlink:href="classirr_1_1io_1_1IAttributes.html" target="_top" xlink:title="Provides a generic interface for attributes and their values and the possibility to serialize them.">
<polygon fill="white" stroke="black" points="520,-147.5 520,-166.5 619,-166.5 619,-147.5 520,-147.5"/>
<text text-anchor="middle" x="569.5" y="-154.5" font-family="Helvetica,sans-Serif" font-size="10.00">irr::io::IAttributes</text>
</a>
</g>
</g>
<!-- Node2&#45;&gt;Node1 -->
<g id="edge1" class="edge">
<title>Node2&#45;&gt;Node1</title>
<path fill="none" stroke="midnightblue" d="M629.04,-147.4C652.13,-143.47 678.85,-138.74 703,-134 711.48,-132.34 720.53,-130.44 729.17,-128.57"/>
<polygon fill="midnightblue" stroke="midnightblue" points="628.33,-143.98 619.05,-149.09 629.5,-150.88 628.33,-143.98"/>
</g>
<!-- Node3 -->
<g id="node3" class="node">
<title>Node3</title>
<g id="a_node3"><a xlink:href="classirr_1_1IReferenceCounted.html" target="_top" xlink:title="Base class of most objects of the Irrlicht Engine.">
<polygon fill="white" stroke="black" points="217.5,-140.5 217.5,-159.5 343.5,-159.5 343.5,-140.5 217.5,-140.5"/>
<text text-anchor="middle" x="280.5" y="-147.5" font-family="Helvetica,sans-Serif" font-size="10.00">irr::IReferenceCounted</text>
</a>
</g>
</g>
<!-- Node3&#45;&gt;Node2 -->
<g id="edge2" class="edge">
<title>Node3&#45;&gt;Node2</title>
<path fill="none" stroke="midnightblue" d="M353.91,-151.77C405.75,-153.03 474.16,-154.7 519.65,-155.81"/>
<polygon fill="midnightblue" stroke="midnightblue" points="353.86,-148.26 343.77,-151.52 353.69,-155.26 353.86,-148.26"/>
</g>
<!-- Node11 -->
<g id="node11" class="node">
<title>Node11</title>
<g id="a_node11"><a xlink:href="classirr_1_1video_1_1IVideoDriver.html" target="_top" xlink:title="Interface to driver which is able to perform 2d and 3d graphics functions.">
<polygon fill="white" stroke="black" points="506,-109.5 506,-128.5 633,-128.5 633,-109.5 506,-109.5"/>
<text text-anchor="middle" x="569.5" y="-116.5" font-family="Helvetica,sans-Serif" font-size="10.00">irr::video::IVideoDriver</text>
</a>
</g>
</g>
<!-- Node3&#45;&gt;Node11 -->
<g id="edge12" class="edge">
<title>Node3&#45;&gt;Node11</title>
<path fill="none" stroke="midnightblue" d="M353.85,-142.18C400.69,-137.13 461.07,-130.6 505.85,-125.77"/>
<polygon fill="midnightblue" stroke="midnightblue" points="353.34,-138.72 343.77,-143.27 354.09,-145.68 353.34,-138.72"/>
</g>
<!-- Node4 -->
<g id="node4" class="node">
<title>Node4</title>
<g id="a_node4"><a xlink:title=" ">
<polygon fill="white" stroke="#bfbfbf" points="19,-159.5 19,-178.5 57,-178.5 57,-159.5 19,-159.5"/>
<text text-anchor="middle" x="38" y="-166.5" font-family="Helvetica,sans-Serif" font-size="10.00">char</text>
</a>
</g>
</g>
<!-- Node4&#45;&gt;Node3 -->
<g id="edge3" class="edge">
<title>Node4&#45;&gt;Node3</title>
<path fill="none" stroke="#9a32cd" stroke-dasharray="5,2" d="M67.05,-166.78C103.71,-163.89 168.93,-158.74 217.47,-154.9"/>
<polygon fill="#9a32cd" stroke="#9a32cd" points="66.77,-163.3 57.08,-167.57 67.32,-170.27 66.77,-163.3"/>
<text text-anchor="middle" x="139.5" y="-167" font-family="Helvetica,sans-Serif" font-size="10.00"> DebugName</text>
</g>
<!-- Node5 -->
<g id="node5" class="node">
<title>Node5</title>
<g id="a_node5"><a xlink:title=" ">
<polygon fill="white" stroke="#bfbfbf" points="13,-121.5 13,-140.5 63,-140.5 63,-121.5 13,-121.5"/>
<text text-anchor="middle" x="38" y="-128.5" font-family="Helvetica,sans-Serif" font-size="10.00">int32_t</text>
</a>
</g>
</g>
<!-- Node5&#45;&gt;Node3 -->
<g id="edge4" class="edge">
<title>Node5&#45;&gt;Node3</title>
<path fill="none" stroke="#9a32cd" stroke-dasharray="5,2" d="M73.25,-133.49C102.84,-135.66 146.75,-138.94 185,-142 195.5,-142.84 206.66,-143.76 217.49,-144.67"/>
<polygon fill="#9a32cd" stroke="#9a32cd" points="73.26,-129.98 63.03,-132.74 72.75,-136.96 73.26,-129.98"/>
<text text-anchor="middle" x="139.5" y="-145" font-family="Helvetica,sans-Serif" font-size="10.00"> ReferenceCounter</text>
</g>
<!-- Node6 -->
<g id="node6" class="node">
<title>Node6</title>
<g id="a_node6"><a xlink:href="classirr_1_1core_1_1array.html" target="_top" xlink:title=" ">
<polygon fill="white" stroke="black" points="516,-59 516,-89 623,-89 623,-59 516,-59"/>
<text text-anchor="start" x="524" y="-77" font-family="Helvetica,sans-Serif" font-size="10.00">irr::core::array&lt; irr</text>
<text text-anchor="middle" x="569.5" y="-66" font-family="Helvetica,sans-Serif" font-size="10.00">::io::IAttribute * &gt;</text>
</a>
</g>
</g>
<!-- Node6&#45;&gt;Node1 -->
<g id="edge5" class="edge">
<title>Node6&#45;&gt;Node1</title>
<path fill="none" stroke="#9a32cd" stroke-dasharray="5,2" d="M632.97,-87.98C664.19,-94.98 701.16,-103.25 729.06,-109.5"/>
<polygon fill="#9a32cd" stroke="#9a32cd" points="633.57,-84.53 623.05,-85.76 632.04,-91.36 633.57,-84.53"/>
<text text-anchor="middle" x="677" y="-106" font-family="Helvetica,sans-Serif" font-size="10.00"> Attributes</text>
</g>
<!-- Node7 -->
<g id="node7" class="node">
<title>Node7</title>
<g id="a_node7"><a xlink:title=" ">
<polygon fill="white" stroke="#bfbfbf" points="203,-99.5 203,-118.5 358,-118.5 358,-99.5 203,-99.5"/>
<text text-anchor="middle" x="280.5" y="-106.5" font-family="Helvetica,sans-Serif" font-size="10.00">vector&lt; irr::io::IAttribute * &gt;</text>
</a>
</g>
</g>
<!-- Node7&#45;&gt;Node6 -->
<g id="edge6" class="edge">
<title>Node7&#45;&gt;Node6</title>
<path fill="none" stroke="#9a32cd" stroke-dasharray="5,2" d="M368.69,-98.51C405.51,-94.06 448.85,-88.8 488,-84 496.95,-82.9 506.45,-81.73 515.67,-80.59"/>
<polygon fill="#9a32cd" stroke="#9a32cd" points="367.99,-95.06 358.49,-99.74 368.83,-102.01 367.99,-95.06"/>
<text text-anchor="middle" x="432" y="-100" font-family="Helvetica,sans-Serif" font-size="10.00"> m_data</text>
</g>
<!-- Node8 -->
<g id="node8" class="node">
<title>Node8</title>
<g id="a_node8"><a xlink:href="classbool.html" target="_top" xlink:title=" ">
<polygon fill="white" stroke="black" points="19,-49.5 19,-68.5 57,-68.5 57,-49.5 19,-49.5"/>
<text text-anchor="middle" x="38" y="-56.5" font-family="Helvetica,sans-Serif" font-size="10.00">bool</text>
</a>
</g>
</g>
<!-- Node8&#45;&gt;Node6 -->
<g id="edge7" class="edge">
<title>Node8&#45;&gt;Node6</title>
<path fill="none" stroke="#9a32cd" stroke-dasharray="5,2" d="M67.4,-59.8C152.32,-62.21 405.27,-69.38 515.82,-72.51"/>
<polygon fill="#9a32cd" stroke="#9a32cd" points="67.32,-56.3 57.23,-59.52 67.12,-63.3 67.32,-56.3"/>
<text text-anchor="middle" x="280.5" y="-70" font-family="Helvetica,sans-Serif" font-size="10.00"> is_sorted</text>
</g>
<!-- Node9 -->
<g id="node9" class="node">
<title>Node9</title>
<g id="a_node9"><a xlink:href="classirr_1_1core_1_1array.html" target="_top" xlink:title="Self reallocating template array (like stl vector) with additional features.">
<polygon fill="white" stroke="black" points="223.5,-14.5 223.5,-33.5 337.5,-33.5 337.5,-14.5 223.5,-14.5"/>
<text text-anchor="middle" x="280.5" y="-21.5" font-family="Helvetica,sans-Serif" font-size="10.00">irr::core::array&lt; T &gt;</text>
</a>
</g>
</g>
<!-- Node8&#45;&gt;Node9 -->
<g id="edge9" class="edge">
<title>Node8&#45;&gt;Node9</title>
<path fill="none" stroke="#9a32cd" stroke-dasharray="5,2" d="M67.1,-51.06C75.68,-48.85 85.18,-46.61 94,-45 137.04,-37.12 186.27,-31.71 223.2,-28.36"/>
<polygon fill="#9a32cd" stroke="#9a32cd" points="65.96,-47.74 57.2,-53.7 67.76,-54.51 65.96,-47.74"/>
<text text-anchor="middle" x="139.5" y="-48" font-family="Helvetica,sans-Serif" font-size="10.00"> is_sorted</text>
</g>
<!-- Node9&#45;&gt;Node6 -->
<g id="edge8" class="edge">
<title>Node9&#45;&gt;Node6</title>
<path fill="none" stroke="orange" stroke-dasharray="5,2" d="M347.85,-26.62C388.68,-29.25 441.84,-34.5 488,-45 502.92,-48.39 518.87,-53.75 532.6,-58.94"/>
<polygon fill="orange" stroke="orange" points="347.95,-23.12 337.75,-26.01 347.52,-30.11 347.95,-23.12"/>
<text text-anchor="middle" x="432" y="-48" font-family="Helvetica,sans-Serif" font-size="10.00"> &lt; irr::io::IAttribute * &gt;</text>
</g>
<!-- Node10 -->
<g id="node10" class="node">
<title>Node10</title>
<g id="a_node10"><a xlink:title=" ">
<polygon fill="white" stroke="#bfbfbf" points="0,-0.5 0,-19.5 76,-19.5 76,-0.5 0,-0.5"/>
<text text-anchor="middle" x="38" y="-7.5" font-family="Helvetica,sans-Serif" font-size="10.00">vector&lt; T &gt;</text>
</a>
</g>
</g>
<!-- Node10&#45;&gt;Node9 -->
<g id="edge10" class="edge">
<title>Node10&#45;&gt;Node9</title>
<path fill="none" stroke="#9a32cd" stroke-dasharray="5,2" d="M86.38,-8.77C114.98,-8.42 152.12,-8.64 185,-11 197.47,-11.9 210.81,-13.4 223.41,-15.06"/>
<polygon fill="#9a32cd" stroke="#9a32cd" points="86.2,-5.27 76.26,-8.93 86.31,-12.27 86.2,-5.27"/>
<text text-anchor="middle" x="139.5" y="-14" font-family="Helvetica,sans-Serif" font-size="10.00"> m_data</text>
</g>
<!-- Node11&#45;&gt;Node1 -->
<g id="edge11" class="edge">
<title>Node11&#45;&gt;Node1</title>
<path fill="none" stroke="#9a32cd" stroke-dasharray="5,2" d="M643.37,-119C669.11,-119 697.47,-119 720.96,-119"/>
<polygon fill="#9a32cd" stroke="#9a32cd" points="643.27,-115.5 633.27,-119 643.27,-122.5 643.27,-115.5"/>
<text text-anchor="middle" x="677" y="-122" font-family="Helvetica,sans-Serif" font-size="10.00"> Driver</text>
</g>
</g>
</svg>
