<?xml version="1.0" encoding="UTF-8" standalone="no"?>
<!DOCTYPE svg PUBLIC "-//W3C//DTD SVG 1.1//EN"
 "http://www.w3.org/Graphics/SVG/1.1/DTD/svg11.dtd">
<!-- Generated by graphviz version 2.43.0 (0)
 -->
<!-- Title: SimpleMetadata Pages: 1 -->
<svg width="293pt" height="106pt"
 viewBox="0.00 0.00 293.00 106.00" xmlns="http://www.w3.org/2000/svg" xmlns:xlink="http://www.w3.org/1999/xlink">
<g id="graph0" class="graph" transform="scale(1 1) rotate(0) translate(4 102)">
<title>SimpleMetadata</title>
<polygon fill="white" stroke="transparent" points="-4,4 -4,-102 289,-102 289,4 -4,4"/>
<!-- Node1 -->
<g id="node1" class="node">
<title>Node1</title>
<g id="a_node1"><a xlink:title=" ">
<polygon fill="#bfbfbf" stroke="black" points="95.5,-0.5 95.5,-19.5 192.5,-19.5 192.5,-0.5 95.5,-0.5"/>
<text text-anchor="middle" x="144" y="-7.5" font-family="Helvetica,sans-Serif" font-size="10.00">SimpleMetadata</text>
</a>
</g>
</g>
<!-- Node2 -->
<g id="node2" class="node">
<title>Node2</title>
<g id="a_node2"><a xlink:href="classIMetadata.html" target="_top" xlink:title=" ">
<polygon fill="white" stroke="black" points="0,-73 0,-92 66,-92 66,-73 0,-73"/>
<text text-anchor="middle" x="33" y="-80" font-family="Helvetica,sans-Serif" font-size="10.00">IMetadata</text>
</a>
</g>
</g>
<!-- Node2&#45;&gt;Node1 -->
<g id="edge1" class="edge">
<title>Node2&#45;&gt;Node1</title>
<path fill="none" stroke="midnightblue" d="M55.15,-67.43C77.55,-53.2 111.49,-31.65 130.28,-19.72"/>
<polygon fill="midnightblue" stroke="midnightblue" points="53.18,-64.54 46.61,-72.86 56.93,-70.45 53.18,-64.54"/>
</g>
<!-- Node3 -->
<g id="node3" class="node">
<title>Node3</title>
<g id="a_node3"><a xlink:title=" ">
<polygon fill="white" stroke="#bfbfbf" points="84.5,-67.5 84.5,-97.5 203.5,-97.5 203.5,-67.5 84.5,-67.5"/>
<text text-anchor="start" x="92.5" y="-85.5" font-family="Helvetica,sans-Serif" font-size="10.00">unordered_map&lt; std</text>
<text text-anchor="middle" x="144" y="-74.5" font-family="Helvetica,sans-Serif" font-size="10.00">::string, std::string &gt;</text>
</a>
</g>
</g>
<!-- Node3&#45;&gt;Node1 -->
<g id="edge2" class="edge">
<title>Node3&#45;&gt;Node1</title>
<path fill="none" stroke="#9a32cd" stroke-dasharray="5,2" d="M144,-57.09C144,-44.21 144,-29.2 144,-19.89"/>
<polygon fill="#9a32cd" stroke="#9a32cd" points="140.5,-57.23 144,-67.23 147.5,-57.23 140.5,-57.23"/>
<text text-anchor="middle" x="177.5" y="-41" font-family="Helvetica,sans-Serif" font-size="10.00"> m_stringvars</text>
</g>
<!-- Node4 -->
<g id="node4" class="node">
<title>Node4</title>
<g id="a_node4"><a xlink:href="classbool.html" target="_top" xlink:title=" ">
<polygon fill="white" stroke="black" points="222,-73 222,-92 260,-92 260,-73 222,-73"/>
<text text-anchor="middle" x="241" y="-80" font-family="Helvetica,sans-Serif" font-size="10.00">bool</text>
</a>
</g>
</g>
<!-- Node4&#45;&gt;Node1 -->
<g id="edge3" class="edge">
<title>Node4&#45;&gt;Node1</title>
<path fill="none" stroke="#9a32cd" stroke-dasharray="5,2" d="M233.71,-63.62C229.39,-54.89 223.14,-44.83 215,-38 205,-29.61 192.11,-23.67 180.07,-19.54"/>
<polygon fill="#9a32cd" stroke="#9a32cd" points="230.63,-65.29 237.91,-72.98 237.01,-62.42 230.63,-65.29"/>
<text text-anchor="middle" x="254.5" y="-41" font-family="Helvetica,sans-Serif" font-size="10.00"> m_modified</text>
</g>
</g>
</svg>
