<?xml version="1.0" encoding="UTF-8" standalone="no"?>
<!DOCTYPE svg PUBLIC "-//W3C//DTD SVG 1.1//EN"
 "http://www.w3.org/Graphics/SVG/1.1/DTD/svg11.dtd">
<!-- Generated by graphviz version 2.43.0 (0)
 -->
<!-- Title: irr::gui::IGUIElement::setRelativePositionProportional Pages: 1 -->
<svg width="358pt" height="127pt"
 viewBox="0.00 0.00 358.00 127.00" xmlns="http://www.w3.org/2000/svg" xmlns:xlink="http://www.w3.org/1999/xlink">
<g id="graph0" class="graph" transform="scale(1 1) rotate(0) translate(4 123)">
<title>irr::gui::IGUIElement::setRelativePositionProportional</title>
<polygon fill="white" stroke="transparent" points="-4,4 -4,-123 354,-123 354,4 -4,4"/>
<!-- Node1 -->
<g id="node1" class="node">
<title>Node1</title>
<g id="a_node1"><a xlink:title="Sets the relative rectangle of this element as a proportion of its parent&#39;s area.">
<polygon fill="#bfbfbf" stroke="black" points="0,-44.5 0,-74.5 176,-74.5 176,-44.5 0,-44.5"/>
<text text-anchor="start" x="8" y="-62.5" font-family="Helvetica,sans-Serif" font-size="10.00">irr::gui::IGUIElement</text>
<text text-anchor="middle" x="88" y="-51.5" font-family="Helvetica,sans-Serif" font-size="10.00">::setRelativePositionProportional</text>
</a>
</g>
</g>
<!-- Node2 -->
<g id="node2" class="node">
<title>Node2</title>
<g id="a_node2"><a xlink:href="classirr_1_1gui_1_1IGUIElement.html#a6c5b94dd889533a306a03e25d0998bdf" target="_top" xlink:title="Gets the absolute rectangle of this element.">
<polygon fill="white" stroke="black" points="221,-88.5 221,-118.5 341,-118.5 341,-88.5 221,-88.5"/>
<text text-anchor="start" x="229" y="-106.5" font-family="Helvetica,sans-Serif" font-size="10.00">irr::gui::IGUIElement</text>
<text text-anchor="middle" x="281" y="-95.5" font-family="Helvetica,sans-Serif" font-size="10.00">::getAbsolutePosition</text>
</a>
</g>
</g>
<!-- Node1&#45;&gt;Node2 -->
<g id="edge1" class="edge">
<title>Node1&#45;&gt;Node2</title>
<path fill="none" stroke="midnightblue" d="M154.2,-74.52C172.52,-78.74 192.5,-83.34 211.03,-87.61"/>
<polygon fill="midnightblue" stroke="midnightblue" points="210.34,-91.04 220.87,-89.88 211.91,-84.22 210.34,-91.04"/>
</g>
<!-- Node3 -->
<g id="node3" class="node">
<title>Node3</title>
<g id="a_node3"><a xlink:href="classirr_1_1core_1_1rect.html#aa5e0bf0e6474c1603c735a63843833fa" target="_top" xlink:title="Get the dimensions of the rectangle.">
<polygon fill="white" stroke="black" points="220.5,-50 220.5,-69 341.5,-69 341.5,-50 220.5,-50"/>
<text text-anchor="middle" x="281" y="-57" font-family="Helvetica,sans-Serif" font-size="10.00">irr::core::rect::getSize</text>
</a>
</g>
</g>
<!-- Node1&#45;&gt;Node3 -->
<g id="edge2" class="edge">
<title>Node1&#45;&gt;Node3</title>
<path fill="none" stroke="midnightblue" d="M176.12,-59.5C187.57,-59.5 199.18,-59.5 210.29,-59.5"/>
<polygon fill="midnightblue" stroke="midnightblue" points="210.33,-63 220.33,-59.5 210.33,-56 210.33,-63"/>
</g>
<!-- Node4 -->
<g id="node4" class="node">
<title>Node4</title>
<g id="a_node4"><a xlink:href="classirr_1_1gui_1_1IGUIElement.html#ad58bbeba69a118873a5075d86b4c90f2" target="_top" xlink:title="Updates the absolute position.">
<polygon fill="white" stroke="black" points="212,-0.5 212,-30.5 350,-30.5 350,-0.5 212,-0.5"/>
<text text-anchor="start" x="220" y="-18.5" font-family="Helvetica,sans-Serif" font-size="10.00">irr::gui::IGUIElement</text>
<text text-anchor="middle" x="281" y="-7.5" font-family="Helvetica,sans-Serif" font-size="10.00">::updateAbsolutePosition</text>
</a>
</g>
</g>
<!-- Node1&#45;&gt;Node4 -->
<g id="edge3" class="edge">
<title>Node1&#45;&gt;Node4</title>
<path fill="none" stroke="midnightblue" d="M154.2,-44.48C170.55,-40.71 188.22,-36.64 205.01,-32.78"/>
<polygon fill="midnightblue" stroke="midnightblue" points="205.81,-36.18 214.77,-30.53 204.24,-29.36 205.81,-36.18"/>
</g>
</g>
</svg>
