<?xml version="1.0" encoding="UTF-8" standalone="no"?>
<!DOCTYPE svg PUBLIC "-//W3C//DTD SVG 1.1//EN"
 "http://www.w3.org/Graphics/SVG/1.1/DTD/svg11.dtd">
<!-- Generated by graphviz version 2.43.0 (0)
 -->
<!-- Title: VectorAreaStore::insertArea Pages: 1 -->
<svg width="345pt" height="66pt"
 viewBox="0.00 0.00 345.00 66.00" xmlns="http://www.w3.org/2000/svg" xmlns:xlink="http://www.w3.org/1999/xlink">
<g id="graph0" class="graph" transform="scale(1 1) rotate(0) translate(4 62)">
<title>VectorAreaStore::insertArea</title>
<polygon fill="white" stroke="transparent" points="-4,4 -4,-62 341,-62 341,4 -4,4"/>
<!-- Node1 -->
<g id="node1" class="node">
<title>Node1</title>
<g id="a_node1"><a xlink:title=" ">
<polygon fill="#bfbfbf" stroke="black" points="0,-19.5 0,-38.5 152,-38.5 152,-19.5 0,-19.5"/>
<text text-anchor="middle" x="76" y="-26.5" font-family="Helvetica,sans-Serif" font-size="10.00">VectorAreaStore::insertArea</text>
</a>
</g>
</g>
<!-- Node2 -->
<g id="node2" class="node">
<title>Node2</title>
<g id="a_node2"><a xlink:href="classAreaStore.html#a5097417521486501bff59461c98653d7" target="_top" xlink:title="Returns the next area ID and increments it.">
<polygon fill="white" stroke="black" points="203,-38.5 203,-57.5 322,-57.5 322,-38.5 203,-38.5"/>
<text text-anchor="middle" x="262.5" y="-45.5" font-family="Helvetica,sans-Serif" font-size="10.00">AreaStore::getNextId</text>
</a>
</g>
</g>
<!-- Node1&#45;&gt;Node2 -->
<g id="edge1" class="edge">
<title>Node1&#45;&gt;Node2</title>
<path fill="none" stroke="midnightblue" d="M152.04,-36.73C165.56,-38.12 179.58,-39.56 192.9,-40.94"/>
<polygon fill="midnightblue" stroke="midnightblue" points="192.63,-44.43 202.93,-41.97 193.34,-37.46 192.63,-44.43"/>
</g>
<!-- Node3 -->
<g id="node3" class="node">
<title>Node3</title>
<g id="a_node3"><a xlink:href="classAreaStore.html#ae03a4502204433170dea3daf82358022" target="_top" xlink:title=" ">
<polygon fill="white" stroke="black" points="188,-0.5 188,-19.5 337,-19.5 337,-0.5 188,-0.5"/>
<text text-anchor="middle" x="262.5" y="-7.5" font-family="Helvetica,sans-Serif" font-size="10.00">AreaStore::invalidateCache</text>
</a>
</g>
</g>
<!-- Node1&#45;&gt;Node3 -->
<g id="edge2" class="edge">
<title>Node1&#45;&gt;Node3</title>
<path fill="none" stroke="midnightblue" d="M152.04,-21.27C160.5,-20.4 169.17,-19.51 177.73,-18.63"/>
<polygon fill="midnightblue" stroke="midnightblue" points="178.13,-22.1 187.72,-17.6 177.41,-15.14 178.13,-22.1"/>
</g>
</g>
</svg>
