<?xml version="1.0" encoding="UTF-8" standalone="no"?>
<!DOCTYPE svg PUBLIC "-//W3C//DTD SVG 1.1//EN"
 "http://www.w3.org/Graphics/SVG/1.1/DTD/svg11.dtd">
<!-- Generated by graphviz version 2.43.0 (0)
 -->
<!-- Title: irr::gui::CGUIEnvironment::getNextElement Pages: 1 -->
<svg width="453pt" height="225pt"
 viewBox="0.00 0.00 453.00 225.00" xmlns="http://www.w3.org/2000/svg" xmlns:xlink="http://www.w3.org/1999/xlink">
<g id="graph0" class="graph" transform="scale(1 1) rotate(0) translate(4 221)">
<title>irr::gui::CGUIEnvironment::getNextElement</title>
<polygon fill="white" stroke="transparent" points="-4,4 -4,-221 449,-221 449,4 -4,4"/>
<!-- Node1 -->
<g id="node1" class="node">
<title>Node1</title>
<g id="a_node1"><a xlink:title="Find the next element which would be selected when pressing the tab&#45;key.">
<polygon fill="#bfbfbf" stroke="black" points="0,-98.5 0,-128.5 141,-128.5 141,-98.5 0,-98.5"/>
<text text-anchor="start" x="8" y="-116.5" font-family="Helvetica,sans-Serif" font-size="10.00">irr::gui::CGUIEnvironment</text>
<text text-anchor="middle" x="70.5" y="-105.5" font-family="Helvetica,sans-Serif" font-size="10.00">::getNextElement</text>
</a>
</g>
</g>
<!-- Node2 -->
<g id="node2" class="node">
<title>Node2</title>
<g id="a_node2"><a xlink:href="classirr_1_1gui_1_1IGUIElement.html#aa1d5846a06c6f24140cbfbd831cc8a04" target="_top" xlink:title="searches elements to find the closest next element to tab to">
<polygon fill="white" stroke="black" points="177,-186.5 177,-216.5 293,-216.5 293,-186.5 177,-186.5"/>
<text text-anchor="start" x="185" y="-204.5" font-family="Helvetica,sans-Serif" font-size="10.00">irr::gui::IGUIElement</text>
<text text-anchor="middle" x="235" y="-193.5" font-family="Helvetica,sans-Serif" font-size="10.00">::getNextElement</text>
</a>
</g>
</g>
<!-- Node1&#45;&gt;Node2 -->
<g id="edge1" class="edge">
<title>Node1&#45;&gt;Node2</title>
<path fill="none" stroke="midnightblue" d="M98.75,-128.66C120.01,-140.44 150.31,-157.14 177,-171.5 183.15,-174.81 189.7,-178.29 196.08,-181.66"/>
<polygon fill="midnightblue" stroke="midnightblue" points="194.76,-184.93 205.24,-186.49 198.03,-178.73 194.76,-184.93"/>
</g>
<!-- Node3 -->
<g id="node3" class="node">
<title>Node3</title>
<g id="a_node3"><a xlink:href="classirr_1_1gui_1_1IGUIElement.html#af1f535aacf6e19fda64511715100e069" target="_top" xlink:title="Returns the number in the tab order sequence.">
<polygon fill="white" stroke="black" points="329,-164.5 329,-194.5 445,-194.5 445,-164.5 329,-164.5"/>
<text text-anchor="start" x="337" y="-182.5" font-family="Helvetica,sans-Serif" font-size="10.00">irr::gui::IGUIElement</text>
<text text-anchor="middle" x="387" y="-171.5" font-family="Helvetica,sans-Serif" font-size="10.00">::getTabOrder</text>
</a>
</g>
</g>
<!-- Node1&#45;&gt;Node3 -->
<g id="edge5" class="edge">
<title>Node1&#45;&gt;Node3</title>
<path fill="none" stroke="midnightblue" d="M133.05,-128.51C147.45,-131.9 162.74,-135.41 177,-138.5 224.24,-148.73 277.73,-159.2 318.77,-167"/>
<polygon fill="midnightblue" stroke="midnightblue" points="318.18,-170.45 328.66,-168.87 319.49,-163.57 318.18,-170.45"/>
</g>
<!-- Node4 -->
<g id="node4" class="node">
<title>Node4</title>
<g id="a_node4"><a xlink:href="classirr_1_1gui_1_1IGUIElement.html#ab3eacf3540cb5b020f3c4a24c6a67473" target="_top" xlink:title="Returns parent of this element.">
<polygon fill="white" stroke="black" points="177,-98.5 177,-128.5 293,-128.5 293,-98.5 177,-98.5"/>
<text text-anchor="start" x="185" y="-116.5" font-family="Helvetica,sans-Serif" font-size="10.00">irr::gui::IGUIElement</text>
<text text-anchor="middle" x="235" y="-105.5" font-family="Helvetica,sans-Serif" font-size="10.00">::getParent</text>
</a>
</g>
</g>
<!-- Node1&#45;&gt;Node4 -->
<g id="edge3" class="edge">
<title>Node1&#45;&gt;Node4</title>
<path fill="none" stroke="midnightblue" d="M141.36,-113.5C149.8,-113.5 158.4,-113.5 166.8,-113.5"/>
<polygon fill="midnightblue" stroke="midnightblue" points="166.92,-117 176.92,-113.5 166.92,-110 166.92,-117"/>
</g>
<!-- Node5 -->
<g id="node5" class="node">
<title>Node5</title>
<g id="a_node5"><a xlink:href="classirr_1_1gui_1_1IGUIElement.html#ab6266a2fd3d8b0be385f9f3f3364e9ff" target="_top" xlink:title="Returns the container element which holds all elements in this element&#39;s tab group.">
<polygon fill="white" stroke="black" points="177,-49.5 177,-79.5 293,-79.5 293,-49.5 177,-49.5"/>
<text text-anchor="start" x="185" y="-67.5" font-family="Helvetica,sans-Serif" font-size="10.00">irr::gui::IGUIElement</text>
<text text-anchor="middle" x="235" y="-56.5" font-family="Helvetica,sans-Serif" font-size="10.00">::getTabGroup</text>
</a>
</g>
</g>
<!-- Node1&#45;&gt;Node5 -->
<g id="edge4" class="edge">
<title>Node1&#45;&gt;Node5</title>
<path fill="none" stroke="midnightblue" d="M121.58,-98.4C138.19,-93.39 156.84,-87.77 174.1,-82.56"/>
<polygon fill="midnightblue" stroke="midnightblue" points="175.52,-85.79 184.08,-79.55 173.5,-79.09 175.52,-85.79"/>
</g>
<!-- Node6 -->
<g id="node6" class="node">
<title>Node6</title>
<g id="a_node6"><a xlink:href="classirr_1_1gui_1_1IGUIElement.html#a70596321725a708ecea4974d4df760c9" target="_top" xlink:title="Returns true if this element is a tab group.">
<polygon fill="white" stroke="black" points="177,-0.5 177,-30.5 293,-30.5 293,-0.5 177,-0.5"/>
<text text-anchor="start" x="185" y="-18.5" font-family="Helvetica,sans-Serif" font-size="10.00">irr::gui::IGUIElement</text>
<text text-anchor="middle" x="235" y="-7.5" font-family="Helvetica,sans-Serif" font-size="10.00">::isTabGroup</text>
</a>
</g>
</g>
<!-- Node1&#45;&gt;Node6 -->
<g id="edge6" class="edge">
<title>Node1&#45;&gt;Node6</title>
<path fill="none" stroke="midnightblue" d="M90.98,-98.32C111.62,-82.65 145.5,-58.09 177,-40.5 180.41,-38.6 183.98,-36.74 187.62,-34.94"/>
<polygon fill="midnightblue" stroke="midnightblue" points="189.17,-38.08 196.7,-30.63 186.17,-31.75 189.17,-38.08"/>
</g>
<!-- Node2&#45;&gt;Node3 -->
<g id="edge2" class="edge">
<title>Node2&#45;&gt;Node3</title>
<path fill="none" stroke="midnightblue" d="M293.14,-193.12C301.47,-191.9 310.11,-190.63 318.62,-189.38"/>
<polygon fill="midnightblue" stroke="midnightblue" points="319.14,-192.84 328.53,-187.93 318.12,-185.92 319.14,-192.84"/>
</g>
</g>
</svg>
