<?xml version="1.0" encoding="UTF-8" standalone="no"?>
<!DOCTYPE svg PUBLIC "-//W3C//DTD SVG 1.1//EN"
 "http://www.w3.org/Graphics/SVG/1.1/DTD/svg11.dtd">
<!-- Generated by graphviz version 2.43.0 (0)
 -->
<!-- Title: Biome Pages: 1 -->
<svg width="162pt" height="84pt"
 viewBox="0.00 0.00 161.50 84.00" xmlns="http://www.w3.org/2000/svg" xmlns:xlink="http://www.w3.org/1999/xlink">
<g id="graph0" class="graph" transform="scale(1 1) rotate(0) translate(4 80)">
<title>Biome</title>
<polygon fill="white" stroke="transparent" points="-4,4 -4,-80 157.5,-80 157.5,4 -4,4"/>
<!-- Node1 -->
<g id="node1" class="node">
<title>Node1</title>
<g id="a_node1"><a xlink:title=" ">
<polygon fill="#bfbfbf" stroke="black" points="44,-0.5 44,-19.5 92,-19.5 92,-0.5 44,-0.5"/>
<text text-anchor="middle" x="68" y="-7.5" font-family="Helvetica,sans-Serif" font-size="10.00">Biome</text>
</a>
</g>
</g>
<!-- Node2 -->
<g id="node2" class="node">
<title>Node2</title>
<g id="a_node2"><a xlink:href="classObjDef.html" target="_top" xlink:title=" ">
<polygon fill="white" stroke="black" points="0,-56.5 0,-75.5 50,-75.5 50,-56.5 0,-56.5"/>
<text text-anchor="middle" x="25" y="-63.5" font-family="Helvetica,sans-Serif" font-size="10.00">ObjDef</text>
</a>
</g>
</g>
<!-- Node2&#45;&gt;Node1 -->
<g id="edge1" class="edge">
<title>Node2&#45;&gt;Node1</title>
<path fill="none" stroke="midnightblue" d="M38.42,-48.14C45.91,-38.74 54.94,-27.4 61.03,-19.75"/>
<polygon fill="midnightblue" stroke="midnightblue" points="35.59,-46.08 32.1,-56.08 41.07,-50.44 35.59,-46.08"/>
</g>
<!-- Node3 -->
<g id="node3" class="node">
<title>Node3</title>
<g id="a_node3"><a xlink:href="classNodeResolver.html" target="_top" xlink:title=" ">
<polygon fill="white" stroke="black" points="68.5,-56.5 68.5,-75.5 153.5,-75.5 153.5,-56.5 68.5,-56.5"/>
<text text-anchor="middle" x="111" y="-63.5" font-family="Helvetica,sans-Serif" font-size="10.00">NodeResolver</text>
</a>
</g>
</g>
<!-- Node3&#45;&gt;Node1 -->
<g id="edge2" class="edge">
<title>Node3&#45;&gt;Node1</title>
<path fill="none" stroke="midnightblue" d="M97.58,-48.14C90.09,-38.74 81.06,-27.4 74.97,-19.75"/>
<polygon fill="midnightblue" stroke="midnightblue" points="94.93,-50.44 103.9,-56.08 100.41,-46.08 94.93,-50.44"/>
</g>
</g>
</svg>
