<?xml version="1.0" encoding="UTF-8" standalone="no"?>
<!DOCTYPE svg PUBLIC "-//W3C//DTD SVG 1.1//EN"
 "http://www.w3.org/Graphics/SVG/1.1/DTD/svg11.dtd">
<!-- Generated by graphviz version 2.43.0 (0)
 -->
<!-- Title: GUITable Pages: 1 -->
<svg width="260pt" height="140pt"
 viewBox="0.00 0.00 259.50 140.00" xmlns="http://www.w3.org/2000/svg" xmlns:xlink="http://www.w3.org/1999/xlink">
<g id="graph0" class="graph" transform="scale(1 1) rotate(0) translate(4 136)">
<title>GUITable</title>
<polygon fill="white" stroke="transparent" points="-4,4 -4,-136 255.5,-136 255.5,4 -4,4"/>
<!-- Node1 -->
<g id="node1" class="node">
<title>Node1</title>
<g id="a_node1"><a xlink:title=" ">
<polygon fill="#bfbfbf" stroke="black" points="100,-0.5 100,-19.5 160,-19.5 160,-0.5 100,-0.5"/>
<text text-anchor="middle" x="130" y="-7.5" font-family="Helvetica,sans-Serif" font-size="10.00">GUITable</text>
</a>
</g>
</g>
<!-- Node2 -->
<g id="node2" class="node">
<title>Node2</title>
<g id="a_node2"><a xlink:href="classirr_1_1gui_1_1IGUIElement.html" target="_top" xlink:title="Base class of all GUI elements.">
<polygon fill="white" stroke="black" points="72,-56.5 72,-75.5 188,-75.5 188,-56.5 72,-56.5"/>
<text text-anchor="middle" x="130" y="-63.5" font-family="Helvetica,sans-Serif" font-size="10.00">irr::gui::IGUIElement</text>
</a>
</g>
</g>
<!-- Node2&#45;&gt;Node1 -->
<g id="edge1" class="edge">
<title>Node2&#45;&gt;Node1</title>
<path fill="none" stroke="midnightblue" d="M130,-45.8C130,-36.91 130,-26.78 130,-19.75"/>
<polygon fill="midnightblue" stroke="midnightblue" points="126.5,-46.08 130,-56.08 133.5,-46.08 126.5,-46.08"/>
</g>
<!-- Node3 -->
<g id="node3" class="node">
<title>Node3</title>
<g id="a_node3"><a xlink:href="classirr_1_1IReferenceCounted.html" target="_top" xlink:title="Base class of most objects of the Irrlicht Engine.">
<polygon fill="white" stroke="black" points="0,-112.5 0,-131.5 126,-131.5 126,-112.5 0,-112.5"/>
<text text-anchor="middle" x="63" y="-119.5" font-family="Helvetica,sans-Serif" font-size="10.00">irr::IReferenceCounted</text>
</a>
</g>
</g>
<!-- Node3&#45;&gt;Node2 -->
<g id="edge2" class="edge">
<title>Node3&#45;&gt;Node2</title>
<path fill="none" stroke="midnightblue" d="M81.83,-105.82C93.84,-96.15 108.97,-83.95 119.04,-75.83"/>
<polygon fill="midnightblue" stroke="midnightblue" points="79.35,-103.32 73.76,-112.32 83.75,-108.77 79.35,-103.32"/>
</g>
<!-- Node4 -->
<g id="node4" class="node">
<title>Node4</title>
<g id="a_node4"><a xlink:href="classirr_1_1IEventReceiver.html" target="_top" xlink:title="Interface of an object which can receive events.">
<polygon fill="white" stroke="black" points="144.5,-112.5 144.5,-131.5 251.5,-131.5 251.5,-112.5 144.5,-112.5"/>
<text text-anchor="middle" x="198" y="-119.5" font-family="Helvetica,sans-Serif" font-size="10.00">irr::IEventReceiver</text>
</a>
</g>
</g>
<!-- Node4&#45;&gt;Node2 -->
<g id="edge3" class="edge">
<title>Node4&#45;&gt;Node2</title>
<path fill="none" stroke="midnightblue" d="M179.24,-106.1C167,-96.38 151.44,-84.03 141.12,-75.83"/>
<polygon fill="midnightblue" stroke="midnightblue" points="177.07,-108.85 187.07,-112.32 181.42,-103.36 177.07,-108.85"/>
</g>
</g>
</svg>
