<?xml version="1.0" encoding="UTF-8" standalone="no"?>
<!DOCTYPE svg PUBLIC "-//W3C//DTD SVG 1.1//EN"
 "http://www.w3.org/Graphics/SVG/1.1/DTD/svg11.dtd">
<!-- Generated by graphviz version 2.43.0 (0)
 -->
<!-- Title: irr::scene::SVertexPositionScaleManipulator Pages: 1 -->
<svg width="373pt" height="295pt"
 viewBox="0.00 0.00 373.00 295.00" xmlns="http://www.w3.org/2000/svg" xmlns:xlink="http://www.w3.org/1999/xlink">
<g id="graph0" class="graph" transform="scale(1 1) rotate(0) translate(4 291)">
<title>irr::scene::SVertexPositionScaleManipulator</title>
<polygon fill="white" stroke="transparent" points="-4,4 -4,-291 369,-291 369,4 -4,4"/>
<!-- Node1 -->
<g id="node1" class="node">
<title>Node1</title>
<g id="a_node1"><a xlink:title="Vertex manipulator which scales the position of the vertex.">
<polygon fill="#bfbfbf" stroke="black" points="24.5,-0.5 24.5,-30.5 168.5,-30.5 168.5,-0.5 24.5,-0.5"/>
<text text-anchor="start" x="32.5" y="-18.5" font-family="Helvetica,sans-Serif" font-size="10.00">irr::scene::SVertexPosition</text>
<text text-anchor="middle" x="96.5" y="-7.5" font-family="Helvetica,sans-Serif" font-size="10.00">ScaleManipulator</text>
</a>
</g>
</g>
<!-- Node2 -->
<g id="node2" class="node">
<title>Node2</title>
<g id="a_node2"><a xlink:href="structirr_1_1scene_1_1IVertexManipulator.html" target="_top" xlink:title="Interface for vertex manipulators.">
<polygon fill="white" stroke="black" points="0,-84 0,-103 161,-103 161,-84 0,-84"/>
<text text-anchor="middle" x="80.5" y="-91" font-family="Helvetica,sans-Serif" font-size="10.00">irr::scene::IVertexManipulator</text>
</a>
</g>
</g>
<!-- Node2&#45;&gt;Node1 -->
<g id="edge1" class="edge">
<title>Node2&#45;&gt;Node1</title>
<path fill="none" stroke="midnightblue" d="M84.44,-73.78C87.26,-60.4 90.99,-42.69 93.55,-30.52"/>
<polygon fill="midnightblue" stroke="midnightblue" points="80.97,-73.28 82.34,-83.78 87.82,-74.72 80.97,-73.28"/>
</g>
<!-- Node3 -->
<g id="node3" class="node">
<title>Node3</title>
<g id="a_node3"><a xlink:href="classirr_1_1core_1_1vector3d.html" target="_top" xlink:title=" ">
<polygon fill="white" stroke="black" points="179,-78.5 179,-108.5 282,-108.5 282,-78.5 179,-78.5"/>
<text text-anchor="start" x="187" y="-96.5" font-family="Helvetica,sans-Serif" font-size="10.00">irr::core::vector3d</text>
<text text-anchor="middle" x="230.5" y="-85.5" font-family="Helvetica,sans-Serif" font-size="10.00">&lt; f32 &gt;</text>
</a>
</g>
</g>
<!-- Node3&#45;&gt;Node1 -->
<g id="edge2" class="edge">
<title>Node3&#45;&gt;Node1</title>
<path fill="none" stroke="#9a32cd" stroke-dasharray="5,2" d="M196.69,-73.32C173.21,-60.01 142.47,-42.57 121.26,-30.54"/>
<polygon fill="#9a32cd" stroke="#9a32cd" points="195.18,-76.49 205.61,-78.38 198.64,-70.41 195.18,-76.49"/>
<text text-anchor="middle" x="189" y="-52" font-family="Helvetica,sans-Serif" font-size="10.00"> Factor</text>
</g>
<!-- Node4 -->
<g id="node4" class="node">
<title>Node4</title>
<g id="a_node4"><a xlink:title=" ">
<polygon fill="white" stroke="#bfbfbf" points="177.5,-178.5 177.5,-197.5 215.5,-197.5 215.5,-178.5 177.5,-178.5"/>
<text text-anchor="middle" x="196.5" y="-185.5" font-family="Helvetica,sans-Serif" font-size="10.00">float</text>
</a>
</g>
</g>
<!-- Node4&#45;&gt;Node3 -->
<g id="edge3" class="edge">
<title>Node4&#45;&gt;Node3</title>
<path fill="none" stroke="#9a32cd" stroke-dasharray="5,2" d="M203.19,-168.79C209.67,-151.17 219.35,-124.82 225.28,-108.7"/>
<polygon fill="#9a32cd" stroke="#9a32cd" points="199.8,-167.87 199.64,-178.46 206.37,-170.29 199.8,-167.87"/>
<text text-anchor="middle" x="224.5" y="-152" font-family="Helvetica,sans-Serif" font-size="10.00"> X</text>
<text text-anchor="middle" x="224.5" y="-141" font-family="Helvetica,sans-Serif" font-size="10.00">Y</text>
<text text-anchor="middle" x="224.5" y="-130" font-family="Helvetica,sans-Serif" font-size="10.00">Z</text>
</g>
<!-- Node5 -->
<g id="node5" class="node">
<title>Node5</title>
<g id="a_node5"><a xlink:href="classirr_1_1core_1_1vector3d.html" target="_top" xlink:title="3d vector template class with lots of operators and methods.">
<polygon fill="white" stroke="black" points="234,-178.5 234,-197.5 365,-197.5 365,-178.5 234,-178.5"/>
<text text-anchor="middle" x="299.5" y="-185.5" font-family="Helvetica,sans-Serif" font-size="10.00">irr::core::vector3d&lt; T &gt;</text>
</a>
</g>
</g>
<!-- Node5&#45;&gt;Node3 -->
<g id="edge4" class="edge">
<title>Node5&#45;&gt;Node3</title>
<path fill="none" stroke="orange" stroke-dasharray="5,2" d="M287.01,-170.26C273.89,-152.67 253.46,-125.28 241.09,-108.7"/>
<polygon fill="orange" stroke="orange" points="284.35,-172.54 293.13,-178.46 289.96,-168.36 284.35,-172.54"/>
<text text-anchor="middle" x="299.5" y="-141" font-family="Helvetica,sans-Serif" font-size="10.00"> &lt; f32 &gt;</text>
</g>
<!-- Node6 -->
<g id="node6" class="node">
<title>Node6</title>
<g id="a_node6"><a xlink:title=" ">
<polygon fill="white" stroke="#bfbfbf" points="285,-267.5 285,-286.5 314,-286.5 314,-267.5 285,-267.5"/>
<text text-anchor="middle" x="299.5" y="-274.5" font-family="Helvetica,sans-Serif" font-size="10.00">T</text>
</a>
</g>
</g>
<!-- Node6&#45;&gt;Node5 -->
<g id="edge5" class="edge">
<title>Node6&#45;&gt;Node5</title>
<path fill="none" stroke="#9a32cd" stroke-dasharray="5,2" d="M299.5,-257.19C299.5,-238.74 299.5,-211.41 299.5,-197.62"/>
<polygon fill="#9a32cd" stroke="#9a32cd" points="296,-257.34 299.5,-267.34 303,-257.34 296,-257.34"/>
<text text-anchor="middle" x="304.5" y="-241" font-family="Helvetica,sans-Serif" font-size="10.00"> X</text>
<text text-anchor="middle" x="304.5" y="-230" font-family="Helvetica,sans-Serif" font-size="10.00">Y</text>
<text text-anchor="middle" x="304.5" y="-219" font-family="Helvetica,sans-Serif" font-size="10.00">Z</text>
</g>
</g>
</svg>
