<?xml version="1.0" encoding="UTF-8" standalone="no"?>
<!DOCTYPE svg PUBLIC "-//W3C//DTD SVG 1.1//EN"
 "http://www.w3.org/Graphics/SVG/1.1/DTD/svg11.dtd">
<!-- Generated by graphviz version 2.43.0 (0)
 -->
<!-- Title: irr::scene::ICameraSceneNode Pages: 1 -->
<svg width="259pt" height="196pt"
 viewBox="0.00 0.00 258.50 196.00" xmlns="http://www.w3.org/2000/svg" xmlns:xlink="http://www.w3.org/1999/xlink">
<g id="graph0" class="graph" transform="scale(1 1) rotate(0) translate(4 192)">
<title>irr::scene::ICameraSceneNode</title>
<polygon fill="white" stroke="transparent" points="-4,4 -4,-192 254.5,-192 254.5,4 -4,4"/>
<!-- Node1 -->
<g id="node1" class="node">
<title>Node1</title>
<g id="a_node1"><a xlink:title="Scene Node which is a (controllable) camera.">
<polygon fill="#bfbfbf" stroke="black" points="48,-56.5 48,-75.5 212,-75.5 212,-56.5 48,-56.5"/>
<text text-anchor="middle" x="130" y="-63.5" font-family="Helvetica,sans-Serif" font-size="10.00">irr::scene::ICameraSceneNode</text>
</a>
</g>
</g>
<!-- Node5 -->
<g id="node5" class="node">
<title>Node5</title>
<g id="a_node5"><a xlink:href="classirr_1_1scene_1_1CCameraSceneNode.html" target="_top" xlink:title=" ">
<polygon fill="white" stroke="black" points="46.5,-0.5 46.5,-19.5 213.5,-19.5 213.5,-0.5 46.5,-0.5"/>
<text text-anchor="middle" x="130" y="-7.5" font-family="Helvetica,sans-Serif" font-size="10.00">irr::scene::CCameraSceneNode</text>
</a>
</g>
</g>
<!-- Node1&#45;&gt;Node5 -->
<g id="edge4" class="edge">
<title>Node1&#45;&gt;Node5</title>
<path fill="none" stroke="midnightblue" d="M130,-45.8C130,-36.91 130,-26.78 130,-19.75"/>
<polygon fill="midnightblue" stroke="midnightblue" points="126.5,-46.08 130,-56.08 133.5,-46.08 126.5,-46.08"/>
</g>
<!-- Node2 -->
<g id="node2" class="node">
<title>Node2</title>
<g id="a_node2"><a xlink:href="classirr_1_1scene_1_1ISceneNode.html" target="_top" xlink:title="Scene node interface.">
<polygon fill="white" stroke="black" points="0.5,-112.5 0.5,-131.5 125.5,-131.5 125.5,-112.5 0.5,-112.5"/>
<text text-anchor="middle" x="63" y="-119.5" font-family="Helvetica,sans-Serif" font-size="10.00">irr::scene::ISceneNode</text>
</a>
</g>
</g>
<!-- Node2&#45;&gt;Node1 -->
<g id="edge1" class="edge">
<title>Node2&#45;&gt;Node1</title>
<path fill="none" stroke="midnightblue" d="M81.83,-105.82C93.84,-96.15 108.97,-83.95 119.04,-75.83"/>
<polygon fill="midnightblue" stroke="midnightblue" points="79.35,-103.32 73.76,-112.32 83.75,-108.77 79.35,-103.32"/>
</g>
<!-- Node3 -->
<g id="node3" class="node">
<title>Node3</title>
<g id="a_node3"><a xlink:href="classirr_1_1IReferenceCounted.html" target="_top" xlink:title="Base class of most objects of the Irrlicht Engine.">
<polygon fill="white" stroke="black" points="0,-168.5 0,-187.5 126,-187.5 126,-168.5 0,-168.5"/>
<text text-anchor="middle" x="63" y="-175.5" font-family="Helvetica,sans-Serif" font-size="10.00">irr::IReferenceCounted</text>
</a>
</g>
</g>
<!-- Node3&#45;&gt;Node2 -->
<g id="edge2" class="edge">
<title>Node3&#45;&gt;Node2</title>
<path fill="none" stroke="midnightblue" d="M63,-157.8C63,-148.91 63,-138.78 63,-131.75"/>
<polygon fill="midnightblue" stroke="midnightblue" points="59.5,-158.08 63,-168.08 66.5,-158.08 59.5,-158.08"/>
</g>
<!-- Node4 -->
<g id="node4" class="node">
<title>Node4</title>
<g id="a_node4"><a xlink:href="classirr_1_1IEventReceiver.html" target="_top" xlink:title="Interface of an object which can receive events.">
<polygon fill="white" stroke="black" points="143.5,-112.5 143.5,-131.5 250.5,-131.5 250.5,-112.5 143.5,-112.5"/>
<text text-anchor="middle" x="197" y="-119.5" font-family="Helvetica,sans-Serif" font-size="10.00">irr::IEventReceiver</text>
</a>
</g>
</g>
<!-- Node4&#45;&gt;Node1 -->
<g id="edge3" class="edge">
<title>Node4&#45;&gt;Node1</title>
<path fill="none" stroke="midnightblue" d="M178.17,-105.82C166.16,-96.15 151.03,-83.95 140.96,-75.83"/>
<polygon fill="midnightblue" stroke="midnightblue" points="176.25,-108.77 186.24,-112.32 180.65,-103.32 176.25,-108.77"/>
</g>
</g>
</svg>
