<?xml version="1.0" encoding="UTF-8" standalone="no"?>
<!DOCTYPE svg PUBLIC "-//W3C//DTD SVG 1.1//EN"
 "http://www.w3.org/Graphics/SVG/1.1/DTD/svg11.dtd">
<!-- Generated by graphviz version 2.43.0 (0)
 -->
<!-- Title: FontEngine Pages: 1 -->
<!--zoomable 233 -->
<svg id="main" version="1.1" xmlns="http://www.w3.org/2000/svg" xmlns:xlink="http://www.w3.org/1999/xlink" xml:space="preserve" onload="init(evt)">
<style type="text/css"><![CDATA[
.edge:hover path { stroke: red; }
.edge:hover polygon { stroke: red; fill: red; }
]]></style>
<script type="text/javascript"><![CDATA[
var edges = document.getElementsByTagName('g');
if (edges && edges.length) {
  for (var i=0;i<edges.length;i++) {
    if (edges[i].id.substr(0,4)=='edge') {
      edges[i].setAttribute('class','edge');
    }
  }
}
]]></script>
        <defs>
                <circle id="rim" cx="0" cy="0" r="7"/>
                <circle id="rim2" cx="0" cy="0" r="3.5"/>
                <g id="zoomPlus">
                        <use xlink:href="#rim" fill="#404040">
                                <set attributeName="fill" to="#808080" begin="zoomplus.mouseover" end="zoomplus.mouseout"/>
                        </use>
                        <path d="M-4,0h8M0,-4v8" fill="none" stroke="white" stroke-width="1.5" pointer-events="none"/>
                </g>
                <g id="zoomMin">
                        <use xlink:href="#rim" fill="#404040">
                                <set attributeName="fill" to="#808080" begin="zoomminus.mouseover" end="zoomminus.mouseout"/>
                        </use>
                        <path d="M-4,0h8" fill="none" stroke="white" stroke-width="1.5" pointer-events="none"/>
                </g>
                <g id="dirArrow">
                        <path fill="none" stroke="white" stroke-width="1.5" d="M0,-3.0v7 M-2.5,-0.5L0,-3.0L2.5,-0.5"/>
                </g>
               <g id="resetDef">
                       <use xlink:href="#rim2" fill="#404040">
                               <set attributeName="fill" to="#808080" begin="reset.mouseover" end="reset.mouseout"/>
                       </use>
               </g>
        </defs>

<script type="text/javascript">
var viewWidth = 674;
var viewHeight = 233;
var sectionId = 'dynsection-0';
</script>
<script xlink:href="svgpan.js"/>
<svg id="graph" class="graph">
<g id="viewport">
<title>FontEngine</title>
<polygon fill="white" stroke="transparent" points="-4,4 -4,-228.5 670,-228.5 670,4 -4,4"/>
<!-- Node1 -->
<g id="node1" class="node">
<title>Node1</title>
<g id="a_node1"><a xlink:title=" ">
<polygon fill="#bfbfbf" stroke="black" points="595,-100.5 595,-119.5 666,-119.5 666,-100.5 595,-100.5"/>
<text text-anchor="middle" x="630.5" y="-107.5" font-family="Helvetica,sans-Serif" font-size="10.00">FontEngine</text>
</a>
</g>
</g>
<!-- Node2 -->
<g id="node2" class="node">
<title>Node2</title>
<g id="a_node2"><a xlink:title=" ">
<polygon fill="white" stroke="#bfbfbf" points="349,-194 349,-224 468,-224 468,-194 349,-194"/>
<text text-anchor="start" x="357" y="-212" font-family="Helvetica,sans-Serif" font-size="10.00">map&lt; unsigned int,</text>
<text text-anchor="middle" x="408.5" y="-201" font-family="Helvetica,sans-Serif" font-size="10.00"> irr::gui::IGUIFont * &gt;</text>
</a>
</g>
</g>
<!-- Node2&#45;&gt;Node1 -->
<g id="edge1" class="edge">
<title>Node2&#45;&gt;Node1</title>
<path fill="none" stroke="#9a32cd" stroke-dasharray="5,2" d="M478.33,-202.16C510.09,-196.68 547.25,-186.79 577,-169 597.95,-156.47 615.15,-132.84 623.68,-119.61"/>
<polygon fill="#9a32cd" stroke="#9a32cd" points="477.54,-198.74 468.22,-203.79 478.65,-205.65 477.54,-198.74"/>
<text text-anchor="middle" x="536" y="-201" font-family="Helvetica,sans-Serif" font-size="10.00"> m_font_cache</text>
</g>
<!-- Node3 -->
<g id="node3" class="node">
<title>Node3</title>
<g id="a_node3"><a xlink:title=" ">
<polygon fill="white" stroke="#bfbfbf" points="346.5,-155.5 346.5,-174.5 470.5,-174.5 470.5,-155.5 346.5,-155.5"/>
<text text-anchor="middle" x="408.5" y="-162.5" font-family="Helvetica,sans-Serif" font-size="10.00">static const FontMode</text>
</a>
</g>
</g>
<!-- Node3&#45;&gt;Node1 -->
<g id="edge2" class="edge">
<title>Node3&#45;&gt;Node1</title>
<path fill="none" stroke="#9a32cd" stroke-dasharray="5,2" d="M480.56,-156.56C510.75,-151.88 546.04,-144.94 577,-135 589.3,-131.05 602.43,-124.8 612.48,-119.54"/>
<polygon fill="#9a32cd" stroke="#9a32cd" points="479.91,-153.12 470.53,-158.06 480.94,-160.04 479.91,-153.12"/>
<text text-anchor="middle" x="536" y="-157" font-family="Helvetica,sans-Serif" font-size="10.00"> m_currentMode</text>
</g>
<!-- Node4 -->
<g id="node4" class="node">
<title>Node4</title>
<g id="a_node4"><a xlink:title=" ">
<polygon fill="white" stroke="#bfbfbf" points="359.5,-117.5 359.5,-136.5 457.5,-136.5 457.5,-117.5 359.5,-117.5"/>
<text text-anchor="middle" x="408.5" y="-124.5" font-family="Helvetica,sans-Serif" font-size="10.00">recursive_mutex</text>
</a>
</g>
</g>
<!-- Node4&#45;&gt;Node1 -->
<g id="edge3" class="edge">
<title>Node4&#45;&gt;Node1</title>
<path fill="none" stroke="#9a32cd" stroke-dasharray="5,2" d="M467.53,-122.52C508.05,-119.38 560.79,-115.31 594.89,-112.67"/>
<polygon fill="#9a32cd" stroke="#9a32cd" points="467.21,-119.03 457.51,-123.29 467.75,-126.01 467.21,-119.03"/>
<text text-anchor="middle" x="536" y="-123" font-family="Helvetica,sans-Serif" font-size="10.00"> m_font_mutex</text>
</g>
<!-- Node5 -->
<g id="node5" class="node">
<title>Node5</title>
<g id="a_node5"><a xlink:href="classirr_1_1gui_1_1IGUIEnvironment.html" target="_top" xlink:title="GUI Environment. Used as factory and manager of all other GUI elements.">
<polygon fill="white" stroke="black" points="340,-79.5 340,-98.5 477,-98.5 477,-79.5 340,-79.5"/>
<text text-anchor="middle" x="408.5" y="-86.5" font-family="Helvetica,sans-Serif" font-size="10.00">irr::gui::IGUIEnvironment</text>
</a>
</g>
</g>
<!-- Node5&#45;&gt;Node1 -->
<g id="edge4" class="edge">
<title>Node5&#45;&gt;Node1</title>
<path fill="none" stroke="#9a32cd" stroke-dasharray="5,2" d="M487.59,-91.28C515.84,-92.73 547.94,-95.11 577,-99 582.81,-99.78 588.95,-100.84 594.89,-102"/>
<polygon fill="#9a32cd" stroke="#9a32cd" points="487.52,-87.77 477.36,-90.79 487.18,-94.77 487.52,-87.77"/>
<text text-anchor="middle" x="536" y="-102" font-family="Helvetica,sans-Serif" font-size="10.00"> m_env</text>
</g>
<!-- Node6 -->
<g id="node6" class="node">
<title>Node6</title>
<g id="a_node6"><a xlink:href="classirr_1_1IReferenceCounted.html" target="_top" xlink:title="Base class of most objects of the Irrlicht Engine.">
<polygon fill="white" stroke="black" points="177,-79.5 177,-98.5 303,-98.5 303,-79.5 177,-79.5"/>
<text text-anchor="middle" x="240" y="-86.5" font-family="Helvetica,sans-Serif" font-size="10.00">irr::IReferenceCounted</text>
</a>
</g>
</g>
<!-- Node6&#45;&gt;Node5 -->
<g id="edge5" class="edge">
<title>Node6&#45;&gt;Node5</title>
<path fill="none" stroke="midnightblue" d="M313.64,-89C322.38,-89 331.27,-89 339.94,-89"/>
<polygon fill="midnightblue" stroke="midnightblue" points="313.47,-85.5 303.47,-89 313.47,-92.5 313.47,-85.5"/>
</g>
<!-- Node7 -->
<g id="node7" class="node">
<title>Node7</title>
<g id="a_node7"><a xlink:title=" ">
<polygon fill="white" stroke="#bfbfbf" points="6,-98.5 6,-117.5 44,-117.5 44,-98.5 6,-98.5"/>
<text text-anchor="middle" x="25" y="-105.5" font-family="Helvetica,sans-Serif" font-size="10.00">char</text>
</a>
</g>
</g>
<!-- Node7&#45;&gt;Node6 -->
<g id="edge6" class="edge">
<title>Node7&#45;&gt;Node6</title>
<path fill="none" stroke="#9a32cd" stroke-dasharray="5,2" d="M54.29,-105.48C85.39,-102.7 136.34,-98.16 176.86,-94.54"/>
<polygon fill="#9a32cd" stroke="#9a32cd" points="53.81,-102.01 44.16,-106.38 54.43,-108.98 53.81,-102.01"/>
<text text-anchor="middle" x="113.5" y="-106" font-family="Helvetica,sans-Serif" font-size="10.00"> DebugName</text>
</g>
<!-- Node8 -->
<g id="node8" class="node">
<title>Node8</title>
<g id="a_node8"><a xlink:title=" ">
<polygon fill="white" stroke="#bfbfbf" points="0,-60.5 0,-79.5 50,-79.5 50,-60.5 0,-60.5"/>
<text text-anchor="middle" x="25" y="-67.5" font-family="Helvetica,sans-Serif" font-size="10.00">int32_t</text>
</a>
</g>
</g>
<!-- Node8&#45;&gt;Node6 -->
<g id="edge7" class="edge">
<title>Node8&#45;&gt;Node6</title>
<path fill="none" stroke="#9a32cd" stroke-dasharray="5,2" d="M60.09,-72.66C86.97,-74.79 125.39,-77.93 159,-81 164.84,-81.53 170.91,-82.11 176.99,-82.69"/>
<polygon fill="#9a32cd" stroke="#9a32cd" points="60.28,-69.16 50.04,-71.86 59.73,-76.14 60.28,-69.16"/>
<text text-anchor="middle" x="113.5" y="-84" font-family="Helvetica,sans-Serif" font-size="10.00"> ReferenceCounter</text>
</g>
<!-- Node9 -->
<g id="node9" class="node">
<title>Node9</title>
<g id="a_node9"><a xlink:href="classbool.html" target="_top" xlink:title=" ">
<polygon fill="white" stroke="black" points="389.5,-38.5 389.5,-57.5 427.5,-57.5 427.5,-38.5 389.5,-38.5"/>
<text text-anchor="middle" x="408.5" y="-45.5" font-family="Helvetica,sans-Serif" font-size="10.00">bool</text>
</a>
</g>
</g>
<!-- Node9&#45;&gt;Node1 -->
<g id="edge8" class="edge">
<title>Node9&#45;&gt;Node1</title>
<path fill="none" stroke="#9a32cd" stroke-dasharray="5,2" d="M438.26,-45.83C472.7,-44.36 531.42,-45.47 577,-65 595.32,-72.85 611.95,-89.44 621.39,-100.14"/>
<polygon fill="#9a32cd" stroke="#9a32cd" points="437.78,-42.35 427.99,-46.38 438.16,-49.34 437.78,-42.35"/>
<text text-anchor="middle" x="536" y="-79" font-family="Helvetica,sans-Serif" font-size="10.00"> m_default_italic</text>
<text text-anchor="middle" x="536" y="-68" font-family="Helvetica,sans-Serif" font-size="10.00">m_default_bold</text>
</g>
<!-- Node10 -->
<g id="node10" class="node">
<title>Node10</title>
<g id="a_node10"><a xlink:title=" ">
<polygon fill="white" stroke="#bfbfbf" points="378,-0.5 378,-19.5 439,-19.5 439,-0.5 378,-0.5"/>
<text text-anchor="middle" x="408.5" y="-7.5" font-family="Helvetica,sans-Serif" font-size="10.00">unsigned</text>
</a>
</g>
</g>
<!-- Node10&#45;&gt;Node1 -->
<g id="edge9" class="edge">
<title>Node10&#45;&gt;Node1</title>
<path fill="none" stroke="#9a32cd" stroke-dasharray="5,2" d="M449.3,-6.05C485.31,-4.44 538.45,-7.12 577,-31 603.6,-47.47 619.64,-83.01 626.13,-100.24"/>
<polygon fill="#9a32cd" stroke="#9a32cd" points="448.95,-2.56 439.17,-6.64 449.35,-9.55 448.95,-2.56"/>
<text text-anchor="middle" x="536" y="-34" font-family="Helvetica,sans-Serif" font-size="10.00"> m_default_size</text>
</g>
</g>
</svg>
        <g id="navigator" transform="translate(0 0)" fill="#404254">
                <rect fill="#f2f5e9" fill-opacity="0.5" stroke="#606060" stroke-width=".5" x="0" y="0" width="60" height="60"/>
                <use id="zoomplus" xlink:href="#zoomPlus" x="17" y="9" onmousedown="handleZoom(evt,'in')"/>
                <use id="zoomminus" xlink:href="#zoomMin" x="42" y="9" onmousedown="handleZoom(evt,'out')"/>
                <use id="reset" xlink:href="#resetDef" x="30" y="36" onmousedown="handleReset()"/>
                <g id="arrowUp" xlink:href="#dirArrow" transform="translate(30 24)" onmousedown="handlePan(0,-1)">
                  <use xlink:href="#rim" fill="#404040">
                        <set attributeName="fill" to="#808080" begin="arrowUp.mouseover" end="arrowUp.mouseout"/>
                  </use>
                  <path fill="none" stroke="white" stroke-width="1.5" d="M0,-3.0v7 M-2.5,-0.5L0,-3.0L2.5,-0.5"/>
                </g>
                <g id="arrowRight" xlink:href="#dirArrow" transform="rotate(90) translate(36 -43)" onmousedown="handlePan(1,0)">
                  <use xlink:href="#rim" fill="#404040">
                        <set attributeName="fill" to="#808080" begin="arrowRight.mouseover" end="arrowRight.mouseout"/>
                  </use>
                  <path fill="none" stroke="white" stroke-width="1.5" d="M0,-3.0v7 M-2.5,-0.5L0,-3.0L2.5,-0.5"/>
                </g>
                <g id="arrowDown" xlink:href="#dirArrow" transform="rotate(180) translate(-30 -48)" onmousedown="handlePan(0,1)">
                  <use xlink:href="#rim" fill="#404040">
                        <set attributeName="fill" to="#808080" begin="arrowDown.mouseover" end="arrowDown.mouseout"/>
                  </use>
                  <path fill="none" stroke="white" stroke-width="1.5" d="M0,-3.0v7 M-2.5,-0.5L0,-3.0L2.5,-0.5"/>
                </g>
                <g id="arrowLeft" xlink:href="#dirArrow" transform="rotate(270) translate(-36 17)" onmousedown="handlePan(-1,0)">
                  <use xlink:href="#rim" fill="#404040">
                        <set attributeName="fill" to="#808080" begin="arrowLeft.mouseover" end="arrowLeft.mouseout"/>
                  </use>
                  <path fill="none" stroke="white" stroke-width="1.5" d="M0,-3.0v7 M-2.5,-0.5L0,-3.0L2.5,-0.5"/>
                </g>
        </g>
        <svg viewBox="0 0 15 15" width="100%" height="30px" preserveAspectRatio="xMaxYMin meet">
         <g id="arrow_out" transform="scale(0.3 0.3)">
          <a xlink:href="classFontEngine__coll__graph_org.svg" target="_base">
           <rect id="button" ry="5" rx="5" y="6" x="6" height="38" width="38"
                fill="#f2f5e9" fill-opacity="0.5" stroke="#606060" stroke-width="1.0"/>
           <path id="arrow"
             d="M 11.500037,31.436501 C 11.940474,20.09759 22.043105,11.32322 32.158766,21.979434 L 37.068811,17.246167 C 37.068811,17.246167 37.088388,32 37.088388,32 L 22.160133,31.978069 C 22.160133,31.978069 26.997745,27.140456 26.997745,27.140456 C 18.528582,18.264221 13.291696,25.230495 11.500037,31.436501 z"
             style="fill:#404040;"/>
          </a>
         </g>
        </svg>
</svg>
