<?xml version="1.0" encoding="UTF-8" standalone="no"?>
<!DOCTYPE svg PUBLIC "-//W3C//DTD SVG 1.1//EN"
 "http://www.w3.org/Graphics/SVG/1.1/DTD/svg11.dtd">
<!-- Generated by graphviz version 2.43.0 (0)
 -->
<!-- Title: irr::video::IVideoDriver::setRenderTarget Pages: 1 -->
<svg width="461pt" height="88pt"
 viewBox="0.00 0.00 461.00 88.00" xmlns="http://www.w3.org/2000/svg" xmlns:xlink="http://www.w3.org/1999/xlink">
<g id="graph0" class="graph" transform="scale(1 1) rotate(0) translate(4 84)">
<title>irr::video::IVideoDriver::setRenderTarget</title>
<polygon fill="white" stroke="transparent" points="-4,4 -4,-84 457,-84 457,4 -4,4"/>
<!-- Node1 -->
<g id="node1" class="node">
<title>Node1</title>
<g id="a_node1"><a xlink:title=" ">
<polygon fill="#bfbfbf" stroke="black" points="0,-24.5 0,-54.5 127,-54.5 127,-24.5 0,-24.5"/>
<text text-anchor="start" x="8" y="-42.5" font-family="Helvetica,sans-Serif" font-size="10.00">irr::video::IVideoDriver</text>
<text text-anchor="middle" x="63.5" y="-31.5" font-family="Helvetica,sans-Serif" font-size="10.00">::setRenderTarget</text>
</a>
</g>
</g>
<!-- Node2 -->
<g id="node2" class="node">
<title>Node2</title>
<g id="a_node2"><a xlink:href="classirr_1_1video_1_1IVideoDriver.html#a0abc6f837cf465d1090a913d4d2fd1aa" target="_top" xlink:title="Clears the ZBuffer.">
<polygon fill="white" stroke="black" points="163,-49.5 163,-79.5 290,-79.5 290,-49.5 163,-49.5"/>
<text text-anchor="start" x="171" y="-67.5" font-family="Helvetica,sans-Serif" font-size="10.00">irr::video::IVideoDriver</text>
<text text-anchor="middle" x="226.5" y="-56.5" font-family="Helvetica,sans-Serif" font-size="10.00">::clearZBuffer</text>
</a>
</g>
</g>
<!-- Node1&#45;&gt;Node2 -->
<g id="edge1" class="edge">
<title>Node1&#45;&gt;Node2</title>
<path fill="none" stroke="midnightblue" d="M127.21,-49.24C135.65,-50.55 144.36,-51.9 152.96,-53.24"/>
<polygon fill="midnightblue" stroke="midnightblue" points="152.54,-56.71 162.96,-54.79 153.62,-49.8 152.54,-56.71"/>
</g>
<!-- Node4 -->
<g id="node4" class="node">
<title>Node4</title>
<g id="a_node4"><a xlink:href="classirr_1_1video_1_1IVideoDriver.html#a137b33417d715e48d7274e5ec547cb95" target="_top" xlink:title="Sets a new render target.">
<polygon fill="white" stroke="black" points="163,-0.5 163,-30.5 290,-30.5 290,-0.5 163,-0.5"/>
<text text-anchor="start" x="171" y="-18.5" font-family="Helvetica,sans-Serif" font-size="10.00">irr::video::IVideoDriver</text>
<text text-anchor="middle" x="226.5" y="-7.5" font-family="Helvetica,sans-Serif" font-size="10.00">::setRenderTarget</text>
</a>
</g>
</g>
<!-- Node1&#45;&gt;Node4 -->
<g id="edge3" class="edge">
<title>Node1&#45;&gt;Node4</title>
<path fill="none" stroke="midnightblue" d="M127.21,-30.15C135.65,-28.89 144.36,-27.59 152.96,-26.31"/>
<polygon fill="midnightblue" stroke="midnightblue" points="153.59,-29.76 162.96,-24.82 152.56,-22.83 153.59,-29.76"/>
</g>
<!-- Node3 -->
<g id="node3" class="node">
<title>Node3</title>
<g id="a_node3"><a xlink:href="classirr_1_1video_1_1IVideoDriver.html#abe154185ea7c1f8332cd048829db9c46" target="_top" xlink:title="Clear the color, depth and/or stencil buffers.">
<polygon fill="white" stroke="black" points="326,-49.5 326,-79.5 453,-79.5 453,-49.5 326,-49.5"/>
<text text-anchor="start" x="334" y="-67.5" font-family="Helvetica,sans-Serif" font-size="10.00">irr::video::IVideoDriver</text>
<text text-anchor="middle" x="389.5" y="-56.5" font-family="Helvetica,sans-Serif" font-size="10.00">::clearBuffers</text>
</a>
</g>
</g>
<!-- Node2&#45;&gt;Node3 -->
<g id="edge2" class="edge">
<title>Node2&#45;&gt;Node3</title>
<path fill="none" stroke="midnightblue" d="M290.21,-64.5C298.65,-64.5 307.36,-64.5 315.96,-64.5"/>
<polygon fill="midnightblue" stroke="midnightblue" points="315.96,-68 325.96,-64.5 315.96,-61 315.96,-68"/>
</g>
</g>
</svg>
