<?xml version="1.0" encoding="UTF-8" standalone="no"?>
<!DOCTYPE svg PUBLIC "-//W3C//DTD SVG 1.1//EN"
 "http://www.w3.org/Graphics/SVG/1.1/DTD/svg11.dtd">
<!-- Generated by graphviz version 2.43.0 (0)
 -->
<!-- Title: StreamLogOutput Pages: 1 -->
<svg width="275pt" height="152pt"
 viewBox="0.00 0.00 274.50 152.00" xmlns="http://www.w3.org/2000/svg" xmlns:xlink="http://www.w3.org/1999/xlink">
<g id="graph0" class="graph" transform="scale(1 1) rotate(0) translate(4 148)">
<title>StreamLogOutput</title>
<polygon fill="white" stroke="transparent" points="-4,4 -4,-148 270.5,-148 270.5,4 -4,4"/>
<!-- Node1 -->
<g id="node1" class="node">
<title>Node1</title>
<g id="a_node1"><a xlink:title=" ">
<polygon fill="#bfbfbf" stroke="black" points="120.5,-0.5 120.5,-19.5 222.5,-19.5 222.5,-0.5 120.5,-0.5"/>
<text text-anchor="middle" x="171.5" y="-7.5" font-family="Helvetica,sans-Serif" font-size="10.00">StreamLogOutput</text>
</a>
</g>
</g>
<!-- Node2 -->
<g id="node2" class="node">
<title>Node2</title>
<g id="a_node2"><a xlink:href="classICombinedLogOutput.html" target="_top" xlink:title=" ">
<polygon fill="white" stroke="black" points="0,-67.5 0,-86.5 119,-86.5 119,-67.5 0,-67.5"/>
<text text-anchor="middle" x="59.5" y="-74.5" font-family="Helvetica,sans-Serif" font-size="10.00">ICombinedLogOutput</text>
</a>
</g>
</g>
<!-- Node2&#45;&gt;Node1 -->
<g id="edge1" class="edge">
<title>Node2&#45;&gt;Node1</title>
<path fill="none" stroke="midnightblue" d="M83.42,-62.12C105.61,-49.24 137.94,-30.48 156.63,-19.63"/>
<polygon fill="midnightblue" stroke="midnightblue" points="81.5,-59.19 74.6,-67.23 85.01,-65.24 81.5,-59.19"/>
</g>
<!-- Node3 -->
<g id="node3" class="node">
<title>Node3</title>
<g id="a_node3"><a xlink:href="classILogOutput.html" target="_top" xlink:title=" ">
<polygon fill="white" stroke="black" points="24.5,-124.5 24.5,-143.5 94.5,-143.5 94.5,-124.5 24.5,-124.5"/>
<text text-anchor="middle" x="59.5" y="-131.5" font-family="Helvetica,sans-Serif" font-size="10.00">ILogOutput</text>
</a>
</g>
</g>
<!-- Node3&#45;&gt;Node2 -->
<g id="edge2" class="edge">
<title>Node3&#45;&gt;Node2</title>
<path fill="none" stroke="midnightblue" d="M59.5,-114.12C59.5,-104.82 59.5,-94.06 59.5,-86.71"/>
<polygon fill="midnightblue" stroke="midnightblue" points="56,-114.41 59.5,-124.41 63,-114.41 56,-114.41"/>
</g>
<!-- Node4 -->
<g id="node4" class="node">
<title>Node4</title>
<g id="a_node4"><a xlink:title=" ">
<polygon fill="white" stroke="#bfbfbf" points="137.5,-67.5 137.5,-86.5 205.5,-86.5 205.5,-67.5 137.5,-67.5"/>
<text text-anchor="middle" x="171.5" y="-74.5" font-family="Helvetica,sans-Serif" font-size="10.00">ostream &amp;</text>
</a>
</g>
</g>
<!-- Node4&#45;&gt;Node1 -->
<g id="edge3" class="edge">
<title>Node4&#45;&gt;Node1</title>
<path fill="none" stroke="#9a32cd" stroke-dasharray="5,2" d="M171.5,-57.04C171.5,-44.67 171.5,-29.12 171.5,-19.63"/>
<polygon fill="#9a32cd" stroke="#9a32cd" points="168,-57.23 171.5,-67.23 175,-57.23 168,-57.23"/>
<text text-anchor="middle" x="198" y="-41" font-family="Helvetica,sans-Serif" font-size="10.00"> m_stream</text>
</g>
<!-- Node5 -->
<g id="node5" class="node">
<title>Node5</title>
<g id="a_node5"><a xlink:href="classbool.html" target="_top" xlink:title=" ">
<polygon fill="white" stroke="black" points="228.5,-67.5 228.5,-86.5 266.5,-86.5 266.5,-67.5 228.5,-67.5"/>
<text text-anchor="middle" x="247.5" y="-74.5" font-family="Helvetica,sans-Serif" font-size="10.00">bool</text>
</a>
</g>
</g>
<!-- Node5&#45;&gt;Node1 -->
<g id="edge4" class="edge">
<title>Node5&#45;&gt;Node1</title>
<path fill="none" stroke="#9a32cd" stroke-dasharray="5,2" d="M239.77,-57.88C236.18,-51.03 231.39,-43.54 225.5,-38 217.03,-30.03 205.75,-23.89 195.69,-19.5"/>
<polygon fill="#9a32cd" stroke="#9a32cd" points="236.72,-59.63 244.15,-67.19 243.06,-56.65 236.72,-59.63"/>
<text text-anchor="middle" x="249" y="-41" font-family="Helvetica,sans-Serif" font-size="10.00"> is_tty</text>
</g>
</g>
</svg>
