<?xml version="1.0" encoding="UTF-8" standalone="no"?>
<!DOCTYPE svg PUBLIC "-//W3C//DTD SVG 1.1//EN"
 "http://www.w3.org/Graphics/SVG/1.1/DTD/svg11.dtd">
<!-- Generated by graphviz version 2.43.0 (0)
 -->
<!-- Title: DynamicSource Pages: 1 -->
<svg width="130pt" height="152pt"
 viewBox="0.00 0.00 130.00 152.00" xmlns="http://www.w3.org/2000/svg" xmlns:xlink="http://www.w3.org/1999/xlink">
<g id="graph0" class="graph" transform="scale(1 1) rotate(0) translate(4 148)">
<title>DynamicSource</title>
<polygon fill="white" stroke="transparent" points="-4,4 -4,-148 126,-148 126,4 -4,4"/>
<!-- Node1 -->
<g id="node1" class="node">
<title>Node1</title>
<g id="a_node1"><a xlink:title=" ">
<polygon fill="#bfbfbf" stroke="black" points="14.5,-0.5 14.5,-19.5 107.5,-19.5 107.5,-0.5 14.5,-0.5"/>
<text text-anchor="middle" x="61" y="-7.5" font-family="Helvetica,sans-Serif" font-size="10.00">DynamicSource</text>
</a>
</g>
</g>
<!-- Node2 -->
<g id="node2" class="node">
<title>Node2</title>
<g id="a_node2"><a xlink:href="classRenderSource.html" target="_top" xlink:title=" ">
<polygon fill="white" stroke="black" points="19,-67.5 19,-86.5 103,-86.5 103,-67.5 19,-67.5"/>
<text text-anchor="middle" x="61" y="-74.5" font-family="Helvetica,sans-Serif" font-size="10.00">RenderSource</text>
</a>
</g>
</g>
<!-- Node2&#45;&gt;Node1 -->
<g id="edge1" class="edge">
<title>Node2&#45;&gt;Node1</title>
<path fill="none" stroke="midnightblue" d="M59.44,-57.38C59.26,-54.58 59.1,-51.71 59,-49 58.63,-38.97 59.4,-27.45 60.09,-19.75"/>
<polygon fill="midnightblue" stroke="midnightblue" points="55.96,-57.79 60.21,-67.5 62.94,-57.26 55.96,-57.79"/>
</g>
<!-- Node2&#45;&gt;Node1 -->
<g id="edge3" class="edge">
<title>Node2&#45;&gt;Node1</title>
<path fill="none" stroke="#9a32cd" stroke-dasharray="5,2" d="M61,-57.04C61,-44.67 61,-29.12 61,-19.63"/>
<polygon fill="#9a32cd" stroke="#9a32cd" points="57.5,-57.23 61,-67.23 64.5,-57.23 57.5,-57.23"/>
<text text-anchor="middle" x="86" y="-41" font-family="Helvetica,sans-Serif" font-size="10.00"> upstream</text>
</g>
<!-- Node3 -->
<g id="node3" class="node">
<title>Node3</title>
<g id="a_node3"><a xlink:href="classRenderPipelineObject.html" target="_top" xlink:title=" ">
<polygon fill="white" stroke="black" points="0,-124.5 0,-143.5 122,-143.5 122,-124.5 0,-124.5"/>
<text text-anchor="middle" x="61" y="-131.5" font-family="Helvetica,sans-Serif" font-size="10.00">RenderPipelineObject</text>
</a>
</g>
</g>
<!-- Node3&#45;&gt;Node2 -->
<g id="edge2" class="edge">
<title>Node3&#45;&gt;Node2</title>
<path fill="none" stroke="midnightblue" d="M61,-114.12C61,-104.82 61,-94.06 61,-86.71"/>
<polygon fill="midnightblue" stroke="midnightblue" points="57.5,-114.41 61,-124.41 64.5,-114.41 57.5,-114.41"/>
</g>
</g>
</svg>
