<?xml version="1.0" encoding="UTF-8" standalone="no"?>
<!DOCTYPE svg PUBLIC "-//W3C//DTD SVG 1.1//EN"
 "http://www.w3.org/Graphics/SVG/1.1/DTD/svg11.dtd">
<!-- Generated by graphviz version 2.43.0 (0)
 -->
<!-- Title: ModConfiguration Pages: 1 -->
<svg width="279pt" height="117pt"
 viewBox="0.00 0.00 279.00 117.00" xmlns="http://www.w3.org/2000/svg" xmlns:xlink="http://www.w3.org/1999/xlink">
<g id="graph0" class="graph" transform="scale(1 1) rotate(0) translate(4 113)">
<title>ModConfiguration</title>
<polygon fill="white" stroke="transparent" points="-4,4 -4,-113 275,-113 275,4 -4,4"/>
<!-- Node1 -->
<g id="node1" class="node">
<title>Node1</title>
<g id="a_node1"><a xlink:title=" ">
<polygon fill="#bfbfbf" stroke="black" points="71.5,-0.5 71.5,-19.5 174.5,-19.5 174.5,-0.5 71.5,-0.5"/>
<text text-anchor="middle" x="123" y="-7.5" font-family="Helvetica,sans-Serif" font-size="10.00">ModConfiguration</text>
</a>
</g>
</g>
<!-- Node2 -->
<g id="node2" class="node">
<title>Node2</title>
<g id="a_node2"><a xlink:title=" ">
<polygon fill="white" stroke="#bfbfbf" points="0,-84 0,-103 114,-103 114,-84 0,-84"/>
<text text-anchor="middle" x="57" y="-91" font-family="Helvetica,sans-Serif" font-size="10.00">vector&lt; ModSpec &gt;</text>
</a>
</g>
</g>
<!-- Node2&#45;&gt;Node1 -->
<g id="edge1" class="edge">
<title>Node2&#45;&gt;Node1</title>
<path fill="none" stroke="#9a32cd" stroke-dasharray="5,2" d="M55.93,-73.64C56.22,-62.28 58.38,-48.11 66,-38 72.33,-29.61 81.93,-23.71 91.45,-19.62"/>
<polygon fill="#9a32cd" stroke="#9a32cd" points="52.43,-73.87 56.11,-83.81 59.43,-73.75 52.43,-73.87"/>
<text text-anchor="middle" x="116.5" y="-52" font-family="Helvetica,sans-Serif" font-size="10.00"> m_sorted_mods</text>
<text text-anchor="middle" x="116.5" y="-41" font-family="Helvetica,sans-Serif" font-size="10.00">m_unsatisfied_mods</text>
</g>
<!-- Node3 -->
<g id="node3" class="node">
<title>Node3</title>
<g id="a_node3"><a xlink:title=" ">
<polygon fill="white" stroke="#bfbfbf" points="132.5,-78.5 132.5,-108.5 245.5,-108.5 245.5,-78.5 132.5,-78.5"/>
<text text-anchor="start" x="140.5" y="-96.5" font-family="Helvetica,sans-Serif" font-size="10.00">unordered_set&lt; std</text>
<text text-anchor="middle" x="189" y="-85.5" font-family="Helvetica,sans-Serif" font-size="10.00">::string &gt;</text>
</a>
</g>
</g>
<!-- Node3&#45;&gt;Node1 -->
<g id="edge2" class="edge">
<title>Node3&#45;&gt;Node1</title>
<path fill="none" stroke="#9a32cd" stroke-dasharray="5,2" d="M183,-68.59C179.56,-58.35 174.41,-46.76 167,-38 160.4,-30.2 150.96,-23.99 142.5,-19.51"/>
<polygon fill="#9a32cd" stroke="#9a32cd" points="179.66,-69.65 185.89,-78.22 186.37,-67.63 179.66,-69.65"/>
<text text-anchor="middle" x="225" y="-46.5" font-family="Helvetica,sans-Serif" font-size="10.00"> m_name_conflicts</text>
</g>
</g>
</svg>
