<?xml version="1.0" encoding="UTF-8" standalone="no"?>
<!DOCTYPE svg PUBLIC "-//W3C//DTD SVG 1.1//EN"
 "http://www.w3.org/Graphics/SVG/1.1/DTD/svg11.dtd">
<!-- Generated by graphviz version 2.43.0 (0)
 -->
<!-- Title: TestSettings Pages: 1 -->
<svg width="277pt" height="173pt"
 viewBox="0.00 0.00 277.00 173.00" xmlns="http://www.w3.org/2000/svg" xmlns:xlink="http://www.w3.org/1999/xlink">
<g id="graph0" class="graph" transform="scale(1 1) rotate(0) translate(4 169)">
<title>TestSettings</title>
<polygon fill="white" stroke="transparent" points="-4,4 -4,-169 273,-169 273,4 -4,4"/>
<!-- Node1 -->
<g id="node1" class="node">
<title>Node1</title>
<g id="a_node1"><a xlink:title=" ">
<polygon fill="#bfbfbf" stroke="black" points="100,-0.5 100,-19.5 176,-19.5 176,-0.5 100,-0.5"/>
<text text-anchor="middle" x="138" y="-7.5" font-family="Helvetica,sans-Serif" font-size="10.00">TestSettings</text>
</a>
</g>
</g>
<!-- Node2 -->
<g id="node2" class="node">
<title>Node2</title>
<g id="a_node2"><a xlink:href="classTestBase.html" target="_top" xlink:title=" ">
<polygon fill="white" stroke="black" points="108,-67.5 108,-86.5 168,-86.5 168,-67.5 108,-67.5"/>
<text text-anchor="middle" x="138" y="-74.5" font-family="Helvetica,sans-Serif" font-size="10.00">TestBase</text>
</a>
</g>
</g>
<!-- Node2&#45;&gt;Node1 -->
<g id="edge1" class="edge">
<title>Node2&#45;&gt;Node1</title>
<path fill="none" stroke="midnightblue" d="M138,-57.04C138,-44.67 138,-29.12 138,-19.63"/>
<polygon fill="midnightblue" stroke="midnightblue" points="134.5,-57.23 138,-67.23 141.5,-57.23 134.5,-57.23"/>
</g>
<!-- Node3 -->
<g id="node3" class="node">
<title>Node3</title>
<g id="a_node3"><a xlink:title=" ">
<polygon fill="white" stroke="#bfbfbf" points="0,-145.5 0,-164.5 44,-164.5 44,-145.5 0,-145.5"/>
<text text-anchor="middle" x="22" y="-152.5" font-family="Helvetica,sans-Serif" font-size="10.00">string</text>
</a>
</g>
</g>
<!-- Node3&#45;&gt;Node1 -->
<g id="edge5" class="edge">
<title>Node3&#45;&gt;Node1</title>
<path fill="none" stroke="#9a32cd" stroke-dasharray="5,2" d="M14.18,-135.81C7.42,-117.03 0.66,-87.65 14,-67 32.83,-37.83 70.92,-23.69 99.95,-16.95"/>
<polygon fill="#9a32cd" stroke="#9a32cd" points="10.98,-137.23 17.9,-145.25 17.49,-134.67 10.98,-137.23"/>
<text text-anchor="middle" x="56.5" y="-74.5" font-family="Helvetica,sans-Serif" font-size="10.00"> config_text_after</text>
</g>
<!-- Node3&#45;&gt;Node2 -->
<g id="edge2" class="edge">
<title>Node3&#45;&gt;Node2</title>
<path fill="none" stroke="#9a32cd" stroke-dasharray="5,2" d="M38.11,-137.98C49.02,-127.7 64.11,-114.53 79,-105 90.38,-97.71 104.06,-91.32 115.38,-86.59"/>
<polygon fill="#9a32cd" stroke="#9a32cd" points="35.42,-135.71 30.65,-145.18 40.28,-140.75 35.42,-135.71"/>
<text text-anchor="middle" x="106.5" y="-113.5" font-family="Helvetica,sans-Serif" font-size="10.00"> m_test_dir</text>
</g>
<!-- Node4 -->
<g id="node4" class="node">
<title>Node4</title>
<g id="a_node4"><a xlink:title=" ">
<polygon fill="white" stroke="#bfbfbf" points="120.5,-145.5 120.5,-164.5 155.5,-164.5 155.5,-145.5 120.5,-145.5"/>
<text text-anchor="middle" x="138" y="-152.5" font-family="Helvetica,sans-Serif" font-size="10.00">u32</text>
</a>
</g>
</g>
<!-- Node4&#45;&gt;Node2 -->
<g id="edge3" class="edge">
<title>Node4&#45;&gt;Node2</title>
<path fill="none" stroke="#9a32cd" stroke-dasharray="5,2" d="M138,-135.22C138,-119.7 138,-98.36 138,-86.62"/>
<polygon fill="#9a32cd" stroke="#9a32cd" points="134.5,-135.28 138,-145.28 141.5,-135.28 134.5,-135.28"/>
<text text-anchor="middle" x="180.5" y="-119" font-family="Helvetica,sans-Serif" font-size="10.00"> num_tests_run</text>
<text text-anchor="middle" x="180.5" y="-108" font-family="Helvetica,sans-Serif" font-size="10.00">num_tests_failed</text>
</g>
<!-- Node5 -->
<g id="node5" class="node">
<title>Node5</title>
<g id="a_node5"><a xlink:title=" ">
<polygon fill="white" stroke="#bfbfbf" points="186,-67.5 186,-86.5 224,-86.5 224,-67.5 186,-67.5"/>
<text text-anchor="middle" x="205" y="-74.5" font-family="Helvetica,sans-Serif" font-size="10.00">char</text>
</a>
</g>
</g>
<!-- Node5&#45;&gt;Node1 -->
<g id="edge4" class="edge">
<title>Node5&#45;&gt;Node1</title>
<path fill="none" stroke="#9a32cd" stroke-dasharray="5,2" d="M188.5,-60C175.36,-47.25 157.48,-29.89 146.89,-19.63"/>
<polygon fill="#9a32cd" stroke="#9a32cd" points="186.35,-62.78 195.96,-67.23 191.22,-57.76 186.35,-62.78"/>
<text text-anchor="middle" x="222" y="-41" font-family="Helvetica,sans-Serif" font-size="10.00"> config_text_before</text>
</g>
</g>
</svg>
