<?xml version="1.0" encoding="UTF-8" standalone="no"?>
<!DOCTYPE svg PUBLIC "-//W3C//DTD SVG 1.1//EN"
 "http://www.w3.org/Graphics/SVG/1.1/DTD/svg11.dtd">
<!-- Generated by graphviz version 2.43.0 (0)
 -->
<!-- Title: irr::scene::IMeshManipulator::apply Pages: 1 -->
<!--zoomable 473 -->
<svg id="main" version="1.1" xmlns="http://www.w3.org/2000/svg" xmlns:xlink="http://www.w3.org/1999/xlink" xml:space="preserve" onload="init(evt)">
<style type="text/css"><![CDATA[
.edge:hover path { stroke: red; }
.edge:hover polygon { stroke: red; fill: red; }
]]></style>
<script type="text/javascript"><![CDATA[
var edges = document.getElementsByTagName('g');
if (edges && edges.length) {
  for (var i=0;i<edges.length;i++) {
    if (edges[i].id.substr(0,4)=='edge') {
      edges[i].setAttribute('class','edge');
    }
  }
}
]]></script>
        <defs>
                <circle id="rim" cx="0" cy="0" r="7"/>
                <circle id="rim2" cx="0" cy="0" r="3.5"/>
                <g id="zoomPlus">
                        <use xlink:href="#rim" fill="#404040">
                                <set attributeName="fill" to="#808080" begin="zoomplus.mouseover" end="zoomplus.mouseout"/>
                        </use>
                        <path d="M-4,0h8M0,-4v8" fill="none" stroke="white" stroke-width="1.5" pointer-events="none"/>
                </g>
                <g id="zoomMin">
                        <use xlink:href="#rim" fill="#404040">
                                <set attributeName="fill" to="#808080" begin="zoomminus.mouseover" end="zoomminus.mouseout"/>
                        </use>
                        <path d="M-4,0h8" fill="none" stroke="white" stroke-width="1.5" pointer-events="none"/>
                </g>
                <g id="dirArrow">
                        <path fill="none" stroke="white" stroke-width="1.5" d="M0,-3.0v7 M-2.5,-0.5L0,-3.0L2.5,-0.5"/>
                </g>
               <g id="resetDef">
                       <use xlink:href="#rim2" fill="#404040">
                               <set attributeName="fill" to="#808080" begin="reset.mouseover" end="reset.mouseout"/>
                       </use>
               </g>
        </defs>

<script type="text/javascript">
var viewWidth = 707;
var viewHeight = 473;
var sectionId = 'dynsection-2';
</script>
<script xlink:href="svgpan.js"/>
<svg id="graph" class="graph">
<g id="viewport">
<title>irr::scene::IMeshManipulator::apply</title>
<polygon fill="white" stroke="transparent" points="-4,4 -4,-469 703,-469 703,4 -4,4"/>
<!-- Node1 -->
<g id="node1" class="node">
<title>Node1</title>
<g id="a_node1"><a xlink:title="Apply a manipulator on the Mesh.">
<polygon fill="#bfbfbf" stroke="black" points="0,-147.5 0,-177.5 155,-177.5 155,-147.5 0,-147.5"/>
<text text-anchor="start" x="8" y="-165.5" font-family="Helvetica,sans-Serif" font-size="10.00">irr::scene::IMeshManipulator</text>
<text text-anchor="middle" x="77.5" y="-154.5" font-family="Helvetica,sans-Serif" font-size="10.00">::apply</text>
</a>
</g>
</g>
<!-- Node2 -->
<g id="node2" class="node">
<title>Node2</title>
<g id="a_node2"><a xlink:href="classirr_1_1core_1_1aabbox3d.html#a7ccc210a3fb0ce82765d28f2047942c5" target="_top" xlink:title="Adds another bounding box.">
<polygon fill="white" stroke="black" points="214.5,-284.5 214.5,-314.5 322.5,-314.5 322.5,-284.5 214.5,-284.5"/>
<text text-anchor="start" x="222.5" y="-302.5" font-family="Helvetica,sans-Serif" font-size="10.00">irr::core::aabbox3d</text>
<text text-anchor="middle" x="268.5" y="-291.5" font-family="Helvetica,sans-Serif" font-size="10.00">::addInternalBox</text>
</a>
</g>
</g>
<!-- Node1&#45;&gt;Node2 -->
<g id="edge1" class="edge">
<title>Node1&#45;&gt;Node2</title>
<path fill="none" stroke="midnightblue" d="M89.56,-177.62C107.97,-201.74 147.23,-248.91 191,-275.5 195.35,-278.14 200.02,-280.52 204.82,-282.65"/>
<polygon fill="midnightblue" stroke="midnightblue" points="203.61,-285.94 214.19,-286.46 206.25,-279.45 203.61,-285.94"/>
</g>
<!-- Node3 -->
<g id="node3" class="node">
<title>Node3</title>
<g id="a_node3"><a xlink:href="classirr_1_1scene_1_1IMeshManipulator.html#a6d685fb465a8b5efecd0825b74099ceb" target="_top" xlink:title="Apply a manipulator on the Meshbuffer.">
<polygon fill="white" stroke="black" points="191,-235.5 191,-265.5 346,-265.5 346,-235.5 191,-235.5"/>
<text text-anchor="start" x="199" y="-253.5" font-family="Helvetica,sans-Serif" font-size="10.00">irr::scene::IMeshManipulator</text>
<text text-anchor="middle" x="268.5" y="-242.5" font-family="Helvetica,sans-Serif" font-size="10.00">::apply</text>
</a>
</g>
</g>
<!-- Node1&#45;&gt;Node3 -->
<g id="edge2" class="edge">
<title>Node1&#45;&gt;Node3</title>
<path fill="none" stroke="midnightblue" d="M105.85,-177.6C128.4,-189.8 161.37,-207.09 191,-220.5 199.4,-224.3 208.43,-228.09 217.25,-231.64"/>
<polygon fill="midnightblue" stroke="midnightblue" points="216.1,-234.95 226.68,-235.38 218.68,-228.44 216.1,-234.95"/>
</g>
<!-- Node10 -->
<g id="node10" class="node">
<title>Node10</title>
<g id="a_node10"><a xlink:href="classirr_1_1core_1_1aabbox3d.html#afc718e96ed11aa71a30311d32bfc885a" target="_top" xlink:title="Resets the bounding box to a one&#45;point box.">
<polygon fill="white" stroke="black" points="582,-140.5 582,-170.5 690,-170.5 690,-140.5 582,-140.5"/>
<text text-anchor="start" x="590" y="-158.5" font-family="Helvetica,sans-Serif" font-size="10.00">irr::core::aabbox3d</text>
<text text-anchor="middle" x="636" y="-147.5" font-family="Helvetica,sans-Serif" font-size="10.00">::reset</text>
</a>
</g>
</g>
<!-- Node1&#45;&gt;Node10 -->
<g id="edge14" class="edge">
<title>Node1&#45;&gt;Node10</title>
<path fill="none" stroke="midnightblue" d="M137.68,-177.56C154.77,-181.24 173.52,-184.66 191,-186.5 326.45,-200.79 485.88,-180.7 572.04,-166.81"/>
<polygon fill="midnightblue" stroke="midnightblue" points="572.62,-170.26 581.93,-165.19 571.49,-163.35 572.62,-170.26"/>
</g>
<!-- Node12 -->
<g id="node12" class="node">
<title>Node12</title>
<g id="a_node12"><a xlink:href="classirr_1_1scene_1_1IMeshBuffer.html#ac53fe1096756a40f25dae25911e27c51" target="_top" xlink:title="Get the axis aligned bounding box of this meshbuffer.">
<polygon fill="white" stroke="black" points="205.5,-147.5 205.5,-177.5 331.5,-177.5 331.5,-147.5 205.5,-147.5"/>
<text text-anchor="start" x="213.5" y="-165.5" font-family="Helvetica,sans-Serif" font-size="10.00">irr::scene::IMeshBuffer</text>
<text text-anchor="middle" x="268.5" y="-154.5" font-family="Helvetica,sans-Serif" font-size="10.00">::getBoundingBox</text>
</a>
</g>
</g>
<!-- Node1&#45;&gt;Node12 -->
<g id="edge11" class="edge">
<title>Node1&#45;&gt;Node12</title>
<path fill="none" stroke="midnightblue" d="M155.1,-162.5C168.26,-162.5 181.9,-162.5 194.95,-162.5"/>
<polygon fill="midnightblue" stroke="midnightblue" points="195.27,-166 205.27,-162.5 195.27,-159 195.27,-166"/>
</g>
<!-- Node13 -->
<g id="node13" class="node">
<title>Node13</title>
<g id="a_node13"><a xlink:href="classirr_1_1scene_1_1IMesh.html#a2cd1a04b396235101f426befba0c5b82" target="_top" xlink:title="Get pointer to a mesh buffer.">
<polygon fill="white" stroke="black" points="217,-98.5 217,-128.5 320,-128.5 320,-98.5 217,-98.5"/>
<text text-anchor="start" x="225" y="-116.5" font-family="Helvetica,sans-Serif" font-size="10.00">irr::scene::IMesh::</text>
<text text-anchor="middle" x="268.5" y="-105.5" font-family="Helvetica,sans-Serif" font-size="10.00">getMeshBuffer</text>
</a>
</g>
</g>
<!-- Node1&#45;&gt;Node13 -->
<g id="edge12" class="edge">
<title>Node1&#45;&gt;Node13</title>
<path fill="none" stroke="midnightblue" d="M136.49,-147.47C158.89,-141.66 184.53,-135.01 207.15,-129.15"/>
<polygon fill="midnightblue" stroke="midnightblue" points="208.17,-132.5 216.97,-126.6 206.41,-125.72 208.17,-132.5"/>
</g>
<!-- Node14 -->
<g id="node14" class="node">
<title>Node14</title>
<g id="a_node14"><a xlink:href="classirr_1_1scene_1_1IMesh.html#a2ebed0bdae2d6537c36b0b7ac831edb8" target="_top" xlink:title="Get the amount of mesh buffers.">
<polygon fill="white" stroke="black" points="210.5,-49.5 210.5,-79.5 326.5,-79.5 326.5,-49.5 210.5,-49.5"/>
<text text-anchor="start" x="218.5" y="-67.5" font-family="Helvetica,sans-Serif" font-size="10.00">irr::scene::IMesh::</text>
<text text-anchor="middle" x="268.5" y="-56.5" font-family="Helvetica,sans-Serif" font-size="10.00">getMeshBufferCount</text>
</a>
</g>
</g>
<!-- Node1&#45;&gt;Node14 -->
<g id="edge13" class="edge">
<title>Node1&#45;&gt;Node14</title>
<path fill="none" stroke="midnightblue" d="M97.83,-147.36C119.49,-130.99 156.15,-105.03 191,-88.5 195,-86.6 199.18,-84.81 203.45,-83.12"/>
<polygon fill="midnightblue" stroke="midnightblue" points="204.73,-86.37 212.87,-79.58 202.28,-79.82 204.73,-86.37"/>
</g>
<!-- Node15 -->
<g id="node15" class="node">
<title>Node15</title>
<g id="a_node15"><a xlink:href="classirr_1_1scene_1_1IMesh.html#a0aee3b5bc5d31ce996becc069f65e642" target="_top" xlink:title="Set user&#45;defined axis aligned bounding box.">
<polygon fill="white" stroke="black" points="217,-0.5 217,-30.5 320,-30.5 320,-0.5 217,-0.5"/>
<text text-anchor="start" x="225" y="-18.5" font-family="Helvetica,sans-Serif" font-size="10.00">irr::scene::IMesh::</text>
<text text-anchor="middle" x="268.5" y="-7.5" font-family="Helvetica,sans-Serif" font-size="10.00">setBoundingBox</text>
</a>
</g>
</g>
<!-- Node1&#45;&gt;Node15 -->
<g id="edge15" class="edge">
<title>Node1&#45;&gt;Node15</title>
<path fill="none" stroke="midnightblue" d="M88.38,-147.26C105.95,-121.36 145.11,-68.72 191,-39.5 196.04,-36.29 201.54,-33.48 207.2,-31.03"/>
<polygon fill="midnightblue" stroke="midnightblue" points="208.82,-34.16 216.84,-27.24 206.25,-27.65 208.82,-34.16"/>
</g>
<!-- Node4 -->
<g id="node4" class="node">
<title>Node4</title>
<g id="a_node4"><a xlink:href="classirr_1_1scene_1_1IMeshManipulator.html#a774eccf79c86497b49b4dea7ead1eeb2" target="_top" xlink:title="Apply a manipulator based on the type of the functor.">
<polygon fill="white" stroke="black" points="382,-262.5 382,-292.5 537,-292.5 537,-262.5 382,-262.5"/>
<text text-anchor="start" x="390" y="-280.5" font-family="Helvetica,sans-Serif" font-size="10.00">irr::scene::IMeshManipulator</text>
<text text-anchor="middle" x="459.5" y="-269.5" font-family="Helvetica,sans-Serif" font-size="10.00">::apply_</text>
</a>
</g>
</g>
<!-- Node3&#45;&gt;Node4 -->
<g id="edge3" class="edge">
<title>Node3&#45;&gt;Node4</title>
<path fill="none" stroke="midnightblue" d="M346.1,-261.44C354.56,-262.65 363.22,-263.89 371.79,-265.11"/>
<polygon fill="midnightblue" stroke="midnightblue" points="371.4,-268.59 381.79,-266.54 372.39,-261.66 371.4,-268.59"/>
</g>
<!-- Node5 -->
<g id="node5" class="node">
<title>Node5</title>
<g id="a_node5"><a xlink:href="classirr_1_1core_1_1aabbox3d.html#a49e3765fd2f40a115f8f28bd74d62ccf" target="_top" xlink:title="Adds a point to the bounding box.">
<polygon fill="white" stroke="black" points="582,-434.5 582,-464.5 690,-464.5 690,-434.5 582,-434.5"/>
<text text-anchor="start" x="590" y="-452.5" font-family="Helvetica,sans-Serif" font-size="10.00">irr::core::aabbox3d</text>
<text text-anchor="middle" x="636" y="-441.5" font-family="Helvetica,sans-Serif" font-size="10.00">::addInternalPoint</text>
</a>
</g>
</g>
<!-- Node4&#45;&gt;Node5 -->
<g id="edge4" class="edge">
<title>Node4&#45;&gt;Node5</title>
<path fill="none" stroke="midnightblue" d="M468.3,-292.71C484.16,-322.27 522.97,-387.85 573,-425.5 574.84,-426.88 576.76,-428.19 578.75,-429.44"/>
<polygon fill="midnightblue" stroke="midnightblue" points="577.37,-432.67 587.81,-434.47 580.77,-426.55 577.37,-432.67"/>
</g>
<!-- Node6 -->
<g id="node6" class="node">
<title>Node6</title>
<g id="a_node6"><a xlink:href="classirr_1_1scene_1_1IMeshBuffer.html#a79ca051edc0ece69057fda7b4fe1e155" target="_top" xlink:title="returns position of vertex i">
<polygon fill="white" stroke="black" points="573,-385.5 573,-415.5 699,-415.5 699,-385.5 573,-385.5"/>
<text text-anchor="start" x="581" y="-403.5" font-family="Helvetica,sans-Serif" font-size="10.00">irr::scene::IMeshBuffer</text>
<text text-anchor="middle" x="636" y="-392.5" font-family="Helvetica,sans-Serif" font-size="10.00">::getPosition</text>
</a>
</g>
</g>
<!-- Node4&#45;&gt;Node6 -->
<g id="edge5" class="edge">
<title>Node4&#45;&gt;Node6</title>
<path fill="none" stroke="midnightblue" d="M474.44,-292.78C494.49,-314 533.41,-352.47 573,-376.5 575.63,-378.1 578.38,-379.62 581.2,-381.07"/>
<polygon fill="midnightblue" stroke="midnightblue" points="579.86,-384.3 590.39,-385.44 582.87,-377.98 579.86,-384.3"/>
</g>
<!-- Node7 -->
<g id="node7" class="node">
<title>Node7</title>
<g id="a_node7"><a xlink:href="classirr_1_1scene_1_1IMeshBuffer.html#a77ab285c8c886af8ddeb0371db7bde96" target="_top" xlink:title="Get amount of vertices in meshbuffer.">
<polygon fill="white" stroke="black" points="573,-336.5 573,-366.5 699,-366.5 699,-336.5 573,-336.5"/>
<text text-anchor="start" x="581" y="-354.5" font-family="Helvetica,sans-Serif" font-size="10.00">irr::scene::IMeshBuffer</text>
<text text-anchor="middle" x="636" y="-343.5" font-family="Helvetica,sans-Serif" font-size="10.00">::getVertexCount</text>
</a>
</g>
</g>
<!-- Node4&#45;&gt;Node7 -->
<g id="edge6" class="edge">
<title>Node4&#45;&gt;Node7</title>
<path fill="none" stroke="midnightblue" d="M493.3,-292.58C515.64,-302.74 545.96,-316.27 573,-327.5 577.13,-329.22 581.43,-330.96 585.75,-332.69"/>
<polygon fill="midnightblue" stroke="midnightblue" points="584.61,-336 595.19,-336.42 587.18,-329.49 584.61,-336"/>
</g>
<!-- Node8 -->
<g id="node8" class="node">
<title>Node8</title>
<g id="a_node8"><a xlink:href="classirr_1_1scene_1_1IMeshBuffer.html#a4d7a84ae4416487736f0ed0f519bb4f0" target="_top" xlink:title="Get type of vertex data which is stored in this meshbuffer.">
<polygon fill="white" stroke="black" points="573,-287.5 573,-317.5 699,-317.5 699,-287.5 573,-287.5"/>
<text text-anchor="start" x="581" y="-305.5" font-family="Helvetica,sans-Serif" font-size="10.00">irr::scene::IMeshBuffer</text>
<text text-anchor="middle" x="636" y="-294.5" font-family="Helvetica,sans-Serif" font-size="10.00">::getVertexType</text>
</a>
</g>
</g>
<!-- Node4&#45;&gt;Node8 -->
<g id="edge7" class="edge">
<title>Node4&#45;&gt;Node8</title>
<path fill="none" stroke="midnightblue" d="M537.04,-288.47C545.66,-289.7 554.42,-290.96 562.99,-292.18"/>
<polygon fill="midnightblue" stroke="midnightblue" points="562.53,-295.65 572.92,-293.61 563.52,-288.72 562.53,-295.65"/>
</g>
<!-- Node9 -->
<g id="node9" class="node">
<title>Node9</title>
<g id="a_node9"><a xlink:href="classirr_1_1scene_1_1IMeshBuffer.html#a99891e516246b2cff13b362a435c8028" target="_top" xlink:title="Get access to vertex data. The data is an array of vertices.">
<polygon fill="white" stroke="black" points="573,-238.5 573,-268.5 699,-268.5 699,-238.5 573,-238.5"/>
<text text-anchor="start" x="581" y="-256.5" font-family="Helvetica,sans-Serif" font-size="10.00">irr::scene::IMeshBuffer</text>
<text text-anchor="middle" x="636" y="-245.5" font-family="Helvetica,sans-Serif" font-size="10.00">::getVertices</text>
</a>
</g>
</g>
<!-- Node4&#45;&gt;Node9 -->
<g id="edge8" class="edge">
<title>Node4&#45;&gt;Node9</title>
<path fill="none" stroke="midnightblue" d="M537.04,-266.97C545.66,-265.79 554.42,-264.58 562.99,-263.4"/>
<polygon fill="midnightblue" stroke="midnightblue" points="563.49,-266.87 572.92,-262.04 562.54,-259.93 563.49,-266.87"/>
</g>
<!-- Node4&#45;&gt;Node10 -->
<g id="edge9" class="edge">
<title>Node4&#45;&gt;Node10</title>
<path fill="none" stroke="midnightblue" d="M483.23,-262.45C498.98,-251.58 520.08,-236.11 537,-220.5 554.82,-204.05 553.12,-193.39 573,-179.5 575.11,-178.03 577.33,-176.63 579.61,-175.3"/>
<polygon fill="midnightblue" stroke="midnightblue" points="581.46,-178.28 588.68,-170.54 578.2,-172.08 581.46,-178.28"/>
</g>
<!-- Node11 -->
<g id="node11" class="node">
<title>Node11</title>
<g id="a_node11"><a xlink:href="classirr_1_1scene_1_1IMeshBuffer.html#adbbfb7757dfbba7357193d2280893df6" target="_top" xlink:title="Set axis aligned bounding box.">
<polygon fill="white" stroke="black" points="573,-189.5 573,-219.5 699,-219.5 699,-189.5 573,-189.5"/>
<text text-anchor="start" x="581" y="-207.5" font-family="Helvetica,sans-Serif" font-size="10.00">irr::scene::IMeshBuffer</text>
<text text-anchor="middle" x="636" y="-196.5" font-family="Helvetica,sans-Serif" font-size="10.00">::setBoundingBox</text>
</a>
</g>
</g>
<!-- Node4&#45;&gt;Node11 -->
<g id="edge10" class="edge">
<title>Node4&#45;&gt;Node11</title>
<path fill="none" stroke="midnightblue" d="M494.31,-262.34C516.57,-252.46 546.4,-239.44 573,-228.5 577.13,-226.8 581.44,-225.07 585.76,-223.34"/>
<polygon fill="midnightblue" stroke="midnightblue" points="587.19,-226.54 595.21,-219.62 584.63,-220.03 587.19,-226.54"/>
</g>
</g>
</svg>
        <g id="navigator" transform="translate(0 0)" fill="#404254">
                <rect fill="#f2f5e9" fill-opacity="0.5" stroke="#606060" stroke-width=".5" x="0" y="0" width="60" height="60"/>
                <use id="zoomplus" xlink:href="#zoomPlus" x="17" y="9" onmousedown="handleZoom(evt,'in')"/>
                <use id="zoomminus" xlink:href="#zoomMin" x="42" y="9" onmousedown="handleZoom(evt,'out')"/>
                <use id="reset" xlink:href="#resetDef" x="30" y="36" onmousedown="handleReset()"/>
                <g id="arrowUp" xlink:href="#dirArrow" transform="translate(30 24)" onmousedown="handlePan(0,-1)">
                  <use xlink:href="#rim" fill="#404040">
                        <set attributeName="fill" to="#808080" begin="arrowUp.mouseover" end="arrowUp.mouseout"/>
                  </use>
                  <path fill="none" stroke="white" stroke-width="1.5" d="M0,-3.0v7 M-2.5,-0.5L0,-3.0L2.5,-0.5"/>
                </g>
                <g id="arrowRight" xlink:href="#dirArrow" transform="rotate(90) translate(36 -43)" onmousedown="handlePan(1,0)">
                  <use xlink:href="#rim" fill="#404040">
                        <set attributeName="fill" to="#808080" begin="arrowRight.mouseover" end="arrowRight.mouseout"/>
                  </use>
                  <path fill="none" stroke="white" stroke-width="1.5" d="M0,-3.0v7 M-2.5,-0.5L0,-3.0L2.5,-0.5"/>
                </g>
                <g id="arrowDown" xlink:href="#dirArrow" transform="rotate(180) translate(-30 -48)" onmousedown="handlePan(0,1)">
                  <use xlink:href="#rim" fill="#404040">
                        <set attributeName="fill" to="#808080" begin="arrowDown.mouseover" end="arrowDown.mouseout"/>
                  </use>
                  <path fill="none" stroke="white" stroke-width="1.5" d="M0,-3.0v7 M-2.5,-0.5L0,-3.0L2.5,-0.5"/>
                </g>
                <g id="arrowLeft" xlink:href="#dirArrow" transform="rotate(270) translate(-36 17)" onmousedown="handlePan(-1,0)">
                  <use xlink:href="#rim" fill="#404040">
                        <set attributeName="fill" to="#808080" begin="arrowLeft.mouseover" end="arrowLeft.mouseout"/>
                  </use>
                  <path fill="none" stroke="white" stroke-width="1.5" d="M0,-3.0v7 M-2.5,-0.5L0,-3.0L2.5,-0.5"/>
                </g>
        </g>
        <svg viewBox="0 0 15 15" width="100%" height="30px" preserveAspectRatio="xMaxYMin meet">
         <g id="arrow_out" transform="scale(0.3 0.3)">
          <a xlink:href="classirr_1_1scene_1_1IMeshManipulator_a5a69b634835f4314d93a192758f910da_cgraph_org.svg" target="_base">
           <rect id="button" ry="5" rx="5" y="6" x="6" height="38" width="38"
                fill="#f2f5e9" fill-opacity="0.5" stroke="#606060" stroke-width="1.0"/>
           <path id="arrow"
             d="M 11.500037,31.436501 C 11.940474,20.09759 22.043105,11.32322 32.158766,21.979434 L 37.068811,17.246167 C 37.068811,17.246167 37.088388,32 37.088388,32 L 22.160133,31.978069 C 22.160133,31.978069 26.997745,27.140456 26.997745,27.140456 C 18.528582,18.264221 13.291696,25.230495 11.500037,31.436501 z"
             style="fill:#404040;"/>
          </a>
         </g>
        </svg>
</svg>
