<?xml version="1.0" encoding="UTF-8" standalone="no"?>
<!DOCTYPE svg PUBLIC "-//W3C//DTD SVG 1.1//EN"
 "http://www.w3.org/Graphics/SVG/1.1/DTD/svg11.dtd">
<!-- Generated by graphviz version 2.43.0 (0)
 -->
<!-- Title: irr::gui::CGUISkin::draw3DWindowBackground Pages: 1 -->
<svg width="585pt" height="318pt"
 viewBox="0.00 0.00 585.00 318.00" xmlns="http://www.w3.org/2000/svg" xmlns:xlink="http://www.w3.org/1999/xlink">
<g id="graph0" class="graph" transform="scale(1 1) rotate(0) translate(4 314)">
<title>irr::gui::CGUISkin::draw3DWindowBackground</title>
<polygon fill="white" stroke="transparent" points="-4,4 -4,-314 581,-314 581,4 -4,4"/>
<!-- Node1 -->
<g id="node1" class="node">
<title>Node1</title>
<g id="a_node1"><a xlink:title="draws a window background">
<polygon fill="#bfbfbf" stroke="black" points="0,-191.5 0,-221.5 157,-221.5 157,-191.5 0,-191.5"/>
<text text-anchor="start" x="8" y="-209.5" font-family="Helvetica,sans-Serif" font-size="10.00">irr::gui::CGUISkin</text>
<text text-anchor="middle" x="78.5" y="-198.5" font-family="Helvetica,sans-Serif" font-size="10.00">::draw3DWindowBackground</text>
</a>
</g>
</g>
<!-- Node2 -->
<g id="node2" class="node">
<title>Node2</title>
<g id="a_node2"><a xlink:href="classirr_1_1video_1_1IVideoDriver.html#ac7f452fae0ef8abe01768a78ba7033b7" target="_top" xlink:title="Draws a 2d rectangle.">
<polygon fill="white" stroke="black" points="193,-279.5 193,-309.5 320,-309.5 320,-279.5 193,-279.5"/>
<text text-anchor="start" x="201" y="-297.5" font-family="Helvetica,sans-Serif" font-size="10.00">irr::video::IVideoDriver</text>
<text text-anchor="middle" x="256.5" y="-286.5" font-family="Helvetica,sans-Serif" font-size="10.00">::draw2DRectangle</text>
</a>
</g>
</g>
<!-- Node1&#45;&gt;Node2 -->
<g id="edge1" class="edge">
<title>Node1&#45;&gt;Node2</title>
<path fill="none" stroke="midnightblue" d="M108.79,-221.72C131.65,-233.54 164.25,-250.26 193,-264.5 199.82,-267.88 207.09,-271.42 214.16,-274.84"/>
<polygon fill="midnightblue" stroke="midnightblue" points="213.1,-278.21 223.63,-279.39 216.14,-271.9 213.1,-278.21"/>
</g>
<!-- Node3 -->
<g id="node3" class="node">
<title>Node3</title>
<g id="a_node3"><a xlink:href="classirr_1_1video_1_1SColor.html#a8b0bcff9036b06e3483978a84a924b91" target="_top" xlink:title="Returns the alpha component of the color.">
<polygon fill="white" stroke="black" points="356,-235.5 356,-265.5 454,-265.5 454,-235.5 356,-235.5"/>
<text text-anchor="start" x="364" y="-253.5" font-family="Helvetica,sans-Serif" font-size="10.00">irr::video::SColor</text>
<text text-anchor="middle" x="405" y="-242.5" font-family="Helvetica,sans-Serif" font-size="10.00">::getAlpha</text>
</a>
</g>
</g>
<!-- Node1&#45;&gt;Node3 -->
<g id="edge2" class="edge">
<title>Node1&#45;&gt;Node3</title>
<path fill="none" stroke="midnightblue" d="M144.39,-221.55C160.23,-224.85 177.17,-228.08 193,-230.5 244.25,-238.32 302.99,-243.59 345.46,-246.75"/>
<polygon fill="midnightblue" stroke="midnightblue" points="345.39,-250.25 355.62,-247.49 345.9,-243.27 345.39,-250.25"/>
</g>
<!-- Node4 -->
<g id="node4" class="node">
<title>Node4</title>
<g id="a_node4"><a xlink:href="classirr_1_1gui_1_1CGUISkin.html#a0f12cb721c0b7d19004a209fe32cd04d" target="_top" xlink:title="returns default color">
<polygon fill="white" stroke="black" points="206.5,-191.5 206.5,-221.5 306.5,-221.5 306.5,-191.5 206.5,-191.5"/>
<text text-anchor="start" x="214.5" y="-209.5" font-family="Helvetica,sans-Serif" font-size="10.00">irr::gui::CGUISkin</text>
<text text-anchor="middle" x="256.5" y="-198.5" font-family="Helvetica,sans-Serif" font-size="10.00">::getColor</text>
</a>
</g>
</g>
<!-- Node1&#45;&gt;Node4 -->
<g id="edge3" class="edge">
<title>Node1&#45;&gt;Node4</title>
<path fill="none" stroke="midnightblue" d="M157.21,-206.5C170.23,-206.5 183.56,-206.5 196.03,-206.5"/>
<polygon fill="midnightblue" stroke="midnightblue" points="196.27,-210 206.27,-206.5 196.27,-203 196.27,-210"/>
</g>
<!-- Node5 -->
<g id="node5" class="node">
<title>Node5</title>
<g id="a_node5"><a xlink:href="classirr_1_1video_1_1SColor.html#a20bfa471b5cf672db83355c181a3cae6" target="_top" xlink:title="Interpolates the color with a f32 value to another color.">
<polygon fill="white" stroke="black" points="207.5,-142.5 207.5,-172.5 305.5,-172.5 305.5,-142.5 207.5,-142.5"/>
<text text-anchor="start" x="215.5" y="-160.5" font-family="Helvetica,sans-Serif" font-size="10.00">irr::video::SColor</text>
<text text-anchor="middle" x="256.5" y="-149.5" font-family="Helvetica,sans-Serif" font-size="10.00">::getInterpolated</text>
</a>
</g>
</g>
<!-- Node1&#45;&gt;Node5 -->
<g id="edge4" class="edge">
<title>Node1&#45;&gt;Node5</title>
<path fill="none" stroke="midnightblue" d="M133.74,-191.4C153.97,-185.77 176.99,-179.36 197.54,-173.64"/>
<polygon fill="midnightblue" stroke="midnightblue" points="198.71,-176.94 207.4,-170.89 196.83,-170.2 198.71,-176.94"/>
</g>
<!-- Node13 -->
<g id="node13" class="node">
<title>Node13</title>
<g id="a_node13"><a xlink:href="classirr_1_1gui_1_1CGUISkin.html#a124841d8dd783286d8cef294b5d6ee21" target="_top" xlink:title="returns size for the given size type">
<polygon fill="white" stroke="black" points="206.5,-93.5 206.5,-123.5 306.5,-123.5 306.5,-93.5 206.5,-93.5"/>
<text text-anchor="start" x="214.5" y="-111.5" font-family="Helvetica,sans-Serif" font-size="10.00">irr::gui::CGUISkin</text>
<text text-anchor="middle" x="256.5" y="-100.5" font-family="Helvetica,sans-Serif" font-size="10.00">::getSize</text>
</a>
</g>
</g>
<!-- Node1&#45;&gt;Node13 -->
<g id="edge13" class="edge">
<title>Node1&#45;&gt;Node13</title>
<path fill="none" stroke="midnightblue" d="M99.63,-191.5C121.73,-175.48 158.64,-150.05 193,-132.5 196.3,-130.81 199.75,-129.18 203.25,-127.6"/>
<polygon fill="midnightblue" stroke="midnightblue" points="204.8,-130.74 212.61,-123.58 202.04,-124.31 204.8,-130.74"/>
</g>
<!-- Node5&#45;&gt;Node3 -->
<g id="edge8" class="edge">
<title>Node5&#45;&gt;Node3</title>
<path fill="none" stroke="midnightblue" d="M304.95,-172.65C310.25,-175.23 315.38,-178.16 320,-181.5 340.48,-196.3 336.39,-209.56 356,-225.5 357.95,-227.08 360.01,-228.61 362.14,-230.07"/>
<polygon fill="midnightblue" stroke="midnightblue" points="360.29,-233.03 370.62,-235.38 364,-227.1 360.29,-233.03"/>
</g>
<!-- Node6 -->
<g id="node6" class="node">
<title>Node6</title>
<g id="a_node6"><a xlink:href="namespaceirr_1_1core.html#a6162f685b68f629e77336081d3316969" target="_top" xlink:title="clamps a value between low and high">
<polygon fill="white" stroke="black" points="360,-197 360,-216 450,-216 450,-197 360,-197"/>
<text text-anchor="middle" x="405" y="-204" font-family="Helvetica,sans-Serif" font-size="10.00">irr::core::clamp</text>
</a>
</g>
</g>
<!-- Node5&#45;&gt;Node6 -->
<g id="edge5" class="edge">
<title>Node5&#45;&gt;Node6</title>
<path fill="none" stroke="midnightblue" d="M302.65,-172.6C322.84,-179.35 346.39,-187.23 365.7,-193.69"/>
<polygon fill="midnightblue" stroke="midnightblue" points="364.78,-197.07 375.37,-196.92 367,-190.43 364.78,-197.07"/>
</g>
<!-- Node9 -->
<g id="node9" class="node">
<title>Node9</title>
<g id="a_node9"><a xlink:href="classirr_1_1video_1_1SColor.html#afb60ac456b2efc2f2a4f04a643293d26" target="_top" xlink:title="Returns the blue component of the color.">
<polygon fill="white" stroke="black" points="356,-147.5 356,-177.5 454,-177.5 454,-147.5 356,-147.5"/>
<text text-anchor="start" x="364" y="-165.5" font-family="Helvetica,sans-Serif" font-size="10.00">irr::video::SColor</text>
<text text-anchor="middle" x="405" y="-154.5" font-family="Helvetica,sans-Serif" font-size="10.00">::getBlue</text>
</a>
</g>
</g>
<!-- Node5&#45;&gt;Node9 -->
<g id="edge9" class="edge">
<title>Node5&#45;&gt;Node9</title>
<path fill="none" stroke="midnightblue" d="M305.88,-159.15C318.5,-159.58 332.25,-160.05 345.34,-160.5"/>
<polygon fill="midnightblue" stroke="midnightblue" points="345.56,-164.01 355.68,-160.85 345.8,-157.01 345.56,-164.01"/>
</g>
<!-- Node10 -->
<g id="node10" class="node">
<title>Node10</title>
<g id="a_node10"><a xlink:href="classirr_1_1video_1_1SColor.html#a198773366f2a5436c1ca4adc9037bb8d" target="_top" xlink:title="Returns the green component of the color.">
<polygon fill="white" stroke="black" points="356,-98.5 356,-128.5 454,-128.5 454,-98.5 356,-98.5"/>
<text text-anchor="start" x="364" y="-116.5" font-family="Helvetica,sans-Serif" font-size="10.00">irr::video::SColor</text>
<text text-anchor="middle" x="405" y="-105.5" font-family="Helvetica,sans-Serif" font-size="10.00">::getGreen</text>
</a>
</g>
</g>
<!-- Node5&#45;&gt;Node10 -->
<g id="edge10" class="edge">
<title>Node5&#45;&gt;Node10</title>
<path fill="none" stroke="midnightblue" d="M305.88,-142.97C318.63,-139.14 332.52,-134.97 345.73,-131"/>
<polygon fill="midnightblue" stroke="midnightblue" points="347.1,-134.24 355.68,-128.01 345.09,-127.54 347.1,-134.24"/>
</g>
<!-- Node11 -->
<g id="node11" class="node">
<title>Node11</title>
<g id="a_node11"><a xlink:href="classirr_1_1video_1_1SColor.html#a70d11ec2247581c79ee11e0e1b511978" target="_top" xlink:title="Returns the red component of the color.">
<polygon fill="white" stroke="black" points="356,-49.5 356,-79.5 454,-79.5 454,-49.5 356,-49.5"/>
<text text-anchor="start" x="364" y="-67.5" font-family="Helvetica,sans-Serif" font-size="10.00">irr::video::SColor</text>
<text text-anchor="middle" x="405" y="-56.5" font-family="Helvetica,sans-Serif" font-size="10.00">::getRed</text>
</a>
</g>
</g>
<!-- Node5&#45;&gt;Node11 -->
<g id="edge11" class="edge">
<title>Node5&#45;&gt;Node11</title>
<path fill="none" stroke="midnightblue" d="M303,-142.5C308.98,-139.62 314.82,-136.3 320,-132.5 340.37,-117.56 336.26,-104.28 356,-88.5 357.53,-87.28 359.13,-86.1 360.78,-84.95"/>
<polygon fill="midnightblue" stroke="midnightblue" points="362.73,-87.86 369.35,-79.59 359.01,-81.93 362.73,-87.86"/>
</g>
<!-- Node12 -->
<g id="node12" class="node">
<title>Node12</title>
<g id="a_node12"><a xlink:href="classirr_1_1video_1_1SColor.html#ab001c0c2515ff5f8a0b324d1345485f4" target="_top" xlink:title="Constructor of the Color. Does nothing.">
<polygon fill="white" stroke="black" points="356,-0.5 356,-30.5 454,-30.5 454,-0.5 356,-0.5"/>
<text text-anchor="start" x="364" y="-18.5" font-family="Helvetica,sans-Serif" font-size="10.00">irr::video::SColor</text>
<text text-anchor="middle" x="405" y="-7.5" font-family="Helvetica,sans-Serif" font-size="10.00">::SColor</text>
</a>
</g>
</g>
<!-- Node5&#45;&gt;Node12 -->
<g id="edge12" class="edge">
<title>Node5&#45;&gt;Node12</title>
<path fill="none" stroke="midnightblue" d="M305.8,-143.06C311,-140.14 315.89,-136.65 320,-132.5 351.16,-100.98 326.17,-72.28 356,-39.5 356.75,-38.67 357.54,-37.87 358.36,-37.09"/>
<polygon fill="midnightblue" stroke="midnightblue" points="360.72,-39.69 366.39,-30.73 356.38,-34.2 360.72,-39.69"/>
</g>
<!-- Node7 -->
<g id="node7" class="node">
<title>Node7</title>
<g id="a_node7"><a xlink:href="namespaceirr_1_1core.html#afca1ce7ac54e0c31a9047947f4c7319b" target="_top" xlink:title="returns maximum of two values. Own implementation to get rid of the STL (VS6 problems)">
<polygon fill="white" stroke="black" points="490,-216 490,-235 577,-235 577,-216 490,-216"/>
<text text-anchor="middle" x="533.5" y="-223" font-family="Helvetica,sans-Serif" font-size="10.00">irr::core::max_</text>
</a>
</g>
</g>
<!-- Node6&#45;&gt;Node7 -->
<g id="edge6" class="edge">
<title>Node6&#45;&gt;Node7</title>
<path fill="none" stroke="midnightblue" d="M450.24,-213.15C459.76,-214.57 469.91,-216.1 479.72,-217.57"/>
<polygon fill="midnightblue" stroke="midnightblue" points="479.36,-221.06 489.77,-219.08 480.4,-214.14 479.36,-221.06"/>
</g>
<!-- Node8 -->
<g id="node8" class="node">
<title>Node8</title>
<g id="a_node8"><a xlink:href="namespaceirr_1_1core.html#a9d34bfdbbe9c136b01ae04974572bc11" target="_top" xlink:title="returns minimum of two values. Own implementation to get rid of the STL (VS6 problems)">
<polygon fill="white" stroke="black" points="491.5,-178 491.5,-197 575.5,-197 575.5,-178 491.5,-178"/>
<text text-anchor="middle" x="533.5" y="-185" font-family="Helvetica,sans-Serif" font-size="10.00">irr::core::min_</text>
</a>
</g>
</g>
<!-- Node6&#45;&gt;Node8 -->
<g id="edge7" class="edge">
<title>Node6&#45;&gt;Node8</title>
<path fill="none" stroke="midnightblue" d="M450.24,-199.85C460.29,-198.35 471.04,-196.73 481.35,-195.18"/>
<polygon fill="midnightblue" stroke="midnightblue" points="482.09,-198.61 491.46,-193.66 481.05,-191.69 482.09,-198.61"/>
</g>
</g>
</svg>
