<?xml version="1.0" encoding="UTF-8" standalone="no"?>
<!DOCTYPE svg PUBLIC "-//W3C//DTD SVG 1.1//EN"
 "http://www.w3.org/Graphics/SVG/1.1/DTD/svg11.dtd">
<!-- Generated by graphviz version 2.43.0 (0)
 -->
<!-- Title: irr::scene::IMeshLoader Pages: 1 -->
<svg width="494pt" height="127pt"
 viewBox="0.00 0.00 494.00 126.50" xmlns="http://www.w3.org/2000/svg" xmlns:xlink="http://www.w3.org/1999/xlink">
<g id="graph0" class="graph" transform="scale(1 1) rotate(0) translate(4 122.5)">
<title>irr::scene::IMeshLoader</title>
<polygon fill="white" stroke="transparent" points="-4,4 -4,-122.5 490,-122.5 490,4 -4,4"/>
<!-- Node1 -->
<g id="node1" class="node">
<title>Node1</title>
<g id="a_node1"><a xlink:title="Class which is able to load an animated mesh from a file.">
<polygon fill="#bfbfbf" stroke="black" points="162,-44.5 162,-63.5 292,-63.5 292,-44.5 162,-44.5"/>
<text text-anchor="middle" x="227" y="-51.5" font-family="Helvetica,sans-Serif" font-size="10.00">irr::scene::IMeshLoader</text>
</a>
</g>
</g>
<!-- Node3 -->
<g id="node3" class="node">
<title>Node3</title>
<g id="a_node3"><a xlink:href="classirr_1_1scene_1_1CB3DMeshFileLoader.html" target="_top" xlink:title="Meshloader for B3D format.">
<polygon fill="white" stroke="black" points="338,-88 338,-118 476,-118 476,-88 338,-88"/>
<text text-anchor="start" x="346" y="-106" font-family="Helvetica,sans-Serif" font-size="10.00">irr::scene::CB3DMeshFile</text>
<text text-anchor="middle" x="407" y="-95" font-family="Helvetica,sans-Serif" font-size="10.00">Loader</text>
</a>
</g>
</g>
<!-- Node1&#45;&gt;Node3 -->
<g id="edge2" class="edge">
<title>Node1&#45;&gt;Node3</title>
<path fill="none" stroke="midnightblue" d="M272.6,-66.28C296.49,-72.85 326.12,-81.01 351.38,-87.96"/>
<polygon fill="midnightblue" stroke="midnightblue" points="273.31,-62.84 262.74,-63.56 271.46,-69.59 273.31,-62.84"/>
</g>
<!-- Node4 -->
<g id="node4" class="node">
<title>Node4</title>
<g id="a_node4"><a xlink:href="classirr_1_1scene_1_1COBJMeshFileLoader.html" target="_top" xlink:title="Meshloader capable of loading obj meshes.">
<polygon fill="white" stroke="black" points="339.5,-39 339.5,-69 474.5,-69 474.5,-39 339.5,-39"/>
<text text-anchor="start" x="347.5" y="-57" font-family="Helvetica,sans-Serif" font-size="10.00">irr::scene::COBJMeshFile</text>
<text text-anchor="middle" x="407" y="-46" font-family="Helvetica,sans-Serif" font-size="10.00">Loader</text>
</a>
</g>
</g>
<!-- Node1&#45;&gt;Node4 -->
<g id="edge3" class="edge">
<title>Node1&#45;&gt;Node4</title>
<path fill="none" stroke="midnightblue" d="M302.22,-54C314.5,-54 327.17,-54 339.26,-54"/>
<polygon fill="midnightblue" stroke="midnightblue" points="302.01,-50.5 292.01,-54 302.01,-57.5 302.01,-50.5"/>
</g>
<!-- Node5 -->
<g id="node5" class="node">
<title>Node5</title>
<g id="a_node5"><a xlink:href="classirr_1_1scene_1_1CXMeshFileLoader.html" target="_top" xlink:title="Meshloader capable of loading x meshes.">
<polygon fill="white" stroke="black" points="328,-0.5 328,-19.5 486,-19.5 486,-0.5 328,-0.5"/>
<text text-anchor="middle" x="407" y="-7.5" font-family="Helvetica,sans-Serif" font-size="10.00">irr::scene::CXMeshFileLoader</text>
</a>
</g>
</g>
<!-- Node1&#45;&gt;Node5 -->
<g id="edge4" class="edge">
<title>Node1&#45;&gt;Node5</title>
<path fill="none" stroke="midnightblue" d="M275.94,-41.95C292.44,-37.82 311.02,-33.19 328,-29 340.58,-25.89 354.32,-22.54 366.71,-19.52"/>
<polygon fill="midnightblue" stroke="midnightblue" points="274.82,-38.62 265.97,-44.45 276.53,-45.41 274.82,-38.62"/>
</g>
<!-- Node2 -->
<g id="node2" class="node">
<title>Node2</title>
<g id="a_node2"><a xlink:href="classirr_1_1IReferenceCounted.html" target="_top" xlink:title="Base class of most objects of the Irrlicht Engine.">
<polygon fill="white" stroke="black" points="0,-44.5 0,-63.5 126,-63.5 126,-44.5 0,-44.5"/>
<text text-anchor="middle" x="63" y="-51.5" font-family="Helvetica,sans-Serif" font-size="10.00">irr::IReferenceCounted</text>
</a>
</g>
</g>
<!-- Node2&#45;&gt;Node1 -->
<g id="edge1" class="edge">
<title>Node2&#45;&gt;Node1</title>
<path fill="none" stroke="midnightblue" d="M136.42,-54C144.9,-54 153.5,-54 161.85,-54"/>
<polygon fill="midnightblue" stroke="midnightblue" points="136.17,-50.5 126.17,-54 136.17,-57.5 136.17,-50.5"/>
</g>
</g>
</svg>
