<?xml version="1.0" encoding="UTF-8" standalone="no"?>
<!DOCTYPE svg PUBLIC "-//W3C//DTD SVG 1.1//EN"
 "http://www.w3.org/Graphics/SVG/1.1/DTD/svg11.dtd">
<!-- Generated by graphviz version 2.43.0 (0)
 -->
<!-- Title: irr::gui::CGUISkin::draw3DButtonPaneStandard Pages: 1 -->
<!--zoomable 372 -->
<svg id="main" version="1.1" xmlns="http://www.w3.org/2000/svg" xmlns:xlink="http://www.w3.org/1999/xlink" xml:space="preserve" onload="init(evt)">
<style type="text/css"><![CDATA[
.edge:hover path { stroke: red; }
.edge:hover polygon { stroke: red; fill: red; }
]]></style>
<script type="text/javascript"><![CDATA[
var edges = document.getElementsByTagName('g');
if (edges && edges.length) {
  for (var i=0;i<edges.length;i++) {
    if (edges[i].id.substr(0,4)=='edge') {
      edges[i].setAttribute('class','edge');
    }
  }
}
]]></script>
        <defs>
                <circle id="rim" cx="0" cy="0" r="7"/>
                <circle id="rim2" cx="0" cy="0" r="3.5"/>
                <g id="zoomPlus">
                        <use xlink:href="#rim" fill="#404040">
                                <set attributeName="fill" to="#808080" begin="zoomplus.mouseover" end="zoomplus.mouseout"/>
                        </use>
                        <path d="M-4,0h8M0,-4v8" fill="none" stroke="white" stroke-width="1.5" pointer-events="none"/>
                </g>
                <g id="zoomMin">
                        <use xlink:href="#rim" fill="#404040">
                                <set attributeName="fill" to="#808080" begin="zoomminus.mouseover" end="zoomminus.mouseout"/>
                        </use>
                        <path d="M-4,0h8" fill="none" stroke="white" stroke-width="1.5" pointer-events="none"/>
                </g>
                <g id="dirArrow">
                        <path fill="none" stroke="white" stroke-width="1.5" d="M0,-3.0v7 M-2.5,-0.5L0,-3.0L2.5,-0.5"/>
                </g>
               <g id="resetDef">
                       <use xlink:href="#rim2" fill="#404040">
                               <set attributeName="fill" to="#808080" begin="reset.mouseover" end="reset.mouseout"/>
                       </use>
               </g>
        </defs>

<script type="text/javascript">
var viewWidth = 608;
var viewHeight = 372;
var sectionId = 'dynsection-4';
</script>
<script xlink:href="svgpan.js"/>
<svg id="graph" class="graph">
<g id="viewport">
<title>irr::gui::CGUISkin::draw3DButtonPaneStandard</title>
<polygon fill="white" stroke="transparent" points="-4,4 -4,-368 604,-368 604,4 -4,4"/>
<!-- Node1 -->
<g id="node1" class="node">
<title>Node1</title>
<g id="a_node1"><a xlink:title="draws a standard 3d button pane">
<polygon fill="#bfbfbf" stroke="black" points="0,-267.5 0,-297.5 159,-297.5 159,-267.5 0,-267.5"/>
<text text-anchor="start" x="8" y="-285.5" font-family="Helvetica,sans-Serif" font-size="10.00">irr::gui::CGUISkin</text>
<text text-anchor="middle" x="79.5" y="-274.5" font-family="Helvetica,sans-Serif" font-size="10.00">::draw3DButtonPaneStandard</text>
</a>
</g>
</g>
<!-- Node2 -->
<g id="node2" class="node">
<title>Node2</title>
<g id="a_node2"><a xlink:href="classirr_1_1video_1_1IVideoDriver.html#ac7f452fae0ef8abe01768a78ba7033b7" target="_top" xlink:title="Draws a 2d rectangle.">
<polygon fill="white" stroke="black" points="350,-333.5 350,-363.5 477,-363.5 477,-333.5 350,-333.5"/>
<text text-anchor="start" x="358" y="-351.5" font-family="Helvetica,sans-Serif" font-size="10.00">irr::video::IVideoDriver</text>
<text text-anchor="middle" x="413.5" y="-340.5" font-family="Helvetica,sans-Serif" font-size="10.00">::draw2DRectangle</text>
</a>
</g>
</g>
<!-- Node1&#45;&gt;Node2 -->
<g id="edge1" class="edge">
<title>Node1&#45;&gt;Node2</title>
<path fill="none" stroke="midnightblue" d="M110.28,-297.65C132.91,-308.43 165.14,-322.25 195,-329.5 242.4,-341.01 297.1,-345.75 339.79,-347.62"/>
<polygon fill="midnightblue" stroke="midnightblue" points="339.69,-351.12 349.82,-348.02 339.96,-344.12 339.69,-351.12"/>
</g>
<!-- Node3 -->
<g id="node3" class="node">
<title>Node3</title>
<g id="a_node3"><a xlink:href="classirr_1_1gui_1_1CGUISkin.html#af937eab70e221499e0b45ca10ee0c68b" target="_top" xlink:title="draws a sunken 3d pane">
<polygon fill="white" stroke="black" points="195,-289.5 195,-319.5 314,-319.5 314,-289.5 195,-289.5"/>
<text text-anchor="start" x="203" y="-307.5" font-family="Helvetica,sans-Serif" font-size="10.00">irr::gui::CGUISkin</text>
<text text-anchor="middle" x="254.5" y="-296.5" font-family="Helvetica,sans-Serif" font-size="10.00">::draw3DSunkenPane</text>
</a>
</g>
</g>
<!-- Node1&#45;&gt;Node3 -->
<g id="edge2" class="edge">
<title>Node1&#45;&gt;Node3</title>
<path fill="none" stroke="midnightblue" d="M159.15,-292.5C167.72,-293.59 176.39,-294.69 184.82,-295.77"/>
<polygon fill="midnightblue" stroke="midnightblue" points="184.61,-299.27 194.97,-297.06 185.49,-292.32 184.61,-299.27"/>
</g>
<!-- Node4 -->
<g id="node4" class="node">
<title>Node4</title>
<g id="a_node4"><a xlink:href="classirr_1_1gui_1_1CGUISkin.html#a0f12cb721c0b7d19004a209fe32cd04d" target="_top" xlink:title="returns default color">
<polygon fill="white" stroke="black" points="363.5,-284.5 363.5,-314.5 463.5,-314.5 463.5,-284.5 363.5,-284.5"/>
<text text-anchor="start" x="371.5" y="-302.5" font-family="Helvetica,sans-Serif" font-size="10.00">irr::gui::CGUISkin</text>
<text text-anchor="middle" x="413.5" y="-291.5" font-family="Helvetica,sans-Serif" font-size="10.00">::getColor</text>
</a>
</g>
</g>
<!-- Node1&#45;&gt;Node4 -->
<g id="edge5" class="edge">
<title>Node1&#45;&gt;Node4</title>
<path fill="none" stroke="midnightblue" d="M159.04,-277.78C204.43,-276.06 262.55,-275.58 314,-280.5 326.79,-281.72 340.39,-283.82 353.27,-286.18"/>
<polygon fill="midnightblue" stroke="midnightblue" points="352.94,-289.68 363.41,-288.12 354.25,-282.81 352.94,-289.68"/>
</g>
<!-- Node5 -->
<g id="node5" class="node">
<title>Node5</title>
<g id="a_node5"><a xlink:href="classirr_1_1video_1_1SColor.html#a20bfa471b5cf672db83355c181a3cae6" target="_top" xlink:title="Interpolates the color with a f32 value to another color.">
<polygon fill="white" stroke="black" points="205.5,-147.5 205.5,-177.5 303.5,-177.5 303.5,-147.5 205.5,-147.5"/>
<text text-anchor="start" x="213.5" y="-165.5" font-family="Helvetica,sans-Serif" font-size="10.00">irr::video::SColor</text>
<text text-anchor="middle" x="254.5" y="-154.5" font-family="Helvetica,sans-Serif" font-size="10.00">::getInterpolated</text>
</a>
</g>
</g>
<!-- Node1&#45;&gt;Node5 -->
<g id="edge6" class="edge">
<title>Node1&#45;&gt;Node5</title>
<path fill="none" stroke="midnightblue" d="M102.41,-267.3C133.09,-246.02 188.95,-207.28 223.48,-183.33"/>
<polygon fill="midnightblue" stroke="midnightblue" points="225.55,-186.15 231.77,-177.57 221.56,-180.4 225.55,-186.15"/>
</g>
<!-- Node3&#45;&gt;Node2 -->
<g id="edge3" class="edge">
<title>Node3&#45;&gt;Node2</title>
<path fill="none" stroke="midnightblue" d="M309.09,-319.52C321.9,-323.11 335.7,-326.98 348.92,-330.68"/>
<polygon fill="midnightblue" stroke="midnightblue" points="348.31,-334.15 358.88,-333.47 350.2,-327.4 348.31,-334.15"/>
</g>
<!-- Node3&#45;&gt;Node4 -->
<g id="edge4" class="edge">
<title>Node3&#45;&gt;Node4</title>
<path fill="none" stroke="midnightblue" d="M314.41,-302.62C327.11,-302.22 340.54,-301.79 353.26,-301.39"/>
<polygon fill="midnightblue" stroke="midnightblue" points="353.39,-304.88 363.27,-301.07 353.16,-297.89 353.39,-304.88"/>
</g>
<!-- Node6 -->
<g id="node6" class="node">
<title>Node6</title>
<g id="a_node6"><a xlink:href="namespaceirr_1_1core.html#a6162f685b68f629e77336081d3316969" target="_top" xlink:title="clamps a value between low and high">
<polygon fill="white" stroke="black" points="368.5,-246 368.5,-265 458.5,-265 458.5,-246 368.5,-246"/>
<text text-anchor="middle" x="413.5" y="-253" font-family="Helvetica,sans-Serif" font-size="10.00">irr::core::clamp</text>
</a>
</g>
</g>
<!-- Node5&#45;&gt;Node6 -->
<g id="edge7" class="edge">
<title>Node5&#45;&gt;Node6</title>
<path fill="none" stroke="midnightblue" d="M271.35,-177.58C289.21,-193.86 319.72,-219.59 350,-235.5 354.92,-238.08 360.23,-240.41 365.6,-242.48"/>
<polygon fill="midnightblue" stroke="midnightblue" points="364.69,-245.87 375.28,-245.93 367.04,-239.27 364.69,-245.87"/>
</g>
<!-- Node9 -->
<g id="node9" class="node">
<title>Node9</title>
<g id="a_node9"><a xlink:href="classirr_1_1video_1_1SColor.html#a8b0bcff9036b06e3483978a84a924b91" target="_top" xlink:title="Returns the alpha component of the color.">
<polygon fill="white" stroke="black" points="364.5,-196.5 364.5,-226.5 462.5,-226.5 462.5,-196.5 364.5,-196.5"/>
<text text-anchor="start" x="372.5" y="-214.5" font-family="Helvetica,sans-Serif" font-size="10.00">irr::video::SColor</text>
<text text-anchor="middle" x="413.5" y="-203.5" font-family="Helvetica,sans-Serif" font-size="10.00">::getAlpha</text>
</a>
</g>
</g>
<!-- Node5&#45;&gt;Node9 -->
<g id="edge10" class="edge">
<title>Node5&#45;&gt;Node9</title>
<path fill="none" stroke="midnightblue" d="M303.89,-177.6C319.93,-182.61 337.95,-188.23 354.63,-193.44"/>
<polygon fill="midnightblue" stroke="midnightblue" points="353.68,-196.81 364.27,-196.45 355.77,-190.13 353.68,-196.81"/>
</g>
<!-- Node10 -->
<g id="node10" class="node">
<title>Node10</title>
<g id="a_node10"><a xlink:href="classirr_1_1video_1_1SColor.html#afb60ac456b2efc2f2a4f04a643293d26" target="_top" xlink:title="Returns the blue component of the color.">
<polygon fill="white" stroke="black" points="364.5,-147.5 364.5,-177.5 462.5,-177.5 462.5,-147.5 364.5,-147.5"/>
<text text-anchor="start" x="372.5" y="-165.5" font-family="Helvetica,sans-Serif" font-size="10.00">irr::video::SColor</text>
<text text-anchor="middle" x="413.5" y="-154.5" font-family="Helvetica,sans-Serif" font-size="10.00">::getBlue</text>
</a>
</g>
</g>
<!-- Node5&#45;&gt;Node10 -->
<g id="edge11" class="edge">
<title>Node5&#45;&gt;Node10</title>
<path fill="none" stroke="midnightblue" d="M303.89,-162.5C319.78,-162.5 337.61,-162.5 354.16,-162.5"/>
<polygon fill="midnightblue" stroke="midnightblue" points="354.27,-166 364.27,-162.5 354.27,-159 354.27,-166"/>
</g>
<!-- Node11 -->
<g id="node11" class="node">
<title>Node11</title>
<g id="a_node11"><a xlink:href="classirr_1_1video_1_1SColor.html#a198773366f2a5436c1ca4adc9037bb8d" target="_top" xlink:title="Returns the green component of the color.">
<polygon fill="white" stroke="black" points="364.5,-98.5 364.5,-128.5 462.5,-128.5 462.5,-98.5 364.5,-98.5"/>
<text text-anchor="start" x="372.5" y="-116.5" font-family="Helvetica,sans-Serif" font-size="10.00">irr::video::SColor</text>
<text text-anchor="middle" x="413.5" y="-105.5" font-family="Helvetica,sans-Serif" font-size="10.00">::getGreen</text>
</a>
</g>
</g>
<!-- Node5&#45;&gt;Node11 -->
<g id="edge12" class="edge">
<title>Node5&#45;&gt;Node11</title>
<path fill="none" stroke="midnightblue" d="M303.89,-147.4C319.93,-142.39 337.95,-136.77 354.63,-131.56"/>
<polygon fill="midnightblue" stroke="midnightblue" points="355.77,-134.87 364.27,-128.55 353.68,-128.19 355.77,-134.87"/>
</g>
<!-- Node12 -->
<g id="node12" class="node">
<title>Node12</title>
<g id="a_node12"><a xlink:href="classirr_1_1video_1_1SColor.html#a70d11ec2247581c79ee11e0e1b511978" target="_top" xlink:title="Returns the red component of the color.">
<polygon fill="white" stroke="black" points="364.5,-49.5 364.5,-79.5 462.5,-79.5 462.5,-49.5 364.5,-49.5"/>
<text text-anchor="start" x="372.5" y="-67.5" font-family="Helvetica,sans-Serif" font-size="10.00">irr::video::SColor</text>
<text text-anchor="middle" x="413.5" y="-56.5" font-family="Helvetica,sans-Serif" font-size="10.00">::getRed</text>
</a>
</g>
</g>
<!-- Node5&#45;&gt;Node12 -->
<g id="edge13" class="edge">
<title>Node5&#45;&gt;Node12</title>
<path fill="none" stroke="midnightblue" d="M271.82,-147.22C289.85,-130.98 320.27,-105.35 350,-88.5 352.88,-86.87 355.9,-85.3 358.98,-83.81"/>
<polygon fill="midnightblue" stroke="midnightblue" points="360.71,-86.86 368.37,-79.54 357.81,-80.49 360.71,-86.86"/>
</g>
<!-- Node13 -->
<g id="node13" class="node">
<title>Node13</title>
<g id="a_node13"><a xlink:href="classirr_1_1video_1_1SColor.html#ab001c0c2515ff5f8a0b324d1345485f4" target="_top" xlink:title="Constructor of the Color. Does nothing.">
<polygon fill="white" stroke="black" points="364.5,-0.5 364.5,-30.5 462.5,-30.5 462.5,-0.5 364.5,-0.5"/>
<text text-anchor="start" x="372.5" y="-18.5" font-family="Helvetica,sans-Serif" font-size="10.00">irr::video::SColor</text>
<text text-anchor="middle" x="413.5" y="-7.5" font-family="Helvetica,sans-Serif" font-size="10.00">::SColor</text>
</a>
</g>
</g>
<!-- Node5&#45;&gt;Node13 -->
<g id="edge14" class="edge">
<title>Node5&#45;&gt;Node13</title>
<path fill="none" stroke="midnightblue" d="M263.37,-147.48C277.48,-121.92 309.43,-69.78 350,-39.5 351.85,-38.12 353.8,-36.8 355.81,-35.56"/>
<polygon fill="midnightblue" stroke="midnightblue" points="357.88,-38.41 364.95,-30.52 354.5,-32.28 357.88,-38.41"/>
</g>
<!-- Node7 -->
<g id="node7" class="node">
<title>Node7</title>
<g id="a_node7"><a xlink:href="namespaceirr_1_1core.html#afca1ce7ac54e0c31a9047947f4c7319b" target="_top" xlink:title="returns maximum of two values. Own implementation to get rid of the STL (VS6 problems)">
<polygon fill="white" stroke="black" points="513,-265 513,-284 600,-284 600,-265 513,-265"/>
<text text-anchor="middle" x="556.5" y="-272" font-family="Helvetica,sans-Serif" font-size="10.00">irr::core::max_</text>
</a>
</g>
</g>
<!-- Node6&#45;&gt;Node7 -->
<g id="edge8" class="edge">
<title>Node6&#45;&gt;Node7</title>
<path fill="none" stroke="midnightblue" d="M458.73,-261.46C472.63,-263.33 488.13,-265.42 502.58,-267.37"/>
<polygon fill="midnightblue" stroke="midnightblue" points="502.5,-270.89 512.88,-268.76 503.43,-263.95 502.5,-270.89"/>
</g>
<!-- Node8 -->
<g id="node8" class="node">
<title>Node8</title>
<g id="a_node8"><a xlink:href="namespaceirr_1_1core.html#a9d34bfdbbe9c136b01ae04974572bc11" target="_top" xlink:title="returns minimum of two values. Own implementation to get rid of the STL (VS6 problems)">
<polygon fill="white" stroke="black" points="514.5,-227 514.5,-246 598.5,-246 598.5,-227 514.5,-227"/>
<text text-anchor="middle" x="556.5" y="-234" font-family="Helvetica,sans-Serif" font-size="10.00">irr::core::min_</text>
</a>
</g>
</g>
<!-- Node6&#45;&gt;Node8 -->
<g id="edge9" class="edge">
<title>Node6&#45;&gt;Node8</title>
<path fill="none" stroke="midnightblue" d="M458.73,-249.54C473.16,-247.6 489.31,-245.42 504.22,-243.41"/>
<polygon fill="midnightblue" stroke="midnightblue" points="504.87,-246.85 514.31,-242.05 503.93,-239.92 504.87,-246.85"/>
</g>
</g>
</svg>
        <g id="navigator" transform="translate(0 0)" fill="#404254">
                <rect fill="#f2f5e9" fill-opacity="0.5" stroke="#606060" stroke-width=".5" x="0" y="0" width="60" height="60"/>
                <use id="zoomplus" xlink:href="#zoomPlus" x="17" y="9" onmousedown="handleZoom(evt,'in')"/>
                <use id="zoomminus" xlink:href="#zoomMin" x="42" y="9" onmousedown="handleZoom(evt,'out')"/>
                <use id="reset" xlink:href="#resetDef" x="30" y="36" onmousedown="handleReset()"/>
                <g id="arrowUp" xlink:href="#dirArrow" transform="translate(30 24)" onmousedown="handlePan(0,-1)">
                  <use xlink:href="#rim" fill="#404040">
                        <set attributeName="fill" to="#808080" begin="arrowUp.mouseover" end="arrowUp.mouseout"/>
                  </use>
                  <path fill="none" stroke="white" stroke-width="1.5" d="M0,-3.0v7 M-2.5,-0.5L0,-3.0L2.5,-0.5"/>
                </g>
                <g id="arrowRight" xlink:href="#dirArrow" transform="rotate(90) translate(36 -43)" onmousedown="handlePan(1,0)">
                  <use xlink:href="#rim" fill="#404040">
                        <set attributeName="fill" to="#808080" begin="arrowRight.mouseover" end="arrowRight.mouseout"/>
                  </use>
                  <path fill="none" stroke="white" stroke-width="1.5" d="M0,-3.0v7 M-2.5,-0.5L0,-3.0L2.5,-0.5"/>
                </g>
                <g id="arrowDown" xlink:href="#dirArrow" transform="rotate(180) translate(-30 -48)" onmousedown="handlePan(0,1)">
                  <use xlink:href="#rim" fill="#404040">
                        <set attributeName="fill" to="#808080" begin="arrowDown.mouseover" end="arrowDown.mouseout"/>
                  </use>
                  <path fill="none" stroke="white" stroke-width="1.5" d="M0,-3.0v7 M-2.5,-0.5L0,-3.0L2.5,-0.5"/>
                </g>
                <g id="arrowLeft" xlink:href="#dirArrow" transform="rotate(270) translate(-36 17)" onmousedown="handlePan(-1,0)">
                  <use xlink:href="#rim" fill="#404040">
                        <set attributeName="fill" to="#808080" begin="arrowLeft.mouseover" end="arrowLeft.mouseout"/>
                  </use>
                  <path fill="none" stroke="white" stroke-width="1.5" d="M0,-3.0v7 M-2.5,-0.5L0,-3.0L2.5,-0.5"/>
                </g>
        </g>
        <svg viewBox="0 0 15 15" width="100%" height="30px" preserveAspectRatio="xMaxYMin meet">
         <g id="arrow_out" transform="scale(0.3 0.3)">
          <a xlink:href="classirr_1_1gui_1_1CGUISkin_a04e30f02725e15d15d50ec4a0832bd07_cgraph_org.svg" target="_base">
           <rect id="button" ry="5" rx="5" y="6" x="6" height="38" width="38"
                fill="#f2f5e9" fill-opacity="0.5" stroke="#606060" stroke-width="1.0"/>
           <path id="arrow"
             d="M 11.500037,31.436501 C 11.940474,20.09759 22.043105,11.32322 32.158766,21.979434 L 37.068811,17.246167 C 37.068811,17.246167 37.088388,32 37.088388,32 L 22.160133,31.978069 C 22.160133,31.978069 26.997745,27.140456 26.997745,27.140456 C 18.528582,18.264221 13.291696,25.230495 11.500037,31.436501 z"
             style="fill:#404040;"/>
          </a>
         </g>
        </svg>
</svg>
