<?xml version="1.0" encoding="UTF-8" standalone="no"?>
<!DOCTYPE svg PUBLIC "-//W3C//DTD SVG 1.1//EN"
 "http://www.w3.org/Graphics/SVG/1.1/DTD/svg11.dtd">
<!-- Generated by graphviz version 2.43.0 (0)
 -->
<!-- Title: Database_SQLite3 Pages: 1 -->
<svg width="582pt" height="106pt"
 viewBox="0.00 0.00 581.50 106.00" xmlns="http://www.w3.org/2000/svg" xmlns:xlink="http://www.w3.org/1999/xlink">
<g id="graph0" class="graph" transform="scale(1 1) rotate(0) translate(4 102)">
<title>Database_SQLite3</title>
<polygon fill="white" stroke="transparent" points="-4,4 -4,-102 577.5,-102 577.5,4 -4,4"/>
<!-- Node1 -->
<g id="node1" class="node">
<title>Node1</title>
<g id="a_node1"><a xlink:title=" ">
<polygon fill="#bfbfbf" stroke="black" points="207.5,-0.5 207.5,-19.5 313.5,-19.5 313.5,-0.5 207.5,-0.5"/>
<text text-anchor="middle" x="260.5" y="-7.5" font-family="Helvetica,sans-Serif" font-size="10.00">Database_SQLite3</text>
</a>
</g>
</g>
<!-- Node2 -->
<g id="node2" class="node">
<title>Node2</title>
<g id="a_node2"><a xlink:href="classDatabase.html" target="_top" xlink:title=" ">
<polygon fill="white" stroke="black" points="0,-78.5 0,-97.5 63,-97.5 63,-78.5 0,-78.5"/>
<text text-anchor="middle" x="31.5" y="-85.5" font-family="Helvetica,sans-Serif" font-size="10.00">Database</text>
</a>
</g>
</g>
<!-- Node2&#45;&gt;Node1 -->
<g id="edge1" class="edge">
<title>Node2&#45;&gt;Node1</title>
<path fill="none" stroke="midnightblue" d="M53.27,-73.03C71.4,-61.99 98.24,-46.99 123.5,-38 150.45,-28.41 181.66,-21.92 207.48,-17.72"/>
<polygon fill="midnightblue" stroke="midnightblue" points="51.29,-70.14 44.64,-78.39 54.98,-76.09 51.29,-70.14"/>
</g>
<!-- Node3 -->
<g id="node3" class="node">
<title>Node3</title>
<g id="a_node3"><a xlink:title=" ">
<polygon fill="white" stroke="#bfbfbf" points="81.5,-78.5 81.5,-97.5 167.5,-97.5 167.5,-78.5 81.5,-78.5"/>
<text text-anchor="middle" x="124.5" y="-85.5" font-family="Helvetica,sans-Serif" font-size="10.00">sqlite3_stmt *</text>
</a>
</g>
</g>
<!-- Node3&#45;&gt;Node1 -->
<g id="edge2" class="edge">
<title>Node3&#45;&gt;Node1</title>
<path fill="none" stroke="#9a32cd" stroke-dasharray="5,2" d="M125.74,-68.25C127.4,-57.94 131.16,-45.72 139.5,-38 149.57,-28.68 179.62,-21.95 207.26,-17.54"/>
<polygon fill="#9a32cd" stroke="#9a32cd" points="122.24,-68.05 124.63,-78.37 129.2,-68.81 122.24,-68.05"/>
<text text-anchor="middle" x="174.5" y="-52" font-family="Helvetica,sans-Serif" font-size="10.00"> m_stmt_end</text>
<text text-anchor="middle" x="174.5" y="-41" font-family="Helvetica,sans-Serif" font-size="10.00">m_stmt_begin</text>
</g>
<!-- Node4 -->
<g id="node4" class="node">
<title>Node4</title>
<g id="a_node4"><a xlink:title=" ">
<polygon fill="white" stroke="#bfbfbf" points="192.5,-78.5 192.5,-97.5 242.5,-97.5 242.5,-78.5 192.5,-78.5"/>
<text text-anchor="middle" x="217.5" y="-85.5" font-family="Helvetica,sans-Serif" font-size="10.00">sqlite3</text>
</a>
</g>
</g>
<!-- Node4&#45;&gt;Node1 -->
<g id="edge3" class="edge">
<title>Node4&#45;&gt;Node1</title>
<path fill="none" stroke="#9a32cd" stroke-dasharray="5,2" d="M213.87,-68.27C212.97,-58.65 213.43,-47.07 218.5,-38 222.99,-29.98 230.96,-23.97 238.76,-19.69"/>
<polygon fill="#9a32cd" stroke="#9a32cd" points="210.45,-69.02 215.37,-78.4 217.37,-68 210.45,-69.02"/>
<text text-anchor="middle" x="250.5" y="-46.5" font-family="Helvetica,sans-Serif" font-size="10.00"> m_database</text>
</g>
<!-- Node5 -->
<g id="node5" class="node">
<title>Node5</title>
<g id="a_node5"><a xlink:title=" ">
<polygon fill="white" stroke="#bfbfbf" points="282.5,-78.5 282.5,-97.5 326.5,-97.5 326.5,-78.5 282.5,-78.5"/>
<text text-anchor="middle" x="304.5" y="-85.5" font-family="Helvetica,sans-Serif" font-size="10.00">string</text>
</a>
</g>
</g>
<!-- Node5&#45;&gt;Node1 -->
<g id="edge4" class="edge">
<title>Node5&#45;&gt;Node1</title>
<path fill="none" stroke="#9a32cd" stroke-dasharray="5,2" d="M297.64,-68.75C293.76,-59.28 288.48,-47.69 282.5,-38 278.44,-31.41 272.94,-24.66 268.45,-19.56"/>
<polygon fill="#9a32cd" stroke="#9a32cd" points="294.49,-70.31 301.4,-78.34 301.01,-67.75 294.49,-70.31"/>
<text text-anchor="middle" x="321.5" y="-52" font-family="Helvetica,sans-Serif" font-size="10.00"> m_dbname</text>
<text text-anchor="middle" x="321.5" y="-41" font-family="Helvetica,sans-Serif" font-size="10.00">m_savedir</text>
</g>
<!-- Node6 -->
<g id="node6" class="node">
<title>Node6</title>
<g id="a_node6"><a xlink:href="classbool.html" target="_top" xlink:title=" ">
<polygon fill="white" stroke="black" points="366.5,-78.5 366.5,-97.5 404.5,-97.5 404.5,-78.5 366.5,-78.5"/>
<text text-anchor="middle" x="385.5" y="-85.5" font-family="Helvetica,sans-Serif" font-size="10.00">bool</text>
</a>
</g>
</g>
<!-- Node6&#45;&gt;Node1 -->
<g id="edge5" class="edge">
<title>Node6&#45;&gt;Node1</title>
<path fill="none" stroke="#9a32cd" stroke-dasharray="5,2" d="M378.19,-69.22C373.03,-58.72 365.12,-45.96 354.5,-38 342.68,-29.14 328.04,-23.18 313.86,-19.18"/>
<polygon fill="#9a32cd" stroke="#9a32cd" points="375.01,-70.69 382.31,-78.37 381.4,-67.82 375.01,-70.69"/>
<text text-anchor="middle" x="406" y="-46.5" font-family="Helvetica,sans-Serif" font-size="10.00"> m_initialized</text>
</g>
<!-- Node7 -->
<g id="node7" class="node">
<title>Node7</title>
<g id="a_node7"><a xlink:title=" ">
<polygon fill="white" stroke="#bfbfbf" points="458.5,-78.5 458.5,-97.5 492.5,-97.5 492.5,-78.5 458.5,-78.5"/>
<text text-anchor="middle" x="475.5" y="-85.5" font-family="Helvetica,sans-Serif" font-size="10.00">s64</text>
</a>
</g>
</g>
<!-- Node7&#45;&gt;Node1 -->
<g id="edge6" class="edge">
<title>Node7&#45;&gt;Node1</title>
<path fill="none" stroke="#9a32cd" stroke-dasharray="5,2" d="M468.36,-69.07C463.12,-58.3 454.91,-45.31 443.5,-38 422.54,-24.58 359.87,-17.51 313.69,-14.03"/>
<polygon fill="#9a32cd" stroke="#9a32cd" points="465.26,-70.71 472.49,-78.46 471.67,-67.9 465.26,-70.71"/>
<text text-anchor="middle" x="518" y="-46.5" font-family="Helvetica,sans-Serif" font-size="10.00"> m_busy_handler_data</text>
</g>
</g>
</svg>
