<?xml version="1.0" encoding="UTF-8" standalone="no"?>
<!DOCTYPE svg PUBLIC "-//W3C//DTD SVG 1.1//EN"
 "http://www.w3.org/Graphics/SVG/1.1/DTD/svg11.dtd">
<!-- Generated by graphviz version 2.43.0 (0)
 -->
<!-- Title: PlayerMetaRef Pages: 1 -->
<svg width="348pt" height="219pt"
 viewBox="0.00 0.00 347.50 219.00" xmlns="http://www.w3.org/2000/svg" xmlns:xlink="http://www.w3.org/1999/xlink">
<g id="graph0" class="graph" transform="scale(1 1) rotate(0) translate(4 215)">
<title>PlayerMetaRef</title>
<polygon fill="white" stroke="transparent" points="-4,4 -4,-215 343.5,-215 343.5,4 -4,4"/>
<!-- Node1 -->
<g id="node1" class="node">
<title>Node1</title>
<g id="a_node1"><a xlink:title=" ">
<polygon fill="#bfbfbf" stroke="black" points="108,-0.5 108,-19.5 197,-19.5 197,-0.5 108,-0.5"/>
<text text-anchor="middle" x="152.5" y="-7.5" font-family="Helvetica,sans-Serif" font-size="10.00">PlayerMetaRef</text>
</a>
</g>
</g>
<!-- Node2 -->
<g id="node2" class="node">
<title>Node2</title>
<g id="a_node2"><a xlink:href="classMetaDataRef.html" target="_top" xlink:title=" ">
<polygon fill="white" stroke="black" points="0,-67.5 0,-86.5 81,-86.5 81,-67.5 0,-67.5"/>
<text text-anchor="middle" x="40.5" y="-74.5" font-family="Helvetica,sans-Serif" font-size="10.00">MetaDataRef</text>
</a>
</g>
</g>
<!-- Node2&#45;&gt;Node1 -->
<g id="edge1" class="edge">
<title>Node2&#45;&gt;Node1</title>
<path fill="none" stroke="midnightblue" d="M63.26,-61.98C75.18,-54.71 90.05,-45.76 103.5,-38 114.44,-31.69 126.9,-24.83 136.52,-19.6"/>
<polygon fill="midnightblue" stroke="midnightblue" points="61.12,-59.18 54.42,-67.39 64.78,-65.15 61.12,-59.18"/>
</g>
<!-- Node3 -->
<g id="node3" class="node">
<title>Node3</title>
<g id="a_node3"><a xlink:href="classModApiBase.html" target="_top" xlink:title=" ">
<polygon fill="white" stroke="black" points="2,-134.5 2,-153.5 79,-153.5 79,-134.5 2,-134.5"/>
<text text-anchor="middle" x="40.5" y="-141.5" font-family="Helvetica,sans-Serif" font-size="10.00">ModApiBase</text>
</a>
</g>
</g>
<!-- Node3&#45;&gt;Node2 -->
<g id="edge2" class="edge">
<title>Node3&#45;&gt;Node2</title>
<path fill="none" stroke="midnightblue" d="M40.5,-124.04C40.5,-111.67 40.5,-96.12 40.5,-86.63"/>
<polygon fill="midnightblue" stroke="midnightblue" points="37,-124.23 40.5,-134.23 44,-124.23 37,-124.23"/>
</g>
<!-- Node4 -->
<g id="node4" class="node">
<title>Node4</title>
<g id="a_node4"><a xlink:href="classLuaHelper.html" target="_top" xlink:title=" ">
<polygon fill="white" stroke="black" points="7.5,-191.5 7.5,-210.5 73.5,-210.5 73.5,-191.5 7.5,-191.5"/>
<text text-anchor="middle" x="40.5" y="-198.5" font-family="Helvetica,sans-Serif" font-size="10.00">LuaHelper</text>
</a>
</g>
</g>
<!-- Node4&#45;&gt;Node3 -->
<g id="edge3" class="edge">
<title>Node4&#45;&gt;Node3</title>
<path fill="none" stroke="darkgreen" d="M40.5,-181.12C40.5,-171.82 40.5,-161.06 40.5,-153.71"/>
<polygon fill="darkgreen" stroke="darkgreen" points="37,-181.41 40.5,-191.41 44,-181.41 37,-181.41"/>
</g>
<!-- Node5 -->
<g id="node5" class="node">
<title>Node5</title>
<g id="a_node5"><a xlink:href="structluaL__Reg.html" target="_top" xlink:title=" ">
<polygon fill="white" stroke="black" points="194,-67.5 194,-86.5 255,-86.5 255,-67.5 194,-67.5"/>
<text text-anchor="middle" x="224.5" y="-74.5" font-family="Helvetica,sans-Serif" font-size="10.00">luaL_Reg</text>
</a>
</g>
</g>
<!-- Node5&#45;&gt;Node1 -->
<g id="edge4" class="edge">
<title>Node5&#45;&gt;Node1</title>
<path fill="none" stroke="#9a32cd" stroke-dasharray="5,2" d="M207.17,-60.36C193.02,-47.58 173.54,-29.99 162.06,-19.63"/>
<polygon fill="#9a32cd" stroke="#9a32cd" points="205.02,-63.13 214.79,-67.23 209.71,-57.93 205.02,-63.13"/>
<text text-anchor="middle" x="215.5" y="-41" font-family="Helvetica,sans-Serif" font-size="10.00"> methods</text>
</g>
<!-- Node6 -->
<g id="node6" class="node">
<title>Node6</title>
<g id="a_node6"><a xlink:title=" ">
<polygon fill="white" stroke="#bfbfbf" points="120.5,-134.5 120.5,-153.5 158.5,-153.5 158.5,-134.5 120.5,-134.5"/>
<text text-anchor="middle" x="139.5" y="-141.5" font-family="Helvetica,sans-Serif" font-size="10.00">char</text>
</a>
</g>
</g>
<!-- Node6&#45;&gt;Node1 -->
<g id="edge7" class="edge">
<title>Node6&#45;&gt;Node1</title>
<path fill="none" stroke="#9a32cd" stroke-dasharray="5,2" d="M132.7,-124.18C128.04,-108.73 123.38,-86.34 127.5,-67 131.27,-49.3 141.06,-30.41 147.21,-19.72"/>
<polygon fill="#9a32cd" stroke="#9a32cd" points="129.5,-125.66 135.97,-134.05 136.15,-123.46 129.5,-125.66"/>
<text text-anchor="middle" x="156.5" y="-74.5" font-family="Helvetica,sans-Serif" font-size="10.00"> className</text>
</g>
<!-- Node6&#45;&gt;Node5 -->
<g id="edge5" class="edge">
<title>Node6&#45;&gt;Node5</title>
<path fill="none" stroke="#9a32cd" stroke-dasharray="5,2" d="M159.03,-128.07C175.8,-115.24 199.41,-97.19 213.22,-86.63"/>
<polygon fill="#9a32cd" stroke="#9a32cd" points="156.78,-125.38 150.96,-134.23 161.03,-130.94 156.78,-125.38"/>
<text text-anchor="middle" x="202" y="-108" font-family="Helvetica,sans-Serif" font-size="10.00"> name</text>
</g>
<!-- Node7 -->
<g id="node7" class="node">
<title>Node7</title>
<g id="a_node7"><a xlink:title=" ">
<polygon fill="white" stroke="#bfbfbf" points="210,-134.5 210,-153.5 239,-153.5 239,-134.5 210,-134.5"/>
<text text-anchor="middle" x="224.5" y="-141.5" font-family="Helvetica,sans-Serif" font-size="10.00">int</text>
</a>
</g>
</g>
<!-- Node7&#45;&gt;Node5 -->
<g id="edge6" class="edge">
<title>Node7&#45;&gt;Node5</title>
<path fill="none" stroke="#9a32cd" stroke-dasharray="5,2" d="M224.5,-124.04C224.5,-111.67 224.5,-96.12 224.5,-86.63"/>
<polygon fill="#9a32cd" stroke="#9a32cd" points="221,-124.23 224.5,-134.23 228,-124.23 221,-124.23"/>
<text text-anchor="middle" x="237" y="-108" font-family="Helvetica,sans-Serif" font-size="10.00"> func</text>
</g>
<!-- Node8 -->
<g id="node8" class="node">
<title>Node8</title>
<g id="a_node8"><a xlink:href="classIMetadata.html" target="_top" xlink:title=" ">
<polygon fill="white" stroke="black" points="273.5,-67.5 273.5,-86.5 339.5,-86.5 339.5,-67.5 273.5,-67.5"/>
<text text-anchor="middle" x="306.5" y="-74.5" font-family="Helvetica,sans-Serif" font-size="10.00">IMetadata</text>
</a>
</g>
</g>
<!-- Node8&#45;&gt;Node1 -->
<g id="edge8" class="edge">
<title>Node8&#45;&gt;Node1</title>
<path fill="none" stroke="#9a32cd" stroke-dasharray="5,2" d="M285.72,-61.89C273.52,-54.07 257.59,-44.62 242.5,-38 225.17,-30.39 205.07,-24.14 188.26,-19.57"/>
<polygon fill="#9a32cd" stroke="#9a32cd" points="283.96,-64.93 294.24,-67.48 287.79,-59.07 283.96,-64.93"/>
<text text-anchor="middle" x="288" y="-41" font-family="Helvetica,sans-Serif" font-size="10.00"> metadata</text>
</g>
</g>
</svg>
