<?xml version="1.0" encoding="UTF-8" standalone="no"?>
<!DOCTYPE svg PUBLIC "-//W3C//DTD SVG 1.1//EN"
 "http://www.w3.org/Graphics/SVG/1.1/DTD/svg11.dtd">
<!-- Generated by graphviz version 2.43.0 (0)
 -->
<!-- Title: irr::gui::IGUIElement::setRelativePosition Pages: 1 -->
<svg width="299pt" height="127pt"
 viewBox="0.00 0.00 299.00 127.00" xmlns="http://www.w3.org/2000/svg" xmlns:xlink="http://www.w3.org/1999/xlink">
<g id="graph0" class="graph" transform="scale(1 1) rotate(0) translate(4 123)">
<title>irr::gui::IGUIElement::setRelativePosition</title>
<polygon fill="white" stroke="transparent" points="-4,4 -4,-123 295,-123 295,4 -4,4"/>
<!-- Node1 -->
<g id="node1" class="node">
<title>Node1</title>
<g id="a_node1"><a xlink:title="Sets the relative rectangle of this element.">
<polygon fill="#bfbfbf" stroke="black" points="0,-44.5 0,-74.5 117,-74.5 117,-44.5 0,-44.5"/>
<text text-anchor="start" x="8" y="-62.5" font-family="Helvetica,sans-Serif" font-size="10.00">irr::gui::IGUIElement</text>
<text text-anchor="middle" x="58.5" y="-51.5" font-family="Helvetica,sans-Serif" font-size="10.00">::setRelativePosition</text>
</a>
</g>
</g>
<!-- Node2 -->
<g id="node2" class="node">
<title>Node2</title>
<g id="a_node2"><a xlink:href="classirr_1_1gui_1_1IGUIElement.html#a6c5b94dd889533a306a03e25d0998bdf" target="_top" xlink:title="Gets the absolute rectangle of this element.">
<polygon fill="white" stroke="black" points="162,-88.5 162,-118.5 282,-118.5 282,-88.5 162,-88.5"/>
<text text-anchor="start" x="170" y="-106.5" font-family="Helvetica,sans-Serif" font-size="10.00">irr::gui::IGUIElement</text>
<text text-anchor="middle" x="222" y="-95.5" font-family="Helvetica,sans-Serif" font-size="10.00">::getAbsolutePosition</text>
</a>
</g>
</g>
<!-- Node1&#45;&gt;Node2 -->
<g id="edge1" class="edge">
<title>Node1&#45;&gt;Node2</title>
<path fill="none" stroke="midnightblue" d="M114.63,-74.52C127.94,-78.15 142.28,-82.05 156,-85.79"/>
<polygon fill="midnightblue" stroke="midnightblue" points="155.28,-89.22 165.85,-88.47 157.12,-82.47 155.28,-89.22"/>
</g>
<!-- Node3 -->
<g id="node3" class="node">
<title>Node3</title>
<g id="a_node3"><a xlink:href="classirr_1_1core_1_1rect.html#aa5e0bf0e6474c1603c735a63843833fa" target="_top" xlink:title="Get the dimensions of the rectangle.">
<polygon fill="white" stroke="black" points="161.5,-50 161.5,-69 282.5,-69 282.5,-50 161.5,-50"/>
<text text-anchor="middle" x="222" y="-57" font-family="Helvetica,sans-Serif" font-size="10.00">irr::core::rect::getSize</text>
</a>
</g>
</g>
<!-- Node1&#45;&gt;Node3 -->
<g id="edge2" class="edge">
<title>Node1&#45;&gt;Node3</title>
<path fill="none" stroke="midnightblue" d="M117.35,-59.5C128.3,-59.5 139.86,-59.5 151.13,-59.5"/>
<polygon fill="midnightblue" stroke="midnightblue" points="151.38,-63 161.38,-59.5 151.38,-56 151.38,-63"/>
</g>
<!-- Node4 -->
<g id="node4" class="node">
<title>Node4</title>
<g id="a_node4"><a xlink:href="classirr_1_1gui_1_1IGUIElement.html#ad58bbeba69a118873a5075d86b4c90f2" target="_top" xlink:title="Updates the absolute position.">
<polygon fill="white" stroke="black" points="153,-0.5 153,-30.5 291,-30.5 291,-0.5 153,-0.5"/>
<text text-anchor="start" x="161" y="-18.5" font-family="Helvetica,sans-Serif" font-size="10.00">irr::gui::IGUIElement</text>
<text text-anchor="middle" x="222" y="-7.5" font-family="Helvetica,sans-Serif" font-size="10.00">::updateAbsolutePosition</text>
</a>
</g>
</g>
<!-- Node1&#45;&gt;Node4 -->
<g id="edge3" class="edge">
<title>Node1&#45;&gt;Node4</title>
<path fill="none" stroke="midnightblue" d="M114.63,-44.48C127.94,-40.85 142.28,-36.95 156,-33.21"/>
<polygon fill="midnightblue" stroke="midnightblue" points="157.12,-36.53 165.85,-30.53 155.28,-29.78 157.12,-36.53"/>
</g>
</g>
</svg>
