<?xml version="1.0" encoding="UTF-8" standalone="no"?>
<!DOCTYPE svg PUBLIC "-//W3C//DTD SVG 1.1//EN"
 "http://www.w3.org/Graphics/SVG/1.1/DTD/svg11.dtd">
<!-- Generated by graphviz version 2.43.0 (0)
 -->
<!-- Title: Catch::BinaryExpr&lt; LhsT, RhsT &gt; Pages: 1 -->
<svg width="388pt" height="184pt"
 viewBox="0.00 0.00 388.00 184.00" xmlns="http://www.w3.org/2000/svg" xmlns:xlink="http://www.w3.org/1999/xlink">
<g id="graph0" class="graph" transform="scale(1 1) rotate(0) translate(4 180)">
<title>Catch::BinaryExpr&lt; LhsT, RhsT &gt;</title>
<polygon fill="white" stroke="transparent" points="-4,4 -4,-180 384,-180 384,4 -4,4"/>
<!-- Node1 -->
<g id="node1" class="node">
<title>Node1</title>
<g id="a_node1"><a xlink:title=" ">
<polygon fill="#bfbfbf" stroke="black" points="219.5,-0.5 219.5,-30.5 331.5,-30.5 331.5,-0.5 219.5,-0.5"/>
<text text-anchor="start" x="227.5" y="-18.5" font-family="Helvetica,sans-Serif" font-size="10.00">Catch::BinaryExpr&lt;</text>
<text text-anchor="middle" x="275.5" y="-7.5" font-family="Helvetica,sans-Serif" font-size="10.00"> LhsT, RhsT &gt;</text>
</a>
</g>
</g>
<!-- Node2 -->
<g id="node2" class="node">
<title>Node2</title>
<g id="a_node2"><a xlink:href="structCatch_1_1ITransientExpression.html" target="_top" xlink:title=" ">
<polygon fill="white" stroke="black" points="0,-78.5 0,-97.5 151,-97.5 151,-78.5 0,-78.5"/>
<text text-anchor="middle" x="75.5" y="-85.5" font-family="Helvetica,sans-Serif" font-size="10.00">Catch::ITransientExpression</text>
</a>
</g>
</g>
<!-- Node2&#45;&gt;Node1 -->
<g id="edge1" class="edge">
<title>Node2&#45;&gt;Node1</title>
<path fill="none" stroke="midnightblue" d="M109.37,-75.06C144.32,-62.74 198.8,-43.54 235.77,-30.51"/>
<polygon fill="midnightblue" stroke="midnightblue" points="107.89,-71.87 99.62,-78.5 110.22,-78.47 107.89,-71.87"/>
</g>
<!-- Node3 -->
<g id="node3" class="node">
<title>Node3</title>
<g id="a_node3"><a xlink:href="classbool.html" target="_top" xlink:title=" ">
<polygon fill="white" stroke="black" points="56.5,-156.5 56.5,-175.5 94.5,-175.5 94.5,-156.5 56.5,-156.5"/>
<text text-anchor="middle" x="75.5" y="-163.5" font-family="Helvetica,sans-Serif" font-size="10.00">bool</text>
</a>
</g>
</g>
<!-- Node3&#45;&gt;Node2 -->
<g id="edge2" class="edge">
<title>Node3&#45;&gt;Node2</title>
<path fill="none" stroke="#9a32cd" stroke-dasharray="5,2" d="M75.5,-146.22C75.5,-130.7 75.5,-109.36 75.5,-97.62"/>
<polygon fill="#9a32cd" stroke="#9a32cd" points="72,-146.28 75.5,-156.28 79,-146.28 72,-146.28"/>
<text text-anchor="middle" x="130" y="-130" font-family="Helvetica,sans-Serif" font-size="10.00"> m_result</text>
<text text-anchor="middle" x="130" y="-119" font-family="Helvetica,sans-Serif" font-size="10.00">m_isBinaryExpression</text>
</g>
<!-- Node4 -->
<g id="node4" class="node">
<title>Node4</title>
<g id="a_node4"><a xlink:href="classCatch_1_1StringRef.html" target="_top" xlink:title=" ">
<polygon fill="white" stroke="black" points="169,-78.5 169,-97.5 264,-97.5 264,-78.5 169,-78.5"/>
<text text-anchor="middle" x="216.5" y="-85.5" font-family="Helvetica,sans-Serif" font-size="10.00">Catch::StringRef</text>
</a>
</g>
</g>
<!-- Node4&#45;&gt;Node1 -->
<g id="edge3" class="edge">
<title>Node4&#45;&gt;Node1</title>
<path fill="none" stroke="#9a32cd" stroke-dasharray="5,2" d="M230.4,-70.39C240.53,-58.28 254.12,-42.05 263.72,-30.58"/>
<polygon fill="#9a32cd" stroke="#9a32cd" points="227.47,-68.44 223.73,-78.36 232.84,-72.93 227.47,-68.44"/>
<text text-anchor="middle" x="263" y="-52" font-family="Helvetica,sans-Serif" font-size="10.00"> m_op</text>
</g>
<!-- Node5 -->
<g id="node5" class="node">
<title>Node5</title>
<g id="a_node5"><a xlink:title=" ">
<polygon fill="white" stroke="#bfbfbf" points="192.5,-156.5 192.5,-175.5 230.5,-175.5 230.5,-156.5 192.5,-156.5"/>
<text text-anchor="middle" x="211.5" y="-163.5" font-family="Helvetica,sans-Serif" font-size="10.00">char</text>
</a>
</g>
</g>
<!-- Node5&#45;&gt;Node4 -->
<g id="edge4" class="edge">
<title>Node5&#45;&gt;Node4</title>
<path fill="none" stroke="#9a32cd" stroke-dasharray="5,2" d="M211.33,-146.06C211.39,-136.95 211.67,-125.9 212.5,-116 213.01,-109.96 214.01,-103.21 214.88,-97.97"/>
<polygon fill="#9a32cd" stroke="#9a32cd" points="207.83,-146.31 211.35,-156.31 214.83,-146.3 207.83,-146.31"/>
<text text-anchor="middle" x="234" y="-130" font-family="Helvetica,sans-Serif" font-size="10.00"> m_start</text>
<text text-anchor="middle" x="234" y="-119" font-family="Helvetica,sans-Serif" font-size="10.00">s_empty</text>
</g>
<!-- Node6 -->
<g id="node6" class="node">
<title>Node6</title>
<g id="a_node6"><a xlink:title=" ">
<polygon fill="white" stroke="#bfbfbf" points="255,-156.5 255,-175.5 300,-175.5 300,-156.5 255,-156.5"/>
<text text-anchor="middle" x="277.5" y="-163.5" font-family="Helvetica,sans-Serif" font-size="10.00">size_t</text>
</a>
</g>
</g>
<!-- Node6&#45;&gt;Node4 -->
<g id="edge5" class="edge">
<title>Node6&#45;&gt;Node4</title>
<path fill="none" stroke="#9a32cd" stroke-dasharray="5,2" d="M271.95,-146.64C268.36,-136.83 262.94,-124.95 255.5,-116 249.29,-108.53 240.52,-102.21 232.86,-97.56"/>
<polygon fill="#9a32cd" stroke="#9a32cd" points="268.67,-147.87 275.15,-156.25 275.32,-145.66 268.67,-147.87"/>
<text text-anchor="middle" x="286.5" y="-124.5" font-family="Helvetica,sans-Serif" font-size="10.00"> m_size</text>
</g>
<!-- Node7 -->
<g id="node7" class="node">
<title>Node7</title>
<g id="a_node7"><a xlink:title=" ">
<polygon fill="white" stroke="#bfbfbf" points="282,-78.5 282,-97.5 323,-97.5 323,-78.5 282,-78.5"/>
<text text-anchor="middle" x="302.5" y="-85.5" font-family="Helvetica,sans-Serif" font-size="10.00">RhsT</text>
</a>
</g>
</g>
<!-- Node7&#45;&gt;Node1 -->
<g id="edge6" class="edge">
<title>Node7&#45;&gt;Node1</title>
<path fill="none" stroke="#9a32cd" stroke-dasharray="5,2" d="M295.59,-68.96C291.02,-57.03 285.11,-41.61 280.89,-30.58"/>
<polygon fill="#9a32cd" stroke="#9a32cd" points="292.34,-70.27 299.19,-78.36 298.88,-67.76 292.34,-70.27"/>
<text text-anchor="middle" x="307.5" y="-52" font-family="Helvetica,sans-Serif" font-size="10.00"> m_rhs</text>
</g>
<!-- Node8 -->
<g id="node8" class="node">
<title>Node8</title>
<g id="a_node8"><a xlink:title=" ">
<polygon fill="white" stroke="#bfbfbf" points="341,-78.5 341,-97.5 380,-97.5 380,-78.5 341,-78.5"/>
<text text-anchor="middle" x="360.5" y="-85.5" font-family="Helvetica,sans-Serif" font-size="10.00">LhsT</text>
</a>
</g>
</g>
<!-- Node8&#45;&gt;Node1 -->
<g id="edge7" class="edge">
<title>Node8&#45;&gt;Node1</title>
<path fill="none" stroke="#9a32cd" stroke-dasharray="5,2" d="M348.33,-70.26C342.75,-63.23 335.76,-55.25 328.5,-49 320.56,-42.17 311.03,-35.85 302.25,-30.64"/>
<polygon fill="#9a32cd" stroke="#9a32cd" points="345.73,-72.62 354.56,-78.46 351.3,-68.39 345.73,-72.62"/>
<text text-anchor="middle" x="355" y="-52" font-family="Helvetica,sans-Serif" font-size="10.00"> m_lhs</text>
</g>
</g>
</svg>
