<?xml version="1.0" encoding="UTF-8" standalone="no"?>
<!DOCTYPE svg PUBLIC "-//W3C//DTD SVG 1.1//EN"
 "http://www.w3.org/Graphics/SVG/1.1/DTD/svg11.dtd">
<!-- Generated by graphviz version 2.43.0 (0)
 -->
<!-- Title: Player Pages: 1 -->
<!--zoomable 1066 -->
<svg id="main" version="1.1" xmlns="http://www.w3.org/2000/svg" xmlns:xlink="http://www.w3.org/1999/xlink" xml:space="preserve" onload="init(evt)">
<style type="text/css"><![CDATA[
.edge:hover path { stroke: red; }
.edge:hover polygon { stroke: red; fill: red; }
]]></style>
<script type="text/javascript"><![CDATA[
var edges = document.getElementsByTagName('g');
if (edges && edges.length) {
  for (var i=0;i<edges.length;i++) {
    if (edges[i].id.substr(0,4)=='edge') {
      edges[i].setAttribute('class','edge');
    }
  }
}
]]></script>
        <defs>
                <circle id="rim" cx="0" cy="0" r="7"/>
                <circle id="rim2" cx="0" cy="0" r="3.5"/>
                <g id="zoomPlus">
                        <use xlink:href="#rim" fill="#404040">
                                <set attributeName="fill" to="#808080" begin="zoomplus.mouseover" end="zoomplus.mouseout"/>
                        </use>
                        <path d="M-4,0h8M0,-4v8" fill="none" stroke="white" stroke-width="1.5" pointer-events="none"/>
                </g>
                <g id="zoomMin">
                        <use xlink:href="#rim" fill="#404040">
                                <set attributeName="fill" to="#808080" begin="zoomminus.mouseover" end="zoomminus.mouseout"/>
                        </use>
                        <path d="M-4,0h8" fill="none" stroke="white" stroke-width="1.5" pointer-events="none"/>
                </g>
                <g id="dirArrow">
                        <path fill="none" stroke="white" stroke-width="1.5" d="M0,-3.0v7 M-2.5,-0.5L0,-3.0L2.5,-0.5"/>
                </g>
               <g id="resetDef">
                       <use xlink:href="#rim2" fill="#404040">
                               <set attributeName="fill" to="#808080" begin="reset.mouseover" end="reset.mouseout"/>
                       </use>
               </g>
        </defs>

<script type="text/javascript">
var viewWidth = 721;
var viewHeight = 1066;
var sectionId = 'dynsection-1';
</script>
<script xlink:href="svgpan.js"/>
<svg id="graph" class="graph">
<g id="viewport">
<title>Player</title>
<polygon fill="white" stroke="transparent" points="-4,4 -4,-1061.98 717,-1061.98 717,4 -4,4"/>
<!-- Node1 -->
<g id="node1" class="node">
<title>Node1</title>
<g id="a_node1"><a xlink:title=" ">
<polygon fill="#bfbfbf" stroke="black" points="666,-370.48 666,-389.48 713,-389.48 713,-370.48 666,-370.48"/>
<text text-anchor="middle" x="689.5" y="-377.48" font-family="Helvetica,sans-Serif" font-size="10.00">Player</text>
</a>
</g>
</g>
<!-- Node2 -->
<g id="node2" class="node">
<title>Node2</title>
<g id="a_node2"><a xlink:title=" ">
<polygon fill="white" stroke="#bfbfbf" points="435.5,-1025.48 435.5,-1044.48 470.5,-1044.48 470.5,-1025.48 435.5,-1025.48"/>
<text text-anchor="middle" x="453" y="-1032.48" font-family="Helvetica,sans-Serif" font-size="10.00">u16</text>
</a>
</g>
</g>
<!-- Node2&#45;&gt;Node1 -->
<g id="edge1" class="edge">
<title>Node2&#45;&gt;Node1</title>
<path fill="none" stroke="#9a32cd" stroke-dasharray="5,2" d="M480.35,-1040.97C522.53,-1048.83 604.86,-1056.74 648,-1010.98 692.52,-963.76 689.35,-465.26 688.61,-389.59"/>
<polygon fill="#9a32cd" stroke="#9a32cd" points="481.03,-1037.54 470.54,-1039.01 479.66,-1044.41 481.03,-1037.54"/>
<text text-anchor="middle" x="594" y="-1049.98" font-family="Helvetica,sans-Serif" font-size="10.00"> m_wield_index</text>
</g>
<!-- Node3 -->
<g id="node3" class="node">
<title>Node3</title>
<g id="a_node3"><a xlink:href="structPlayerSettings.html" target="_top" xlink:title=" ">
<polygon fill="white" stroke="black" points="409.5,-581.48 409.5,-600.48 496.5,-600.48 496.5,-581.48 409.5,-581.48"/>
<text text-anchor="middle" x="453" y="-588.48" font-family="Helvetica,sans-Serif" font-size="10.00">PlayerSettings</text>
</a>
</g>
</g>
<!-- Node3&#45;&gt;Node1 -->
<g id="edge2" class="edge">
<title>Node3&#45;&gt;Node1</title>
<path fill="none" stroke="#9a32cd" stroke-dasharray="5,2" d="M501.4,-577.76C508.6,-574.77 515.71,-571.21 522,-566.98 598.87,-515.37 663.09,-420.19 682.49,-389.67"/>
<polygon fill="#9a32cd" stroke="#9a32cd" points="499.71,-574.66 491.6,-581.48 502.19,-581.2 499.71,-574.66"/>
<text text-anchor="middle" x="594" y="-552.98" font-family="Helvetica,sans-Serif" font-size="10.00"> m_player_settings</text>
</g>
<!-- Node4 -->
<g id="node4" class="node">
<title>Node4</title>
<g id="a_node4"><a xlink:href="classbool.html" target="_top" xlink:title=" ">
<polygon fill="white" stroke="black" points="127,-656.48 127,-675.48 165,-675.48 165,-656.48 127,-656.48"/>
<text text-anchor="middle" x="146" y="-663.48" font-family="Helvetica,sans-Serif" font-size="10.00">bool</text>
</a>
</g>
</g>
<!-- Node4&#45;&gt;Node3 -->
<g id="edge3" class="edge">
<title>Node4&#45;&gt;Node3</title>
<path fill="none" stroke="#9a32cd" stroke-dasharray="5,2" d="M174.08,-653.81C189.17,-645.6 206.9,-633.27 217,-616.98 245.19,-571.53 194.45,-532.87 235,-497.98 279.14,-460.02 319.93,-462.39 366,-497.98 391.08,-517.36 362.55,-543.65 384,-566.98 390.78,-574.36 399.96,-579.47 409.38,-583.01"/>
<polygon fill="#9a32cd" stroke="#9a32cd" points="172.43,-650.73 165.12,-658.4 175.61,-656.96 172.43,-650.73"/>
<text text-anchor="middle" x="300.5" y="-577.98" font-family="Helvetica,sans-Serif" font-size="10.00"> noclip</text>
<text text-anchor="middle" x="300.5" y="-566.98" font-family="Helvetica,sans-Serif" font-size="10.00">aux1_descends</text>
<text text-anchor="middle" x="300.5" y="-555.98" font-family="Helvetica,sans-Serif" font-size="10.00">continuous_forward</text>
<text text-anchor="middle" x="300.5" y="-544.98" font-family="Helvetica,sans-Serif" font-size="10.00">autojump</text>
<text text-anchor="middle" x="300.5" y="-533.98" font-family="Helvetica,sans-Serif" font-size="10.00">always_fly_fast</text>
<text text-anchor="middle" x="300.5" y="-522.98" font-family="Helvetica,sans-Serif" font-size="10.00">fast_move</text>
<text text-anchor="middle" x="300.5" y="-511.98" font-family="Helvetica,sans-Serif" font-size="10.00">free_move</text>
<text text-anchor="middle" x="300.5" y="-500.98" font-family="Helvetica,sans-Serif" font-size="10.00">pitch_move</text>
</g>
<!-- Node14 -->
<g id="node14" class="node">
<title>Node14</title>
<g id="a_node14"><a xlink:href="classInventory.html" target="_top" xlink:title=" ">
<polygon fill="white" stroke="black" points="421.5,-987.48 421.5,-1006.48 484.5,-1006.48 484.5,-987.48 421.5,-987.48"/>
<text text-anchor="middle" x="453" y="-994.48" font-family="Helvetica,sans-Serif" font-size="10.00">Inventory</text>
</a>
</g>
</g>
<!-- Node4&#45;&gt;Node14 -->
<g id="edge15" class="edge">
<title>Node4&#45;&gt;Node14</title>
<path fill="none" stroke="#9a32cd" stroke-dasharray="5,2" d="M154.19,-685.39C167.02,-720.13 194.62,-795.26 217,-858.98 225.24,-882.46 217.96,-893.86 235,-911.98 261.34,-939.98 368.11,-973.24 421.42,-988.53"/>
<polygon fill="#9a32cd" stroke="#9a32cd" points="157.32,-683.76 150.57,-675.6 150.75,-686.19 157.32,-683.76"/>
<text text-anchor="middle" x="300.5" y="-972.98" font-family="Helvetica,sans-Serif" font-size="10.00"> m_dirty</text>
</g>
<!-- Node17 -->
<g id="node17" class="node">
<title>Node17</title>
<g id="a_node17"><a xlink:href="structPlayerControl.html" target="_top" xlink:title=" ">
<polygon fill="white" stroke="black" points="411.5,-657.48 411.5,-676.48 494.5,-676.48 494.5,-657.48 411.5,-657.48"/>
<text text-anchor="middle" x="453" y="-664.48" font-family="Helvetica,sans-Serif" font-size="10.00">PlayerControl</text>
</a>
</g>
</g>
<!-- Node4&#45;&gt;Node17 -->
<g id="edge21" class="edge">
<title>Node4&#45;&gt;Node17</title>
<path fill="none" stroke="#9a32cd" stroke-dasharray="5,2" d="M175.45,-666.08C229.84,-666.26 348.74,-666.65 411.44,-666.85"/>
<polygon fill="#9a32cd" stroke="#9a32cd" points="175.18,-662.58 165.17,-666.04 175.15,-669.58 175.18,-662.58"/>
<text text-anchor="middle" x="300.5" y="-723.98" font-family="Helvetica,sans-Serif" font-size="10.00"> aux1</text>
<text text-anchor="middle" x="300.5" y="-712.98" font-family="Helvetica,sans-Serif" font-size="10.00">place</text>
<text text-anchor="middle" x="300.5" y="-701.98" font-family="Helvetica,sans-Serif" font-size="10.00">zoom</text>
<text text-anchor="middle" x="300.5" y="-690.98" font-family="Helvetica,sans-Serif" font-size="10.00">dig</text>
<text text-anchor="middle" x="300.5" y="-679.98" font-family="Helvetica,sans-Serif" font-size="10.00">sneak</text>
<text text-anchor="middle" x="300.5" y="-668.98" font-family="Helvetica,sans-Serif" font-size="10.00">jump</text>
</g>
<!-- Node19 -->
<g id="node19" class="node">
<title>Node19</title>
<g id="a_node19"><a xlink:href="structPlayerFovSpec.html" target="_top" xlink:title=" ">
<polygon fill="white" stroke="black" points="409,-619.48 409,-638.48 497,-638.48 497,-619.48 409,-619.48"/>
<text text-anchor="middle" x="453" y="-626.48" font-family="Helvetica,sans-Serif" font-size="10.00">PlayerFovSpec</text>
</a>
</g>
</g>
<!-- Node4&#45;&gt;Node19 -->
<g id="edge24" class="edge">
<title>Node4&#45;&gt;Node19</title>
<path fill="none" stroke="#9a32cd" stroke-dasharray="5,2" d="M175.13,-660.69C192.36,-657.57 214.91,-653.71 235,-650.98 295.04,-642.83 364.79,-636.28 408.67,-632.51"/>
<polygon fill="#9a32cd" stroke="#9a32cd" points="174.35,-657.27 165.15,-662.52 175.61,-664.16 174.35,-657.27"/>
<text text-anchor="middle" x="300.5" y="-653.98" font-family="Helvetica,sans-Serif" font-size="10.00"> is_multiplier</text>
</g>
<!-- Node23 -->
<g id="node23" class="node">
<title>Node23</title>
<g id="a_node23"><a xlink:href="structPlayerPhysicsOverride.html" target="_top" xlink:title=" ">
<polygon fill="white" stroke="black" points="390,-745.48 390,-764.48 516,-764.48 516,-745.48 390,-745.48"/>
<text text-anchor="middle" x="453" y="-752.48" font-family="Helvetica,sans-Serif" font-size="10.00">PlayerPhysicsOverride</text>
</a>
</g>
</g>
<!-- Node4&#45;&gt;Node23 -->
<g id="edge31" class="edge">
<title>Node4&#45;&gt;Node23</title>
<path fill="none" stroke="#9a32cd" stroke-dasharray="5,2" d="M163.37,-682.99C179.83,-698.9 206.76,-721.84 235,-732.98 262.25,-743.74 335.85,-749.53 389.81,-752.43"/>
<polygon fill="#9a32cd" stroke="#9a32cd" points="165.73,-680.4 156.17,-675.82 160.79,-685.36 165.73,-680.4"/>
<text text-anchor="middle" x="300.5" y="-774.98" font-family="Helvetica,sans-Serif" font-size="10.00"> sneak_glitch</text>
<text text-anchor="middle" x="300.5" y="-763.98" font-family="Helvetica,sans-Serif" font-size="10.00">sneak</text>
<text text-anchor="middle" x="300.5" y="-752.98" font-family="Helvetica,sans-Serif" font-size="10.00">new_move</text>
</g>
<!-- Node5 -->
<g id="node5" class="node">
<title>Node5</title>
<g id="a_node5"><a xlink:title=" ">
<polygon fill="white" stroke="#bfbfbf" points="124,-362.48 124,-381.48 168,-381.48 168,-362.48 124,-362.48"/>
<text text-anchor="middle" x="146" y="-369.48" font-family="Helvetica,sans-Serif" font-size="10.00">string</text>
</a>
</g>
</g>
<!-- Node5&#45;&gt;Node1 -->
<g id="edge22" class="edge">
<title>Node5&#45;&gt;Node1</title>
<path fill="none" stroke="#9a32cd" stroke-dasharray="5,2" d="M178.63,-368.41C195.36,-366.7 216.27,-364.83 235,-363.98 362.43,-358.2 394.59,-358.85 522,-364.98 573.6,-367.47 633.94,-373.75 665.92,-377.35"/>
<polygon fill="#9a32cd" stroke="#9a32cd" points="177.88,-364.97 168.3,-369.5 178.61,-371.93 177.88,-364.97"/>
<text text-anchor="middle" x="453" y="-378.98" font-family="Helvetica,sans-Serif" font-size="10.00"> inventory_formspec</text>
<text text-anchor="middle" x="453" y="-367.98" font-family="Helvetica,sans-Serif" font-size="10.00">formspec_prepend</text>
</g>
<!-- Node5&#45;&gt;Node3 -->
<g id="edge4" class="edge">
<title>Node5&#45;&gt;Node3</title>
<path fill="none" stroke="#9a32cd" stroke-dasharray="5,2" d="M178.31,-366.81C226.26,-360.87 317.43,-357.72 366,-408.98 414.61,-460.29 339.97,-511.7 384,-566.98 390.39,-575.02 399.67,-580.36 409.32,-583.92"/>
<polygon fill="#9a32cd" stroke="#9a32cd" points="177.65,-363.37 168.21,-368.19 178.59,-370.31 177.65,-363.37"/>
<text text-anchor="middle" x="300.5" y="-411.98" font-family="Helvetica,sans-Serif" font-size="10.00"> setting_names</text>
</g>
<!-- Node6 -->
<g id="node6" class="node">
<title>Node6</title>
<g id="a_node6"><a xlink:href="classirr_1_1core_1_1vector2d.html" target="_top" xlink:title=" ">
<polygon fill="white" stroke="black" points="401.5,-236.98 401.5,-266.98 504.5,-266.98 504.5,-236.98 401.5,-236.98"/>
<text text-anchor="start" x="409.5" y="-254.98" font-family="Helvetica,sans-Serif" font-size="10.00">irr::core::vector2d</text>
<text text-anchor="middle" x="453" y="-243.98" font-family="Helvetica,sans-Serif" font-size="10.00">&lt; s32 &gt;</text>
</a>
</g>
</g>
<!-- Node6&#45;&gt;Node1 -->
<g id="edge5" class="edge">
<title>Node6&#45;&gt;Node1</title>
<path fill="none" stroke="#9a32cd" stroke-dasharray="5,2" d="M514.75,-245.51C556.39,-244.36 610.64,-249.76 648,-278.98 677.46,-302.03 685.58,-349.85 687.74,-370.33"/>
<polygon fill="#9a32cd" stroke="#9a32cd" points="514.58,-242.01 504.73,-245.92 514.86,-249.01 514.58,-242.01"/>
<text text-anchor="middle" x="594" y="-281.98" font-family="Helvetica,sans-Serif" font-size="10.00"> local_animations</text>
</g>
<!-- Node7 -->
<g id="node7" class="node">
<title>Node7</title>
<g id="a_node7"><a xlink:title=" ">
<polygon fill="white" stroke="#bfbfbf" points="129,-279.48 129,-298.48 163,-298.48 163,-279.48 129,-279.48"/>
<text text-anchor="middle" x="146" y="-286.48" font-family="Helvetica,sans-Serif" font-size="10.00">s32</text>
</a>
</g>
</g>
<!-- Node7&#45;&gt;Node1 -->
<g id="edge26" class="edge">
<title>Node7&#45;&gt;Node1</title>
<path fill="none" stroke="#9a32cd" stroke-dasharray="5,2" d="M173.39,-290.29C248.82,-294.56 471.34,-310.91 648,-361.98 655.39,-364.12 663.19,-367.34 669.95,-370.46"/>
<polygon fill="#9a32cd" stroke="#9a32cd" points="173.52,-286.79 163.35,-289.75 173.14,-293.78 173.52,-286.79"/>
<text text-anchor="middle" x="453" y="-333.98" font-family="Helvetica,sans-Serif" font-size="10.00"> hud_hotbar_itemcount</text>
</g>
<!-- Node7&#45;&gt;Node6 -->
<g id="edge6" class="edge">
<title>Node7&#45;&gt;Node6</title>
<path fill="none" stroke="#9a32cd" stroke-dasharray="5,2" d="M173.04,-281.61C190.44,-276.97 213.92,-271.26 235,-267.98 291.55,-259.21 357.17,-255.22 401.31,-253.42"/>
<polygon fill="#9a32cd" stroke="#9a32cd" points="171.79,-278.32 163.06,-284.33 173.63,-285.07 171.79,-278.32"/>
<text text-anchor="middle" x="300.5" y="-281.98" font-family="Helvetica,sans-Serif" font-size="10.00"> X</text>
<text text-anchor="middle" x="300.5" y="-270.98" font-family="Helvetica,sans-Serif" font-size="10.00">Y</text>
</g>
<!-- Node8 -->
<g id="node8" class="node">
<title>Node8</title>
<g id="a_node8"><a xlink:href="classirr_1_1core_1_1vector2d.html" target="_top" xlink:title="2d vector template class with lots of operators and methods.">
<polygon fill="white" stroke="black" points="80.5,-224.48 80.5,-243.48 211.5,-243.48 211.5,-224.48 80.5,-224.48"/>
<text text-anchor="middle" x="146" y="-231.48" font-family="Helvetica,sans-Serif" font-size="10.00">irr::core::vector2d&lt; T &gt;</text>
</a>
</g>
</g>
<!-- Node8&#45;&gt;Node6 -->
<g id="edge7" class="edge">
<title>Node8&#45;&gt;Node6</title>
<path fill="none" stroke="orange" stroke-dasharray="5,2" d="M222.1,-230.17C264.46,-228.97 318.31,-229.05 366,-233.98 377.53,-235.18 389.8,-237.25 401.34,-239.57"/>
<polygon fill="orange" stroke="orange" points="221.75,-226.68 211.86,-230.49 221.97,-233.68 221.75,-226.68"/>
<text text-anchor="middle" x="300.5" y="-236.98" font-family="Helvetica,sans-Serif" font-size="10.00"> &lt; s32 &gt;</text>
</g>
<!-- Node9 -->
<g id="node9" class="node">
<title>Node9</title>
<g id="a_node9"><a xlink:title=" ">
<polygon fill="white" stroke="#bfbfbf" points="0,-197.48 0,-216.48 29,-216.48 29,-197.48 0,-197.48"/>
<text text-anchor="middle" x="14.5" y="-204.48" font-family="Helvetica,sans-Serif" font-size="10.00">T</text>
</a>
</g>
</g>
<!-- Node9&#45;&gt;Node8 -->
<g id="edge8" class="edge">
<title>Node9&#45;&gt;Node8</title>
<path fill="none" stroke="#9a32cd" stroke-dasharray="5,2" d="M39.41,-211.97C56.2,-215.47 79.18,-220.26 99.42,-224.48"/>
<polygon fill="#9a32cd" stroke="#9a32cd" points="39.86,-208.49 29.36,-209.87 38.43,-215.34 39.86,-208.49"/>
<text text-anchor="middle" x="52" y="-227.98" font-family="Helvetica,sans-Serif" font-size="10.00"> X</text>
<text text-anchor="middle" x="52" y="-216.98" font-family="Helvetica,sans-Serif" font-size="10.00">Y</text>
</g>
<!-- Node12 -->
<g id="node12" class="node">
<title>Node12</title>
<g id="a_node12"><a xlink:href="classirr_1_1core_1_1vector3d.html" target="_top" xlink:title="3d vector template class with lots of operators and methods.">
<polygon fill="white" stroke="black" points="235,-171.48 235,-190.48 366,-190.48 366,-171.48 235,-171.48"/>
<text text-anchor="middle" x="300.5" y="-178.48" font-family="Helvetica,sans-Serif" font-size="10.00">irr::core::vector3d&lt; T &gt;</text>
</a>
</g>
</g>
<!-- Node9&#45;&gt;Node12 -->
<g id="edge12" class="edge">
<title>Node9&#45;&gt;Node12</title>
<path fill="none" stroke="#9a32cd" stroke-dasharray="5,2" d="M29.17,-189.6C34.18,-184.55 40.28,-179.67 47,-176.98 51.13,-175.33 52.56,-176.95 57,-176.98 117.32,-177.48 186.06,-178.68 234.92,-179.63"/>
<polygon fill="#9a32cd" stroke="#9a32cd" points="26.28,-187.59 22.28,-197.4 31.53,-192.23 26.28,-187.59"/>
<text text-anchor="middle" x="52" y="-201.98" font-family="Helvetica,sans-Serif" font-size="10.00"> X</text>
<text text-anchor="middle" x="52" y="-190.98" font-family="Helvetica,sans-Serif" font-size="10.00">Y</text>
<text text-anchor="middle" x="52" y="-179.98" font-family="Helvetica,sans-Serif" font-size="10.00">Z</text>
</g>
<!-- Node10 -->
<g id="node10" class="node">
<title>Node10</title>
<g id="a_node10"><a xlink:title=" ">
<polygon fill="white" stroke="#bfbfbf" points="434,-129.48 434,-148.48 472,-148.48 472,-129.48 434,-129.48"/>
<text text-anchor="middle" x="453" y="-136.48" font-family="Helvetica,sans-Serif" font-size="10.00">char</text>
</a>
</g>
</g>
<!-- Node10&#45;&gt;Node1 -->
<g id="edge9" class="edge">
<title>Node10&#45;&gt;Node1</title>
<path fill="none" stroke="#9a32cd" stroke-dasharray="5,2" d="M482.15,-132.68C524.1,-125.09 602.89,-118.11 648,-159.98 679.45,-189.18 686.78,-331.92 688.2,-370.41"/>
<polygon fill="#9a32cd" stroke="#9a32cd" points="481.23,-129.29 472.08,-134.64 482.57,-136.16 481.23,-129.29"/>
<text text-anchor="middle" x="594" y="-162.98" font-family="Helvetica,sans-Serif" font-size="10.00"> m_name</text>
</g>
<!-- Node11 -->
<g id="node11" class="node">
<title>Node11</title>
<g id="a_node11"><a xlink:title=" ">
<polygon fill="white" stroke="#bfbfbf" points="127,-868.48 127,-887.48 165,-887.48 165,-868.48 127,-868.48"/>
<text text-anchor="middle" x="146" y="-875.48" font-family="Helvetica,sans-Serif" font-size="10.00">float</text>
</a>
</g>
</g>
<!-- Node11&#45;&gt;Node1 -->
<g id="edge10" class="edge">
<title>Node11&#45;&gt;Node1</title>
<path fill="none" stroke="#9a32cd" stroke-dasharray="5,2" d="M162.3,-895.07C178.46,-911.73 205.64,-935.96 235,-945.98 290.1,-964.79 310.32,-962.99 366,-945.98 510.53,-901.84 569.96,-885.4 648,-755.98 686.82,-691.61 688.6,-441.53 688.54,-389.5"/>
<polygon fill="#9a32cd" stroke="#9a32cd" points="164.68,-892.5 155.29,-887.6 159.58,-897.29 164.68,-892.5"/>
<text text-anchor="middle" x="453" y="-942.98" font-family="Helvetica,sans-Serif" font-size="10.00"> local_animation_speed</text>
</g>
<!-- Node11&#45;&gt;Node17 -->
<g id="edge19" class="edge">
<title>Node11&#45;&gt;Node17</title>
<path fill="none" stroke="#9a32cd" stroke-dasharray="5,2" d="M162.84,-861.11C179.24,-844.74 206.45,-820.58 235,-807.98 288.95,-784.19 320.72,-824.76 366,-786.98 384.46,-771.59 371.26,-756.37 384,-735.98 399.25,-711.6 424.46,-689 439.53,-676.69"/>
<polygon fill="#9a32cd" stroke="#9a32cd" points="160.17,-858.83 155.69,-868.43 165.18,-863.72 160.17,-858.83"/>
<text text-anchor="middle" x="300.5" y="-843.98" font-family="Helvetica,sans-Serif" font-size="10.00"> movement_direction</text>
<text text-anchor="middle" x="300.5" y="-832.98" font-family="Helvetica,sans-Serif" font-size="10.00">yaw</text>
<text text-anchor="middle" x="300.5" y="-821.98" font-family="Helvetica,sans-Serif" font-size="10.00">movement_speed</text>
<text text-anchor="middle" x="300.5" y="-810.98" font-family="Helvetica,sans-Serif" font-size="10.00">pitch</text>
</g>
<!-- Node11&#45;&gt;Node23 -->
<g id="edge30" class="edge">
<title>Node11&#45;&gt;Node23</title>
<path fill="none" stroke="#9a32cd" stroke-dasharray="5,2" d="M175.24,-877.74C226.73,-876.87 333.53,-873 366,-855.98 406.59,-834.71 436.04,-785.48 447.15,-764.61"/>
<polygon fill="#9a32cd" stroke="#9a32cd" points="175.09,-874.24 165.14,-877.88 175.19,-881.24 175.09,-874.24"/>
<text text-anchor="middle" x="300.5" y="-899.98" font-family="Helvetica,sans-Serif" font-size="10.00"> speed</text>
<text text-anchor="middle" x="300.5" y="-888.98" font-family="Helvetica,sans-Serif" font-size="10.00">gravity</text>
<text text-anchor="middle" x="300.5" y="-877.98" font-family="Helvetica,sans-Serif" font-size="10.00">jump</text>
</g>
<!-- Node12&#45;&gt;Node1 -->
<g id="edge11" class="edge">
<title>Node12&#45;&gt;Node1</title>
<path fill="none" stroke="#9a32cd" stroke-dasharray="5,2" d="M375.16,-170.49C454.64,-163.75 579.04,-167.28 648,-240.98 683.38,-278.8 688.04,-345.76 688.52,-370.48"/>
<polygon fill="#9a32cd" stroke="#9a32cd" points="374.37,-167.05 364.74,-171.46 375.02,-174.02 374.37,-167.05"/>
<text text-anchor="middle" x="453" y="-200.98" font-family="Helvetica,sans-Serif" font-size="10.00"> m_speed</text>
<text text-anchor="middle" x="453" y="-189.98" font-family="Helvetica,sans-Serif" font-size="10.00">eye_offset_first</text>
<text text-anchor="middle" x="453" y="-178.98" font-family="Helvetica,sans-Serif" font-size="10.00">eye_offset_third</text>
</g>
<!-- Node13 -->
<g id="node13" class="node">
<title>Node13</title>
<g id="a_node13"><a xlink:title=" ">
<polygon fill="white" stroke="#bfbfbf" points="429,-91.48 429,-110.48 477,-110.48 477,-91.48 429,-91.48"/>
<text text-anchor="middle" x="453" y="-98.48" font-family="Helvetica,sans-Serif" font-size="10.00">mutex</text>
</a>
</g>
</g>
<!-- Node13&#45;&gt;Node1 -->
<g id="edge13" class="edge">
<title>Node13&#45;&gt;Node1</title>
<path fill="none" stroke="#9a32cd" stroke-dasharray="5,2" d="M487.13,-91.38C530.01,-81.18 604.37,-71.43 648,-110.98 687.28,-146.59 688.81,-326.62 688.6,-370.39"/>
<polygon fill="#9a32cd" stroke="#9a32cd" points="486.05,-88.04 477.21,-93.88 487.76,-94.83 486.05,-88.04"/>
<text text-anchor="middle" x="594" y="-113.98" font-family="Helvetica,sans-Serif" font-size="10.00"> m_mutex</text>
</g>
<!-- Node14&#45;&gt;Node1 -->
<g id="edge14" class="edge">
<title>Node14&#45;&gt;Node1</title>
<path fill="none" stroke="#9a32cd" stroke-dasharray="5,2" d="M495.03,-997.55C545.73,-997.3 627.78,-993.45 648,-971.98 689.58,-927.83 688.93,-463.93 688.56,-389.92"/>
<polygon fill="#9a32cd" stroke="#9a32cd" points="494.72,-994.05 484.73,-997.56 494.73,-1001.05 494.72,-994.05"/>
<text text-anchor="middle" x="594" y="-998.98" font-family="Helvetica,sans-Serif" font-size="10.00"> inventory</text>
</g>
<!-- Node15 -->
<g id="node15" class="node">
<title>Node15</title>
<g id="a_node15"><a xlink:title=" ">
<polygon fill="white" stroke="#bfbfbf" points="75,-986.48 75,-1005.48 217,-1005.48 217,-986.48 75,-986.48"/>
<text text-anchor="middle" x="146" y="-993.48" font-family="Helvetica,sans-Serif" font-size="10.00">vector&lt; InventoryList * &gt;</text>
</a>
</g>
</g>
<!-- Node15&#45;&gt;Node14 -->
<g id="edge16" class="edge">
<title>Node15&#45;&gt;Node14</title>
<path fill="none" stroke="#9a32cd" stroke-dasharray="5,2" d="M227.37,-996.25C291,-996.46 376.39,-996.74 421.35,-996.88"/>
<polygon fill="#9a32cd" stroke="#9a32cd" points="227.37,-992.75 217.36,-996.22 227.34,-999.75 227.37,-992.75"/>
<text text-anchor="middle" x="300.5" y="-998.98" font-family="Helvetica,sans-Serif" font-size="10.00"> m_lists</text>
</g>
<!-- Node16 -->
<g id="node16" class="node">
<title>Node16</title>
<g id="a_node16"><a xlink:href="classIItemDefManager.html" target="_top" xlink:title=" ">
<polygon fill="white" stroke="black" points="95,-1024.48 95,-1043.48 197,-1043.48 197,-1024.48 95,-1024.48"/>
<text text-anchor="middle" x="146" y="-1031.48" font-family="Helvetica,sans-Serif" font-size="10.00">IItemDefManager</text>
</a>
</g>
</g>
<!-- Node16&#45;&gt;Node14 -->
<g id="edge17" class="edge">
<title>Node16&#45;&gt;Node14</title>
<path fill="none" stroke="#9a32cd" stroke-dasharray="5,2" d="M207.08,-1028.6C251.15,-1024.43 312.39,-1018.16 366,-1010.98 384.44,-1008.52 405.02,-1005.19 421.41,-1002.4"/>
<polygon fill="#9a32cd" stroke="#9a32cd" points="206.74,-1025.12 197.11,-1029.54 207.39,-1032.09 206.74,-1025.12"/>
<text text-anchor="middle" x="300.5" y="-1027.98" font-family="Helvetica,sans-Serif" font-size="10.00"> m_itemdef</text>
</g>
<!-- Node17&#45;&gt;Node1 -->
<g id="edge18" class="edge">
<title>Node17&#45;&gt;Node1</title>
<path fill="none" stroke="#9a32cd" stroke-dasharray="5,2" d="M505.14,-670.01C549.34,-669.65 611.68,-661.47 648,-622.98 680.66,-588.38 687.14,-430.36 688.28,-389.6"/>
<polygon fill="#9a32cd" stroke="#9a32cd" points="504.9,-666.51 494.88,-669.96 504.87,-673.51 504.9,-666.51"/>
<text text-anchor="middle" x="594" y="-669.98" font-family="Helvetica,sans-Serif" font-size="10.00"> control</text>
</g>
<!-- Node18 -->
<g id="node18" class="node">
<title>Node18</title>
<g id="a_node18"><a xlink:title=" ">
<polygon fill="white" stroke="#bfbfbf" points="131.5,-588.48 131.5,-607.48 160.5,-607.48 160.5,-588.48 131.5,-588.48"/>
<text text-anchor="middle" x="146" y="-595.48" font-family="Helvetica,sans-Serif" font-size="10.00">u8</text>
</a>
</g>
</g>
<!-- Node18&#45;&gt;Node17 -->
<g id="edge20" class="edge">
<title>Node18&#45;&gt;Node17</title>
<path fill="none" stroke="#9a32cd" stroke-dasharray="5,2" d="M170.48,-594.33C212.91,-588.96 303.7,-583.32 366,-620.98 378.34,-628.45 372.33,-639.52 384,-647.98 392.04,-653.82 401.8,-657.86 411.38,-660.66"/>
<polygon fill="#9a32cd" stroke="#9a32cd" points="169.99,-590.86 160.56,-595.69 170.94,-597.8 169.99,-590.86"/>
<text text-anchor="middle" x="300.5" y="-623.98" font-family="Helvetica,sans-Serif" font-size="10.00"> direction_keys</text>
</g>
<!-- Node19&#45;&gt;Node1 -->
<g id="edge23" class="edge">
<title>Node19&#45;&gt;Node1</title>
<path fill="none" stroke="#9a32cd" stroke-dasharray="5,2" d="M507.18,-617.79C557.88,-606.04 629.22,-586.33 648,-564.98 671.57,-538.2 684.28,-423.9 687.61,-389.69"/>
<polygon fill="#9a32cd" stroke="#9a32cd" points="506.31,-614.4 497.33,-620.03 507.86,-621.22 506.31,-614.4"/>
<text text-anchor="middle" x="594" y="-610.98" font-family="Helvetica,sans-Serif" font-size="10.00"> m_fov_override_spec</text>
</g>
<!-- Node20 -->
<g id="node20" class="node">
<title>Node20</title>
<g id="a_node20"><a xlink:title=" ">
<polygon fill="white" stroke="#bfbfbf" points="130,-410.48 130,-429.48 162,-429.48 162,-410.48 130,-410.48"/>
<text text-anchor="middle" x="146" y="-417.48" font-family="Helvetica,sans-Serif" font-size="10.00">f32</text>
</a>
</g>
</g>
<!-- Node20&#45;&gt;Node1 -->
<g id="edge32" class="edge">
<title>Node20&#45;&gt;Node1</title>
<path fill="none" stroke="#9a32cd" stroke-dasharray="5,2" d="M172.32,-418.41C245.86,-413.77 465.77,-399.53 648,-383.98 653.77,-383.49 660,-382.9 665.8,-382.33"/>
<polygon fill="#9a32cd" stroke="#9a32cd" points="171.94,-414.92 162.18,-419.04 172.38,-421.91 171.94,-414.92"/>
<text text-anchor="middle" x="453" y="-548.98" font-family="Helvetica,sans-Serif" font-size="10.00"> movement_liquid_sink</text>
<text text-anchor="middle" x="453" y="-537.98" font-family="Helvetica,sans-Serif" font-size="10.00">movement_speed_jump</text>
<text text-anchor="middle" x="453" y="-526.98" font-family="Helvetica,sans-Serif" font-size="10.00">movement_gravity</text>
<text text-anchor="middle" x="453" y="-515.98" font-family="Helvetica,sans-Serif" font-size="10.00">movement_speed_climb</text>
<text text-anchor="middle" x="453" y="-504.98" font-family="Helvetica,sans-Serif" font-size="10.00">movement_speed_crouch</text>
<text text-anchor="start" x="390" y="-493.98" font-family="Helvetica,sans-Serif" font-size="10.00">movement_acceleration</text>
<text text-anchor="middle" x="453" y="-482.98" font-family="Helvetica,sans-Serif" font-size="10.00">_fast</text>
<text text-anchor="start" x="390" y="-471.98" font-family="Helvetica,sans-Serif" font-size="10.00">movement_acceleration</text>
<text text-anchor="middle" x="453" y="-460.98" font-family="Helvetica,sans-Serif" font-size="10.00">_default</text>
<text text-anchor="middle" x="453" y="-449.98" font-family="Helvetica,sans-Serif" font-size="10.00">movement_speed_fast</text>
<text text-anchor="start" x="390" y="-438.98" font-family="Helvetica,sans-Serif" font-size="10.00">movement_liquid_fluidity</text>
<text text-anchor="middle" x="453" y="-427.98" font-family="Helvetica,sans-Serif" font-size="10.00">_smooth</text>
<text text-anchor="middle" x="453" y="-416.98" font-family="Helvetica,sans-Serif" font-size="10.00">movement_speed_walk</text>
<text text-anchor="middle" x="453" y="-405.98" font-family="Helvetica,sans-Serif" font-size="10.00">...</text>
</g>
<!-- Node20&#45;&gt;Node19 -->
<g id="edge25" class="edge">
<title>Node20&#45;&gt;Node19</title>
<path fill="none" stroke="#9a32cd" stroke-dasharray="5,2" d="M172.51,-421.01C227.34,-423.47 352.53,-430.5 366,-443.98 392.22,-470.24 360.01,-581.68 384,-609.98 390.34,-617.46 399.36,-622.13 408.76,-625"/>
<polygon fill="#9a32cd" stroke="#9a32cd" points="172.38,-417.5 162.24,-420.57 172.08,-424.5 172.38,-417.5"/>
<text text-anchor="middle" x="300.5" y="-457.98" font-family="Helvetica,sans-Serif" font-size="10.00"> fov</text>
<text text-anchor="middle" x="300.5" y="-446.98" font-family="Helvetica,sans-Serif" font-size="10.00">transition_time</text>
</g>
<!-- Node21 -->
<g id="node21" class="node">
<title>Node21</title>
<g id="a_node21"><a xlink:title=" ">
<polygon fill="white" stroke="#bfbfbf" points="384,-53.48 384,-72.48 522,-72.48 522,-53.48 384,-53.48"/>
<text text-anchor="middle" x="453" y="-60.48" font-family="Helvetica,sans-Serif" font-size="10.00">vector&lt; HudElement * &gt;</text>
</a>
</g>
</g>
<!-- Node21&#45;&gt;Node1 -->
<g id="edge27" class="edge">
<title>Node21&#45;&gt;Node1</title>
<path fill="none" stroke="#9a32cd" stroke-dasharray="5,2" d="M492.06,-50.68C535.47,-39.28 605.87,-29.18 648,-66.98 671.24,-87.84 685.21,-319.82 687.99,-370.32"/>
<polygon fill="#9a32cd" stroke="#9a32cd" points="490.87,-47.38 482.17,-53.43 492.74,-54.13 490.87,-47.38"/>
<text text-anchor="middle" x="594" y="-69.98" font-family="Helvetica,sans-Serif" font-size="10.00"> hud</text>
</g>
<!-- Node22 -->
<g id="node22" class="node">
<title>Node22</title>
<g id="a_node22"><a xlink:title=" ">
<polygon fill="white" stroke="#bfbfbf" points="435.5,-15.48 435.5,-34.48 470.5,-34.48 470.5,-15.48 435.5,-15.48"/>
<text text-anchor="middle" x="453" y="-22.48" font-family="Helvetica,sans-Serif" font-size="10.00">u32</text>
</a>
</g>
</g>
<!-- Node22&#45;&gt;Node1 -->
<g id="edge28" class="edge">
<title>Node22&#45;&gt;Node1</title>
<path fill="none" stroke="#9a32cd" stroke-dasharray="5,2" d="M480.2,-15.44C521.5,-2.27 601.77,15.47 648,-25.98 674.42,-49.68 686.02,-315.39 688.14,-370.15"/>
<polygon fill="#9a32cd" stroke="#9a32cd" points="478.96,-12.16 470.59,-18.65 481.18,-18.8 478.96,-12.16"/>
<text text-anchor="middle" x="594" y="-28.98" font-family="Helvetica,sans-Serif" font-size="10.00"> hud_flags</text>
</g>
<!-- Node23&#45;&gt;Node1 -->
<g id="edge29" class="edge">
<title>Node23&#45;&gt;Node1</title>
<path fill="none" stroke="#9a32cd" stroke-dasharray="5,2" d="M526.15,-746.25C568.18,-737.25 618.54,-719 648,-681.98 685.22,-635.21 688.29,-435.66 688.5,-389.53"/>
<polygon fill="#9a32cd" stroke="#9a32cd" points="525.34,-742.84 516.22,-748.24 526.71,-749.7 525.34,-742.84"/>
<text text-anchor="middle" x="594" y="-743.98" font-family="Helvetica,sans-Serif" font-size="10.00"> physics_override</text>
</g>
</g>
</svg>
        <g id="navigator" transform="translate(0 0)" fill="#404254">
                <rect fill="#f2f5e9" fill-opacity="0.5" stroke="#606060" stroke-width=".5" x="0" y="0" width="60" height="60"/>
                <use id="zoomplus" xlink:href="#zoomPlus" x="17" y="9" onmousedown="handleZoom(evt,'in')"/>
                <use id="zoomminus" xlink:href="#zoomMin" x="42" y="9" onmousedown="handleZoom(evt,'out')"/>
                <use id="reset" xlink:href="#resetDef" x="30" y="36" onmousedown="handleReset()"/>
                <g id="arrowUp" xlink:href="#dirArrow" transform="translate(30 24)" onmousedown="handlePan(0,-1)">
                  <use xlink:href="#rim" fill="#404040">
                        <set attributeName="fill" to="#808080" begin="arrowUp.mouseover" end="arrowUp.mouseout"/>
                  </use>
                  <path fill="none" stroke="white" stroke-width="1.5" d="M0,-3.0v7 M-2.5,-0.5L0,-3.0L2.5,-0.5"/>
                </g>
                <g id="arrowRight" xlink:href="#dirArrow" transform="rotate(90) translate(36 -43)" onmousedown="handlePan(1,0)">
                  <use xlink:href="#rim" fill="#404040">
                        <set attributeName="fill" to="#808080" begin="arrowRight.mouseover" end="arrowRight.mouseout"/>
                  </use>
                  <path fill="none" stroke="white" stroke-width="1.5" d="M0,-3.0v7 M-2.5,-0.5L0,-3.0L2.5,-0.5"/>
                </g>
                <g id="arrowDown" xlink:href="#dirArrow" transform="rotate(180) translate(-30 -48)" onmousedown="handlePan(0,1)">
                  <use xlink:href="#rim" fill="#404040">
                        <set attributeName="fill" to="#808080" begin="arrowDown.mouseover" end="arrowDown.mouseout"/>
                  </use>
                  <path fill="none" stroke="white" stroke-width="1.5" d="M0,-3.0v7 M-2.5,-0.5L0,-3.0L2.5,-0.5"/>
                </g>
                <g id="arrowLeft" xlink:href="#dirArrow" transform="rotate(270) translate(-36 17)" onmousedown="handlePan(-1,0)">
                  <use xlink:href="#rim" fill="#404040">
                        <set attributeName="fill" to="#808080" begin="arrowLeft.mouseover" end="arrowLeft.mouseout"/>
                  </use>
                  <path fill="none" stroke="white" stroke-width="1.5" d="M0,-3.0v7 M-2.5,-0.5L0,-3.0L2.5,-0.5"/>
                </g>
        </g>
        <svg viewBox="0 0 15 15" width="100%" height="30px" preserveAspectRatio="xMaxYMin meet">
         <g id="arrow_out" transform="scale(0.3 0.3)">
          <a xlink:href="classPlayer__coll__graph_org.svg" target="_base">
           <rect id="button" ry="5" rx="5" y="6" x="6" height="38" width="38"
                fill="#f2f5e9" fill-opacity="0.5" stroke="#606060" stroke-width="1.0"/>
           <path id="arrow"
             d="M 11.500037,31.436501 C 11.940474,20.09759 22.043105,11.32322 32.158766,21.979434 L 37.068811,17.246167 C 37.068811,17.246167 37.088388,32 37.088388,32 L 22.160133,31.978069 C 22.160133,31.978069 26.997745,27.140456 26.997745,27.140456 C 18.528582,18.264221 13.291696,25.230495 11.500037,31.436501 z"
             style="fill:#404040;"/>
          </a>
         </g>
        </svg>
</svg>
