<?xml version="1.0" encoding="UTF-8" standalone="no"?>
<!DOCTYPE svg PUBLIC "-//W3C//DTD SVG 1.1//EN"
 "http://www.w3.org/Graphics/SVG/1.1/DTD/svg11.dtd">
<!-- Generated by graphviz version 2.43.0 (0)
 -->
<!-- Title: irr::video::IImageWriter Pages: 1 -->
<svg width="192pt" height="152pt"
 viewBox="0.00 0.00 192.00 152.00" xmlns="http://www.w3.org/2000/svg" xmlns:xlink="http://www.w3.org/1999/xlink">
<g id="graph0" class="graph" transform="scale(1 1) rotate(0) translate(4 148)">
<title>irr::video::IImageWriter</title>
<polygon fill="white" stroke="transparent" points="-4,4 -4,-148 188,-148 188,4 -4,4"/>
<!-- Node1 -->
<g id="node1" class="node">
<title>Node1</title>
<g id="a_node1"><a xlink:title="Interface for writing software image data.">
<polygon fill="#bfbfbf" stroke="black" points="0,-0.5 0,-19.5 130,-19.5 130,-0.5 0,-0.5"/>
<text text-anchor="middle" x="65" y="-7.5" font-family="Helvetica,sans-Serif" font-size="10.00">irr::video::IImageWriter</text>
</a>
</g>
</g>
<!-- Node2 -->
<g id="node2" class="node">
<title>Node2</title>
<g id="a_node2"><a xlink:href="classirr_1_1IReferenceCounted.html" target="_top" xlink:title="Base class of most objects of the Irrlicht Engine.">
<polygon fill="white" stroke="black" points="2,-57.5 2,-76.5 128,-76.5 128,-57.5 2,-57.5"/>
<text text-anchor="middle" x="65" y="-64.5" font-family="Helvetica,sans-Serif" font-size="10.00">irr::IReferenceCounted</text>
</a>
</g>
</g>
<!-- Node2&#45;&gt;Node1 -->
<g id="edge1" class="edge">
<title>Node2&#45;&gt;Node1</title>
<path fill="none" stroke="midnightblue" d="M65,-47.12C65,-37.82 65,-27.06 65,-19.71"/>
<polygon fill="midnightblue" stroke="midnightblue" points="61.5,-47.41 65,-57.41 68.5,-47.41 61.5,-47.41"/>
</g>
<!-- Node3 -->
<g id="node3" class="node">
<title>Node3</title>
<g id="a_node3"><a xlink:title=" ">
<polygon fill="white" stroke="#bfbfbf" points="3,-124.5 3,-143.5 41,-143.5 41,-124.5 3,-124.5"/>
<text text-anchor="middle" x="22" y="-131.5" font-family="Helvetica,sans-Serif" font-size="10.00">char</text>
</a>
</g>
</g>
<!-- Node3&#45;&gt;Node2 -->
<g id="edge2" class="edge">
<title>Node3&#45;&gt;Node2</title>
<path fill="none" stroke="#9a32cd" stroke-dasharray="5,2" d="M19.05,-114.26C18.9,-107.8 19.76,-100.75 23,-95 27.51,-86.99 35.48,-80.99 43.28,-76.7"/>
<polygon fill="#9a32cd" stroke="#9a32cd" points="15.57,-114.63 20.03,-124.24 22.54,-113.95 15.57,-114.63"/>
<text text-anchor="middle" x="55" y="-98" font-family="Helvetica,sans-Serif" font-size="10.00"> DebugName</text>
</g>
<!-- Node4 -->
<g id="node4" class="node">
<title>Node4</title>
<g id="a_node4"><a xlink:title=" ">
<polygon fill="white" stroke="#bfbfbf" points="84,-124.5 84,-143.5 134,-143.5 134,-124.5 84,-124.5"/>
<text text-anchor="middle" x="109" y="-131.5" font-family="Helvetica,sans-Serif" font-size="10.00">int32_t</text>
</a>
</g>
</g>
<!-- Node4&#45;&gt;Node2 -->
<g id="edge3" class="edge">
<title>Node4&#45;&gt;Node2</title>
<path fill="none" stroke="#9a32cd" stroke-dasharray="5,2" d="M99.65,-115.52C95.93,-108.94 91.48,-101.49 87,-95 82.6,-88.63 77.1,-81.88 72.7,-76.72"/>
<polygon fill="#9a32cd" stroke="#9a32cd" points="96.6,-117.23 104.48,-124.31 102.73,-113.86 96.6,-117.23"/>
<text text-anchor="middle" x="138.5" y="-98" font-family="Helvetica,sans-Serif" font-size="10.00"> ReferenceCounter</text>
</g>
</g>
</svg>
