<?xml version="1.0" encoding="UTF-8" standalone="no"?>
<!DOCTYPE svg PUBLIC "-//W3C//DTD SVG 1.1//EN"
 "http://www.w3.org/Graphics/SVG/1.1/DTD/svg11.dtd">
<!-- Generated by graphviz version 2.43.0 (0)
 -->
<!-- Title: net.minetest.minetest.UnzipService Pages: 1 -->
<svg width="689pt" height="139pt"
 viewBox="0.00 0.00 688.50 139.00" xmlns="http://www.w3.org/2000/svg" xmlns:xlink="http://www.w3.org/1999/xlink">
<g id="graph0" class="graph" transform="scale(1 1) rotate(0) translate(4 135)">
<title>net.minetest.minetest.UnzipService</title>
<polygon fill="white" stroke="transparent" points="-4,4 -4,-135 684.5,-135 684.5,4 -4,4"/>
<!-- Node1 -->
<g id="node1" class="node">
<title>Node1</title>
<g id="a_node1"><a xlink:title=" ">
<polygon fill="#bfbfbf" stroke="black" points="232.5,-0.5 232.5,-30.5 388.5,-30.5 388.5,-0.5 232.5,-0.5"/>
<text text-anchor="start" x="240.5" y="-18.5" font-family="Helvetica,sans-Serif" font-size="10.00">net.minetest.minetest.Unzip</text>
<text text-anchor="middle" x="310.5" y="-7.5" font-family="Helvetica,sans-Serif" font-size="10.00">Service</text>
</a>
</g>
</g>
<!-- Node2 -->
<g id="node2" class="node">
<title>Node2</title>
<g id="a_node2"><a xlink:title=" ">
<polygon fill="white" stroke="#bfbfbf" points="0,-111.5 0,-130.5 81,-130.5 81,-111.5 0,-111.5"/>
<text text-anchor="middle" x="40.5" y="-118.5" font-family="Helvetica,sans-Serif" font-size="10.00">IntentService</text>
</a>
</g>
</g>
<!-- Node2&#45;&gt;Node1 -->
<g id="edge1" class="edge">
<title>Node2&#45;&gt;Node1</title>
<path fill="none" stroke="midnightblue" d="M53.32,-103.02C66.85,-86.41 89.76,-61.8 115.5,-49 151.45,-31.12 195.27,-22.79 232.26,-19.02"/>
<polygon fill="midnightblue" stroke="midnightblue" points="50.23,-101.28 46.8,-111.3 55.74,-105.61 50.23,-101.28"/>
</g>
<!-- Node3 -->
<g id="node3" class="node">
<title>Node3</title>
<g id="a_node3"><a xlink:title=" ">
<polygon fill="white" stroke="#bfbfbf" points="99,-111.5 99,-130.5 144,-130.5 144,-111.5 99,-111.5"/>
<text text-anchor="middle" x="121.5" y="-118.5" font-family="Helvetica,sans-Serif" font-size="10.00">String</text>
</a>
</g>
</g>
<!-- Node3&#45;&gt;Node1 -->
<g id="edge2" class="edge">
<title>Node3&#45;&gt;Node1</title>
<path fill="none" stroke="#9a32cd" stroke-dasharray="5,2" d="M118.91,-100.87C117.89,-84.86 119.34,-62.52 132.5,-49 146.58,-34.54 191.37,-26.41 232.5,-21.89"/>
<polygon fill="#9a32cd" stroke="#9a32cd" points="115.46,-101.59 119.95,-111.19 122.43,-100.89 115.46,-101.59"/>
<text text-anchor="middle" x="172" y="-68.5" font-family="Helvetica,sans-Serif" font-size="10.00"> failureMessage</text>
</g>
<!-- Node4 -->
<g id="node4" class="node">
<title>Node4</title>
<g id="a_node4"><a xlink:title=" ">
<polygon fill="white" stroke="#bfbfbf" points="174,-111.5 174,-130.5 273,-130.5 273,-111.5 174,-111.5"/>
<text text-anchor="middle" x="223.5" y="-118.5" font-family="Helvetica,sans-Serif" font-size="10.00">static final String</text>
</a>
</g>
</g>
<!-- Node4&#45;&gt;Node1 -->
<g id="edge3" class="edge">
<title>Node4&#45;&gt;Node1</title>
<path fill="none" stroke="#9a32cd" stroke-dasharray="5,2" d="M218.39,-101.25C215.36,-85.82 213.9,-64.1 224.5,-49 230,-41.16 237.65,-35.21 246.13,-30.69"/>
<polygon fill="#9a32cd" stroke="#9a32cd" points="215.03,-102.26 220.73,-111.19 221.85,-100.65 215.03,-102.26"/>
<text text-anchor="middle" x="300.5" y="-85" font-family="Helvetica,sans-Serif" font-size="10.00"> ACTION_PROGRESS_MESSAGE</text>
<text text-anchor="middle" x="300.5" y="-74" font-family="Helvetica,sans-Serif" font-size="10.00">ACTION_PROGRESS</text>
<text text-anchor="middle" x="300.5" y="-63" font-family="Helvetica,sans-Serif" font-size="10.00">ACTION_FAILURE</text>
<text text-anchor="middle" x="300.5" y="-52" font-family="Helvetica,sans-Serif" font-size="10.00">ACTION_UPDATE</text>
</g>
<!-- Node5 -->
<g id="node5" class="node">
<title>Node5</title>
<g id="a_node5"><a xlink:title=" ">
<polygon fill="white" stroke="#bfbfbf" points="384,-111.5 384,-130.5 413,-130.5 413,-111.5 384,-111.5"/>
<text text-anchor="middle" x="398.5" y="-118.5" font-family="Helvetica,sans-Serif" font-size="10.00">int</text>
</a>
</g>
</g>
<!-- Node5&#45;&gt;Node1 -->
<g id="edge4" class="edge">
<title>Node5&#45;&gt;Node1</title>
<path fill="none" stroke="#9a32cd" stroke-dasharray="5,2" d="M396.76,-101.03C394.44,-85.47 389.04,-63.69 376.5,-49 369.95,-41.33 361.15,-35.3 352.13,-30.62"/>
<polygon fill="#9a32cd" stroke="#9a32cd" points="393.3,-101.56 397.96,-111.07 400.25,-100.73 393.3,-101.56"/>
<text text-anchor="middle" x="436.5" y="-85" font-family="Helvetica,sans-Serif" font-size="10.00"> INDETERMINATE</text>
<text text-anchor="middle" x="436.5" y="-74" font-family="Helvetica,sans-Serif" font-size="10.00">id</text>
<text text-anchor="middle" x="436.5" y="-63" font-family="Helvetica,sans-Serif" font-size="10.00">FAILURE</text>
<text text-anchor="middle" x="436.5" y="-52" font-family="Helvetica,sans-Serif" font-size="10.00">SUCCESS</text>
</g>
<!-- Node6 -->
<g id="node6" class="node">
<title>Node6</title>
<g id="a_node6"><a xlink:title=" ">
<polygon fill="white" stroke="#bfbfbf" points="477.5,-111.5 477.5,-130.5 533.5,-130.5 533.5,-111.5 477.5,-111.5"/>
<text text-anchor="middle" x="505.5" y="-118.5" font-family="Helvetica,sans-Serif" font-size="10.00">boolean</text>
</a>
</g>
</g>
<!-- Node6&#45;&gt;Node1 -->
<g id="edge5" class="edge">
<title>Node6&#45;&gt;Node1</title>
<path fill="none" stroke="#9a32cd" stroke-dasharray="5,2" d="M504.54,-101.05C502.67,-84.83 497.35,-62.08 482.5,-49 468.3,-36.5 427.24,-28.47 388.79,-23.52"/>
<polygon fill="#9a32cd" stroke="#9a32cd" points="501.06,-101.36 505.36,-111.04 508.03,-100.79 501.06,-101.36"/>
<text text-anchor="middle" x="528" y="-74" font-family="Helvetica,sans-Serif" font-size="10.00"> isSuccess</text>
<text text-anchor="middle" x="528" y="-63" font-family="Helvetica,sans-Serif" font-size="10.00">isRunning</text>
</g>
<!-- Node7 -->
<g id="node7" class="node">
<title>Node7</title>
<g id="a_node7"><a xlink:title=" ">
<polygon fill="white" stroke="#bfbfbf" points="551.5,-111.5 551.5,-130.5 667.5,-130.5 667.5,-111.5 551.5,-111.5"/>
<text text-anchor="middle" x="609.5" y="-118.5" font-family="Helvetica,sans-Serif" font-size="10.00">NotificationManager</text>
</a>
</g>
</g>
<!-- Node7&#45;&gt;Node1 -->
<g id="edge6" class="edge">
<title>Node7&#45;&gt;Node1</title>
<path fill="none" stroke="#9a32cd" stroke-dasharray="5,2" d="M601.5,-101.95C593.09,-85.26 578.18,-61.25 557.5,-49 529.68,-32.52 450.12,-24.21 388.73,-20.14"/>
<polygon fill="#9a32cd" stroke="#9a32cd" points="598.45,-103.69 605.89,-111.23 604.77,-100.69 598.45,-103.69"/>
<text text-anchor="middle" x="638" y="-68.5" font-family="Helvetica,sans-Serif" font-size="10.00"> mNotifyManager</text>
</g>
</g>
</svg>
