<?xml version="1.0" encoding="UTF-8" standalone="no"?>
<!DOCTYPE svg PUBLIC "-//W3C//DTD SVG 1.1//EN"
 "http://www.w3.org/Graphics/SVG/1.1/DTD/svg11.dtd">
<!-- Generated by graphviz version 2.43.0 (0)
 -->
<!-- Title: irr::scene::CMeshCache Pages: 1 -->
<!--zoomable 196 -->
<svg id="main" version="1.1" xmlns="http://www.w3.org/2000/svg" xmlns:xlink="http://www.w3.org/1999/xlink" xml:space="preserve" onload="init(evt)">
<style type="text/css"><![CDATA[
.edge:hover path { stroke: red; }
.edge:hover polygon { stroke: red; fill: red; }
]]></style>
<script type="text/javascript"><![CDATA[
var edges = document.getElementsByTagName('g');
if (edges && edges.length) {
  for (var i=0;i<edges.length;i++) {
    if (edges[i].id.substr(0,4)=='edge') {
      edges[i].setAttribute('class','edge');
    }
  }
}
]]></script>
        <defs>
                <circle id="rim" cx="0" cy="0" r="7"/>
                <circle id="rim2" cx="0" cy="0" r="3.5"/>
                <g id="zoomPlus">
                        <use xlink:href="#rim" fill="#404040">
                                <set attributeName="fill" to="#808080" begin="zoomplus.mouseover" end="zoomplus.mouseout"/>
                        </use>
                        <path d="M-4,0h8M0,-4v8" fill="none" stroke="white" stroke-width="1.5" pointer-events="none"/>
                </g>
                <g id="zoomMin">
                        <use xlink:href="#rim" fill="#404040">
                                <set attributeName="fill" to="#808080" begin="zoomminus.mouseover" end="zoomminus.mouseout"/>
                        </use>
                        <path d="M-4,0h8" fill="none" stroke="white" stroke-width="1.5" pointer-events="none"/>
                </g>
                <g id="dirArrow">
                        <path fill="none" stroke="white" stroke-width="1.5" d="M0,-3.0v7 M-2.5,-0.5L0,-3.0L2.5,-0.5"/>
                </g>
               <g id="resetDef">
                       <use xlink:href="#rim2" fill="#404040">
                               <set attributeName="fill" to="#808080" begin="reset.mouseover" end="reset.mouseout"/>
                       </use>
               </g>
        </defs>

<script type="text/javascript">
var viewWidth = 866;
var viewHeight = 196;
var sectionId = 'dynsection-1';
</script>
<script xlink:href="svgpan.js"/>
<svg id="graph" class="graph">
<g id="viewport">
<title>irr::scene::CMeshCache</title>
<polygon fill="white" stroke="transparent" points="-4,4 -4,-192 862,-192 862,4 -4,4"/>
<!-- Node1 -->
<g id="node1" class="node">
<title>Node1</title>
<g id="a_node1"><a xlink:title=" ">
<polygon fill="#bfbfbf" stroke="black" points="727,-95.5 727,-114.5 858,-114.5 858,-95.5 727,-95.5"/>
<text text-anchor="middle" x="792.5" y="-102.5" font-family="Helvetica,sans-Serif" font-size="10.00">irr::scene::CMeshCache</text>
</a>
</g>
</g>
<!-- Node2 -->
<g id="node2" class="node">
<title>Node2</title>
<g id="a_node2"><a xlink:href="classirr_1_1scene_1_1IMeshCache.html" target="_top" xlink:title="The mesh cache stores already loaded meshes and provides an interface to them.">
<polygon fill="white" stroke="black" points="523,-125.5 523,-144.5 650,-144.5 650,-125.5 523,-125.5"/>
<text text-anchor="middle" x="586.5" y="-132.5" font-family="Helvetica,sans-Serif" font-size="10.00">irr::scene::IMeshCache</text>
</a>
</g>
</g>
<!-- Node2&#45;&gt;Node1 -->
<g id="edge1" class="edge">
<title>Node2&#45;&gt;Node1</title>
<path fill="none" stroke="midnightblue" d="M660.27,-124.3C682.02,-121.1 705.72,-117.62 726.91,-114.5"/>
<polygon fill="midnightblue" stroke="midnightblue" points="659.48,-120.88 650.09,-125.8 660.5,-127.8 659.48,-120.88"/>
</g>
<!-- Node3 -->
<g id="node3" class="node">
<title>Node3</title>
<g id="a_node3"><a xlink:href="classirr_1_1IReferenceCounted.html" target="_top" xlink:title="Base class of most objects of the Irrlicht Engine.">
<polygon fill="white" stroke="black" points="217.5,-149.5 217.5,-168.5 343.5,-168.5 343.5,-149.5 217.5,-149.5"/>
<text text-anchor="middle" x="280.5" y="-156.5" font-family="Helvetica,sans-Serif" font-size="10.00">irr::IReferenceCounted</text>
</a>
</g>
</g>
<!-- Node3&#45;&gt;Node2 -->
<g id="edge2" class="edge">
<title>Node3&#45;&gt;Node2</title>
<path fill="none" stroke="midnightblue" d="M353.8,-153.29C405.25,-149.23 473.68,-143.83 522.81,-139.95"/>
<polygon fill="midnightblue" stroke="midnightblue" points="353.45,-149.81 343.75,-154.09 354,-156.79 353.45,-149.81"/>
</g>
<!-- Node4 -->
<g id="node4" class="node">
<title>Node4</title>
<g id="a_node4"><a xlink:title=" ">
<polygon fill="white" stroke="#bfbfbf" points="19,-168.5 19,-187.5 57,-187.5 57,-168.5 19,-168.5"/>
<text text-anchor="middle" x="38" y="-175.5" font-family="Helvetica,sans-Serif" font-size="10.00">char</text>
</a>
</g>
</g>
<!-- Node4&#45;&gt;Node3 -->
<g id="edge3" class="edge">
<title>Node4&#45;&gt;Node3</title>
<path fill="none" stroke="#9a32cd" stroke-dasharray="5,2" d="M67.05,-175.78C103.71,-172.89 168.93,-167.74 217.47,-163.9"/>
<polygon fill="#9a32cd" stroke="#9a32cd" points="66.77,-172.3 57.08,-176.57 67.32,-179.27 66.77,-172.3"/>
<text text-anchor="middle" x="139.5" y="-176" font-family="Helvetica,sans-Serif" font-size="10.00"> DebugName</text>
</g>
<!-- Node5 -->
<g id="node5" class="node">
<title>Node5</title>
<g id="a_node5"><a xlink:title=" ">
<polygon fill="white" stroke="#bfbfbf" points="13,-130.5 13,-149.5 63,-149.5 63,-130.5 13,-130.5"/>
<text text-anchor="middle" x="38" y="-137.5" font-family="Helvetica,sans-Serif" font-size="10.00">int32_t</text>
</a>
</g>
</g>
<!-- Node5&#45;&gt;Node3 -->
<g id="edge4" class="edge">
<title>Node5&#45;&gt;Node3</title>
<path fill="none" stroke="#9a32cd" stroke-dasharray="5,2" d="M73.25,-142.49C102.84,-144.66 146.75,-147.94 185,-151 195.5,-151.84 206.66,-152.76 217.49,-153.67"/>
<polygon fill="#9a32cd" stroke="#9a32cd" points="73.26,-138.98 63.03,-141.74 72.75,-145.96 73.26,-138.98"/>
<text text-anchor="middle" x="139.5" y="-154" font-family="Helvetica,sans-Serif" font-size="10.00"> ReferenceCounter</text>
</g>
<!-- Node6 -->
<g id="node6" class="node">
<title>Node6</title>
<g id="a_node6"><a xlink:href="classirr_1_1core_1_1array.html" target="_top" xlink:title=" ">
<polygon fill="white" stroke="black" points="523.5,-60.5 523.5,-101.5 649.5,-101.5 649.5,-60.5 523.5,-60.5"/>
<text text-anchor="start" x="531.5" y="-89.5" font-family="Helvetica,sans-Serif" font-size="10.00">irr::core::array&lt; irr</text>
<text text-anchor="start" x="531.5" y="-78.5" font-family="Helvetica,sans-Serif" font-size="10.00">::scene::CMeshCache::</text>
<text text-anchor="middle" x="586.5" y="-67.5" font-family="Helvetica,sans-Serif" font-size="10.00">MeshEntry &gt;</text>
</a>
</g>
</g>
<!-- Node6&#45;&gt;Node1 -->
<g id="edge5" class="edge">
<title>Node6&#45;&gt;Node1</title>
<path fill="none" stroke="#9a32cd" stroke-dasharray="5,2" d="M659.48,-89.47C681.46,-92.05 705.48,-94.88 726.93,-97.4"/>
<polygon fill="#9a32cd" stroke="#9a32cd" points="659.88,-85.99 649.54,-88.3 659.06,-92.94 659.88,-85.99"/>
<text text-anchor="middle" x="688.5" y="-98" font-family="Helvetica,sans-Serif" font-size="10.00"> Meshes</text>
</g>
<!-- Node7 -->
<g id="node7" class="node">
<title>Node7</title>
<g id="a_node7"><a xlink:title=" ">
<polygon fill="white" stroke="#bfbfbf" points="203,-100 203,-130 358,-130 358,-100 203,-100"/>
<text text-anchor="start" x="211" y="-118" font-family="Helvetica,sans-Serif" font-size="10.00">vector&lt; irr::scene</text>
<text text-anchor="middle" x="280.5" y="-107" font-family="Helvetica,sans-Serif" font-size="10.00">::CMeshCache::MeshEntry &gt;</text>
</a>
</g>
</g>
<!-- Node7&#45;&gt;Node6 -->
<g id="edge6" class="edge">
<title>Node7&#45;&gt;Node6</title>
<path fill="none" stroke="#9a32cd" stroke-dasharray="5,2" d="M368.25,-105.3C417.67,-99.77 478.44,-92.97 523.13,-87.98"/>
<polygon fill="#9a32cd" stroke="#9a32cd" points="367.76,-101.83 358.21,-106.42 368.54,-108.79 367.76,-101.83"/>
<text text-anchor="middle" x="440.5" y="-107" font-family="Helvetica,sans-Serif" font-size="10.00"> m_data</text>
</g>
<!-- Node8 -->
<g id="node8" class="node">
<title>Node8</title>
<g id="a_node8"><a xlink:href="classbool.html" target="_top" xlink:title=" ">
<polygon fill="white" stroke="black" points="19,-49.5 19,-68.5 57,-68.5 57,-49.5 19,-49.5"/>
<text text-anchor="middle" x="38" y="-56.5" font-family="Helvetica,sans-Serif" font-size="10.00">bool</text>
</a>
</g>
</g>
<!-- Node8&#45;&gt;Node6 -->
<g id="edge7" class="edge">
<title>Node8&#45;&gt;Node6</title>
<path fill="none" stroke="#9a32cd" stroke-dasharray="5,2" d="M67.33,-60.14C152.01,-63.55 404.71,-73.72 523.06,-78.49"/>
<polygon fill="#9a32cd" stroke="#9a32cd" points="67.32,-56.64 57.18,-59.73 67.03,-63.63 67.32,-56.64"/>
<text text-anchor="middle" x="280.5" y="-74" font-family="Helvetica,sans-Serif" font-size="10.00"> is_sorted</text>
</g>
<!-- Node9 -->
<g id="node9" class="node">
<title>Node9</title>
<g id="a_node9"><a xlink:href="classirr_1_1core_1_1array.html" target="_top" xlink:title="Self reallocating template array (like stl vector) with additional features.">
<polygon fill="white" stroke="black" points="223.5,-14.5 223.5,-33.5 337.5,-33.5 337.5,-14.5 223.5,-14.5"/>
<text text-anchor="middle" x="280.5" y="-21.5" font-family="Helvetica,sans-Serif" font-size="10.00">irr::core::array&lt; T &gt;</text>
</a>
</g>
</g>
<!-- Node8&#45;&gt;Node9 -->
<g id="edge9" class="edge">
<title>Node8&#45;&gt;Node9</title>
<path fill="none" stroke="#9a32cd" stroke-dasharray="5,2" d="M67.1,-51.06C75.68,-48.85 85.18,-46.61 94,-45 137.04,-37.12 186.27,-31.71 223.2,-28.36"/>
<polygon fill="#9a32cd" stroke="#9a32cd" points="65.96,-47.74 57.2,-53.7 67.76,-54.51 65.96,-47.74"/>
<text text-anchor="middle" x="139.5" y="-48" font-family="Helvetica,sans-Serif" font-size="10.00"> is_sorted</text>
</g>
<!-- Node9&#45;&gt;Node6 -->
<g id="edge8" class="edge">
<title>Node9&#45;&gt;Node6</title>
<path fill="none" stroke="orange" stroke-dasharray="5,2" d="M348.1,-18.73C393.27,-17.14 453.84,-18.92 505,-34 523.94,-39.58 543.11,-50.52 557.99,-60.44"/>
<polygon fill="orange" stroke="orange" points="347.68,-15.25 337.83,-19.16 347.97,-22.24 347.68,-15.25"/>
<text text-anchor="start" x="376" y="-48" font-family="Helvetica,sans-Serif" font-size="10.00"> &lt; irr::scene::CMeshCache</text>
<text text-anchor="middle" x="440.5" y="-37" font-family="Helvetica,sans-Serif" font-size="10.00">::MeshEntry &gt;</text>
</g>
<!-- Node10 -->
<g id="node10" class="node">
<title>Node10</title>
<g id="a_node10"><a xlink:title=" ">
<polygon fill="white" stroke="#bfbfbf" points="0,-0.5 0,-19.5 76,-19.5 76,-0.5 0,-0.5"/>
<text text-anchor="middle" x="38" y="-7.5" font-family="Helvetica,sans-Serif" font-size="10.00">vector&lt; T &gt;</text>
</a>
</g>
</g>
<!-- Node10&#45;&gt;Node9 -->
<g id="edge10" class="edge">
<title>Node10&#45;&gt;Node9</title>
<path fill="none" stroke="#9a32cd" stroke-dasharray="5,2" d="M86.38,-8.77C114.98,-8.42 152.12,-8.64 185,-11 197.47,-11.9 210.81,-13.4 223.41,-15.06"/>
<polygon fill="#9a32cd" stroke="#9a32cd" points="86.2,-5.27 76.26,-8.93 86.31,-12.27 86.2,-5.27"/>
<text text-anchor="middle" x="139.5" y="-14" font-family="Helvetica,sans-Serif" font-size="10.00"> m_data</text>
</g>
</g>
</svg>
        <g id="navigator" transform="translate(0 0)" fill="#404254">
                <rect fill="#f2f5e9" fill-opacity="0.5" stroke="#606060" stroke-width=".5" x="0" y="0" width="60" height="60"/>
                <use id="zoomplus" xlink:href="#zoomPlus" x="17" y="9" onmousedown="handleZoom(evt,'in')"/>
                <use id="zoomminus" xlink:href="#zoomMin" x="42" y="9" onmousedown="handleZoom(evt,'out')"/>
                <use id="reset" xlink:href="#resetDef" x="30" y="36" onmousedown="handleReset()"/>
                <g id="arrowUp" xlink:href="#dirArrow" transform="translate(30 24)" onmousedown="handlePan(0,-1)">
                  <use xlink:href="#rim" fill="#404040">
                        <set attributeName="fill" to="#808080" begin="arrowUp.mouseover" end="arrowUp.mouseout"/>
                  </use>
                  <path fill="none" stroke="white" stroke-width="1.5" d="M0,-3.0v7 M-2.5,-0.5L0,-3.0L2.5,-0.5"/>
                </g>
                <g id="arrowRight" xlink:href="#dirArrow" transform="rotate(90) translate(36 -43)" onmousedown="handlePan(1,0)">
                  <use xlink:href="#rim" fill="#404040">
                        <set attributeName="fill" to="#808080" begin="arrowRight.mouseover" end="arrowRight.mouseout"/>
                  </use>
                  <path fill="none" stroke="white" stroke-width="1.5" d="M0,-3.0v7 M-2.5,-0.5L0,-3.0L2.5,-0.5"/>
                </g>
                <g id="arrowDown" xlink:href="#dirArrow" transform="rotate(180) translate(-30 -48)" onmousedown="handlePan(0,1)">
                  <use xlink:href="#rim" fill="#404040">
                        <set attributeName="fill" to="#808080" begin="arrowDown.mouseover" end="arrowDown.mouseout"/>
                  </use>
                  <path fill="none" stroke="white" stroke-width="1.5" d="M0,-3.0v7 M-2.5,-0.5L0,-3.0L2.5,-0.5"/>
                </g>
                <g id="arrowLeft" xlink:href="#dirArrow" transform="rotate(270) translate(-36 17)" onmousedown="handlePan(-1,0)">
                  <use xlink:href="#rim" fill="#404040">
                        <set attributeName="fill" to="#808080" begin="arrowLeft.mouseover" end="arrowLeft.mouseout"/>
                  </use>
                  <path fill="none" stroke="white" stroke-width="1.5" d="M0,-3.0v7 M-2.5,-0.5L0,-3.0L2.5,-0.5"/>
                </g>
        </g>
        <svg viewBox="0 0 15 15" width="100%" height="30px" preserveAspectRatio="xMaxYMin meet">
         <g id="arrow_out" transform="scale(0.3 0.3)">
          <a xlink:href="classirr_1_1scene_1_1CMeshCache__coll__graph_org.svg" target="_base">
           <rect id="button" ry="5" rx="5" y="6" x="6" height="38" width="38"
                fill="#f2f5e9" fill-opacity="0.5" stroke="#606060" stroke-width="1.0"/>
           <path id="arrow"
             d="M 11.500037,31.436501 C 11.940474,20.09759 22.043105,11.32322 32.158766,21.979434 L 37.068811,17.246167 C 37.068811,17.246167 37.088388,32 37.088388,32 L 22.160133,31.978069 C 22.160133,31.978069 26.997745,27.140456 26.997745,27.140456 C 18.528582,18.264221 13.291696,25.230495 11.500037,31.436501 z"
             style="fill:#404040;"/>
          </a>
         </g>
        </svg>
</svg>
