<?xml version="1.0" encoding="UTF-8" standalone="no"?>
<!DOCTYPE svg PUBLIC "-//W3C//DTD SVG 1.1//EN"
 "http://www.w3.org/Graphics/SVG/1.1/DTD/svg11.dtd">
<!-- Generated by graphviz version 2.43.0 (0)
 -->
<!-- Title: PostProcessingStep Pages: 1 -->
<!--zoomable 791 -->
<svg id="main" version="1.1" xmlns="http://www.w3.org/2000/svg" xmlns:xlink="http://www.w3.org/1999/xlink" xml:space="preserve" onload="init(evt)">
<style type="text/css"><![CDATA[
.edge:hover path { stroke: red; }
.edge:hover polygon { stroke: red; fill: red; }
]]></style>
<script type="text/javascript"><![CDATA[
var edges = document.getElementsByTagName('g');
if (edges && edges.length) {
  for (var i=0;i<edges.length;i++) {
    if (edges[i].id.substr(0,4)=='edge') {
      edges[i].setAttribute('class','edge');
    }
  }
}
]]></script>
        <defs>
                <circle id="rim" cx="0" cy="0" r="7"/>
                <circle id="rim2" cx="0" cy="0" r="3.5"/>
                <g id="zoomPlus">
                        <use xlink:href="#rim" fill="#404040">
                                <set attributeName="fill" to="#808080" begin="zoomplus.mouseover" end="zoomplus.mouseout"/>
                        </use>
                        <path d="M-4,0h8M0,-4v8" fill="none" stroke="white" stroke-width="1.5" pointer-events="none"/>
                </g>
                <g id="zoomMin">
                        <use xlink:href="#rim" fill="#404040">
                                <set attributeName="fill" to="#808080" begin="zoomminus.mouseover" end="zoomminus.mouseout"/>
                        </use>
                        <path d="M-4,0h8" fill="none" stroke="white" stroke-width="1.5" pointer-events="none"/>
                </g>
                <g id="dirArrow">
                        <path fill="none" stroke="white" stroke-width="1.5" d="M0,-3.0v7 M-2.5,-0.5L0,-3.0L2.5,-0.5"/>
                </g>
               <g id="resetDef">
                       <use xlink:href="#rim2" fill="#404040">
                               <set attributeName="fill" to="#808080" begin="reset.mouseover" end="reset.mouseout"/>
                       </use>
               </g>
        </defs>

<script type="text/javascript">
var viewWidth = 1871;
var viewHeight = 791;
var sectionId = 'dynsection-1';
</script>
<script xlink:href="svgpan.js"/>
<svg id="graph" class="graph">
<g id="viewport">
<title>PostProcessingStep</title>
<polygon fill="white" stroke="transparent" points="-4,4 -4,-787.46 1867,-787.46 1867,4 -4,4"/>
<!-- Node1 -->
<g id="node1" class="node">
<title>Node1</title>
<g id="a_node1"><a xlink:title=" ">
<polygon fill="#bfbfbf" stroke="black" points="1751,-539.96 1751,-558.96 1863,-558.96 1863,-539.96 1751,-539.96"/>
<text text-anchor="middle" x="1807" y="-546.96" font-family="Helvetica,sans-Serif" font-size="10.00">PostProcessingStep</text>
</a>
</g>
</g>
<!-- Node2 -->
<g id="node2" class="node">
<title>Node2</title>
<g id="a_node2"><a xlink:href="classRenderStep.html" target="_top" xlink:title=" ">
<polygon fill="white" stroke="black" points="1556,-725.96 1556,-744.96 1629,-744.96 1629,-725.96 1556,-725.96"/>
<text text-anchor="middle" x="1592.5" y="-732.96" font-family="Helvetica,sans-Serif" font-size="10.00">RenderStep</text>
</a>
</g>
</g>
<!-- Node2&#45;&gt;Node1 -->
<g id="edge1" class="edge">
<title>Node2&#45;&gt;Node1</title>
<path fill="none" stroke="midnightblue" d="M1635.54,-722.41C1640.15,-720.58 1644.73,-718.6 1649,-716.46 1689.37,-696.31 1701.26,-691.53 1733,-659.46 1764.76,-627.37 1790.87,-579.53 1801.22,-559.18"/>
<polygon fill="midnightblue" stroke="midnightblue" points="1634.24,-719.16 1626.08,-725.93 1636.68,-725.72 1634.24,-719.16"/>
</g>
<!-- Node3 -->
<g id="node3" class="node">
<title>Node3</title>
<g id="a_node3"><a xlink:href="classRenderPipelineObject.html" target="_top" xlink:title=" ">
<polygon fill="white" stroke="black" points="1247,-738.96 1247,-757.96 1369,-757.96 1369,-738.96 1247,-738.96"/>
<text text-anchor="middle" x="1308" y="-745.96" font-family="Helvetica,sans-Serif" font-size="10.00">RenderPipelineObject</text>
</a>
</g>
</g>
<!-- Node3&#45;&gt;Node2 -->
<g id="edge2" class="edge">
<title>Node3&#45;&gt;Node2</title>
<path fill="none" stroke="midnightblue" d="M1379.48,-745.22C1435.58,-742.64 1511.75,-739.13 1555.87,-737.1"/>
<polygon fill="midnightblue" stroke="midnightblue" points="1379.09,-741.73 1369.26,-745.69 1379.41,-748.73 1379.09,-741.73"/>
</g>
<!-- Node34 -->
<g id="node34" class="node">
<title>Node34</title>
<g id="a_node34"><a xlink:href="classRenderTarget.html" target="_top" xlink:title=" ">
<polygon fill="white" stroke="black" points="1552,-687.96 1552,-706.96 1633,-706.96 1633,-687.96 1552,-687.96"/>
<text text-anchor="middle" x="1592.5" y="-694.96" font-family="Helvetica,sans-Serif" font-size="10.00">RenderTarget</text>
</a>
</g>
</g>
<!-- Node3&#45;&gt;Node34 -->
<g id="edge41" class="edge">
<title>Node3&#45;&gt;Node34</title>
<path fill="none" stroke="midnightblue" d="M1371.79,-737.13C1426.76,-727.2 1504.95,-713.09 1551.72,-704.64"/>
<polygon fill="midnightblue" stroke="midnightblue" points="1371.02,-733.71 1361.8,-738.93 1372.27,-740.6 1371.02,-733.71"/>
</g>
<!-- Node35 -->
<g id="node35" class="node">
<title>Node35</title>
<g id="a_node35"><a xlink:href="classRenderSource.html" target="_top" xlink:title=" ">
<polygon fill="white" stroke="black" points="1550.5,-763.96 1550.5,-782.96 1634.5,-782.96 1634.5,-763.96 1550.5,-763.96"/>
<text text-anchor="middle" x="1592.5" y="-770.96" font-family="Helvetica,sans-Serif" font-size="10.00">RenderSource</text>
</a>
</g>
</g>
<!-- Node3&#45;&gt;Node35 -->
<g id="edge44" class="edge">
<title>Node3&#45;&gt;Node35</title>
<path fill="none" stroke="midnightblue" d="M1379.43,-754.69C1433.32,-759.46 1505.75,-765.87 1550.5,-769.83"/>
<polygon fill="midnightblue" stroke="midnightblue" points="1379.53,-751.19 1369.26,-753.79 1378.91,-758.16 1379.53,-751.19"/>
</g>
<!-- Node4 -->
<g id="node4" class="node">
<title>Node4</title>
<g id="a_node4"><a xlink:href="classirr_1_1video_1_1SMaterial.html" target="_top" xlink:title="Struct for holding parameters for a material renderer.">
<polygon fill="white" stroke="black" points="1536,-511.96 1536,-530.96 1649,-530.96 1649,-511.96 1536,-511.96"/>
<text text-anchor="middle" x="1592.5" y="-518.96" font-family="Helvetica,sans-Serif" font-size="10.00">irr::video::SMaterial</text>
</a>
</g>
</g>
<!-- Node4&#45;&gt;Node1 -->
<g id="edge3" class="edge">
<title>Node4&#45;&gt;Node1</title>
<path fill="none" stroke="#9a32cd" stroke-dasharray="5,2" d="M1659.21,-530.12C1688.56,-533.99 1722.77,-538.49 1750.77,-542.18"/>
<polygon fill="#9a32cd" stroke="#9a32cd" points="1659.43,-526.62 1649.05,-528.78 1658.51,-533.56 1659.43,-526.62"/>
<text text-anchor="middle" x="1700" y="-542.46" font-family="Helvetica,sans-Serif" font-size="10.00"> material</text>
</g>
<!-- Node5 -->
<g id="node5" class="node">
<title>Node5</title>
<g id="a_node5"><a xlink:title=" ">
<polygon fill="white" stroke="#bfbfbf" points="1247,-383.96 1247,-402.96 1369,-402.96 1369,-383.96 1247,-383.96"/>
<text text-anchor="middle" x="1308" y="-390.96" font-family="Helvetica,sans-Serif" font-size="10.00">E_BLEND_OPERATION</text>
</a>
</g>
</g>
<!-- Node5&#45;&gt;Node4 -->
<g id="edge4" class="edge">
<title>Node5&#45;&gt;Node4</title>
<path fill="none" stroke="#9a32cd" stroke-dasharray="5,2" d="M1354.1,-381.83C1400.97,-372.68 1473.59,-367.21 1518,-406.46 1550.53,-435.21 1507.6,-469.63 1536,-502.46 1539.33,-506.31 1543.48,-509.38 1548,-511.83"/>
<polygon fill="#9a32cd" stroke="#9a32cd" points="1353.29,-378.42 1344.21,-383.89 1354.72,-385.28 1353.29,-378.42"/>
<text text-anchor="middle" x="1457" y="-409.46" font-family="Helvetica,sans-Serif" font-size="10.00"> BlendOperation</text>
</g>
<!-- Node6 -->
<g id="node6" class="node">
<title>Node6</title>
<g id="a_node6"><a xlink:href="classirr_1_1video_1_1SColor.html" target="_top" xlink:title="Class representing a 32 bit ARGB color.">
<polygon fill="white" stroke="black" points="888.5,-468.96 888.5,-487.96 986.5,-487.96 986.5,-468.96 888.5,-468.96"/>
<text text-anchor="middle" x="937.5" y="-475.96" font-family="Helvetica,sans-Serif" font-size="10.00">irr::video::SColor</text>
</a>
</g>
</g>
<!-- Node6&#45;&gt;Node4 -->
<g id="edge5" class="edge">
<title>Node6&#45;&gt;Node4</title>
<path fill="none" stroke="#9a32cd" stroke-dasharray="5,2" d="M997.02,-467.56C1127.01,-444.69 1434.91,-398.31 1518,-455.46 1536.43,-468.14 1519.9,-486.93 1536,-502.46 1540.03,-506.35 1544.89,-509.45 1550.04,-511.91"/>
<polygon fill="#9a32cd" stroke="#9a32cd" points="996.09,-464.17 986.85,-469.37 997.31,-471.06 996.09,-464.17"/>
<text text-anchor="middle" x="1174" y="-483.46" font-family="Helvetica,sans-Serif" font-size="10.00"> AmbientColor</text>
<text text-anchor="middle" x="1174" y="-472.46" font-family="Helvetica,sans-Serif" font-size="10.00">SpecularColor</text>
<text text-anchor="middle" x="1174" y="-461.46" font-family="Helvetica,sans-Serif" font-size="10.00">EmissiveColor</text>
<text text-anchor="middle" x="1174" y="-450.46" font-family="Helvetica,sans-Serif" font-size="10.00">DiffuseColor</text>
</g>
<!-- Node7 -->
<g id="node7" class="node">
<title>Node7</title>
<g id="a_node7"><a xlink:title=" ">
<polygon fill="white" stroke="#bfbfbf" points="471,-251.96 471,-270.96 527,-270.96 527,-251.96 471,-251.96"/>
<text text-anchor="middle" x="499" y="-258.96" font-family="Helvetica,sans-Serif" font-size="10.00">uint32_t</text>
</a>
</g>
</g>
<!-- Node7&#45;&gt;Node6 -->
<g id="edge6" class="edge">
<title>Node7&#45;&gt;Node6</title>
<path fill="none" stroke="#9a32cd" stroke-dasharray="5,2" d="M523.37,-276.48C565.89,-303.28 659.31,-359.9 744,-395.46 797.93,-418.11 823.85,-397.52 870,-433.46 882.27,-443.02 875.77,-453.86 888,-463.46 890.64,-465.53 893.56,-467.31 896.62,-468.85"/>
<polygon fill="#9a32cd" stroke="#9a32cd" points="525.18,-273.48 514.86,-271.08 521.43,-279.39 525.18,-273.48"/>
<text text-anchor="middle" x="659.5" y="-390.46" font-family="Helvetica,sans-Serif" font-size="10.00"> color</text>
</g>
<!-- Node15 -->
<g id="node15" class="node">
<title>Node15</title>
<g id="a_node15"><a xlink:href="classirr_1_1video_1_1ITexture.html" target="_top" xlink:title="Interface of a Video Driver dependent Texture.">
<polygon fill="white" stroke="black" points="1005,-284.96 1005,-303.96 1110,-303.96 1110,-284.96 1005,-284.96"/>
<text text-anchor="middle" x="1057.5" y="-291.96" font-family="Helvetica,sans-Serif" font-size="10.00">irr::video::ITexture</text>
</a>
</g>
</g>
<!-- Node7&#45;&gt;Node15 -->
<g id="edge25" class="edge">
<title>Node7&#45;&gt;Node15</title>
<path fill="none" stroke="#9a32cd" stroke-dasharray="5,2" d="M537.49,-261.09C604.38,-260.72 748.67,-261.2 870,-270.46 915.73,-273.95 967.44,-280.84 1004.79,-286.34"/>
<polygon fill="#9a32cd" stroke="#9a32cd" points="537.41,-257.59 527.43,-261.16 537.46,-264.59 537.41,-257.59"/>
<text text-anchor="middle" x="807" y="-273.46" font-family="Helvetica,sans-Serif" font-size="10.00"> Pitch</text>
</g>
<!-- Node19 -->
<g id="node19" class="node">
<title>Node19</title>
<g id="a_node19"><a xlink:href="classirr_1_1core_1_1dimension2d.html" target="_top" xlink:title=" ">
<polygon fill="white" stroke="black" points="745.5,-194.46 745.5,-224.46 868.5,-224.46 868.5,-194.46 745.5,-194.46"/>
<text text-anchor="start" x="753.5" y="-212.46" font-family="Helvetica,sans-Serif" font-size="10.00">irr::core::dimension2d</text>
<text text-anchor="middle" x="807" y="-201.46" font-family="Helvetica,sans-Serif" font-size="10.00">&lt; u32 &gt;</text>
</a>
</g>
</g>
<!-- Node7&#45;&gt;Node19 -->
<g id="edge19" class="edge">
<title>Node7&#45;&gt;Node19</title>
<path fill="none" stroke="#9a32cd" stroke-dasharray="5,2" d="M529.13,-247.63C547.12,-239.74 570.91,-230.45 593,-225.46 643.46,-214.06 702.17,-210.34 745.16,-209.3"/>
<polygon fill="#9a32cd" stroke="#9a32cd" points="527.47,-244.54 519.78,-251.83 530.34,-250.92 527.47,-244.54"/>
<text text-anchor="middle" x="659.5" y="-239.46" font-family="Helvetica,sans-Serif" font-size="10.00"> Width</text>
<text text-anchor="middle" x="659.5" y="-228.46" font-family="Helvetica,sans-Serif" font-size="10.00">Height</text>
</g>
<!-- Node8 -->
<g id="node8" class="node">
<title>Node8</title>
<g id="a_node8"><a xlink:title=" ">
<polygon fill="white" stroke="#bfbfbf" points="1250,-650.96 1250,-669.96 1366,-669.96 1366,-650.96 1250,-650.96"/>
<text text-anchor="middle" x="1308" y="-657.96" font-family="Helvetica,sans-Serif" font-size="10.00">E_POLYGON_OFFSET</text>
</a>
</g>
</g>
<!-- Node8&#45;&gt;Node4 -->
<g id="edge7" class="edge">
<title>Node8&#45;&gt;Node4</title>
<path fill="none" stroke="#9a32cd" stroke-dasharray="5,2" d="M1376.35,-664.11C1428.28,-665.67 1495,-664.58 1518,-650.46 1563.26,-622.69 1583.27,-556.08 1589.36,-531.12"/>
<polygon fill="#9a32cd" stroke="#9a32cd" points="1376.29,-660.61 1366.18,-663.77 1376.05,-667.6 1376.29,-660.61"/>
<text text-anchor="middle" x="1457" y="-667.46" font-family="Helvetica,sans-Serif" font-size="10.00"> PolygonOffsetDirection</text>
</g>
<!-- Node9 -->
<g id="node9" class="node">
<title>Node9</title>
<g id="a_node9"><a xlink:title=" ">
<polygon fill="white" stroke="#bfbfbf" points="1289,-573.96 1289,-592.96 1327,-592.96 1327,-573.96 1289,-573.96"/>
<text text-anchor="middle" x="1308" y="-580.96" font-family="Helvetica,sans-Serif" font-size="10.00">float</text>
</a>
</g>
</g>
<!-- Node9&#45;&gt;Node4 -->
<g id="edge8" class="edge">
<title>Node9&#45;&gt;Node4</title>
<path fill="none" stroke="#9a32cd" stroke-dasharray="5,2" d="M1337.42,-579.76C1386.35,-573.26 1484.47,-559.6 1518,-550.46 1536.26,-545.48 1556.2,-537.44 1570.69,-531.09"/>
<polygon fill="#9a32cd" stroke="#9a32cd" points="1336.67,-576.33 1327.21,-581.11 1337.59,-583.27 1336.67,-576.33"/>
<text text-anchor="middle" x="1457" y="-640.46" font-family="Helvetica,sans-Serif" font-size="10.00"> PolygonOffsetDepthBias</text>
<text text-anchor="middle" x="1457" y="-629.46" font-family="Helvetica,sans-Serif" font-size="10.00">MaterialTypeParam2</text>
<text text-anchor="middle" x="1457" y="-618.46" font-family="Helvetica,sans-Serif" font-size="10.00">PolygonOffsetSlopeScale</text>
<text text-anchor="middle" x="1457" y="-607.46" font-family="Helvetica,sans-Serif" font-size="10.00">Thickness</text>
<text text-anchor="middle" x="1457" y="-596.46" font-family="Helvetica,sans-Serif" font-size="10.00">MaterialTypeParam</text>
<text text-anchor="middle" x="1457" y="-585.46" font-family="Helvetica,sans-Serif" font-size="10.00">BlendFactor</text>
<text text-anchor="middle" x="1457" y="-574.46" font-family="Helvetica,sans-Serif" font-size="10.00">Shininess</text>
</g>
<!-- Node10 -->
<g id="node10" class="node">
<title>Node10</title>
<g id="a_node10"><a xlink:title=" ">
<polygon fill="white" stroke="#bfbfbf" points="1275,-535.96 1275,-554.96 1341,-554.96 1341,-535.96 1275,-535.96"/>
<text text-anchor="middle" x="1308" y="-542.96" font-family="Helvetica,sans-Serif" font-size="10.00">E_ZWRITE</text>
</a>
</g>
</g>
<!-- Node10&#45;&gt;Node4 -->
<g id="edge9" class="edge">
<title>Node10&#45;&gt;Node4</title>
<path fill="none" stroke="#9a32cd" stroke-dasharray="5,2" d="M1351.1,-541.88C1400.2,-537.71 1481.56,-530.8 1535.85,-526.19"/>
<polygon fill="#9a32cd" stroke="#9a32cd" points="1350.8,-538.4 1341.13,-542.73 1351.39,-545.37 1350.8,-538.4"/>
<text text-anchor="middle" x="1457" y="-540.46" font-family="Helvetica,sans-Serif" font-size="10.00"> ZWriteEnable</text>
</g>
<!-- Node11 -->
<g id="node11" class="node">
<title>Node11</title>
<g id="a_node11"><a xlink:href="classirr_1_1video_1_1SMaterialLayer.html" target="_top" xlink:title="Struct for holding material parameters which exist per texture layer.">
<polygon fill="white" stroke="black" points="1238,-304.96 1238,-323.96 1378,-323.96 1378,-304.96 1238,-304.96"/>
<text text-anchor="middle" x="1308" y="-311.96" font-family="Helvetica,sans-Serif" font-size="10.00">irr::video::SMaterialLayer</text>
</a>
</g>
</g>
<!-- Node11&#45;&gt;Node4 -->
<g id="edge10" class="edge">
<title>Node11&#45;&gt;Node4</title>
<path fill="none" stroke="#9a32cd" stroke-dasharray="5,2" d="M1388.46,-311.07C1432.9,-313.68 1485.69,-325.08 1518,-360.46 1560.9,-407.43 1495.82,-453.14 1536,-502.46 1539.15,-506.33 1543.13,-509.41 1547.5,-511.87"/>
<polygon fill="#9a32cd" stroke="#9a32cd" points="1388.39,-307.56 1378.24,-310.61 1388.07,-314.55 1388.39,-307.56"/>
<text text-anchor="middle" x="1457" y="-363.46" font-family="Helvetica,sans-Serif" font-size="10.00"> TextureLayer</text>
</g>
<!-- Node12 -->
<g id="node12" class="node">
<title>Node12</title>
<g id="a_node12"><a xlink:title=" ">
<polygon fill="white" stroke="#bfbfbf" points="1035.5,-322.96 1035.5,-341.96 1079.5,-341.96 1079.5,-322.96 1035.5,-322.96"/>
<text text-anchor="middle" x="1057.5" y="-329.96" font-family="Helvetica,sans-Serif" font-size="10.00">int8_t</text>
</a>
</g>
</g>
<!-- Node12&#45;&gt;Node11 -->
<g id="edge11" class="edge">
<title>Node12&#45;&gt;Node11</title>
<path fill="none" stroke="#9a32cd" stroke-dasharray="5,2" d="M1089.84,-330.19C1126.79,-327.52 1189.29,-322.99 1237.77,-319.48"/>
<polygon fill="#9a32cd" stroke="#9a32cd" points="1089.41,-326.71 1079.69,-330.93 1089.91,-333.7 1089.41,-326.71"/>
<text text-anchor="middle" x="1174" y="-330.46" font-family="Helvetica,sans-Serif" font-size="10.00"> LODBias</text>
</g>
<!-- Node13 -->
<g id="node13" class="node">
<title>Node13</title>
<g id="a_node13"><a xlink:href="classirr_1_1core_1_1CMatrix4.html" target="_top" xlink:title="4x4 matrix. Mostly used as transformation matrix for 3d calculations.">
<polygon fill="white" stroke="black" points="593,-71.96 593,-90.96 726,-90.96 726,-71.96 593,-71.96"/>
<text text-anchor="middle" x="659.5" y="-78.96" font-family="Helvetica,sans-Serif" font-size="10.00">irr::core::CMatrix4&lt; T &gt;</text>
</a>
</g>
</g>
<!-- Node13&#45;&gt;Node11 -->
<g id="edge12" class="edge">
<title>Node13&#45;&gt;Node11</title>
<path fill="none" stroke="#9a32cd" stroke-dasharray="5,2" d="M736.31,-78.81C803.85,-78.74 904.48,-84.3 987,-112.46 1121.61,-158.4 1257.41,-271.11 1296.11,-304.8"/>
<polygon fill="#9a32cd" stroke="#9a32cd" points="736.16,-75.31 726.17,-78.87 736.19,-82.31 736.16,-75.31"/>
<text text-anchor="middle" x="937.5" y="-115.46" font-family="Helvetica,sans-Serif" font-size="10.00"> TextureMatrix</text>
</g>
<!-- Node14 -->
<g id="node14" class="node">
<title>Node14</title>
<g id="a_node14"><a xlink:title=" ">
<polygon fill="white" stroke="#bfbfbf" points="239,-125.96 239,-144.96 268,-144.96 268,-125.96 239,-125.96"/>
<text text-anchor="middle" x="253.5" y="-132.96" font-family="Helvetica,sans-Serif" font-size="10.00">T</text>
</a>
</g>
</g>
<!-- Node14&#45;&gt;Node13 -->
<g id="edge13" class="edge">
<title>Node14&#45;&gt;Node13</title>
<path fill="none" stroke="#9a32cd" stroke-dasharray="5,2" d="M278.23,-128.89C310.65,-120.2 370.75,-105.08 423,-97.46 480.08,-89.14 545.58,-85.13 592.99,-83.21"/>
<polygon fill="#9a32cd" stroke="#9a32cd" points="277.08,-125.58 268.34,-131.58 278.91,-132.33 277.08,-125.58"/>
<text text-anchor="middle" x="372.5" y="-116.46" font-family="Helvetica,sans-Serif" font-size="10.00"> M</text>
</g>
<!-- Node20 -->
<g id="node20" class="node">
<title>Node20</title>
<g id="a_node20"><a xlink:href="classirr_1_1core_1_1dimension2d.html" target="_top" xlink:title="Specifies a 2 dimensional size.">
<polygon fill="white" stroke="black" points="423,-182.96 423,-201.96 575,-201.96 575,-182.96 423,-182.96"/>
<text text-anchor="middle" x="499" y="-189.96" font-family="Helvetica,sans-Serif" font-size="10.00">irr::core::dimension2d&lt; T &gt;</text>
</a>
</g>
</g>
<!-- Node14&#45;&gt;Node20 -->
<g id="edge21" class="edge">
<title>Node14&#45;&gt;Node20</title>
<path fill="none" stroke="#9a32cd" stroke-dasharray="5,2" d="M278.28,-141.03C319.75,-150.74 405.75,-170.87 456.99,-182.86"/>
<polygon fill="#9a32cd" stroke="#9a32cd" points="278.82,-137.56 268.29,-138.69 277.23,-144.38 278.82,-137.56"/>
<text text-anchor="middle" x="372.5" y="-183.46" font-family="Helvetica,sans-Serif" font-size="10.00"> Width</text>
<text text-anchor="middle" x="372.5" y="-172.46" font-family="Helvetica,sans-Serif" font-size="10.00">Height</text>
</g>
<!-- Node15&#45;&gt;Node11 -->
<g id="edge14" class="edge">
<title>Node15&#45;&gt;Node11</title>
<path fill="none" stroke="#9a32cd" stroke-dasharray="5,2" d="M1120.5,-298.81C1150.55,-300.99 1187.17,-303.73 1220,-306.46 1225.74,-306.94 1231.7,-307.45 1237.68,-307.98"/>
<polygon fill="#9a32cd" stroke="#9a32cd" points="1120.38,-295.3 1110.16,-298.07 1119.88,-302.28 1120.38,-295.3"/>
<text text-anchor="middle" x="1174" y="-309.46" font-family="Helvetica,sans-Serif" font-size="10.00"> Texture</text>
</g>
<!-- Node16 -->
<g id="node16" class="node">
<title>Node16</title>
<g id="a_node16"><a xlink:href="classirr_1_1IReferenceCounted.html" target="_top" xlink:title="Base class of most objects of the Irrlicht Engine.">
<polygon fill="white" stroke="black" points="744,-117.96 744,-136.96 870,-136.96 870,-117.96 744,-117.96"/>
<text text-anchor="middle" x="807" y="-124.96" font-family="Helvetica,sans-Serif" font-size="10.00">irr::IReferenceCounted</text>
</a>
</g>
</g>
<!-- Node16&#45;&gt;Node15 -->
<g id="edge15" class="edge">
<title>Node16&#45;&gt;Node15</title>
<path fill="none" stroke="midnightblue" d="M880.36,-125.92C915.51,-128.56 956.61,-137.01 987,-159.46 1030.68,-191.72 1049.07,-259.48 1054.58,-284.72"/>
<polygon fill="midnightblue" stroke="midnightblue" points="880.33,-122.42 870.14,-125.31 879.91,-129.4 880.33,-122.42"/>
</g>
<!-- Node17 -->
<g id="node17" class="node">
<title>Node17</title>
<g id="a_node17"><a xlink:title=" ">
<polygon fill="white" stroke="#bfbfbf" points="480,-106.96 480,-125.96 518,-125.96 518,-106.96 480,-106.96"/>
<text text-anchor="middle" x="499" y="-113.96" font-family="Helvetica,sans-Serif" font-size="10.00">char</text>
</a>
</g>
</g>
<!-- Node17&#45;&gt;Node16 -->
<g id="edge16" class="edge">
<title>Node17&#45;&gt;Node16</title>
<path fill="none" stroke="#9a32cd" stroke-dasharray="5,2" d="M528.4,-116.61C571.24,-116.94 654.96,-118.01 726,-121.46 731.7,-121.74 737.63,-122.08 743.57,-122.46"/>
<polygon fill="#9a32cd" stroke="#9a32cd" points="528.2,-113.11 518.17,-116.54 528.15,-120.11 528.2,-113.11"/>
<text text-anchor="middle" x="659.5" y="-124.46" font-family="Helvetica,sans-Serif" font-size="10.00"> DebugName</text>
</g>
<!-- Node18 -->
<g id="node18" class="node">
<title>Node18</title>
<g id="a_node18"><a xlink:title=" ">
<polygon fill="white" stroke="#bfbfbf" points="474,-144.96 474,-163.96 524,-163.96 524,-144.96 474,-144.96"/>
<text text-anchor="middle" x="499" y="-151.96" font-family="Helvetica,sans-Serif" font-size="10.00">int32_t</text>
</a>
</g>
</g>
<!-- Node18&#45;&gt;Node16 -->
<g id="edge17" class="edge">
<title>Node18&#45;&gt;Node16</title>
<path fill="none" stroke="#9a32cd" stroke-dasharray="5,2" d="M534.1,-151.45C584.73,-146.99 680.6,-138.53 743.9,-132.94"/>
<polygon fill="#9a32cd" stroke="#9a32cd" points="533.66,-147.98 524.01,-152.34 534.28,-154.95 533.66,-147.98"/>
<text text-anchor="middle" x="659.5" y="-149.46" font-family="Helvetica,sans-Serif" font-size="10.00"> ReferenceCounter</text>
</g>
<!-- Node19&#45;&gt;Node15 -->
<g id="edge18" class="edge">
<title>Node19&#45;&gt;Node15</title>
<path fill="none" stroke="#9a32cd" stroke-dasharray="5,2" d="M879.03,-204.86C913.11,-205.33 953.67,-209.96 987,-225.46 1015.67,-238.8 1039.37,-269.18 1050.18,-284.8"/>
<polygon fill="#9a32cd" stroke="#9a32cd" points="878.68,-201.36 868.68,-204.84 878.67,-208.36 878.68,-201.36"/>
<text text-anchor="middle" x="937.5" y="-239.46" font-family="Helvetica,sans-Serif" font-size="10.00"> Size</text>
<text text-anchor="middle" x="937.5" y="-228.46" font-family="Helvetica,sans-Serif" font-size="10.00">OriginalSize</text>
</g>
<!-- Node20&#45;&gt;Node19 -->
<g id="edge20" class="edge">
<title>Node20&#45;&gt;Node19</title>
<path fill="none" stroke="orange" stroke-dasharray="5,2" d="M585.07,-187.48C627.53,-186.16 679.61,-186.31 726,-191.46 732.51,-192.18 739.26,-193.23 745.96,-194.46"/>
<polygon fill="orange" stroke="orange" points="584.92,-183.98 575.05,-187.82 585.16,-190.98 584.92,-183.98"/>
<text text-anchor="middle" x="659.5" y="-194.46" font-family="Helvetica,sans-Serif" font-size="10.00"> &lt; u32 &gt;</text>
</g>
<!-- Node21 -->
<g id="node21" class="node">
<title>Node21</title>
<g id="a_node21"><a xlink:title=" ">
<polygon fill="white" stroke="#bfbfbf" points="747.5,-366.96 747.5,-385.96 866.5,-385.96 866.5,-366.96 747.5,-366.96"/>
<text text-anchor="middle" x="807" y="-373.96" font-family="Helvetica,sans-Serif" font-size="10.00">E_TEXTURE_SOURCE</text>
</a>
</g>
</g>
<!-- Node21&#45;&gt;Node15 -->
<g id="edge22" class="edge">
<title>Node21&#45;&gt;Node15</title>
<path fill="none" stroke="#9a32cd" stroke-dasharray="5,2" d="M876.8,-373.06C919.58,-369.71 969.63,-363.16 987,-350.46 1001.76,-339.67 991.44,-325.73 1005,-313.46 1009.24,-309.62 1014.32,-306.54 1019.62,-304.07"/>
<polygon fill="#9a32cd" stroke="#9a32cd" points="876.39,-369.58 866.68,-373.8 876.91,-376.56 876.39,-369.58"/>
<text text-anchor="middle" x="937.5" y="-375.46" font-family="Helvetica,sans-Serif" font-size="10.00"> Source</text>
</g>
<!-- Node22 -->
<g id="node22" class="node">
<title>Node22</title>
<g id="a_node22"><a xlink:title=" ">
<polygon fill="white" stroke="#bfbfbf" points="755.5,-328.96 755.5,-347.96 858.5,-347.96 858.5,-328.96 755.5,-328.96"/>
<text text-anchor="middle" x="807" y="-335.96" font-family="Helvetica,sans-Serif" font-size="10.00">ECOLOR_FORMAT</text>
</a>
</g>
</g>
<!-- Node22&#45;&gt;Node15 -->
<g id="edge23" class="edge">
<title>Node22&#45;&gt;Node15</title>
<path fill="none" stroke="#9a32cd" stroke-dasharray="5,2" d="M868.61,-327.73C910.29,-320.35 965.06,-310.65 1004.7,-303.63"/>
<polygon fill="#9a32cd" stroke="#9a32cd" points="867.82,-324.31 858.59,-329.5 869.04,-331.21 867.82,-324.31"/>
<text text-anchor="middle" x="937.5" y="-338.46" font-family="Helvetica,sans-Serif" font-size="10.00"> ColorFormat</text>
<text text-anchor="middle" x="937.5" y="-327.46" font-family="Helvetica,sans-Serif" font-size="10.00">OriginalColorFormat</text>
</g>
<!-- Node23 -->
<g id="node23" class="node">
<title>Node23</title>
<g id="a_node23"><a xlink:title=" ">
<polygon fill="white" stroke="#bfbfbf" points="760,-290.96 760,-309.96 854,-309.96 854,-290.96 760,-290.96"/>
<text text-anchor="middle" x="807" y="-297.96" font-family="Helvetica,sans-Serif" font-size="10.00">E_DRIVER_TYPE</text>
</a>
</g>
</g>
<!-- Node23&#45;&gt;Node15 -->
<g id="edge24" class="edge">
<title>Node23&#45;&gt;Node15</title>
<path fill="none" stroke="#9a32cd" stroke-dasharray="5,2" d="M864.13,-296.55C872.14,-296.11 880.27,-295.73 888,-295.46 927.18,-294.12 971.51,-293.91 1004.86,-294.01"/>
<polygon fill="#9a32cd" stroke="#9a32cd" points="863.87,-293.06 854.09,-297.13 864.28,-300.05 863.87,-293.06"/>
<text text-anchor="middle" x="937.5" y="-298.46" font-family="Helvetica,sans-Serif" font-size="10.00"> DriverType</text>
</g>
<!-- Node24 -->
<g id="node24" class="node">
<title>Node24</title>
<g id="a_node24"><a xlink:href="structirr_1_1io_1_1SNamedPath.html" target="_top" xlink:title="Used in places where we identify objects by a filename, but don&#39;t actually work with the real filenam...">
<polygon fill="white" stroke="black" points="752,-442.96 752,-461.96 862,-461.96 862,-442.96 752,-442.96"/>
<text text-anchor="middle" x="807" y="-449.96" font-family="Helvetica,sans-Serif" font-size="10.00">irr::io::SNamedPath</text>
</a>
</g>
</g>
<!-- Node24&#45;&gt;Node15 -->
<g id="edge26" class="edge">
<title>Node24&#45;&gt;Node15</title>
<path fill="none" stroke="#9a32cd" stroke-dasharray="5,2" d="M831.33,-437.39C846.87,-427.93 868.02,-416.11 888,-408.46 930.19,-392.31 954.79,-417.13 987,-385.46 1010.52,-362.33 982.97,-338.02 1005,-313.46 1008.5,-309.56 1012.87,-306.46 1017.58,-303.99"/>
<polygon fill="#9a32cd" stroke="#9a32cd" points="829.09,-434.66 822.45,-442.92 832.79,-440.6 829.09,-434.66"/>
<text text-anchor="middle" x="937.5" y="-411.46" font-family="Helvetica,sans-Serif" font-size="10.00"> NamedPath</text>
</g>
<!-- Node25 -->
<g id="node25" class="node">
<title>Node25</title>
<g id="a_node25"><a xlink:href="classirr_1_1core_1_1string.html" target="_top" xlink:title=" ">
<polygon fill="white" stroke="black" points="451,-437.46 451,-467.46 547,-467.46 547,-437.46 451,-437.46"/>
<text text-anchor="start" x="459" y="-455.46" font-family="Helvetica,sans-Serif" font-size="10.00">irr::core::string&lt;</text>
<text text-anchor="middle" x="499" y="-444.46" font-family="Helvetica,sans-Serif" font-size="10.00"> fschar_t &gt;</text>
</a>
</g>
</g>
<!-- Node25&#45;&gt;Node24 -->
<g id="edge27" class="edge">
<title>Node25&#45;&gt;Node24</title>
<path fill="none" stroke="#9a32cd" stroke-dasharray="5,2" d="M557.21,-452.46C612.97,-452.46 697.14,-452.46 751.83,-452.46"/>
<polygon fill="#9a32cd" stroke="#9a32cd" points="557.14,-448.96 547.14,-452.46 557.14,-455.96 557.14,-448.96"/>
<text text-anchor="middle" x="659.5" y="-466.46" font-family="Helvetica,sans-Serif" font-size="10.00"> Path</text>
<text text-anchor="middle" x="659.5" y="-455.46" font-family="Helvetica,sans-Serif" font-size="10.00">InternalName</text>
</g>
<!-- Node26 -->
<g id="node26" class="node">
<title>Node26</title>
<g id="a_node26"><a xlink:title=" ">
<polygon fill="white" stroke="#bfbfbf" points="185,-404.96 185,-423.96 322,-423.96 322,-404.96 185,-404.96"/>
<text text-anchor="middle" x="253.5" y="-411.96" font-family="Helvetica,sans-Serif" font-size="10.00">basic_string&lt; fschar_t &gt;</text>
</a>
</g>
</g>
<!-- Node26&#45;&gt;Node25 -->
<g id="edge28" class="edge">
<title>Node26&#45;&gt;Node25</title>
<path fill="none" stroke="#9a32cd" stroke-dasharray="5,2" d="M327.49,-425.49C352.11,-429.25 379.76,-433.5 405,-437.46 419.86,-439.8 436.06,-442.39 450.7,-444.76"/>
<polygon fill="#9a32cd" stroke="#9a32cd" points="327.9,-422.01 317.49,-423.97 326.85,-428.94 327.9,-422.01"/>
<text text-anchor="middle" x="372.5" y="-440.46" font-family="Helvetica,sans-Serif" font-size="10.00"> str</text>
</g>
<!-- Node27 -->
<g id="node27" class="node">
<title>Node27</title>
<g id="a_node27"><a xlink:title=" ">
<polygon fill="white" stroke="#bfbfbf" points="0,-477.96 0,-496.96 122,-496.96 122,-477.96 0,-477.96"/>
<text text-anchor="middle" x="61" y="-484.96" font-family="Helvetica,sans-Serif" font-size="10.00">static const size_type</text>
</a>
</g>
</g>
<!-- Node27&#45;&gt;Node25 -->
<g id="edge29" class="edge">
<title>Node27&#45;&gt;Node25</title>
<path fill="none" stroke="#9a32cd" stroke-dasharray="5,2" d="M132.67,-485.71C202.16,-483.43 311.16,-478.36 405,-467.46 419.95,-465.73 436.16,-463.3 450.8,-460.91"/>
<polygon fill="#9a32cd" stroke="#9a32cd" points="132.17,-482.22 122.28,-486.04 132.39,-489.22 132.17,-482.22"/>
<text text-anchor="middle" x="253.5" y="-486.46" font-family="Helvetica,sans-Serif" font-size="10.00"> npos</text>
</g>
<!-- Node28 -->
<g id="node28" class="node">
<title>Node28</title>
<g id="a_node28"><a xlink:href="classirr_1_1core_1_1string.html" target="_top" xlink:title="Very simple string class with some useful features.">
<polygon fill="white" stroke="black" points="195.5,-442.96 195.5,-461.96 311.5,-461.96 311.5,-442.96 195.5,-442.96"/>
<text text-anchor="middle" x="253.5" y="-449.96" font-family="Helvetica,sans-Serif" font-size="10.00">irr::core::string&lt; T &gt;</text>
</a>
</g>
</g>
<!-- Node27&#45;&gt;Node28 -->
<g id="edge32" class="edge">
<title>Node27&#45;&gt;Node28</title>
<path fill="none" stroke="#9a32cd" stroke-dasharray="5,2" d="M123.85,-476.1C148.68,-471.54 176.98,-466.34 200.71,-461.98"/>
<polygon fill="#9a32cd" stroke="#9a32cd" points="123.01,-472.69 113.8,-477.94 124.27,-479.58 123.01,-472.69"/>
<text text-anchor="middle" x="153.5" y="-476.46" font-family="Helvetica,sans-Serif" font-size="10.00"> npos</text>
</g>
<!-- Node28&#45;&gt;Node25 -->
<g id="edge30" class="edge">
<title>Node28&#45;&gt;Node25</title>
<path fill="none" stroke="orange" stroke-dasharray="5,2" d="M321.76,-452.46C362.7,-452.46 414,-452.46 450.68,-452.46"/>
<polygon fill="orange" stroke="orange" points="321.59,-448.96 311.59,-452.46 321.59,-455.96 321.59,-448.96"/>
<text text-anchor="middle" x="372.5" y="-455.46" font-family="Helvetica,sans-Serif" font-size="10.00"> &lt; fschar_t &gt;</text>
</g>
<!-- Node29 -->
<g id="node29" class="node">
<title>Node29</title>
<g id="a_node29"><a xlink:title=" ">
<polygon fill="white" stroke="#bfbfbf" points="9,-428.96 9,-447.96 113,-447.96 113,-428.96 9,-428.96"/>
<text text-anchor="middle" x="61" y="-435.96" font-family="Helvetica,sans-Serif" font-size="10.00">basic_string&lt; T &gt;</text>
</a>
</g>
</g>
<!-- Node29&#45;&gt;Node28 -->
<g id="edge31" class="edge">
<title>Node29&#45;&gt;Node28</title>
<path fill="none" stroke="#9a32cd" stroke-dasharray="5,2" d="M123.33,-437.59C137.68,-437.79 152.89,-438.33 167,-439.46 176.88,-440.26 187.35,-441.5 197.44,-442.92"/>
<polygon fill="#9a32cd" stroke="#9a32cd" points="123.1,-434.09 113.07,-437.5 123.04,-441.09 123.1,-434.09"/>
<text text-anchor="middle" x="153.5" y="-442.46" font-family="Helvetica,sans-Serif" font-size="10.00"> str</text>
</g>
<!-- Node30 -->
<g id="node30" class="node">
<title>Node30</title>
<g id="a_node30"><a xlink:href="classbool.html" target="_top" xlink:title=" ">
<polygon fill="white" stroke="black" points="788,-511.96 788,-530.96 826,-530.96 826,-511.96 788,-511.96"/>
<text text-anchor="middle" x="807" y="-518.96" font-family="Helvetica,sans-Serif" font-size="10.00">bool</text>
</a>
</g>
</g>
<!-- Node30&#45;&gt;Node4 -->
<g id="edge37" class="edge">
<title>Node30&#45;&gt;Node4</title>
<path fill="none" stroke="#9a32cd" stroke-dasharray="5,2" d="M836.57,-522.41C874.89,-523.64 945.06,-525.7 1005,-526.46 1051.66,-527.05 1063.75,-532.66 1110,-526.46 1160.23,-519.74 1172.26,-513.47 1220,-496.46 1228.25,-493.52 1229.44,-490.28 1238,-488.46 1298.87,-475.54 1315.81,-486.46 1378,-488.46 1440.32,-490.46 1456.77,-485.69 1518,-497.46 1522.68,-498.36 1544.78,-505.65 1563.54,-511.96"/>
<polygon fill="#9a32cd" stroke="#9a32cd" points="836.3,-518.9 826.19,-522.08 836.08,-525.9 836.3,-518.9"/>
<text text-anchor="middle" x="1174" y="-614.46" font-family="Helvetica,sans-Serif" font-size="10.00"> Lighting</text>
<text text-anchor="middle" x="1174" y="-603.46" font-family="Helvetica,sans-Serif" font-size="10.00">FogEnable</text>
<text text-anchor="middle" x="1174" y="-592.46" font-family="Helvetica,sans-Serif" font-size="10.00">Wireframe</text>
<text text-anchor="middle" x="1174" y="-581.46" font-family="Helvetica,sans-Serif" font-size="10.00">NormalizeNormals</text>
<text text-anchor="middle" x="1174" y="-570.46" font-family="Helvetica,sans-Serif" font-size="10.00">FrontfaceCulling</text>
<text text-anchor="middle" x="1174" y="-559.46" font-family="Helvetica,sans-Serif" font-size="10.00">GouraudShading</text>
<text text-anchor="middle" x="1174" y="-548.46" font-family="Helvetica,sans-Serif" font-size="10.00">PointCloud</text>
<text text-anchor="middle" x="1174" y="-537.46" font-family="Helvetica,sans-Serif" font-size="10.00">BackfaceCulling</text>
<text text-anchor="middle" x="1174" y="-526.46" font-family="Helvetica,sans-Serif" font-size="10.00">UseMipMaps</text>
</g>
<!-- Node30&#45;&gt;Node11 -->
<g id="edge35" class="edge">
<title>Node30&#45;&gt;Node11</title>
<path fill="none" stroke="#9a32cd" stroke-dasharray="5,2" d="M836.38,-518.82C928.39,-510.2 1212.96,-483.05 1220,-476.46 1253.61,-445 1215.33,-414.53 1238,-374.46 1250.51,-352.35 1274.33,-334.44 1290.44,-324.12"/>
<polygon fill="#9a32cd" stroke="#9a32cd" points="835.77,-515.36 826.14,-519.78 836.43,-522.33 835.77,-515.36"/>
<text text-anchor="middle" x="1057.5" y="-515.46" font-family="Helvetica,sans-Serif" font-size="10.00"> TrilinearFilter</text>
<text text-anchor="middle" x="1057.5" y="-504.46" font-family="Helvetica,sans-Serif" font-size="10.00">BilinearFilter</text>
</g>
<!-- Node30&#45;&gt;Node15 -->
<g id="edge33" class="edge">
<title>Node30&#45;&gt;Node15</title>
<path fill="none" stroke="#9a32cd" stroke-dasharray="5,2" d="M831.78,-505.82C844.22,-496.82 859.1,-484.68 870,-471.46 880.88,-458.27 874.2,-447.56 888,-437.46 924.09,-411.05 955.56,-451.27 987,-419.46 1020.59,-385.48 974.48,-350.23 1005,-313.46 1008.23,-309.57 1012.32,-306.48 1016.79,-304.02"/>
<polygon fill="#9a32cd" stroke="#9a32cd" points="829.42,-503.2 823.23,-511.8 833.43,-508.94 829.42,-503.2"/>
<text text-anchor="middle" x="937.5" y="-451.46" font-family="Helvetica,sans-Serif" font-size="10.00"> IsRenderTarget</text>
<text text-anchor="middle" x="937.5" y="-440.46" font-family="Helvetica,sans-Serif" font-size="10.00">HasMipMaps</text>
</g>
<!-- Node30&#45;&gt;Node34 -->
<g id="edge42" class="edge">
<title>Node30&#45;&gt;Node34</title>
<path fill="none" stroke="#9a32cd" stroke-dasharray="5,2" d="M835.3,-534.81C902.09,-566.72 1079.8,-647.15 1238,-679.46 1349.99,-702.34 1485.85,-701.47 1551.78,-699.29"/>
<polygon fill="#9a32cd" stroke="#9a32cd" points="836.8,-531.65 826.27,-530.47 833.77,-537.96 836.8,-531.65"/>
<text text-anchor="middle" x="1174" y="-678.46" font-family="Helvetica,sans-Serif" font-size="10.00"> m_clear</text>
</g>
<!-- Node31 -->
<g id="node31" class="node">
<title>Node31</title>
<g id="a_node31"><a xlink:title=" ">
<polygon fill="white" stroke="#bfbfbf" points="756,-155.96 756,-174.96 858,-174.96 858,-155.96 756,-155.96"/>
<text text-anchor="middle" x="807" y="-162.96" font-family="Helvetica,sans-Serif" font-size="10.00">E_TEXTURE_TYPE</text>
</a>
</g>
</g>
<!-- Node31&#45;&gt;Node15 -->
<g id="edge34" class="edge">
<title>Node31&#45;&gt;Node15</title>
<path fill="none" stroke="#9a32cd" stroke-dasharray="5,2" d="M868.16,-161.88C905.04,-162.44 951.77,-168.36 987,-190.46 1023.61,-213.43 1045.3,-263.53 1053.14,-284.71"/>
<polygon fill="#9a32cd" stroke="#9a32cd" points="868.05,-158.38 858.04,-161.85 868.03,-165.38 868.05,-158.38"/>
<text text-anchor="middle" x="937.5" y="-193.46" font-family="Helvetica,sans-Serif" font-size="10.00"> Type</text>
</g>
<!-- Node32 -->
<g id="node32" class="node">
<title>Node32</title>
<g id="a_node32"><a xlink:title=" ">
<polygon fill="white" stroke="#bfbfbf" points="1032.5,-4.96 1032.5,-23.96 1082.5,-23.96 1082.5,-4.96 1032.5,-4.96"/>
<text text-anchor="middle" x="1057.5" y="-11.96" font-family="Helvetica,sans-Serif" font-size="10.00">uint8_t</text>
</a>
</g>
</g>
<!-- Node32&#45;&gt;Node4 -->
<g id="edge38" class="edge">
<title>Node32&#45;&gt;Node4</title>
<path fill="none" stroke="#9a32cd" stroke-dasharray="5,2" d="M1092.42,-6.22C1126.14,0.25 1178.66,5.62 1220,-11.46 1392.82,-82.87 1438.39,-139.27 1518,-308.46 1536.43,-347.64 1509.22,-468.44 1536,-502.46 1539.02,-506.3 1542.86,-509.37 1547.11,-511.82"/>
<polygon fill="#9a32cd" stroke="#9a32cd" points="1091.68,-2.8 1082.59,-8.24 1093.09,-9.66 1091.68,-2.8"/>
<text text-anchor="middle" x="1308" y="-145.46" font-family="Helvetica,sans-Serif" font-size="10.00"> PolygonOffsetFactor</text>
<text text-anchor="middle" x="1308" y="-134.46" font-family="Helvetica,sans-Serif" font-size="10.00">AntiAliasing</text>
<text text-anchor="middle" x="1308" y="-123.46" font-family="Helvetica,sans-Serif" font-size="10.00">ZBuffer</text>
<text text-anchor="middle" x="1308" y="-112.46" font-family="Helvetica,sans-Serif" font-size="10.00">ColorMaterial</text>
<text text-anchor="middle" x="1308" y="-101.46" font-family="Helvetica,sans-Serif" font-size="10.00">ColorMask</text>
</g>
<!-- Node32&#45;&gt;Node11 -->
<g id="edge36" class="edge">
<title>Node32&#45;&gt;Node11</title>
<path fill="none" stroke="#9a32cd" stroke-dasharray="5,2" d="M1092.86,-13.77C1134.44,-13.66 1201.23,-16.01 1220,-31.46 1242.47,-49.96 1293.28,-257.26 1304.7,-304.79"/>
<polygon fill="#9a32cd" stroke="#9a32cd" points="1092.59,-10.28 1082.62,-13.85 1092.64,-17.28 1092.59,-10.28"/>
<text text-anchor="middle" x="1174" y="-67.46" font-family="Helvetica,sans-Serif" font-size="10.00"> AnisotropicFilter</text>
<text text-anchor="middle" x="1174" y="-56.46" font-family="Helvetica,sans-Serif" font-size="10.00">TextureWrapU</text>
<text text-anchor="middle" x="1174" y="-45.46" font-family="Helvetica,sans-Serif" font-size="10.00">TextureWrapV</text>
<text text-anchor="middle" x="1174" y="-34.46" font-family="Helvetica,sans-Serif" font-size="10.00">TextureWrapW</text>
</g>
<!-- Node33 -->
<g id="node33" class="node">
<title>Node33</title>
<g id="a_node33"><a xlink:title=" ">
<polygon fill="white" stroke="#bfbfbf" points="1255,-497.96 1255,-516.96 1361,-516.96 1361,-497.96 1255,-497.96"/>
<text text-anchor="middle" x="1308" y="-504.96" font-family="Helvetica,sans-Serif" font-size="10.00">E_MATERIAL_TYPE</text>
</a>
</g>
</g>
<!-- Node33&#45;&gt;Node4 -->
<g id="edge39" class="edge">
<title>Node33&#45;&gt;Node4</title>
<path fill="none" stroke="#9a32cd" stroke-dasharray="5,2" d="M1371.13,-503.09C1412.8,-501.08 1468.84,-500.17 1518,-505.46 1530.21,-506.77 1543.36,-509.28 1555.11,-511.93"/>
<polygon fill="#9a32cd" stroke="#9a32cd" points="1370.93,-499.59 1361.13,-503.6 1371.29,-506.58 1370.93,-499.59"/>
<text text-anchor="middle" x="1457" y="-508.46" font-family="Helvetica,sans-Serif" font-size="10.00"> MaterialType</text>
</g>
<!-- Node34&#45;&gt;Node1 -->
<g id="edge40" class="edge">
<title>Node34&#45;&gt;Node1</title>
<path fill="none" stroke="#9a32cd" stroke-dasharray="5,2" d="M1615.73,-681.98C1659.66,-651.38 1756.43,-583.99 1792.28,-559.02"/>
<polygon fill="#9a32cd" stroke="#9a32cd" points="1613.65,-679.16 1607.44,-687.75 1617.65,-684.91 1613.65,-679.16"/>
<text text-anchor="middle" x="1700" y="-647.46" font-family="Helvetica,sans-Serif" font-size="10.00"> target</text>
</g>
<!-- Node35&#45;&gt;Node1 -->
<g id="edge43" class="edge">
<title>Node35&#45;&gt;Node1</title>
<path fill="none" stroke="#9a32cd" stroke-dasharray="5,2" d="M1636.09,-760.23C1640.52,-758.46 1644.9,-756.53 1649,-754.46 1689.51,-734.03 1703.3,-730.76 1733,-696.46 1771.43,-652.09 1795.28,-583.94 1803.13,-559.02"/>
<polygon fill="#9a32cd" stroke="#9a32cd" points="1634.53,-757.08 1626.4,-763.87 1636.99,-763.63 1634.53,-757.08"/>
<text text-anchor="middle" x="1700" y="-747.46" font-family="Helvetica,sans-Serif" font-size="10.00"> source</text>
</g>
<!-- Node36 -->
<g id="node36" class="node">
<title>Node36</title>
<g id="a_node36"><a xlink:title=" ">
<polygon fill="white" stroke="#bfbfbf" points="1551.5,-473.96 1551.5,-492.96 1633.5,-492.96 1633.5,-473.96 1551.5,-473.96"/>
<text text-anchor="middle" x="1592.5" y="-480.96" font-family="Helvetica,sans-Serif" font-size="10.00">vector&lt; u8 &gt;</text>
</a>
</g>
</g>
<!-- Node36&#45;&gt;Node1 -->
<g id="edge45" class="edge">
<title>Node36&#45;&gt;Node1</title>
<path fill="none" stroke="#9a32cd" stroke-dasharray="5,2" d="M1643.47,-492.27C1670.38,-497.68 1703.93,-505.48 1733,-515.46 1752.44,-522.13 1773.62,-532.35 1788.14,-539.85"/>
<polygon fill="#9a32cd" stroke="#9a32cd" points="1643.99,-488.81 1633.51,-490.32 1642.65,-495.68 1643.99,-488.81"/>
<text text-anchor="middle" x="1700" y="-518.46" font-family="Helvetica,sans-Serif" font-size="10.00"> texture_map</text>
</g>
<!-- Node37 -->
<g id="node37" class="node">
<title>Node37</title>
<g id="a_node37"><a xlink:title=" ">
<polygon fill="white" stroke="#bfbfbf" points="1575,-435.96 1575,-454.96 1610,-454.96 1610,-435.96 1575,-435.96"/>
<text text-anchor="middle" x="1592.5" y="-442.96" font-family="Helvetica,sans-Serif" font-size="10.00">u32</text>
</a>
</g>
</g>
<!-- Node37&#45;&gt;Node1 -->
<g id="edge46" class="edge">
<title>Node37&#45;&gt;Node1</title>
<path fill="none" stroke="#9a32cd" stroke-dasharray="5,2" d="M1620.61,-448.71C1649.82,-453.09 1696.95,-462.72 1733,-482.46 1760.46,-497.5 1785.77,-525.02 1798.11,-539.67"/>
<polygon fill="#9a32cd" stroke="#9a32cd" points="1620.74,-445.2 1610.36,-447.28 1619.78,-452.13 1620.74,-445.2"/>
<text text-anchor="middle" x="1700" y="-485.46" font-family="Helvetica,sans-Serif" font-size="10.00"> shader_id</text>
</g>
</g>
</svg>
        <g id="navigator" transform="translate(0 0)" fill="#404254">
                <rect fill="#f2f5e9" fill-opacity="0.5" stroke="#606060" stroke-width=".5" x="0" y="0" width="60" height="60"/>
                <use id="zoomplus" xlink:href="#zoomPlus" x="17" y="9" onmousedown="handleZoom(evt,'in')"/>
                <use id="zoomminus" xlink:href="#zoomMin" x="42" y="9" onmousedown="handleZoom(evt,'out')"/>
                <use id="reset" xlink:href="#resetDef" x="30" y="36" onmousedown="handleReset()"/>
                <g id="arrowUp" xlink:href="#dirArrow" transform="translate(30 24)" onmousedown="handlePan(0,-1)">
                  <use xlink:href="#rim" fill="#404040">
                        <set attributeName="fill" to="#808080" begin="arrowUp.mouseover" end="arrowUp.mouseout"/>
                  </use>
                  <path fill="none" stroke="white" stroke-width="1.5" d="M0,-3.0v7 M-2.5,-0.5L0,-3.0L2.5,-0.5"/>
                </g>
                <g id="arrowRight" xlink:href="#dirArrow" transform="rotate(90) translate(36 -43)" onmousedown="handlePan(1,0)">
                  <use xlink:href="#rim" fill="#404040">
                        <set attributeName="fill" to="#808080" begin="arrowRight.mouseover" end="arrowRight.mouseout"/>
                  </use>
                  <path fill="none" stroke="white" stroke-width="1.5" d="M0,-3.0v7 M-2.5,-0.5L0,-3.0L2.5,-0.5"/>
                </g>
                <g id="arrowDown" xlink:href="#dirArrow" transform="rotate(180) translate(-30 -48)" onmousedown="handlePan(0,1)">
                  <use xlink:href="#rim" fill="#404040">
                        <set attributeName="fill" to="#808080" begin="arrowDown.mouseover" end="arrowDown.mouseout"/>
                  </use>
                  <path fill="none" stroke="white" stroke-width="1.5" d="M0,-3.0v7 M-2.5,-0.5L0,-3.0L2.5,-0.5"/>
                </g>
                <g id="arrowLeft" xlink:href="#dirArrow" transform="rotate(270) translate(-36 17)" onmousedown="handlePan(-1,0)">
                  <use xlink:href="#rim" fill="#404040">
                        <set attributeName="fill" to="#808080" begin="arrowLeft.mouseover" end="arrowLeft.mouseout"/>
                  </use>
                  <path fill="none" stroke="white" stroke-width="1.5" d="M0,-3.0v7 M-2.5,-0.5L0,-3.0L2.5,-0.5"/>
                </g>
        </g>
        <svg viewBox="0 0 15 15" width="100%" height="30px" preserveAspectRatio="xMaxYMin meet">
         <g id="arrow_out" transform="scale(0.3 0.3)">
          <a xlink:href="classPostProcessingStep__coll__graph_org.svg" target="_base">
           <rect id="button" ry="5" rx="5" y="6" x="6" height="38" width="38"
                fill="#f2f5e9" fill-opacity="0.5" stroke="#606060" stroke-width="1.0"/>
           <path id="arrow"
             d="M 11.500037,31.436501 C 11.940474,20.09759 22.043105,11.32322 32.158766,21.979434 L 37.068811,17.246167 C 37.068811,17.246167 37.088388,32 37.088388,32 L 22.160133,31.978069 C 22.160133,31.978069 26.997745,27.140456 26.997745,27.140456 C 18.528582,18.264221 13.291696,25.230495 11.500037,31.436501 z"
             style="fill:#404040;"/>
          </a>
         </g>
        </svg>
</svg>
