<?xml version="1.0" encoding="UTF-8" standalone="no"?>
<!DOCTYPE svg PUBLIC "-//W3C//DTD SVG 1.1//EN"
 "http://www.w3.org/Graphics/SVG/1.1/DTD/svg11.dtd">
<!-- Generated by graphviz version 2.43.0 (0)
 -->
<!-- Title: con::Connection Pages: 1 -->
<svg width="1060pt" height="612pt"
 viewBox="0.00 0.00 1060.00 611.50" xmlns="http://www.w3.org/2000/svg" xmlns:xlink="http://www.w3.org/1999/xlink">
<g id="graph0" class="graph" transform="scale(1 1) rotate(0) translate(4 607.5)">
<title>con::Connection</title>
<polygon fill="white" stroke="transparent" points="-4,4 -4,-607.5 1056,-607.5 1056,4 -4,4"/>
<!-- Node1 -->
<g id="node1" class="node">
<title>Node1</title>
<g id="a_node1"><a xlink:title=" ">
<polygon fill="#bfbfbf" stroke="black" points="957,-336 957,-355 1052,-355 1052,-336 957,-336"/>
<text text-anchor="middle" x="1004.5" y="-343" font-family="Helvetica,sans-Serif" font-size="10.00">con::Connection</text>
</a>
</g>
</g>
<!-- Node2 -->
<g id="node2" class="node">
<title>Node2</title>
<g id="a_node2"><a xlink:title=" ">
<polygon fill="white" stroke="#bfbfbf" points="669,-573 669,-592 785,-592 785,-573 669,-573"/>
<text text-anchor="middle" x="727" y="-580" font-family="Helvetica,sans-Serif" font-size="10.00">vector&lt; session_t &gt;</text>
</a>
</g>
</g>
<!-- Node2&#45;&gt;Node1 -->
<g id="edge1" class="edge">
<title>Node2&#45;&gt;Node1</title>
<path fill="none" stroke="#9a32cd" stroke-dasharray="5,2" d="M795.28,-592.61C840.83,-595.57 899.64,-591.32 939,-558.5 1003.4,-504.81 1004.97,-389.1 1003.95,-355.09"/>
<polygon fill="#9a32cd" stroke="#9a32cd" points="795.43,-589.11 785.19,-591.82 794.89,-596.09 795.43,-589.11"/>
<text text-anchor="middle" x="881.5" y="-595.5" font-family="Helvetica,sans-Serif" font-size="10.00"> m_peer_ids</text>
</g>
<!-- Node3 -->
<g id="node3" class="node">
<title>Node3</title>
<g id="a_node3"><a xlink:href="classcon_1_1PeerHandler.html" target="_top" xlink:title=" ">
<polygon fill="white" stroke="black" points="677,-535 677,-554 777,-554 777,-535 677,-535"/>
<text text-anchor="middle" x="727" y="-542" font-family="Helvetica,sans-Serif" font-size="10.00">con::PeerHandler</text>
</a>
</g>
</g>
<!-- Node3&#45;&gt;Node1 -->
<g id="edge2" class="edge">
<title>Node3&#45;&gt;Node1</title>
<path fill="none" stroke="#9a32cd" stroke-dasharray="5,2" d="M787.19,-544.85C841.24,-543.99 916.1,-539.42 939,-521.5 993.59,-478.78 1001.99,-385.31 1003.27,-355.11"/>
<polygon fill="#9a32cd" stroke="#9a32cd" points="786.97,-541.36 777.02,-544.98 787.06,-548.36 786.97,-541.36"/>
<text text-anchor="middle" x="881.5" y="-546.5" font-family="Helvetica,sans-Serif" font-size="10.00"> m_bc_peerhandler</text>
</g>
<!-- Node4 -->
<g id="node4" class="node">
<title>Node4</title>
<g id="a_node4"><a xlink:title=" ">
<polygon fill="white" stroke="#bfbfbf" points="709.5,-484 709.5,-503 744.5,-503 744.5,-484 709.5,-484"/>
<text text-anchor="middle" x="727" y="-491" font-family="Helvetica,sans-Serif" font-size="10.00">u16</text>
</a>
</g>
</g>
<!-- Node4&#45;&gt;Node1 -->
<g id="edge3" class="edge">
<title>Node4&#45;&gt;Node1</title>
<path fill="none" stroke="#9a32cd" stroke-dasharray="5,2" d="M754.89,-491.44C808.34,-487.15 924.11,-476.78 939,-466.5 978.97,-438.91 996.19,-378.46 1001.54,-355.03"/>
<polygon fill="#9a32cd" stroke="#9a32cd" points="754.47,-487.96 744.78,-492.24 755.02,-494.94 754.47,-487.96"/>
<text text-anchor="start" x="827.5" y="-509.5" font-family="Helvetica,sans-Serif" font-size="10.00"> m_next_remote_peer</text>
<text text-anchor="middle" x="881.5" y="-498.5" font-family="Helvetica,sans-Serif" font-size="10.00">_id</text>
<text text-anchor="middle" x="881.5" y="-487.5" font-family="Helvetica,sans-Serif" font-size="10.00">m_peer_id</text>
</g>
<!-- Node5 -->
<g id="node5" class="node">
<title>Node5</title>
<g id="a_node5"><a xlink:title=" ">
<polygon fill="white" stroke="#bfbfbf" points="154.5,-261 154.5,-280 202.5,-280 202.5,-261 154.5,-261"/>
<text text-anchor="middle" x="178.5" y="-268" font-family="Helvetica,sans-Serif" font-size="10.00">mutex</text>
</a>
</g>
</g>
<!-- Node5&#45;&gt;Node1 -->
<g id="edge4" class="edge">
<title>Node5&#45;&gt;Node1</title>
<path fill="none" stroke="#9a32cd" stroke-dasharray="5,2" d="M197.14,-286.99C219.7,-307.17 260.81,-340.92 302,-359.5 445.61,-424.26 491.4,-419.29 648,-436.5 776.93,-450.67 824.65,-475.71 939,-414.5 965.6,-400.26 987.28,-370.84 997.38,-355.42"/>
<polygon fill="#9a32cd" stroke="#9a32cd" points="199.46,-284.37 189.7,-280.23 194.75,-289.55 199.46,-284.37"/>
<text text-anchor="middle" x="557.5" y="-447.5" font-family="Helvetica,sans-Serif" font-size="10.00"> m_info_mutex</text>
<text text-anchor="middle" x="557.5" y="-436.5" font-family="Helvetica,sans-Serif" font-size="10.00">m_peers_mutex</text>
</g>
<!-- Node11 -->
<g id="node11" class="node">
<title>Node11</title>
<g id="a_node11"><a xlink:href="classMutexedQueue.html" target="_top" xlink:title=" ">
<polygon fill="white" stroke="black" points="649,-220.5 649,-250.5 805,-250.5 805,-220.5 649,-220.5"/>
<text text-anchor="start" x="657" y="-238.5" font-family="Helvetica,sans-Serif" font-size="10.00">MutexedQueue&lt; Connection</text>
<text text-anchor="middle" x="727" y="-227.5" font-family="Helvetica,sans-Serif" font-size="10.00">EventPtr &gt;</text>
</a>
</g>
</g>
<!-- Node5&#45;&gt;Node11 -->
<g id="edge14" class="edge">
<title>Node5&#45;&gt;Node11</title>
<path fill="none" stroke="#9a32cd" stroke-dasharray="5,2" d="M213,-273.76C288.27,-280.27 476.26,-292.05 630,-264.5 639.9,-262.73 660.4,-256.65 679.93,-250.51"/>
<polygon fill="#9a32cd" stroke="#9a32cd" points="213,-270.24 202.73,-272.84 212.37,-277.22 213,-270.24"/>
<text text-anchor="middle" x="384.5" y="-284.5" font-family="Helvetica,sans-Serif" font-size="10.00"> m_mutex</text>
</g>
<!-- Node15 -->
<g id="node15" class="node">
<title>Node15</title>
<g id="a_node15"><a xlink:href="classMutexedQueue.html" target="_top" xlink:title=" ">
<polygon fill="white" stroke="black" points="325,-161 325,-180 444,-180 444,-161 325,-161"/>
<text text-anchor="middle" x="384.5" y="-168" font-family="Helvetica,sans-Serif" font-size="10.00">MutexedQueue&lt; T &gt;</text>
</a>
</g>
</g>
<!-- Node5&#45;&gt;Node15 -->
<g id="edge17" class="edge">
<title>Node5&#45;&gt;Node15</title>
<path fill="none" stroke="#9a32cd" stroke-dasharray="5,2" d="M193.01,-252.87C203.11,-240.79 217.9,-225.25 234,-215.5 262.86,-198.01 299.01,-186.89 328.53,-180.08"/>
<polygon fill="#9a32cd" stroke="#9a32cd" points="190.08,-250.93 186.54,-260.92 195.53,-255.32 190.08,-250.93"/>
<text text-anchor="middle" x="259" y="-218.5" font-family="Helvetica,sans-Serif" font-size="10.00"> m_mutex</text>
</g>
<!-- Node19 -->
<g id="node19" class="node">
<title>Node19</title>
<g id="a_node19"><a xlink:href="classMutexedQueue.html" target="_top" xlink:title=" ">
<polygon fill="white" stroke="black" points="649,-83.5 649,-113.5 805,-113.5 805,-83.5 649,-83.5"/>
<text text-anchor="start" x="657" y="-101.5" font-family="Helvetica,sans-Serif" font-size="10.00">MutexedQueue&lt; Connection</text>
<text text-anchor="middle" x="727" y="-90.5" font-family="Helvetica,sans-Serif" font-size="10.00">CommandPtr &gt;</text>
</a>
</g>
</g>
<!-- Node5&#45;&gt;Node19 -->
<g id="edge24" class="edge">
<title>Node5&#45;&gt;Node19</title>
<path fill="none" stroke="#9a32cd" stroke-dasharray="5,2" d="M209.61,-256.72C233.98,-246.24 269.48,-232.47 302,-225.5 337.72,-217.85 602.26,-226.27 630,-202.5 657.35,-179.07 623.66,-150.04 648,-123.5 651.56,-119.62 655.71,-116.34 660.23,-113.57"/>
<polygon fill="#9a32cd" stroke="#9a32cd" points="207.96,-253.62 200.21,-260.84 210.77,-260.03 207.96,-253.62"/>
<text text-anchor="middle" x="384.5" y="-228.5" font-family="Helvetica,sans-Serif" font-size="10.00"> m_mutex</text>
</g>
<!-- Node6 -->
<g id="node6" class="node">
<title>Node6</title>
<g id="a_node6"><a xlink:title=" ">
<polygon fill="white" stroke="#bfbfbf" points="667.5,-396.5 667.5,-426.5 786.5,-426.5 786.5,-396.5 667.5,-396.5"/>
<text text-anchor="start" x="675.5" y="-414.5" font-family="Helvetica,sans-Serif" font-size="10.00">map&lt; session_t, con</text>
<text text-anchor="middle" x="727" y="-403.5" font-family="Helvetica,sans-Serif" font-size="10.00">::Peer * &gt;</text>
</a>
</g>
</g>
<!-- Node6&#45;&gt;Node1 -->
<g id="edge5" class="edge">
<title>Node6&#45;&gt;Node1</title>
<path fill="none" stroke="#9a32cd" stroke-dasharray="5,2" d="M796.75,-403.85C838.5,-398.12 892.53,-388.78 939,-374.5 955.2,-369.52 972.67,-361.49 985.34,-355.13"/>
<polygon fill="#9a32cd" stroke="#9a32cd" points="796.13,-400.4 786.68,-405.19 797.06,-407.34 796.13,-400.4"/>
<text text-anchor="middle" x="881.5" y="-402.5" font-family="Helvetica,sans-Serif" font-size="10.00"> m_peers</text>
</g>
<!-- Node7 -->
<g id="node7" class="node">
<title>Node7</title>
<g id="a_node7"><a xlink:href="classbool.html" target="_top" xlink:title=" ">
<polygon fill="white" stroke="black" points="708,-358 708,-377 746,-377 746,-358 708,-358"/>
<text text-anchor="middle" x="727" y="-365" font-family="Helvetica,sans-Serif" font-size="10.00">bool</text>
</a>
</g>
</g>
<!-- Node7&#45;&gt;Node1 -->
<g id="edge6" class="edge">
<title>Node7&#45;&gt;Node1</title>
<path fill="none" stroke="#9a32cd" stroke-dasharray="5,2" d="M756.22,-365.25C803.57,-361.47 899.47,-353.81 956.93,-349.22"/>
<polygon fill="#9a32cd" stroke="#9a32cd" points="755.77,-361.77 746.08,-366.06 756.32,-368.75 755.77,-361.77"/>
<text text-anchor="middle" x="881.5" y="-362.5" font-family="Helvetica,sans-Serif" font-size="10.00"> m_shutting_down</text>
</g>
<!-- Node8 -->
<g id="node8" class="node">
<title>Node8</title>
<g id="a_node8"><a xlink:title=" ">
<polygon fill="white" stroke="#bfbfbf" points="648,-308.5 648,-338.5 806,-338.5 806,-308.5 648,-308.5"/>
<text text-anchor="start" x="656" y="-326.5" font-family="Helvetica,sans-Serif" font-size="10.00">unique_ptr&lt; con::Connection</text>
<text text-anchor="middle" x="727" y="-315.5" font-family="Helvetica,sans-Serif" font-size="10.00">SendThread &gt;</text>
</a>
</g>
</g>
<!-- Node8&#45;&gt;Node1 -->
<g id="edge7" class="edge">
<title>Node8&#45;&gt;Node1</title>
<path fill="none" stroke="#9a32cd" stroke-dasharray="5,2" d="M816.77,-326.63C854.52,-328.46 898.98,-331.27 939,-335.5 944.75,-336.11 950.76,-336.87 956.72,-337.7"/>
<polygon fill="#9a32cd" stroke="#9a32cd" points="816.46,-323.11 806.31,-326.14 816.13,-330.11 816.46,-323.11"/>
<text text-anchor="middle" x="881.5" y="-338.5" font-family="Helvetica,sans-Serif" font-size="10.00"> m_sendThread</text>
</g>
<!-- Node9 -->
<g id="node9" class="node">
<title>Node9</title>
<g id="a_node9"><a xlink:href="classUDPSocket.html" target="_top" xlink:title=" ">
<polygon fill="white" stroke="black" points="692,-270 692,-289 762,-289 762,-270 692,-270"/>
<text text-anchor="middle" x="727" y="-277" font-family="Helvetica,sans-Serif" font-size="10.00">UDPSocket</text>
</a>
</g>
</g>
<!-- Node9&#45;&gt;Node1 -->
<g id="edge8" class="edge">
<title>Node9&#45;&gt;Node1</title>
<path fill="none" stroke="#9a32cd" stroke-dasharray="5,2" d="M772.28,-281.91C815.68,-285.26 883.24,-293.16 939,-311.5 957.04,-317.43 976.08,-328.09 988.76,-335.89"/>
<polygon fill="#9a32cd" stroke="#9a32cd" points="772.29,-278.4 762.06,-281.17 771.78,-285.38 772.29,-278.4"/>
<text text-anchor="middle" x="881.5" y="-314.5" font-family="Helvetica,sans-Serif" font-size="10.00"> m_udpSocket</text>
</g>
<!-- Node10 -->
<g id="node10" class="node">
<title>Node10</title>
<g id="a_node10"><a xlink:title=" ">
<polygon fill="white" stroke="#bfbfbf" points="370,-331 370,-350 399,-350 399,-331 370,-331"/>
<text text-anchor="middle" x="384.5" y="-338" font-family="Helvetica,sans-Serif" font-size="10.00">int</text>
</a>
</g>
</g>
<!-- Node10&#45;&gt;Node9 -->
<g id="edge9" class="edge">
<title>Node10&#45;&gt;Node9</title>
<path fill="none" stroke="#9a32cd" stroke-dasharray="5,2" d="M409.21,-342.75C454.33,-346.03 554.76,-348.58 630,-315.5 639.8,-311.19 638.55,-304.53 648,-299.5 661.45,-292.34 677.59,-287.66 691.69,-284.63"/>
<polygon fill="#9a32cd" stroke="#9a32cd" points="409.47,-339.26 399.22,-341.94 408.9,-346.23 409.47,-339.26"/>
<text text-anchor="middle" x="557.5" y="-368.5" font-family="Helvetica,sans-Serif" font-size="10.00"> m_timeout_ms</text>
<text text-anchor="middle" x="557.5" y="-357.5" font-family="Helvetica,sans-Serif" font-size="10.00">m_addr_family</text>
<text text-anchor="middle" x="557.5" y="-346.5" font-family="Helvetica,sans-Serif" font-size="10.00">m_handle</text>
</g>
<!-- Node11&#45;&gt;Node1 -->
<g id="edge10" class="edge">
<title>Node11&#45;&gt;Node1</title>
<path fill="none" stroke="#9a32cd" stroke-dasharray="5,2" d="M815.12,-237.15C854.99,-241.12 901.58,-250.5 939,-271.5 966.94,-287.18 988.63,-319.74 998.18,-335.93"/>
<polygon fill="#9a32cd" stroke="#9a32cd" points="815.41,-233.66 805.14,-236.25 814.78,-240.63 815.41,-233.66"/>
<text text-anchor="middle" x="881.5" y="-274.5" font-family="Helvetica,sans-Serif" font-size="10.00"> m_event_queue</text>
</g>
<!-- Node12 -->
<g id="node12" class="node">
<title>Node12</title>
<g id="a_node12"><a xlink:title=" ">
<polygon fill="white" stroke="#bfbfbf" points="302,-246 302,-265 467,-265 467,-246 302,-246"/>
<text text-anchor="middle" x="384.5" y="-253" font-family="Helvetica,sans-Serif" font-size="10.00">deque&lt; ConnectionEventPtr &gt;</text>
</a>
</g>
</g>
<!-- Node12&#45;&gt;Node11 -->
<g id="edge11" class="edge">
<title>Node12&#45;&gt;Node11</title>
<path fill="none" stroke="#9a32cd" stroke-dasharray="5,2" d="M477.26,-250.11C530.95,-246.96 597.97,-243.02 648.91,-240.03"/>
<polygon fill="#9a32cd" stroke="#9a32cd" points="476.84,-246.63 467.06,-250.71 477.25,-253.62 476.84,-246.63"/>
<text text-anchor="middle" x="557.5" y="-252.5" font-family="Helvetica,sans-Serif" font-size="10.00"> m_queue</text>
</g>
<!-- Node13 -->
<g id="node13" class="node">
<title>Node13</title>
<g id="a_node13"><a xlink:href="classSemaphore.html" target="_top" xlink:title=" ">
<polygon fill="white" stroke="black" points="142.5,-104 142.5,-123 214.5,-123 214.5,-104 142.5,-104"/>
<text text-anchor="middle" x="178.5" y="-111" font-family="Helvetica,sans-Serif" font-size="10.00">Semaphore</text>
</a>
</g>
</g>
<!-- Node13&#45;&gt;Node11 -->
<g id="edge12" class="edge">
<title>Node13&#45;&gt;Node11</title>
<path fill="none" stroke="#9a32cd" stroke-dasharray="5,2" d="M224.8,-108.29C326.66,-97.61 569.59,-78.23 630,-128.5 658.68,-152.37 622.89,-182.9 648,-210.5 651.54,-214.39 655.69,-217.68 660.19,-220.46"/>
<polygon fill="#9a32cd" stroke="#9a32cd" points="224.39,-104.81 214.82,-109.36 225.13,-111.77 224.39,-104.81"/>
<text text-anchor="middle" x="384.5" y="-104.5" font-family="Helvetica,sans-Serif" font-size="10.00"> m_signal</text>
</g>
<!-- Node13&#45;&gt;Node15 -->
<g id="edge16" class="edge">
<title>Node13&#45;&gt;Node15</title>
<path fill="none" stroke="#9a32cd" stroke-dasharray="5,2" d="M223.34,-125.75C261.03,-136.28 314.63,-151.26 349.24,-160.93"/>
<polygon fill="#9a32cd" stroke="#9a32cd" points="224.22,-122.36 213.65,-123.04 222.33,-129.1 224.22,-122.36"/>
<text text-anchor="middle" x="259" y="-144.5" font-family="Helvetica,sans-Serif" font-size="10.00"> m_signal</text>
</g>
<!-- Node13&#45;&gt;Node19 -->
<g id="edge23" class="edge">
<title>Node13&#45;&gt;Node19</title>
<path fill="none" stroke="#9a32cd" stroke-dasharray="5,2" d="M217.56,-100.87C241.49,-93.6 273.19,-85.2 302,-81.5 422.38,-66.04 563.42,-77.52 648.68,-87.67"/>
<polygon fill="#9a32cd" stroke="#9a32cd" points="216.32,-97.59 207.8,-103.9 218.39,-104.28 216.32,-97.59"/>
<text text-anchor="middle" x="384.5" y="-84.5" font-family="Helvetica,sans-Serif" font-size="10.00"> m_signal</text>
</g>
<!-- Node14 -->
<g id="node14" class="node">
<title>Node14</title>
<g id="a_node14"><a xlink:title=" ">
<polygon fill="white" stroke="#bfbfbf" points="0,-104 0,-123 47,-123 47,-104 0,-104"/>
<text text-anchor="middle" x="23.5" y="-111" font-family="Helvetica,sans-Serif" font-size="10.00">sem_t</text>
</a>
</g>
</g>
<!-- Node14&#45;&gt;Node13 -->
<g id="edge13" class="edge">
<title>Node14&#45;&gt;Node13</title>
<path fill="none" stroke="#9a32cd" stroke-dasharray="5,2" d="M57.17,-113.5C82.21,-113.5 116.71,-113.5 142.34,-113.5"/>
<polygon fill="#9a32cd" stroke="#9a32cd" points="57.08,-110 47.08,-113.5 57.08,-117 57.08,-110"/>
<text text-anchor="middle" x="94" y="-116.5" font-family="Helvetica,sans-Serif" font-size="10.00"> semaphore</text>
</g>
<!-- Node15&#45;&gt;Node11 -->
<g id="edge15" class="edge">
<title>Node15&#45;&gt;Node11</title>
<path fill="none" stroke="orange" stroke-dasharray="5,2" d="M445.25,-181.91C501.86,-192.71 587.16,-209 648.88,-220.78"/>
<polygon fill="orange" stroke="orange" points="445.86,-178.46 435.38,-180.02 444.54,-185.33 445.86,-178.46"/>
<text text-anchor="middle" x="557.5" y="-218.5" font-family="Helvetica,sans-Serif" font-size="10.00"> &lt; ConnectionEventPtr &gt;</text>
</g>
<!-- Node15&#45;&gt;Node19 -->
<g id="edge25" class="edge">
<title>Node15&#45;&gt;Node19</title>
<path fill="none" stroke="orange" stroke-dasharray="5,2" d="M440.84,-158.8C499.12,-146.47 591.1,-127.03 654.77,-113.56"/>
<polygon fill="orange" stroke="orange" points="439.78,-155.45 430.72,-160.94 441.22,-162.29 439.78,-155.45"/>
<text text-anchor="middle" x="557.5" y="-151.5" font-family="Helvetica,sans-Serif" font-size="10.00"> &lt; ConnectionCommandPtr &gt;</text>
</g>
<!-- Node16 -->
<g id="node16" class="node">
<title>Node16</title>
<g id="a_node16"><a xlink:title=" ">
<polygon fill="white" stroke="#bfbfbf" points="141,-171 141,-190 216,-190 216,-171 141,-171"/>
<text text-anchor="middle" x="178.5" y="-178" font-family="Helvetica,sans-Serif" font-size="10.00">deque&lt; T &gt;</text>
</a>
</g>
</g>
<!-- Node16&#45;&gt;Node15 -->
<g id="edge18" class="edge">
<title>Node16&#45;&gt;Node15</title>
<path fill="none" stroke="#9a32cd" stroke-dasharray="5,2" d="M226.79,-178.18C256,-176.75 293.71,-174.9 324.82,-173.38"/>
<polygon fill="#9a32cd" stroke="#9a32cd" points="226.26,-174.7 216.44,-178.69 226.6,-181.7 226.26,-174.7"/>
<text text-anchor="middle" x="259" y="-180.5" font-family="Helvetica,sans-Serif" font-size="10.00"> m_queue</text>
</g>
<!-- Node17 -->
<g id="node17" class="node">
<title>Node17</title>
<g id="a_node17"><a xlink:title=" ">
<polygon fill="white" stroke="#bfbfbf" points="709.5,-182 709.5,-201 744.5,-201 744.5,-182 709.5,-182"/>
<text text-anchor="middle" x="727" y="-189" font-family="Helvetica,sans-Serif" font-size="10.00">u32</text>
</a>
</g>
</g>
<!-- Node17&#45;&gt;Node1 -->
<g id="edge19" class="edge">
<title>Node17&#45;&gt;Node1</title>
<path fill="none" stroke="#9a32cd" stroke-dasharray="5,2" d="M754.59,-186.49C797.56,-179.94 883.06,-173.47 939,-212.5 982.35,-242.75 997.7,-310.44 1002.04,-335.72"/>
<polygon fill="#9a32cd" stroke="#9a32cd" points="753.93,-183.05 744.63,-188.13 755.07,-189.96 753.93,-183.05"/>
<text text-anchor="middle" x="881.5" y="-226.5" font-family="Helvetica,sans-Serif" font-size="10.00"> m_bc_receive_timeout</text>
<text text-anchor="middle" x="881.5" y="-215.5" font-family="Helvetica,sans-Serif" font-size="10.00">m_protocol_id</text>
</g>
<!-- Node18 -->
<g id="node18" class="node">
<title>Node18</title>
<g id="a_node18"><a xlink:title=" ">
<polygon fill="white" stroke="#bfbfbf" points="648,-132.5 648,-162.5 806,-162.5 806,-132.5 648,-132.5"/>
<text text-anchor="start" x="656" y="-150.5" font-family="Helvetica,sans-Serif" font-size="10.00">unique_ptr&lt; con::Connection</text>
<text text-anchor="middle" x="727" y="-139.5" font-family="Helvetica,sans-Serif" font-size="10.00">ReceiveThread &gt;</text>
</a>
</g>
</g>
<!-- Node18&#45;&gt;Node1 -->
<g id="edge20" class="edge">
<title>Node18&#45;&gt;Node1</title>
<path fill="none" stroke="#9a32cd" stroke-dasharray="5,2" d="M816.11,-134.99C857.3,-133.89 904.71,-140.03 939,-166.5 994.7,-209.49 1002.36,-304.86 1003.37,-335.68"/>
<polygon fill="#9a32cd" stroke="#9a32cd" points="815.91,-131.49 806.06,-135.4 816.19,-138.49 815.91,-131.49"/>
<text text-anchor="middle" x="881.5" y="-169.5" font-family="Helvetica,sans-Serif" font-size="10.00"> m_receiveThread</text>
</g>
<!-- Node19&#45;&gt;Node1 -->
<g id="edge21" class="edge">
<title>Node19&#45;&gt;Node1</title>
<path fill="none" stroke="#9a32cd" stroke-dasharray="5,2" d="M815.3,-85.99C857.1,-84.86 905.27,-91.32 939,-119.5 973.68,-148.47 996.63,-296.5 1002.19,-335.87"/>
<polygon fill="#9a32cd" stroke="#9a32cd" points="814.95,-82.5 805.1,-86.41 815.24,-89.49 814.95,-82.5"/>
<text text-anchor="middle" x="881.5" y="-122.5" font-family="Helvetica,sans-Serif" font-size="10.00"> m_command_queue</text>
</g>
<!-- Node20 -->
<g id="node20" class="node">
<title>Node20</title>
<g id="a_node20"><a xlink:title=" ">
<polygon fill="white" stroke="#bfbfbf" points="303,-0.5 303,-30.5 466,-30.5 466,-0.5 303,-0.5"/>
<text text-anchor="start" x="311" y="-18.5" font-family="Helvetica,sans-Serif" font-size="10.00">deque&lt; ConnectionCommand</text>
<text text-anchor="middle" x="384.5" y="-7.5" font-family="Helvetica,sans-Serif" font-size="10.00">Ptr &gt;</text>
</a>
</g>
</g>
<!-- Node20&#45;&gt;Node19 -->
<g id="edge22" class="edge">
<title>Node20&#45;&gt;Node19</title>
<path fill="none" stroke="#9a32cd" stroke-dasharray="5,2" d="M476.16,-16.55C523.08,-19.31 580.7,-26.22 630,-42.5 658.22,-51.82 687.22,-70.19 705.86,-83.35"/>
<polygon fill="#9a32cd" stroke="#9a32cd" points="476.19,-13.04 466.01,-16 475.81,-20.03 476.19,-13.04"/>
<text text-anchor="middle" x="557.5" y="-45.5" font-family="Helvetica,sans-Serif" font-size="10.00"> m_queue</text>
</g>
</g>
</svg>
