<?xml version="1.0" encoding="UTF-8" standalone="no"?>
<!DOCTYPE svg PUBLIC "-//W3C//DTD SVG 1.1//EN"
 "http://www.w3.org/Graphics/SVG/1.1/DTD/svg11.dtd">
<!-- Generated by graphviz version 2.43.0 (0)
 -->
<!-- Title: MapBlockBspTree Pages: 1 -->
<svg width="367pt" height="106pt"
 viewBox="0.00 0.00 366.50 106.00" xmlns="http://www.w3.org/2000/svg" xmlns:xlink="http://www.w3.org/1999/xlink">
<g id="graph0" class="graph" transform="scale(1 1) rotate(0) translate(4 102)">
<title>MapBlockBspTree</title>
<polygon fill="white" stroke="transparent" points="-4,4 -4,-102 362.5,-102 362.5,4 -4,4"/>
<!-- Node1 -->
<g id="node1" class="node">
<title>Node1</title>
<g id="a_node1"><a xlink:title=" ">
<polygon fill="#bfbfbf" stroke="black" points="183,-0.5 183,-19.5 286,-19.5 286,-0.5 183,-0.5"/>
<text text-anchor="middle" x="234.5" y="-7.5" font-family="Helvetica,sans-Serif" font-size="10.00">MapBlockBspTree</text>
</a>
</g>
</g>
<!-- Node2 -->
<g id="node2" class="node">
<title>Node2</title>
<g id="a_node2"><a xlink:title=" ">
<polygon fill="white" stroke="#bfbfbf" points="0,-67.5 0,-97.5 145,-97.5 145,-67.5 0,-67.5"/>
<text text-anchor="start" x="8" y="-85.5" font-family="Helvetica,sans-Serif" font-size="10.00">vector&lt; MapBlockBspTree</text>
<text text-anchor="middle" x="72.5" y="-74.5" font-family="Helvetica,sans-Serif" font-size="10.00">::TreeNode &gt;</text>
</a>
</g>
</g>
<!-- Node2&#45;&gt;Node1 -->
<g id="edge1" class="edge">
<title>Node2&#45;&gt;Node1</title>
<path fill="none" stroke="#9a32cd" stroke-dasharray="5,2" d="M114.14,-63.38C146.54,-49.28 190.04,-30.35 214.89,-19.53"/>
<polygon fill="#9a32cd" stroke="#9a32cd" points="112.67,-60.2 104.89,-67.4 115.46,-66.62 112.67,-60.2"/>
<text text-anchor="middle" x="185" y="-41" font-family="Helvetica,sans-Serif" font-size="10.00"> nodes</text>
</g>
<!-- Node3 -->
<g id="node3" class="node">
<title>Node3</title>
<g id="a_node3"><a xlink:title=" ">
<polygon fill="white" stroke="#bfbfbf" points="163,-73 163,-92 306,-92 306,-73 163,-73"/>
<text text-anchor="middle" x="234.5" y="-80" font-family="Helvetica,sans-Serif" font-size="10.00">vector&lt; MeshTriangle &gt; *</text>
</a>
</g>
</g>
<!-- Node3&#45;&gt;Node1 -->
<g id="edge2" class="edge">
<title>Node3&#45;&gt;Node1</title>
<path fill="none" stroke="#9a32cd" stroke-dasharray="5,2" d="M234.5,-62.44C234.5,-48.53 234.5,-30.32 234.5,-19.72"/>
<polygon fill="#9a32cd" stroke="#9a32cd" points="231,-62.86 234.5,-72.86 238,-62.86 231,-62.86"/>
<text text-anchor="middle" x="257.5" y="-41" font-family="Helvetica,sans-Serif" font-size="10.00"> triangles</text>
</g>
<!-- Node4 -->
<g id="node4" class="node">
<title>Node4</title>
<g id="a_node4"><a xlink:title=" ">
<polygon fill="white" stroke="#bfbfbf" points="324.5,-73 324.5,-92 358.5,-92 358.5,-73 324.5,-73"/>
<text text-anchor="middle" x="341.5" y="-80" font-family="Helvetica,sans-Serif" font-size="10.00">s32</text>
</a>
</g>
</g>
<!-- Node4&#45;&gt;Node1 -->
<g id="edge3" class="edge">
<title>Node4&#45;&gt;Node1</title>
<path fill="none" stroke="#9a32cd" stroke-dasharray="5,2" d="M323.4,-66.52C312.45,-57.76 298.03,-46.74 284.5,-38 274.06,-31.26 261.78,-24.61 252.01,-19.6"/>
<polygon fill="#9a32cd" stroke="#9a32cd" points="321.38,-69.39 331.35,-72.98 325.79,-63.96 321.38,-69.39"/>
<text text-anchor="middle" x="310" y="-41" font-family="Helvetica,sans-Serif" font-size="10.00"> root</text>
</g>
</g>
</svg>
