<?xml version="1.0" encoding="UTF-8" standalone="no"?>
<!DOCTYPE svg PUBLIC "-//W3C//DTD SVG 1.1//EN"
 "http://www.w3.org/Graphics/SVG/1.1/DTD/svg11.dtd">
<!-- Generated by graphviz version 2.43.0 (0)
 -->
<!-- Title: ExtrusionMeshCache Pages: 1 -->
<svg width="355pt" height="219pt"
 viewBox="0.00 0.00 355.00 219.00" xmlns="http://www.w3.org/2000/svg" xmlns:xlink="http://www.w3.org/1999/xlink">
<g id="graph0" class="graph" transform="scale(1 1) rotate(0) translate(4 215)">
<title>ExtrusionMeshCache</title>
<polygon fill="white" stroke="transparent" points="-4,4 -4,-215 351,-215 351,4 -4,4"/>
<!-- Node1 -->
<g id="node1" class="node">
<title>Node1</title>
<g id="a_node1"><a xlink:title=" ">
<polygon fill="#bfbfbf" stroke="black" points="68.5,-0.5 68.5,-19.5 187.5,-19.5 187.5,-0.5 68.5,-0.5"/>
<text text-anchor="middle" x="128" y="-7.5" font-family="Helvetica,sans-Serif" font-size="10.00">ExtrusionMeshCache</text>
</a>
</g>
</g>
<!-- Node2 -->
<g id="node2" class="node">
<title>Node2</title>
<g id="a_node2"><a xlink:href="classirr_1_1IReferenceCounted.html" target="_top" xlink:title="Base class of most objects of the Irrlicht Engine.">
<polygon fill="white" stroke="black" points="0,-124.5 0,-143.5 126,-143.5 126,-124.5 0,-124.5"/>
<text text-anchor="middle" x="63" y="-131.5" font-family="Helvetica,sans-Serif" font-size="10.00">irr::IReferenceCounted</text>
</a>
</g>
</g>
<!-- Node2&#45;&gt;Node1 -->
<g id="edge1" class="edge">
<title>Node2&#45;&gt;Node1</title>
<path fill="none" stroke="midnightblue" d="M61.66,-114.19C61.45,-100.45 62.81,-81.72 70,-67 80.07,-46.37 101.04,-29.19 114.81,-19.51"/>
<polygon fill="midnightblue" stroke="midnightblue" points="58.17,-114.53 62.11,-124.37 65.16,-114.22 58.17,-114.53"/>
</g>
<!-- Node6 -->
<g id="node6" class="node">
<title>Node6</title>
<g id="a_node6"><a xlink:href="classirr_1_1scene_1_1IMesh.html" target="_top" xlink:title="Class which holds the geometry of an object.">
<polygon fill="white" stroke="black" points="79.5,-67.5 79.5,-86.5 176.5,-86.5 176.5,-67.5 79.5,-67.5"/>
<text text-anchor="middle" x="128" y="-74.5" font-family="Helvetica,sans-Serif" font-size="10.00">irr::scene::IMesh</text>
</a>
</g>
</g>
<!-- Node2&#45;&gt;Node6 -->
<g id="edge6" class="edge">
<title>Node2&#45;&gt;Node6</title>
<path fill="none" stroke="midnightblue" d="M81.07,-117.71C92.88,-107.72 107.88,-95.02 117.7,-86.71"/>
<polygon fill="midnightblue" stroke="midnightblue" points="78.53,-115.27 73.16,-124.41 83.05,-120.62 78.53,-115.27"/>
</g>
<!-- Node3 -->
<g id="node3" class="node">
<title>Node3</title>
<g id="a_node3"><a xlink:title=" ">
<polygon fill="white" stroke="#bfbfbf" points="1,-191.5 1,-210.5 39,-210.5 39,-191.5 1,-191.5"/>
<text text-anchor="middle" x="20" y="-198.5" font-family="Helvetica,sans-Serif" font-size="10.00">char</text>
</a>
</g>
</g>
<!-- Node3&#45;&gt;Node2 -->
<g id="edge2" class="edge">
<title>Node3&#45;&gt;Node2</title>
<path fill="none" stroke="#9a32cd" stroke-dasharray="5,2" d="M17.05,-181.26C16.9,-174.8 17.76,-167.75 21,-162 25.51,-153.99 33.48,-147.99 41.28,-143.7"/>
<polygon fill="#9a32cd" stroke="#9a32cd" points="13.57,-181.63 18.03,-191.24 20.54,-180.95 13.57,-181.63"/>
<text text-anchor="middle" x="53" y="-165" font-family="Helvetica,sans-Serif" font-size="10.00"> DebugName</text>
</g>
<!-- Node4 -->
<g id="node4" class="node">
<title>Node4</title>
<g id="a_node4"><a xlink:title=" ">
<polygon fill="white" stroke="#bfbfbf" points="82,-191.5 82,-210.5 132,-210.5 132,-191.5 82,-191.5"/>
<text text-anchor="middle" x="107" y="-198.5" font-family="Helvetica,sans-Serif" font-size="10.00">int32_t</text>
</a>
</g>
</g>
<!-- Node4&#45;&gt;Node2 -->
<g id="edge3" class="edge">
<title>Node4&#45;&gt;Node2</title>
<path fill="none" stroke="#9a32cd" stroke-dasharray="5,2" d="M97.65,-182.52C93.93,-175.94 89.48,-168.49 85,-162 80.6,-155.63 75.1,-148.88 70.7,-143.72"/>
<polygon fill="#9a32cd" stroke="#9a32cd" points="94.6,-184.23 102.48,-191.31 100.73,-180.86 94.6,-184.23"/>
<text text-anchor="middle" x="137.5" y="-165" font-family="Helvetica,sans-Serif" font-size="10.00"> ReferenceCounter</text>
</g>
<!-- Node5 -->
<g id="node5" class="node">
<title>Node5</title>
<g id="a_node5"><a xlink:title=" ">
<polygon fill="white" stroke="#bfbfbf" points="195,-67.5 195,-86.5 347,-86.5 347,-67.5 195,-67.5"/>
<text text-anchor="middle" x="271" y="-74.5" font-family="Helvetica,sans-Serif" font-size="10.00">map&lt; int, scene::IMesh * &gt;</text>
</a>
</g>
</g>
<!-- Node5&#45;&gt;Node1 -->
<g id="edge4" class="edge">
<title>Node5&#45;&gt;Node1</title>
<path fill="none" stroke="#9a32cd" stroke-dasharray="5,2" d="M242.65,-63.11C214.33,-50.24 171.57,-30.81 147.07,-19.67"/>
<polygon fill="#9a32cd" stroke="#9a32cd" points="241.46,-66.42 252.01,-67.37 244.36,-60.04 241.46,-66.42"/>
<text text-anchor="middle" x="262" y="-41" font-family="Helvetica,sans-Serif" font-size="10.00"> m_extrusion_meshes</text>
</g>
<!-- Node6&#45;&gt;Node1 -->
<g id="edge5" class="edge">
<title>Node6&#45;&gt;Node1</title>
<path fill="none" stroke="#9a32cd" stroke-dasharray="5,2" d="M128,-57.04C128,-44.67 128,-29.12 128,-19.63"/>
<polygon fill="#9a32cd" stroke="#9a32cd" points="124.5,-57.23 128,-67.23 131.5,-57.23 124.5,-57.23"/>
<text text-anchor="middle" x="149" y="-41" font-family="Helvetica,sans-Serif" font-size="10.00"> m_cube</text>
</g>
</g>
</svg>
