<?xml version="1.0" encoding="UTF-8" standalone="no"?>
<!DOCTYPE svg PUBLIC "-//W3C//DTD SVG 1.1//EN"
 "http://www.w3.org/Graphics/SVG/1.1/DTD/svg11.dtd">
<!-- Generated by graphviz version 2.43.0 (0)
 -->
<!-- Title: irr::video::COpenGL3Renderer2D::OnSetMaterial Pages: 1 -->
<svg width="779pt" height="176pt"
 viewBox="0.00 0.00 779.00 175.50" xmlns="http://www.w3.org/2000/svg" xmlns:xlink="http://www.w3.org/1999/xlink">
<g id="graph0" class="graph" transform="scale(1 1) rotate(0) translate(4 171.5)">
<title>irr::video::COpenGL3Renderer2D::OnSetMaterial</title>
<polygon fill="white" stroke="transparent" points="-4,4 -4,-171.5 775,-171.5 775,4 -4,4"/>
<!-- Node1 -->
<g id="node1" class="node">
<title>Node1</title>
<g id="a_node1"><a xlink:title="Called by the IVideoDriver implementation the let the renderer set its needed render states.">
<polygon fill="#bfbfbf" stroke="black" points="0,-48.5 0,-78.5 167,-78.5 167,-48.5 0,-48.5"/>
<text text-anchor="start" x="8" y="-66.5" font-family="Helvetica,sans-Serif" font-size="10.00">irr::video::COpenGL3Renderer2</text>
<text text-anchor="middle" x="83.5" y="-55.5" font-family="Helvetica,sans-Serif" font-size="10.00">D::OnSetMaterial</text>
</a>
</g>
</g>
<!-- Node2 -->
<g id="node2" class="node">
<title>Node2</title>
<g id="a_node2"><a xlink:href="classirr_1_1video_1_1COpenGL3DriverBase.html#a4c11370797f2106f635bf2a57bfc8a60" target="_top" xlink:title="Can be called by an IMaterialRenderer to make its work easier.">
<polygon fill="white" stroke="black" points="217.5,-73.5 217.5,-103.5 370.5,-103.5 370.5,-73.5 217.5,-73.5"/>
<text text-anchor="start" x="225.5" y="-91.5" font-family="Helvetica,sans-Serif" font-size="10.00">irr::video::COpenGL3Driver</text>
<text text-anchor="middle" x="294" y="-80.5" font-family="Helvetica,sans-Serif" font-size="10.00">Base::setBasicRenderStates</text>
</a>
</g>
</g>
<!-- Node1&#45;&gt;Node2 -->
<g id="edge1" class="edge">
<title>Node1&#45;&gt;Node2</title>
<path fill="none" stroke="midnightblue" d="M167.2,-73.42C180.34,-74.99 193.96,-76.62 207.16,-78.21"/>
<polygon fill="midnightblue" stroke="midnightblue" points="206.82,-81.69 217.17,-79.41 207.66,-74.74 206.82,-81.69"/>
</g>
<!-- Node11 -->
<g id="node11" class="node">
<title>Node11</title>
<g id="a_node11"><a xlink:href="classirr_1_1video_1_1COpenGL3MaterialRenderer.html#a6214d6f24808d1e1cadbaa2597e2588f" target="_top" xlink:title="Sets a pixel shader constant.">
<polygon fill="white" stroke="black" points="203,-24.5 203,-54.5 385,-54.5 385,-24.5 203,-24.5"/>
<text text-anchor="start" x="211" y="-42.5" font-family="Helvetica,sans-Serif" font-size="10.00">irr::video::COpenGL3Material</text>
<text text-anchor="middle" x="294" y="-31.5" font-family="Helvetica,sans-Serif" font-size="10.00">Renderer::setPixelShaderConstant</text>
</a>
</g>
</g>
<!-- Node1&#45;&gt;Node11 -->
<g id="edge11" class="edge">
<title>Node1&#45;&gt;Node11</title>
<path fill="none" stroke="midnightblue" d="M167.2,-53.98C175.62,-53.01 184.23,-52.02 192.81,-51.03"/>
<polygon fill="midnightblue" stroke="midnightblue" points="193.31,-54.5 202.85,-49.88 192.51,-47.54 193.31,-54.5"/>
</g>
<!-- Node3 -->
<g id="node3" class="node">
<title>Node3</title>
<g id="a_node3"><a xlink:href="namespaceirr_1_1core.html#a6162f685b68f629e77336081d3316969" target="_top" xlink:title="clamps a value between low and high">
<polygon fill="white" stroke="black" points="457.5,-148 457.5,-167 547.5,-167 547.5,-148 457.5,-148"/>
<text text-anchor="middle" x="502.5" y="-155" font-family="Helvetica,sans-Serif" font-size="10.00">irr::core::clamp</text>
</a>
</g>
</g>
<!-- Node2&#45;&gt;Node3 -->
<g id="edge2" class="edge">
<title>Node2&#45;&gt;Node3</title>
<path fill="none" stroke="midnightblue" d="M329.01,-103.56C354.09,-114.29 389.23,-128.51 421,-138.5 429.46,-141.16 438.52,-143.64 447.41,-145.88"/>
<polygon fill="midnightblue" stroke="midnightblue" points="446.77,-149.33 457.32,-148.3 448.43,-142.53 446.77,-149.33"/>
</g>
<!-- Node6 -->
<g id="node6" class="node">
<title>Node6</title>
<g id="a_node6"><a xlink:href="classirr_1_1video_1_1COpenGL3DriverBase.html#a70f1eb0e1bd5016fa9133665bc5491d0" target="_top" xlink:title="Convert E_BLEND_FACTOR to OpenGL equivalent.">
<polygon fill="white" stroke="black" points="429,-98.5 429,-128.5 576,-128.5 576,-98.5 429,-98.5"/>
<text text-anchor="start" x="437" y="-116.5" font-family="Helvetica,sans-Serif" font-size="10.00">irr::video::COpenGL3Driver</text>
<text text-anchor="middle" x="502.5" y="-105.5" font-family="Helvetica,sans-Serif" font-size="10.00">Base::getGLBlend</text>
</a>
</g>
</g>
<!-- Node2&#45;&gt;Node6 -->
<g id="edge5" class="edge">
<title>Node2&#45;&gt;Node6</title>
<path fill="none" stroke="midnightblue" d="M370.72,-97.67C386.3,-99.55 402.78,-101.55 418.6,-103.46"/>
<polygon fill="midnightblue" stroke="midnightblue" points="418.54,-106.98 428.88,-104.71 419.38,-100.03 418.54,-106.98"/>
</g>
<!-- Node7 -->
<g id="node7" class="node">
<title>Node7</title>
<g id="a_node7"><a xlink:href="classirr_1_1video_1_1COpenGL3DriverBase.html#a7e89ab9101d1f2db60646dc65d640c50" target="_top" xlink:title="Compare in SMaterial doesn&#39;t check texture parameters, so we should call this on each OnRender call.">
<polygon fill="white" stroke="black" points="421,-49.5 421,-79.5 584,-79.5 584,-49.5 421,-49.5"/>
<text text-anchor="start" x="429" y="-67.5" font-family="Helvetica,sans-Serif" font-size="10.00">irr::video::COpenGL3Driver</text>
<text text-anchor="middle" x="502.5" y="-56.5" font-family="Helvetica,sans-Serif" font-size="10.00">Base::setTextureRenderStates</text>
</a>
</g>
</g>
<!-- Node2&#45;&gt;Node7 -->
<g id="edge6" class="edge">
<title>Node2&#45;&gt;Node7</title>
<path fill="none" stroke="midnightblue" d="M370.72,-79.7C383.75,-78.19 397.4,-76.6 410.77,-75.04"/>
<polygon fill="midnightblue" stroke="midnightblue" points="411.4,-78.5 420.93,-73.86 410.59,-71.54 411.4,-78.5"/>
</g>
<!-- Node10 -->
<g id="node10" class="node">
<title>Node10</title>
<g id="a_node10"><a xlink:href="namespaceirr_1_1video.html#a68f752ebff7a607d0660c95d983774e8" target="_top" xlink:title="Unpack srcRGBFact, dstRGBFact, srcAlphaFact, dstAlphaFact, modulo and alphaSource factors.">
<polygon fill="white" stroke="black" points="427,-0.5 427,-30.5 578,-30.5 578,-0.5 427,-0.5"/>
<text text-anchor="start" x="435" y="-18.5" font-family="Helvetica,sans-Serif" font-size="10.00">irr::video::unpack</text>
<text text-anchor="middle" x="502.5" y="-7.5" font-family="Helvetica,sans-Serif" font-size="10.00">_textureBlendFuncSeparate</text>
</a>
</g>
</g>
<!-- Node2&#45;&gt;Node10 -->
<g id="edge10" class="edge">
<title>Node2&#45;&gt;Node10</title>
<path fill="none" stroke="midnightblue" d="M361.73,-73.36C369.71,-70.77 377.63,-67.83 385,-64.5 402.52,-56.58 403.64,-48.77 421,-40.5 425.87,-38.18 431.01,-36.01 436.24,-33.99"/>
<polygon fill="midnightblue" stroke="midnightblue" points="437.51,-37.25 445.7,-30.53 435.11,-30.68 437.51,-37.25"/>
</g>
<!-- Node4 -->
<g id="node4" class="node">
<title>Node4</title>
<g id="a_node4"><a xlink:href="namespaceirr_1_1core.html#afca1ce7ac54e0c31a9047947f4c7319b" target="_top" xlink:title="returns maximum of two values. Own implementation to get rid of the STL (VS6 problems)">
<polygon fill="white" stroke="black" points="652,-148 652,-167 739,-167 739,-148 652,-148"/>
<text text-anchor="middle" x="695.5" y="-155" font-family="Helvetica,sans-Serif" font-size="10.00">irr::core::max_</text>
</a>
</g>
</g>
<!-- Node3&#45;&gt;Node4 -->
<g id="edge3" class="edge">
<title>Node3&#45;&gt;Node4</title>
<path fill="none" stroke="midnightblue" d="M547.8,-157.5C575.8,-157.5 612.13,-157.5 641.63,-157.5"/>
<polygon fill="midnightblue" stroke="midnightblue" points="641.75,-161 651.75,-157.5 641.75,-154 641.75,-161"/>
</g>
<!-- Node5 -->
<g id="node5" class="node">
<title>Node5</title>
<g id="a_node5"><a xlink:href="namespaceirr_1_1core.html#a9d34bfdbbe9c136b01ae04974572bc11" target="_top" xlink:title="returns minimum of two values. Own implementation to get rid of the STL (VS6 problems)">
<polygon fill="white" stroke="black" points="653.5,-107 653.5,-126 737.5,-126 737.5,-107 653.5,-107"/>
<text text-anchor="middle" x="695.5" y="-114" font-family="Helvetica,sans-Serif" font-size="10.00">irr::core::min_</text>
</a>
</g>
</g>
<!-- Node3&#45;&gt;Node5 -->
<g id="edge4" class="edge">
<title>Node3&#45;&gt;Node5</title>
<path fill="none" stroke="midnightblue" d="M547.8,-147.99C576.41,-141.85 613.73,-133.84 643.57,-127.43"/>
<polygon fill="midnightblue" stroke="midnightblue" points="644.34,-130.85 653.38,-125.33 642.87,-124 644.34,-130.85"/>
</g>
<!-- Node7&#45;&gt;Node5 -->
<g id="edge9" class="edge">
<title>Node7&#45;&gt;Node5</title>
<path fill="none" stroke="midnightblue" d="M558.75,-79.54C587.56,-87.39 622.37,-96.86 649.52,-104.26"/>
<polygon fill="midnightblue" stroke="midnightblue" points="648.96,-107.73 659.53,-106.98 650.8,-100.97 648.96,-107.73"/>
</g>
<!-- Node8 -->
<g id="node8" class="node">
<title>Node8</title>
<g id="a_node8"><a xlink:href="classirr_1_1video_1_1COpenGL3DriverBase.html#a84486b0902b453151559d6241bf5dca0" target="_top" xlink:title="Map Irrlicht wrap mode to OpenGL enum.">
<polygon fill="white" stroke="black" points="620,-52.5 620,-82.5 771,-82.5 771,-52.5 620,-52.5"/>
<text text-anchor="start" x="628" y="-70.5" font-family="Helvetica,sans-Serif" font-size="10.00">irr::video::COpenGL3Driver</text>
<text text-anchor="middle" x="695.5" y="-59.5" font-family="Helvetica,sans-Serif" font-size="10.00">Base::getTextureWrapMode</text>
</a>
</g>
</g>
<!-- Node7&#45;&gt;Node8 -->
<g id="edge7" class="edge">
<title>Node7&#45;&gt;Node8</title>
<path fill="none" stroke="midnightblue" d="M584.22,-65.77C592.62,-65.9 601.17,-66.03 609.61,-66.17"/>
<polygon fill="midnightblue" stroke="midnightblue" points="609.78,-69.67 619.84,-66.33 609.89,-62.67 609.78,-69.67"/>
</g>
<!-- Node9 -->
<g id="node9" class="node">
<title>Node9</title>
<g id="a_node9"><a xlink:href="classirr_1_1video_1_1ITexture.html#ad03a806b1a7887288b4c364735bff3f7" target="_top" xlink:title="Check whether the texture has MipMaps.">
<polygon fill="white" stroke="black" points="643,-3.5 643,-33.5 748,-33.5 748,-3.5 643,-3.5"/>
<text text-anchor="start" x="651" y="-21.5" font-family="Helvetica,sans-Serif" font-size="10.00">irr::video::ITexture</text>
<text text-anchor="middle" x="695.5" y="-10.5" font-family="Helvetica,sans-Serif" font-size="10.00">::hasMipMaps</text>
</a>
</g>
</g>
<!-- Node7&#45;&gt;Node9 -->
<g id="edge8" class="edge">
<title>Node7&#45;&gt;Node9</title>
<path fill="none" stroke="midnightblue" d="M566.04,-49.44C587.55,-44.26 611.6,-38.47 633.02,-33.31"/>
<polygon fill="midnightblue" stroke="midnightblue" points="634.08,-36.65 642.98,-30.91 632.44,-29.85 634.08,-36.65"/>
</g>
</g>
</svg>
