<?xml version="1.0" encoding="UTF-8" standalone="no"?>
<!DOCTYPE svg PUBLIC "-//W3C//DTD SVG 1.1//EN"
 "http://www.w3.org/Graphics/SVG/1.1/DTD/svg11.dtd">
<!-- Generated by graphviz version 2.43.0 (0)
 -->
<!-- Title: ChatBackend Pages: 1 -->
<svg width="893pt" height="514pt"
 viewBox="0.00 0.00 893.00 513.78" xmlns="http://www.w3.org/2000/svg" xmlns:xlink="http://www.w3.org/1999/xlink">
<g id="graph0" class="graph" transform="scale(1 1) rotate(0) translate(4 509.78)">
<title>ChatBackend</title>
<polygon fill="white" stroke="transparent" points="-4,4 -4,-509.78 889,-509.78 889,4 -4,4"/>
<!-- Node1 -->
<g id="node1" class="node">
<title>Node1</title>
<g id="a_node1"><a xlink:title=" ">
<polygon fill="#bfbfbf" stroke="black" points="805,-191.28 805,-210.28 885,-210.28 885,-191.28 805,-191.28"/>
<text text-anchor="middle" x="845" y="-198.28" font-family="Helvetica,sans-Serif" font-size="10.00">ChatBackend</text>
</a>
</g>
</g>
<!-- Node2 -->
<g id="node2" class="node">
<title>Node2</title>
<g id="a_node2"><a xlink:href="classChatPrompt.html" target="_top" xlink:title=" ">
<polygon fill="white" stroke="black" points="605,-317.28 605,-336.28 679,-336.28 679,-317.28 605,-317.28"/>
<text text-anchor="middle" x="642" y="-324.28" font-family="Helvetica,sans-Serif" font-size="10.00">ChatPrompt</text>
</a>
</g>
</g>
<!-- Node2&#45;&gt;Node1 -->
<g id="edge1" class="edge">
<title>Node2&#45;&gt;Node1</title>
<path fill="none" stroke="#9a32cd" stroke-dasharray="5,2" d="M667.17,-311.63C709.1,-285.35 794.13,-232.04 828.78,-210.32"/>
<polygon fill="#9a32cd" stroke="#9a32cd" points="665.05,-308.83 658.44,-317.1 668.77,-314.76 665.05,-308.83"/>
<text text-anchor="middle" x="742" y="-291.78" font-family="Helvetica,sans-Serif" font-size="10.00"> m_prompt</text>
</g>
<!-- Node3 -->
<g id="node3" class="node">
<title>Node3</title>
<g id="a_node3"><a xlink:title=" ">
<polygon fill="white" stroke="#bfbfbf" points="302.5,-467.78 302.5,-497.78 418.5,-497.78 418.5,-467.78 302.5,-467.78"/>
<text text-anchor="start" x="310.5" y="-485.78" font-family="Helvetica,sans-Serif" font-size="10.00">vector&lt; ChatPrompt</text>
<text text-anchor="middle" x="360.5" y="-474.78" font-family="Helvetica,sans-Serif" font-size="10.00">::HistoryEntry &gt;</text>
</a>
</g>
</g>
<!-- Node3&#45;&gt;Node2 -->
<g id="edge2" class="edge">
<title>Node3&#45;&gt;Node2</title>
<path fill="none" stroke="#9a32cd" stroke-dasharray="5,2" d="M428.84,-493.46C477.45,-497.37 542.16,-494.34 587,-460.78 628.37,-429.82 638.12,-361.92 640.36,-336.58"/>
<polygon fill="#9a32cd" stroke="#9a32cd" points="429,-489.96 418.72,-492.52 428.36,-496.93 429,-489.96"/>
<text text-anchor="middle" x="523.5" y="-497.78" font-family="Helvetica,sans-Serif" font-size="10.00"> m_history</text>
</g>
<!-- Node4 -->
<g id="node4" class="node">
<title>Node4</title>
<g id="a_node4"><a xlink:title=" ">
<polygon fill="white" stroke="#bfbfbf" points="343.5,-314.28 343.5,-333.28 377.5,-333.28 377.5,-314.28 343.5,-314.28"/>
<text text-anchor="middle" x="360.5" y="-321.28" font-family="Helvetica,sans-Serif" font-size="10.00">s32</text>
</a>
</g>
</g>
<!-- Node4&#45;&gt;Node2 -->
<g id="edge3" class="edge">
<title>Node4&#45;&gt;Node2</title>
<path fill="none" stroke="#9a32cd" stroke-dasharray="5,2" d="M387.79,-324.06C438.05,-324.6 547.82,-325.78 604.9,-326.39"/>
<polygon fill="#9a32cd" stroke="#9a32cd" points="387.77,-320.56 377.74,-323.95 387.7,-327.56 387.77,-320.56"/>
<text text-anchor="middle" x="523.5" y="-405.78" font-family="Helvetica,sans-Serif" font-size="10.00"> m_cols</text>
<text text-anchor="middle" x="523.5" y="-394.78" font-family="Helvetica,sans-Serif" font-size="10.00">m_cursor_len</text>
<text text-anchor="start" x="475.5" y="-383.78" font-family="Helvetica,sans-Serif" font-size="10.00">m_nick_completion</text>
<text text-anchor="middle" x="523.5" y="-372.78" font-family="Helvetica,sans-Serif" font-size="10.00">_end</text>
<text text-anchor="start" x="475.5" y="-361.78" font-family="Helvetica,sans-Serif" font-size="10.00">m_nick_completion</text>
<text text-anchor="middle" x="523.5" y="-350.78" font-family="Helvetica,sans-Serif" font-size="10.00">_start</text>
<text text-anchor="middle" x="523.5" y="-339.78" font-family="Helvetica,sans-Serif" font-size="10.00">m_view</text>
<text text-anchor="middle" x="523.5" y="-328.78" font-family="Helvetica,sans-Serif" font-size="10.00">m_cursor</text>
</g>
<!-- Node7 -->
<g id="node7" class="node">
<title>Node7</title>
<g id="a_node7"><a xlink:href="classChatBuffer.html" target="_top" xlink:title=" ">
<polygon fill="white" stroke="black" points="608,-140.28 608,-159.28 676,-159.28 676,-140.28 608,-140.28"/>
<text text-anchor="middle" x="642" y="-147.28" font-family="Helvetica,sans-Serif" font-size="10.00">ChatBuffer</text>
</a>
</g>
</g>
<!-- Node4&#45;&gt;Node7 -->
<g id="edge15" class="edge">
<title>Node4&#45;&gt;Node7</title>
<path fill="none" stroke="#9a32cd" stroke-dasharray="5,2" d="M387.81,-320.56C440.51,-313.63 556.62,-295.9 587,-270.78 622.99,-241.02 635.86,-182.37 639.64,-159.36"/>
<polygon fill="#9a32cd" stroke="#9a32cd" points="387.05,-317.12 377.57,-321.87 387.94,-324.07 387.05,-317.12"/>
<text text-anchor="middle" x="523.5" y="-310.78" font-family="Helvetica,sans-Serif" font-size="10.00"> m_scroll</text>
</g>
<!-- Node5 -->
<g id="node5" class="node">
<title>Node5</title>
<g id="a_node5"><a xlink:title=" ">
<polygon fill="white" stroke="#bfbfbf" points="343,-195.28 343,-214.28 378,-214.28 378,-195.28 343,-195.28"/>
<text text-anchor="middle" x="360.5" y="-202.28" font-family="Helvetica,sans-Serif" font-size="10.00">u32</text>
</a>
</g>
</g>
<!-- Node5&#45;&gt;Node2 -->
<g id="edge4" class="edge">
<title>Node5&#45;&gt;Node2</title>
<path fill="none" stroke="#9a32cd" stroke-dasharray="5,2" d="M388.15,-203.75C432.95,-203.3 524.54,-207.95 587,-248.78 613.06,-265.81 630.07,-300.21 637.19,-317.05"/>
<polygon fill="#9a32cd" stroke="#9a32cd" points="388,-200.25 378.07,-203.95 388.14,-207.25 388,-200.25"/>
<text text-anchor="middle" x="523.5" y="-262.78" font-family="Helvetica,sans-Serif" font-size="10.00"> m_history_limit</text>
<text text-anchor="middle" x="523.5" y="-251.78" font-family="Helvetica,sans-Serif" font-size="10.00">m_history_index</text>
</g>
<!-- Node5&#45;&gt;Node7 -->
<g id="edge16" class="edge">
<title>Node5&#45;&gt;Node7</title>
<path fill="none" stroke="#9a32cd" stroke-dasharray="5,2" d="M387.59,-192.85C407.11,-184.45 434.7,-173.68 460,-167.78 510.74,-155.94 571.27,-151.89 607.88,-150.5"/>
<polygon fill="#9a32cd" stroke="#9a32cd" points="385.91,-189.76 378.17,-196.99 388.73,-196.17 385.91,-189.76"/>
<text text-anchor="middle" x="523.5" y="-192.78" font-family="Helvetica,sans-Serif" font-size="10.00"> m_cols</text>
<text text-anchor="middle" x="523.5" y="-181.78" font-family="Helvetica,sans-Serif" font-size="10.00">m_scrollback</text>
<text text-anchor="middle" x="523.5" y="-170.78" font-family="Helvetica,sans-Serif" font-size="10.00">m_rows</text>
</g>
<!-- Node6 -->
<g id="node6" class="node">
<title>Node6</title>
<g id="a_node6"><a xlink:title=" ">
<polygon fill="white" stroke="#bfbfbf" points="334,-428.28 334,-447.28 387,-447.28 387,-428.28 334,-428.28"/>
<text text-anchor="middle" x="360.5" y="-435.28" font-family="Helvetica,sans-Serif" font-size="10.00">wstring</text>
</a>
</g>
</g>
<!-- Node6&#45;&gt;Node2 -->
<g id="edge5" class="edge">
<title>Node6&#45;&gt;Node2</title>
<path fill="none" stroke="#9a32cd" stroke-dasharray="5,2" d="M397.16,-438.11C452.6,-438 556.26,-435.11 587,-415.78 616.83,-397.02 632.55,-355.2 638.34,-336.34"/>
<polygon fill="#9a32cd" stroke="#9a32cd" points="397.08,-434.61 387.08,-438.1 397.08,-441.61 397.08,-434.61"/>
<text text-anchor="middle" x="523.5" y="-449.78" font-family="Helvetica,sans-Serif" font-size="10.00"> m_prompt</text>
<text text-anchor="middle" x="523.5" y="-438.78" font-family="Helvetica,sans-Serif" font-size="10.00">m_line</text>
</g>
<!-- Node7&#45;&gt;Node1 -->
<g id="edge6" class="edge">
<title>Node7&#45;&gt;Node1</title>
<path fill="none" stroke="#9a32cd" stroke-dasharray="5,2" d="M686.32,-160.77C722.05,-169.84 772.22,-182.57 806.31,-191.22"/>
<polygon fill="#9a32cd" stroke="#9a32cd" points="686.74,-157.27 676.19,-158.2 685.02,-164.05 686.74,-157.27"/>
<text text-anchor="middle" x="742" y="-198.78" font-family="Helvetica,sans-Serif" font-size="10.00"> m_console_buffer</text>
<text text-anchor="middle" x="742" y="-187.78" font-family="Helvetica,sans-Serif" font-size="10.00">m_recent_buffer</text>
</g>
<!-- Node8 -->
<g id="node8" class="node">
<title>Node8</title>
<g id="a_node8"><a xlink:href="classirr_1_1video_1_1SColor.html" target="_top" xlink:title="Class representing a 32 bit ARGB color.">
<polygon fill="white" stroke="black" points="311.5,-8.28 311.5,-27.28 409.5,-27.28 409.5,-8.28 311.5,-8.28"/>
<text text-anchor="middle" x="360.5" y="-15.28" font-family="Helvetica,sans-Serif" font-size="10.00">irr::video::SColor</text>
</a>
</g>
</g>
<!-- Node8&#45;&gt;Node7 -->
<g id="edge7" class="edge">
<title>Node8&#45;&gt;Node7</title>
<path fill="none" stroke="#9a32cd" stroke-dasharray="5,2" d="M410.48,-6.42C459.55,2.04 535.05,6.75 587,-28.78 625.73,-55.27 637.03,-116.38 640.02,-140.11"/>
<polygon fill="#9a32cd" stroke="#9a32cd" points="409.63,-3.01 400.43,-8.26 410.9,-9.9 409.63,-3.01"/>
<text text-anchor="start" x="465" y="-42.78" font-family="Helvetica,sans-Serif" font-size="10.00"> m_cache_chat_weblink</text>
<text text-anchor="middle" x="523.5" y="-31.78" font-family="Helvetica,sans-Serif" font-size="10.00">_color</text>
</g>
<!-- Node9 -->
<g id="node9" class="node">
<title>Node9</title>
<g id="a_node9"><a xlink:title=" ">
<polygon fill="white" stroke="#bfbfbf" points="66.5,-8.28 66.5,-27.28 122.5,-27.28 122.5,-8.28 66.5,-8.28"/>
<text text-anchor="middle" x="94.5" y="-15.28" font-family="Helvetica,sans-Serif" font-size="10.00">uint32_t</text>
</a>
</g>
</g>
<!-- Node9&#45;&gt;Node8 -->
<g id="edge8" class="edge">
<title>Node9&#45;&gt;Node8</title>
<path fill="none" stroke="#9a32cd" stroke-dasharray="5,2" d="M132.78,-17.78C179.62,-17.78 260.08,-17.78 311.49,-17.78"/>
<polygon fill="#9a32cd" stroke="#9a32cd" points="132.76,-14.28 122.76,-17.78 132.76,-21.28 132.76,-14.28"/>
<text text-anchor="middle" x="234" y="-20.78" font-family="Helvetica,sans-Serif" font-size="10.00"> color</text>
</g>
<!-- Node10 -->
<g id="node10" class="node">
<title>Node10</title>
<g id="a_node10"><a xlink:title=" ">
<polygon fill="white" stroke="#bfbfbf" points="304,-52.28 304,-71.28 417,-71.28 417,-52.28 304,-52.28"/>
<text text-anchor="middle" x="360.5" y="-59.28" font-family="Helvetica,sans-Serif" font-size="10.00">vector&lt; ChatLine &gt;</text>
</a>
</g>
</g>
<!-- Node10&#45;&gt;Node7 -->
<g id="edge9" class="edge">
<title>Node10&#45;&gt;Node7</title>
<path fill="none" stroke="#9a32cd" stroke-dasharray="5,2" d="M427.45,-54.36C474.63,-52.1 538.16,-55.47 587,-81.78 611.42,-94.93 628.63,-124.31 636.38,-139.79"/>
<polygon fill="#9a32cd" stroke="#9a32cd" points="427.12,-50.87 417.34,-54.94 427.53,-57.86 427.12,-50.87"/>
<text text-anchor="middle" x="523.5" y="-84.78" font-family="Helvetica,sans-Serif" font-size="10.00"> m_unformatted</text>
</g>
<!-- Node11 -->
<g id="node11" class="node">
<title>Node11</title>
<g id="a_node11"><a xlink:href="structChatFormattedLine.html" target="_top" xlink:title=" ">
<polygon fill="white" stroke="black" points="305.5,-140.28 305.5,-159.28 415.5,-159.28 415.5,-140.28 305.5,-140.28"/>
<text text-anchor="middle" x="360.5" y="-147.28" font-family="Helvetica,sans-Serif" font-size="10.00">ChatFormattedLine</text>
</a>
</g>
</g>
<!-- Node11&#45;&gt;Node7 -->
<g id="edge10" class="edge">
<title>Node11&#45;&gt;Node7</title>
<path fill="none" stroke="#9a32cd" stroke-dasharray="5,2" d="M420.57,-138.7C466.2,-131.79 530.85,-125.64 587,-133.78 596.1,-135.1 605.79,-137.61 614.42,-140.25"/>
<polygon fill="#9a32cd" stroke="#9a32cd" points="419.88,-135.26 410.55,-140.27 420.97,-142.17 419.88,-135.26"/>
<text text-anchor="middle" x="523.5" y="-136.78" font-family="Helvetica,sans-Serif" font-size="10.00"> m_empty_formatted_line</text>
</g>
<!-- Node12 -->
<g id="node12" class="node">
<title>Node12</title>
<g id="a_node12"><a xlink:href="classbool.html" target="_top" xlink:title=" ">
<polygon fill="white" stroke="black" points="75.5,-225.28 75.5,-244.28 113.5,-244.28 113.5,-225.28 75.5,-225.28"/>
<text text-anchor="middle" x="94.5" y="-232.28" font-family="Helvetica,sans-Serif" font-size="10.00">bool</text>
</a>
</g>
</g>
<!-- Node12&#45;&gt;Node7 -->
<g id="edge14" class="edge">
<title>Node12&#45;&gt;Node7</title>
<path fill="none" stroke="#9a32cd" stroke-dasharray="5,2" d="M123.51,-239.15C215.65,-252.95 507.89,-292.05 587,-245.78 619.68,-226.67 634.11,-179.69 638.97,-159.39"/>
<polygon fill="#9a32cd" stroke="#9a32cd" points="123.95,-235.68 113.54,-237.64 122.9,-242.6 123.95,-235.68"/>
<text text-anchor="middle" x="360.5" y="-291.78" font-family="Helvetica,sans-Serif" font-size="10.00"> m_lines_modified</text>
<text text-anchor="start" x="314.5" y="-280.78" font-family="Helvetica,sans-Serif" font-size="10.00">m_cache_clickable</text>
<text text-anchor="middle" x="360.5" y="-269.78" font-family="Helvetica,sans-Serif" font-size="10.00">_chat_weblinks</text>
</g>
<!-- Node12&#45;&gt;Node11 -->
<g id="edge11" class="edge">
<title>Node12&#45;&gt;Node11</title>
<path fill="none" stroke="#9a32cd" stroke-dasharray="5,2" d="M123.17,-225.87C173.25,-209.75 278.45,-175.87 329.9,-159.31"/>
<polygon fill="#9a32cd" stroke="#9a32cd" points="122.09,-222.54 113.65,-228.94 124.24,-229.2 122.09,-222.54"/>
<text text-anchor="middle" x="234" y="-199.78" font-family="Helvetica,sans-Serif" font-size="10.00"> first</text>
</g>
<!-- Node13 -->
<g id="node13" class="node">
<title>Node13</title>
<g id="a_node13"><a xlink:title=" ">
<polygon fill="white" stroke="#bfbfbf" points="0,-140.28 0,-159.28 189,-159.28 189,-140.28 0,-140.28"/>
<text text-anchor="middle" x="94.5" y="-147.28" font-family="Helvetica,sans-Serif" font-size="10.00">vector&lt; ChatFormattedFragment &gt;</text>
</a>
</g>
</g>
<!-- Node13&#45;&gt;Node11 -->
<g id="edge12" class="edge">
<title>Node13&#45;&gt;Node11</title>
<path fill="none" stroke="#9a32cd" stroke-dasharray="5,2" d="M199.43,-149.78C235.58,-149.78 274.67,-149.78 305.17,-149.78"/>
<polygon fill="#9a32cd" stroke="#9a32cd" points="199.32,-146.28 189.32,-149.78 199.32,-153.28 199.32,-146.28"/>
<text text-anchor="middle" x="234" y="-152.78" font-family="Helvetica,sans-Serif" font-size="10.00"> fragments</text>
</g>
<!-- Node14 -->
<g id="node14" class="node">
<title>Node14</title>
<g id="a_node14"><a xlink:title=" ">
<polygon fill="white" stroke="#bfbfbf" points="279,-90.28 279,-109.28 442,-109.28 442,-90.28 279,-90.28"/>
<text text-anchor="middle" x="360.5" y="-97.28" font-family="Helvetica,sans-Serif" font-size="10.00">vector&lt; ChatFormattedLine &gt;</text>
</a>
</g>
</g>
<!-- Node14&#45;&gt;Node7 -->
<g id="edge13" class="edge">
<title>Node14&#45;&gt;Node7</title>
<path fill="none" stroke="#9a32cd" stroke-dasharray="5,2" d="M452.31,-96.21C494.23,-97.08 544.1,-101.74 587,-115.78 603,-121.02 619.04,-132.02 629.43,-140.1"/>
<polygon fill="#9a32cd" stroke="#9a32cd" points="452.16,-92.71 442.11,-96.07 452.06,-99.71 452.16,-92.71"/>
<text text-anchor="middle" x="523.5" y="-118.78" font-family="Helvetica,sans-Serif" font-size="10.00"> m_formatted</text>
</g>
</g>
</svg>
