<?xml version="1.0" encoding="UTF-8" standalone="no"?>
<!DOCTYPE svg PUBLIC "-//W3C//DTD SVG 1.1//EN"
 "http://www.w3.org/Graphics/SVG/1.1/DTD/svg11.dtd">
<!-- Generated by graphviz version 2.43.0 (0)
 -->
<!-- Title: irr::video::COpenGL3MaterialBaseCB Pages: 1 -->
<svg width="619pt" height="440pt"
 viewBox="0.00 0.00 619.00 440.00" xmlns="http://www.w3.org/2000/svg" xmlns:xlink="http://www.w3.org/1999/xlink">
<g id="graph0" class="graph" transform="scale(1 1) rotate(0) translate(4 436)">
<title>irr::video::COpenGL3MaterialBaseCB</title>
<polygon fill="white" stroke="transparent" points="-4,4 -4,-436 615,-436 615,4 -4,4"/>
<!-- Node1 -->
<g id="node1" class="node">
<title>Node1</title>
<g id="a_node1"><a xlink:title=" ">
<polygon fill="#bfbfbf" stroke="black" points="214,-0.5 214,-30.5 372,-30.5 372,-0.5 214,-0.5"/>
<text text-anchor="start" x="222" y="-18.5" font-family="Helvetica,sans-Serif" font-size="10.00">irr::video::COpenGL3Material</text>
<text text-anchor="middle" x="293" y="-7.5" font-family="Helvetica,sans-Serif" font-size="10.00">BaseCB</text>
</a>
</g>
</g>
<!-- Node2 -->
<g id="node2" class="node">
<title>Node2</title>
<g id="a_node2"><a xlink:href="classirr_1_1video_1_1IShaderConstantSetCallBack.html" target="_top" xlink:title="Interface making it possible to set constants for gpu programs every frame.">
<polygon fill="white" stroke="black" points="37,-145.5 37,-175.5 183,-175.5 183,-145.5 37,-145.5"/>
<text text-anchor="start" x="45" y="-163.5" font-family="Helvetica,sans-Serif" font-size="10.00">irr::video::IShaderConstant</text>
<text text-anchor="middle" x="110" y="-152.5" font-family="Helvetica,sans-Serif" font-size="10.00">SetCallBack</text>
</a>
</g>
</g>
<!-- Node2&#45;&gt;Node1 -->
<g id="edge1" class="edge">
<title>Node2&#45;&gt;Node1</title>
<path fill="none" stroke="midnightblue" d="M122.93,-136.34C137.95,-111.44 164.94,-72.3 198,-49 208.97,-41.27 221.94,-35.25 234.71,-30.61"/>
<polygon fill="midnightblue" stroke="midnightblue" points="119.82,-134.73 117.78,-145.13 125.86,-138.28 119.82,-134.73"/>
</g>
<!-- Node3 -->
<g id="node3" class="node">
<title>Node3</title>
<g id="a_node3"><a xlink:href="classirr_1_1IReferenceCounted.html" target="_top" xlink:title="Base class of most objects of the Irrlicht Engine.">
<polygon fill="white" stroke="black" points="43,-345.5 43,-364.5 169,-364.5 169,-345.5 43,-345.5"/>
<text text-anchor="middle" x="106" y="-352.5" font-family="Helvetica,sans-Serif" font-size="10.00">irr::IReferenceCounted</text>
</a>
</g>
</g>
<!-- Node3&#45;&gt;Node2 -->
<g id="edge2" class="edge">
<title>Node3&#45;&gt;Node2</title>
<path fill="none" stroke="midnightblue" d="M106.39,-335.2C107.19,-296.7 109,-209.64 109.71,-175.56"/>
<polygon fill="midnightblue" stroke="midnightblue" points="102.89,-335.41 106.18,-345.48 109.88,-335.56 102.89,-335.41"/>
</g>
<!-- Node4 -->
<g id="node4" class="node">
<title>Node4</title>
<g id="a_node4"><a xlink:title=" ">
<polygon fill="white" stroke="#bfbfbf" points="0,-412.5 0,-431.5 38,-431.5 38,-412.5 0,-412.5"/>
<text text-anchor="middle" x="19" y="-419.5" font-family="Helvetica,sans-Serif" font-size="10.00">char</text>
</a>
</g>
</g>
<!-- Node4&#45;&gt;Node3 -->
<g id="edge3" class="edge">
<title>Node4&#45;&gt;Node3</title>
<path fill="none" stroke="#9a32cd" stroke-dasharray="5,2" d="M24.02,-402.39C26.65,-395.55 30.49,-388.22 36,-383 44.88,-374.57 56.68,-368.69 68.05,-364.63"/>
<polygon fill="#9a32cd" stroke="#9a32cd" points="20.55,-401.74 20.84,-412.33 27.22,-403.88 20.55,-401.74"/>
<text text-anchor="middle" x="68" y="-386" font-family="Helvetica,sans-Serif" font-size="10.00"> DebugName</text>
</g>
<!-- Node5 -->
<g id="node5" class="node">
<title>Node5</title>
<g id="a_node5"><a xlink:title=" ">
<polygon fill="white" stroke="#bfbfbf" points="134,-412.5 134,-431.5 184,-431.5 184,-412.5 134,-412.5"/>
<text text-anchor="middle" x="159" y="-419.5" font-family="Helvetica,sans-Serif" font-size="10.00">int32_t</text>
</a>
</g>
</g>
<!-- Node5&#45;&gt;Node1 -->
<g id="edge6" class="edge">
<title>Node5&#45;&gt;Node1</title>
<path fill="none" stroke="#9a32cd" stroke-dasharray="5,2" d="M185.88,-406.62C190.53,-403.05 194.87,-398.84 198,-394 244.2,-322.66 212.36,-288.45 233,-206 249.68,-139.38 276.68,-61.83 287.88,-30.59"/>
<polygon fill="#9a32cd" stroke="#9a32cd" points="183.73,-403.85 177.38,-412.33 187.63,-409.66 183.73,-403.85"/>
<text text-anchor="middle" x="266" y="-319" font-family="Helvetica,sans-Serif" font-size="10.00"> FogEndID</text>
<text text-anchor="middle" x="266" y="-308" font-family="Helvetica,sans-Serif" font-size="10.00">FogColorID</text>
<text text-anchor="middle" x="266" y="-297" font-family="Helvetica,sans-Serif" font-size="10.00">FogEnable</text>
<text text-anchor="middle" x="266" y="-286" font-family="Helvetica,sans-Serif" font-size="10.00">WVPMatrixID</text>
<text text-anchor="middle" x="266" y="-275" font-family="Helvetica,sans-Serif" font-size="10.00">FogEnableID</text>
<text text-anchor="middle" x="266" y="-264" font-family="Helvetica,sans-Serif" font-size="10.00">NMatrixID</text>
<text text-anchor="middle" x="266" y="-253" font-family="Helvetica,sans-Serif" font-size="10.00">FogStartID</text>
<text text-anchor="middle" x="266" y="-242" font-family="Helvetica,sans-Serif" font-size="10.00">ThicknessID</text>
<text text-anchor="middle" x="266" y="-231" font-family="Helvetica,sans-Serif" font-size="10.00">FogType</text>
<text text-anchor="middle" x="266" y="-220" font-family="Helvetica,sans-Serif" font-size="10.00">FogDensityID</text>
<text text-anchor="middle" x="266" y="-209" font-family="Helvetica,sans-Serif" font-size="10.00">...</text>
</g>
<!-- Node5&#45;&gt;Node3 -->
<g id="edge4" class="edge">
<title>Node5&#45;&gt;Node3</title>
<path fill="none" stroke="#9a32cd" stroke-dasharray="5,2" d="M124.85,-409.86C117.8,-405.96 111.25,-400.79 107,-394 101.47,-385.16 102.38,-372.76 103.9,-364.56"/>
<polygon fill="#9a32cd" stroke="#9a32cd" points="123.35,-413.02 133.89,-414.15 126.35,-406.7 123.35,-413.02"/>
<text text-anchor="middle" x="152.5" y="-386" font-family="Helvetica,sans-Serif" font-size="10.00"> ReferenceCounter</text>
</g>
<!-- Node6 -->
<g id="node6" class="node">
<title>Node6</title>
<g id="a_node6"><a xlink:title=" ">
<polygon fill="white" stroke="#bfbfbf" points="290,-345.5 290,-364.5 328,-364.5 328,-345.5 290,-345.5"/>
<text text-anchor="middle" x="309" y="-352.5" font-family="Helvetica,sans-Serif" font-size="10.00">float</text>
</a>
</g>
</g>
<!-- Node6&#45;&gt;Node1 -->
<g id="edge5" class="edge">
<title>Node6&#45;&gt;Node1</title>
<path fill="none" stroke="#9a32cd" stroke-dasharray="5,2" d="M308.11,-335.28C305.24,-274.62 296.22,-84.34 293.67,-30.7"/>
<polygon fill="#9a32cd" stroke="#9a32cd" points="304.62,-335.5 308.59,-345.32 311.61,-335.16 304.62,-335.5"/>
<text text-anchor="middle" x="346.5" y="-180" font-family="Helvetica,sans-Serif" font-size="10.00"> MaterialShininess</text>
<text text-anchor="middle" x="346.5" y="-169" font-family="Helvetica,sans-Serif" font-size="10.00">FogStart</text>
<text text-anchor="middle" x="346.5" y="-158" font-family="Helvetica,sans-Serif" font-size="10.00">FogDensity</text>
<text text-anchor="middle" x="346.5" y="-147" font-family="Helvetica,sans-Serif" font-size="10.00">Thickness</text>
<text text-anchor="middle" x="346.5" y="-136" font-family="Helvetica,sans-Serif" font-size="10.00">FogEnd</text>
</g>
<!-- Node8 -->
<g id="node8" class="node">
<title>Node8</title>
<g id="a_node8"><a xlink:href="classirr_1_1video_1_1SColorf.html" target="_top" xlink:title="Class representing a color with four floats.">
<polygon fill="white" stroke="black" points="402.5,-151 402.5,-170 503.5,-170 503.5,-151 402.5,-151"/>
<text text-anchor="middle" x="453" y="-158" font-family="Helvetica,sans-Serif" font-size="10.00">irr::video::SColorf</text>
</a>
</g>
</g>
<!-- Node6&#45;&gt;Node8 -->
<g id="edge9" class="edge">
<title>Node6&#45;&gt;Node8</title>
<path fill="none" stroke="#9a32cd" stroke-dasharray="5,2" d="M321.59,-337.17C351.12,-297.7 424.01,-200.25 446.37,-170.36"/>
<polygon fill="#9a32cd" stroke="#9a32cd" points="318.56,-335.38 315.37,-345.48 324.17,-339.57 318.56,-335.38"/>
<text text-anchor="middle" x="423" y="-280.5" font-family="Helvetica,sans-Serif" font-size="10.00"> g</text>
<text text-anchor="middle" x="423" y="-269.5" font-family="Helvetica,sans-Serif" font-size="10.00">a</text>
<text text-anchor="middle" x="423" y="-258.5" font-family="Helvetica,sans-Serif" font-size="10.00">r</text>
<text text-anchor="middle" x="423" y="-247.5" font-family="Helvetica,sans-Serif" font-size="10.00">b</text>
</g>
<!-- Node7 -->
<g id="node7" class="node">
<title>Node7</title>
<g id="a_node7"><a xlink:href="classbool.html" target="_top" xlink:title=" ">
<polygon fill="white" stroke="black" points="522,-151 522,-170 560,-170 560,-151 522,-151"/>
<text text-anchor="middle" x="541" y="-158" font-family="Helvetica,sans-Serif" font-size="10.00">bool</text>
</a>
</g>
</g>
<!-- Node7&#45;&gt;Node1 -->
<g id="edge7" class="edge">
<title>Node7&#45;&gt;Node1</title>
<path fill="none" stroke="#9a32cd" stroke-dasharray="5,2" d="M537.92,-140.86C532.73,-115.76 519.73,-71.65 490,-49 471.56,-34.95 418.61,-26.71 372.25,-22.05"/>
<polygon fill="#9a32cd" stroke="#9a32cd" points="534.52,-141.72 539.79,-150.91 541.4,-140.44 534.52,-141.72"/>
<text text-anchor="middle" x="570.5" y="-85" font-family="Helvetica,sans-Serif" font-size="10.00"> LightEnable</text>
<text text-anchor="middle" x="570.5" y="-74" font-family="Helvetica,sans-Serif" font-size="10.00">FirstUpdateBase</text>
</g>
<!-- Node8&#45;&gt;Node1 -->
<g id="edge8" class="edge">
<title>Node8&#45;&gt;Node1</title>
<path fill="none" stroke="#9a32cd" stroke-dasharray="5,2" d="M436,-144.31C404.85,-116.47 339.06,-57.67 308.82,-30.64"/>
<polygon fill="#9a32cd" stroke="#9a32cd" points="433.68,-146.93 443.47,-150.98 438.35,-141.71 433.68,-146.93"/>
<text text-anchor="middle" x="443.5" y="-107" font-family="Helvetica,sans-Serif" font-size="10.00"> MaterialAmbient</text>
<text text-anchor="middle" x="443.5" y="-96" font-family="Helvetica,sans-Serif" font-size="10.00">GlobalAmbient</text>
<text text-anchor="middle" x="443.5" y="-85" font-family="Helvetica,sans-Serif" font-size="10.00">MaterialDiffuse</text>
<text text-anchor="middle" x="443.5" y="-74" font-family="Helvetica,sans-Serif" font-size="10.00">MaterialEmissive</text>
<text text-anchor="middle" x="443.5" y="-63" font-family="Helvetica,sans-Serif" font-size="10.00">FogColor</text>
<text text-anchor="middle" x="443.5" y="-52" font-family="Helvetica,sans-Serif" font-size="10.00">MaterialSpecular</text>
</g>
</g>
</svg>
