<?xml version="1.0" encoding="UTF-8" standalone="no"?>
<!DOCTYPE svg PUBLIC "-//W3C//DTD SVG 1.1//EN"
 "http://www.w3.org/Graphics/SVG/1.1/DTD/svg11.dtd">
<!-- Generated by graphviz version 2.43.0 (0)
 -->
<!-- Title: irr::scene::CMeshSceneNode::getMaterial Pages: 1 -->
<svg width="325pt" height="137pt"
 viewBox="0.00 0.00 325.00 137.00" xmlns="http://www.w3.org/2000/svg" xmlns:xlink="http://www.w3.org/1999/xlink">
<g id="graph0" class="graph" transform="scale(1 1) rotate(0) translate(4 133)">
<title>irr::scene::CMeshSceneNode::getMaterial</title>
<polygon fill="white" stroke="transparent" points="-4,4 -4,-133 321,-133 321,4 -4,4"/>
<!-- Node1 -->
<g id="node1" class="node">
<title>Node1</title>
<g id="a_node1"><a xlink:title=" ">
<polygon fill="#bfbfbf" stroke="black" points="0,-49.5 0,-79.5 155,-79.5 155,-49.5 0,-49.5"/>
<text text-anchor="start" x="8" y="-67.5" font-family="Helvetica,sans-Serif" font-size="10.00">irr::scene::CMeshSceneNode</text>
<text text-anchor="middle" x="77.5" y="-56.5" font-family="Helvetica,sans-Serif" font-size="10.00">::getMaterial</text>
</a>
</g>
</g>
<!-- Node2 -->
<g id="node2" class="node">
<title>Node2</title>
<g id="a_node2"><a xlink:href="classirr_1_1scene_1_1IMeshBuffer.html#a26fd922f00fde56abbbbbe40b485238b" target="_top" xlink:title="Get the material of this meshbuffer.">
<polygon fill="white" stroke="black" points="191,-98.5 191,-128.5 317,-128.5 317,-98.5 191,-98.5"/>
<text text-anchor="start" x="199" y="-116.5" font-family="Helvetica,sans-Serif" font-size="10.00">irr::scene::IMeshBuffer</text>
<text text-anchor="middle" x="254" y="-105.5" font-family="Helvetica,sans-Serif" font-size="10.00">::getMaterial</text>
</a>
</g>
</g>
<!-- Node1&#45;&gt;Node2 -->
<g id="edge1" class="edge">
<title>Node1&#45;&gt;Node2</title>
<path fill="none" stroke="midnightblue" d="M132.28,-79.6C150.44,-84.7 170.89,-90.44 189.72,-95.73"/>
<polygon fill="midnightblue" stroke="midnightblue" points="188.82,-99.11 199.4,-98.45 190.72,-92.38 188.82,-99.11"/>
</g>
<!-- Node3 -->
<g id="node3" class="node">
<title>Node3</title>
<g id="a_node3"><a xlink:href="classirr_1_1scene_1_1ISceneNode.html#a1f44d8cf753b2e4c17c90d4fc2ed05b2" target="_top" xlink:title="Returns the material based on the zero based index i.">
<polygon fill="white" stroke="black" points="191.5,-49.5 191.5,-79.5 316.5,-79.5 316.5,-49.5 191.5,-49.5"/>
<text text-anchor="start" x="199.5" y="-67.5" font-family="Helvetica,sans-Serif" font-size="10.00">irr::scene::ISceneNode</text>
<text text-anchor="middle" x="254" y="-56.5" font-family="Helvetica,sans-Serif" font-size="10.00">::getMaterial</text>
</a>
</g>
</g>
<!-- Node1&#45;&gt;Node3 -->
<g id="edge2" class="edge">
<title>Node1&#45;&gt;Node3</title>
<path fill="none" stroke="midnightblue" d="M155.04,-64.5C163.79,-64.5 172.69,-64.5 181.38,-64.5"/>
<polygon fill="midnightblue" stroke="midnightblue" points="181.46,-68 191.46,-64.5 181.46,-61 181.46,-68"/>
</g>
<!-- Node4 -->
<g id="node4" class="node">
<title>Node4</title>
<g id="a_node4"><a xlink:href="classirr_1_1scene_1_1IMesh.html#a2cd1a04b396235101f426befba0c5b82" target="_top" xlink:title="Get pointer to a mesh buffer.">
<polygon fill="white" stroke="black" points="202.5,-0.5 202.5,-30.5 305.5,-30.5 305.5,-0.5 202.5,-0.5"/>
<text text-anchor="start" x="210.5" y="-18.5" font-family="Helvetica,sans-Serif" font-size="10.00">irr::scene::IMesh::</text>
<text text-anchor="middle" x="254" y="-7.5" font-family="Helvetica,sans-Serif" font-size="10.00">getMeshBuffer</text>
</a>
</g>
</g>
<!-- Node1&#45;&gt;Node4 -->
<g id="edge3" class="edge">
<title>Node1&#45;&gt;Node4</title>
<path fill="none" stroke="midnightblue" d="M132.28,-49.4C151.38,-44.03 173.01,-37.96 192.63,-32.45"/>
<polygon fill="midnightblue" stroke="midnightblue" points="193.7,-35.79 202.38,-29.71 191.8,-29.05 193.7,-35.79"/>
</g>
</g>
</svg>
