<?xml version="1.0" encoding="UTF-8" standalone="no"?>
<!DOCTYPE svg PUBLIC "-//W3C//DTD SVG 1.1//EN"
 "http://www.w3.org/Graphics/SVG/1.1/DTD/svg11.dtd">
<!-- Generated by graphviz version 2.43.0 (0)
 -->
<!-- Title: irr::video::COpenGLCoreRenderTarget&lt; TOpenGLDriver, TOpenGLTexture &gt; Pages: 1 -->
<!--zoomable 913 -->
<svg id="main" version="1.1" xmlns="http://www.w3.org/2000/svg" xmlns:xlink="http://www.w3.org/1999/xlink" xml:space="preserve" onload="init(evt)">
<style type="text/css"><![CDATA[
.edge:hover path { stroke: red; }
.edge:hover polygon { stroke: red; fill: red; }
]]></style>
<script type="text/javascript"><![CDATA[
var edges = document.getElementsByTagName('g');
if (edges && edges.length) {
  for (var i=0;i<edges.length;i++) {
    if (edges[i].id.substr(0,4)=='edge') {
      edges[i].setAttribute('class','edge');
    }
  }
}
]]></script>
        <defs>
                <circle id="rim" cx="0" cy="0" r="7"/>
                <circle id="rim2" cx="0" cy="0" r="3.5"/>
                <g id="zoomPlus">
                        <use xlink:href="#rim" fill="#404040">
                                <set attributeName="fill" to="#808080" begin="zoomplus.mouseover" end="zoomplus.mouseout"/>
                        </use>
                        <path d="M-4,0h8M0,-4v8" fill="none" stroke="white" stroke-width="1.5" pointer-events="none"/>
                </g>
                <g id="zoomMin">
                        <use xlink:href="#rim" fill="#404040">
                                <set attributeName="fill" to="#808080" begin="zoomminus.mouseover" end="zoomminus.mouseout"/>
                        </use>
                        <path d="M-4,0h8" fill="none" stroke="white" stroke-width="1.5" pointer-events="none"/>
                </g>
                <g id="dirArrow">
                        <path fill="none" stroke="white" stroke-width="1.5" d="M0,-3.0v7 M-2.5,-0.5L0,-3.0L2.5,-0.5"/>
                </g>
               <g id="resetDef">
                       <use xlink:href="#rim2" fill="#404040">
                               <set attributeName="fill" to="#808080" begin="reset.mouseover" end="reset.mouseout"/>
                       </use>
               </g>
        </defs>

<script type="text/javascript">
var viewWidth = 1724;
var viewHeight = 913;
var sectionId = 'dynsection-1';
</script>
<script xlink:href="svgpan.js"/>
<svg id="graph" class="graph">
<g id="viewport">
<title>irr::video::COpenGLCoreRenderTarget&lt; TOpenGLDriver, TOpenGLTexture &gt;</title>
<polygon fill="white" stroke="transparent" points="-4,4 -4,-909 1720,-909 1720,4 -4,4"/>
<!-- Node1 -->
<g id="node1" class="node">
<title>Node1</title>
<g id="a_node1"><a xlink:title=" ">
<polygon fill="#bfbfbf" stroke="black" points="1487,-121 1487,-151 1716,-151 1716,-121 1487,-121"/>
<text text-anchor="start" x="1495" y="-139" font-family="Helvetica,sans-Serif" font-size="10.00">irr::video::COpenGLCoreRender</text>
<text text-anchor="middle" x="1601.5" y="-128" font-family="Helvetica,sans-Serif" font-size="10.00">Target&lt; TOpenGLDriver, TOpenGLTexture &gt;</text>
</a>
</g>
</g>
<!-- Node2 -->
<g id="node2" class="node">
<title>Node2</title>
<g id="a_node2"><a xlink:href="classirr_1_1video_1_1IRenderTarget.html" target="_top" xlink:title="Interface of a Render Target.">
<polygon fill="white" stroke="black" points="1274,-256.5 1274,-275.5 1408,-275.5 1408,-256.5 1274,-256.5"/>
<text text-anchor="middle" x="1341" y="-263.5" font-family="Helvetica,sans-Serif" font-size="10.00">irr::video::IRenderTarget</text>
</a>
</g>
</g>
<!-- Node2&#45;&gt;Node1 -->
<g id="edge1" class="edge">
<title>Node2&#45;&gt;Node1</title>
<path fill="none" stroke="midnightblue" d="M1370.11,-251.86C1419.25,-227.15 1520.3,-176.33 1570.64,-151.02"/>
<polygon fill="midnightblue" stroke="midnightblue" points="1368.37,-248.82 1361.01,-256.44 1371.51,-255.07 1368.37,-248.82"/>
</g>
<!-- Node3 -->
<g id="node3" class="node">
<title>Node3</title>
<g id="a_node3"><a xlink:href="classirr_1_1IReferenceCounted.html" target="_top" xlink:title="Base class of most objects of the Irrlicht Engine.">
<polygon fill="white" stroke="black" points="718,-248.5 718,-267.5 844,-267.5 844,-248.5 718,-248.5"/>
<text text-anchor="middle" x="781" y="-255.5" font-family="Helvetica,sans-Serif" font-size="10.00">irr::IReferenceCounted</text>
</a>
</g>
</g>
<!-- Node3&#45;&gt;Node2 -->
<g id="edge2" class="edge">
<title>Node3&#45;&gt;Node2</title>
<path fill="none" stroke="midnightblue" d="M820.74,-245.28C842.24,-238.43 866.85,-230.97 878,-229 1004.97,-206.55 1039.19,-215.16 1168,-221 1207.23,-222.78 1217.98,-219.18 1256,-229 1280.22,-235.26 1306.33,-247.76 1322.9,-256.49"/>
<polygon fill="midnightblue" stroke="midnightblue" points="819.58,-241.98 811.13,-248.37 821.72,-248.64 819.58,-241.98"/>
</g>
<!-- Node14 -->
<g id="node14" class="node">
<title>Node14</title>
<g id="a_node14"><a xlink:href="classirr_1_1video_1_1ITexture.html" target="_top" xlink:title="Interface of a Video Driver dependent Texture.">
<polygon fill="white" stroke="black" points="1041,-308.5 1041,-327.5 1146,-327.5 1146,-308.5 1041,-308.5"/>
<text text-anchor="middle" x="1093.5" y="-315.5" font-family="Helvetica,sans-Serif" font-size="10.00">irr::video::ITexture</text>
</a>
</g>
</g>
<!-- Node3&#45;&gt;Node14 -->
<g id="edge17" class="edge">
<title>Node3&#45;&gt;Node14</title>
<path fill="none" stroke="midnightblue" d="M854.13,-268.72C896.96,-275.45 952.26,-284.77 1001,-295 1019.6,-298.9 1040.13,-303.99 1057.02,-308.39"/>
<polygon fill="midnightblue" stroke="midnightblue" points="854.5,-265.23 844.08,-267.15 853.42,-272.15 854.5,-265.23"/>
</g>
<!-- Node4 -->
<g id="node4" class="node">
<title>Node4</title>
<g id="a_node4"><a xlink:title=" ">
<polygon fill="white" stroke="#bfbfbf" points="480,-244.5 480,-263.5 518,-263.5 518,-244.5 480,-244.5"/>
<text text-anchor="middle" x="499" y="-251.5" font-family="Helvetica,sans-Serif" font-size="10.00">char</text>
</a>
</g>
</g>
<!-- Node4&#45;&gt;Node3 -->
<g id="edge3" class="edge">
<title>Node4&#45;&gt;Node3</title>
<path fill="none" stroke="#9a32cd" stroke-dasharray="5,2" d="M528.4,-254.41C572.55,-255.04 658.71,-256.27 717.79,-257.11"/>
<polygon fill="#9a32cd" stroke="#9a32cd" points="528.42,-250.91 518.37,-254.26 528.32,-257.91 528.42,-250.91"/>
<text text-anchor="middle" x="638.5" y="-259" font-family="Helvetica,sans-Serif" font-size="10.00"> DebugName</text>
</g>
<!-- Node5 -->
<g id="node5" class="node">
<title>Node5</title>
<g id="a_node5"><a xlink:title=" ">
<polygon fill="white" stroke="#bfbfbf" points="474,-282.5 474,-301.5 524,-301.5 524,-282.5 474,-282.5"/>
<text text-anchor="middle" x="499" y="-289.5" font-family="Helvetica,sans-Serif" font-size="10.00">int32_t</text>
</a>
</g>
</g>
<!-- Node5&#45;&gt;Node3 -->
<g id="edge4" class="edge">
<title>Node5&#45;&gt;Node3</title>
<path fill="none" stroke="#9a32cd" stroke-dasharray="5,2" d="M534.34,-287.95C571.31,-283.58 631.83,-276.38 684,-270 694.92,-268.66 706.54,-267.23 717.78,-265.83"/>
<polygon fill="#9a32cd" stroke="#9a32cd" points="533.64,-284.51 524.12,-289.16 534.46,-291.46 533.64,-284.51"/>
<text text-anchor="middle" x="638.5" y="-283" font-family="Helvetica,sans-Serif" font-size="10.00"> ReferenceCounter</text>
</g>
<!-- Node6 -->
<g id="node6" class="node">
<title>Node6</title>
<g id="a_node6"><a xlink:href="classirr_1_1core_1_1array.html" target="_top" xlink:title=" ">
<polygon fill="white" stroke="black" points="1038.5,-667 1038.5,-697 1148.5,-697 1148.5,-667 1038.5,-667"/>
<text text-anchor="start" x="1046.5" y="-685" font-family="Helvetica,sans-Serif" font-size="10.00">irr::core::array&lt; E</text>
<text text-anchor="middle" x="1093.5" y="-674" font-family="Helvetica,sans-Serif" font-size="10.00">_CUBE_SURFACE &gt;</text>
</a>
</g>
</g>
<!-- Node6&#45;&gt;Node2 -->
<g id="edge5" class="edge">
<title>Node6&#45;&gt;Node2</title>
<path fill="none" stroke="#9a32cd" stroke-dasharray="5,2" d="M1116.49,-659.48C1131.58,-643.62 1151.73,-621.63 1168,-601 1210.98,-546.5 1223.16,-533.14 1256,-472 1294.75,-399.87 1326.93,-305.93 1336.84,-275.77"/>
<polygon fill="#9a32cd" stroke="#9a32cd" points="1113.93,-657.09 1109.53,-666.73 1118.98,-661.94 1113.93,-657.09"/>
<text text-anchor="middle" x="1221" y="-580" font-family="Helvetica,sans-Serif" font-size="10.00"> CubeSurfaces</text>
</g>
<!-- Node7 -->
<g id="node7" class="node">
<title>Node7</title>
<g id="a_node7"><a xlink:title=" ">
<polygon fill="white" stroke="#bfbfbf" points="702,-724.5 702,-743.5 860,-743.5 860,-724.5 702,-724.5"/>
<text text-anchor="middle" x="781" y="-731.5" font-family="Helvetica,sans-Serif" font-size="10.00">vector&lt; E_CUBE_SURFACE &gt;</text>
</a>
</g>
</g>
<!-- Node7&#45;&gt;Node6 -->
<g id="edge6" class="edge">
<title>Node7&#45;&gt;Node6</title>
<path fill="none" stroke="#9a32cd" stroke-dasharray="5,2" d="M870.2,-725.36C910.3,-720.75 958.25,-714.3 1001,-706 1013.74,-703.53 1027.33,-700.29 1040.03,-697.01"/>
<polygon fill="#9a32cd" stroke="#9a32cd" points="869.73,-721.89 860.18,-726.49 870.51,-728.84 869.73,-721.89"/>
<text text-anchor="middle" x="939.5" y="-726" font-family="Helvetica,sans-Serif" font-size="10.00"> m_data</text>
</g>
<!-- Node8 -->
<g id="node8" class="node">
<title>Node8</title>
<g id="a_node8"><a xlink:href="classbool.html" target="_top" xlink:title=" ">
<polygon fill="white" stroke="black" points="480,-674.5 480,-693.5 518,-693.5 518,-674.5 480,-674.5"/>
<text text-anchor="middle" x="499" y="-681.5" font-family="Helvetica,sans-Serif" font-size="10.00">bool</text>
</a>
</g>
</g>
<!-- Node8&#45;&gt;Node1 -->
<g id="edge38" class="edge">
<title>Node8&#45;&gt;Node1</title>
<path fill="none" stroke="#9a32cd" stroke-dasharray="5,2" d="M513.15,-701.83C529.74,-723.27 560.1,-759.22 593,-782 667.18,-833.36 689.78,-861 780,-861 780,-861 780,-861 1342,-861 1498.35,-861 1584.85,-255.26 1598.56,-151.14"/>
<polygon fill="#9a32cd" stroke="#9a32cd" points="515.75,-699.46 506.92,-693.61 510.17,-703.69 515.75,-699.46"/>
<text text-anchor="middle" x="1093.5" y="-897" font-family="Helvetica,sans-Serif" font-size="10.00"> RequestDepthStencilUpdate</text>
<text text-anchor="middle" x="1093.5" y="-886" font-family="Helvetica,sans-Serif" font-size="10.00">RequestTextureUpdate</text>
<text text-anchor="middle" x="1093.5" y="-875" font-family="Helvetica,sans-Serif" font-size="10.00">AssignedDepth</text>
<text text-anchor="middle" x="1093.5" y="-864" font-family="Helvetica,sans-Serif" font-size="10.00">AssignedStencil</text>
</g>
<!-- Node8&#45;&gt;Node6 -->
<g id="edge7" class="edge">
<title>Node8&#45;&gt;Node6</title>
<path fill="none" stroke="#9a32cd" stroke-dasharray="5,2" d="M528.33,-683.9C620.98,-683.59 916.07,-682.6 1038.48,-682.18"/>
<polygon fill="#9a32cd" stroke="#9a32cd" points="528.04,-680.41 518.06,-683.94 528.07,-687.41 528.04,-680.41"/>
<text text-anchor="middle" x="781" y="-686" font-family="Helvetica,sans-Serif" font-size="10.00"> is_sorted</text>
</g>
<!-- Node9 -->
<g id="node9" class="node">
<title>Node9</title>
<g id="a_node9"><a xlink:href="classirr_1_1core_1_1array.html" target="_top" xlink:title="Self reallocating template array (like stl vector) with additional features.">
<polygon fill="white" stroke="black" points="724,-639.5 724,-658.5 838,-658.5 838,-639.5 724,-639.5"/>
<text text-anchor="middle" x="781" y="-646.5" font-family="Helvetica,sans-Serif" font-size="10.00">irr::core::array&lt; T &gt;</text>
</a>
</g>
</g>
<!-- Node8&#45;&gt;Node9 -->
<g id="edge9" class="edge">
<title>Node8&#45;&gt;Node9</title>
<path fill="none" stroke="#9a32cd" stroke-dasharray="5,2" d="M528.21,-679.47C546.63,-676.58 571.21,-672.86 593,-670 636.89,-664.23 686.71,-658.69 723.88,-654.75"/>
<polygon fill="#9a32cd" stroke="#9a32cd" points="527.48,-676.04 518.15,-681.06 528.57,-682.96 527.48,-676.04"/>
<text text-anchor="middle" x="638.5" y="-673" font-family="Helvetica,sans-Serif" font-size="10.00"> is_sorted</text>
</g>
<!-- Node11 -->
<g id="node11" class="node">
<title>Node11</title>
<g id="a_node11"><a xlink:href="classirr_1_1core_1_1array.html" target="_top" xlink:title=" ">
<polygon fill="white" stroke="black" points="1036.5,-561 1036.5,-591 1150.5,-591 1150.5,-561 1036.5,-561"/>
<text text-anchor="start" x="1044.5" y="-579" font-family="Helvetica,sans-Serif" font-size="10.00">irr::core::array&lt; irr</text>
<text text-anchor="middle" x="1093.5" y="-568" font-family="Helvetica,sans-Serif" font-size="10.00">::video::ITexture * &gt;</text>
</a>
</g>
</g>
<!-- Node8&#45;&gt;Node11 -->
<g id="edge12" class="edge">
<title>Node8&#45;&gt;Node11</title>
<path fill="none" stroke="#9a32cd" stroke-dasharray="5,2" d="M527.92,-676.97C542.95,-672.22 561.18,-664.81 575,-654 585.79,-645.57 581.16,-635.88 593,-629 611.97,-617.98 909.81,-591.53 1036.34,-580.72"/>
<polygon fill="#9a32cd" stroke="#9a32cd" points="526.74,-673.67 518.13,-679.84 528.71,-680.39 526.74,-673.67"/>
<text text-anchor="middle" x="781" y="-615" font-family="Helvetica,sans-Serif" font-size="10.00"> is_sorted</text>
</g>
<!-- Node8&#45;&gt;Node14 -->
<g id="edge33" class="edge">
<title>Node8&#45;&gt;Node14</title>
<path fill="none" stroke="#9a32cd" stroke-dasharray="5,2" d="M528.36,-678.32C543.82,-673.94 562.33,-666.47 575,-654 589.77,-639.47 581.38,-628.15 593,-611 631.08,-554.8 640.91,-533.61 702,-504 822.55,-445.58 888.35,-538.48 1001,-466 1054.09,-431.84 1081.48,-354.81 1089.75,-327.68"/>
<polygon fill="#9a32cd" stroke="#9a32cd" points="527.09,-675.03 518.25,-680.87 528.81,-681.81 527.09,-675.03"/>
<text text-anchor="middle" x="781" y="-518" font-family="Helvetica,sans-Serif" font-size="10.00"> IsRenderTarget</text>
<text text-anchor="middle" x="781" y="-507" font-family="Helvetica,sans-Serif" font-size="10.00">HasMipMaps</text>
</g>
<!-- Node29 -->
<g id="node29" class="node">
<title>Node29</title>
<g id="a_node29"><a xlink:href="classirr_1_1core_1_1array.html" target="_top" xlink:title=" ">
<polygon fill="white" stroke="black" points="1019,-769.5 1019,-788.5 1168,-788.5 1168,-769.5 1019,-769.5"/>
<text text-anchor="middle" x="1093.5" y="-776.5" font-family="Helvetica,sans-Serif" font-size="10.00">irr::core::array&lt; GLenum &gt;</text>
</a>
</g>
</g>
<!-- Node8&#45;&gt;Node29 -->
<g id="edge41" class="edge">
<title>Node8&#45;&gt;Node29</title>
<path fill="none" stroke="#9a32cd" stroke-dasharray="5,2" d="M520.68,-700.06C555.66,-726.1 629.77,-776.46 702,-795 825.39,-826.67 977.83,-803.28 1050.34,-788.56"/>
<polygon fill="#9a32cd" stroke="#9a32cd" points="522.36,-696.94 512.27,-693.71 518.14,-702.53 522.36,-696.94"/>
<text text-anchor="middle" x="781" y="-813" font-family="Helvetica,sans-Serif" font-size="10.00"> is_sorted</text>
</g>
<!-- Node9&#45;&gt;Node6 -->
<g id="edge8" class="edge">
<title>Node9&#45;&gt;Node6</title>
<path fill="none" stroke="orange" stroke-dasharray="5,2" d="M848.48,-654.77C891.92,-658.69 949.88,-664.2 1001,-670 1013.1,-671.37 1026.08,-672.99 1038.35,-674.58"/>
<polygon fill="orange" stroke="orange" points="848.59,-651.27 838.32,-653.86 847.97,-658.24 848.59,-651.27"/>
<text text-anchor="middle" x="939.5" y="-673" font-family="Helvetica,sans-Serif" font-size="10.00"> &lt; E_CUBE_SURFACE &gt;</text>
</g>
<!-- Node9&#45;&gt;Node11 -->
<g id="edge14" class="edge">
<title>Node9&#45;&gt;Node11</title>
<path fill="none" stroke="orange" stroke-dasharray="5,2" d="M848.07,-642.01C891.97,-636.42 950.58,-627.15 1001,-613 1021.13,-607.35 1042.85,-598.68 1060.08,-591.16"/>
<polygon fill="orange" stroke="orange" points="847.59,-638.54 838.1,-643.25 848.45,-645.49 847.59,-638.54"/>
<text text-anchor="middle" x="939.5" y="-640" font-family="Helvetica,sans-Serif" font-size="10.00"> &lt; irr::video::ITexture * &gt;</text>
</g>
<!-- Node9&#45;&gt;Node29 -->
<g id="edge42" class="edge">
<title>Node9&#45;&gt;Node29</title>
<path fill="none" stroke="orange" stroke-dasharray="5,2" d="M847.27,-663.22C851.94,-665.93 856.27,-669.16 860,-673 880.89,-694.49 855.92,-717.73 878,-738 918.97,-775.61 946.38,-750.52 1001,-761 1015.15,-763.71 1030.52,-766.72 1044.55,-769.48"/>
<polygon fill="orange" stroke="orange" points="848.46,-659.9 837.94,-658.61 845.36,-666.18 848.46,-659.9"/>
<text text-anchor="middle" x="939.5" y="-764" font-family="Helvetica,sans-Serif" font-size="10.00"> &lt; GLenum &gt;</text>
</g>
<!-- Node10 -->
<g id="node10" class="node">
<title>Node10</title>
<g id="a_node10"><a xlink:title=" ">
<polygon fill="white" stroke="#bfbfbf" points="461,-625.5 461,-644.5 537,-644.5 537,-625.5 461,-625.5"/>
<text text-anchor="middle" x="499" y="-632.5" font-family="Helvetica,sans-Serif" font-size="10.00">vector&lt; T &gt;</text>
</a>
</g>
</g>
<!-- Node10&#45;&gt;Node9 -->
<g id="edge10" class="edge">
<title>Node10&#45;&gt;Node9</title>
<path fill="none" stroke="#9a32cd" stroke-dasharray="5,2" d="M547.11,-633.58C584.32,-632.87 637.54,-632.74 684,-636 696.92,-636.91 710.75,-638.44 723.78,-640.15"/>
<polygon fill="#9a32cd" stroke="#9a32cd" points="546.98,-630.09 537.06,-633.8 547.13,-637.09 546.98,-630.09"/>
<text text-anchor="middle" x="638.5" y="-639" font-family="Helvetica,sans-Serif" font-size="10.00"> m_data</text>
</g>
<!-- Node11&#45;&gt;Node2 -->
<g id="edge11" class="edge">
<title>Node11&#45;&gt;Node2</title>
<path fill="none" stroke="#9a32cd" stroke-dasharray="5,2" d="M1113.13,-552.47C1163.07,-489.41 1298.4,-318.54 1332.24,-275.79"/>
<polygon fill="#9a32cd" stroke="#9a32cd" points="1110.14,-550.61 1106.67,-560.63 1115.63,-554.96 1110.14,-550.61"/>
<text text-anchor="middle" x="1221" y="-460" font-family="Helvetica,sans-Serif" font-size="10.00"> Textures</text>
</g>
<!-- Node12 -->
<g id="node12" class="node">
<title>Node12</title>
<g id="a_node12"><a xlink:title=" ">
<polygon fill="white" stroke="#bfbfbf" points="730,-535 730,-565 832,-565 832,-535 730,-535"/>
<text text-anchor="start" x="738" y="-553" font-family="Helvetica,sans-Serif" font-size="10.00">vector&lt; irr::video</text>
<text text-anchor="middle" x="781" y="-542" font-family="Helvetica,sans-Serif" font-size="10.00">::ITexture * &gt;</text>
</a>
</g>
</g>
<!-- Node12&#45;&gt;Node11 -->
<g id="edge13" class="edge">
<title>Node12&#45;&gt;Node11</title>
<path fill="none" stroke="#9a32cd" stroke-dasharray="5,2" d="M842.39,-555.06C898.54,-559.76 981.53,-566.71 1036.3,-571.29"/>
<polygon fill="#9a32cd" stroke="#9a32cd" points="842.49,-551.55 832.23,-554.21 841.91,-558.53 842.49,-551.55"/>
<text text-anchor="middle" x="939.5" y="-571" font-family="Helvetica,sans-Serif" font-size="10.00"> m_data</text>
</g>
<!-- Node13 -->
<g id="node13" class="node">
<title>Node13</title>
<g id="a_node13"><a xlink:title=" ">
<polygon fill="white" stroke="#bfbfbf" points="734,-286.5 734,-305.5 828,-305.5 828,-286.5 734,-286.5"/>
<text text-anchor="middle" x="781" y="-293.5" font-family="Helvetica,sans-Serif" font-size="10.00">E_DRIVER_TYPE</text>
</a>
</g>
</g>
<!-- Node13&#45;&gt;Node2 -->
<g id="edge15" class="edge">
<title>Node13&#45;&gt;Node2</title>
<path fill="none" stroke="#9a32cd" stroke-dasharray="5,2" d="M838.42,-292.97C942.27,-287.38 1163.21,-275.5 1273.91,-269.55"/>
<polygon fill="#9a32cd" stroke="#9a32cd" points="837.94,-289.49 828.14,-293.52 838.31,-296.48 837.94,-289.49"/>
<text text-anchor="middle" x="1093.5" y="-285" font-family="Helvetica,sans-Serif" font-size="10.00"> DriverType</text>
</g>
<!-- Node13&#45;&gt;Node14 -->
<g id="edge24" class="edge">
<title>Node13&#45;&gt;Node14</title>
<path fill="none" stroke="#9a32cd" stroke-dasharray="5,2" d="M838.47,-297.76C882.74,-299.4 945.87,-302.31 1001,-307 1013.91,-308.1 1027.82,-309.6 1040.79,-311.15"/>
<polygon fill="#9a32cd" stroke="#9a32cd" points="838.32,-294.25 828.21,-297.39 838.07,-301.25 838.32,-294.25"/>
<text text-anchor="middle" x="939.5" y="-310" font-family="Helvetica,sans-Serif" font-size="10.00"> DriverType</text>
</g>
<!-- Node14&#45;&gt;Node2 -->
<g id="edge16" class="edge">
<title>Node14&#45;&gt;Node2</title>
<path fill="none" stroke="#9a32cd" stroke-dasharray="5,2" d="M1149.44,-306.36C1193.24,-297.08 1253.83,-284.25 1294.84,-275.57"/>
<polygon fill="#9a32cd" stroke="#9a32cd" points="1148.59,-302.97 1139.53,-308.46 1150.04,-309.81 1148.59,-302.97"/>
<text text-anchor="middle" x="1221" y="-301" font-family="Helvetica,sans-Serif" font-size="10.00"> DepthStencil</text>
</g>
<!-- Node15 -->
<g id="node15" class="node">
<title>Node15</title>
<g id="a_node15"><a xlink:href="classirr_1_1core_1_1dimension2d.html" target="_top" xlink:title=" ">
<polygon fill="white" stroke="black" points="719.5,-137 719.5,-167 842.5,-167 842.5,-137 719.5,-137"/>
<text text-anchor="start" x="727.5" y="-155" font-family="Helvetica,sans-Serif" font-size="10.00">irr::core::dimension2d</text>
<text text-anchor="middle" x="781" y="-144" font-family="Helvetica,sans-Serif" font-size="10.00">&lt; u32 &gt;</text>
</a>
</g>
</g>
<!-- Node15&#45;&gt;Node1 -->
<g id="edge36" class="edge">
<title>Node15&#45;&gt;Node1</title>
<path fill="none" stroke="#9a32cd" stroke-dasharray="5,2" d="M852.53,-140.55C861.09,-139.51 869.73,-138.61 878,-138 1092.69,-122.13 1344.25,-126.64 1486.75,-131.34"/>
<polygon fill="#9a32cd" stroke="#9a32cd" points="852.01,-137.09 842.54,-141.84 852.91,-144.03 852.01,-137.09"/>
<text text-anchor="middle" x="1221" y="-130" font-family="Helvetica,sans-Serif" font-size="10.00"> Size</text>
</g>
<!-- Node15&#45;&gt;Node14 -->
<g id="edge18" class="edge">
<title>Node15&#45;&gt;Node14</title>
<path fill="none" stroke="#9a32cd" stroke-dasharray="5,2" d="M852.86,-142.59C900.5,-140.4 961.56,-146.19 1001,-182 1026.7,-205.33 1000.58,-228.58 1019,-258 1032.99,-280.34 1058.2,-298.19 1075.14,-308.44"/>
<polygon fill="#9a32cd" stroke="#9a32cd" points="852.38,-139.11 842.61,-143.2 852.8,-146.1 852.38,-139.11"/>
<text text-anchor="middle" x="939.5" y="-196" font-family="Helvetica,sans-Serif" font-size="10.00"> Size</text>
<text text-anchor="middle" x="939.5" y="-185" font-family="Helvetica,sans-Serif" font-size="10.00">OriginalSize</text>
</g>
<!-- Node16 -->
<g id="node16" class="node">
<title>Node16</title>
<g id="a_node16"><a xlink:title=" ">
<polygon fill="white" stroke="#bfbfbf" points="471,-165.5 471,-184.5 527,-184.5 527,-165.5 471,-165.5"/>
<text text-anchor="middle" x="499" y="-172.5" font-family="Helvetica,sans-Serif" font-size="10.00">uint32_t</text>
</a>
</g>
</g>
<!-- Node16&#45;&gt;Node1 -->
<g id="edge37" class="edge">
<title>Node16&#45;&gt;Node1</title>
<path fill="none" stroke="#9a32cd" stroke-dasharray="5,2" d="M536.99,-170.62C549.78,-167.85 563.72,-163.35 575,-156 585.88,-148.91 582.12,-140.08 593,-133 664.85,-86.29 694.3,-86 780,-86 780,-86 780,-86 1342,-86 1416.51,-86 1500.93,-106.27 1552.44,-121"/>
<polygon fill="#9a32cd" stroke="#9a32cd" points="536.23,-167.2 527.05,-172.48 537.53,-174.08 536.23,-167.2"/>
<text text-anchor="middle" x="1093.5" y="-100" font-family="Helvetica,sans-Serif" font-size="10.00"> ColorAttachment</text>
<text text-anchor="middle" x="1093.5" y="-89" font-family="Helvetica,sans-Serif" font-size="10.00">MultipleRenderTarget</text>
</g>
<!-- Node16&#45;&gt;Node14 -->
<g id="edge25" class="edge">
<title>Node16&#45;&gt;Node14</title>
<path fill="none" stroke="#9a32cd" stroke-dasharray="5,2" d="M537.29,-182.23C554.25,-185.41 574.61,-189.08 593,-192 775.25,-220.93 853.12,-158.62 1001,-269 1012.86,-277.85 1007.12,-288.18 1019,-297 1025.5,-301.83 1033.07,-305.55 1040.84,-308.41"/>
<polygon fill="#9a32cd" stroke="#9a32cd" points="537.68,-178.74 527.21,-180.32 536.38,-185.62 537.68,-178.74"/>
<text text-anchor="middle" x="781" y="-207" font-family="Helvetica,sans-Serif" font-size="10.00"> Pitch</text>
</g>
<!-- Node16&#45;&gt;Node15 -->
<g id="edge19" class="edge">
<title>Node16&#45;&gt;Node15</title>
<path fill="none" stroke="#9a32cd" stroke-dasharray="5,2" d="M537.33,-171.93C583.86,-168.11 663.97,-161.53 719.35,-156.98"/>
<polygon fill="#9a32cd" stroke="#9a32cd" points="536.78,-168.47 527.1,-172.77 537.35,-175.44 536.78,-168.47"/>
<text text-anchor="middle" x="638.5" y="-180" font-family="Helvetica,sans-Serif" font-size="10.00"> Width</text>
<text text-anchor="middle" x="638.5" y="-169" font-family="Helvetica,sans-Serif" font-size="10.00">Height</text>
</g>
<!-- Node17 -->
<g id="node17" class="node">
<title>Node17</title>
<g id="a_node17"><a xlink:href="classirr_1_1core_1_1dimension2d.html" target="_top" xlink:title="Specifies a 2 dimensional size.">
<polygon fill="white" stroke="black" points="423,-127.5 423,-146.5 575,-146.5 575,-127.5 423,-127.5"/>
<text text-anchor="middle" x="499" y="-134.5" font-family="Helvetica,sans-Serif" font-size="10.00">irr::core::dimension2d&lt; T &gt;</text>
</a>
</g>
</g>
<!-- Node17&#45;&gt;Node15 -->
<g id="edge20" class="edge">
<title>Node17&#45;&gt;Node15</title>
<path fill="none" stroke="orange" stroke-dasharray="5,2" d="M585.61,-137.22C616.63,-137.73 651.92,-138.82 684,-141 695.46,-141.78 707.67,-142.93 719.39,-144.2"/>
<polygon fill="orange" stroke="orange" points="585.32,-133.72 575.27,-137.07 585.22,-140.72 585.32,-133.72"/>
<text text-anchor="middle" x="638.5" y="-144" font-family="Helvetica,sans-Serif" font-size="10.00"> &lt; u32 &gt;</text>
</g>
<!-- Node18 -->
<g id="node18" class="node">
<title>Node18</title>
<g id="a_node18"><a xlink:title=" ">
<polygon fill="white" stroke="#bfbfbf" points="239,-127.5 239,-146.5 268,-146.5 268,-127.5 239,-127.5"/>
<text text-anchor="middle" x="253.5" y="-134.5" font-family="Helvetica,sans-Serif" font-size="10.00">T</text>
</a>
</g>
</g>
<!-- Node18&#45;&gt;Node17 -->
<g id="edge21" class="edge">
<title>Node18&#45;&gt;Node17</title>
<path fill="none" stroke="#9a32cd" stroke-dasharray="5,2" d="M278.42,-137C311.67,-137 373.37,-137 422.92,-137"/>
<polygon fill="#9a32cd" stroke="#9a32cd" points="278.29,-133.5 268.29,-137 278.29,-140.5 278.29,-133.5"/>
<text text-anchor="middle" x="372.5" y="-151" font-family="Helvetica,sans-Serif" font-size="10.00"> Width</text>
<text text-anchor="middle" x="372.5" y="-140" font-family="Helvetica,sans-Serif" font-size="10.00">Height</text>
</g>
<!-- Node19 -->
<g id="node19" class="node">
<title>Node19</title>
<g id="a_node19"><a xlink:title=" ">
<polygon fill="white" stroke="#bfbfbf" points="721.5,-362.5 721.5,-381.5 840.5,-381.5 840.5,-362.5 721.5,-362.5"/>
<text text-anchor="middle" x="781" y="-369.5" font-family="Helvetica,sans-Serif" font-size="10.00">E_TEXTURE_SOURCE</text>
</a>
</g>
</g>
<!-- Node19&#45;&gt;Node14 -->
<g id="edge22" class="edge">
<title>Node19&#45;&gt;Node14</title>
<path fill="none" stroke="#9a32cd" stroke-dasharray="5,2" d="M851.01,-371.48C894.53,-369.89 951.64,-365.48 1001,-354 1026.77,-348.01 1054.88,-336.07 1073.05,-327.59"/>
<polygon fill="#9a32cd" stroke="#9a32cd" points="850.7,-367.99 840.82,-371.81 850.92,-374.98 850.7,-367.99"/>
<text text-anchor="middle" x="939.5" y="-372" font-family="Helvetica,sans-Serif" font-size="10.00"> Source</text>
</g>
<!-- Node20 -->
<g id="node20" class="node">
<title>Node20</title>
<g id="a_node20"><a xlink:title=" ">
<polygon fill="white" stroke="#bfbfbf" points="729.5,-324.5 729.5,-343.5 832.5,-343.5 832.5,-324.5 729.5,-324.5"/>
<text text-anchor="middle" x="781" y="-331.5" font-family="Helvetica,sans-Serif" font-size="10.00">ECOLOR_FORMAT</text>
</a>
</g>
</g>
<!-- Node20&#45;&gt;Node14 -->
<g id="edge23" class="edge">
<title>Node20&#45;&gt;Node14</title>
<path fill="none" stroke="#9a32cd" stroke-dasharray="5,2" d="M842.66,-330.87C900.41,-327.9 986.37,-323.47 1040.91,-320.66"/>
<polygon fill="#9a32cd" stroke="#9a32cd" points="842.38,-327.38 832.58,-331.39 842.75,-334.37 842.38,-327.38"/>
<text text-anchor="middle" x="939.5" y="-342" font-family="Helvetica,sans-Serif" font-size="10.00"> ColorFormat</text>
<text text-anchor="middle" x="939.5" y="-331" font-family="Helvetica,sans-Serif" font-size="10.00">OriginalColorFormat</text>
</g>
<!-- Node21 -->
<g id="node21" class="node">
<title>Node21</title>
<g id="a_node21"><a xlink:href="structirr_1_1io_1_1SNamedPath.html" target="_top" xlink:title="Used in places where we identify objects by a filename, but don&#39;t actually work with the real filenam...">
<polygon fill="white" stroke="black" points="726,-400.5 726,-419.5 836,-419.5 836,-400.5 726,-400.5"/>
<text text-anchor="middle" x="781" y="-407.5" font-family="Helvetica,sans-Serif" font-size="10.00">irr::io::SNamedPath</text>
</a>
</g>
</g>
<!-- Node21&#45;&gt;Node14 -->
<g id="edge26" class="edge">
<title>Node21&#45;&gt;Node14</title>
<path fill="none" stroke="#9a32cd" stroke-dasharray="5,2" d="M846.19,-410.78C890.97,-409.34 951.35,-403.34 1001,-384 1034.58,-370.92 1067.16,-342.54 1082.83,-327.62"/>
<polygon fill="#9a32cd" stroke="#9a32cd" points="845.93,-407.29 836.02,-411.04 846.11,-414.29 845.93,-407.29"/>
<text text-anchor="middle" x="939.5" y="-411" font-family="Helvetica,sans-Serif" font-size="10.00"> NamedPath</text>
</g>
<!-- Node22 -->
<g id="node22" class="node">
<title>Node22</title>
<g id="a_node22"><a xlink:href="classirr_1_1core_1_1string.html" target="_top" xlink:title=" ">
<polygon fill="white" stroke="black" points="451,-395 451,-425 547,-425 547,-395 451,-395"/>
<text text-anchor="start" x="459" y="-413" font-family="Helvetica,sans-Serif" font-size="10.00">irr::core::string&lt;</text>
<text text-anchor="middle" x="499" y="-402" font-family="Helvetica,sans-Serif" font-size="10.00"> fschar_t &gt;</text>
</a>
</g>
</g>
<!-- Node22&#45;&gt;Node21 -->
<g id="edge27" class="edge">
<title>Node22&#45;&gt;Node21</title>
<path fill="none" stroke="#9a32cd" stroke-dasharray="5,2" d="M557.38,-410C606.76,-410 677.51,-410 725.91,-410"/>
<polygon fill="#9a32cd" stroke="#9a32cd" points="557.18,-406.5 547.18,-410 557.18,-413.5 557.18,-406.5"/>
<text text-anchor="middle" x="638.5" y="-424" font-family="Helvetica,sans-Serif" font-size="10.00"> Path</text>
<text text-anchor="middle" x="638.5" y="-413" font-family="Helvetica,sans-Serif" font-size="10.00">InternalName</text>
</g>
<!-- Node23 -->
<g id="node23" class="node">
<title>Node23</title>
<g id="a_node23"><a xlink:title=" ">
<polygon fill="white" stroke="#bfbfbf" points="185,-439.5 185,-458.5 322,-458.5 322,-439.5 185,-439.5"/>
<text text-anchor="middle" x="253.5" y="-446.5" font-family="Helvetica,sans-Serif" font-size="10.00">basic_string&lt; fschar_t &gt;</text>
</a>
</g>
</g>
<!-- Node23&#45;&gt;Node22 -->
<g id="edge28" class="edge">
<title>Node23&#45;&gt;Node22</title>
<path fill="none" stroke="#9a32cd" stroke-dasharray="5,2" d="M324.17,-437.84C364.76,-431.34 414.87,-423.31 450.84,-417.55"/>
<polygon fill="#9a32cd" stroke="#9a32cd" points="323.39,-434.42 314.07,-439.46 324.49,-441.33 323.39,-434.42"/>
<text text-anchor="middle" x="372.5" y="-438" font-family="Helvetica,sans-Serif" font-size="10.00"> str</text>
</g>
<!-- Node24 -->
<g id="node24" class="node">
<title>Node24</title>
<g id="a_node24"><a xlink:title=" ">
<polygon fill="white" stroke="#bfbfbf" points="0,-389.5 0,-408.5 122,-408.5 122,-389.5 0,-389.5"/>
<text text-anchor="middle" x="61" y="-396.5" font-family="Helvetica,sans-Serif" font-size="10.00">static const size_type</text>
</a>
</g>
</g>
<!-- Node24&#45;&gt;Node22 -->
<g id="edge29" class="edge">
<title>Node24&#45;&gt;Node22</title>
<path fill="none" stroke="#9a32cd" stroke-dasharray="5,2" d="M132.23,-400.77C221.74,-403.03 374.05,-406.87 450.81,-408.81"/>
<polygon fill="#9a32cd" stroke="#9a32cd" points="132.25,-397.27 122.17,-400.52 132.07,-404.27 132.25,-397.27"/>
<text text-anchor="middle" x="253.5" y="-408" font-family="Helvetica,sans-Serif" font-size="10.00"> npos</text>
</g>
<!-- Node25 -->
<g id="node25" class="node">
<title>Node25</title>
<g id="a_node25"><a xlink:href="classirr_1_1core_1_1string.html" target="_top" xlink:title="Very simple string class with some useful features.">
<polygon fill="white" stroke="black" points="195.5,-354.5 195.5,-373.5 311.5,-373.5 311.5,-354.5 195.5,-354.5"/>
<text text-anchor="middle" x="253.5" y="-361.5" font-family="Helvetica,sans-Serif" font-size="10.00">irr::core::string&lt; T &gt;</text>
</a>
</g>
</g>
<!-- Node24&#45;&gt;Node25 -->
<g id="edge32" class="edge">
<title>Node24&#45;&gt;Node25</title>
<path fill="none" stroke="#9a32cd" stroke-dasharray="5,2" d="M123.85,-387.64C148.68,-383.07 176.98,-377.87 200.71,-373.52"/>
<polygon fill="#9a32cd" stroke="#9a32cd" points="123.01,-384.23 113.8,-389.48 124.27,-391.12 123.01,-384.23"/>
<text text-anchor="middle" x="153.5" y="-387" font-family="Helvetica,sans-Serif" font-size="10.00"> npos</text>
</g>
<!-- Node25&#45;&gt;Node22 -->
<g id="edge30" class="edge">
<title>Node25&#45;&gt;Node22</title>
<path fill="none" stroke="orange" stroke-dasharray="5,2" d="M321.77,-371.58C347.88,-374.99 377.95,-379.5 405,-385 420.07,-388.07 436.32,-392.16 450.96,-396.14"/>
<polygon fill="orange" stroke="orange" points="321.96,-368.07 311.6,-370.28 321.07,-375.02 321.96,-368.07"/>
<text text-anchor="middle" x="372.5" y="-388" font-family="Helvetica,sans-Serif" font-size="10.00"> &lt; fschar_t &gt;</text>
</g>
<!-- Node26 -->
<g id="node26" class="node">
<title>Node26</title>
<g id="a_node26"><a xlink:title=" ">
<polygon fill="white" stroke="#bfbfbf" points="9,-340.5 9,-359.5 113,-359.5 113,-340.5 9,-340.5"/>
<text text-anchor="middle" x="61" y="-347.5" font-family="Helvetica,sans-Serif" font-size="10.00">basic_string&lt; T &gt;</text>
</a>
</g>
</g>
<!-- Node26&#45;&gt;Node25 -->
<g id="edge31" class="edge">
<title>Node26&#45;&gt;Node25</title>
<path fill="none" stroke="#9a32cd" stroke-dasharray="5,2" d="M123.33,-349.13C137.68,-349.33 152.89,-349.87 167,-351 176.88,-351.79 187.35,-353.04 197.44,-354.46"/>
<polygon fill="#9a32cd" stroke="#9a32cd" points="123.1,-345.63 113.07,-349.04 123.04,-352.63 123.1,-345.63"/>
<text text-anchor="middle" x="153.5" y="-354" font-family="Helvetica,sans-Serif" font-size="10.00"> str</text>
</g>
<!-- Node27 -->
<g id="node27" class="node">
<title>Node27</title>
<g id="a_node27"><a xlink:title=" ">
<polygon fill="white" stroke="#bfbfbf" points="730,-438.5 730,-457.5 832,-457.5 832,-438.5 730,-438.5"/>
<text text-anchor="middle" x="781" y="-445.5" font-family="Helvetica,sans-Serif" font-size="10.00">E_TEXTURE_TYPE</text>
</a>
</g>
</g>
<!-- Node27&#45;&gt;Node14 -->
<g id="edge34" class="edge">
<title>Node27&#45;&gt;Node14</title>
<path fill="none" stroke="#9a32cd" stroke-dasharray="5,2" d="M842.52,-452.54C888.53,-453.38 952.03,-448.73 1001,-423 1043.81,-400.5 1075.58,-349.07 1087.43,-327.65"/>
<polygon fill="#9a32cd" stroke="#9a32cd" points="842.49,-449.04 832.4,-452.26 842.3,-456.04 842.49,-449.04"/>
<text text-anchor="middle" x="939.5" y="-454" font-family="Helvetica,sans-Serif" font-size="10.00"> Type</text>
</g>
<!-- Node28 -->
<g id="node28" class="node">
<title>Node28</title>
<g id="a_node28"><a xlink:title=" ">
<polygon fill="white" stroke="#bfbfbf" points="1291.5,-38.5 1291.5,-57.5 1390.5,-57.5 1390.5,-38.5 1291.5,-38.5"/>
<text text-anchor="middle" x="1341" y="-45.5" font-family="Helvetica,sans-Serif" font-size="10.00">TOpenGLDriver *</text>
</a>
</g>
</g>
<!-- Node28&#45;&gt;Node1 -->
<g id="edge35" class="edge">
<title>Node28&#45;&gt;Node1</title>
<path fill="none" stroke="#9a32cd" stroke-dasharray="5,2" d="M1400.74,-48.93C1422.59,-50.59 1447.32,-54.05 1469,-61 1511.55,-74.64 1555.58,-103.24 1580.35,-120.91"/>
<polygon fill="#9a32cd" stroke="#9a32cd" points="1400.81,-45.42 1390.61,-48.27 1400.36,-52.41 1400.81,-45.42"/>
<text text-anchor="middle" x="1447.5" y="-64" font-family="Helvetica,sans-Serif" font-size="10.00"> Driver</text>
</g>
<!-- Node29&#45;&gt;Node1 -->
<g id="edge39" class="edge">
<title>Node29&#45;&gt;Node1</title>
<path fill="none" stroke="#9a32cd" stroke-dasharray="5,2" d="M1113.2,-762.08C1128.5,-747.91 1150.42,-726.86 1168,-707 1210.65,-658.8 1217.05,-643.23 1256,-592 1387.22,-419.42 1545.41,-209.25 1588.94,-151.38"/>
<polygon fill="#9a32cd" stroke="#9a32cd" points="1110.44,-759.86 1105.44,-769.2 1115.18,-765.02 1110.44,-759.86"/>
<text text-anchor="middle" x="1341" y="-567" font-family="Helvetica,sans-Serif" font-size="10.00"> AssignedTextures</text>
</g>
<!-- Node30 -->
<g id="node30" class="node">
<title>Node30</title>
<g id="a_node30"><a xlink:title=" ">
<polygon fill="white" stroke="#bfbfbf" points="726,-766.5 726,-785.5 836,-785.5 836,-766.5 726,-766.5"/>
<text text-anchor="middle" x="781" y="-773.5" font-family="Helvetica,sans-Serif" font-size="10.00">vector&lt; GLenum &gt;</text>
</a>
</g>
</g>
<!-- Node30&#45;&gt;Node29 -->
<g id="edge40" class="edge">
<title>Node30&#45;&gt;Node29</title>
<path fill="none" stroke="#9a32cd" stroke-dasharray="5,2" d="M846.18,-776.62C896.46,-777.11 966.44,-777.78 1018.97,-778.29"/>
<polygon fill="#9a32cd" stroke="#9a32cd" points="846.12,-773.12 836.08,-776.52 846.05,-780.12 846.12,-773.12"/>
<text text-anchor="middle" x="939.5" y="-781" font-family="Helvetica,sans-Serif" font-size="10.00"> m_data</text>
</g>
<!-- Node31 -->
<g id="node31" class="node">
<title>Node31</title>
<g id="a_node31"><a xlink:title=" ">
<polygon fill="white" stroke="#bfbfbf" points="1317,-0.5 1317,-19.5 1365,-19.5 1365,-0.5 1317,-0.5"/>
<text text-anchor="middle" x="1341" y="-7.5" font-family="Helvetica,sans-Serif" font-size="10.00">GLuint</text>
</a>
</g>
</g>
<!-- Node31&#45;&gt;Node1 -->
<g id="edge43" class="edge">
<title>Node31&#45;&gt;Node1</title>
<path fill="none" stroke="#9a32cd" stroke-dasharray="5,2" d="M1375.68,-12.76C1402.03,-15.88 1439.1,-22.43 1469,-36 1516.27,-57.45 1562.43,-98.56 1585.43,-120.8"/>
<polygon fill="#9a32cd" stroke="#9a32cd" points="1375.76,-9.25 1365.44,-11.66 1375.01,-16.21 1375.76,-9.25"/>
<text text-anchor="middle" x="1447.5" y="-39" font-family="Helvetica,sans-Serif" font-size="10.00"> BufferID</text>
</g>
</g>
</svg>
        <g id="navigator" transform="translate(0 0)" fill="#404254">
                <rect fill="#f2f5e9" fill-opacity="0.5" stroke="#606060" stroke-width=".5" x="0" y="0" width="60" height="60"/>
                <use id="zoomplus" xlink:href="#zoomPlus" x="17" y="9" onmousedown="handleZoom(evt,'in')"/>
                <use id="zoomminus" xlink:href="#zoomMin" x="42" y="9" onmousedown="handleZoom(evt,'out')"/>
                <use id="reset" xlink:href="#resetDef" x="30" y="36" onmousedown="handleReset()"/>
                <g id="arrowUp" xlink:href="#dirArrow" transform="translate(30 24)" onmousedown="handlePan(0,-1)">
                  <use xlink:href="#rim" fill="#404040">
                        <set attributeName="fill" to="#808080" begin="arrowUp.mouseover" end="arrowUp.mouseout"/>
                  </use>
                  <path fill="none" stroke="white" stroke-width="1.5" d="M0,-3.0v7 M-2.5,-0.5L0,-3.0L2.5,-0.5"/>
                </g>
                <g id="arrowRight" xlink:href="#dirArrow" transform="rotate(90) translate(36 -43)" onmousedown="handlePan(1,0)">
                  <use xlink:href="#rim" fill="#404040">
                        <set attributeName="fill" to="#808080" begin="arrowRight.mouseover" end="arrowRight.mouseout"/>
                  </use>
                  <path fill="none" stroke="white" stroke-width="1.5" d="M0,-3.0v7 M-2.5,-0.5L0,-3.0L2.5,-0.5"/>
                </g>
                <g id="arrowDown" xlink:href="#dirArrow" transform="rotate(180) translate(-30 -48)" onmousedown="handlePan(0,1)">
                  <use xlink:href="#rim" fill="#404040">
                        <set attributeName="fill" to="#808080" begin="arrowDown.mouseover" end="arrowDown.mouseout"/>
                  </use>
                  <path fill="none" stroke="white" stroke-width="1.5" d="M0,-3.0v7 M-2.5,-0.5L0,-3.0L2.5,-0.5"/>
                </g>
                <g id="arrowLeft" xlink:href="#dirArrow" transform="rotate(270) translate(-36 17)" onmousedown="handlePan(-1,0)">
                  <use xlink:href="#rim" fill="#404040">
                        <set attributeName="fill" to="#808080" begin="arrowLeft.mouseover" end="arrowLeft.mouseout"/>
                  </use>
                  <path fill="none" stroke="white" stroke-width="1.5" d="M0,-3.0v7 M-2.5,-0.5L0,-3.0L2.5,-0.5"/>
                </g>
        </g>
        <svg viewBox="0 0 15 15" width="100%" height="30px" preserveAspectRatio="xMaxYMin meet">
         <g id="arrow_out" transform="scale(0.3 0.3)">
          <a xlink:href="classirr_1_1video_1_1COpenGLCoreRenderTarget__coll__graph_org.svg" target="_base">
           <rect id="button" ry="5" rx="5" y="6" x="6" height="38" width="38"
                fill="#f2f5e9" fill-opacity="0.5" stroke="#606060" stroke-width="1.0"/>
           <path id="arrow"
             d="M 11.500037,31.436501 C 11.940474,20.09759 22.043105,11.32322 32.158766,21.979434 L 37.068811,17.246167 C 37.068811,17.246167 37.088388,32 37.088388,32 L 22.160133,31.978069 C 22.160133,31.978069 26.997745,27.140456 26.997745,27.140456 C 18.528582,18.264221 13.291696,25.230495 11.500037,31.436501 z"
             style="fill:#404040;"/>
          </a>
         </g>
        </svg>
</svg>
