<?xml version="1.0" encoding="UTF-8" standalone="no"?>
<!DOCTYPE svg PUBLIC "-//W3C//DTD SVG 1.1//EN"
 "http://www.w3.org/Graphics/SVG/1.1/DTD/svg11.dtd">
<!-- Generated by graphviz version 2.43.0 (0)
 -->
<!-- Title: SetRenderTargetStep Pages: 1 -->
<svg width="227pt" height="209pt"
 viewBox="0.00 0.00 226.61 209.00" xmlns="http://www.w3.org/2000/svg" xmlns:xlink="http://www.w3.org/1999/xlink">
<g id="graph0" class="graph" transform="scale(1 1) rotate(0) translate(4 205)">
<title>SetRenderTargetStep</title>
<polygon fill="white" stroke="transparent" points="-4,4 -4,-205 222.61,-205 222.61,4 -4,4"/>
<!-- Node1 -->
<g id="node1" class="node">
<title>Node1</title>
<g id="a_node1"><a xlink:title=" ">
<polygon fill="#bfbfbf" stroke="black" points="29.11,-0.5 29.11,-19.5 148.11,-19.5 148.11,-0.5 29.11,-0.5"/>
<text text-anchor="middle" x="88.61" y="-7.5" font-family="Helvetica,sans-Serif" font-size="10.00">SetRenderTargetStep</text>
</a>
</g>
</g>
<!-- Node2 -->
<g id="node2" class="node">
<title>Node2</title>
<g id="a_node2"><a xlink:href="classTrivialRenderStep.html" target="_top" xlink:title=" ">
<polygon fill="white" stroke="black" points="37.61,-57.5 37.61,-76.5 139.61,-76.5 139.61,-57.5 37.61,-57.5"/>
<text text-anchor="middle" x="88.61" y="-64.5" font-family="Helvetica,sans-Serif" font-size="10.00">TrivialRenderStep</text>
</a>
</g>
</g>
<!-- Node2&#45;&gt;Node1 -->
<g id="edge1" class="edge">
<title>Node2&#45;&gt;Node1</title>
<path fill="none" stroke="midnightblue" d="M88.61,-47.12C88.61,-37.82 88.61,-27.06 88.61,-19.71"/>
<polygon fill="midnightblue" stroke="midnightblue" points="85.11,-47.41 88.61,-57.41 92.11,-47.41 85.11,-47.41"/>
</g>
<!-- Node3 -->
<g id="node3" class="node">
<title>Node3</title>
<g id="a_node3"><a xlink:href="classRenderStep.html" target="_top" xlink:title=" ">
<polygon fill="white" stroke="black" points="42.11,-114.5 42.11,-133.5 115.11,-133.5 115.11,-114.5 42.11,-114.5"/>
<text text-anchor="middle" x="78.61" y="-121.5" font-family="Helvetica,sans-Serif" font-size="10.00">RenderStep</text>
</a>
</g>
</g>
<!-- Node3&#45;&gt;Node1 -->
<g id="edge7" class="edge">
<title>Node3&#45;&gt;Node1</title>
<path fill="none" stroke="#9a32cd" stroke-dasharray="5,2" d="M45,-110.45C19.2,-98.74 -9.91,-79.69 3.61,-57 14.95,-37.97 37.19,-26.34 56.08,-19.53"/>
<polygon fill="#9a32cd" stroke="#9a32cd" points="43.7,-113.71 54.27,-114.43 46.46,-107.27 43.7,-113.71"/>
<text text-anchor="middle" x="16.11" y="-64.5" font-family="Helvetica,sans-Serif" font-size="10.00"> step</text>
</g>
<!-- Node3&#45;&gt;Node2 -->
<g id="edge2" class="edge">
<title>Node3&#45;&gt;Node2</title>
<path fill="none" stroke="midnightblue" d="M81.99,-104.42C83.69,-95.05 85.68,-84.14 87.03,-76.71"/>
<polygon fill="midnightblue" stroke="midnightblue" points="78.52,-103.94 80.17,-114.41 85.4,-105.19 78.52,-103.94"/>
</g>
<!-- Node4 -->
<g id="node4" class="node">
<title>Node4</title>
<g id="a_node4"><a xlink:href="classRenderPipelineObject.html" target="_top" xlink:title=" ">
<polygon fill="white" stroke="black" points="17.61,-181.5 17.61,-200.5 139.61,-200.5 139.61,-181.5 17.61,-181.5"/>
<text text-anchor="middle" x="78.61" y="-188.5" font-family="Helvetica,sans-Serif" font-size="10.00">RenderPipelineObject</text>
</a>
</g>
</g>
<!-- Node4&#45;&gt;Node3 -->
<g id="edge3" class="edge">
<title>Node4&#45;&gt;Node3</title>
<path fill="none" stroke="midnightblue" d="M78.61,-171.04C78.61,-158.67 78.61,-143.12 78.61,-133.63"/>
<polygon fill="midnightblue" stroke="midnightblue" points="75.11,-171.23 78.61,-181.23 82.11,-171.23 75.11,-171.23"/>
</g>
<!-- Node5 -->
<g id="node5" class="node">
<title>Node5</title>
<g id="a_node5"><a xlink:href="classRenderTarget.html" target="_top" xlink:title=" ">
<polygon fill="white" stroke="black" points="135.11,-114.5 135.11,-133.5 216.11,-133.5 216.11,-114.5 135.11,-114.5"/>
<text text-anchor="middle" x="175.61" y="-121.5" font-family="Helvetica,sans-Serif" font-size="10.00">RenderTarget</text>
</a>
</g>
</g>
<!-- Node4&#45;&gt;Node5 -->
<g id="edge5" class="edge">
<title>Node4&#45;&gt;Node5</title>
<path fill="none" stroke="midnightblue" d="M100.11,-175.59C119.3,-162.74 146.76,-144.33 162.74,-133.63"/>
<polygon fill="midnightblue" stroke="midnightblue" points="98.05,-172.76 91.69,-181.23 101.95,-178.57 98.05,-172.76"/>
</g>
<!-- Node5&#45;&gt;Node1 -->
<g id="edge4" class="edge">
<title>Node5&#45;&gt;Node1</title>
<path fill="none" stroke="#9a32cd" stroke-dasharray="5,2" d="M170.81,-104.17C166.58,-90.17 159.4,-71.13 148.61,-57 136.42,-41.04 117.37,-27.73 104.01,-19.6"/>
<polygon fill="#9a32cd" stroke="#9a32cd" points="167.53,-105.43 173.58,-114.13 174.27,-103.56 167.53,-105.43"/>
<text text-anchor="middle" x="176.11" y="-64.5" font-family="Helvetica,sans-Serif" font-size="10.00"> target</text>
</g>
<!-- Node6 -->
<g id="node6" class="node">
<title>Node6</title>
<g id="a_node6"><a xlink:href="classbool.html" target="_top" xlink:title=" ">
<polygon fill="white" stroke="black" points="157.61,-181.5 157.61,-200.5 195.61,-200.5 195.61,-181.5 157.61,-181.5"/>
<text text-anchor="middle" x="176.61" y="-188.5" font-family="Helvetica,sans-Serif" font-size="10.00">bool</text>
</a>
</g>
</g>
<!-- Node6&#45;&gt;Node5 -->
<g id="edge6" class="edge">
<title>Node6&#45;&gt;Node5</title>
<path fill="none" stroke="#9a32cd" stroke-dasharray="5,2" d="M176.32,-171.04C176.13,-158.67 175.89,-143.12 175.74,-133.63"/>
<polygon fill="#9a32cd" stroke="#9a32cd" points="172.82,-171.29 176.47,-181.23 179.82,-171.18 172.82,-171.29"/>
<text text-anchor="middle" x="197.11" y="-155" font-family="Helvetica,sans-Serif" font-size="10.00"> m_clear</text>
</g>
</g>
</svg>
