<?xml version="1.0" encoding="UTF-8" standalone="no"?>
<!DOCTYPE svg PUBLIC "-//W3C//DTD SVG 1.1//EN"
 "http://www.w3.org/Graphics/SVG/1.1/DTD/svg11.dtd">
<!-- Generated by graphviz version 2.43.0 (0)
 -->
<!-- Title: Settings Pages: 1 -->
<svg width="531pt" height="302pt"
 viewBox="0.00 0.00 531.00 301.50" xmlns="http://www.w3.org/2000/svg" xmlns:xlink="http://www.w3.org/1999/xlink">
<g id="graph0" class="graph" transform="scale(1 1) rotate(0) translate(4 297.5)">
<title>Settings</title>
<polygon fill="white" stroke="transparent" points="-4,4 -4,-297.5 527,-297.5 527,4 -4,4"/>
<!-- Node1 -->
<g id="node1" class="node">
<title>Node1</title>
<g id="a_node1"><a xlink:title=" ">
<polygon fill="#bfbfbf" stroke="black" points="467,-126 467,-145 523,-145 523,-126 467,-126"/>
<text text-anchor="middle" x="495" y="-133" font-family="Helvetica,sans-Serif" font-size="10.00">Settings</text>
</a>
</g>
</g>
<!-- Node2 -->
<g id="node2" class="node">
<title>Node2</title>
<g id="a_node2"><a xlink:title=" ">
<polygon fill="white" stroke="#bfbfbf" points="194,-252 194,-293 332,-293 332,-252 194,-252"/>
<text text-anchor="start" x="202" y="-281" font-family="Helvetica,sans-Serif" font-size="10.00">unordered_map&lt; std</text>
<text text-anchor="start" x="202" y="-270" font-family="Helvetica,sans-Serif" font-size="10.00">::string, SettingsCallback</text>
<text text-anchor="middle" x="263" y="-259" font-family="Helvetica,sans-Serif" font-size="10.00">List &gt;</text>
</a>
</g>
</g>
<!-- Node2&#45;&gt;Node1 -->
<g id="edge1" class="edge">
<title>Node2&#45;&gt;Node1</title>
<path fill="none" stroke="#9a32cd" stroke-dasharray="5,2" d="M342.24,-270.59C378.06,-266.11 419.07,-255.47 449,-231.5 477.16,-208.95 488.58,-164.66 492.38,-145.13"/>
<polygon fill="#9a32cd" stroke="#9a32cd" points="341.85,-267.11 332.3,-271.7 342.62,-274.07 341.85,-267.11"/>
<text text-anchor="middle" x="402.5" y="-270.5" font-family="Helvetica,sans-Serif" font-size="10.00"> m_callbacks</text>
</g>
<!-- Node3 -->
<g id="node3" class="node">
<title>Node3</title>
<g id="a_node3"><a xlink:title=" ">
<polygon fill="white" stroke="#bfbfbf" points="188,-202.5 188,-232.5 338,-232.5 338,-202.5 188,-202.5"/>
<text text-anchor="start" x="196" y="-220.5" font-family="Helvetica,sans-Serif" font-size="10.00">unordered_map&lt; std</text>
<text text-anchor="middle" x="263" y="-209.5" font-family="Helvetica,sans-Serif" font-size="10.00">::string, const FlagDesc * &gt;</text>
</a>
</g>
</g>
<!-- Node3&#45;&gt;Node1 -->
<g id="edge2" class="edge">
<title>Node3&#45;&gt;Node1</title>
<path fill="none" stroke="#9a32cd" stroke-dasharray="5,2" d="M348.4,-218.09C381.54,-215.12 418.79,-207.6 449,-190.5 467.9,-179.81 482.08,-157.82 489.1,-145.12"/>
<polygon fill="#9a32cd" stroke="#9a32cd" points="347.96,-214.61 338.26,-218.87 348.5,-221.59 347.96,-214.61"/>
<text text-anchor="middle" x="402.5" y="-219.5" font-family="Helvetica,sans-Serif" font-size="10.00"> s_flags</text>
</g>
<!-- Node4 -->
<g id="node4" class="node">
<title>Node4</title>
<g id="a_node4"><a xlink:title=" ">
<polygon fill="white" stroke="#bfbfbf" points="239,-164 239,-183 287,-183 287,-164 239,-164"/>
<text text-anchor="middle" x="263" y="-171" font-family="Helvetica,sans-Serif" font-size="10.00">mutex</text>
</a>
</g>
</g>
<!-- Node4&#45;&gt;Node1 -->
<g id="edge3" class="edge">
<title>Node4&#45;&gt;Node1</title>
<path fill="none" stroke="#9a32cd" stroke-dasharray="5,2" d="M297.33,-171.35C334.63,-168.49 396.71,-162.34 449,-150.5 455.26,-149.08 461.89,-147.13 468.07,-145.11"/>
<polygon fill="#9a32cd" stroke="#9a32cd" points="296.75,-167.89 287.04,-172.11 297.27,-174.87 296.75,-167.89"/>
<text text-anchor="middle" x="402.5" y="-178.5" font-family="Helvetica,sans-Serif" font-size="10.00"> m_mutex</text>
<text text-anchor="middle" x="402.5" y="-167.5" font-family="Helvetica,sans-Serif" font-size="10.00">m_callback_mutex</text>
</g>
<!-- Node5 -->
<g id="node5" class="node">
<title>Node5</title>
<g id="a_node5"><a xlink:href="classSettingsHierarchy.html" target="_top" xlink:title=" ">
<polygon fill="white" stroke="black" points="211,-126 211,-145 315,-145 315,-126 211,-126"/>
<text text-anchor="middle" x="263" y="-133" font-family="Helvetica,sans-Serif" font-size="10.00">SettingsHierarchy</text>
</a>
</g>
</g>
<!-- Node5&#45;&gt;Node1 -->
<g id="edge4" class="edge">
<title>Node5&#45;&gt;Node1</title>
<path fill="none" stroke="#9a32cd" stroke-dasharray="5,2" d="M325.22,-135.5C371.25,-135.5 432.13,-135.5 466.78,-135.5"/>
<polygon fill="#9a32cd" stroke="#9a32cd" points="325.04,-132 315.04,-135.5 325.04,-139 325.04,-132"/>
<text text-anchor="middle" x="402.5" y="-138.5" font-family="Helvetica,sans-Serif" font-size="10.00"> m_hierarchy</text>
</g>
<!-- Node6 -->
<g id="node6" class="node">
<title>Node6</title>
<g id="a_node6"><a xlink:title=" ">
<polygon fill="white" stroke="#bfbfbf" points="0,-126 0,-145 118,-145 118,-126 0,-126"/>
<text text-anchor="middle" x="59" y="-133" font-family="Helvetica,sans-Serif" font-size="10.00">vector&lt; Settings * &gt;</text>
</a>
</g>
</g>
<!-- Node6&#45;&gt;Node5 -->
<g id="edge5" class="edge">
<title>Node6&#45;&gt;Node5</title>
<path fill="none" stroke="#9a32cd" stroke-dasharray="5,2" d="M128.31,-135.5C155.28,-135.5 185.75,-135.5 210.78,-135.5"/>
<polygon fill="#9a32cd" stroke="#9a32cd" points="128.16,-132 118.16,-135.5 128.16,-139 128.16,-132"/>
<text text-anchor="middle" x="153" y="-138.5" font-family="Helvetica,sans-Serif" font-size="10.00"> layers</text>
</g>
<!-- Node7 -->
<g id="node7" class="node">
<title>Node7</title>
<g id="a_node7"><a xlink:title=" ">
<polygon fill="white" stroke="#bfbfbf" points="248.5,-88 248.5,-107 277.5,-107 277.5,-88 248.5,-88"/>
<text text-anchor="middle" x="263" y="-95" font-family="Helvetica,sans-Serif" font-size="10.00">int</text>
</a>
</g>
</g>
<!-- Node7&#45;&gt;Node1 -->
<g id="edge6" class="edge">
<title>Node7&#45;&gt;Node1</title>
<path fill="none" stroke="#9a32cd" stroke-dasharray="5,2" d="M287.93,-98.96C323.45,-101.46 392.03,-107.6 449,-120.5 455.26,-121.92 461.89,-123.87 468.07,-125.89"/>
<polygon fill="#9a32cd" stroke="#9a32cd" points="287.83,-95.44 277.62,-98.27 287.37,-102.43 287.83,-95.44"/>
<text text-anchor="middle" x="402.5" y="-123.5" font-family="Helvetica,sans-Serif" font-size="10.00"> m_settingslayer</text>
</g>
<!-- Node8 -->
<g id="node8" class="node">
<title>Node8</title>
<g id="a_node8"><a xlink:title=" ">
<polygon fill="white" stroke="#bfbfbf" points="241,-50 241,-69 285,-69 285,-50 241,-50"/>
<text text-anchor="middle" x="263" y="-57" font-family="Helvetica,sans-Serif" font-size="10.00">string</text>
</a>
</g>
</g>
<!-- Node8&#45;&gt;Node1 -->
<g id="edge7" class="edge">
<title>Node8&#45;&gt;Node1</title>
<path fill="none" stroke="#9a32cd" stroke-dasharray="5,2" d="M295.28,-59.35C333.56,-60.37 399.4,-66.13 449,-91.5 464.95,-99.66 478.94,-115.42 486.92,-125.7"/>
<polygon fill="#9a32cd" stroke="#9a32cd" points="295.31,-55.85 285.25,-59.17 295.18,-62.85 295.31,-55.85"/>
<text text-anchor="middle" x="402.5" y="-94.5" font-family="Helvetica,sans-Serif" font-size="10.00"> m_end_tag</text>
</g>
<!-- Node9 -->
<g id="node9" class="node">
<title>Node9</title>
<g id="a_node9"><a xlink:title=" ">
<polygon fill="white" stroke="#bfbfbf" points="196.5,-0.5 196.5,-30.5 329.5,-30.5 329.5,-0.5 196.5,-0.5"/>
<text text-anchor="start" x="204.5" y="-18.5" font-family="Helvetica,sans-Serif" font-size="10.00">unordered_map&lt; std</text>
<text text-anchor="middle" x="263" y="-7.5" font-family="Helvetica,sans-Serif" font-size="10.00">::string, SettingsEntry &gt;</text>
</a>
</g>
</g>
<!-- Node9&#45;&gt;Node1 -->
<g id="edge8" class="edge">
<title>Node9&#45;&gt;Node1</title>
<path fill="none" stroke="#9a32cd" stroke-dasharray="5,2" d="M339.92,-15.06C375.96,-18.32 417.86,-27.53 449,-50.5 474.8,-69.53 487.21,-107.83 491.81,-125.79"/>
<polygon fill="#9a32cd" stroke="#9a32cd" points="340.16,-11.57 329.92,-14.29 339.62,-18.55 340.16,-11.57"/>
<text text-anchor="middle" x="402.5" y="-53.5" font-family="Helvetica,sans-Serif" font-size="10.00"> m_settings</text>
</g>
</g>
</svg>
