<?xml version="1.0" encoding="UTF-8" standalone="no"?>
<!DOCTYPE svg PUBLIC "-//W3C//DTD SVG 1.1//EN"
 "http://www.w3.org/Graphics/SVG/1.1/DTD/svg11.dtd">
<!-- Generated by graphviz version 2.43.0 (0)
 -->
<!-- Title: irr::scene::CCameraSceneNode::updateMatrices Pages: 1 -->
<svg width="489pt" height="274pt"
 viewBox="0.00 0.00 489.00 274.00" xmlns="http://www.w3.org/2000/svg" xmlns:xlink="http://www.w3.org/1999/xlink">
<g id="graph0" class="graph" transform="scale(1 1) rotate(0) translate(4 270)">
<title>irr::scene::CCameraSceneNode::updateMatrices</title>
<polygon fill="white" stroke="transparent" points="-4,4 -4,-270 485,-270 485,4 -4,4"/>
<!-- Node1 -->
<g id="node1" class="node">
<title>Node1</title>
<g id="a_node1"><a xlink:title="Update.">
<polygon fill="#bfbfbf" stroke="black" points="0,-120.5 0,-150.5 142,-150.5 142,-120.5 0,-120.5"/>
<text text-anchor="start" x="8" y="-138.5" font-family="Helvetica,sans-Serif" font-size="10.00">irr::scene::CCameraScene</text>
<text text-anchor="middle" x="71" y="-127.5" font-family="Helvetica,sans-Serif" font-size="10.00">Node::updateMatrices</text>
</a>
</g>
</g>
<!-- Node2 -->
<g id="node2" class="node">
<title>Node2</title>
<g id="a_node2"><a xlink:href="classirr_1_1core_1_1CMatrix4.html#a78e15297c806006898df58498755ecd4" target="_top" xlink:title="Builds a left&#45;handed look&#45;at matrix.">
<polygon fill="white" stroke="black" points="178,-235.5 178,-265.5 341,-265.5 341,-235.5 178,-235.5"/>
<text text-anchor="start" x="186" y="-253.5" font-family="Helvetica,sans-Serif" font-size="10.00">irr::core::CMatrix4</text>
<text text-anchor="middle" x="259.5" y="-242.5" font-family="Helvetica,sans-Serif" font-size="10.00">::buildCameraLookAtMatrixLH</text>
</a>
</g>
</g>
<!-- Node1&#45;&gt;Node2 -->
<g id="edge1" class="edge">
<title>Node1&#45;&gt;Node2</title>
<path fill="none" stroke="midnightblue" d="M85.61,-150.61C104.48,-170.71 140.53,-206.05 178,-226.5 181.26,-228.28 184.68,-229.95 188.18,-231.5"/>
<polygon fill="midnightblue" stroke="midnightblue" points="187.02,-234.81 197.6,-235.36 189.67,-228.33 187.02,-234.81"/>
</g>
<!-- Node3 -->
<g id="node3" class="node">
<title>Node3</title>
<g id="a_node3"><a xlink:href="classirr_1_1core_1_1vector3d.html#ae220d3f24173601c5957961382588394" target="_top" xlink:title="Get the dot product with another vector.">
<polygon fill="white" stroke="black" points="208,-186.5 208,-216.5 311,-216.5 311,-186.5 208,-186.5"/>
<text text-anchor="start" x="216" y="-204.5" font-family="Helvetica,sans-Serif" font-size="10.00">irr::core::vector3d</text>
<text text-anchor="middle" x="259.5" y="-193.5" font-family="Helvetica,sans-Serif" font-size="10.00">::dotProduct</text>
</a>
</g>
</g>
<!-- Node1&#45;&gt;Node3 -->
<g id="edge2" class="edge">
<title>Node1&#45;&gt;Node3</title>
<path fill="none" stroke="midnightblue" d="M109.05,-150.54C129.3,-158.58 154.89,-168.45 178,-176.5 184.5,-178.76 191.33,-181.04 198.15,-183.25"/>
<polygon fill="midnightblue" stroke="midnightblue" points="197.49,-186.71 208.09,-186.42 199.62,-180.04 197.49,-186.71"/>
</g>
<!-- Node4 -->
<g id="node4" class="node">
<title>Node4</title>
<g id="a_node4"><a xlink:href="namespaceirr_1_1core.html#ac1fa0ed48254bc3d2797468f3ffff735" target="_top" xlink:title="returns if a equals b, taking possible rounding errors into account">
<polygon fill="white" stroke="black" points="213.5,-148 213.5,-167 305.5,-167 305.5,-148 213.5,-148"/>
<text text-anchor="middle" x="259.5" y="-155" font-family="Helvetica,sans-Serif" font-size="10.00">irr::core::equals</text>
</a>
</g>
</g>
<!-- Node1&#45;&gt;Node4 -->
<g id="edge3" class="edge">
<title>Node1&#45;&gt;Node4</title>
<path fill="none" stroke="midnightblue" d="M142.24,-143.79C162.46,-146.17 184.22,-148.74 203.38,-151"/>
<polygon fill="midnightblue" stroke="midnightblue" points="203.1,-154.49 213.44,-152.18 203.92,-147.54 203.1,-154.49"/>
</g>
<!-- Node5 -->
<g id="node5" class="node">
<title>Node5</title>
<g id="a_node5"><a xlink:href="classirr_1_1scene_1_1ISceneNode.html#a09a1c2ce3cf5448197a0c7b0bb16a516" target="_top" xlink:title="Gets the absolute position of the node in world coordinates.">
<polygon fill="white" stroke="black" points="197,-98.5 197,-128.5 322,-128.5 322,-98.5 197,-98.5"/>
<text text-anchor="start" x="205" y="-116.5" font-family="Helvetica,sans-Serif" font-size="10.00">irr::scene::ISceneNode</text>
<text text-anchor="middle" x="259.5" y="-105.5" font-family="Helvetica,sans-Serif" font-size="10.00">::getAbsolutePosition</text>
</a>
</g>
</g>
<!-- Node1&#45;&gt;Node5 -->
<g id="edge4" class="edge">
<title>Node1&#45;&gt;Node5</title>
<path fill="none" stroke="midnightblue" d="M142.24,-127.21C156.84,-125.49 172.24,-123.68 186.89,-121.95"/>
<polygon fill="midnightblue" stroke="midnightblue" points="187.37,-125.42 196.89,-120.77 186.55,-118.46 187.37,-125.42"/>
</g>
<!-- Node7 -->
<g id="node7" class="node">
<title>Node7</title>
<g id="a_node7"><a xlink:href="structirr_1_1scene_1_1SViewFrustum.html#acf8edd203e7479d2b444ed548075ffa6" target="_top" xlink:title="get the given state&#39;s matrix based on frustum E_TRANSFORMATION_STATE">
<polygon fill="white" stroke="black" points="191,-49.5 191,-79.5 328,-79.5 328,-49.5 191,-49.5"/>
<text text-anchor="start" x="199" y="-67.5" font-family="Helvetica,sans-Serif" font-size="10.00">irr::scene::SViewFrustum</text>
<text text-anchor="middle" x="259.5" y="-56.5" font-family="Helvetica,sans-Serif" font-size="10.00">::getTransform</text>
</a>
</g>
</g>
<!-- Node1&#45;&gt;Node7 -->
<g id="edge6" class="edge">
<title>Node1&#45;&gt;Node7</title>
<path fill="none" stroke="midnightblue" d="M104.1,-120.49C124.94,-111.02 152.8,-98.85 178,-89.5 184.27,-87.17 190.86,-84.88 197.47,-82.69"/>
<polygon fill="midnightblue" stroke="midnightblue" points="198.69,-85.97 207.12,-79.54 196.52,-79.31 198.69,-85.97"/>
</g>
<!-- Node8 -->
<g id="node8" class="node">
<title>Node8</title>
<g id="a_node8"><a xlink:href="classirr_1_1core_1_1vector3d.html#a84a1861464ef70e6965c146732103c09" target="_top" xlink:title="Normalizes the vector.">
<polygon fill="white" stroke="black" points="208,-0.5 208,-30.5 311,-30.5 311,-0.5 208,-0.5"/>
<text text-anchor="start" x="216" y="-18.5" font-family="Helvetica,sans-Serif" font-size="10.00">irr::core::vector3d</text>
<text text-anchor="middle" x="259.5" y="-7.5" font-family="Helvetica,sans-Serif" font-size="10.00">::normalize</text>
</a>
</g>
</g>
<!-- Node1&#45;&gt;Node8 -->
<g id="edge7" class="edge">
<title>Node1&#45;&gt;Node8</title>
<path fill="none" stroke="midnightblue" d="M84.87,-120.46C103.44,-99.65 139.74,-62.2 178,-40.5 184.3,-36.93 191.18,-33.8 198.16,-31.08"/>
<polygon fill="midnightblue" stroke="midnightblue" points="199.51,-34.32 207.73,-27.62 197.13,-27.73 199.51,-34.32"/>
</g>
<!-- Node6 -->
<g id="node6" class="node">
<title>Node6</title>
<g id="a_node6"><a xlink:href="classirr_1_1core_1_1CMatrix4.html#a574f83a4c1c6809f71ccb200020983f7" target="_top" xlink:title="Gets the current translation.">
<polygon fill="white" stroke="black" points="377,-98.5 377,-128.5 481,-128.5 481,-98.5 377,-98.5"/>
<text text-anchor="start" x="385" y="-116.5" font-family="Helvetica,sans-Serif" font-size="10.00">irr::core::CMatrix4</text>
<text text-anchor="middle" x="429" y="-105.5" font-family="Helvetica,sans-Serif" font-size="10.00">::getTranslation</text>
</a>
</g>
</g>
<!-- Node5&#45;&gt;Node6 -->
<g id="edge5" class="edge">
<title>Node5&#45;&gt;Node6</title>
<path fill="none" stroke="midnightblue" d="M322.39,-113.5C336.79,-113.5 352.12,-113.5 366.5,-113.5"/>
<polygon fill="midnightblue" stroke="midnightblue" points="366.78,-117 376.78,-113.5 366.78,-110 366.78,-117"/>
</g>
</g>
</svg>
