<?xml version="1.0" encoding="UTF-8" standalone="no"?>
<!DOCTYPE svg PUBLIC "-//W3C//DTD SVG 1.1//EN"
 "http://www.w3.org/Graphics/SVG/1.1/DTD/svg11.dtd">
<!-- Generated by graphviz version 2.43.0 (0)
 -->
<!-- Title: irr::video::CNullDriver::addHighLevelShaderMaterialFromFiles Pages: 1 -->
<svg width="334pt" height="127pt"
 viewBox="0.00 0.00 334.00 126.50" xmlns="http://www.w3.org/2000/svg" xmlns:xlink="http://www.w3.org/1999/xlink">
<g id="graph0" class="graph" transform="scale(1 1) rotate(0) translate(4 122.5)">
<title>irr::video::CNullDriver::addHighLevelShaderMaterialFromFiles</title>
<polygon fill="white" stroke="transparent" points="-4,4 -4,-122.5 330,-122.5 330,4 -4,4"/>
<!-- Node1 -->
<g id="node1" class="node">
<title>Node1</title>
<g id="a_node1"><a xlink:title=" ">
<polygon fill="#bfbfbf" stroke="black" points="0,-33.5 0,-74.5 164,-74.5 164,-33.5 0,-33.5"/>
<text text-anchor="start" x="8" y="-62.5" font-family="Helvetica,sans-Serif" font-size="10.00">irr::video::CNullDriver</text>
<text text-anchor="start" x="8" y="-51.5" font-family="Helvetica,sans-Serif" font-size="10.00">::addHighLevelShaderMaterial</text>
<text text-anchor="middle" x="82" y="-40.5" font-family="Helvetica,sans-Serif" font-size="10.00">FromFiles</text>
</a>
</g>
</g>
<!-- Node2 -->
<g id="node2" class="node">
<title>Node2</title>
<g id="a_node2"><a xlink:href="classirr_1_1io_1_1IFileSystem.html#a3678bb77e12cc6ee2b3947f4c79f6c90" target="_top" xlink:title="Opens a file for read access.">
<polygon fill="white" stroke="black" points="205.5,-88 205.5,-118 320.5,-118 320.5,-88 205.5,-88"/>
<text text-anchor="start" x="213.5" y="-106" font-family="Helvetica,sans-Serif" font-size="10.00">irr::io::IFileSystem</text>
<text text-anchor="middle" x="263" y="-95" font-family="Helvetica,sans-Serif" font-size="10.00">::createAndOpenFile</text>
</a>
</g>
</g>
<!-- Node1&#45;&gt;Node2 -->
<g id="edge1" class="edge">
<title>Node1&#45;&gt;Node2</title>
<path fill="none" stroke="midnightblue" d="M158.13,-74.57C171.12,-78.12 184.52,-81.79 197.2,-85.26"/>
<polygon fill="midnightblue" stroke="midnightblue" points="196.62,-88.73 207.19,-88 198.47,-81.98 196.62,-88.73"/>
</g>
<!-- Node3 -->
<g id="node3" class="node">
<title>Node3</title>
<g id="a_node3"><a xlink:href="classirr_1_1IReferenceCounted.html#a03856a09355b89d178090c4a5f738543" target="_top" xlink:title="Drops the object. Decrements the reference counter by one.">
<polygon fill="white" stroke="black" points="200,-39 200,-69 326,-69 326,-39 200,-39"/>
<text text-anchor="start" x="208" y="-57" font-family="Helvetica,sans-Serif" font-size="10.00">irr::IReferenceCounted</text>
<text text-anchor="middle" x="263" y="-46" font-family="Helvetica,sans-Serif" font-size="10.00">::drop</text>
</a>
</g>
</g>
<!-- Node1&#45;&gt;Node3 -->
<g id="edge2" class="edge">
<title>Node1&#45;&gt;Node3</title>
<path fill="none" stroke="midnightblue" d="M164.12,-54C172.67,-54 181.32,-54 189.76,-54"/>
<polygon fill="midnightblue" stroke="midnightblue" points="189.93,-57.5 199.93,-54 189.93,-50.5 189.93,-57.5"/>
</g>
<!-- Node4 -->
<g id="node4" class="node">
<title>Node4</title>
<g id="a_node4"><a xlink:href="classirr_1_1core_1_1string.html#aa8bd67d3b9e153e1a8e47ea921c95933" target="_top" xlink:title="Returns length of the string&#39;s content.">
<polygon fill="white" stroke="black" points="206.5,-0.5 206.5,-19.5 319.5,-19.5 319.5,-0.5 206.5,-0.5"/>
<text text-anchor="middle" x="263" y="-7.5" font-family="Helvetica,sans-Serif" font-size="10.00">irr::core::string::size</text>
</a>
</g>
</g>
<!-- Node1&#45;&gt;Node4 -->
<g id="edge3" class="edge">
<title>Node1&#45;&gt;Node4</title>
<path fill="none" stroke="midnightblue" d="M164.12,-34.06C180.81,-29.96 197.88,-25.76 213,-22.04"/>
<polygon fill="midnightblue" stroke="midnightblue" points="214.26,-25.34 223.13,-19.55 212.59,-18.54 214.26,-25.34"/>
</g>
</g>
</svg>
