<?xml version="1.0" encoding="UTF-8" standalone="no"?>
<!DOCTYPE svg PUBLIC "-//W3C//DTD SVG 1.1//EN"
 "http://www.w3.org/Graphics/SVG/1.1/DTD/svg11.dtd">
<!-- Generated by graphviz version 2.43.0 (0)
 -->
<!-- Title: Catch::Generators::RepeatGenerator&lt; T &gt; Pages: 1 -->
<svg width="474pt" height="207pt"
 viewBox="0.00 0.00 474.00 207.00" xmlns="http://www.w3.org/2000/svg" xmlns:xlink="http://www.w3.org/1999/xlink">
<g id="graph0" class="graph" transform="scale(1 1) rotate(0) translate(4 203)">
<title>Catch::Generators::RepeatGenerator&lt; T &gt;</title>
<polygon fill="white" stroke="transparent" points="-4,4 -4,-203 470,-203 470,4 -4,4"/>
<!-- Node1 -->
<g id="node1" class="node">
<title>Node1</title>
<g id="a_node1"><a xlink:title=" ">
<polygon fill="#bfbfbf" stroke="black" points="153.5,-0.5 153.5,-30.5 281.5,-30.5 281.5,-0.5 153.5,-0.5"/>
<text text-anchor="start" x="161.5" y="-18.5" font-family="Helvetica,sans-Serif" font-size="10.00">Catch::Generators::</text>
<text text-anchor="middle" x="217.5" y="-7.5" font-family="Helvetica,sans-Serif" font-size="10.00">RepeatGenerator&lt; T &gt;</text>
</a>
</g>
</g>
<!-- Node2 -->
<g id="node2" class="node">
<title>Node2</title>
<g id="a_node2"><a xlink:href="structCatch_1_1Generators_1_1IGenerator.html" target="_top" xlink:title=" ">
<polygon fill="white" stroke="black" points="10.5,-100.5 10.5,-130.5 120.5,-130.5 120.5,-100.5 10.5,-100.5"/>
<text text-anchor="start" x="18.5" y="-118.5" font-family="Helvetica,sans-Serif" font-size="10.00">Catch::Generators::</text>
<text text-anchor="middle" x="65.5" y="-107.5" font-family="Helvetica,sans-Serif" font-size="10.00">IGenerator&lt; T &gt;</text>
</a>
</g>
</g>
<!-- Node2&#45;&gt;Node1 -->
<g id="edge1" class="edge">
<title>Node2&#45;&gt;Node1</title>
<path fill="none" stroke="midnightblue" d="M89.96,-94.19C106.94,-80.57 130.4,-62.69 152.5,-49 163.23,-42.36 175.49,-35.94 186.46,-30.6"/>
<polygon fill="midnightblue" stroke="midnightblue" points="87.74,-91.48 82.18,-100.49 92.15,-96.92 87.74,-91.48"/>
</g>
<!-- Node3 -->
<g id="node3" class="node">
<title>Node3</title>
<g id="a_node3"><a xlink:href="classCatch_1_1Generators_1_1GeneratorUntypedBase.html" target="_top" xlink:title=" ">
<polygon fill="white" stroke="black" points="0,-168.5 0,-198.5 131,-198.5 131,-168.5 0,-168.5"/>
<text text-anchor="start" x="8" y="-186.5" font-family="Helvetica,sans-Serif" font-size="10.00">Catch::Generators::</text>
<text text-anchor="middle" x="65.5" y="-175.5" font-family="Helvetica,sans-Serif" font-size="10.00">GeneratorUntypedBase</text>
</a>
</g>
</g>
<!-- Node3&#45;&gt;Node2 -->
<g id="edge2" class="edge">
<title>Node3&#45;&gt;Node2</title>
<path fill="none" stroke="midnightblue" d="M65.5,-158.03C65.5,-148.86 65.5,-138.74 65.5,-130.79"/>
<polygon fill="midnightblue" stroke="midnightblue" points="62,-158.18 65.5,-168.18 69,-158.18 62,-158.18"/>
</g>
<!-- Node4 -->
<g id="node4" class="node">
<title>Node4</title>
<g id="a_node4"><a xlink:title=" ">
<polygon fill="white" stroke="#bfbfbf" points="139,-106 139,-125 184,-125 184,-106 139,-106"/>
<text text-anchor="middle" x="161.5" y="-113" font-family="Helvetica,sans-Serif" font-size="10.00">size_t</text>
</a>
</g>
</g>
<!-- Node4&#45;&gt;Node1 -->
<g id="edge3" class="edge">
<title>Node4&#45;&gt;Node1</title>
<path fill="none" stroke="#9a32cd" stroke-dasharray="5,2" d="M157.17,-95.88C154.98,-82.01 154.3,-63.12 162.5,-49 166.96,-41.33 174,-35.28 181.58,-30.58"/>
<polygon fill="#9a32cd" stroke="#9a32cd" points="153.74,-96.59 159.1,-105.73 160.61,-95.25 153.74,-96.59"/>
<text text-anchor="middle" x="207.5" y="-74" font-family="Helvetica,sans-Serif" font-size="10.00"> m_current_repeat</text>
<text text-anchor="middle" x="207.5" y="-63" font-family="Helvetica,sans-Serif" font-size="10.00">m_target_repeats</text>
<text text-anchor="middle" x="207.5" y="-52" font-family="Helvetica,sans-Serif" font-size="10.00">m_repeat_index</text>
</g>
<!-- Node5 -->
<g id="node5" class="node">
<title>Node5</title>
<g id="a_node5"><a xlink:title=" ">
<polygon fill="white" stroke="#bfbfbf" points="236.5,-106 236.5,-125 312.5,-125 312.5,-106 236.5,-106"/>
<text text-anchor="middle" x="274.5" y="-113" font-family="Helvetica,sans-Serif" font-size="10.00">vector&lt; T &gt;</text>
</a>
</g>
</g>
<!-- Node5&#45;&gt;Node1 -->
<g id="edge4" class="edge">
<title>Node5&#45;&gt;Node1</title>
<path fill="none" stroke="#9a32cd" stroke-dasharray="5,2" d="M270.81,-95.67C267.51,-81.95 261.75,-63.33 252.5,-49 248.09,-42.17 241.93,-35.81 236,-30.56"/>
<polygon fill="#9a32cd" stroke="#9a32cd" points="267.47,-96.81 273.02,-105.84 274.31,-95.33 267.47,-96.81"/>
<text text-anchor="middle" x="296.5" y="-63" font-family="Helvetica,sans-Serif" font-size="10.00"> m_returned</text>
</g>
<!-- Node6 -->
<g id="node6" class="node">
<title>Node6</title>
<g id="a_node6"><a xlink:title=" ">
<polygon fill="white" stroke="#bfbfbf" points="331,-106 331,-125 466,-125 466,-106 331,-106"/>
<text text-anchor="middle" x="398.5" y="-113" font-family="Helvetica,sans-Serif" font-size="10.00">GeneratorWrapper&lt; T &gt;</text>
</a>
</g>
</g>
<!-- Node6&#45;&gt;Node1 -->
<g id="edge5" class="edge">
<title>Node6&#45;&gt;Node1</title>
<path fill="none" stroke="#9a32cd" stroke-dasharray="5,2" d="M385.49,-98.03C372.92,-83.16 352.57,-61.74 330.5,-49 315.56,-40.38 298.17,-33.91 281.58,-29.11"/>
<polygon fill="#9a32cd" stroke="#9a32cd" points="382.9,-100.39 391.95,-105.9 388.32,-95.95 382.9,-100.39"/>
<text text-anchor="middle" x="402.5" y="-63" font-family="Helvetica,sans-Serif" font-size="10.00"> m_generator</text>
</g>
</g>
</svg>
