<?xml version="1.0" encoding="UTF-8" standalone="no"?>
<!DOCTYPE svg PUBLIC "-//W3C//DTD SVG 1.1//EN"
 "http://www.w3.org/Graphics/SVG/1.1/DTD/svg11.dtd">
<!-- Generated by graphviz version 2.43.0 (0)
 -->
<!-- Title: irr::video::COpenGL3DriverBase::createHardwareBuffer Pages: 1 -->
<!--zoomable 265 -->
<svg id="main" version="1.1" xmlns="http://www.w3.org/2000/svg" xmlns:xlink="http://www.w3.org/1999/xlink" xml:space="preserve" onload="init(evt)">
<style type="text/css"><![CDATA[
.edge:hover path { stroke: red; }
.edge:hover polygon { stroke: red; fill: red; }
]]></style>
<script type="text/javascript"><![CDATA[
var edges = document.getElementsByTagName('g');
if (edges && edges.length) {
  for (var i=0;i<edges.length;i++) {
    if (edges[i].id.substr(0,4)=='edge') {
      edges[i].setAttribute('class','edge');
    }
  }
}
]]></script>
        <defs>
                <circle id="rim" cx="0" cy="0" r="7"/>
                <circle id="rim2" cx="0" cy="0" r="3.5"/>
                <g id="zoomPlus">
                        <use xlink:href="#rim" fill="#404040">
                                <set attributeName="fill" to="#808080" begin="zoomplus.mouseover" end="zoomplus.mouseout"/>
                        </use>
                        <path d="M-4,0h8M0,-4v8" fill="none" stroke="white" stroke-width="1.5" pointer-events="none"/>
                </g>
                <g id="zoomMin">
                        <use xlink:href="#rim" fill="#404040">
                                <set attributeName="fill" to="#808080" begin="zoomminus.mouseover" end="zoomminus.mouseout"/>
                        </use>
                        <path d="M-4,0h8" fill="none" stroke="white" stroke-width="1.5" pointer-events="none"/>
                </g>
                <g id="dirArrow">
                        <path fill="none" stroke="white" stroke-width="1.5" d="M0,-3.0v7 M-2.5,-0.5L0,-3.0L2.5,-0.5"/>
                </g>
               <g id="resetDef">
                       <use xlink:href="#rim2" fill="#404040">
                               <set attributeName="fill" to="#808080" begin="reset.mouseover" end="reset.mouseout"/>
                       </use>
               </g>
        </defs>

<script type="text/javascript">
var viewWidth = 544;
var viewHeight = 265;
var sectionId = 'dynsection-4';
</script>
<script xlink:href="svgpan.js"/>
<svg id="graph" class="graph">
<g id="viewport">
<title>irr::video::COpenGL3DriverBase::createHardwareBuffer</title>
<polygon fill="white" stroke="transparent" points="-4,4 -4,-260.61 540,-260.61 540,4 -4,4"/>
<!-- Node1 -->
<g id="node1" class="node">
<title>Node1</title>
<g id="a_node1"><a xlink:title="Create hardware buffer from mesh.">
<polygon fill="#bfbfbf" stroke="black" points="0,-113.11 0,-143.11 154,-143.11 154,-113.11 0,-113.11"/>
<text text-anchor="start" x="8" y="-131.11" font-family="Helvetica,sans-Serif" font-size="10.00">irr::video::COpenGL3Driver</text>
<text text-anchor="middle" x="77" y="-120.11" font-family="Helvetica,sans-Serif" font-size="10.00">Base::createHardwareBuffer</text>
</a>
</g>
</g>
<!-- Node2 -->
<g id="node2" class="node">
<title>Node2</title>
<g id="a_node2"><a xlink:href="classirr_1_1video_1_1COpenGL3DriverBase.html#a2a27db545210217956da0c21dda9012a" target="_top" xlink:title="Delete hardware buffer (only some drivers can)">
<polygon fill="white" stroke="black" points="203,-226.11 203,-256.11 357,-256.11 357,-226.11 203,-226.11"/>
<text text-anchor="start" x="211" y="-244.11" font-family="Helvetica,sans-Serif" font-size="10.00">irr::video::COpenGL3Driver</text>
<text text-anchor="middle" x="280" y="-233.11" font-family="Helvetica,sans-Serif" font-size="10.00">Base::deleteHardwareBuffer</text>
</a>
</g>
</g>
<!-- Node1&#45;&gt;Node2 -->
<g id="edge1" class="edge">
<title>Node1&#45;&gt;Node2</title>
<path fill="none" stroke="midnightblue" d="M94.71,-143.15C115.67,-161.35 153.32,-191.95 190,-211.11 198.07,-215.32 206.85,-219.13 215.64,-222.5"/>
<polygon fill="midnightblue" stroke="midnightblue" points="214.57,-225.83 225.16,-225.98 216.98,-219.26 214.57,-225.83"/>
</g>
<!-- Node4 -->
<g id="node4" class="node">
<title>Node4</title>
<g id="a_node4"><a xlink:href="classirr_1_1scene_1_1IMeshBuffer.html#acc389d76856dfb06c3ba45a92315e6d8" target="_top" xlink:title="Get the currently used ID for identification of changes.">
<polygon fill="white" stroke="black" points="408,-157.11 408,-187.11 534,-187.11 534,-157.11 408,-157.11"/>
<text text-anchor="start" x="416" y="-175.11" font-family="Helvetica,sans-Serif" font-size="10.00">irr::scene::IMeshBuffer</text>
<text text-anchor="middle" x="471" y="-164.11" font-family="Helvetica,sans-Serif" font-size="10.00">::getChangedID_Index</text>
</a>
</g>
</g>
<!-- Node1&#45;&gt;Node4 -->
<g id="edge3" class="edge">
<title>Node1&#45;&gt;Node4</title>
<path fill="none" stroke="midnightblue" d="M103.64,-143.31C125.68,-155.43 158.76,-171.45 190,-178.11 259.42,-192.9 340.72,-188.87 397.78,-182.68"/>
<polygon fill="midnightblue" stroke="midnightblue" points="398.24,-186.15 407.78,-181.54 397.45,-179.19 398.24,-186.15"/>
</g>
<!-- Node5 -->
<g id="node5" class="node">
<title>Node5</title>
<g id="a_node5"><a xlink:href="classirr_1_1scene_1_1IMeshBuffer.html#aba48df31edf92a0117692c0be02298db" target="_top" xlink:title="Get the currently used ID for identification of changes.">
<polygon fill="white" stroke="black" points="407,-56.11 407,-86.11 535,-86.11 535,-56.11 407,-56.11"/>
<text text-anchor="start" x="415" y="-74.11" font-family="Helvetica,sans-Serif" font-size="10.00">irr::scene::IMeshBuffer</text>
<text text-anchor="middle" x="471" y="-63.11" font-family="Helvetica,sans-Serif" font-size="10.00">::getChangedID_Vertex</text>
</a>
</g>
</g>
<!-- Node1&#45;&gt;Node5 -->
<g id="edge4" class="edge">
<title>Node1&#45;&gt;Node5</title>
<path fill="none" stroke="midnightblue" d="M87.78,-112.79C104.9,-87.57 142.99,-38.21 190,-19.11 264.12,11 292.29,-0.11 370,-19.11 395.11,-25.25 420.93,-38.9 440.04,-50.67"/>
<polygon fill="midnightblue" stroke="midnightblue" points="438.27,-53.69 448.59,-56.08 442.01,-47.78 438.27,-53.69"/>
</g>
<!-- Node6 -->
<g id="node6" class="node">
<title>Node6</title>
<g id="a_node6"><a xlink:href="classirr_1_1scene_1_1IMeshBuffer.html#a2260f9efb3fad4ba9581e18fccaad5a7" target="_top" xlink:title="get the current hardware mapping hint">
<polygon fill="white" stroke="black" points="190,-89.11 190,-119.11 370,-119.11 370,-89.11 190,-89.11"/>
<text text-anchor="start" x="198" y="-107.11" font-family="Helvetica,sans-Serif" font-size="10.00">irr::scene::IMeshBuffer</text>
<text text-anchor="middle" x="280" y="-96.11" font-family="Helvetica,sans-Serif" font-size="10.00">::getHardwareMappingHint_Index</text>
</a>
</g>
</g>
<!-- Node1&#45;&gt;Node6 -->
<g id="edge5" class="edge">
<title>Node1&#45;&gt;Node6</title>
<path fill="none" stroke="midnightblue" d="M154.28,-119C162.66,-118 171.28,-116.97 179.88,-115.95"/>
<polygon fill="midnightblue" stroke="midnightblue" points="180.45,-119.4 189.97,-114.74 179.62,-112.45 180.45,-119.4"/>
</g>
<!-- Node7 -->
<g id="node7" class="node">
<title>Node7</title>
<g id="a_node7"><a xlink:href="classirr_1_1scene_1_1IMeshBuffer.html#abbf42191b2fb4d2f7094a77fd76a530e" target="_top" xlink:title="get the current hardware mapping hint">
<polygon fill="white" stroke="black" points="206,-28.61 206,-69.61 354,-69.61 354,-28.61 206,-28.61"/>
<text text-anchor="start" x="214" y="-57.61" font-family="Helvetica,sans-Serif" font-size="10.00">irr::scene::IMeshBuffer</text>
<text text-anchor="start" x="214" y="-46.61" font-family="Helvetica,sans-Serif" font-size="10.00">::getHardwareMappingHint</text>
<text text-anchor="middle" x="280" y="-35.61" font-family="Helvetica,sans-Serif" font-size="10.00">_Vertex</text>
</a>
</g>
</g>
<!-- Node1&#45;&gt;Node7 -->
<g id="edge6" class="edge">
<title>Node1&#45;&gt;Node7</title>
<path fill="none" stroke="midnightblue" d="M111.57,-113C133.68,-103.22 163.37,-90.44 190,-80.11 195.91,-77.82 202.06,-75.51 208.26,-73.25"/>
<polygon fill="midnightblue" stroke="midnightblue" points="209.78,-76.42 217.99,-69.73 207.4,-69.84 209.78,-76.42"/>
</g>
<!-- Node8 -->
<g id="node8" class="node">
<title>Node8</title>
<g id="a_node8"><a xlink:href="classirr_1_1video_1_1COpenGL3DriverBase.html#adc988a0d78ee678b8ee093938bc6e5fd" target="_top" xlink:title="updates hardware buffer if needed">
<polygon fill="white" stroke="black" points="201.5,-138.11 201.5,-168.11 358.5,-168.11 358.5,-138.11 201.5,-138.11"/>
<text text-anchor="start" x="209.5" y="-156.11" font-family="Helvetica,sans-Serif" font-size="10.00">irr::video::COpenGL3Driver</text>
<text text-anchor="middle" x="280" y="-145.11" font-family="Helvetica,sans-Serif" font-size="10.00">Base::updateHardwareBuffer</text>
</a>
</g>
</g>
<!-- Node1&#45;&gt;Node8 -->
<g id="edge7" class="edge">
<title>Node1&#45;&gt;Node8</title>
<path fill="none" stroke="midnightblue" d="M154.28,-137.6C166.34,-139.1 178.89,-140.66 191.19,-142.19"/>
<polygon fill="midnightblue" stroke="midnightblue" points="191.09,-145.7 201.44,-143.46 191.95,-138.76 191.09,-145.7"/>
</g>
<!-- Node3 -->
<g id="node3" class="node">
<title>Node3</title>
<g id="a_node3"><a xlink:href="classirr_1_1video_1_1CNullDriver.html#a6e22b60b40214b6ed40ab95969874641" target="_top" xlink:title="Delete hardware buffer.">
<polygon fill="white" stroke="black" points="406,-226.11 406,-256.11 536,-256.11 536,-226.11 406,-226.11"/>
<text text-anchor="start" x="414" y="-244.11" font-family="Helvetica,sans-Serif" font-size="10.00">irr::video::CNullDriver</text>
<text text-anchor="middle" x="471" y="-233.11" font-family="Helvetica,sans-Serif" font-size="10.00">::deleteHardwareBuffer</text>
</a>
</g>
</g>
<!-- Node2&#45;&gt;Node3 -->
<g id="edge2" class="edge">
<title>Node2&#45;&gt;Node3</title>
<path fill="none" stroke="midnightblue" d="M357.06,-241.11C369.84,-241.11 383.1,-241.11 395.84,-241.11"/>
<polygon fill="midnightblue" stroke="midnightblue" points="395.93,-244.61 405.93,-241.11 395.93,-237.61 395.93,-244.61"/>
</g>
<!-- Node8&#45;&gt;Node4 -->
<g id="edge8" class="edge">
<title>Node8&#45;&gt;Node4</title>
<path fill="none" stroke="midnightblue" d="M358.69,-160.92C371.63,-162.22 384.99,-163.57 397.79,-164.85"/>
<polygon fill="midnightblue" stroke="midnightblue" points="397.6,-168.35 407.9,-165.87 398.3,-161.39 397.6,-168.35"/>
</g>
<!-- Node8&#45;&gt;Node5 -->
<g id="edge9" class="edge">
<title>Node8&#45;&gt;Node5</title>
<path fill="none" stroke="midnightblue" d="M344.89,-138.07C353.45,-135.42 362.02,-132.43 370,-129.11 394.31,-118.99 419.97,-104.01 439.21,-91.8"/>
<polygon fill="midnightblue" stroke="midnightblue" points="441.33,-94.6 447.84,-86.25 437.54,-88.72 441.33,-94.6"/>
</g>
</g>
</svg>
        <g id="navigator" transform="translate(0 0)" fill="#404254">
                <rect fill="#f2f5e9" fill-opacity="0.5" stroke="#606060" stroke-width=".5" x="0" y="0" width="60" height="60"/>
                <use id="zoomplus" xlink:href="#zoomPlus" x="17" y="9" onmousedown="handleZoom(evt,'in')"/>
                <use id="zoomminus" xlink:href="#zoomMin" x="42" y="9" onmousedown="handleZoom(evt,'out')"/>
                <use id="reset" xlink:href="#resetDef" x="30" y="36" onmousedown="handleReset()"/>
                <g id="arrowUp" xlink:href="#dirArrow" transform="translate(30 24)" onmousedown="handlePan(0,-1)">
                  <use xlink:href="#rim" fill="#404040">
                        <set attributeName="fill" to="#808080" begin="arrowUp.mouseover" end="arrowUp.mouseout"/>
                  </use>
                  <path fill="none" stroke="white" stroke-width="1.5" d="M0,-3.0v7 M-2.5,-0.5L0,-3.0L2.5,-0.5"/>
                </g>
                <g id="arrowRight" xlink:href="#dirArrow" transform="rotate(90) translate(36 -43)" onmousedown="handlePan(1,0)">
                  <use xlink:href="#rim" fill="#404040">
                        <set attributeName="fill" to="#808080" begin="arrowRight.mouseover" end="arrowRight.mouseout"/>
                  </use>
                  <path fill="none" stroke="white" stroke-width="1.5" d="M0,-3.0v7 M-2.5,-0.5L0,-3.0L2.5,-0.5"/>
                </g>
                <g id="arrowDown" xlink:href="#dirArrow" transform="rotate(180) translate(-30 -48)" onmousedown="handlePan(0,1)">
                  <use xlink:href="#rim" fill="#404040">
                        <set attributeName="fill" to="#808080" begin="arrowDown.mouseover" end="arrowDown.mouseout"/>
                  </use>
                  <path fill="none" stroke="white" stroke-width="1.5" d="M0,-3.0v7 M-2.5,-0.5L0,-3.0L2.5,-0.5"/>
                </g>
                <g id="arrowLeft" xlink:href="#dirArrow" transform="rotate(270) translate(-36 17)" onmousedown="handlePan(-1,0)">
                  <use xlink:href="#rim" fill="#404040">
                        <set attributeName="fill" to="#808080" begin="arrowLeft.mouseover" end="arrowLeft.mouseout"/>
                  </use>
                  <path fill="none" stroke="white" stroke-width="1.5" d="M0,-3.0v7 M-2.5,-0.5L0,-3.0L2.5,-0.5"/>
                </g>
        </g>
        <svg viewBox="0 0 15 15" width="100%" height="30px" preserveAspectRatio="xMaxYMin meet">
         <g id="arrow_out" transform="scale(0.3 0.3)">
          <a xlink:href="classirr_1_1video_1_1COpenGL3DriverBase_a92dd063eb3e8e4fd4e8a89c8361e0bd2_cgraph_org.svg" target="_base">
           <rect id="button" ry="5" rx="5" y="6" x="6" height="38" width="38"
                fill="#f2f5e9" fill-opacity="0.5" stroke="#606060" stroke-width="1.0"/>
           <path id="arrow"
             d="M 11.500037,31.436501 C 11.940474,20.09759 22.043105,11.32322 32.158766,21.979434 L 37.068811,17.246167 C 37.068811,17.246167 37.088388,32 37.088388,32 L 22.160133,31.978069 C 22.160133,31.978069 26.997745,27.140456 26.997745,27.140456 C 18.528582,18.264221 13.291696,25.230495 11.500037,31.436501 z"
             style="fill:#404040;"/>
          </a>
         </g>
        </svg>
</svg>
