<?xml version="1.0" encoding="UTF-8" standalone="no"?>
<!DOCTYPE svg PUBLIC "-//W3C//DTD SVG 1.1//EN"
 "http://www.w3.org/Graphics/SVG/1.1/DTD/svg11.dtd">
<!-- Generated by graphviz version 2.43.0 (0)
 -->
<!-- Title: irr::scene::CDummyTransformationSceneNode Pages: 1 -->
<svg width="1488pt" height="467pt"
 viewBox="0.00 0.00 1488.00 467.00" xmlns="http://www.w3.org/2000/svg" xmlns:xlink="http://www.w3.org/1999/xlink">
<g id="graph0" class="graph" transform="scale(1 1) rotate(0) translate(4 463)">
<title>irr::scene::CDummyTransformationSceneNode</title>
<polygon fill="white" stroke="transparent" points="-4,4 -4,-463 1484,-463 1484,4 -4,4"/>
<!-- Node1 -->
<g id="node1" class="node">
<title>Node1</title>
<g id="a_node1"><a xlink:title=" ">
<polygon fill="#bfbfbf" stroke="black" points="1293,-130 1293,-160 1480,-160 1480,-130 1293,-130"/>
<text text-anchor="start" x="1301" y="-148" font-family="Helvetica,sans-Serif" font-size="10.00">irr::scene::CDummyTransformation</text>
<text text-anchor="middle" x="1386.5" y="-137" font-family="Helvetica,sans-Serif" font-size="10.00">SceneNode</text>
</a>
</g>
</g>
<!-- Node2 -->
<g id="node2" class="node">
<title>Node2</title>
<g id="a_node2"><a xlink:href="classirr_1_1scene_1_1IDummyTransformationSceneNode.html" target="_top" xlink:title="Dummy scene node for adding additional transformations to the scene graph.">
<polygon fill="white" stroke="black" points="1073,-198 1073,-228 1256,-228 1256,-198 1073,-198"/>
<text text-anchor="start" x="1081" y="-216" font-family="Helvetica,sans-Serif" font-size="10.00">irr::scene::IDummyTransformation</text>
<text text-anchor="middle" x="1164.5" y="-205" font-family="Helvetica,sans-Serif" font-size="10.00">SceneNode</text>
</a>
</g>
</g>
<!-- Node2&#45;&gt;Node1 -->
<g id="edge1" class="edge">
<title>Node2&#45;&gt;Node1</title>
<path fill="none" stroke="midnightblue" d="M1223.72,-195C1258.94,-184.12 1303.32,-170.4 1336.69,-160.09"/>
<polygon fill="midnightblue" stroke="midnightblue" points="1222.57,-191.7 1214.05,-197.99 1224.64,-198.38 1222.57,-191.7"/>
</g>
<!-- Node3 -->
<g id="node3" class="node">
<title>Node3</title>
<g id="a_node3"><a xlink:href="classirr_1_1scene_1_1ISceneNode.html" target="_top" xlink:title="Scene node interface.">
<polygon fill="white" stroke="black" points="763,-246.5 763,-265.5 888,-265.5 888,-246.5 763,-246.5"/>
<text text-anchor="middle" x="825.5" y="-253.5" font-family="Helvetica,sans-Serif" font-size="10.00">irr::scene::ISceneNode</text>
</a>
</g>
</g>
<!-- Node3&#45;&gt;Node2 -->
<g id="edge2" class="edge">
<title>Node3&#45;&gt;Node2</title>
<path fill="none" stroke="midnightblue" d="M898.26,-246.84C949.24,-240.34 1018.08,-231.55 1072.86,-224.57"/>
<polygon fill="midnightblue" stroke="midnightblue" points="897.79,-243.38 888.31,-248.11 898.67,-250.32 897.79,-243.38"/>
</g>
<!-- Node3&#45;&gt;Node3 -->
<g id="edge26" class="edge">
<title>Node3&#45;&gt;Node3</title>
<path fill="none" stroke="#9a32cd" stroke-dasharray="5,2" d="M799.46,-275.03C800.88,-280.13 809.56,-284 825.5,-284 850.38,-284 857.58,-274.57 847.08,-265.76"/>
<polygon fill="#9a32cd" stroke="#9a32cd" points="802.74,-276.29 803.92,-265.76 796.43,-273.25 802.74,-276.29"/>
<text text-anchor="middle" x="825.5" y="-287" font-family="Helvetica,sans-Serif" font-size="10.00"> Parent</text>
</g>
<!-- Node4 -->
<g id="node4" class="node">
<title>Node4</title>
<g id="a_node4"><a xlink:href="classirr_1_1IReferenceCounted.html" target="_top" xlink:title="Base class of most objects of the Irrlicht Engine.">
<polygon fill="white" stroke="black" points="252.5,-284.5 252.5,-303.5 378.5,-303.5 378.5,-284.5 252.5,-284.5"/>
<text text-anchor="middle" x="315.5" y="-291.5" font-family="Helvetica,sans-Serif" font-size="10.00">irr::IReferenceCounted</text>
</a>
</g>
</g>
<!-- Node4&#45;&gt;Node3 -->
<g id="edge3" class="edge">
<title>Node4&#45;&gt;Node3</title>
<path fill="none" stroke="midnightblue" d="M389.25,-298.62C392.88,-298.76 396.48,-298.89 400,-299 420.44,-299.61 425.56,-299.25 446,-299 579.05,-297.35 614.84,-311.62 745,-284 764.9,-279.78 786.62,-271.89 802.33,-265.55"/>
<polygon fill="midnightblue" stroke="midnightblue" points="389.1,-295.1 378.95,-298.15 388.78,-302.1 389.1,-295.1"/>
</g>
<!-- Node21 -->
<g id="node21" class="node">
<title>Node21</title>
<g id="a_node21"><a xlink:href="classirr_1_1scene_1_1ISceneManager.html" target="_top" xlink:title="The Scene Manager manages scene nodes, mesh resources, cameras and all the other stuff.">
<polygon fill="white" stroke="black" points="464,-266.5 464,-285.5 607,-285.5 607,-266.5 464,-266.5"/>
<text text-anchor="middle" x="535.5" y="-273.5" font-family="Helvetica,sans-Serif" font-size="10.00">irr::scene::ISceneManager</text>
</a>
</g>
</g>
<!-- Node4&#45;&gt;Node21 -->
<g id="edge25" class="edge">
<title>Node4&#45;&gt;Node21</title>
<path fill="none" stroke="midnightblue" d="M388.83,-288.03C412.96,-286.04 439.79,-283.82 463.79,-281.84"/>
<polygon fill="midnightblue" stroke="midnightblue" points="388.36,-284.55 378.68,-288.87 388.93,-291.53 388.36,-284.55"/>
</g>
<!-- Node5 -->
<g id="node5" class="node">
<title>Node5</title>
<g id="a_node5"><a xlink:title=" ">
<polygon fill="white" stroke="#bfbfbf" points="42,-295.5 42,-314.5 80,-314.5 80,-295.5 42,-295.5"/>
<text text-anchor="middle" x="61" y="-302.5" font-family="Helvetica,sans-Serif" font-size="10.00">char</text>
</a>
</g>
</g>
<!-- Node5&#45;&gt;Node4 -->
<g id="edge4" class="edge">
<title>Node5&#45;&gt;Node4</title>
<path fill="none" stroke="#9a32cd" stroke-dasharray="5,2" d="M90.26,-303.77C129.26,-302.07 200.63,-298.96 252.4,-296.71"/>
<polygon fill="#9a32cd" stroke="#9a32cd" points="90,-300.28 80.16,-304.21 90.3,-307.27 90,-300.28"/>
<text text-anchor="middle" x="185.5" y="-304" font-family="Helvetica,sans-Serif" font-size="10.00"> DebugName</text>
</g>
<!-- Node6 -->
<g id="node6" class="node">
<title>Node6</title>
<g id="a_node6"><a xlink:title=" ">
<polygon fill="white" stroke="#bfbfbf" points="36,-242.5 36,-261.5 86,-261.5 86,-242.5 36,-242.5"/>
<text text-anchor="middle" x="61" y="-249.5" font-family="Helvetica,sans-Serif" font-size="10.00">int32_t</text>
</a>
</g>
</g>
<!-- Node6&#45;&gt;Node3 -->
<g id="edge15" class="edge">
<title>Node6&#45;&gt;Node3</title>
<path fill="none" stroke="#9a32cd" stroke-dasharray="5,2" d="M96.39,-252.18C215.24,-252.8 609.75,-254.87 762.93,-255.68"/>
<polygon fill="#9a32cd" stroke="#9a32cd" points="96.1,-248.68 86.08,-252.13 96.06,-255.68 96.1,-248.68"/>
<text text-anchor="middle" x="423" y="-257" font-family="Helvetica,sans-Serif" font-size="10.00"> ID</text>
</g>
<!-- Node6&#45;&gt;Node4 -->
<g id="edge5" class="edge">
<title>Node6&#45;&gt;Node4</title>
<path fill="none" stroke="#9a32cd" stroke-dasharray="5,2" d="M96.31,-257.71C137.62,-264.58 207.59,-276.22 257.15,-284.46"/>
<polygon fill="#9a32cd" stroke="#9a32cd" points="96.65,-254.22 86.21,-256.03 95.5,-261.12 96.65,-254.22"/>
<text text-anchor="middle" x="185.5" y="-282" font-family="Helvetica,sans-Serif" font-size="10.00"> ReferenceCounter</text>
</g>
<!-- Node7 -->
<g id="node7" class="node">
<title>Node7</title>
<g id="a_node7"><a xlink:href="classirr_1_1core_1_1vector3d.html" target="_top" xlink:title=" ">
<polygon fill="white" stroke="black" points="484,-57 484,-87 587,-87 587,-57 484,-57"/>
<text text-anchor="start" x="492" y="-75" font-family="Helvetica,sans-Serif" font-size="10.00">irr::core::vector3d</text>
<text text-anchor="middle" x="535.5" y="-64" font-family="Helvetica,sans-Serif" font-size="10.00">&lt; f32 &gt;</text>
</a>
</g>
</g>
<!-- Node7&#45;&gt;Node3 -->
<g id="edge6" class="edge">
<title>Node7&#45;&gt;Node3</title>
<path fill="none" stroke="#9a32cd" stroke-dasharray="5,2" d="M597.18,-73.38C641.88,-77.19 702.11,-88.46 745,-120 790.39,-153.38 814.21,-221.1 821.78,-246.28"/>
<polygon fill="#9a32cd" stroke="#9a32cd" points="597.27,-69.88 587.03,-72.62 596.74,-76.86 597.27,-69.88"/>
<text text-anchor="middle" x="685" y="-145" font-family="Helvetica,sans-Serif" font-size="10.00"> RelativeScale</text>
<text text-anchor="middle" x="685" y="-134" font-family="Helvetica,sans-Serif" font-size="10.00">RelativeRotation</text>
<text text-anchor="middle" x="685" y="-123" font-family="Helvetica,sans-Serif" font-size="10.00">RelativeTranslation</text>
</g>
<!-- Node22 -->
<g id="node22" class="node">
<title>Node22</title>
<g id="a_node22"><a xlink:href="classirr_1_1core_1_1aabbox3d.html" target="_top" xlink:title=" ">
<polygon fill="white" stroke="black" points="771.5,-37 771.5,-67 879.5,-67 879.5,-37 771.5,-37"/>
<text text-anchor="start" x="779.5" y="-55" font-family="Helvetica,sans-Serif" font-size="10.00">irr::core::aabbox3d</text>
<text text-anchor="middle" x="825.5" y="-44" font-family="Helvetica,sans-Serif" font-size="10.00">&lt; f32 &gt;</text>
</a>
</g>
</g>
<!-- Node7&#45;&gt;Node22 -->
<g id="edge29" class="edge">
<title>Node7&#45;&gt;Node22</title>
<path fill="none" stroke="#9a32cd" stroke-dasharray="5,2" d="M597.16,-57.25C606.44,-55.5 615.94,-53.98 625,-53 674.41,-47.63 731.11,-47.97 771.41,-49.3"/>
<polygon fill="#9a32cd" stroke="#9a32cd" points="596.34,-53.85 587.22,-59.23 597.71,-60.71 596.34,-53.85"/>
<text text-anchor="middle" x="685" y="-67" font-family="Helvetica,sans-Serif" font-size="10.00"> MinEdge</text>
<text text-anchor="middle" x="685" y="-56" font-family="Helvetica,sans-Serif" font-size="10.00">MaxEdge</text>
</g>
<!-- Node8 -->
<g id="node8" class="node">
<title>Node8</title>
<g id="a_node8"><a xlink:title=" ">
<polygon fill="white" stroke="#bfbfbf" points="296.5,-113.5 296.5,-132.5 334.5,-132.5 334.5,-113.5 296.5,-113.5"/>
<text text-anchor="middle" x="315.5" y="-120.5" font-family="Helvetica,sans-Serif" font-size="10.00">float</text>
</a>
</g>
</g>
<!-- Node8&#45;&gt;Node7 -->
<g id="edge7" class="edge">
<title>Node8&#45;&gt;Node7</title>
<path fill="none" stroke="#9a32cd" stroke-dasharray="5,2" d="M344.34,-112.46C360.42,-106.68 381.15,-99.74 400,-95 427.45,-88.09 458.58,-82.62 483.98,-78.75"/>
<polygon fill="#9a32cd" stroke="#9a32cd" points="342.69,-109.34 334.5,-116.06 345.1,-115.91 342.69,-109.34"/>
<text text-anchor="middle" x="423" y="-120" font-family="Helvetica,sans-Serif" font-size="10.00"> X</text>
<text text-anchor="middle" x="423" y="-109" font-family="Helvetica,sans-Serif" font-size="10.00">Y</text>
<text text-anchor="middle" x="423" y="-98" font-family="Helvetica,sans-Serif" font-size="10.00">Z</text>
</g>
<!-- Node12 -->
<g id="node12" class="node">
<title>Node12</title>
<g id="a_node12"><a xlink:href="classirr_1_1core_1_1CMatrix4.html" target="_top" xlink:title=" ">
<polygon fill="white" stroke="black" points="483.5,-130 483.5,-160 587.5,-160 587.5,-130 483.5,-130"/>
<text text-anchor="start" x="491.5" y="-148" font-family="Helvetica,sans-Serif" font-size="10.00">irr::core::CMatrix4</text>
<text text-anchor="middle" x="535.5" y="-137" font-family="Helvetica,sans-Serif" font-size="10.00">&lt; f32 &gt;</text>
</a>
</g>
</g>
<!-- Node8&#45;&gt;Node12 -->
<g id="edge12" class="edge">
<title>Node8&#45;&gt;Node12</title>
<path fill="none" stroke="#9a32cd" stroke-dasharray="5,2" d="M344.71,-125.85C379.71,-129.38 440.05,-135.47 483.3,-139.83"/>
<polygon fill="#9a32cd" stroke="#9a32cd" points="345.01,-122.36 334.71,-124.84 344.31,-129.32 345.01,-122.36"/>
<text text-anchor="middle" x="423" y="-138" font-family="Helvetica,sans-Serif" font-size="10.00"> M</text>
</g>
<!-- Node9 -->
<g id="node9" class="node">
<title>Node9</title>
<g id="a_node9"><a xlink:href="classirr_1_1core_1_1vector3d.html" target="_top" xlink:title="3d vector template class with lots of operators and methods.">
<polygon fill="white" stroke="black" points="250,-51.5 250,-70.5 381,-70.5 381,-51.5 250,-51.5"/>
<text text-anchor="middle" x="315.5" y="-58.5" font-family="Helvetica,sans-Serif" font-size="10.00">irr::core::vector3d&lt; T &gt;</text>
</a>
</g>
</g>
<!-- Node9&#45;&gt;Node7 -->
<g id="edge8" class="edge">
<title>Node9&#45;&gt;Node7</title>
<path fill="none" stroke="orange" stroke-dasharray="5,2" d="M391.29,-56.3C394.23,-56.19 397.14,-56.09 400,-56 420.44,-55.39 425.64,-54.17 446,-56 458.29,-57.1 471.42,-59.05 483.7,-61.21"/>
<polygon fill="orange" stroke="orange" points="391.05,-52.81 381.21,-56.74 391.36,-59.8 391.05,-52.81"/>
<text text-anchor="middle" x="423" y="-59" font-family="Helvetica,sans-Serif" font-size="10.00"> &lt; f32 &gt;</text>
</g>
<!-- Node10 -->
<g id="node10" class="node">
<title>Node10</title>
<g id="a_node10"><a xlink:title=" ">
<polygon fill="white" stroke="#bfbfbf" points="46.5,-102.5 46.5,-121.5 75.5,-121.5 75.5,-102.5 46.5,-102.5"/>
<text text-anchor="middle" x="61" y="-109.5" font-family="Helvetica,sans-Serif" font-size="10.00">T</text>
</a>
</g>
</g>
<!-- Node10&#45;&gt;Node9 -->
<g id="edge9" class="edge">
<title>Node10&#45;&gt;Node9</title>
<path fill="none" stroke="#9a32cd" stroke-dasharray="5,2" d="M85.29,-106.78C100.78,-103.35 121.58,-98.8 140,-95 181.71,-86.39 229.16,-77.18 264.04,-70.52"/>
<polygon fill="#9a32cd" stroke="#9a32cd" points="84.51,-103.37 75.51,-108.96 86.03,-110.2 84.51,-103.37"/>
<text text-anchor="middle" x="185.5" y="-120" font-family="Helvetica,sans-Serif" font-size="10.00"> X</text>
<text text-anchor="middle" x="185.5" y="-109" font-family="Helvetica,sans-Serif" font-size="10.00">Y</text>
<text text-anchor="middle" x="185.5" y="-98" font-family="Helvetica,sans-Serif" font-size="10.00">Z</text>
</g>
<!-- Node13 -->
<g id="node13" class="node">
<title>Node13</title>
<g id="a_node13"><a xlink:href="classirr_1_1core_1_1CMatrix4.html" target="_top" xlink:title="4x4 matrix. Mostly used as transformation matrix for 3d calculations.">
<polygon fill="white" stroke="black" points="249,-163.5 249,-182.5 382,-182.5 382,-163.5 249,-163.5"/>
<text text-anchor="middle" x="315.5" y="-170.5" font-family="Helvetica,sans-Serif" font-size="10.00">irr::core::CMatrix4&lt; T &gt;</text>
</a>
</g>
</g>
<!-- Node10&#45;&gt;Node13 -->
<g id="edge14" class="edge">
<title>Node10&#45;&gt;Node13</title>
<path fill="none" stroke="#9a32cd" stroke-dasharray="5,2" d="M85.47,-117.67C128.81,-128.14 221.82,-150.61 275.02,-163.46"/>
<polygon fill="#9a32cd" stroke="#9a32cd" points="86.12,-114.23 75.58,-115.28 84.47,-121.03 86.12,-114.23"/>
<text text-anchor="middle" x="185.5" y="-154" font-family="Helvetica,sans-Serif" font-size="10.00"> M</text>
</g>
<!-- Node11 -->
<g id="node11" class="node">
<title>Node11</title>
<g id="a_node11"><a xlink:title=" ">
<polygon fill="white" stroke="#bfbfbf" points="472.5,-179 472.5,-209 598.5,-209 598.5,-179 472.5,-179"/>
<text text-anchor="start" x="480.5" y="-197" font-family="Helvetica,sans-Serif" font-size="10.00">list&lt; irr::scene::IScene</text>
<text text-anchor="middle" x="535.5" y="-186" font-family="Helvetica,sans-Serif" font-size="10.00">Node * &gt;</text>
</a>
</g>
</g>
<!-- Node11&#45;&gt;Node3 -->
<g id="edge10" class="edge">
<title>Node11&#45;&gt;Node3</title>
<path fill="none" stroke="#9a32cd" stroke-dasharray="5,2" d="M608.99,-193.47C649.72,-194.92 701.05,-199.73 745,-213 769.79,-220.49 795.65,-236.19 810.9,-246.4"/>
<polygon fill="#9a32cd" stroke="#9a32cd" points="608.97,-189.97 598.87,-193.17 608.76,-196.96 608.97,-189.97"/>
<text text-anchor="middle" x="685" y="-216" font-family="Helvetica,sans-Serif" font-size="10.00"> Children</text>
</g>
<!-- Node12&#45;&gt;Node1 -->
<g id="edge27" class="edge">
<title>Node12&#45;&gt;Node1</title>
<path fill="none" stroke="#9a32cd" stroke-dasharray="5,2" d="M597.89,-145C745.01,-145 1118.42,-145 1292.95,-145"/>
<polygon fill="#9a32cd" stroke="#9a32cd" points="597.7,-141.5 587.7,-145 597.7,-148.5 597.7,-141.5"/>
<text text-anchor="middle" x="980.5" y="-148" font-family="Helvetica,sans-Serif" font-size="10.00"> RelativeTransformationMatrix</text>
</g>
<!-- Node12&#45;&gt;Node3 -->
<g id="edge11" class="edge">
<title>Node12&#45;&gt;Node3</title>
<path fill="none" stroke="#9a32cd" stroke-dasharray="5,2" d="M597.55,-153.06C654.28,-160.86 731.94,-172.44 745,-179 777.45,-195.3 805.32,-229.5 817.68,-246.29"/>
<polygon fill="#9a32cd" stroke="#9a32cd" points="597.96,-149.59 587.58,-151.7 597.01,-156.52 597.96,-149.59"/>
<text text-anchor="middle" x="685" y="-182" font-family="Helvetica,sans-Serif" font-size="10.00"> AbsoluteTransformation</text>
</g>
<!-- Node13&#45;&gt;Node12 -->
<g id="edge13" class="edge">
<title>Node13&#45;&gt;Node12</title>
<path fill="none" stroke="orange" stroke-dasharray="5,2" d="M392.27,-163.27C422.43,-159.39 456.33,-155.04 483.48,-151.55"/>
<polygon fill="orange" stroke="orange" points="391.68,-159.82 382.2,-164.56 392.57,-166.76 391.68,-159.82"/>
<text text-anchor="middle" x="423" y="-164" font-family="Helvetica,sans-Serif" font-size="10.00"> &lt; f32 &gt;</text>
</g>
<!-- Node14 -->
<g id="node14" class="node">
<title>Node14</title>
<g id="a_node14"><a xlink:href="classirr_1_1core_1_1string.html" target="_top" xlink:title=" ">
<polygon fill="white" stroke="black" points="474.5,-342.5 474.5,-361.5 596.5,-361.5 596.5,-342.5 474.5,-342.5"/>
<text text-anchor="middle" x="535.5" y="-349.5" font-family="Helvetica,sans-Serif" font-size="10.00">irr::core::string&lt; c8 &gt;</text>
</a>
</g>
</g>
<!-- Node14&#45;&gt;Node3 -->
<g id="edge16" class="edge">
<title>Node14&#45;&gt;Node3</title>
<path fill="none" stroke="#9a32cd" stroke-dasharray="5,2" d="M607,-348.08C657.62,-344.41 720.99,-337.84 745,-327 776.54,-312.76 804.42,-281.44 817.16,-265.59"/>
<polygon fill="#9a32cd" stroke="#9a32cd" points="606.47,-344.6 596.73,-348.79 606.95,-351.59 606.47,-344.6"/>
<text text-anchor="middle" x="685" y="-349" font-family="Helvetica,sans-Serif" font-size="10.00"> Name</text>
</g>
<!-- Node15 -->
<g id="node15" class="node">
<title>Node15</title>
<g id="a_node15"><a xlink:title=" ">
<polygon fill="white" stroke="#bfbfbf" points="261,-336.5 261,-355.5 370,-355.5 370,-336.5 261,-336.5"/>
<text text-anchor="middle" x="315.5" y="-343.5" font-family="Helvetica,sans-Serif" font-size="10.00">basic_string&lt; c8 &gt;</text>
</a>
</g>
</g>
<!-- Node15&#45;&gt;Node14 -->
<g id="edge17" class="edge">
<title>Node15&#45;&gt;Node14</title>
<path fill="none" stroke="#9a32cd" stroke-dasharray="5,2" d="M380.34,-347.76C409.97,-348.57 445,-349.54 474.17,-350.34"/>
<polygon fill="#9a32cd" stroke="#9a32cd" points="380.2,-344.25 370.11,-347.48 380.01,-351.25 380.2,-344.25"/>
<text text-anchor="middle" x="423" y="-352" font-family="Helvetica,sans-Serif" font-size="10.00"> str</text>
</g>
<!-- Node16 -->
<g id="node16" class="node">
<title>Node16</title>
<g id="a_node16"><a xlink:title=" ">
<polygon fill="white" stroke="#bfbfbf" points="0,-409.5 0,-428.5 122,-428.5 122,-409.5 0,-409.5"/>
<text text-anchor="middle" x="61" y="-416.5" font-family="Helvetica,sans-Serif" font-size="10.00">static const size_type</text>
</a>
</g>
</g>
<!-- Node16&#45;&gt;Node14 -->
<g id="edge18" class="edge">
<title>Node16&#45;&gt;Node14</title>
<path fill="none" stroke="#9a32cd" stroke-dasharray="5,2" d="M132.29,-427.76C212.67,-434.49 346.02,-435.48 446,-385 455.05,-380.43 454.93,-375.52 464,-371 471.6,-367.21 480.05,-364.11 488.39,-361.58"/>
<polygon fill="#9a32cd" stroke="#9a32cd" points="132.55,-424.26 122.28,-426.86 131.93,-431.24 132.55,-424.26"/>
<text text-anchor="middle" x="315.5" y="-433" font-family="Helvetica,sans-Serif" font-size="10.00"> npos</text>
</g>
<!-- Node17 -->
<g id="node17" class="node">
<title>Node17</title>
<g id="a_node17"><a xlink:href="classirr_1_1core_1_1string.html" target="_top" xlink:title="Very simple string class with some useful features.">
<polygon fill="white" stroke="black" points="257.5,-374.5 257.5,-393.5 373.5,-393.5 373.5,-374.5 257.5,-374.5"/>
<text text-anchor="middle" x="315.5" y="-381.5" font-family="Helvetica,sans-Serif" font-size="10.00">irr::core::string&lt; T &gt;</text>
</a>
</g>
</g>
<!-- Node16&#45;&gt;Node17 -->
<g id="edge21" class="edge">
<title>Node16&#45;&gt;Node17</title>
<path fill="none" stroke="#9a32cd" stroke-dasharray="5,2" d="M122.56,-407.78C128.45,-406.79 134.33,-405.85 140,-405 179.08,-399.15 223.27,-393.84 257.41,-390.03"/>
<polygon fill="#9a32cd" stroke="#9a32cd" points="121.97,-404.33 112.7,-409.46 123.15,-411.23 121.97,-404.33"/>
<text text-anchor="middle" x="185.5" y="-408" font-family="Helvetica,sans-Serif" font-size="10.00"> npos</text>
</g>
<!-- Node17&#45;&gt;Node14 -->
<g id="edge19" class="edge">
<title>Node17&#45;&gt;Node14</title>
<path fill="none" stroke="orange" stroke-dasharray="5,2" d="M383.78,-374.12C412.65,-369.89 446.12,-364.97 474.18,-360.85"/>
<polygon fill="orange" stroke="orange" points="383.16,-370.68 373.78,-375.59 384.18,-377.6 383.16,-370.68"/>
<text text-anchor="middle" x="423" y="-373" font-family="Helvetica,sans-Serif" font-size="10.00"> &lt; c8 &gt;</text>
</g>
<!-- Node18 -->
<g id="node18" class="node">
<title>Node18</title>
<g id="a_node18"><a xlink:title=" ">
<polygon fill="white" stroke="#bfbfbf" points="9,-360.5 9,-379.5 113,-379.5 113,-360.5 9,-360.5"/>
<text text-anchor="middle" x="61" y="-367.5" font-family="Helvetica,sans-Serif" font-size="10.00">basic_string&lt; T &gt;</text>
</a>
</g>
</g>
<!-- Node18&#45;&gt;Node17 -->
<g id="edge20" class="edge">
<title>Node18&#45;&gt;Node17</title>
<path fill="none" stroke="#9a32cd" stroke-dasharray="5,2" d="M123.25,-368.18C155.39,-367.77 195.37,-368.14 231,-371 240.8,-371.79 251.19,-373.05 261.19,-374.49"/>
<polygon fill="#9a32cd" stroke="#9a32cd" points="123.06,-364.68 113.11,-368.33 123.17,-371.68 123.06,-364.68"/>
<text text-anchor="middle" x="185.5" y="-374" font-family="Helvetica,sans-Serif" font-size="10.00"> str</text>
</g>
<!-- Node19 -->
<g id="node19" class="node">
<title>Node19</title>
<g id="a_node19"><a xlink:title=" ">
<polygon fill="white" stroke="#bfbfbf" points="507.5,-419.5 507.5,-438.5 563.5,-438.5 563.5,-419.5 507.5,-419.5"/>
<text text-anchor="middle" x="535.5" y="-426.5" font-family="Helvetica,sans-Serif" font-size="10.00">uint32_t</text>
</a>
</g>
</g>
<!-- Node19&#45;&gt;Node3 -->
<g id="edge22" class="edge">
<title>Node19&#45;&gt;Node3</title>
<path fill="none" stroke="#9a32cd" stroke-dasharray="5,2" d="M573.67,-434.94C618.34,-440.02 693.67,-441.79 745,-407 796.26,-372.26 816.81,-293.6 822.63,-265.89"/>
<polygon fill="#9a32cd" stroke="#9a32cd" points="573.9,-431.44 563.54,-433.68 573.03,-438.39 573.9,-431.44"/>
<text text-anchor="middle" x="685" y="-451" font-family="Helvetica,sans-Serif" font-size="10.00"> DebugDataVisible</text>
<text text-anchor="middle" x="685" y="-440" font-family="Helvetica,sans-Serif" font-size="10.00">AutomaticCullingState</text>
</g>
<!-- Node20 -->
<g id="node20" class="node">
<title>Node20</title>
<g id="a_node20"><a xlink:href="classbool.html" target="_top" xlink:title=" ">
<polygon fill="white" stroke="black" points="516.5,-380.5 516.5,-399.5 554.5,-399.5 554.5,-380.5 516.5,-380.5"/>
<text text-anchor="middle" x="535.5" y="-387.5" font-family="Helvetica,sans-Serif" font-size="10.00">bool</text>
</a>
</g>
</g>
<!-- Node20&#45;&gt;Node3 -->
<g id="edge23" class="edge">
<title>Node20&#45;&gt;Node3</title>
<path fill="none" stroke="#9a32cd" stroke-dasharray="5,2" d="M564.55,-388.74C614.16,-386.07 714.97,-378.61 745,-361 784.44,-337.86 810.78,-286.79 820.41,-265.55"/>
<polygon fill="#9a32cd" stroke="#9a32cd" points="564.31,-385.24 554.51,-389.25 564.67,-392.23 564.31,-385.24"/>
<text text-anchor="middle" x="685" y="-398" font-family="Helvetica,sans-Serif" font-size="10.00"> IsDebugObject</text>
<text text-anchor="middle" x="685" y="-387" font-family="Helvetica,sans-Serif" font-size="10.00">IsVisible</text>
</g>
<!-- Node21&#45;&gt;Node3 -->
<g id="edge24" class="edge">
<title>Node21&#45;&gt;Node3</title>
<path fill="none" stroke="#9a32cd" stroke-dasharray="5,2" d="M617.57,-270.37C663.62,-267.17 720.35,-263.23 762.75,-260.29"/>
<polygon fill="#9a32cd" stroke="#9a32cd" points="617.06,-266.9 607.32,-271.08 617.54,-273.88 617.06,-266.9"/>
<text text-anchor="middle" x="685" y="-272" font-family="Helvetica,sans-Serif" font-size="10.00"> SceneManager</text>
</g>
<!-- Node22&#45;&gt;Node1 -->
<g id="edge28" class="edge">
<title>Node22&#45;&gt;Node1</title>
<path fill="none" stroke="#9a32cd" stroke-dasharray="5,2" d="M889.96,-61.36C973.87,-73.9 1126.27,-97.21 1256,-120 1273.48,-123.07 1292.24,-126.57 1309.91,-129.96"/>
<polygon fill="#9a32cd" stroke="#9a32cd" points="890.23,-57.87 879.83,-59.85 889.2,-64.79 890.23,-57.87"/>
<text text-anchor="middle" x="1164.5" y="-123" font-family="Helvetica,sans-Serif" font-size="10.00"> Box</text>
</g>
<!-- Node23 -->
<g id="node23" class="node">
<title>Node23</title>
<g id="a_node23"><a xlink:href="classirr_1_1core_1_1aabbox3d.html" target="_top" xlink:title="Axis aligned bounding box in 3d dimensional space.">
<polygon fill="white" stroke="black" points="467,-4.5 467,-23.5 604,-23.5 604,-4.5 467,-4.5"/>
<text text-anchor="middle" x="535.5" y="-11.5" font-family="Helvetica,sans-Serif" font-size="10.00">irr::core::aabbox3d&lt; T &gt;</text>
</a>
</g>
</g>
<!-- Node23&#45;&gt;Node22 -->
<g id="edge30" class="edge">
<title>Node23&#45;&gt;Node22</title>
<path fill="none" stroke="orange" stroke-dasharray="5,2" d="M614.44,-19.11C653.74,-22.29 702.06,-27.11 745,-34 753.52,-35.37 762.5,-37.11 771.23,-38.96"/>
<polygon fill="orange" stroke="orange" points="614.63,-15.62 604.39,-18.32 614.08,-22.6 614.63,-15.62"/>
<text text-anchor="middle" x="685" y="-37" font-family="Helvetica,sans-Serif" font-size="10.00"> &lt; f32 &gt;</text>
</g>
<!-- Node24 -->
<g id="node24" class="node">
<title>Node24</title>
<g id="a_node24"><a xlink:title=" ">
<polygon fill="white" stroke="#bfbfbf" points="271.5,-0.5 271.5,-19.5 359.5,-19.5 359.5,-0.5 271.5,-0.5"/>
<text text-anchor="middle" x="315.5" y="-7.5" font-family="Helvetica,sans-Serif" font-size="10.00">vector3d&lt; T &gt;</text>
</a>
</g>
</g>
<!-- Node24&#45;&gt;Node23 -->
<g id="edge31" class="edge">
<title>Node24&#45;&gt;Node23</title>
<path fill="none" stroke="#9a32cd" stroke-dasharray="5,2" d="M369.74,-10.1C393.14,-10.22 420.94,-10.48 446,-11 452.76,-11.14 459.82,-11.32 466.86,-11.52"/>
<polygon fill="#9a32cd" stroke="#9a32cd" points="369.69,-6.6 359.67,-10.05 369.65,-13.6 369.69,-6.6"/>
<text text-anchor="middle" x="423" y="-25" font-family="Helvetica,sans-Serif" font-size="10.00"> MinEdge</text>
<text text-anchor="middle" x="423" y="-14" font-family="Helvetica,sans-Serif" font-size="10.00">MaxEdge</text>
</g>
</g>
</svg>
