<?xml version="1.0" encoding="UTF-8" standalone="no"?>
<!DOCTYPE svg PUBLIC "-//W3C//DTD SVG 1.1//EN"
 "http://www.w3.org/Graphics/SVG/1.1/DTD/svg11.dtd">
<!-- Generated by graphviz version 2.43.0 (0)
 -->
<!-- Title: Catch::GeneratorException Pages: 1 -->
<svg width="165pt" height="95pt"
 viewBox="0.00 0.00 164.50 95.00" xmlns="http://www.w3.org/2000/svg" xmlns:xlink="http://www.w3.org/1999/xlink">
<g id="graph0" class="graph" transform="scale(1 1) rotate(0) translate(4 91)">
<title>Catch::GeneratorException</title>
<polygon fill="white" stroke="transparent" points="-4,4 -4,-91 160.5,-91 160.5,4 -4,4"/>
<!-- Node1 -->
<g id="node1" class="node">
<title>Node1</title>
<g id="a_node1"><a xlink:title=" ">
<polygon fill="#bfbfbf" stroke="black" points="9.5,-0.5 9.5,-19.5 156.5,-19.5 156.5,-0.5 9.5,-0.5"/>
<text text-anchor="middle" x="83" y="-7.5" font-family="Helvetica,sans-Serif" font-size="10.00">Catch::GeneratorException</text>
</a>
</g>
</g>
<!-- Node2 -->
<g id="node2" class="node">
<title>Node2</title>
<g id="a_node2"><a xlink:title=" ">
<polygon fill="white" stroke="#bfbfbf" points="0,-67.5 0,-86.5 86,-86.5 86,-67.5 0,-67.5"/>
<text text-anchor="middle" x="43" y="-74.5" font-family="Helvetica,sans-Serif" font-size="10.00">std::exception</text>
</a>
</g>
</g>
<!-- Node2&#45;&gt;Node1 -->
<g id="edge1" class="edge">
<title>Node2&#45;&gt;Node1</title>
<path fill="none" stroke="midnightblue" d="M53.75,-58.53C61.49,-45.95 71.61,-29.51 77.69,-19.63"/>
<polygon fill="midnightblue" stroke="midnightblue" points="50.65,-56.88 48.39,-67.23 56.62,-60.55 50.65,-56.88"/>
</g>
<!-- Node3 -->
<g id="node3" class="node">
<title>Node3</title>
<g id="a_node3"><a xlink:title=" ">
<polygon fill="white" stroke="#bfbfbf" points="104,-67.5 104,-86.5 142,-86.5 142,-67.5 104,-67.5"/>
<text text-anchor="middle" x="123" y="-74.5" font-family="Helvetica,sans-Serif" font-size="10.00">char</text>
</a>
</g>
</g>
<!-- Node3&#45;&gt;Node1 -->
<g id="edge2" class="edge">
<title>Node3&#45;&gt;Node1</title>
<path fill="none" stroke="#9a32cd" stroke-dasharray="5,2" d="M112.25,-58.53C104.51,-45.95 94.39,-29.51 88.31,-19.63"/>
<polygon fill="#9a32cd" stroke="#9a32cd" points="109.38,-60.55 117.61,-67.23 115.35,-56.88 109.38,-60.55"/>
<text text-anchor="middle" x="125" y="-41" font-family="Helvetica,sans-Serif" font-size="10.00"> m_msg</text>
</g>
</g>
</svg>
