<?xml version="1.0" encoding="UTF-8" standalone="no"?>
<!DOCTYPE svg PUBLIC "-//W3C//DTD SVG 1.1//EN"
 "http://www.w3.org/Graphics/SVG/1.1/DTD/svg11.dtd">
<!-- Generated by graphviz version 2.43.0 (0)
 -->
<!-- Title: Catch::ExceptionTranslatorRegistrar::ExceptionTranslator&lt; T &gt; Pages: 1 -->
<svg width="291pt" height="106pt"
 viewBox="0.00 0.00 290.50 106.00" xmlns="http://www.w3.org/2000/svg" xmlns:xlink="http://www.w3.org/1999/xlink">
<g id="graph0" class="graph" transform="scale(1 1) rotate(0) translate(4 102)">
<title>Catch::ExceptionTranslatorRegistrar::ExceptionTranslator&lt; T &gt;</title>
<polygon fill="white" stroke="transparent" points="-4,4 -4,-102 286.5,-102 286.5,4 -4,4"/>
<!-- Node1 -->
<g id="node1" class="node">
<title>Node1</title>
<g id="a_node1"><a xlink:title=" ">
<polygon fill="#bfbfbf" stroke="black" points="45,-0.5 45,-30.5 236,-30.5 236,-0.5 45,-0.5"/>
<text text-anchor="start" x="53" y="-18.5" font-family="Helvetica,sans-Serif" font-size="10.00">Catch::ExceptionTranslator</text>
<text text-anchor="middle" x="140.5" y="-7.5" font-family="Helvetica,sans-Serif" font-size="10.00">Registrar::ExceptionTranslator&lt; T &gt;</text>
</a>
</g>
</g>
<!-- Node2 -->
<g id="node2" class="node">
<title>Node2</title>
<g id="a_node2"><a xlink:href="structCatch_1_1IExceptionTranslator.html" target="_top" xlink:title=" ">
<polygon fill="white" stroke="black" points="0,-78.5 0,-97.5 149,-97.5 149,-78.5 0,-78.5"/>
<text text-anchor="middle" x="74.5" y="-85.5" font-family="Helvetica,sans-Serif" font-size="10.00">Catch::IExceptionTranslator</text>
</a>
</g>
</g>
<!-- Node2&#45;&gt;Node1 -->
<g id="edge1" class="edge">
<title>Node2&#45;&gt;Node1</title>
<path fill="none" stroke="midnightblue" d="M89.72,-70.74C101.09,-58.6 116.48,-42.16 127.32,-30.58"/>
<polygon fill="midnightblue" stroke="midnightblue" points="86.87,-68.66 82.59,-78.36 91.98,-73.45 86.87,-68.66"/>
</g>
<!-- Node3 -->
<g id="node3" class="node">
<title>Node3</title>
<g id="a_node3"><a xlink:title=" ">
<polygon fill="white" stroke="#bfbfbf" points="167,-78.5 167,-97.5 248,-97.5 248,-78.5 167,-78.5"/>
<text text-anchor="middle" x="207.5" y="-85.5" font-family="Helvetica,sans-Serif" font-size="10.00">string(*)(T &amp;)</text>
</a>
</g>
</g>
<!-- Node3&#45;&gt;Node1 -->
<g id="edge2" class="edge">
<title>Node3&#45;&gt;Node1</title>
<path fill="none" stroke="#9a32cd" stroke-dasharray="5,2" d="M192.38,-71.09C180.81,-58.91 164.99,-42.27 153.88,-30.58"/>
<polygon fill="#9a32cd" stroke="#9a32cd" points="189.86,-73.52 199.28,-78.36 194.93,-68.7 189.86,-73.52"/>
<text text-anchor="middle" x="231" y="-52" font-family="Helvetica,sans-Serif" font-size="10.00"> m_translateFunction</text>
</g>
</g>
</svg>
