<?xml version="1.0" encoding="UTF-8" standalone="no"?>
<!DOCTYPE svg PUBLIC "-//W3C//DTD SVG 1.1//EN"
 "http://www.w3.org/Graphics/SVG/1.1/DTD/svg11.dtd">
<!-- Generated by graphviz version 2.43.0 (0)
 -->
<!-- Title: InventoryList Pages: 1 -->
<svg width="516pt" height="106pt"
 viewBox="0.00 0.00 516.00 106.00" xmlns="http://www.w3.org/2000/svg" xmlns:xlink="http://www.w3.org/1999/xlink">
<g id="graph0" class="graph" transform="scale(1 1) rotate(0) translate(4 102)">
<title>InventoryList</title>
<polygon fill="white" stroke="transparent" points="-4,4 -4,-102 512,-102 512,4 -4,4"/>
<!-- Node1 -->
<g id="node1" class="node">
<title>Node1</title>
<g id="a_node1"><a xlink:title=" ">
<polygon fill="#bfbfbf" stroke="black" points="183.5,-0.5 183.5,-19.5 263.5,-19.5 263.5,-0.5 183.5,-0.5"/>
<text text-anchor="middle" x="223.5" y="-7.5" font-family="Helvetica,sans-Serif" font-size="10.00">InventoryList</text>
</a>
</g>
</g>
<!-- Node2 -->
<g id="node2" class="node">
<title>Node2</title>
<g id="a_node2"><a xlink:title=" ">
<polygon fill="white" stroke="#bfbfbf" points="0,-78.5 0,-97.5 29,-97.5 29,-78.5 0,-78.5"/>
<text text-anchor="middle" x="14.5" y="-85.5" font-family="Helvetica,sans-Serif" font-size="10.00">int</text>
</a>
</g>
</g>
<!-- Node2&#45;&gt;Node1 -->
<g id="edge1" class="edge">
<title>Node2&#45;&gt;Node1</title>
<path fill="none" stroke="#9a32cd" stroke-dasharray="5,2" d="M18.95,-68.47C22.47,-57.88 28.51,-45.28 38.5,-38 60.92,-21.65 135.93,-15.09 183.27,-12.54"/>
<polygon fill="#9a32cd" stroke="#9a32cd" points="15.57,-67.55 16.21,-78.13 22.3,-69.46 15.57,-67.55"/>
<text text-anchor="middle" x="78" y="-46.5" font-family="Helvetica,sans-Serif" font-size="10.00"> m_resize_locks</text>
</g>
<!-- Node3 -->
<g id="node3" class="node">
<title>Node3</title>
<g id="a_node3"><a xlink:href="classbool.html" target="_top" xlink:title=" ">
<polygon fill="white" stroke="black" points="97.5,-78.5 97.5,-97.5 135.5,-97.5 135.5,-78.5 97.5,-78.5"/>
<text text-anchor="middle" x="116.5" y="-85.5" font-family="Helvetica,sans-Serif" font-size="10.00">bool</text>
</a>
</g>
</g>
<!-- Node3&#45;&gt;Node1 -->
<g id="edge2" class="edge">
<title>Node3&#45;&gt;Node1</title>
<path fill="none" stroke="#9a32cd" stroke-dasharray="5,2" d="M119.19,-68.42C121.58,-58.17 126.08,-45.95 134.5,-38 147.65,-25.59 166.33,-18.87 183.18,-15.23"/>
<polygon fill="#9a32cd" stroke="#9a32cd" points="115.7,-68 117.33,-78.47 122.59,-69.27 115.7,-68"/>
<text text-anchor="middle" x="155" y="-46.5" font-family="Helvetica,sans-Serif" font-size="10.00"> m_dirty</text>
</g>
<!-- Node4 -->
<g id="node4" class="node">
<title>Node4</title>
<g id="a_node4"><a xlink:title=" ">
<polygon fill="white" stroke="#bfbfbf" points="153.5,-78.5 153.5,-97.5 197.5,-97.5 197.5,-78.5 153.5,-78.5"/>
<text text-anchor="middle" x="175.5" y="-85.5" font-family="Helvetica,sans-Serif" font-size="10.00">string</text>
</a>
</g>
</g>
<!-- Node4&#45;&gt;Node1 -->
<g id="edge3" class="edge">
<title>Node4&#45;&gt;Node1</title>
<path fill="none" stroke="#9a32cd" stroke-dasharray="5,2" d="M178.05,-68.2C180.03,-58.56 183.49,-46.99 189.5,-38 194.44,-30.6 202.05,-24.29 208.82,-19.63"/>
<polygon fill="#9a32cd" stroke="#9a32cd" points="174.55,-67.92 176.35,-78.36 181.46,-69.08 174.55,-67.92"/>
<text text-anchor="middle" x="212.5" y="-46.5" font-family="Helvetica,sans-Serif" font-size="10.00"> m_name</text>
</g>
<!-- Node5 -->
<g id="node5" class="node">
<title>Node5</title>
<g id="a_node5"><a xlink:href="classIItemDefManager.html" target="_top" xlink:title=" ">
<polygon fill="white" stroke="black" points="215.5,-78.5 215.5,-97.5 317.5,-97.5 317.5,-78.5 215.5,-78.5"/>
<text text-anchor="middle" x="266.5" y="-85.5" font-family="Helvetica,sans-Serif" font-size="10.00">IItemDefManager</text>
</a>
</g>
</g>
<!-- Node5&#45;&gt;Node1 -->
<g id="edge4" class="edge">
<title>Node5&#45;&gt;Node1</title>
<path fill="none" stroke="#9a32cd" stroke-dasharray="5,2" d="M256.64,-69.57C247.8,-53.95 235.21,-31.7 228.38,-19.62"/>
<polygon fill="#9a32cd" stroke="#9a32cd" points="253.6,-71.3 261.57,-78.28 259.69,-67.85 253.6,-71.3"/>
<text text-anchor="middle" x="278" y="-46.5" font-family="Helvetica,sans-Serif" font-size="10.00"> m_itemdef</text>
</g>
<!-- Node6 -->
<g id="node6" class="node">
<title>Node6</title>
<g id="a_node6"><a xlink:title=" ">
<polygon fill="white" stroke="#bfbfbf" points="336,-78.5 336,-97.5 371,-97.5 371,-78.5 336,-78.5"/>
<text text-anchor="middle" x="353.5" y="-85.5" font-family="Helvetica,sans-Serif" font-size="10.00">u32</text>
</a>
</g>
</g>
<!-- Node6&#45;&gt;Node1 -->
<g id="edge5" class="edge">
<title>Node6&#45;&gt;Node1</title>
<path fill="none" stroke="#9a32cd" stroke-dasharray="5,2" d="M342.28,-69.98C334.5,-59.41 323.28,-46.29 310.5,-38 296.44,-28.87 279.11,-22.68 263.62,-18.55"/>
<polygon fill="#9a32cd" stroke="#9a32cd" points="339.58,-72.24 348.18,-78.44 345.33,-68.23 339.58,-72.24"/>
<text text-anchor="middle" x="356.5" y="-52" font-family="Helvetica,sans-Serif" font-size="10.00"> m_width</text>
<text text-anchor="middle" x="356.5" y="-41" font-family="Helvetica,sans-Serif" font-size="10.00">m_size</text>
</g>
<!-- Node7 -->
<g id="node7" class="node">
<title>Node7</title>
<g id="a_node7"><a xlink:title=" ">
<polygon fill="white" stroke="#bfbfbf" points="389,-78.5 389,-97.5 508,-97.5 508,-78.5 389,-78.5"/>
<text text-anchor="middle" x="448.5" y="-85.5" font-family="Helvetica,sans-Serif" font-size="10.00">vector&lt; ItemStack &gt;</text>
</a>
</g>
</g>
<!-- Node7&#45;&gt;Node1 -->
<g id="edge6" class="edge">
<title>Node7&#45;&gt;Node1</title>
<path fill="none" stroke="#9a32cd" stroke-dasharray="5,2" d="M432.11,-71.08C419.76,-60.02 401.85,-45.9 383.5,-38 344.95,-21.4 297.07,-14.98 263.78,-12.51"/>
<polygon fill="#9a32cd" stroke="#9a32cd" points="430.01,-73.9 439.72,-78.13 434.77,-68.77 430.01,-73.9"/>
<text text-anchor="middle" x="439.5" y="-46.5" font-family="Helvetica,sans-Serif" font-size="10.00"> m_items</text>
</g>
</g>
</svg>
