<?xml version="1.0" encoding="UTF-8" standalone="no"?>
<!DOCTYPE svg PUBLIC "-//W3C//DTD SVG 1.1//EN"
 "http://www.w3.org/Graphics/SVG/1.1/DTD/svg11.dtd">
<!-- Generated by graphviz version 2.43.0 (0)
 -->
<!-- Title: irr::core::triangle3d::isFrontFacing Pages: 1 -->
<svg width="264pt" height="88pt"
 viewBox="0.00 0.00 264.00 88.00" xmlns="http://www.w3.org/2000/svg" xmlns:xlink="http://www.w3.org/1999/xlink">
<g id="graph0" class="graph" transform="scale(1 1) rotate(0) translate(4 84)">
<title>irr::core::triangle3d::isFrontFacing</title>
<polygon fill="white" stroke="transparent" points="-4,4 -4,-84 260,-84 260,4 -4,4"/>
<!-- Node1 -->
<g id="node1" class="node">
<title>Node1</title>
<g id="a_node1"><a xlink:title="Test if the triangle would be front or backfacing from any point.">
<polygon fill="#bfbfbf" stroke="black" points="0,-24.5 0,-54.5 110,-54.5 110,-24.5 0,-24.5"/>
<text text-anchor="start" x="8" y="-42.5" font-family="Helvetica,sans-Serif" font-size="10.00">irr::core::triangle3d</text>
<text text-anchor="middle" x="55" y="-31.5" font-family="Helvetica,sans-Serif" font-size="10.00">::isFrontFacing</text>
</a>
</g>
</g>
<!-- Node2 -->
<g id="node2" class="node">
<title>Node2</title>
<g id="a_node2"><a xlink:href="classirr_1_1core_1_1vector3d.html#ae220d3f24173601c5957961382588394" target="_top" xlink:title="Get the dot product with another vector.">
<polygon fill="white" stroke="black" points="149.5,-49.5 149.5,-79.5 252.5,-79.5 252.5,-49.5 149.5,-49.5"/>
<text text-anchor="start" x="157.5" y="-67.5" font-family="Helvetica,sans-Serif" font-size="10.00">irr::core::vector3d</text>
<text text-anchor="middle" x="201" y="-56.5" font-family="Helvetica,sans-Serif" font-size="10.00">::dotProduct</text>
</a>
</g>
</g>
<!-- Node1&#45;&gt;Node2 -->
<g id="edge1" class="edge">
<title>Node1&#45;&gt;Node2</title>
<path fill="none" stroke="midnightblue" d="M110.03,-48.88C119.63,-50.55 129.68,-52.29 139.44,-53.99"/>
<polygon fill="midnightblue" stroke="midnightblue" points="139.02,-57.47 149.48,-55.73 140.22,-50.57 139.02,-57.47"/>
</g>
<!-- Node3 -->
<g id="node3" class="node">
<title>Node3</title>
<g id="a_node3"><a xlink:href="classirr_1_1core_1_1triangle3d.html#af894905e54d2c29bdb23f95f892604f1" target="_top" xlink:title="Get the normal of the triangle.">
<polygon fill="white" stroke="black" points="146,-0.5 146,-30.5 256,-30.5 256,-0.5 146,-0.5"/>
<text text-anchor="start" x="154" y="-18.5" font-family="Helvetica,sans-Serif" font-size="10.00">irr::core::triangle3d</text>
<text text-anchor="middle" x="201" y="-7.5" font-family="Helvetica,sans-Serif" font-size="10.00">::getNormal</text>
</a>
</g>
</g>
<!-- Node1&#45;&gt;Node3 -->
<g id="edge2" class="edge">
<title>Node1&#45;&gt;Node3</title>
<path fill="none" stroke="midnightblue" d="M110.03,-30.5C118.4,-29.1 127.13,-27.65 135.7,-26.22"/>
<polygon fill="midnightblue" stroke="midnightblue" points="136.38,-29.65 145.67,-24.56 135.23,-22.75 136.38,-29.65"/>
</g>
</g>
</svg>
