<?xml version="1.0" encoding="UTF-8" standalone="no"?>
<!DOCTYPE svg PUBLIC "-//W3C//DTD SVG 1.1//EN"
 "http://www.w3.org/Graphics/SVG/1.1/DTD/svg11.dtd">
<!-- Generated by graphviz version 2.43.0 (0)
 -->
<!-- Title: SimpleTriggerEvent Pages: 1 -->
<svg width="125pt" height="95pt"
 viewBox="0.00 0.00 125.00 95.00" xmlns="http://www.w3.org/2000/svg" xmlns:xlink="http://www.w3.org/1999/xlink">
<g id="graph0" class="graph" transform="scale(1 1) rotate(0) translate(4 91)">
<title>SimpleTriggerEvent</title>
<polygon fill="white" stroke="transparent" points="-4,4 -4,-91 121,-91 121,4 -4,4"/>
<!-- Node1 -->
<g id="node1" class="node">
<title>Node1</title>
<g id="a_node1"><a xlink:title=" ">
<polygon fill="#bfbfbf" stroke="black" points="6,-0.5 6,-19.5 117,-19.5 117,-0.5 6,-0.5"/>
<text text-anchor="middle" x="61.5" y="-7.5" font-family="Helvetica,sans-Serif" font-size="10.00">SimpleTriggerEvent</text>
</a>
</g>
</g>
<!-- Node2 -->
<g id="node2" class="node">
<title>Node2</title>
<g id="a_node2"><a xlink:href="classMtEvent.html" target="_top" xlink:title=" ">
<polygon fill="white" stroke="black" points="0,-67.5 0,-86.5 57,-86.5 57,-67.5 0,-67.5"/>
<text text-anchor="middle" x="28.5" y="-74.5" font-family="Helvetica,sans-Serif" font-size="10.00">MtEvent</text>
</a>
</g>
</g>
<!-- Node2&#45;&gt;Node1 -->
<g id="edge1" class="edge">
<title>Node2&#45;&gt;Node1</title>
<path fill="none" stroke="midnightblue" d="M37.56,-58.16C43.92,-45.63 52.15,-29.41 57.12,-19.63"/>
<polygon fill="midnightblue" stroke="midnightblue" points="34.36,-56.73 32.95,-67.23 40.6,-59.9 34.36,-56.73"/>
</g>
<!-- Node3 -->
<g id="node3" class="node">
<title>Node3</title>
<g id="a_node3"><a xlink:title=" ">
<polygon fill="white" stroke="#bfbfbf" points="75,-67.5 75,-86.5 114,-86.5 114,-67.5 75,-67.5"/>
<text text-anchor="middle" x="94.5" y="-74.5" font-family="Helvetica,sans-Serif" font-size="10.00">Type</text>
</a>
</g>
</g>
<!-- Node3&#45;&gt;Node1 -->
<g id="edge2" class="edge">
<title>Node3&#45;&gt;Node1</title>
<path fill="none" stroke="#9a32cd" stroke-dasharray="5,2" d="M85.44,-58.16C79.08,-45.63 70.85,-29.41 65.88,-19.63"/>
<polygon fill="#9a32cd" stroke="#9a32cd" points="82.4,-59.9 90.05,-67.23 88.64,-56.73 82.4,-59.9"/>
<text text-anchor="middle" x="92" y="-41" font-family="Helvetica,sans-Serif" font-size="10.00"> type</text>
</g>
</g>
</svg>
