<?xml version="1.0" encoding="UTF-8" standalone="no"?>
<!DOCTYPE svg PUBLIC "-//W3C//DTD SVG 1.1//EN"
 "http://www.w3.org/Graphics/SVG/1.1/DTD/svg11.dtd">
<!-- Generated by graphviz version 2.43.0 (0)
 -->
<!-- Title: irr::core::ustring16::trim Pages: 1 -->
<!--zoomable 412 -->
<svg id="main" version="1.1" xmlns="http://www.w3.org/2000/svg" xmlns:xlink="http://www.w3.org/1999/xlink" xml:space="preserve" onload="init(evt)">
<style type="text/css"><![CDATA[
.edge:hover path { stroke: red; }
.edge:hover polygon { stroke: red; fill: red; }
]]></style>
<script type="text/javascript"><![CDATA[
var edges = document.getElementsByTagName('g');
if (edges && edges.length) {
  for (var i=0;i<edges.length;i++) {
    if (edges[i].id.substr(0,4)=='edge') {
      edges[i].setAttribute('class','edge');
    }
  }
}
]]></script>
        <defs>
                <circle id="rim" cx="0" cy="0" r="7"/>
                <circle id="rim2" cx="0" cy="0" r="3.5"/>
                <g id="zoomPlus">
                        <use xlink:href="#rim" fill="#404040">
                                <set attributeName="fill" to="#808080" begin="zoomplus.mouseover" end="zoomplus.mouseout"/>
                        </use>
                        <path d="M-4,0h8M0,-4v8" fill="none" stroke="white" stroke-width="1.5" pointer-events="none"/>
                </g>
                <g id="zoomMin">
                        <use xlink:href="#rim" fill="#404040">
                                <set attributeName="fill" to="#808080" begin="zoomminus.mouseover" end="zoomminus.mouseout"/>
                        </use>
                        <path d="M-4,0h8" fill="none" stroke="white" stroke-width="1.5" pointer-events="none"/>
                </g>
                <g id="dirArrow">
                        <path fill="none" stroke="white" stroke-width="1.5" d="M0,-3.0v7 M-2.5,-0.5L0,-3.0L2.5,-0.5"/>
                </g>
               <g id="resetDef">
                       <use xlink:href="#rim2" fill="#404040">
                               <set attributeName="fill" to="#808080" begin="reset.mouseover" end="reset.mouseout"/>
                       </use>
               </g>
        </defs>

<script type="text/javascript">
var viewWidth = 784;
var viewHeight = 412;
var sectionId = 'dynsection-51';
</script>
<script xlink:href="svgpan.js"/>
<svg id="graph" class="graph">
<g id="viewport">
<title>irr::core::ustring16::trim</title>
<polygon fill="white" stroke="transparent" points="-4,4 -4,-407.5 780,-407.5 780,4 -4,4"/>
<!-- Node1 -->
<g id="node1" class="node">
<title>Node1</title>
<g id="a_node1"><a xlink:title=" ">
<polygon fill="#bfbfbf" stroke="black" points="0,-208.5 0,-238.5 106,-238.5 106,-208.5 0,-208.5"/>
<text text-anchor="start" x="8" y="-226.5" font-family="Helvetica,sans-Serif" font-size="10.00">irr::core::ustring16</text>
<text text-anchor="middle" x="53" y="-215.5" font-family="Helvetica,sans-Serif" font-size="10.00">::trim</text>
</a>
</g>
</g>
<!-- Node2 -->
<g id="node2" class="node">
<title>Node2</title>
<g id="a_node2"><a xlink:href="classirr_1_1core_1_1ustring16.html#ade9935f3811ec548e326331018dc7dd7" target="_top" xlink:title=" ">
<polygon fill="white" stroke="black" points="326,-186.5 326,-216.5 432,-216.5 432,-186.5 326,-186.5"/>
<text text-anchor="start" x="334" y="-204.5" font-family="Helvetica,sans-Serif" font-size="10.00">irr::core::ustring16</text>
<text text-anchor="middle" x="379" y="-193.5" font-family="Helvetica,sans-Serif" font-size="10.00">::begin</text>
</a>
</g>
</g>
<!-- Node1&#45;&gt;Node2 -->
<g id="edge1" class="edge">
<title>Node1&#45;&gt;Node2</title>
<path fill="none" stroke="midnightblue" d="M106.06,-219.97C163.13,-216.09 254.67,-209.87 315.56,-205.74"/>
<polygon fill="midnightblue" stroke="midnightblue" points="316.06,-209.21 325.8,-205.04 315.59,-202.23 316.06,-209.21"/>
</g>
<!-- Node3 -->
<g id="node3" class="node">
<title>Node3</title>
<g id="a_node3"><a xlink:href="classirr_1_1core_1_1array.html#a7cd7985c7fb32e90205e1df663f0fffb" target="_top" xlink:title="Gets a const pointer to the array.">
<polygon fill="white" stroke="black" points="147.5,-93.5 147.5,-123.5 264.5,-123.5 264.5,-93.5 147.5,-93.5"/>
<text text-anchor="start" x="155.5" y="-111.5" font-family="Helvetica,sans-Serif" font-size="10.00">irr::core::array::const</text>
<text text-anchor="middle" x="206" y="-100.5" font-family="Helvetica,sans-Serif" font-size="10.00">_pointer</text>
</a>
</g>
</g>
<!-- Node1&#45;&gt;Node3 -->
<g id="edge2" class="edge">
<title>Node1&#45;&gt;Node3</title>
<path fill="none" stroke="midnightblue" d="M65.56,-208.2C81.07,-188.57 110.35,-154.57 142,-133.5 144.88,-131.58 147.93,-129.78 151.07,-128.08"/>
<polygon fill="midnightblue" stroke="midnightblue" points="152.7,-131.18 160.1,-123.6 149.59,-124.91 152.7,-131.18"/>
</g>
<!-- Node4 -->
<g id="node4" class="node">
<title>Node4</title>
<g id="a_node4"><a xlink:href="classirr_1_1core_1_1ustring16.html#a4e84291ab0924dc6b4e007bfb6dad84e" target="_top" xlink:title=" ">
<polygon fill="white" stroke="black" points="314,-384 314,-403 444,-403 444,-384 314,-384"/>
<text text-anchor="middle" x="379" y="-391" font-family="Helvetica,sans-Serif" font-size="10.00">irr::core::ustring16::end</text>
</a>
</g>
</g>
<!-- Node1&#45;&gt;Node4 -->
<g id="edge3" class="edge">
<title>Node1&#45;&gt;Node4</title>
<path fill="none" stroke="midnightblue" d="M60.45,-238.55C72.45,-264.61 100.76,-317.87 142,-344.5 190.16,-375.6 254.37,-387.45 303.65,-391.74"/>
<polygon fill="midnightblue" stroke="midnightblue" points="303.69,-395.25 313.93,-392.55 304.23,-388.27 303.69,-395.25"/>
</g>
<!-- Node7 -->
<g id="node7" class="node">
<title>Node7</title>
<g id="a_node7"><a xlink:href="classirr_1_1core_1_1ustring16.html#a4c42b0eb9c676fbe37eac84b8701cc61" target="_top" xlink:title=" ">
<polygon fill="white" stroke="black" points="142,-230.5 142,-260.5 270,-260.5 270,-230.5 142,-230.5"/>
<text text-anchor="start" x="150" y="-248.5" font-family="Helvetica,sans-Serif" font-size="10.00">irr::core::ustring16</text>
<text text-anchor="middle" x="206" y="-237.5" font-family="Helvetica,sans-Serif" font-size="10.00">::findFirstCharNotInList</text>
</a>
</g>
</g>
<!-- Node1&#45;&gt;Node7 -->
<g id="edge6" class="edge">
<title>Node1&#45;&gt;Node7</title>
<path fill="none" stroke="midnightblue" d="M106.39,-231.13C114.59,-232.33 123.2,-233.58 131.77,-234.83"/>
<polygon fill="midnightblue" stroke="midnightblue" points="131.38,-238.31 141.78,-236.29 132.39,-231.38 131.38,-238.31"/>
</g>
<!-- Node10 -->
<g id="node10" class="node">
<title>Node10</title>
<g id="a_node10"><a xlink:href="classirr_1_1core_1_1ustring16.html#af1379490d496d38cf614bdb8f2f19f16" target="_top" xlink:title=" ">
<polygon fill="white" stroke="black" points="142.5,-304.5 142.5,-334.5 269.5,-334.5 269.5,-304.5 142.5,-304.5"/>
<text text-anchor="start" x="150.5" y="-322.5" font-family="Helvetica,sans-Serif" font-size="10.00">irr::core::ustring16</text>
<text text-anchor="middle" x="206" y="-311.5" font-family="Helvetica,sans-Serif" font-size="10.00">::findLastCharNotInList</text>
</a>
</g>
</g>
<!-- Node1&#45;&gt;Node10 -->
<g id="edge10" class="edge">
<title>Node1&#45;&gt;Node10</title>
<path fill="none" stroke="midnightblue" d="M77.93,-238.71C103.44,-254.93 144,-280.72 172.42,-298.79"/>
<polygon fill="midnightblue" stroke="midnightblue" points="170.87,-301.95 181.19,-304.36 174.62,-296.04 170.87,-301.95"/>
</g>
<!-- Node13 -->
<g id="node13" class="node">
<title>Node13</title>
<g id="a_node13"><a xlink:href="classirr_1_1core_1_1ustring16.html#a5cbf28f768cd85f0657bf3471bfec87c" target="_top" xlink:title=" ">
<polygon fill="white" stroke="black" points="153,-142.5 153,-172.5 259,-172.5 259,-142.5 153,-142.5"/>
<text text-anchor="start" x="161" y="-160.5" font-family="Helvetica,sans-Serif" font-size="10.00">irr::core::ustring16</text>
<text text-anchor="middle" x="206" y="-149.5" font-family="Helvetica,sans-Serif" font-size="10.00">::subString</text>
</a>
</g>
</g>
<!-- Node1&#45;&gt;Node13 -->
<g id="edge15" class="edge">
<title>Node1&#45;&gt;Node13</title>
<path fill="none" stroke="midnightblue" d="M88.64,-208.36C110.22,-198.93 138.18,-186.71 161.28,-176.61"/>
<polygon fill="midnightblue" stroke="midnightblue" points="162.76,-179.78 170.52,-172.57 159.95,-173.37 162.76,-179.78"/>
</g>
<!-- Node5 -->
<g id="node5" class="node">
<title>Node5</title>
<g id="a_node5"><a xlink:href="classirr_1_1core_1_1ustring16_1_1__ustring16__const__iterator.html#a981163b41ee4bd0f594118d90ffffe1c" target="_top" xlink:title="Moves the iterator to the end of the string.">
<polygon fill="white" stroke="black" points="488,-351 488,-392 634,-392 634,-351 488,-351"/>
<text text-anchor="start" x="496" y="-380" font-family="Helvetica,sans-Serif" font-size="10.00">irr::core::ustring16</text>
<text text-anchor="start" x="496" y="-369" font-family="Helvetica,sans-Serif" font-size="10.00">::_ustring16_const_iterator</text>
<text text-anchor="middle" x="561" y="-358" font-family="Helvetica,sans-Serif" font-size="10.00">::toEnd</text>
</a>
</g>
</g>
<!-- Node4&#45;&gt;Node5 -->
<g id="edge4" class="edge">
<title>Node4&#45;&gt;Node5</title>
<path fill="none" stroke="midnightblue" d="M444.22,-385.65C455.04,-384.33 466.41,-382.94 477.62,-381.57"/>
<polygon fill="midnightblue" stroke="midnightblue" points="478.34,-385.01 487.84,-380.32 477.49,-378.06 478.34,-385.01"/>
</g>
<!-- Node6 -->
<g id="node6" class="node">
<title>Node6</title>
<g id="a_node6"><a xlink:href="classirr_1_1core_1_1ustring16.html#a6ccdb1699994dcf50ff8f3db0cfb2686" target="_top" xlink:title=" ">
<polygon fill="white" stroke="black" points="670,-328.5 670,-358.5 776,-358.5 776,-328.5 670,-328.5"/>
<text text-anchor="start" x="678" y="-346.5" font-family="Helvetica,sans-Serif" font-size="10.00">irr::core::ustring16</text>
<text text-anchor="middle" x="723" y="-335.5" font-family="Helvetica,sans-Serif" font-size="10.00">::size_raw</text>
</a>
</g>
</g>
<!-- Node5&#45;&gt;Node6 -->
<g id="edge5" class="edge">
<title>Node5&#45;&gt;Node6</title>
<path fill="none" stroke="midnightblue" d="M634.04,-358.89C642.75,-357.37 651.58,-355.82 660.12,-354.33"/>
<polygon fill="midnightblue" stroke="midnightblue" points="660.74,-357.77 669.99,-352.6 659.53,-350.88 660.74,-357.77"/>
</g>
<!-- Node8 -->
<g id="node8" class="node">
<title>Node8</title>
<g id="a_node8"><a xlink:href="classirr_1_1core_1_1ustring16_1_1__ustring16__const__iterator.html#ada60fedde4f9b8b92e318794b4d9140a" target="_top" xlink:title="Is the iterator at the end of the string?">
<polygon fill="white" stroke="black" points="488,-247 488,-288 634,-288 634,-247 488,-247"/>
<text text-anchor="start" x="496" y="-276" font-family="Helvetica,sans-Serif" font-size="10.00">irr::core::ustring16</text>
<text text-anchor="start" x="496" y="-265" font-family="Helvetica,sans-Serif" font-size="10.00">::_ustring16_const_iterator</text>
<text text-anchor="middle" x="561" y="-254" font-family="Helvetica,sans-Serif" font-size="10.00">::atEnd</text>
</a>
</g>
</g>
<!-- Node7&#45;&gt;Node8 -->
<g id="edge7" class="edge">
<title>Node7&#45;&gt;Node8</title>
<path fill="none" stroke="midnightblue" d="M270.11,-249.43C327.97,-253.04 414.02,-258.4 477.34,-262.35"/>
<polygon fill="midnightblue" stroke="midnightblue" points="477.5,-265.87 487.7,-262.99 477.94,-258.88 477.5,-265.87"/>
</g>
<!-- Node8&#45;&gt;Node6 -->
<g id="edge9" class="edge">
<title>Node8&#45;&gt;Node6</title>
<path fill="none" stroke="midnightblue" d="M605.3,-288.07C628.89,-299.27 657.91,-313.06 681.11,-324.08"/>
<polygon fill="midnightblue" stroke="midnightblue" points="679.81,-327.33 690.34,-328.46 682.81,-321.01 679.81,-327.33"/>
</g>
<!-- Node9 -->
<g id="node9" class="node">
<title>Node9</title>
<g id="a_node9"><a xlink:href="classirr_1_1core_1_1ustring16.html#a13d082695b759bb889795470890ab5be" target="_top" xlink:title=" ">
<polygon fill="white" stroke="black" points="670,-252.5 670,-282.5 776,-282.5 776,-252.5 670,-252.5"/>
<text text-anchor="start" x="678" y="-270.5" font-family="Helvetica,sans-Serif" font-size="10.00">irr::core::ustring16</text>
<text text-anchor="middle" x="723" y="-259.5" font-family="Helvetica,sans-Serif" font-size="10.00">::c_str</text>
</a>
</g>
</g>
<!-- Node8&#45;&gt;Node9 -->
<g id="edge8" class="edge">
<title>Node8&#45;&gt;Node9</title>
<path fill="none" stroke="midnightblue" d="M634.04,-267.5C642.65,-267.5 651.39,-267.5 659.84,-267.5"/>
<polygon fill="midnightblue" stroke="midnightblue" points="659.99,-271 669.99,-267.5 659.99,-264 659.99,-271"/>
</g>
<!-- Node10&#45;&gt;Node4 -->
<g id="edge12" class="edge">
<title>Node10&#45;&gt;Node4</title>
<path fill="none" stroke="midnightblue" d="M230.18,-334.56C249.74,-346.73 278.82,-363.56 306,-374.5 311.98,-376.91 318.37,-379.1 324.77,-381.06"/>
<polygon fill="midnightblue" stroke="midnightblue" points="324.21,-384.55 334.79,-383.97 326.16,-377.82 324.21,-384.55"/>
</g>
<!-- Node11 -->
<g id="node11" class="node">
<title>Node11</title>
<g id="a_node11"><a xlink:href="classirr_1_1core_1_1ustring16_1_1__ustring16__const__iterator.html#a91bdec2f90455a703b8a20677bb3e5c8" target="_top" xlink:title="Is the iterator at the start of the string?">
<polygon fill="white" stroke="black" points="306,-324 306,-365 452,-365 452,-324 306,-324"/>
<text text-anchor="start" x="314" y="-353" font-family="Helvetica,sans-Serif" font-size="10.00">irr::core::ustring16</text>
<text text-anchor="start" x="314" y="-342" font-family="Helvetica,sans-Serif" font-size="10.00">::_ustring16_const_iterator</text>
<text text-anchor="middle" x="379" y="-331" font-family="Helvetica,sans-Serif" font-size="10.00">::atStart</text>
</a>
</g>
</g>
<!-- Node10&#45;&gt;Node11 -->
<g id="edge11" class="edge">
<title>Node10&#45;&gt;Node11</title>
<path fill="none" stroke="midnightblue" d="M269.7,-328.67C278.13,-329.9 286.88,-331.18 295.58,-332.45"/>
<polygon fill="midnightblue" stroke="midnightblue" points="295.35,-335.95 305.75,-333.94 296.37,-329.03 295.35,-335.95"/>
</g>
<!-- Node12 -->
<g id="node12" class="node">
<title>Node12</title>
<g id="a_node12"><a xlink:href="classirr_1_1core_1_1ustring16.html#aa8379341f14aaeef408d969620f87852" target="_top" xlink:title=" ">
<polygon fill="white" stroke="black" points="326,-274.5 326,-304.5 432,-304.5 432,-274.5 326,-274.5"/>
<text text-anchor="start" x="334" y="-292.5" font-family="Helvetica,sans-Serif" font-size="10.00">irr::core::ustring16</text>
<text text-anchor="middle" x="379" y="-281.5" font-family="Helvetica,sans-Serif" font-size="10.00">::size</text>
</a>
</g>
</g>
<!-- Node10&#45;&gt;Node12 -->
<g id="edge13" class="edge">
<title>Node10&#45;&gt;Node12</title>
<path fill="none" stroke="midnightblue" d="M269.7,-308.5C284.73,-305.86 300.77,-303.05 315.77,-300.42"/>
<polygon fill="midnightblue" stroke="midnightblue" points="316.72,-303.8 325.97,-298.63 315.51,-296.91 316.72,-303.8"/>
</g>
<!-- Node12&#45;&gt;Node8 -->
<g id="edge14" class="edge">
<title>Node12&#45;&gt;Node8</title>
<path fill="none" stroke="midnightblue" d="M432.06,-283.14C446.37,-281.39 462.25,-279.45 477.81,-277.55"/>
<polygon fill="midnightblue" stroke="midnightblue" points="478.47,-280.99 487.97,-276.3 477.62,-274.04 478.47,-280.99"/>
</g>
<!-- Node13&#45;&gt;Node2 -->
<g id="edge19" class="edge">
<title>Node13&#45;&gt;Node2</title>
<path fill="none" stroke="midnightblue" d="M259.23,-170.94C277.13,-175.55 297.34,-180.75 315.94,-185.53"/>
<polygon fill="midnightblue" stroke="midnightblue" points="315.23,-188.96 325.79,-188.07 316.98,-182.18 315.23,-188.96"/>
</g>
<!-- Node13&#45;&gt;Node8 -->
<g id="edge18" class="edge">
<title>Node13&#45;&gt;Node8</title>
<path fill="none" stroke="midnightblue" d="M259.3,-152.85C310.39,-150.34 389.39,-151.9 452,-177.5 485,-190.99 515.5,-218.39 535.61,-239.43"/>
<polygon fill="midnightblue" stroke="midnightblue" points="533.16,-241.93 542.54,-246.85 538.28,-237.15 533.16,-241.93"/>
</g>
<!-- Node13&#45;&gt;Node12 -->
<g id="edge22" class="edge">
<title>Node13&#45;&gt;Node12</title>
<path fill="none" stroke="midnightblue" d="M226.62,-172.64C256.94,-196.05 315.33,-241.12 350.06,-267.93"/>
<polygon fill="midnightblue" stroke="midnightblue" points="348.3,-270.99 358.35,-274.33 352.57,-265.45 348.3,-270.99"/>
</g>
<!-- Node14 -->
<g id="node14" class="node">
<title>Node14</title>
<g id="a_node14"><a xlink:href="classirr_1_1core_1_1ustring16.html#afdcd3a2e44db3bdbbe10f3303d9f2bd3" target="_top" xlink:title=" ">
<polygon fill="white" stroke="black" points="326,-98.5 326,-128.5 432,-128.5 432,-98.5 326,-98.5"/>
<text text-anchor="start" x="334" y="-116.5" font-family="Helvetica,sans-Serif" font-size="10.00">irr::core::ustring16</text>
<text text-anchor="middle" x="379" y="-105.5" font-family="Helvetica,sans-Serif" font-size="10.00">::append</text>
</a>
</g>
</g>
<!-- Node13&#45;&gt;Node14 -->
<g id="edge16" class="edge">
<title>Node13&#45;&gt;Node14</title>
<path fill="none" stroke="midnightblue" d="M259.23,-144.06C277.13,-139.45 297.34,-134.25 315.94,-129.47"/>
<polygon fill="midnightblue" stroke="midnightblue" points="316.98,-132.82 325.79,-126.93 315.23,-126.04 316.98,-132.82"/>
</g>
<!-- Node16 -->
<g id="node16" class="node">
<title>Node16</title>
<g id="a_node16"><a xlink:href="classirr_1_1core_1_1ustring16.html#a3f3acd2beeb7ed033c2e79830a152615" target="_top" xlink:title=" ">
<polygon fill="white" stroke="black" points="326,-49.5 326,-79.5 432,-79.5 432,-49.5 326,-49.5"/>
<text text-anchor="start" x="334" y="-67.5" font-family="Helvetica,sans-Serif" font-size="10.00">irr::core::ustring16</text>
<text text-anchor="middle" x="379" y="-56.5" font-family="Helvetica,sans-Serif" font-size="10.00">::reserve</text>
</a>
</g>
</g>
<!-- Node13&#45;&gt;Node16 -->
<g id="edge20" class="edge">
<title>Node13&#45;&gt;Node16</title>
<path fill="none" stroke="midnightblue" d="M254.83,-142.38C260.17,-139.8 265.35,-136.85 270,-133.5 290.5,-118.73 285.28,-103.97 306,-89.5 309.42,-87.11 313.08,-84.94 316.89,-82.95"/>
<polygon fill="midnightblue" stroke="midnightblue" points="318.41,-86.1 325.95,-78.67 315.42,-79.78 318.41,-86.1"/>
</g>
<!-- Node17 -->
<g id="node17" class="node">
<title>Node17</title>
<g id="a_node17"><a xlink:href="classirr_1_1core_1_1ustring16.html#a00605034bd03228e1cf15f90523ce87f" target="_top" xlink:title="Default constructor.">
<polygon fill="white" stroke="black" points="326,-0.5 326,-30.5 432,-30.5 432,-0.5 326,-0.5"/>
<text text-anchor="start" x="334" y="-18.5" font-family="Helvetica,sans-Serif" font-size="10.00">irr::core::ustring16</text>
<text text-anchor="middle" x="379" y="-7.5" font-family="Helvetica,sans-Serif" font-size="10.00">::ustring16</text>
</a>
</g>
</g>
<!-- Node13&#45;&gt;Node17 -->
<g id="edge23" class="edge">
<title>Node13&#45;&gt;Node17</title>
<path fill="none" stroke="midnightblue" d="M258.48,-142.32C262.68,-139.81 266.6,-136.89 270,-133.5 301.66,-101.89 273.68,-70.43 306,-39.5 309.25,-36.39 312.91,-33.69 316.81,-31.33"/>
<polygon fill="midnightblue" stroke="midnightblue" points="318.43,-34.43 325.69,-26.71 315.2,-28.22 318.43,-34.43"/>
</g>
<!-- Node15 -->
<g id="node15" class="node">
<title>Node15</title>
<g id="a_node15"><a xlink:href="classirr_1_1core_1_1ustring16.html#aed4535dda4bb841389071c473db1ebe9" target="_top" xlink:title=" ">
<polygon fill="white" stroke="black" points="508,-74.5 508,-104.5 614,-104.5 614,-74.5 508,-74.5"/>
<text text-anchor="start" x="516" y="-92.5" font-family="Helvetica,sans-Serif" font-size="10.00">irr::core::ustring16</text>
<text text-anchor="middle" x="561" y="-81.5" font-family="Helvetica,sans-Serif" font-size="10.00">::reallocate</text>
</a>
</g>
</g>
<!-- Node14&#45;&gt;Node15 -->
<g id="edge17" class="edge">
<title>Node14&#45;&gt;Node15</title>
<path fill="none" stroke="midnightblue" d="M432.06,-106.56C452.59,-103.82 476.34,-100.65 497.76,-97.8"/>
<polygon fill="midnightblue" stroke="midnightblue" points="498.29,-101.26 507.74,-96.47 497.37,-94.32 498.29,-101.26"/>
</g>
<!-- Node16&#45;&gt;Node15 -->
<g id="edge21" class="edge">
<title>Node16&#45;&gt;Node15</title>
<path fill="none" stroke="midnightblue" d="M432.06,-71.73C452.59,-74.58 476.34,-77.88 497.76,-80.86"/>
<polygon fill="midnightblue" stroke="midnightblue" points="497.36,-84.33 507.74,-82.24 498.32,-77.4 497.36,-84.33"/>
</g>
</g>
</svg>
        <g id="navigator" transform="translate(0 0)" fill="#404254">
                <rect fill="#f2f5e9" fill-opacity="0.5" stroke="#606060" stroke-width=".5" x="0" y="0" width="60" height="60"/>
                <use id="zoomplus" xlink:href="#zoomPlus" x="17" y="9" onmousedown="handleZoom(evt,'in')"/>
                <use id="zoomminus" xlink:href="#zoomMin" x="42" y="9" onmousedown="handleZoom(evt,'out')"/>
                <use id="reset" xlink:href="#resetDef" x="30" y="36" onmousedown="handleReset()"/>
                <g id="arrowUp" xlink:href="#dirArrow" transform="translate(30 24)" onmousedown="handlePan(0,-1)">
                  <use xlink:href="#rim" fill="#404040">
                        <set attributeName="fill" to="#808080" begin="arrowUp.mouseover" end="arrowUp.mouseout"/>
                  </use>
                  <path fill="none" stroke="white" stroke-width="1.5" d="M0,-3.0v7 M-2.5,-0.5L0,-3.0L2.5,-0.5"/>
                </g>
                <g id="arrowRight" xlink:href="#dirArrow" transform="rotate(90) translate(36 -43)" onmousedown="handlePan(1,0)">
                  <use xlink:href="#rim" fill="#404040">
                        <set attributeName="fill" to="#808080" begin="arrowRight.mouseover" end="arrowRight.mouseout"/>
                  </use>
                  <path fill="none" stroke="white" stroke-width="1.5" d="M0,-3.0v7 M-2.5,-0.5L0,-3.0L2.5,-0.5"/>
                </g>
                <g id="arrowDown" xlink:href="#dirArrow" transform="rotate(180) translate(-30 -48)" onmousedown="handlePan(0,1)">
                  <use xlink:href="#rim" fill="#404040">
                        <set attributeName="fill" to="#808080" begin="arrowDown.mouseover" end="arrowDown.mouseout"/>
                  </use>
                  <path fill="none" stroke="white" stroke-width="1.5" d="M0,-3.0v7 M-2.5,-0.5L0,-3.0L2.5,-0.5"/>
                </g>
                <g id="arrowLeft" xlink:href="#dirArrow" transform="rotate(270) translate(-36 17)" onmousedown="handlePan(-1,0)">
                  <use xlink:href="#rim" fill="#404040">
                        <set attributeName="fill" to="#808080" begin="arrowLeft.mouseover" end="arrowLeft.mouseout"/>
                  </use>
                  <path fill="none" stroke="white" stroke-width="1.5" d="M0,-3.0v7 M-2.5,-0.5L0,-3.0L2.5,-0.5"/>
                </g>
        </g>
        <svg viewBox="0 0 15 15" width="100%" height="30px" preserveAspectRatio="xMaxYMin meet">
         <g id="arrow_out" transform="scale(0.3 0.3)">
          <a xlink:href="classirr_1_1core_1_1ustring16_a80586c050ba07fbc43938d333a0eafa8_cgraph_org.svg" target="_base">
           <rect id="button" ry="5" rx="5" y="6" x="6" height="38" width="38"
                fill="#f2f5e9" fill-opacity="0.5" stroke="#606060" stroke-width="1.0"/>
           <path id="arrow"
             d="M 11.500037,31.436501 C 11.940474,20.09759 22.043105,11.32322 32.158766,21.979434 L 37.068811,17.246167 C 37.068811,17.246167 37.088388,32 37.088388,32 L 22.160133,31.978069 C 22.160133,31.978069 26.997745,27.140456 26.997745,27.140456 C 18.528582,18.264221 13.291696,25.230495 11.500037,31.436501 z"
             style="fill:#404040;"/>
          </a>
         </g>
        </svg>
</svg>
