<?xml version="1.0" encoding="UTF-8" standalone="no"?>
<!DOCTYPE svg PUBLIC "-//W3C//DTD SVG 1.1//EN"
 "http://www.w3.org/Graphics/SVG/1.1/DTD/svg11.dtd">
<!-- Generated by graphviz version 2.43.0 (0)
 -->
<!-- Title: irr::io::CFileSystem::changeWorkingDirectoryTo Pages: 1 -->
<!--zoomable 132 -->
<svg id="main" version="1.1" xmlns="http://www.w3.org/2000/svg" xmlns:xlink="http://www.w3.org/1999/xlink" xml:space="preserve" onload="init(evt)">
<style type="text/css"><![CDATA[
.edge:hover path { stroke: red; }
.edge:hover polygon { stroke: red; fill: red; }
]]></style>
<script type="text/javascript"><![CDATA[
var edges = document.getElementsByTagName('g');
if (edges && edges.length) {
  for (var i=0;i<edges.length;i++) {
    if (edges[i].id.substr(0,4)=='edge') {
      edges[i].setAttribute('class','edge');
    }
  }
}
]]></script>
        <defs>
                <circle id="rim" cx="0" cy="0" r="7"/>
                <circle id="rim2" cx="0" cy="0" r="3.5"/>
                <g id="zoomPlus">
                        <use xlink:href="#rim" fill="#404040">
                                <set attributeName="fill" to="#808080" begin="zoomplus.mouseover" end="zoomplus.mouseout"/>
                        </use>
                        <path d="M-4,0h8M0,-4v8" fill="none" stroke="white" stroke-width="1.5" pointer-events="none"/>
                </g>
                <g id="zoomMin">
                        <use xlink:href="#rim" fill="#404040">
                                <set attributeName="fill" to="#808080" begin="zoomminus.mouseover" end="zoomminus.mouseout"/>
                        </use>
                        <path d="M-4,0h8" fill="none" stroke="white" stroke-width="1.5" pointer-events="none"/>
                </g>
                <g id="dirArrow">
                        <path fill="none" stroke="white" stroke-width="1.5" d="M0,-3.0v7 M-2.5,-0.5L0,-3.0L2.5,-0.5"/>
                </g>
               <g id="resetDef">
                       <use xlink:href="#rim2" fill="#404040">
                               <set attributeName="fill" to="#808080" begin="reset.mouseover" end="reset.mouseout"/>
                       </use>
               </g>
        </defs>

<script type="text/javascript">
var viewWidth = 649;
var viewHeight = 132;
var sectionId = 'dynsection-3';
</script>
<script xlink:href="svgpan.js"/>
<svg id="graph" class="graph">
<g id="viewport">
<title>irr::io::CFileSystem::changeWorkingDirectoryTo</title>
<polygon fill="white" stroke="transparent" points="-4,4 -4,-128 645,-128 645,4 -4,4"/>
<!-- Node1 -->
<g id="node1" class="node">
<title>Node1</title>
<g id="a_node1"><a xlink:title="Changes the current Working Directory to the given string.">
<polygon fill="#bfbfbf" stroke="black" points="0,-68.5 0,-98.5 153,-98.5 153,-68.5 0,-68.5"/>
<text text-anchor="start" x="8" y="-86.5" font-family="Helvetica,sans-Serif" font-size="10.00">irr::io::CFileSystem</text>
<text text-anchor="middle" x="76.5" y="-75.5" font-family="Helvetica,sans-Serif" font-size="10.00">::changeWorkingDirectoryTo</text>
</a>
</g>
</g>
<!-- Node2 -->
<g id="node2" class="node">
<title>Node2</title>
<g id="a_node2"><a xlink:href="classirr_1_1core_1_1string.html#a4a6d39561b095cbab46185dd20d11d85" target="_top" xlink:title="Returns character string.">
<polygon fill="white" stroke="black" points="196.5,-93.5 196.5,-123.5 290.5,-123.5 290.5,-93.5 196.5,-93.5"/>
<text text-anchor="start" x="204.5" y="-111.5" font-family="Helvetica,sans-Serif" font-size="10.00">irr::core::string::</text>
<text text-anchor="middle" x="243.5" y="-100.5" font-family="Helvetica,sans-Serif" font-size="10.00">c_str</text>
</a>
</g>
</g>
<!-- Node1&#45;&gt;Node2 -->
<g id="edge1" class="edge">
<title>Node1&#45;&gt;Node2</title>
<path fill="none" stroke="midnightblue" d="M153.24,-94.98C164.41,-96.67 175.75,-98.39 186.42,-100"/>
<polygon fill="midnightblue" stroke="midnightblue" points="186.02,-103.48 196.43,-101.52 187.07,-96.56 186.02,-103.48"/>
</g>
<!-- Node3 -->
<g id="node3" class="node">
<title>Node3</title>
<g id="a_node3"><a xlink:href="classirr_1_1io_1_1CFileSystem.html#adbc4222ea0c4b79dac9a9eac3e12d162" target="_top" xlink:title="flatten a path and file name for example: &quot;/you/me/../.&quot; becomes &quot;/you&quot;">
<polygon fill="white" stroke="black" points="189,-44.5 189,-74.5 298,-74.5 298,-44.5 189,-44.5"/>
<text text-anchor="start" x="197" y="-62.5" font-family="Helvetica,sans-Serif" font-size="10.00">irr::io::CFileSystem</text>
<text text-anchor="middle" x="243.5" y="-51.5" font-family="Helvetica,sans-Serif" font-size="10.00">::flattenFilename</text>
</a>
</g>
</g>
<!-- Node1&#45;&gt;Node3 -->
<g id="edge2" class="edge">
<title>Node1&#45;&gt;Node3</title>
<path fill="none" stroke="midnightblue" d="M153.24,-72.48C161.79,-71.24 170.44,-69.98 178.82,-68.76"/>
<polygon fill="midnightblue" stroke="midnightblue" points="179.48,-72.2 188.88,-67.3 178.48,-65.28 179.48,-72.2"/>
</g>
<!-- Node4 -->
<g id="node4" class="node">
<title>Node4</title>
<g id="a_node4"><a xlink:href="classirr_1_1core_1_1string.html#a69b1f7ad4ea81267195f9f0fd8ba3a73" target="_top" xlink:title="Appends a character to this string.">
<polygon fill="white" stroke="black" points="366,-88.5 366,-118.5 460,-118.5 460,-88.5 366,-88.5"/>
<text text-anchor="start" x="374" y="-106.5" font-family="Helvetica,sans-Serif" font-size="10.00">irr::core::string::</text>
<text text-anchor="middle" x="413" y="-95.5" font-family="Helvetica,sans-Serif" font-size="10.00">append</text>
</a>
</g>
</g>
<!-- Node3&#45;&gt;Node4 -->
<g id="edge3" class="edge">
<title>Node3&#45;&gt;Node4</title>
<path fill="none" stroke="midnightblue" d="M298.42,-73.66C316.82,-78.5 337.43,-83.91 356,-88.79"/>
<polygon fill="midnightblue" stroke="midnightblue" points="355.22,-92.2 365.78,-91.36 357,-85.43 355.22,-92.2"/>
</g>
<!-- Node5 -->
<g id="node5" class="node">
<title>Node5</title>
<g id="a_node5"><a xlink:href="namespaceirr_1_1core.html#a9215d20e34c12cb6c1522366389bfcce" target="_top" xlink:title="trim paths">
<polygon fill="white" stroke="black" points="334,-12 334,-31 492,-31 492,-12 334,-12"/>
<text text-anchor="middle" x="413" y="-19" font-family="Helvetica,sans-Serif" font-size="10.00">irr::core::deletePathFromPath</text>
</a>
</g>
</g>
<!-- Node3&#45;&gt;Node5 -->
<g id="edge4" class="edge">
<title>Node3&#45;&gt;Node5</title>
<path fill="none" stroke="midnightblue" d="M298.42,-47.27C318.13,-42.8 340.37,-37.75 359.92,-33.32"/>
<polygon fill="midnightblue" stroke="midnightblue" points="360.89,-36.68 369.86,-31.06 359.34,-29.86 360.89,-36.68"/>
</g>
<!-- Node6 -->
<g id="node6" class="node">
<title>Node6</title>
<g id="a_node6"><a xlink:href="classirr_1_1core_1_1string.html#aa8bd67d3b9e153e1a8e47ea921c95933" target="_top" xlink:title="Returns length of the string&#39;s content.">
<polygon fill="white" stroke="black" points="528,-50 528,-69 641,-69 641,-50 528,-50"/>
<text text-anchor="middle" x="584.5" y="-57" font-family="Helvetica,sans-Serif" font-size="10.00">irr::core::string::size</text>
</a>
</g>
</g>
<!-- Node3&#45;&gt;Node6 -->
<g id="edge7" class="edge">
<title>Node3&#45;&gt;Node6</title>
<path fill="none" stroke="midnightblue" d="M298.22,-59.5C357.64,-59.5 453.43,-59.5 517.4,-59.5"/>
<polygon fill="midnightblue" stroke="midnightblue" points="517.78,-63 527.78,-59.5 517.78,-56 517.78,-63"/>
</g>
<!-- Node5&#45;&gt;Node6 -->
<g id="edge5" class="edge">
<title>Node5&#45;&gt;Node6</title>
<path fill="none" stroke="midnightblue" d="M456.77,-31.09C479.34,-36.15 507.22,-42.4 531.08,-47.75"/>
<polygon fill="midnightblue" stroke="midnightblue" points="530.51,-51.21 541.04,-49.98 532.04,-44.38 530.51,-51.21"/>
</g>
<!-- Node7 -->
<g id="node7" class="node">
<title>Node7</title>
<g id="a_node7"><a xlink:href="classirr_1_1core_1_1string.html#a3540f845ff62da6bca57bfece964dea5" target="_top" xlink:title="verify the existing string.">
<polygon fill="white" stroke="black" points="537.5,-0.5 537.5,-30.5 631.5,-30.5 631.5,-0.5 537.5,-0.5"/>
<text text-anchor="start" x="545.5" y="-18.5" font-family="Helvetica,sans-Serif" font-size="10.00">irr::core::string::</text>
<text text-anchor="middle" x="584.5" y="-7.5" font-family="Helvetica,sans-Serif" font-size="10.00">validate</text>
</a>
</g>
</g>
<!-- Node5&#45;&gt;Node7 -->
<g id="edge6" class="edge">
<title>Node5&#45;&gt;Node7</title>
<path fill="none" stroke="midnightblue" d="M492.3,-18.73C504.12,-18.31 516.11,-17.89 527.34,-17.49"/>
<polygon fill="midnightblue" stroke="midnightblue" points="527.55,-20.98 537.42,-17.13 527.3,-13.99 527.55,-20.98"/>
</g>
</g>
</svg>
        <g id="navigator" transform="translate(0 0)" fill="#404254">
                <rect fill="#f2f5e9" fill-opacity="0.5" stroke="#606060" stroke-width=".5" x="0" y="0" width="60" height="60"/>
                <use id="zoomplus" xlink:href="#zoomPlus" x="17" y="9" onmousedown="handleZoom(evt,'in')"/>
                <use id="zoomminus" xlink:href="#zoomMin" x="42" y="9" onmousedown="handleZoom(evt,'out')"/>
                <use id="reset" xlink:href="#resetDef" x="30" y="36" onmousedown="handleReset()"/>
                <g id="arrowUp" xlink:href="#dirArrow" transform="translate(30 24)" onmousedown="handlePan(0,-1)">
                  <use xlink:href="#rim" fill="#404040">
                        <set attributeName="fill" to="#808080" begin="arrowUp.mouseover" end="arrowUp.mouseout"/>
                  </use>
                  <path fill="none" stroke="white" stroke-width="1.5" d="M0,-3.0v7 M-2.5,-0.5L0,-3.0L2.5,-0.5"/>
                </g>
                <g id="arrowRight" xlink:href="#dirArrow" transform="rotate(90) translate(36 -43)" onmousedown="handlePan(1,0)">
                  <use xlink:href="#rim" fill="#404040">
                        <set attributeName="fill" to="#808080" begin="arrowRight.mouseover" end="arrowRight.mouseout"/>
                  </use>
                  <path fill="none" stroke="white" stroke-width="1.5" d="M0,-3.0v7 M-2.5,-0.5L0,-3.0L2.5,-0.5"/>
                </g>
                <g id="arrowDown" xlink:href="#dirArrow" transform="rotate(180) translate(-30 -48)" onmousedown="handlePan(0,1)">
                  <use xlink:href="#rim" fill="#404040">
                        <set attributeName="fill" to="#808080" begin="arrowDown.mouseover" end="arrowDown.mouseout"/>
                  </use>
                  <path fill="none" stroke="white" stroke-width="1.5" d="M0,-3.0v7 M-2.5,-0.5L0,-3.0L2.5,-0.5"/>
                </g>
                <g id="arrowLeft" xlink:href="#dirArrow" transform="rotate(270) translate(-36 17)" onmousedown="handlePan(-1,0)">
                  <use xlink:href="#rim" fill="#404040">
                        <set attributeName="fill" to="#808080" begin="arrowLeft.mouseover" end="arrowLeft.mouseout"/>
                  </use>
                  <path fill="none" stroke="white" stroke-width="1.5" d="M0,-3.0v7 M-2.5,-0.5L0,-3.0L2.5,-0.5"/>
                </g>
        </g>
        <svg viewBox="0 0 15 15" width="100%" height="30px" preserveAspectRatio="xMaxYMin meet">
         <g id="arrow_out" transform="scale(0.3 0.3)">
          <a xlink:href="classirr_1_1io_1_1CFileSystem_a600e7f15d3423ef3796febf085b8a021_cgraph_org.svg" target="_base">
           <rect id="button" ry="5" rx="5" y="6" x="6" height="38" width="38"
                fill="#f2f5e9" fill-opacity="0.5" stroke="#606060" stroke-width="1.0"/>
           <path id="arrow"
             d="M 11.500037,31.436501 C 11.940474,20.09759 22.043105,11.32322 32.158766,21.979434 L 37.068811,17.246167 C 37.068811,17.246167 37.088388,32 37.088388,32 L 22.160133,31.978069 C 22.160133,31.978069 26.997745,27.140456 26.997745,27.140456 C 18.528582,18.264221 13.291696,25.230495 11.500037,31.436501 z"
             style="fill:#404040;"/>
          </a>
         </g>
        </svg>
</svg>
