<?xml version="1.0" encoding="UTF-8" standalone="no"?>
<!DOCTYPE svg PUBLIC "-//W3C//DTD SVG 1.1//EN"
 "http://www.w3.org/Graphics/SVG/1.1/DTD/svg11.dtd">
<!-- Generated by graphviz version 2.43.0 (0)
 -->
<!-- Title: Catch::Generators::ChunkGenerator&lt; T &gt; Pages: 1 -->
<svg width="797pt" height="202pt"
 viewBox="0.00 0.00 797.00 202.00" xmlns="http://www.w3.org/2000/svg" xmlns:xlink="http://www.w3.org/1999/xlink">
<g id="graph0" class="graph" transform="scale(1 1) rotate(0) translate(4 198)">
<title>Catch::Generators::ChunkGenerator&lt; T &gt;</title>
<polygon fill="white" stroke="transparent" points="-4,4 -4,-198 793,-198 793,4 -4,4"/>
<!-- Node1 -->
<g id="node1" class="node">
<title>Node1</title>
<g id="a_node1"><a xlink:title=" ">
<polygon fill="#bfbfbf" stroke="black" points="664,-71 664,-101 789,-101 789,-71 664,-71"/>
<text text-anchor="start" x="672" y="-89" font-family="Helvetica,sans-Serif" font-size="10.00">Catch::Generators::</text>
<text text-anchor="middle" x="726.5" y="-78" font-family="Helvetica,sans-Serif" font-size="10.00">ChunkGenerator&lt; T &gt;</text>
</a>
</g>
</g>
<!-- Node2 -->
<g id="node2" class="node">
<title>Node2</title>
<g id="a_node2"><a xlink:href="structCatch_1_1Generators_1_1IGenerator.html" target="_top" xlink:title=" ">
<polygon fill="white" stroke="black" points="422,-152.5 422,-193.5 553,-193.5 553,-152.5 422,-152.5"/>
<text text-anchor="start" x="430" y="-181.5" font-family="Helvetica,sans-Serif" font-size="10.00">Catch::Generators::</text>
<text text-anchor="start" x="430" y="-170.5" font-family="Helvetica,sans-Serif" font-size="10.00">IGenerator&lt; std::vector</text>
<text text-anchor="middle" x="487.5" y="-159.5" font-family="Helvetica,sans-Serif" font-size="10.00">&lt; T &gt; &gt;</text>
</a>
</g>
</g>
<!-- Node2&#45;&gt;Node1 -->
<g id="edge1" class="edge">
<title>Node2&#45;&gt;Node1</title>
<path fill="none" stroke="midnightblue" d="M563.33,-153.59C589.79,-145.96 619.54,-136.51 646,-126 663.95,-118.87 683.32,-109.17 698.45,-101.1"/>
<polygon fill="midnightblue" stroke="midnightblue" points="562.02,-150.32 553.36,-156.42 563.94,-157.06 562.02,-150.32"/>
</g>
<!-- Node3 -->
<g id="node3" class="node">
<title>Node3</title>
<g id="a_node3"><a xlink:href="classCatch_1_1Generators_1_1GeneratorUntypedBase.html" target="_top" xlink:title=" ">
<polygon fill="white" stroke="black" points="0,-153 0,-183 131,-183 131,-153 0,-153"/>
<text text-anchor="start" x="8" y="-171" font-family="Helvetica,sans-Serif" font-size="10.00">Catch::Generators::</text>
<text text-anchor="middle" x="65.5" y="-160" font-family="Helvetica,sans-Serif" font-size="10.00">GeneratorUntypedBase</text>
</a>
</g>
</g>
<!-- Node3&#45;&gt;Node2 -->
<g id="edge2" class="edge">
<title>Node3&#45;&gt;Node2</title>
<path fill="none" stroke="midnightblue" d="M141.31,-171.56C209.3,-174.38 312.38,-177.59 402,-176 408.46,-175.89 415.19,-175.72 421.92,-175.53"/>
<polygon fill="midnightblue" stroke="midnightblue" points="141.26,-168.06 131.13,-171.13 140.97,-175.05 141.26,-168.06"/>
</g>
<!-- Node4 -->
<g id="node4" class="node">
<title>Node4</title>
<g id="a_node4"><a xlink:href="structCatch_1_1Generators_1_1IGenerator.html" target="_top" xlink:title=" ">
<polygon fill="white" stroke="black" points="168,-131 168,-161 278,-161 278,-131 168,-131"/>
<text text-anchor="start" x="176" y="-149" font-family="Helvetica,sans-Serif" font-size="10.00">Catch::Generators::</text>
<text text-anchor="middle" x="223" y="-138" font-family="Helvetica,sans-Serif" font-size="10.00">IGenerator&lt; T &gt;</text>
</a>
</g>
</g>
<!-- Node3&#45;&gt;Node4 -->
<g id="edge4" class="edge">
<title>Node3&#45;&gt;Node4</title>
<path fill="none" stroke="midnightblue" d="M141.16,-157.44C150.12,-156.17 159.14,-154.89 167.73,-153.68"/>
<polygon fill="midnightblue" stroke="midnightblue" points="140.51,-153.99 131.1,-158.86 141.49,-160.93 140.51,-153.99"/>
</g>
<!-- Node4&#45;&gt;Node2 -->
<g id="edge3" class="edge">
<title>Node4&#45;&gt;Node2</title>
<path fill="none" stroke="orange" stroke-dasharray="5,2" d="M288.13,-152.6C328.75,-156.77 381.11,-162.16 421.83,-166.35"/>
<polygon fill="orange" stroke="orange" points="288.38,-149.1 278.07,-151.56 287.66,-156.07 288.38,-149.1"/>
<text text-anchor="middle" x="349" y="-167" font-family="Helvetica,sans-Serif" font-size="10.00"> &lt; std::vector&lt; T &gt; &gt;</text>
</g>
<!-- Node5 -->
<g id="node5" class="node">
<title>Node5</title>
<g id="a_node5"><a xlink:title=" ">
<polygon fill="white" stroke="#bfbfbf" points="465,-114.5 465,-133.5 510,-133.5 510,-114.5 465,-114.5"/>
<text text-anchor="middle" x="487.5" y="-121.5" font-family="Helvetica,sans-Serif" font-size="10.00">size_t</text>
</a>
</g>
</g>
<!-- Node5&#45;&gt;Node1 -->
<g id="edge5" class="edge">
<title>Node5&#45;&gt;Node1</title>
<path fill="none" stroke="#9a32cd" stroke-dasharray="5,2" d="M520.25,-119.76C552.1,-115.41 602.54,-108.27 646,-101 651.82,-100.03 657.87,-98.97 663.91,-97.88"/>
<polygon fill="#9a32cd" stroke="#9a32cd" points="519.64,-116.31 510.2,-121.12 520.58,-123.24 519.64,-116.31"/>
<text text-anchor="middle" x="609.5" y="-114" font-family="Helvetica,sans-Serif" font-size="10.00"> m_chunk_size</text>
</g>
<!-- Node6 -->
<g id="node6" class="node">
<title>Node6</title>
<g id="a_node6"><a xlink:href="classbool.html" target="_top" xlink:title=" ">
<polygon fill="white" stroke="black" points="468.5,-76.5 468.5,-95.5 506.5,-95.5 506.5,-76.5 468.5,-76.5"/>
<text text-anchor="middle" x="487.5" y="-83.5" font-family="Helvetica,sans-Serif" font-size="10.00">bool</text>
</a>
</g>
</g>
<!-- Node6&#45;&gt;Node1 -->
<g id="edge6" class="edge">
<title>Node6&#45;&gt;Node1</title>
<path fill="none" stroke="#9a32cd" stroke-dasharray="5,2" d="M517,-86C553.14,-86 616.45,-86 663.85,-86"/>
<polygon fill="#9a32cd" stroke="#9a32cd" points="516.7,-82.5 506.7,-86 516.7,-89.5 516.7,-82.5"/>
<text text-anchor="middle" x="609.5" y="-89" font-family="Helvetica,sans-Serif" font-size="10.00"> m_used_up</text>
</g>
<!-- Node7 -->
<g id="node7" class="node">
<title>Node7</title>
<g id="a_node7"><a xlink:title=" ">
<polygon fill="white" stroke="#bfbfbf" points="420,-38.5 420,-57.5 555,-57.5 555,-38.5 420,-38.5"/>
<text text-anchor="middle" x="487.5" y="-45.5" font-family="Helvetica,sans-Serif" font-size="10.00">GeneratorWrapper&lt; T &gt;</text>
</a>
</g>
</g>
<!-- Node7&#45;&gt;Node1 -->
<g id="edge7" class="edge">
<title>Node7&#45;&gt;Node1</title>
<path fill="none" stroke="#9a32cd" stroke-dasharray="5,2" d="M565.32,-58.57C591.01,-62.27 619.77,-66.61 646,-71 651.82,-71.97 657.87,-73.03 663.91,-74.12"/>
<polygon fill="#9a32cd" stroke="#9a32cd" points="565.66,-55.08 555.27,-57.13 564.67,-62.01 565.66,-55.08"/>
<text text-anchor="middle" x="609.5" y="-74" font-family="Helvetica,sans-Serif" font-size="10.00"> m_generator</text>
</g>
<!-- Node8 -->
<g id="node8" class="node">
<title>Node8</title>
<g id="a_node8"><a xlink:title=" ">
<polygon fill="white" stroke="#bfbfbf" points="449.5,-0.5 449.5,-19.5 525.5,-19.5 525.5,-0.5 449.5,-0.5"/>
<text text-anchor="middle" x="487.5" y="-7.5" font-family="Helvetica,sans-Serif" font-size="10.00">vector&lt; T &gt;</text>
</a>
</g>
</g>
<!-- Node8&#45;&gt;Node1 -->
<g id="edge8" class="edge">
<title>Node8&#45;&gt;Node1</title>
<path fill="none" stroke="#9a32cd" stroke-dasharray="5,2" d="M535.46,-17.17C567.25,-22.81 609.88,-31.92 646,-45 664.98,-51.87 685.19,-62.34 700.48,-70.98"/>
<polygon fill="#9a32cd" stroke="#9a32cd" points="535.99,-13.71 525.54,-15.46 534.8,-20.61 535.99,-13.71"/>
<text text-anchor="middle" x="609.5" y="-48" font-family="Helvetica,sans-Serif" font-size="10.00"> m_chunk</text>
</g>
</g>
</svg>
