<?xml version="1.0" encoding="UTF-8" standalone="no"?>
<!DOCTYPE svg PUBLIC "-//W3C//DTD SVG 1.1//EN"
 "http://www.w3.org/Graphics/SVG/1.1/DTD/svg11.dtd">
<!-- Generated by graphviz version 2.43.0 (0)
 -->
<!-- Title: ServerActiveObject Pages: 1 -->
<svg width="274pt" height="196pt"
 viewBox="0.00 0.00 273.50 196.00" xmlns="http://www.w3.org/2000/svg" xmlns:xlink="http://www.w3.org/1999/xlink">
<g id="graph0" class="graph" transform="scale(1 1) rotate(0) translate(4 192)">
<title>ServerActiveObject</title>
<polygon fill="white" stroke="transparent" points="-4,4 -4,-192 269.5,-192 269.5,4 -4,4"/>
<!-- Node1 -->
<g id="node1" class="node">
<title>Node1</title>
<g id="a_node1"><a xlink:title=" ">
<polygon fill="#bfbfbf" stroke="black" points="71.5,-112.5 71.5,-131.5 181.5,-131.5 181.5,-112.5 71.5,-112.5"/>
<text text-anchor="middle" x="126.5" y="-119.5" font-family="Helvetica,sans-Serif" font-size="10.00">ServerActiveObject</text>
</a>
</g>
</g>
<!-- Node3 -->
<g id="node3" class="node">
<title>Node3</title>
<g id="a_node3"><a xlink:href="classMockServerActiveObject.html" target="_top" xlink:title=" ">
<polygon fill="white" stroke="black" points="0,-56.5 0,-75.5 137,-75.5 137,-56.5 0,-56.5"/>
<text text-anchor="middle" x="68.5" y="-63.5" font-family="Helvetica,sans-Serif" font-size="10.00">MockServerActiveObject</text>
</a>
</g>
</g>
<!-- Node1&#45;&gt;Node3 -->
<g id="edge2" class="edge">
<title>Node1&#45;&gt;Node3</title>
<path fill="none" stroke="midnightblue" d="M109.59,-105.25C99.3,-95.67 86.53,-83.79 77.99,-75.83"/>
<polygon fill="midnightblue" stroke="midnightblue" points="107.48,-108.07 117.18,-112.32 112.25,-102.95 107.48,-108.07"/>
</g>
<!-- Node4 -->
<g id="node4" class="node">
<title>Node4</title>
<g id="a_node4"><a xlink:href="classUnitSAO.html" target="_top" xlink:title=" ">
<polygon fill="white" stroke="black" points="155.5,-56.5 155.5,-75.5 213.5,-75.5 213.5,-56.5 155.5,-56.5"/>
<text text-anchor="middle" x="184.5" y="-63.5" font-family="Helvetica,sans-Serif" font-size="10.00">UnitSAO</text>
</a>
</g>
</g>
<!-- Node1&#45;&gt;Node4 -->
<g id="edge3" class="edge">
<title>Node1&#45;&gt;Node4</title>
<path fill="none" stroke="midnightblue" d="M143.41,-105.25C153.7,-95.67 166.47,-83.79 175.01,-75.83"/>
<polygon fill="midnightblue" stroke="midnightblue" points="140.75,-102.95 135.82,-112.32 145.52,-108.07 140.75,-102.95"/>
</g>
<!-- Node2 -->
<g id="node2" class="node">
<title>Node2</title>
<g id="a_node2"><a xlink:href="classActiveObject.html" target="_top" xlink:title=" ">
<polygon fill="white" stroke="black" points="87,-168.5 87,-187.5 166,-187.5 166,-168.5 87,-168.5"/>
<text text-anchor="middle" x="126.5" y="-175.5" font-family="Helvetica,sans-Serif" font-size="10.00">ActiveObject</text>
</a>
</g>
</g>
<!-- Node2&#45;&gt;Node1 -->
<g id="edge1" class="edge">
<title>Node2&#45;&gt;Node1</title>
<path fill="none" stroke="midnightblue" d="M126.5,-157.8C126.5,-148.91 126.5,-138.78 126.5,-131.75"/>
<polygon fill="midnightblue" stroke="midnightblue" points="123,-158.08 126.5,-168.08 130,-158.08 123,-158.08"/>
</g>
<!-- Node5 -->
<g id="node5" class="node">
<title>Node5</title>
<g id="a_node5"><a xlink:href="classLuaEntitySAO.html" target="_top" xlink:title=" ">
<polygon fill="white" stroke="black" points="96,-0.5 96,-19.5 179,-19.5 179,-0.5 96,-0.5"/>
<text text-anchor="middle" x="137.5" y="-7.5" font-family="Helvetica,sans-Serif" font-size="10.00">LuaEntitySAO</text>
</a>
</g>
</g>
<!-- Node4&#45;&gt;Node5 -->
<g id="edge4" class="edge">
<title>Node4&#45;&gt;Node5</title>
<path fill="none" stroke="midnightblue" d="M170.08,-48.43C161.84,-38.97 151.85,-27.48 145.12,-19.75"/>
<polygon fill="midnightblue" stroke="midnightblue" points="167.53,-50.84 176.74,-56.08 172.81,-46.24 167.53,-50.84"/>
</g>
<!-- Node6 -->
<g id="node6" class="node">
<title>Node6</title>
<g id="a_node6"><a xlink:href="classPlayerSAO.html" target="_top" xlink:title=" ">
<polygon fill="white" stroke="black" points="197.5,-0.5 197.5,-19.5 265.5,-19.5 265.5,-0.5 197.5,-0.5"/>
<text text-anchor="middle" x="231.5" y="-7.5" font-family="Helvetica,sans-Serif" font-size="10.00">PlayerSAO</text>
</a>
</g>
</g>
<!-- Node4&#45;&gt;Node6 -->
<g id="edge5" class="edge">
<title>Node4&#45;&gt;Node6</title>
<path fill="none" stroke="midnightblue" d="M198.92,-48.43C207.16,-38.97 217.15,-27.48 223.88,-19.75"/>
<polygon fill="midnightblue" stroke="midnightblue" points="196.19,-46.24 192.26,-56.08 201.47,-50.84 196.19,-46.24"/>
</g>
</g>
</svg>
