<?xml version="1.0" encoding="UTF-8" standalone="no"?>
<!DOCTYPE svg PUBLIC "-//W3C//DTD SVG 1.1//EN"
 "http://www.w3.org/Graphics/SVG/1.1/DTD/svg11.dtd">
<!-- Generated by graphviz version 2.43.0 (0)
 -->
<!-- Title: GUIButtonItemImage Pages: 1 -->
<svg width="260pt" height="252pt"
 viewBox="0.00 0.00 259.50 252.00" xmlns="http://www.w3.org/2000/svg" xmlns:xlink="http://www.w3.org/1999/xlink">
<g id="graph0" class="graph" transform="scale(1 1) rotate(0) translate(4 248)">
<title>GUIButtonItemImage</title>
<polygon fill="white" stroke="transparent" points="-4,4 -4,-248 255.5,-248 255.5,4 -4,4"/>
<!-- Node1 -->
<g id="node1" class="node">
<title>Node1</title>
<g id="a_node1"><a xlink:title=" ">
<polygon fill="#bfbfbf" stroke="black" points="70,-0.5 70,-19.5 190,-19.5 190,-0.5 70,-0.5"/>
<text text-anchor="middle" x="130" y="-7.5" font-family="Helvetica,sans-Serif" font-size="10.00">GUIButtonItemImage</text>
</a>
</g>
</g>
<!-- Node2 -->
<g id="node2" class="node">
<title>Node2</title>
<g id="a_node2"><a xlink:href="classGUIButton.html" target="_top" xlink:title=" ">
<polygon fill="white" stroke="black" points="96.5,-56.5 96.5,-75.5 163.5,-75.5 163.5,-56.5 96.5,-56.5"/>
<text text-anchor="middle" x="130" y="-63.5" font-family="Helvetica,sans-Serif" font-size="10.00">GUIButton</text>
</a>
</g>
</g>
<!-- Node2&#45;&gt;Node1 -->
<g id="edge1" class="edge">
<title>Node2&#45;&gt;Node1</title>
<path fill="none" stroke="midnightblue" d="M130,-45.8C130,-36.91 130,-26.78 130,-19.75"/>
<polygon fill="midnightblue" stroke="midnightblue" points="126.5,-46.08 130,-56.08 133.5,-46.08 126.5,-46.08"/>
</g>
<!-- Node3 -->
<g id="node3" class="node">
<title>Node3</title>
<g id="a_node3"><a xlink:href="classirr_1_1gui_1_1IGUIButton.html" target="_top" xlink:title="GUI Button interface.">
<polygon fill="white" stroke="black" points="76.5,-112.5 76.5,-131.5 183.5,-131.5 183.5,-112.5 76.5,-112.5"/>
<text text-anchor="middle" x="130" y="-119.5" font-family="Helvetica,sans-Serif" font-size="10.00">irr::gui::IGUIButton</text>
</a>
</g>
</g>
<!-- Node3&#45;&gt;Node2 -->
<g id="edge2" class="edge">
<title>Node3&#45;&gt;Node2</title>
<path fill="none" stroke="midnightblue" d="M130,-101.8C130,-92.91 130,-82.78 130,-75.75"/>
<polygon fill="midnightblue" stroke="midnightblue" points="126.5,-102.08 130,-112.08 133.5,-102.08 126.5,-102.08"/>
</g>
<!-- Node4 -->
<g id="node4" class="node">
<title>Node4</title>
<g id="a_node4"><a xlink:href="classirr_1_1gui_1_1IGUIElement.html" target="_top" xlink:title="Base class of all GUI elements.">
<polygon fill="white" stroke="black" points="72,-168.5 72,-187.5 188,-187.5 188,-168.5 72,-168.5"/>
<text text-anchor="middle" x="130" y="-175.5" font-family="Helvetica,sans-Serif" font-size="10.00">irr::gui::IGUIElement</text>
</a>
</g>
</g>
<!-- Node4&#45;&gt;Node3 -->
<g id="edge3" class="edge">
<title>Node4&#45;&gt;Node3</title>
<path fill="none" stroke="midnightblue" d="M130,-157.8C130,-148.91 130,-138.78 130,-131.75"/>
<polygon fill="midnightblue" stroke="midnightblue" points="126.5,-158.08 130,-168.08 133.5,-158.08 126.5,-158.08"/>
</g>
<!-- Node5 -->
<g id="node5" class="node">
<title>Node5</title>
<g id="a_node5"><a xlink:href="classirr_1_1IReferenceCounted.html" target="_top" xlink:title="Base class of most objects of the Irrlicht Engine.">
<polygon fill="white" stroke="black" points="0,-224.5 0,-243.5 126,-243.5 126,-224.5 0,-224.5"/>
<text text-anchor="middle" x="63" y="-231.5" font-family="Helvetica,sans-Serif" font-size="10.00">irr::IReferenceCounted</text>
</a>
</g>
</g>
<!-- Node5&#45;&gt;Node4 -->
<g id="edge4" class="edge">
<title>Node5&#45;&gt;Node4</title>
<path fill="none" stroke="midnightblue" d="M81.83,-217.82C93.84,-208.15 108.97,-195.95 119.04,-187.83"/>
<polygon fill="midnightblue" stroke="midnightblue" points="79.35,-215.32 73.76,-224.32 83.75,-220.77 79.35,-215.32"/>
</g>
<!-- Node6 -->
<g id="node6" class="node">
<title>Node6</title>
<g id="a_node6"><a xlink:href="classirr_1_1IEventReceiver.html" target="_top" xlink:title="Interface of an object which can receive events.">
<polygon fill="white" stroke="black" points="144.5,-224.5 144.5,-243.5 251.5,-243.5 251.5,-224.5 144.5,-224.5"/>
<text text-anchor="middle" x="198" y="-231.5" font-family="Helvetica,sans-Serif" font-size="10.00">irr::IEventReceiver</text>
</a>
</g>
</g>
<!-- Node6&#45;&gt;Node4 -->
<g id="edge5" class="edge">
<title>Node6&#45;&gt;Node4</title>
<path fill="none" stroke="midnightblue" d="M179.24,-218.1C167,-208.38 151.44,-196.03 141.12,-187.83"/>
<polygon fill="midnightblue" stroke="midnightblue" points="177.07,-220.85 187.07,-224.32 181.42,-215.36 177.07,-220.85"/>
</g>
</g>
</svg>
