<?xml version="1.0" encoding="UTF-8" standalone="no"?>
<!DOCTYPE svg PUBLIC "-//W3C//DTD SVG 1.1//EN"
 "http://www.w3.org/Graphics/SVG/1.1/DTD/svg11.dtd">
<!-- Generated by graphviz version 2.43.0 (0)
 -->
<!-- Title: Draw3D Pages: 1 -->
<svg width="208pt" height="162pt"
 viewBox="0.00 0.00 208.00 162.00" xmlns="http://www.w3.org/2000/svg" xmlns:xlink="http://www.w3.org/1999/xlink">
<g id="graph0" class="graph" transform="scale(1 1) rotate(0) translate(4 158)">
<title>Draw3D</title>
<polygon fill="white" stroke="transparent" points="-4,4 -4,-158 204,-158 204,4 -4,4"/>
<!-- Node1 -->
<g id="node1" class="node">
<title>Node1</title>
<g id="a_node1"><a xlink:title=" ">
<polygon fill="#bfbfbf" stroke="black" points="80,-0.5 80,-19.5 136,-19.5 136,-0.5 80,-0.5"/>
<text text-anchor="middle" x="108" y="-7.5" font-family="Helvetica,sans-Serif" font-size="10.00">Draw3D</text>
</a>
</g>
</g>
<!-- Node2 -->
<g id="node2" class="node">
<title>Node2</title>
<g id="a_node2"><a xlink:href="classRenderStep.html" target="_top" xlink:title=" ">
<polygon fill="white" stroke="black" points="24.5,-67.5 24.5,-86.5 97.5,-86.5 97.5,-67.5 24.5,-67.5"/>
<text text-anchor="middle" x="61" y="-74.5" font-family="Helvetica,sans-Serif" font-size="10.00">RenderStep</text>
</a>
</g>
</g>
<!-- Node2&#45;&gt;Node1 -->
<g id="edge1" class="edge">
<title>Node2&#45;&gt;Node1</title>
<path fill="none" stroke="midnightblue" d="M73.36,-58.9C82.49,-46.27 94.55,-29.6 101.76,-19.63"/>
<polygon fill="midnightblue" stroke="midnightblue" points="70.36,-57.08 67.34,-67.23 76.03,-61.18 70.36,-57.08"/>
</g>
<!-- Node3 -->
<g id="node3" class="node">
<title>Node3</title>
<g id="a_node3"><a xlink:href="classRenderPipelineObject.html" target="_top" xlink:title=" ">
<polygon fill="white" stroke="black" points="0,-134.5 0,-153.5 122,-153.5 122,-134.5 0,-134.5"/>
<text text-anchor="middle" x="61" y="-141.5" font-family="Helvetica,sans-Serif" font-size="10.00">RenderPipelineObject</text>
</a>
</g>
</g>
<!-- Node3&#45;&gt;Node2 -->
<g id="edge2" class="edge">
<title>Node3&#45;&gt;Node2</title>
<path fill="none" stroke="midnightblue" d="M61,-124.04C61,-111.67 61,-96.12 61,-86.63"/>
<polygon fill="midnightblue" stroke="midnightblue" points="57.5,-124.23 61,-134.23 64.5,-124.23 57.5,-124.23"/>
</g>
<!-- Node4 -->
<g id="node4" class="node">
<title>Node4</title>
<g id="a_node4"><a xlink:href="classRenderTarget.html" target="_top" xlink:title=" ">
<polygon fill="white" stroke="black" points="115.5,-67.5 115.5,-86.5 196.5,-86.5 196.5,-67.5 115.5,-67.5"/>
<text text-anchor="middle" x="156" y="-74.5" font-family="Helvetica,sans-Serif" font-size="10.00">RenderTarget</text>
</a>
</g>
</g>
<!-- Node3&#45;&gt;Node4 -->
<g id="edge4" class="edge">
<title>Node3&#45;&gt;Node4</title>
<path fill="none" stroke="midnightblue" d="M82.31,-128.42C101.09,-115.57 127.82,-97.28 143.39,-86.63"/>
<polygon fill="midnightblue" stroke="midnightblue" points="80.09,-125.7 73.81,-134.23 84.04,-131.48 80.09,-125.7"/>
</g>
<!-- Node4&#45;&gt;Node1 -->
<g id="edge3" class="edge">
<title>Node4&#45;&gt;Node1</title>
<path fill="none" stroke="#9a32cd" stroke-dasharray="5,2" d="M143.38,-58.9C134.05,-46.27 121.74,-29.6 114.37,-19.63"/>
<polygon fill="#9a32cd" stroke="#9a32cd" points="140.77,-61.27 149.53,-67.23 146.4,-57.11 140.77,-61.27"/>
<text text-anchor="middle" x="158" y="-41" font-family="Helvetica,sans-Serif" font-size="10.00"> m_target</text>
</g>
<!-- Node5 -->
<g id="node5" class="node">
<title>Node5</title>
<g id="a_node5"><a xlink:href="classbool.html" target="_top" xlink:title=" ">
<polygon fill="white" stroke="black" points="140,-134.5 140,-153.5 178,-153.5 178,-134.5 140,-134.5"/>
<text text-anchor="middle" x="159" y="-141.5" font-family="Helvetica,sans-Serif" font-size="10.00">bool</text>
</a>
</g>
</g>
<!-- Node5&#45;&gt;Node4 -->
<g id="edge5" class="edge">
<title>Node5&#45;&gt;Node4</title>
<path fill="none" stroke="#9a32cd" stroke-dasharray="5,2" d="M158.12,-124.04C157.55,-111.67 156.84,-96.12 156.4,-86.63"/>
<polygon fill="#9a32cd" stroke="#9a32cd" points="154.64,-124.41 158.6,-134.23 161.63,-124.08 154.64,-124.41"/>
<text text-anchor="middle" x="178.5" y="-108" font-family="Helvetica,sans-Serif" font-size="10.00"> m_clear</text>
</g>
</g>
</svg>
