<?xml version="1.0" encoding="UTF-8" standalone="no"?>
<!DOCTYPE svg PUBLIC "-//W3C//DTD SVG 1.1//EN"
 "http://www.w3.org/Graphics/SVG/1.1/DTD/svg11.dtd">
<!-- Generated by graphviz version 2.43.0 (0)
 -->
<!-- Title: MapDatabaseSQLite3 Pages: 1 -->
<svg width="610pt" height="187pt"
 viewBox="0.00 0.00 610.00 187.00" xmlns="http://www.w3.org/2000/svg" xmlns:xlink="http://www.w3.org/1999/xlink">
<g id="graph0" class="graph" transform="scale(1 1) rotate(0) translate(4 183)">
<title>MapDatabaseSQLite3</title>
<polygon fill="white" stroke="transparent" points="-4,4 -4,-183 606,-183 606,4 -4,4"/>
<!-- Node1 -->
<g id="node1" class="node">
<title>Node1</title>
<g id="a_node1"><a xlink:title=" ">
<polygon fill="#bfbfbf" stroke="black" points="59,-0.5 59,-19.5 181,-19.5 181,-0.5 59,-0.5"/>
<text text-anchor="middle" x="120" y="-7.5" font-family="Helvetica,sans-Serif" font-size="10.00">MapDatabaseSQLite3</text>
</a>
</g>
</g>
<!-- Node2 -->
<g id="node2" class="node">
<title>Node2</title>
<g id="a_node2"><a xlink:href="classDatabase__SQLite3.html" target="_top" xlink:title=" ">
<polygon fill="white" stroke="black" points="212,-69.5 212,-88.5 318,-88.5 318,-69.5 212,-69.5"/>
<text text-anchor="middle" x="265" y="-76.5" font-family="Helvetica,sans-Serif" font-size="10.00">Database_SQLite3</text>
</a>
</g>
</g>
<!-- Node2&#45;&gt;Node1 -->
<g id="edge1" class="edge">
<title>Node2&#45;&gt;Node1</title>
<path fill="none" stroke="#8b1a1a" d="M237.16,-65.13C208.16,-51.74 163.56,-31.13 138.59,-19.59"/>
<polygon fill="#8b1a1a" stroke="#8b1a1a" points="235.79,-68.36 246.34,-69.38 238.73,-62.01 235.79,-68.36"/>
</g>
<!-- Node3 -->
<g id="node3" class="node">
<title>Node3</title>
<g id="a_node3"><a xlink:href="classDatabase.html" target="_top" xlink:title=" ">
<polygon fill="white" stroke="black" points="22.5,-159.5 22.5,-178.5 85.5,-178.5 85.5,-159.5 22.5,-159.5"/>
<text text-anchor="middle" x="54" y="-166.5" font-family="Helvetica,sans-Serif" font-size="10.00">Database</text>
</a>
</g>
</g>
<!-- Node3&#45;&gt;Node2 -->
<g id="edge2" class="edge">
<title>Node3&#45;&gt;Node2</title>
<path fill="none" stroke="midnightblue" d="M79.06,-154.7C99.06,-144.33 127.95,-129.91 154,-119 182.07,-107.24 215.07,-95.96 237.75,-88.58"/>
<polygon fill="midnightblue" stroke="midnightblue" points="77.25,-151.69 70.01,-159.43 80.49,-157.9 77.25,-151.69"/>
</g>
<!-- Node9 -->
<g id="node9" class="node">
<title>Node9</title>
<g id="a_node9"><a xlink:href="classMapDatabase.html" target="_top" xlink:title=" ">
<polygon fill="white" stroke="black" points="0,-69.5 0,-88.5 84,-88.5 84,-69.5 0,-69.5"/>
<text text-anchor="middle" x="42" y="-76.5" font-family="Helvetica,sans-Serif" font-size="10.00">MapDatabase</text>
</a>
</g>
</g>
<!-- Node3&#45;&gt;Node9 -->
<g id="edge9" class="edge">
<title>Node3&#45;&gt;Node9</title>
<path fill="none" stroke="midnightblue" d="M51.44,-149.24C48.9,-130.57 45.1,-102.74 43.19,-88.72"/>
<polygon fill="midnightblue" stroke="midnightblue" points="47.99,-149.81 52.81,-159.24 54.92,-148.86 47.99,-149.81"/>
</g>
<!-- Node4 -->
<g id="node4" class="node">
<title>Node4</title>
<g id="a_node4"><a xlink:title=" ">
<polygon fill="white" stroke="#bfbfbf" points="108,-159.5 108,-178.5 194,-178.5 194,-159.5 108,-159.5"/>
<text text-anchor="middle" x="151" y="-166.5" font-family="Helvetica,sans-Serif" font-size="10.00">sqlite3_stmt *</text>
</a>
</g>
</g>
<!-- Node4&#45;&gt;Node1 -->
<g id="edge10" class="edge">
<title>Node4&#45;&gt;Node1</title>
<path fill="none" stroke="#9a32cd" stroke-dasharray="5,2" d="M143.94,-150.1C138.98,-136.77 132.6,-118.01 129,-101 122.76,-71.5 120.82,-35.63 120.24,-19.53"/>
<polygon fill="#9a32cd" stroke="#9a32cd" points="140.69,-151.41 147.54,-159.49 147.23,-148.9 140.69,-151.41"/>
<text text-anchor="middle" x="166" y="-93" font-family="Helvetica,sans-Serif" font-size="10.00"> m_stmt_write</text>
<text text-anchor="middle" x="166" y="-82" font-family="Helvetica,sans-Serif" font-size="10.00">m_stmt_list</text>
<text text-anchor="middle" x="166" y="-71" font-family="Helvetica,sans-Serif" font-size="10.00">m_stmt_read</text>
<text text-anchor="middle" x="166" y="-60" font-family="Helvetica,sans-Serif" font-size="10.00">m_stmt_delete</text>
</g>
<!-- Node4&#45;&gt;Node2 -->
<g id="edge3" class="edge">
<title>Node4&#45;&gt;Node2</title>
<path fill="none" stroke="#9a32cd" stroke-dasharray="5,2" d="M154.9,-149.35C157.84,-139.27 162.82,-127.23 171,-119 180.78,-109.16 213.92,-96.72 238.09,-88.57"/>
<polygon fill="#9a32cd" stroke="#9a32cd" points="151.45,-148.71 152.45,-159.26 158.25,-150.39 151.45,-148.71"/>
<text text-anchor="middle" x="206" y="-133" font-family="Helvetica,sans-Serif" font-size="10.00"> m_stmt_end</text>
<text text-anchor="middle" x="206" y="-122" font-family="Helvetica,sans-Serif" font-size="10.00">m_stmt_begin</text>
</g>
<!-- Node5 -->
<g id="node5" class="node">
<title>Node5</title>
<g id="a_node5"><a xlink:title=" ">
<polygon fill="white" stroke="#bfbfbf" points="221,-159.5 221,-178.5 271,-178.5 271,-159.5 221,-159.5"/>
<text text-anchor="middle" x="246" y="-166.5" font-family="Helvetica,sans-Serif" font-size="10.00">sqlite3</text>
</a>
</g>
</g>
<!-- Node5&#45;&gt;Node2 -->
<g id="edge4" class="edge">
<title>Node5&#45;&gt;Node2</title>
<path fill="none" stroke="#9a32cd" stroke-dasharray="5,2" d="M244.59,-149.17C244.36,-139.96 244.75,-128.79 247,-119 249.54,-107.95 255.41,-96.28 259.76,-88.61"/>
<polygon fill="#9a32cd" stroke="#9a32cd" points="241.1,-149.39 245.11,-159.19 248.09,-149.03 241.1,-149.39"/>
<text text-anchor="middle" x="279" y="-127.5" font-family="Helvetica,sans-Serif" font-size="10.00"> m_database</text>
</g>
<!-- Node6 -->
<g id="node6" class="node">
<title>Node6</title>
<g id="a_node6"><a xlink:title=" ">
<polygon fill="white" stroke="#bfbfbf" points="311,-159.5 311,-178.5 355,-178.5 355,-159.5 311,-159.5"/>
<text text-anchor="middle" x="333" y="-166.5" font-family="Helvetica,sans-Serif" font-size="10.00">string</text>
</a>
</g>
</g>
<!-- Node6&#45;&gt;Node2 -->
<g id="edge5" class="edge">
<title>Node6&#45;&gt;Node2</title>
<path fill="none" stroke="#9a32cd" stroke-dasharray="5,2" d="M327.1,-149.92C323.4,-140.19 318,-128.3 311,-119 301.81,-106.78 288.14,-95.82 278.09,-88.65"/>
<polygon fill="#9a32cd" stroke="#9a32cd" points="323.82,-151.15 330.45,-159.42 330.43,-148.82 323.82,-151.15"/>
<text text-anchor="middle" x="353" y="-133" font-family="Helvetica,sans-Serif" font-size="10.00"> m_dbname</text>
<text text-anchor="middle" x="353" y="-122" font-family="Helvetica,sans-Serif" font-size="10.00">m_savedir</text>
</g>
<!-- Node7 -->
<g id="node7" class="node">
<title>Node7</title>
<g id="a_node7"><a xlink:href="classbool.html" target="_top" xlink:title=" ">
<polygon fill="white" stroke="black" points="395,-159.5 395,-178.5 433,-178.5 433,-159.5 395,-159.5"/>
<text text-anchor="middle" x="414" y="-166.5" font-family="Helvetica,sans-Serif" font-size="10.00">bool</text>
</a>
</g>
</g>
<!-- Node7&#45;&gt;Node2 -->
<g id="edge6" class="edge">
<title>Node7&#45;&gt;Node2</title>
<path fill="none" stroke="#9a32cd" stroke-dasharray="5,2" d="M407.57,-150.03C403.01,-139.63 395.93,-127.06 386,-119 366.72,-103.35 341.02,-93.93 318.26,-88.28"/>
<polygon fill="#9a32cd" stroke="#9a32cd" points="404.36,-151.44 411.3,-159.45 410.87,-148.86 404.36,-151.44"/>
<text text-anchor="middle" x="435.5" y="-127.5" font-family="Helvetica,sans-Serif" font-size="10.00"> m_initialized</text>
</g>
<!-- Node8 -->
<g id="node8" class="node">
<title>Node8</title>
<g id="a_node8"><a xlink:title=" ">
<polygon fill="white" stroke="#bfbfbf" points="487,-159.5 487,-178.5 521,-178.5 521,-159.5 487,-159.5"/>
<text text-anchor="middle" x="504" y="-166.5" font-family="Helvetica,sans-Serif" font-size="10.00">s64</text>
</a>
</g>
</g>
<!-- Node8&#45;&gt;Node2 -->
<g id="edge7" class="edge">
<title>Node8&#45;&gt;Node2</title>
<path fill="none" stroke="#9a32cd" stroke-dasharray="5,2" d="M496.95,-149.86C491.88,-139.23 483.98,-126.45 473,-119 448.3,-102.24 371.15,-91.04 318.08,-85.1"/>
<polygon fill="#9a32cd" stroke="#9a32cd" points="493.79,-151.37 500.96,-159.16 500.21,-148.6 493.79,-151.37"/>
<text text-anchor="middle" x="546.5" y="-127.5" font-family="Helvetica,sans-Serif" font-size="10.00"> m_busy_handler_data</text>
</g>
<!-- Node9&#45;&gt;Node1 -->
<g id="edge8" class="edge">
<title>Node9&#45;&gt;Node1</title>
<path fill="none" stroke="midnightblue" d="M60.09,-62.46C75.64,-49.11 97.48,-30.34 110.05,-19.55"/>
<polygon fill="midnightblue" stroke="midnightblue" points="57.5,-60.07 52.2,-69.24 62.06,-65.38 57.5,-60.07"/>
</g>
</g>
</svg>
