<?xml version="1.0" encoding="UTF-8" standalone="no"?>
<!DOCTYPE svg PUBLIC "-//W3C//DTD SVG 1.1//EN"
 "http://www.w3.org/Graphics/SVG/1.1/DTD/svg11.dtd">
<!-- Generated by graphviz version 2.43.0 (0)
 -->
<!-- Title: irr::scene::ICameraSceneNode Pages: 1 -->
<svg width="1093pt" height="506pt"
 viewBox="0.00 0.00 1093.00 506.00" xmlns="http://www.w3.org/2000/svg" xmlns:xlink="http://www.w3.org/1999/xlink">
<g id="graph0" class="graph" transform="scale(1 1) rotate(0) translate(4 502)">
<title>irr::scene::ICameraSceneNode</title>
<polygon fill="white" stroke="transparent" points="-4,4 -4,-502 1089,-502 1089,4 -4,4"/>
<!-- Node1 -->
<g id="node1" class="node">
<title>Node1</title>
<g id="a_node1"><a xlink:title="Scene Node which is a (controllable) camera.">
<polygon fill="#bfbfbf" stroke="black" points="921,-46.5 921,-65.5 1085,-65.5 1085,-46.5 921,-46.5"/>
<text text-anchor="middle" x="1003" y="-53.5" font-family="Helvetica,sans-Serif" font-size="10.00">irr::scene::ICameraSceneNode</text>
</a>
</g>
</g>
<!-- Node2 -->
<g id="node2" class="node">
<title>Node2</title>
<g id="a_node2"><a xlink:href="classirr_1_1scene_1_1ISceneNode.html" target="_top" xlink:title="Scene node interface.">
<polygon fill="white" stroke="black" points="759,-231.5 759,-250.5 884,-250.5 884,-231.5 759,-231.5"/>
<text text-anchor="middle" x="821.5" y="-238.5" font-family="Helvetica,sans-Serif" font-size="10.00">irr::scene::ISceneNode</text>
</a>
</g>
</g>
<!-- Node2&#45;&gt;Node1 -->
<g id="edge1" class="edge">
<title>Node2&#45;&gt;Node1</title>
<path fill="none" stroke="midnightblue" d="M838.94,-224.06C875.75,-186.12 963.86,-95.3 992.7,-65.59"/>
<polygon fill="midnightblue" stroke="midnightblue" points="836.35,-221.7 831.9,-231.31 841.37,-226.57 836.35,-221.7"/>
</g>
<!-- Node2&#45;&gt;Node2 -->
<g id="edge25" class="edge">
<title>Node2&#45;&gt;Node2</title>
<path fill="none" stroke="#9a32cd" stroke-dasharray="5,2" d="M806.77,-260.77C807.92,-265.5 812.84,-269 821.5,-269 835.72,-269 839.83,-259.57 833.83,-250.76"/>
<polygon fill="#9a32cd" stroke="#9a32cd" points="810.24,-261.3 809.17,-250.76 803.43,-259.66 810.24,-261.3"/>
<text text-anchor="middle" x="821.5" y="-272" font-family="Helvetica,sans-Serif" font-size="10.00"> Parent</text>
</g>
<!-- Node3 -->
<g id="node3" class="node">
<title>Node3</title>
<g id="a_node3"><a xlink:href="classirr_1_1IReferenceCounted.html" target="_top" xlink:title="Base class of most objects of the Irrlicht Engine.">
<polygon fill="white" stroke="black" points="252.5,-349.5 252.5,-368.5 378.5,-368.5 378.5,-349.5 252.5,-349.5"/>
<text text-anchor="middle" x="315.5" y="-356.5" font-family="Helvetica,sans-Serif" font-size="10.00">irr::IReferenceCounted</text>
</a>
</g>
</g>
<!-- Node3&#45;&gt;Node2 -->
<g id="edge2" class="edge">
<title>Node3&#45;&gt;Node2</title>
<path fill="none" stroke="midnightblue" d="M389.06,-368.31C494.16,-380.4 682.58,-396.35 741,-364 786.6,-338.75 810.15,-275.06 817.72,-250.69"/>
<polygon fill="midnightblue" stroke="midnightblue" points="389.18,-364.8 378.84,-367.12 388.37,-371.76 389.18,-364.8"/>
</g>
<!-- Node20 -->
<g id="node20" class="node">
<title>Node20</title>
<g id="a_node20"><a xlink:href="classirr_1_1scene_1_1ISceneManager.html" target="_top" xlink:title="The Scene Manager manages scene nodes, mesh resources, cameras and all the other stuff.">
<polygon fill="white" stroke="black" points="460,-337.5 460,-356.5 603,-356.5 603,-337.5 460,-337.5"/>
<text text-anchor="middle" x="531.5" y="-344.5" font-family="Helvetica,sans-Serif" font-size="10.00">irr::scene::ISceneManager</text>
</a>
</g>
</g>
<!-- Node3&#45;&gt;Node20 -->
<g id="edge24" class="edge">
<title>Node3&#45;&gt;Node20</title>
<path fill="none" stroke="midnightblue" d="M388.71,-354.95C411.67,-353.66 437.03,-352.24 459.88,-350.96"/>
<polygon fill="midnightblue" stroke="midnightblue" points="388.47,-351.46 378.69,-355.51 388.87,-358.45 388.47,-351.46"/>
</g>
<!-- Node4 -->
<g id="node4" class="node">
<title>Node4</title>
<g id="a_node4"><a xlink:title=" ">
<polygon fill="white" stroke="#bfbfbf" points="42,-366.5 42,-385.5 80,-385.5 80,-366.5 42,-366.5"/>
<text text-anchor="middle" x="61" y="-373.5" font-family="Helvetica,sans-Serif" font-size="10.00">char</text>
</a>
</g>
</g>
<!-- Node4&#45;&gt;Node3 -->
<g id="edge3" class="edge">
<title>Node4&#45;&gt;Node3</title>
<path fill="none" stroke="#9a32cd" stroke-dasharray="5,2" d="M90.26,-374.1C129.26,-371.47 200.63,-366.67 252.4,-363.18"/>
<polygon fill="#9a32cd" stroke="#9a32cd" points="89.9,-370.61 80.16,-374.78 90.37,-377.6 89.9,-370.61"/>
<text text-anchor="middle" x="185.5" y="-373" font-family="Helvetica,sans-Serif" font-size="10.00"> DebugName</text>
</g>
<!-- Node5 -->
<g id="node5" class="node">
<title>Node5</title>
<g id="a_node5"><a xlink:title=" ">
<polygon fill="white" stroke="#bfbfbf" points="36,-314.5 36,-333.5 86,-333.5 86,-314.5 36,-314.5"/>
<text text-anchor="middle" x="61" y="-321.5" font-family="Helvetica,sans-Serif" font-size="10.00">int32_t</text>
</a>
</g>
</g>
<!-- Node5&#45;&gt;Node2 -->
<g id="edge14" class="edge">
<title>Node5&#45;&gt;Node2</title>
<path fill="none" stroke="#9a32cd" stroke-dasharray="5,2" d="M96.21,-322.65C181.77,-319.09 411.88,-308.45 603,-290 664.57,-284.06 681.08,-287.35 741,-272 761.67,-266.71 784.24,-257.56 800.03,-250.57"/>
<polygon fill="#9a32cd" stroke="#9a32cd" points="95.89,-319.16 86.04,-323.06 96.18,-326.15 95.89,-319.16"/>
<text text-anchor="middle" x="421" y="-309" font-family="Helvetica,sans-Serif" font-size="10.00"> ID</text>
</g>
<!-- Node5&#45;&gt;Node3 -->
<g id="edge4" class="edge">
<title>Node5&#45;&gt;Node3</title>
<path fill="none" stroke="#9a32cd" stroke-dasharray="5,2" d="M96.24,-328.75C136.19,-334.28 203.03,-343.55 252.24,-350.37"/>
<polygon fill="#9a32cd" stroke="#9a32cd" points="96.6,-325.26 86.21,-327.36 95.64,-332.2 96.6,-325.26"/>
<text text-anchor="middle" x="185.5" y="-349" font-family="Helvetica,sans-Serif" font-size="10.00"> ReferenceCounter</text>
</g>
<!-- Node6 -->
<g id="node6" class="node">
<title>Node6</title>
<g id="a_node6"><a xlink:href="classirr_1_1core_1_1vector3d.html" target="_top" xlink:title=" ">
<polygon fill="white" stroke="black" points="480,-201 480,-231 583,-231 583,-201 480,-201"/>
<text text-anchor="start" x="488" y="-219" font-family="Helvetica,sans-Serif" font-size="10.00">irr::core::vector3d</text>
<text text-anchor="middle" x="531.5" y="-208" font-family="Helvetica,sans-Serif" font-size="10.00">&lt; f32 &gt;</text>
</a>
</g>
</g>
<!-- Node6&#45;&gt;Node2 -->
<g id="edge5" class="edge">
<title>Node6&#45;&gt;Node2</title>
<path fill="none" stroke="#9a32cd" stroke-dasharray="5,2" d="M593.12,-208.09C635,-204.19 691.8,-202.03 741,-211 762.33,-214.89 785.38,-224.21 801.14,-231.43"/>
<polygon fill="#9a32cd" stroke="#9a32cd" points="592.69,-204.61 583.08,-209.08 593.38,-211.58 592.69,-204.61"/>
<text text-anchor="middle" x="681" y="-236" font-family="Helvetica,sans-Serif" font-size="10.00"> RelativeScale</text>
<text text-anchor="middle" x="681" y="-225" font-family="Helvetica,sans-Serif" font-size="10.00">RelativeRotation</text>
<text text-anchor="middle" x="681" y="-214" font-family="Helvetica,sans-Serif" font-size="10.00">RelativeTranslation</text>
</g>
<!-- Node7 -->
<g id="node7" class="node">
<title>Node7</title>
<g id="a_node7"><a xlink:title=" ">
<polygon fill="white" stroke="#bfbfbf" points="296.5,-188.5 296.5,-207.5 334.5,-207.5 334.5,-188.5 296.5,-188.5"/>
<text text-anchor="middle" x="315.5" y="-195.5" font-family="Helvetica,sans-Serif" font-size="10.00">float</text>
</a>
</g>
</g>
<!-- Node7&#45;&gt;Node6 -->
<g id="edge6" class="edge">
<title>Node7&#45;&gt;Node6</title>
<path fill="none" stroke="#9a32cd" stroke-dasharray="5,2" d="M344.99,-200.4C379.27,-203.28 437.47,-208.18 479.56,-211.71"/>
<polygon fill="#9a32cd" stroke="#9a32cd" points="345,-196.89 334.75,-199.53 344.42,-203.86 345,-196.89"/>
<text text-anchor="middle" x="421" y="-233" font-family="Helvetica,sans-Serif" font-size="10.00"> X</text>
<text text-anchor="middle" x="421" y="-222" font-family="Helvetica,sans-Serif" font-size="10.00">Y</text>
<text text-anchor="middle" x="421" y="-211" font-family="Helvetica,sans-Serif" font-size="10.00">Z</text>
</g>
<!-- Node11 -->
<g id="node11" class="node">
<title>Node11</title>
<g id="a_node11"><a xlink:href="classirr_1_1core_1_1CMatrix4.html" target="_top" xlink:title=" ">
<polygon fill="white" stroke="black" points="479.5,-152 479.5,-182 583.5,-182 583.5,-152 479.5,-152"/>
<text text-anchor="start" x="487.5" y="-170" font-family="Helvetica,sans-Serif" font-size="10.00">irr::core::CMatrix4</text>
<text text-anchor="middle" x="531.5" y="-159" font-family="Helvetica,sans-Serif" font-size="10.00">&lt; f32 &gt;</text>
</a>
</g>
</g>
<!-- Node7&#45;&gt;Node11 -->
<g id="edge11" class="edge">
<title>Node7&#45;&gt;Node11</title>
<path fill="none" stroke="#9a32cd" stroke-dasharray="5,2" d="M344.95,-193.88C379.11,-188.93 437.05,-180.54 479.11,-174.44"/>
<polygon fill="#9a32cd" stroke="#9a32cd" points="344.14,-190.46 334.75,-195.36 345.14,-197.39 344.14,-190.46"/>
<text text-anchor="middle" x="421" y="-188" font-family="Helvetica,sans-Serif" font-size="10.00"> M</text>
</g>
<!-- Node8 -->
<g id="node8" class="node">
<title>Node8</title>
<g id="a_node8"><a xlink:href="classirr_1_1core_1_1vector3d.html" target="_top" xlink:title="3d vector template class with lots of operators and methods.">
<polygon fill="white" stroke="black" points="250,-256.5 250,-275.5 381,-275.5 381,-256.5 250,-256.5"/>
<text text-anchor="middle" x="315.5" y="-263.5" font-family="Helvetica,sans-Serif" font-size="10.00">irr::core::vector3d&lt; T &gt;</text>
</a>
</g>
</g>
<!-- Node8&#45;&gt;Node6 -->
<g id="edge7" class="edge">
<title>Node8&#45;&gt;Node6</title>
<path fill="none" stroke="orange" stroke-dasharray="5,2" d="M391.35,-255.38C408.12,-252.47 425.75,-249 442,-245 457.54,-241.18 474.3,-235.97 489.01,-231.03"/>
<polygon fill="orange" stroke="orange" points="390.33,-252 381.05,-257.11 391.49,-258.9 390.33,-252"/>
<text text-anchor="middle" x="421" y="-256" font-family="Helvetica,sans-Serif" font-size="10.00"> &lt; f32 &gt;</text>
</g>
<!-- Node9 -->
<g id="node9" class="node">
<title>Node9</title>
<g id="a_node9"><a xlink:title=" ">
<polygon fill="white" stroke="#bfbfbf" points="46.5,-216.5 46.5,-235.5 75.5,-235.5 75.5,-216.5 46.5,-216.5"/>
<text text-anchor="middle" x="61" y="-223.5" font-family="Helvetica,sans-Serif" font-size="10.00">T</text>
</a>
</g>
</g>
<!-- Node9&#45;&gt;Node8 -->
<g id="edge8" class="edge">
<title>Node9&#45;&gt;Node8</title>
<path fill="none" stroke="#9a32cd" stroke-dasharray="5,2" d="M85.73,-229.76C123.97,-235.82 200.42,-247.93 254.39,-256.48"/>
<polygon fill="#9a32cd" stroke="#9a32cd" points="86,-226.26 75.58,-228.15 84.9,-233.17 86,-226.26"/>
<text text-anchor="middle" x="185.5" y="-276" font-family="Helvetica,sans-Serif" font-size="10.00"> X</text>
<text text-anchor="middle" x="185.5" y="-265" font-family="Helvetica,sans-Serif" font-size="10.00">Y</text>
<text text-anchor="middle" x="185.5" y="-254" font-family="Helvetica,sans-Serif" font-size="10.00">Z</text>
</g>
<!-- Node12 -->
<g id="node12" class="node">
<title>Node12</title>
<g id="a_node12"><a xlink:href="classirr_1_1core_1_1CMatrix4.html" target="_top" xlink:title="4x4 matrix. Mostly used as transformation matrix for 3d calculations.">
<polygon fill="white" stroke="black" points="249,-143.5 249,-162.5 382,-162.5 382,-143.5 249,-143.5"/>
<text text-anchor="middle" x="315.5" y="-150.5" font-family="Helvetica,sans-Serif" font-size="10.00">irr::core::CMatrix4&lt; T &gt;</text>
</a>
</g>
</g>
<!-- Node9&#45;&gt;Node12 -->
<g id="edge13" class="edge">
<title>Node9&#45;&gt;Node12</title>
<path fill="none" stroke="#9a32cd" stroke-dasharray="5,2" d="M85.32,-219.26C130.41,-206.22 229.64,-177.53 281.48,-162.55"/>
<polygon fill="#9a32cd" stroke="#9a32cd" points="84.21,-215.94 75.58,-222.08 86.15,-222.66 84.21,-215.94"/>
<text text-anchor="middle" x="185.5" y="-205" font-family="Helvetica,sans-Serif" font-size="10.00"> M</text>
</g>
<!-- Node10 -->
<g id="node10" class="node">
<title>Node10</title>
<g id="a_node10"><a xlink:title=" ">
<polygon fill="white" stroke="#bfbfbf" points="468.5,-250 468.5,-280 594.5,-280 594.5,-250 468.5,-250"/>
<text text-anchor="start" x="476.5" y="-268" font-family="Helvetica,sans-Serif" font-size="10.00">list&lt; irr::scene::IScene</text>
<text text-anchor="middle" x="531.5" y="-257" font-family="Helvetica,sans-Serif" font-size="10.00">Node * &gt;</text>
</a>
</g>
</g>
<!-- Node10&#45;&gt;Node2 -->
<g id="edge9" class="edge">
<title>Node10&#45;&gt;Node2</title>
<path fill="none" stroke="#9a32cd" stroke-dasharray="5,2" d="M604.86,-258.97C652.36,-255.01 713.82,-249.89 758.97,-246.13"/>
<polygon fill="#9a32cd" stroke="#9a32cd" points="604.31,-255.5 594.64,-259.82 604.89,-262.48 604.31,-255.5"/>
<text text-anchor="middle" x="681" y="-260" font-family="Helvetica,sans-Serif" font-size="10.00"> Children</text>
</g>
<!-- Node11&#45;&gt;Node2 -->
<g id="edge10" class="edge">
<title>Node11&#45;&gt;Node2</title>
<path fill="none" stroke="#9a32cd" stroke-dasharray="5,2" d="M593.87,-165.96C636.32,-167.03 693.48,-172.08 741,-189 768.03,-198.63 795.05,-219.19 809.58,-231.38"/>
<polygon fill="#9a32cd" stroke="#9a32cd" points="593.75,-162.45 583.68,-165.77 593.62,-169.45 593.75,-162.45"/>
<text text-anchor="middle" x="681" y="-192" font-family="Helvetica,sans-Serif" font-size="10.00"> AbsoluteTransformation</text>
</g>
<!-- Node12&#45;&gt;Node11 -->
<g id="edge12" class="edge">
<title>Node12&#45;&gt;Node11</title>
<path fill="none" stroke="orange" stroke-dasharray="5,2" d="M392.21,-144.57C408.65,-143.92 425.94,-144.12 442,-146 454.23,-147.43 467.23,-149.94 479.38,-152.74"/>
<polygon fill="orange" stroke="orange" points="391.9,-141.08 382.09,-145.09 392.26,-148.08 391.9,-141.08"/>
<text text-anchor="middle" x="421" y="-149" font-family="Helvetica,sans-Serif" font-size="10.00"> &lt; f32 &gt;</text>
</g>
<!-- Node13 -->
<g id="node13" class="node">
<title>Node13</title>
<g id="a_node13"><a xlink:href="classirr_1_1core_1_1string.html" target="_top" xlink:title=" ">
<polygon fill="white" stroke="black" points="470.5,-426.5 470.5,-445.5 592.5,-445.5 592.5,-426.5 470.5,-426.5"/>
<text text-anchor="middle" x="531.5" y="-433.5" font-family="Helvetica,sans-Serif" font-size="10.00">irr::core::string&lt; c8 &gt;</text>
</a>
</g>
</g>
<!-- Node13&#45;&gt;Node2 -->
<g id="edge15" class="edge">
<title>Node13&#45;&gt;Node2</title>
<path fill="none" stroke="#9a32cd" stroke-dasharray="5,2" d="M603.18,-438.82C646.78,-437.09 701.69,-428.27 741,-399 792.72,-360.48 813.08,-278.84 818.73,-250.74"/>
<polygon fill="#9a32cd" stroke="#9a32cd" points="602.82,-435.33 592.92,-439.11 603.02,-442.33 602.82,-435.33"/>
<text text-anchor="middle" x="681" y="-440" font-family="Helvetica,sans-Serif" font-size="10.00"> Name</text>
</g>
<!-- Node14 -->
<g id="node14" class="node">
<title>Node14</title>
<g id="a_node14"><a xlink:title=" ">
<polygon fill="white" stroke="#bfbfbf" points="261,-439.5 261,-458.5 370,-458.5 370,-439.5 261,-439.5"/>
<text text-anchor="middle" x="315.5" y="-446.5" font-family="Helvetica,sans-Serif" font-size="10.00">basic_string&lt; c8 &gt;</text>
</a>
</g>
</g>
<!-- Node14&#45;&gt;Node13 -->
<g id="edge16" class="edge">
<title>Node14&#45;&gt;Node13</title>
<path fill="none" stroke="#9a32cd" stroke-dasharray="5,2" d="M380.48,-445.11C408.96,-443.38 442.31,-441.36 470.33,-439.66"/>
<polygon fill="#9a32cd" stroke="#9a32cd" points="379.99,-441.64 370.23,-445.74 380.42,-448.62 379.99,-441.64"/>
<text text-anchor="middle" x="421" y="-446" font-family="Helvetica,sans-Serif" font-size="10.00"> str</text>
</g>
<!-- Node15 -->
<g id="node15" class="node">
<title>Node15</title>
<g id="a_node15"><a xlink:title=" ">
<polygon fill="white" stroke="#bfbfbf" points="0,-422.5 0,-441.5 122,-441.5 122,-422.5 0,-422.5"/>
<text text-anchor="middle" x="61" y="-429.5" font-family="Helvetica,sans-Serif" font-size="10.00">static const size_type</text>
</a>
</g>
</g>
<!-- Node15&#45;&gt;Node13 -->
<g id="edge17" class="edge">
<title>Node15&#45;&gt;Node13</title>
<path fill="none" stroke="#9a32cd" stroke-dasharray="5,2" d="M132.3,-425.21C197.15,-419.87 296.11,-414.1 382,-419 411.15,-420.66 443.35,-424.15 470.3,-427.53"/>
<polygon fill="#9a32cd" stroke="#9a32cd" points="131.86,-421.73 122.19,-426.06 132.44,-428.7 131.86,-421.73"/>
<text text-anchor="middle" x="315.5" y="-422" font-family="Helvetica,sans-Serif" font-size="10.00"> npos</text>
</g>
<!-- Node16 -->
<g id="node16" class="node">
<title>Node16</title>
<g id="a_node16"><a xlink:href="classirr_1_1core_1_1string.html" target="_top" xlink:title="Very simple string class with some useful features.">
<polygon fill="white" stroke="black" points="257.5,-477.5 257.5,-496.5 373.5,-496.5 373.5,-477.5 257.5,-477.5"/>
<text text-anchor="middle" x="315.5" y="-484.5" font-family="Helvetica,sans-Serif" font-size="10.00">irr::core::string&lt; T &gt;</text>
</a>
</g>
</g>
<!-- Node15&#45;&gt;Node16 -->
<g id="edge20" class="edge">
<title>Node15&#45;&gt;Node16</title>
<path fill="none" stroke="#9a32cd" stroke-dasharray="5,2" d="M115.51,-443.66C161.62,-453.7 227.38,-468.02 270.49,-477.41"/>
<polygon fill="#9a32cd" stroke="#9a32cd" points="116.21,-440.23 105.69,-441.52 114.72,-447.07 116.21,-440.23"/>
<text text-anchor="middle" x="185.5" y="-470" font-family="Helvetica,sans-Serif" font-size="10.00"> npos</text>
</g>
<!-- Node16&#45;&gt;Node13 -->
<g id="edge18" class="edge">
<title>Node16&#45;&gt;Node13</title>
<path fill="none" stroke="orange" stroke-dasharray="5,2" d="M368.71,-475.14C391.27,-469.96 417.96,-463.77 442,-458 458.63,-454.01 476.98,-449.47 492.64,-445.56"/>
<polygon fill="orange" stroke="orange" points="367.63,-471.8 358.66,-477.44 369.19,-478.62 367.63,-471.8"/>
<text text-anchor="middle" x="421" y="-470" font-family="Helvetica,sans-Serif" font-size="10.00"> &lt; c8 &gt;</text>
</g>
<!-- Node17 -->
<g id="node17" class="node">
<title>Node17</title>
<g id="a_node17"><a xlink:title=" ">
<polygon fill="white" stroke="#bfbfbf" points="9,-477.5 9,-496.5 113,-496.5 113,-477.5 9,-477.5"/>
<text text-anchor="middle" x="61" y="-484.5" font-family="Helvetica,sans-Serif" font-size="10.00">basic_string&lt; T &gt;</text>
</a>
</g>
</g>
<!-- Node17&#45;&gt;Node16 -->
<g id="edge19" class="edge">
<title>Node17&#45;&gt;Node16</title>
<path fill="none" stroke="#9a32cd" stroke-dasharray="5,2" d="M123.19,-487C164.02,-487 217.34,-487 257.31,-487"/>
<polygon fill="#9a32cd" stroke="#9a32cd" points="123.1,-483.5 113.1,-487 123.1,-490.5 123.1,-483.5"/>
<text text-anchor="middle" x="185.5" y="-490" font-family="Helvetica,sans-Serif" font-size="10.00"> str</text>
</g>
<!-- Node18 -->
<g id="node18" class="node">
<title>Node18</title>
<g id="a_node18"><a xlink:title=" ">
<polygon fill="white" stroke="#bfbfbf" points="503.5,-113.5 503.5,-132.5 559.5,-132.5 559.5,-113.5 503.5,-113.5"/>
<text text-anchor="middle" x="531.5" y="-120.5" font-family="Helvetica,sans-Serif" font-size="10.00">uint32_t</text>
</a>
</g>
</g>
<!-- Node18&#45;&gt;Node2 -->
<g id="edge21" class="edge">
<title>Node18&#45;&gt;Node2</title>
<path fill="none" stroke="#9a32cd" stroke-dasharray="5,2" d="M569.94,-117.73C613.71,-113.41 687.03,-112.03 741,-141 779.89,-161.87 806.36,-210.72 816.22,-231.44"/>
<polygon fill="#9a32cd" stroke="#9a32cd" points="569.31,-114.28 559.74,-118.84 570.07,-121.24 569.31,-114.28"/>
<text text-anchor="middle" x="681" y="-155" font-family="Helvetica,sans-Serif" font-size="10.00"> DebugDataVisible</text>
<text text-anchor="middle" x="681" y="-144" font-family="Helvetica,sans-Serif" font-size="10.00">AutomaticCullingState</text>
</g>
<!-- Node19 -->
<g id="node19" class="node">
<title>Node19</title>
<g id="a_node19"><a xlink:href="classbool.html" target="_top" xlink:title=" ">
<polygon fill="white" stroke="black" points="512.5,-62.5 512.5,-81.5 550.5,-81.5 550.5,-62.5 512.5,-62.5"/>
<text text-anchor="middle" x="531.5" y="-69.5" font-family="Helvetica,sans-Serif" font-size="10.00">bool</text>
</a>
</g>
</g>
<!-- Node19&#45;&gt;Node1 -->
<g id="edge27" class="edge">
<title>Node19&#45;&gt;Node1</title>
<path fill="none" stroke="#9a32cd" stroke-dasharray="5,2" d="M560.85,-71.03C630.83,-68.65 813.87,-62.41 920.9,-58.76"/>
<polygon fill="#9a32cd" stroke="#9a32cd" points="560.49,-67.54 550.62,-71.38 560.73,-74.54 560.49,-67.54"/>
<text text-anchor="middle" x="821.5" y="-67" font-family="Helvetica,sans-Serif" font-size="10.00"> IsOrthogonal</text>
</g>
<!-- Node19&#45;&gt;Node2 -->
<g id="edge22" class="edge">
<title>Node19&#45;&gt;Node2</title>
<path fill="none" stroke="#9a32cd" stroke-dasharray="5,2" d="M560.78,-71.02C610.77,-69.81 712.16,-69.89 741,-89 793.13,-123.54 813.23,-203.7 818.77,-231.39"/>
<polygon fill="#9a32cd" stroke="#9a32cd" points="560.56,-67.52 550.66,-71.3 560.75,-74.52 560.56,-67.52"/>
<text text-anchor="middle" x="681" y="-103" font-family="Helvetica,sans-Serif" font-size="10.00"> IsDebugObject</text>
<text text-anchor="middle" x="681" y="-92" font-family="Helvetica,sans-Serif" font-size="10.00">IsVisible</text>
</g>
<!-- Node20&#45;&gt;Node2 -->
<g id="edge23" class="edge">
<title>Node20&#45;&gt;Node2</title>
<path fill="none" stroke="#9a32cd" stroke-dasharray="5,2" d="M613.46,-350.23C653.64,-348.79 701.83,-342.3 741,-323 775.15,-306.18 802.79,-268.46 814.48,-250.66"/>
<polygon fill="#9a32cd" stroke="#9a32cd" points="613.33,-346.73 603.43,-350.49 613.51,-353.73 613.33,-346.73"/>
<text text-anchor="middle" x="681" y="-352" font-family="Helvetica,sans-Serif" font-size="10.00"> SceneManager</text>
</g>
<!-- Node21 -->
<g id="node21" class="node">
<title>Node21</title>
<g id="a_node21"><a xlink:href="classirr_1_1IEventReceiver.html" target="_top" xlink:title="Interface of an object which can receive events.">
<polygon fill="white" stroke="black" points="768,-0.5 768,-19.5 875,-19.5 875,-0.5 768,-0.5"/>
<text text-anchor="middle" x="821.5" y="-7.5" font-family="Helvetica,sans-Serif" font-size="10.00">irr::IEventReceiver</text>
</a>
</g>
</g>
<!-- Node21&#45;&gt;Node1 -->
<g id="edge26" class="edge">
<title>Node21&#45;&gt;Node1</title>
<path fill="none" stroke="midnightblue" d="M869.45,-22.03C899.22,-29.66 937.19,-39.39 964.86,-46.48"/>
<polygon fill="midnightblue" stroke="midnightblue" points="870.25,-18.62 859.69,-19.53 868.51,-25.4 870.25,-18.62"/>
</g>
</g>
</svg>
