<?xml version="1.0" encoding="UTF-8" standalone="no"?>
<!DOCTYPE svg PUBLIC "-//W3C//DTD SVG 1.1//EN"
 "http://www.w3.org/Graphics/SVG/1.1/DTD/svg11.dtd">
<!-- Generated by graphviz version 2.43.0 (0)
 -->
<!-- Title: FileLogOutput Pages: 1 -->
<svg width="217pt" height="152pt"
 viewBox="0.00 0.00 216.50 152.00" xmlns="http://www.w3.org/2000/svg" xmlns:xlink="http://www.w3.org/1999/xlink">
<g id="graph0" class="graph" transform="scale(1 1) rotate(0) translate(4 148)">
<title>FileLogOutput</title>
<polygon fill="white" stroke="transparent" points="-4,4 -4,-148 212.5,-148 212.5,4 -4,4"/>
<!-- Node1 -->
<g id="node1" class="node">
<title>Node1</title>
<g id="a_node1"><a xlink:title=" ">
<polygon fill="#bfbfbf" stroke="black" points="98.5,-0.5 98.5,-19.5 182.5,-19.5 182.5,-0.5 98.5,-0.5"/>
<text text-anchor="middle" x="140.5" y="-7.5" font-family="Helvetica,sans-Serif" font-size="10.00">FileLogOutput</text>
</a>
</g>
</g>
<!-- Node2 -->
<g id="node2" class="node">
<title>Node2</title>
<g id="a_node2"><a xlink:href="classICombinedLogOutput.html" target="_top" xlink:title=" ">
<polygon fill="white" stroke="black" points="0,-67.5 0,-86.5 119,-86.5 119,-67.5 0,-67.5"/>
<text text-anchor="middle" x="59.5" y="-74.5" font-family="Helvetica,sans-Serif" font-size="10.00">ICombinedLogOutput</text>
</a>
</g>
</g>
<!-- Node2&#45;&gt;Node1 -->
<g id="edge1" class="edge">
<title>Node2&#45;&gt;Node1</title>
<path fill="none" stroke="midnightblue" d="M78.55,-60.71C94.51,-47.91 116.71,-30.09 129.75,-19.63"/>
<polygon fill="midnightblue" stroke="midnightblue" points="76.03,-58.25 70.42,-67.23 80.41,-63.7 76.03,-58.25"/>
</g>
<!-- Node3 -->
<g id="node3" class="node">
<title>Node3</title>
<g id="a_node3"><a xlink:href="classILogOutput.html" target="_top" xlink:title=" ">
<polygon fill="white" stroke="black" points="24.5,-124.5 24.5,-143.5 94.5,-143.5 94.5,-124.5 24.5,-124.5"/>
<text text-anchor="middle" x="59.5" y="-131.5" font-family="Helvetica,sans-Serif" font-size="10.00">ILogOutput</text>
</a>
</g>
</g>
<!-- Node3&#45;&gt;Node2 -->
<g id="edge2" class="edge">
<title>Node3&#45;&gt;Node2</title>
<path fill="none" stroke="midnightblue" d="M59.5,-114.12C59.5,-104.82 59.5,-94.06 59.5,-86.71"/>
<polygon fill="midnightblue" stroke="midnightblue" points="56,-114.41 59.5,-124.41 63,-114.41 56,-114.41"/>
</g>
<!-- Node4 -->
<g id="node4" class="node">
<title>Node4</title>
<g id="a_node4"><a xlink:title=" ">
<polygon fill="white" stroke="#bfbfbf" points="137,-67.5 137,-86.5 198,-86.5 198,-67.5 137,-67.5"/>
<text text-anchor="middle" x="167.5" y="-74.5" font-family="Helvetica,sans-Serif" font-size="10.00">ofstream</text>
</a>
</g>
</g>
<!-- Node4&#45;&gt;Node1 -->
<g id="edge3" class="edge">
<title>Node4&#45;&gt;Node1</title>
<path fill="none" stroke="#9a32cd" stroke-dasharray="5,2" d="M159.94,-57.79C154.75,-45.31 148.11,-29.31 144.08,-19.63"/>
<polygon fill="#9a32cd" stroke="#9a32cd" points="156.79,-59.34 163.86,-67.23 163.25,-56.66 156.79,-59.34"/>
<text text-anchor="middle" x="182" y="-41" font-family="Helvetica,sans-Serif" font-size="10.00"> m_stream</text>
</g>
</g>
</svg>
