<?xml version="1.0" encoding="UTF-8" standalone="no"?>
<!DOCTYPE svg PUBLIC "-//W3C//DTD SVG 1.1//EN"
 "http://www.w3.org/Graphics/SVG/1.1/DTD/svg11.dtd">
<!-- Generated by graphviz version 2.43.0 (0)
 -->
<!-- Title: irr::gui::CGUISpriteBank::draw2DSprite Pages: 1 -->
<svg width="454pt" height="127pt"
 viewBox="0.00 0.00 454.00 127.00" xmlns="http://www.w3.org/2000/svg" xmlns:xlink="http://www.w3.org/1999/xlink">
<g id="graph0" class="graph" transform="scale(1 1) rotate(0) translate(4 123)">
<title>irr::gui::CGUISpriteBank::draw2DSprite</title>
<polygon fill="white" stroke="transparent" points="-4,4 -4,-123 450,-123 450,4 -4,4"/>
<!-- Node1 -->
<g id="node1" class="node">
<title>Node1</title>
<g id="a_node1"><a xlink:title="Draws a sprite in 2d with position and color.">
<polygon fill="#bfbfbf" stroke="black" points="0,-44.5 0,-74.5 132,-74.5 132,-44.5 0,-44.5"/>
<text text-anchor="start" x="8" y="-62.5" font-family="Helvetica,sans-Serif" font-size="10.00">irr::gui::CGUISpriteBank</text>
<text text-anchor="middle" x="66" y="-51.5" font-family="Helvetica,sans-Serif" font-size="10.00">::draw2DSprite</text>
</a>
</g>
</g>
<!-- Node2 -->
<g id="node2" class="node">
<title>Node2</title>
<g id="a_node2"><a xlink:href="classirr_1_1video_1_1IVideoDriver.html#accfd3ba8a8deca828bafbc4c45800797" target="_top" xlink:title="Draws a 2d image without any special effects.">
<polygon fill="white" stroke="black" points="170.5,-88.5 170.5,-118.5 297.5,-118.5 297.5,-88.5 170.5,-88.5"/>
<text text-anchor="start" x="178.5" y="-106.5" font-family="Helvetica,sans-Serif" font-size="10.00">irr::video::IVideoDriver</text>
<text text-anchor="middle" x="234" y="-95.5" font-family="Helvetica,sans-Serif" font-size="10.00">::draw2DImage</text>
</a>
</g>
</g>
<!-- Node1&#45;&gt;Node2 -->
<g id="edge1" class="edge">
<title>Node1&#45;&gt;Node2</title>
<path fill="none" stroke="midnightblue" d="M123.66,-74.52C137.48,-78.18 152.37,-82.13 166.6,-85.9"/>
<polygon fill="midnightblue" stroke="midnightblue" points="165.75,-89.29 176.31,-88.47 167.54,-82.53 165.75,-89.29"/>
</g>
<!-- Node3 -->
<g id="node3" class="node">
<title>Node3</title>
<g id="a_node3"><a xlink:href="classirr_1_1core_1_1rect.html#aa5e0bf0e6474c1603c735a63843833fa" target="_top" xlink:title="Get the dimensions of the rectangle.">
<polygon fill="white" stroke="black" points="173.5,-50 173.5,-69 294.5,-69 294.5,-50 173.5,-50"/>
<text text-anchor="middle" x="234" y="-57" font-family="Helvetica,sans-Serif" font-size="10.00">irr::core::rect::getSize</text>
</a>
</g>
</g>
<!-- Node1&#45;&gt;Node3 -->
<g id="edge2" class="edge">
<title>Node1&#45;&gt;Node3</title>
<path fill="none" stroke="midnightblue" d="M132.13,-59.5C142.35,-59.5 152.95,-59.5 163.26,-59.5"/>
<polygon fill="midnightblue" stroke="midnightblue" points="163.46,-63 173.46,-59.5 163.46,-56 163.46,-63"/>
</g>
<!-- Node4 -->
<g id="node4" class="node">
<title>Node4</title>
<g id="a_node4"><a xlink:href="classirr_1_1gui_1_1CGUISpriteBank.html#ab7a795590e2d5ae3fa7716f66115e727" target="_top" xlink:title="Gets the texture with the specified index.">
<polygon fill="white" stroke="black" points="168,-0.5 168,-30.5 300,-30.5 300,-0.5 168,-0.5"/>
<text text-anchor="start" x="176" y="-18.5" font-family="Helvetica,sans-Serif" font-size="10.00">irr::gui::CGUISpriteBank</text>
<text text-anchor="middle" x="234" y="-7.5" font-family="Helvetica,sans-Serif" font-size="10.00">::getTexture</text>
</a>
</g>
</g>
<!-- Node1&#45;&gt;Node4 -->
<g id="edge3" class="edge">
<title>Node1&#45;&gt;Node4</title>
<path fill="none" stroke="midnightblue" d="M123.66,-44.48C137.48,-40.82 152.37,-36.87 166.6,-33.1"/>
<polygon fill="midnightblue" stroke="midnightblue" points="167.54,-36.47 176.31,-30.53 165.75,-29.71 167.54,-36.47"/>
</g>
<!-- Node5 -->
<g id="node5" class="node">
<title>Node5</title>
<g id="a_node5"><a xlink:href="classirr_1_1core_1_1array.html#af2a884d7e19d685b58617fed4ea4d4b9" target="_top" xlink:title="Get number of occupied elements of the array.">
<polygon fill="white" stroke="black" points="336,-6 336,-25 446,-25 446,-6 336,-6"/>
<text text-anchor="middle" x="391" y="-13" font-family="Helvetica,sans-Serif" font-size="10.00">irr::core::array::size</text>
</a>
</g>
</g>
<!-- Node4&#45;&gt;Node5 -->
<g id="edge4" class="edge">
<title>Node4&#45;&gt;Node5</title>
<path fill="none" stroke="midnightblue" d="M300.28,-15.5C308.64,-15.5 317.18,-15.5 325.52,-15.5"/>
<polygon fill="midnightblue" stroke="midnightblue" points="325.57,-19 335.57,-15.5 325.57,-12 325.57,-19"/>
</g>
</g>
</svg>
