<?xml version="1.0" encoding="UTF-8" standalone="no"?>
<!DOCTYPE svg PUBLIC "-//W3C//DTD SVG 1.1//EN"
 "http://www.w3.org/Graphics/SVG/1.1/DTD/svg11.dtd">
<!-- Generated by graphviz version 2.43.0 (0)
 -->
<!-- Title: MapBlockFlags Pages: 1 -->
<svg width="628pt" height="176pt"
 viewBox="0.00 0.00 628.00 176.00" xmlns="http://www.w3.org/2000/svg" xmlns:xlink="http://www.w3.org/1999/xlink">
<g id="graph0" class="graph" transform="scale(1 1) rotate(0) translate(4 172)">
<title>MapBlockFlags</title>
<polygon fill="white" stroke="transparent" points="-4,4 -4,-172 624,-172 624,4 -4,4"/>
<!-- Node1 -->
<g id="node1" class="node">
<title>Node1</title>
<g id="a_node1"><a xlink:title=" ">
<polygon fill="#bfbfbf" stroke="black" points="529,-76.5 529,-95.5 620,-95.5 620,-76.5 529,-76.5"/>
<text text-anchor="middle" x="574.5" y="-83.5" font-family="Helvetica,sans-Serif" font-size="10.00">MapBlockFlags</text>
</a>
</g>
</g>
<!-- Node2 -->
<g id="node2" class="node">
<title>Node2</title>
<g id="a_node2"><a xlink:title=" ">
<polygon fill="white" stroke="#bfbfbf" points="328,-148.5 328,-167.5 363,-167.5 363,-148.5 328,-148.5"/>
<text text-anchor="middle" x="345.5" y="-155.5" font-family="Helvetica,sans-Serif" font-size="10.00">u16</text>
</a>
</g>
</g>
<!-- Node2&#45;&gt;Node1 -->
<g id="edge1" class="edge">
<title>Node2&#45;&gt;Node1</title>
<path fill="none" stroke="#9a32cd" stroke-dasharray="5,2" d="M373.32,-152.54C406.26,-145.48 463.58,-132.04 511,-115 526.31,-109.5 542.99,-101.66 555.27,-95.52"/>
<polygon fill="#9a32cd" stroke="#9a32cd" points="372.2,-149.2 363.14,-154.68 373.65,-156.05 372.2,-149.2"/>
<text text-anchor="middle" x="467.5" y="-154" font-family="Helvetica,sans-Serif" font-size="10.00"> CHUNK_EDGE</text>
<text text-anchor="middle" x="467.5" y="-143" font-family="Helvetica,sans-Serif" font-size="10.00">CHUNK_MASK</text>
</g>
<!-- Node3 -->
<g id="node3" class="node">
<title>Node3</title>
<g id="a_node3"><a xlink:title=" ">
<polygon fill="white" stroke="#bfbfbf" points="285,-88.5 285,-129.5 406,-129.5 406,-88.5 285,-88.5"/>
<text text-anchor="start" x="293" y="-117.5" font-family="Helvetica,sans-Serif" font-size="10.00">vector&lt; std::unique</text>
<text text-anchor="start" x="293" y="-106.5" font-family="Helvetica,sans-Serif" font-size="10.00">_ptr&lt; MapBlockFlags</text>
<text text-anchor="middle" x="345.5" y="-95.5" font-family="Helvetica,sans-Serif" font-size="10.00">::Chunk &gt; &gt;</text>
</a>
</g>
</g>
<!-- Node3&#45;&gt;Node1 -->
<g id="edge2" class="edge">
<title>Node3&#45;&gt;Node1</title>
<path fill="none" stroke="#9a32cd" stroke-dasharray="5,2" d="M416.29,-101.93C452.99,-98.21 496.89,-93.76 528.96,-90.51"/>
<polygon fill="#9a32cd" stroke="#9a32cd" points="415.74,-98.47 406.14,-102.96 416.44,-105.43 415.74,-98.47"/>
<text text-anchor="middle" x="467.5" y="-103" font-family="Helvetica,sans-Serif" font-size="10.00"> chunks</text>
</g>
<!-- Node4 -->
<g id="node4" class="node">
<title>Node4</title>
<g id="a_node4"><a xlink:href="classirr_1_1core_1_1vector3d.html" target="_top" xlink:title=" ">
<polygon fill="white" stroke="black" points="294,-39 294,-69 397,-69 397,-39 294,-39"/>
<text text-anchor="start" x="302" y="-57" font-family="Helvetica,sans-Serif" font-size="10.00">irr::core::vector3d</text>
<text text-anchor="middle" x="345.5" y="-46" font-family="Helvetica,sans-Serif" font-size="10.00">&lt; s16 &gt;</text>
</a>
</g>
</g>
<!-- Node4&#45;&gt;Node1 -->
<g id="edge3" class="edge">
<title>Node4&#45;&gt;Node1</title>
<path fill="none" stroke="#9a32cd" stroke-dasharray="5,2" d="M407.58,-55.02C438.76,-56.4 477.15,-59.45 511,-66 523.53,-68.43 537.06,-72.56 548.31,-76.44"/>
<polygon fill="#9a32cd" stroke="#9a32cd" points="407.44,-51.51 397.3,-54.61 407.16,-58.5 407.44,-51.51"/>
<text text-anchor="middle" x="467.5" y="-80" font-family="Helvetica,sans-Serif" font-size="10.00"> volume</text>
<text text-anchor="middle" x="467.5" y="-69" font-family="Helvetica,sans-Serif" font-size="10.00">min_pos</text>
</g>
<!-- Node5 -->
<g id="node5" class="node">
<title>Node5</title>
<g id="a_node5"><a xlink:title=" ">
<polygon fill="white" stroke="#bfbfbf" points="123.5,-62.5 123.5,-81.5 157.5,-81.5 157.5,-62.5 123.5,-62.5"/>
<text text-anchor="middle" x="140.5" y="-69.5" font-family="Helvetica,sans-Serif" font-size="10.00">s16</text>
</a>
</g>
</g>
<!-- Node5&#45;&gt;Node4 -->
<g id="edge4" class="edge">
<title>Node5&#45;&gt;Node4</title>
<path fill="none" stroke="#9a32cd" stroke-dasharray="5,2" d="M168.04,-69.65C199.88,-66.82 253.94,-62.03 293.86,-58.49"/>
<polygon fill="#9a32cd" stroke="#9a32cd" points="167.42,-66.19 157.77,-70.56 168.04,-73.16 167.42,-66.19"/>
<text text-anchor="middle" x="245.5" y="-89" font-family="Helvetica,sans-Serif" font-size="10.00"> X</text>
<text text-anchor="middle" x="245.5" y="-78" font-family="Helvetica,sans-Serif" font-size="10.00">Y</text>
<text text-anchor="middle" x="245.5" y="-67" font-family="Helvetica,sans-Serif" font-size="10.00">Z</text>
</g>
<!-- Node6 -->
<g id="node6" class="node">
<title>Node6</title>
<g id="a_node6"><a xlink:href="classirr_1_1core_1_1vector3d.html" target="_top" xlink:title="3d vector template class with lots of operators and methods.">
<polygon fill="white" stroke="black" points="75,-24.5 75,-43.5 206,-43.5 206,-24.5 75,-24.5"/>
<text text-anchor="middle" x="140.5" y="-31.5" font-family="Helvetica,sans-Serif" font-size="10.00">irr::core::vector3d&lt; T &gt;</text>
</a>
</g>
</g>
<!-- Node6&#45;&gt;Node4 -->
<g id="edge5" class="edge">
<title>Node6&#45;&gt;Node4</title>
<path fill="none" stroke="orange" stroke-dasharray="5,2" d="M216.54,-41.08C233.15,-42.68 250.68,-44.38 267,-46 275.61,-46.86 284.77,-47.78 293.65,-48.7"/>
<polygon fill="orange" stroke="orange" points="216.61,-37.57 206.32,-40.1 215.94,-44.54 216.61,-37.57"/>
<text text-anchor="middle" x="245.5" y="-49" font-family="Helvetica,sans-Serif" font-size="10.00"> &lt; s16 &gt;</text>
</g>
<!-- Node7 -->
<g id="node7" class="node">
<title>Node7</title>
<g id="a_node7"><a xlink:title=" ">
<polygon fill="white" stroke="#bfbfbf" points="0,-24.5 0,-43.5 29,-43.5 29,-24.5 0,-24.5"/>
<text text-anchor="middle" x="14.5" y="-31.5" font-family="Helvetica,sans-Serif" font-size="10.00">T</text>
</a>
</g>
</g>
<!-- Node7&#45;&gt;Node6 -->
<g id="edge6" class="edge">
<title>Node7&#45;&gt;Node6</title>
<path fill="none" stroke="#9a32cd" stroke-dasharray="5,2" d="M39.38,-34C49.64,-34 62.18,-34 74.86,-34"/>
<polygon fill="#9a32cd" stroke="#9a32cd" points="39.24,-30.5 29.24,-34 39.24,-37.5 39.24,-30.5"/>
<text text-anchor="middle" x="52" y="-59" font-family="Helvetica,sans-Serif" font-size="10.00"> X</text>
<text text-anchor="middle" x="52" y="-48" font-family="Helvetica,sans-Serif" font-size="10.00">Y</text>
<text text-anchor="middle" x="52" y="-37" font-family="Helvetica,sans-Serif" font-size="10.00">Z</text>
</g>
<!-- Node8 -->
<g id="node8" class="node">
<title>Node8</title>
<g id="a_node8"><a xlink:title=" ">
<polygon fill="white" stroke="#bfbfbf" points="323,-0.5 323,-19.5 368,-19.5 368,-0.5 323,-0.5"/>
<text text-anchor="middle" x="345.5" y="-7.5" font-family="Helvetica,sans-Serif" font-size="10.00">size_t</text>
</a>
</g>
</g>
<!-- Node8&#45;&gt;Node1 -->
<g id="edge7" class="edge">
<title>Node8&#45;&gt;Node1</title>
<path fill="none" stroke="#9a32cd" stroke-dasharray="5,2" d="M378.42,-11.89C412.46,-14.84 467.38,-22.29 511,-41 531.4,-49.75 551.62,-66.07 563.32,-76.47"/>
<polygon fill="#9a32cd" stroke="#9a32cd" points="378.38,-8.38 368.14,-11.08 377.83,-15.36 378.38,-8.38"/>
<text text-anchor="middle" x="467.5" y="-44" font-family="Helvetica,sans-Serif" font-size="10.00"> CHUNK_VOLUME</text>
</g>
</g>
</svg>
