<?xml version="1.0" encoding="UTF-8" standalone="no"?>
<!DOCTYPE svg PUBLIC "-//W3C//DTD SVG 1.1//EN"
 "http://www.w3.org/Graphics/SVG/1.1/DTD/svg11.dtd">
<!-- Generated by graphviz version 2.43.0 (0)
 -->
<!-- Title: Json::OurReader::Token Pages: 1 -->
<svg width="142pt" height="106pt"
 viewBox="0.00 0.00 141.50 106.00" xmlns="http://www.w3.org/2000/svg" xmlns:xlink="http://www.w3.org/1999/xlink">
<g id="graph0" class="graph" transform="scale(1 1) rotate(0) translate(4 102)">
<title>Json::OurReader::Token</title>
<polygon fill="white" stroke="transparent" points="-4,4 -4,-102 137.5,-102 137.5,4 -4,4"/>
<!-- Node1 -->
<g id="node1" class="node">
<title>Node1</title>
<g id="a_node1"><a xlink:title=" ">
<polygon fill="#bfbfbf" stroke="black" points="0,-0.5 0,-19.5 128,-19.5 128,-0.5 0,-0.5"/>
<text text-anchor="middle" x="64" y="-7.5" font-family="Helvetica,sans-Serif" font-size="10.00">Json::OurReader::Token</text>
</a>
</g>
</g>
<!-- Node2 -->
<g id="node2" class="node">
<title>Node2</title>
<g id="a_node2"><a xlink:title=" ">
<polygon fill="white" stroke="#bfbfbf" points="10,-78.5 10,-97.5 48,-97.5 48,-78.5 10,-78.5"/>
<text text-anchor="middle" x="29" y="-85.5" font-family="Helvetica,sans-Serif" font-size="10.00">char</text>
</a>
</g>
</g>
<!-- Node2&#45;&gt;Node1 -->
<g id="edge1" class="edge">
<title>Node2&#45;&gt;Node1</title>
<path fill="none" stroke="#9a32cd" stroke-dasharray="5,2" d="M36.4,-68.85C40.29,-59.55 45.23,-48.09 50,-38 52.89,-31.89 56.39,-25.14 59.17,-19.92"/>
<polygon fill="#9a32cd" stroke="#9a32cd" points="33.11,-67.66 32.53,-78.24 39.58,-70.33 33.11,-67.66"/>
<text text-anchor="middle" x="64" y="-52" font-family="Helvetica,sans-Serif" font-size="10.00"> end_</text>
<text text-anchor="middle" x="64" y="-41" font-family="Helvetica,sans-Serif" font-size="10.00">start_</text>
</g>
<!-- Node3 -->
<g id="node3" class="node">
<title>Node3</title>
<g id="a_node3"><a xlink:title=" ">
<polygon fill="white" stroke="#bfbfbf" points="66.5,-78.5 66.5,-97.5 133.5,-97.5 133.5,-78.5 66.5,-78.5"/>
<text text-anchor="middle" x="100" y="-85.5" font-family="Helvetica,sans-Serif" font-size="10.00">TokenType</text>
</a>
</g>
</g>
<!-- Node3&#45;&gt;Node1 -->
<g id="edge2" class="edge">
<title>Node3&#45;&gt;Node1</title>
<path fill="none" stroke="#9a32cd" stroke-dasharray="5,2" d="M92.15,-68.88C88.06,-59.59 82.89,-48.13 78,-38 75.06,-31.91 71.56,-25.16 68.79,-19.94"/>
<polygon fill="#9a32cd" stroke="#9a32cd" points="89.04,-70.49 96.25,-78.26 95.46,-67.69 89.04,-70.49"/>
<text text-anchor="middle" x="102.5" y="-46.5" font-family="Helvetica,sans-Serif" font-size="10.00"> type_</text>
</g>
</g>
</svg>
