<?xml version="1.0" encoding="UTF-8" standalone="no"?>
<!DOCTYPE svg PUBLIC "-//W3C//DTD SVG 1.1//EN"
 "http://www.w3.org/Graphics/SVG/1.1/DTD/svg11.dtd">
<!-- Generated by graphviz version 2.43.0 (0)
 -->
<!-- Title: irr::CTimer::setSpeed Pages: 1 -->
<svg width="637pt" height="66pt"
 viewBox="0.00 0.00 637.00 66.00" xmlns="http://www.w3.org/2000/svg" xmlns:xlink="http://www.w3.org/1999/xlink">
<g id="graph0" class="graph" transform="scale(1 1) rotate(0) translate(4 62)">
<title>irr::CTimer::setSpeed</title>
<polygon fill="white" stroke="transparent" points="-4,4 -4,-62 633,-62 633,4 -4,4"/>
<!-- Node1 -->
<g id="node1" class="node">
<title>Node1</title>
<g id="a_node1"><a xlink:title="Sets the speed of the timer.">
<polygon fill="#bfbfbf" stroke="black" points="0,-19.5 0,-38.5 119,-38.5 119,-19.5 0,-19.5"/>
<text text-anchor="middle" x="59.5" y="-26.5" font-family="Helvetica,sans-Serif" font-size="10.00">irr::CTimer::setSpeed</text>
</a>
</g>
</g>
<!-- Node2 -->
<g id="node2" class="node">
<title>Node2</title>
<g id="a_node2"><a xlink:href="classirr_1_1os_1_1Timer.html#a99651492b15c71c904d70595df0cbdf2" target="_top" xlink:title="sets the speed of the virtual timer">
<polygon fill="white" stroke="black" points="155,-19.5 155,-38.5 285,-38.5 285,-19.5 155,-19.5"/>
<text text-anchor="middle" x="220" y="-26.5" font-family="Helvetica,sans-Serif" font-size="10.00">irr::os::Timer::setSpeed</text>
</a>
</g>
</g>
<!-- Node1&#45;&gt;Node2 -->
<g id="edge1" class="edge">
<title>Node1&#45;&gt;Node2</title>
<path fill="none" stroke="midnightblue" d="M119.07,-29C127.44,-29 136.13,-29 144.75,-29"/>
<polygon fill="midnightblue" stroke="midnightblue" points="144.81,-32.5 154.81,-29 144.81,-25.5 144.81,-32.5"/>
</g>
<!-- Node3 -->
<g id="node3" class="node">
<title>Node3</title>
<g id="a_node3"><a xlink:href="classirr_1_1os_1_1Timer.html#a640377de088feab25b5b83f8d4ecc50d" target="_top" xlink:title="returns the current time in milliseconds">
<polygon fill="white" stroke="black" points="321,-38.5 321,-57.5 446,-57.5 446,-38.5 321,-38.5"/>
<text text-anchor="middle" x="383.5" y="-45.5" font-family="Helvetica,sans-Serif" font-size="10.00">irr::os::Timer::getTime</text>
</a>
</g>
</g>
<!-- Node2&#45;&gt;Node3 -->
<g id="edge2" class="edge">
<title>Node2&#45;&gt;Node3</title>
<path fill="none" stroke="midnightblue" d="M285.29,-36.56C293.61,-37.54 302.17,-38.55 310.6,-39.54"/>
<polygon fill="midnightblue" stroke="midnightblue" points="310.45,-43.05 320.79,-40.74 311.27,-36.1 310.45,-43.05"/>
</g>
<!-- Node5 -->
<g id="node5" class="node">
<title>Node5</title>
<g id="a_node5"><a xlink:href="classirr_1_1os_1_1Timer.html#aca64b292f9ea26d331684cde33e521da" target="_top" xlink:title="sets the current virtual (game) time">
<polygon fill="white" stroke="black" points="321,-0.5 321,-19.5 446,-19.5 446,-0.5 321,-0.5"/>
<text text-anchor="middle" x="383.5" y="-7.5" font-family="Helvetica,sans-Serif" font-size="10.00">irr::os::Timer::setTime</text>
</a>
</g>
</g>
<!-- Node2&#45;&gt;Node5 -->
<g id="edge4" class="edge">
<title>Node2&#45;&gt;Node5</title>
<path fill="none" stroke="midnightblue" d="M285.29,-21.44C293.61,-20.46 302.17,-19.45 310.6,-18.46"/>
<polygon fill="midnightblue" stroke="midnightblue" points="311.27,-21.9 320.79,-17.26 310.45,-14.95 311.27,-21.9"/>
</g>
<!-- Node4 -->
<g id="node4" class="node">
<title>Node4</title>
<g id="a_node4"><a xlink:href="classirr_1_1os_1_1Timer.html#aad6c27db995b80c795038bb2f827dfc5" target="_top" xlink:title="returns if the timer currently is stopped">
<polygon fill="white" stroke="black" points="489,-38.5 489,-57.5 622,-57.5 622,-38.5 489,-38.5"/>
<text text-anchor="middle" x="555.5" y="-45.5" font-family="Helvetica,sans-Serif" font-size="10.00">irr::os::Timer::isStopped</text>
</a>
</g>
</g>
<!-- Node3&#45;&gt;Node4 -->
<g id="edge3" class="edge">
<title>Node3&#45;&gt;Node4</title>
<path fill="none" stroke="midnightblue" d="M446.35,-48C456.86,-48 467.87,-48 478.69,-48"/>
<polygon fill="midnightblue" stroke="midnightblue" points="478.97,-51.5 488.97,-48 478.97,-44.5 478.97,-51.5"/>
</g>
<!-- Node6 -->
<g id="node6" class="node">
<title>Node6</title>
<g id="a_node6"><a xlink:href="classirr_1_1os_1_1Timer.html#aa0a73b26f4f18ac6fbc737caae2061cd" target="_top" xlink:title="returns the current real time in milliseconds">
<polygon fill="white" stroke="black" points="482,-0.5 482,-19.5 629,-19.5 629,-0.5 482,-0.5"/>
<text text-anchor="middle" x="555.5" y="-7.5" font-family="Helvetica,sans-Serif" font-size="10.00">irr::os::Timer::getRealTime</text>
</a>
</g>
</g>
<!-- Node5&#45;&gt;Node6 -->
<g id="edge5" class="edge">
<title>Node5&#45;&gt;Node6</title>
<path fill="none" stroke="midnightblue" d="M446.35,-10C454.52,-10 463,-10 471.45,-10"/>
<polygon fill="midnightblue" stroke="midnightblue" points="471.72,-13.5 481.72,-10 471.72,-6.5 471.72,-13.5"/>
</g>
</g>
</svg>
