<?xml version="1.0" encoding="UTF-8" standalone="no"?>
<!DOCTYPE svg PUBLIC "-//W3C//DTD SVG 1.1//EN"
 "http://www.w3.org/Graphics/SVG/1.1/DTD/svg11.dtd">
<!-- Generated by graphviz version 2.43.0 (0)
 -->
<!-- Title: Catch::Generators::MapGenerator&lt; T, U, Func &gt; Pages: 1 -->
<svg width="834pt" height="172pt"
 viewBox="0.00 0.00 834.00 171.50" xmlns="http://www.w3.org/2000/svg" xmlns:xlink="http://www.w3.org/1999/xlink">
<g id="graph0" class="graph" transform="scale(1 1) rotate(0) translate(4 167.5)">
<title>Catch::Generators::MapGenerator&lt; T, U, Func &gt;</title>
<polygon fill="white" stroke="transparent" points="-4,4 -4,-167.5 830,-167.5 830,4 -4,4"/>
<!-- Node1 -->
<g id="node1" class="node">
<title>Node1</title>
<g id="a_node1"><a xlink:title=" ">
<polygon fill="#bfbfbf" stroke="black" points="706,-66.5 706,-107.5 826,-107.5 826,-66.5 706,-66.5"/>
<text text-anchor="start" x="714" y="-95.5" font-family="Helvetica,sans-Serif" font-size="10.00">Catch::Generators::</text>
<text text-anchor="start" x="714" y="-84.5" font-family="Helvetica,sans-Serif" font-size="10.00">MapGenerator&lt; T, U,</text>
<text text-anchor="middle" x="766" y="-73.5" font-family="Helvetica,sans-Serif" font-size="10.00"> Func &gt;</text>
</a>
</g>
</g>
<!-- Node2 -->
<g id="node2" class="node">
<title>Node2</title>
<g id="a_node2"><a xlink:href="structCatch_1_1Generators_1_1IGenerator.html" target="_top" xlink:title=" ">
<polygon fill="white" stroke="black" points="480.5,-133 480.5,-163 590.5,-163 590.5,-133 480.5,-133"/>
<text text-anchor="start" x="488.5" y="-151" font-family="Helvetica,sans-Serif" font-size="10.00">Catch::Generators::</text>
<text text-anchor="middle" x="535.5" y="-140" font-family="Helvetica,sans-Serif" font-size="10.00">IGenerator&lt; T &gt;</text>
</a>
</g>
</g>
<!-- Node2&#45;&gt;Node1 -->
<g id="edge1" class="edge">
<title>Node2&#45;&gt;Node1</title>
<path fill="none" stroke="midnightblue" d="M600.52,-133.99C627.63,-127.75 659.49,-120 688,-112 693.82,-110.37 699.86,-108.58 705.87,-106.73"/>
<polygon fill="midnightblue" stroke="midnightblue" points="599.73,-130.58 590.76,-136.22 601.29,-137.41 599.73,-130.58"/>
</g>
<!-- Node3 -->
<g id="node3" class="node">
<title>Node3</title>
<g id="a_node3"><a xlink:href="classCatch_1_1Generators_1_1GeneratorUntypedBase.html" target="_top" xlink:title=" ">
<polygon fill="white" stroke="black" points="232,-133 232,-163 363,-163 363,-133 232,-133"/>
<text text-anchor="start" x="240" y="-151" font-family="Helvetica,sans-Serif" font-size="10.00">Catch::Generators::</text>
<text text-anchor="middle" x="297.5" y="-140" font-family="Helvetica,sans-Serif" font-size="10.00">GeneratorUntypedBase</text>
</a>
</g>
</g>
<!-- Node3&#45;&gt;Node2 -->
<g id="edge2" class="edge">
<title>Node3&#45;&gt;Node2</title>
<path fill="none" stroke="midnightblue" d="M373.39,-148C408.08,-148 448.53,-148 480.22,-148"/>
<polygon fill="midnightblue" stroke="midnightblue" points="373.3,-144.5 363.3,-148 373.3,-151.5 373.3,-144.5"/>
</g>
<!-- Node4 -->
<g id="node4" class="node">
<title>Node4</title>
<g id="a_node4"><a xlink:title=" ">
<polygon fill="white" stroke="#bfbfbf" points="516,-94.5 516,-113.5 555,-113.5 555,-94.5 516,-94.5"/>
<text text-anchor="middle" x="535.5" y="-101.5" font-family="Helvetica,sans-Serif" font-size="10.00">Func</text>
</a>
</g>
</g>
<!-- Node4&#45;&gt;Node1 -->
<g id="edge3" class="edge">
<title>Node4&#45;&gt;Node1</title>
<path fill="none" stroke="#9a32cd" stroke-dasharray="5,2" d="M565.24,-101.86C600.34,-99.25 660.61,-94.77 705.79,-91.41"/>
<polygon fill="#9a32cd" stroke="#9a32cd" points="564.91,-98.38 555.2,-102.61 565.43,-105.36 564.91,-98.38"/>
<text text-anchor="middle" x="655" y="-100" font-family="Helvetica,sans-Serif" font-size="10.00"> m_function</text>
</g>
<!-- Node5 -->
<g id="node5" class="node">
<title>Node5</title>
<g id="a_node5"><a xlink:href="classCatch_1_1Generators_1_1GeneratorWrapper.html" target="_top" xlink:title=" ">
<polygon fill="white" stroke="black" points="467,-45 467,-75 604,-75 604,-45 467,-45"/>
<text text-anchor="start" x="475" y="-63" font-family="Helvetica,sans-Serif" font-size="10.00">Catch::Generators::</text>
<text text-anchor="middle" x="535.5" y="-52" font-family="Helvetica,sans-Serif" font-size="10.00">GeneratorWrapper&lt; U &gt;</text>
</a>
</g>
</g>
<!-- Node5&#45;&gt;Node1 -->
<g id="edge4" class="edge">
<title>Node5&#45;&gt;Node1</title>
<path fill="none" stroke="#9a32cd" stroke-dasharray="5,2" d="M614.04,-68.44C637.78,-71.09 663.97,-74.09 688,-77 693.75,-77.7 699.75,-78.44 705.74,-79.2"/>
<polygon fill="#9a32cd" stroke="#9a32cd" points="614.35,-64.95 604.03,-67.32 613.58,-71.91 614.35,-64.95"/>
<text text-anchor="middle" x="655" y="-80" font-family="Helvetica,sans-Serif" font-size="10.00"> m_generator</text>
</g>
<!-- Node6 -->
<g id="node6" class="node">
<title>Node6</title>
<g id="a_node6"><a xlink:title=" ">
<polygon fill="white" stroke="#bfbfbf" points="233.5,-55.5 233.5,-96.5 361.5,-96.5 361.5,-55.5 233.5,-55.5"/>
<text text-anchor="start" x="241.5" y="-84.5" font-family="Helvetica,sans-Serif" font-size="10.00">unique_ptr&lt; Catch::</text>
<text text-anchor="start" x="241.5" y="-73.5" font-family="Helvetica,sans-Serif" font-size="10.00">Generators::IGenerator</text>
<text text-anchor="middle" x="297.5" y="-62.5" font-family="Helvetica,sans-Serif" font-size="10.00">&lt; U &gt; &gt;</text>
</a>
</g>
</g>
<!-- Node6&#45;&gt;Node5 -->
<g id="edge5" class="edge">
<title>Node6&#45;&gt;Node5</title>
<path fill="none" stroke="#9a32cd" stroke-dasharray="5,2" d="M371.85,-71.03C402.22,-68.97 437.21,-66.6 466.95,-64.58"/>
<polygon fill="#9a32cd" stroke="#9a32cd" points="371.48,-67.54 361.74,-71.71 371.96,-74.53 371.48,-67.54"/>
<text text-anchor="middle" x="416" y="-72" font-family="Helvetica,sans-Serif" font-size="10.00"> m_generator</text>
</g>
<!-- Node7 -->
<g id="node7" class="node">
<title>Node7</title>
<g id="a_node7"><a xlink:href="classCatch_1_1Generators_1_1GeneratorWrapper.html" target="_top" xlink:title=" ">
<polygon fill="white" stroke="black" points="230,-6 230,-36 365,-36 365,-6 230,-6"/>
<text text-anchor="start" x="238" y="-24" font-family="Helvetica,sans-Serif" font-size="10.00">Catch::Generators::</text>
<text text-anchor="middle" x="297.5" y="-13" font-family="Helvetica,sans-Serif" font-size="10.00">GeneratorWrapper&lt; T &gt;</text>
</a>
</g>
</g>
<!-- Node7&#45;&gt;Node5 -->
<g id="edge6" class="edge">
<title>Node7&#45;&gt;Node5</title>
<path fill="none" stroke="orange" stroke-dasharray="5,2" d="M375.42,-33.71C404.87,-38.58 438.22,-44.09 466.75,-48.8"/>
<polygon fill="orange" stroke="orange" points="375.62,-30.2 365.18,-32.02 374.48,-37.1 375.62,-30.2"/>
<text text-anchor="middle" x="416" y="-48" font-family="Helvetica,sans-Serif" font-size="10.00"> &lt; U &gt;</text>
</g>
<!-- Node8 -->
<g id="node8" class="node">
<title>Node8</title>
<g id="a_node8"><a xlink:title=" ">
<polygon fill="white" stroke="#bfbfbf" points="0,-0.5 0,-41.5 128,-41.5 128,-0.5 0,-0.5"/>
<text text-anchor="start" x="8" y="-29.5" font-family="Helvetica,sans-Serif" font-size="10.00">unique_ptr&lt; Catch::</text>
<text text-anchor="start" x="8" y="-18.5" font-family="Helvetica,sans-Serif" font-size="10.00">Generators::IGenerator</text>
<text text-anchor="middle" x="64" y="-7.5" font-family="Helvetica,sans-Serif" font-size="10.00">&lt; T &gt; &gt;</text>
</a>
</g>
</g>
<!-- Node8&#45;&gt;Node7 -->
<g id="edge7" class="edge">
<title>Node8&#45;&gt;Node7</title>
<path fill="none" stroke="#9a32cd" stroke-dasharray="5,2" d="M138.42,-21C167.67,-21 201.11,-21 229.68,-21"/>
<polygon fill="#9a32cd" stroke="#9a32cd" points="138.26,-17.5 128.26,-21 138.26,-24.5 138.26,-17.5"/>
<text text-anchor="middle" x="179" y="-24" font-family="Helvetica,sans-Serif" font-size="10.00"> m_generator</text>
</g>
<!-- Node9 -->
<g id="node9" class="node">
<title>Node9</title>
<g id="a_node9"><a xlink:title=" ">
<polygon fill="white" stroke="#bfbfbf" points="521,-6.5 521,-25.5 550,-25.5 550,-6.5 521,-6.5"/>
<text text-anchor="middle" x="535.5" y="-13.5" font-family="Helvetica,sans-Serif" font-size="10.00">T</text>
</a>
</g>
</g>
<!-- Node9&#45;&gt;Node1 -->
<g id="edge8" class="edge">
<title>Node9&#45;&gt;Node1</title>
<path fill="none" stroke="#9a32cd" stroke-dasharray="5,2" d="M560.05,-20.69C590.12,-26.95 643.6,-39.03 688,-54 698.61,-57.58 709.81,-61.99 720.27,-66.41"/>
<polygon fill="#9a32cd" stroke="#9a32cd" points="560.58,-17.23 550.08,-18.65 559.18,-24.08 560.58,-17.23"/>
<text text-anchor="middle" x="655" y="-57" font-family="Helvetica,sans-Serif" font-size="10.00"> m_cache</text>
</g>
</g>
</svg>
