<?xml version="1.0" encoding="UTF-8" standalone="no"?>
<!DOCTYPE svg PUBLIC "-//W3C//DTD SVG 1.1//EN"
 "http://www.w3.org/Graphics/SVG/1.1/DTD/svg11.dtd">
<!-- Generated by graphviz version 2.43.0 (0)
 -->
<!-- Title: irr::scene::CAnimatedMeshSceneNode::setCurrentFrame Pages: 1 -->
<svg width="416pt" height="66pt"
 viewBox="0.00 0.00 416.00 66.00" xmlns="http://www.w3.org/2000/svg" xmlns:xlink="http://www.w3.org/1999/xlink">
<g id="graph0" class="graph" transform="scale(1 1) rotate(0) translate(4 62)">
<title>irr::scene::CAnimatedMeshSceneNode::setCurrentFrame</title>
<polygon fill="white" stroke="transparent" points="-4,4 -4,-62 412,-62 412,4 -4,4"/>
<!-- Node1 -->
<g id="node1" class="node">
<title>Node1</title>
<g id="a_node1"><a xlink:title="sets the current frame. from now on the animation is played from this frame.">
<polygon fill="#bfbfbf" stroke="black" points="0,-14 0,-44 159,-44 159,-14 0,-14"/>
<text text-anchor="start" x="8" y="-32" font-family="Helvetica,sans-Serif" font-size="10.00">irr::scene::CAnimatedMesh</text>
<text text-anchor="middle" x="79.5" y="-21" font-family="Helvetica,sans-Serif" font-size="10.00">SceneNode::setCurrentFrame</text>
</a>
</g>
</g>
<!-- Node2 -->
<g id="node2" class="node">
<title>Node2</title>
<g id="a_node2"><a xlink:href="namespaceirr_1_1core.html#a6162f685b68f629e77336081d3316969" target="_top" xlink:title="clamps a value between low and high">
<polygon fill="white" stroke="black" points="195,-19.5 195,-38.5 285,-38.5 285,-19.5 195,-19.5"/>
<text text-anchor="middle" x="240" y="-26.5" font-family="Helvetica,sans-Serif" font-size="10.00">irr::core::clamp</text>
</a>
</g>
</g>
<!-- Node1&#45;&gt;Node2 -->
<g id="edge1" class="edge">
<title>Node1&#45;&gt;Node2</title>
<path fill="none" stroke="midnightblue" d="M159.29,-29C167.92,-29 176.56,-29 184.79,-29"/>
<polygon fill="midnightblue" stroke="midnightblue" points="184.98,-32.5 194.98,-29 184.98,-25.5 184.98,-32.5"/>
</g>
<!-- Node3 -->
<g id="node3" class="node">
<title>Node3</title>
<g id="a_node3"><a xlink:href="namespaceirr_1_1core.html#afca1ce7ac54e0c31a9047947f4c7319b" target="_top" xlink:title="returns maximum of two values. Own implementation to get rid of the STL (VS6 problems)">
<polygon fill="white" stroke="black" points="321,-38.5 321,-57.5 408,-57.5 408,-38.5 321,-38.5"/>
<text text-anchor="middle" x="364.5" y="-45.5" font-family="Helvetica,sans-Serif" font-size="10.00">irr::core::max_</text>
</a>
</g>
</g>
<!-- Node2&#45;&gt;Node3 -->
<g id="edge2" class="edge">
<title>Node2&#45;&gt;Node3</title>
<path fill="none" stroke="midnightblue" d="M285.23,-35.86C293.6,-37.16 302.43,-38.53 311.03,-39.86"/>
<polygon fill="midnightblue" stroke="midnightblue" points="310.56,-43.33 320.98,-41.4 311.63,-36.41 310.56,-43.33"/>
</g>
<!-- Node4 -->
<g id="node4" class="node">
<title>Node4</title>
<g id="a_node4"><a xlink:href="namespaceirr_1_1core.html#a9d34bfdbbe9c136b01ae04974572bc11" target="_top" xlink:title="returns minimum of two values. Own implementation to get rid of the STL (VS6 problems)">
<polygon fill="white" stroke="black" points="322.5,-0.5 322.5,-19.5 406.5,-19.5 406.5,-0.5 322.5,-0.5"/>
<text text-anchor="middle" x="364.5" y="-7.5" font-family="Helvetica,sans-Serif" font-size="10.00">irr::core::min_</text>
</a>
</g>
</g>
<!-- Node2&#45;&gt;Node4 -->
<g id="edge3" class="edge">
<title>Node2&#45;&gt;Node4</title>
<path fill="none" stroke="midnightblue" d="M285.23,-22.14C293.99,-20.78 303.26,-19.34 312.23,-17.95"/>
<polygon fill="midnightblue" stroke="midnightblue" points="312.85,-21.4 322.2,-16.41 311.78,-14.48 312.85,-21.4"/>
</g>
</g>
</svg>
