<?xml version="1.0" encoding="UTF-8" standalone="no"?>
<!DOCTYPE svg PUBLIC "-//W3C//DTD SVG 1.1//EN"
 "http://www.w3.org/Graphics/SVG/1.1/DTD/svg11.dtd">
<!-- Generated by graphviz version 2.43.0 (0)
 -->
<!-- Title: AreaStore Pages: 1 -->
<!--zoomable 366 -->
<svg id="main" version="1.1" xmlns="http://www.w3.org/2000/svg" xmlns:xlink="http://www.w3.org/1999/xlink" xml:space="preserve" onload="init(evt)">
<style type="text/css"><![CDATA[
.edge:hover path { stroke: red; }
.edge:hover polygon { stroke: red; fill: red; }
]]></style>
<script type="text/javascript"><![CDATA[
var edges = document.getElementsByTagName('g');
if (edges && edges.length) {
  for (var i=0;i<edges.length;i++) {
    if (edges[i].id.substr(0,4)=='edge') {
      edges[i].setAttribute('class','edge');
    }
  }
}
]]></script>
        <defs>
                <circle id="rim" cx="0" cy="0" r="7"/>
                <circle id="rim2" cx="0" cy="0" r="3.5"/>
                <g id="zoomPlus">
                        <use xlink:href="#rim" fill="#404040">
                                <set attributeName="fill" to="#808080" begin="zoomplus.mouseover" end="zoomplus.mouseout"/>
                        </use>
                        <path d="M-4,0h8M0,-4v8" fill="none" stroke="white" stroke-width="1.5" pointer-events="none"/>
                </g>
                <g id="zoomMin">
                        <use xlink:href="#rim" fill="#404040">
                                <set attributeName="fill" to="#808080" begin="zoomminus.mouseover" end="zoomminus.mouseout"/>
                        </use>
                        <path d="M-4,0h8" fill="none" stroke="white" stroke-width="1.5" pointer-events="none"/>
                </g>
                <g id="dirArrow">
                        <path fill="none" stroke="white" stroke-width="1.5" d="M0,-3.0v7 M-2.5,-0.5L0,-3.0L2.5,-0.5"/>
                </g>
               <g id="resetDef">
                       <use xlink:href="#rim2" fill="#404040">
                               <set attributeName="fill" to="#808080" begin="reset.mouseover" end="reset.mouseout"/>
                       </use>
               </g>
        </defs>

<script type="text/javascript">
var viewWidth = 914;
var viewHeight = 366;
var sectionId = 'dynsection-1';
</script>
<script xlink:href="svgpan.js"/>
<svg id="graph" class="graph">
<g id="viewport">
<title>AreaStore</title>
<polygon fill="white" stroke="transparent" points="-4,4 -4,-362 910,-362 910,4 -4,4"/>
<!-- Node1 -->
<g id="node1" class="node">
<title>Node1</title>
<g id="a_node1"><a xlink:title=" ">
<polygon fill="#bfbfbf" stroke="black" points="841,-110.5 841,-129.5 906,-129.5 906,-110.5 841,-110.5"/>
<text text-anchor="middle" x="873.5" y="-117.5" font-family="Helvetica,sans-Serif" font-size="10.00">AreaStore</text>
</a>
</g>
</g>
<!-- Node2 -->
<g id="node2" class="node">
<title>Node2</title>
<g id="a_node2"><a xlink:title=" ">
<polygon fill="white" stroke="#bfbfbf" points="581,-184.5 581,-203.5 688,-203.5 688,-184.5 581,-184.5"/>
<text text-anchor="middle" x="634.5" y="-191.5" font-family="Helvetica,sans-Serif" font-size="10.00">map&lt; u32, Area &gt;</text>
</a>
</g>
</g>
<!-- Node2&#45;&gt;Node1 -->
<g id="edge1" class="edge">
<title>Node2&#45;&gt;Node1</title>
<path fill="none" stroke="#9a32cd" stroke-dasharray="5,2" d="M698.47,-184.97C735.64,-178.32 783.09,-167.52 823,-151 836.3,-145.49 850.08,-136.56 859.71,-129.69"/>
<polygon fill="#9a32cd" stroke="#9a32cd" points="697.53,-181.58 688.27,-186.74 698.72,-188.48 697.53,-181.58"/>
<text text-anchor="middle" x="768.5" y="-184" font-family="Helvetica,sans-Serif" font-size="10.00"> areas_map</text>
</g>
<!-- Node3 -->
<g id="node3" class="node">
<title>Node3</title>
<g id="a_node3"><a xlink:href="classLRUCache.html" target="_top" xlink:title=" ">
<polygon fill="white" stroke="black" points="573,-124.5 573,-165.5 696,-165.5 696,-124.5 573,-124.5"/>
<text text-anchor="start" x="581" y="-153.5" font-family="Helvetica,sans-Serif" font-size="10.00">LRUCache&lt; irr::core</text>
<text text-anchor="start" x="581" y="-142.5" font-family="Helvetica,sans-Serif" font-size="10.00">::vector3d, std::vector</text>
<text text-anchor="middle" x="634.5" y="-131.5" font-family="Helvetica,sans-Serif" font-size="10.00">&lt; Area * &gt; &gt;</text>
</a>
</g>
</g>
<!-- Node3&#45;&gt;Node1 -->
<g id="edge2" class="edge">
<title>Node3&#45;&gt;Node1</title>
<path fill="none" stroke="#9a32cd" stroke-dasharray="5,2" d="M706.19,-137.54C751,-132.82 806.78,-126.93 841,-123.32"/>
<polygon fill="#9a32cd" stroke="#9a32cd" points="705.8,-134.06 696.23,-138.59 706.54,-141.03 705.8,-134.06"/>
<text text-anchor="middle" x="768.5" y="-139" font-family="Helvetica,sans-Serif" font-size="10.00"> m_res_cache</text>
</g>
<!-- Node4 -->
<g id="node4" class="node">
<title>Node4</title>
<g id="a_node4"><a xlink:title=" ">
<polygon fill="white" stroke="#bfbfbf" points="46.5,-322.5 46.5,-341.5 91.5,-341.5 91.5,-322.5 46.5,-322.5"/>
<text text-anchor="middle" x="69" y="-329.5" font-family="Helvetica,sans-Serif" font-size="10.00">size_t</text>
</a>
</g>
</g>
<!-- Node4&#45;&gt;Node3 -->
<g id="edge3" class="edge">
<title>Node4&#45;&gt;Node3</title>
<path fill="none" stroke="#9a32cd" stroke-dasharray="5,2" d="M101.74,-337.65C188.18,-351.02 429.66,-374.74 555,-249 578.9,-225.03 551.86,-201.44 573,-175 575.78,-171.52 579.07,-168.41 582.66,-165.64"/>
<polygon fill="#9a32cd" stroke="#9a32cd" points="102.18,-334.17 91.75,-336.04 101.07,-341.08 102.18,-334.17"/>
<text text-anchor="middle" x="347" y="-350" font-family="Helvetica,sans-Serif" font-size="10.00"> m_limit</text>
</g>
<!-- Node9 -->
<g id="node9" class="node">
<title>Node9</title>
<g id="a_node9"><a xlink:href="classLRUCache.html" target="_top" xlink:title=" ">
<polygon fill="white" stroke="black" points="293,-224.5 293,-243.5 401,-243.5 401,-224.5 293,-224.5"/>
<text text-anchor="middle" x="347" y="-231.5" font-family="Helvetica,sans-Serif" font-size="10.00">LRUCache&lt; K, V &gt;</text>
</a>
</g>
</g>
<!-- Node4&#45;&gt;Node9 -->
<g id="edge9" class="edge">
<title>Node4&#45;&gt;Node9</title>
<path fill="none" stroke="#9a32cd" stroke-dasharray="5,2" d="M101.23,-324.51C147.09,-313.34 230.31,-292.44 259,-281 285.31,-270.51 313.85,-254.02 330.81,-243.62"/>
<polygon fill="#9a32cd" stroke="#9a32cd" points="100.4,-321.11 91.51,-326.86 102.05,-327.91 100.4,-321.11"/>
<text text-anchor="middle" x="207.5" y="-312" font-family="Helvetica,sans-Serif" font-size="10.00"> m_limit</text>
</g>
<!-- Node5 -->
<g id="node5" class="node">
<title>Node5</title>
<g id="a_node5"><a xlink:title=" ">
<polygon fill="white" stroke="#bfbfbf" points="277,-60.5 277,-79.5 417,-79.5 417,-60.5 277,-60.5"/>
<text text-anchor="middle" x="347" y="-67.5" font-family="Helvetica,sans-Serif" font-size="10.00">list&lt; irr::core::vector3d &gt;</text>
</a>
</g>
</g>
<!-- Node5&#45;&gt;Node3 -->
<g id="edge4" class="edge">
<title>Node5&#45;&gt;Node3</title>
<path fill="none" stroke="#9a32cd" stroke-dasharray="5,2" d="M427.55,-63.42C468.07,-63.57 516.73,-69.38 555,-91 566.61,-97.56 562.75,-106.47 573,-115 577.06,-118.37 581.56,-121.49 586.22,-124.33"/>
<polygon fill="#9a32cd" stroke="#9a32cd" points="427.4,-59.92 417.43,-63.5 427.46,-66.92 427.4,-59.92"/>
<text text-anchor="middle" x="495" y="-94" font-family="Helvetica,sans-Serif" font-size="10.00"> m_queue</text>
</g>
<!-- Node6 -->
<g id="node6" class="node">
<title>Node6</title>
<g id="a_node6"><a xlink:title=" ">
<polygon fill="white" stroke="#bfbfbf" points="4.5,-166 4.5,-196 133.5,-196 133.5,-166 4.5,-166"/>
<text text-anchor="start" x="12.5" y="-184" font-family="Helvetica,sans-Serif" font-size="10.00">void(*)(void *data,</text>
<text text-anchor="middle" x="69" y="-173" font-family="Helvetica,sans-Serif" font-size="10.00"> const K &amp;key, V *dest)</text>
</a>
</g>
</g>
<!-- Node6&#45;&gt;Node3 -->
<g id="edge5" class="edge">
<title>Node6&#45;&gt;Node3</title>
<path fill="none" stroke="#9a32cd" stroke-dasharray="5,2" d="M143.76,-178.72C238.93,-175.4 409.56,-168.14 555,-155 560.75,-154.48 566.72,-153.86 572.69,-153.19"/>
<polygon fill="#9a32cd" stroke="#9a32cd" points="143.53,-175.23 133.66,-179.07 143.78,-182.23 143.53,-175.23"/>
<text text-anchor="middle" x="347" y="-176" font-family="Helvetica,sans-Serif" font-size="10.00"> m_cache_miss</text>
</g>
<!-- Node6&#45;&gt;Node9 -->
<g id="edge11" class="edge">
<title>Node6&#45;&gt;Node9</title>
<path fill="none" stroke="#9a32cd" stroke-dasharray="5,2" d="M143.76,-195.16C192.07,-204.44 253.91,-216.32 296.41,-224.48"/>
<polygon fill="#9a32cd" stroke="#9a32cd" points="144.15,-191.67 133.67,-193.23 142.83,-198.55 144.15,-191.67"/>
<text text-anchor="middle" x="207.5" y="-219" font-family="Helvetica,sans-Serif" font-size="10.00"> m_cache_miss</text>
</g>
<!-- Node7 -->
<g id="node7" class="node">
<title>Node7</title>
<g id="a_node7"><a xlink:title=" ">
<polygon fill="white" stroke="#bfbfbf" points="286.5,-0.5 286.5,-41.5 407.5,-41.5 407.5,-0.5 286.5,-0.5"/>
<text text-anchor="start" x="294.5" y="-29.5" font-family="Helvetica,sans-Serif" font-size="10.00">template map&lt; irr::</text>
<text text-anchor="start" x="294.5" y="-18.5" font-family="Helvetica,sans-Serif" font-size="10.00">core::vector3d, cache</text>
<text text-anchor="middle" x="347" y="-7.5" font-family="Helvetica,sans-Serif" font-size="10.00">_entry_t &gt;</text>
</a>
</g>
</g>
<!-- Node7&#45;&gt;Node3 -->
<g id="edge6" class="edge">
<title>Node7&#45;&gt;Node3</title>
<path fill="none" stroke="#9a32cd" stroke-dasharray="5,2" d="M417.9,-12.24C462.26,-10.67 518.05,-16.63 555,-49 577.87,-69.04 553.68,-91.52 573,-115 575.9,-118.53 579.33,-121.68 583.05,-124.49"/>
<polygon fill="#9a32cd" stroke="#9a32cd" points="417.57,-8.76 407.75,-12.74 417.91,-15.75 417.57,-8.76"/>
<text text-anchor="middle" x="495" y="-52" font-family="Helvetica,sans-Serif" font-size="10.00"> m_map</text>
</g>
<!-- Node8 -->
<g id="node8" class="node">
<title>Node8</title>
<g id="a_node8"><a xlink:title=" ">
<polygon fill="white" stroke="#bfbfbf" points="46,-120.5 46,-139.5 92,-139.5 92,-120.5 46,-120.5"/>
<text text-anchor="middle" x="69" y="-127.5" font-family="Helvetica,sans-Serif" font-size="10.00">void *</text>
</a>
</g>
</g>
<!-- Node8&#45;&gt;Node3 -->
<g id="edge7" class="edge">
<title>Node8&#45;&gt;Node3</title>
<path fill="none" stroke="#9a32cd" stroke-dasharray="5,2" d="M102.35,-130.86C193.55,-133.29 453.79,-140.22 572.79,-143.38"/>
<polygon fill="#9a32cd" stroke="#9a32cd" points="102.18,-127.36 92.09,-130.59 101.99,-134.35 102.18,-127.36"/>
<text text-anchor="middle" x="347" y="-142" font-family="Helvetica,sans-Serif" font-size="10.00"> m_cache_miss_data</text>
</g>
<!-- Node8&#45;&gt;Node9 -->
<g id="edge13" class="edge">
<title>Node8&#45;&gt;Node9</title>
<path fill="none" stroke="#9a32cd" stroke-dasharray="5,2" d="M102.21,-136.38C140.53,-144.57 205.96,-160.46 259,-183 286.23,-194.57 315.42,-213.09 332.12,-224.34"/>
<polygon fill="#9a32cd" stroke="#9a32cd" points="102.67,-132.9 92.16,-134.28 101.23,-139.75 102.67,-132.9"/>
<text text-anchor="middle" x="207.5" y="-186" font-family="Helvetica,sans-Serif" font-size="10.00"> m_cache_miss_data</text>
</g>
<!-- Node9&#45;&gt;Node3 -->
<g id="edge8" class="edge">
<title>Node9&#45;&gt;Node3</title>
<path fill="none" stroke="orange" stroke-dasharray="5,2" d="M411.27,-227.67C453.51,-221.69 509.45,-210.31 555,-189 564.18,-184.71 564.42,-180.39 573,-175 578.16,-171.76 583.72,-168.6 589.31,-165.61"/>
<polygon fill="orange" stroke="orange" points="410.56,-224.24 401.12,-229.04 411.49,-231.17 410.56,-224.24"/>
<text text-anchor="start" x="435" y="-237" font-family="Helvetica,sans-Serif" font-size="10.00"> &lt; irr::core::vector3d,</text>
<text text-anchor="middle" x="495" y="-226" font-family="Helvetica,sans-Serif" font-size="10.00"> std::vector&lt; Area * &gt; &gt;</text>
</g>
<!-- Node10 -->
<g id="node10" class="node">
<title>Node10</title>
<g id="a_node10"><a xlink:title=" ">
<polygon fill="white" stroke="#bfbfbf" points="38.5,-226.5 38.5,-245.5 99.5,-245.5 99.5,-226.5 38.5,-226.5"/>
<text text-anchor="middle" x="69" y="-233.5" font-family="Helvetica,sans-Serif" font-size="10.00">list&lt; K &gt;</text>
</a>
</g>
</g>
<!-- Node10&#45;&gt;Node9 -->
<g id="edge10" class="edge">
<title>Node10&#45;&gt;Node9</title>
<path fill="none" stroke="#9a32cd" stroke-dasharray="5,2" d="M109.58,-235.71C157.75,-235.36 239.29,-234.77 292.89,-234.38"/>
<polygon fill="#9a32cd" stroke="#9a32cd" points="109.51,-232.21 99.54,-235.79 109.56,-239.21 109.51,-232.21"/>
<text text-anchor="middle" x="207.5" y="-238" font-family="Helvetica,sans-Serif" font-size="10.00"> m_queue</text>
</g>
<!-- Node11 -->
<g id="node11" class="node">
<title>Node11</title>
<g id="a_node11"><a xlink:title=" ">
<polygon fill="white" stroke="#bfbfbf" points="0,-265 0,-295 138,-295 138,-265 0,-265"/>
<text text-anchor="start" x="8" y="-283" font-family="Helvetica,sans-Serif" font-size="10.00">template map&lt; K, cache</text>
<text text-anchor="middle" x="69" y="-272" font-family="Helvetica,sans-Serif" font-size="10.00">_entry_t &gt;</text>
</a>
</g>
</g>
<!-- Node11&#45;&gt;Node9 -->
<g id="edge12" class="edge">
<title>Node11&#45;&gt;Node9</title>
<path fill="none" stroke="#9a32cd" stroke-dasharray="5,2" d="M148.2,-268.03C182.26,-262.7 222.64,-256.23 259,-250 270.81,-247.98 283.5,-245.7 295.43,-243.52"/>
<polygon fill="#9a32cd" stroke="#9a32cd" points="147.64,-264.57 138.3,-269.57 148.72,-271.49 147.64,-264.57"/>
<text text-anchor="middle" x="207.5" y="-269" font-family="Helvetica,sans-Serif" font-size="10.00"> m_map</text>
</g>
<!-- Node12 -->
<g id="node12" class="node">
<title>Node12</title>
<g id="a_node12"><a xlink:title=" ">
<polygon fill="white" stroke="#bfbfbf" points="620,-86.5 620,-105.5 649,-105.5 649,-86.5 620,-86.5"/>
<text text-anchor="middle" x="634.5" y="-93.5" font-family="Helvetica,sans-Serif" font-size="10.00">u8</text>
</a>
</g>
</g>
<!-- Node12&#45;&gt;Node1 -->
<g id="edge14" class="edge">
<title>Node12&#45;&gt;Node1</title>
<path fill="none" stroke="#9a32cd" stroke-dasharray="5,2" d="M659.7,-95.27C695.62,-94.62 765.04,-94.99 823,-105 830.34,-106.27 838.13,-108.29 845.3,-110.45"/>
<polygon fill="#9a32cd" stroke="#9a32cd" points="659.19,-91.78 649.27,-95.51 659.35,-98.78 659.19,-91.78"/>
<text text-anchor="middle" x="768.5" y="-108" font-family="Helvetica,sans-Serif" font-size="10.00"> m_cacheblock_radius</text>
</g>
<!-- Node13 -->
<g id="node13" class="node">
<title>Node13</title>
<g id="a_node13"><a xlink:href="classbool.html" target="_top" xlink:title=" ">
<polygon fill="white" stroke="black" points="615.5,-48.5 615.5,-67.5 653.5,-67.5 653.5,-48.5 615.5,-48.5"/>
<text text-anchor="middle" x="634.5" y="-55.5" font-family="Helvetica,sans-Serif" font-size="10.00">bool</text>
</a>
</g>
</g>
<!-- Node13&#45;&gt;Node1 -->
<g id="edge15" class="edge">
<title>Node13&#45;&gt;Node1</title>
<path fill="none" stroke="#9a32cd" stroke-dasharray="5,2" d="M663.92,-56.54C701.77,-55.64 770.07,-57.73 823,-80 839.29,-86.86 854.56,-100.77 863.71,-110.24"/>
<polygon fill="#9a32cd" stroke="#9a32cd" points="663.53,-53.05 653.65,-56.87 663.76,-60.04 663.53,-53.05"/>
<text text-anchor="middle" x="768.5" y="-83" font-family="Helvetica,sans-Serif" font-size="10.00"> m_cache_enabled</text>
</g>
</g>
</svg>
        <g id="navigator" transform="translate(0 0)" fill="#404254">
                <rect fill="#f2f5e9" fill-opacity="0.5" stroke="#606060" stroke-width=".5" x="0" y="0" width="60" height="60"/>
                <use id="zoomplus" xlink:href="#zoomPlus" x="17" y="9" onmousedown="handleZoom(evt,'in')"/>
                <use id="zoomminus" xlink:href="#zoomMin" x="42" y="9" onmousedown="handleZoom(evt,'out')"/>
                <use id="reset" xlink:href="#resetDef" x="30" y="36" onmousedown="handleReset()"/>
                <g id="arrowUp" xlink:href="#dirArrow" transform="translate(30 24)" onmousedown="handlePan(0,-1)">
                  <use xlink:href="#rim" fill="#404040">
                        <set attributeName="fill" to="#808080" begin="arrowUp.mouseover" end="arrowUp.mouseout"/>
                  </use>
                  <path fill="none" stroke="white" stroke-width="1.5" d="M0,-3.0v7 M-2.5,-0.5L0,-3.0L2.5,-0.5"/>
                </g>
                <g id="arrowRight" xlink:href="#dirArrow" transform="rotate(90) translate(36 -43)" onmousedown="handlePan(1,0)">
                  <use xlink:href="#rim" fill="#404040">
                        <set attributeName="fill" to="#808080" begin="arrowRight.mouseover" end="arrowRight.mouseout"/>
                  </use>
                  <path fill="none" stroke="white" stroke-width="1.5" d="M0,-3.0v7 M-2.5,-0.5L0,-3.0L2.5,-0.5"/>
                </g>
                <g id="arrowDown" xlink:href="#dirArrow" transform="rotate(180) translate(-30 -48)" onmousedown="handlePan(0,1)">
                  <use xlink:href="#rim" fill="#404040">
                        <set attributeName="fill" to="#808080" begin="arrowDown.mouseover" end="arrowDown.mouseout"/>
                  </use>
                  <path fill="none" stroke="white" stroke-width="1.5" d="M0,-3.0v7 M-2.5,-0.5L0,-3.0L2.5,-0.5"/>
                </g>
                <g id="arrowLeft" xlink:href="#dirArrow" transform="rotate(270) translate(-36 17)" onmousedown="handlePan(-1,0)">
                  <use xlink:href="#rim" fill="#404040">
                        <set attributeName="fill" to="#808080" begin="arrowLeft.mouseover" end="arrowLeft.mouseout"/>
                  </use>
                  <path fill="none" stroke="white" stroke-width="1.5" d="M0,-3.0v7 M-2.5,-0.5L0,-3.0L2.5,-0.5"/>
                </g>
        </g>
        <svg viewBox="0 0 15 15" width="100%" height="30px" preserveAspectRatio="xMaxYMin meet">
         <g id="arrow_out" transform="scale(0.3 0.3)">
          <a xlink:href="classAreaStore__coll__graph_org.svg" target="_base">
           <rect id="button" ry="5" rx="5" y="6" x="6" height="38" width="38"
                fill="#f2f5e9" fill-opacity="0.5" stroke="#606060" stroke-width="1.0"/>
           <path id="arrow"
             d="M 11.500037,31.436501 C 11.940474,20.09759 22.043105,11.32322 32.158766,21.979434 L 37.068811,17.246167 C 37.068811,17.246167 37.088388,32 37.088388,32 L 22.160133,31.978069 C 22.160133,31.978069 26.997745,27.140456 26.997745,27.140456 C 18.528582,18.264221 13.291696,25.230495 11.500037,31.436501 z"
             style="fill:#404040;"/>
          </a>
         </g>
        </svg>
</svg>
