<?xml version="1.0" encoding="UTF-8" standalone="no"?>
<!DOCTYPE svg PUBLIC "-//W3C//DTD SVG 1.1//EN"
 "http://www.w3.org/Graphics/SVG/1.1/DTD/svg11.dtd">
<!-- Generated by graphviz version 2.43.0 (0)
 -->
<!-- Title: irr::core::ustring16::insert Pages: 1 -->
<svg width="296pt" height="198pt"
 viewBox="0.00 0.00 296.00 198.00" xmlns="http://www.w3.org/2000/svg" xmlns:xlink="http://www.w3.org/1999/xlink">
<g id="graph0" class="graph" transform="scale(1 1) rotate(0) translate(4 194)">
<title>irr::core::ustring16::insert</title>
<polygon fill="white" stroke="transparent" points="-4,4 -4,-194 292,-194 292,4 -4,4"/>
<!-- Node1 -->
<g id="node1" class="node">
<title>Node1</title>
<g id="a_node1"><a xlink:title=" ">
<polygon fill="#bfbfbf" stroke="black" points="0,-76.5 0,-106.5 106,-106.5 106,-76.5 0,-76.5"/>
<text text-anchor="start" x="8" y="-94.5" font-family="Helvetica,sans-Serif" font-size="10.00">irr::core::ustring16</text>
<text text-anchor="middle" x="53" y="-83.5" font-family="Helvetica,sans-Serif" font-size="10.00">::insert</text>
</a>
</g>
</g>
<!-- Node2 -->
<g id="node2" class="node">
<title>Node2</title>
<g id="a_node2"><a xlink:href="classirr_1_1core_1_1ustring16.html#a13d082695b759bb889795470890ab5be" target="_top" xlink:title=" ">
<polygon fill="white" stroke="black" points="162,-159.5 162,-189.5 268,-189.5 268,-159.5 162,-159.5"/>
<text text-anchor="start" x="170" y="-177.5" font-family="Helvetica,sans-Serif" font-size="10.00">irr::core::ustring16</text>
<text text-anchor="middle" x="215" y="-166.5" font-family="Helvetica,sans-Serif" font-size="10.00">::c_str</text>
</a>
</g>
</g>
<!-- Node1&#45;&gt;Node2 -->
<g id="edge1" class="edge">
<title>Node1&#45;&gt;Node2</title>
<path fill="none" stroke="midnightblue" d="M73.76,-106.6C91.06,-119.29 117.22,-137.27 142,-149.5 146.37,-151.66 150.97,-153.71 155.64,-155.64"/>
<polygon fill="midnightblue" stroke="midnightblue" points="154.71,-159.04 165.3,-159.44 157.28,-152.52 154.71,-159.04"/>
</g>
<!-- Node3 -->
<g id="node3" class="node">
<title>Node3</title>
<g id="a_node3"><a xlink:href="classirr_1_1core_1_1ustring16_1_1__ustring16__const__iterator.html#a5d69f930d75f01c8b0d4f80ccda661a2" target="_top" xlink:title=" ">
<polygon fill="white" stroke="black" points="142,-99 142,-140 288,-140 288,-99 142,-99"/>
<text text-anchor="start" x="150" y="-128" font-family="Helvetica,sans-Serif" font-size="10.00">irr::core::ustring16</text>
<text text-anchor="start" x="150" y="-117" font-family="Helvetica,sans-Serif" font-size="10.00">::_ustring16_const_iterator</text>
<text text-anchor="middle" x="215" y="-106" font-family="Helvetica,sans-Serif" font-size="10.00">::getPos</text>
</a>
</g>
</g>
<!-- Node1&#45;&gt;Node3 -->
<g id="edge2" class="edge">
<title>Node1&#45;&gt;Node3</title>
<path fill="none" stroke="midnightblue" d="M106.39,-100.67C114.51,-102.09 123.07,-103.59 131.66,-105.09"/>
<polygon fill="midnightblue" stroke="midnightblue" points="131.28,-108.58 141.74,-106.85 132.49,-101.68 131.28,-108.58"/>
</g>
<!-- Node4 -->
<g id="node4" class="node">
<title>Node4</title>
<g id="a_node4"><a xlink:href="classirr_1_1core_1_1ustring16.html#aed4535dda4bb841389071c473db1ebe9" target="_top" xlink:title=" ">
<polygon fill="white" stroke="black" points="162,-49.5 162,-79.5 268,-79.5 268,-49.5 162,-49.5"/>
<text text-anchor="start" x="170" y="-67.5" font-family="Helvetica,sans-Serif" font-size="10.00">irr::core::ustring16</text>
<text text-anchor="middle" x="215" y="-56.5" font-family="Helvetica,sans-Serif" font-size="10.00">::reallocate</text>
</a>
</g>
</g>
<!-- Node1&#45;&gt;Node4 -->
<g id="edge3" class="edge">
<title>Node1&#45;&gt;Node4</title>
<path fill="none" stroke="midnightblue" d="M106.39,-82.66C120.83,-80.22 136.64,-77.55 151.58,-75.03"/>
<polygon fill="midnightblue" stroke="midnightblue" points="152.49,-78.43 161.77,-73.31 151.32,-71.53 152.49,-78.43"/>
</g>
<!-- Node5 -->
<g id="node5" class="node">
<title>Node5</title>
<g id="a_node5"><a xlink:href="classirr_1_1core_1_1ustring16.html#a6ccdb1699994dcf50ff8f3db0cfb2686" target="_top" xlink:title=" ">
<polygon fill="white" stroke="black" points="162,-0.5 162,-30.5 268,-30.5 268,-0.5 162,-0.5"/>
<text text-anchor="start" x="170" y="-18.5" font-family="Helvetica,sans-Serif" font-size="10.00">irr::core::ustring16</text>
<text text-anchor="middle" x="215" y="-7.5" font-family="Helvetica,sans-Serif" font-size="10.00">::size_raw</text>
</a>
</g>
</g>
<!-- Node1&#45;&gt;Node5 -->
<g id="edge4" class="edge">
<title>Node1&#45;&gt;Node5</title>
<path fill="none" stroke="midnightblue" d="M77.25,-76.38C94.62,-65.5 119.21,-50.95 142,-40.5 146.69,-38.35 151.62,-36.27 156.62,-34.3"/>
<polygon fill="midnightblue" stroke="midnightblue" points="158.14,-37.47 166.24,-30.64 155.65,-30.92 158.14,-37.47"/>
</g>
</g>
</svg>
