<?xml version="1.0" encoding="UTF-8" standalone="no"?>
<!DOCTYPE svg PUBLIC "-//W3C//DTD SVG 1.1//EN"
 "http://www.w3.org/Graphics/SVG/1.1/DTD/svg11.dtd">
<!-- Generated by graphviz version 2.43.0 (0)
 -->
<!-- Title: GUIEngine::drawOverlay Pages: 1 -->
<svg width="307pt" height="88pt"
 viewBox="0.00 0.00 307.00 88.00" xmlns="http://www.w3.org/2000/svg" xmlns:xlink="http://www.w3.org/1999/xlink">
<g id="graph0" class="graph" transform="scale(1 1) rotate(0) translate(4 84)">
<title>GUIEngine::drawOverlay</title>
<polygon fill="white" stroke="transparent" points="-4,4 -4,-84 303,-84 303,4 -4,4"/>
<!-- Node1 -->
<g id="node1" class="node">
<title>Node1</title>
<g id="a_node1"><a xlink:title=" ">
<polygon fill="#bfbfbf" stroke="black" points="0,-30 0,-49 136,-49 136,-30 0,-30"/>
<text text-anchor="middle" x="68" y="-37" font-family="Helvetica,sans-Serif" font-size="10.00">GUIEngine::drawOverlay</text>
</a>
</g>
</g>
<!-- Node2 -->
<g id="node2" class="node">
<title>Node2</title>
<g id="a_node2"><a xlink:href="classirr_1_1video_1_1ITexture.html#a570e1eec61d7c71be2d7c2d570c05d76" target="_top" xlink:title="Get original size of the texture.">
<polygon fill="white" stroke="black" points="183,-49.5 183,-79.5 288,-79.5 288,-49.5 183,-49.5"/>
<text text-anchor="start" x="191" y="-67.5" font-family="Helvetica,sans-Serif" font-size="10.00">irr::video::ITexture</text>
<text text-anchor="middle" x="235.5" y="-56.5" font-family="Helvetica,sans-Serif" font-size="10.00">::getOriginalSize</text>
</a>
</g>
</g>
<!-- Node1&#45;&gt;Node2 -->
<g id="edge1" class="edge">
<title>Node1&#45;&gt;Node2</title>
<path fill="none" stroke="midnightblue" d="M132.04,-49.02C145.43,-51.05 159.56,-53.18 172.9,-55.19"/>
<polygon fill="midnightblue" stroke="midnightblue" points="172.51,-58.68 182.92,-56.71 173.56,-51.75 172.51,-58.68"/>
</g>
<!-- Node3 -->
<g id="node3" class="node">
<title>Node3</title>
<g id="a_node3"><a xlink:href="classirr_1_1video_1_1IVideoDriver.html#aa106dd9ff233497f9ea9a07dc6441c82" target="_top" xlink:title="Get the size of the screen or render window.">
<polygon fill="white" stroke="black" points="172,-0.5 172,-30.5 299,-30.5 299,-0.5 172,-0.5"/>
<text text-anchor="start" x="180" y="-18.5" font-family="Helvetica,sans-Serif" font-size="10.00">irr::video::IVideoDriver</text>
<text text-anchor="middle" x="235.5" y="-7.5" font-family="Helvetica,sans-Serif" font-size="10.00">::getScreenSize</text>
</a>
</g>
</g>
<!-- Node1&#45;&gt;Node3 -->
<g id="edge2" class="edge">
<title>Node1&#45;&gt;Node3</title>
<path fill="none" stroke="midnightblue" d="M134.89,-29.95C143.73,-28.66 152.84,-27.34 161.79,-26.04"/>
<polygon fill="midnightblue" stroke="midnightblue" points="162.41,-29.49 171.8,-24.59 161.4,-22.56 162.41,-29.49"/>
</g>
</g>
</svg>
