<?xml version="1.0" encoding="UTF-8" standalone="no"?>
<!DOCTYPE svg PUBLIC "-//W3C//DTD SVG 1.1//EN"
 "http://www.w3.org/Graphics/SVG/1.1/DTD/svg11.dtd">
<!-- Generated by graphviz version 2.43.0 (0)
 -->
<!-- Title: ClientActiveObject Pages: 1 -->
<svg width="303pt" height="140pt"
 viewBox="0.00 0.00 303.00 140.00" xmlns="http://www.w3.org/2000/svg" xmlns:xlink="http://www.w3.org/1999/xlink">
<g id="graph0" class="graph" transform="scale(1 1) rotate(0) translate(4 136)">
<title>ClientActiveObject</title>
<polygon fill="white" stroke="transparent" points="-4,4 -4,-136 299,-136 299,4 -4,4"/>
<!-- Node1 -->
<g id="node1" class="node">
<title>Node1</title>
<g id="a_node1"><a xlink:title=" ">
<polygon fill="#bfbfbf" stroke="black" points="68,-56.5 68,-75.5 175,-75.5 175,-56.5 68,-56.5"/>
<text text-anchor="middle" x="121.5" y="-63.5" font-family="Helvetica,sans-Serif" font-size="10.00">ClientActiveObject</text>
</a>
</g>
</g>
<!-- Node3 -->
<g id="node3" class="node">
<title>Node3</title>
<g id="a_node3"><a xlink:href="classGenericCAO.html" target="_top" xlink:title=" ">
<polygon fill="white" stroke="black" points="0,-0.5 0,-19.5 75,-19.5 75,-0.5 0,-0.5"/>
<text text-anchor="middle" x="37.5" y="-7.5" font-family="Helvetica,sans-Serif" font-size="10.00">GenericCAO</text>
</a>
</g>
</g>
<!-- Node1&#45;&gt;Node3 -->
<g id="edge2" class="edge">
<title>Node1&#45;&gt;Node3</title>
<path fill="none" stroke="midnightblue" d="M99.57,-50.9C84.16,-41 64.05,-28.07 50.96,-19.65"/>
<polygon fill="midnightblue" stroke="midnightblue" points="97.7,-53.86 108,-56.32 101.48,-47.97 97.7,-53.86"/>
</g>
<!-- Node4 -->
<g id="node4" class="node">
<title>Node4</title>
<g id="a_node4"><a xlink:href="classTestCAO.html" target="_top" xlink:title=" ">
<polygon fill="white" stroke="black" points="93,-0.5 93,-19.5 150,-19.5 150,-0.5 93,-0.5"/>
<text text-anchor="middle" x="121.5" y="-7.5" font-family="Helvetica,sans-Serif" font-size="10.00">TestCAO</text>
</a>
</g>
</g>
<!-- Node1&#45;&gt;Node4 -->
<g id="edge3" class="edge">
<title>Node1&#45;&gt;Node4</title>
<path fill="none" stroke="midnightblue" d="M121.5,-45.8C121.5,-36.91 121.5,-26.78 121.5,-19.75"/>
<polygon fill="midnightblue" stroke="midnightblue" points="118,-46.08 121.5,-56.08 125,-46.08 118,-46.08"/>
</g>
<!-- Node5 -->
<g id="node5" class="node">
<title>Node5</title>
<g id="a_node5"><a xlink:href="classTestClientActiveObject.html" target="_top" xlink:title=" ">
<polygon fill="white" stroke="black" points="168,-0.5 168,-19.5 295,-19.5 295,-0.5 168,-0.5"/>
<text text-anchor="middle" x="231.5" y="-7.5" font-family="Helvetica,sans-Serif" font-size="10.00">TestClientActiveObject</text>
</a>
</g>
</g>
<!-- Node1&#45;&gt;Node5 -->
<g id="edge4" class="edge">
<title>Node1&#45;&gt;Node5</title>
<path fill="none" stroke="midnightblue" d="M148.26,-51.86C168.66,-41.85 196.17,-28.35 213.87,-19.65"/>
<polygon fill="midnightblue" stroke="midnightblue" points="146.61,-48.78 139.17,-56.32 149.69,-55.06 146.61,-48.78"/>
</g>
<!-- Node2 -->
<g id="node2" class="node">
<title>Node2</title>
<g id="a_node2"><a xlink:href="classActiveObject.html" target="_top" xlink:title=" ">
<polygon fill="white" stroke="black" points="82,-112.5 82,-131.5 161,-131.5 161,-112.5 82,-112.5"/>
<text text-anchor="middle" x="121.5" y="-119.5" font-family="Helvetica,sans-Serif" font-size="10.00">ActiveObject</text>
</a>
</g>
</g>
<!-- Node2&#45;&gt;Node1 -->
<g id="edge1" class="edge">
<title>Node2&#45;&gt;Node1</title>
<path fill="none" stroke="midnightblue" d="M121.5,-101.8C121.5,-92.91 121.5,-82.78 121.5,-75.75"/>
<polygon fill="midnightblue" stroke="midnightblue" points="118,-102.08 121.5,-112.08 125,-102.08 118,-102.08"/>
</g>
</g>
</svg>
