<?xml version="1.0" encoding="UTF-8" standalone="no"?>
<!DOCTYPE svg PUBLIC "-//W3C//DTD SVG 1.1//EN"
 "http://www.w3.org/Graphics/SVG/1.1/DTD/svg11.dtd">
<!-- Generated by graphviz version 2.43.0 (0)
 -->
<!-- Title: ServerScripting Pages: 1 -->
<svg width="483pt" height="323pt"
 viewBox="0.00 0.00 483.00 323.24" xmlns="http://www.w3.org/2000/svg" xmlns:xlink="http://www.w3.org/1999/xlink">
<g id="graph0" class="graph" transform="scale(1 1) rotate(0) translate(4 319.24)">
<title>ServerScripting</title>
<polygon fill="white" stroke="transparent" points="-4,4 -4,-319.24 479,-319.24 479,4 -4,4"/>
<!-- Node1 -->
<g id="node1" class="node">
<title>Node1</title>
<g id="a_node1"><a xlink:title=" ">
<polygon fill="#bfbfbf" stroke="black" points="384,-152.5 384,-171.5 475,-171.5 475,-152.5 384,-152.5"/>
<text text-anchor="middle" x="429.5" y="-159.5" font-family="Helvetica,sans-Serif" font-size="10.00">ServerScripting</text>
</a>
</g>
</g>
<!-- Node2 -->
<g id="node2" class="node">
<title>Node2</title>
<g id="a_node2"><a xlink:href="classScriptApiBase.html" target="_top" xlink:title=" ">
<polygon fill="white" stroke="black" points="102,-171.5 102,-190.5 186,-190.5 186,-171.5 102,-171.5"/>
<text text-anchor="middle" x="144" y="-178.5" font-family="Helvetica,sans-Serif" font-size="10.00">ScriptApiBase</text>
</a>
</g>
</g>
<!-- Node2&#45;&gt;Node1 -->
<g id="edge1" class="edge">
<title>Node2&#45;&gt;Node1</title>
<path fill="none" stroke="midnightblue" d="M151.43,-200.2C161.59,-227.09 184.2,-274.92 222,-295 271.45,-321.27 299.22,-322.5 348,-295 396.67,-267.57 419.26,-197.54 426.13,-171.74"/>
<polygon fill="midnightblue" stroke="midnightblue" points="154.69,-198.95 148.03,-190.71 148.1,-201.31 154.69,-198.95"/>
</g>
<!-- Node4 -->
<g id="node4" class="node">
<title>Node4</title>
<g id="a_node4"><a xlink:href="classScriptApiDetached.html" target="_top" xlink:title=" ">
<polygon fill="white" stroke="black" points="231.5,-266.5 231.5,-285.5 338.5,-285.5 338.5,-266.5 231.5,-266.5"/>
<text text-anchor="middle" x="285" y="-273.5" font-family="Helvetica,sans-Serif" font-size="10.00">ScriptApiDetached</text>
</a>
</g>
</g>
<!-- Node2&#45;&gt;Node4 -->
<g id="edge4" class="edge">
<title>Node2&#45;&gt;Node4</title>
<path fill="none" stroke="midnightblue" d="M158.68,-198.79C172.79,-216.01 196.32,-241.67 222,-257 228.38,-260.81 235.59,-263.92 242.78,-266.43"/>
<polygon fill="midnightblue" stroke="midnightblue" points="161.16,-196.3 152.19,-190.66 155.69,-200.66 161.16,-196.3"/>
</g>
<!-- Node5 -->
<g id="node5" class="node">
<title>Node5</title>
<g id="a_node5"><a xlink:href="classScriptApiEntity.html" target="_top" xlink:title=" ">
<polygon fill="white" stroke="black" points="240.5,-228.5 240.5,-247.5 329.5,-247.5 329.5,-228.5 240.5,-228.5"/>
<text text-anchor="middle" x="285" y="-235.5" font-family="Helvetica,sans-Serif" font-size="10.00">ScriptApiEntity</text>
</a>
</g>
</g>
<!-- Node2&#45;&gt;Node5 -->
<g id="edge6" class="edge">
<title>Node2&#45;&gt;Node5</title>
<path fill="none" stroke="midnightblue" d="M171.36,-195.32C186.01,-202.95 204.72,-212.14 222,-219 230.68,-222.45 240.26,-225.66 249.22,-228.42"/>
<polygon fill="midnightblue" stroke="midnightblue" points="172.85,-192.15 162.37,-190.58 169.58,-198.34 172.85,-192.15"/>
</g>
<!-- Node6 -->
<g id="node6" class="node">
<title>Node6</title>
<g id="a_node6"><a xlink:href="classScriptApiEnv.html" target="_top" xlink:title=" ">
<polygon fill="white" stroke="black" points="246,-190.5 246,-209.5 324,-209.5 324,-190.5 246,-190.5"/>
<text text-anchor="middle" x="285" y="-197.5" font-family="Helvetica,sans-Serif" font-size="10.00">ScriptApiEnv</text>
</a>
</g>
</g>
<!-- Node2&#45;&gt;Node6 -->
<g id="edge8" class="edge">
<title>Node2&#45;&gt;Node6</title>
<path fill="none" stroke="midnightblue" d="M196.33,-188.02C212.74,-190.26 230.62,-192.7 245.92,-194.79"/>
<polygon fill="midnightblue" stroke="midnightblue" points="196.71,-184.54 186.33,-186.65 195.76,-191.47 196.71,-184.54"/>
</g>
<!-- Node7 -->
<g id="node7" class="node">
<title>Node7</title>
<g id="a_node7"><a xlink:href="classScriptApiModChannels.html" target="_top" xlink:title=" ">
<polygon fill="white" stroke="black" points="222,-152.5 222,-171.5 348,-171.5 348,-152.5 222,-152.5"/>
<text text-anchor="middle" x="285" y="-159.5" font-family="Helvetica,sans-Serif" font-size="10.00">ScriptApiModChannels</text>
</a>
</g>
</g>
<!-- Node2&#45;&gt;Node7 -->
<g id="edge10" class="edge">
<title>Node2&#45;&gt;Node7</title>
<path fill="none" stroke="midnightblue" d="M196.3,-173.99C204.66,-172.84 213.4,-171.65 221.99,-170.48"/>
<polygon fill="midnightblue" stroke="midnightblue" points="195.76,-170.53 186.33,-175.35 196.71,-177.46 195.76,-170.53"/>
</g>
<!-- Node10 -->
<g id="node10" class="node">
<title>Node10</title>
<g id="a_node10"><a xlink:href="classScriptApiPlayer.html" target="_top" xlink:title=" ">
<polygon fill="white" stroke="black" points="239.5,-114.5 239.5,-133.5 330.5,-133.5 330.5,-114.5 239.5,-114.5"/>
<text text-anchor="middle" x="285" y="-121.5" font-family="Helvetica,sans-Serif" font-size="10.00">ScriptApiPlayer</text>
</a>
</g>
</g>
<!-- Node2&#45;&gt;Node10 -->
<g id="edge14" class="edge">
<title>Node2&#45;&gt;Node10</title>
<path fill="none" stroke="midnightblue" d="M171.36,-166.68C186.01,-159.05 204.72,-149.86 222,-143 230.68,-139.55 240.26,-136.34 249.22,-133.58"/>
<polygon fill="midnightblue" stroke="midnightblue" points="169.58,-163.66 162.37,-171.42 172.85,-169.85 169.58,-163.66"/>
</g>
<!-- Node11 -->
<g id="node11" class="node">
<title>Node11</title>
<g id="a_node11"><a xlink:href="classScriptApiServer.html" target="_top" xlink:title=" ">
<polygon fill="white" stroke="black" points="239,-76.5 239,-95.5 331,-95.5 331,-76.5 239,-76.5"/>
<text text-anchor="middle" x="285" y="-83.5" font-family="Helvetica,sans-Serif" font-size="10.00">ScriptApiServer</text>
</a>
</g>
</g>
<!-- Node2&#45;&gt;Node11 -->
<g id="edge16" class="edge">
<title>Node2&#45;&gt;Node11</title>
<path fill="none" stroke="midnightblue" d="M158.68,-163.21C172.79,-145.99 196.32,-120.33 222,-105 228.38,-101.19 235.59,-98.08 242.78,-95.57"/>
<polygon fill="midnightblue" stroke="midnightblue" points="155.69,-161.34 152.19,-171.34 161.16,-165.7 155.69,-161.34"/>
</g>
<!-- Node12 -->
<g id="node12" class="node">
<title>Node12</title>
<g id="a_node12"><a xlink:href="classScriptApiSecurity.html" target="_top" xlink:title=" ">
<polygon fill="white" stroke="black" points="235,-38.5 235,-57.5 335,-57.5 335,-38.5 235,-38.5"/>
<text text-anchor="middle" x="285" y="-45.5" font-family="Helvetica,sans-Serif" font-size="10.00">ScriptApiSecurity</text>
</a>
</g>
</g>
<!-- Node2&#45;&gt;Node12 -->
<g id="edge18" class="edge">
<title>Node2&#45;&gt;Node12</title>
<path fill="none" stroke="midnightblue" d="M152.83,-162.17C164.31,-136.84 188.08,-92.1 222,-67 227.25,-63.12 233.3,-60.02 239.53,-57.55"/>
<polygon fill="midnightblue" stroke="midnightblue" points="149.58,-160.86 148.79,-171.43 156,-163.66 149.58,-160.86"/>
</g>
<!-- Node3 -->
<g id="node3" class="node">
<title>Node3</title>
<g id="a_node3"><a xlink:href="classLuaHelper.html" target="_top" xlink:title=" ">
<polygon fill="white" stroke="black" points="0,-171.5 0,-190.5 66,-190.5 66,-171.5 0,-171.5"/>
<text text-anchor="middle" x="33" y="-178.5" font-family="Helvetica,sans-Serif" font-size="10.00">LuaHelper</text>
</a>
</g>
</g>
<!-- Node3&#45;&gt;Node2 -->
<g id="edge2" class="edge">
<title>Node3&#45;&gt;Node2</title>
<path fill="none" stroke="darkgreen" d="M76.13,-181C84.56,-181 93.4,-181 101.8,-181"/>
<polygon fill="darkgreen" stroke="darkgreen" points="76.11,-177.5 66.11,-181 76.11,-184.5 76.11,-177.5"/>
</g>
<!-- Node4&#45;&gt;Node1 -->
<g id="edge3" class="edge">
<title>Node4&#45;&gt;Node1</title>
<path fill="none" stroke="midnightblue" d="M338.13,-262.51C341.58,-260.87 344.9,-259.04 348,-257 383.2,-233.81 411.48,-190.83 422.96,-171.66"/>
<polygon fill="midnightblue" stroke="midnightblue" points="336.68,-259.32 328.81,-266.42 339.39,-265.78 336.68,-259.32"/>
</g>
<!-- Node5&#45;&gt;Node1 -->
<g id="edge5" class="edge">
<title>Node5&#45;&gt;Node1</title>
<path fill="none" stroke="midnightblue" d="M333.63,-225.12C338.57,-223.28 343.44,-221.24 348,-219 374.9,-205.78 402.64,-184 417.5,-171.54"/>
<polygon fill="midnightblue" stroke="midnightblue" points="332.42,-221.83 324.12,-228.42 334.71,-228.45 332.42,-221.83"/>
</g>
<!-- Node6&#45;&gt;Node1 -->
<g id="edge7" class="edge">
<title>Node6&#45;&gt;Node1</title>
<path fill="none" stroke="midnightblue" d="M331.65,-187.83C351.36,-182.57 374.07,-176.51 392.55,-171.59"/>
<polygon fill="midnightblue" stroke="midnightblue" points="330.72,-184.45 321.96,-190.41 332.52,-191.22 330.72,-184.45"/>
</g>
<!-- Node7&#45;&gt;Node1 -->
<g id="edge9" class="edge">
<title>Node7&#45;&gt;Node1</title>
<path fill="none" stroke="midnightblue" d="M358.27,-162C366.95,-162 375.62,-162 383.75,-162"/>
<polygon fill="midnightblue" stroke="midnightblue" points="358.09,-158.5 348.09,-162 358.09,-165.5 358.09,-158.5"/>
</g>
<!-- Node8 -->
<g id="node8" class="node">
<title>Node8</title>
<g id="a_node8"><a xlink:href="structScriptApiNode.html" target="_top" xlink:title=" ">
<polygon fill="white" stroke="black" points="242,-0.5 242,-19.5 328,-19.5 328,-0.5 242,-0.5"/>
<text text-anchor="middle" x="285" y="-7.5" font-family="Helvetica,sans-Serif" font-size="10.00">ScriptApiNode</text>
</a>
</g>
</g>
<!-- Node8&#45;&gt;Node1 -->
<g id="edge11" class="edge">
<title>Node8&#45;&gt;Node1</title>
<path fill="none" stroke="midnightblue" d="M337.55,-22.44C341.26,-24.33 344.79,-26.5 348,-29 391.64,-63.01 417.01,-127.84 425.38,-152.32"/>
<polygon fill="midnightblue" stroke="midnightblue" points="338.64,-19.1 328.08,-18.32 335.85,-25.52 338.64,-19.1"/>
</g>
<!-- Node9 -->
<g id="node9" class="node">
<title>Node9</title>
<g id="a_node9"><a xlink:href="classes__DrawType.html" target="_top" xlink:title=" ">
<polygon fill="white" stroke="black" points="103.5,-0.5 103.5,-19.5 184.5,-19.5 184.5,-0.5 103.5,-0.5"/>
<text text-anchor="middle" x="144" y="-7.5" font-family="Helvetica,sans-Serif" font-size="10.00">es_DrawType</text>
</a>
</g>
</g>
<!-- Node9&#45;&gt;Node8 -->
<g id="edge12" class="edge">
<title>Node9&#45;&gt;Node8</title>
<path fill="none" stroke="midnightblue" d="M195.15,-10C210.42,-10 227.04,-10 241.74,-10"/>
<polygon fill="midnightblue" stroke="midnightblue" points="194.83,-6.5 184.83,-10 194.83,-13.5 194.83,-6.5"/>
</g>
<!-- Node10&#45;&gt;Node1 -->
<g id="edge13" class="edge">
<title>Node10&#45;&gt;Node1</title>
<path fill="none" stroke="midnightblue" d="M331.65,-136.17C351.36,-141.43 374.07,-147.49 392.55,-152.41"/>
<polygon fill="midnightblue" stroke="midnightblue" points="332.52,-132.78 321.96,-133.59 330.72,-139.55 332.52,-132.78"/>
</g>
<!-- Node11&#45;&gt;Node1 -->
<g id="edge15" class="edge">
<title>Node11&#45;&gt;Node1</title>
<path fill="none" stroke="midnightblue" d="M333.63,-98.88C338.57,-100.72 343.44,-102.76 348,-105 374.9,-118.22 402.64,-140 417.5,-152.46"/>
<polygon fill="midnightblue" stroke="midnightblue" points="334.71,-95.55 324.12,-95.58 332.42,-102.17 334.71,-95.55"/>
</g>
<!-- Node12&#45;&gt;Node1 -->
<g id="edge17" class="edge">
<title>Node12&#45;&gt;Node1</title>
<path fill="none" stroke="midnightblue" d="M338.13,-61.49C341.58,-63.13 344.9,-64.96 348,-67 383.2,-90.19 411.48,-133.17 422.96,-152.34"/>
<polygon fill="midnightblue" stroke="midnightblue" points="339.39,-58.22 328.81,-57.58 336.68,-64.68 339.39,-58.22"/>
</g>
</g>
</svg>
