<?xml version="1.0" encoding="UTF-8" standalone="no"?>
<!DOCTYPE svg PUBLIC "-//W3C//DTD SVG 1.1//EN"
 "http://www.w3.org/Graphics/SVG/1.1/DTD/svg11.dtd">
<!-- Generated by graphviz version 2.43.0 (0)
 -->
<!-- Title: irr::video::ITexture Pages: 1 -->
<svg width="481pt" height="88pt"
 viewBox="0.00 0.00 481.00 88.00" xmlns="http://www.w3.org/2000/svg" xmlns:xlink="http://www.w3.org/1999/xlink">
<g id="graph0" class="graph" transform="scale(1 1) rotate(0) translate(4 84)">
<title>irr::video::ITexture</title>
<polygon fill="white" stroke="transparent" points="-4,4 -4,-84 477,-84 477,4 -4,4"/>
<!-- Node1 -->
<g id="node1" class="node">
<title>Node1</title>
<g id="a_node1"><a xlink:title="Interface of a Video Driver dependent Texture.">
<polygon fill="#bfbfbf" stroke="black" points="162,-30 162,-49 267,-49 267,-30 162,-30"/>
<text text-anchor="middle" x="214.5" y="-37" font-family="Helvetica,sans-Serif" font-size="10.00">irr::video::ITexture</text>
</a>
</g>
</g>
<!-- Node3 -->
<g id="node3" class="node">
<title>Node3</title>
<g id="a_node3"><a xlink:href="structirr_1_1video_1_1CNullDriver_1_1SDummyTexture.html" target="_top" xlink:title=" ">
<polygon fill="white" stroke="black" points="327,-49.5 327,-79.5 449,-79.5 449,-49.5 327,-49.5"/>
<text text-anchor="start" x="335" y="-67.5" font-family="Helvetica,sans-Serif" font-size="10.00">irr::video::CNullDriver</text>
<text text-anchor="middle" x="388" y="-56.5" font-family="Helvetica,sans-Serif" font-size="10.00">::SDummyTexture</text>
</a>
</g>
</g>
<!-- Node1&#45;&gt;Node3 -->
<g id="edge2" class="edge">
<title>Node1&#45;&gt;Node3</title>
<path fill="none" stroke="midnightblue" d="M277.74,-48.57C293.74,-50.91 310.93,-53.41 326.83,-55.73"/>
<polygon fill="midnightblue" stroke="midnightblue" points="277.82,-45.05 267.42,-47.07 276.81,-51.97 277.82,-45.05"/>
</g>
<!-- Node4 -->
<g id="node4" class="node">
<title>Node4</title>
<g id="a_node4"><a xlink:href="classirr_1_1video_1_1COpenGLCoreTexture.html" target="_top" xlink:title=" ">
<polygon fill="white" stroke="black" points="303,-0.5 303,-30.5 473,-30.5 473,-0.5 303,-0.5"/>
<text text-anchor="start" x="311" y="-18.5" font-family="Helvetica,sans-Serif" font-size="10.00">irr::video::COpenGLCoreTexture</text>
<text text-anchor="middle" x="388" y="-7.5" font-family="Helvetica,sans-Serif" font-size="10.00">&lt; TOpenGLDriver &gt;</text>
</a>
</g>
</g>
<!-- Node1&#45;&gt;Node4 -->
<g id="edge3" class="edge">
<title>Node1&#45;&gt;Node4</title>
<path fill="none" stroke="midnightblue" d="M277.38,-30.84C285.69,-29.68 294.33,-28.47 302.94,-27.26"/>
<polygon fill="midnightblue" stroke="midnightblue" points="276.84,-27.38 267.42,-32.23 277.81,-34.31 276.84,-27.38"/>
</g>
<!-- Node2 -->
<g id="node2" class="node">
<title>Node2</title>
<g id="a_node2"><a xlink:href="classirr_1_1IReferenceCounted.html" target="_top" xlink:title="Base class of most objects of the Irrlicht Engine.">
<polygon fill="white" stroke="black" points="0,-30 0,-49 126,-49 126,-30 0,-30"/>
<text text-anchor="middle" x="63" y="-37" font-family="Helvetica,sans-Serif" font-size="10.00">irr::IReferenceCounted</text>
</a>
</g>
</g>
<!-- Node2&#45;&gt;Node1 -->
<g id="edge1" class="edge">
<title>Node2&#45;&gt;Node1</title>
<path fill="none" stroke="midnightblue" d="M136.2,-39.5C144.84,-39.5 153.52,-39.5 161.79,-39.5"/>
<polygon fill="midnightblue" stroke="midnightblue" points="136.1,-36 126.1,-39.5 136.1,-43 136.1,-36"/>
</g>
</g>
</svg>
