<?xml version="1.0" encoding="UTF-8" standalone="no"?>
<!DOCTYPE svg PUBLIC "-//W3C//DTD SVG 1.1//EN"
 "http://www.w3.org/Graphics/SVG/1.1/DTD/svg11.dtd">
<!-- Generated by graphviz version 2.43.0 (0)
 -->
<!-- Title: irr::gui::CGUITabControl::CGUITabControl Pages: 1 -->
<svg width="473pt" height="627pt"
 viewBox="0.00 0.00 473.00 627.00" xmlns="http://www.w3.org/2000/svg" xmlns:xlink="http://www.w3.org/1999/xlink">
<g id="graph0" class="graph" transform="scale(1 1) rotate(0) translate(4 623)">
<title>irr::gui::CGUITabControl::CGUITabControl</title>
<polygon fill="white" stroke="transparent" points="-4,4 -4,-623 469,-623 469,4 -4,4"/>
<!-- Node1 -->
<g id="node1" class="node">
<title>Node1</title>
<g id="a_node1"><a xlink:title="destructor">
<polygon fill="#bfbfbf" stroke="black" points="0,-294.5 0,-324.5 131,-324.5 131,-294.5 0,-294.5"/>
<text text-anchor="start" x="8" y="-312.5" font-family="Helvetica,sans-Serif" font-size="10.00">irr::gui::CGUITabControl</text>
<text text-anchor="middle" x="65.5" y="-301.5" font-family="Helvetica,sans-Serif" font-size="10.00">::CGUITabControl</text>
</a>
</g>
</g>
<!-- Node2 -->
<g id="node2" class="node">
<title>Node2</title>
<g id="a_node2"><a xlink:href="classirr_1_1gui_1_1IGUIEnvironment.html#a666749b7352a677c74acb242199e54a0" target="_top" xlink:title="Adds a button element.">
<polygon fill="white" stroke="black" points="169,-588.5 169,-618.5 306,-618.5 306,-588.5 169,-588.5"/>
<text text-anchor="start" x="177" y="-606.5" font-family="Helvetica,sans-Serif" font-size="10.00">irr::gui::IGUIEnvironment</text>
<text text-anchor="middle" x="237.5" y="-595.5" font-family="Helvetica,sans-Serif" font-size="10.00">::addButton</text>
</a>
</g>
</g>
<!-- Node1&#45;&gt;Node2 -->
<g id="edge1" class="edge">
<title>Node1&#45;&gt;Node2</title>
<path fill="none" stroke="midnightblue" d="M67.72,-324.76C72.18,-370.16 91.49,-505.77 167,-579.5 168.11,-580.59 169.28,-581.62 170.49,-582.62"/>
<polygon fill="midnightblue" stroke="midnightblue" points="168.8,-585.71 179.03,-588.5 172.78,-579.94 168.8,-585.71"/>
</g>
<!-- Node3 -->
<g id="node3" class="node">
<title>Node3</title>
<g id="a_node3"><a xlink:href="classirr_1_1gui_1_1IGUIEnvironment.html#a896fbfcbad5ccf187a835827b439da93" target="_top" xlink:title="Returns the default built&#45;in font.">
<polygon fill="white" stroke="black" points="169,-539.5 169,-569.5 306,-569.5 306,-539.5 169,-539.5"/>
<text text-anchor="start" x="177" y="-557.5" font-family="Helvetica,sans-Serif" font-size="10.00">irr::gui::IGUIEnvironment</text>
<text text-anchor="middle" x="237.5" y="-546.5" font-family="Helvetica,sans-Serif" font-size="10.00">::getBuiltInFont</text>
</a>
</g>
</g>
<!-- Node1&#45;&gt;Node3 -->
<g id="edge2" class="edge">
<title>Node1&#45;&gt;Node3</title>
<path fill="none" stroke="midnightblue" d="M69.1,-324.52C76.71,-364.05 102.62,-471.92 167,-530.5 168.3,-531.68 169.66,-532.8 171.07,-533.87"/>
<polygon fill="midnightblue" stroke="midnightblue" points="169.33,-536.92 179.63,-539.41 173.13,-531.04 169.33,-536.92"/>
</g>
<!-- Node4 -->
<g id="node4" class="node">
<title>Node4</title>
<g id="a_node4"><a xlink:href="classirr_1_1gui_1_1IGUISkin.html#ac48a8a0b6cdccacfa90a0fb23e4d9503" target="_top" xlink:title="returns size for the given size type">
<polygon fill="white" stroke="black" points="189.5,-490.5 189.5,-520.5 285.5,-520.5 285.5,-490.5 189.5,-490.5"/>
<text text-anchor="start" x="197.5" y="-508.5" font-family="Helvetica,sans-Serif" font-size="10.00">irr::gui::IGUISkin</text>
<text text-anchor="middle" x="237.5" y="-497.5" font-family="Helvetica,sans-Serif" font-size="10.00">::getSize</text>
</a>
</g>
</g>
<!-- Node1&#45;&gt;Node4 -->
<g id="edge3" class="edge">
<title>Node1&#45;&gt;Node4</title>
<path fill="none" stroke="midnightblue" d="M71.23,-324.54C82.42,-357.72 113.67,-437.73 167,-481.5 170.97,-484.76 175.41,-487.58 180.07,-490.03"/>
<polygon fill="midnightblue" stroke="midnightblue" points="178.69,-493.26 189.24,-494.3 181.64,-486.91 178.69,-493.26"/>
</g>
<!-- Node5 -->
<g id="node5" class="node">
<title>Node5</title>
<g id="a_node5"><a xlink:href="classirr_1_1gui_1_1IGUIEnvironment.html#a54ce9072ea7b89cdaea65306e93ba90c" target="_top" xlink:title="Returns pointer to the current gui skin.">
<polygon fill="white" stroke="black" points="169,-441.5 169,-471.5 306,-471.5 306,-441.5 169,-441.5"/>
<text text-anchor="start" x="177" y="-459.5" font-family="Helvetica,sans-Serif" font-size="10.00">irr::gui::IGUIEnvironment</text>
<text text-anchor="middle" x="237.5" y="-448.5" font-family="Helvetica,sans-Serif" font-size="10.00">::getSkin</text>
</a>
</g>
</g>
<!-- Node1&#45;&gt;Node5 -->
<g id="edge4" class="edge">
<title>Node1&#45;&gt;Node5</title>
<path fill="none" stroke="midnightblue" d="M75.01,-324.65C90.21,-350.41 124.48,-402.84 167,-432.5 169.15,-434 171.41,-435.42 173.74,-436.75"/>
<polygon fill="midnightblue" stroke="midnightblue" points="172.51,-440.05 183.01,-441.49 175.7,-433.82 172.51,-440.05"/>
</g>
<!-- Node6 -->
<g id="node6" class="node">
<title>Node6</title>
<g id="a_node6"><a xlink:href="classirr_1_1gui_1_1IGUISkin.html#a24d886480acfd238f6965adfc8a2a7d6" target="_top" xlink:title="returns the sprite bank">
<polygon fill="white" stroke="black" points="189.5,-392.5 189.5,-422.5 285.5,-422.5 285.5,-392.5 189.5,-392.5"/>
<text text-anchor="start" x="197.5" y="-410.5" font-family="Helvetica,sans-Serif" font-size="10.00">irr::gui::IGUISkin</text>
<text text-anchor="middle" x="237.5" y="-399.5" font-family="Helvetica,sans-Serif" font-size="10.00">::getSpriteBank</text>
</a>
</g>
</g>
<!-- Node1&#45;&gt;Node6 -->
<g id="edge5" class="edge">
<title>Node1&#45;&gt;Node6</title>
<path fill="none" stroke="midnightblue" d="M83.57,-324.6C102.75,-340.94 135.35,-366.88 167,-383.5 171.16,-385.68 175.56,-387.74 180.05,-389.65"/>
<polygon fill="midnightblue" stroke="midnightblue" points="178.74,-392.9 189.33,-393.38 181.35,-386.4 178.74,-392.9"/>
</g>
<!-- Node7 -->
<g id="node7" class="node">
<title>Node7</title>
<g id="a_node7"><a xlink:href="classirr_1_1IReferenceCounted.html#a396f9cdbe311ada278626477b3c6f0f5" target="_top" xlink:title="Grabs the object. Increments the reference counter by one.">
<polygon fill="white" stroke="black" points="174.5,-343.5 174.5,-373.5 300.5,-373.5 300.5,-343.5 174.5,-343.5"/>
<text text-anchor="start" x="182.5" y="-361.5" font-family="Helvetica,sans-Serif" font-size="10.00">irr::IReferenceCounted</text>
<text text-anchor="middle" x="237.5" y="-350.5" font-family="Helvetica,sans-Serif" font-size="10.00">::grab</text>
</a>
</g>
</g>
<!-- Node1&#45;&gt;Node7 -->
<g id="edge6" class="edge">
<title>Node1&#45;&gt;Node7</title>
<path fill="none" stroke="midnightblue" d="M118.89,-324.6C136.51,-329.68 156.32,-335.39 174.6,-340.66"/>
<polygon fill="midnightblue" stroke="midnightblue" points="173.7,-344.04 184.28,-343.45 175.64,-337.32 173.7,-344.04"/>
</g>
<!-- Node8 -->
<g id="node8" class="node">
<title>Node8</title>
<g id="a_node8"><a xlink:href="classirr_1_1gui_1_1IGUIElement.html#a1eb3d7ec13ebbf8c73859810088f666b" target="_top" xlink:title="The alignment defines how the borders of this element will be positioned when the parent element is r...">
<polygon fill="white" stroke="black" points="179.5,-294.5 179.5,-324.5 295.5,-324.5 295.5,-294.5 179.5,-294.5"/>
<text text-anchor="start" x="187.5" y="-312.5" font-family="Helvetica,sans-Serif" font-size="10.00">irr::gui::IGUIElement</text>
<text text-anchor="middle" x="237.5" y="-301.5" font-family="Helvetica,sans-Serif" font-size="10.00">::setAlignment</text>
</a>
</g>
</g>
<!-- Node1&#45;&gt;Node8 -->
<g id="edge7" class="edge">
<title>Node1&#45;&gt;Node8</title>
<path fill="none" stroke="midnightblue" d="M131.25,-309.5C143.64,-309.5 156.64,-309.5 169.11,-309.5"/>
<polygon fill="midnightblue" stroke="midnightblue" points="169.44,-313 179.44,-309.5 169.44,-306 169.44,-313"/>
</g>
<!-- Node11 -->
<g id="node11" class="node">
<title>Node11</title>
<g id="a_node11"><a xlink:href="classirr_1_1IReferenceCounted.html#a704c5042d399fe8cd3bdd65a0559002a" target="_top" xlink:title="Sets the debug name of the object.">
<polygon fill="white" stroke="black" points="174.5,-245.5 174.5,-275.5 300.5,-275.5 300.5,-245.5 174.5,-245.5"/>
<text text-anchor="start" x="182.5" y="-263.5" font-family="Helvetica,sans-Serif" font-size="10.00">irr::IReferenceCounted</text>
<text text-anchor="middle" x="237.5" y="-252.5" font-family="Helvetica,sans-Serif" font-size="10.00">::setDebugName</text>
</a>
</g>
</g>
<!-- Node1&#45;&gt;Node11 -->
<g id="edge10" class="edge">
<title>Node1&#45;&gt;Node11</title>
<path fill="none" stroke="midnightblue" d="M118.89,-294.4C136.51,-289.32 156.32,-283.61 174.6,-278.34"/>
<polygon fill="midnightblue" stroke="midnightblue" points="175.64,-281.68 184.28,-275.55 173.7,-274.96 175.64,-281.68"/>
</g>
<!-- Node12 -->
<g id="node12" class="node">
<title>Node12</title>
<g id="a_node12"><a xlink:href="classirr_1_1gui_1_1IGUIButton.html#ab63c3536bd2eb92e9ebec8ea3a381ec1" target="_top" xlink:title="Sets another skin independent font.">
<polygon fill="white" stroke="black" points="184,-196.5 184,-226.5 291,-226.5 291,-196.5 184,-196.5"/>
<text text-anchor="start" x="192" y="-214.5" font-family="Helvetica,sans-Serif" font-size="10.00">irr::gui::IGUIButton</text>
<text text-anchor="middle" x="237.5" y="-203.5" font-family="Helvetica,sans-Serif" font-size="10.00">::setOverrideFont</text>
</a>
</g>
</g>
<!-- Node1&#45;&gt;Node12 -->
<g id="edge11" class="edge">
<title>Node1&#45;&gt;Node12</title>
<path fill="none" stroke="midnightblue" d="M83.57,-294.4C102.75,-278.06 135.35,-252.12 167,-235.5 170.3,-233.77 173.76,-232.11 177.28,-230.55"/>
<polygon fill="midnightblue" stroke="midnightblue" points="178.85,-233.69 186.74,-226.62 176.16,-227.23 178.85,-233.69"/>
</g>
<!-- Node13 -->
<g id="node13" class="node">
<title>Node13</title>
<g id="a_node13"><a xlink:href="classirr_1_1gui_1_1IGUIButton.html#a0570cc64a1445866a0c8123c0209c83d" target="_top" xlink:title="Sets the sprite bank used by the button.">
<polygon fill="white" stroke="black" points="184,-147.5 184,-177.5 291,-177.5 291,-147.5 184,-147.5"/>
<text text-anchor="start" x="192" y="-165.5" font-family="Helvetica,sans-Serif" font-size="10.00">irr::gui::IGUIButton</text>
<text text-anchor="middle" x="237.5" y="-154.5" font-family="Helvetica,sans-Serif" font-size="10.00">::setSpriteBank</text>
</a>
</g>
</g>
<!-- Node1&#45;&gt;Node13 -->
<g id="edge12" class="edge">
<title>Node1&#45;&gt;Node13</title>
<path fill="none" stroke="midnightblue" d="M75.01,-294.35C90.21,-268.59 124.48,-216.16 167,-186.5 169.4,-184.82 171.94,-183.25 174.56,-181.79"/>
<polygon fill="midnightblue" stroke="midnightblue" points="176.36,-184.8 183.73,-177.18 173.22,-178.54 176.36,-184.8"/>
</g>
<!-- Node14 -->
<g id="node14" class="node">
<title>Node14</title>
<g id="a_node14"><a xlink:href="classirr_1_1gui_1_1IGUIElement.html#a50eb859808b65ee24fbdd69e69118a8d" target="_top" xlink:title="Sets whether this control was created as part of its parent.">
<polygon fill="white" stroke="black" points="179.5,-98.5 179.5,-128.5 295.5,-128.5 295.5,-98.5 179.5,-98.5"/>
<text text-anchor="start" x="187.5" y="-116.5" font-family="Helvetica,sans-Serif" font-size="10.00">irr::gui::IGUIElement</text>
<text text-anchor="middle" x="237.5" y="-105.5" font-family="Helvetica,sans-Serif" font-size="10.00">::setSubElement</text>
</a>
</g>
</g>
<!-- Node1&#45;&gt;Node14 -->
<g id="edge13" class="edge">
<title>Node1&#45;&gt;Node14</title>
<path fill="none" stroke="midnightblue" d="M71.23,-294.46C82.42,-261.28 113.67,-181.27 167,-137.5 168.55,-136.22 170.18,-135.02 171.86,-133.87"/>
<polygon fill="midnightblue" stroke="midnightblue" points="173.87,-136.75 180.69,-128.64 170.3,-130.73 173.87,-136.75"/>
</g>
<!-- Node15 -->
<g id="node15" class="node">
<title>Node15</title>
<g id="a_node15"><a xlink:href="classirr_1_1gui_1_1CGUITabControl.html#acf9b00e1e2aa48e0255f57faa42ba429" target="_top" xlink:title="Set the alignment of the tabs.">
<polygon fill="white" stroke="black" points="167,-49.5 167,-79.5 308,-79.5 308,-49.5 167,-49.5"/>
<text text-anchor="start" x="175" y="-67.5" font-family="Helvetica,sans-Serif" font-size="10.00">irr::gui::CGUITabControl</text>
<text text-anchor="middle" x="237.5" y="-56.5" font-family="Helvetica,sans-Serif" font-size="10.00">::setTabVerticalAlignment</text>
</a>
</g>
</g>
<!-- Node1&#45;&gt;Node15 -->
<g id="edge14" class="edge">
<title>Node1&#45;&gt;Node15</title>
<path fill="none" stroke="midnightblue" d="M69.1,-294.48C76.71,-254.95 102.62,-147.08 167,-88.5 168.3,-87.32 169.66,-86.2 171.07,-85.13"/>
<polygon fill="midnightblue" stroke="midnightblue" points="173.13,-87.96 179.63,-79.59 169.33,-82.08 173.13,-87.96"/>
</g>
<!-- Node16 -->
<g id="node16" class="node">
<title>Node16</title>
<g id="a_node16"><a xlink:href="classirr_1_1gui_1_1IGUIElement.html#aed537cb0b16c670b8f895179f0027bad" target="_top" xlink:title="Sets the visible state of this element.">
<polygon fill="white" stroke="black" points="179.5,-0.5 179.5,-30.5 295.5,-30.5 295.5,-0.5 179.5,-0.5"/>
<text text-anchor="start" x="187.5" y="-18.5" font-family="Helvetica,sans-Serif" font-size="10.00">irr::gui::IGUIElement</text>
<text text-anchor="middle" x="237.5" y="-7.5" font-family="Helvetica,sans-Serif" font-size="10.00">::setVisible</text>
</a>
</g>
</g>
<!-- Node1&#45;&gt;Node16 -->
<g id="edge15" class="edge">
<title>Node1&#45;&gt;Node16</title>
<path fill="none" stroke="midnightblue" d="M67.72,-294.24C72.18,-248.84 91.49,-113.23 167,-39.5 168.26,-38.27 169.58,-37.11 170.95,-36.01"/>
<polygon fill="midnightblue" stroke="midnightblue" points="173.05,-38.81 179.36,-30.31 169.12,-33.02 173.05,-38.81"/>
</g>
<!-- Node9 -->
<g id="node9" class="node">
<title>Node9</title>
<g id="a_node9"><a xlink:href="classirr_1_1gui_1_1IGUIElement.html#a6c5b94dd889533a306a03e25d0998bdf" target="_top" xlink:title="Gets the absolute rectangle of this element.">
<polygon fill="white" stroke="black" points="344.5,-316.5 344.5,-346.5 464.5,-346.5 464.5,-316.5 344.5,-316.5"/>
<text text-anchor="start" x="352.5" y="-334.5" font-family="Helvetica,sans-Serif" font-size="10.00">irr::gui::IGUIElement</text>
<text text-anchor="middle" x="404.5" y="-323.5" font-family="Helvetica,sans-Serif" font-size="10.00">::getAbsolutePosition</text>
</a>
</g>
</g>
<!-- Node8&#45;&gt;Node9 -->
<g id="edge8" class="edge">
<title>Node8&#45;&gt;Node9</title>
<path fill="none" stroke="midnightblue" d="M295.75,-317.13C308.16,-318.79 321.41,-320.56 334.23,-322.26"/>
<polygon fill="midnightblue" stroke="midnightblue" points="334.02,-325.77 344.39,-323.62 334.94,-318.83 334.02,-325.77"/>
</g>
<!-- Node10 -->
<g id="node10" class="node">
<title>Node10</title>
<g id="a_node10"><a xlink:href="classirr_1_1core_1_1rect.html#aa5e0bf0e6474c1603c735a63843833fa" target="_top" xlink:title="Get the dimensions of the rectangle.">
<polygon fill="white" stroke="black" points="344,-278 344,-297 465,-297 465,-278 344,-278"/>
<text text-anchor="middle" x="404.5" y="-285" font-family="Helvetica,sans-Serif" font-size="10.00">irr::core::rect::getSize</text>
</a>
</g>
</g>
<!-- Node8&#45;&gt;Node10 -->
<g id="edge9" class="edge">
<title>Node8&#45;&gt;Node10</title>
<path fill="none" stroke="midnightblue" d="M295.75,-301.87C308.01,-300.23 321.1,-298.49 333.78,-296.8"/>
<polygon fill="midnightblue" stroke="midnightblue" points="334.38,-300.25 343.83,-295.46 333.46,-293.31 334.38,-300.25"/>
</g>
</g>
</svg>
