<?xml version="1.0" encoding="UTF-8" standalone="no"?>
<!DOCTYPE svg PUBLIC "-//W3C//DTD SVG 1.1//EN"
 "http://www.w3.org/Graphics/SVG/1.1/DTD/svg11.dtd">
<!-- Generated by graphviz version 2.43.0 (0)
 -->
<!-- Title: TermLogOutput Pages: 1 -->
<svg width="482pt" height="340pt"
 viewBox="0.00 0.00 481.50 340.00" xmlns="http://www.w3.org/2000/svg" xmlns:xlink="http://www.w3.org/1999/xlink">
<g id="graph0" class="graph" transform="scale(1 1) rotate(0) translate(4 336)">
<title>TermLogOutput</title>
<polygon fill="white" stroke="transparent" points="-4,4 -4,-336 477.5,-336 477.5,4 -4,4"/>
<!-- Node1 -->
<g id="node1" class="node">
<title>Node1</title>
<g id="a_node1"><a xlink:title=" ">
<polygon fill="#bfbfbf" stroke="black" points="44.5,-0.5 44.5,-19.5 135.5,-19.5 135.5,-0.5 44.5,-0.5"/>
<text text-anchor="middle" x="90" y="-7.5" font-family="Helvetica,sans-Serif" font-size="10.00">TermLogOutput</text>
</a>
</g>
</g>
<!-- Node2 -->
<g id="node2" class="node">
<title>Node2</title>
<g id="a_node2"><a xlink:href="classILogOutput.html" target="_top" xlink:title=" ">
<polygon fill="white" stroke="black" points="39,-78.5 39,-97.5 109,-97.5 109,-78.5 39,-78.5"/>
<text text-anchor="middle" x="74" y="-85.5" font-family="Helvetica,sans-Serif" font-size="10.00">ILogOutput</text>
</a>
</g>
</g>
<!-- Node2&#45;&gt;Node1 -->
<g id="edge1" class="edge">
<title>Node2&#45;&gt;Node1</title>
<path fill="none" stroke="midnightblue" d="M77.95,-68.22C81.22,-52.7 85.71,-31.36 88.19,-19.62"/>
<polygon fill="midnightblue" stroke="midnightblue" points="74.47,-67.78 75.84,-78.28 81.32,-69.22 74.47,-67.78"/>
</g>
<!-- Node3 -->
<g id="node3" class="node">
<title>Node3</title>
<g id="a_node3"><a xlink:href="classMutexedQueue.html" target="_top" xlink:title=" ">
<polygon fill="white" stroke="black" points="127,-67.5 127,-108.5 249,-108.5 249,-67.5 127,-67.5"/>
<text text-anchor="start" x="135" y="-96.5" font-family="Helvetica,sans-Serif" font-size="10.00">MutexedQueue&lt; std::</text>
<text text-anchor="start" x="135" y="-85.5" font-family="Helvetica,sans-Serif" font-size="10.00">pair&lt; LogLevel, std</text>
<text text-anchor="middle" x="188" y="-74.5" font-family="Helvetica,sans-Serif" font-size="10.00">::string &gt; &gt;</text>
</a>
</g>
</g>
<!-- Node3&#45;&gt;Node1 -->
<g id="edge2" class="edge">
<title>Node3&#45;&gt;Node1</title>
<path fill="none" stroke="#9a32cd" stroke-dasharray="5,2" d="M154.74,-61.2C136.06,-46.72 113.98,-29.6 101.03,-19.55"/>
<polygon fill="#9a32cd" stroke="#9a32cd" points="152.72,-64.07 162.76,-67.43 157.01,-58.53 152.72,-64.07"/>
<text text-anchor="middle" x="156" y="-41" font-family="Helvetica,sans-Serif" font-size="10.00"> queue</text>
</g>
<!-- Node4 -->
<g id="node4" class="node">
<title>Node4</title>
<g id="a_node4"><a xlink:href="classSemaphore.html" target="_top" xlink:title=" ">
<polygon fill="white" stroke="black" points="194,-245.5 194,-264.5 266,-264.5 266,-245.5 194,-245.5"/>
<text text-anchor="middle" x="230" y="-252.5" font-family="Helvetica,sans-Serif" font-size="10.00">Semaphore</text>
</a>
</g>
</g>
<!-- Node4&#45;&gt;Node3 -->
<g id="edge3" class="edge">
<title>Node4&#45;&gt;Node3</title>
<path fill="none" stroke="#9a32cd" stroke-dasharray="5,2" d="M236.57,-235.84C244.72,-210.13 255.52,-162.33 238,-127 234.46,-119.87 228.88,-113.72 222.7,-108.56"/>
<polygon fill="#9a32cd" stroke="#9a32cd" points="233.23,-234.81 233.34,-245.41 239.86,-237.06 233.23,-234.81"/>
<text text-anchor="middle" x="271" y="-180" font-family="Helvetica,sans-Serif" font-size="10.00"> m_signal</text>
</g>
<!-- Node8 -->
<g id="node8" class="node">
<title>Node8</title>
<g id="a_node8"><a xlink:href="classMutexedQueue.html" target="_top" xlink:title=" ">
<polygon fill="white" stroke="black" points="69.5,-173 69.5,-192 188.5,-192 188.5,-173 69.5,-173"/>
<text text-anchor="middle" x="129" y="-180" font-family="Helvetica,sans-Serif" font-size="10.00">MutexedQueue&lt; T &gt;</text>
</a>
</g>
</g>
<!-- Node4&#45;&gt;Node8 -->
<g id="edge8" class="edge">
<title>Node4&#45;&gt;Node8</title>
<path fill="none" stroke="#9a32cd" stroke-dasharray="5,2" d="M208.62,-239.72C202.58,-235.64 196.01,-231.17 190,-227 172.9,-215.14 153.35,-201.11 141.09,-192.26"/>
<polygon fill="#9a32cd" stroke="#9a32cd" points="206.72,-242.66 216.97,-245.33 210.62,-236.85 206.72,-242.66"/>
<text text-anchor="middle" x="214" y="-219" font-family="Helvetica,sans-Serif" font-size="10.00"> m_signal</text>
</g>
<!-- Node5 -->
<g id="node5" class="node">
<title>Node5</title>
<g id="a_node5"><a xlink:title=" ">
<polygon fill="white" stroke="#bfbfbf" points="206.5,-312.5 206.5,-331.5 253.5,-331.5 253.5,-312.5 206.5,-312.5"/>
<text text-anchor="middle" x="230" y="-319.5" font-family="Helvetica,sans-Serif" font-size="10.00">sem_t</text>
</a>
</g>
</g>
<!-- Node5&#45;&gt;Node4 -->
<g id="edge4" class="edge">
<title>Node5&#45;&gt;Node4</title>
<path fill="none" stroke="#9a32cd" stroke-dasharray="5,2" d="M230,-302.04C230,-289.67 230,-274.12 230,-264.63"/>
<polygon fill="#9a32cd" stroke="#9a32cd" points="226.5,-302.23 230,-312.23 233.5,-302.23 226.5,-302.23"/>
<text text-anchor="middle" x="259" y="-286" font-family="Helvetica,sans-Serif" font-size="10.00"> semaphore</text>
</g>
<!-- Node6 -->
<g id="node6" class="node">
<title>Node6</title>
<g id="a_node6"><a xlink:title=" ">
<polygon fill="white" stroke="#bfbfbf" points="0,-245.5 0,-264.5 48,-264.5 48,-245.5 0,-245.5"/>
<text text-anchor="middle" x="24" y="-252.5" font-family="Helvetica,sans-Serif" font-size="10.00">mutex</text>
</a>
</g>
</g>
<!-- Node6&#45;&gt;Node3 -->
<g id="edge5" class="edge">
<title>Node6&#45;&gt;Node3</title>
<path fill="none" stroke="#9a32cd" stroke-dasharray="5,2" d="M14.37,-236.11C5.75,-217.38 -3.63,-187.85 10,-167 23.66,-146.1 81.02,-123.3 126.98,-107.77"/>
<polygon fill="#9a32cd" stroke="#9a32cd" points="11.35,-237.89 18.94,-245.28 17.61,-234.77 11.35,-237.89"/>
<text text-anchor="middle" x="35" y="-180" font-family="Helvetica,sans-Serif" font-size="10.00"> m_mutex</text>
</g>
<!-- Node6&#45;&gt;Node8 -->
<g id="edge9" class="edge">
<title>Node6&#45;&gt;Node8</title>
<path fill="none" stroke="#9a32cd" stroke-dasharray="5,2" d="M38.64,-237.55C45.57,-230.37 54.23,-222.19 63,-216 76.87,-206.2 94.15,-197.81 107.54,-192.01"/>
<polygon fill="#9a32cd" stroke="#9a32cd" points="35.64,-235.64 31.41,-245.35 40.77,-240.4 35.64,-235.64"/>
<text text-anchor="middle" x="88" y="-219" font-family="Helvetica,sans-Serif" font-size="10.00"> m_mutex</text>
</g>
<!-- Node7 -->
<g id="node7" class="node">
<title>Node7</title>
<g id="a_node7"><a xlink:title=" ">
<polygon fill="white" stroke="#bfbfbf" points="318.5,-167.5 318.5,-197.5 473.5,-197.5 473.5,-167.5 318.5,-167.5"/>
<text text-anchor="start" x="326.5" y="-185.5" font-family="Helvetica,sans-Serif" font-size="10.00">deque&lt; std::pair&lt; LogLevel,</text>
<text text-anchor="middle" x="396" y="-174.5" font-family="Helvetica,sans-Serif" font-size="10.00"> std::string &gt; &gt;</text>
</a>
</g>
</g>
<!-- Node7&#45;&gt;Node3 -->
<g id="edge6" class="edge">
<title>Node7&#45;&gt;Node3</title>
<path fill="none" stroke="#9a32cd" stroke-dasharray="5,2" d="M354.83,-163.19C319.31,-147.4 268.16,-124.65 231.88,-108.51"/>
<polygon fill="#9a32cd" stroke="#9a32cd" points="353.85,-166.59 364.41,-167.45 356.69,-160.19 353.85,-166.59"/>
<text text-anchor="middle" x="346.5" y="-135.5" font-family="Helvetica,sans-Serif" font-size="10.00"> m_queue</text>
</g>
<!-- Node8&#45;&gt;Node3 -->
<g id="edge7" class="edge">
<title>Node8&#45;&gt;Node3</title>
<path fill="none" stroke="orange" stroke-dasharray="5,2" d="M123.19,-162.83C120.86,-151.74 119.96,-137.79 126,-127 130.07,-119.73 136.16,-113.68 142.97,-108.71"/>
<polygon fill="orange" stroke="orange" points="119.87,-163.95 125.79,-172.74 126.63,-162.17 119.87,-163.95"/>
<text text-anchor="start" x="126" y="-141" font-family="Helvetica,sans-Serif" font-size="10.00"> &lt; std::pair&lt; LogLevel,</text>
<text text-anchor="middle" x="182" y="-130" font-family="Helvetica,sans-Serif" font-size="10.00"> std::string &gt; &gt;</text>
</g>
<!-- Node9 -->
<g id="node9" class="node">
<title>Node9</title>
<g id="a_node9"><a xlink:title=" ">
<polygon fill="white" stroke="#bfbfbf" points="79.5,-245.5 79.5,-264.5 154.5,-264.5 154.5,-245.5 79.5,-245.5"/>
<text text-anchor="middle" x="117" y="-252.5" font-family="Helvetica,sans-Serif" font-size="10.00">deque&lt; T &gt;</text>
</a>
</g>
</g>
<!-- Node9&#45;&gt;Node8 -->
<g id="edge10" class="edge">
<title>Node9&#45;&gt;Node8</title>
<path fill="none" stroke="#9a32cd" stroke-dasharray="5,2" d="M116.38,-235.38C116.47,-229.18 116.89,-222.25 118,-216 119.48,-207.67 122.71,-198.58 125.28,-192.14"/>
<polygon fill="#9a32cd" stroke="#9a32cd" points="112.88,-235.52 116.5,-245.47 119.88,-235.43 112.88,-235.52"/>
<text text-anchor="middle" x="142.5" y="-219" font-family="Helvetica,sans-Serif" font-size="10.00"> m_queue</text>
</g>
</g>
</svg>
