<?xml version="1.0" encoding="UTF-8" standalone="no"?>
<!DOCTYPE svg PUBLIC "-//W3C//DTD SVG 1.1//EN"
 "http://www.w3.org/Graphics/SVG/1.1/DTD/svg11.dtd">
<!-- Generated by graphviz version 2.43.0 (0)
 -->
<!-- Title: irr::video::IMaterialRendererServices Pages: 1 -->
<svg width="580pt" height="113pt"
 viewBox="0.00 0.00 580.00 112.50" xmlns="http://www.w3.org/2000/svg" xmlns:xlink="http://www.w3.org/1999/xlink">
<g id="graph0" class="graph" transform="scale(1 1) rotate(0) translate(4 108.5)">
<title>irr::video::IMaterialRendererServices</title>
<polygon fill="white" stroke="transparent" points="-4,4 -4,-108.5 576,-108.5 576,4 -4,4"/>
<!-- Node1 -->
<g id="node1" class="node">
<title>Node1</title>
<g id="a_node1"><a xlink:title="Interface providing some methods for changing advanced, internal states of a IVideoDriver.">
<polygon fill="#bfbfbf" stroke="black" points="0,-22.5 0,-52.5 154,-52.5 154,-22.5 0,-22.5"/>
<text text-anchor="start" x="8" y="-40.5" font-family="Helvetica,sans-Serif" font-size="10.00">irr::video::IMaterialRenderer</text>
<text text-anchor="middle" x="77" y="-29.5" font-family="Helvetica,sans-Serif" font-size="10.00">Services</text>
</a>
</g>
</g>
<!-- Node2 -->
<g id="node2" class="node">
<title>Node2</title>
<g id="a_node2"><a xlink:href="classirr_1_1video_1_1COpenGL3DriverBase.html" target="_top" xlink:title=" ">
<polygon fill="white" stroke="black" points="190,-50 190,-69 361,-69 361,-50 190,-50"/>
<text text-anchor="middle" x="275.5" y="-57" font-family="Helvetica,sans-Serif" font-size="10.00">irr::video::COpenGL3DriverBase</text>
</a>
</g>
</g>
<!-- Node1&#45;&gt;Node2 -->
<g id="edge1" class="edge">
<title>Node1&#45;&gt;Node2</title>
<path fill="none" stroke="midnightblue" d="M164.45,-47.18C172.87,-48.12 181.41,-49.08 189.81,-50.02"/>
<polygon fill="midnightblue" stroke="midnightblue" points="164.58,-43.67 154.25,-46.04 163.8,-50.63 164.58,-43.67"/>
</g>
<!-- Node5 -->
<g id="node5" class="node">
<title>Node5</title>
<g id="a_node5"><a xlink:href="classirr_1_1video_1_1COpenGL3MaterialRenderer.html" target="_top" xlink:title=" ">
<polygon fill="white" stroke="black" points="196.5,-0.5 196.5,-30.5 354.5,-30.5 354.5,-0.5 196.5,-0.5"/>
<text text-anchor="start" x="204.5" y="-18.5" font-family="Helvetica,sans-Serif" font-size="10.00">irr::video::COpenGL3Material</text>
<text text-anchor="middle" x="275.5" y="-7.5" font-family="Helvetica,sans-Serif" font-size="10.00">Renderer</text>
</a>
</g>
</g>
<!-- Node1&#45;&gt;Node5 -->
<g id="edge4" class="edge">
<title>Node1&#45;&gt;Node5</title>
<path fill="none" stroke="midnightblue" d="M164.38,-27.83C175.01,-26.64 185.84,-25.43 196.34,-24.25"/>
<polygon fill="midnightblue" stroke="midnightblue" points="163.8,-24.37 154.25,-28.96 164.58,-31.33 163.8,-24.37"/>
</g>
<!-- Node3 -->
<g id="node3" class="node">
<title>Node3</title>
<g id="a_node3"><a xlink:href="classirr_1_1video_1_1COpenGL3Driver.html" target="_top" xlink:title=" ">
<polygon fill="white" stroke="black" points="411,-85 411,-104 558,-104 558,-85 411,-85"/>
<text text-anchor="middle" x="484.5" y="-92" font-family="Helvetica,sans-Serif" font-size="10.00">irr::video::COpenGL3Driver</text>
</a>
</g>
</g>
<!-- Node2&#45;&gt;Node3 -->
<g id="edge2" class="edge">
<title>Node2&#45;&gt;Node3</title>
<path fill="none" stroke="midnightblue" d="M342.99,-70.74C370.14,-75.33 401.21,-80.59 427.22,-84.98"/>
<polygon fill="midnightblue" stroke="midnightblue" points="343.23,-67.23 332.79,-69.02 342.07,-74.14 343.23,-67.23"/>
</g>
<!-- Node4 -->
<g id="node4" class="node">
<title>Node4</title>
<g id="a_node4"><a xlink:href="classirr_1_1video_1_1COpenGLES2Driver.html" target="_top" xlink:title=" ">
<polygon fill="white" stroke="black" points="405,-47 405,-66 564,-66 564,-47 405,-47"/>
<text text-anchor="middle" x="484.5" y="-54" font-family="Helvetica,sans-Serif" font-size="10.00">irr::video::COpenGLES2Driver</text>
</a>
</g>
</g>
<!-- Node2&#45;&gt;Node4 -->
<g id="edge3" class="edge">
<title>Node2&#45;&gt;Node4</title>
<path fill="none" stroke="midnightblue" d="M371.49,-58.12C382.64,-57.96 393.94,-57.8 404.84,-57.64"/>
<polygon fill="midnightblue" stroke="midnightblue" points="371.24,-54.63 361.29,-58.27 371.34,-61.63 371.24,-54.63"/>
</g>
<!-- Node6 -->
<g id="node6" class="node">
<title>Node6</title>
<g id="a_node6"><a xlink:href="classirr_1_1video_1_1COpenGL3Renderer2D.html" target="_top" xlink:title=" ">
<polygon fill="white" stroke="black" points="397,-6 397,-25 572,-25 572,-6 397,-6"/>
<text text-anchor="middle" x="484.5" y="-13" font-family="Helvetica,sans-Serif" font-size="10.00">irr::video::COpenGL3Renderer2D</text>
</a>
</g>
</g>
<!-- Node5&#45;&gt;Node6 -->
<g id="edge5" class="edge">
<title>Node5&#45;&gt;Node6</title>
<path fill="none" stroke="midnightblue" d="M364.84,-15.5C375.43,-15.5 386.25,-15.5 396.82,-15.5"/>
<polygon fill="midnightblue" stroke="midnightblue" points="364.76,-12 354.76,-15.5 364.76,-19 364.76,-12"/>
</g>
</g>
</svg>
