<?xml version="1.0" encoding="UTF-8" standalone="no"?>
<!DOCTYPE svg PUBLIC "-//W3C//DTD SVG 1.1//EN"
 "http://www.w3.org/Graphics/SVG/1.1/DTD/svg11.dtd">
<!-- Generated by graphviz version 2.43.0 (0)
 -->
<!-- Title: irr::video::ITexture Pages: 1 -->
<!--zoomable 389 -->
<svg id="main" version="1.1" xmlns="http://www.w3.org/2000/svg" xmlns:xlink="http://www.w3.org/1999/xlink" xml:space="preserve" onload="init(evt)">
<style type="text/css"><![CDATA[
.edge:hover path { stroke: red; }
.edge:hover polygon { stroke: red; fill: red; }
]]></style>
<script type="text/javascript"><![CDATA[
var edges = document.getElementsByTagName('g');
if (edges && edges.length) {
  for (var i=0;i<edges.length;i++) {
    if (edges[i].id.substr(0,4)=='edge') {
      edges[i].setAttribute('class','edge');
    }
  }
}
]]></script>
        <defs>
                <circle id="rim" cx="0" cy="0" r="7"/>
                <circle id="rim2" cx="0" cy="0" r="3.5"/>
                <g id="zoomPlus">
                        <use xlink:href="#rim" fill="#404040">
                                <set attributeName="fill" to="#808080" begin="zoomplus.mouseover" end="zoomplus.mouseout"/>
                        </use>
                        <path d="M-4,0h8M0,-4v8" fill="none" stroke="white" stroke-width="1.5" pointer-events="none"/>
                </g>
                <g id="zoomMin">
                        <use xlink:href="#rim" fill="#404040">
                                <set attributeName="fill" to="#808080" begin="zoomminus.mouseover" end="zoomminus.mouseout"/>
                        </use>
                        <path d="M-4,0h8" fill="none" stroke="white" stroke-width="1.5" pointer-events="none"/>
                </g>
                <g id="dirArrow">
                        <path fill="none" stroke="white" stroke-width="1.5" d="M0,-3.0v7 M-2.5,-0.5L0,-3.0L2.5,-0.5"/>
                </g>
               <g id="resetDef">
                       <use xlink:href="#rim2" fill="#404040">
                               <set attributeName="fill" to="#808080" begin="reset.mouseover" end="reset.mouseout"/>
                       </use>
               </g>
        </defs>

<script type="text/javascript">
var viewWidth = 1076;
var viewHeight = 389;
var sectionId = 'dynsection-1';
</script>
<script xlink:href="svgpan.js"/>
<svg id="graph" class="graph">
<g id="viewport">
<title>irr::video::ITexture</title>
<polygon fill="white" stroke="transparent" points="-4,4 -4,-385 1072,-385 1072,4 -4,4"/>
<!-- Node1 -->
<g id="node1" class="node">
<title>Node1</title>
<g id="a_node1"><a xlink:title="Interface of a Video Driver dependent Texture.">
<polygon fill="#bfbfbf" stroke="black" points="963,-151.5 963,-170.5 1068,-170.5 1068,-151.5 963,-151.5"/>
<text text-anchor="middle" x="1015.5" y="-158.5" font-family="Helvetica,sans-Serif" font-size="10.00">irr::video::ITexture</text>
</a>
</g>
</g>
<!-- Node2 -->
<g id="node2" class="node">
<title>Node2</title>
<g id="a_node2"><a xlink:href="classirr_1_1IReferenceCounted.html" target="_top" xlink:title="Base class of most objects of the Irrlicht Engine.">
<polygon fill="white" stroke="black" points="702,-327.5 702,-346.5 828,-346.5 828,-327.5 702,-327.5"/>
<text text-anchor="middle" x="765" y="-334.5" font-family="Helvetica,sans-Serif" font-size="10.00">irr::IReferenceCounted</text>
</a>
</g>
</g>
<!-- Node2&#45;&gt;Node1 -->
<g id="edge1" class="edge">
<title>Node2&#45;&gt;Node1</title>
<path fill="none" stroke="midnightblue" d="M838.57,-342.34C873.77,-341.32 914.86,-334.4 945,-312 993.41,-276.02 1009.1,-198.15 1013.23,-170.76"/>
<polygon fill="midnightblue" stroke="midnightblue" points="838.28,-338.84 828.33,-342.48 838.38,-345.84 838.28,-338.84"/>
</g>
<!-- Node3 -->
<g id="node3" class="node">
<title>Node3</title>
<g id="a_node3"><a xlink:title=" ">
<polygon fill="white" stroke="#bfbfbf" points="480,-361.5 480,-380.5 518,-380.5 518,-361.5 480,-361.5"/>
<text text-anchor="middle" x="499" y="-368.5" font-family="Helvetica,sans-Serif" font-size="10.00">char</text>
</a>
</g>
</g>
<!-- Node3&#45;&gt;Node2 -->
<g id="edge2" class="edge">
<title>Node3&#45;&gt;Node2</title>
<path fill="none" stroke="#9a32cd" stroke-dasharray="5,2" d="M528.31,-367.88C564.47,-363.84 628.96,-356.42 684,-349 689.71,-348.23 695.64,-347.4 701.57,-346.55"/>
<polygon fill="#9a32cd" stroke="#9a32cd" points="527.6,-364.44 518.04,-369.02 528.37,-371.4 527.6,-364.44"/>
<text text-anchor="middle" x="638.5" y="-363" font-family="Helvetica,sans-Serif" font-size="10.00"> DebugName</text>
</g>
<!-- Node4 -->
<g id="node4" class="node">
<title>Node4</title>
<g id="a_node4"><a xlink:title=" ">
<polygon fill="white" stroke="#bfbfbf" points="474,-323.5 474,-342.5 524,-342.5 524,-323.5 474,-323.5"/>
<text text-anchor="middle" x="499" y="-330.5" font-family="Helvetica,sans-Serif" font-size="10.00">int32_t</text>
</a>
</g>
</g>
<!-- Node4&#45;&gt;Node2 -->
<g id="edge3" class="edge">
<title>Node4&#45;&gt;Node2</title>
<path fill="none" stroke="#9a32cd" stroke-dasharray="5,2" d="M534.46,-333.52C576.87,-334.16 649.66,-335.27 701.92,-336.06"/>
<polygon fill="#9a32cd" stroke="#9a32cd" points="534.42,-330.02 524.36,-333.37 534.31,-337.02 534.42,-330.02"/>
<text text-anchor="middle" x="638.5" y="-338" font-family="Helvetica,sans-Serif" font-size="10.00"> ReferenceCounter</text>
</g>
<!-- Node5 -->
<g id="node5" class="node">
<title>Node5</title>
<g id="a_node5"><a xlink:href="classirr_1_1core_1_1dimension2d.html" target="_top" xlink:title=" ">
<polygon fill="white" stroke="black" points="703.5,-231 703.5,-261 826.5,-261 826.5,-231 703.5,-231"/>
<text text-anchor="start" x="711.5" y="-249" font-family="Helvetica,sans-Serif" font-size="10.00">irr::core::dimension2d</text>
<text text-anchor="middle" x="765" y="-238" font-family="Helvetica,sans-Serif" font-size="10.00">&lt; u32 &gt;</text>
</a>
</g>
</g>
<!-- Node5&#45;&gt;Node1 -->
<g id="edge4" class="edge">
<title>Node5&#45;&gt;Node1</title>
<path fill="none" stroke="#9a32cd" stroke-dasharray="5,2" d="M837.07,-239.86C870.82,-235.12 911.09,-226.75 945,-212 968.6,-201.73 991.86,-182.24 1004.59,-170.55"/>
<polygon fill="#9a32cd" stroke="#9a32cd" points="836.28,-236.44 826.83,-241.22 837.2,-243.38 836.28,-236.44"/>
<text text-anchor="middle" x="895.5" y="-251" font-family="Helvetica,sans-Serif" font-size="10.00"> Size</text>
<text text-anchor="middle" x="895.5" y="-240" font-family="Helvetica,sans-Serif" font-size="10.00">OriginalSize</text>
</g>
<!-- Node6 -->
<g id="node6" class="node">
<title>Node6</title>
<g id="a_node6"><a xlink:title=" ">
<polygon fill="white" stroke="#bfbfbf" points="471,-270.5 471,-289.5 527,-289.5 527,-270.5 471,-270.5"/>
<text text-anchor="middle" x="499" y="-277.5" font-family="Helvetica,sans-Serif" font-size="10.00">uint32_t</text>
</a>
</g>
</g>
<!-- Node6&#45;&gt;Node1 -->
<g id="edge11" class="edge">
<title>Node6&#45;&gt;Node1</title>
<path fill="none" stroke="#9a32cd" stroke-dasharray="5,2" d="M537.32,-282.95C631.54,-289.72 876.37,-302.89 945,-263 981.87,-241.57 1003.41,-191.82 1011.18,-170.73"/>
<polygon fill="#9a32cd" stroke="#9a32cd" points="537.35,-279.45 527.12,-282.2 536.84,-286.43 537.35,-279.45"/>
<text text-anchor="middle" x="765" y="-293" font-family="Helvetica,sans-Serif" font-size="10.00"> Pitch</text>
</g>
<!-- Node6&#45;&gt;Node5 -->
<g id="edge5" class="edge">
<title>Node6&#45;&gt;Node5</title>
<path fill="none" stroke="#9a32cd" stroke-dasharray="5,2" d="M537.21,-271.93C554.17,-268.48 574.53,-264.64 593,-262 629.45,-256.78 670.53,-252.87 703.29,-250.23"/>
<polygon fill="#9a32cd" stroke="#9a32cd" points="536.23,-268.56 527.15,-274.02 537.65,-275.42 536.23,-268.56"/>
<text text-anchor="middle" x="638.5" y="-276" font-family="Helvetica,sans-Serif" font-size="10.00"> Width</text>
<text text-anchor="middle" x="638.5" y="-265" font-family="Helvetica,sans-Serif" font-size="10.00">Height</text>
</g>
<!-- Node7 -->
<g id="node7" class="node">
<title>Node7</title>
<g id="a_node7"><a xlink:href="classirr_1_1core_1_1dimension2d.html" target="_top" xlink:title="Specifies a 2 dimensional size.">
<polygon fill="white" stroke="black" points="423,-217.5 423,-236.5 575,-236.5 575,-217.5 423,-217.5"/>
<text text-anchor="middle" x="499" y="-224.5" font-family="Helvetica,sans-Serif" font-size="10.00">irr::core::dimension2d&lt; T &gt;</text>
</a>
</g>
</g>
<!-- Node7&#45;&gt;Node5 -->
<g id="edge6" class="edge">
<title>Node7&#45;&gt;Node5</title>
<path fill="none" stroke="orange" stroke-dasharray="5,2" d="M585.77,-223.64C616.8,-223.43 652.06,-224.36 684,-228 690.37,-228.72 696.96,-229.75 703.52,-230.95"/>
<polygon fill="orange" stroke="orange" points="585.38,-220.14 575.42,-223.75 585.45,-227.14 585.38,-220.14"/>
<text text-anchor="middle" x="638.5" y="-231" font-family="Helvetica,sans-Serif" font-size="10.00"> &lt; u32 &gt;</text>
</g>
<!-- Node8 -->
<g id="node8" class="node">
<title>Node8</title>
<g id="a_node8"><a xlink:title=" ">
<polygon fill="white" stroke="#bfbfbf" points="239,-217.5 239,-236.5 268,-236.5 268,-217.5 239,-217.5"/>
<text text-anchor="middle" x="253.5" y="-224.5" font-family="Helvetica,sans-Serif" font-size="10.00">T</text>
</a>
</g>
</g>
<!-- Node8&#45;&gt;Node7 -->
<g id="edge7" class="edge">
<title>Node8&#45;&gt;Node7</title>
<path fill="none" stroke="#9a32cd" stroke-dasharray="5,2" d="M278.42,-227C311.67,-227 373.37,-227 422.92,-227"/>
<polygon fill="#9a32cd" stroke="#9a32cd" points="278.29,-223.5 268.29,-227 278.29,-230.5 278.29,-223.5"/>
<text text-anchor="middle" x="372.5" y="-241" font-family="Helvetica,sans-Serif" font-size="10.00"> Width</text>
<text text-anchor="middle" x="372.5" y="-230" font-family="Helvetica,sans-Serif" font-size="10.00">Height</text>
</g>
<!-- Node9 -->
<g id="node9" class="node">
<title>Node9</title>
<g id="a_node9"><a xlink:title=" ">
<polygon fill="white" stroke="#bfbfbf" points="705.5,-192.5 705.5,-211.5 824.5,-211.5 824.5,-192.5 705.5,-192.5"/>
<text text-anchor="middle" x="765" y="-199.5" font-family="Helvetica,sans-Serif" font-size="10.00">E_TEXTURE_SOURCE</text>
</a>
</g>
</g>
<!-- Node9&#45;&gt;Node1 -->
<g id="edge8" class="edge">
<title>Node9&#45;&gt;Node1</title>
<path fill="none" stroke="#9a32cd" stroke-dasharray="5,2" d="M834.7,-198.63C868.24,-196.09 909.01,-191.67 945,-184 960.29,-180.74 976.93,-175.31 990.1,-170.54"/>
<polygon fill="#9a32cd" stroke="#9a32cd" points="834.27,-195.15 824.54,-199.36 834.77,-202.13 834.27,-195.15"/>
<text text-anchor="middle" x="895.5" y="-200" font-family="Helvetica,sans-Serif" font-size="10.00"> Source</text>
</g>
<!-- Node10 -->
<g id="node10" class="node">
<title>Node10</title>
<g id="a_node10"><a xlink:title=" ">
<polygon fill="white" stroke="#bfbfbf" points="713.5,-154.5 713.5,-173.5 816.5,-173.5 816.5,-154.5 713.5,-154.5"/>
<text text-anchor="middle" x="765" y="-161.5" font-family="Helvetica,sans-Serif" font-size="10.00">ECOLOR_FORMAT</text>
</a>
</g>
</g>
<!-- Node10&#45;&gt;Node1 -->
<g id="edge9" class="edge">
<title>Node10&#45;&gt;Node1</title>
<path fill="none" stroke="#9a32cd" stroke-dasharray="5,2" d="M826.88,-162.36C833.33,-162.22 839.8,-162.1 846,-162 885.2,-161.39 929.53,-161.15 962.87,-161.05"/>
<polygon fill="#9a32cd" stroke="#9a32cd" points="826.7,-158.86 816.78,-162.58 826.86,-165.86 826.7,-158.86"/>
<text text-anchor="middle" x="895.5" y="-176" font-family="Helvetica,sans-Serif" font-size="10.00"> ColorFormat</text>
<text text-anchor="middle" x="895.5" y="-165" font-family="Helvetica,sans-Serif" font-size="10.00">OriginalColorFormat</text>
</g>
<!-- Node11 -->
<g id="node11" class="node">
<title>Node11</title>
<g id="a_node11"><a xlink:title=" ">
<polygon fill="white" stroke="#bfbfbf" points="718,-116.5 718,-135.5 812,-135.5 812,-116.5 718,-116.5"/>
<text text-anchor="middle" x="765" y="-123.5" font-family="Helvetica,sans-Serif" font-size="10.00">E_DRIVER_TYPE</text>
</a>
</g>
</g>
<!-- Node11&#45;&gt;Node1 -->
<g id="edge10" class="edge">
<title>Node11&#45;&gt;Node1</title>
<path fill="none" stroke="#9a32cd" stroke-dasharray="5,2" d="M822.29,-130.81C857.65,-134.2 904.13,-139.32 945,-146 954.26,-147.51 964.15,-149.45 973.47,-151.42"/>
<polygon fill="#9a32cd" stroke="#9a32cd" points="822.45,-127.31 812.16,-129.86 821.79,-134.28 822.45,-127.31"/>
<text text-anchor="middle" x="895.5" y="-149" font-family="Helvetica,sans-Serif" font-size="10.00"> DriverType</text>
</g>
<!-- Node12 -->
<g id="node12" class="node">
<title>Node12</title>
<g id="a_node12"><a xlink:href="structirr_1_1io_1_1SNamedPath.html" target="_top" xlink:title="Used in places where we identify objects by a filename, but don&#39;t actually work with the real filenam...">
<polygon fill="white" stroke="black" points="710,-78.5 710,-97.5 820,-97.5 820,-78.5 710,-78.5"/>
<text text-anchor="middle" x="765" y="-85.5" font-family="Helvetica,sans-Serif" font-size="10.00">irr::io::SNamedPath</text>
</a>
</g>
</g>
<!-- Node12&#45;&gt;Node1 -->
<g id="edge12" class="edge">
<title>Node12&#45;&gt;Node1</title>
<path fill="none" stroke="#9a32cd" stroke-dasharray="5,2" d="M830.33,-92.7C865.13,-96.74 908.36,-104.21 945,-118 966.51,-126.1 988.63,-141.17 1001.97,-151.14"/>
<polygon fill="#9a32cd" stroke="#9a32cd" points="830.61,-89.21 820.28,-91.6 829.85,-96.17 830.61,-89.21"/>
<text text-anchor="middle" x="895.5" y="-121" font-family="Helvetica,sans-Serif" font-size="10.00"> NamedPath</text>
</g>
<!-- Node13 -->
<g id="node13" class="node">
<title>Node13</title>
<g id="a_node13"><a xlink:href="classirr_1_1core_1_1string.html" target="_top" xlink:title=" ">
<polygon fill="white" stroke="black" points="451,-73 451,-103 547,-103 547,-73 451,-73"/>
<text text-anchor="start" x="459" y="-91" font-family="Helvetica,sans-Serif" font-size="10.00">irr::core::string&lt;</text>
<text text-anchor="middle" x="499" y="-80" font-family="Helvetica,sans-Serif" font-size="10.00"> fschar_t &gt;</text>
</a>
</g>
</g>
<!-- Node13&#45;&gt;Node12 -->
<g id="edge13" class="edge">
<title>Node13&#45;&gt;Node12</title>
<path fill="none" stroke="#9a32cd" stroke-dasharray="5,2" d="M557.45,-88C602.77,-88 665.51,-88 709.93,-88"/>
<polygon fill="#9a32cd" stroke="#9a32cd" points="557.2,-84.5 547.2,-88 557.2,-91.5 557.2,-84.5"/>
<text text-anchor="middle" x="638.5" y="-102" font-family="Helvetica,sans-Serif" font-size="10.00"> Path</text>
<text text-anchor="middle" x="638.5" y="-91" font-family="Helvetica,sans-Serif" font-size="10.00">InternalName</text>
</g>
<!-- Node14 -->
<g id="node14" class="node">
<title>Node14</title>
<g id="a_node14"><a xlink:title=" ">
<polygon fill="white" stroke="#bfbfbf" points="185,-117.5 185,-136.5 322,-136.5 322,-117.5 185,-117.5"/>
<text text-anchor="middle" x="253.5" y="-124.5" font-family="Helvetica,sans-Serif" font-size="10.00">basic_string&lt; fschar_t &gt;</text>
</a>
</g>
</g>
<!-- Node14&#45;&gt;Node13 -->
<g id="edge14" class="edge">
<title>Node14&#45;&gt;Node13</title>
<path fill="none" stroke="#9a32cd" stroke-dasharray="5,2" d="M324.17,-115.84C364.76,-109.34 414.87,-101.31 450.84,-95.55"/>
<polygon fill="#9a32cd" stroke="#9a32cd" points="323.39,-112.42 314.07,-117.46 324.49,-119.33 323.39,-112.42"/>
<text text-anchor="middle" x="372.5" y="-116" font-family="Helvetica,sans-Serif" font-size="10.00"> str</text>
</g>
<!-- Node15 -->
<g id="node15" class="node">
<title>Node15</title>
<g id="a_node15"><a xlink:title=" ">
<polygon fill="white" stroke="#bfbfbf" points="0,-67.5 0,-86.5 122,-86.5 122,-67.5 0,-67.5"/>
<text text-anchor="middle" x="61" y="-74.5" font-family="Helvetica,sans-Serif" font-size="10.00">static const size_type</text>
</a>
</g>
</g>
<!-- Node15&#45;&gt;Node13 -->
<g id="edge15" class="edge">
<title>Node15&#45;&gt;Node13</title>
<path fill="none" stroke="#9a32cd" stroke-dasharray="5,2" d="M132.23,-78.77C221.74,-81.03 374.05,-84.87 450.81,-86.81"/>
<polygon fill="#9a32cd" stroke="#9a32cd" points="132.25,-75.27 122.17,-78.52 132.07,-82.27 132.25,-75.27"/>
<text text-anchor="middle" x="253.5" y="-86" font-family="Helvetica,sans-Serif" font-size="10.00"> npos</text>
</g>
<!-- Node16 -->
<g id="node16" class="node">
<title>Node16</title>
<g id="a_node16"><a xlink:href="classirr_1_1core_1_1string.html" target="_top" xlink:title="Very simple string class with some useful features.">
<polygon fill="white" stroke="black" points="195.5,-32.5 195.5,-51.5 311.5,-51.5 311.5,-32.5 195.5,-32.5"/>
<text text-anchor="middle" x="253.5" y="-39.5" font-family="Helvetica,sans-Serif" font-size="10.00">irr::core::string&lt; T &gt;</text>
</a>
</g>
</g>
<!-- Node15&#45;&gt;Node16 -->
<g id="edge18" class="edge">
<title>Node15&#45;&gt;Node16</title>
<path fill="none" stroke="#9a32cd" stroke-dasharray="5,2" d="M123.85,-65.64C148.68,-61.07 176.98,-55.87 200.71,-51.52"/>
<polygon fill="#9a32cd" stroke="#9a32cd" points="123.01,-62.23 113.8,-67.48 124.27,-69.12 123.01,-62.23"/>
<text text-anchor="middle" x="153.5" y="-65" font-family="Helvetica,sans-Serif" font-size="10.00"> npos</text>
</g>
<!-- Node16&#45;&gt;Node13 -->
<g id="edge16" class="edge">
<title>Node16&#45;&gt;Node13</title>
<path fill="none" stroke="orange" stroke-dasharray="5,2" d="M321.77,-49.58C347.88,-52.99 377.95,-57.5 405,-63 420.07,-66.07 436.32,-70.16 450.96,-74.14"/>
<polygon fill="orange" stroke="orange" points="321.96,-46.07 311.6,-48.28 321.07,-53.02 321.96,-46.07"/>
<text text-anchor="middle" x="372.5" y="-66" font-family="Helvetica,sans-Serif" font-size="10.00"> &lt; fschar_t &gt;</text>
</g>
<!-- Node17 -->
<g id="node17" class="node">
<title>Node17</title>
<g id="a_node17"><a xlink:title=" ">
<polygon fill="white" stroke="#bfbfbf" points="9,-18.5 9,-37.5 113,-37.5 113,-18.5 9,-18.5"/>
<text text-anchor="middle" x="61" y="-25.5" font-family="Helvetica,sans-Serif" font-size="10.00">basic_string&lt; T &gt;</text>
</a>
</g>
</g>
<!-- Node17&#45;&gt;Node16 -->
<g id="edge17" class="edge">
<title>Node17&#45;&gt;Node16</title>
<path fill="none" stroke="#9a32cd" stroke-dasharray="5,2" d="M123.33,-27.13C137.68,-27.33 152.89,-27.87 167,-29 176.88,-29.79 187.35,-31.04 197.44,-32.46"/>
<polygon fill="#9a32cd" stroke="#9a32cd" points="123.1,-23.63 113.07,-27.04 123.04,-30.63 123.1,-23.63"/>
<text text-anchor="middle" x="153.5" y="-32" font-family="Helvetica,sans-Serif" font-size="10.00"> str</text>
</g>
<!-- Node18 -->
<g id="node18" class="node">
<title>Node18</title>
<g id="a_node18"><a xlink:href="classbool.html" target="_top" xlink:title=" ">
<polygon fill="white" stroke="black" points="746,-38.5 746,-57.5 784,-57.5 784,-38.5 746,-38.5"/>
<text text-anchor="middle" x="765" y="-45.5" font-family="Helvetica,sans-Serif" font-size="10.00">bool</text>
</a>
</g>
</g>
<!-- Node18&#45;&gt;Node1 -->
<g id="edge19" class="edge">
<title>Node18&#45;&gt;Node1</title>
<path fill="none" stroke="#9a32cd" stroke-dasharray="5,2" d="M794.31,-44.79C831.48,-41.96 897.56,-41.82 945,-69 979.04,-88.51 1001.7,-132.07 1010.45,-151.42"/>
<polygon fill="#9a32cd" stroke="#9a32cd" points="793.85,-41.32 784.2,-45.68 794.46,-48.29 793.85,-41.32"/>
<text text-anchor="middle" x="895.5" y="-83" font-family="Helvetica,sans-Serif" font-size="10.00"> IsRenderTarget</text>
<text text-anchor="middle" x="895.5" y="-72" font-family="Helvetica,sans-Serif" font-size="10.00">HasMipMaps</text>
</g>
<!-- Node19 -->
<g id="node19" class="node">
<title>Node19</title>
<g id="a_node19"><a xlink:title=" ">
<polygon fill="white" stroke="#bfbfbf" points="714,-0.5 714,-19.5 816,-19.5 816,-0.5 714,-0.5"/>
<text text-anchor="middle" x="765" y="-7.5" font-family="Helvetica,sans-Serif" font-size="10.00">E_TEXTURE_TYPE</text>
</a>
</g>
</g>
<!-- Node19&#45;&gt;Node1 -->
<g id="edge20" class="edge">
<title>Node19&#45;&gt;Node1</title>
<path fill="none" stroke="#9a32cd" stroke-dasharray="5,2" d="M826.44,-2.79C863.63,-1.45 910.6,-5.67 945,-29 989.15,-58.95 1007.25,-126.17 1012.64,-151.29"/>
<polygon fill="#9a32cd" stroke="#9a32cd" points="826.04,0.7 816.23,-3.3 826.39,-6.29 826.04,0.7"/>
<text text-anchor="middle" x="895.5" y="-32" font-family="Helvetica,sans-Serif" font-size="10.00"> Type</text>
</g>
</g>
</svg>
        <g id="navigator" transform="translate(0 0)" fill="#404254">
                <rect fill="#f2f5e9" fill-opacity="0.5" stroke="#606060" stroke-width=".5" x="0" y="0" width="60" height="60"/>
                <use id="zoomplus" xlink:href="#zoomPlus" x="17" y="9" onmousedown="handleZoom(evt,'in')"/>
                <use id="zoomminus" xlink:href="#zoomMin" x="42" y="9" onmousedown="handleZoom(evt,'out')"/>
                <use id="reset" xlink:href="#resetDef" x="30" y="36" onmousedown="handleReset()"/>
                <g id="arrowUp" xlink:href="#dirArrow" transform="translate(30 24)" onmousedown="handlePan(0,-1)">
                  <use xlink:href="#rim" fill="#404040">
                        <set attributeName="fill" to="#808080" begin="arrowUp.mouseover" end="arrowUp.mouseout"/>
                  </use>
                  <path fill="none" stroke="white" stroke-width="1.5" d="M0,-3.0v7 M-2.5,-0.5L0,-3.0L2.5,-0.5"/>
                </g>
                <g id="arrowRight" xlink:href="#dirArrow" transform="rotate(90) translate(36 -43)" onmousedown="handlePan(1,0)">
                  <use xlink:href="#rim" fill="#404040">
                        <set attributeName="fill" to="#808080" begin="arrowRight.mouseover" end="arrowRight.mouseout"/>
                  </use>
                  <path fill="none" stroke="white" stroke-width="1.5" d="M0,-3.0v7 M-2.5,-0.5L0,-3.0L2.5,-0.5"/>
                </g>
                <g id="arrowDown" xlink:href="#dirArrow" transform="rotate(180) translate(-30 -48)" onmousedown="handlePan(0,1)">
                  <use xlink:href="#rim" fill="#404040">
                        <set attributeName="fill" to="#808080" begin="arrowDown.mouseover" end="arrowDown.mouseout"/>
                  </use>
                  <path fill="none" stroke="white" stroke-width="1.5" d="M0,-3.0v7 M-2.5,-0.5L0,-3.0L2.5,-0.5"/>
                </g>
                <g id="arrowLeft" xlink:href="#dirArrow" transform="rotate(270) translate(-36 17)" onmousedown="handlePan(-1,0)">
                  <use xlink:href="#rim" fill="#404040">
                        <set attributeName="fill" to="#808080" begin="arrowLeft.mouseover" end="arrowLeft.mouseout"/>
                  </use>
                  <path fill="none" stroke="white" stroke-width="1.5" d="M0,-3.0v7 M-2.5,-0.5L0,-3.0L2.5,-0.5"/>
                </g>
        </g>
        <svg viewBox="0 0 15 15" width="100%" height="30px" preserveAspectRatio="xMaxYMin meet">
         <g id="arrow_out" transform="scale(0.3 0.3)">
          <a xlink:href="classirr_1_1video_1_1ITexture__coll__graph_org.svg" target="_base">
           <rect id="button" ry="5" rx="5" y="6" x="6" height="38" width="38"
                fill="#f2f5e9" fill-opacity="0.5" stroke="#606060" stroke-width="1.0"/>
           <path id="arrow"
             d="M 11.500037,31.436501 C 11.940474,20.09759 22.043105,11.32322 32.158766,21.979434 L 37.068811,17.246167 C 37.068811,17.246167 37.088388,32 37.088388,32 L 22.160133,31.978069 C 22.160133,31.978069 26.997745,27.140456 26.997745,27.140456 C 18.528582,18.264221 13.291696,25.230495 11.500037,31.436501 z"
             style="fill:#404040;"/>
          </a>
         </g>
        </svg>
</svg>
