<?xml version="1.0" encoding="UTF-8" standalone="no"?>
<!DOCTYPE svg PUBLIC "-//W3C//DTD SVG 1.1//EN"
 "http://www.w3.org/Graphics/SVG/1.1/DTD/svg11.dtd">
<!-- Generated by graphviz version 2.43.0 (0)
 -->
<!-- Title: ResultQueue&lt; Key, T, Caller, CallerData &gt; Pages: 1 -->
<svg width="466pt" height="330pt"
 viewBox="0.00 0.00 466.00 330.00" xmlns="http://www.w3.org/2000/svg" xmlns:xlink="http://www.w3.org/1999/xlink">
<g id="graph0" class="graph" transform="scale(1 1) rotate(0) translate(4 326)">
<title>ResultQueue&lt; Key, T, Caller, CallerData &gt;</title>
<polygon fill="white" stroke="transparent" points="-4,4 -4,-326 462,-326 462,4 -4,4"/>
<!-- Node1 -->
<g id="node1" class="node">
<title>Node1</title>
<g id="a_node1"><a xlink:title=" ">
<polygon fill="#bfbfbf" stroke="black" points="171.5,-0.5 171.5,-30.5 294.5,-30.5 294.5,-0.5 171.5,-0.5"/>
<text text-anchor="start" x="179.5" y="-18.5" font-family="Helvetica,sans-Serif" font-size="10.00">ResultQueue&lt; Key, T,</text>
<text text-anchor="middle" x="233" y="-7.5" font-family="Helvetica,sans-Serif" font-size="10.00"> Caller, CallerData &gt;</text>
</a>
</g>
</g>
<!-- Node2 -->
<g id="node2" class="node">
<title>Node2</title>
<g id="a_node2"><a xlink:href="classMutexedQueue.html" target="_top" xlink:title=" ">
<polygon fill="white" stroke="black" points="146.5,-68.5 146.5,-98.5 319.5,-98.5 319.5,-68.5 146.5,-68.5"/>
<text text-anchor="start" x="154.5" y="-86.5" font-family="Helvetica,sans-Serif" font-size="10.00">MutexedQueue&lt; GetResult</text>
<text text-anchor="middle" x="233" y="-75.5" font-family="Helvetica,sans-Serif" font-size="10.00">&lt; Key, T, Caller, CallerData &gt; &gt;</text>
</a>
</g>
</g>
<!-- Node2&#45;&gt;Node1 -->
<g id="edge1" class="edge">
<title>Node2&#45;&gt;Node1</title>
<path fill="none" stroke="midnightblue" d="M233,-58.03C233,-48.86 233,-38.74 233,-30.79"/>
<polygon fill="midnightblue" stroke="midnightblue" points="229.5,-58.18 233,-68.18 236.5,-58.18 229.5,-58.18"/>
</g>
<!-- Node3 -->
<g id="node3" class="node">
<title>Node3</title>
<g id="a_node3"><a xlink:href="classstd_1_1deque_3_01GetResult_3_01Key_00_01T_00_01Caller_00_01CallerData_01_4_01_4.html" target="_top" xlink:title=" ">
<polygon fill="white" stroke="black" points="0,-157.5 0,-187.5 140,-187.5 140,-157.5 0,-157.5"/>
<text text-anchor="start" x="8" y="-175.5" font-family="Helvetica,sans-Serif" font-size="10.00">deque&lt; GetResult&lt; Key,</text>
<text text-anchor="middle" x="70" y="-164.5" font-family="Helvetica,sans-Serif" font-size="10.00"> T, Caller, CallerData &gt; &gt;</text>
</a>
</g>
</g>
<!-- Node3&#45;&gt;Node2 -->
<g id="edge2" class="edge">
<title>Node3&#45;&gt;Node2</title>
<path fill="none" stroke="#9a32cd" stroke-dasharray="5,2" d="M83.24,-148.53C90.68,-137.51 100.9,-124.99 113,-117 124.98,-109.09 138.83,-103.1 152.77,-98.56"/>
<polygon fill="#9a32cd" stroke="#9a32cd" points="80.07,-146.99 77.66,-157.31 85.98,-150.74 80.07,-146.99"/>
<text text-anchor="middle" x="137.5" y="-125.5" font-family="Helvetica,sans-Serif" font-size="10.00"> m_queue</text>
</g>
<!-- Node4 -->
<g id="node4" class="node">
<title>Node4</title>
<g id="a_node4"><a xlink:href="classSemaphore.html" target="_top" xlink:title=" ">
<polygon fill="white" stroke="black" points="359,-235.5 359,-254.5 431,-254.5 431,-235.5 359,-235.5"/>
<text text-anchor="middle" x="395" y="-242.5" font-family="Helvetica,sans-Serif" font-size="10.00">Semaphore</text>
</a>
</g>
</g>
<!-- Node4&#45;&gt;Node2 -->
<g id="edge3" class="edge">
<title>Node4&#45;&gt;Node2</title>
<path fill="none" stroke="#9a32cd" stroke-dasharray="5,2" d="M401.41,-225.66C409.69,-198.23 420.07,-146.58 393,-117 382.52,-105.55 351.74,-97.95 319.93,-93"/>
<polygon fill="#9a32cd" stroke="#9a32cd" points="398.07,-224.6 398.31,-235.19 404.73,-226.76 398.07,-224.6"/>
<text text-anchor="middle" x="434" y="-170" font-family="Helvetica,sans-Serif" font-size="10.00"> m_signal</text>
</g>
<!-- Node7 -->
<g id="node7" class="node">
<title>Node7</title>
<g id="a_node7"><a xlink:href="classMutexedQueue.html" target="_top" xlink:title=" ">
<polygon fill="white" stroke="black" points="244.5,-163 244.5,-182 363.5,-182 363.5,-163 244.5,-163"/>
<text text-anchor="middle" x="304" y="-170" font-family="Helvetica,sans-Serif" font-size="10.00">MutexedQueue&lt; T &gt;</text>
</a>
</g>
</g>
<!-- Node4&#45;&gt;Node7 -->
<g id="edge7" class="edge">
<title>Node4&#45;&gt;Node7</title>
<path fill="none" stroke="#9a32cd" stroke-dasharray="5,2" d="M372.68,-229.58C366.84,-225.63 360.6,-221.26 355,-217 339.99,-205.59 323.56,-191.2 313.51,-182.17"/>
<polygon fill="#9a32cd" stroke="#9a32cd" points="371.14,-232.76 381.4,-235.37 375.01,-226.92 371.14,-232.76"/>
<text text-anchor="middle" x="379" y="-209" font-family="Helvetica,sans-Serif" font-size="10.00"> m_signal</text>
</g>
<!-- Node5 -->
<g id="node5" class="node">
<title>Node5</title>
<g id="a_node5"><a xlink:title=" ">
<polygon fill="white" stroke="#bfbfbf" points="371.5,-302.5 371.5,-321.5 418.5,-321.5 418.5,-302.5 371.5,-302.5"/>
<text text-anchor="middle" x="395" y="-309.5" font-family="Helvetica,sans-Serif" font-size="10.00">sem_t</text>
</a>
</g>
</g>
<!-- Node5&#45;&gt;Node4 -->
<g id="edge4" class="edge">
<title>Node5&#45;&gt;Node4</title>
<path fill="none" stroke="#9a32cd" stroke-dasharray="5,2" d="M395,-292.04C395,-279.67 395,-264.12 395,-254.63"/>
<polygon fill="#9a32cd" stroke="#9a32cd" points="391.5,-292.23 395,-302.23 398.5,-292.23 391.5,-292.23"/>
<text text-anchor="middle" x="424" y="-276" font-family="Helvetica,sans-Serif" font-size="10.00"> semaphore</text>
</g>
<!-- Node6 -->
<g id="node6" class="node">
<title>Node6</title>
<g id="a_node6"><a xlink:title=" ">
<polygon fill="white" stroke="#bfbfbf" points="165,-235.5 165,-254.5 213,-254.5 213,-235.5 165,-235.5"/>
<text text-anchor="middle" x="189" y="-242.5" font-family="Helvetica,sans-Serif" font-size="10.00">mutex</text>
</a>
</g>
</g>
<!-- Node6&#45;&gt;Node2 -->
<g id="edge5" class="edge">
<title>Node6&#45;&gt;Node2</title>
<path fill="none" stroke="#9a32cd" stroke-dasharray="5,2" d="M184.63,-225.37C181.23,-207.45 178.14,-179.79 185,-157 191.79,-134.45 208.13,-112.46 219.86,-98.72"/>
<polygon fill="#9a32cd" stroke="#9a32cd" points="181.25,-226.31 186.75,-235.37 188.09,-224.86 181.25,-226.31"/>
<text text-anchor="middle" x="210" y="-170" font-family="Helvetica,sans-Serif" font-size="10.00"> m_mutex</text>
</g>
<!-- Node6&#45;&gt;Node7 -->
<g id="edge8" class="edge">
<title>Node6&#45;&gt;Node7</title>
<path fill="none" stroke="#9a32cd" stroke-dasharray="5,2" d="M202.78,-227.57C209.53,-220.27 218.1,-211.99 227,-206 242.29,-195.71 261.36,-187.63 276.69,-182.1"/>
<polygon fill="#9a32cd" stroke="#9a32cd" points="199.79,-225.68 195.8,-235.49 205.04,-230.3 199.79,-225.68"/>
<text text-anchor="middle" x="252" y="-209" font-family="Helvetica,sans-Serif" font-size="10.00"> m_mutex</text>
</g>
<!-- Node7&#45;&gt;Node2 -->
<g id="edge6" class="edge">
<title>Node7&#45;&gt;Node2</title>
<path fill="none" stroke="orange" stroke-dasharray="5,2" d="M290.31,-154.72C276.99,-138.4 256.97,-113.87 244.46,-98.55"/>
<polygon fill="orange" stroke="orange" points="287.9,-157.31 296.93,-162.84 293.32,-152.88 287.9,-157.31"/>
<text text-anchor="start" x="277" y="-131" font-family="Helvetica,sans-Serif" font-size="10.00"> &lt; GetResult&lt; Key, T,</text>
<text text-anchor="middle" x="333" y="-120" font-family="Helvetica,sans-Serif" font-size="10.00"> Caller, CallerData &gt; &gt;</text>
</g>
<!-- Node8 -->
<g id="node8" class="node">
<title>Node8</title>
<g id="a_node8"><a xlink:title=" ">
<polygon fill="white" stroke="#bfbfbf" points="244.5,-235.5 244.5,-254.5 319.5,-254.5 319.5,-235.5 244.5,-235.5"/>
<text text-anchor="middle" x="282" y="-242.5" font-family="Helvetica,sans-Serif" font-size="10.00">deque&lt; T &gt;</text>
</a>
</g>
</g>
<!-- Node8&#45;&gt;Node7 -->
<g id="edge9" class="edge">
<title>Node8&#45;&gt;Node7</title>
<path fill="none" stroke="#9a32cd" stroke-dasharray="5,2" d="M280.49,-225.16C280.52,-218.95 281.12,-212.07 283,-206 285.74,-197.14 291.63,-188.39 296.47,-182.2"/>
<polygon fill="#9a32cd" stroke="#9a32cd" points="277,-225.49 280.92,-235.33 283.99,-225.19 277,-225.49"/>
<text text-anchor="middle" x="307.5" y="-209" font-family="Helvetica,sans-Serif" font-size="10.00"> m_queue</text>
</g>
</g>
</svg>
