<?xml version="1.0" encoding="UTF-8" standalone="no"?>
<!DOCTYPE svg PUBLIC "-//W3C//DTD SVG 1.1//EN"
 "http://www.w3.org/Graphics/SVG/1.1/DTD/svg11.dtd">
<!-- Generated by graphviz version 2.43.0 (0)
 -->
<!-- Title: CachedVertexShaderSetting&lt; T, count, cache &gt; Pages: 1 -->
<svg width="391pt" height="263pt"
 viewBox="0.00 0.00 390.50 263.00" xmlns="http://www.w3.org/2000/svg" xmlns:xlink="http://www.w3.org/1999/xlink">
<g id="graph0" class="graph" transform="scale(1 1) rotate(0) translate(4 259)">
<title>CachedVertexShaderSetting&lt; T, count, cache &gt;</title>
<polygon fill="white" stroke="transparent" points="-4,4 -4,-259 386.5,-259 386.5,4 -4,4"/>
<!-- Node1 -->
<g id="node1" class="node">
<title>Node1</title>
<g id="a_node1"><a xlink:title=" ">
<polygon fill="#bfbfbf" stroke="black" points="130,-0.5 130,-30.5 282,-30.5 282,-0.5 130,-0.5"/>
<text text-anchor="start" x="138" y="-18.5" font-family="Helvetica,sans-Serif" font-size="10.00">CachedVertexShaderSetting</text>
<text text-anchor="middle" x="206" y="-7.5" font-family="Helvetica,sans-Serif" font-size="10.00">&lt; T, count, cache &gt;</text>
</a>
</g>
</g>
<!-- Node2 -->
<g id="node2" class="node">
<title>Node2</title>
<g id="a_node2"><a xlink:href="classCachedShaderSetting.html" target="_top" xlink:title=" ">
<polygon fill="white" stroke="black" points="145.5,-68.5 145.5,-98.5 266.5,-98.5 266.5,-68.5 145.5,-68.5"/>
<text text-anchor="start" x="153.5" y="-86.5" font-family="Helvetica,sans-Serif" font-size="10.00">CachedShaderSetting</text>
<text text-anchor="middle" x="206" y="-75.5" font-family="Helvetica,sans-Serif" font-size="10.00">&lt; T, 1, true &gt;</text>
</a>
</g>
</g>
<!-- Node2&#45;&gt;Node1 -->
<g id="edge1" class="edge">
<title>Node2&#45;&gt;Node1</title>
<path fill="none" stroke="midnightblue" d="M206,-58.03C206,-48.86 206,-38.74 206,-30.79"/>
<polygon fill="midnightblue" stroke="midnightblue" points="202.5,-58.18 206,-68.18 209.5,-58.18 202.5,-58.18"/>
</g>
<!-- Node3 -->
<g id="node3" class="node">
<title>Node3</title>
<g id="a_node3"><a xlink:href="classbool.html" target="_top" xlink:title=" ">
<polygon fill="white" stroke="black" points="0,-235.5 0,-254.5 38,-254.5 38,-235.5 0,-235.5"/>
<text text-anchor="middle" x="19" y="-242.5" font-family="Helvetica,sans-Serif" font-size="10.00">bool</text>
</a>
</g>
</g>
<!-- Node3&#45;&gt;Node2 -->
<g id="edge2" class="edge">
<title>Node3&#45;&gt;Node2</title>
<path fill="none" stroke="#9a32cd" stroke-dasharray="5,2" d="M11.55,-225.94C4.1,-204.68 -4.04,-169.31 13,-146 42.99,-104.97 100.61,-90.67 145.12,-85.99"/>
<polygon fill="#9a32cd" stroke="#9a32cd" points="8.32,-227.28 15.15,-235.38 14.86,-224.79 8.32,-227.28"/>
<text text-anchor="middle" x="46.5" y="-164.5" font-family="Helvetica,sans-Serif" font-size="10.00"> is_pixel</text>
<text text-anchor="middle" x="46.5" y="-153.5" font-family="Helvetica,sans-Serif" font-size="10.00">has_been_set</text>
</g>
<!-- Node6 -->
<g id="node6" class="node">
<title>Node6</title>
<g id="a_node6"><a xlink:href="classCachedShaderSetting.html" target="_top" xlink:title=" ">
<polygon fill="white" stroke="black" points="89.5,-146.5 89.5,-176.5 210.5,-176.5 210.5,-146.5 89.5,-146.5"/>
<text text-anchor="start" x="97.5" y="-164.5" font-family="Helvetica,sans-Serif" font-size="10.00">CachedShaderSetting</text>
<text text-anchor="middle" x="150" y="-153.5" font-family="Helvetica,sans-Serif" font-size="10.00">&lt; T, count, cache &gt;</text>
</a>
</g>
</g>
<!-- Node3&#45;&gt;Node6 -->
<g id="edge7" class="edge">
<title>Node3&#45;&gt;Node6</title>
<path fill="none" stroke="#9a32cd" stroke-dasharray="5,2" d="M27.15,-226.38C32.8,-215.93 41.23,-203.18 52,-195 62.99,-186.66 76.24,-180.39 89.39,-175.71"/>
<polygon fill="#9a32cd" stroke="#9a32cd" points="23.95,-224.95 22.61,-235.46 30.22,-228.08 23.95,-224.95"/>
<text text-anchor="middle" x="85.5" y="-209" font-family="Helvetica,sans-Serif" font-size="10.00"> is_pixel</text>
<text text-anchor="middle" x="85.5" y="-198" font-family="Helvetica,sans-Serif" font-size="10.00">has_been_set</text>
</g>
<!-- Node4 -->
<g id="node4" class="node">
<title>Node4</title>
<g id="a_node4"><a xlink:title=" ">
<polygon fill="white" stroke="#bfbfbf" points="307.5,-152 307.5,-171 382.5,-171 382.5,-152 307.5,-152"/>
<text text-anchor="middle" x="345" y="-159" font-family="Helvetica,sans-Serif" font-size="10.00">const char *</text>
</a>
</g>
</g>
<!-- Node4&#45;&gt;Node2 -->
<g id="edge3" class="edge">
<title>Node4&#45;&gt;Node2</title>
<path fill="none" stroke="#9a32cd" stroke-dasharray="5,2" d="M320.49,-147.1C295.57,-133.47 257.12,-112.45 231.75,-98.58"/>
<polygon fill="#9a32cd" stroke="#9a32cd" points="318.87,-150.2 329.33,-151.93 322.23,-144.06 318.87,-150.2"/>
<text text-anchor="middle" x="306" y="-120" font-family="Helvetica,sans-Serif" font-size="10.00"> m_name</text>
</g>
<!-- Node5 -->
<g id="node5" class="node">
<title>Node5</title>
<g id="a_node5"><a xlink:title=" ">
<polygon fill="white" stroke="#bfbfbf" points="206.5,-235.5 206.5,-254.5 235.5,-254.5 235.5,-235.5 206.5,-235.5"/>
<text text-anchor="middle" x="221" y="-242.5" font-family="Helvetica,sans-Serif" font-size="10.00">T</text>
</a>
</g>
</g>
<!-- Node5&#45;&gt;Node2 -->
<g id="edge4" class="edge">
<title>Node5&#45;&gt;Node2</title>
<path fill="none" stroke="#9a32cd" stroke-dasharray="5,2" d="M231.6,-226.46C233,-223.4 234.22,-220.18 235,-217 245.53,-173.82 250.83,-158.53 235,-117 232.41,-110.22 227.69,-103.95 222.79,-98.77"/>
<polygon fill="#9a32cd" stroke="#9a32cd" points="228.43,-224.96 226.8,-235.42 234.61,-228.26 228.43,-224.96"/>
<text text-anchor="middle" x="264" y="-159" font-family="Helvetica,sans-Serif" font-size="10.00"> m_sent</text>
</g>
<!-- Node5&#45;&gt;Node6 -->
<g id="edge8" class="edge">
<title>Node5&#45;&gt;Node6</title>
<path fill="none" stroke="#9a32cd" stroke-dasharray="5,2" d="M205.12,-227.91C201.73,-224.37 198.21,-220.59 195,-217 183.08,-203.63 170.12,-187.78 161.18,-176.63"/>
<polygon fill="#9a32cd" stroke="#9a32cd" points="202.68,-230.42 212.16,-235.16 207.7,-225.55 202.68,-230.42"/>
<text text-anchor="middle" x="215" y="-203.5" font-family="Helvetica,sans-Serif" font-size="10.00"> m_sent</text>
</g>
<!-- Node6&#45;&gt;Node2 -->
<g id="edge5" class="edge">
<title>Node6&#45;&gt;Node2</title>
<path fill="none" stroke="orange" stroke-dasharray="5,2" d="M155.66,-136.28C157.9,-129.66 160.94,-122.73 165,-117 169.94,-110.03 176.77,-103.8 183.45,-98.7"/>
<polygon fill="orange" stroke="orange" points="152.2,-135.65 152.76,-146.23 158.92,-137.61 152.2,-135.65"/>
<text text-anchor="middle" x="200" y="-120" font-family="Helvetica,sans-Serif" font-size="10.00"> &lt; T, 1, true &gt;</text>
</g>
<!-- Node7 -->
<g id="node7" class="node">
<title>Node7</title>
<g id="a_node7"><a xlink:title=" ">
<polygon fill="white" stroke="#bfbfbf" points="106,-235.5 106,-254.5 144,-254.5 144,-235.5 106,-235.5"/>
<text text-anchor="middle" x="125" y="-242.5" font-family="Helvetica,sans-Serif" font-size="10.00">char</text>
</a>
</g>
</g>
<!-- Node7&#45;&gt;Node6 -->
<g id="edge6" class="edge">
<title>Node7&#45;&gt;Node6</title>
<path fill="none" stroke="#9a32cd" stroke-dasharray="5,2" d="M122.75,-225.26C122.29,-215.93 122.72,-204.62 126,-195 128.26,-188.36 132.42,-181.95 136.64,-176.6"/>
<polygon fill="#9a32cd" stroke="#9a32cd" points="119.28,-225.75 123.64,-235.41 126.26,-225.14 119.28,-225.75"/>
<text text-anchor="middle" x="149" y="-203.5" font-family="Helvetica,sans-Serif" font-size="10.00"> m_name</text>
</g>
</g>
</svg>
