<?xml version="1.0" encoding="UTF-8" standalone="no"?>
<!DOCTYPE svg PUBLIC "-//W3C//DTD SVG 1.1//EN"
 "http://www.w3.org/Graphics/SVG/1.1/DTD/svg11.dtd">
<!-- Generated by graphviz version 2.43.0 (0)
 -->
<!-- Title: Schematic Pages: 1 -->
<svg width="1419pt" height="709pt"
 viewBox="0.00 0.00 1419.00 708.50" xmlns="http://www.w3.org/2000/svg" xmlns:xlink="http://www.w3.org/1999/xlink">
<g id="graph0" class="graph" transform="scale(1 1) rotate(0) translate(4 704.5)">
<title>Schematic</title>
<polygon fill="white" stroke="transparent" points="-4,4 -4,-704.5 1415,-704.5 1415,4 -4,4"/>
<!-- Node1 -->
<g id="node1" class="node">
<title>Node1</title>
<g id="a_node1"><a xlink:title=" ">
<polygon fill="#bfbfbf" stroke="black" points="1343,-204.5 1343,-223.5 1411,-223.5 1411,-204.5 1343,-204.5"/>
<text text-anchor="middle" x="1377" y="-211.5" font-family="Helvetica,sans-Serif" font-size="10.00">Schematic</text>
</a>
</g>
</g>
<!-- Node2 -->
<g id="node2" class="node">
<title>Node2</title>
<g id="a_node2"><a xlink:href="classObjDef.html" target="_top" xlink:title=" ">
<polygon fill="white" stroke="black" points="1181,-410.5 1181,-429.5 1231,-429.5 1231,-410.5 1181,-410.5"/>
<text text-anchor="middle" x="1206" y="-417.5" font-family="Helvetica,sans-Serif" font-size="10.00">ObjDef</text>
</a>
</g>
</g>
<!-- Node2&#45;&gt;Node1 -->
<g id="edge1" class="edge">
<title>Node2&#45;&gt;Node1</title>
<path fill="none" stroke="midnightblue" d="M1240.72,-409.25C1267,-399.29 1302.66,-382.03 1325,-356 1359.97,-315.25 1371.64,-248.71 1374.9,-223.81"/>
<polygon fill="midnightblue" stroke="midnightblue" points="1239.37,-406.02 1231.16,-412.72 1241.75,-412.6 1239.37,-406.02"/>
</g>
<!-- Node3 -->
<g id="node3" class="node">
<title>Node3</title>
<g id="a_node3"><a xlink:title=" ">
<polygon fill="white" stroke="#bfbfbf" points="937.5,-491.5 937.5,-510.5 981.5,-510.5 981.5,-491.5 937.5,-491.5"/>
<text text-anchor="middle" x="959.5" y="-498.5" font-family="Helvetica,sans-Serif" font-size="10.00">string</text>
</a>
</g>
</g>
<!-- Node3&#45;&gt;Node2 -->
<g id="edge2" class="edge">
<title>Node3&#45;&gt;Node2</title>
<path fill="none" stroke="#9a32cd" stroke-dasharray="5,2" d="M991.77,-495.75C1026.49,-489.27 1083.71,-476.64 1130,-457 1138.63,-453.34 1139.72,-450.4 1148,-446 1159.14,-440.08 1171.89,-434.19 1182.5,-429.51"/>
<polygon fill="#9a32cd" stroke="#9a32cd" points="990.98,-492.33 981.76,-497.56 992.23,-499.22 990.98,-492.33"/>
<text text-anchor="middle" x="1083.5" y="-488" font-family="Helvetica,sans-Serif" font-size="10.00"> name</text>
</g>
<!-- Node4 -->
<g id="node4" class="node">
<title>Node4</title>
<g id="a_node4"><a xlink:title=" ">
<polygon fill="white" stroke="#bfbfbf" points="942,-410.5 942,-429.5 977,-429.5 977,-410.5 942,-410.5"/>
<text text-anchor="middle" x="959.5" y="-417.5" font-family="Helvetica,sans-Serif" font-size="10.00">u32</text>
</a>
</g>
</g>
<!-- Node4&#45;&gt;Node1 -->
<g id="edge39" class="edge">
<title>Node4&#45;&gt;Node1</title>
<path fill="none" stroke="#9a32cd" stroke-dasharray="5,2" d="M985.39,-434.25C999.93,-441.75 1018.92,-450.16 1037,-454 1135.91,-474.99 1171.41,-479.62 1264,-439 1296.89,-424.57 1305.56,-416.2 1325,-386 1360.23,-331.26 1371.93,-251.26 1375.04,-223.73"/>
<polygon fill="#9a32cd" stroke="#9a32cd" points="987.01,-431.15 976.54,-429.52 983.7,-437.32 987.01,-431.15"/>
<text text-anchor="middle" x="1206" y="-472" font-family="Helvetica,sans-Serif" font-size="10.00"> flags</text>
</g>
<!-- Node4&#45;&gt;Node2 -->
<g id="edge3" class="edge">
<title>Node4&#45;&gt;Node2</title>
<path fill="none" stroke="#9a32cd" stroke-dasharray="5,2" d="M987.53,-420C1035.49,-420 1134.75,-420 1180.69,-420"/>
<polygon fill="#9a32cd" stroke="#9a32cd" points="987.31,-416.5 977.31,-420 987.31,-423.5 987.31,-416.5"/>
<text text-anchor="middle" x="1083.5" y="-445" font-family="Helvetica,sans-Serif" font-size="10.00"> handle</text>
<text text-anchor="middle" x="1083.5" y="-434" font-family="Helvetica,sans-Serif" font-size="10.00">uid</text>
<text text-anchor="middle" x="1083.5" y="-423" font-family="Helvetica,sans-Serif" font-size="10.00">index</text>
</g>
<!-- Node5 -->
<g id="node5" class="node">
<title>Node5</title>
<g id="a_node5"><a xlink:href="classNodeResolver.html" target="_top" xlink:title=" ">
<polygon fill="white" stroke="black" points="1163.5,-204.5 1163.5,-223.5 1248.5,-223.5 1248.5,-204.5 1163.5,-204.5"/>
<text text-anchor="middle" x="1206" y="-211.5" font-family="Helvetica,sans-Serif" font-size="10.00">NodeResolver</text>
</a>
</g>
</g>
<!-- Node4&#45;&gt;Node5 -->
<g id="edge33" class="edge">
<title>Node4&#45;&gt;Node5</title>
<path fill="none" stroke="#9a32cd" stroke-dasharray="5,2" d="M986.55,-408.6C996.93,-403.68 1008.81,-397.54 1019,-391 1072.44,-356.69 1084.42,-345.23 1130,-301 1156.91,-274.89 1184.74,-240.21 1197.63,-223.63"/>
<polygon fill="#9a32cd" stroke="#9a32cd" points="984.78,-405.56 977.17,-412.93 987.71,-411.92 984.78,-405.56"/>
<text text-anchor="middle" x="1083.5" y="-391" font-family="Helvetica,sans-Serif" font-size="10.00"> m_nnlistsizes_idx</text>
<text text-anchor="middle" x="1083.5" y="-380" font-family="Helvetica,sans-Serif" font-size="10.00">m_nodenames_idx</text>
</g>
<!-- Node5&#45;&gt;Node1 -->
<g id="edge4" class="edge">
<title>Node5&#45;&gt;Node1</title>
<path fill="none" stroke="midnightblue" d="M1258.96,-214C1286.31,-214 1319.02,-214 1342.9,-214"/>
<polygon fill="midnightblue" stroke="midnightblue" points="1258.78,-210.5 1248.78,-214 1258.78,-217.5 1258.78,-210.5"/>
</g>
<!-- Node6 -->
<g id="node6" class="node">
<title>Node6</title>
<g id="a_node6"><a xlink:href="classNodeDefManager.html" target="_top" xlink:title="This class is for getting the actual properties of nodes from their content ID.">
<polygon fill="white" stroke="black" points="908.5,-311.5 908.5,-330.5 1010.5,-330.5 1010.5,-311.5 908.5,-311.5"/>
<text text-anchor="middle" x="959.5" y="-318.5" font-family="Helvetica,sans-Serif" font-size="10.00">NodeDefManager</text>
</a>
</g>
</g>
<!-- Node6&#45;&gt;Node5 -->
<g id="edge5" class="edge">
<title>Node6&#45;&gt;Node5</title>
<path fill="none" stroke="#9a32cd" stroke-dasharray="5,2" d="M992.04,-307.2C1042.39,-285.16 1139.64,-242.6 1183.1,-223.59"/>
<polygon fill="#9a32cd" stroke="#9a32cd" points="990.39,-304.1 982.63,-311.32 993.19,-310.51 990.39,-304.1"/>
<text text-anchor="middle" x="1083.5" y="-289" font-family="Helvetica,sans-Serif" font-size="10.00"> m_ndef</text>
</g>
<!-- Node7 -->
<g id="node7" class="node">
<title>Node7</title>
<g id="a_node7"><a xlink:href="classirr_1_1core_1_1aabbox3d.html" target="_top" xlink:title=" ">
<polygon fill="white" stroke="black" points="585,-361 585,-391 693,-391 693,-361 585,-361"/>
<text text-anchor="start" x="593" y="-379" font-family="Helvetica,sans-Serif" font-size="10.00">irr::core::aabbox3d</text>
<text text-anchor="middle" x="639" y="-368" font-family="Helvetica,sans-Serif" font-size="10.00">&lt; s16 &gt;</text>
</a>
</g>
</g>
<!-- Node7&#45;&gt;Node6 -->
<g id="edge6" class="edge">
<title>Node7&#45;&gt;Node6</title>
<path fill="none" stroke="#9a32cd" stroke-dasharray="5,2" d="M703.54,-366.03C752.4,-358.23 821.56,-346.92 882,-336 891.46,-334.29 901.55,-332.38 911.2,-330.5"/>
<polygon fill="#9a32cd" stroke="#9a32cd" points="702.75,-362.61 693.43,-367.64 703.85,-369.52 702.75,-362.61"/>
<text text-anchor="start" x="755" y="-375" font-family="Helvetica,sans-Serif" font-size="10.00"> m_selection_box_int</text>
<text text-anchor="middle" x="807" y="-364" font-family="Helvetica,sans-Serif" font-size="10.00">_union</text>
</g>
<!-- Node8 -->
<g id="node8" class="node">
<title>Node8</title>
<g id="a_node8"><a xlink:href="classirr_1_1core_1_1vector3d.html" target="_top" xlink:title=" ">
<polygon fill="white" stroke="black" points="305,-493 305,-523 408,-523 408,-493 305,-493"/>
<text text-anchor="start" x="313" y="-511" font-family="Helvetica,sans-Serif" font-size="10.00">irr::core::vector3d</text>
<text text-anchor="middle" x="356.5" y="-500" font-family="Helvetica,sans-Serif" font-size="10.00">&lt; s16 &gt;</text>
</a>
</g>
</g>
<!-- Node8&#45;&gt;Node1 -->
<g id="edge40" class="edge">
<title>Node8&#45;&gt;Node1</title>
<path fill="none" stroke="#9a32cd" stroke-dasharray="5,2" d="M418.31,-518.82C459.32,-525.55 514.73,-533.56 564,-537 634.5,-541.93 829.2,-582.97 882,-536 930.85,-492.54 859.42,-441.26 900,-390 907.47,-380.57 1248.95,-259.02 1348.83,-223.62"/>
<polygon fill="#9a32cd" stroke="#9a32cd" points="418.65,-515.32 408.21,-517.14 417.5,-522.23 418.65,-515.32"/>
<text text-anchor="middle" x="959.5" y="-393" font-family="Helvetica,sans-Serif" font-size="10.00"> size</text>
</g>
<!-- Node8&#45;&gt;Node7 -->
<g id="edge7" class="edge">
<title>Node8&#45;&gt;Node7</title>
<path fill="none" stroke="#9a32cd" stroke-dasharray="5,2" d="M371.76,-484.14C390.64,-453.42 423.79,-402.71 443,-392 466.51,-378.89 535.66,-375.88 584.92,-375.49"/>
<polygon fill="#9a32cd" stroke="#9a32cd" points="368.6,-482.6 366.39,-492.96 374.58,-486.24 368.6,-482.6"/>
<text text-anchor="middle" x="494.5" y="-406" font-family="Helvetica,sans-Serif" font-size="10.00"> MinEdge</text>
<text text-anchor="middle" x="494.5" y="-395" font-family="Helvetica,sans-Serif" font-size="10.00">MaxEdge</text>
</g>
<!-- Node9 -->
<g id="node9" class="node">
<title>Node9</title>
<g id="a_node9"><a xlink:title=" ">
<polygon fill="white" stroke="#bfbfbf" points="123.5,-470.5 123.5,-489.5 157.5,-489.5 157.5,-470.5 123.5,-470.5"/>
<text text-anchor="middle" x="140.5" y="-477.5" font-family="Helvetica,sans-Serif" font-size="10.00">s16</text>
</a>
</g>
</g>
<!-- Node9&#45;&gt;Node8 -->
<g id="edge8" class="edge">
<title>Node9&#45;&gt;Node8</title>
<path fill="none" stroke="#9a32cd" stroke-dasharray="5,2" d="M168.08,-477.92C194.2,-476.41 235.1,-475.48 270,-481 285.53,-483.46 302.11,-488.18 316.5,-492.99"/>
<polygon fill="#9a32cd" stroke="#9a32cd" points="167.61,-474.44 157.86,-478.58 168.06,-481.43 167.61,-474.44"/>
<text text-anchor="middle" x="247" y="-506" font-family="Helvetica,sans-Serif" font-size="10.00"> X</text>
<text text-anchor="middle" x="247" y="-495" font-family="Helvetica,sans-Serif" font-size="10.00">Y</text>
<text text-anchor="middle" x="247" y="-484" font-family="Helvetica,sans-Serif" font-size="10.00">Z</text>
</g>
<!-- Node10 -->
<g id="node10" class="node">
<title>Node10</title>
<g id="a_node10"><a xlink:href="classirr_1_1core_1_1vector3d.html" target="_top" xlink:title="3d vector template class with lots of operators and methods.">
<polygon fill="white" stroke="black" points="75,-541.5 75,-560.5 206,-560.5 206,-541.5 75,-541.5"/>
<text text-anchor="middle" x="140.5" y="-548.5" font-family="Helvetica,sans-Serif" font-size="10.00">irr::core::vector3d&lt; T &gt;</text>
</a>
</g>
</g>
<!-- Node10&#45;&gt;Node8 -->
<g id="edge9" class="edge">
<title>Node10&#45;&gt;Node8</title>
<path fill="none" stroke="orange" stroke-dasharray="5,2" d="M198.95,-539.46C231.94,-532.83 272.99,-524.58 304.78,-518.19"/>
<polygon fill="orange" stroke="orange" points="198.11,-536.06 188.99,-541.46 199.49,-542.92 198.11,-536.06"/>
<text text-anchor="middle" x="247" y="-536" font-family="Helvetica,sans-Serif" font-size="10.00"> &lt; s16 &gt;</text>
</g>
<!-- Node26 -->
<g id="node26" class="node">
<title>Node26</title>
<g id="a_node26"><a xlink:href="classirr_1_1core_1_1vector3d.html" target="_top" xlink:title=" ">
<polygon fill="white" stroke="black" points="305,-572 305,-602 408,-602 408,-572 305,-572"/>
<text text-anchor="start" x="313" y="-590" font-family="Helvetica,sans-Serif" font-size="10.00">irr::core::vector3d</text>
<text text-anchor="middle" x="356.5" y="-579" font-family="Helvetica,sans-Serif" font-size="10.00">&lt; f32 &gt;</text>
</a>
</g>
</g>
<!-- Node10&#45;&gt;Node26 -->
<g id="edge28" class="edge">
<title>Node10&#45;&gt;Node26</title>
<path fill="none" stroke="orange" stroke-dasharray="5,2" d="M207.95,-562.18C239.23,-567.44 275.92,-573.61 304.9,-578.49"/>
<polygon fill="orange" stroke="orange" points="208.45,-558.71 198.01,-560.51 207.29,-565.62 208.45,-558.71"/>
<text text-anchor="middle" x="247" y="-575" font-family="Helvetica,sans-Serif" font-size="10.00"> &lt; f32 &gt;</text>
</g>
<!-- Node11 -->
<g id="node11" class="node">
<title>Node11</title>
<g id="a_node11"><a xlink:title=" ">
<polygon fill="white" stroke="#bfbfbf" points="0,-541.5 0,-560.5 29,-560.5 29,-541.5 0,-541.5"/>
<text text-anchor="middle" x="14.5" y="-548.5" font-family="Helvetica,sans-Serif" font-size="10.00">T</text>
</a>
</g>
</g>
<!-- Node11&#45;&gt;Node10 -->
<g id="edge10" class="edge">
<title>Node11&#45;&gt;Node10</title>
<path fill="none" stroke="#9a32cd" stroke-dasharray="5,2" d="M39.38,-551C49.64,-551 62.18,-551 74.86,-551"/>
<polygon fill="#9a32cd" stroke="#9a32cd" points="39.24,-547.5 29.24,-551 39.24,-554.5 39.24,-547.5"/>
<text text-anchor="middle" x="52" y="-576" font-family="Helvetica,sans-Serif" font-size="10.00"> X</text>
<text text-anchor="middle" x="52" y="-565" font-family="Helvetica,sans-Serif" font-size="10.00">Y</text>
<text text-anchor="middle" x="52" y="-554" font-family="Helvetica,sans-Serif" font-size="10.00">Z</text>
</g>
<!-- Node12 -->
<g id="node12" class="node">
<title>Node12</title>
<g id="a_node12"><a xlink:href="classirr_1_1core_1_1aabbox3d.html" target="_top" xlink:title="Axis aligned bounding box in 3d dimensional space.">
<polygon fill="white" stroke="black" points="288,-379.5 288,-398.5 425,-398.5 425,-379.5 288,-379.5"/>
<text text-anchor="middle" x="356.5" y="-386.5" font-family="Helvetica,sans-Serif" font-size="10.00">irr::core::aabbox3d&lt; T &gt;</text>
</a>
</g>
</g>
<!-- Node12&#45;&gt;Node7 -->
<g id="edge11" class="edge">
<title>Node12&#45;&gt;Node7</title>
<path fill="none" stroke="orange" stroke-dasharray="5,2" d="M390.7,-375.91C406.31,-370.44 425.33,-364.72 443,-362 490.63,-354.66 545.42,-359.77 584.77,-365.78"/>
<polygon fill="orange" stroke="orange" points="389.19,-372.73 380.99,-379.44 391.58,-379.31 389.19,-372.73"/>
<text text-anchor="middle" x="494.5" y="-365" font-family="Helvetica,sans-Serif" font-size="10.00"> &lt; s16 &gt;</text>
</g>
<!-- Node25 -->
<g id="node25" class="node">
<title>Node25</title>
<g id="a_node25"><a xlink:href="classirr_1_1core_1_1aabbox3d.html" target="_top" xlink:title=" ">
<polygon fill="white" stroke="black" points="585,-410 585,-440 693,-440 693,-410 585,-410"/>
<text text-anchor="start" x="593" y="-428" font-family="Helvetica,sans-Serif" font-size="10.00">irr::core::aabbox3d</text>
<text text-anchor="middle" x="639" y="-417" font-family="Helvetica,sans-Serif" font-size="10.00">&lt; f32 &gt;</text>
</a>
</g>
</g>
<!-- Node12&#45;&gt;Node25 -->
<g id="edge29" class="edge">
<title>Node12&#45;&gt;Node25</title>
<path fill="none" stroke="orange" stroke-dasharray="5,2" d="M389.22,-402.22C405.08,-408.19 424.74,-414.65 443,-418 490.48,-426.71 545.52,-427.89 585,-427.23"/>
<polygon fill="orange" stroke="orange" points="390.47,-398.95 379.88,-398.6 387.94,-405.48 390.47,-398.95"/>
<text text-anchor="middle" x="494.5" y="-430" font-family="Helvetica,sans-Serif" font-size="10.00"> &lt; f32 &gt;</text>
</g>
<!-- Node13 -->
<g id="node13" class="node">
<title>Node13</title>
<g id="a_node13"><a xlink:title=" ">
<polygon fill="white" stroke="#bfbfbf" points="96.5,-379.5 96.5,-398.5 184.5,-398.5 184.5,-379.5 96.5,-379.5"/>
<text text-anchor="middle" x="140.5" y="-386.5" font-family="Helvetica,sans-Serif" font-size="10.00">vector3d&lt; T &gt;</text>
</a>
</g>
</g>
<!-- Node13&#45;&gt;Node12 -->
<g id="edge12" class="edge">
<title>Node13&#45;&gt;Node12</title>
<path fill="none" stroke="#9a32cd" stroke-dasharray="5,2" d="M194.59,-389C222.72,-389 257.59,-389 287.66,-389"/>
<polygon fill="#9a32cd" stroke="#9a32cd" points="194.55,-385.5 184.55,-389 194.55,-392.5 194.55,-385.5"/>
<text text-anchor="middle" x="247" y="-403" font-family="Helvetica,sans-Serif" font-size="10.00"> MinEdge</text>
<text text-anchor="middle" x="247" y="-392" font-family="Helvetica,sans-Serif" font-size="10.00">MaxEdge</text>
</g>
<!-- Node14 -->
<g id="node14" class="node">
<title>Node14</title>
<g id="a_node14"><a xlink:title=" ">
<polygon fill="white" stroke="#bfbfbf" points="579.5,-300.5 579.5,-341.5 698.5,-341.5 698.5,-300.5 579.5,-300.5"/>
<text text-anchor="start" x="587.5" y="-329.5" font-family="Helvetica,sans-Serif" font-size="10.00">unordered_map&lt; std</text>
<text text-anchor="start" x="587.5" y="-318.5" font-family="Helvetica,sans-Serif" font-size="10.00">::string, std::vector</text>
<text text-anchor="middle" x="639" y="-307.5" font-family="Helvetica,sans-Serif" font-size="10.00">&lt; content_t &gt; &gt;</text>
</a>
</g>
</g>
<!-- Node14&#45;&gt;Node6 -->
<g id="edge13" class="edge">
<title>Node14&#45;&gt;Node6</title>
<path fill="none" stroke="#9a32cd" stroke-dasharray="5,2" d="M708.95,-321C769.02,-321 854.71,-321 908.43,-321"/>
<polygon fill="#9a32cd" stroke="#9a32cd" points="708.79,-317.5 698.79,-321 708.79,-324.5 708.79,-317.5"/>
<text text-anchor="middle" x="807" y="-324" font-family="Helvetica,sans-Serif" font-size="10.00"> m_group_to_items</text>
</g>
<!-- Node15 -->
<g id="node15" class="node">
<title>Node15</title>
<g id="a_node15"><a xlink:title=" ">
<polygon fill="white" stroke="#bfbfbf" points="564,-262.5 564,-281.5 714,-281.5 714,-262.5 564,-262.5"/>
<text text-anchor="middle" x="639" y="-269.5" font-family="Helvetica,sans-Serif" font-size="10.00">vector&lt; ContentFeatures &gt;</text>
</a>
</g>
</g>
<!-- Node15&#45;&gt;Node6 -->
<g id="edge14" class="edge">
<title>Node15&#45;&gt;Node6</title>
<path fill="none" stroke="#9a32cd" stroke-dasharray="5,2" d="M724.09,-282.68C770.71,-288.88 829.67,-297.2 882,-306 891.74,-307.64 902.15,-309.56 912.05,-311.48"/>
<polygon fill="#9a32cd" stroke="#9a32cd" points="724.4,-279.19 714.03,-281.35 723.49,-286.13 724.4,-279.19"/>
<text text-anchor="middle" x="807" y="-309" font-family="Helvetica,sans-Serif" font-size="10.00"> m_content_features</text>
</g>
<!-- Node16 -->
<g id="node16" class="node">
<title>Node16</title>
<g id="a_node16"><a xlink:title=" ">
<polygon fill="white" stroke="#bfbfbf" points="621.5,-128.5 621.5,-147.5 656.5,-147.5 656.5,-128.5 621.5,-128.5"/>
<text text-anchor="middle" x="639" y="-135.5" font-family="Helvetica,sans-Serif" font-size="10.00">u16</text>
</a>
</g>
</g>
<!-- Node16&#45;&gt;Node6 -->
<g id="edge15" class="edge">
<title>Node16&#45;&gt;Node6</title>
<path fill="none" stroke="#9a32cd" stroke-dasharray="5,2" d="M666.89,-139.69C726.5,-143.66 865.79,-154.31 882,-168 903.27,-185.96 888.48,-202.65 900,-228 914.76,-260.47 939.17,-295.13 951.26,-311.45"/>
<polygon fill="#9a32cd" stroke="#9a32cd" points="666.94,-136.18 656.73,-139.02 666.48,-143.17 666.94,-136.18"/>
<text text-anchor="middle" x="807" y="-171" font-family="Helvetica,sans-Serif" font-size="10.00"> m_next_id</text>
</g>
<!-- Node31 -->
<g id="node31" class="node">
<title>Node31</title>
<g id="a_node31"><a xlink:href="structMapNode.html" target="_top" xlink:title=" ">
<polygon fill="white" stroke="black" points="928,-90.5 928,-109.5 991,-109.5 991,-90.5 928,-90.5"/>
<text text-anchor="middle" x="959.5" y="-97.5" font-family="Helvetica,sans-Serif" font-size="10.00">MapNode</text>
</a>
</g>
</g>
<!-- Node16&#45;&gt;Node31 -->
<g id="edge37" class="edge">
<title>Node16&#45;&gt;Node31</title>
<path fill="none" stroke="#9a32cd" stroke-dasharray="5,2" d="M666.8,-135.55C711.49,-131.37 804.02,-122.3 882,-112 897.06,-110.01 913.73,-107.44 927.66,-105.19"/>
<polygon fill="#9a32cd" stroke="#9a32cd" points="666.39,-132.07 656.76,-136.48 667.04,-139.04 666.39,-132.07"/>
<text text-anchor="middle" x="807" y="-132" font-family="Helvetica,sans-Serif" font-size="10.00"> param0</text>
</g>
<!-- Node17 -->
<g id="node17" class="node">
<title>Node17</title>
<g id="a_node17"><a xlink:href="structContentLightingFlags.html" target="_top" xlink:title=" ">
<polygon fill="white" stroke="black" points="579,-166.5 579,-185.5 699,-185.5 699,-166.5 579,-166.5"/>
<text text-anchor="middle" x="639" y="-173.5" font-family="Helvetica,sans-Serif" font-size="10.00">ContentLightingFlags</text>
</a>
</g>
</g>
<!-- Node17&#45;&gt;Node6 -->
<g id="edge16" class="edge">
<title>Node17&#45;&gt;Node6</title>
<path fill="none" stroke="#9a32cd" stroke-dasharray="5,2" d="M709.28,-180.7C775.56,-185.69 867.53,-194.06 882,-203 887.45,-206.37 935.44,-283.61 952.51,-311.27"/>
<polygon fill="#9a32cd" stroke="#9a32cd" points="709.52,-177.21 699.29,-179.96 709.01,-184.19 709.52,-177.21"/>
<text text-anchor="start" x="758.5" y="-217" font-family="Helvetica,sans-Serif" font-size="10.00"> m_content_lighting</text>
<text text-anchor="middle" x="807" y="-206" font-family="Helvetica,sans-Serif" font-size="10.00">_flag_cache</text>
</g>
<!-- Node18 -->
<g id="node18" class="node">
<title>Node18</title>
<g id="a_node18"><a xlink:title=" ">
<polygon fill="white" stroke="#bfbfbf" points="342,-36.5 342,-55.5 371,-55.5 371,-36.5 342,-36.5"/>
<text text-anchor="middle" x="356.5" y="-43.5" font-family="Helvetica,sans-Serif" font-size="10.00">u8</text>
</a>
</g>
</g>
<!-- Node18&#45;&gt;Node1 -->
<g id="edge35" class="edge">
<title>Node18&#45;&gt;Node1</title>
<path fill="none" stroke="#9a32cd" stroke-dasharray="5,2" d="M380.78,-39.55C428.58,-26.88 541.43,0 638,0 638,0 638,0 1207,0 1265.63,0 1286.67,-14.63 1325,-59 1363.52,-103.59 1373.11,-178.05 1375.36,-204.4"/>
<polygon fill="#9a32cd" stroke="#9a32cd" points="379.83,-36.18 371.09,-42.16 381.65,-42.94 379.83,-36.18"/>
<text text-anchor="middle" x="959.5" y="-3" font-family="Helvetica,sans-Serif" font-size="10.00"> slice_probs</text>
</g>
<!-- Node18&#45;&gt;Node17 -->
<g id="edge17" class="edge">
<title>Node18&#45;&gt;Node17</title>
<path fill="none" stroke="#9a32cd" stroke-dasharray="5,2" d="M379.98,-60.45C417.01,-83.69 493.75,-129.57 564,-157 573.39,-160.67 583.73,-163.83 593.62,-166.47"/>
<polygon fill="#9a32cd" stroke="#9a32cd" points="381.77,-57.44 371.45,-55.05 378.03,-63.35 381.77,-57.44"/>
<text text-anchor="middle" x="494.5" y="-150" font-family="Helvetica,sans-Serif" font-size="10.00"> light_source</text>
</g>
<!-- Node18&#45;&gt;Node31 -->
<g id="edge38" class="edge">
<title>Node18&#45;&gt;Node31</title>
<path fill="none" stroke="#9a32cd" stroke-dasharray="5,2" d="M381.18,-45.43C455.61,-44.05 691.25,-42.98 882,-78 898.17,-80.97 915.84,-85.93 930.12,-90.39"/>
<polygon fill="#9a32cd" stroke="#9a32cd" points="380.94,-41.93 371.02,-45.64 381.09,-48.93 380.94,-41.93"/>
<text text-anchor="middle" x="639" y="-69" font-family="Helvetica,sans-Serif" font-size="10.00"> param1</text>
<text text-anchor="middle" x="639" y="-58" font-family="Helvetica,sans-Serif" font-size="10.00">param2</text>
</g>
<!-- Node19 -->
<g id="node19" class="node">
<title>Node19</title>
<g id="a_node19"><a xlink:href="classbool.html" target="_top" xlink:title=" ">
<polygon fill="white" stroke="black" points="337.5,-164.5 337.5,-183.5 375.5,-183.5 375.5,-164.5 337.5,-164.5"/>
<text text-anchor="middle" x="356.5" y="-171.5" font-family="Helvetica,sans-Serif" font-size="10.00">bool</text>
</a>
</g>
</g>
<!-- Node19&#45;&gt;Node5 -->
<g id="edge32" class="edge">
<title>Node19&#45;&gt;Node5</title>
<path fill="none" stroke="#9a32cd" stroke-dasharray="5,2" d="M385.21,-165.27C424.57,-153.19 499.11,-131.44 564,-119 633.54,-105.67 827.51,-53.78 882,-99 915.4,-126.72 867.47,-166.25 900,-195 976.52,-262.64 1110.42,-239.3 1172.14,-223.56"/>
<polygon fill="#9a32cd" stroke="#9a32cd" points="384.05,-161.97 375.53,-168.27 386.12,-168.66 384.05,-161.97"/>
<text text-anchor="middle" x="807" y="-102" font-family="Helvetica,sans-Serif" font-size="10.00"> m_resolve_done</text>
</g>
<!-- Node19&#45;&gt;Node6 -->
<g id="edge19" class="edge">
<title>Node19&#45;&gt;Node6</title>
<path fill="none" stroke="#9a32cd" stroke-dasharray="5,2" d="M385.19,-187.42C401.6,-194.76 423.04,-203.29 443,-208 560.65,-235.74 595.11,-209.18 714,-231 790.38,-245.02 810.18,-249.46 882,-279 904.28,-288.16 928.39,-302.15 943.47,-311.43"/>
<polygon fill="#9a32cd" stroke="#9a32cd" points="386.22,-184.04 375.67,-183.05 383.3,-190.4 386.22,-184.04"/>
<text text-anchor="start" x="587" y="-245" font-family="Helvetica,sans-Serif" font-size="10.00"> m_node_registration</text>
<text text-anchor="middle" x="639" y="-234" font-family="Helvetica,sans-Serif" font-size="10.00">_complete</text>
</g>
<!-- Node19&#45;&gt;Node17 -->
<g id="edge18" class="edge">
<title>Node19&#45;&gt;Node17</title>
<path fill="none" stroke="#9a32cd" stroke-dasharray="5,2" d="M385.71,-174.1C422.56,-174.24 489.11,-174.54 546,-175 556.54,-175.09 567.76,-175.19 578.61,-175.31"/>
<polygon fill="#9a32cd" stroke="#9a32cd" points="385.71,-170.6 375.7,-174.06 385.68,-177.6 385.71,-170.6"/>
<text text-anchor="middle" x="494.5" y="-200" font-family="Helvetica,sans-Serif" font-size="10.00"> sunlight_propagates</text>
<text text-anchor="middle" x="494.5" y="-189" font-family="Helvetica,sans-Serif" font-size="10.00">light_propagates</text>
<text text-anchor="middle" x="494.5" y="-178" font-family="Helvetica,sans-Serif" font-size="10.00">has_light</text>
</g>
<!-- Node20 -->
<g id="node20" class="node">
<title>Node20</title>
<g id="a_node20"><a xlink:href="classNameIdMapping.html" target="_top" xlink:title=" ">
<polygon fill="white" stroke="black" points="590.5,-626.5 590.5,-645.5 687.5,-645.5 687.5,-626.5 590.5,-626.5"/>
<text text-anchor="middle" x="639" y="-633.5" font-family="Helvetica,sans-Serif" font-size="10.00">NameIdMapping</text>
</a>
</g>
</g>
<!-- Node20&#45;&gt;Node6 -->
<g id="edge20" class="edge">
<title>Node20&#45;&gt;Node6</title>
<path fill="none" stroke="#9a32cd" stroke-dasharray="5,2" d="M697.88,-629.06C754.56,-618.97 838.53,-594.53 882,-536 930.46,-470.74 855.6,-422.08 900,-354 906.94,-343.35 918.58,-335.79 929.65,-330.62"/>
<polygon fill="#9a32cd" stroke="#9a32cd" points="697.26,-625.62 687.98,-630.73 698.43,-632.52 697.26,-625.62"/>
<text text-anchor="middle" x="807" y="-624" font-family="Helvetica,sans-Serif" font-size="10.00"> m_name_id_mapping</text>
</g>
<!-- Node21 -->
<g id="node21" class="node">
<title>Node21</title>
<g id="a_node21"><a xlink:title=" ">
<polygon fill="white" stroke="#bfbfbf" points="297,-670 297,-700 416,-700 416,-670 297,-670"/>
<text text-anchor="start" x="305" y="-688" font-family="Helvetica,sans-Serif" font-size="10.00">unordered_map&lt; std</text>
<text text-anchor="middle" x="356.5" y="-677" font-family="Helvetica,sans-Serif" font-size="10.00">::string, u16 &gt;</text>
</a>
</g>
</g>
<!-- Node21&#45;&gt;Node20 -->
<g id="edge21" class="edge">
<title>Node21&#45;&gt;Node20</title>
<path fill="none" stroke="#9a32cd" stroke-dasharray="5,2" d="M426.25,-672.99C477.22,-664.09 545.38,-652.18 590.44,-644.31"/>
<polygon fill="#9a32cd" stroke="#9a32cd" points="425.55,-669.56 416.3,-674.73 426.76,-676.45 425.55,-669.56"/>
<text text-anchor="middle" x="494.5" y="-672" font-family="Helvetica,sans-Serif" font-size="10.00"> m_name_to_id</text>
</g>
<!-- Node22 -->
<g id="node22" class="node">
<title>Node22</title>
<g id="a_node22"><a xlink:title=" ">
<polygon fill="white" stroke="#bfbfbf" points="294,-621 294,-651 419,-651 419,-621 294,-621"/>
<text text-anchor="start" x="302" y="-639" font-family="Helvetica,sans-Serif" font-size="10.00">unordered_map&lt; u16,</text>
<text text-anchor="middle" x="356.5" y="-628" font-family="Helvetica,sans-Serif" font-size="10.00"> std::string &gt;</text>
</a>
</g>
</g>
<!-- Node22&#45;&gt;Node20 -->
<g id="edge22" class="edge">
<title>Node22&#45;&gt;Node20</title>
<path fill="none" stroke="#9a32cd" stroke-dasharray="5,2" d="M429.28,-636C479.92,-636 546.33,-636 590.5,-636"/>
<polygon fill="#9a32cd" stroke="#9a32cd" points="429.06,-632.5 419.06,-636 429.06,-639.5 429.06,-632.5"/>
<text text-anchor="middle" x="494.5" y="-639" font-family="Helvetica,sans-Serif" font-size="10.00"> m_id_to_name</text>
</g>
<!-- Node23 -->
<g id="node23" class="node">
<title>Node23</title>
<g id="a_node23"><a xlink:title=" ">
<polygon fill="white" stroke="#bfbfbf" points="566,-508.5 566,-527.5 712,-527.5 712,-508.5 566,-508.5"/>
<text text-anchor="middle" x="639" y="-515.5" font-family="Helvetica,sans-Serif" font-size="10.00">vector&lt; NodeResolver * &gt;</text>
</a>
</g>
</g>
<!-- Node23&#45;&gt;Node6 -->
<g id="edge23" class="edge">
<title>Node23&#45;&gt;Node6</title>
<path fill="none" stroke="#9a32cd" stroke-dasharray="5,2" d="M722.34,-521.14C783.39,-521.58 859.72,-517.51 882,-496 927.77,-451.82 864.52,-406.8 900,-354 907.15,-343.35 918.96,-335.76 930.1,-330.57"/>
<polygon fill="#9a32cd" stroke="#9a32cd" points="722.34,-517.64 712.3,-521.03 722.26,-524.64 722.34,-517.64"/>
<text text-anchor="middle" x="807" y="-524" font-family="Helvetica,sans-Serif" font-size="10.00"> m_pending_resolve_callbacks</text>
</g>
<!-- Node24 -->
<g id="node24" class="node">
<title>Node24</title>
<g id="a_node24"><a xlink:title=" ">
<polygon fill="white" stroke="#bfbfbf" points="579.5,-459 579.5,-489 698.5,-489 698.5,-459 579.5,-459"/>
<text text-anchor="start" x="587.5" y="-477" font-family="Helvetica,sans-Serif" font-size="10.00">unordered_map&lt; std</text>
<text text-anchor="middle" x="639" y="-466" font-family="Helvetica,sans-Serif" font-size="10.00">::string, content_t &gt;</text>
</a>
</g>
</g>
<!-- Node24&#45;&gt;Node6 -->
<g id="edge24" class="edge">
<title>Node24&#45;&gt;Node6</title>
<path fill="none" stroke="#9a32cd" stroke-dasharray="5,2" d="M708.8,-474.17C771.36,-472.83 857.53,-466.72 882,-444 911.89,-416.24 876.06,-387.03 900,-354 907.67,-343.43 919.82,-335.79 931.07,-330.54"/>
<polygon fill="#9a32cd" stroke="#9a32cd" points="708.52,-470.68 698.58,-474.36 708.65,-477.68 708.52,-470.68"/>
<text text-anchor="start" x="739.5" y="-487" font-family="Helvetica,sans-Serif" font-size="10.00"> m_name_id_mapping_with</text>
<text text-anchor="middle" x="807" y="-476" font-family="Helvetica,sans-Serif" font-size="10.00">_aliases</text>
</g>
<!-- Node25&#45;&gt;Node6 -->
<g id="edge25" class="edge">
<title>Node25&#45;&gt;Node6</title>
<path fill="none" stroke="#9a32cd" stroke-dasharray="5,2" d="M703.29,-429.74C755.72,-430.47 829.84,-423.73 882,-387 895.66,-377.38 888.27,-365.9 900,-354 909.82,-344.04 923.29,-336.16 934.83,-330.61"/>
<polygon fill="#9a32cd" stroke="#9a32cd" points="703.18,-426.24 693.1,-429.51 703.02,-433.24 703.18,-426.24"/>
<text text-anchor="middle" x="807" y="-432" font-family="Helvetica,sans-Serif" font-size="10.00"> m_selection_box_union</text>
</g>
<!-- Node26&#45;&gt;Node25 -->
<g id="edge26" class="edge">
<title>Node26&#45;&gt;Node25</title>
<path fill="none" stroke="#9a32cd" stroke-dasharray="5,2" d="M384.45,-565.77C422.62,-536.52 495.4,-483.63 564,-450 571.43,-446.36 579.52,-443.03 587.53,-440.08"/>
<polygon fill="#9a32cd" stroke="#9a32cd" points="382.18,-563.1 376.41,-571.98 386.46,-568.64 382.18,-563.1"/>
<text text-anchor="middle" x="494.5" y="-536" font-family="Helvetica,sans-Serif" font-size="10.00"> MinEdge</text>
<text text-anchor="middle" x="494.5" y="-525" font-family="Helvetica,sans-Serif" font-size="10.00">MaxEdge</text>
</g>
<!-- Node27 -->
<g id="node27" class="node">
<title>Node27</title>
<g id="a_node27"><a xlink:title=" ">
<polygon fill="white" stroke="#bfbfbf" points="121.5,-594.5 121.5,-613.5 159.5,-613.5 159.5,-594.5 121.5,-594.5"/>
<text text-anchor="middle" x="140.5" y="-601.5" font-family="Helvetica,sans-Serif" font-size="10.00">float</text>
</a>
</g>
</g>
<!-- Node27&#45;&gt;Node26 -->
<g id="edge27" class="edge">
<title>Node27&#45;&gt;Node26</title>
<path fill="none" stroke="#9a32cd" stroke-dasharray="5,2" d="M169.99,-601.74C204.27,-599.01 262.47,-594.39 304.56,-591.05"/>
<polygon fill="#9a32cd" stroke="#9a32cd" points="169.44,-598.27 159.75,-602.55 169.99,-605.25 169.44,-598.27"/>
<text text-anchor="middle" x="247" y="-622" font-family="Helvetica,sans-Serif" font-size="10.00"> X</text>
<text text-anchor="middle" x="247" y="-611" font-family="Helvetica,sans-Serif" font-size="10.00">Y</text>
<text text-anchor="middle" x="247" y="-600" font-family="Helvetica,sans-Serif" font-size="10.00">Z</text>
</g>
<!-- Node28 -->
<g id="node28" class="node">
<title>Node28</title>
<g id="a_node28"><a xlink:title=" ">
<polygon fill="white" stroke="#bfbfbf" points="900,-166.5 900,-185.5 1019,-185.5 1019,-166.5 900,-166.5"/>
<text text-anchor="middle" x="959.5" y="-173.5" font-family="Helvetica,sans-Serif" font-size="10.00">vector&lt; std::string &gt;</text>
</a>
</g>
</g>
<!-- Node28&#45;&gt;Node5 -->
<g id="edge30" class="edge">
<title>Node28&#45;&gt;Node5</title>
<path fill="none" stroke="#9a32cd" stroke-dasharray="5,2" d="M1029.31,-177.45C1060.32,-179.08 1097.25,-182.39 1130,-189 1147.62,-192.56 1166.85,-199.02 1181.42,-204.48"/>
<polygon fill="#9a32cd" stroke="#9a32cd" points="1029.19,-173.94 1019.04,-176.96 1028.86,-180.93 1029.19,-173.94"/>
<text text-anchor="middle" x="1083.5" y="-192" font-family="Helvetica,sans-Serif" font-size="10.00"> m_nodenames</text>
</g>
<!-- Node29 -->
<g id="node29" class="node">
<title>Node29</title>
<g id="a_node29"><a xlink:title=" ">
<polygon fill="white" stroke="#bfbfbf" points="910.5,-128.5 910.5,-147.5 1008.5,-147.5 1008.5,-128.5 910.5,-128.5"/>
<text text-anchor="middle" x="959.5" y="-135.5" font-family="Helvetica,sans-Serif" font-size="10.00">vector&lt; size_t &gt;</text>
</a>
</g>
</g>
<!-- Node29&#45;&gt;Node5 -->
<g id="edge31" class="edge">
<title>Node29&#45;&gt;Node5</title>
<path fill="none" stroke="#9a32cd" stroke-dasharray="5,2" d="M1018.86,-139.6C1052.35,-142.14 1094.64,-148.14 1130,-162 1155.37,-171.94 1180.51,-192 1194.27,-204.09"/>
<polygon fill="#9a32cd" stroke="#9a32cd" points="1018.98,-136.1 1008.76,-138.92 1018.5,-143.09 1018.98,-136.1"/>
<text text-anchor="middle" x="1083.5" y="-165" font-family="Helvetica,sans-Serif" font-size="10.00"> m_nnlistsizes</text>
</g>
<!-- Node30 -->
<g id="node30" class="node">
<title>Node30</title>
<g id="a_node30"><a xlink:title=" ">
<polygon fill="white" stroke="#bfbfbf" points="1148,-51.5 1148,-70.5 1264,-70.5 1264,-51.5 1148,-51.5"/>
<text text-anchor="middle" x="1206" y="-58.5" font-family="Helvetica,sans-Serif" font-size="10.00">vector&lt; content_t &gt;</text>
</a>
</g>
</g>
<!-- Node30&#45;&gt;Node1 -->
<g id="edge34" class="edge">
<title>Node30&#45;&gt;Node1</title>
<path fill="none" stroke="#9a32cd" stroke-dasharray="5,2" d="M1274.13,-61.16C1292.26,-64.15 1310.77,-70.28 1325,-82 1363.87,-114.02 1373.19,-179.4 1375.36,-204.18"/>
<polygon fill="#9a32cd" stroke="#9a32cd" points="1274.51,-57.68 1264.13,-59.8 1273.57,-64.61 1274.51,-57.68"/>
<text text-anchor="middle" x="1303.5" y="-85" font-family="Helvetica,sans-Serif" font-size="10.00"> c_nodes</text>
</g>
<!-- Node31&#45;&gt;Node1 -->
<g id="edge36" class="edge">
<title>Node31&#45;&gt;Node1</title>
<path fill="none" stroke="#9a32cd" stroke-dasharray="5,2" d="M1001.16,-107.83C1035.65,-114.71 1086.33,-125.42 1130,-137 1210.03,-158.21 1302.86,-188.98 1348.2,-204.41"/>
<polygon fill="#9a32cd" stroke="#9a32cd" points="1001.5,-104.32 991.01,-105.81 1000.14,-111.19 1001.5,-104.32"/>
<text text-anchor="middle" x="1206" y="-178" font-family="Helvetica,sans-Serif" font-size="10.00"> schemdata</text>
</g>
</g>
</svg>
