<?xml version="1.0" encoding="UTF-8" standalone="no"?>
<!DOCTYPE svg PUBLIC "-//W3C//DTD SVG 1.1//EN"
 "http://www.w3.org/Graphics/SVG/1.1/DTD/svg11.dtd">
<!-- Generated by graphviz version 2.43.0 (0)
 -->
<!-- Title: OffsetCameraStep Pages: 1 -->
<svg width="272pt" height="230pt"
 viewBox="0.00 0.00 271.50 230.00" xmlns="http://www.w3.org/2000/svg" xmlns:xlink="http://www.w3.org/1999/xlink">
<g id="graph0" class="graph" transform="scale(1 1) rotate(0) translate(4 226)">
<title>OffsetCameraStep</title>
<polygon fill="white" stroke="transparent" points="-4,4 -4,-226 267.5,-226 267.5,4 -4,4"/>
<!-- Node1 -->
<g id="node1" class="node">
<title>Node1</title>
<g id="a_node1"><a xlink:title=" ">
<polygon fill="#bfbfbf" stroke="black" points="75,-0.5 75,-19.5 181,-19.5 181,-0.5 75,-0.5"/>
<text text-anchor="middle" x="128" y="-7.5" font-family="Helvetica,sans-Serif" font-size="10.00">OffsetCameraStep</text>
</a>
</g>
</g>
<!-- Node2 -->
<g id="node2" class="node">
<title>Node2</title>
<g id="a_node2"><a xlink:href="classTrivialRenderStep.html" target="_top" xlink:title=" ">
<polygon fill="white" stroke="black" points="10,-78.5 10,-97.5 112,-97.5 112,-78.5 10,-78.5"/>
<text text-anchor="middle" x="61" y="-85.5" font-family="Helvetica,sans-Serif" font-size="10.00">TrivialRenderStep</text>
</a>
</g>
</g>
<!-- Node2&#45;&gt;Node1 -->
<g id="edge1" class="edge">
<title>Node2&#45;&gt;Node1</title>
<path fill="none" stroke="midnightblue" d="M75.6,-70.44C89.39,-54.79 109.55,-31.93 120.4,-19.62"/>
<polygon fill="midnightblue" stroke="midnightblue" points="72.67,-68.47 68.69,-78.28 77.92,-73.1 72.67,-68.47"/>
</g>
<!-- Node3 -->
<g id="node3" class="node">
<title>Node3</title>
<g id="a_node3"><a xlink:href="classRenderStep.html" target="_top" xlink:title=" ">
<polygon fill="white" stroke="black" points="24.5,-145.5 24.5,-164.5 97.5,-164.5 97.5,-145.5 24.5,-145.5"/>
<text text-anchor="middle" x="61" y="-152.5" font-family="Helvetica,sans-Serif" font-size="10.00">RenderStep</text>
</a>
</g>
</g>
<!-- Node3&#45;&gt;Node2 -->
<g id="edge2" class="edge">
<title>Node3&#45;&gt;Node2</title>
<path fill="none" stroke="midnightblue" d="M61,-135.04C61,-122.67 61,-107.12 61,-97.63"/>
<polygon fill="midnightblue" stroke="midnightblue" points="57.5,-135.23 61,-145.23 64.5,-135.23 57.5,-135.23"/>
</g>
<!-- Node4 -->
<g id="node4" class="node">
<title>Node4</title>
<g id="a_node4"><a xlink:href="classRenderPipelineObject.html" target="_top" xlink:title=" ">
<polygon fill="white" stroke="black" points="0,-202.5 0,-221.5 122,-221.5 122,-202.5 0,-202.5"/>
<text text-anchor="middle" x="61" y="-209.5" font-family="Helvetica,sans-Serif" font-size="10.00">RenderPipelineObject</text>
</a>
</g>
</g>
<!-- Node4&#45;&gt;Node3 -->
<g id="edge3" class="edge">
<title>Node4&#45;&gt;Node3</title>
<path fill="none" stroke="midnightblue" d="M61,-192.12C61,-182.82 61,-172.06 61,-164.71"/>
<polygon fill="midnightblue" stroke="midnightblue" points="57.5,-192.41 61,-202.41 64.5,-192.41 57.5,-192.41"/>
</g>
<!-- Node5 -->
<g id="node5" class="node">
<title>Node5</title>
<g id="a_node5"><a xlink:href="classirr_1_1core_1_1CMatrix4.html" target="_top" xlink:title="4x4 matrix. Mostly used as transformation matrix for 3d calculations.">
<polygon fill="white" stroke="black" points="130.5,-78.5 130.5,-97.5 263.5,-97.5 263.5,-78.5 130.5,-78.5"/>
<text text-anchor="middle" x="197" y="-85.5" font-family="Helvetica,sans-Serif" font-size="10.00">irr::core::CMatrix4&lt; T &gt;</text>
</a>
</g>
</g>
<!-- Node5&#45;&gt;Node1 -->
<g id="edge4" class="edge">
<title>Node5&#45;&gt;Node1</title>
<path fill="none" stroke="#9a32cd" stroke-dasharray="5,2" d="M182.36,-70.88C168.14,-55.22 147.1,-32.04 135.82,-19.62"/>
<polygon fill="#9a32cd" stroke="#9a32cd" points="179.77,-73.23 189.08,-78.28 184.95,-68.53 179.77,-73.23"/>
<text text-anchor="middle" x="209.5" y="-52" font-family="Helvetica,sans-Serif" font-size="10.00"> move</text>
<text text-anchor="middle" x="209.5" y="-41" font-family="Helvetica,sans-Serif" font-size="10.00">base_transform</text>
</g>
<!-- Node6 -->
<g id="node6" class="node">
<title>Node6</title>
<g id="a_node6"><a xlink:title=" ">
<polygon fill="white" stroke="#bfbfbf" points="182.5,-145.5 182.5,-164.5 211.5,-164.5 211.5,-145.5 182.5,-145.5"/>
<text text-anchor="middle" x="197" y="-152.5" font-family="Helvetica,sans-Serif" font-size="10.00">T</text>
</a>
</g>
</g>
<!-- Node6&#45;&gt;Node5 -->
<g id="edge5" class="edge">
<title>Node6&#45;&gt;Node5</title>
<path fill="none" stroke="#9a32cd" stroke-dasharray="5,2" d="M197,-135.04C197,-122.67 197,-107.12 197,-97.63"/>
<polygon fill="#9a32cd" stroke="#9a32cd" points="193.5,-135.23 197,-145.23 200.5,-135.23 193.5,-135.23"/>
<text text-anchor="middle" x="203.5" y="-119" font-family="Helvetica,sans-Serif" font-size="10.00"> M</text>
</g>
</g>
</svg>
