<?xml version="1.0" encoding="UTF-8" standalone="no"?>
<!DOCTYPE svg PUBLIC "-//W3C//DTD SVG 1.1//EN"
 "http://www.w3.org/Graphics/SVG/1.1/DTD/svg11.dtd">
<!-- Generated by graphviz version 2.43.0 (0)
 -->
<!-- Title: irr::core::ustring16::split Pages: 1 -->
<!--zoomable 268 -->
<svg id="main" version="1.1" xmlns="http://www.w3.org/2000/svg" xmlns:xlink="http://www.w3.org/1999/xlink" xml:space="preserve" onload="init(evt)">
<style type="text/css"><![CDATA[
.edge:hover path { stroke: red; }
.edge:hover polygon { stroke: red; fill: red; }
]]></style>
<script type="text/javascript"><![CDATA[
var edges = document.getElementsByTagName('g');
if (edges && edges.length) {
  for (var i=0;i<edges.length;i++) {
    if (edges[i].id.substr(0,4)=='edge') {
      edges[i].setAttribute('class','edge');
    }
  }
}
]]></script>
        <defs>
                <circle id="rim" cx="0" cy="0" r="7"/>
                <circle id="rim2" cx="0" cy="0" r="3.5"/>
                <g id="zoomPlus">
                        <use xlink:href="#rim" fill="#404040">
                                <set attributeName="fill" to="#808080" begin="zoomplus.mouseover" end="zoomplus.mouseout"/>
                        </use>
                        <path d="M-4,0h8M0,-4v8" fill="none" stroke="white" stroke-width="1.5" pointer-events="none"/>
                </g>
                <g id="zoomMin">
                        <use xlink:href="#rim" fill="#404040">
                                <set attributeName="fill" to="#808080" begin="zoomminus.mouseover" end="zoomminus.mouseout"/>
                        </use>
                        <path d="M-4,0h8" fill="none" stroke="white" stroke-width="1.5" pointer-events="none"/>
                </g>
                <g id="dirArrow">
                        <path fill="none" stroke="white" stroke-width="1.5" d="M0,-3.0v7 M-2.5,-0.5L0,-3.0L2.5,-0.5"/>
                </g>
               <g id="resetDef">
                       <use xlink:href="#rim2" fill="#404040">
                               <set attributeName="fill" to="#808080" begin="reset.mouseover" end="reset.mouseout"/>
                       </use>
               </g>
        </defs>

<script type="text/javascript">
var viewWidth = 781;
var viewHeight = 268;
var sectionId = 'dynsection-44';
</script>
<script xlink:href="svgpan.js"/>
<svg id="graph" class="graph">
<g id="viewport">
<title>irr::core::ustring16::split</title>
<polygon fill="white" stroke="transparent" points="-4,4 -4,-264.24 777,-264.24 777,4 -4,4"/>
<!-- Node1 -->
<g id="node1" class="node">
<title>Node1</title>
<g id="a_node1"><a xlink:title="Split the ustring16 into parts.">
<polygon fill="#bfbfbf" stroke="black" points="0,-159.5 0,-189.5 106,-189.5 106,-159.5 0,-159.5"/>
<text text-anchor="start" x="8" y="-177.5" font-family="Helvetica,sans-Serif" font-size="10.00">irr::core::ustring16</text>
<text text-anchor="middle" x="53" y="-166.5" font-family="Helvetica,sans-Serif" font-size="10.00">::split</text>
</a>
</g>
</g>
<!-- Node2 -->
<g id="node2" class="node">
<title>Node2</title>
<g id="a_node2"><a xlink:href="classirr_1_1core_1_1array.html#afe5fd668b288ea14a585144c62d99c03" target="_top" xlink:title="Gets a pointer to the array.">
<polygon fill="white" stroke="black" points="142,-225 142,-244 267,-244 267,-225 142,-225"/>
<text text-anchor="middle" x="204.5" y="-232" font-family="Helvetica,sans-Serif" font-size="10.00">irr::core::array::pointer</text>
</a>
</g>
</g>
<!-- Node1&#45;&gt;Node2 -->
<g id="edge1" class="edge">
<title>Node1&#45;&gt;Node2</title>
<path fill="none" stroke="midnightblue" d="M83.7,-189.57C100.56,-197.81 122.18,-207.86 142,-215.5 147.82,-217.74 154.02,-219.91 160.16,-221.93"/>
<polygon fill="midnightblue" stroke="midnightblue" points="159.11,-225.27 169.7,-224.96 161.24,-218.6 159.11,-225.27"/>
</g>
<!-- Node3 -->
<g id="node3" class="node">
<title>Node3</title>
<g id="a_node3"><a xlink:href="classirr_1_1core_1_1array.html#af2a884d7e19d685b58617fed4ea4d4b9" target="_top" xlink:title="Get number of occupied elements of the array.">
<polygon fill="white" stroke="black" points="149.5,-187 149.5,-206 259.5,-206 259.5,-187 149.5,-187"/>
<text text-anchor="middle" x="204.5" y="-194" font-family="Helvetica,sans-Serif" font-size="10.00">irr::core::array::size</text>
</a>
</g>
</g>
<!-- Node1&#45;&gt;Node3 -->
<g id="edge2" class="edge">
<title>Node1&#45;&gt;Node3</title>
<path fill="none" stroke="midnightblue" d="M106.29,-182.19C116.99,-183.77 128.37,-185.44 139.43,-187.07"/>
<polygon fill="midnightblue" stroke="midnightblue" points="139.06,-190.56 149.47,-188.55 140.08,-183.63 139.06,-190.56"/>
</g>
<!-- Node4 -->
<g id="node4" class="node">
<title>Node4</title>
<g id="a_node4"><a xlink:href="classirr_1_1core_1_1ustring16.html#ab8f609a2d7de1bb5f2171422b5d76fe1" target="_top" xlink:title="Split the ustring16 into parts.">
<polygon fill="white" stroke="black" points="151.5,-137.5 151.5,-167.5 257.5,-167.5 257.5,-137.5 151.5,-137.5"/>
<text text-anchor="start" x="159.5" y="-155.5" font-family="Helvetica,sans-Serif" font-size="10.00">irr::core::ustring16</text>
<text text-anchor="middle" x="204.5" y="-144.5" font-family="Helvetica,sans-Serif" font-size="10.00">::split</text>
</a>
</g>
</g>
<!-- Node1&#45;&gt;Node4 -->
<g id="edge3" class="edge">
<title>Node1&#45;&gt;Node4</title>
<path fill="none" stroke="midnightblue" d="M106.29,-166.81C117.62,-165.14 129.71,-163.36 141.38,-161.64"/>
<polygon fill="midnightblue" stroke="midnightblue" points="142.11,-165.07 151.49,-160.15 141.09,-158.15 142.11,-165.07"/>
</g>
<!-- Node11 -->
<g id="node11" class="node">
<title>Node11</title>
<g id="a_node11"><a xlink:href="classirr_1_1core_1_1ustring16.html#a096fac49ab033f4ddd530b8697eb91d2" target="_top" xlink:title=" ">
<polygon fill="white" stroke="black" points="151.5,-66.5 151.5,-96.5 257.5,-96.5 257.5,-66.5 151.5,-66.5"/>
<text text-anchor="start" x="159.5" y="-84.5" font-family="Helvetica,sans-Serif" font-size="10.00">irr::core::ustring16</text>
<text text-anchor="middle" x="204.5" y="-73.5" font-family="Helvetica,sans-Serif" font-size="10.00">::toUTF32</text>
</a>
</g>
</g>
<!-- Node1&#45;&gt;Node11 -->
<g id="edge11" class="edge">
<title>Node1&#45;&gt;Node11</title>
<path fill="none" stroke="midnightblue" d="M78.35,-159.35C103.44,-143.75 142.7,-119.32 170.55,-102"/>
<polygon fill="midnightblue" stroke="midnightblue" points="172.52,-104.9 179.16,-96.64 168.82,-98.95 172.52,-104.9"/>
</g>
<!-- Node5 -->
<g id="node5" class="node">
<title>Node5</title>
<g id="a_node5"><a xlink:href="classirr_1_1core_1_1ustring16_1_1__ustring16__const__iterator.html#ada60fedde4f9b8b92e318794b4d9140a" target="_top" xlink:title="Is the iterator at the end of the string?">
<polygon fill="white" stroke="black" points="485,-83 485,-124 631,-124 631,-83 485,-83"/>
<text text-anchor="start" x="493" y="-112" font-family="Helvetica,sans-Serif" font-size="10.00">irr::core::ustring16</text>
<text text-anchor="start" x="493" y="-101" font-family="Helvetica,sans-Serif" font-size="10.00">::_ustring16_const_iterator</text>
<text text-anchor="middle" x="558" y="-90" font-family="Helvetica,sans-Serif" font-size="10.00">::atEnd</text>
</a>
</g>
</g>
<!-- Node4&#45;&gt;Node5 -->
<g id="edge4" class="edge">
<title>Node4&#45;&gt;Node5</title>
<path fill="none" stroke="midnightblue" d="M252.06,-167.56C257.41,-170.38 262.54,-173.68 267,-177.5 290.62,-197.73 275.94,-222.18 303,-237.5 359.47,-269.47 390.46,-265.5 449,-237.5 493.89,-216.02 526.09,-165.77 543.1,-133.28"/>
<polygon fill="midnightblue" stroke="midnightblue" points="546.29,-134.72 547.7,-124.22 540.05,-131.55 546.29,-134.72"/>
</g>
<!-- Node8 -->
<g id="node8" class="node">
<title>Node8</title>
<g id="a_node8"><a xlink:href="classirr_1_1core_1_1ustring16_1_1__ustring16__const__iterator.html#a5d69f930d75f01c8b0d4f80ccda661a2" target="_top" xlink:title=" ">
<polygon fill="white" stroke="black" points="303,-187 303,-228 449,-228 449,-187 303,-187"/>
<text text-anchor="start" x="311" y="-216" font-family="Helvetica,sans-Serif" font-size="10.00">irr::core::ustring16</text>
<text text-anchor="start" x="311" y="-205" font-family="Helvetica,sans-Serif" font-size="10.00">::_ustring16_const_iterator</text>
<text text-anchor="middle" x="376" y="-194" font-family="Helvetica,sans-Serif" font-size="10.00">::getPos</text>
</a>
</g>
</g>
<!-- Node4&#45;&gt;Node8 -->
<g id="edge7" class="edge">
<title>Node4&#45;&gt;Node8</title>
<path fill="none" stroke="midnightblue" d="M251.82,-167.53C267.22,-172.53 284.77,-178.22 301.71,-183.72"/>
<polygon fill="midnightblue" stroke="midnightblue" points="300.99,-187.16 311.58,-186.92 303.15,-180.51 300.99,-187.16"/>
</g>
<!-- Node9 -->
<g id="node9" class="node">
<title>Node9</title>
<g id="a_node9"><a xlink:href="classirr_1_1core_1_1ustring16.html#aa8379341f14aaeef408d969620f87852" target="_top" xlink:title=" ">
<polygon fill="white" stroke="black" points="323,-88.5 323,-118.5 429,-118.5 429,-88.5 323,-88.5"/>
<text text-anchor="start" x="331" y="-106.5" font-family="Helvetica,sans-Serif" font-size="10.00">irr::core::ustring16</text>
<text text-anchor="middle" x="376" y="-95.5" font-family="Helvetica,sans-Serif" font-size="10.00">::size</text>
</a>
</g>
</g>
<!-- Node4&#45;&gt;Node9 -->
<g id="edge8" class="edge">
<title>Node4&#45;&gt;Node9</title>
<path fill="none" stroke="midnightblue" d="M257.74,-137.4C275.3,-132.32 295.06,-126.61 313.28,-121.34"/>
<polygon fill="midnightblue" stroke="midnightblue" points="314.3,-124.69 322.93,-118.55 312.36,-117.97 314.3,-124.69"/>
</g>
<!-- Node10 -->
<g id="node10" class="node">
<title>Node10</title>
<g id="a_node10"><a xlink:href="classirr_1_1core_1_1ustring16.html#a00605034bd03228e1cf15f90523ce87f" target="_top" xlink:title="Default constructor.">
<polygon fill="white" stroke="black" points="323,-137.5 323,-167.5 429,-167.5 429,-137.5 323,-137.5"/>
<text text-anchor="start" x="331" y="-155.5" font-family="Helvetica,sans-Serif" font-size="10.00">irr::core::ustring16</text>
<text text-anchor="middle" x="376" y="-144.5" font-family="Helvetica,sans-Serif" font-size="10.00">::ustring16</text>
</a>
</g>
</g>
<!-- Node4&#45;&gt;Node10 -->
<g id="edge10" class="edge">
<title>Node4&#45;&gt;Node10</title>
<path fill="none" stroke="midnightblue" d="M257.74,-152.5C275.14,-152.5 294.7,-152.5 312.78,-152.5"/>
<polygon fill="midnightblue" stroke="midnightblue" points="312.93,-156 322.93,-152.5 312.93,-149 312.93,-156"/>
</g>
<!-- Node6 -->
<g id="node6" class="node">
<title>Node6</title>
<g id="a_node6"><a xlink:href="classirr_1_1core_1_1ustring16.html#a13d082695b759bb889795470890ab5be" target="_top" xlink:title=" ">
<polygon fill="white" stroke="black" points="667,-113.5 667,-143.5 773,-143.5 773,-113.5 667,-113.5"/>
<text text-anchor="start" x="675" y="-131.5" font-family="Helvetica,sans-Serif" font-size="10.00">irr::core::ustring16</text>
<text text-anchor="middle" x="720" y="-120.5" font-family="Helvetica,sans-Serif" font-size="10.00">::c_str</text>
</a>
</g>
</g>
<!-- Node5&#45;&gt;Node6 -->
<g id="edge5" class="edge">
<title>Node5&#45;&gt;Node6</title>
<path fill="none" stroke="midnightblue" d="M631.04,-114.76C639.65,-116.1 648.39,-117.47 656.84,-118.79"/>
<polygon fill="midnightblue" stroke="midnightblue" points="656.56,-122.29 666.99,-120.37 657.65,-115.37 656.56,-122.29"/>
</g>
<!-- Node7 -->
<g id="node7" class="node">
<title>Node7</title>
<g id="a_node7"><a xlink:href="classirr_1_1core_1_1ustring16.html#a6ccdb1699994dcf50ff8f3db0cfb2686" target="_top" xlink:title=" ">
<polygon fill="white" stroke="black" points="667,-64.5 667,-94.5 773,-94.5 773,-64.5 667,-64.5"/>
<text text-anchor="start" x="675" y="-82.5" font-family="Helvetica,sans-Serif" font-size="10.00">irr::core::ustring16</text>
<text text-anchor="middle" x="720" y="-71.5" font-family="Helvetica,sans-Serif" font-size="10.00">::size_raw</text>
</a>
</g>
</g>
<!-- Node5&#45;&gt;Node7 -->
<g id="edge6" class="edge">
<title>Node5&#45;&gt;Node7</title>
<path fill="none" stroke="midnightblue" d="M631.04,-92.69C639.65,-91.4 648.39,-90.09 656.84,-88.82"/>
<polygon fill="midnightblue" stroke="midnightblue" points="657.62,-92.25 666.99,-87.3 656.58,-85.32 657.62,-92.25"/>
</g>
<!-- Node9&#45;&gt;Node5 -->
<g id="edge9" class="edge">
<title>Node9&#45;&gt;Node5</title>
<path fill="none" stroke="midnightblue" d="M429.06,-103.5C443.37,-103.5 459.25,-103.5 474.81,-103.5"/>
<polygon fill="midnightblue" stroke="midnightblue" points="474.97,-107 484.97,-103.5 474.97,-100 474.97,-107"/>
</g>
<!-- Node11&#45;&gt;Node5 -->
<g id="edge12" class="edge">
<title>Node11&#45;&gt;Node5</title>
<path fill="none" stroke="midnightblue" d="M257.61,-80.23C272.29,-79.93 288.27,-79.65 303,-79.5 367.89,-78.83 384.5,-72.42 449,-79.5 457.37,-80.42 466.04,-81.73 474.67,-83.26"/>
<polygon fill="midnightblue" stroke="midnightblue" points="474.27,-86.75 484.75,-85.16 475.57,-79.87 474.27,-86.75"/>
</g>
<!-- Node11&#45;&gt;Node9 -->
<g id="edge14" class="edge">
<title>Node11&#45;&gt;Node9</title>
<path fill="none" stroke="midnightblue" d="M257.74,-88.28C275.14,-90.54 294.7,-93.08 312.78,-95.42"/>
<polygon fill="midnightblue" stroke="midnightblue" points="312.57,-98.93 322.93,-96.74 313.47,-91.98 312.57,-98.93"/>
</g>
<!-- Node12 -->
<g id="node12" class="node">
<title>Node12</title>
<g id="a_node12"><a xlink:href="classirr_1_1core_1_1ustring16.html#a775977362012eee96432adf16b802112" target="_top" xlink:title=" ">
<polygon fill="white" stroke="black" points="323,-0.5 323,-30.5 429,-30.5 429,-0.5 323,-0.5"/>
<text text-anchor="start" x="331" y="-18.5" font-family="Helvetica,sans-Serif" font-size="10.00">irr::core::ustring16</text>
<text text-anchor="middle" x="376" y="-7.5" font-family="Helvetica,sans-Serif" font-size="10.00">::getEndianness</text>
</a>
</g>
</g>
<!-- Node11&#45;&gt;Node12 -->
<g id="edge13" class="edge">
<title>Node11&#45;&gt;Node12</title>
<path fill="none" stroke="midnightblue" d="M244.39,-66.36C268.93,-56.8 300.83,-44.38 326.95,-34.21"/>
<polygon fill="midnightblue" stroke="midnightblue" points="328.25,-37.46 336.29,-30.57 325.71,-30.94 328.25,-37.46"/>
</g>
</g>
</svg>
        <g id="navigator" transform="translate(0 0)" fill="#404254">
                <rect fill="#f2f5e9" fill-opacity="0.5" stroke="#606060" stroke-width=".5" x="0" y="0" width="60" height="60"/>
                <use id="zoomplus" xlink:href="#zoomPlus" x="17" y="9" onmousedown="handleZoom(evt,'in')"/>
                <use id="zoomminus" xlink:href="#zoomMin" x="42" y="9" onmousedown="handleZoom(evt,'out')"/>
                <use id="reset" xlink:href="#resetDef" x="30" y="36" onmousedown="handleReset()"/>
                <g id="arrowUp" xlink:href="#dirArrow" transform="translate(30 24)" onmousedown="handlePan(0,-1)">
                  <use xlink:href="#rim" fill="#404040">
                        <set attributeName="fill" to="#808080" begin="arrowUp.mouseover" end="arrowUp.mouseout"/>
                  </use>
                  <path fill="none" stroke="white" stroke-width="1.5" d="M0,-3.0v7 M-2.5,-0.5L0,-3.0L2.5,-0.5"/>
                </g>
                <g id="arrowRight" xlink:href="#dirArrow" transform="rotate(90) translate(36 -43)" onmousedown="handlePan(1,0)">
                  <use xlink:href="#rim" fill="#404040">
                        <set attributeName="fill" to="#808080" begin="arrowRight.mouseover" end="arrowRight.mouseout"/>
                  </use>
                  <path fill="none" stroke="white" stroke-width="1.5" d="M0,-3.0v7 M-2.5,-0.5L0,-3.0L2.5,-0.5"/>
                </g>
                <g id="arrowDown" xlink:href="#dirArrow" transform="rotate(180) translate(-30 -48)" onmousedown="handlePan(0,1)">
                  <use xlink:href="#rim" fill="#404040">
                        <set attributeName="fill" to="#808080" begin="arrowDown.mouseover" end="arrowDown.mouseout"/>
                  </use>
                  <path fill="none" stroke="white" stroke-width="1.5" d="M0,-3.0v7 M-2.5,-0.5L0,-3.0L2.5,-0.5"/>
                </g>
                <g id="arrowLeft" xlink:href="#dirArrow" transform="rotate(270) translate(-36 17)" onmousedown="handlePan(-1,0)">
                  <use xlink:href="#rim" fill="#404040">
                        <set attributeName="fill" to="#808080" begin="arrowLeft.mouseover" end="arrowLeft.mouseout"/>
                  </use>
                  <path fill="none" stroke="white" stroke-width="1.5" d="M0,-3.0v7 M-2.5,-0.5L0,-3.0L2.5,-0.5"/>
                </g>
        </g>
        <svg viewBox="0 0 15 15" width="100%" height="30px" preserveAspectRatio="xMaxYMin meet">
         <g id="arrow_out" transform="scale(0.3 0.3)">
          <a xlink:href="classirr_1_1core_1_1ustring16_a8cd96bc7dfebf82824f895df42d2756d_cgraph_org.svg" target="_base">
           <rect id="button" ry="5" rx="5" y="6" x="6" height="38" width="38"
                fill="#f2f5e9" fill-opacity="0.5" stroke="#606060" stroke-width="1.0"/>
           <path id="arrow"
             d="M 11.500037,31.436501 C 11.940474,20.09759 22.043105,11.32322 32.158766,21.979434 L 37.068811,17.246167 C 37.068811,17.246167 37.088388,32 37.088388,32 L 22.160133,31.978069 C 22.160133,31.978069 26.997745,27.140456 26.997745,27.140456 C 18.528582,18.264221 13.291696,25.230495 11.500037,31.436501 z"
             style="fill:#404040;"/>
          </a>
         </g>
        </svg>
</svg>
