<?xml version="1.0" encoding="UTF-8" standalone="no"?>
<!DOCTYPE svg PUBLIC "-//W3C//DTD SVG 1.1//EN"
 "http://www.w3.org/Graphics/SVG/1.1/DTD/svg11.dtd">
<!-- Generated by graphviz version 2.43.0 (0)
 -->
<!-- Title: irr::CTimer::stop Pages: 1 -->
<svg width="603pt" height="47pt"
 viewBox="0.00 0.00 603.00 47.00" xmlns="http://www.w3.org/2000/svg" xmlns:xlink="http://www.w3.org/1999/xlink">
<g id="graph0" class="graph" transform="scale(1 1) rotate(0) translate(4 43)">
<title>irr::CTimer::stop</title>
<polygon fill="white" stroke="transparent" points="-4,4 -4,-43 599,-43 599,4 -4,4"/>
<!-- Node1 -->
<g id="node1" class="node">
<title>Node1</title>
<g id="a_node1"><a xlink:title="Stops the game timer.">
<polygon fill="#bfbfbf" stroke="black" points="0,-0.5 0,-19.5 95,-19.5 95,-0.5 0,-0.5"/>
<text text-anchor="middle" x="47.5" y="-7.5" font-family="Helvetica,sans-Serif" font-size="10.00">irr::CTimer::stop</text>
</a>
</g>
</g>
<!-- Node2 -->
<g id="node2" class="node">
<title>Node2</title>
<g id="a_node2"><a xlink:href="classirr_1_1os_1_1Timer.html#ad2639d4bb96c4aee882bd7770b074919" target="_top" xlink:title="stops the virtual (game) timer">
<polygon fill="white" stroke="black" points="131,-0.5 131,-19.5 265,-19.5 265,-0.5 131,-0.5"/>
<text text-anchor="middle" x="198" y="-7.5" font-family="Helvetica,sans-Serif" font-size="10.00">irr::os::Timer::stopTimer</text>
</a>
</g>
</g>
<!-- Node1&#45;&gt;Node2 -->
<g id="edge1" class="edge">
<title>Node1&#45;&gt;Node2</title>
<path fill="none" stroke="midnightblue" d="M95.08,-10C103.21,-10 111.86,-10 120.55,-10"/>
<polygon fill="midnightblue" stroke="midnightblue" points="120.73,-13.5 130.73,-10 120.73,-6.5 120.73,-13.5"/>
</g>
<!-- Node3 -->
<g id="node3" class="node">
<title>Node3</title>
<g id="a_node3"><a xlink:href="classirr_1_1os_1_1Timer.html#a640377de088feab25b5b83f8d4ecc50d" target="_top" xlink:title="returns the current time in milliseconds">
<polygon fill="white" stroke="black" points="301,-19.5 301,-38.5 426,-38.5 426,-19.5 301,-19.5"/>
<text text-anchor="middle" x="363.5" y="-26.5" font-family="Helvetica,sans-Serif" font-size="10.00">irr::os::Timer::getTime</text>
</a>
</g>
</g>
<!-- Node2&#45;&gt;Node3 -->
<g id="edge2" class="edge">
<title>Node2&#45;&gt;Node3</title>
<path fill="none" stroke="midnightblue" d="M265.03,-17.67C273.57,-18.67 282.34,-19.68 290.96,-20.69"/>
<polygon fill="midnightblue" stroke="midnightblue" points="290.65,-24.17 300.98,-21.85 291.46,-17.22 290.65,-24.17"/>
</g>
<!-- Node4 -->
<g id="node4" class="node">
<title>Node4</title>
<g id="a_node4"><a xlink:href="classirr_1_1os_1_1Timer.html#aad6c27db995b80c795038bb2f827dfc5" target="_top" xlink:title="returns if the timer currently is stopped">
<polygon fill="white" stroke="black" points="462,-0.5 462,-19.5 595,-19.5 595,-0.5 462,-0.5"/>
<text text-anchor="middle" x="528.5" y="-7.5" font-family="Helvetica,sans-Serif" font-size="10.00">irr::os::Timer::isStopped</text>
</a>
</g>
</g>
<!-- Node2&#45;&gt;Node4 -->
<g id="edge4" class="edge">
<title>Node2&#45;&gt;Node4</title>
<path fill="none" stroke="midnightblue" d="M265.08,-10C318.97,-10 395.11,-10 451.51,-10"/>
<polygon fill="midnightblue" stroke="midnightblue" points="451.8,-13.5 461.8,-10 451.8,-6.5 451.8,-13.5"/>
</g>
<!-- Node3&#45;&gt;Node4 -->
<g id="edge3" class="edge">
<title>Node3&#45;&gt;Node4</title>
<path fill="none" stroke="midnightblue" d="M426.12,-21.82C434.55,-20.84 443.27,-19.82 451.91,-18.81"/>
<polygon fill="midnightblue" stroke="midnightblue" points="452.46,-22.27 461.98,-17.64 451.65,-15.32 452.46,-22.27"/>
</g>
</g>
</svg>
