<?xml version="1.0" encoding="UTF-8" standalone="no"?>
<!DOCTYPE svg PUBLIC "-//W3C//DTD SVG 1.1//EN"
 "http://www.w3.org/Graphics/SVG/1.1/DTD/svg11.dtd">
<!-- Generated by graphviz version 2.43.0 (0)
 -->
<!-- Title: StyleSpec Pages: 1 -->
<svg width="386pt" height="106pt"
 viewBox="0.00 0.00 385.50 106.00" xmlns="http://www.w3.org/2000/svg" xmlns:xlink="http://www.w3.org/1999/xlink">
<g id="graph0" class="graph" transform="scale(1 1) rotate(0) translate(4 102)">
<title>StyleSpec</title>
<polygon fill="white" stroke="transparent" points="-4,4 -4,-102 381.5,-102 381.5,4 -4,4"/>
<!-- Node1 -->
<g id="node1" class="node">
<title>Node1</title>
<g id="a_node1"><a xlink:title=" ">
<polygon fill="#bfbfbf" stroke="black" points="195,-0.5 195,-19.5 260,-19.5 260,-0.5 195,-0.5"/>
<text text-anchor="middle" x="227.5" y="-7.5" font-family="Helvetica,sans-Serif" font-size="10.00">StyleSpec</text>
</a>
</g>
</g>
<!-- Node2 -->
<g id="node2" class="node">
<title>Node2</title>
<g id="a_node2"><a xlink:title=" ">
<polygon fill="white" stroke="#bfbfbf" points="0,-67.5 0,-97.5 119,-97.5 119,-67.5 0,-67.5"/>
<text text-anchor="start" x="8" y="-85.5" font-family="Helvetica,sans-Serif" font-size="10.00">array&lt; std::string,</text>
<text text-anchor="middle" x="59.5" y="-74.5" font-family="Helvetica,sans-Serif" font-size="10.00"> NUM_PROPERTIES &gt;</text>
</a>
</g>
</g>
<!-- Node2&#45;&gt;Node1 -->
<g id="edge1" class="edge">
<title>Node2&#45;&gt;Node1</title>
<path fill="none" stroke="#9a32cd" stroke-dasharray="5,2" d="M102.68,-63.38C136.28,-49.28 181.39,-30.35 207.16,-19.53"/>
<polygon fill="#9a32cd" stroke="#9a32cd" points="100.96,-60.31 93.09,-67.4 103.67,-66.76 100.96,-60.31"/>
<text text-anchor="middle" x="186" y="-41" font-family="Helvetica,sans-Serif" font-size="10.00"> properties</text>
</g>
<!-- Node3 -->
<g id="node3" class="node">
<title>Node3</title>
<g id="a_node3"><a xlink:title=" ">
<polygon fill="white" stroke="#bfbfbf" points="137.5,-73 137.5,-92 317.5,-92 317.5,-73 137.5,-73"/>
<text text-anchor="middle" x="227.5" y="-80" font-family="Helvetica,sans-Serif" font-size="10.00">array&lt; bool, NUM_PROPERTIES &gt;</text>
</a>
</g>
</g>
<!-- Node3&#45;&gt;Node1 -->
<g id="edge2" class="edge">
<title>Node3&#45;&gt;Node1</title>
<path fill="none" stroke="#9a32cd" stroke-dasharray="5,2" d="M227.5,-62.44C227.5,-48.53 227.5,-30.32 227.5,-19.72"/>
<polygon fill="#9a32cd" stroke="#9a32cd" points="224,-62.86 227.5,-72.86 231,-62.86 224,-62.86"/>
<text text-anchor="middle" x="260" y="-41" font-family="Helvetica,sans-Serif" font-size="10.00"> property_set</text>
</g>
<!-- Node4 -->
<g id="node4" class="node">
<title>Node4</title>
<g id="a_node4"><a xlink:title=" ">
<polygon fill="white" stroke="#bfbfbf" points="335.5,-73 335.5,-92 377.5,-92 377.5,-73 335.5,-73"/>
<text text-anchor="middle" x="356.5" y="-80" font-family="Helvetica,sans-Serif" font-size="10.00">State</text>
</a>
</g>
</g>
<!-- Node4&#45;&gt;Node1 -->
<g id="edge3" class="edge">
<title>Node4&#45;&gt;Node1</title>
<path fill="none" stroke="#9a32cd" stroke-dasharray="5,2" d="M338.47,-66.56C326.96,-57.5 311.43,-46.16 296.5,-38 283.07,-30.66 267.21,-24.31 254.09,-19.61"/>
<polygon fill="#9a32cd" stroke="#9a32cd" points="336.43,-69.41 346.42,-72.95 340.82,-63.96 336.43,-69.41"/>
<text text-anchor="middle" x="341" y="-41" font-family="Helvetica,sans-Serif" font-size="10.00"> state_map</text>
</g>
</g>
</svg>
