<?xml version="1.0" encoding="UTF-8" standalone="no"?>
<!DOCTYPE svg PUBLIC "-//W3C//DTD SVG 1.1//EN"
 "http://www.w3.org/Graphics/SVG/1.1/DTD/svg11.dtd">
<!-- Generated by graphviz version 2.43.0 (0)
 -->
<!-- Title: CraftDefinitionFuel Pages: 1 -->
<svg width="507pt" height="184pt"
 viewBox="0.00 0.00 506.50 184.00" xmlns="http://www.w3.org/2000/svg" xmlns:xlink="http://www.w3.org/1999/xlink">
<g id="graph0" class="graph" transform="scale(1 1) rotate(0) translate(4 180)">
<title>CraftDefinitionFuel</title>
<polygon fill="white" stroke="transparent" points="-4,4 -4,-180 502.5,-180 502.5,4 -4,4"/>
<!-- Node1 -->
<g id="node1" class="node">
<title>Node1</title>
<g id="a_node1"><a xlink:title=" ">
<polygon fill="#bfbfbf" stroke="black" points="194,-0.5 194,-19.5 301,-19.5 301,-0.5 194,-0.5"/>
<text text-anchor="middle" x="247.5" y="-7.5" font-family="Helvetica,sans-Serif" font-size="10.00">CraftDefinitionFuel</text>
</a>
</g>
</g>
<!-- Node2 -->
<g id="node2" class="node">
<title>Node2</title>
<g id="a_node2"><a xlink:href="classCraftDefinition.html" target="_top" xlink:title=" ">
<polygon fill="white" stroke="black" points="52,-78.5 52,-97.5 139,-97.5 139,-78.5 52,-78.5"/>
<text text-anchor="middle" x="95.5" y="-85.5" font-family="Helvetica,sans-Serif" font-size="10.00">CraftDefinition</text>
</a>
</g>
</g>
<!-- Node2&#45;&gt;Node1 -->
<g id="edge1" class="edge">
<title>Node2&#45;&gt;Node1</title>
<path fill="none" stroke="midnightblue" d="M117.31,-73.06C133.98,-62.7 157.73,-48.6 179.5,-38 193.78,-31.05 210.32,-24.45 223.52,-19.52"/>
<polygon fill="midnightblue" stroke="midnightblue" points="115.44,-70.1 108.83,-78.38 119.16,-76.03 115.44,-70.1"/>
</g>
<!-- Node3 -->
<g id="node3" class="node">
<title>Node3</title>
<g id="a_node3"><a xlink:title=" ">
<polygon fill="white" stroke="#bfbfbf" points="0,-151 0,-170 87,-170 87,-151 0,-151"/>
<text text-anchor="middle" x="43.5" y="-158" font-family="Helvetica,sans-Serif" font-size="10.00">CraftHashType</text>
</a>
</g>
</g>
<!-- Node3&#45;&gt;Node2 -->
<g id="edge2" class="edge">
<title>Node3&#45;&gt;Node2</title>
<path fill="none" stroke="#9a32cd" stroke-dasharray="5,2" d="M53.75,-142.24C58.81,-134.08 65.18,-124.33 71.5,-116 76.35,-109.61 82.35,-102.86 87.14,-97.7"/>
<polygon fill="#9a32cd" stroke="#9a32cd" points="50.69,-140.54 48.49,-150.9 56.68,-144.17 50.69,-140.54"/>
<text text-anchor="middle" x="98.5" y="-119" font-family="Helvetica,sans-Serif" font-size="10.00"> hash_type</text>
</g>
<!-- Node4 -->
<g id="node4" class="node">
<title>Node4</title>
<g id="a_node4"><a xlink:title=" ">
<polygon fill="white" stroke="#bfbfbf" points="105,-151 105,-170 190,-170 190,-151 105,-151"/>
<text text-anchor="middle" x="147.5" y="-158" font-family="Helvetica,sans-Serif" font-size="10.00">RecipePriority</text>
</a>
</g>
</g>
<!-- Node4&#45;&gt;Node2 -->
<g id="edge3" class="edge">
<title>Node4&#45;&gt;Node2</title>
<path fill="none" stroke="#9a32cd" stroke-dasharray="5,2" d="M140.24,-141.55C136.48,-133.34 131.43,-123.75 125.5,-116 120.22,-109.1 113.02,-102.55 106.99,-97.63"/>
<polygon fill="#9a32cd" stroke="#9a32cd" points="137.12,-143.15 144.29,-150.95 143.55,-140.39 137.12,-143.15"/>
<text text-anchor="middle" x="152" y="-119" font-family="Helvetica,sans-Serif" font-size="10.00"> priority</text>
</g>
<!-- Node5 -->
<g id="node5" class="node">
<title>Node5</title>
<g id="a_node5"><a xlink:title=" ">
<polygon fill="white" stroke="#bfbfbf" points="157.5,-78.5 157.5,-97.5 195.5,-97.5 195.5,-78.5 157.5,-78.5"/>
<text text-anchor="middle" x="176.5" y="-85.5" font-family="Helvetica,sans-Serif" font-size="10.00">float</text>
</a>
</g>
</g>
<!-- Node5&#45;&gt;Node1 -->
<g id="edge4" class="edge">
<title>Node5&#45;&gt;Node1</title>
<path fill="none" stroke="#9a32cd" stroke-dasharray="5,2" d="M180.26,-68.62C183.08,-58.62 187.81,-46.58 195.5,-38 202.77,-29.9 213.04,-23.85 222.54,-19.56"/>
<polygon fill="#9a32cd" stroke="#9a32cd" points="176.85,-67.87 177.91,-78.41 183.65,-69.51 176.85,-67.87"/>
<text text-anchor="middle" x="219.5" y="-46.5" font-family="Helvetica,sans-Serif" font-size="10.00"> burntime</text>
</g>
<!-- Node6 -->
<g id="node6" class="node">
<title>Node6</title>
<g id="a_node6"><a xlink:href="classbool.html" target="_top" xlink:title=" ">
<polygon fill="white" stroke="black" points="228.5,-78.5 228.5,-97.5 266.5,-97.5 266.5,-78.5 228.5,-78.5"/>
<text text-anchor="middle" x="247.5" y="-85.5" font-family="Helvetica,sans-Serif" font-size="10.00">bool</text>
</a>
</g>
</g>
<!-- Node6&#45;&gt;Node1 -->
<g id="edge5" class="edge">
<title>Node6&#45;&gt;Node1</title>
<path fill="none" stroke="#9a32cd" stroke-dasharray="5,2" d="M247.5,-68.22C247.5,-52.7 247.5,-31.36 247.5,-19.62"/>
<polygon fill="#9a32cd" stroke="#9a32cd" points="244,-68.28 247.5,-78.28 251,-68.28 244,-68.28"/>
<text text-anchor="middle" x="277.5" y="-46.5" font-family="Helvetica,sans-Serif" font-size="10.00"> hash_inited</text>
</g>
<!-- Node7 -->
<g id="node7" class="node">
<title>Node7</title>
<g id="a_node7"><a xlink:title=" ">
<polygon fill="white" stroke="#bfbfbf" points="308.5,-78.5 308.5,-97.5 352.5,-97.5 352.5,-78.5 308.5,-78.5"/>
<text text-anchor="middle" x="330.5" y="-85.5" font-family="Helvetica,sans-Serif" font-size="10.00">string</text>
</a>
</g>
</g>
<!-- Node7&#45;&gt;Node1 -->
<g id="edge6" class="edge">
<title>Node7&#45;&gt;Node1</title>
<path fill="none" stroke="#9a32cd" stroke-dasharray="5,2" d="M325.71,-68.41C322.32,-58.35 316.85,-46.31 308.5,-38 300.12,-29.67 288.74,-23.69 278.07,-19.51"/>
<polygon fill="#9a32cd" stroke="#9a32cd" points="322.44,-69.69 328.62,-78.29 329.15,-67.71 322.44,-69.69"/>
<text text-anchor="middle" x="356" y="-52" font-family="Helvetica,sans-Serif" font-size="10.00"> recipe_name</text>
<text text-anchor="middle" x="356" y="-41" font-family="Helvetica,sans-Serif" font-size="10.00">recipe</text>
</g>
<!-- Node8 -->
<g id="node8" class="node">
<title>Node8</title>
<g id="a_node8"><a xlink:href="structCraftReplacements.html" target="_top" xlink:title=" ">
<polygon fill="white" stroke="black" points="370.5,-78.5 370.5,-97.5 480.5,-97.5 480.5,-78.5 370.5,-78.5"/>
<text text-anchor="middle" x="425.5" y="-85.5" font-family="Helvetica,sans-Serif" font-size="10.00">CraftReplacements</text>
</a>
</g>
</g>
<!-- Node8&#45;&gt;Node1 -->
<g id="edge7" class="edge">
<title>Node8&#45;&gt;Node1</title>
<path fill="none" stroke="#9a32cd" stroke-dasharray="5,2" d="M418.09,-68.85C412.8,-58.2 404.65,-45.43 393.5,-38 378.48,-28 336.23,-20.86 301.01,-16.45"/>
<polygon fill="#9a32cd" stroke="#9a32cd" points="414.98,-70.47 422.28,-78.15 421.37,-67.6 414.98,-70.47"/>
<text text-anchor="middle" x="448.5" y="-46.5" font-family="Helvetica,sans-Serif" font-size="10.00"> replacements</text>
</g>
<!-- Node9 -->
<g id="node9" class="node">
<title>Node9</title>
<g id="a_node9"><a xlink:title=" ">
<polygon fill="white" stroke="#bfbfbf" points="352.5,-145.5 352.5,-175.5 498.5,-175.5 498.5,-145.5 352.5,-145.5"/>
<text text-anchor="start" x="360.5" y="-163.5" font-family="Helvetica,sans-Serif" font-size="10.00">vector&lt; std::pair&lt;</text>
<text text-anchor="middle" x="425.5" y="-152.5" font-family="Helvetica,sans-Serif" font-size="10.00"> std::string, std::string &gt; &gt;</text>
</a>
</g>
</g>
<!-- Node9&#45;&gt;Node8 -->
<g id="edge8" class="edge">
<title>Node9&#45;&gt;Node8</title>
<path fill="none" stroke="#9a32cd" stroke-dasharray="5,2" d="M425.5,-135.09C425.5,-122.21 425.5,-107.2 425.5,-97.89"/>
<polygon fill="#9a32cd" stroke="#9a32cd" points="422,-135.23 425.5,-145.23 429,-135.23 422,-135.23"/>
<text text-anchor="middle" x="439.5" y="-119" font-family="Helvetica,sans-Serif" font-size="10.00"> pairs</text>
</g>
</g>
</svg>
