<?xml version="1.0" encoding="UTF-8" standalone="no"?>
<!DOCTYPE svg PUBLIC "-//W3C//DTD SVG 1.1//EN"
 "http://www.w3.org/Graphics/SVG/1.1/DTD/svg11.dtd">
<!-- Generated by graphviz version 2.43.0 (0)
 -->
<!-- Title: con::ConnectionException Pages: 1 -->
<svg width="151pt" height="152pt"
 viewBox="0.00 0.00 151.00 152.00" xmlns="http://www.w3.org/2000/svg" xmlns:xlink="http://www.w3.org/1999/xlink">
<g id="graph0" class="graph" transform="scale(1 1) rotate(0) translate(4 148)">
<title>con::ConnectionException</title>
<polygon fill="white" stroke="transparent" points="-4,4 -4,-148 147,-148 147,4 -4,4"/>
<!-- Node1 -->
<g id="node1" class="node">
<title>Node1</title>
<g id="a_node1"><a xlink:title=" ">
<polygon fill="#bfbfbf" stroke="black" points="0,-0.5 0,-19.5 143,-19.5 143,-0.5 0,-0.5"/>
<text text-anchor="middle" x="71.5" y="-7.5" font-family="Helvetica,sans-Serif" font-size="10.00">con::ConnectionException</text>
</a>
</g>
</g>
<!-- Node2 -->
<g id="node2" class="node">
<title>Node2</title>
<g id="a_node2"><a xlink:href="classBaseException.html" target="_top" xlink:title=" ">
<polygon fill="white" stroke="black" points="27,-57.5 27,-76.5 116,-76.5 116,-57.5 27,-57.5"/>
<text text-anchor="middle" x="71.5" y="-64.5" font-family="Helvetica,sans-Serif" font-size="10.00">BaseException</text>
</a>
</g>
</g>
<!-- Node2&#45;&gt;Node1 -->
<g id="edge1" class="edge">
<title>Node2&#45;&gt;Node1</title>
<path fill="none" stroke="midnightblue" d="M71.5,-47.12C71.5,-37.82 71.5,-27.06 71.5,-19.71"/>
<polygon fill="midnightblue" stroke="midnightblue" points="68,-47.41 71.5,-57.41 75,-47.41 68,-47.41"/>
</g>
<!-- Node3 -->
<g id="node3" class="node">
<title>Node3</title>
<g id="a_node3"><a xlink:title=" ">
<polygon fill="white" stroke="#bfbfbf" points="3,-124.5 3,-143.5 68,-143.5 68,-124.5 3,-124.5"/>
<text text-anchor="middle" x="35.5" y="-131.5" font-family="Helvetica,sans-Serif" font-size="10.00">exception</text>
</a>
</g>
</g>
<!-- Node3&#45;&gt;Node2 -->
<g id="edge2" class="edge">
<title>Node3&#45;&gt;Node2</title>
<path fill="none" stroke="midnightblue" d="M45.38,-115.16C52.32,-102.63 61.3,-86.41 66.72,-76.63"/>
<polygon fill="midnightblue" stroke="midnightblue" points="42.14,-113.79 40.36,-124.23 48.26,-117.18 42.14,-113.79"/>
</g>
<!-- Node4 -->
<g id="node4" class="node">
<title>Node4</title>
<g id="a_node4"><a xlink:title=" ">
<polygon fill="white" stroke="#bfbfbf" points="86.5,-124.5 86.5,-143.5 130.5,-143.5 130.5,-124.5 86.5,-124.5"/>
<text text-anchor="middle" x="108.5" y="-131.5" font-family="Helvetica,sans-Serif" font-size="10.00">string</text>
</a>
</g>
</g>
<!-- Node4&#45;&gt;Node2 -->
<g id="edge3" class="edge">
<title>Node4&#45;&gt;Node2</title>
<path fill="none" stroke="#9a32cd" stroke-dasharray="5,2" d="M98.56,-115.53C91.39,-102.95 82.03,-86.51 76.41,-76.63"/>
<polygon fill="#9a32cd" stroke="#9a32cd" points="95.52,-117.27 103.51,-124.23 101.6,-113.81 95.52,-117.27"/>
<text text-anchor="middle" x="103.5" y="-98" font-family="Helvetica,sans-Serif" font-size="10.00"> m_s</text>
</g>
</g>
</svg>
