<?xml version="1.0" encoding="UTF-8" standalone="no"?>
<!DOCTYPE svg PUBLIC "-//W3C//DTD SVG 1.1//EN"
 "http://www.w3.org/Graphics/SVG/1.1/DTD/svg11.dtd">
<!-- Generated by graphviz version 2.43.0 (0)
 -->
<!-- Title: Environment::continueRaycast Pages: 1 -->
<svg width="539pt" height="225pt"
 viewBox="0.00 0.00 539.00 225.00" xmlns="http://www.w3.org/2000/svg" xmlns:xlink="http://www.w3.org/1999/xlink">
<g id="graph0" class="graph" transform="scale(1 1) rotate(0) translate(4 221)">
<title>Environment::continueRaycast</title>
<polygon fill="white" stroke="transparent" points="-4,4 -4,-221 535,-221 535,4 -4,4"/>
<!-- Node1 -->
<g id="node1" class="node">
<title>Node1</title>
<g id="a_node1"><a xlink:title=" ">
<polygon fill="#bfbfbf" stroke="black" points="0,-104 0,-123 166,-123 166,-104 0,-104"/>
<text text-anchor="middle" x="83" y="-111" font-family="Helvetica,sans-Serif" font-size="10.00">Environment::continueRaycast</text>
</a>
</g>
</g>
<!-- Node2 -->
<g id="node2" class="node">
<title>Node2</title>
<g id="a_node2"><a xlink:href="structvoxalgo_1_1VoxelLineIterator.html#a3a4765d98b7150049f2a95ea96e82ebb" target="_top" xlink:title=" ">
<polygon fill="white" stroke="black" points="214.5,-186.5 214.5,-216.5 358.5,-216.5 358.5,-186.5 214.5,-186.5"/>
<text text-anchor="start" x="222.5" y="-204.5" font-family="Helvetica,sans-Serif" font-size="10.00">voxalgo::VoxelLineIterator</text>
<text text-anchor="middle" x="286.5" y="-193.5" font-family="Helvetica,sans-Serif" font-size="10.00">::getIndex</text>
</a>
</g>
</g>
<!-- Node1&#45;&gt;Node2 -->
<g id="edge1" class="edge">
<title>Node1&#45;&gt;Node2</title>
<path fill="none" stroke="midnightblue" d="M99.54,-123.1C121.66,-136.45 163.78,-160.76 202,-176.5 207.78,-178.88 213.88,-181.15 220.03,-183.27"/>
<polygon fill="midnightblue" stroke="midnightblue" points="219.12,-186.66 229.71,-186.49 221.33,-180.01 219.12,-186.66"/>
</g>
<!-- Node3 -->
<g id="node3" class="node">
<title>Node3</title>
<g id="a_node3"><a xlink:href="structMapNode.html#ad0672c436fa3bffef6cfe2c9b313a3b9" target="_top" xlink:title=" ">
<polygon fill="white" stroke="black" points="219.5,-148 219.5,-167 353.5,-167 353.5,-148 219.5,-148"/>
<text text-anchor="middle" x="286.5" y="-155" font-family="Helvetica,sans-Serif" font-size="10.00">MapNode::getNeighbors</text>
</a>
</g>
</g>
<!-- Node1&#45;&gt;Node3 -->
<g id="edge2" class="edge">
<title>Node1&#45;&gt;Node3</title>
<path fill="none" stroke="midnightblue" d="M127.72,-123.05C158.35,-129.74 199.47,-138.71 232.05,-145.83"/>
<polygon fill="midnightblue" stroke="midnightblue" points="231.35,-149.26 241.86,-147.97 232.84,-142.42 231.35,-149.26"/>
</g>
<!-- Node5 -->
<g id="node5" class="node">
<title>Node5</title>
<g id="a_node5"><a xlink:href="classNodeDefManager.html#a59fb12b11fc0e10b9c79302296f52bfa" target="_top" xlink:title=" ">
<polygon fill="white" stroke="black" points="202,-98.5 202,-128.5 371,-128.5 371,-98.5 202,-98.5"/>
<text text-anchor="start" x="210" y="-116.5" font-family="Helvetica,sans-Serif" font-size="10.00">NodeDefManager::getSelection</text>
<text text-anchor="middle" x="286.5" y="-105.5" font-family="Helvetica,sans-Serif" font-size="10.00">BoxIntUnion</text>
</a>
</g>
</g>
<!-- Node1&#45;&gt;Node5 -->
<g id="edge4" class="edge">
<title>Node1&#45;&gt;Node5</title>
<path fill="none" stroke="midnightblue" d="M166.25,-113.5C174.6,-113.5 183.14,-113.5 191.6,-113.5"/>
<polygon fill="midnightblue" stroke="midnightblue" points="191.88,-117 201.88,-113.5 191.88,-110 191.88,-117"/>
</g>
<!-- Node6 -->
<g id="node6" class="node">
<title>Node6</title>
<g id="a_node6"><a xlink:href="classirr_1_1core_1_1line3d.html#a8df2350580b6be884b6f6d48c8932795" target="_top" xlink:title="Get vector of line.">
<polygon fill="white" stroke="black" points="238.5,-49.5 238.5,-79.5 334.5,-79.5 334.5,-49.5 238.5,-49.5"/>
<text text-anchor="start" x="246.5" y="-67.5" font-family="Helvetica,sans-Serif" font-size="10.00">irr::core::line3d::</text>
<text text-anchor="middle" x="286.5" y="-56.5" font-family="Helvetica,sans-Serif" font-size="10.00">getVector</text>
</a>
</g>
</g>
<!-- Node1&#45;&gt;Node6 -->
<g id="edge5" class="edge">
<title>Node1&#45;&gt;Node6</title>
<path fill="none" stroke="midnightblue" d="M123.33,-103.94C153.22,-96.67 194.78,-86.56 228.34,-78.4"/>
<polygon fill="midnightblue" stroke="midnightblue" points="229.59,-81.7 238.48,-75.93 227.94,-74.9 229.59,-81.7"/>
</g>
<!-- Node7 -->
<g id="node7" class="node">
<title>Node7</title>
<g id="a_node7"><a xlink:href="structvoxalgo_1_1VoxelLineIterator.html#aac1cf0e3eb1b62607c6ecb8ef15d5bde" target="_top" xlink:title=" ">
<polygon fill="white" stroke="black" points="214.5,-0.5 214.5,-30.5 358.5,-30.5 358.5,-0.5 214.5,-0.5"/>
<text text-anchor="start" x="222.5" y="-18.5" font-family="Helvetica,sans-Serif" font-size="10.00">voxalgo::VoxelLineIterator</text>
<text text-anchor="middle" x="286.5" y="-7.5" font-family="Helvetica,sans-Serif" font-size="10.00">::next</text>
</a>
</g>
</g>
<!-- Node1&#45;&gt;Node7 -->
<g id="edge6" class="edge">
<title>Node1&#45;&gt;Node7</title>
<path fill="none" stroke="midnightblue" d="M96.82,-103.99C117.83,-88.76 161.35,-58.77 202,-40.5 207.09,-38.21 212.45,-36.06 217.88,-34.06"/>
<polygon fill="midnightblue" stroke="midnightblue" points="219.44,-37.23 227.73,-30.63 217.13,-30.62 219.44,-37.23"/>
</g>
<!-- Node4 -->
<g id="node4" class="node">
<title>Node4</title>
<g id="a_node4"><a xlink:href="classNodeDefManager.html#a1454fd287c77a8d41c4a67bc474114b4" target="_top" xlink:title=" ">
<polygon fill="white" stroke="black" points="407,-148 407,-167 531,-167 531,-148 407,-148"/>
<text text-anchor="middle" x="469" y="-155" font-family="Helvetica,sans-Serif" font-size="10.00">NodeDefManager::get</text>
</a>
</g>
</g>
<!-- Node3&#45;&gt;Node4 -->
<g id="edge3" class="edge">
<title>Node3&#45;&gt;Node4</title>
<path fill="none" stroke="midnightblue" d="M353.69,-157.5C367.69,-157.5 382.53,-157.5 396.72,-157.5"/>
<polygon fill="midnightblue" stroke="midnightblue" points="396.91,-161 406.91,-157.5 396.91,-154 396.91,-161"/>
</g>
</g>
</svg>
