<?xml version="1.0" encoding="UTF-8" standalone="no"?>
<!DOCTYPE svg PUBLIC "-//W3C//DTD SVG 1.1//EN"
 "http://www.w3.org/Graphics/SVG/1.1/DTD/svg11.dtd">
<!-- Generated by graphviz version 2.43.0 (0)
 -->
<!-- Title: RenderingEngine Pages: 1 -->
<svg width="802pt" height="180pt"
 viewBox="0.00 0.00 802.00 180.00" xmlns="http://www.w3.org/2000/svg" xmlns:xlink="http://www.w3.org/1999/xlink">
<g id="graph0" class="graph" transform="scale(1 1) rotate(0) translate(4 176)">
<title>RenderingEngine</title>
<polygon fill="white" stroke="transparent" points="-4,4 -4,-176 798,-176 798,4 -4,4"/>
<!-- Node1 -->
<g id="node1" class="node">
<title>Node1</title>
<g id="a_node1"><a xlink:title=" ">
<polygon fill="#bfbfbf" stroke="black" points="695,-76.5 695,-95.5 794,-95.5 794,-76.5 695,-76.5"/>
<text text-anchor="middle" x="744.5" y="-83.5" font-family="Helvetica,sans-Serif" font-size="10.00">RenderingEngine</text>
</a>
</g>
</g>
<!-- Node1&#45;&gt;Node1 -->
<g id="edge8" class="edge">
<title>Node1&#45;&gt;Node1</title>
<path fill="none" stroke="#9a32cd" stroke-dasharray="5,2" d="M719.95,-105.03C721.29,-110.13 729.47,-114 744.5,-114 767.96,-114 774.74,-104.57 764.85,-95.76"/>
<polygon fill="#9a32cd" stroke="#9a32cd" points="723.21,-106.31 724.15,-95.76 716.83,-103.42 723.21,-106.31"/>
<text text-anchor="middle" x="744.5" y="-117" font-family="Helvetica,sans-Serif" font-size="10.00"> s_singleton</text>
</g>
<!-- Node2 -->
<g id="node2" class="node">
<title>Node2</title>
<g id="a_node2"><a xlink:title=" ">
<polygon fill="white" stroke="#bfbfbf" points="367,-152.5 367,-171.5 530,-171.5 530,-152.5 367,-152.5"/>
<text text-anchor="middle" x="448.5" y="-159.5" font-family="Helvetica,sans-Serif" font-size="10.00">unique_ptr&lt; RenderingCore &gt;</text>
</a>
</g>
</g>
<!-- Node2&#45;&gt;Node1 -->
<g id="edge1" class="edge">
<title>Node2&#45;&gt;Node1</title>
<path fill="none" stroke="#9a32cd" stroke-dasharray="5,2" d="M540.18,-158.48C582.8,-154.52 633.66,-146.42 677,-130 698.23,-121.96 719.55,-106.16 732.13,-95.85"/>
<polygon fill="#9a32cd" stroke="#9a32cd" points="539.75,-155.01 530.09,-159.36 540.36,-161.98 539.75,-155.01"/>
<text text-anchor="middle" x="612.5" y="-160" font-family="Helvetica,sans-Serif" font-size="10.00"> core</text>
</g>
<!-- Node3 -->
<g id="node3" class="node">
<title>Node3</title>
<g id="a_node3"><a xlink:href="classirr_1_1IrrlichtDevice.html" target="_top" xlink:title="The Irrlicht device. You can create it with createDevice() or createDeviceEx().">
<polygon fill="white" stroke="black" points="399.5,-114.5 399.5,-133.5 497.5,-133.5 497.5,-114.5 399.5,-114.5"/>
<text text-anchor="middle" x="448.5" y="-121.5" font-family="Helvetica,sans-Serif" font-size="10.00">irr::IrrlichtDevice</text>
</a>
</g>
</g>
<!-- Node3&#45;&gt;Node1 -->
<g id="edge2" class="edge">
<title>Node3&#45;&gt;Node1</title>
<path fill="none" stroke="#9a32cd" stroke-dasharray="5,2" d="M507.73,-119.51C553.82,-115.56 619.74,-109.02 677,-100 684.92,-98.75 693.33,-97.18 701.41,-95.54"/>
<polygon fill="#9a32cd" stroke="#9a32cd" points="507.29,-116.04 497.62,-120.36 507.88,-123.01 507.29,-116.04"/>
<text text-anchor="middle" x="612.5" y="-118" font-family="Helvetica,sans-Serif" font-size="10.00"> m_device</text>
</g>
<!-- Node4 -->
<g id="node4" class="node">
<title>Node4</title>
<g id="a_node4"><a xlink:href="classirr_1_1IReferenceCounted.html" target="_top" xlink:title="Base class of most objects of the Irrlicht Engine.">
<polygon fill="white" stroke="black" points="177,-94.5 177,-113.5 303,-113.5 303,-94.5 177,-94.5"/>
<text text-anchor="middle" x="240" y="-101.5" font-family="Helvetica,sans-Serif" font-size="10.00">irr::IReferenceCounted</text>
</a>
</g>
</g>
<!-- Node4&#45;&gt;Node3 -->
<g id="edge3" class="edge">
<title>Node4&#45;&gt;Node3</title>
<path fill="none" stroke="midnightblue" d="M313.56,-111.03C342.05,-113.79 373.97,-116.88 399.5,-119.35"/>
<polygon fill="midnightblue" stroke="midnightblue" points="313.53,-107.51 303.24,-110.03 312.85,-114.48 313.53,-107.51"/>
</g>
<!-- Node10 -->
<g id="node10" class="node">
<title>Node10</title>
<g id="a_node10"><a xlink:href="classirr_1_1video_1_1IVideoDriver.html" target="_top" xlink:title="Interface to driver which is able to perform 2d and 3d graphics functions.">
<polygon fill="white" stroke="black" points="385,-76.5 385,-95.5 512,-95.5 512,-76.5 385,-76.5"/>
<text text-anchor="middle" x="448.5" y="-83.5" font-family="Helvetica,sans-Serif" font-size="10.00">irr::video::IVideoDriver</text>
</a>
</g>
</g>
<!-- Node4&#45;&gt;Node10 -->
<g id="edge11" class="edge">
<title>Node4&#45;&gt;Node10</title>
<path fill="none" stroke="midnightblue" d="M313.39,-97.69C336.63,-95.66 362.18,-93.44 384.68,-91.48"/>
<polygon fill="midnightblue" stroke="midnightblue" points="312.9,-94.22 303.24,-98.57 313.5,-101.19 312.9,-94.22"/>
</g>
<!-- Node5 -->
<g id="node5" class="node">
<title>Node5</title>
<g id="a_node5"><a xlink:title=" ">
<polygon fill="white" stroke="#bfbfbf" points="6,-113.5 6,-132.5 44,-132.5 44,-113.5 6,-113.5"/>
<text text-anchor="middle" x="25" y="-120.5" font-family="Helvetica,sans-Serif" font-size="10.00">char</text>
</a>
</g>
</g>
<!-- Node5&#45;&gt;Node4 -->
<g id="edge4" class="edge">
<title>Node5&#45;&gt;Node4</title>
<path fill="none" stroke="#9a32cd" stroke-dasharray="5,2" d="M54.29,-120.48C85.39,-117.7 136.34,-113.16 176.86,-109.54"/>
<polygon fill="#9a32cd" stroke="#9a32cd" points="53.81,-117.01 44.16,-121.38 54.43,-123.98 53.81,-117.01"/>
<text text-anchor="middle" x="113.5" y="-121" font-family="Helvetica,sans-Serif" font-size="10.00"> DebugName</text>
</g>
<!-- Node6 -->
<g id="node6" class="node">
<title>Node6</title>
<g id="a_node6"><a xlink:title=" ">
<polygon fill="white" stroke="#bfbfbf" points="0,-75.5 0,-94.5 50,-94.5 50,-75.5 0,-75.5"/>
<text text-anchor="middle" x="25" y="-82.5" font-family="Helvetica,sans-Serif" font-size="10.00">int32_t</text>
</a>
</g>
</g>
<!-- Node6&#45;&gt;Node4 -->
<g id="edge5" class="edge">
<title>Node6&#45;&gt;Node4</title>
<path fill="none" stroke="#9a32cd" stroke-dasharray="5,2" d="M60.09,-87.66C86.97,-89.79 125.39,-92.93 159,-96 164.84,-96.53 170.91,-97.11 176.99,-97.69"/>
<polygon fill="#9a32cd" stroke="#9a32cd" points="60.28,-84.16 50.04,-86.86 59.73,-91.14 60.28,-84.16"/>
<text text-anchor="middle" x="113.5" y="-99" font-family="Helvetica,sans-Serif" font-size="10.00"> ReferenceCounter</text>
</g>
<!-- Node7 -->
<g id="node7" class="node">
<title>Node7</title>
<g id="a_node7"><a xlink:href="classirr_1_1video_1_1SColor.html" target="_top" xlink:title="Class representing a 32 bit ARGB color.">
<polygon fill="white" stroke="black" points="399.5,-38.5 399.5,-57.5 497.5,-57.5 497.5,-38.5 399.5,-38.5"/>
<text text-anchor="middle" x="448.5" y="-45.5" font-family="Helvetica,sans-Serif" font-size="10.00">irr::video::SColor</text>
</a>
</g>
</g>
<!-- Node7&#45;&gt;Node1 -->
<g id="edge6" class="edge">
<title>Node7&#45;&gt;Node1</title>
<path fill="none" stroke="#9a32cd" stroke-dasharray="5,2" d="M507.76,-51.94C553.88,-55.52 619.81,-61.69 677,-71 686.11,-72.48 695.84,-74.45 704.97,-76.48"/>
<polygon fill="#9a32cd" stroke="#9a32cd" points="507.89,-48.44 497.65,-51.17 507.36,-55.42 507.89,-48.44"/>
<text text-anchor="middle" x="612.5" y="-74" font-family="Helvetica,sans-Serif" font-size="10.00"> MENU_SKY_COLOR</text>
</g>
<!-- Node8 -->
<g id="node8" class="node">
<title>Node8</title>
<g id="a_node8"><a xlink:title=" ">
<polygon fill="white" stroke="#bfbfbf" points="212,-38.5 212,-57.5 268,-57.5 268,-38.5 212,-38.5"/>
<text text-anchor="middle" x="240" y="-45.5" font-family="Helvetica,sans-Serif" font-size="10.00">uint32_t</text>
</a>
</g>
</g>
<!-- Node8&#45;&gt;Node7 -->
<g id="edge7" class="edge">
<title>Node8&#45;&gt;Node7</title>
<path fill="none" stroke="#9a32cd" stroke-dasharray="5,2" d="M278.83,-48C312.73,-48 362.63,-48 399.36,-48"/>
<polygon fill="#9a32cd" stroke="#9a32cd" points="278.42,-44.5 268.42,-48 278.42,-51.5 278.42,-44.5"/>
<text text-anchor="middle" x="335" y="-51" font-family="Helvetica,sans-Serif" font-size="10.00"> color</text>
</g>
<!-- Node9 -->
<g id="node9" class="node">
<title>Node9</title>
<g id="a_node9"><a xlink:title=" ">
<polygon fill="white" stroke="#bfbfbf" points="429.5,-0.5 429.5,-19.5 467.5,-19.5 467.5,-0.5 429.5,-0.5"/>
<text text-anchor="middle" x="448.5" y="-7.5" font-family="Helvetica,sans-Serif" font-size="10.00">float</text>
</a>
</g>
</g>
<!-- Node9&#45;&gt;Node1 -->
<g id="edge9" class="edge">
<title>Node9&#45;&gt;Node1</title>
<path fill="none" stroke="#9a32cd" stroke-dasharray="5,2" d="M477.86,-9.53C521.96,-9.71 608.98,-13.76 677,-40 699,-48.49 720.77,-65.65 733.13,-76.44"/>
<polygon fill="#9a32cd" stroke="#9a32cd" points="477.6,-6.03 467.61,-9.55 477.62,-13.03 477.6,-6.03"/>
<text text-anchor="middle" x="612.5" y="-43" font-family="Helvetica,sans-Serif" font-size="10.00"> BASE_BLOOM_STRENGTH</text>
</g>
<!-- Node10&#45;&gt;Node1 -->
<g id="edge10" class="edge">
<title>Node10&#45;&gt;Node1</title>
<path fill="none" stroke="#9a32cd" stroke-dasharray="5,2" d="M522.38,-86C576.2,-86 647.98,-86 694.95,-86"/>
<polygon fill="#9a32cd" stroke="#9a32cd" points="522.21,-82.5 512.21,-86 522.21,-89.5 522.21,-82.5"/>
<text text-anchor="middle" x="612.5" y="-89" font-family="Helvetica,sans-Serif" font-size="10.00"> driver</text>
</g>
</g>
</svg>
