<?xml version="1.0" encoding="UTF-8" standalone="no"?>
<!DOCTYPE svg PUBLIC "-//W3C//DTD SVG 1.1//EN"
 "http://www.w3.org/Graphics/SVG/1.1/DTD/svg11.dtd">
<!-- Generated by graphviz version 2.43.0 (0)
 -->
<!-- Title: Catch::Generators::RandomIntegerGenerator&lt; Integer &gt; Pages: 1 -->
<svg width="789pt" height="172pt"
 viewBox="0.00 0.00 789.00 172.49" xmlns="http://www.w3.org/2000/svg" xmlns:xlink="http://www.w3.org/1999/xlink">
<g id="graph0" class="graph" transform="scale(1 1) rotate(0) translate(4 168.49)">
<title>Catch::Generators::RandomIntegerGenerator&lt; Integer &gt;</title>
<polygon fill="white" stroke="transparent" points="-4,4 -4,-168.49 785,-168.49 785,4 -4,4"/>
<!-- Node1 -->
<g id="node1" class="node">
<title>Node1</title>
<g id="a_node1"><a xlink:title=" ">
<polygon fill="#bfbfbf" stroke="black" points="641,-62.49 641,-103.49 781,-103.49 781,-62.49 641,-62.49"/>
<text text-anchor="start" x="649" y="-91.49" font-family="Helvetica,sans-Serif" font-size="10.00">Catch::Generators::</text>
<text text-anchor="start" x="649" y="-80.49" font-family="Helvetica,sans-Serif" font-size="10.00">RandomIntegerGenerator</text>
<text text-anchor="middle" x="711" y="-69.49" font-family="Helvetica,sans-Serif" font-size="10.00">&lt; Integer &gt;</text>
</a>
</g>
</g>
<!-- Node2 -->
<g id="node2" class="node">
<title>Node2</title>
<g id="a_node2"><a xlink:href="structCatch_1_1Generators_1_1IGenerator.html" target="_top" xlink:title=" ">
<polygon fill="white" stroke="black" points="379.5,-133.99 379.5,-163.99 504.5,-163.99 504.5,-133.99 379.5,-133.99"/>
<text text-anchor="start" x="387.5" y="-151.99" font-family="Helvetica,sans-Serif" font-size="10.00">Catch::Generators::</text>
<text text-anchor="middle" x="442" y="-140.99" font-family="Helvetica,sans-Serif" font-size="10.00">IGenerator&lt; Integer &gt;</text>
</a>
</g>
</g>
<!-- Node2&#45;&gt;Node1 -->
<g id="edge1" class="edge">
<title>Node2&#45;&gt;Node1</title>
<path fill="none" stroke="midnightblue" d="M514.73,-136.28C547.89,-129.88 587.68,-121.47 623,-111.99 632.23,-109.51 641.91,-106.6 651.32,-103.6"/>
<polygon fill="midnightblue" stroke="midnightblue" points="513.83,-132.88 504.66,-138.19 515.14,-139.76 513.83,-132.88"/>
</g>
<!-- Node3 -->
<g id="node3" class="node">
<title>Node3</title>
<g id="a_node3"><a xlink:href="classCatch_1_1Generators_1_1GeneratorUntypedBase.html" target="_top" xlink:title=" ">
<polygon fill="white" stroke="black" points="0,-128.99 0,-158.99 131,-158.99 131,-128.99 0,-128.99"/>
<text text-anchor="start" x="8" y="-146.99" font-family="Helvetica,sans-Serif" font-size="10.00">Catch::Generators::</text>
<text text-anchor="middle" x="65.5" y="-135.99" font-family="Helvetica,sans-Serif" font-size="10.00">GeneratorUntypedBase</text>
</a>
</g>
</g>
<!-- Node3&#45;&gt;Node2 -->
<g id="edge2" class="edge">
<title>Node3&#45;&gt;Node2</title>
<path fill="none" stroke="midnightblue" d="M141.39,-147.92C200.05,-150.54 283.71,-153.3 357,-151.99 364.15,-151.86 371.64,-151.67 379.08,-151.45"/>
<polygon fill="midnightblue" stroke="midnightblue" points="141.25,-144.41 131.1,-147.45 140.93,-151.4 141.25,-144.41"/>
</g>
<!-- Node4 -->
<g id="node4" class="node">
<title>Node4</title>
<g id="a_node4"><a xlink:href="structCatch_1_1Generators_1_1IGenerator.html" target="_top" xlink:title=" ">
<polygon fill="white" stroke="black" points="168,-106.99 168,-136.99 278,-136.99 278,-106.99 168,-106.99"/>
<text text-anchor="start" x="176" y="-124.99" font-family="Helvetica,sans-Serif" font-size="10.00">Catch::Generators::</text>
<text text-anchor="middle" x="223" y="-113.99" font-family="Helvetica,sans-Serif" font-size="10.00">IGenerator&lt; T &gt;</text>
</a>
</g>
</g>
<!-- Node3&#45;&gt;Node4 -->
<g id="edge4" class="edge">
<title>Node3&#45;&gt;Node4</title>
<path fill="none" stroke="midnightblue" d="M141.16,-133.42C150.12,-132.16 159.14,-130.88 167.73,-129.67"/>
<polygon fill="midnightblue" stroke="midnightblue" points="140.51,-129.98 131.1,-134.85 141.49,-136.91 140.51,-129.98"/>
</g>
<!-- Node4&#45;&gt;Node2 -->
<g id="edge3" class="edge">
<title>Node4&#45;&gt;Node2</title>
<path fill="none" stroke="orange" stroke-dasharray="5,2" d="M288.17,-129.97C317.02,-133.56 350.92,-137.78 379.45,-141.33"/>
<polygon fill="orange" stroke="orange" points="288.55,-126.49 278.2,-128.73 287.69,-133.44 288.55,-126.49"/>
<text text-anchor="middle" x="326.5" y="-139.99" font-family="Helvetica,sans-Serif" font-size="10.00"> &lt; Integer &gt;</text>
</g>
<!-- Node5 -->
<g id="node5" class="node">
<title>Node5</title>
<g id="a_node5"><a xlink:title=" ">
<polygon fill="white" stroke="#bfbfbf" points="416.5,-95.49 416.5,-114.49 467.5,-114.49 467.5,-95.49 416.5,-95.49"/>
<text text-anchor="middle" x="442" y="-102.49" font-family="Helvetica,sans-Serif" font-size="10.00">Integer</text>
</a>
</g>
</g>
<!-- Node5&#45;&gt;Node1 -->
<g id="edge5" class="edge">
<title>Node5&#45;&gt;Node1</title>
<path fill="none" stroke="#9a32cd" stroke-dasharray="5,2" d="M477.71,-102.13C518.88,-98.74 588.5,-93 640.81,-88.69"/>
<polygon fill="#9a32cd" stroke="#9a32cd" points="477.32,-98.65 467.64,-102.96 477.89,-105.62 477.32,-98.65"/>
<text text-anchor="middle" x="575" y="-99.99" font-family="Helvetica,sans-Serif" font-size="10.00"> m_current_number</text>
</g>
<!-- Node6 -->
<g id="node6" class="node">
<title>Node6</title>
<g id="a_node6"><a xlink:title=" ">
<polygon fill="white" stroke="#bfbfbf" points="375,-45.99 375,-75.99 509,-75.99 509,-45.99 375,-45.99"/>
<text text-anchor="start" x="383" y="-63.99" font-family="Helvetica,sans-Serif" font-size="10.00">uniform_int_distribution</text>
<text text-anchor="middle" x="442" y="-52.99" font-family="Helvetica,sans-Serif" font-size="10.00">&lt; Integer &gt;</text>
</a>
</g>
</g>
<!-- Node6&#45;&gt;Node1 -->
<g id="edge6" class="edge">
<title>Node6&#45;&gt;Node1</title>
<path fill="none" stroke="#9a32cd" stroke-dasharray="5,2" d="M519.45,-66.7C551.46,-69.15 589.04,-72.11 623,-74.99 628.74,-75.48 634.7,-75.99 640.68,-76.52"/>
<polygon fill="#9a32cd" stroke="#9a32cd" points="519.51,-63.19 509.27,-65.92 518.98,-70.17 519.51,-63.19"/>
<text text-anchor="middle" x="575" y="-77.99" font-family="Helvetica,sans-Serif" font-size="10.00"> m_dist</text>
</g>
<!-- Node7 -->
<g id="node7" class="node">
<title>Node7</title>
<g id="a_node7"><a xlink:href="classCatch_1_1SimplePcg32.html" target="_top" xlink:title=" ">
<polygon fill="white" stroke="black" points="385.5,-7.49 385.5,-26.49 498.5,-26.49 498.5,-7.49 385.5,-7.49"/>
<text text-anchor="middle" x="442" y="-14.49" font-family="Helvetica,sans-Serif" font-size="10.00">Catch::SimplePcg32</text>
</a>
</g>
</g>
<!-- Node7&#45;&gt;Node1 -->
<g id="edge7" class="edge">
<title>Node7&#45;&gt;Node1</title>
<path fill="none" stroke="#9a32cd" stroke-dasharray="5,2" d="M508.56,-27.29C542.93,-33.31 585.55,-41.74 623,-51.99 633.83,-54.95 645.24,-58.61 656.1,-62.37"/>
<polygon fill="#9a32cd" stroke="#9a32cd" points="509.09,-23.83 498.64,-25.58 507.9,-30.73 509.09,-23.83"/>
<text text-anchor="middle" x="575" y="-54.99" font-family="Helvetica,sans-Serif" font-size="10.00"> m_rng</text>
</g>
<!-- Node8 -->
<g id="node8" class="node">
<title>Node8</title>
<g id="a_node8"><a xlink:title=" ">
<polygon fill="white" stroke="#bfbfbf" points="195,-7.49 195,-26.49 251,-26.49 251,-7.49 195,-7.49"/>
<text text-anchor="middle" x="223" y="-14.49" font-family="Helvetica,sans-Serif" font-size="10.00">uint64_t</text>
</a>
</g>
</g>
<!-- Node8&#45;&gt;Node7 -->
<g id="edge8" class="edge">
<title>Node8&#45;&gt;Node7</title>
<path fill="none" stroke="#9a32cd" stroke-dasharray="5,2" d="M261.05,-16.99C295.13,-16.99 346.16,-16.99 385.18,-16.99"/>
<polygon fill="#9a32cd" stroke="#9a32cd" points="261.04,-13.49 251.04,-16.99 261.04,-20.49 261.04,-13.49"/>
<text text-anchor="middle" x="326.5" y="-19.99" font-family="Helvetica,sans-Serif" font-size="10.00"> m_state</text>
</g>
<!-- Node8&#45;&gt;Node7 -->
<g id="edge9" class="edge">
<title>Node8&#45;&gt;Node7</title>
<path fill="none" stroke="#9a32cd" stroke-dasharray="5,2" d="M261.01,-7.76C272.18,-5.39 284.53,-3.17 296,-1.99 322.97,0.79 329.99,0.4 357,-1.99 369.69,-3.11 383.33,-5.17 395.86,-7.42"/>
<polygon fill="#9a32cd" stroke="#9a32cd" points="260.14,-4.37 251.14,-9.96 261.67,-11.2 260.14,-4.37"/>
<text text-anchor="middle" x="326.5" y="-4.99" font-family="Helvetica,sans-Serif" font-size="10.00"> s_inc</text>
</g>
</g>
</svg>
