<?xml version="1.0" encoding="UTF-8" standalone="no"?>
<!DOCTYPE svg PUBLIC "-//W3C//DTD SVG 1.1//EN"
 "http://www.w3.org/Graphics/SVG/1.1/DTD/svg11.dtd">
<!-- Generated by graphviz version 2.43.0 (0)
 -->
<!-- Title: Thread Pages: 1 -->
<svg width="562pt" height="106pt"
 viewBox="0.00 0.00 562.00 106.00" xmlns="http://www.w3.org/2000/svg" xmlns:xlink="http://www.w3.org/1999/xlink">
<g id="graph0" class="graph" transform="scale(1 1) rotate(0) translate(4 102)">
<title>Thread</title>
<polygon fill="white" stroke="transparent" points="-4,4 -4,-102 558,-102 558,4 -4,4"/>
<!-- Node1 -->
<g id="node1" class="node">
<title>Node1</title>
<g id="a_node1"><a xlink:title=" ">
<polygon fill="#bfbfbf" stroke="black" points="276,-0.5 276,-19.5 326,-19.5 326,-0.5 276,-0.5"/>
<text text-anchor="middle" x="301" y="-7.5" font-family="Helvetica,sans-Serif" font-size="10.00">Thread</text>
</a>
</g>
</g>
<!-- Node2 -->
<g id="node2" class="node">
<title>Node2</title>
<g id="a_node2"><a xlink:title=" ">
<polygon fill="white" stroke="#bfbfbf" points="0,-78.5 0,-97.5 48,-97.5 48,-78.5 0,-78.5"/>
<text text-anchor="middle" x="24" y="-85.5" font-family="Helvetica,sans-Serif" font-size="10.00">mutex</text>
</a>
</g>
</g>
<!-- Node2&#45;&gt;Node1 -->
<g id="edge1" class="edge">
<title>Node2&#45;&gt;Node1</title>
<path fill="none" stroke="#9a32cd" stroke-dasharray="5,2" d="M26.39,-68.46C28.78,-57.85 33.53,-45.24 43,-38 79.05,-10.45 218.19,-9.54 275.8,-10.4"/>
<polygon fill="#9a32cd" stroke="#9a32cd" points="22.91,-68.04 24.67,-78.49 29.81,-69.23 22.91,-68.04"/>
<text text-anchor="middle" x="103.5" y="-52" font-family="Helvetica,sans-Serif" font-size="10.00"> m_start_finished_mutex</text>
<text text-anchor="middle" x="103.5" y="-41" font-family="Helvetica,sans-Serif" font-size="10.00">m_mutex</text>
</g>
<!-- Node3 -->
<g id="node3" class="node">
<title>Node3</title>
<g id="a_node3"><a xlink:title=" ">
<polygon fill="white" stroke="#bfbfbf" points="140,-78.5 140,-97.5 196,-97.5 196,-78.5 140,-78.5"/>
<text text-anchor="middle" x="168" y="-85.5" font-family="Helvetica,sans-Serif" font-size="10.00">thread *</text>
</a>
</g>
</g>
<!-- Node3&#45;&gt;Node1 -->
<g id="edge2" class="edge">
<title>Node3&#45;&gt;Node1</title>
<path fill="none" stroke="#9a32cd" stroke-dasharray="5,2" d="M167.58,-68.36C168.36,-58.09 171.11,-45.87 179,-38 192.4,-24.64 244.22,-16.95 275.85,-13.4"/>
<polygon fill="#9a32cd" stroke="#9a32cd" points="164.08,-68.36 167.36,-78.44 171.07,-68.51 164.08,-68.36"/>
<text text-anchor="middle" x="214" y="-46.5" font-family="Helvetica,sans-Serif" font-size="10.00"> m_thread_obj</text>
</g>
<!-- Node4 -->
<g id="node4" class="node">
<title>Node4</title>
<g id="a_node4"><a xlink:href="classbool.html" target="_top" xlink:title=" ">
<polygon fill="white" stroke="black" points="242,-78.5 242,-97.5 280,-97.5 280,-78.5 242,-78.5"/>
<text text-anchor="middle" x="261" y="-85.5" font-family="Helvetica,sans-Serif" font-size="10.00">bool</text>
</a>
</g>
</g>
<!-- Node4&#45;&gt;Node1 -->
<g id="edge3" class="edge">
<title>Node4&#45;&gt;Node1</title>
<path fill="none" stroke="#9a32cd" stroke-dasharray="5,2" d="M255.33,-68.62C253.43,-58.94 252.91,-47.21 258,-38 262.52,-29.82 270.67,-23.79 278.67,-19.52"/>
<polygon fill="#9a32cd" stroke="#9a32cd" points="251.97,-69.6 257.84,-78.42 258.75,-67.86 251.97,-69.6"/>
<text text-anchor="middle" x="287" y="-46.5" font-family="Helvetica,sans-Serif" font-size="10.00"> m_joinable</text>
</g>
<!-- Node5 -->
<g id="node5" class="node">
<title>Node5</title>
<g id="a_node5"><a xlink:title=" ">
<polygon fill="white" stroke="#bfbfbf" points="315,-78.5 315,-97.5 359,-97.5 359,-78.5 315,-78.5"/>
<text text-anchor="middle" x="337" y="-85.5" font-family="Helvetica,sans-Serif" font-size="10.00">string</text>
</a>
</g>
</g>
<!-- Node5&#45;&gt;Node1 -->
<g id="edge4" class="edge">
<title>Node5&#45;&gt;Node1</title>
<path fill="none" stroke="#9a32cd" stroke-dasharray="5,2" d="M331.93,-68.52C329.02,-59.13 324.96,-47.68 320,-38 316.65,-31.47 311.9,-24.72 307.99,-19.6"/>
<polygon fill="#9a32cd" stroke="#9a32cd" points="328.65,-69.76 334.8,-78.38 335.37,-67.8 328.65,-69.76"/>
<text text-anchor="middle" x="351" y="-46.5" font-family="Helvetica,sans-Serif" font-size="10.00"> m_name</text>
</g>
<!-- Node6 -->
<g id="node6" class="node">
<title>Node6</title>
<g id="a_node6"><a xlink:title=" ">
<polygon fill="white" stroke="#bfbfbf" points="377,-78.5 377,-97.5 471,-97.5 471,-78.5 377,-78.5"/>
<text text-anchor="middle" x="424" y="-85.5" font-family="Helvetica,sans-Serif" font-size="10.00">atomic&lt; bool &gt;</text>
</a>
</g>
</g>
<!-- Node6&#45;&gt;Node1 -->
<g id="edge5" class="edge">
<title>Node6&#45;&gt;Node1</title>
<path fill="none" stroke="#9a32cd" stroke-dasharray="5,2" d="M411.61,-70.12C403.16,-59.63 391.14,-46.55 378,-38 362.21,-27.72 342.04,-20.83 326.31,-16.59"/>
<polygon fill="#9a32cd" stroke="#9a32cd" points="408.95,-72.39 417.82,-78.17 414.49,-68.12 408.95,-72.39"/>
<text text-anchor="middle" x="441.5" y="-52" font-family="Helvetica,sans-Serif" font-size="10.00"> m_running</text>
<text text-anchor="middle" x="441.5" y="-41" font-family="Helvetica,sans-Serif" font-size="10.00">m_request_stop</text>
</g>
<!-- Node7 -->
<g id="node7" class="node">
<title>Node7</title>
<g id="a_node7"><a xlink:title=" ">
<polygon fill="white" stroke="#bfbfbf" points="499,-78.5 499,-97.5 545,-97.5 545,-78.5 499,-78.5"/>
<text text-anchor="middle" x="522" y="-85.5" font-family="Helvetica,sans-Serif" font-size="10.00">void *</text>
</a>
</g>
</g>
<!-- Node7&#45;&gt;Node1 -->
<g id="edge6" class="edge">
<title>Node7&#45;&gt;Node1</title>
<path fill="none" stroke="#9a32cd" stroke-dasharray="5,2" d="M513.28,-69.36C506.96,-58.51 497.36,-45.32 485,-38 458.61,-22.37 370.04,-15.07 326.12,-12.34"/>
<polygon fill="#9a32cd" stroke="#9a32cd" points="510.33,-71.28 518.15,-78.44 516.5,-67.97 510.33,-71.28"/>
<text text-anchor="middle" x="530.5" y="-46.5" font-family="Helvetica,sans-Serif" font-size="10.00"> m_retval</text>
</g>
</g>
</svg>
