<?xml version="1.0" encoding="UTF-8" standalone="no"?>
<!DOCTYPE svg PUBLIC "-//W3C//DTD SVG 1.1//EN"
 "http://www.w3.org/Graphics/SVG/1.1/DTD/svg11.dtd">
<!-- Generated by graphviz version 2.43.0 (0)
 -->
<!-- Title: irr::io::CFileSystem Pages: 1 -->
<!--zoomable 388 -->
<svg id="main" version="1.1" xmlns="http://www.w3.org/2000/svg" xmlns:xlink="http://www.w3.org/1999/xlink" xml:space="preserve" onload="init(evt)">
<style type="text/css"><![CDATA[
.edge:hover path { stroke: red; }
.edge:hover polygon { stroke: red; fill: red; }
]]></style>
<script type="text/javascript"><![CDATA[
var edges = document.getElementsByTagName('g');
if (edges && edges.length) {
  for (var i=0;i<edges.length;i++) {
    if (edges[i].id.substr(0,4)=='edge') {
      edges[i].setAttribute('class','edge');
    }
  }
}
]]></script>
        <defs>
                <circle id="rim" cx="0" cy="0" r="7"/>
                <circle id="rim2" cx="0" cy="0" r="3.5"/>
                <g id="zoomPlus">
                        <use xlink:href="#rim" fill="#404040">
                                <set attributeName="fill" to="#808080" begin="zoomplus.mouseover" end="zoomplus.mouseout"/>
                        </use>
                        <path d="M-4,0h8M0,-4v8" fill="none" stroke="white" stroke-width="1.5" pointer-events="none"/>
                </g>
                <g id="zoomMin">
                        <use xlink:href="#rim" fill="#404040">
                                <set attributeName="fill" to="#808080" begin="zoomminus.mouseover" end="zoomminus.mouseout"/>
                        </use>
                        <path d="M-4,0h8" fill="none" stroke="white" stroke-width="1.5" pointer-events="none"/>
                </g>
                <g id="dirArrow">
                        <path fill="none" stroke="white" stroke-width="1.5" d="M0,-3.0v7 M-2.5,-0.5L0,-3.0L2.5,-0.5"/>
                </g>
               <g id="resetDef">
                       <use xlink:href="#rim2" fill="#404040">
                               <set attributeName="fill" to="#808080" begin="reset.mouseover" end="reset.mouseout"/>
                       </use>
               </g>
        </defs>

<script type="text/javascript">
var viewWidth = 962;
var viewHeight = 388;
var sectionId = 'dynsection-1';
</script>
<script xlink:href="svgpan.js"/>
<svg id="graph" class="graph">
<g id="viewport">
<title>irr::io::CFileSystem</title>
<polygon fill="white" stroke="transparent" points="-4,4 -4,-384.18 958,-384.18 958,4 -4,4"/>
<!-- Node1 -->
<g id="node1" class="node">
<title>Node1</title>
<g id="a_node1"><a xlink:title=" ">
<polygon fill="#bfbfbf" stroke="black" points="845,-146.68 845,-165.68 954,-165.68 954,-146.68 845,-146.68"/>
<text text-anchor="middle" x="899.5" y="-153.68" font-family="Helvetica,sans-Serif" font-size="10.00">irr::io::CFileSystem</text>
</a>
</g>
</g>
<!-- Node2 -->
<g id="node2" class="node">
<title>Node2</title>
<g id="a_node2"><a xlink:href="classirr_1_1io_1_1IFileSystem.html" target="_top" xlink:title="The FileSystem manages files and archives and provides access to them.">
<polygon fill="white" stroke="black" points="603.5,-301.68 603.5,-320.68 708.5,-320.68 708.5,-301.68 603.5,-301.68"/>
<text text-anchor="middle" x="656" y="-308.68" font-family="Helvetica,sans-Serif" font-size="10.00">irr::io::IFileSystem</text>
</a>
</g>
</g>
<!-- Node2&#45;&gt;Node1 -->
<g id="edge1" class="edge">
<title>Node2&#45;&gt;Node1</title>
<path fill="none" stroke="midnightblue" d="M691.46,-297.71C727.1,-282.94 783.53,-257.17 827,-226.18 852.75,-207.83 878.02,-180.19 890.48,-165.75"/>
<polygon fill="midnightblue" stroke="midnightblue" points="689.92,-294.56 681.99,-301.58 692.57,-301.04 689.92,-294.56"/>
</g>
<!-- Node3 -->
<g id="node3" class="node">
<title>Node3</title>
<g id="a_node3"><a xlink:href="classirr_1_1IReferenceCounted.html" target="_top" xlink:title="Base class of most objects of the Irrlicht Engine.">
<polygon fill="white" stroke="black" points="269.5,-325.68 269.5,-344.68 395.5,-344.68 395.5,-325.68 269.5,-325.68"/>
<text text-anchor="middle" x="332.5" y="-332.68" font-family="Helvetica,sans-Serif" font-size="10.00">irr::IReferenceCounted</text>
</a>
</g>
</g>
<!-- Node3&#45;&gt;Node2 -->
<g id="edge2" class="edge">
<title>Node3&#45;&gt;Node2</title>
<path fill="none" stroke="midnightblue" d="M406.05,-329.77C466.12,-325.28 550,-319.02 603.4,-315.03"/>
<polygon fill="midnightblue" stroke="midnightblue" points="405.58,-326.29 395.87,-330.53 406.1,-333.27 405.58,-326.29"/>
</g>
<!-- Node4 -->
<g id="node4" class="node">
<title>Node4</title>
<g id="a_node4"><a xlink:title=" ">
<polygon fill="white" stroke="#bfbfbf" points="42,-322.68 42,-341.68 80,-341.68 80,-322.68 42,-322.68"/>
<text text-anchor="middle" x="61" y="-329.68" font-family="Helvetica,sans-Serif" font-size="10.00">char</text>
</a>
</g>
</g>
<!-- Node4&#45;&gt;Node3 -->
<g id="edge3" class="edge">
<title>Node4&#45;&gt;Node3</title>
<path fill="none" stroke="#9a32cd" stroke-dasharray="5,2" d="M90.2,-332.5C132.37,-332.97 212.93,-333.86 269.32,-334.49"/>
<polygon fill="#9a32cd" stroke="#9a32cd" points="90.14,-329 80.1,-332.38 90.06,-336 90.14,-329"/>
<text text-anchor="middle" x="185.5" y="-336.18" font-family="Helvetica,sans-Serif" font-size="10.00"> DebugName</text>
</g>
<!-- Node5 -->
<g id="node5" class="node">
<title>Node5</title>
<g id="a_node5"><a xlink:title=" ">
<polygon fill="white" stroke="#bfbfbf" points="36,-360.68 36,-379.68 86,-379.68 86,-360.68 36,-360.68"/>
<text text-anchor="middle" x="61" y="-367.68" font-family="Helvetica,sans-Serif" font-size="10.00">int32_t</text>
</a>
</g>
</g>
<!-- Node5&#45;&gt;Node3 -->
<g id="edge4" class="edge">
<title>Node5&#45;&gt;Node3</title>
<path fill="none" stroke="#9a32cd" stroke-dasharray="5,2" d="M96.46,-365.71C139.95,-360.06 215.53,-350.24 269.24,-343.27"/>
<polygon fill="#9a32cd" stroke="#9a32cd" points="95.86,-362.26 86.39,-367.02 96.76,-369.2 95.86,-362.26"/>
<text text-anchor="middle" x="185.5" y="-362.18" font-family="Helvetica,sans-Serif" font-size="10.00"> ReferenceCounter</text>
</g>
<!-- Node6 -->
<g id="node6" class="node">
<title>Node6</title>
<g id="a_node6"><a xlink:href="classirr_1_1core_1_1array.html" target="_top" xlink:title=" ">
<polygon fill="white" stroke="black" points="599,-226.18 599,-256.18 713,-256.18 713,-226.18 599,-226.18"/>
<text text-anchor="start" x="607" y="-244.18" font-family="Helvetica,sans-Serif" font-size="10.00">irr::core::array&lt; irr</text>
<text text-anchor="middle" x="656" y="-233.18" font-family="Helvetica,sans-Serif" font-size="10.00">::io::IFileArchive * &gt;</text>
</a>
</g>
</g>
<!-- Node6&#45;&gt;Node1 -->
<g id="edge5" class="edge">
<title>Node6&#45;&gt;Node1</title>
<path fill="none" stroke="#9a32cd" stroke-dasharray="5,2" d="M709.26,-222.79C759.07,-205.26 832.12,-179.54 871.3,-165.76"/>
<polygon fill="#9a32cd" stroke="#9a32cd" points="707.89,-219.56 699.62,-226.18 710.21,-226.16 707.89,-219.56"/>
<text text-anchor="middle" x="783" y="-214.18" font-family="Helvetica,sans-Serif" font-size="10.00"> FileArchives</text>
</g>
<!-- Node7 -->
<g id="node7" class="node">
<title>Node7</title>
<g id="a_node7"><a xlink:title=" ">
<polygon fill="white" stroke="#bfbfbf" points="249,-240.68 249,-259.68 416,-259.68 416,-240.68 249,-240.68"/>
<text text-anchor="middle" x="332.5" y="-247.68" font-family="Helvetica,sans-Serif" font-size="10.00">vector&lt; irr::io::IFileArchive * &gt;</text>
</a>
</g>
</g>
<!-- Node7&#45;&gt;Node6 -->
<g id="edge6" class="edge">
<title>Node7&#45;&gt;Node6</title>
<path fill="none" stroke="#9a32cd" stroke-dasharray="5,2" d="M426.54,-247.58C482.27,-246.02 551.3,-244.09 598.8,-242.76"/>
<polygon fill="#9a32cd" stroke="#9a32cd" points="426.19,-244.09 416.29,-247.87 426.39,-251.08 426.19,-244.09"/>
<text text-anchor="middle" x="503.5" y="-250.18" font-family="Helvetica,sans-Serif" font-size="10.00"> m_data</text>
</g>
<!-- Node8 -->
<g id="node8" class="node">
<title>Node8</title>
<g id="a_node8"><a xlink:href="classbool.html" target="_top" xlink:title=" ">
<polygon fill="white" stroke="black" points="42,-182.68 42,-201.68 80,-201.68 80,-182.68 42,-182.68"/>
<text text-anchor="middle" x="61" y="-189.68" font-family="Helvetica,sans-Serif" font-size="10.00">bool</text>
</a>
</g>
</g>
<!-- Node8&#45;&gt;Node6 -->
<g id="edge7" class="edge">
<title>Node8&#45;&gt;Node6</title>
<path fill="none" stroke="#9a32cd" stroke-dasharray="5,2" d="M89.92,-196.79C100.74,-199.61 112.73,-204.09 122,-211.18 133.75,-220.17 128.08,-230.42 140,-239.18 180.48,-268.95 199.21,-262.46 249,-269.18 391.74,-288.47 430.53,-283.37 573,-262.18 582.74,-260.73 593,-258.61 602.84,-256.25"/>
<polygon fill="#9a32cd" stroke="#9a32cd" points="90.56,-193.35 80.04,-194.57 89.03,-200.18 90.56,-193.35"/>
<text text-anchor="middle" x="332.5" y="-284.18" font-family="Helvetica,sans-Serif" font-size="10.00"> is_sorted</text>
</g>
<!-- Node9 -->
<g id="node9" class="node">
<title>Node9</title>
<g id="a_node9"><a xlink:href="classirr_1_1core_1_1array.html" target="_top" xlink:title="Self reallocating template array (like stl vector) with additional features.">
<polygon fill="white" stroke="black" points="275.5,-202.68 275.5,-221.68 389.5,-221.68 389.5,-202.68 275.5,-202.68"/>
<text text-anchor="middle" x="332.5" y="-209.68" font-family="Helvetica,sans-Serif" font-size="10.00">irr::core::array&lt; T &gt;</text>
</a>
</g>
</g>
<!-- Node8&#45;&gt;Node9 -->
<g id="edge9" class="edge">
<title>Node8&#45;&gt;Node9</title>
<path fill="none" stroke="#9a32cd" stroke-dasharray="5,2" d="M90.01,-193.8C123.55,-195.78 181.4,-199.35 231,-203.18 245.41,-204.3 260.97,-205.63 275.44,-206.92"/>
<polygon fill="#9a32cd" stroke="#9a32cd" points="90.21,-190.3 80.02,-193.21 89.8,-197.29 90.21,-190.3"/>
<text text-anchor="middle" x="185.5" y="-206.18" font-family="Helvetica,sans-Serif" font-size="10.00"> is_sorted</text>
</g>
<!-- Node11 -->
<g id="node11" class="node">
<title>Node11</title>
<g id="a_node11"><a xlink:href="classirr_1_1core_1_1array.html" target="_top" xlink:title=" ">
<polygon fill="white" stroke="black" points="591,-141.18 591,-171.18 721,-171.18 721,-141.18 591,-141.18"/>
<text text-anchor="start" x="599" y="-159.18" font-family="Helvetica,sans-Serif" font-size="10.00">irr::core::array&lt; irr</text>
<text text-anchor="middle" x="656" y="-148.18" font-family="Helvetica,sans-Serif" font-size="10.00">::io::IArchiveLoader * &gt;</text>
</a>
</g>
</g>
<!-- Node8&#45;&gt;Node11 -->
<g id="edge13" class="edge">
<title>Node8&#45;&gt;Node11</title>
<path fill="none" stroke="#9a32cd" stroke-dasharray="5,2" d="M89.45,-180.59C125.35,-166.13 190.57,-142.18 249,-133.18 368.84,-114.73 510.62,-131.39 590.96,-144.35"/>
<polygon fill="#9a32cd" stroke="#9a32cd" points="88.06,-177.38 80.13,-184.4 90.71,-183.86 88.06,-177.38"/>
<text text-anchor="middle" x="332.5" y="-136.18" font-family="Helvetica,sans-Serif" font-size="10.00"> is_sorted</text>
</g>
<!-- Node9&#45;&gt;Node6 -->
<g id="edge8" class="edge">
<title>Node9&#45;&gt;Node6</title>
<path fill="none" stroke="orange" stroke-dasharray="5,2" d="M400.05,-215.01C448.19,-217.45 514.74,-221.63 573,-228.18 581.31,-229.12 590.06,-230.3 598.63,-231.56"/>
<polygon fill="orange" stroke="orange" points="399.92,-211.5 389.76,-214.5 399.58,-218.49 399.92,-211.5"/>
<text text-anchor="middle" x="503.5" y="-231.18" font-family="Helvetica,sans-Serif" font-size="10.00"> &lt; irr::io::IFileArchive * &gt;</text>
</g>
<!-- Node9&#45;&gt;Node11 -->
<g id="edge14" class="edge">
<title>Node9&#45;&gt;Node11</title>
<path fill="none" stroke="orange" stroke-dasharray="5,2" d="M398.58,-200.85C454.65,-191.08 535.14,-177.06 590.93,-167.34"/>
<polygon fill="orange" stroke="orange" points="397.65,-197.46 388.4,-202.62 398.85,-204.35 397.65,-197.46"/>
<text text-anchor="middle" x="503.5" y="-196.18" font-family="Helvetica,sans-Serif" font-size="10.00"> &lt; irr::io::IArchiveLoader * &gt;</text>
</g>
<!-- Node10 -->
<g id="node10" class="node">
<title>Node10</title>
<g id="a_node10"><a xlink:title=" ">
<polygon fill="white" stroke="#bfbfbf" points="23,-220.68 23,-239.68 99,-239.68 99,-220.68 23,-220.68"/>
<text text-anchor="middle" x="61" y="-227.68" font-family="Helvetica,sans-Serif" font-size="10.00">vector&lt; T &gt;</text>
</a>
</g>
</g>
<!-- Node10&#45;&gt;Node9 -->
<g id="edge10" class="edge">
<title>Node10&#45;&gt;Node9</title>
<path fill="none" stroke="#9a32cd" stroke-dasharray="5,2" d="M109.27,-227.03C155.64,-223.93 226.33,-219.21 275.49,-215.92"/>
<polygon fill="#9a32cd" stroke="#9a32cd" points="108.93,-223.54 99.19,-227.7 109.4,-230.52 108.93,-223.54"/>
<text text-anchor="middle" x="185.5" y="-227.18" font-family="Helvetica,sans-Serif" font-size="10.00"> m_data</text>
</g>
<!-- Node11&#45;&gt;Node1 -->
<g id="edge11" class="edge">
<title>Node11&#45;&gt;Node1</title>
<path fill="none" stroke="#9a32cd" stroke-dasharray="5,2" d="M731.23,-156.18C767.91,-156.18 811.33,-156.18 844.75,-156.18"/>
<polygon fill="#9a32cd" stroke="#9a32cd" points="731.08,-152.68 721.08,-156.18 731.08,-159.68 731.08,-152.68"/>
<text text-anchor="middle" x="783" y="-159.18" font-family="Helvetica,sans-Serif" font-size="10.00"> ArchiveLoader</text>
</g>
<!-- Node12 -->
<g id="node12" class="node">
<title>Node12</title>
<g id="a_node12"><a xlink:title=" ">
<polygon fill="white" stroke="#bfbfbf" points="267.5,-153.18 267.5,-183.18 397.5,-183.18 397.5,-153.18 267.5,-153.18"/>
<text text-anchor="start" x="275.5" y="-171.18" font-family="Helvetica,sans-Serif" font-size="10.00">vector&lt; irr::io::IArchive</text>
<text text-anchor="middle" x="332.5" y="-160.18" font-family="Helvetica,sans-Serif" font-size="10.00">Loader * &gt;</text>
</a>
</g>
</g>
<!-- Node12&#45;&gt;Node11 -->
<g id="edge12" class="edge">
<title>Node12&#45;&gt;Node11</title>
<path fill="none" stroke="#9a32cd" stroke-dasharray="5,2" d="M407.98,-159.15C416.74,-158.35 425.56,-157.66 434,-157.18 486.67,-154.19 546.52,-154.12 590.64,-154.7"/>
<polygon fill="#9a32cd" stroke="#9a32cd" points="407.37,-155.7 397.75,-160.14 408.04,-162.66 407.37,-155.7"/>
<text text-anchor="middle" x="503.5" y="-160.18" font-family="Helvetica,sans-Serif" font-size="10.00"> m_data</text>
</g>
<!-- Node13 -->
<g id="node13" class="node">
<title>Node13</title>
<g id="a_node13"><a xlink:href="classirr_1_1core_1_1string.html" target="_top" xlink:title=" ">
<polygon fill="white" stroke="black" points="608,-62.18 608,-92.18 704,-92.18 704,-62.18 608,-62.18"/>
<text text-anchor="start" x="616" y="-80.18" font-family="Helvetica,sans-Serif" font-size="10.00">irr::core::string&lt;</text>
<text text-anchor="middle" x="656" y="-69.18" font-family="Helvetica,sans-Serif" font-size="10.00"> fschar_t &gt;</text>
</a>
</g>
</g>
<!-- Node13&#45;&gt;Node1 -->
<g id="edge15" class="edge">
<title>Node13&#45;&gt;Node1</title>
<path fill="none" stroke="#9a32cd" stroke-dasharray="5,2" d="M712.79,-95.43C761.65,-111.42 830.71,-134.01 869.38,-146.66"/>
<polygon fill="#9a32cd" stroke="#9a32cd" points="713.59,-92.01 702.99,-92.23 711.41,-98.66 713.59,-92.01"/>
<text text-anchor="middle" x="783" y="-133.18" font-family="Helvetica,sans-Serif" font-size="10.00"> WorkingDirectory</text>
</g>
<!-- Node14 -->
<g id="node14" class="node">
<title>Node14</title>
<g id="a_node14"><a xlink:title=" ">
<polygon fill="white" stroke="#bfbfbf" points="264,-67.68 264,-86.68 401,-86.68 401,-67.68 264,-67.68"/>
<text text-anchor="middle" x="332.5" y="-74.68" font-family="Helvetica,sans-Serif" font-size="10.00">basic_string&lt; fschar_t &gt;</text>
</a>
</g>
</g>
<!-- Node14&#45;&gt;Node13 -->
<g id="edge16" class="edge">
<title>Node14&#45;&gt;Node13</title>
<path fill="none" stroke="#9a32cd" stroke-dasharray="5,2" d="M411.31,-77.18C472.57,-77.18 555.98,-77.18 607.62,-77.18"/>
<polygon fill="#9a32cd" stroke="#9a32cd" points="411.29,-73.68 401.29,-77.18 411.29,-80.68 411.29,-73.68"/>
<text text-anchor="middle" x="503.5" y="-80.18" font-family="Helvetica,sans-Serif" font-size="10.00"> str</text>
</g>
<!-- Node15 -->
<g id="node15" class="node">
<title>Node15</title>
<g id="a_node15"><a xlink:title=" ">
<polygon fill="white" stroke="#bfbfbf" points="0,-5.68 0,-24.68 122,-24.68 122,-5.68 0,-5.68"/>
<text text-anchor="middle" x="61" y="-12.68" font-family="Helvetica,sans-Serif" font-size="10.00">static const size_type</text>
</a>
</g>
</g>
<!-- Node15&#45;&gt;Node13 -->
<g id="edge17" class="edge">
<title>Node15&#45;&gt;Node13</title>
<path fill="none" stroke="#9a32cd" stroke-dasharray="5,2" d="M132.4,-6.9C233.23,2.28 423.1,9.58 573,-43.18 581.44,-46.15 582.83,-48.55 591,-52.18 598.63,-55.57 606.87,-58.98 614.82,-62.14"/>
<polygon fill="#9a32cd" stroke="#9a32cd" points="131.96,-3.43 122.34,-7.86 132.62,-10.4 131.96,-3.43"/>
<text text-anchor="middle" x="332.5" y="-12.18" font-family="Helvetica,sans-Serif" font-size="10.00"> npos</text>
</g>
<!-- Node16 -->
<g id="node16" class="node">
<title>Node16</title>
<g id="a_node16"><a xlink:href="classirr_1_1core_1_1string.html" target="_top" xlink:title="Very simple string class with some useful features.">
<polygon fill="white" stroke="black" points="274.5,-29.68 274.5,-48.68 390.5,-48.68 390.5,-29.68 274.5,-29.68"/>
<text text-anchor="middle" x="332.5" y="-36.68" font-family="Helvetica,sans-Serif" font-size="10.00">irr::core::string&lt; T &gt;</text>
</a>
</g>
</g>
<!-- Node15&#45;&gt;Node16 -->
<g id="edge20" class="edge">
<title>Node15&#45;&gt;Node16</title>
<path fill="none" stroke="#9a32cd" stroke-dasharray="5,2" d="M132.25,-21.44C176.47,-25.38 232.82,-30.4 274.31,-34.09"/>
<polygon fill="#9a32cd" stroke="#9a32cd" points="132.42,-17.94 122.15,-20.54 131.8,-24.91 132.42,-17.94"/>
<text text-anchor="middle" x="185.5" y="-33.18" font-family="Helvetica,sans-Serif" font-size="10.00"> npos</text>
</g>
<!-- Node16&#45;&gt;Node13 -->
<g id="edge18" class="edge">
<title>Node16&#45;&gt;Node13</title>
<path fill="none" stroke="orange" stroke-dasharray="5,2" d="M400.74,-44.1C448.84,-47.99 515.06,-54.12 573,-62.18 584.32,-63.76 596.47,-65.79 607.85,-67.85"/>
<polygon fill="orange" stroke="orange" points="401.01,-40.61 390.76,-43.3 400.45,-47.59 401.01,-40.61"/>
<text text-anchor="middle" x="503.5" y="-65.18" font-family="Helvetica,sans-Serif" font-size="10.00"> &lt; fschar_t &gt;</text>
</g>
<!-- Node17 -->
<g id="node17" class="node">
<title>Node17</title>
<g id="a_node17"><a xlink:title=" ">
<polygon fill="white" stroke="#bfbfbf" points="9,-57.68 9,-76.68 113,-76.68 113,-57.68 9,-57.68"/>
<text text-anchor="middle" x="61" y="-64.68" font-family="Helvetica,sans-Serif" font-size="10.00">basic_string&lt; T &gt;</text>
</a>
</g>
</g>
<!-- Node17&#45;&gt;Node16 -->
<g id="edge19" class="edge">
<title>Node17&#45;&gt;Node16</title>
<path fill="none" stroke="#9a32cd" stroke-dasharray="5,2" d="M123,-60.84C168.33,-56.14 229.74,-49.76 274.16,-45.14"/>
<polygon fill="#9a32cd" stroke="#9a32cd" points="122.59,-57.37 113.01,-61.88 123.32,-64.33 122.59,-57.37"/>
<text text-anchor="middle" x="185.5" y="-62.18" font-family="Helvetica,sans-Serif" font-size="10.00"> str</text>
</g>
<!-- Node18 -->
<g id="node18" class="node">
<title>Node18</title>
<g id="a_node18"><a xlink:title=" ">
<polygon fill="white" stroke="#bfbfbf" points="606.5,-23.68 606.5,-42.68 705.5,-42.68 705.5,-23.68 606.5,-23.68"/>
<text text-anchor="middle" x="656" y="-30.68" font-family="Helvetica,sans-Serif" font-size="10.00">EFileSystemType</text>
</a>
</g>
</g>
<!-- Node18&#45;&gt;Node1 -->
<g id="edge21" class="edge">
<title>Node18&#45;&gt;Node1</title>
<path fill="none" stroke="#9a32cd" stroke-dasharray="5,2" d="M712.95,-45.27C747.47,-54.3 791.75,-68.82 827,-90.18 853.01,-105.94 877.79,-132.17 890.21,-146.35"/>
<polygon fill="#9a32cd" stroke="#9a32cd" points="713.58,-41.82 703.03,-42.75 711.86,-48.61 713.58,-41.82"/>
<text text-anchor="middle" x="783" y="-93.18" font-family="Helvetica,sans-Serif" font-size="10.00"> FileSystemType</text>
</g>
</g>
</svg>
        <g id="navigator" transform="translate(0 0)" fill="#404254">
                <rect fill="#f2f5e9" fill-opacity="0.5" stroke="#606060" stroke-width=".5" x="0" y="0" width="60" height="60"/>
                <use id="zoomplus" xlink:href="#zoomPlus" x="17" y="9" onmousedown="handleZoom(evt,'in')"/>
                <use id="zoomminus" xlink:href="#zoomMin" x="42" y="9" onmousedown="handleZoom(evt,'out')"/>
                <use id="reset" xlink:href="#resetDef" x="30" y="36" onmousedown="handleReset()"/>
                <g id="arrowUp" xlink:href="#dirArrow" transform="translate(30 24)" onmousedown="handlePan(0,-1)">
                  <use xlink:href="#rim" fill="#404040">
                        <set attributeName="fill" to="#808080" begin="arrowUp.mouseover" end="arrowUp.mouseout"/>
                  </use>
                  <path fill="none" stroke="white" stroke-width="1.5" d="M0,-3.0v7 M-2.5,-0.5L0,-3.0L2.5,-0.5"/>
                </g>
                <g id="arrowRight" xlink:href="#dirArrow" transform="rotate(90) translate(36 -43)" onmousedown="handlePan(1,0)">
                  <use xlink:href="#rim" fill="#404040">
                        <set attributeName="fill" to="#808080" begin="arrowRight.mouseover" end="arrowRight.mouseout"/>
                  </use>
                  <path fill="none" stroke="white" stroke-width="1.5" d="M0,-3.0v7 M-2.5,-0.5L0,-3.0L2.5,-0.5"/>
                </g>
                <g id="arrowDown" xlink:href="#dirArrow" transform="rotate(180) translate(-30 -48)" onmousedown="handlePan(0,1)">
                  <use xlink:href="#rim" fill="#404040">
                        <set attributeName="fill" to="#808080" begin="arrowDown.mouseover" end="arrowDown.mouseout"/>
                  </use>
                  <path fill="none" stroke="white" stroke-width="1.5" d="M0,-3.0v7 M-2.5,-0.5L0,-3.0L2.5,-0.5"/>
                </g>
                <g id="arrowLeft" xlink:href="#dirArrow" transform="rotate(270) translate(-36 17)" onmousedown="handlePan(-1,0)">
                  <use xlink:href="#rim" fill="#404040">
                        <set attributeName="fill" to="#808080" begin="arrowLeft.mouseover" end="arrowLeft.mouseout"/>
                  </use>
                  <path fill="none" stroke="white" stroke-width="1.5" d="M0,-3.0v7 M-2.5,-0.5L0,-3.0L2.5,-0.5"/>
                </g>
        </g>
        <svg viewBox="0 0 15 15" width="100%" height="30px" preserveAspectRatio="xMaxYMin meet">
         <g id="arrow_out" transform="scale(0.3 0.3)">
          <a xlink:href="classirr_1_1io_1_1CFileSystem__coll__graph_org.svg" target="_base">
           <rect id="button" ry="5" rx="5" y="6" x="6" height="38" width="38"
                fill="#f2f5e9" fill-opacity="0.5" stroke="#606060" stroke-width="1.0"/>
           <path id="arrow"
             d="M 11.500037,31.436501 C 11.940474,20.09759 22.043105,11.32322 32.158766,21.979434 L 37.068811,17.246167 C 37.068811,17.246167 37.088388,32 37.088388,32 L 22.160133,31.978069 C 22.160133,31.978069 26.997745,27.140456 26.997745,27.140456 C 18.528582,18.264221 13.291696,25.230495 11.500037,31.436501 z"
             style="fill:#404040;"/>
          </a>
         </g>
        </svg>
</svg>
