<?xml version="1.0" encoding="UTF-8" standalone="no"?>
<!DOCTYPE svg PUBLIC "-//W3C//DTD SVG 1.1//EN"
 "http://www.w3.org/Graphics/SVG/1.1/DTD/svg11.dtd">
<!-- Generated by graphviz version 2.43.0 (0)
 -->
<!-- Title: SerializationError Pages: 1 -->
<svg width="136pt" height="152pt"
 viewBox="0.00 0.00 135.50 152.00" xmlns="http://www.w3.org/2000/svg" xmlns:xlink="http://www.w3.org/1999/xlink">
<g id="graph0" class="graph" transform="scale(1 1) rotate(0) translate(4 148)">
<title>SerializationError</title>
<polygon fill="white" stroke="transparent" points="-4,4 -4,-148 131.5,-148 131.5,4 -4,4"/>
<!-- Node1 -->
<g id="node1" class="node">
<title>Node1</title>
<g id="a_node1"><a xlink:title=" ">
<polygon fill="#bfbfbf" stroke="black" points="18,-0.5 18,-19.5 119,-19.5 119,-0.5 18,-0.5"/>
<text text-anchor="middle" x="68.5" y="-7.5" font-family="Helvetica,sans-Serif" font-size="10.00">SerializationError</text>
</a>
</g>
</g>
<!-- Node2 -->
<g id="node2" class="node">
<title>Node2</title>
<g id="a_node2"><a xlink:href="classBaseException.html" target="_top" xlink:title=" ">
<polygon fill="white" stroke="black" points="24,-57.5 24,-76.5 113,-76.5 113,-57.5 24,-57.5"/>
<text text-anchor="middle" x="68.5" y="-64.5" font-family="Helvetica,sans-Serif" font-size="10.00">BaseException</text>
</a>
</g>
</g>
<!-- Node2&#45;&gt;Node1 -->
<g id="edge1" class="edge">
<title>Node2&#45;&gt;Node1</title>
<path fill="none" stroke="midnightblue" d="M68.5,-47.12C68.5,-37.82 68.5,-27.06 68.5,-19.71"/>
<polygon fill="midnightblue" stroke="midnightblue" points="65,-47.41 68.5,-57.41 72,-47.41 65,-47.41"/>
</g>
<!-- Node3 -->
<g id="node3" class="node">
<title>Node3</title>
<g id="a_node3"><a xlink:title=" ">
<polygon fill="white" stroke="#bfbfbf" points="0,-124.5 0,-143.5 65,-143.5 65,-124.5 0,-124.5"/>
<text text-anchor="middle" x="32.5" y="-131.5" font-family="Helvetica,sans-Serif" font-size="10.00">exception</text>
</a>
</g>
</g>
<!-- Node3&#45;&gt;Node2 -->
<g id="edge2" class="edge">
<title>Node3&#45;&gt;Node2</title>
<path fill="none" stroke="midnightblue" d="M42.38,-115.16C49.32,-102.63 58.3,-86.41 63.72,-76.63"/>
<polygon fill="midnightblue" stroke="midnightblue" points="39.14,-113.79 37.36,-124.23 45.26,-117.18 39.14,-113.79"/>
</g>
<!-- Node4 -->
<g id="node4" class="node">
<title>Node4</title>
<g id="a_node4"><a xlink:title=" ">
<polygon fill="white" stroke="#bfbfbf" points="83.5,-124.5 83.5,-143.5 127.5,-143.5 127.5,-124.5 83.5,-124.5"/>
<text text-anchor="middle" x="105.5" y="-131.5" font-family="Helvetica,sans-Serif" font-size="10.00">string</text>
</a>
</g>
</g>
<!-- Node4&#45;&gt;Node2 -->
<g id="edge3" class="edge">
<title>Node4&#45;&gt;Node2</title>
<path fill="none" stroke="#9a32cd" stroke-dasharray="5,2" d="M95.56,-115.53C88.39,-102.95 79.03,-86.51 73.41,-76.63"/>
<polygon fill="#9a32cd" stroke="#9a32cd" points="92.52,-117.27 100.51,-124.23 98.6,-113.81 92.52,-117.27"/>
<text text-anchor="middle" x="100.5" y="-98" font-family="Helvetica,sans-Serif" font-size="10.00"> m_s</text>
</g>
</g>
</svg>
