<?xml version="1.0" encoding="UTF-8" standalone="no"?>
<!DOCTYPE svg PUBLIC "-//W3C//DTD SVG 1.1//EN"
 "http://www.w3.org/Graphics/SVG/1.1/DTD/svg11.dtd">
<!-- Generated by graphviz version 2.43.0 (0)
 -->
<!-- Title: irr::scene::IAnimationEndCallBack Pages: 1 -->
<svg width="197pt" height="163pt"
 viewBox="0.00 0.00 196.50 163.00" xmlns="http://www.w3.org/2000/svg" xmlns:xlink="http://www.w3.org/1999/xlink">
<g id="graph0" class="graph" transform="scale(1 1) rotate(0) translate(4 159)">
<title>irr::scene::IAnimationEndCallBack</title>
<polygon fill="white" stroke="transparent" points="-4,4 -4,-159 192.5,-159 192.5,4 -4,4"/>
<!-- Node1 -->
<g id="node1" class="node">
<title>Node1</title>
<g id="a_node1"><a xlink:title="Callback interface for catching events of ended animations.">
<polygon fill="#bfbfbf" stroke="black" points="0,-0.5 0,-30.5 139,-30.5 139,-0.5 0,-0.5"/>
<text text-anchor="start" x="8" y="-18.5" font-family="Helvetica,sans-Serif" font-size="10.00">irr::scene::IAnimationEnd</text>
<text text-anchor="middle" x="69.5" y="-7.5" font-family="Helvetica,sans-Serif" font-size="10.00">CallBack</text>
</a>
</g>
</g>
<!-- Node2 -->
<g id="node2" class="node">
<title>Node2</title>
<g id="a_node2"><a xlink:href="classirr_1_1IReferenceCounted.html" target="_top" xlink:title="Base class of most objects of the Irrlicht Engine.">
<polygon fill="white" stroke="black" points="6.5,-68.5 6.5,-87.5 132.5,-87.5 132.5,-68.5 6.5,-68.5"/>
<text text-anchor="middle" x="69.5" y="-75.5" font-family="Helvetica,sans-Serif" font-size="10.00">irr::IReferenceCounted</text>
</a>
</g>
</g>
<!-- Node2&#45;&gt;Node1 -->
<g id="edge1" class="edge">
<title>Node2&#45;&gt;Node1</title>
<path fill="none" stroke="midnightblue" d="M69.5,-58.22C69.5,-49.36 69.5,-38.96 69.5,-30.76"/>
<polygon fill="midnightblue" stroke="midnightblue" points="66,-58.33 69.5,-68.33 73,-58.33 66,-58.33"/>
</g>
<!-- Node3 -->
<g id="node3" class="node">
<title>Node3</title>
<g id="a_node3"><a xlink:title=" ">
<polygon fill="white" stroke="#bfbfbf" points="7.5,-135.5 7.5,-154.5 45.5,-154.5 45.5,-135.5 7.5,-135.5"/>
<text text-anchor="middle" x="26.5" y="-142.5" font-family="Helvetica,sans-Serif" font-size="10.00">char</text>
</a>
</g>
</g>
<!-- Node3&#45;&gt;Node2 -->
<g id="edge2" class="edge">
<title>Node3&#45;&gt;Node2</title>
<path fill="none" stroke="#9a32cd" stroke-dasharray="5,2" d="M23.55,-125.26C23.4,-118.8 24.26,-111.75 27.5,-106 32.01,-97.99 39.98,-91.99 47.78,-87.7"/>
<polygon fill="#9a32cd" stroke="#9a32cd" points="20.07,-125.63 24.53,-135.24 27.04,-124.95 20.07,-125.63"/>
<text text-anchor="middle" x="59.5" y="-109" font-family="Helvetica,sans-Serif" font-size="10.00"> DebugName</text>
</g>
<!-- Node4 -->
<g id="node4" class="node">
<title>Node4</title>
<g id="a_node4"><a xlink:title=" ">
<polygon fill="white" stroke="#bfbfbf" points="88.5,-135.5 88.5,-154.5 138.5,-154.5 138.5,-135.5 88.5,-135.5"/>
<text text-anchor="middle" x="113.5" y="-142.5" font-family="Helvetica,sans-Serif" font-size="10.00">int32_t</text>
</a>
</g>
</g>
<!-- Node4&#45;&gt;Node2 -->
<g id="edge3" class="edge">
<title>Node4&#45;&gt;Node2</title>
<path fill="none" stroke="#9a32cd" stroke-dasharray="5,2" d="M104.15,-126.52C100.43,-119.94 95.98,-112.49 91.5,-106 87.1,-99.63 81.6,-92.88 77.2,-87.72"/>
<polygon fill="#9a32cd" stroke="#9a32cd" points="101.1,-128.23 108.98,-135.31 107.23,-124.86 101.1,-128.23"/>
<text text-anchor="middle" x="143" y="-109" font-family="Helvetica,sans-Serif" font-size="10.00"> ReferenceCounter</text>
</g>
</g>
</svg>
