<?xml version="1.0" encoding="UTF-8" standalone="no"?>
<!DOCTYPE svg PUBLIC "-//W3C//DTD SVG 1.1//EN"
 "http://www.w3.org/Graphics/SVG/1.1/DTD/svg11.dtd">
<!-- Generated by graphviz version 2.43.0 (0)
 -->
<!-- Title: ModChannelRef Pages: 1 -->
<svg width="377pt" height="162pt"
 viewBox="0.00 0.00 376.50 162.00" xmlns="http://www.w3.org/2000/svg" xmlns:xlink="http://www.w3.org/1999/xlink">
<g id="graph0" class="graph" transform="scale(1 1) rotate(0) translate(4 158)">
<title>ModChannelRef</title>
<polygon fill="white" stroke="transparent" points="-4,4 -4,-158 372.5,-158 372.5,4 -4,4"/>
<!-- Node1 -->
<g id="node1" class="node">
<title>Node1</title>
<g id="a_node1"><a xlink:title=" ">
<polygon fill="#bfbfbf" stroke="black" points="101.5,-0.5 101.5,-19.5 195.5,-19.5 195.5,-0.5 101.5,-0.5"/>
<text text-anchor="middle" x="148.5" y="-7.5" font-family="Helvetica,sans-Serif" font-size="10.00">ModChannelRef</text>
</a>
</g>
</g>
<!-- Node2 -->
<g id="node2" class="node">
<title>Node2</title>
<g id="a_node2"><a xlink:href="classModApiBase.html" target="_top" xlink:title=" ">
<polygon fill="white" stroke="black" points="0,-67.5 0,-86.5 77,-86.5 77,-67.5 0,-67.5"/>
<text text-anchor="middle" x="38.5" y="-74.5" font-family="Helvetica,sans-Serif" font-size="10.00">ModApiBase</text>
</a>
</g>
</g>
<!-- Node2&#45;&gt;Node1 -->
<g id="edge1" class="edge">
<title>Node2&#45;&gt;Node1</title>
<path fill="none" stroke="midnightblue" d="M60.49,-61.91C72.01,-54.62 86.42,-45.67 99.5,-38 110.39,-31.61 122.86,-24.75 132.49,-19.54"/>
<polygon fill="midnightblue" stroke="midnightblue" points="58.5,-59.02 51.94,-67.34 62.26,-64.93 58.5,-59.02"/>
</g>
<!-- Node3 -->
<g id="node3" class="node">
<title>Node3</title>
<g id="a_node3"><a xlink:href="classLuaHelper.html" target="_top" xlink:title=" ">
<polygon fill="white" stroke="black" points="5.5,-134.5 5.5,-153.5 71.5,-153.5 71.5,-134.5 5.5,-134.5"/>
<text text-anchor="middle" x="38.5" y="-141.5" font-family="Helvetica,sans-Serif" font-size="10.00">LuaHelper</text>
</a>
</g>
</g>
<!-- Node3&#45;&gt;Node2 -->
<g id="edge2" class="edge">
<title>Node3&#45;&gt;Node2</title>
<path fill="none" stroke="darkgreen" d="M38.5,-124.04C38.5,-111.67 38.5,-96.12 38.5,-86.63"/>
<polygon fill="darkgreen" stroke="darkgreen" points="35,-124.23 38.5,-134.23 42,-124.23 35,-124.23"/>
</g>
<!-- Node4 -->
<g id="node4" class="node">
<title>Node4</title>
<g id="a_node4"><a xlink:href="structluaL__Reg.html" target="_top" xlink:title=" ">
<polygon fill="white" stroke="black" points="190,-67.5 190,-86.5 251,-86.5 251,-67.5 190,-67.5"/>
<text text-anchor="middle" x="220.5" y="-74.5" font-family="Helvetica,sans-Serif" font-size="10.00">luaL_Reg</text>
</a>
</g>
</g>
<!-- Node4&#45;&gt;Node1 -->
<g id="edge3" class="edge">
<title>Node4&#45;&gt;Node1</title>
<path fill="none" stroke="#9a32cd" stroke-dasharray="5,2" d="M203.17,-60.36C189.02,-47.58 169.54,-29.99 158.06,-19.63"/>
<polygon fill="#9a32cd" stroke="#9a32cd" points="201.02,-63.13 210.79,-67.23 205.71,-57.93 201.02,-63.13"/>
<text text-anchor="middle" x="211.5" y="-41" font-family="Helvetica,sans-Serif" font-size="10.00"> methods</text>
</g>
<!-- Node5 -->
<g id="node5" class="node">
<title>Node5</title>
<g id="a_node5"><a xlink:title=" ">
<polygon fill="white" stroke="#bfbfbf" points="116.5,-134.5 116.5,-153.5 154.5,-153.5 154.5,-134.5 116.5,-134.5"/>
<text text-anchor="middle" x="135.5" y="-141.5" font-family="Helvetica,sans-Serif" font-size="10.00">char</text>
</a>
</g>
</g>
<!-- Node5&#45;&gt;Node1 -->
<g id="edge6" class="edge">
<title>Node5&#45;&gt;Node1</title>
<path fill="none" stroke="#9a32cd" stroke-dasharray="5,2" d="M128.7,-124.18C124.04,-108.73 119.38,-86.34 123.5,-67 127.27,-49.3 137.06,-30.41 143.21,-19.72"/>
<polygon fill="#9a32cd" stroke="#9a32cd" points="125.5,-125.66 131.97,-134.05 132.15,-123.46 125.5,-125.66"/>
<text text-anchor="middle" x="152.5" y="-74.5" font-family="Helvetica,sans-Serif" font-size="10.00"> className</text>
</g>
<!-- Node5&#45;&gt;Node4 -->
<g id="edge4" class="edge">
<title>Node5&#45;&gt;Node4</title>
<path fill="none" stroke="#9a32cd" stroke-dasharray="5,2" d="M155.03,-128.07C171.8,-115.24 195.41,-97.19 209.22,-86.63"/>
<polygon fill="#9a32cd" stroke="#9a32cd" points="152.78,-125.38 146.96,-134.23 157.03,-130.94 152.78,-125.38"/>
<text text-anchor="middle" x="198" y="-108" font-family="Helvetica,sans-Serif" font-size="10.00"> name</text>
</g>
<!-- Node6 -->
<g id="node6" class="node">
<title>Node6</title>
<g id="a_node6"><a xlink:title=" ">
<polygon fill="white" stroke="#bfbfbf" points="206,-134.5 206,-153.5 235,-153.5 235,-134.5 206,-134.5"/>
<text text-anchor="middle" x="220.5" y="-141.5" font-family="Helvetica,sans-Serif" font-size="10.00">int</text>
</a>
</g>
</g>
<!-- Node6&#45;&gt;Node4 -->
<g id="edge5" class="edge">
<title>Node6&#45;&gt;Node4</title>
<path fill="none" stroke="#9a32cd" stroke-dasharray="5,2" d="M220.5,-124.04C220.5,-111.67 220.5,-96.12 220.5,-86.63"/>
<polygon fill="#9a32cd" stroke="#9a32cd" points="217,-124.23 220.5,-134.23 224,-124.23 217,-124.23"/>
<text text-anchor="middle" x="233" y="-108" font-family="Helvetica,sans-Serif" font-size="10.00"> func</text>
</g>
<!-- Node7 -->
<g id="node7" class="node">
<title>Node7</title>
<g id="a_node7"><a xlink:title=" ">
<polygon fill="white" stroke="#bfbfbf" points="269.5,-67.5 269.5,-86.5 313.5,-86.5 313.5,-67.5 269.5,-67.5"/>
<text text-anchor="middle" x="291.5" y="-74.5" font-family="Helvetica,sans-Serif" font-size="10.00">string</text>
</a>
</g>
</g>
<!-- Node7&#45;&gt;Node1 -->
<g id="edge7" class="edge">
<title>Node7&#45;&gt;Node1</title>
<path fill="none" stroke="#9a32cd" stroke-dasharray="5,2" d="M273.75,-61C263.88,-53.26 251.07,-44.18 238.5,-38 222.4,-30.09 203.51,-23.99 187.21,-19.61"/>
<polygon fill="#9a32cd" stroke="#9a32cd" points="271.61,-63.78 281.59,-67.35 276.02,-58.34 271.61,-63.78"/>
<text text-anchor="middle" x="312.5" y="-41" font-family="Helvetica,sans-Serif" font-size="10.00"> m_modchannel_name</text>
</g>
</g>
</svg>
