<?xml version="1.0" encoding="UTF-8" standalone="no"?>
<!DOCTYPE svg PUBLIC "-//W3C//DTD SVG 1.1//EN"
 "http://www.w3.org/Graphics/SVG/1.1/DTD/svg11.dtd">
<!-- Generated by graphviz version 2.43.0 (0)
 -->
<!-- Title: RenderSource Pages: 1 -->
<svg width="325pt" height="140pt"
 viewBox="0.00 0.00 324.50 140.00" xmlns="http://www.w3.org/2000/svg" xmlns:xlink="http://www.w3.org/1999/xlink">
<g id="graph0" class="graph" transform="scale(1 1) rotate(0) translate(4 136)">
<title>RenderSource</title>
<polygon fill="white" stroke="transparent" points="-4,4 -4,-136 320.5,-136 320.5,4 -4,4"/>
<!-- Node1 -->
<g id="node1" class="node">
<title>Node1</title>
<g id="a_node1"><a xlink:title=" ">
<polygon fill="#bfbfbf" stroke="black" points="121.5,-56.5 121.5,-75.5 205.5,-75.5 205.5,-56.5 121.5,-56.5"/>
<text text-anchor="middle" x="163.5" y="-63.5" font-family="Helvetica,sans-Serif" font-size="10.00">RenderSource</text>
</a>
</g>
</g>
<!-- Node3 -->
<g id="node3" class="node">
<title>Node3</title>
<g id="a_node3"><a xlink:href="classDynamicSource.html" target="_top" xlink:title=" ">
<polygon fill="white" stroke="black" points="0,-0.5 0,-19.5 93,-19.5 93,-0.5 0,-0.5"/>
<text text-anchor="middle" x="46.5" y="-7.5" font-family="Helvetica,sans-Serif" font-size="10.00">DynamicSource</text>
</a>
</g>
</g>
<!-- Node1&#45;&gt;Node3 -->
<g id="edge2" class="edge">
<title>Node1&#45;&gt;Node3</title>
<path fill="none" stroke="midnightblue" d="M135.84,-52.23C113.95,-42.13 84,-28.31 64.95,-19.52"/>
<polygon fill="midnightblue" stroke="midnightblue" points="134.41,-55.43 144.96,-56.44 137.35,-49.08 134.41,-55.43"/>
</g>
<!-- Node4 -->
<g id="node4" class="node">
<title>Node4</title>
<g id="a_node4"><a xlink:href="classRemappingSource.html" target="_top" xlink:title=" ">
<polygon fill="white" stroke="black" points="111,-0.5 111,-19.5 216,-19.5 216,-0.5 111,-0.5"/>
<text text-anchor="middle" x="163.5" y="-7.5" font-family="Helvetica,sans-Serif" font-size="10.00">RemappingSource</text>
</a>
</g>
</g>
<!-- Node1&#45;&gt;Node4 -->
<g id="edge3" class="edge">
<title>Node1&#45;&gt;Node4</title>
<path fill="none" stroke="#8b1a1a" d="M163.5,-45.8C163.5,-36.91 163.5,-26.78 163.5,-19.75"/>
<polygon fill="#8b1a1a" stroke="#8b1a1a" points="160,-46.08 163.5,-56.08 167,-46.08 160,-46.08"/>
</g>
<!-- Node5 -->
<g id="node5" class="node">
<title>Node5</title>
<g id="a_node5"><a xlink:href="classTextureBuffer.html" target="_top" xlink:title=" ">
<polygon fill="white" stroke="black" points="234.5,-0.5 234.5,-19.5 316.5,-19.5 316.5,-0.5 234.5,-0.5"/>
<text text-anchor="middle" x="275.5" y="-7.5" font-family="Helvetica,sans-Serif" font-size="10.00">TextureBuffer</text>
</a>
</g>
</g>
<!-- Node1&#45;&gt;Node5 -->
<g id="edge4" class="edge">
<title>Node1&#45;&gt;Node5</title>
<path fill="none" stroke="midnightblue" d="M190.75,-51.86C211.52,-41.85 239.52,-28.35 257.55,-19.65"/>
<polygon fill="midnightblue" stroke="midnightblue" points="188.98,-48.83 181.49,-56.32 192.02,-55.13 188.98,-48.83"/>
</g>
<!-- Node2 -->
<g id="node2" class="node">
<title>Node2</title>
<g id="a_node2"><a xlink:href="classRenderPipelineObject.html" target="_top" xlink:title=" ">
<polygon fill="white" stroke="black" points="102.5,-112.5 102.5,-131.5 224.5,-131.5 224.5,-112.5 102.5,-112.5"/>
<text text-anchor="middle" x="163.5" y="-119.5" font-family="Helvetica,sans-Serif" font-size="10.00">RenderPipelineObject</text>
</a>
</g>
</g>
<!-- Node2&#45;&gt;Node1 -->
<g id="edge1" class="edge">
<title>Node2&#45;&gt;Node1</title>
<path fill="none" stroke="midnightblue" d="M163.5,-101.8C163.5,-92.91 163.5,-82.78 163.5,-75.75"/>
<polygon fill="midnightblue" stroke="midnightblue" points="160,-102.08 163.5,-112.08 167,-102.08 160,-102.08"/>
</g>
</g>
</svg>
