<?xml version="1.0" encoding="UTF-8" standalone="no"?>
<!DOCTYPE svg PUBLIC "-//W3C//DTD SVG 1.1//EN"
 "http://www.w3.org/Graphics/SVG/1.1/DTD/svg11.dtd">
<!-- Generated by graphviz version 2.43.0 (0)
 -->
<!-- Title: EnrichedString Pages: 1 -->
<svg width="531pt" height="173pt"
 viewBox="0.00 0.00 530.50 173.00" xmlns="http://www.w3.org/2000/svg" xmlns:xlink="http://www.w3.org/1999/xlink">
<g id="graph0" class="graph" transform="scale(1 1) rotate(0) translate(4 169)">
<title>EnrichedString</title>
<polygon fill="white" stroke="transparent" points="-4,4 -4,-169 526.5,-169 526.5,4 -4,4"/>
<!-- Node1 -->
<g id="node1" class="node">
<title>Node1</title>
<g id="a_node1"><a xlink:title=" ">
<polygon fill="#bfbfbf" stroke="black" points="219.5,-0.5 219.5,-19.5 306.5,-19.5 306.5,-0.5 219.5,-0.5"/>
<text text-anchor="middle" x="263" y="-7.5" font-family="Helvetica,sans-Serif" font-size="10.00">EnrichedString</text>
</a>
</g>
</g>
<!-- Node2 -->
<g id="node2" class="node">
<title>Node2</title>
<g id="a_node2"><a xlink:href="classirr_1_1video_1_1SColor.html" target="_top" xlink:title="Class representing a 32 bit ARGB color.">
<polygon fill="white" stroke="black" points="0,-78.5 0,-97.5 98,-97.5 98,-78.5 0,-78.5"/>
<text text-anchor="middle" x="49" y="-85.5" font-family="Helvetica,sans-Serif" font-size="10.00">irr::video::SColor</text>
</a>
</g>
</g>
<!-- Node2&#45;&gt;Node1 -->
<g id="edge1" class="edge">
<title>Node2&#45;&gt;Node1</title>
<path fill="none" stroke="#9a32cd" stroke-dasharray="5,2" d="M53.44,-68.46C56.96,-57.86 63,-45.27 73,-38 95.64,-21.55 170.39,-15.06 219.11,-12.55"/>
<polygon fill="#9a32cd" stroke="#9a32cd" points="50.06,-67.55 50.71,-78.12 56.79,-69.45 50.06,-67.55"/>
<text text-anchor="middle" x="112.5" y="-52" font-family="Helvetica,sans-Serif" font-size="10.00"> m_background</text>
<text text-anchor="middle" x="112.5" y="-41" font-family="Helvetica,sans-Serif" font-size="10.00">m_default_color</text>
</g>
<!-- Node3 -->
<g id="node3" class="node">
<title>Node3</title>
<g id="a_node3"><a xlink:title=" ">
<polygon fill="white" stroke="#bfbfbf" points="21,-145.5 21,-164.5 77,-164.5 77,-145.5 21,-145.5"/>
<text text-anchor="middle" x="49" y="-152.5" font-family="Helvetica,sans-Serif" font-size="10.00">uint32_t</text>
</a>
</g>
</g>
<!-- Node3&#45;&gt;Node2 -->
<g id="edge2" class="edge">
<title>Node3&#45;&gt;Node2</title>
<path fill="none" stroke="#9a32cd" stroke-dasharray="5,2" d="M49,-135.04C49,-122.67 49,-107.12 49,-97.63"/>
<polygon fill="#9a32cd" stroke="#9a32cd" points="45.5,-135.23 49,-145.23 52.5,-135.23 45.5,-135.23"/>
<text text-anchor="middle" x="63" y="-119" font-family="Helvetica,sans-Serif" font-size="10.00"> color</text>
</g>
<!-- Node4 -->
<g id="node4" class="node">
<title>Node4</title>
<g id="a_node4"><a xlink:title=" ">
<polygon fill="white" stroke="#bfbfbf" points="128.5,-78.5 128.5,-97.5 173.5,-97.5 173.5,-78.5 128.5,-78.5"/>
<text text-anchor="middle" x="151" y="-85.5" font-family="Helvetica,sans-Serif" font-size="10.00">size_t</text>
</a>
</g>
</g>
<!-- Node4&#45;&gt;Node1 -->
<g id="edge3" class="edge">
<title>Node4&#45;&gt;Node1</title>
<path fill="none" stroke="#9a32cd" stroke-dasharray="5,2" d="M154.06,-68.36C156.66,-58.1 161.4,-45.88 170,-38 183.39,-25.73 202.03,-19.01 219.11,-15.34"/>
<polygon fill="#9a32cd" stroke="#9a32cd" points="150.57,-67.94 152,-78.44 157.43,-69.34 150.57,-67.94"/>
<text text-anchor="middle" x="214.5" y="-46.5" font-family="Helvetica,sans-Serif" font-size="10.00"> m_default_length</text>
</g>
<!-- Node5 -->
<g id="node5" class="node">
<title>Node5</title>
<g id="a_node5"><a xlink:href="classbool.html" target="_top" xlink:title=" ">
<polygon fill="white" stroke="black" points="244,-78.5 244,-97.5 282,-97.5 282,-78.5 244,-78.5"/>
<text text-anchor="middle" x="263" y="-85.5" font-family="Helvetica,sans-Serif" font-size="10.00">bool</text>
</a>
</g>
</g>
<!-- Node5&#45;&gt;Node1 -->
<g id="edge4" class="edge">
<title>Node5&#45;&gt;Node1</title>
<path fill="none" stroke="#9a32cd" stroke-dasharray="5,2" d="M263,-68.22C263,-52.7 263,-31.36 263,-19.62"/>
<polygon fill="#9a32cd" stroke="#9a32cd" points="259.5,-68.28 263,-78.28 266.5,-68.28 259.5,-68.28"/>
<text text-anchor="middle" x="312" y="-46.5" font-family="Helvetica,sans-Serif" font-size="10.00"> m_has_background</text>
</g>
<!-- Node6 -->
<g id="node6" class="node">
<title>Node6</title>
<g id="a_node6"><a xlink:title=" ">
<polygon fill="white" stroke="#bfbfbf" points="317,-78.5 317,-97.5 451,-97.5 451,-78.5 317,-78.5"/>
<text text-anchor="middle" x="384" y="-85.5" font-family="Helvetica,sans-Serif" font-size="10.00">vector&lt; video::SColor &gt;</text>
</a>
</g>
</g>
<!-- Node6&#45;&gt;Node1 -->
<g id="edge5" class="edge">
<title>Node6&#45;&gt;Node1</title>
<path fill="none" stroke="#9a32cd" stroke-dasharray="5,2" d="M379.89,-68.59C376.67,-58.23 371.15,-45.83 362,-38 346.7,-24.92 325.62,-18.12 306.84,-14.61"/>
<polygon fill="#9a32cd" stroke="#9a32cd" points="376.54,-69.61 382.47,-78.38 383.31,-67.82 376.54,-69.61"/>
<text text-anchor="middle" x="400" y="-46.5" font-family="Helvetica,sans-Serif" font-size="10.00"> m_colors</text>
</g>
<!-- Node7 -->
<g id="node7" class="node">
<title>Node7</title>
<g id="a_node7"><a xlink:title=" ">
<polygon fill="white" stroke="#bfbfbf" points="469.5,-78.5 469.5,-97.5 522.5,-97.5 522.5,-78.5 469.5,-78.5"/>
<text text-anchor="middle" x="496" y="-85.5" font-family="Helvetica,sans-Serif" font-size="10.00">wstring</text>
</a>
</g>
</g>
<!-- Node7&#45;&gt;Node1 -->
<g id="edge6" class="edge">
<title>Node7&#45;&gt;Node1</title>
<path fill="none" stroke="#9a32cd" stroke-dasharray="5,2" d="M479.11,-71.39C466.11,-60.28 447.18,-45.96 428,-38 388.86,-21.76 340.69,-15.26 306.53,-12.68"/>
<polygon fill="#9a32cd" stroke="#9a32cd" points="476.93,-74.13 486.74,-78.13 481.56,-68.88 476.93,-74.13"/>
<text text-anchor="middle" x="486" y="-46.5" font-family="Helvetica,sans-Serif" font-size="10.00"> m_string</text>
</g>
</g>
</svg>
