<?xml version="1.0" encoding="UTF-8" standalone="no"?>
<!DOCTYPE svg PUBLIC "-//W3C//DTD SVG 1.1//EN"
 "http://www.w3.org/Graphics/SVG/1.1/DTD/svg11.dtd">
<!-- Generated by graphviz version 2.43.0 (0)
 -->
<!-- Title: irr::core::ustring16::findLast Pages: 1 -->
<svg width="620pt" height="167pt"
 viewBox="0.00 0.00 620.00 166.50" xmlns="http://www.w3.org/2000/svg" xmlns:xlink="http://www.w3.org/1999/xlink">
<g id="graph0" class="graph" transform="scale(1 1) rotate(0) translate(4 162.5)">
<title>irr::core::ustring16::findLast</title>
<polygon fill="white" stroke="transparent" points="-4,4 -4,-162.5 616,-162.5 616,4 -4,4"/>
<!-- Node1 -->
<g id="node1" class="node">
<title>Node1</title>
<g id="a_node1"><a xlink:title=" ">
<polygon fill="#bfbfbf" stroke="black" points="0,-73.5 0,-103.5 106,-103.5 106,-73.5 0,-73.5"/>
<text text-anchor="start" x="8" y="-91.5" font-family="Helvetica,sans-Serif" font-size="10.00">irr::core::ustring16</text>
<text text-anchor="middle" x="53" y="-80.5" font-family="Helvetica,sans-Serif" font-size="10.00">::findLast</text>
</a>
</g>
</g>
<!-- Node2 -->
<g id="node2" class="node">
<title>Node2</title>
<g id="a_node2"><a xlink:href="classirr_1_1core_1_1ustring16_1_1__ustring16__const__iterator.html#a91bdec2f90455a703b8a20677bb3e5c8" target="_top" xlink:title="Is the iterator at the start of the string?">
<polygon fill="white" stroke="black" points="142,-117 142,-158 288,-158 288,-117 142,-117"/>
<text text-anchor="start" x="150" y="-146" font-family="Helvetica,sans-Serif" font-size="10.00">irr::core::ustring16</text>
<text text-anchor="start" x="150" y="-135" font-family="Helvetica,sans-Serif" font-size="10.00">::_ustring16_const_iterator</text>
<text text-anchor="middle" x="215" y="-124" font-family="Helvetica,sans-Serif" font-size="10.00">::atStart</text>
</a>
</g>
</g>
<!-- Node1&#45;&gt;Node2 -->
<g id="edge1" class="edge">
<title>Node1&#45;&gt;Node2</title>
<path fill="none" stroke="midnightblue" d="M103.31,-103.6C114.07,-106.9 125.7,-110.46 137.25,-113.99"/>
<polygon fill="midnightblue" stroke="midnightblue" points="136.31,-117.37 146.9,-116.95 138.36,-110.68 136.31,-117.37"/>
</g>
<!-- Node3 -->
<g id="node3" class="node">
<title>Node3</title>
<g id="a_node3"><a xlink:href="namespaceirr_1_1core.html#a6162f685b68f629e77336081d3316969" target="_top" xlink:title="clamps a value between low and high">
<polygon fill="white" stroke="black" points="170,-79 170,-98 260,-98 260,-79 170,-79"/>
<text text-anchor="middle" x="215" y="-86" font-family="Helvetica,sans-Serif" font-size="10.00">irr::core::clamp</text>
</a>
</g>
</g>
<!-- Node1&#45;&gt;Node3 -->
<g id="edge2" class="edge">
<title>Node1&#45;&gt;Node3</title>
<path fill="none" stroke="midnightblue" d="M106.39,-88.5C123.37,-88.5 142.25,-88.5 159.38,-88.5"/>
<polygon fill="midnightblue" stroke="midnightblue" points="159.8,-92 169.8,-88.5 159.8,-85 159.8,-92"/>
</g>
<!-- Node6 -->
<g id="node6" class="node">
<title>Node6</title>
<g id="a_node6"><a xlink:href="classirr_1_1core_1_1ustring16.html#aa8379341f14aaeef408d969620f87852" target="_top" xlink:title=" ">
<polygon fill="white" stroke="black" points="162,-27.5 162,-57.5 268,-57.5 268,-27.5 162,-27.5"/>
<text text-anchor="start" x="170" y="-45.5" font-family="Helvetica,sans-Serif" font-size="10.00">irr::core::ustring16</text>
<text text-anchor="middle" x="215" y="-34.5" font-family="Helvetica,sans-Serif" font-size="10.00">::size</text>
</a>
</g>
</g>
<!-- Node1&#45;&gt;Node6 -->
<g id="edge5" class="edge">
<title>Node1&#45;&gt;Node6</title>
<path fill="none" stroke="midnightblue" d="M106.39,-73.44C120.97,-69.25 136.94,-64.65 152.01,-60.32"/>
<polygon fill="midnightblue" stroke="midnightblue" points="153.12,-63.64 161.77,-57.52 151.19,-56.92 153.12,-63.64"/>
</g>
<!-- Node4 -->
<g id="node4" class="node">
<title>Node4</title>
<g id="a_node4"><a xlink:href="namespaceirr_1_1core.html#afca1ce7ac54e0c31a9047947f4c7319b" target="_top" xlink:title="returns maximum of two values. Own implementation to get rid of the STL (VS6 problems)">
<polygon fill="white" stroke="black" points="353.5,-117 353.5,-136 440.5,-136 440.5,-117 353.5,-117"/>
<text text-anchor="middle" x="397" y="-124" font-family="Helvetica,sans-Serif" font-size="10.00">irr::core::max_</text>
</a>
</g>
</g>
<!-- Node3&#45;&gt;Node4 -->
<g id="edge3" class="edge">
<title>Node3&#45;&gt;Node4</title>
<path fill="none" stroke="midnightblue" d="M260.03,-97.8C285.23,-103.11 316.99,-109.82 343.48,-115.41"/>
<polygon fill="midnightblue" stroke="midnightblue" points="342.84,-118.86 353.35,-117.5 344.29,-112.01 342.84,-118.86"/>
</g>
<!-- Node5 -->
<g id="node5" class="node">
<title>Node5</title>
<g id="a_node5"><a xlink:href="namespaceirr_1_1core.html#a9d34bfdbbe9c136b01ae04974572bc11" target="_top" xlink:title="returns minimum of two values. Own implementation to get rid of the STL (VS6 problems)">
<polygon fill="white" stroke="black" points="355,-79 355,-98 439,-98 439,-79 355,-79"/>
<text text-anchor="middle" x="397" y="-86" font-family="Helvetica,sans-Serif" font-size="10.00">irr::core::min_</text>
</a>
</g>
</g>
<!-- Node3&#45;&gt;Node5 -->
<g id="edge4" class="edge">
<title>Node3&#45;&gt;Node5</title>
<path fill="none" stroke="midnightblue" d="M260.03,-88.5C285.58,-88.5 317.87,-88.5 344.58,-88.5"/>
<polygon fill="midnightblue" stroke="midnightblue" points="344.89,-92 354.89,-88.5 344.89,-85 344.89,-92"/>
</g>
<!-- Node7 -->
<g id="node7" class="node">
<title>Node7</title>
<g id="a_node7"><a xlink:href="classirr_1_1core_1_1ustring16_1_1__ustring16__const__iterator.html#ada60fedde4f9b8b92e318794b4d9140a" target="_top" xlink:title="Is the iterator at the end of the string?">
<polygon fill="white" stroke="black" points="324,-19 324,-60 470,-60 470,-19 324,-19"/>
<text text-anchor="start" x="332" y="-48" font-family="Helvetica,sans-Serif" font-size="10.00">irr::core::ustring16</text>
<text text-anchor="start" x="332" y="-37" font-family="Helvetica,sans-Serif" font-size="10.00">::_ustring16_const_iterator</text>
<text text-anchor="middle" x="397" y="-26" font-family="Helvetica,sans-Serif" font-size="10.00">::atEnd</text>
</a>
</g>
</g>
<!-- Node6&#45;&gt;Node7 -->
<g id="edge6" class="edge">
<title>Node6&#45;&gt;Node7</title>
<path fill="none" stroke="midnightblue" d="M268.06,-41.63C282.37,-41.39 298.25,-41.13 313.81,-40.87"/>
<polygon fill="midnightblue" stroke="midnightblue" points="314.03,-44.37 323.97,-40.7 313.91,-37.37 314.03,-44.37"/>
</g>
<!-- Node8 -->
<g id="node8" class="node">
<title>Node8</title>
<g id="a_node8"><a xlink:href="classirr_1_1core_1_1ustring16.html#a13d082695b759bb889795470890ab5be" target="_top" xlink:title=" ">
<polygon fill="white" stroke="black" points="506,-49.5 506,-79.5 612,-79.5 612,-49.5 506,-49.5"/>
<text text-anchor="start" x="514" y="-67.5" font-family="Helvetica,sans-Serif" font-size="10.00">irr::core::ustring16</text>
<text text-anchor="middle" x="559" y="-56.5" font-family="Helvetica,sans-Serif" font-size="10.00">::c_str</text>
</a>
</g>
</g>
<!-- Node7&#45;&gt;Node8 -->
<g id="edge7" class="edge">
<title>Node7&#45;&gt;Node8</title>
<path fill="none" stroke="midnightblue" d="M470.04,-50.76C478.65,-52.1 487.39,-53.47 495.84,-54.79"/>
<polygon fill="midnightblue" stroke="midnightblue" points="495.56,-58.29 505.99,-56.37 496.65,-51.37 495.56,-58.29"/>
</g>
<!-- Node9 -->
<g id="node9" class="node">
<title>Node9</title>
<g id="a_node9"><a xlink:href="classirr_1_1core_1_1ustring16.html#a6ccdb1699994dcf50ff8f3db0cfb2686" target="_top" xlink:title=" ">
<polygon fill="white" stroke="black" points="506,-0.5 506,-30.5 612,-30.5 612,-0.5 506,-0.5"/>
<text text-anchor="start" x="514" y="-18.5" font-family="Helvetica,sans-Serif" font-size="10.00">irr::core::ustring16</text>
<text text-anchor="middle" x="559" y="-7.5" font-family="Helvetica,sans-Serif" font-size="10.00">::size_raw</text>
</a>
</g>
</g>
<!-- Node7&#45;&gt;Node9 -->
<g id="edge8" class="edge">
<title>Node7&#45;&gt;Node9</title>
<path fill="none" stroke="midnightblue" d="M470.04,-28.69C478.65,-27.4 487.39,-26.09 495.84,-24.82"/>
<polygon fill="midnightblue" stroke="midnightblue" points="496.62,-28.25 505.99,-23.3 495.58,-21.32 496.62,-28.25"/>
</g>
</g>
</svg>
