<?xml version="1.0" encoding="UTF-8" standalone="no"?>
<!DOCTYPE svg PUBLIC "-//W3C//DTD SVG 1.1//EN"
 "http://www.w3.org/Graphics/SVG/1.1/DTD/svg11.dtd">
<!-- Generated by graphviz version 2.43.0 (0)
 -->
<!-- Title: MapBlockMesh Pages: 1 -->
<!--zoomable 685 -->
<svg id="main" version="1.1" xmlns="http://www.w3.org/2000/svg" xmlns:xlink="http://www.w3.org/1999/xlink" xml:space="preserve" onload="init(evt)">
<style type="text/css"><![CDATA[
.edge:hover path { stroke: red; }
.edge:hover polygon { stroke: red; fill: red; }
]]></style>
<script type="text/javascript"><![CDATA[
var edges = document.getElementsByTagName('g');
if (edges && edges.length) {
  for (var i=0;i<edges.length;i++) {
    if (edges[i].id.substr(0,4)=='edge') {
      edges[i].setAttribute('class','edge');
    }
  }
}
]]></script>
        <defs>
                <circle id="rim" cx="0" cy="0" r="7"/>
                <circle id="rim2" cx="0" cy="0" r="3.5"/>
                <g id="zoomPlus">
                        <use xlink:href="#rim" fill="#404040">
                                <set attributeName="fill" to="#808080" begin="zoomplus.mouseover" end="zoomplus.mouseout"/>
                        </use>
                        <path d="M-4,0h8M0,-4v8" fill="none" stroke="white" stroke-width="1.5" pointer-events="none"/>
                </g>
                <g id="zoomMin">
                        <use xlink:href="#rim" fill="#404040">
                                <set attributeName="fill" to="#808080" begin="zoomminus.mouseover" end="zoomminus.mouseout"/>
                        </use>
                        <path d="M-4,0h8" fill="none" stroke="white" stroke-width="1.5" pointer-events="none"/>
                </g>
                <g id="dirArrow">
                        <path fill="none" stroke="white" stroke-width="1.5" d="M0,-3.0v7 M-2.5,-0.5L0,-3.0L2.5,-0.5"/>
                </g>
               <g id="resetDef">
                       <use xlink:href="#rim2" fill="#404040">
                               <set attributeName="fill" to="#808080" begin="reset.mouseover" end="reset.mouseout"/>
                       </use>
               </g>
        </defs>

<script type="text/javascript">
var viewWidth = 845;
var viewHeight = 685;
var sectionId = 'dynsection-0';
</script>
<script xlink:href="svgpan.js"/>
<svg id="graph" class="graph">
<g id="viewport">
<title>MapBlockMesh</title>
<polygon fill="white" stroke="transparent" points="-4,4 -4,-680.92 841,-680.92 841,4 -4,4"/>
<!-- Node1 -->
<g id="node1" class="node">
<title>Node1</title>
<g id="a_node1"><a xlink:title=" ">
<polygon fill="#bfbfbf" stroke="black" points="746,-303.92 746,-322.92 837,-322.92 837,-303.92 746,-303.92"/>
<text text-anchor="middle" x="791.5" y="-310.92" font-family="Helvetica,sans-Serif" font-size="10.00">MapBlockMesh</text>
</a>
</g>
</g>
<!-- Node2 -->
<g id="node2" class="node">
<title>Node2</title>
<g id="a_node2"><a xlink:href="classMapBlockBspTree.html" target="_top" xlink:title=" ">
<polygon fill="white" stroke="black" points="436.5,-607.92 436.5,-626.92 539.5,-626.92 539.5,-607.92 436.5,-607.92"/>
<text text-anchor="middle" x="488" y="-614.92" font-family="Helvetica,sans-Serif" font-size="10.00">MapBlockBspTree</text>
</a>
</g>
</g>
<!-- Node2&#45;&gt;Node1 -->
<g id="edge1" class="edge">
<title>Node2&#45;&gt;Node1</title>
<path fill="none" stroke="#9a32cd" stroke-dasharray="5,2" d="M543.39,-628.48C597.03,-636 678.03,-637.74 728,-593.42 769.92,-556.23 786.43,-368.12 789.82,-323.11"/>
<polygon fill="#9a32cd" stroke="#9a32cd" points="543.78,-625 533.37,-626.96 542.74,-631.92 543.78,-625"/>
<text text-anchor="middle" x="659" y="-635.42" font-family="Helvetica,sans-Serif" font-size="10.00"> m_bsp_tree</text>
</g>
<!-- Node3 -->
<g id="node3" class="node">
<title>Node3</title>
<g id="a_node3"><a xlink:title=" ">
<polygon fill="white" stroke="#bfbfbf" points="177,-646.42 177,-676.42 322,-676.42 322,-646.42 177,-646.42"/>
<text text-anchor="start" x="185" y="-664.42" font-family="Helvetica,sans-Serif" font-size="10.00">vector&lt; MapBlockBspTree</text>
<text text-anchor="middle" x="249.5" y="-653.42" font-family="Helvetica,sans-Serif" font-size="10.00">::TreeNode &gt;</text>
</a>
</g>
</g>
<!-- Node3&#45;&gt;Node2 -->
<g id="edge2" class="edge">
<title>Node3&#45;&gt;Node2</title>
<path fill="none" stroke="#9a32cd" stroke-dasharray="5,2" d="M332.19,-646.22C366.77,-639.79 405.97,-632.49 436.28,-626.85"/>
<polygon fill="#9a32cd" stroke="#9a32cd" points="331.29,-642.83 322.1,-648.1 332.57,-649.71 331.29,-642.83"/>
<text text-anchor="middle" x="363" y="-647.42" font-family="Helvetica,sans-Serif" font-size="10.00"> nodes</text>
</g>
<!-- Node4 -->
<g id="node4" class="node">
<title>Node4</title>
<g id="a_node4"><a xlink:title=" ">
<polygon fill="white" stroke="#bfbfbf" points="178,-607.92 178,-626.92 321,-626.92 321,-607.92 178,-607.92"/>
<text text-anchor="middle" x="249.5" y="-614.92" font-family="Helvetica,sans-Serif" font-size="10.00">vector&lt; MeshTriangle &gt; *</text>
</a>
</g>
</g>
<!-- Node4&#45;&gt;Node2 -->
<g id="edge3" class="edge">
<title>Node4&#45;&gt;Node2</title>
<path fill="none" stroke="#9a32cd" stroke-dasharray="5,2" d="M331.28,-617.42C366.07,-617.42 405.67,-617.42 436.24,-617.42"/>
<polygon fill="#9a32cd" stroke="#9a32cd" points="331.14,-613.92 321.14,-617.42 331.14,-620.92 331.14,-613.92"/>
<text text-anchor="middle" x="363" y="-620.42" font-family="Helvetica,sans-Serif" font-size="10.00"> triangles</text>
</g>
<!-- Node5 -->
<g id="node5" class="node">
<title>Node5</title>
<g id="a_node5"><a xlink:title=" ">
<polygon fill="white" stroke="#bfbfbf" points="232.5,-569.92 232.5,-588.92 266.5,-588.92 266.5,-569.92 232.5,-569.92"/>
<text text-anchor="middle" x="249.5" y="-576.92" font-family="Helvetica,sans-Serif" font-size="10.00">s32</text>
</a>
</g>
</g>
<!-- Node5&#45;&gt;Node2 -->
<g id="edge4" class="edge">
<title>Node5&#45;&gt;Node2</title>
<path fill="none" stroke="#9a32cd" stroke-dasharray="5,2" d="M276.63,-583.62C315,-589.78 387.34,-601.41 436.35,-609.28"/>
<polygon fill="#9a32cd" stroke="#9a32cd" points="277.18,-580.16 266.76,-582.03 276.07,-587.07 277.18,-580.16"/>
<text text-anchor="middle" x="363" y="-603.42" font-family="Helvetica,sans-Serif" font-size="10.00"> root</text>
</g>
<!-- Node6 -->
<g id="node6" class="node">
<title>Node6</title>
<g id="a_node6"><a xlink:title=" ">
<polygon fill="white" stroke="#bfbfbf" points="421,-569.92 421,-588.92 555,-588.92 555,-569.92 421,-569.92"/>
<text text-anchor="middle" x="488" y="-576.92" font-family="Helvetica,sans-Serif" font-size="10.00">vector&lt; MeshTriangle &gt;</text>
</a>
</g>
</g>
<!-- Node6&#45;&gt;Node1 -->
<g id="edge5" class="edge">
<title>Node6&#45;&gt;Node1</title>
<path fill="none" stroke="#9a32cd" stroke-dasharray="5,2" d="M565.46,-579.57C626.04,-578.07 704.3,-572.01 728,-551.42 763.88,-520.25 784.6,-363.47 789.41,-322.98"/>
<polygon fill="#9a32cd" stroke="#9a32cd" points="565.06,-576.08 555.14,-579.79 565.21,-583.08 565.06,-576.08"/>
<text text-anchor="middle" x="659" y="-581.42" font-family="Helvetica,sans-Serif" font-size="10.00"> m_transparent_triangles</text>
</g>
<!-- Node7 -->
<g id="node7" class="node">
<title>Node7</title>
<g id="a_node7"><a xlink:href="classITextureSource.html" target="_top" xlink:title=" ">
<polygon fill="white" stroke="black" points="443.5,-531.92 443.5,-550.92 532.5,-550.92 532.5,-531.92 443.5,-531.92"/>
<text text-anchor="middle" x="488" y="-538.92" font-family="Helvetica,sans-Serif" font-size="10.00">ITextureSource</text>
</a>
</g>
</g>
<!-- Node7&#45;&gt;Node1 -->
<g id="edge6" class="edge">
<title>Node7&#45;&gt;Node1</title>
<path fill="none" stroke="#9a32cd" stroke-dasharray="5,2" d="M542.93,-539.75C604.68,-536.75 700.84,-528.43 728,-505.42 785.24,-456.93 790.46,-355.34 790.63,-323.31"/>
<polygon fill="#9a32cd" stroke="#9a32cd" points="542.4,-536.27 532.57,-540.22 542.72,-543.26 542.4,-536.27"/>
<text text-anchor="middle" x="659" y="-539.42" font-family="Helvetica,sans-Serif" font-size="10.00"> m_tsrc</text>
</g>
<!-- Node8 -->
<g id="node8" class="node">
<title>Node8</title>
<g id="a_node8"><a xlink:href="classISimpleTextureSource.html" target="_top" xlink:title=" ">
<polygon fill="white" stroke="black" points="188.5,-531.92 188.5,-550.92 310.5,-550.92 310.5,-531.92 188.5,-531.92"/>
<text text-anchor="middle" x="249.5" y="-538.92" font-family="Helvetica,sans-Serif" font-size="10.00">ISimpleTextureSource</text>
</a>
</g>
</g>
<!-- Node8&#45;&gt;Node7 -->
<g id="edge7" class="edge">
<title>Node8&#45;&gt;Node7</title>
<path fill="none" stroke="midnightblue" d="M320.95,-541.42C360.64,-541.42 408.98,-541.42 443.25,-541.42"/>
<polygon fill="midnightblue" stroke="midnightblue" points="320.79,-537.92 310.79,-541.42 320.79,-544.92 320.79,-537.92"/>
</g>
<!-- Node9 -->
<g id="node9" class="node">
<title>Node9</title>
<g id="a_node9"><a xlink:title=" ">
<polygon fill="white" stroke="#bfbfbf" points="423.5,-471.92 423.5,-512.92 552.5,-512.92 552.5,-471.92 423.5,-471.92"/>
<text text-anchor="start" x="431.5" y="-500.92" font-family="Helvetica,sans-Serif" font-size="10.00">map&lt; std::pair&lt; u8,</text>
<text text-anchor="start" x="431.5" y="-489.92" font-family="Helvetica,sans-Serif" font-size="10.00"> u32 &gt;, MapBlockMesh</text>
<text text-anchor="middle" x="488" y="-478.92" font-family="Helvetica,sans-Serif" font-size="10.00">::AnimationInfo &gt;</text>
</a>
</g>
</g>
<!-- Node9&#45;&gt;Node1 -->
<g id="edge8" class="edge">
<title>Node9&#45;&gt;Node1</title>
<path fill="none" stroke="#9a32cd" stroke-dasharray="5,2" d="M562.8,-491.79C623.21,-489.85 702.68,-483.56 728,-464.42 775.3,-428.65 787.02,-350.64 789.74,-323.2"/>
<polygon fill="#9a32cd" stroke="#9a32cd" points="562.41,-488.3 552.52,-492.09 562.61,-495.3 562.41,-488.3"/>
<text text-anchor="middle" x="659" y="-493.42" font-family="Helvetica,sans-Serif" font-size="10.00"> m_animation_info</text>
</g>
<!-- Node10 -->
<g id="node10" class="node">
<title>Node10</title>
<g id="a_node10"><a xlink:href="classirr_1_1core_1_1vector3d.html" target="_top" xlink:title="3d vector template class with lots of operators and methods.">
<polygon fill="white" stroke="black" points="422.5,-433.92 422.5,-452.92 553.5,-452.92 553.5,-433.92 422.5,-433.92"/>
<text text-anchor="middle" x="488" y="-440.92" font-family="Helvetica,sans-Serif" font-size="10.00">irr::core::vector3d&lt; T &gt;</text>
</a>
</g>
</g>
<!-- Node10&#45;&gt;Node1 -->
<g id="edge9" class="edge">
<title>Node10&#45;&gt;Node1</title>
<path fill="none" stroke="#9a32cd" stroke-dasharray="5,2" d="M563.81,-450.42C613.97,-451.46 679.48,-445.43 728,-414.42 762.58,-392.32 781.16,-343.55 787.73,-322.92"/>
<polygon fill="#9a32cd" stroke="#9a32cd" points="563.77,-446.92 553.67,-450.11 563.56,-453.91 563.77,-446.92"/>
<text text-anchor="middle" x="659" y="-452.42" font-family="Helvetica,sans-Serif" font-size="10.00"> m_bounding_sphere_center</text>
</g>
<!-- Node11 -->
<g id="node11" class="node">
<title>Node11</title>
<g id="a_node11"><a xlink:title=" ">
<polygon fill="white" stroke="#bfbfbf" points="235,-433.92 235,-452.92 264,-452.92 264,-433.92 235,-433.92"/>
<text text-anchor="middle" x="249.5" y="-440.92" font-family="Helvetica,sans-Serif" font-size="10.00">T</text>
</a>
</g>
</g>
<!-- Node11&#45;&gt;Node10 -->
<g id="edge10" class="edge">
<title>Node11&#45;&gt;Node10</title>
<path fill="none" stroke="#9a32cd" stroke-dasharray="5,2" d="M274.26,-443.42C308.61,-443.42 373.39,-443.42 422.49,-443.42"/>
<polygon fill="#9a32cd" stroke="#9a32cd" points="274.24,-439.92 264.24,-443.42 274.24,-446.92 274.24,-439.92"/>
<text text-anchor="middle" x="363" y="-468.42" font-family="Helvetica,sans-Serif" font-size="10.00"> X</text>
<text text-anchor="middle" x="363" y="-457.42" font-family="Helvetica,sans-Serif" font-size="10.00">Y</text>
<text text-anchor="middle" x="363" y="-446.42" font-family="Helvetica,sans-Serif" font-size="10.00">Z</text>
</g>
<!-- Node12 -->
<g id="node12" class="node">
<title>Node12</title>
<g id="a_node12"><a xlink:href="classirr_1_1scene_1_1IMesh.html" target="_top" xlink:title="Class which holds the geometry of an object.">
<polygon fill="white" stroke="black" points="439.5,-395.92 439.5,-414.92 536.5,-414.92 536.5,-395.92 439.5,-395.92"/>
<text text-anchor="middle" x="488" y="-402.92" font-family="Helvetica,sans-Serif" font-size="10.00">irr::scene::IMesh</text>
</a>
</g>
</g>
<!-- Node12&#45;&gt;Node1 -->
<g id="edge11" class="edge">
<title>Node12&#45;&gt;Node1</title>
<path fill="none" stroke="#9a32cd" stroke-dasharray="5,2" d="M546.71,-403.07C607.03,-399.84 697.12,-392.6 728,-377.42 753.37,-364.95 774.25,-337.86 784.21,-323.24"/>
<polygon fill="#9a32cd" stroke="#9a32cd" points="546.37,-399.58 536.56,-403.59 546.72,-406.57 546.37,-399.58"/>
<text text-anchor="middle" x="659" y="-402.42" font-family="Helvetica,sans-Serif" font-size="10.00"> m_mesh</text>
</g>
<!-- Node13 -->
<g id="node13" class="node">
<title>Node13</title>
<g id="a_node13"><a xlink:href="classirr_1_1IReferenceCounted.html" target="_top" xlink:title="Base class of most objects of the Irrlicht Engine.">
<polygon fill="white" stroke="black" points="186.5,-395.92 186.5,-414.92 312.5,-414.92 312.5,-395.92 186.5,-395.92"/>
<text text-anchor="middle" x="249.5" y="-402.92" font-family="Helvetica,sans-Serif" font-size="10.00">irr::IReferenceCounted</text>
</a>
</g>
</g>
<!-- Node13&#45;&gt;Node12 -->
<g id="edge12" class="edge">
<title>Node13&#45;&gt;Node12</title>
<path fill="none" stroke="midnightblue" d="M323.1,-405.42C360.93,-405.42 406.13,-405.42 439.47,-405.42"/>
<polygon fill="midnightblue" stroke="midnightblue" points="322.64,-401.92 312.64,-405.42 322.64,-408.92 322.64,-401.92"/>
</g>
<!-- Node14 -->
<g id="node14" class="node">
<title>Node14</title>
<g id="a_node14"><a xlink:title=" ">
<polygon fill="white" stroke="#bfbfbf" points="6,-414.92 6,-433.92 44,-433.92 44,-414.92 6,-414.92"/>
<text text-anchor="middle" x="25" y="-421.92" font-family="Helvetica,sans-Serif" font-size="10.00">char</text>
</a>
</g>
</g>
<!-- Node14&#45;&gt;Node13 -->
<g id="edge13" class="edge">
<title>Node14&#45;&gt;Node13</title>
<path fill="none" stroke="#9a32cd" stroke-dasharray="5,2" d="M54.49,-421.99C87.5,-419.17 142.86,-414.44 186.01,-410.75"/>
<polygon fill="#9a32cd" stroke="#9a32cd" points="53.87,-418.53 44.21,-422.86 54.47,-425.5 53.87,-418.53"/>
<text text-anchor="middle" x="113.5" y="-423.42" font-family="Helvetica,sans-Serif" font-size="10.00"> DebugName</text>
</g>
<!-- Node15 -->
<g id="node15" class="node">
<title>Node15</title>
<g id="a_node15"><a xlink:title=" ">
<polygon fill="white" stroke="#bfbfbf" points="0,-376.92 0,-395.92 50,-395.92 50,-376.92 0,-376.92"/>
<text text-anchor="middle" x="25" y="-383.92" font-family="Helvetica,sans-Serif" font-size="10.00">int32_t</text>
</a>
</g>
</g>
<!-- Node15&#45;&gt;Node13 -->
<g id="edge14" class="edge">
<title>Node15&#45;&gt;Node13</title>
<path fill="none" stroke="#9a32cd" stroke-dasharray="5,2" d="M60.08,-389.17C86.96,-391.36 125.38,-394.52 159,-397.42 167.86,-398.18 177.21,-399 186.4,-399.81"/>
<polygon fill="#9a32cd" stroke="#9a32cd" points="60.28,-385.68 50.03,-388.36 59.71,-392.66 60.28,-385.68"/>
<text text-anchor="middle" x="113.5" y="-400.42" font-family="Helvetica,sans-Serif" font-size="10.00"> ReferenceCounter</text>
</g>
<!-- Node16 -->
<g id="node16" class="node">
<title>Node16</title>
<g id="a_node16"><a xlink:title=" ">
<polygon fill="white" stroke="#bfbfbf" points="423,-335.92 423,-376.92 553,-376.92 553,-335.92 423,-335.92"/>
<text text-anchor="start" x="431" y="-364.92" font-family="Helvetica,sans-Serif" font-size="10.00">map&lt; std::pair&lt; u8,</text>
<text text-anchor="start" x="431" y="-353.92" font-family="Helvetica,sans-Serif" font-size="10.00"> u32 &gt;, std::map&lt; u32,</text>
<text text-anchor="middle" x="488" y="-342.92" font-family="Helvetica,sans-Serif" font-size="10.00"> video::SColor &gt; &gt;</text>
</a>
</g>
</g>
<!-- Node16&#45;&gt;Node1 -->
<g id="edge15" class="edge">
<title>Node16&#45;&gt;Node1</title>
<path fill="none" stroke="#9a32cd" stroke-dasharray="5,2" d="M563.38,-362.26C611.23,-363.93 674.28,-362.17 728,-347.42 746.11,-342.45 764.74,-331.39 776.9,-323.23"/>
<polygon fill="#9a32cd" stroke="#9a32cd" points="563.24,-358.76 553.1,-361.85 562.95,-365.75 563.24,-358.76"/>
<text text-anchor="middle" x="659" y="-365.42" font-family="Helvetica,sans-Serif" font-size="10.00"> m_daynight_diffs</text>
</g>
<!-- Node17 -->
<g id="node17" class="node">
<title>Node17</title>
<g id="a_node17"><a xlink:title=" ">
<polygon fill="white" stroke="#bfbfbf" points="473.5,-297.92 473.5,-316.92 502.5,-316.92 502.5,-297.92 473.5,-297.92"/>
<text text-anchor="middle" x="488" y="-304.92" font-family="Helvetica,sans-Serif" font-size="10.00">int</text>
</a>
</g>
</g>
<!-- Node17&#45;&gt;Node1 -->
<g id="edge16" class="edge">
<title>Node17&#45;&gt;Node1</title>
<path fill="none" stroke="#9a32cd" stroke-dasharray="5,2" d="M512.98,-307.9C563.42,-308.9 681.2,-311.24 745.93,-312.53"/>
<polygon fill="#9a32cd" stroke="#9a32cd" points="512.81,-304.39 502.74,-307.69 512.67,-311.39 512.81,-304.39"/>
<text text-anchor="middle" x="659" y="-336.42" font-family="Helvetica,sans-Serif" font-size="10.00"> m_last_crack</text>
<text text-anchor="start" x="611.5" y="-325.42" font-family="Helvetica,sans-Serif" font-size="10.00">m_animation_force</text>
<text text-anchor="middle" x="659" y="-314.42" font-family="Helvetica,sans-Serif" font-size="10.00">_timer</text>
</g>
<!-- Node18 -->
<g id="node18" class="node">
<title>Node18</title>
<g id="a_node18"><a xlink:title=" ">
<polygon fill="white" stroke="#bfbfbf" points="404,-259.92 404,-278.92 572,-278.92 572,-259.92 404,-259.92"/>
<text text-anchor="middle" x="488" y="-266.92" font-family="Helvetica,sans-Serif" font-size="10.00">vector&lt; MinimapMapblock * &gt;</text>
</a>
</g>
</g>
<!-- Node18&#45;&gt;Node1 -->
<g id="edge17" class="edge">
<title>Node18&#45;&gt;Node1</title>
<path fill="none" stroke="#9a32cd" stroke-dasharray="5,2" d="M582.47,-275.04C626.86,-278.77 680.49,-284.8 728,-294.42 739.67,-296.78 752.28,-300.4 763.1,-303.85"/>
<polygon fill="#9a32cd" stroke="#9a32cd" points="582.52,-271.53 572.27,-274.21 581.95,-278.51 582.52,-271.53"/>
<text text-anchor="middle" x="659" y="-297.42" font-family="Helvetica,sans-Serif" font-size="10.00"> m_minimap_mapblocks</text>
</g>
<!-- Node19 -->
<g id="node19" class="node">
<title>Node19</title>
<g id="a_node19"><a xlink:href="classbool.html" target="_top" xlink:title=" ">
<polygon fill="white" stroke="black" points="469,-220.92 469,-239.92 507,-239.92 507,-220.92 469,-220.92"/>
<text text-anchor="middle" x="488" y="-227.92" font-family="Helvetica,sans-Serif" font-size="10.00">bool</text>
</a>
</g>
</g>
<!-- Node19&#45;&gt;Node1 -->
<g id="edge18" class="edge">
<title>Node19&#45;&gt;Node1</title>
<path fill="none" stroke="#9a32cd" stroke-dasharray="5,2" d="M517.27,-224.28C563.88,-215.65 658.62,-204.5 728,-238.42 756.93,-252.56 777.35,-287.03 785.95,-303.85"/>
<polygon fill="#9a32cd" stroke="#9a32cd" points="516.43,-220.88 507.28,-226.23 517.77,-227.75 516.43,-220.88"/>
<text text-anchor="middle" x="659" y="-263.42" font-family="Helvetica,sans-Serif" font-size="10.00"> m_enable_shaders</text>
<text text-anchor="middle" x="659" y="-252.42" font-family="Helvetica,sans-Serif" font-size="10.00">m_has_animation</text>
<text text-anchor="middle" x="659" y="-241.42" font-family="Helvetica,sans-Serif" font-size="10.00">m_enable_vbo</text>
</g>
<!-- Node20 -->
<g id="node20" class="node">
<title>Node20</title>
<g id="a_node20"><a xlink:href="classIShaderSource.html" target="_top" xlink:title=" ">
<polygon fill="white" stroke="black" points="445,-182.92 445,-201.92 531,-201.92 531,-182.92 445,-182.92"/>
<text text-anchor="middle" x="488" y="-189.92" font-family="Helvetica,sans-Serif" font-size="10.00">IShaderSource</text>
</a>
</g>
</g>
<!-- Node20&#45;&gt;Node1 -->
<g id="edge19" class="edge">
<title>Node20&#45;&gt;Node1</title>
<path fill="none" stroke="#9a32cd" stroke-dasharray="5,2" d="M535.98,-180.89C587.18,-171.09 669.58,-163.66 728,-199.42 767.08,-223.34 783.48,-281.01 788.6,-303.86"/>
<polygon fill="#9a32cd" stroke="#9a32cd" points="535.29,-177.46 526.18,-182.87 536.67,-184.32 535.29,-177.46"/>
<text text-anchor="middle" x="659" y="-202.42" font-family="Helvetica,sans-Serif" font-size="10.00"> m_shdrsrc</text>
</g>
<!-- Node21 -->
<g id="node21" class="node">
<title>Node21</title>
<g id="a_node21"><a xlink:title=" ">
<polygon fill="white" stroke="#bfbfbf" points="410,-144.92 410,-163.92 566,-163.92 566,-144.92 410,-144.92"/>
<text text-anchor="middle" x="488" y="-151.92" font-family="Helvetica,sans-Serif" font-size="10.00">vector&lt; PartialMeshBuffer &gt;</text>
</a>
</g>
</g>
<!-- Node21&#45;&gt;Node1 -->
<g id="edge20" class="edge">
<title>Node21&#45;&gt;Node1</title>
<path fill="none" stroke="#9a32cd" stroke-dasharray="5,2" d="M576.59,-145.62C634.49,-141.64 703.99,-140.95 728,-157.42 778.77,-192.24 788.31,-275.64 790.09,-303.88"/>
<polygon fill="#9a32cd" stroke="#9a32cd" points="576.01,-142.15 566.29,-146.37 576.52,-149.13 576.01,-142.15"/>
<text text-anchor="middle" x="659" y="-160.42" font-family="Helvetica,sans-Serif" font-size="10.00"> m_transparent_buffers</text>
</g>
<!-- Node22 -->
<g id="node22" class="node">
<title>Node22</title>
<g id="a_node22"><a xlink:title=" ">
<polygon fill="white" stroke="#bfbfbf" points="430,-95.42 430,-125.42 546,-125.42 546,-95.42 430,-95.42"/>
<text text-anchor="start" x="438" y="-113.42" font-family="Helvetica,sans-Serif" font-size="10.00">map&lt; std::pair&lt; u8,</text>
<text text-anchor="middle" x="488" y="-102.42" font-family="Helvetica,sans-Serif" font-size="10.00"> u32 &gt;, std::string &gt;</text>
</a>
</g>
</g>
<!-- Node22&#45;&gt;Node1 -->
<g id="edge21" class="edge">
<title>Node22&#45;&gt;Node1</title>
<path fill="none" stroke="#9a32cd" stroke-dasharray="5,2" d="M556.34,-96.61C608.52,-89.94 679.82,-90.12 728,-127.42 785.64,-172.05 790.59,-272.04 790.66,-303.65"/>
<polygon fill="#9a32cd" stroke="#9a32cd" points="555.59,-93.18 546.17,-98.03 556.56,-100.11 555.59,-93.18"/>
<text text-anchor="middle" x="659" y="-130.42" font-family="Helvetica,sans-Serif" font-size="10.00"> m_crack_materials</text>
</g>
<!-- Node23 -->
<g id="node23" class="node">
<title>Node23</title>
<g id="a_node23"><a xlink:title=" ">
<polygon fill="white" stroke="#bfbfbf" points="470.5,-56.92 470.5,-75.92 505.5,-75.92 505.5,-56.92 470.5,-56.92"/>
<text text-anchor="middle" x="488" y="-63.92" font-family="Helvetica,sans-Serif" font-size="10.00">u32</text>
</a>
</g>
</g>
<!-- Node23&#45;&gt;Node1 -->
<g id="edge22" class="edge">
<title>Node23&#45;&gt;Node1</title>
<path fill="none" stroke="#9a32cd" stroke-dasharray="5,2" d="M515.47,-58.55C563.62,-45.99 666.26,-27.6 728,-77.42 764.7,-107.03 784.82,-263.44 789.45,-303.87"/>
<polygon fill="#9a32cd" stroke="#9a32cd" points="514.51,-55.18 505.79,-61.19 516.36,-61.93 514.51,-55.18"/>
<text text-anchor="middle" x="659" y="-80.42" font-family="Helvetica,sans-Serif" font-size="10.00"> m_last_daynight_ratio</text>
</g>
<!-- Node24 -->
<g id="node24" class="node">
<title>Node24</title>
<g id="a_node24"><a xlink:title=" ">
<polygon fill="white" stroke="#bfbfbf" points="472,-18.92 472,-37.92 504,-37.92 504,-18.92 472,-18.92"/>
<text text-anchor="middle" x="488" y="-25.92" font-family="Helvetica,sans-Serif" font-size="10.00">f32</text>
</a>
</g>
</g>
<!-- Node24&#45;&gt;Node1 -->
<g id="edge23" class="edge">
<title>Node24&#45;&gt;Node1</title>
<path fill="none" stroke="#9a32cd" stroke-dasharray="5,2" d="M514.06,-19.54C561.63,-4.45 665.8,19.97 728,-30.42 772.08,-66.13 787,-258.51 789.93,-303.84"/>
<polygon fill="#9a32cd" stroke="#9a32cd" points="512.68,-16.31 504.28,-22.77 514.87,-22.96 512.68,-16.31"/>
<text text-anchor="middle" x="659" y="-33.42" font-family="Helvetica,sans-Serif" font-size="10.00"> m_bounding_radius</text>
</g>
</g>
</svg>
        <g id="navigator" transform="translate(0 0)" fill="#404254">
                <rect fill="#f2f5e9" fill-opacity="0.5" stroke="#606060" stroke-width=".5" x="0" y="0" width="60" height="60"/>
                <use id="zoomplus" xlink:href="#zoomPlus" x="17" y="9" onmousedown="handleZoom(evt,'in')"/>
                <use id="zoomminus" xlink:href="#zoomMin" x="42" y="9" onmousedown="handleZoom(evt,'out')"/>
                <use id="reset" xlink:href="#resetDef" x="30" y="36" onmousedown="handleReset()"/>
                <g id="arrowUp" xlink:href="#dirArrow" transform="translate(30 24)" onmousedown="handlePan(0,-1)">
                  <use xlink:href="#rim" fill="#404040">
                        <set attributeName="fill" to="#808080" begin="arrowUp.mouseover" end="arrowUp.mouseout"/>
                  </use>
                  <path fill="none" stroke="white" stroke-width="1.5" d="M0,-3.0v7 M-2.5,-0.5L0,-3.0L2.5,-0.5"/>
                </g>
                <g id="arrowRight" xlink:href="#dirArrow" transform="rotate(90) translate(36 -43)" onmousedown="handlePan(1,0)">
                  <use xlink:href="#rim" fill="#404040">
                        <set attributeName="fill" to="#808080" begin="arrowRight.mouseover" end="arrowRight.mouseout"/>
                  </use>
                  <path fill="none" stroke="white" stroke-width="1.5" d="M0,-3.0v7 M-2.5,-0.5L0,-3.0L2.5,-0.5"/>
                </g>
                <g id="arrowDown" xlink:href="#dirArrow" transform="rotate(180) translate(-30 -48)" onmousedown="handlePan(0,1)">
                  <use xlink:href="#rim" fill="#404040">
                        <set attributeName="fill" to="#808080" begin="arrowDown.mouseover" end="arrowDown.mouseout"/>
                  </use>
                  <path fill="none" stroke="white" stroke-width="1.5" d="M0,-3.0v7 M-2.5,-0.5L0,-3.0L2.5,-0.5"/>
                </g>
                <g id="arrowLeft" xlink:href="#dirArrow" transform="rotate(270) translate(-36 17)" onmousedown="handlePan(-1,0)">
                  <use xlink:href="#rim" fill="#404040">
                        <set attributeName="fill" to="#808080" begin="arrowLeft.mouseover" end="arrowLeft.mouseout"/>
                  </use>
                  <path fill="none" stroke="white" stroke-width="1.5" d="M0,-3.0v7 M-2.5,-0.5L0,-3.0L2.5,-0.5"/>
                </g>
        </g>
        <svg viewBox="0 0 15 15" width="100%" height="30px" preserveAspectRatio="xMaxYMin meet">
         <g id="arrow_out" transform="scale(0.3 0.3)">
          <a xlink:href="classMapBlockMesh__coll__graph_org.svg" target="_base">
           <rect id="button" ry="5" rx="5" y="6" x="6" height="38" width="38"
                fill="#f2f5e9" fill-opacity="0.5" stroke="#606060" stroke-width="1.0"/>
           <path id="arrow"
             d="M 11.500037,31.436501 C 11.940474,20.09759 22.043105,11.32322 32.158766,21.979434 L 37.068811,17.246167 C 37.068811,17.246167 37.088388,32 37.088388,32 L 22.160133,31.978069 C 22.160133,31.978069 26.997745,27.140456 26.997745,27.140456 C 18.528582,18.264221 13.291696,25.230495 11.500037,31.436501 z"
             style="fill:#404040;"/>
          </a>
         </g>
        </svg>
</svg>
