<?xml version="1.0" encoding="UTF-8" standalone="no"?>
<!DOCTYPE svg PUBLIC "-//W3C//DTD SVG 1.1//EN"
 "http://www.w3.org/Graphics/SVG/1.1/DTD/svg11.dtd">
<!-- Generated by graphviz version 2.43.0 (0)
 -->
<!-- Title: irr::video::IImage Pages: 1 -->
<svg width="765pt" height="280pt"
 viewBox="0.00 0.00 765.00 280.00" xmlns="http://www.w3.org/2000/svg" xmlns:xlink="http://www.w3.org/1999/xlink">
<g id="graph0" class="graph" transform="scale(1 1) rotate(0) translate(4 276)">
<title>irr::video::IImage</title>
<polygon fill="white" stroke="transparent" points="-4,4 -4,-276 761,-276 761,4 -4,4"/>
<!-- Node1 -->
<g id="node1" class="node">
<title>Node1</title>
<g id="a_node1"><a xlink:title="Interface for software image data.">
<polygon fill="#bfbfbf" stroke="black" points="657,-108.5 657,-127.5 757,-127.5 757,-108.5 657,-108.5"/>
<text text-anchor="middle" x="707" y="-115.5" font-family="Helvetica,sans-Serif" font-size="10.00">irr::video::IImage</text>
</a>
</g>
</g>
<!-- Node2 -->
<g id="node2" class="node">
<title>Node2</title>
<g id="a_node2"><a xlink:href="classirr_1_1IReferenceCounted.html" target="_top" xlink:title="Base class of most objects of the Irrlicht Engine.">
<polygon fill="white" stroke="black" points="377,-229.5 377,-248.5 503,-248.5 503,-229.5 377,-229.5"/>
<text text-anchor="middle" x="440" y="-236.5" font-family="Helvetica,sans-Serif" font-size="10.00">irr::IReferenceCounted</text>
</a>
</g>
</g>
<!-- Node2&#45;&gt;Node1 -->
<g id="edge1" class="edge">
<title>Node2&#45;&gt;Node1</title>
<path fill="none" stroke="midnightblue" d="M513.54,-238.1C553.05,-234.71 601.41,-225.61 639,-203 670.08,-184.31 692.38,-145.49 701.47,-127.51"/>
<polygon fill="midnightblue" stroke="midnightblue" points="513.15,-234.62 503.44,-238.86 513.67,-241.6 513.15,-234.62"/>
</g>
<!-- Node3 -->
<g id="node3" class="node">
<title>Node3</title>
<g id="a_node3"><a xlink:title=" ">
<polygon fill="white" stroke="#bfbfbf" points="155,-252.5 155,-271.5 193,-271.5 193,-252.5 155,-252.5"/>
<text text-anchor="middle" x="174" y="-259.5" font-family="Helvetica,sans-Serif" font-size="10.00">char</text>
</a>
</g>
</g>
<!-- Node3&#45;&gt;Node2 -->
<g id="edge2" class="edge">
<title>Node3&#45;&gt;Node2</title>
<path fill="none" stroke="#9a32cd" stroke-dasharray="5,2" d="M203.28,-259.54C244.47,-255.95 322.05,-249.19 376.94,-244.41"/>
<polygon fill="#9a32cd" stroke="#9a32cd" points="202.8,-256.06 193.15,-260.42 203.41,-263.04 202.8,-256.06"/>
<text text-anchor="middle" x="313.5" y="-256" font-family="Helvetica,sans-Serif" font-size="10.00"> DebugName</text>
</g>
<!-- Node4 -->
<g id="node4" class="node">
<title>Node4</title>
<g id="a_node4"><a xlink:title=" ">
<polygon fill="white" stroke="#bfbfbf" points="149,-214.5 149,-233.5 199,-233.5 199,-214.5 149,-214.5"/>
<text text-anchor="middle" x="174" y="-221.5" font-family="Helvetica,sans-Serif" font-size="10.00">int32_t</text>
</a>
</g>
</g>
<!-- Node4&#45;&gt;Node2 -->
<g id="edge3" class="edge">
<title>Node4&#45;&gt;Node2</title>
<path fill="none" stroke="#9a32cd" stroke-dasharray="5,2" d="M209.39,-223.94C246.39,-224.1 306.94,-225.05 359,-229 364.72,-229.43 370.66,-229.99 376.61,-230.61"/>
<polygon fill="#9a32cd" stroke="#9a32cd" points="209.16,-220.44 199.15,-223.91 209.14,-227.44 209.16,-220.44"/>
<text text-anchor="middle" x="313.5" y="-232" font-family="Helvetica,sans-Serif" font-size="10.00"> ReferenceCounter</text>
</g>
<!-- Node5 -->
<g id="node5" class="node">
<title>Node5</title>
<g id="a_node5"><a xlink:href="classirr_1_1core_1_1dimension2d.html" target="_top" xlink:title=" ">
<polygon fill="white" stroke="black" points="378.5,-122 378.5,-152 501.5,-152 501.5,-122 378.5,-122"/>
<text text-anchor="start" x="386.5" y="-140" font-family="Helvetica,sans-Serif" font-size="10.00">irr::core::dimension2d</text>
<text text-anchor="middle" x="440" y="-129" font-family="Helvetica,sans-Serif" font-size="10.00">&lt; u32 &gt;</text>
</a>
</g>
</g>
<!-- Node5&#45;&gt;Node1 -->
<g id="edge4" class="edge">
<title>Node5&#45;&gt;Node1</title>
<path fill="none" stroke="#9a32cd" stroke-dasharray="5,2" d="M511.97,-131.91C557.81,-128.63 616.28,-124.43 656.99,-121.51"/>
<polygon fill="#9a32cd" stroke="#9a32cd" points="511.52,-128.43 501.8,-132.64 512.02,-135.42 511.52,-128.43"/>
<text text-anchor="middle" x="580" y="-134" font-family="Helvetica,sans-Serif" font-size="10.00"> Size</text>
</g>
<!-- Node6 -->
<g id="node6" class="node">
<title>Node6</title>
<g id="a_node6"><a xlink:title=" ">
<polygon fill="white" stroke="#bfbfbf" points="146,-161.5 146,-180.5 202,-180.5 202,-161.5 146,-161.5"/>
<text text-anchor="middle" x="174" y="-168.5" font-family="Helvetica,sans-Serif" font-size="10.00">uint32_t</text>
</a>
</g>
</g>
<!-- Node6&#45;&gt;Node1 -->
<g id="edge9" class="edge">
<title>Node6&#45;&gt;Node1</title>
<path fill="none" stroke="#9a32cd" stroke-dasharray="5,2" d="M212.34,-172.97C229.32,-173.78 249.67,-174.61 268,-175 433.35,-178.55 478.87,-187.38 639,-146 655.84,-141.65 674,-133.85 687.15,-127.59"/>
<polygon fill="#9a32cd" stroke="#9a32cd" points="212.41,-169.47 202.25,-172.48 212.07,-176.46 212.41,-169.47"/>
<text text-anchor="middle" x="440" y="-192" font-family="Helvetica,sans-Serif" font-size="10.00"> BytesPerPixel</text>
<text text-anchor="middle" x="440" y="-181" font-family="Helvetica,sans-Serif" font-size="10.00">Pitch</text>
</g>
<!-- Node6&#45;&gt;Node5 -->
<g id="edge5" class="edge">
<title>Node6&#45;&gt;Node5</title>
<path fill="none" stroke="#9a32cd" stroke-dasharray="5,2" d="M212.21,-162.93C229.17,-159.48 249.53,-155.64 268,-153 304.45,-147.78 345.53,-143.87 378.29,-141.23"/>
<polygon fill="#9a32cd" stroke="#9a32cd" points="211.23,-159.56 202.15,-165.02 212.65,-166.42 211.23,-159.56"/>
<text text-anchor="middle" x="313.5" y="-167" font-family="Helvetica,sans-Serif" font-size="10.00"> Width</text>
<text text-anchor="middle" x="313.5" y="-156" font-family="Helvetica,sans-Serif" font-size="10.00">Height</text>
</g>
<!-- Node7 -->
<g id="node7" class="node">
<title>Node7</title>
<g id="a_node7"><a xlink:href="classirr_1_1core_1_1dimension2d.html" target="_top" xlink:title="Specifies a 2 dimensional size.">
<polygon fill="white" stroke="black" points="98,-108.5 98,-127.5 250,-127.5 250,-108.5 98,-108.5"/>
<text text-anchor="middle" x="174" y="-115.5" font-family="Helvetica,sans-Serif" font-size="10.00">irr::core::dimension2d&lt; T &gt;</text>
</a>
</g>
</g>
<!-- Node7&#45;&gt;Node5 -->
<g id="edge6" class="edge">
<title>Node7&#45;&gt;Node5</title>
<path fill="none" stroke="orange" stroke-dasharray="5,2" d="M260.77,-114.64C291.8,-114.43 327.06,-115.36 359,-119 365.37,-119.72 371.96,-120.75 378.52,-121.95"/>
<polygon fill="orange" stroke="orange" points="260.38,-111.14 250.42,-114.75 260.45,-118.14 260.38,-111.14"/>
<text text-anchor="middle" x="313.5" y="-122" font-family="Helvetica,sans-Serif" font-size="10.00"> &lt; u32 &gt;</text>
</g>
<!-- Node8 -->
<g id="node8" class="node">
<title>Node8</title>
<g id="a_node8"><a xlink:title=" ">
<polygon fill="white" stroke="#bfbfbf" points="0,-108.5 0,-127.5 29,-127.5 29,-108.5 0,-108.5"/>
<text text-anchor="middle" x="14.5" y="-115.5" font-family="Helvetica,sans-Serif" font-size="10.00">T</text>
</a>
</g>
</g>
<!-- Node8&#45;&gt;Node7 -->
<g id="edge7" class="edge">
<title>Node8&#45;&gt;Node7</title>
<path fill="none" stroke="#9a32cd" stroke-dasharray="5,2" d="M39.56,-118C55.3,-118 76.81,-118 97.96,-118"/>
<polygon fill="#9a32cd" stroke="#9a32cd" points="39.2,-114.5 29.2,-118 39.2,-121.5 39.2,-114.5"/>
<text text-anchor="middle" x="63.5" y="-132" font-family="Helvetica,sans-Serif" font-size="10.00"> Width</text>
<text text-anchor="middle" x="63.5" y="-121" font-family="Helvetica,sans-Serif" font-size="10.00">Height</text>
</g>
<!-- Node9 -->
<g id="node9" class="node">
<title>Node9</title>
<g id="a_node9"><a xlink:title=" ">
<polygon fill="white" stroke="#bfbfbf" points="388.5,-83.5 388.5,-102.5 491.5,-102.5 491.5,-83.5 388.5,-83.5"/>
<text text-anchor="middle" x="440" y="-90.5" font-family="Helvetica,sans-Serif" font-size="10.00">ECOLOR_FORMAT</text>
</a>
</g>
</g>
<!-- Node9&#45;&gt;Node1 -->
<g id="edge8" class="edge">
<title>Node9&#45;&gt;Node1</title>
<path fill="none" stroke="#9a32cd" stroke-dasharray="5,2" d="M501.72,-97.07C540.94,-99.91 593.04,-104.06 639,-109 644.72,-109.61 650.7,-110.32 656.64,-111.07"/>
<polygon fill="#9a32cd" stroke="#9a32cd" points="501.75,-93.56 491.53,-96.34 501.25,-100.55 501.75,-93.56"/>
<text text-anchor="middle" x="580" y="-112" font-family="Helvetica,sans-Serif" font-size="10.00"> Format</text>
</g>
<!-- Node10 -->
<g id="node10" class="node">
<title>Node10</title>
<g id="a_node10"><a xlink:href="classbool.html" target="_top" xlink:title=" ">
<polygon fill="white" stroke="black" points="421,-45.5 421,-64.5 459,-64.5 459,-45.5 421,-45.5"/>
<text text-anchor="middle" x="440" y="-52.5" font-family="Helvetica,sans-Serif" font-size="10.00">bool</text>
</a>
</g>
</g>
<!-- Node10&#45;&gt;Node1 -->
<g id="edge10" class="edge">
<title>Node10&#45;&gt;Node1</title>
<path fill="none" stroke="#9a32cd" stroke-dasharray="5,2" d="M469.26,-53.25C508.54,-51.78 581.32,-52.53 639,-73 661.18,-80.87 683.11,-97.79 695.56,-108.49"/>
<polygon fill="#9a32cd" stroke="#9a32cd" points="468.94,-49.77 459.11,-53.71 469.26,-56.76 468.94,-49.77"/>
<text text-anchor="middle" x="580" y="-87" font-family="Helvetica,sans-Serif" font-size="10.00"> DeleteMemory</text>
<text text-anchor="middle" x="580" y="-76" font-family="Helvetica,sans-Serif" font-size="10.00">DeleteMipMapsMemory</text>
</g>
<!-- Node11 -->
<g id="node11" class="node">
<title>Node11</title>
<g id="a_node11"><a xlink:title=" ">
<polygon fill="white" stroke="#bfbfbf" points="415,-0.5 415,-19.5 465,-19.5 465,-0.5 415,-0.5"/>
<text text-anchor="middle" x="440" y="-7.5" font-family="Helvetica,sans-Serif" font-size="10.00">uint8_t</text>
</a>
</g>
</g>
<!-- Node11&#45;&gt;Node1 -->
<g id="edge11" class="edge">
<title>Node11&#45;&gt;Node1</title>
<path fill="none" stroke="#9a32cd" stroke-dasharray="5,2" d="M475.22,-5.07C516.76,-0.8 587.62,0.79 639,-28 672.14,-46.57 693.67,-89.07 702.04,-108.27"/>
<polygon fill="#9a32cd" stroke="#9a32cd" points="474.61,-1.61 465.07,-6.22 475.4,-8.57 474.61,-1.61"/>
<text text-anchor="middle" x="580" y="-42" font-family="Helvetica,sans-Serif" font-size="10.00"> MipMapsData</text>
<text text-anchor="middle" x="580" y="-31" font-family="Helvetica,sans-Serif" font-size="10.00">Data</text>
</g>
</g>
</svg>
