<?xml version="1.0" encoding="UTF-8" standalone="no"?>
<!DOCTYPE svg PUBLIC "-//W3C//DTD SVG 1.1//EN"
 "http://www.w3.org/Graphics/SVG/1.1/DTD/svg11.dtd">
<!-- Generated by graphviz version 2.43.0 (0)
 -->
<!-- Title: irr::video::IImageLoader Pages: 1 -->
<svg width="497pt" height="142pt"
 viewBox="0.00 0.00 497.00 142.00" xmlns="http://www.w3.org/2000/svg" xmlns:xlink="http://www.w3.org/1999/xlink">
<g id="graph0" class="graph" transform="scale(1 1) rotate(0) translate(4 138)">
<title>irr::video::IImageLoader</title>
<polygon fill="white" stroke="transparent" points="-4,4 -4,-138 493,-138 493,4 -4,4"/>
<!-- Node1 -->
<g id="node1" class="node">
<title>Node1</title>
<g id="a_node1"><a xlink:title="Class which is able to create a image from a file.">
<polygon fill="#bfbfbf" stroke="black" points="162,-57.5 162,-76.5 295,-76.5 295,-57.5 162,-57.5"/>
<text text-anchor="middle" x="228.5" y="-64.5" font-family="Helvetica,sans-Serif" font-size="10.00">irr::video::IImageLoader</text>
</a>
</g>
</g>
<!-- Node3 -->
<g id="node3" class="node">
<title>Node3</title>
<g id="a_node3"><a xlink:href="classirr_1_1video_1_1CImageLoaderBMP.html" target="_top" xlink:title=" ">
<polygon fill="white" stroke="black" points="331,-114.5 331,-133.5 489,-133.5 489,-114.5 331,-114.5"/>
<text text-anchor="middle" x="410" y="-121.5" font-family="Helvetica,sans-Serif" font-size="10.00">irr::video::CImageLoaderBMP</text>
</a>
</g>
</g>
<!-- Node1&#45;&gt;Node3 -->
<g id="edge2" class="edge">
<title>Node1&#45;&gt;Node3</title>
<path fill="none" stroke="midnightblue" d="M262.06,-80.32C281.8,-88.11 307.62,-97.8 331,-105 342.19,-108.44 354.43,-111.67 365.84,-114.46"/>
<polygon fill="midnightblue" stroke="midnightblue" points="263.2,-77.01 252.61,-76.55 260.6,-83.51 263.2,-77.01"/>
</g>
<!-- Node4 -->
<g id="node4" class="node">
<title>Node4</title>
<g id="a_node4"><a xlink:href="classirr_1_1video_1_1CImageLoaderJPG.html" target="_top" xlink:title="Surface Loader for JPG images.">
<polygon fill="white" stroke="black" points="333.5,-76.5 333.5,-95.5 486.5,-95.5 486.5,-76.5 333.5,-76.5"/>
<text text-anchor="middle" x="410" y="-83.5" font-family="Helvetica,sans-Serif" font-size="10.00">irr::video::CImageLoaderJPG</text>
</a>
</g>
</g>
<!-- Node1&#45;&gt;Node4 -->
<g id="edge3" class="edge">
<title>Node1&#45;&gt;Node4</title>
<path fill="none" stroke="midnightblue" d="M305.08,-75C314.41,-75.99 323.94,-77 333.27,-77.98"/>
<polygon fill="midnightblue" stroke="midnightblue" points="305.38,-71.51 295.07,-73.94 304.64,-78.47 305.38,-71.51"/>
</g>
<!-- Node5 -->
<g id="node5" class="node">
<title>Node5</title>
<g id="a_node5"><a xlink:href="classirr_1_1video_1_1CImageLoaderPng.html" target="_top" xlink:title="Surface Loader for PNG files.">
<polygon fill="white" stroke="black" points="332.5,-38.5 332.5,-57.5 487.5,-57.5 487.5,-38.5 332.5,-38.5"/>
<text text-anchor="middle" x="410" y="-45.5" font-family="Helvetica,sans-Serif" font-size="10.00">irr::video::CImageLoaderPng</text>
</a>
</g>
</g>
<!-- Node1&#45;&gt;Node5 -->
<g id="edge4" class="edge">
<title>Node1&#45;&gt;Node5</title>
<path fill="none" stroke="midnightblue" d="M305.13,-58.99C314.13,-58.04 323.33,-57.07 332.35,-56.11"/>
<polygon fill="midnightblue" stroke="midnightblue" points="304.64,-55.53 295.07,-60.06 305.38,-62.49 304.64,-55.53"/>
</g>
<!-- Node6 -->
<g id="node6" class="node">
<title>Node6</title>
<g id="a_node6"><a xlink:href="classirr_1_1video_1_1CImageLoaderTGA.html" target="_top" xlink:title=" ">
<polygon fill="white" stroke="black" points="331.5,-0.5 331.5,-19.5 488.5,-19.5 488.5,-0.5 331.5,-0.5"/>
<text text-anchor="middle" x="410" y="-7.5" font-family="Helvetica,sans-Serif" font-size="10.00">irr::video::CImageLoaderTGA</text>
</a>
</g>
</g>
<!-- Node1&#45;&gt;Node6 -->
<g id="edge5" class="edge">
<title>Node1&#45;&gt;Node6</title>
<path fill="none" stroke="midnightblue" d="M262.06,-53.68C281.8,-45.89 307.62,-36.2 331,-29 342.19,-25.56 354.43,-22.33 365.84,-19.54"/>
<polygon fill="midnightblue" stroke="midnightblue" points="260.6,-50.49 252.61,-57.45 263.2,-56.99 260.6,-50.49"/>
</g>
<!-- Node2 -->
<g id="node2" class="node">
<title>Node2</title>
<g id="a_node2"><a xlink:href="classirr_1_1IReferenceCounted.html" target="_top" xlink:title="Base class of most objects of the Irrlicht Engine.">
<polygon fill="white" stroke="black" points="0,-57.5 0,-76.5 126,-76.5 126,-57.5 0,-57.5"/>
<text text-anchor="middle" x="63" y="-64.5" font-family="Helvetica,sans-Serif" font-size="10.00">irr::IReferenceCounted</text>
</a>
</g>
</g>
<!-- Node2&#45;&gt;Node1 -->
<g id="edge1" class="edge">
<title>Node2&#45;&gt;Node1</title>
<path fill="none" stroke="midnightblue" d="M136.49,-67C144.94,-67 153.51,-67 161.86,-67"/>
<polygon fill="midnightblue" stroke="midnightblue" points="136.28,-63.5 126.28,-67 136.28,-70.5 136.28,-63.5"/>
</g>
</g>
</svg>
