<?xml version="1.0" encoding="UTF-8" standalone="no"?>
<!DOCTYPE svg PUBLIC "-//W3C//DTD SVG 1.1//EN"
 "http://www.w3.org/Graphics/SVG/1.1/DTD/svg11.dtd">
<!-- Generated by graphviz version 2.43.0 (0)
 -->
<!-- Title: AsyncEngine::step Pages: 1 -->
<svg width="513pt" height="66pt"
 viewBox="0.00 0.00 513.00 66.00" xmlns="http://www.w3.org/2000/svg" xmlns:xlink="http://www.w3.org/1999/xlink">
<g id="graph0" class="graph" transform="scale(1 1) rotate(0) translate(4 62)">
<title>AsyncEngine::step</title>
<polygon fill="white" stroke="transparent" points="-4,4 -4,-62 509,-62 509,4 -4,4"/>
<!-- Node1 -->
<g id="node1" class="node">
<title>Node1</title>
<g id="a_node1"><a xlink:title=" ">
<polygon fill="#bfbfbf" stroke="black" points="0,-19.5 0,-38.5 106,-38.5 106,-19.5 0,-19.5"/>
<text text-anchor="middle" x="53" y="-26.5" font-family="Helvetica,sans-Serif" font-size="10.00">AsyncEngine::step</text>
</a>
</g>
</g>
<!-- Node2 -->
<g id="node2" class="node">
<title>Node2</title>
<g id="a_node2"><a xlink:href="classAsyncEngine.html#aa90657758913a483540b9ea460ed3c08" target="_top" xlink:title=" ">
<polygon fill="white" stroke="black" points="143.5,-38.5 143.5,-57.5 297.5,-57.5 297.5,-38.5 143.5,-38.5"/>
<text text-anchor="middle" x="220.5" y="-45.5" font-family="Helvetica,sans-Serif" font-size="10.00">AsyncEngine::stepAutoscale</text>
</a>
</g>
</g>
<!-- Node1&#45;&gt;Node2 -->
<g id="edge1" class="edge">
<title>Node1&#45;&gt;Node2</title>
<path fill="none" stroke="midnightblue" d="M106.37,-35.01C114.99,-36 124.12,-37.05 133.32,-38.11"/>
<polygon fill="midnightblue" stroke="midnightblue" points="132.96,-41.59 143.29,-39.25 133.75,-34.63 132.96,-41.59"/>
</g>
<!-- Node4 -->
<g id="node4" class="node">
<title>Node4</title>
<g id="a_node4"><a xlink:href="classAsyncEngine.html#a88f7cb254ce6996b4decba3b0360e899" target="_top" xlink:title=" ">
<polygon fill="white" stroke="black" points="142,-0.5 142,-19.5 299,-19.5 299,-0.5 142,-0.5"/>
<text text-anchor="middle" x="220.5" y="-7.5" font-family="Helvetica,sans-Serif" font-size="10.00">AsyncEngine::stepJobResults</text>
</a>
</g>
</g>
<!-- Node1&#45;&gt;Node4 -->
<g id="edge3" class="edge">
<title>Node1&#45;&gt;Node4</title>
<path fill="none" stroke="midnightblue" d="M106.37,-22.99C114.47,-22.06 123.02,-21.08 131.64,-20.09"/>
<polygon fill="midnightblue" stroke="midnightblue" points="132.24,-23.54 141.78,-18.92 131.44,-16.59 132.24,-23.54"/>
</g>
<!-- Node3 -->
<g id="node3" class="node">
<title>Node3</title>
<g id="a_node3"><a xlink:href="classAsyncEngine.html#ae43de9fc026cb302704190c78335c770" target="_top" xlink:title=" ">
<polygon fill="white" stroke="black" points="335,-38.5 335,-57.5 505,-57.5 505,-38.5 335,-38.5"/>
<text text-anchor="middle" x="420" y="-45.5" font-family="Helvetica,sans-Serif" font-size="10.00">AsyncEngine::addWorkerThread</text>
</a>
</g>
</g>
<!-- Node2&#45;&gt;Node3 -->
<g id="edge2" class="edge">
<title>Node2&#45;&gt;Node3</title>
<path fill="none" stroke="midnightblue" d="M297.58,-48C306.42,-48 315.52,-48 324.57,-48"/>
<polygon fill="midnightblue" stroke="midnightblue" points="324.75,-51.5 334.75,-48 324.75,-44.5 324.75,-51.5"/>
</g>
</g>
</svg>
