<?xml version="1.0" encoding="UTF-8" standalone="no"?>
<!DOCTYPE svg PUBLIC "-//W3C//DTD SVG 1.1//EN"
 "http://www.w3.org/Graphics/SVG/1.1/DTD/svg11.dtd">
<!-- Generated by graphviz version 2.43.0 (0)
 -->
<!-- Title: irr::gui::CGUIFileOpenDialog Pages: 1 -->
<!--zoomable 930 -->
<svg id="main" version="1.1" xmlns="http://www.w3.org/2000/svg" xmlns:xlink="http://www.w3.org/1999/xlink" xml:space="preserve" onload="init(evt)">
<style type="text/css"><![CDATA[
.edge:hover path { stroke: red; }
.edge:hover polygon { stroke: red; fill: red; }
]]></style>
<script type="text/javascript"><![CDATA[
var edges = document.getElementsByTagName('g');
if (edges && edges.length) {
  for (var i=0;i<edges.length;i++) {
    if (edges[i].id.substr(0,4)=='edge') {
      edges[i].setAttribute('class','edge');
    }
  }
}
]]></script>
        <defs>
                <circle id="rim" cx="0" cy="0" r="7"/>
                <circle id="rim2" cx="0" cy="0" r="3.5"/>
                <g id="zoomPlus">
                        <use xlink:href="#rim" fill="#404040">
                                <set attributeName="fill" to="#808080" begin="zoomplus.mouseover" end="zoomplus.mouseout"/>
                        </use>
                        <path d="M-4,0h8M0,-4v8" fill="none" stroke="white" stroke-width="1.5" pointer-events="none"/>
                </g>
                <g id="zoomMin">
                        <use xlink:href="#rim" fill="#404040">
                                <set attributeName="fill" to="#808080" begin="zoomminus.mouseover" end="zoomminus.mouseout"/>
                        </use>
                        <path d="M-4,0h8" fill="none" stroke="white" stroke-width="1.5" pointer-events="none"/>
                </g>
                <g id="dirArrow">
                        <path fill="none" stroke="white" stroke-width="1.5" d="M0,-3.0v7 M-2.5,-0.5L0,-3.0L2.5,-0.5"/>
                </g>
               <g id="resetDef">
                       <use xlink:href="#rim2" fill="#404040">
                               <set attributeName="fill" to="#808080" begin="reset.mouseover" end="reset.mouseout"/>
                       </use>
               </g>
        </defs>

<script type="text/javascript">
var viewWidth = 1502;
var viewHeight = 930;
var sectionId = 'dynsection-1';
</script>
<script xlink:href="svgpan.js"/>
<svg id="graph" class="graph">
<g id="viewport">
<title>irr::gui::CGUIFileOpenDialog</title>
<polygon fill="white" stroke="transparent" points="-4,4 -4,-925.87 1498,-925.87 1498,4 -4,4"/>
<!-- Node1 -->
<g id="node1" class="node">
<title>Node1</title>
<g id="a_node1"><a xlink:title=" ">
<polygon fill="#bfbfbf" stroke="black" points="1341,-474.37 1341,-493.37 1494,-493.37 1494,-474.37 1341,-474.37"/>
<text text-anchor="middle" x="1417.5" y="-481.37" font-family="Helvetica,sans-Serif" font-size="10.00">irr::gui::CGUIFileOpenDialog</text>
</a>
</g>
</g>
<!-- Node2 -->
<g id="node2" class="node">
<title>Node2</title>
<g id="a_node2"><a xlink:href="classirr_1_1gui_1_1IGUIFileOpenDialog.html" target="_top" xlink:title="Standard file chooser dialog.">
<polygon fill="white" stroke="black" points="1071,-389.37 1071,-408.37 1220,-408.37 1220,-389.37 1071,-389.37"/>
<text text-anchor="middle" x="1145.5" y="-396.37" font-family="Helvetica,sans-Serif" font-size="10.00">irr::gui::IGUIFileOpenDialog</text>
</a>
</g>
</g>
<!-- Node2&#45;&gt;Node1 -->
<g id="edge1" class="edge">
<title>Node2&#45;&gt;Node1</title>
<path fill="none" stroke="midnightblue" d="M1230.07,-408.13C1259.97,-412.97 1293.54,-420.2 1323,-430.87 1353.35,-441.86 1385.38,-462.2 1402.96,-474.24"/>
<polygon fill="midnightblue" stroke="midnightblue" points="1230.5,-404.66 1220.08,-406.58 1229.43,-411.57 1230.5,-404.66"/>
</g>
<!-- Node3 -->
<g id="node3" class="node">
<title>Node3</title>
<g id="a_node3"><a xlink:href="classirr_1_1gui_1_1IGUIElement.html" target="_top" xlink:title="Base class of all GUI elements.">
<polygon fill="white" stroke="black" points="814.5,-474.37 814.5,-493.37 930.5,-493.37 930.5,-474.37 814.5,-474.37"/>
<text text-anchor="middle" x="872.5" y="-481.37" font-family="Helvetica,sans-Serif" font-size="10.00">irr::gui::IGUIElement</text>
</a>
</g>
</g>
<!-- Node3&#45;&gt;Node1 -->
<g id="edge34" class="edge">
<title>Node3&#45;&gt;Node1</title>
<path fill="none" stroke="#9a32cd" stroke-dasharray="5,2" d="M932.27,-472.57C971.41,-465.63 1024.07,-457.41 1071,-453.87 1137.03,-448.88 1153.97,-448.86 1220,-453.87 1270.76,-457.72 1328.26,-467.09 1367.88,-474.35"/>
<polygon fill="#9a32cd" stroke="#9a32cd" points="931.59,-469.13 922.37,-474.35 932.83,-476.02 931.59,-469.13"/>
<text text-anchor="middle" x="1145.5" y="-456.87" font-family="Helvetica,sans-Serif" font-size="10.00"> EventParent</text>
</g>
<!-- Node3&#45;&gt;Node2 -->
<g id="edge2" class="edge">
<title>Node3&#45;&gt;Node2</title>
<path fill="none" stroke="midnightblue" d="M893.81,-468.14C910.43,-456.06 935.03,-439.97 959,-430.87 994.59,-417.36 1036.21,-409.51 1070.99,-404.98"/>
<polygon fill="midnightblue" stroke="midnightblue" points="891.38,-465.58 885.45,-474.36 895.56,-471.2 891.38,-465.58"/>
</g>
<!-- Node3&#45;&gt;Node3 -->
<g id="edge7" class="edge">
<title>Node3&#45;&gt;Node3</title>
<path fill="none" stroke="#9a32cd" stroke-dasharray="5,2" d="M847.95,-502.9C849.29,-508 857.47,-511.87 872.5,-511.87 895.96,-511.87 902.74,-502.43 892.85,-493.63"/>
<polygon fill="#9a32cd" stroke="#9a32cd" points="851.21,-504.18 852.15,-493.63 844.83,-501.29 851.21,-504.18"/>
<text text-anchor="middle" x="872.5" y="-514.87" font-family="Helvetica,sans-Serif" font-size="10.00"> Parent</text>
</g>
<!-- Node27 -->
<g id="node27" class="node">
<title>Node27</title>
<g id="a_node27"><a xlink:href="classirr_1_1gui_1_1IGUIButton.html" target="_top" xlink:title="GUI Button interface.">
<polygon fill="white" stroke="black" points="1092,-550.37 1092,-569.37 1199,-569.37 1199,-550.37 1092,-550.37"/>
<text text-anchor="middle" x="1145.5" y="-557.37" font-family="Helvetica,sans-Serif" font-size="10.00">irr::gui::IGUIButton</text>
</a>
</g>
</g>
<!-- Node3&#45;&gt;Node27 -->
<g id="edge32" class="edge">
<title>Node3&#45;&gt;Node27</title>
<path fill="none" stroke="midnightblue" d="M904.39,-497.5C920.46,-504.25 940.55,-512.15 959,-517.87 1003.31,-531.61 1054.86,-542.91 1092.35,-550.32"/>
<polygon fill="midnightblue" stroke="midnightblue" points="905.52,-494.18 894.95,-493.48 902.78,-500.62 905.52,-494.18"/>
</g>
<!-- Node29 -->
<g id="node29" class="node">
<title>Node29</title>
<g id="a_node29"><a xlink:href="classirr_1_1gui_1_1IGUIListBox.html" target="_top" xlink:title="Default list box GUI element.">
<polygon fill="white" stroke="black" points="1090,-512.37 1090,-531.37 1201,-531.37 1201,-512.37 1090,-512.37"/>
<text text-anchor="middle" x="1145.5" y="-519.37" font-family="Helvetica,sans-Serif" font-size="10.00">irr::gui::IGUIListBox</text>
</a>
</g>
</g>
<!-- Node3&#45;&gt;Node29 -->
<g id="edge39" class="edge">
<title>Node3&#45;&gt;Node29</title>
<path fill="none" stroke="midnightblue" d="M940.05,-494.99C946.45,-495.99 952.85,-496.97 959,-497.87 1002.86,-504.3 1052.68,-510.69 1089.64,-515.26"/>
<polygon fill="midnightblue" stroke="midnightblue" points="940.45,-491.51 930.03,-493.4 939.36,-498.42 940.45,-491.51"/>
</g>
<!-- Node31 -->
<g id="node31" class="node">
<title>Node31</title>
<g id="a_node31"><a xlink:href="classirr_1_1gui_1_1IGUIEditBox.html" target="_top" xlink:title="Single line edit box for editing simple text.">
<polygon fill="white" stroke="black" points="1089,-474.37 1089,-493.37 1202,-493.37 1202,-474.37 1089,-474.37"/>
<text text-anchor="middle" x="1145.5" y="-481.37" font-family="Helvetica,sans-Serif" font-size="10.00">irr::gui::IGUIEditBox</text>
</a>
</g>
</g>
<!-- Node3&#45;&gt;Node31 -->
<g id="edge44" class="edge">
<title>Node3&#45;&gt;Node31</title>
<path fill="none" stroke="midnightblue" d="M940.73,-483.87C986.33,-483.87 1045.89,-483.87 1088.83,-483.87"/>
<polygon fill="midnightblue" stroke="midnightblue" points="940.64,-480.37 930.64,-483.87 940.64,-487.37 940.64,-480.37"/>
</g>
<!-- Node4 -->
<g id="node4" class="node">
<title>Node4</title>
<g id="a_node4"><a xlink:href="classirr_1_1IReferenceCounted.html" target="_top" xlink:title="Base class of most objects of the Irrlicht Engine.">
<polygon fill="white" stroke="black" points="236,-775.37 236,-794.37 362,-794.37 362,-775.37 236,-775.37"/>
<text text-anchor="middle" x="299" y="-782.37" font-family="Helvetica,sans-Serif" font-size="10.00">irr::IReferenceCounted</text>
</a>
</g>
</g>
<!-- Node4&#45;&gt;Node3 -->
<g id="edge3" class="edge">
<title>Node4&#45;&gt;Node3</title>
<path fill="none" stroke="midnightblue" d="M361.3,-795.87C461.77,-810.22 662.61,-822.98 786,-723.87 861.69,-663.07 870.44,-530.09 871.4,-493.41"/>
<polygon fill="midnightblue" stroke="midnightblue" points="361.72,-792.4 351.32,-794.39 360.69,-799.32 361.72,-792.4"/>
</g>
<!-- Node18 -->
<g id="node18" class="node">
<title>Node18</title>
<g id="a_node18"><a xlink:href="classirr_1_1gui_1_1IGUIEnvironment.html" target="_top" xlink:title="GUI Environment. Used as factory and manager of all other GUI elements.">
<polygon fill="white" stroke="black" points="511,-585.37 511,-604.37 648,-604.37 648,-585.37 511,-585.37"/>
<text text-anchor="middle" x="579.5" y="-592.37" font-family="Helvetica,sans-Serif" font-size="10.00">irr::gui::IGUIEnvironment</text>
</a>
</g>
</g>
<!-- Node4&#45;&gt;Node18 -->
<g id="edge19" class="edge">
<title>Node4&#45;&gt;Node18</title>
<path fill="none" stroke="midnightblue" d="M341.93,-772.06C383.4,-757.22 445.64,-728.77 481,-682.87 500.34,-657.76 476.36,-636.05 499,-613.87 502.85,-610.1 507.31,-607.02 512.12,-604.53"/>
<polygon fill="midnightblue" stroke="midnightblue" points="340.68,-768.78 332.38,-775.36 342.97,-775.4 340.68,-768.78"/>
</g>
<!-- Node28 -->
<g id="node28" class="node">
<title>Node28</title>
<g id="a_node28"><a xlink:href="classirr_1_1io_1_1IFileSystem.html" target="_top" xlink:title="The FileSystem manages files and archives and provides access to them.">
<polygon fill="white" stroke="black" points="679.5,-851.37 679.5,-870.37 784.5,-870.37 784.5,-851.37 679.5,-851.37"/>
<text text-anchor="middle" x="732" y="-858.37" font-family="Helvetica,sans-Serif" font-size="10.00">irr::io::IFileSystem</text>
</a>
</g>
</g>
<!-- Node4&#45;&gt;Node28 -->
<g id="edge37" class="edge">
<title>Node4&#45;&gt;Node28</title>
<path fill="none" stroke="midnightblue" d="M321.31,-800.39C339.41,-812.65 366.59,-828.98 393,-836.87 491.08,-866.18 611.98,-866.73 679.37,-864.08"/>
<polygon fill="midnightblue" stroke="midnightblue" points="322.93,-797.25 312.72,-794.41 318.93,-803 322.93,-797.25"/>
</g>
<!-- Node30 -->
<g id="node30" class="node">
<title>Node30</title>
<g id="a_node30"><a xlink:href="classirr_1_1io_1_1IFileList.html" target="_top" xlink:title="Provides a list of files and folders.">
<polygon fill="white" stroke="black" points="963,-809.37 963,-828.37 1049,-828.37 1049,-809.37 963,-809.37"/>
<text text-anchor="middle" x="1006" y="-816.37" font-family="Helvetica,sans-Serif" font-size="10.00">irr::io::IFileList</text>
</a>
</g>
</g>
<!-- Node4&#45;&gt;Node30 -->
<g id="edge42" class="edge">
<title>Node4&#45;&gt;Node30</title>
<path fill="none" stroke="midnightblue" d="M339.57,-797.28C355.94,-801.84 375.21,-806.46 393,-808.87 605.45,-837.61 863.14,-827.26 962.82,-821.58"/>
<polygon fill="midnightblue" stroke="midnightblue" points="340.38,-793.87 329.8,-794.48 338.44,-800.6 340.38,-793.87"/>
</g>
<!-- Node5 -->
<g id="node5" class="node">
<title>Node5</title>
<g id="a_node5"><a xlink:title=" ">
<polygon fill="white" stroke="#bfbfbf" points="29,-775.37 29,-794.37 67,-794.37 67,-775.37 29,-775.37"/>
<text text-anchor="middle" x="48" y="-782.37" font-family="Helvetica,sans-Serif" font-size="10.00">char</text>
</a>
</g>
</g>
<!-- Node5&#45;&gt;Node4 -->
<g id="edge4" class="edge">
<title>Node5&#45;&gt;Node4</title>
<path fill="none" stroke="#9a32cd" stroke-dasharray="5,2" d="M77.75,-784.87C116.19,-784.87 185.34,-784.87 235.94,-784.87"/>
<polygon fill="#9a32cd" stroke="#9a32cd" points="77.31,-781.37 67.31,-784.87 77.31,-788.37 77.31,-781.37"/>
<text text-anchor="middle" x="159.5" y="-787.87" font-family="Helvetica,sans-Serif" font-size="10.00"> DebugName</text>
</g>
<!-- Node6 -->
<g id="node6" class="node">
<title>Node6</title>
<g id="a_node6"><a xlink:title=" ">
<polygon fill="white" stroke="#bfbfbf" points="23,-575.37 23,-594.37 73,-594.37 73,-575.37 23,-575.37"/>
<text text-anchor="middle" x="48" y="-582.37" font-family="Helvetica,sans-Serif" font-size="10.00">int32_t</text>
</a>
</g>
</g>
<!-- Node6&#45;&gt;Node3 -->
<g id="edge20" class="edge">
<title>Node6&#45;&gt;Node3</title>
<path fill="none" stroke="#9a32cd" stroke-dasharray="5,2" d="M83.14,-575.94C118.04,-567.17 173.93,-554.07 223,-546.87 471.26,-510.45 538.18,-544.16 786,-504.87 803.36,-502.12 822.38,-497.6 838.06,-493.46"/>
<polygon fill="#9a32cd" stroke="#9a32cd" points="81.84,-572.66 73.01,-578.52 83.57,-579.44 81.84,-572.66"/>
<text text-anchor="middle" x="437" y="-542.87" font-family="Helvetica,sans-Serif" font-size="10.00"> TabOrder</text>
<text text-anchor="middle" x="437" y="-531.87" font-family="Helvetica,sans-Serif" font-size="10.00">ID</text>
</g>
<!-- Node6&#45;&gt;Node4 -->
<g id="edge5" class="edge">
<title>Node6&#45;&gt;Node4</title>
<path fill="none" stroke="#9a32cd" stroke-dasharray="5,2" d="M69.09,-601.01C118.82,-640.95 246.52,-743.52 286.11,-775.32"/>
<polygon fill="#9a32cd" stroke="#9a32cd" points="71,-598.05 61.01,-594.52 66.61,-603.51 71,-598.05"/>
<text text-anchor="middle" x="159.5" y="-710.87" font-family="Helvetica,sans-Serif" font-size="10.00"> ReferenceCounter</text>
</g>
<!-- Node7 -->
<g id="node7" class="node">
<title>Node7</title>
<g id="a_node7"><a xlink:href="classirr_1_1IEventReceiver.html" target="_top" xlink:title="Interface of an object which can receive events.">
<polygon fill="white" stroke="black" points="526,-661.37 526,-680.37 633,-680.37 633,-661.37 526,-661.37"/>
<text text-anchor="middle" x="579.5" y="-668.37" font-family="Helvetica,sans-Serif" font-size="10.00">irr::IEventReceiver</text>
</a>
</g>
</g>
<!-- Node7&#45;&gt;Node3 -->
<g id="edge6" class="edge">
<title>Node7&#45;&gt;Node3</title>
<path fill="none" stroke="midnightblue" d="M626.5,-682.38C671.04,-690.75 738.62,-695.87 786,-664.87 848.24,-624.15 866.17,-525.03 870.38,-493.6"/>
<polygon fill="midnightblue" stroke="midnightblue" points="627.02,-678.91 616.53,-680.38 625.64,-685.78 627.02,-678.91"/>
</g>
<!-- Node8 -->
<g id="node8" class="node">
<title>Node8</title>
<g id="a_node8"><a xlink:title=" ">
<polygon fill="white" stroke="#bfbfbf" points="527,-133.37 527,-152.37 632,-152.37 632,-133.37 527,-133.37"/>
<text text-anchor="middle" x="579.5" y="-140.37" font-family="Helvetica,sans-Serif" font-size="10.00">string&lt; wchar_t &gt;</text>
</a>
</g>
</g>
<!-- Node8&#45;&gt;Node1 -->
<g id="edge35" class="edge">
<title>Node8&#45;&gt;Node1</title>
<path fill="none" stroke="#9a32cd" stroke-dasharray="5,2" d="M640.25,-131.77C681.38,-125.77 737.2,-120.89 786,-127.87 986.5,-156.56 1044.24,-166.22 1220,-266.87 1271.51,-296.36 1282.6,-308.38 1323,-351.87 1361.61,-393.43 1397.5,-451.59 1410.93,-474.28"/>
<polygon fill="#9a32cd" stroke="#9a32cd" points="639.48,-128.34 630.12,-133.31 640.53,-135.26 639.48,-128.34"/>
<text text-anchor="middle" x="1006" y="-196.87" font-family="Helvetica,sans-Serif" font-size="10.00"> FileDirectoryFlatW</text>
<text text-anchor="middle" x="1006" y="-185.87" font-family="Helvetica,sans-Serif" font-size="10.00">FileNameW</text>
</g>
<!-- Node8&#45;&gt;Node3 -->
<g id="edge8" class="edge">
<title>Node8&#45;&gt;Node3</title>
<path fill="none" stroke="#9a32cd" stroke-dasharray="5,2" d="M642.25,-133.54C687.3,-130.35 747.06,-134.14 786,-167.87 834.76,-210.1 864.27,-425.9 870.33,-474.25"/>
<polygon fill="#9a32cd" stroke="#9a32cd" points="641.67,-130.07 632,-134.4 642.26,-137.05 641.67,-130.07"/>
<text text-anchor="middle" x="732" y="-181.87" font-family="Helvetica,sans-Serif" font-size="10.00"> ToolTipText</text>
<text text-anchor="middle" x="732" y="-170.87" font-family="Helvetica,sans-Serif" font-size="10.00">Text</text>
</g>
<!-- Node9 -->
<g id="node9" class="node">
<title>Node9</title>
<g id="a_node9"><a xlink:title=" ">
<polygon fill="white" stroke="#bfbfbf" points="277,-196.37 277,-215.37 321,-215.37 321,-196.37 277,-196.37"/>
<text text-anchor="middle" x="299" y="-203.37" font-family="Helvetica,sans-Serif" font-size="10.00">string</text>
</a>
</g>
</g>
<!-- Node9&#45;&gt;Node8 -->
<g id="edge9" class="edge">
<title>Node9&#45;&gt;Node8</title>
<path fill="none" stroke="orange" stroke-dasharray="5,2" d="M331.32,-198.78C381.44,-187.45 479.74,-165.21 536.1,-152.46"/>
<polygon fill="orange" stroke="orange" points="330.37,-195.41 321.39,-201.03 331.92,-202.24 330.37,-195.41"/>
<text text-anchor="middle" x="437" y="-185.87" font-family="Helvetica,sans-Serif" font-size="10.00"> &lt; wchar_t &gt;</text>
</g>
<!-- Node19 -->
<g id="node19" class="node">
<title>Node19</title>
<g id="a_node19"><a xlink:title=" ">
<polygon fill="white" stroke="#bfbfbf" points="540.5,-261.37 540.5,-280.37 618.5,-280.37 618.5,-261.37 540.5,-261.37"/>
<text text-anchor="middle" x="579.5" y="-268.37" font-family="Helvetica,sans-Serif" font-size="10.00">string&lt; c8 &gt;</text>
</a>
</g>
</g>
<!-- Node9&#45;&gt;Node19 -->
<g id="edge22" class="edge">
<title>Node9&#45;&gt;Node19</title>
<path fill="none" stroke="orange" stroke-dasharray="5,2" d="M331.24,-213.16C382.52,-225.13 484.41,-248.91 540.05,-261.9"/>
<polygon fill="orange" stroke="orange" points="331.92,-209.73 321.39,-210.86 330.33,-216.54 331.92,-209.73"/>
<text text-anchor="middle" x="437" y="-250.87" font-family="Helvetica,sans-Serif" font-size="10.00"> &lt; c8 &gt;</text>
</g>
<!-- Node10 -->
<g id="node10" class="node">
<title>Node10</title>
<g id="a_node10"><a xlink:href="classirr_1_1core_1_1dimension2d.html" target="_top" xlink:title=" ">
<polygon fill="white" stroke="black" points="518,-396.87 518,-426.87 641,-426.87 641,-396.87 518,-396.87"/>
<text text-anchor="start" x="526" y="-414.87" font-family="Helvetica,sans-Serif" font-size="10.00">irr::core::dimension2d</text>
<text text-anchor="middle" x="579.5" y="-403.87" font-family="Helvetica,sans-Serif" font-size="10.00">&lt; u32 &gt;</text>
</a>
</g>
</g>
<!-- Node10&#45;&gt;Node3 -->
<g id="edge10" class="edge">
<title>Node10&#45;&gt;Node3</title>
<path fill="none" stroke="#9a32cd" stroke-dasharray="5,2" d="M651.31,-402.78C691.89,-400.2 743.11,-401.48 786,-416.87 819.02,-428.72 849.19,-458.72 863.22,-474.24"/>
<polygon fill="#9a32cd" stroke="#9a32cd" points="650.95,-399.3 641.23,-403.51 651.46,-406.28 650.95,-399.3"/>
<text text-anchor="middle" x="732" y="-430.87" font-family="Helvetica,sans-Serif" font-size="10.00"> MinSize</text>
<text text-anchor="middle" x="732" y="-419.87" font-family="Helvetica,sans-Serif" font-size="10.00">MaxSize</text>
</g>
<!-- Node11 -->
<g id="node11" class="node">
<title>Node11</title>
<g id="a_node11"><a xlink:title=" ">
<polygon fill="white" stroke="#bfbfbf" points="271,-398.37 271,-417.37 327,-417.37 327,-398.37 271,-398.37"/>
<text text-anchor="middle" x="299" y="-405.37" font-family="Helvetica,sans-Serif" font-size="10.00">uint32_t</text>
</a>
</g>
</g>
<!-- Node11&#45;&gt;Node10 -->
<g id="edge11" class="edge">
<title>Node11&#45;&gt;Node10</title>
<path fill="none" stroke="#9a32cd" stroke-dasharray="5,2" d="M337.5,-407.8C374.11,-407.8 431.39,-407.97 481,-408.87 492.94,-409.09 505.69,-409.41 517.91,-409.77"/>
<polygon fill="#9a32cd" stroke="#9a32cd" points="337.29,-404.3 327.29,-407.81 337.3,-411.3 337.29,-404.3"/>
<text text-anchor="middle" x="437" y="-422.87" font-family="Helvetica,sans-Serif" font-size="10.00"> Width</text>
<text text-anchor="middle" x="437" y="-411.87" font-family="Helvetica,sans-Serif" font-size="10.00">Height</text>
</g>
<!-- Node12 -->
<g id="node12" class="node">
<title>Node12</title>
<g id="a_node12"><a xlink:href="classirr_1_1core_1_1dimension2d.html" target="_top" xlink:title="Specifies a 2 dimensional size.">
<polygon fill="white" stroke="black" points="223,-360.37 223,-379.37 375,-379.37 375,-360.37 223,-360.37"/>
<text text-anchor="middle" x="299" y="-367.37" font-family="Helvetica,sans-Serif" font-size="10.00">irr::core::dimension2d&lt; T &gt;</text>
</a>
</g>
</g>
<!-- Node12&#45;&gt;Node10 -->
<g id="edge12" class="edge">
<title>Node12&#45;&gt;Node10</title>
<path fill="none" stroke="orange" stroke-dasharray="5,2" d="M385.13,-379.51C415.45,-383.26 449.81,-387.85 481,-392.87 492.92,-394.79 505.61,-397.07 517.76,-399.39"/>
<polygon fill="orange" stroke="orange" points="385.36,-376.01 375.01,-378.27 384.51,-382.96 385.36,-376.01"/>
<text text-anchor="middle" x="437" y="-395.87" font-family="Helvetica,sans-Serif" font-size="10.00"> &lt; u32 &gt;</text>
</g>
<!-- Node13 -->
<g id="node13" class="node">
<title>Node13</title>
<g id="a_node13"><a xlink:title=" ">
<polygon fill="white" stroke="#bfbfbf" points="33.5,-360.37 33.5,-379.37 62.5,-379.37 62.5,-360.37 33.5,-360.37"/>
<text text-anchor="middle" x="48" y="-367.37" font-family="Helvetica,sans-Serif" font-size="10.00">T</text>
</a>
</g>
</g>
<!-- Node13&#45;&gt;Node12 -->
<g id="edge13" class="edge">
<title>Node13&#45;&gt;Node12</title>
<path fill="none" stroke="#9a32cd" stroke-dasharray="5,2" d="M73.17,-369.87C107.49,-369.87 171.86,-369.87 222.96,-369.87"/>
<polygon fill="#9a32cd" stroke="#9a32cd" points="72.74,-366.37 62.74,-369.87 72.74,-373.37 72.74,-366.37"/>
<text text-anchor="middle" x="159.5" y="-383.87" font-family="Helvetica,sans-Serif" font-size="10.00"> Width</text>
<text text-anchor="middle" x="159.5" y="-372.87" font-family="Helvetica,sans-Serif" font-size="10.00">Height</text>
</g>
<!-- Node14 -->
<g id="node14" class="node">
<title>Node14</title>
<g id="a_node14"><a xlink:href="classirr_1_1core_1_1rect.html" target="_top" xlink:title=" ">
<polygon fill="white" stroke="black" points="520,-446.37 520,-465.37 639,-465.37 639,-446.37 520,-446.37"/>
<text text-anchor="middle" x="579.5" y="-453.37" font-family="Helvetica,sans-Serif" font-size="10.00">irr::core::rect&lt; s32 &gt;</text>
</a>
</g>
</g>
<!-- Node14&#45;&gt;Node3 -->
<g id="edge14" class="edge">
<title>Node14&#45;&gt;Node3</title>
<path fill="none" stroke="#9a32cd" stroke-dasharray="5,2" d="M649.03,-446.48C689.27,-442.79 740.92,-441.23 786,-449.87 810.32,-454.53 836.53,-466.01 853.43,-474.34"/>
<polygon fill="#9a32cd" stroke="#9a32cd" points="648.67,-442.99 639.06,-447.45 649.35,-449.96 648.67,-442.99"/>
<text text-anchor="middle" x="732" y="-496.87" font-family="Helvetica,sans-Serif" font-size="10.00"> AbsoluteClippingRect</text>
<text text-anchor="middle" x="732" y="-485.87" font-family="Helvetica,sans-Serif" font-size="10.00">LastParentRect</text>
<text text-anchor="middle" x="732" y="-474.87" font-family="Helvetica,sans-Serif" font-size="10.00">RelativeRect</text>
<text text-anchor="middle" x="732" y="-463.87" font-family="Helvetica,sans-Serif" font-size="10.00">DesiredRect</text>
<text text-anchor="middle" x="732" y="-452.87" font-family="Helvetica,sans-Serif" font-size="10.00">AbsoluteRect</text>
</g>
<!-- Node15 -->
<g id="node15" class="node">
<title>Node15</title>
<g id="a_node15"><a xlink:title=" ">
<polygon fill="white" stroke="#bfbfbf" points="245.5,-686.37 245.5,-705.37 352.5,-705.37 352.5,-686.37 245.5,-686.37"/>
<text text-anchor="middle" x="299" y="-693.37" font-family="Helvetica,sans-Serif" font-size="10.00">position2d&lt; s32 &gt;</text>
</a>
</g>
</g>
<!-- Node15&#45;&gt;Node1 -->
<g id="edge33" class="edge">
<title>Node15&#45;&gt;Node1</title>
<path fill="none" stroke="#9a32cd" stroke-dasharray="5,2" d="M356.01,-707.33C395.72,-714.85 450.39,-723.99 499,-727.87 570.33,-733.57 588.45,-729 660,-727.87 961.78,-723.08 1062.89,-733.97 1323,-580.87 1362.51,-557.61 1396.33,-513.11 1410.01,-493.52"/>
<polygon fill="#9a32cd" stroke="#9a32cd" points="356.47,-703.85 345.99,-705.4 355.15,-710.72 356.47,-703.85"/>
<text text-anchor="middle" x="872.5" y="-727.87" font-family="Helvetica,sans-Serif" font-size="10.00"> DragStart</text>
</g>
<!-- Node15&#45;&gt;Node14 -->
<g id="edge15" class="edge">
<title>Node15&#45;&gt;Node14</title>
<path fill="none" stroke="#9a32cd" stroke-dasharray="5,2" d="M337.19,-682.54C377.87,-666.18 442.41,-634.7 481,-587.87 496.02,-569.64 486.5,-557.91 499,-537.87 517.79,-507.76 549.17,-479.66 566.35,-465.49"/>
<polygon fill="#9a32cd" stroke="#9a32cd" points="335.67,-679.38 327.64,-686.28 338.23,-685.89 335.67,-679.38"/>
<text text-anchor="middle" x="437" y="-667.87" font-family="Helvetica,sans-Serif" font-size="10.00"> UpperLeftCorner</text>
<text text-anchor="middle" x="437" y="-656.87" font-family="Helvetica,sans-Serif" font-size="10.00">LowerRightCorner</text>
</g>
<!-- Node16 -->
<g id="node16" class="node">
<title>Node16</title>
<g id="a_node16"><a xlink:href="classirr_1_1core_1_1rect.html" target="_top" xlink:title="Rectangle template.">
<polygon fill="white" stroke="black" points="245.5,-458.37 245.5,-477.37 352.5,-477.37 352.5,-458.37 245.5,-458.37"/>
<text text-anchor="middle" x="299" y="-465.37" font-family="Helvetica,sans-Serif" font-size="10.00">irr::core::rect&lt; T &gt;</text>
</a>
</g>
</g>
<!-- Node16&#45;&gt;Node14 -->
<g id="edge16" class="edge">
<title>Node16&#45;&gt;Node14</title>
<path fill="none" stroke="orange" stroke-dasharray="5,2" d="M362.89,-457.1C372.93,-455.76 383.23,-454.6 393,-453.87 435.39,-450.7 483.39,-451.33 519.94,-452.68"/>
<polygon fill="orange" stroke="orange" points="362.37,-453.64 352.96,-458.5 363.35,-460.57 362.37,-453.64"/>
<text text-anchor="middle" x="437" y="-456.87" font-family="Helvetica,sans-Serif" font-size="10.00"> &lt; s32 &gt;</text>
</g>
<!-- Node20 -->
<g id="node20" class="node">
<title>Node20</title>
<g id="a_node20"><a xlink:href="classirr_1_1core_1_1rect.html" target="_top" xlink:title=" ">
<polygon fill="white" stroke="black" points="521,-547.37 521,-566.37 638,-566.37 638,-547.37 521,-547.37"/>
<text text-anchor="middle" x="579.5" y="-554.37" font-family="Helvetica,sans-Serif" font-size="10.00">irr::core::rect&lt; f32 &gt;</text>
</a>
</g>
</g>
<!-- Node16&#45;&gt;Node20 -->
<g id="edge25" class="edge">
<title>Node16&#45;&gt;Node20</title>
<path fill="none" stroke="orange" stroke-dasharray="5,2" d="M363,-467.13C398.65,-468.58 443.47,-473.62 481,-487.87 517.06,-501.56 552.19,-531.78 568.7,-547.29"/>
<polygon fill="orange" stroke="orange" points="362.83,-463.62 352.72,-466.8 362.6,-470.62 362.83,-463.62"/>
<text text-anchor="middle" x="437" y="-490.87" font-family="Helvetica,sans-Serif" font-size="10.00"> &lt; f32 &gt;</text>
</g>
<!-- Node17 -->
<g id="node17" class="node">
<title>Node17</title>
<g id="a_node17"><a xlink:title=" ">
<polygon fill="white" stroke="#bfbfbf" points="0,-458.37 0,-477.37 96,-477.37 96,-458.37 0,-458.37"/>
<text text-anchor="middle" x="48" y="-465.37" font-family="Helvetica,sans-Serif" font-size="10.00">position2d&lt; T &gt;</text>
</a>
</g>
</g>
<!-- Node17&#45;&gt;Node16 -->
<g id="edge17" class="edge">
<title>Node17&#45;&gt;Node16</title>
<path fill="none" stroke="#9a32cd" stroke-dasharray="5,2" d="M106.19,-467.87C148.13,-467.87 204.66,-467.87 245.47,-467.87"/>
<polygon fill="#9a32cd" stroke="#9a32cd" points="106.13,-464.37 96.13,-467.87 106.13,-471.37 106.13,-464.37"/>
<text text-anchor="middle" x="159.5" y="-481.87" font-family="Helvetica,sans-Serif" font-size="10.00"> UpperLeftCorner</text>
<text text-anchor="middle" x="159.5" y="-470.87" font-family="Helvetica,sans-Serif" font-size="10.00">LowerRightCorner</text>
</g>
<!-- Node18&#45;&gt;Node3 -->
<g id="edge18" class="edge">
<title>Node18&#45;&gt;Node3</title>
<path fill="none" stroke="#9a32cd" stroke-dasharray="5,2" d="M658.25,-587.96C706.66,-582.73 763.79,-574.62 786,-563.87 820.95,-546.95 851.34,-510.74 864.52,-493.45"/>
<polygon fill="#9a32cd" stroke="#9a32cd" points="657.65,-584.5 648.07,-589.03 658.38,-591.46 657.65,-584.5"/>
<text text-anchor="middle" x="732" y="-587.87" font-family="Helvetica,sans-Serif" font-size="10.00"> Environment</text>
</g>
<!-- Node19&#45;&gt;Node3 -->
<g id="edge21" class="edge">
<title>Node19&#45;&gt;Node3</title>
<path fill="none" stroke="#9a32cd" stroke-dasharray="5,2" d="M629,-276.26C685.76,-282.95 773.62,-294.59 786,-303.87 844.96,-348.07 865,-443.33 870.06,-474.08"/>
<polygon fill="#9a32cd" stroke="#9a32cd" points="629.13,-272.76 618.79,-275.08 628.32,-279.71 629.13,-272.76"/>
<text text-anchor="middle" x="732" y="-306.87" font-family="Helvetica,sans-Serif" font-size="10.00"> Name</text>
</g>
<!-- Node20&#45;&gt;Node3 -->
<g id="edge23" class="edge">
<title>Node20&#45;&gt;Node3</title>
<path fill="none" stroke="#9a32cd" stroke-dasharray="5,2" d="M648.5,-554.12C689.2,-550.97 741.49,-544.23 786,-529.87 812.79,-521.23 841.01,-504.28 857.4,-493.55"/>
<polygon fill="#9a32cd" stroke="#9a32cd" points="648.14,-550.64 638.42,-554.85 648.64,-557.62 648.14,-550.64"/>
<text text-anchor="middle" x="732" y="-553.87" font-family="Helvetica,sans-Serif" font-size="10.00"> ScaleRect</text>
</g>
<!-- Node21 -->
<g id="node21" class="node">
<title>Node21</title>
<g id="a_node21"><a xlink:title=" ">
<polygon fill="white" stroke="#bfbfbf" points="246,-556.37 246,-575.37 352,-575.37 352,-556.37 246,-556.37"/>
<text text-anchor="middle" x="299" y="-563.37" font-family="Helvetica,sans-Serif" font-size="10.00">position2d&lt; f32 &gt;</text>
</a>
</g>
</g>
<!-- Node21&#45;&gt;Node20 -->
<g id="edge24" class="edge">
<title>Node21&#45;&gt;Node20</title>
<path fill="none" stroke="#9a32cd" stroke-dasharray="5,2" d="M362.21,-563.86C409.7,-562.32 474.64,-560.23 520.94,-558.73"/>
<polygon fill="#9a32cd" stroke="#9a32cd" points="361.94,-560.37 352.06,-564.19 362.16,-567.36 361.94,-560.37"/>
<text text-anchor="middle" x="437" y="-575.87" font-family="Helvetica,sans-Serif" font-size="10.00"> UpperLeftCorner</text>
<text text-anchor="middle" x="437" y="-564.87" font-family="Helvetica,sans-Serif" font-size="10.00">LowerRightCorner</text>
</g>
<!-- Node22 -->
<g id="node22" class="node">
<title>Node22</title>
<g id="a_node22"><a xlink:href="classbool.html" target="_top" xlink:title=" ">
<polygon fill="white" stroke="black" points="560.5,-187.37 560.5,-206.37 598.5,-206.37 598.5,-187.37 560.5,-187.37"/>
<text text-anchor="middle" x="579.5" y="-194.37" font-family="Helvetica,sans-Serif" font-size="10.00">bool</text>
</a>
</g>
</g>
<!-- Node22&#45;&gt;Node1 -->
<g id="edge40" class="edge">
<title>Node22&#45;&gt;Node1</title>
<path fill="none" stroke="#9a32cd" stroke-dasharray="5,2" d="M608.62,-192.91C648.49,-188.1 723.55,-181.99 786,-193.87 1038.07,-241.83 1102.34,-274.91 1323,-405.87 1356.99,-426.05 1391.22,-458.37 1407.19,-474.32"/>
<polygon fill="#9a32cd" stroke="#9a32cd" points="608.06,-189.45 598.58,-194.19 608.94,-196.4 608.06,-189.45"/>
<text text-anchor="middle" x="1006" y="-265.87" font-family="Helvetica,sans-Serif" font-size="10.00"> Dragging</text>
</g>
<!-- Node22&#45;&gt;Node3 -->
<g id="edge26" class="edge">
<title>Node22&#45;&gt;Node3</title>
<path fill="none" stroke="#9a32cd" stroke-dasharray="5,2" d="M608.72,-195.31C658.53,-193.16 759.31,-191.66 786,-212.87 871.56,-280.85 873.07,-434.07 871.92,-474.13"/>
<polygon fill="#9a32cd" stroke="#9a32cd" points="608.45,-191.82 598.63,-195.79 608.78,-198.81 608.45,-191.82"/>
<text text-anchor="middle" x="732" y="-270.87" font-family="Helvetica,sans-Serif" font-size="10.00"> IsTabStop</text>
<text text-anchor="middle" x="732" y="-259.87" font-family="Helvetica,sans-Serif" font-size="10.00">IsSubElement</text>
<text text-anchor="middle" x="732" y="-248.87" font-family="Helvetica,sans-Serif" font-size="10.00">IsTabGroup</text>
<text text-anchor="middle" x="732" y="-237.87" font-family="Helvetica,sans-Serif" font-size="10.00">IsEnabled</text>
<text text-anchor="middle" x="732" y="-226.87" font-family="Helvetica,sans-Serif" font-size="10.00">NoClip</text>
<text text-anchor="middle" x="732" y="-215.87" font-family="Helvetica,sans-Serif" font-size="10.00">IsVisible</text>
</g>
<!-- Node23 -->
<g id="node23" class="node">
<title>Node23</title>
<g id="a_node23"><a xlink:title=" ">
<polygon fill="white" stroke="#bfbfbf" points="499,-358.37 499,-377.37 660,-377.37 660,-358.37 499,-358.37"/>
<text text-anchor="middle" x="579.5" y="-365.37" font-family="Helvetica,sans-Serif" font-size="10.00">list&lt; irr::gui::IGUIElement * &gt;</text>
</a>
</g>
</g>
<!-- Node23&#45;&gt;Node3 -->
<g id="edge27" class="edge">
<title>Node23&#45;&gt;Node3</title>
<path fill="none" stroke="#9a32cd" stroke-dasharray="5,2" d="M670.84,-361.34C708.25,-362.21 750.98,-368.07 786,-385.87 825.85,-406.13 855.2,-453.68 866.46,-474.18"/>
<polygon fill="#9a32cd" stroke="#9a32cd" points="670.47,-357.84 660.43,-361.22 670.39,-364.84 670.47,-357.84"/>
<text text-anchor="middle" x="732" y="-388.87" font-family="Helvetica,sans-Serif" font-size="10.00"> Children</text>
</g>
<!-- Node24 -->
<g id="node24" class="node">
<title>Node24</title>
<g id="a_node24"><a xlink:title=" ">
<polygon fill="white" stroke="#bfbfbf" points="553,-320.37 553,-339.37 606,-339.37 606,-320.37 553,-320.37"/>
<text text-anchor="middle" x="579.5" y="-327.37" font-family="Helvetica,sans-Serif" font-size="10.00">iterator</text>
</a>
</g>
</g>
<!-- Node24&#45;&gt;Node3 -->
<g id="edge28" class="edge">
<title>Node24&#45;&gt;Node3</title>
<path fill="none" stroke="#9a32cd" stroke-dasharray="5,2" d="M616.2,-323.46C659.68,-317.59 733.76,-314.06 786,-345.87 836.07,-376.36 861.22,-448.4 868.89,-474.35"/>
<polygon fill="#9a32cd" stroke="#9a32cd" points="615.49,-320.02 606.1,-324.93 616.51,-326.95 615.49,-320.02"/>
<text text-anchor="middle" x="732" y="-348.87" font-family="Helvetica,sans-Serif" font-size="10.00"> ParentPos</text>
</g>
<!-- Node25 -->
<g id="node25" class="node">
<title>Node25</title>
<g id="a_node25"><a xlink:title=" ">
<polygon fill="white" stroke="#bfbfbf" points="519,-699.37 519,-718.37 640,-718.37 640,-699.37 519,-699.37"/>
<text text-anchor="middle" x="579.5" y="-706.37" font-family="Helvetica,sans-Serif" font-size="10.00">EGUI_ELEMENT_TYPE</text>
</a>
</g>
</g>
<!-- Node25&#45;&gt;Node3 -->
<g id="edge29" class="edge">
<title>Node25&#45;&gt;Node3</title>
<path fill="none" stroke="#9a32cd" stroke-dasharray="5,2" d="M650.04,-709.95C701.05,-709.38 764.94,-705.38 786,-689.87 853.35,-640.27 867.91,-527.72 870.82,-493.75"/>
<polygon fill="#9a32cd" stroke="#9a32cd" points="650,-706.45 640.02,-710.02 650.05,-713.45 650,-706.45"/>
<text text-anchor="middle" x="732" y="-711.87" font-family="Helvetica,sans-Serif" font-size="10.00"> Type</text>
</g>
<!-- Node26 -->
<g id="node26" class="node">
<title>Node26</title>
<g id="a_node26"><a xlink:title=" ">
<polygon fill="white" stroke="#bfbfbf" points="527.5,-623.37 527.5,-642.37 631.5,-642.37 631.5,-623.37 527.5,-623.37"/>
<text text-anchor="middle" x="579.5" y="-630.37" font-family="Helvetica,sans-Serif" font-size="10.00">EGUI_ALIGNMENT</text>
</a>
</g>
</g>
<!-- Node26&#45;&gt;Node3 -->
<g id="edge30" class="edge">
<title>Node26&#45;&gt;Node3</title>
<path fill="none" stroke="#9a32cd" stroke-dasharray="5,2" d="M641.76,-624.78C697.78,-617 773.75,-605.35 786,-597.87 828.66,-571.83 857.23,-515.91 867.39,-493.47"/>
<polygon fill="#9a32cd" stroke="#9a32cd" points="640.98,-621.35 631.55,-626.18 641.93,-628.28 640.98,-621.35"/>
<text text-anchor="middle" x="732" y="-654.87" font-family="Helvetica,sans-Serif" font-size="10.00"> AlignRight</text>
<text text-anchor="middle" x="732" y="-643.87" font-family="Helvetica,sans-Serif" font-size="10.00">AlignBottom</text>
<text text-anchor="middle" x="732" y="-632.87" font-family="Helvetica,sans-Serif" font-size="10.00">AlignLeft</text>
<text text-anchor="middle" x="732" y="-621.87" font-family="Helvetica,sans-Serif" font-size="10.00">AlignTop</text>
</g>
<!-- Node27&#45;&gt;Node1 -->
<g id="edge31" class="edge">
<title>Node27&#45;&gt;Node1</title>
<path fill="none" stroke="#9a32cd" stroke-dasharray="5,2" d="M1209.61,-550.2C1243.62,-544.2 1286.07,-535.4 1323,-523.87 1349.46,-515.61 1378.63,-502.43 1397.24,-493.48"/>
<polygon fill="#9a32cd" stroke="#9a32cd" points="1208.59,-546.83 1199.34,-551.98 1209.79,-553.72 1208.59,-546.83"/>
<text text-anchor="middle" x="1280.5" y="-568.87" font-family="Helvetica,sans-Serif" font-size="10.00"> CancelButton</text>
<text text-anchor="middle" x="1280.5" y="-557.87" font-family="Helvetica,sans-Serif" font-size="10.00">CloseButton</text>
<text text-anchor="middle" x="1280.5" y="-546.87" font-family="Helvetica,sans-Serif" font-size="10.00">OKButton</text>
</g>
<!-- Node28&#45;&gt;Node1 -->
<g id="edge36" class="edge">
<title>Node28&#45;&gt;Node1</title>
<path fill="none" stroke="#9a32cd" stroke-dasharray="5,2" d="M773.79,-873.16C881.82,-902.9 1177.06,-965.49 1323,-810.87 1413.79,-714.68 1417.28,-536.46 1416.74,-493.41"/>
<polygon fill="#9a32cd" stroke="#9a32cd" points="774.5,-869.72 763.93,-870.39 772.61,-876.46 774.5,-869.72"/>
<text text-anchor="middle" x="1006" y="-913.87" font-family="Helvetica,sans-Serif" font-size="10.00"> FileSystem</text>
</g>
<!-- Node29&#45;&gt;Node1 -->
<g id="edge38" class="edge">
<title>Node29&#45;&gt;Node1</title>
<path fill="none" stroke="#9a32cd" stroke-dasharray="5,2" d="M1211.47,-513.25C1244.82,-508.77 1286.1,-503.14 1323,-497.87 1332.91,-496.45 1343.41,-494.92 1353.65,-493.4"/>
<polygon fill="#9a32cd" stroke="#9a32cd" points="1210.83,-509.8 1201.38,-514.6 1211.76,-516.74 1210.83,-509.8"/>
<text text-anchor="middle" x="1280.5" y="-511.87" font-family="Helvetica,sans-Serif" font-size="10.00"> FileBox</text>
</g>
<!-- Node30&#45;&gt;Node1 -->
<g id="edge41" class="edge">
<title>Node30&#45;&gt;Node1</title>
<path fill="none" stroke="#9a32cd" stroke-dasharray="5,2" d="M1059.29,-827.55C1127.99,-835.83 1248.63,-839.13 1323,-776.87 1414.3,-700.43 1417.49,-534.83 1416.79,-493.41"/>
<polygon fill="#9a32cd" stroke="#9a32cd" points="1059.49,-824.05 1049.13,-826.25 1058.6,-830.99 1059.49,-824.05"/>
<text text-anchor="middle" x="1145.5" y="-834.87" font-family="Helvetica,sans-Serif" font-size="10.00"> FileList</text>
</g>
<!-- Node31&#45;&gt;Node1 -->
<g id="edge43" class="edge">
<title>Node31&#45;&gt;Node1</title>
<path fill="none" stroke="#9a32cd" stroke-dasharray="5,2" d="M1212.27,-483.87C1251.15,-483.87 1300.53,-483.87 1340.99,-483.87"/>
<polygon fill="#9a32cd" stroke="#9a32cd" points="1212.12,-480.37 1202.12,-483.87 1212.12,-487.37 1212.12,-480.37"/>
<text text-anchor="middle" x="1280.5" y="-486.87" font-family="Helvetica,sans-Serif" font-size="10.00"> FileNameText</text>
</g>
<!-- Node32 -->
<g id="node32" class="node">
<title>Node32</title>
<g id="a_node32"><a xlink:href="classirr_1_1core_1_1string.html" target="_top" xlink:title=" ">
<polygon fill="white" stroke="black" points="1097.5,-20.87 1097.5,-50.87 1193.5,-50.87 1193.5,-20.87 1097.5,-20.87"/>
<text text-anchor="start" x="1105.5" y="-38.87" font-family="Helvetica,sans-Serif" font-size="10.00">irr::core::string&lt;</text>
<text text-anchor="middle" x="1145.5" y="-27.87" font-family="Helvetica,sans-Serif" font-size="10.00"> fschar_t &gt;</text>
</a>
</g>
</g>
<!-- Node32&#45;&gt;Node1 -->
<g id="edge45" class="edge">
<title>Node32&#45;&gt;Node1</title>
<path fill="none" stroke="#9a32cd" stroke-dasharray="5,2" d="M1203.6,-20.82C1241.66,-14.43 1290.49,-13.73 1323,-40.87 1392.85,-99.17 1412.83,-414.29 1416.01,-474.08"/>
<polygon fill="#9a32cd" stroke="#9a32cd" points="1202.87,-17.4 1193.68,-22.65 1204.14,-24.28 1202.87,-17.4"/>
<text text-anchor="middle" x="1280.5" y="-87.87" font-family="Helvetica,sans-Serif" font-size="10.00"> FileDirectoryFlat</text>
<text text-anchor="middle" x="1280.5" y="-76.87" font-family="Helvetica,sans-Serif" font-size="10.00">FileDirectory</text>
<text text-anchor="middle" x="1280.5" y="-65.87" font-family="Helvetica,sans-Serif" font-size="10.00">RestoreDirectory</text>
<text text-anchor="middle" x="1280.5" y="-54.87" font-family="Helvetica,sans-Serif" font-size="10.00">StartDirectory</text>
<text text-anchor="middle" x="1280.5" y="-43.87" font-family="Helvetica,sans-Serif" font-size="10.00">FileName</text>
</g>
<!-- Node33 -->
<g id="node33" class="node">
<title>Node33</title>
<g id="a_node33"><a xlink:title=" ">
<polygon fill="white" stroke="#bfbfbf" points="804,-24.37 804,-43.37 941,-43.37 941,-24.37 804,-24.37"/>
<text text-anchor="middle" x="872.5" y="-31.37" font-family="Helvetica,sans-Serif" font-size="10.00">basic_string&lt; fschar_t &gt;</text>
</a>
</g>
</g>
<!-- Node33&#45;&gt;Node32 -->
<g id="edge46" class="edge">
<title>Node33&#45;&gt;Node32</title>
<path fill="none" stroke="#9a32cd" stroke-dasharray="5,2" d="M951.36,-34.44C998.48,-34.79 1057.02,-35.22 1097.23,-35.52"/>
<polygon fill="#9a32cd" stroke="#9a32cd" points="951.21,-30.94 941.19,-34.37 951.16,-37.94 951.21,-30.94"/>
<text text-anchor="middle" x="1006" y="-38.87" font-family="Helvetica,sans-Serif" font-size="10.00"> str</text>
</g>
<!-- Node34 -->
<g id="node34" class="node">
<title>Node34</title>
<g id="a_node34"><a xlink:title=" ">
<polygon fill="white" stroke="#bfbfbf" points="518.5,-5.37 518.5,-24.37 640.5,-24.37 640.5,-5.37 518.5,-5.37"/>
<text text-anchor="middle" x="579.5" y="-12.37" font-family="Helvetica,sans-Serif" font-size="10.00">static const size_type</text>
</a>
</g>
</g>
<!-- Node34&#45;&gt;Node32 -->
<g id="edge47" class="edge">
<title>Node34&#45;&gt;Node32</title>
<path fill="none" stroke="#9a32cd" stroke-dasharray="5,2" d="M650.96,-8.21C723.71,-2.4 840.45,3.99 941,-3.87 995.02,-8.09 1056.37,-18.52 1097.46,-26.34"/>
<polygon fill="#9a32cd" stroke="#9a32cd" points="650.23,-4.76 640.55,-9.07 650.81,-11.74 650.23,-4.76"/>
<text text-anchor="middle" x="872.5" y="-6.87" font-family="Helvetica,sans-Serif" font-size="10.00"> npos</text>
</g>
<!-- Node35 -->
<g id="node35" class="node">
<title>Node35</title>
<g id="a_node35"><a xlink:href="classirr_1_1core_1_1string.html" target="_top" xlink:title="Very simple string class with some useful features.">
<polygon fill="white" stroke="black" points="814.5,-62.37 814.5,-81.37 930.5,-81.37 930.5,-62.37 814.5,-62.37"/>
<text text-anchor="middle" x="872.5" y="-69.37" font-family="Helvetica,sans-Serif" font-size="10.00">irr::core::string&lt; T &gt;</text>
</a>
</g>
</g>
<!-- Node34&#45;&gt;Node35 -->
<g id="edge50" class="edge">
<title>Node34&#45;&gt;Node35</title>
<path fill="none" stroke="#9a32cd" stroke-dasharray="5,2" d="M639.3,-26.39C693.21,-36.95 772.11,-52.4 822.63,-62.3"/>
<polygon fill="#9a32cd" stroke="#9a32cd" points="639.69,-22.9 629.21,-24.41 638.35,-29.77 639.69,-22.9"/>
<text text-anchor="middle" x="732" y="-58.87" font-family="Helvetica,sans-Serif" font-size="10.00"> npos</text>
</g>
<!-- Node35&#45;&gt;Node32 -->
<g id="edge48" class="edge">
<title>Node35&#45;&gt;Node32</title>
<path fill="none" stroke="orange" stroke-dasharray="5,2" d="M940.78,-62.93C989.48,-56.46 1054.08,-47.88 1097.36,-42.13"/>
<polygon fill="orange" stroke="orange" points="940.09,-59.49 930.64,-64.28 941.01,-66.43 940.09,-59.49"/>
<text text-anchor="middle" x="1006" y="-63.87" font-family="Helvetica,sans-Serif" font-size="10.00"> &lt; fschar_t &gt;</text>
</g>
<!-- Node36 -->
<g id="node36" class="node">
<title>Node36</title>
<g id="a_node36"><a xlink:title=" ">
<polygon fill="white" stroke="#bfbfbf" points="527.5,-62.37 527.5,-81.37 631.5,-81.37 631.5,-62.37 527.5,-62.37"/>
<text text-anchor="middle" x="579.5" y="-69.37" font-family="Helvetica,sans-Serif" font-size="10.00">basic_string&lt; T &gt;</text>
</a>
</g>
</g>
<!-- Node36&#45;&gt;Node35 -->
<g id="edge49" class="edge">
<title>Node36&#45;&gt;Node35</title>
<path fill="none" stroke="#9a32cd" stroke-dasharray="5,2" d="M641.73,-71.87C692.64,-71.87 764.54,-71.87 814.3,-71.87"/>
<polygon fill="#9a32cd" stroke="#9a32cd" points="641.52,-68.37 631.52,-71.87 641.52,-75.37 641.52,-68.37"/>
<text text-anchor="middle" x="732" y="-74.87" font-family="Helvetica,sans-Serif" font-size="10.00"> str</text>
</g>
</g>
</svg>
        <g id="navigator" transform="translate(0 0)" fill="#404254">
                <rect fill="#f2f5e9" fill-opacity="0.5" stroke="#606060" stroke-width=".5" x="0" y="0" width="60" height="60"/>
                <use id="zoomplus" xlink:href="#zoomPlus" x="17" y="9" onmousedown="handleZoom(evt,'in')"/>
                <use id="zoomminus" xlink:href="#zoomMin" x="42" y="9" onmousedown="handleZoom(evt,'out')"/>
                <use id="reset" xlink:href="#resetDef" x="30" y="36" onmousedown="handleReset()"/>
                <g id="arrowUp" xlink:href="#dirArrow" transform="translate(30 24)" onmousedown="handlePan(0,-1)">
                  <use xlink:href="#rim" fill="#404040">
                        <set attributeName="fill" to="#808080" begin="arrowUp.mouseover" end="arrowUp.mouseout"/>
                  </use>
                  <path fill="none" stroke="white" stroke-width="1.5" d="M0,-3.0v7 M-2.5,-0.5L0,-3.0L2.5,-0.5"/>
                </g>
                <g id="arrowRight" xlink:href="#dirArrow" transform="rotate(90) translate(36 -43)" onmousedown="handlePan(1,0)">
                  <use xlink:href="#rim" fill="#404040">
                        <set attributeName="fill" to="#808080" begin="arrowRight.mouseover" end="arrowRight.mouseout"/>
                  </use>
                  <path fill="none" stroke="white" stroke-width="1.5" d="M0,-3.0v7 M-2.5,-0.5L0,-3.0L2.5,-0.5"/>
                </g>
                <g id="arrowDown" xlink:href="#dirArrow" transform="rotate(180) translate(-30 -48)" onmousedown="handlePan(0,1)">
                  <use xlink:href="#rim" fill="#404040">
                        <set attributeName="fill" to="#808080" begin="arrowDown.mouseover" end="arrowDown.mouseout"/>
                  </use>
                  <path fill="none" stroke="white" stroke-width="1.5" d="M0,-3.0v7 M-2.5,-0.5L0,-3.0L2.5,-0.5"/>
                </g>
                <g id="arrowLeft" xlink:href="#dirArrow" transform="rotate(270) translate(-36 17)" onmousedown="handlePan(-1,0)">
                  <use xlink:href="#rim" fill="#404040">
                        <set attributeName="fill" to="#808080" begin="arrowLeft.mouseover" end="arrowLeft.mouseout"/>
                  </use>
                  <path fill="none" stroke="white" stroke-width="1.5" d="M0,-3.0v7 M-2.5,-0.5L0,-3.0L2.5,-0.5"/>
                </g>
        </g>
        <svg viewBox="0 0 15 15" width="100%" height="30px" preserveAspectRatio="xMaxYMin meet">
         <g id="arrow_out" transform="scale(0.3 0.3)">
          <a xlink:href="classirr_1_1gui_1_1CGUIFileOpenDialog__coll__graph_org.svg" target="_base">
           <rect id="button" ry="5" rx="5" y="6" x="6" height="38" width="38"
                fill="#f2f5e9" fill-opacity="0.5" stroke="#606060" stroke-width="1.0"/>
           <path id="arrow"
             d="M 11.500037,31.436501 C 11.940474,20.09759 22.043105,11.32322 32.158766,21.979434 L 37.068811,17.246167 C 37.068811,17.246167 37.088388,32 37.088388,32 L 22.160133,31.978069 C 22.160133,31.978069 26.997745,27.140456 26.997745,27.140456 C 18.528582,18.264221 13.291696,25.230495 11.500037,31.436501 z"
             style="fill:#404040;"/>
          </a>
         </g>
        </svg>
</svg>
