<?xml version="1.0" encoding="UTF-8" standalone="no"?>
<!DOCTYPE svg PUBLIC "-//W3C//DTD SVG 1.1//EN"
 "http://www.w3.org/Graphics/SVG/1.1/DTD/svg11.dtd">
<!-- Generated by graphviz version 2.43.0 (0)
 -->
<!-- Title: irr::video::CNullDriver::draw2DImageBatch Pages: 1 -->
<svg width="429pt" height="39pt"
 viewBox="0.00 0.00 429.00 39.00" xmlns="http://www.w3.org/2000/svg" xmlns:xlink="http://www.w3.org/1999/xlink">
<g id="graph0" class="graph" transform="scale(1 1) rotate(0) translate(4 35)">
<title>irr::video::CNullDriver::draw2DImageBatch</title>
<polygon fill="white" stroke="transparent" points="-4,4 -4,-35 425,-35 425,4 -4,4"/>
<!-- Node1 -->
<g id="node1" class="node">
<title>Node1</title>
<g id="a_node1"><a xlink:title="Draws a set of 2d images, using a color and the alpha channel of the texture.">
<polygon fill="#bfbfbf" stroke="black" points="0,-0.5 0,-30.5 122,-30.5 122,-0.5 0,-0.5"/>
<text text-anchor="start" x="8" y="-18.5" font-family="Helvetica,sans-Serif" font-size="10.00">irr::video::CNullDriver</text>
<text text-anchor="middle" x="61" y="-7.5" font-family="Helvetica,sans-Serif" font-size="10.00">::draw2DImageBatch</text>
</a>
</g>
</g>
<!-- Node2 -->
<g id="node2" class="node">
<title>Node2</title>
<g id="a_node2"><a xlink:href="classirr_1_1video_1_1CNullDriver.html#a1d23c1055bcee364d695b1a768acd0e0" target="_top" xlink:title="draws an 2d image">
<polygon fill="white" stroke="black" points="158,-0.5 158,-30.5 280,-30.5 280,-0.5 158,-0.5"/>
<text text-anchor="start" x="166" y="-18.5" font-family="Helvetica,sans-Serif" font-size="10.00">irr::video::CNullDriver</text>
<text text-anchor="middle" x="219" y="-7.5" font-family="Helvetica,sans-Serif" font-size="10.00">::draw2DImage</text>
</a>
</g>
</g>
<!-- Node1&#45;&gt;Node2 -->
<g id="edge1" class="edge">
<title>Node1&#45;&gt;Node2</title>
<path fill="none" stroke="midnightblue" d="M122.31,-15.5C130.6,-15.5 139.17,-15.5 147.63,-15.5"/>
<polygon fill="midnightblue" stroke="midnightblue" points="147.85,-19 157.85,-15.5 147.85,-12 147.85,-19"/>
</g>
<!-- Node3 -->
<g id="node3" class="node">
<title>Node3</title>
<g id="a_node3"><a xlink:href="classirr_1_1video_1_1ITexture.html#a570e1eec61d7c71be2d7c2d570c05d76" target="_top" xlink:title="Get original size of the texture.">
<polygon fill="white" stroke="black" points="316,-0.5 316,-30.5 421,-30.5 421,-0.5 316,-0.5"/>
<text text-anchor="start" x="324" y="-18.5" font-family="Helvetica,sans-Serif" font-size="10.00">irr::video::ITexture</text>
<text text-anchor="middle" x="368.5" y="-7.5" font-family="Helvetica,sans-Serif" font-size="10.00">::getOriginalSize</text>
</a>
</g>
</g>
<!-- Node2&#45;&gt;Node3 -->
<g id="edge2" class="edge">
<title>Node2&#45;&gt;Node3</title>
<path fill="none" stroke="midnightblue" d="M280.42,-15.5C288.79,-15.5 297.4,-15.5 305.79,-15.5"/>
<polygon fill="midnightblue" stroke="midnightblue" points="305.9,-19 315.9,-15.5 305.9,-12 305.9,-19"/>
</g>
</g>
</svg>
