<?xml version="1.0" encoding="UTF-8" standalone="no"?>
<!DOCTYPE svg PUBLIC "-//W3C//DTD SVG 1.1//EN"
 "http://www.w3.org/Graphics/SVG/1.1/DTD/svg11.dtd">
<!-- Generated by graphviz version 2.43.0 (0)
 -->
<!-- Title: irr::video::CImageLoaderBMP::loadImage Pages: 1 -->
<!--zoomable 372 -->
<svg id="main" version="1.1" xmlns="http://www.w3.org/2000/svg" xmlns:xlink="http://www.w3.org/1999/xlink" xml:space="preserve" onload="init(evt)">
<style type="text/css"><![CDATA[
.edge:hover path { stroke: red; }
.edge:hover polygon { stroke: red; fill: red; }
]]></style>
<script type="text/javascript"><![CDATA[
var edges = document.getElementsByTagName('g');
if (edges && edges.length) {
  for (var i=0;i<edges.length;i++) {
    if (edges[i].id.substr(0,4)=='edge') {
      edges[i].setAttribute('class','edge');
    }
  }
}
]]></script>
        <defs>
                <circle id="rim" cx="0" cy="0" r="7"/>
                <circle id="rim2" cx="0" cy="0" r="3.5"/>
                <g id="zoomPlus">
                        <use xlink:href="#rim" fill="#404040">
                                <set attributeName="fill" to="#808080" begin="zoomplus.mouseover" end="zoomplus.mouseout"/>
                        </use>
                        <path d="M-4,0h8M0,-4v8" fill="none" stroke="white" stroke-width="1.5" pointer-events="none"/>
                </g>
                <g id="zoomMin">
                        <use xlink:href="#rim" fill="#404040">
                                <set attributeName="fill" to="#808080" begin="zoomminus.mouseover" end="zoomminus.mouseout"/>
                        </use>
                        <path d="M-4,0h8" fill="none" stroke="white" stroke-width="1.5" pointer-events="none"/>
                </g>
                <g id="dirArrow">
                        <path fill="none" stroke="white" stroke-width="1.5" d="M0,-3.0v7 M-2.5,-0.5L0,-3.0L2.5,-0.5"/>
                </g>
               <g id="resetDef">
                       <use xlink:href="#rim2" fill="#404040">
                               <set attributeName="fill" to="#808080" begin="reset.mouseover" end="reset.mouseout"/>
                       </use>
               </g>
        </defs>

<script type="text/javascript">
var viewWidth = 540;
var viewHeight = 372;
var sectionId = 'dynsection-3';
</script>
<script xlink:href="svgpan.js"/>
<svg id="graph" class="graph">
<g id="viewport">
<title>irr::video::CImageLoaderBMP::loadImage</title>
<polygon fill="white" stroke="transparent" points="-4,4 -4,-367.5 536,-367.5 536,4 -4,4"/>
<!-- Node1 -->
<g id="node1" class="node">
<title>Node1</title>
<g id="a_node1"><a xlink:title="creates a surface from the file">
<polygon fill="#bfbfbf" stroke="black" points="0,-171.5 0,-201.5 137,-201.5 137,-171.5 0,-171.5"/>
<text text-anchor="start" x="8" y="-189.5" font-family="Helvetica,sans-Serif" font-size="10.00">irr::video::CImageLoader</text>
<text text-anchor="middle" x="68.5" y="-178.5" font-family="Helvetica,sans-Serif" font-size="10.00">BMP::loadImage</text>
</a>
</g>
</g>
<!-- Node2 -->
<g id="node2" class="node">
<title>Node2</title>
<g id="a_node2"><a xlink:href="namespaceirr_1_1video.html#aff3361ad62abc0b64b2e025ac6616396" target="_top" xlink:title="check sanity of image dimensions to prevent issues later, for use by CImageLoaders">
<polygon fill="white" stroke="black" points="173,-344 173,-363 356,-363 356,-344 173,-344"/>
<text text-anchor="middle" x="264.5" y="-351" font-family="Helvetica,sans-Serif" font-size="10.00">irr::video::checkImageDimensions</text>
</a>
</g>
</g>
<!-- Node1&#45;&gt;Node2 -->
<g id="edge1" class="edge">
<title>Node1&#45;&gt;Node2</title>
<path fill="none" stroke="midnightblue" d="M75.64,-201.97C88.64,-232.57 121.98,-300.8 173,-334.5 175.97,-336.46 179.1,-338.23 182.35,-339.81"/>
<polygon fill="midnightblue" stroke="midnightblue" points="181.19,-343.12 191.77,-343.83 183.94,-336.69 181.19,-343.12"/>
</g>
<!-- Node3 -->
<g id="node3" class="node">
<title>Node3</title>
<g id="a_node3"><a xlink:href="classirr_1_1video_1_1CColorConverter.html#a9ce1fd3fc97089f50a51f13edfc46185" target="_top" xlink:title="converts R8G8B8 16 bit data to A1R5G5B5 data">
<polygon fill="white" stroke="black" points="191.5,-294.5 191.5,-324.5 337.5,-324.5 337.5,-294.5 191.5,-294.5"/>
<text text-anchor="start" x="199.5" y="-312.5" font-family="Helvetica,sans-Serif" font-size="10.00">irr::video::CColorConverter</text>
<text text-anchor="middle" x="264.5" y="-301.5" font-family="Helvetica,sans-Serif" font-size="10.00">::convert16BitTo16Bit</text>
</a>
</g>
</g>
<!-- Node1&#45;&gt;Node3 -->
<g id="edge2" class="edge">
<title>Node1&#45;&gt;Node3</title>
<path fill="none" stroke="midnightblue" d="M81.13,-201.71C98.65,-223.55 133.96,-263.6 173,-285.5 176.24,-287.32 179.62,-289 183.09,-290.56"/>
<polygon fill="midnightblue" stroke="midnightblue" points="181.88,-293.85 192.46,-294.41 184.54,-287.37 181.88,-293.85"/>
</g>
<!-- Node4 -->
<g id="node4" class="node">
<title>Node4</title>
<g id="a_node4"><a xlink:href="classirr_1_1video_1_1CColorConverter.html#a15ce8ced41c985f8a98d739e962926f3" target="_top" xlink:title="converts a monochrome bitmap to A1R5G5B5">
<polygon fill="white" stroke="black" points="191.5,-245.5 191.5,-275.5 337.5,-275.5 337.5,-245.5 191.5,-245.5"/>
<text text-anchor="start" x="199.5" y="-263.5" font-family="Helvetica,sans-Serif" font-size="10.00">irr::video::CColorConverter</text>
<text text-anchor="middle" x="264.5" y="-252.5" font-family="Helvetica,sans-Serif" font-size="10.00">::convert1BitTo16Bit</text>
</a>
</g>
</g>
<!-- Node1&#45;&gt;Node4 -->
<g id="edge3" class="edge">
<title>Node1&#45;&gt;Node4</title>
<path fill="none" stroke="midnightblue" d="M96.98,-201.56C117.49,-212.35 146.43,-226.66 173,-236.5 178.57,-238.56 184.39,-240.52 190.27,-242.37"/>
<polygon fill="midnightblue" stroke="midnightblue" points="189.63,-245.83 200.21,-245.37 191.65,-239.13 189.63,-245.83"/>
</g>
<!-- Node5 -->
<g id="node5" class="node">
<title>Node5</title>
<g id="a_node5"><a xlink:href="classirr_1_1video_1_1CColorConverter.html#af31d361b66eb2ceabab969381a33f99e" target="_top" xlink:title="copies R8G8B8 24bit data to 24bit data">
<polygon fill="white" stroke="black" points="191.5,-196.5 191.5,-226.5 337.5,-226.5 337.5,-196.5 191.5,-196.5"/>
<text text-anchor="start" x="199.5" y="-214.5" font-family="Helvetica,sans-Serif" font-size="10.00">irr::video::CColorConverter</text>
<text text-anchor="middle" x="264.5" y="-203.5" font-family="Helvetica,sans-Serif" font-size="10.00">::convert24BitTo24Bit</text>
</a>
</g>
</g>
<!-- Node1&#45;&gt;Node5 -->
<g id="edge4" class="edge">
<title>Node1&#45;&gt;Node5</title>
<path fill="none" stroke="midnightblue" d="M137.08,-195.21C151.3,-197.04 166.44,-198.99 181.13,-200.89"/>
<polygon fill="midnightblue" stroke="midnightblue" points="180.84,-204.38 191.21,-202.18 181.74,-197.43 180.84,-204.38"/>
</g>
<!-- Node6 -->
<g id="node6" class="node">
<title>Node6</title>
<g id="a_node6"><a xlink:href="classirr_1_1video_1_1CColorConverter.html#a7e2729378d5af783571f5a7b5d70adf8" target="_top" xlink:title="copies X8R8G8B8 32 bit data">
<polygon fill="white" stroke="black" points="191.5,-147.5 191.5,-177.5 337.5,-177.5 337.5,-147.5 191.5,-147.5"/>
<text text-anchor="start" x="199.5" y="-165.5" font-family="Helvetica,sans-Serif" font-size="10.00">irr::video::CColorConverter</text>
<text text-anchor="middle" x="264.5" y="-154.5" font-family="Helvetica,sans-Serif" font-size="10.00">::convert32BitTo32Bit</text>
</a>
</g>
</g>
<!-- Node1&#45;&gt;Node6 -->
<g id="edge5" class="edge">
<title>Node1&#45;&gt;Node6</title>
<path fill="none" stroke="midnightblue" d="M137.08,-178.14C151.3,-176.38 166.44,-174.51 181.13,-172.69"/>
<polygon fill="midnightblue" stroke="midnightblue" points="181.72,-176.14 191.21,-171.44 180.86,-169.2 181.72,-176.14"/>
</g>
<!-- Node7 -->
<g id="node7" class="node">
<title>Node7</title>
<g id="a_node7"><a xlink:href="classirr_1_1video_1_1CColorConverter.html#aefa750a97769f98979320d1b1095b468" target="_top" xlink:title="converts a 4 bit palettized image to A1R5G5B5">
<polygon fill="white" stroke="black" points="191.5,-98.5 191.5,-128.5 337.5,-128.5 337.5,-98.5 191.5,-98.5"/>
<text text-anchor="start" x="199.5" y="-116.5" font-family="Helvetica,sans-Serif" font-size="10.00">irr::video::CColorConverter</text>
<text text-anchor="middle" x="264.5" y="-105.5" font-family="Helvetica,sans-Serif" font-size="10.00">::convert4BitTo16Bit</text>
</a>
</g>
</g>
<!-- Node1&#45;&gt;Node7 -->
<g id="edge6" class="edge">
<title>Node1&#45;&gt;Node7</title>
<path fill="none" stroke="midnightblue" d="M98.84,-171.31C119.27,-161.13 147.34,-147.92 173,-138.5 179.73,-136.03 186.82,-133.67 193.95,-131.45"/>
<polygon fill="midnightblue" stroke="midnightblue" points="195.1,-134.76 203.67,-128.53 193.08,-128.06 195.1,-134.76"/>
</g>
<!-- Node9 -->
<g id="node9" class="node">
<title>Node9</title>
<g id="a_node9"><a xlink:href="classirr_1_1video_1_1CColorConverter.html#aedd5f6662bbd580c16bf6667587e3a92" target="_top" xlink:title="converts a 8 bit palettized image to A1R5G5B5">
<polygon fill="white" stroke="black" points="191.5,-49.5 191.5,-79.5 337.5,-79.5 337.5,-49.5 191.5,-49.5"/>
<text text-anchor="start" x="199.5" y="-67.5" font-family="Helvetica,sans-Serif" font-size="10.00">irr::video::CColorConverter</text>
<text text-anchor="middle" x="264.5" y="-56.5" font-family="Helvetica,sans-Serif" font-size="10.00">::convert8BitTo16Bit</text>
</a>
</g>
</g>
<!-- Node1&#45;&gt;Node9 -->
<g id="edge8" class="edge">
<title>Node1&#45;&gt;Node9</title>
<path fill="none" stroke="midnightblue" d="M81.52,-171.31C99.27,-149.9 134.56,-111.07 173,-89.5 176.94,-87.29 181.1,-85.26 185.37,-83.4"/>
<polygon fill="midnightblue" stroke="midnightblue" points="186.88,-86.57 194.87,-79.61 184.28,-80.07 186.88,-86.57"/>
</g>
<!-- Node10 -->
<g id="node10" class="node">
<title>Node10</title>
<g id="a_node10"><a xlink:href="classirr_1_1video_1_1IImage.html#a226cba5c336847caae221a19a0ba932d" target="_top" xlink:title="Use this to get a pointer to the image data.">
<polygon fill="white" stroke="black" points="214.5,-0.5 214.5,-30.5 314.5,-30.5 314.5,-0.5 214.5,-0.5"/>
<text text-anchor="start" x="222.5" y="-18.5" font-family="Helvetica,sans-Serif" font-size="10.00">irr::video::IImage</text>
<text text-anchor="middle" x="264.5" y="-7.5" font-family="Helvetica,sans-Serif" font-size="10.00">::getData</text>
</a>
</g>
</g>
<!-- Node1&#45;&gt;Node10 -->
<g id="edge10" class="edge">
<title>Node1&#45;&gt;Node10</title>
<path fill="none" stroke="midnightblue" d="M76.09,-171.05C89.66,-141.11 123.66,-75.12 173,-40.5 182.39,-33.91 193.46,-29.05 204.57,-25.48"/>
<polygon fill="midnightblue" stroke="midnightblue" points="205.68,-28.8 214.31,-22.65 203.73,-22.08 205.68,-28.8"/>
</g>
<!-- Node8 -->
<g id="node8" class="node">
<title>Node8</title>
<g id="a_node8"><a xlink:href="namespaceirr_1_1video.html#a6824dfc9c71a7fd9d7a3e704b1267ddc" target="_top" xlink:title="Converts a 32bit (X8R8G8B8) color to a 16bit A1R5G5B5 color.">
<polygon fill="white" stroke="black" points="392,-73.5 392,-103.5 532,-103.5 532,-73.5 392,-73.5"/>
<text text-anchor="start" x="400" y="-91.5" font-family="Helvetica,sans-Serif" font-size="10.00">irr::video::X8R8G8B8toA1</text>
<text text-anchor="middle" x="462" y="-80.5" font-family="Helvetica,sans-Serif" font-size="10.00">R5G5B5</text>
</a>
</g>
</g>
<!-- Node7&#45;&gt;Node8 -->
<g id="edge7" class="edge">
<title>Node7&#45;&gt;Node8</title>
<path fill="none" stroke="midnightblue" d="M337.74,-104.26C352.15,-102.42 367.35,-100.48 381.97,-98.61"/>
<polygon fill="midnightblue" stroke="midnightblue" points="382.5,-102.07 391.98,-97.33 381.62,-95.12 382.5,-102.07"/>
</g>
<!-- Node9&#45;&gt;Node8 -->
<g id="edge9" class="edge">
<title>Node9&#45;&gt;Node8</title>
<path fill="none" stroke="midnightblue" d="M337.74,-73.37C352.15,-75.14 367.35,-77 381.97,-78.8"/>
<polygon fill="midnightblue" stroke="midnightblue" points="381.63,-82.28 391.98,-80.03 382.48,-75.33 381.63,-82.28"/>
</g>
</g>
</svg>
        <g id="navigator" transform="translate(0 0)" fill="#404254">
                <rect fill="#f2f5e9" fill-opacity="0.5" stroke="#606060" stroke-width=".5" x="0" y="0" width="60" height="60"/>
                <use id="zoomplus" xlink:href="#zoomPlus" x="17" y="9" onmousedown="handleZoom(evt,'in')"/>
                <use id="zoomminus" xlink:href="#zoomMin" x="42" y="9" onmousedown="handleZoom(evt,'out')"/>
                <use id="reset" xlink:href="#resetDef" x="30" y="36" onmousedown="handleReset()"/>
                <g id="arrowUp" xlink:href="#dirArrow" transform="translate(30 24)" onmousedown="handlePan(0,-1)">
                  <use xlink:href="#rim" fill="#404040">
                        <set attributeName="fill" to="#808080" begin="arrowUp.mouseover" end="arrowUp.mouseout"/>
                  </use>
                  <path fill="none" stroke="white" stroke-width="1.5" d="M0,-3.0v7 M-2.5,-0.5L0,-3.0L2.5,-0.5"/>
                </g>
                <g id="arrowRight" xlink:href="#dirArrow" transform="rotate(90) translate(36 -43)" onmousedown="handlePan(1,0)">
                  <use xlink:href="#rim" fill="#404040">
                        <set attributeName="fill" to="#808080" begin="arrowRight.mouseover" end="arrowRight.mouseout"/>
                  </use>
                  <path fill="none" stroke="white" stroke-width="1.5" d="M0,-3.0v7 M-2.5,-0.5L0,-3.0L2.5,-0.5"/>
                </g>
                <g id="arrowDown" xlink:href="#dirArrow" transform="rotate(180) translate(-30 -48)" onmousedown="handlePan(0,1)">
                  <use xlink:href="#rim" fill="#404040">
                        <set attributeName="fill" to="#808080" begin="arrowDown.mouseover" end="arrowDown.mouseout"/>
                  </use>
                  <path fill="none" stroke="white" stroke-width="1.5" d="M0,-3.0v7 M-2.5,-0.5L0,-3.0L2.5,-0.5"/>
                </g>
                <g id="arrowLeft" xlink:href="#dirArrow" transform="rotate(270) translate(-36 17)" onmousedown="handlePan(-1,0)">
                  <use xlink:href="#rim" fill="#404040">
                        <set attributeName="fill" to="#808080" begin="arrowLeft.mouseover" end="arrowLeft.mouseout"/>
                  </use>
                  <path fill="none" stroke="white" stroke-width="1.5" d="M0,-3.0v7 M-2.5,-0.5L0,-3.0L2.5,-0.5"/>
                </g>
        </g>
        <svg viewBox="0 0 15 15" width="100%" height="30px" preserveAspectRatio="xMaxYMin meet">
         <g id="arrow_out" transform="scale(0.3 0.3)">
          <a xlink:href="classirr_1_1video_1_1CImageLoaderBMP_a558ef9884f71718e367e0a21be527236_cgraph_org.svg" target="_base">
           <rect id="button" ry="5" rx="5" y="6" x="6" height="38" width="38"
                fill="#f2f5e9" fill-opacity="0.5" stroke="#606060" stroke-width="1.0"/>
           <path id="arrow"
             d="M 11.500037,31.436501 C 11.940474,20.09759 22.043105,11.32322 32.158766,21.979434 L 37.068811,17.246167 C 37.068811,17.246167 37.088388,32 37.088388,32 L 22.160133,31.978069 C 22.160133,31.978069 26.997745,27.140456 26.997745,27.140456 C 18.528582,18.264221 13.291696,25.230495 11.500037,31.436501 z"
             style="fill:#404040;"/>
          </a>
         </g>
        </svg>
</svg>
