<?xml version="1.0" encoding="UTF-8" standalone="no"?>
<!DOCTYPE svg PUBLIC "-//W3C//DTD SVG 1.1//EN"
 "http://www.w3.org/Graphics/SVG/1.1/DTD/svg11.dtd">
<!-- Generated by graphviz version 2.43.0 (0)
 -->
<!-- Title: irr::scene::CMeshBuffer::append Pages: 1 -->
<svg width="463pt" height="263pt"
 viewBox="0.00 0.00 463.00 262.50" xmlns="http://www.w3.org/2000/svg" xmlns:xlink="http://www.w3.org/1999/xlink">
<g id="graph0" class="graph" transform="scale(1 1) rotate(0) translate(4 258.5)">
<title>irr::scene::CMeshBuffer::append</title>
<polygon fill="white" stroke="transparent" points="-4,4 -4,-258.5 459,-258.5 459,4 -4,4"/>
<!-- Node1 -->
<g id="node1" class="node">
<title>Node1</title>
<g id="a_node1"><a xlink:title="Append the vertices and indices to the current buffer.">
<polygon fill="#bfbfbf" stroke="black" points="0,-101 0,-131 130,-131 130,-101 0,-101"/>
<text text-anchor="start" x="8" y="-119" font-family="Helvetica,sans-Serif" font-size="10.00">irr::scene::CMeshBuffer</text>
<text text-anchor="middle" x="65" y="-108" font-family="Helvetica,sans-Serif" font-size="10.00">::append</text>
</a>
</g>
</g>
<!-- Node2 -->
<g id="node2" class="node">
<title>Node2</title>
<g id="a_node2"><a xlink:href="classirr_1_1core_1_1aabbox3d.html#a49e3765fd2f40a115f8f28bd74d62ccf" target="_top" xlink:title="Adds a point to the bounding box.">
<polygon fill="white" stroke="black" points="183.5,-224 183.5,-254 291.5,-254 291.5,-224 183.5,-224"/>
<text text-anchor="start" x="191.5" y="-242" font-family="Helvetica,sans-Serif" font-size="10.00">irr::core::aabbox3d</text>
<text text-anchor="middle" x="237.5" y="-231" font-family="Helvetica,sans-Serif" font-size="10.00">::addInternalPoint</text>
</a>
</g>
</g>
<!-- Node1&#45;&gt;Node2 -->
<g id="edge1" class="edge">
<title>Node1&#45;&gt;Node2</title>
<path fill="none" stroke="midnightblue" d="M77.61,-131.24C94.74,-152.75 128.82,-191.99 166,-215 168.75,-216.7 171.63,-218.3 174.6,-219.8"/>
<polygon fill="midnightblue" stroke="midnightblue" points="173.15,-222.98 183.7,-224 176.08,-216.63 173.15,-222.98"/>
</g>
<!-- Node3 -->
<g id="node3" class="node">
<title>Node3</title>
<g id="a_node3"><a xlink:href="classirr_1_1scene_1_1CMeshBuffer.html#a5cce2774521f4ed980e60ee6a35d11b6" target="_top" xlink:title="Get number of indices.">
<polygon fill="white" stroke="black" points="172.5,-175 172.5,-205 302.5,-205 302.5,-175 172.5,-175"/>
<text text-anchor="start" x="180.5" y="-193" font-family="Helvetica,sans-Serif" font-size="10.00">irr::scene::CMeshBuffer</text>
<text text-anchor="middle" x="237.5" y="-182" font-family="Helvetica,sans-Serif" font-size="10.00">::getIndexCount</text>
</a>
</g>
</g>
<!-- Node1&#45;&gt;Node3 -->
<g id="edge2" class="edge">
<title>Node1&#45;&gt;Node3</title>
<path fill="none" stroke="midnightblue" d="M93.55,-131.04C113.37,-141.55 140.93,-155.52 166,-166 170.39,-167.84 174.98,-169.64 179.61,-171.38"/>
<polygon fill="midnightblue" stroke="midnightblue" points="178.55,-174.72 189.14,-174.87 180.95,-168.15 178.55,-174.72"/>
</g>
<!-- Node5 -->
<g id="node5" class="node">
<title>Node5</title>
<g id="a_node5"><a xlink:href="classirr_1_1scene_1_1CMeshBuffer.html#a4989302f72fe315c8301cf97997534b1" target="_top" xlink:title="Get number of vertices.">
<polygon fill="white" stroke="black" points="172.5,-126 172.5,-156 302.5,-156 302.5,-126 172.5,-126"/>
<text text-anchor="start" x="180.5" y="-144" font-family="Helvetica,sans-Serif" font-size="10.00">irr::scene::CMeshBuffer</text>
<text text-anchor="middle" x="237.5" y="-133" font-family="Helvetica,sans-Serif" font-size="10.00">::getVertexCount</text>
</a>
</g>
</g>
<!-- Node1&#45;&gt;Node5 -->
<g id="edge4" class="edge">
<title>Node1&#45;&gt;Node5</title>
<path fill="none" stroke="midnightblue" d="M130.46,-125.45C140.82,-126.97 151.62,-128.55 162.19,-130.1"/>
<polygon fill="midnightblue" stroke="midnightblue" points="161.83,-133.59 172.23,-131.58 162.85,-126.66 161.83,-133.59"/>
</g>
<!-- Node6 -->
<g id="node6" class="node">
<title>Node6</title>
<g id="a_node6"><a xlink:href="classirr_1_1scene_1_1CMeshBuffer.html#a724d47736180428f66df91de7bf43cfb" target="_top" xlink:title="Get pointer to vertices.">
<polygon fill="white" stroke="black" points="172.5,-77 172.5,-107 302.5,-107 302.5,-77 172.5,-77"/>
<text text-anchor="start" x="180.5" y="-95" font-family="Helvetica,sans-Serif" font-size="10.00">irr::scene::CMeshBuffer</text>
<text text-anchor="middle" x="237.5" y="-84" font-family="Helvetica,sans-Serif" font-size="10.00">::getVertices</text>
</a>
</g>
</g>
<!-- Node1&#45;&gt;Node6 -->
<g id="edge5" class="edge">
<title>Node1&#45;&gt;Node6</title>
<path fill="none" stroke="midnightblue" d="M130.46,-106.93C140.82,-105.47 151.62,-103.95 162.19,-102.46"/>
<polygon fill="midnightblue" stroke="midnightblue" points="162.82,-105.91 172.23,-101.05 161.84,-98.97 162.82,-105.91"/>
</g>
<!-- Node7 -->
<g id="node7" class="node">
<title>Node7</title>
<g id="a_node7"><a xlink:href="classirr_1_1core_1_1array.html#a95afc36513d08abb51bd399755730877" target="_top" xlink:title="Adds an element at back of array.">
<polygon fill="white" stroke="black" points="166,-38.5 166,-57.5 309,-57.5 309,-38.5 166,-38.5"/>
<text text-anchor="middle" x="237.5" y="-45.5" font-family="Helvetica,sans-Serif" font-size="10.00">irr::core::array::push_back</text>
</a>
</g>
</g>
<!-- Node1&#45;&gt;Node7 -->
<g id="edge6" class="edge">
<title>Node1&#45;&gt;Node7</title>
<path fill="none" stroke="midnightblue" d="M94.31,-100.81C114.03,-90.62 141.15,-77.41 166,-68 173.28,-65.24 181.1,-62.66 188.8,-60.33"/>
<polygon fill="midnightblue" stroke="midnightblue" points="189.81,-63.68 198.43,-57.52 187.85,-56.96 189.81,-63.68"/>
</g>
<!-- Node8 -->
<g id="node8" class="node">
<title>Node8</title>
<g id="a_node8"><a xlink:href="classirr_1_1core_1_1array.html#aa591c18145f3368828122173318786c4" target="_top" xlink:title="Reallocates the array, make it bigger or smaller.">
<polygon fill="white" stroke="black" points="167.5,-0.5 167.5,-19.5 307.5,-19.5 307.5,-0.5 167.5,-0.5"/>
<text text-anchor="middle" x="237.5" y="-7.5" font-family="Helvetica,sans-Serif" font-size="10.00">irr::core::array::reallocate</text>
</a>
</g>
</g>
<!-- Node1&#45;&gt;Node8 -->
<g id="edge7" class="edge">
<title>Node1&#45;&gt;Node8</title>
<path fill="none" stroke="midnightblue" d="M79.33,-100.74C97.17,-81.26 130.66,-47.83 166,-29 170.25,-26.73 174.79,-24.72 179.45,-22.94"/>
<polygon fill="midnightblue" stroke="midnightblue" points="180.8,-26.18 189.1,-19.59 178.5,-19.56 180.8,-26.18"/>
</g>
<!-- Node4 -->
<g id="node4" class="node">
<title>Node4</title>
<g id="a_node4"><a xlink:href="classirr_1_1core_1_1array.html#af2a884d7e19d685b58617fed4ea4d4b9" target="_top" xlink:title="Get number of occupied elements of the array.">
<polygon fill="white" stroke="black" points="345,-180.5 345,-199.5 455,-199.5 455,-180.5 345,-180.5"/>
<text text-anchor="middle" x="400" y="-187.5" font-family="Helvetica,sans-Serif" font-size="10.00">irr::core::array::size</text>
</a>
</g>
</g>
<!-- Node3&#45;&gt;Node4 -->
<g id="edge3" class="edge">
<title>Node3&#45;&gt;Node4</title>
<path fill="none" stroke="midnightblue" d="M302.86,-190C313.32,-190 324.16,-190 334.63,-190"/>
<polygon fill="midnightblue" stroke="midnightblue" points="334.94,-193.5 344.94,-190 334.94,-186.5 334.94,-193.5"/>
</g>
</g>
</svg>
