<?xml version="1.0" encoding="UTF-8" standalone="no"?>
<!DOCTYPE svg PUBLIC "-//W3C//DTD SVG 1.1//EN"
 "http://www.w3.org/Graphics/SVG/1.1/DTD/svg11.dtd">
<!-- Generated by graphviz version 2.43.0 (0)
 -->
<!-- Title: irr::video::COpenGLCoreCacheHandler&lt; TOpenGLDriver, TOpenGLTexture &gt; Pages: 1 -->
<svg width="718pt" height="445pt"
 viewBox="0.00 0.00 718.00 444.54" xmlns="http://www.w3.org/2000/svg" xmlns:xlink="http://www.w3.org/1999/xlink">
<g id="graph0" class="graph" transform="scale(1 1) rotate(0) translate(4 440.54)">
<title>irr::video::COpenGLCoreCacheHandler&lt; TOpenGLDriver, TOpenGLTexture &gt;</title>
<polygon fill="white" stroke="transparent" points="-4,4 -4,-440.54 714,-440.54 714,4 -4,4"/>
<!-- Node1 -->
<g id="node1" class="node">
<title>Node1</title>
<g id="a_node1"><a xlink:title=" ">
<polygon fill="#bfbfbf" stroke="black" points="250,-204.04 250,-245.04 414,-245.04 414,-204.04 250,-204.04"/>
<text text-anchor="start" x="258" y="-233.04" font-family="Helvetica,sans-Serif" font-size="10.00">irr::video::COpenGLCoreCache</text>
<text text-anchor="start" x="258" y="-222.04" font-family="Helvetica,sans-Serif" font-size="10.00">Handler&lt; TOpenGLDriver,</text>
<text text-anchor="middle" x="332" y="-211.04" font-family="Helvetica,sans-Serif" font-size="10.00"> TOpenGLTexture &gt;</text>
</a>
</g>
</g>
<!-- Node4 -->
<g id="node4" class="node">
<title>Node4</title>
<g id="a_node4"><a xlink:href="classirr_1_1video_1_1COpenGLCoreCacheHandler_1_1STextureCache.html" target="_top" xlink:title=" ">
<polygon fill="white" stroke="black" points="522,-263.04 522,-304.04 710,-304.04 710,-263.04 522,-263.04"/>
<text text-anchor="start" x="530" y="-292.04" font-family="Helvetica,sans-Serif" font-size="10.00">irr::video::COpenGLCoreCache</text>
<text text-anchor="start" x="530" y="-281.04" font-family="Helvetica,sans-Serif" font-size="10.00">Handler&lt; TOpenGLDriver,</text>
<text text-anchor="middle" x="616" y="-270.04" font-family="Helvetica,sans-Serif" font-size="10.00"> TOpenGLTexture &gt;::STextureCache</text>
</a>
</g>
</g>
<!-- Node1&#45;&gt;Node4 -->
<g id="edge4" class="edge">
<title>Node1&#45;&gt;Node4</title>
<path fill="none" stroke="#9a32cd" stroke-dasharray="5,2" d="M424.21,-243.62C455.5,-250.17 490.54,-257.5 521.98,-264.08"/>
<polygon fill="#9a32cd" stroke="#9a32cd" points="424.69,-240.15 414.19,-241.53 423.26,-247 424.69,-240.15"/>
<text text-anchor="middle" x="468" y="-261.54" font-family="Helvetica,sans-Serif" font-size="10.00"> CacheHandler</text>
</g>
<!-- Node2 -->
<g id="node2" class="node">
<title>Node2</title>
<g id="a_node2"><a xlink:title=" ">
<polygon fill="white" stroke="#bfbfbf" points="31,-406.04 31,-425.04 68,-425.04 68,-406.04 31,-406.04"/>
<text text-anchor="middle" x="49.5" y="-413.04" font-family="Helvetica,sans-Serif" font-size="10.00">u8 *</text>
</a>
</g>
</g>
<!-- Node2&#45;&gt;Node1 -->
<g id="edge1" class="edge">
<title>Node2&#45;&gt;Node1</title>
<path fill="none" stroke="#9a32cd" stroke-dasharray="5,2" d="M78.23,-421.47C118.09,-428.21 191.28,-433.62 232,-393.54 273.89,-352.32 215.17,-309.88 250,-262.54 255.16,-255.53 261.93,-249.77 269.37,-245.05"/>
<polygon fill="#9a32cd" stroke="#9a32cd" points="78.62,-417.98 68.15,-419.62 77.35,-424.87 78.62,-417.98"/>
<text text-anchor="middle" x="174.5" y="-428.54" font-family="Helvetica,sans-Serif" font-size="10.00"> ColorMask</text>
</g>
<!-- Node3 -->
<g id="node3" class="node">
<title>Node3</title>
<g id="a_node3"><a xlink:title=" ">
<polygon fill="white" stroke="#bfbfbf" points="28.5,-362.04 28.5,-381.04 70.5,-381.04 70.5,-362.04 28.5,-362.04"/>
<text text-anchor="middle" x="49.5" y="-369.04" font-family="Helvetica,sans-Serif" font-size="10.00">GLint</text>
</a>
</g>
</g>
<!-- Node3&#45;&gt;Node1 -->
<g id="edge2" class="edge">
<title>Node3&#45;&gt;Node1</title>
<path fill="none" stroke="#9a32cd" stroke-dasharray="5,2" d="M80.92,-371.62C126.8,-371.08 210.62,-367.33 232,-347.54 260.34,-321.31 226.01,-292.8 250,-262.54 255.5,-255.6 262.57,-249.87 270.23,-245.15"/>
<polygon fill="#9a32cd" stroke="#9a32cd" points="80.65,-368.12 70.67,-371.69 80.7,-375.12 80.65,-368.12"/>
<text text-anchor="middle" x="174.5" y="-383.54" font-family="Helvetica,sans-Serif" font-size="10.00"> ViewportX</text>
<text text-anchor="middle" x="174.5" y="-372.54" font-family="Helvetica,sans-Serif" font-size="10.00">ViewportY</text>
</g>
<!-- Node4&#45;&gt;Node1 -->
<g id="edge3" class="edge">
<title>Node4&#45;&gt;Node1</title>
<path fill="none" stroke="#9a32cd" stroke-dasharray="5,2" d="M581.75,-256.86C560.79,-241.8 532.4,-224.45 504,-216.54 475.37,-208.57 443.01,-208.05 414.21,-210.37"/>
<polygon fill="#9a32cd" stroke="#9a32cd" points="579.84,-259.8 589.97,-262.92 584,-254.17 579.84,-259.8"/>
<text text-anchor="middle" x="468" y="-219.54" font-family="Helvetica,sans-Serif" font-size="10.00"> TextureCache</text>
</g>
<!-- Node5 -->
<g id="node5" class="node">
<title>Node5</title>
<g id="a_node5"><a xlink:title=" ">
<polygon fill="white" stroke="#bfbfbf" points="265,-348.04 265,-367.04 399,-367.04 399,-348.04 265,-348.04"/>
<text text-anchor="middle" x="332" y="-355.04" font-family="Helvetica,sans-Serif" font-size="10.00">const TOpenGLTexture *</text>
</a>
</g>
</g>
<!-- Node5&#45;&gt;Node4 -->
<g id="edge5" class="edge">
<title>Node5&#45;&gt;Node4</title>
<path fill="none" stroke="#9a32cd" stroke-dasharray="5,2" d="M396.78,-346.04C429.13,-339.72 468.9,-331.2 504,-321.54 522.17,-316.54 541.7,-310.19 559.23,-304.12"/>
<polygon fill="#9a32cd" stroke="#9a32cd" points="395.71,-342.68 386.55,-348.01 397.03,-349.55 395.71,-342.68"/>
<text text-anchor="middle" x="468" y="-340.54" font-family="Helvetica,sans-Serif" font-size="10.00"> Texture</text>
</g>
<!-- Node6 -->
<g id="node6" class="node">
<title>Node6</title>
<g id="a_node6"><a xlink:title=" ">
<polygon fill="white" stroke="#bfbfbf" points="285,-310.04 285,-329.04 379,-329.04 379,-310.04 285,-310.04"/>
<text text-anchor="middle" x="332" y="-317.04" font-family="Helvetica,sans-Serif" font-size="10.00">E_DRIVER_TYPE</text>
</a>
</g>
</g>
<!-- Node6&#45;&gt;Node4 -->
<g id="edge6" class="edge">
<title>Node6&#45;&gt;Node4</title>
<path fill="none" stroke="#9a32cd" stroke-dasharray="5,2" d="M389.58,-312.32C427.45,-307.48 478.18,-301.01 521.93,-295.42"/>
<polygon fill="#9a32cd" stroke="#9a32cd" points="388.73,-308.9 379.25,-313.64 389.61,-315.84 388.73,-308.9"/>
<text text-anchor="middle" x="468" y="-309.54" font-family="Helvetica,sans-Serif" font-size="10.00"> DriverType</text>
</g>
<!-- Node7 -->
<g id="node7" class="node">
<title>Node7</title>
<g id="a_node7"><a xlink:title=" ">
<polygon fill="white" stroke="#bfbfbf" points="304,-272.04 304,-291.04 360,-291.04 360,-272.04 304,-272.04"/>
<text text-anchor="middle" x="332" y="-279.04" font-family="Helvetica,sans-Serif" font-size="10.00">uint32_t</text>
</a>
</g>
</g>
<!-- Node7&#45;&gt;Node4 -->
<g id="edge7" class="edge">
<title>Node7&#45;&gt;Node4</title>
<path fill="none" stroke="#9a32cd" stroke-dasharray="5,2" d="M370.25,-281.8C408.71,-282.08 470.23,-282.51 521.97,-282.88"/>
<polygon fill="#9a32cd" stroke="#9a32cd" points="370.06,-278.3 360.04,-281.73 370.01,-285.3 370.06,-278.3"/>
<text text-anchor="middle" x="468" y="-285.54" font-family="Helvetica,sans-Serif" font-size="10.00"> TextureCount</text>
</g>
<!-- Node8 -->
<g id="node8" class="node">
<title>Node8</title>
<g id="a_node8"><a xlink:title=" ">
<polygon fill="white" stroke="#bfbfbf" points="0,-324.04 0,-343.04 99,-343.04 99,-324.04 0,-324.04"/>
<text text-anchor="middle" x="49.5" y="-331.04" font-family="Helvetica,sans-Serif" font-size="10.00">TOpenGLDriver *</text>
</a>
</g>
</g>
<!-- Node8&#45;&gt;Node1 -->
<g id="edge8" class="edge">
<title>Node8&#45;&gt;Node1</title>
<path fill="none" stroke="#9a32cd" stroke-dasharray="5,2" d="M109.22,-333.68C154.88,-332.6 213.47,-328.24 232,-313.54 250.83,-298.6 233.87,-280.36 250,-262.54 256.25,-255.63 264.03,-249.87 272.26,-245.11"/>
<polygon fill="#9a32cd" stroke="#9a32cd" points="109.04,-330.18 99.11,-333.87 109.17,-337.18 109.04,-330.18"/>
<text text-anchor="middle" x="174.5" y="-335.54" font-family="Helvetica,sans-Serif" font-size="10.00"> Driver</text>
</g>
<!-- Node9 -->
<g id="node9" class="node">
<title>Node9</title>
<g id="a_node9"><a xlink:title=" ">
<polygon fill="white" stroke="#bfbfbf" points="21,-215.04 21,-234.04 78,-234.04 78,-215.04 21,-215.04"/>
<text text-anchor="middle" x="49.5" y="-222.04" font-family="Helvetica,sans-Serif" font-size="10.00">GLenum</text>
</a>
</g>
</g>
<!-- Node9&#45;&gt;Node1 -->
<g id="edge9" class="edge">
<title>Node9&#45;&gt;Node1</title>
<path fill="none" stroke="#9a32cd" stroke-dasharray="5,2" d="M88.3,-224.54C129.48,-224.54 196.59,-224.54 249.81,-224.54"/>
<polygon fill="#9a32cd" stroke="#9a32cd" points="88.16,-221.04 78.16,-224.54 88.16,-228.04 88.16,-221.04"/>
<text text-anchor="middle" x="174.5" y="-304.54" font-family="Helvetica,sans-Serif" font-size="10.00"> BlendDestinationAlpha</text>
<text text-anchor="middle" x="174.5" y="-293.54" font-family="Helvetica,sans-Serif" font-size="10.00">BlendEquation</text>
<text text-anchor="middle" x="174.5" y="-282.54" font-family="Helvetica,sans-Serif" font-size="10.00">CullFaceMode</text>
<text text-anchor="middle" x="174.5" y="-271.54" font-family="Helvetica,sans-Serif" font-size="10.00">BlendSourceRGB</text>
<text text-anchor="middle" x="174.5" y="-260.54" font-family="Helvetica,sans-Serif" font-size="10.00">BlendSourceAlpha</text>
<text text-anchor="middle" x="174.5" y="-249.54" font-family="Helvetica,sans-Serif" font-size="10.00">BlendDestinationRGB</text>
<text text-anchor="middle" x="174.5" y="-238.54" font-family="Helvetica,sans-Serif" font-size="10.00">DepthFunc</text>
<text text-anchor="middle" x="174.5" y="-227.54" font-family="Helvetica,sans-Serif" font-size="10.00">ActiveTexture</text>
</g>
<!-- Node10 -->
<g id="node10" class="node">
<title>Node10</title>
<g id="a_node10"><a xlink:href="classbool.html" target="_top" xlink:title=" ">
<polygon fill="white" stroke="black" points="30.5,-104.04 30.5,-123.04 68.5,-123.04 68.5,-104.04 30.5,-104.04"/>
<text text-anchor="middle" x="49.5" y="-111.04" font-family="Helvetica,sans-Serif" font-size="10.00">bool</text>
</a>
</g>
</g>
<!-- Node10&#45;&gt;Node1 -->
<g id="edge10" class="edge">
<title>Node10&#45;&gt;Node1</title>
<path fill="none" stroke="#9a32cd" stroke-dasharray="5,2" d="M78.8,-111.13C115.78,-109.15 181.73,-109.69 232,-132.54 267.25,-148.56 298.18,-182.15 315.73,-204"/>
<polygon fill="#9a32cd" stroke="#9a32cd" points="78.5,-107.64 68.74,-111.77 78.94,-114.63 78.5,-107.64"/>
<text text-anchor="middle" x="174.5" y="-212.54" font-family="Helvetica,sans-Serif" font-size="10.00"> DepthTest</text>
<text text-anchor="middle" x="174.5" y="-201.54" font-family="Helvetica,sans-Serif" font-size="10.00">CullFace</text>
<text text-anchor="middle" x="174.5" y="-190.54" font-family="Helvetica,sans-Serif" font-size="10.00">BlendFuncInvalid</text>
<text text-anchor="middle" x="174.5" y="-179.54" font-family="Helvetica,sans-Serif" font-size="10.00">BlendInvalid</text>
<text text-anchor="middle" x="174.5" y="-168.54" font-family="Helvetica,sans-Serif" font-size="10.00">ColorMaskInvalid</text>
<text text-anchor="middle" x="174.5" y="-157.54" font-family="Helvetica,sans-Serif" font-size="10.00">DepthMask</text>
<text text-anchor="middle" x="174.5" y="-146.54" font-family="Helvetica,sans-Serif" font-size="10.00">BlendEquationInvalid</text>
<text text-anchor="middle" x="174.5" y="-135.54" font-family="Helvetica,sans-Serif" font-size="10.00">Blend</text>
</g>
<!-- Node11 -->
<g id="node11" class="node">
<title>Node11</title>
<g id="a_node11"><a xlink:title=" ">
<polygon fill="white" stroke="#bfbfbf" points="23.5,-59.04 23.5,-78.04 75.5,-78.04 75.5,-59.04 23.5,-59.04"/>
<text text-anchor="middle" x="49.5" y="-66.04" font-family="Helvetica,sans-Serif" font-size="10.00">GLsizei</text>
</a>
</g>
</g>
<!-- Node11&#45;&gt;Node1 -->
<g id="edge11" class="edge">
<title>Node11&#45;&gt;Node1</title>
<path fill="none" stroke="#9a32cd" stroke-dasharray="5,2" d="M85.85,-63.31C124.44,-59.4 186.75,-58.53 232,-84.54 279.49,-111.83 309.86,-172.22 323.18,-204.02"/>
<polygon fill="#9a32cd" stroke="#9a32cd" points="85.17,-59.86 75.63,-64.47 85.96,-66.82 85.17,-59.86"/>
<text text-anchor="middle" x="174.5" y="-98.54" font-family="Helvetica,sans-Serif" font-size="10.00"> ViewportHeight</text>
<text text-anchor="middle" x="174.5" y="-87.54" font-family="Helvetica,sans-Serif" font-size="10.00">ViewportWidth</text>
</g>
<!-- Node12 -->
<g id="node12" class="node">
<title>Node12</title>
<g id="a_node12"><a xlink:title=" ">
<polygon fill="white" stroke="#bfbfbf" points="25.5,-3.04 25.5,-22.04 73.5,-22.04 73.5,-3.04 25.5,-3.04"/>
<text text-anchor="middle" x="49.5" y="-10.04" font-family="Helvetica,sans-Serif" font-size="10.00">GLuint</text>
</a>
</g>
</g>
<!-- Node12&#45;&gt;Node1 -->
<g id="edge12" class="edge">
<title>Node12&#45;&gt;Node1</title>
<path fill="none" stroke="#9a32cd" stroke-dasharray="5,2" d="M83.99,-5.21C122.98,1.35 187.67,5.94 232,-23.54 295.65,-65.86 319.92,-161.64 327.76,-203.87"/>
<polygon fill="#9a32cd" stroke="#9a32cd" points="82.92,-1.85 73.72,-7.09 84.18,-8.73 82.92,-1.85"/>
<text text-anchor="middle" x="174.5" y="-48.54" font-family="Helvetica,sans-Serif" font-size="10.00"> ProgramID</text>
<text text-anchor="middle" x="174.5" y="-37.54" font-family="Helvetica,sans-Serif" font-size="10.00">FrameBufferCount</text>
<text text-anchor="middle" x="174.5" y="-26.54" font-family="Helvetica,sans-Serif" font-size="10.00">FrameBufferID</text>
</g>
</g>
</svg>
