<?xml version="1.0" encoding="UTF-8" standalone="no"?>
<!DOCTYPE svg PUBLIC "-//W3C//DTD SVG 1.1//EN"
 "http://www.w3.org/Graphics/SVG/1.1/DTD/svg11.dtd">
<!-- Generated by graphviz version 2.43.0 (0)
 -->
<!-- Title: con::ConnectionBindFailed Pages: 1 -->
<svg width="153pt" height="152pt"
 viewBox="0.00 0.00 153.00 152.00" xmlns="http://www.w3.org/2000/svg" xmlns:xlink="http://www.w3.org/1999/xlink">
<g id="graph0" class="graph" transform="scale(1 1) rotate(0) translate(4 148)">
<title>con::ConnectionBindFailed</title>
<polygon fill="white" stroke="transparent" points="-4,4 -4,-148 149,-148 149,4 -4,4"/>
<!-- Node1 -->
<g id="node1" class="node">
<title>Node1</title>
<g id="a_node1"><a xlink:title=" ">
<polygon fill="#bfbfbf" stroke="black" points="0,-0.5 0,-19.5 145,-19.5 145,-0.5 0,-0.5"/>
<text text-anchor="middle" x="72.5" y="-7.5" font-family="Helvetica,sans-Serif" font-size="10.00">con::ConnectionBindFailed</text>
</a>
</g>
</g>
<!-- Node2 -->
<g id="node2" class="node">
<title>Node2</title>
<g id="a_node2"><a xlink:href="classBaseException.html" target="_top" xlink:title=" ">
<polygon fill="white" stroke="black" points="28,-57.5 28,-76.5 117,-76.5 117,-57.5 28,-57.5"/>
<text text-anchor="middle" x="72.5" y="-64.5" font-family="Helvetica,sans-Serif" font-size="10.00">BaseException</text>
</a>
</g>
</g>
<!-- Node2&#45;&gt;Node1 -->
<g id="edge1" class="edge">
<title>Node2&#45;&gt;Node1</title>
<path fill="none" stroke="midnightblue" d="M72.5,-47.12C72.5,-37.82 72.5,-27.06 72.5,-19.71"/>
<polygon fill="midnightblue" stroke="midnightblue" points="69,-47.41 72.5,-57.41 76,-47.41 69,-47.41"/>
</g>
<!-- Node3 -->
<g id="node3" class="node">
<title>Node3</title>
<g id="a_node3"><a xlink:title=" ">
<polygon fill="white" stroke="#bfbfbf" points="4,-124.5 4,-143.5 69,-143.5 69,-124.5 4,-124.5"/>
<text text-anchor="middle" x="36.5" y="-131.5" font-family="Helvetica,sans-Serif" font-size="10.00">exception</text>
</a>
</g>
</g>
<!-- Node3&#45;&gt;Node2 -->
<g id="edge2" class="edge">
<title>Node3&#45;&gt;Node2</title>
<path fill="none" stroke="midnightblue" d="M46.38,-115.16C53.32,-102.63 62.3,-86.41 67.72,-76.63"/>
<polygon fill="midnightblue" stroke="midnightblue" points="43.14,-113.79 41.36,-124.23 49.26,-117.18 43.14,-113.79"/>
</g>
<!-- Node4 -->
<g id="node4" class="node">
<title>Node4</title>
<g id="a_node4"><a xlink:title=" ">
<polygon fill="white" stroke="#bfbfbf" points="87.5,-124.5 87.5,-143.5 131.5,-143.5 131.5,-124.5 87.5,-124.5"/>
<text text-anchor="middle" x="109.5" y="-131.5" font-family="Helvetica,sans-Serif" font-size="10.00">string</text>
</a>
</g>
</g>
<!-- Node4&#45;&gt;Node2 -->
<g id="edge3" class="edge">
<title>Node4&#45;&gt;Node2</title>
<path fill="none" stroke="#9a32cd" stroke-dasharray="5,2" d="M99.56,-115.53C92.39,-102.95 83.03,-86.51 77.41,-76.63"/>
<polygon fill="#9a32cd" stroke="#9a32cd" points="96.52,-117.27 104.51,-124.23 102.6,-113.81 96.52,-117.27"/>
<text text-anchor="middle" x="104.5" y="-98" font-family="Helvetica,sans-Serif" font-size="10.00"> m_s</text>
</g>
</g>
</svg>
