<?xml version="1.0" encoding="UTF-8" standalone="no"?>
<!DOCTYPE svg PUBLIC "-//W3C//DTD SVG 1.1//EN"
 "http://www.w3.org/Graphics/SVG/1.1/DTD/svg11.dtd">
<!-- Generated by graphviz version 2.43.0 (0)
 -->
<!-- Title: irr::video::CImage::copyToScaling Pages: 1 -->
<svg width="444pt" height="98pt"
 viewBox="0.00 0.00 444.00 98.00" xmlns="http://www.w3.org/2000/svg" xmlns:xlink="http://www.w3.org/1999/xlink">
<g id="graph0" class="graph" transform="scale(1 1) rotate(0) translate(4 94)">
<title>irr::video::CImage::copyToScaling</title>
<polygon fill="white" stroke="transparent" points="-4,4 -4,-94 440,-94 440,4 -4,4"/>
<!-- Node1 -->
<g id="node1" class="node">
<title>Node1</title>
<g id="a_node1"><a xlink:title="copies this surface into another, scaling it to fit.">
<polygon fill="#bfbfbf" stroke="black" points="0,-25.5 0,-55.5 104,-55.5 104,-25.5 0,-25.5"/>
<text text-anchor="start" x="8" y="-43.5" font-family="Helvetica,sans-Serif" font-size="10.00">irr::video::CImage</text>
<text text-anchor="middle" x="52" y="-32.5" font-family="Helvetica,sans-Serif" font-size="10.00">::copyToScaling</text>
</a>
</g>
</g>
<!-- Node2 -->
<g id="node2" class="node">
<title>Node2</title>
<g id="a_node2"><a xlink:href="classirr_1_1video_1_1CImage.html#ac206a05ef5a89bd9f085a37f643d996e" target="_top" xlink:title="copies this surface into another, if it has the exact same size and format.">
<polygon fill="white" stroke="black" points="140,-25.5 140,-55.5 245,-55.5 245,-25.5 140,-25.5"/>
<text text-anchor="start" x="148" y="-43.5" font-family="Helvetica,sans-Serif" font-size="10.00">irr::video::CImage</text>
<text text-anchor="middle" x="192.5" y="-32.5" font-family="Helvetica,sans-Serif" font-size="10.00">::copyToNoScaling</text>
</a>
</g>
</g>
<!-- Node1&#45;&gt;Node2 -->
<g id="edge1" class="edge">
<title>Node1&#45;&gt;Node2</title>
<path fill="none" stroke="midnightblue" d="M104.18,-40.5C112.4,-40.5 120.98,-40.5 129.42,-40.5"/>
<polygon fill="midnightblue" stroke="midnightblue" points="129.61,-44 139.61,-40.5 129.61,-37 129.61,-44"/>
</g>
<!-- Node3 -->
<g id="node3" class="node">
<title>Node3</title>
<g id="a_node3"><a xlink:href="classirr_1_1video_1_1IImage.html#a70b50ef1bbb6f90ec4c43a91f521c2b6" target="_top" xlink:title="get the amount of Bits per Pixel of the given color format">
<polygon fill="white" stroke="black" points="281,-59.5 281,-89.5 436,-89.5 436,-59.5 281,-59.5"/>
<text text-anchor="start" x="289" y="-77.5" font-family="Helvetica,sans-Serif" font-size="10.00">irr::video::IImage</text>
<text text-anchor="middle" x="358.5" y="-66.5" font-family="Helvetica,sans-Serif" font-size="10.00">::getBitsPerPixelFromFormat</text>
</a>
</g>
</g>
<!-- Node1&#45;&gt;Node3 -->
<g id="edge4" class="edge">
<title>Node1&#45;&gt;Node3</title>
<path fill="none" stroke="midnightblue" d="M97.69,-55.55C111.14,-59.48 126.04,-63.24 140,-65.5 182.64,-72.41 230.56,-74.94 270.55,-75.63"/>
<polygon fill="midnightblue" stroke="midnightblue" points="270.76,-79.13 280.8,-75.77 270.85,-72.13 270.76,-79.13"/>
</g>
<!-- Node4 -->
<g id="node4" class="node">
<title>Node4</title>
<g id="a_node4"><a xlink:href="classirr_1_1video_1_1IImage.html#a2e54dd41abc9f56e81f72de5e8538aee" target="_top" xlink:title="check if this is compressed color format">
<polygon fill="white" stroke="black" points="295.5,-0.5 295.5,-30.5 421.5,-30.5 421.5,-0.5 295.5,-0.5"/>
<text text-anchor="start" x="303.5" y="-18.5" font-family="Helvetica,sans-Serif" font-size="10.00">irr::video::IImage</text>
<text text-anchor="middle" x="358.5" y="-7.5" font-family="Helvetica,sans-Serif" font-size="10.00">::isCompressedFormat</text>
</a>
</g>
</g>
<!-- Node1&#45;&gt;Node4 -->
<g id="edge5" class="edge">
<title>Node1&#45;&gt;Node4</title>
<path fill="none" stroke="midnightblue" d="M96.3,-25.48C110.09,-21.39 125.53,-17.54 140,-15.5 188.02,-8.74 242.59,-8.76 285.06,-10.46"/>
<polygon fill="midnightblue" stroke="midnightblue" points="285.16,-13.97 295.3,-10.91 285.47,-6.98 285.16,-13.97"/>
</g>
<!-- Node2&#45;&gt;Node3 -->
<g id="edge2" class="edge">
<title>Node2&#45;&gt;Node3</title>
<path fill="none" stroke="midnightblue" d="M245.39,-51.26C254.82,-53.21 264.87,-55.3 274.93,-57.38"/>
<polygon fill="midnightblue" stroke="midnightblue" points="274.47,-60.86 284.97,-59.46 275.89,-54.01 274.47,-60.86"/>
</g>
<!-- Node2&#45;&gt;Node4 -->
<g id="edge3" class="edge">
<title>Node2&#45;&gt;Node4</title>
<path fill="none" stroke="midnightblue" d="M245.39,-32.59C258.03,-30.66 271.77,-28.57 285.17,-26.53"/>
<polygon fill="midnightblue" stroke="midnightblue" points="285.96,-29.95 295.32,-24.98 284.91,-23.03 285.96,-29.95"/>
</g>
</g>
</svg>
