<?xml version="1.0" encoding="UTF-8" standalone="no"?>
<!DOCTYPE svg PUBLIC "-//W3C//DTD SVG 1.1//EN"
 "http://www.w3.org/Graphics/SVG/1.1/DTD/svg11.dtd">
<!-- Generated by graphviz version 2.43.0 (0)
 -->
<!-- Title: InitInterlacedMaskStep Pages: 1 -->
<!--zoomable 555 -->
<svg id="main" version="1.1" xmlns="http://www.w3.org/2000/svg" xmlns:xlink="http://www.w3.org/1999/xlink" xml:space="preserve" onload="init(evt)">
<style type="text/css"><![CDATA[
.edge:hover path { stroke: red; }
.edge:hover polygon { stroke: red; fill: red; }
]]></style>
<script type="text/javascript"><![CDATA[
var edges = document.getElementsByTagName('g');
if (edges && edges.length) {
  for (var i=0;i<edges.length;i++) {
    if (edges[i].id.substr(0,4)=='edge') {
      edges[i].setAttribute('class','edge');
    }
  }
}
]]></script>
        <defs>
                <circle id="rim" cx="0" cy="0" r="7"/>
                <circle id="rim2" cx="0" cy="0" r="3.5"/>
                <g id="zoomPlus">
                        <use xlink:href="#rim" fill="#404040">
                                <set attributeName="fill" to="#808080" begin="zoomplus.mouseover" end="zoomplus.mouseout"/>
                        </use>
                        <path d="M-4,0h8M0,-4v8" fill="none" stroke="white" stroke-width="1.5" pointer-events="none"/>
                </g>
                <g id="zoomMin">
                        <use xlink:href="#rim" fill="#404040">
                                <set attributeName="fill" to="#808080" begin="zoomminus.mouseover" end="zoomminus.mouseout"/>
                        </use>
                        <path d="M-4,0h8" fill="none" stroke="white" stroke-width="1.5" pointer-events="none"/>
                </g>
                <g id="dirArrow">
                        <path fill="none" stroke="white" stroke-width="1.5" d="M0,-3.0v7 M-2.5,-0.5L0,-3.0L2.5,-0.5"/>
                </g>
               <g id="resetDef">
                       <use xlink:href="#rim2" fill="#404040">
                               <set attributeName="fill" to="#808080" begin="reset.mouseover" end="reset.mouseout"/>
                       </use>
               </g>
        </defs>

<script type="text/javascript">
var viewWidth = 1571;
var viewHeight = 555;
var sectionId = 'dynsection-1';
</script>
<script xlink:href="svgpan.js"/>
<svg id="graph" class="graph">
<g id="viewport">
<title>InitInterlacedMaskStep</title>
<polygon fill="white" stroke="transparent" points="-4,4 -4,-550.72 1567,-550.72 1567,4 -4,4"/>
<!-- Node1 -->
<g id="node1" class="node">
<title>Node1</title>
<g id="a_node1"><a xlink:title=" ">
<polygon fill="#bfbfbf" stroke="black" points="1434,-477.22 1434,-496.22 1563,-496.22 1563,-477.22 1434,-477.22"/>
<text text-anchor="middle" x="1498.5" y="-484.22" font-family="Helvetica,sans-Serif" font-size="10.00">InitInterlacedMaskStep</text>
</a>
</g>
</g>
<!-- Node2 -->
<g id="node2" class="node">
<title>Node2</title>
<g id="a_node2"><a xlink:href="classTrivialRenderStep.html" target="_top" xlink:title=" ">
<polygon fill="white" stroke="black" points="1264,-527.22 1264,-546.22 1366,-546.22 1366,-527.22 1264,-527.22"/>
<text text-anchor="middle" x="1315" y="-534.22" font-family="Helvetica,sans-Serif" font-size="10.00">TrivialRenderStep</text>
</a>
</g>
</g>
<!-- Node2&#45;&gt;Node1 -->
<g id="edge1" class="edge">
<title>Node2&#45;&gt;Node1</title>
<path fill="none" stroke="midnightblue" d="M1366.65,-524.61C1382.5,-520.67 1400.02,-516.16 1416,-511.72 1433.25,-506.92 1452.4,-501.07 1467.8,-496.24"/>
<polygon fill="midnightblue" stroke="midnightblue" points="1365.38,-521.31 1356.51,-527.1 1367.06,-528.11 1365.38,-521.31"/>
</g>
<!-- Node3 -->
<g id="node3" class="node">
<title>Node3</title>
<g id="a_node3"><a xlink:href="classRenderStep.html" target="_top" xlink:title=" ">
<polygon fill="white" stroke="black" points="1021,-527.22 1021,-546.22 1094,-546.22 1094,-527.22 1021,-527.22"/>
<text text-anchor="middle" x="1057.5" y="-534.22" font-family="Helvetica,sans-Serif" font-size="10.00">RenderStep</text>
</a>
</g>
</g>
<!-- Node3&#45;&gt;Node2 -->
<g id="edge2" class="edge">
<title>Node3&#45;&gt;Node2</title>
<path fill="none" stroke="midnightblue" d="M1104.07,-536.72C1148.97,-536.72 1217.42,-536.72 1263.85,-536.72"/>
<polygon fill="midnightblue" stroke="midnightblue" points="1104.03,-533.22 1094.03,-536.72 1104.03,-540.22 1104.03,-533.22"/>
</g>
<!-- Node4 -->
<g id="node4" class="node">
<title>Node4</title>
<g id="a_node4"><a xlink:href="classRenderPipelineObject.html" target="_top" xlink:title=" ">
<polygon fill="white" stroke="black" points="716,-519.22 716,-538.22 838,-538.22 838,-519.22 716,-519.22"/>
<text text-anchor="middle" x="777" y="-526.22" font-family="Helvetica,sans-Serif" font-size="10.00">RenderPipelineObject</text>
</a>
</g>
</g>
<!-- Node4&#45;&gt;Node3 -->
<g id="edge3" class="edge">
<title>Node4&#45;&gt;Node3</title>
<path fill="none" stroke="midnightblue" d="M848.12,-530.73C903.1,-532.31 977.34,-534.44 1020.76,-535.69"/>
<polygon fill="midnightblue" stroke="midnightblue" points="848.18,-527.23 838.09,-530.44 847.98,-534.23 848.18,-527.23"/>
</g>
<!-- Node26 -->
<g id="node26" class="node">
<title>Node26</title>
<g id="a_node26"><a xlink:href="classRenderSource.html" target="_top" xlink:title=" ">
<polygon fill="white" stroke="black" points="1015.5,-451.22 1015.5,-470.22 1099.5,-470.22 1099.5,-451.22 1015.5,-451.22"/>
<text text-anchor="middle" x="1057.5" y="-458.22" font-family="Helvetica,sans-Serif" font-size="10.00">RenderSource</text>
</a>
</g>
</g>
<!-- Node4&#45;&gt;Node26 -->
<g id="edge28" class="edge">
<title>Node4&#45;&gt;Node26</title>
<path fill="none" stroke="midnightblue" d="M839.21,-517.2C878.54,-509.36 930.6,-498.18 976,-485.72 984.13,-483.49 985.97,-482.28 994,-479.72 1003.94,-476.55 1014.81,-473.21 1024.65,-470.22"/>
<polygon fill="midnightblue" stroke="midnightblue" points="838.37,-513.8 829.24,-519.17 839.72,-520.67 838.37,-513.8"/>
</g>
<!-- Node5 -->
<g id="node5" class="node">
<title>Node5</title>
<g id="a_node5"><a xlink:title=" ">
<polygon fill="white" stroke="#bfbfbf" points="1043,-489.22 1043,-508.22 1072,-508.22 1072,-489.22 1043,-489.22"/>
<text text-anchor="middle" x="1057.5" y="-496.22" font-family="Helvetica,sans-Serif" font-size="10.00">u8</text>
</a>
</g>
</g>
<!-- Node5&#45;&gt;Node1 -->
<g id="edge4" class="edge">
<title>Node5&#45;&gt;Node1</title>
<path fill="none" stroke="#9a32cd" stroke-dasharray="5,2" d="M1082.3,-498.07C1148.17,-496.27 1334.55,-491.17 1433.67,-488.46"/>
<polygon fill="#9a32cd" stroke="#9a32cd" points="1082.02,-494.57 1072.12,-498.35 1082.21,-501.57 1082.02,-494.57"/>
<text text-anchor="middle" x="1315" y="-495.72" font-family="Helvetica,sans-Serif" font-size="10.00"> index</text>
</g>
<!-- Node25 -->
<g id="node25" class="node">
<title>Node25</title>
<g id="a_node25"><a xlink:href="classTextureBuffer.html" target="_top" xlink:title=" ">
<polygon fill="white" stroke="black" points="1274,-414.22 1274,-433.22 1356,-433.22 1356,-414.22 1274,-414.22"/>
<text text-anchor="middle" x="1315" y="-421.22" font-family="Helvetica,sans-Serif" font-size="10.00">TextureBuffer</text>
</a>
</g>
</g>
<!-- Node5&#45;&gt;Node25 -->
<g id="edge29" class="edge">
<title>Node5&#45;&gt;Node25</title>
<path fill="none" stroke="#9a32cd" stroke-dasharray="5,2" d="M1081.95,-492.05C1093.74,-488.58 1108.2,-484.15 1121,-479.72 1129.11,-476.91 1130.78,-475.18 1139,-472.72 1185.59,-458.75 1199.37,-463.56 1246,-449.72 1261.51,-445.12 1278.51,-438.62 1291.63,-433.27"/>
<polygon fill="#9a32cd" stroke="#9a32cd" points="1080.63,-488.78 1072.01,-494.93 1082.59,-495.51 1080.63,-488.78"/>
<text text-anchor="middle" x="1192.5" y="-475.72" font-family="Helvetica,sans-Serif" font-size="10.00"> NO_DEPTH_TEXTURE</text>
</g>
<!-- Node6 -->
<g id="node6" class="node">
<title>Node6</title>
<g id="a_node6"><a xlink:href="classirr_1_1video_1_1ITexture.html" target="_top" xlink:title="Interface of a Video Driver dependent Texture.">
<polygon fill="white" stroke="black" points="1005,-196.22 1005,-215.22 1110,-215.22 1110,-196.22 1005,-196.22"/>
<text text-anchor="middle" x="1057.5" y="-203.22" font-family="Helvetica,sans-Serif" font-size="10.00">irr::video::ITexture</text>
</a>
</g>
</g>
<!-- Node6&#45;&gt;Node1 -->
<g id="edge5" class="edge">
<title>Node6&#45;&gt;Node1</title>
<path fill="none" stroke="#9a32cd" stroke-dasharray="5,2" d="M1083.81,-220.42C1136.84,-251.38 1263.2,-326.05 1366,-393.72 1410.38,-422.93 1461.32,-460.01 1484.63,-477.19"/>
<polygon fill="#9a32cd" stroke="#9a32cd" points="1085.48,-217.34 1075.08,-215.33 1081.95,-223.39 1085.48,-217.34"/>
<text text-anchor="middle" x="1315" y="-396.72" font-family="Helvetica,sans-Serif" font-size="10.00"> last_mask</text>
</g>
<!-- Node7 -->
<g id="node7" class="node">
<title>Node7</title>
<g id="a_node7"><a xlink:href="classirr_1_1IReferenceCounted.html" target="_top" xlink:title="Base class of most objects of the Irrlicht Engine.">
<polygon fill="white" stroke="black" points="714,-292.22 714,-311.22 840,-311.22 840,-292.22 714,-292.22"/>
<text text-anchor="middle" x="777" y="-299.22" font-family="Helvetica,sans-Serif" font-size="10.00">irr::IReferenceCounted</text>
</a>
</g>
</g>
<!-- Node7&#45;&gt;Node6 -->
<g id="edge6" class="edge">
<title>Node7&#45;&gt;Node6</title>
<path fill="none" stroke="midnightblue" d="M850.16,-298.32C888.81,-294.4 936.47,-286.12 976,-268.72 1005.24,-255.85 1033.16,-229.93 1047.16,-215.68"/>
<polygon fill="midnightblue" stroke="midnightblue" points="849.66,-294.85 840.03,-299.27 850.31,-301.82 849.66,-294.85"/>
</g>
<!-- Node31 -->
<g id="node31" class="node">
<title>Node31</title>
<g id="a_node31"><a xlink:href="classirr_1_1video_1_1IVideoDriver.html" target="_top" xlink:title="Interface to driver which is able to perform 2d and 3d graphics functions.">
<polygon fill="white" stroke="black" points="994,-363.22 994,-382.22 1121,-382.22 1121,-363.22 994,-363.22"/>
<text text-anchor="middle" x="1057.5" y="-370.22" font-family="Helvetica,sans-Serif" font-size="10.00">irr::video::IVideoDriver</text>
</a>
</g>
</g>
<!-- Node7&#45;&gt;Node31 -->
<g id="edge37" class="edge">
<title>Node7&#45;&gt;Node31</title>
<path fill="none" stroke="midnightblue" d="M825.06,-313.72C879.72,-327.65 968.8,-350.36 1019.01,-363.16"/>
<polygon fill="midnightblue" stroke="midnightblue" points="825.83,-310.3 815.27,-311.22 824.1,-317.08 825.83,-310.3"/>
</g>
<!-- Node8 -->
<g id="node8" class="node">
<title>Node8</title>
<g id="a_node8"><a xlink:title=" ">
<polygon fill="white" stroke="#bfbfbf" points="480,-275.22 480,-294.22 518,-294.22 518,-275.22 480,-275.22"/>
<text text-anchor="middle" x="499" y="-282.22" font-family="Helvetica,sans-Serif" font-size="10.00">char</text>
</a>
</g>
</g>
<!-- Node8&#45;&gt;Node7 -->
<g id="edge7" class="edge">
<title>Node8&#45;&gt;Node7</title>
<path fill="none" stroke="#9a32cd" stroke-dasharray="5,2" d="M528.33,-284.29C564.51,-283.99 629.02,-284.25 684,-288.72 694.29,-289.55 705.18,-290.78 715.74,-292.16"/>
<polygon fill="#9a32cd" stroke="#9a32cd" points="528.02,-280.8 518.06,-284.4 528.09,-287.8 528.02,-280.8"/>
<text text-anchor="middle" x="638.5" y="-291.72" font-family="Helvetica,sans-Serif" font-size="10.00"> DebugName</text>
</g>
<!-- Node9 -->
<g id="node9" class="node">
<title>Node9</title>
<g id="a_node9"><a xlink:title=" ">
<polygon fill="white" stroke="#bfbfbf" points="474,-313.22 474,-332.22 524,-332.22 524,-313.22 474,-313.22"/>
<text text-anchor="middle" x="499" y="-320.22" font-family="Helvetica,sans-Serif" font-size="10.00">int32_t</text>
</a>
</g>
</g>
<!-- Node9&#45;&gt;Node7 -->
<g id="edge8" class="edge">
<title>Node9&#45;&gt;Node7</title>
<path fill="none" stroke="#9a32cd" stroke-dasharray="5,2" d="M534.08,-320.13C578.88,-316.72 658.38,-310.67 713.97,-306.44"/>
<polygon fill="#9a32cd" stroke="#9a32cd" points="533.72,-316.64 524.01,-320.89 534.25,-323.62 533.72,-316.64"/>
<text text-anchor="middle" x="638.5" y="-318.72" font-family="Helvetica,sans-Serif" font-size="10.00"> ReferenceCounter</text>
</g>
<!-- Node10 -->
<g id="node10" class="node">
<title>Node10</title>
<g id="a_node10"><a xlink:href="classirr_1_1core_1_1dimension2d.html" target="_top" xlink:title=" ">
<polygon fill="white" stroke="black" points="715.5,-119.72 715.5,-149.72 838.5,-149.72 838.5,-119.72 715.5,-119.72"/>
<text text-anchor="start" x="723.5" y="-137.72" font-family="Helvetica,sans-Serif" font-size="10.00">irr::core::dimension2d</text>
<text text-anchor="middle" x="777" y="-126.72" font-family="Helvetica,sans-Serif" font-size="10.00">&lt; u32 &gt;</text>
</a>
</g>
</g>
<!-- Node10&#45;&gt;Node6 -->
<g id="edge9" class="edge">
<title>Node10&#45;&gt;Node6</title>
<path fill="none" stroke="#9a32cd" stroke-dasharray="5,2" d="M848.7,-131.71C887.32,-132.2 935.41,-136.36 976,-150.72 1004.08,-160.65 1031.6,-182.92 1046.06,-195.87"/>
<polygon fill="#9a32cd" stroke="#9a32cd" points="848.6,-128.21 838.58,-131.66 848.57,-135.21 848.6,-128.21"/>
<text text-anchor="middle" x="923" y="-164.72" font-family="Helvetica,sans-Serif" font-size="10.00"> Size</text>
<text text-anchor="middle" x="923" y="-153.72" font-family="Helvetica,sans-Serif" font-size="10.00">OriginalSize</text>
</g>
<!-- Node11 -->
<g id="node11" class="node">
<title>Node11</title>
<g id="a_node11"><a xlink:title=" ">
<polygon fill="white" stroke="#bfbfbf" points="471,-160.22 471,-179.22 527,-179.22 527,-160.22 471,-160.22"/>
<text text-anchor="middle" x="499" y="-167.22" font-family="Helvetica,sans-Serif" font-size="10.00">uint32_t</text>
</a>
</g>
</g>
<!-- Node11&#45;&gt;Node6 -->
<g id="edge16" class="edge">
<title>Node11&#45;&gt;Node6</title>
<path fill="none" stroke="#9a32cd" stroke-dasharray="5,2" d="M537.42,-172.14C634.4,-178.41 893.99,-195.21 1004.99,-202.39"/>
<polygon fill="#9a32cd" stroke="#9a32cd" points="537.42,-168.63 527.22,-171.48 536.97,-175.62 537.42,-168.63"/>
<text text-anchor="middle" x="777" y="-195.72" font-family="Helvetica,sans-Serif" font-size="10.00"> Pitch</text>
</g>
<!-- Node11&#45;&gt;Node10 -->
<g id="edge10" class="edge">
<title>Node11&#45;&gt;Node10</title>
<path fill="none" stroke="#9a32cd" stroke-dasharray="5,2" d="M537.18,-161.11C554.13,-157.45 574.5,-153.41 593,-150.72 633.55,-144.82 679.5,-140.81 715.22,-138.28"/>
<polygon fill="#9a32cd" stroke="#9a32cd" points="536.13,-157.76 527.12,-163.32 537.64,-164.59 536.13,-157.76"/>
<text text-anchor="middle" x="638.5" y="-164.72" font-family="Helvetica,sans-Serif" font-size="10.00"> Width</text>
<text text-anchor="middle" x="638.5" y="-153.72" font-family="Helvetica,sans-Serif" font-size="10.00">Height</text>
</g>
<!-- Node12 -->
<g id="node12" class="node">
<title>Node12</title>
<g id="a_node12"><a xlink:href="classirr_1_1core_1_1dimension2d.html" target="_top" xlink:title="Specifies a 2 dimensional size.">
<polygon fill="white" stroke="black" points="423,-106.22 423,-125.22 575,-125.22 575,-106.22 423,-106.22"/>
<text text-anchor="middle" x="499" y="-113.22" font-family="Helvetica,sans-Serif" font-size="10.00">irr::core::dimension2d&lt; T &gt;</text>
</a>
</g>
</g>
<!-- Node12&#45;&gt;Node10 -->
<g id="edge11" class="edge">
<title>Node12&#45;&gt;Node10</title>
<path fill="none" stroke="orange" stroke-dasharray="5,2" d="M585.72,-112.85C616.74,-112.69 652.01,-113.53 684,-116.72 694.2,-117.74 704.96,-119.34 715.37,-121.19"/>
<polygon fill="orange" stroke="orange" points="585.34,-109.36 575.37,-112.94 585.4,-116.36 585.34,-109.36"/>
<text text-anchor="middle" x="638.5" y="-119.72" font-family="Helvetica,sans-Serif" font-size="10.00"> &lt; u32 &gt;</text>
</g>
<!-- Node13 -->
<g id="node13" class="node">
<title>Node13</title>
<g id="a_node13"><a xlink:title=" ">
<polygon fill="white" stroke="#bfbfbf" points="239,-106.22 239,-125.22 268,-125.22 268,-106.22 239,-106.22"/>
<text text-anchor="middle" x="253.5" y="-113.22" font-family="Helvetica,sans-Serif" font-size="10.00">T</text>
</a>
</g>
</g>
<!-- Node13&#45;&gt;Node12 -->
<g id="edge12" class="edge">
<title>Node13&#45;&gt;Node12</title>
<path fill="none" stroke="#9a32cd" stroke-dasharray="5,2" d="M278.42,-115.72C311.67,-115.72 373.37,-115.72 422.92,-115.72"/>
<polygon fill="#9a32cd" stroke="#9a32cd" points="278.29,-112.22 268.29,-115.72 278.29,-119.22 278.29,-112.22"/>
<text text-anchor="middle" x="372.5" y="-129.72" font-family="Helvetica,sans-Serif" font-size="10.00"> Width</text>
<text text-anchor="middle" x="372.5" y="-118.72" font-family="Helvetica,sans-Serif" font-size="10.00">Height</text>
</g>
<!-- Node14 -->
<g id="node14" class="node">
<title>Node14</title>
<g id="a_node14"><a xlink:title=" ">
<polygon fill="white" stroke="#bfbfbf" points="717.5,-81.22 717.5,-100.22 836.5,-100.22 836.5,-81.22 717.5,-81.22"/>
<text text-anchor="middle" x="777" y="-88.22" font-family="Helvetica,sans-Serif" font-size="10.00">E_TEXTURE_SOURCE</text>
</a>
</g>
</g>
<!-- Node14&#45;&gt;Node6 -->
<g id="edge13" class="edge">
<title>Node14&#45;&gt;Node6</title>
<path fill="none" stroke="#9a32cd" stroke-dasharray="5,2" d="M846.77,-88.73C886.56,-90.27 936.42,-96.98 976,-117.72 1011.58,-136.36 1039.46,-177.29 1050.88,-196.01"/>
<polygon fill="#9a32cd" stroke="#9a32cd" points="846.72,-85.23 836.62,-88.44 846.51,-92.22 846.72,-85.23"/>
<text text-anchor="middle" x="923" y="-120.72" font-family="Helvetica,sans-Serif" font-size="10.00"> Source</text>
</g>
<!-- Node15 -->
<g id="node15" class="node">
<title>Node15</title>
<g id="a_node15"><a xlink:title=" ">
<polygon fill="white" stroke="#bfbfbf" points="725.5,-43.22 725.5,-62.22 828.5,-62.22 828.5,-43.22 725.5,-43.22"/>
<text text-anchor="middle" x="777" y="-50.22" font-family="Helvetica,sans-Serif" font-size="10.00">ECOLOR_FORMAT</text>
</a>
</g>
</g>
<!-- Node15&#45;&gt;Node6 -->
<g id="edge14" class="edge">
<title>Node15&#45;&gt;Node6</title>
<path fill="none" stroke="#9a32cd" stroke-dasharray="5,2" d="M838.76,-42.11C880.44,-38.08 935.34,-39.44 976,-64.72 1025.79,-95.68 1047.81,-169.41 1054.32,-195.97"/>
<polygon fill="#9a32cd" stroke="#9a32cd" points="838.3,-38.64 828.74,-43.21 839.06,-45.6 838.3,-38.64"/>
<text text-anchor="middle" x="923" y="-78.72" font-family="Helvetica,sans-Serif" font-size="10.00"> ColorFormat</text>
<text text-anchor="middle" x="923" y="-67.72" font-family="Helvetica,sans-Serif" font-size="10.00">OriginalColorFormat</text>
</g>
<!-- Node16 -->
<g id="node16" class="node">
<title>Node16</title>
<g id="a_node16"><a xlink:title=" ">
<polygon fill="white" stroke="#bfbfbf" points="730,-5.22 730,-24.22 824,-24.22 824,-5.22 730,-5.22"/>
<text text-anchor="middle" x="777" y="-12.22" font-family="Helvetica,sans-Serif" font-size="10.00">E_DRIVER_TYPE</text>
</a>
</g>
</g>
<!-- Node16&#45;&gt;Node6 -->
<g id="edge15" class="edge">
<title>Node16&#45;&gt;Node6</title>
<path fill="none" stroke="#9a32cd" stroke-dasharray="5,2" d="M830.67,-3.64C873.56,2.32 933.73,3.38 976,-25.72 1036.34,-67.26 1052.05,-165.13 1055.58,-196.13"/>
<polygon fill="#9a32cd" stroke="#9a32cd" points="830.06,-0.19 820.7,-5.15 831.11,-7.11 830.06,-0.19"/>
<text text-anchor="middle" x="923" y="-28.72" font-family="Helvetica,sans-Serif" font-size="10.00"> DriverType</text>
</g>
<!-- Node17 -->
<g id="node17" class="node">
<title>Node17</title>
<g id="a_node17"><a xlink:href="structirr_1_1io_1_1SNamedPath.html" target="_top" xlink:title="Used in places where we identify objects by a filename, but don&#39;t actually work with the real filenam...">
<polygon fill="white" stroke="black" points="722,-254.22 722,-273.22 832,-273.22 832,-254.22 722,-254.22"/>
<text text-anchor="middle" x="777" y="-261.22" font-family="Helvetica,sans-Serif" font-size="10.00">irr::io::SNamedPath</text>
</a>
</g>
</g>
<!-- Node17&#45;&gt;Node6 -->
<g id="edge17" class="edge">
<title>Node17&#45;&gt;Node6</title>
<path fill="none" stroke="#9a32cd" stroke-dasharray="5,2" d="M842.48,-257C881.48,-252.18 932.01,-244.6 976,-233.72 995.53,-228.89 1017.03,-221.28 1032.9,-215.22"/>
<polygon fill="#9a32cd" stroke="#9a32cd" points="841.82,-253.55 832.31,-258.22 842.66,-260.5 841.82,-253.55"/>
<text text-anchor="middle" x="923" y="-256.72" font-family="Helvetica,sans-Serif" font-size="10.00"> NamedPath</text>
</g>
<!-- Node18 -->
<g id="node18" class="node">
<title>Node18</title>
<g id="a_node18"><a xlink:href="classirr_1_1core_1_1string.html" target="_top" xlink:title=" ">
<polygon fill="white" stroke="black" points="451,-225.72 451,-255.72 547,-255.72 547,-225.72 451,-225.72"/>
<text text-anchor="start" x="459" y="-243.72" font-family="Helvetica,sans-Serif" font-size="10.00">irr::core::string&lt;</text>
<text text-anchor="middle" x="499" y="-232.72" font-family="Helvetica,sans-Serif" font-size="10.00"> fschar_t &gt;</text>
</a>
</g>
</g>
<!-- Node18&#45;&gt;Node17 -->
<g id="edge18" class="edge">
<title>Node18&#45;&gt;Node17</title>
<path fill="none" stroke="#9a32cd" stroke-dasharray="5,2" d="M557.14,-245.48C605.54,-249.51 674.46,-255.26 721.97,-259.22"/>
<polygon fill="#9a32cd" stroke="#9a32cd" points="557.39,-241.99 547.13,-244.65 556.81,-248.96 557.39,-241.99"/>
<text text-anchor="middle" x="638.5" y="-269.72" font-family="Helvetica,sans-Serif" font-size="10.00"> Path</text>
<text text-anchor="middle" x="638.5" y="-258.72" font-family="Helvetica,sans-Serif" font-size="10.00">InternalName</text>
</g>
<!-- Node19 -->
<g id="node19" class="node">
<title>Node19</title>
<g id="a_node19"><a xlink:title=" ">
<polygon fill="white" stroke="#bfbfbf" points="185,-231.22 185,-250.22 322,-250.22 322,-231.22 185,-231.22"/>
<text text-anchor="middle" x="253.5" y="-238.22" font-family="Helvetica,sans-Serif" font-size="10.00">basic_string&lt; fschar_t &gt;</text>
</a>
</g>
</g>
<!-- Node19&#45;&gt;Node18 -->
<g id="edge19" class="edge">
<title>Node19&#45;&gt;Node18</title>
<path fill="none" stroke="#9a32cd" stroke-dasharray="5,2" d="M332.28,-240.72C371.27,-240.72 417.22,-240.72 450.83,-240.72"/>
<polygon fill="#9a32cd" stroke="#9a32cd" points="332,-237.22 322,-240.72 332,-244.22 332,-237.22"/>
<text text-anchor="middle" x="372.5" y="-243.72" font-family="Helvetica,sans-Serif" font-size="10.00"> str</text>
</g>
<!-- Node20 -->
<g id="node20" class="node">
<title>Node20</title>
<g id="a_node20"><a xlink:title=" ">
<polygon fill="white" stroke="#bfbfbf" points="0,-212.22 0,-231.22 122,-231.22 122,-212.22 0,-212.22"/>
<text text-anchor="middle" x="61" y="-219.22" font-family="Helvetica,sans-Serif" font-size="10.00">static const size_type</text>
</a>
</g>
</g>
<!-- Node20&#45;&gt;Node18 -->
<g id="edge20" class="edge">
<title>Node20&#45;&gt;Node18</title>
<path fill="none" stroke="#9a32cd" stroke-dasharray="5,2" d="M132.28,-214.34C149.51,-212.84 167.9,-211.48 185,-210.72 245.83,-208 261.33,-205.58 322,-210.72 366.01,-214.44 415.56,-223.32 450.84,-230.45"/>
<polygon fill="#9a32cd" stroke="#9a32cd" points="131.94,-210.86 122.3,-215.25 132.57,-217.83 131.94,-210.86"/>
<text text-anchor="middle" x="253.5" y="-213.72" font-family="Helvetica,sans-Serif" font-size="10.00"> npos</text>
</g>
<!-- Node21 -->
<g id="node21" class="node">
<title>Node21</title>
<g id="a_node21"><a xlink:href="classirr_1_1core_1_1string.html" target="_top" xlink:title="Very simple string class with some useful features.">
<polygon fill="white" stroke="black" points="195.5,-269.22 195.5,-288.22 311.5,-288.22 311.5,-269.22 195.5,-269.22"/>
<text text-anchor="middle" x="253.5" y="-276.22" font-family="Helvetica,sans-Serif" font-size="10.00">irr::core::string&lt; T &gt;</text>
</a>
</g>
</g>
<!-- Node20&#45;&gt;Node21 -->
<g id="edge23" class="edge">
<title>Node20&#45;&gt;Node21</title>
<path fill="none" stroke="#9a32cd" stroke-dasharray="5,2" d="M102.08,-234.38C126.09,-241.9 157.24,-251.53 185,-259.72 195.63,-262.85 207.23,-266.16 217.77,-269.12"/>
<polygon fill="#9a32cd" stroke="#9a32cd" points="102.85,-230.96 92.26,-231.3 100.76,-237.63 102.85,-230.96"/>
<text text-anchor="middle" x="153.5" y="-256.72" font-family="Helvetica,sans-Serif" font-size="10.00"> npos</text>
</g>
<!-- Node21&#45;&gt;Node18 -->
<g id="edge21" class="edge">
<title>Node21&#45;&gt;Node18</title>
<path fill="none" stroke="orange" stroke-dasharray="5,2" d="M321.5,-268.26C362.48,-261.87 413.92,-253.84 450.68,-248.1"/>
<polygon fill="orange" stroke="orange" points="320.93,-264.81 311.59,-269.81 322.01,-271.73 320.93,-264.81"/>
<text text-anchor="middle" x="372.5" y="-268.72" font-family="Helvetica,sans-Serif" font-size="10.00"> &lt; fschar_t &gt;</text>
</g>
<!-- Node22 -->
<g id="node22" class="node">
<title>Node22</title>
<g id="a_node22"><a xlink:title=" ">
<polygon fill="white" stroke="#bfbfbf" points="9,-269.22 9,-288.22 113,-288.22 113,-269.22 9,-269.22"/>
<text text-anchor="middle" x="61" y="-276.22" font-family="Helvetica,sans-Serif" font-size="10.00">basic_string&lt; T &gt;</text>
</a>
</g>
</g>
<!-- Node22&#45;&gt;Node21 -->
<g id="edge22" class="edge">
<title>Node22&#45;&gt;Node21</title>
<path fill="none" stroke="#9a32cd" stroke-dasharray="5,2" d="M123.1,-278.72C146.24,-278.72 172.48,-278.72 195.26,-278.72"/>
<polygon fill="#9a32cd" stroke="#9a32cd" points="123.05,-275.22 113.05,-278.72 123.05,-282.22 123.05,-275.22"/>
<text text-anchor="middle" x="153.5" y="-281.72" font-family="Helvetica,sans-Serif" font-size="10.00"> str</text>
</g>
<!-- Node23 -->
<g id="node23" class="node">
<title>Node23</title>
<g id="a_node23"><a xlink:href="classbool.html" target="_top" xlink:title=" ">
<polygon fill="white" stroke="black" points="480,-396.22 480,-415.22 518,-415.22 518,-396.22 480,-396.22"/>
<text text-anchor="middle" x="499" y="-403.22" font-family="Helvetica,sans-Serif" font-size="10.00">bool</text>
</a>
</g>
</g>
<!-- Node23&#45;&gt;Node6 -->
<g id="edge24" class="edge">
<title>Node23&#45;&gt;Node6</title>
<path fill="none" stroke="#9a32cd" stroke-dasharray="5,2" d="M528.18,-401.58C618.28,-388 898.07,-342.99 976,-296.72 1011.19,-275.83 1039.27,-234.34 1050.81,-215.47"/>
<polygon fill="#9a32cd" stroke="#9a32cd" points="527.53,-398.14 518.15,-403.08 528.56,-405.06 527.53,-398.14"/>
<text text-anchor="middle" x="777" y="-385.72" font-family="Helvetica,sans-Serif" font-size="10.00"> IsRenderTarget</text>
<text text-anchor="middle" x="777" y="-374.72" font-family="Helvetica,sans-Serif" font-size="10.00">HasMipMaps</text>
</g>
<!-- Node27 -->
<g id="node27" class="node">
<title>Node27</title>
<g id="a_node27"><a xlink:href="classirr_1_1core_1_1array.html" target="_top" xlink:title=" ">
<polygon fill="white" stroke="black" points="995.5,-401.72 995.5,-431.72 1119.5,-431.72 1119.5,-401.72 995.5,-401.72"/>
<text text-anchor="start" x="1003.5" y="-419.72" font-family="Helvetica,sans-Serif" font-size="10.00">irr::core::array&lt; video</text>
<text text-anchor="middle" x="1057.5" y="-408.72" font-family="Helvetica,sans-Serif" font-size="10.00">::ITexture * &gt;</text>
</a>
</g>
</g>
<!-- Node23&#45;&gt;Node27 -->
<g id="edge32" class="edge">
<title>Node23&#45;&gt;Node27</title>
<path fill="none" stroke="#9a32cd" stroke-dasharray="5,2" d="M528.28,-406.28C614.49,-407.98 875.4,-413.14 995.19,-415.51"/>
<polygon fill="#9a32cd" stroke="#9a32cd" points="528.27,-402.78 518.2,-406.08 528.13,-409.78 528.27,-402.78"/>
<text text-anchor="middle" x="777" y="-414.72" font-family="Helvetica,sans-Serif" font-size="10.00"> is_sorted</text>
</g>
<!-- Node29 -->
<g id="node29" class="node">
<title>Node29</title>
<g id="a_node29"><a xlink:href="classirr_1_1core_1_1array.html" target="_top" xlink:title="Self reallocating template array (like stl vector) with additional features.">
<polygon fill="white" stroke="black" points="720,-473.22 720,-492.22 834,-492.22 834,-473.22 720,-473.22"/>
<text text-anchor="middle" x="777" y="-480.22" font-family="Helvetica,sans-Serif" font-size="10.00">irr::core::array&lt; T &gt;</text>
</a>
</g>
</g>
<!-- Node23&#45;&gt;Node29 -->
<g id="edge34" class="edge">
<title>Node23&#45;&gt;Node29</title>
<path fill="none" stroke="#9a32cd" stroke-dasharray="5,2" d="M528.12,-414.06C567.08,-425.57 639.73,-446.79 702,-463.72 713.65,-466.89 726.36,-470.2 737.92,-473.16"/>
<polygon fill="#9a32cd" stroke="#9a32cd" points="528.64,-410.57 518.06,-411.09 526.66,-417.28 528.64,-410.57"/>
<text text-anchor="middle" x="638.5" y="-459.72" font-family="Helvetica,sans-Serif" font-size="10.00"> is_sorted</text>
</g>
<!-- Node24 -->
<g id="node24" class="node">
<title>Node24</title>
<g id="a_node24"><a xlink:title=" ">
<polygon fill="white" stroke="#bfbfbf" points="726,-216.22 726,-235.22 828,-235.22 828,-216.22 726,-216.22"/>
<text text-anchor="middle" x="777" y="-223.22" font-family="Helvetica,sans-Serif" font-size="10.00">E_TEXTURE_TYPE</text>
</a>
</g>
</g>
<!-- Node24&#45;&gt;Node6 -->
<g id="edge25" class="edge">
<title>Node24&#45;&gt;Node6</title>
<path fill="none" stroke="#9a32cd" stroke-dasharray="5,2" d="M838.09,-221.4C887.81,-217.83 957.69,-212.81 1004.9,-209.42"/>
<polygon fill="#9a32cd" stroke="#9a32cd" points="837.84,-217.91 828.11,-222.12 838.34,-224.89 837.84,-217.91"/>
<text text-anchor="middle" x="923" y="-221.72" font-family="Helvetica,sans-Serif" font-size="10.00"> Type</text>
</g>
<!-- Node25&#45;&gt;Node1 -->
<g id="edge26" class="edge">
<title>Node25&#45;&gt;Node1</title>
<path fill="none" stroke="#9a32cd" stroke-dasharray="5,2" d="M1353.33,-436.68C1388.01,-448.71 1438.85,-466.36 1469.97,-477.16"/>
<polygon fill="#9a32cd" stroke="#9a32cd" points="1354.16,-433.26 1343.57,-433.29 1351.87,-439.87 1354.16,-433.26"/>
<text text-anchor="middle" x="1400" y="-459.72" font-family="Helvetica,sans-Serif" font-size="10.00"> buffer</text>
</g>
<!-- Node26&#45;&gt;Node25 -->
<g id="edge27" class="edge">
<title>Node26&#45;&gt;Node25</title>
<path fill="none" stroke="midnightblue" d="M1109.5,-453.33C1157.84,-446.33 1229.5,-435.96 1273.89,-429.53"/>
<polygon fill="midnightblue" stroke="midnightblue" points="1108.95,-449.88 1099.55,-454.77 1109.95,-456.8 1108.95,-449.88"/>
</g>
<!-- Node27&#45;&gt;Node25 -->
<g id="edge30" class="edge">
<title>Node27&#45;&gt;Node25</title>
<path fill="none" stroke="#9a32cd" stroke-dasharray="5,2" d="M1129.93,-412.6C1164.95,-411.33 1207.73,-410.92 1246,-413.72 1255.04,-414.38 1264.71,-415.53 1273.84,-416.82"/>
<polygon fill="#9a32cd" stroke="#9a32cd" points="1129.66,-409.1 1119.8,-412.99 1129.93,-416.1 1129.66,-409.1"/>
<text text-anchor="middle" x="1192.5" y="-416.72" font-family="Helvetica,sans-Serif" font-size="10.00"> m_textures</text>
</g>
<!-- Node28 -->
<g id="node28" class="node">
<title>Node28</title>
<g id="a_node28"><a xlink:title=" ">
<polygon fill="white" stroke="#bfbfbf" points="702,-435.22 702,-454.22 852,-454.22 852,-435.22 702,-435.22"/>
<text text-anchor="middle" x="777" y="-442.22" font-family="Helvetica,sans-Serif" font-size="10.00">vector&lt; video::ITexture * &gt;</text>
</a>
</g>
</g>
<!-- Node28&#45;&gt;Node27 -->
<g id="edge31" class="edge">
<title>Node28&#45;&gt;Node27</title>
<path fill="none" stroke="#9a32cd" stroke-dasharray="5,2" d="M862.38,-436.23C905.15,-431.93 956.14,-426.81 995.13,-422.89"/>
<polygon fill="#9a32cd" stroke="#9a32cd" points="861.87,-432.77 852.27,-437.25 862.57,-439.73 861.87,-432.77"/>
<text text-anchor="middle" x="923" y="-437.72" font-family="Helvetica,sans-Serif" font-size="10.00"> m_data</text>
</g>
<!-- Node29&#45;&gt;Node27 -->
<g id="edge33" class="edge">
<title>Node29&#45;&gt;Node27</title>
<path fill="none" stroke="orange" stroke-dasharray="5,2" d="M844.49,-475.9C883.38,-470.86 933.11,-462.6 976,-449.72 984.38,-447.2 985.93,-445.12 994,-441.72 1001.75,-438.45 1010.09,-435.04 1018.06,-431.83"/>
<polygon fill="orange" stroke="orange" points="843.82,-472.46 834.34,-477.17 844.69,-479.4 843.82,-472.46"/>
<text text-anchor="middle" x="923" y="-473.72" font-family="Helvetica,sans-Serif" font-size="10.00"> &lt; video::ITexture * &gt;</text>
</g>
<!-- Node30 -->
<g id="node30" class="node">
<title>Node30</title>
<g id="a_node30"><a xlink:title=" ">
<polygon fill="white" stroke="#bfbfbf" points="461,-473.22 461,-492.22 537,-492.22 537,-473.22 461,-473.22"/>
<text text-anchor="middle" x="499" y="-480.22" font-family="Helvetica,sans-Serif" font-size="10.00">vector&lt; T &gt;</text>
</a>
</g>
</g>
<!-- Node30&#45;&gt;Node29 -->
<g id="edge35" class="edge">
<title>Node30&#45;&gt;Node29</title>
<path fill="none" stroke="#9a32cd" stroke-dasharray="5,2" d="M547.31,-482.72C595.13,-482.72 669.03,-482.72 719.8,-482.72"/>
<polygon fill="#9a32cd" stroke="#9a32cd" points="547.22,-479.22 537.22,-482.72 547.22,-486.22 547.22,-479.22"/>
<text text-anchor="middle" x="638.5" y="-485.72" font-family="Helvetica,sans-Serif" font-size="10.00"> m_data</text>
</g>
<!-- Node31&#45;&gt;Node25 -->
<g id="edge36" class="edge">
<title>Node31&#45;&gt;Node25</title>
<path fill="none" stroke="#9a32cd" stroke-dasharray="5,2" d="M1131.52,-377.1C1166.56,-380.35 1208.9,-385.99 1246,-395.72 1263.04,-400.19 1281.47,-407.97 1294.84,-414.2"/>
<polygon fill="#9a32cd" stroke="#9a32cd" points="1131.63,-373.59 1121.36,-376.2 1131.02,-380.57 1131.63,-373.59"/>
<text text-anchor="middle" x="1192.5" y="-398.72" font-family="Helvetica,sans-Serif" font-size="10.00"> m_driver</text>
</g>
<!-- Node32 -->
<g id="node32" class="node">
<title>Node32</title>
<g id="a_node32"><a xlink:title=" ">
<polygon fill="white" stroke="#bfbfbf" points="995.5,-313.72 995.5,-343.72 1119.5,-343.72 1119.5,-313.72 995.5,-313.72"/>
<text text-anchor="start" x="1003.5" y="-331.72" font-family="Helvetica,sans-Serif" font-size="10.00">vector&lt; TextureBuffer</text>
<text text-anchor="middle" x="1057.5" y="-320.72" font-family="Helvetica,sans-Serif" font-size="10.00">::TextureDefinition &gt;</text>
</a>
</g>
</g>
<!-- Node32&#45;&gt;Node25 -->
<g id="edge38" class="edge">
<title>Node32&#45;&gt;Node25</title>
<path fill="none" stroke="#9a32cd" stroke-dasharray="5,2" d="M1129.84,-332.42C1166.11,-336.54 1210.01,-345.1 1246,-362.72 1271.64,-375.27 1294.84,-400.33 1306.36,-414.1"/>
<polygon fill="#9a32cd" stroke="#9a32cd" points="1130.13,-328.93 1119.82,-331.36 1129.4,-335.89 1130.13,-328.93"/>
<text text-anchor="middle" x="1192.5" y="-365.72" font-family="Helvetica,sans-Serif" font-size="10.00"> m_definitions</text>
</g>
</g>
</svg>
        <g id="navigator" transform="translate(0 0)" fill="#404254">
                <rect fill="#f2f5e9" fill-opacity="0.5" stroke="#606060" stroke-width=".5" x="0" y="0" width="60" height="60"/>
                <use id="zoomplus" xlink:href="#zoomPlus" x="17" y="9" onmousedown="handleZoom(evt,'in')"/>
                <use id="zoomminus" xlink:href="#zoomMin" x="42" y="9" onmousedown="handleZoom(evt,'out')"/>
                <use id="reset" xlink:href="#resetDef" x="30" y="36" onmousedown="handleReset()"/>
                <g id="arrowUp" xlink:href="#dirArrow" transform="translate(30 24)" onmousedown="handlePan(0,-1)">
                  <use xlink:href="#rim" fill="#404040">
                        <set attributeName="fill" to="#808080" begin="arrowUp.mouseover" end="arrowUp.mouseout"/>
                  </use>
                  <path fill="none" stroke="white" stroke-width="1.5" d="M0,-3.0v7 M-2.5,-0.5L0,-3.0L2.5,-0.5"/>
                </g>
                <g id="arrowRight" xlink:href="#dirArrow" transform="rotate(90) translate(36 -43)" onmousedown="handlePan(1,0)">
                  <use xlink:href="#rim" fill="#404040">
                        <set attributeName="fill" to="#808080" begin="arrowRight.mouseover" end="arrowRight.mouseout"/>
                  </use>
                  <path fill="none" stroke="white" stroke-width="1.5" d="M0,-3.0v7 M-2.5,-0.5L0,-3.0L2.5,-0.5"/>
                </g>
                <g id="arrowDown" xlink:href="#dirArrow" transform="rotate(180) translate(-30 -48)" onmousedown="handlePan(0,1)">
                  <use xlink:href="#rim" fill="#404040">
                        <set attributeName="fill" to="#808080" begin="arrowDown.mouseover" end="arrowDown.mouseout"/>
                  </use>
                  <path fill="none" stroke="white" stroke-width="1.5" d="M0,-3.0v7 M-2.5,-0.5L0,-3.0L2.5,-0.5"/>
                </g>
                <g id="arrowLeft" xlink:href="#dirArrow" transform="rotate(270) translate(-36 17)" onmousedown="handlePan(-1,0)">
                  <use xlink:href="#rim" fill="#404040">
                        <set attributeName="fill" to="#808080" begin="arrowLeft.mouseover" end="arrowLeft.mouseout"/>
                  </use>
                  <path fill="none" stroke="white" stroke-width="1.5" d="M0,-3.0v7 M-2.5,-0.5L0,-3.0L2.5,-0.5"/>
                </g>
        </g>
        <svg viewBox="0 0 15 15" width="100%" height="30px" preserveAspectRatio="xMaxYMin meet">
         <g id="arrow_out" transform="scale(0.3 0.3)">
          <a xlink:href="classInitInterlacedMaskStep__coll__graph_org.svg" target="_base">
           <rect id="button" ry="5" rx="5" y="6" x="6" height="38" width="38"
                fill="#f2f5e9" fill-opacity="0.5" stroke="#606060" stroke-width="1.0"/>
           <path id="arrow"
             d="M 11.500037,31.436501 C 11.940474,20.09759 22.043105,11.32322 32.158766,21.979434 L 37.068811,17.246167 C 37.068811,17.246167 37.088388,32 37.088388,32 L 22.160133,31.978069 C 22.160133,31.978069 26.997745,27.140456 26.997745,27.140456 C 18.528582,18.264221 13.291696,25.230495 11.500037,31.436501 z"
             style="fill:#404040;"/>
          </a>
         </g>
        </svg>
</svg>
