<?xml version="1.0" encoding="UTF-8" standalone="no"?>
<!DOCTYPE svg PUBLIC "-//W3C//DTD SVG 1.1//EN"
 "http://www.w3.org/Graphics/SVG/1.1/DTD/svg11.dtd">
<!-- Generated by graphviz version 2.43.0 (0)
 -->
<!-- Title: irr::scene::CXMeshFileLoader::createMesh Pages: 1 -->
<!--zoomable 253 -->
<svg id="main" version="1.1" xmlns="http://www.w3.org/2000/svg" xmlns:xlink="http://www.w3.org/1999/xlink" xml:space="preserve" onload="init(evt)">
<style type="text/css"><![CDATA[
.edge:hover path { stroke: red; }
.edge:hover polygon { stroke: red; fill: red; }
]]></style>
<script type="text/javascript"><![CDATA[
var edges = document.getElementsByTagName('g');
if (edges && edges.length) {
  for (var i=0;i<edges.length;i++) {
    if (edges[i].id.substr(0,4)=='edge') {
      edges[i].setAttribute('class','edge');
    }
  }
}
]]></script>
        <defs>
                <circle id="rim" cx="0" cy="0" r="7"/>
                <circle id="rim2" cx="0" cy="0" r="3.5"/>
                <g id="zoomPlus">
                        <use xlink:href="#rim" fill="#404040">
                                <set attributeName="fill" to="#808080" begin="zoomplus.mouseover" end="zoomplus.mouseout"/>
                        </use>
                        <path d="M-4,0h8M0,-4v8" fill="none" stroke="white" stroke-width="1.5" pointer-events="none"/>
                </g>
                <g id="zoomMin">
                        <use xlink:href="#rim" fill="#404040">
                                <set attributeName="fill" to="#808080" begin="zoomminus.mouseover" end="zoomminus.mouseout"/>
                        </use>
                        <path d="M-4,0h8" fill="none" stroke="white" stroke-width="1.5" pointer-events="none"/>
                </g>
                <g id="dirArrow">
                        <path fill="none" stroke="white" stroke-width="1.5" d="M0,-3.0v7 M-2.5,-0.5L0,-3.0L2.5,-0.5"/>
                </g>
               <g id="resetDef">
                       <use xlink:href="#rim2" fill="#404040">
                               <set attributeName="fill" to="#808080" begin="reset.mouseover" end="reset.mouseout"/>
                       </use>
               </g>
        </defs>

<script type="text/javascript">
var viewWidth = 528;
var viewHeight = 253;
var sectionId = 'dynsection-3';
</script>
<script xlink:href="svgpan.js"/>
<svg id="graph" class="graph">
<g id="viewport">
<title>irr::scene::CXMeshFileLoader::createMesh</title>
<polygon fill="white" stroke="transparent" points="-4,4 -4,-248.5 524,-248.5 524,4 -4,4"/>
<!-- Node1 -->
<g id="node1" class="node">
<title>Node1</title>
<g id="a_node1"><a xlink:title=" ">
<polygon fill="#bfbfbf" stroke="black" points="0,-134 0,-164 158,-164 158,-134 0,-134"/>
<text text-anchor="start" x="8" y="-152" font-family="Helvetica,sans-Serif" font-size="10.00">irr::scene::CXMeshFileLoader</text>
<text text-anchor="middle" x="79" y="-141" font-family="Helvetica,sans-Serif" font-size="10.00">::createMesh</text>
</a>
</g>
</g>
<!-- Node2 -->
<g id="node2" class="node">
<title>Node2</title>
<g id="a_node2"><a xlink:href="classirr_1_1core_1_1string.html#a4a6d39561b095cbab46185dd20d11d85" target="_top" xlink:title="Returns character string.">
<polygon fill="white" stroke="black" points="220.5,-208 220.5,-238 314.5,-238 314.5,-208 220.5,-208"/>
<text text-anchor="start" x="228.5" y="-226" font-family="Helvetica,sans-Serif" font-size="10.00">irr::core::string::</text>
<text text-anchor="middle" x="267.5" y="-215" font-family="Helvetica,sans-Serif" font-size="10.00">c_str</text>
</a>
</g>
</g>
<!-- Node1&#45;&gt;Node2 -->
<g id="edge1" class="edge">
<title>Node1&#45;&gt;Node2</title>
<path fill="none" stroke="midnightblue" d="M112.1,-164.04C134.76,-174.42 165.95,-188.23 194,-199 199.39,-201.07 205.05,-203.13 210.72,-205.12"/>
<polygon fill="midnightblue" stroke="midnightblue" points="209.65,-208.46 220.25,-208.41 211.93,-201.84 209.65,-208.46"/>
</g>
<!-- Node3 -->
<g id="node3" class="node">
<title>Node3</title>
<g id="a_node3"><a xlink:href="classirr_1_1IReferenceCounted.html#a03856a09355b89d178090c4a5f738543" target="_top" xlink:title="Drops the object. Decrements the reference counter by one.">
<polygon fill="white" stroke="black" points="204.5,-159 204.5,-189 330.5,-189 330.5,-159 204.5,-159"/>
<text text-anchor="start" x="212.5" y="-177" font-family="Helvetica,sans-Serif" font-size="10.00">irr::IReferenceCounted</text>
<text text-anchor="middle" x="267.5" y="-166" font-family="Helvetica,sans-Serif" font-size="10.00">::drop</text>
</a>
</g>
</g>
<!-- Node1&#45;&gt;Node3 -->
<g id="edge2" class="edge">
<title>Node1&#45;&gt;Node3</title>
<path fill="none" stroke="midnightblue" d="M158.01,-159.46C169.98,-161.06 182.29,-162.71 194.13,-164.3"/>
<polygon fill="midnightblue" stroke="midnightblue" points="194.01,-167.81 204.39,-165.67 194.94,-160.88 194.01,-167.81"/>
</g>
<!-- Node4 -->
<g id="node4" class="node">
<title>Node4</title>
<g id="a_node4"><a xlink:href="classirr_1_1scene_1_1CSkinnedMesh.html#a93ac8bd8153e8affb06380b12e2bbafa" target="_top" xlink:title="loaders should call this after populating the mesh">
<polygon fill="white" stroke="black" points="197.5,-110 197.5,-140 337.5,-140 337.5,-110 197.5,-110"/>
<text text-anchor="start" x="205.5" y="-128" font-family="Helvetica,sans-Serif" font-size="10.00">irr::scene::CSkinnedMesh</text>
<text text-anchor="middle" x="267.5" y="-117" font-family="Helvetica,sans-Serif" font-size="10.00">::finalize</text>
</a>
</g>
</g>
<!-- Node1&#45;&gt;Node4 -->
<g id="edge3" class="edge">
<title>Node1&#45;&gt;Node4</title>
<path fill="none" stroke="midnightblue" d="M158.01,-138.96C167.72,-137.71 177.65,-136.43 187.37,-135.18"/>
<polygon fill="midnightblue" stroke="midnightblue" points="187.93,-138.64 197.41,-133.89 187.04,-131.7 187.93,-138.64"/>
</g>
<!-- Node11 -->
<g id="node11" class="node">
<title>Node11</title>
<g id="a_node11"><a xlink:href="classirr_1_1os_1_1Timer.html#aa0a73b26f4f18ac6fbc737caae2061cd" target="_top" xlink:title="returns the current real time in milliseconds">
<polygon fill="white" stroke="black" points="194,-71.5 194,-90.5 341,-90.5 341,-71.5 194,-71.5"/>
<text text-anchor="middle" x="267.5" y="-78.5" font-family="Helvetica,sans-Serif" font-size="10.00">irr::os::Timer::getRealTime</text>
</a>
</g>
</g>
<!-- Node1&#45;&gt;Node11 -->
<g id="edge10" class="edge">
<title>Node1&#45;&gt;Node11</title>
<path fill="none" stroke="midnightblue" d="M112.49,-134C135.06,-123.9 166,-110.71 194,-101 201.81,-98.29 210.18,-95.7 218.37,-93.34"/>
<polygon fill="midnightblue" stroke="midnightblue" points="219.53,-96.64 228.21,-90.57 217.64,-89.91 219.53,-96.64"/>
</g>
<!-- Node5 -->
<g id="node5" class="node">
<title>Node5</title>
<g id="a_node5"><a xlink:href="classirr_1_1core_1_1aabbox3d.html#a7ccc210a3fb0ce82765d28f2047942c5" target="_top" xlink:title="Adds another bounding box.">
<polygon fill="white" stroke="black" points="394.5,-214 394.5,-244 502.5,-244 502.5,-214 394.5,-214"/>
<text text-anchor="start" x="402.5" y="-232" font-family="Helvetica,sans-Serif" font-size="10.00">irr::core::aabbox3d</text>
<text text-anchor="middle" x="448.5" y="-221" font-family="Helvetica,sans-Serif" font-size="10.00">::addInternalBox</text>
</a>
</g>
</g>
<!-- Node4&#45;&gt;Node5 -->
<g id="edge4" class="edge">
<title>Node4&#45;&gt;Node5</title>
<path fill="none" stroke="midnightblue" d="M324.66,-140.14C330.47,-142.91 336.05,-146.18 341,-150 363.83,-167.63 354.24,-186.27 377,-204 379.61,-206.04 382.4,-207.91 385.31,-209.64"/>
<polygon fill="midnightblue" stroke="midnightblue" points="383.85,-212.83 394.33,-214.41 387.13,-206.64 383.85,-212.83"/>
</g>
<!-- Node6 -->
<g id="node6" class="node">
<title>Node6</title>
<g id="a_node6"><a xlink:href="classirr_1_1core_1_1array.html#a142e1833faabec2b7578557fd12e72c2" target="_top" xlink:title="Gets last element.">
<polygon fill="white" stroke="black" points="385,-175.5 385,-194.5 512,-194.5 512,-175.5 385,-175.5"/>
<text text-anchor="middle" x="448.5" y="-182.5" font-family="Helvetica,sans-Serif" font-size="10.00">irr::core::array::getLast</text>
</a>
</g>
</g>
<!-- Node4&#45;&gt;Node6 -->
<g id="edge5" class="edge">
<title>Node4&#45;&gt;Node6</title>
<path fill="none" stroke="midnightblue" d="M313.97,-140.01C322.98,-143.17 332.33,-146.59 341,-150 357.29,-156.42 360.5,-160.15 377,-166 383.58,-168.33 390.6,-170.54 397.55,-172.57"/>
<polygon fill="midnightblue" stroke="midnightblue" points="397.07,-176.07 407.64,-175.41 398.97,-169.34 397.07,-176.07"/>
</g>
<!-- Node7 -->
<g id="node7" class="node">
<title>Node7</title>
<g id="a_node7"><a xlink:href="classirr_1_1core_1_1array.html#a95afc36513d08abb51bd399755730877" target="_top" xlink:title="Adds an element at back of array.">
<polygon fill="white" stroke="black" points="377,-137.5 377,-156.5 520,-156.5 520,-137.5 377,-137.5"/>
<text text-anchor="middle" x="448.5" y="-144.5" font-family="Helvetica,sans-Serif" font-size="10.00">irr::core::array::push_back</text>
</a>
</g>
</g>
<!-- Node4&#45;&gt;Node7 -->
<g id="edge6" class="edge">
<title>Node4&#45;&gt;Node7</title>
<path fill="none" stroke="midnightblue" d="M337.71,-133.51C347.2,-134.67 357.01,-135.88 366.69,-137.07"/>
<polygon fill="midnightblue" stroke="midnightblue" points="366.35,-140.55 376.7,-138.3 367.21,-133.61 366.35,-140.55"/>
</g>
<!-- Node8 -->
<g id="node8" class="node">
<title>Node8</title>
<g id="a_node8"><a xlink:href="classirr_1_1core_1_1array.html#a27ce37ef9e34e55d4f9987c62deda9d6" target="_top" xlink:title="Adds an element at the front of the array.">
<polygon fill="white" stroke="black" points="391.5,-88 391.5,-118 505.5,-118 505.5,-88 391.5,-88"/>
<text text-anchor="start" x="399.5" y="-106" font-family="Helvetica,sans-Serif" font-size="10.00">irr::core::array::push</text>
<text text-anchor="middle" x="448.5" y="-95" font-family="Helvetica,sans-Serif" font-size="10.00">_front</text>
</a>
</g>
</g>
<!-- Node4&#45;&gt;Node8 -->
<g id="edge7" class="edge">
<title>Node4&#45;&gt;Node8</title>
<path fill="none" stroke="midnightblue" d="M337.71,-116.49C352.03,-114.73 367.1,-112.88 381.31,-111.13"/>
<polygon fill="midnightblue" stroke="midnightblue" points="382,-114.58 391.5,-109.88 381.14,-107.63 382,-114.58"/>
</g>
<!-- Node9 -->
<g id="node9" class="node">
<title>Node9</title>
<g id="a_node9"><a xlink:href="classirr_1_1core_1_1aabbox3d.html#afc718e96ed11aa71a30311d32bfc885a" target="_top" xlink:title="Resets the bounding box to a one&#45;point box.">
<polygon fill="white" stroke="black" points="394.5,-39 394.5,-69 502.5,-69 502.5,-39 394.5,-39"/>
<text text-anchor="start" x="402.5" y="-57" font-family="Helvetica,sans-Serif" font-size="10.00">irr::core::aabbox3d</text>
<text text-anchor="middle" x="448.5" y="-46" font-family="Helvetica,sans-Serif" font-size="10.00">::reset</text>
</a>
</g>
</g>
<!-- Node4&#45;&gt;Node9 -->
<g id="edge8" class="edge">
<title>Node4&#45;&gt;Node9</title>
<path fill="none" stroke="midnightblue" d="M316.6,-109.9C324.85,-106.89 333.25,-103.55 341,-100 357.84,-92.28 360.2,-86.8 377,-79 381.67,-76.84 386.58,-74.74 391.54,-72.75"/>
<polygon fill="midnightblue" stroke="midnightblue" points="393.05,-75.92 401.11,-69.05 390.52,-69.39 393.05,-75.92"/>
</g>
<!-- Node10 -->
<g id="node10" class="node">
<title>Node10</title>
<g id="a_node10"><a xlink:href="classirr_1_1core_1_1array.html#af2a884d7e19d685b58617fed4ea4d4b9" target="_top" xlink:title="Get number of occupied elements of the array.">
<polygon fill="white" stroke="black" points="393.5,-0.5 393.5,-19.5 503.5,-19.5 503.5,-0.5 393.5,-0.5"/>
<text text-anchor="middle" x="448.5" y="-7.5" font-family="Helvetica,sans-Serif" font-size="10.00">irr::core::array::size</text>
</a>
</g>
</g>
<!-- Node4&#45;&gt;Node10 -->
<g id="edge9" class="edge">
<title>Node4&#45;&gt;Node10</title>
<path fill="none" stroke="midnightblue" d="M326.2,-109.85C331.53,-107.09 336.57,-103.84 341,-100 367.44,-77.09 349.93,-52.16 377,-30 379.74,-27.76 382.72,-25.76 385.85,-23.99"/>
<polygon fill="midnightblue" stroke="midnightblue" points="387.53,-27.07 395.02,-19.58 384.49,-20.77 387.53,-27.07"/>
</g>
</g>
</svg>
        <g id="navigator" transform="translate(0 0)" fill="#404254">
                <rect fill="#f2f5e9" fill-opacity="0.5" stroke="#606060" stroke-width=".5" x="0" y="0" width="60" height="60"/>
                <use id="zoomplus" xlink:href="#zoomPlus" x="17" y="9" onmousedown="handleZoom(evt,'in')"/>
                <use id="zoomminus" xlink:href="#zoomMin" x="42" y="9" onmousedown="handleZoom(evt,'out')"/>
                <use id="reset" xlink:href="#resetDef" x="30" y="36" onmousedown="handleReset()"/>
                <g id="arrowUp" xlink:href="#dirArrow" transform="translate(30 24)" onmousedown="handlePan(0,-1)">
                  <use xlink:href="#rim" fill="#404040">
                        <set attributeName="fill" to="#808080" begin="arrowUp.mouseover" end="arrowUp.mouseout"/>
                  </use>
                  <path fill="none" stroke="white" stroke-width="1.5" d="M0,-3.0v7 M-2.5,-0.5L0,-3.0L2.5,-0.5"/>
                </g>
                <g id="arrowRight" xlink:href="#dirArrow" transform="rotate(90) translate(36 -43)" onmousedown="handlePan(1,0)">
                  <use xlink:href="#rim" fill="#404040">
                        <set attributeName="fill" to="#808080" begin="arrowRight.mouseover" end="arrowRight.mouseout"/>
                  </use>
                  <path fill="none" stroke="white" stroke-width="1.5" d="M0,-3.0v7 M-2.5,-0.5L0,-3.0L2.5,-0.5"/>
                </g>
                <g id="arrowDown" xlink:href="#dirArrow" transform="rotate(180) translate(-30 -48)" onmousedown="handlePan(0,1)">
                  <use xlink:href="#rim" fill="#404040">
                        <set attributeName="fill" to="#808080" begin="arrowDown.mouseover" end="arrowDown.mouseout"/>
                  </use>
                  <path fill="none" stroke="white" stroke-width="1.5" d="M0,-3.0v7 M-2.5,-0.5L0,-3.0L2.5,-0.5"/>
                </g>
                <g id="arrowLeft" xlink:href="#dirArrow" transform="rotate(270) translate(-36 17)" onmousedown="handlePan(-1,0)">
                  <use xlink:href="#rim" fill="#404040">
                        <set attributeName="fill" to="#808080" begin="arrowLeft.mouseover" end="arrowLeft.mouseout"/>
                  </use>
                  <path fill="none" stroke="white" stroke-width="1.5" d="M0,-3.0v7 M-2.5,-0.5L0,-3.0L2.5,-0.5"/>
                </g>
        </g>
        <svg viewBox="0 0 15 15" width="100%" height="30px" preserveAspectRatio="xMaxYMin meet">
         <g id="arrow_out" transform="scale(0.3 0.3)">
          <a xlink:href="classirr_1_1scene_1_1CXMeshFileLoader_a98eeaf15d70368e39dc8f95e66bc1437_cgraph_org.svg" target="_base">
           <rect id="button" ry="5" rx="5" y="6" x="6" height="38" width="38"
                fill="#f2f5e9" fill-opacity="0.5" stroke="#606060" stroke-width="1.0"/>
           <path id="arrow"
             d="M 11.500037,31.436501 C 11.940474,20.09759 22.043105,11.32322 32.158766,21.979434 L 37.068811,17.246167 C 37.068811,17.246167 37.088388,32 37.088388,32 L 22.160133,31.978069 C 22.160133,31.978069 26.997745,27.140456 26.997745,27.140456 C 18.528582,18.264221 13.291696,25.230495 11.500037,31.436501 z"
             style="fill:#404040;"/>
          </a>
         </g>
        </svg>
</svg>
