<?xml version="1.0" encoding="UTF-8" standalone="no"?>
<!DOCTYPE svg PUBLIC "-//W3C//DTD SVG 1.1//EN"
 "http://www.w3.org/Graphics/SVG/1.1/DTD/svg11.dtd">
<!-- Generated by graphviz version 2.43.0 (0)
 -->
<!-- Title: irr::video::COpenGL3MaterialRenderer::OnSetMaterial Pages: 1 -->
<svg width="741pt" height="178pt"
 viewBox="0.00 0.00 741.00 178.00" xmlns="http://www.w3.org/2000/svg" xmlns:xlink="http://www.w3.org/1999/xlink">
<g id="graph0" class="graph" transform="scale(1 1) rotate(0) translate(4 174)">
<title>irr::video::COpenGL3MaterialRenderer::OnSetMaterial</title>
<polygon fill="white" stroke="transparent" points="-4,4 -4,-174 737,-174 737,4 -4,4"/>
<!-- Node1 -->
<g id="node1" class="node">
<title>Node1</title>
<g id="a_node1"><a xlink:title="Called by the IVideoDriver implementation the let the renderer set its needed render states.">
<polygon fill="#bfbfbf" stroke="black" points="0,-71.5 0,-101.5 158,-101.5 158,-71.5 0,-71.5"/>
<text text-anchor="start" x="8" y="-89.5" font-family="Helvetica,sans-Serif" font-size="10.00">irr::video::COpenGL3Material</text>
<text text-anchor="middle" x="79" y="-78.5" font-family="Helvetica,sans-Serif" font-size="10.00">Renderer::OnSetMaterial</text>
</a>
</g>
</g>
<!-- Node2 -->
<g id="node2" class="node">
<title>Node2</title>
<g id="a_node2"><a xlink:href="classirr_1_1video_1_1COpenGL3DriverBase.html#a70f1eb0e1bd5016fa9133665bc5491d0" target="_top" xlink:title="Convert E_BLEND_FACTOR to OpenGL equivalent.">
<polygon fill="white" stroke="black" points="391,-139.5 391,-169.5 538,-169.5 538,-139.5 391,-139.5"/>
<text text-anchor="start" x="399" y="-157.5" font-family="Helvetica,sans-Serif" font-size="10.00">irr::video::COpenGL3Driver</text>
<text text-anchor="middle" x="464.5" y="-146.5" font-family="Helvetica,sans-Serif" font-size="10.00">Base::getGLBlend</text>
</a>
</g>
</g>
<!-- Node1&#45;&gt;Node2 -->
<g id="edge1" class="edge">
<title>Node1&#45;&gt;Node2</title>
<path fill="none" stroke="midnightblue" d="M107.16,-101.63C129.68,-113.37 162.93,-128.9 194,-136.5 255.4,-151.53 326.87,-155.72 380.78,-156.32"/>
<polygon fill="midnightblue" stroke="midnightblue" points="380.95,-159.82 390.97,-156.39 381,-152.82 380.95,-159.82"/>
</g>
<!-- Node3 -->
<g id="node3" class="node">
<title>Node3</title>
<g id="a_node3"><a xlink:href="classirr_1_1video_1_1IShaderConstantSetCallBack.html#a837ad9419ca4c17b011af75bb24e7a72" target="_top" xlink:title="Called to let the callBack know the used material (optional method)">
<polygon fill="white" stroke="black" points="195,-96.5 195,-126.5 346,-126.5 346,-96.5 195,-96.5"/>
<text text-anchor="start" x="203" y="-114.5" font-family="Helvetica,sans-Serif" font-size="10.00">irr::video::IShaderConstant</text>
<text text-anchor="middle" x="270.5" y="-103.5" font-family="Helvetica,sans-Serif" font-size="10.00">SetCallBack::OnSetMaterial</text>
</a>
</g>
</g>
<!-- Node1&#45;&gt;Node3 -->
<g id="edge2" class="edge">
<title>Node1&#45;&gt;Node3</title>
<path fill="none" stroke="midnightblue" d="M158.17,-96.81C166.99,-97.98 176,-99.16 184.89,-100.34"/>
<polygon fill="midnightblue" stroke="midnightblue" points="184.49,-103.82 194.86,-101.65 185.41,-96.88 184.49,-103.82"/>
</g>
<!-- Node4 -->
<g id="node4" class="node">
<title>Node4</title>
<g id="a_node4"><a xlink:href="classirr_1_1video_1_1COpenGL3DriverBase.html#a4c11370797f2106f635bf2a57bfc8a60" target="_top" xlink:title="Can be called by an IMaterialRenderer to make its work easier.">
<polygon fill="white" stroke="black" points="194,-47.5 194,-77.5 347,-77.5 347,-47.5 194,-47.5"/>
<text text-anchor="start" x="202" y="-65.5" font-family="Helvetica,sans-Serif" font-size="10.00">irr::video::COpenGL3Driver</text>
<text text-anchor="middle" x="270.5" y="-54.5" font-family="Helvetica,sans-Serif" font-size="10.00">Base::setBasicRenderStates</text>
</a>
</g>
</g>
<!-- Node1&#45;&gt;Node4 -->
<g id="edge3" class="edge">
<title>Node1&#45;&gt;Node4</title>
<path fill="none" stroke="midnightblue" d="M158.17,-76.6C166.67,-75.52 175.36,-74.42 183.94,-73.34"/>
<polygon fill="midnightblue" stroke="midnightblue" points="184.47,-76.8 193.95,-72.07 183.59,-69.85 184.47,-76.8"/>
</g>
<!-- Node11 -->
<g id="node11" class="node">
<title>Node11</title>
<g id="a_node11"><a xlink:href="namespaceirr_1_1video.html#a68f752ebff7a607d0660c95d983774e8" target="_top" xlink:title="Unpack srcRGBFact, dstRGBFact, srcAlphaFact, dstAlphaFact, modulo and alphaSource factors.">
<polygon fill="white" stroke="black" points="389,-0.5 389,-30.5 540,-30.5 540,-0.5 389,-0.5"/>
<text text-anchor="start" x="397" y="-18.5" font-family="Helvetica,sans-Serif" font-size="10.00">irr::video::unpack</text>
<text text-anchor="middle" x="464.5" y="-7.5" font-family="Helvetica,sans-Serif" font-size="10.00">_textureBlendFuncSeparate</text>
</a>
</g>
</g>
<!-- Node1&#45;&gt;Node11 -->
<g id="edge13" class="edge">
<title>Node1&#45;&gt;Node11</title>
<path fill="none" stroke="midnightblue" d="M108.66,-71.46C131.21,-60.37 163.77,-45.96 194,-38.5 254.71,-23.52 325.19,-17.91 378.84,-15.96"/>
<polygon fill="midnightblue" stroke="midnightblue" points="379.11,-19.45 388.99,-15.63 378.89,-12.46 379.11,-19.45"/>
</g>
<!-- Node4&#45;&gt;Node2 -->
<g id="edge7" class="edge">
<title>Node4&#45;&gt;Node2</title>
<path fill="none" stroke="midnightblue" d="M327.86,-77.51C334.56,-80.34 341.11,-83.65 347,-87.5 367.02,-100.58 363,-114.38 383,-127.5 387.36,-130.36 392.04,-132.94 396.89,-135.27"/>
<polygon fill="midnightblue" stroke="midnightblue" points="395.79,-138.61 406.35,-139.45 398.62,-132.21 395.79,-138.61"/>
</g>
<!-- Node5 -->
<g id="node5" class="node">
<title>Node5</title>
<g id="a_node5"><a xlink:href="namespaceirr_1_1core.html#a6162f685b68f629e77336081d3316969" target="_top" xlink:title="clamps a value between low and high">
<polygon fill="white" stroke="black" points="419.5,-99 419.5,-118 509.5,-118 509.5,-99 419.5,-99"/>
<text text-anchor="middle" x="464.5" y="-106" font-family="Helvetica,sans-Serif" font-size="10.00">irr::core::clamp</text>
</a>
</g>
</g>
<!-- Node4&#45;&gt;Node5 -->
<g id="edge4" class="edge">
<title>Node4&#45;&gt;Node5</title>
<path fill="none" stroke="midnightblue" d="M333.41,-77.56C349.55,-81.47 366.92,-85.66 383,-89.5 392.74,-91.83 403.15,-94.3 413.14,-96.66"/>
<polygon fill="midnightblue" stroke="midnightblue" points="412.41,-100.09 422.95,-98.98 414.02,-93.27 412.41,-100.09"/>
</g>
<!-- Node8 -->
<g id="node8" class="node">
<title>Node8</title>
<g id="a_node8"><a xlink:href="classirr_1_1video_1_1COpenGL3DriverBase.html#a7e89ab9101d1f2db60646dc65d640c50" target="_top" xlink:title="Compare in SMaterial doesn&#39;t check texture parameters, so we should call this on each OnRender call.">
<polygon fill="white" stroke="black" points="383,-49.5 383,-79.5 546,-79.5 546,-49.5 383,-49.5"/>
<text text-anchor="start" x="391" y="-67.5" font-family="Helvetica,sans-Serif" font-size="10.00">irr::video::COpenGL3Driver</text>
<text text-anchor="middle" x="464.5" y="-56.5" font-family="Helvetica,sans-Serif" font-size="10.00">Base::setTextureRenderStates</text>
</a>
</g>
</g>
<!-- Node4&#45;&gt;Node8 -->
<g id="edge8" class="edge">
<title>Node4&#45;&gt;Node8</title>
<path fill="none" stroke="midnightblue" d="M347.11,-63.29C355.56,-63.38 364.22,-63.47 372.83,-63.56"/>
<polygon fill="midnightblue" stroke="midnightblue" points="372.86,-67.06 382.9,-63.66 372.94,-60.06 372.86,-67.06"/>
</g>
<!-- Node4&#45;&gt;Node11 -->
<g id="edge12" class="edge">
<title>Node4&#45;&gt;Node11</title>
<path fill="none" stroke="midnightblue" d="M332.78,-47.5C351.74,-42.86 372.8,-37.7 392.37,-32.91"/>
<polygon fill="midnightblue" stroke="midnightblue" points="393.26,-36.3 402.15,-30.52 391.6,-29.5 393.26,-36.3"/>
</g>
<!-- Node6 -->
<g id="node6" class="node">
<title>Node6</title>
<g id="a_node6"><a xlink:href="namespaceirr_1_1core.html#afca1ce7ac54e0c31a9047947f4c7319b" target="_top" xlink:title="returns maximum of two values. Own implementation to get rid of the STL (VS6 problems)">
<polygon fill="white" stroke="black" points="614,-137 614,-156 701,-156 701,-137 614,-137"/>
<text text-anchor="middle" x="657.5" y="-144" font-family="Helvetica,sans-Serif" font-size="10.00">irr::core::max_</text>
</a>
</g>
</g>
<!-- Node5&#45;&gt;Node6 -->
<g id="edge5" class="edge">
<title>Node5&#45;&gt;Node6</title>
<path fill="none" stroke="midnightblue" d="M509.8,-117.31C537.8,-122.88 574.13,-130.11 603.63,-135.98"/>
<polygon fill="midnightblue" stroke="midnightblue" points="603.26,-139.48 613.75,-138 604.63,-132.61 603.26,-139.48"/>
</g>
<!-- Node7 -->
<g id="node7" class="node">
<title>Node7</title>
<g id="a_node7"><a xlink:href="namespaceirr_1_1core.html#a9d34bfdbbe9c136b01ae04974572bc11" target="_top" xlink:title="returns minimum of two values. Own implementation to get rid of the STL (VS6 problems)">
<polygon fill="white" stroke="black" points="615.5,-99 615.5,-118 699.5,-118 699.5,-99 615.5,-99"/>
<text text-anchor="middle" x="657.5" y="-106" font-family="Helvetica,sans-Serif" font-size="10.00">irr::core::min_</text>
</a>
</g>
</g>
<!-- Node5&#45;&gt;Node7 -->
<g id="edge6" class="edge">
<title>Node5&#45;&gt;Node7</title>
<path fill="none" stroke="midnightblue" d="M509.8,-108.5C538.29,-108.5 575.41,-108.5 605.18,-108.5"/>
<polygon fill="midnightblue" stroke="midnightblue" points="605.38,-112 615.38,-108.5 605.38,-105 605.38,-112"/>
</g>
<!-- Node8&#45;&gt;Node7 -->
<g id="edge11" class="edge">
<title>Node8&#45;&gt;Node7</title>
<path fill="none" stroke="midnightblue" d="M530.7,-79.52C555.17,-85.16 582.61,-91.48 605.6,-96.77"/>
<polygon fill="midnightblue" stroke="midnightblue" points="604.96,-100.22 615.49,-99.05 606.53,-93.4 604.96,-100.22"/>
</g>
<!-- Node9 -->
<g id="node9" class="node">
<title>Node9</title>
<g id="a_node9"><a xlink:href="classirr_1_1video_1_1COpenGL3DriverBase.html#a84486b0902b453151559d6241bf5dca0" target="_top" xlink:title="Map Irrlicht wrap mode to OpenGL enum.">
<polygon fill="white" stroke="black" points="582,-49.5 582,-79.5 733,-79.5 733,-49.5 582,-49.5"/>
<text text-anchor="start" x="590" y="-67.5" font-family="Helvetica,sans-Serif" font-size="10.00">irr::video::COpenGL3Driver</text>
<text text-anchor="middle" x="657.5" y="-56.5" font-family="Helvetica,sans-Serif" font-size="10.00">Base::getTextureWrapMode</text>
</a>
</g>
</g>
<!-- Node8&#45;&gt;Node9 -->
<g id="edge9" class="edge">
<title>Node8&#45;&gt;Node9</title>
<path fill="none" stroke="midnightblue" d="M546.22,-64.5C554.62,-64.5 563.17,-64.5 571.61,-64.5"/>
<polygon fill="midnightblue" stroke="midnightblue" points="571.84,-68 581.84,-64.5 571.84,-61 571.84,-68"/>
</g>
<!-- Node10 -->
<g id="node10" class="node">
<title>Node10</title>
<g id="a_node10"><a xlink:href="classirr_1_1video_1_1ITexture.html#ad03a806b1a7887288b4c364735bff3f7" target="_top" xlink:title="Check whether the texture has MipMaps.">
<polygon fill="white" stroke="black" points="605,-0.5 605,-30.5 710,-30.5 710,-0.5 605,-0.5"/>
<text text-anchor="start" x="613" y="-18.5" font-family="Helvetica,sans-Serif" font-size="10.00">irr::video::ITexture</text>
<text text-anchor="middle" x="657.5" y="-7.5" font-family="Helvetica,sans-Serif" font-size="10.00">::hasMipMaps</text>
</a>
</g>
</g>
<!-- Node8&#45;&gt;Node10 -->
<g id="edge10" class="edge">
<title>Node8&#45;&gt;Node10</title>
<path fill="none" stroke="midnightblue" d="M524.1,-49.47C546.55,-43.71 572.21,-37.12 594.93,-31.3"/>
<polygon fill="midnightblue" stroke="midnightblue" points="595.99,-34.64 604.8,-28.76 594.25,-27.86 595.99,-34.64"/>
</g>
</g>
</svg>
