<?xml version="1.0" encoding="UTF-8" standalone="no"?>
<!DOCTYPE svg PUBLIC "-//W3C//DTD SVG 1.1//EN"
 "http://www.w3.org/Graphics/SVG/1.1/DTD/svg11.dtd">
<!-- Generated by graphviz version 2.43.0 (0)
 -->
<!-- Title: DummyGameDef Pages: 1 -->
<!--zoomable 563 -->
<svg id="main" version="1.1" xmlns="http://www.w3.org/2000/svg" xmlns:xlink="http://www.w3.org/1999/xlink" xml:space="preserve" onload="init(evt)">
<style type="text/css"><![CDATA[
.edge:hover path { stroke: red; }
.edge:hover polygon { stroke: red; fill: red; }
]]></style>
<script type="text/javascript"><![CDATA[
var edges = document.getElementsByTagName('g');
if (edges && edges.length) {
  for (var i=0;i<edges.length;i++) {
    if (edges[i].id.substr(0,4)=='edge') {
      edges[i].setAttribute('class','edge');
    }
  }
}
]]></script>
        <defs>
                <circle id="rim" cx="0" cy="0" r="7"/>
                <circle id="rim2" cx="0" cy="0" r="3.5"/>
                <g id="zoomPlus">
                        <use xlink:href="#rim" fill="#404040">
                                <set attributeName="fill" to="#808080" begin="zoomplus.mouseover" end="zoomplus.mouseout"/>
                        </use>
                        <path d="M-4,0h8M0,-4v8" fill="none" stroke="white" stroke-width="1.5" pointer-events="none"/>
                </g>
                <g id="zoomMin">
                        <use xlink:href="#rim" fill="#404040">
                                <set attributeName="fill" to="#808080" begin="zoomminus.mouseover" end="zoomminus.mouseout"/>
                        </use>
                        <path d="M-4,0h8" fill="none" stroke="white" stroke-width="1.5" pointer-events="none"/>
                </g>
                <g id="dirArrow">
                        <path fill="none" stroke="white" stroke-width="1.5" d="M0,-3.0v7 M-2.5,-0.5L0,-3.0L2.5,-0.5"/>
                </g>
               <g id="resetDef">
                       <use xlink:href="#rim2" fill="#404040">
                               <set attributeName="fill" to="#808080" begin="reset.mouseover" end="reset.mouseout"/>
                       </use>
               </g>
        </defs>

<script type="text/javascript">
var viewWidth = 1301;
var viewHeight = 563;
var sectionId = 'dynsection-1';
</script>
<script xlink:href="svgpan.js"/>
<svg id="graph" class="graph">
<g id="viewport">
<title>DummyGameDef</title>
<polygon fill="white" stroke="transparent" points="-4,4 -4,-559 1297,-559 1297,4 -4,4"/>
<!-- Node1 -->
<g id="node1" class="node">
<title>Node1</title>
<g id="a_node1"><a xlink:title=" ">
<polygon fill="#bfbfbf" stroke="black" points="1191,-293.5 1191,-312.5 1293,-312.5 1293,-293.5 1191,-293.5"/>
<text text-anchor="middle" x="1242" y="-300.5" font-family="Helvetica,sans-Serif" font-size="10.00">DummyGameDef</text>
</a>
</g>
</g>
<!-- Node2 -->
<g id="node2" class="node">
<title>Node2</title>
<g id="a_node2"><a xlink:href="classIGameDef.html" target="_top" xlink:title=" ">
<polygon fill="white" stroke="black" points="928,-369.5 928,-388.5 994,-388.5 994,-369.5 928,-369.5"/>
<text text-anchor="middle" x="961" y="-376.5" font-family="Helvetica,sans-Serif" font-size="10.00">IGameDef</text>
</a>
</g>
</g>
<!-- Node2&#45;&gt;Node1 -->
<g id="edge1" class="edge">
<title>Node2&#45;&gt;Node1</title>
<path fill="none" stroke="midnightblue" d="M1004.47,-378.53C1048.11,-376.79 1117.35,-370.46 1173,-349 1195.34,-340.39 1217.65,-323.27 1230.34,-312.52"/>
<polygon fill="midnightblue" stroke="midnightblue" points="1004.1,-375.04 994.22,-378.88 1004.33,-382.04 1004.1,-375.04"/>
</g>
<!-- Node3 -->
<g id="node3" class="node">
<title>Node3</title>
<g id="a_node3"><a xlink:href="classICraftDefManager.html" target="_top" xlink:title=" ">
<polygon fill="white" stroke="black" points="909.5,-331.5 909.5,-350.5 1012.5,-350.5 1012.5,-331.5 909.5,-331.5"/>
<text text-anchor="middle" x="961" y="-338.5" font-family="Helvetica,sans-Serif" font-size="10.00">ICraftDefManager</text>
</a>
</g>
</g>
<!-- Node3&#45;&gt;Node1 -->
<g id="edge2" class="edge">
<title>Node3&#45;&gt;Node1</title>
<path fill="none" stroke="#9a32cd" stroke-dasharray="5,2" d="M1022.65,-336.15C1064.95,-332.33 1122.61,-326.28 1173,-318 1182.19,-316.49 1192,-314.53 1201.23,-312.53"/>
<polygon fill="#9a32cd" stroke="#9a32cd" points="1022.17,-332.68 1012.52,-337.04 1022.78,-339.65 1022.17,-332.68"/>
<text text-anchor="middle" x="1106.5" y="-337" font-family="Helvetica,sans-Serif" font-size="10.00"> m_craftdef</text>
</g>
<!-- Node4 -->
<g id="node4" class="node">
<title>Node4</title>
<g id="a_node4"><a xlink:href="classNodeDefManager.html" target="_top" xlink:title="This class is for getting the actual properties of nodes from their content ID.">
<polygon fill="white" stroke="black" points="910,-293.5 910,-312.5 1012,-312.5 1012,-293.5 910,-293.5"/>
<text text-anchor="middle" x="961" y="-300.5" font-family="Helvetica,sans-Serif" font-size="10.00">NodeDefManager</text>
</a>
</g>
</g>
<!-- Node4&#45;&gt;Node1 -->
<g id="edge3" class="edge">
<title>Node4&#45;&gt;Node1</title>
<path fill="none" stroke="#9a32cd" stroke-dasharray="5,2" d="M1022.29,-303C1072.59,-303 1143.45,-303 1190.73,-303"/>
<polygon fill="#9a32cd" stroke="#9a32cd" points="1022.2,-299.5 1012.2,-303 1022.2,-306.5 1022.2,-299.5"/>
<text text-anchor="middle" x="1106.5" y="-306" font-family="Helvetica,sans-Serif" font-size="10.00"> m_nodedef</text>
</g>
<!-- Node5 -->
<g id="node5" class="node">
<title>Node5</title>
<g id="a_node5"><a xlink:href="classirr_1_1core_1_1aabbox3d.html" target="_top" xlink:title=" ">
<polygon fill="white" stroke="black" points="585,-97 585,-127 693,-127 693,-97 585,-97"/>
<text text-anchor="start" x="593" y="-115" font-family="Helvetica,sans-Serif" font-size="10.00">irr::core::aabbox3d</text>
<text text-anchor="middle" x="639" y="-104" font-family="Helvetica,sans-Serif" font-size="10.00">&lt; s16 &gt;</text>
</a>
</g>
</g>
<!-- Node5&#45;&gt;Node4 -->
<g id="edge4" class="edge">
<title>Node5&#45;&gt;Node4</title>
<path fill="none" stroke="#9a32cd" stroke-dasharray="5,2" d="M701.71,-94.85C756.35,-83.77 834.6,-78.62 882,-123 908.28,-147.6 877.15,-256.18 900,-284 903.19,-287.88 907.17,-290.99 911.56,-293.46"/>
<polygon fill="#9a32cd" stroke="#9a32cd" points="700.83,-91.46 691.79,-96.98 702.3,-98.3 700.83,-91.46"/>
<text text-anchor="start" x="755" y="-137" font-family="Helvetica,sans-Serif" font-size="10.00"> m_selection_box_int</text>
<text text-anchor="middle" x="807" y="-126" font-family="Helvetica,sans-Serif" font-size="10.00">_union</text>
</g>
<!-- Node6 -->
<g id="node6" class="node">
<title>Node6</title>
<g id="a_node6"><a xlink:href="classirr_1_1core_1_1vector3d.html" target="_top" xlink:title=" ">
<polygon fill="white" stroke="black" points="305,-50 305,-80 408,-80 408,-50 305,-50"/>
<text text-anchor="start" x="313" y="-68" font-family="Helvetica,sans-Serif" font-size="10.00">irr::core::vector3d</text>
<text text-anchor="middle" x="356.5" y="-57" font-family="Helvetica,sans-Serif" font-size="10.00">&lt; s16 &gt;</text>
</a>
</g>
</g>
<!-- Node6&#45;&gt;Node5 -->
<g id="edge5" class="edge">
<title>Node6&#45;&gt;Node5</title>
<path fill="none" stroke="#9a32cd" stroke-dasharray="5,2" d="M418.55,-66.47C455.72,-68.28 503.97,-72.27 546,-81 546.67,-81.14 570.38,-89.13 593.57,-96.96"/>
<polygon fill="#9a32cd" stroke="#9a32cd" points="418.53,-62.97 408.38,-66.02 418.21,-69.96 418.53,-62.97"/>
<text text-anchor="middle" x="494.5" y="-95" font-family="Helvetica,sans-Serif" font-size="10.00"> MinEdge</text>
<text text-anchor="middle" x="494.5" y="-84" font-family="Helvetica,sans-Serif" font-size="10.00">MaxEdge</text>
</g>
<!-- Node7 -->
<g id="node7" class="node">
<title>Node7</title>
<g id="a_node7"><a xlink:title=" ">
<polygon fill="white" stroke="#bfbfbf" points="123.5,-0.5 123.5,-19.5 157.5,-19.5 157.5,-0.5 123.5,-0.5"/>
<text text-anchor="middle" x="140.5" y="-7.5" font-family="Helvetica,sans-Serif" font-size="10.00">s16</text>
</a>
</g>
</g>
<!-- Node7&#45;&gt;Node6 -->
<g id="edge6" class="edge">
<title>Node7&#45;&gt;Node6</title>
<path fill="none" stroke="#9a32cd" stroke-dasharray="5,2" d="M167.89,-11.61C194.17,-13.7 235.46,-18.3 270,-28 289.31,-33.42 309.97,-42.27 326.15,-49.96"/>
<polygon fill="#9a32cd" stroke="#9a32cd" points="167.84,-8.1 157.61,-10.86 167.33,-15.08 167.84,-8.1"/>
<text text-anchor="middle" x="247" y="-53" font-family="Helvetica,sans-Serif" font-size="10.00"> X</text>
<text text-anchor="middle" x="247" y="-42" font-family="Helvetica,sans-Serif" font-size="10.00">Y</text>
<text text-anchor="middle" x="247" y="-31" font-family="Helvetica,sans-Serif" font-size="10.00">Z</text>
</g>
<!-- Node8 -->
<g id="node8" class="node">
<title>Node8</title>
<g id="a_node8"><a xlink:href="classirr_1_1core_1_1vector3d.html" target="_top" xlink:title="3d vector template class with lots of operators and methods.">
<polygon fill="white" stroke="black" points="75,-71.5 75,-90.5 206,-90.5 206,-71.5 75,-71.5"/>
<text text-anchor="middle" x="140.5" y="-78.5" font-family="Helvetica,sans-Serif" font-size="10.00">irr::core::vector3d&lt; T &gt;</text>
</a>
</g>
</g>
<!-- Node8&#45;&gt;Node6 -->
<g id="edge7" class="edge">
<title>Node8&#45;&gt;Node6</title>
<path fill="none" stroke="orange" stroke-dasharray="5,2" d="M200.2,-69.91C208.17,-68.73 216.27,-67.71 224,-67 250.6,-64.56 280.36,-63.93 304.82,-63.97"/>
<polygon fill="orange" stroke="orange" points="199.54,-66.47 190.2,-71.47 200.62,-73.39 199.54,-66.47"/>
<text text-anchor="middle" x="247" y="-70" font-family="Helvetica,sans-Serif" font-size="10.00"> &lt; s16 &gt;</text>
</g>
<!-- Node24 -->
<g id="node24" class="node">
<title>Node24</title>
<g id="a_node24"><a xlink:href="classirr_1_1core_1_1vector3d.html" target="_top" xlink:title=" ">
<polygon fill="white" stroke="black" points="305,-163 305,-193 408,-193 408,-163 305,-163"/>
<text text-anchor="start" x="313" y="-181" font-family="Helvetica,sans-Serif" font-size="10.00">irr::core::vector3d</text>
<text text-anchor="middle" x="356.5" y="-170" font-family="Helvetica,sans-Serif" font-size="10.00">&lt; f32 &gt;</text>
</a>
</g>
</g>
<!-- Node8&#45;&gt;Node24 -->
<g id="edge26" class="edge">
<title>Node8&#45;&gt;Node24</title>
<path fill="none" stroke="orange" stroke-dasharray="5,2" d="M215.77,-92.26C234.94,-97.89 254.52,-106.33 270,-119 283.23,-129.83 275.14,-141.73 288,-153 292.98,-157.36 298.8,-160.99 304.88,-164"/>
<polygon fill="orange" stroke="orange" points="216.67,-88.88 206.11,-89.64 214.84,-95.64 216.67,-88.88"/>
<text text-anchor="middle" x="247" y="-122" font-family="Helvetica,sans-Serif" font-size="10.00"> &lt; f32 &gt;</text>
</g>
<!-- Node9 -->
<g id="node9" class="node">
<title>Node9</title>
<g id="a_node9"><a xlink:title=" ">
<polygon fill="white" stroke="#bfbfbf" points="0,-71.5 0,-90.5 29,-90.5 29,-71.5 0,-71.5"/>
<text text-anchor="middle" x="14.5" y="-78.5" font-family="Helvetica,sans-Serif" font-size="10.00">T</text>
</a>
</g>
</g>
<!-- Node9&#45;&gt;Node8 -->
<g id="edge8" class="edge">
<title>Node9&#45;&gt;Node8</title>
<path fill="none" stroke="#9a32cd" stroke-dasharray="5,2" d="M39.38,-81C49.64,-81 62.18,-81 74.86,-81"/>
<polygon fill="#9a32cd" stroke="#9a32cd" points="39.24,-77.5 29.24,-81 39.24,-84.5 39.24,-77.5"/>
<text text-anchor="middle" x="52" y="-106" font-family="Helvetica,sans-Serif" font-size="10.00"> X</text>
<text text-anchor="middle" x="52" y="-95" font-family="Helvetica,sans-Serif" font-size="10.00">Y</text>
<text text-anchor="middle" x="52" y="-84" font-family="Helvetica,sans-Serif" font-size="10.00">Z</text>
</g>
<!-- Node10 -->
<g id="node10" class="node">
<title>Node10</title>
<g id="a_node10"><a xlink:href="classirr_1_1core_1_1aabbox3d.html" target="_top" xlink:title="Axis aligned bounding box in 3d dimensional space.">
<polygon fill="white" stroke="black" points="288,-124.5 288,-143.5 425,-143.5 425,-124.5 288,-124.5"/>
<text text-anchor="middle" x="356.5" y="-131.5" font-family="Helvetica,sans-Serif" font-size="10.00">irr::core::aabbox3d&lt; T &gt;</text>
</a>
</g>
</g>
<!-- Node10&#45;&gt;Node5 -->
<g id="edge9" class="edge">
<title>Node10&#45;&gt;Node5</title>
<path fill="none" stroke="orange" stroke-dasharray="5,2" d="M395.37,-121.52C410.07,-117.28 427.15,-113.09 443,-111 490.66,-104.7 545.44,-105.7 584.79,-107.83"/>
<polygon fill="orange" stroke="orange" points="394.2,-118.22 385.62,-124.43 396.2,-124.92 394.2,-118.22"/>
<text text-anchor="middle" x="494.5" y="-114" font-family="Helvetica,sans-Serif" font-size="10.00"> &lt; s16 &gt;</text>
</g>
<!-- Node23 -->
<g id="node23" class="node">
<title>Node23</title>
<g id="a_node23"><a xlink:href="classirr_1_1core_1_1aabbox3d.html" target="_top" xlink:title=" ">
<polygon fill="white" stroke="black" points="585,-148 585,-178 693,-178 693,-148 585,-148"/>
<text text-anchor="start" x="593" y="-166" font-family="Helvetica,sans-Serif" font-size="10.00">irr::core::aabbox3d</text>
<text text-anchor="middle" x="639" y="-155" font-family="Helvetica,sans-Serif" font-size="10.00">&lt; f32 &gt;</text>
</a>
</g>
</g>
<!-- Node10&#45;&gt;Node23 -->
<g id="edge27" class="edge">
<title>Node10&#45;&gt;Node23</title>
<path fill="none" stroke="orange" stroke-dasharray="5,2" d="M435,-142.01C482.58,-146.93 542.3,-153.11 584.62,-157.48"/>
<polygon fill="orange" stroke="orange" points="435.35,-138.53 425.04,-140.98 434.63,-145.49 435.35,-138.53"/>
<text text-anchor="middle" x="494.5" y="-156" font-family="Helvetica,sans-Serif" font-size="10.00"> &lt; f32 &gt;</text>
</g>
<!-- Node11 -->
<g id="node11" class="node">
<title>Node11</title>
<g id="a_node11"><a xlink:title=" ">
<polygon fill="white" stroke="#bfbfbf" points="96.5,-124.5 96.5,-143.5 184.5,-143.5 184.5,-124.5 96.5,-124.5"/>
<text text-anchor="middle" x="140.5" y="-131.5" font-family="Helvetica,sans-Serif" font-size="10.00">vector3d&lt; T &gt;</text>
</a>
</g>
</g>
<!-- Node11&#45;&gt;Node10 -->
<g id="edge10" class="edge">
<title>Node11&#45;&gt;Node10</title>
<path fill="none" stroke="#9a32cd" stroke-dasharray="5,2" d="M194.59,-134C222.72,-134 257.59,-134 287.66,-134"/>
<polygon fill="#9a32cd" stroke="#9a32cd" points="194.55,-130.5 184.55,-134 194.55,-137.5 194.55,-130.5"/>
<text text-anchor="middle" x="247" y="-148" font-family="Helvetica,sans-Serif" font-size="10.00"> MinEdge</text>
<text text-anchor="middle" x="247" y="-137" font-family="Helvetica,sans-Serif" font-size="10.00">MaxEdge</text>
</g>
<!-- Node12 -->
<g id="node12" class="node">
<title>Node12</title>
<g id="a_node12"><a xlink:title=" ">
<polygon fill="white" stroke="#bfbfbf" points="579.5,-331.5 579.5,-372.5 698.5,-372.5 698.5,-331.5 579.5,-331.5"/>
<text text-anchor="start" x="587.5" y="-360.5" font-family="Helvetica,sans-Serif" font-size="10.00">unordered_map&lt; std</text>
<text text-anchor="start" x="587.5" y="-349.5" font-family="Helvetica,sans-Serif" font-size="10.00">::string, std::vector</text>
<text text-anchor="middle" x="639" y="-338.5" font-family="Helvetica,sans-Serif" font-size="10.00">&lt; content_t &gt; &gt;</text>
</a>
</g>
</g>
<!-- Node12&#45;&gt;Node4 -->
<g id="edge11" class="edge">
<title>Node12&#45;&gt;Node4</title>
<path fill="none" stroke="#9a32cd" stroke-dasharray="5,2" d="M708.88,-343.26C757.38,-336.88 823.78,-327.68 882,-318 891.93,-316.35 902.54,-314.42 912.63,-312.5"/>
<polygon fill="#9a32cd" stroke="#9a32cd" points="708.27,-339.81 698.81,-344.58 709.18,-346.75 708.27,-339.81"/>
<text text-anchor="middle" x="807" y="-343" font-family="Helvetica,sans-Serif" font-size="10.00"> m_group_to_items</text>
</g>
<!-- Node13 -->
<g id="node13" class="node">
<title>Node13</title>
<g id="a_node13"><a xlink:title=" ">
<polygon fill="white" stroke="#bfbfbf" points="564,-293.5 564,-312.5 714,-312.5 714,-293.5 564,-293.5"/>
<text text-anchor="middle" x="639" y="-300.5" font-family="Helvetica,sans-Serif" font-size="10.00">vector&lt; ContentFeatures &gt;</text>
</a>
</g>
</g>
<!-- Node13&#45;&gt;Node4 -->
<g id="edge12" class="edge">
<title>Node13&#45;&gt;Node4</title>
<path fill="none" stroke="#9a32cd" stroke-dasharray="5,2" d="M724.26,-303C783.2,-303 859.95,-303 909.6,-303"/>
<polygon fill="#9a32cd" stroke="#9a32cd" points="724.22,-299.5 714.22,-303 724.22,-306.5 724.22,-299.5"/>
<text text-anchor="middle" x="807" y="-306" font-family="Helvetica,sans-Serif" font-size="10.00"> m_content_features</text>
</g>
<!-- Node14 -->
<g id="node14" class="node">
<title>Node14</title>
<g id="a_node14"><a xlink:title=" ">
<polygon fill="white" stroke="#bfbfbf" points="621.5,-255.5 621.5,-274.5 656.5,-274.5 656.5,-255.5 621.5,-255.5"/>
<text text-anchor="middle" x="639" y="-262.5" font-family="Helvetica,sans-Serif" font-size="10.00">u16</text>
</a>
</g>
</g>
<!-- Node14&#45;&gt;Node4 -->
<g id="edge13" class="edge">
<title>Node14&#45;&gt;Node4</title>
<path fill="none" stroke="#9a32cd" stroke-dasharray="5,2" d="M666.85,-266.71C711.61,-269.76 804.23,-276.85 882,-288 892.51,-289.51 903.76,-291.46 914.34,-293.46"/>
<polygon fill="#9a32cd" stroke="#9a32cd" points="667,-263.22 656.79,-266.04 666.53,-270.2 667,-263.22"/>
<text text-anchor="middle" x="807" y="-291" font-family="Helvetica,sans-Serif" font-size="10.00"> m_next_id</text>
</g>
<!-- Node15 -->
<g id="node15" class="node">
<title>Node15</title>
<g id="a_node15"><a xlink:href="structContentLightingFlags.html" target="_top" xlink:title=" ">
<polygon fill="white" stroke="black" points="579,-391.5 579,-410.5 699,-410.5 699,-391.5 579,-391.5"/>
<text text-anchor="middle" x="639" y="-398.5" font-family="Helvetica,sans-Serif" font-size="10.00">ContentLightingFlags</text>
</a>
</g>
</g>
<!-- Node15&#45;&gt;Node4 -->
<g id="edge14" class="edge">
<title>Node15&#45;&gt;Node4</title>
<path fill="none" stroke="#9a32cd" stroke-dasharray="5,2" d="M709.22,-390.93C775.7,-380.76 868.07,-365.15 882,-355 895.5,-345.16 887.11,-332.62 900,-322 904.72,-318.11 910.25,-315.01 916,-312.55"/>
<polygon fill="#9a32cd" stroke="#9a32cd" points="708.56,-387.49 699.2,-392.45 709.61,-394.41 708.56,-387.49"/>
<text text-anchor="start" x="758.5" y="-401" font-family="Helvetica,sans-Serif" font-size="10.00"> m_content_lighting</text>
<text text-anchor="middle" x="807" y="-390" font-family="Helvetica,sans-Serif" font-size="10.00">_flag_cache</text>
</g>
<!-- Node16 -->
<g id="node16" class="node">
<title>Node16</title>
<g id="a_node16"><a xlink:title=" ">
<polygon fill="white" stroke="#bfbfbf" points="342,-385.5 342,-404.5 371,-404.5 371,-385.5 342,-385.5"/>
<text text-anchor="middle" x="356.5" y="-392.5" font-family="Helvetica,sans-Serif" font-size="10.00">u8</text>
</a>
</g>
</g>
<!-- Node16&#45;&gt;Node15 -->
<g id="edge15" class="edge">
<title>Node16&#45;&gt;Node15</title>
<path fill="none" stroke="#9a32cd" stroke-dasharray="5,2" d="M381.14,-395.51C424.42,-396.43 517.56,-398.42 578.98,-399.74"/>
<polygon fill="#9a32cd" stroke="#9a32cd" points="381.1,-392 371.03,-395.29 380.95,-399 381.1,-392"/>
<text text-anchor="middle" x="494.5" y="-401" font-family="Helvetica,sans-Serif" font-size="10.00"> light_source</text>
</g>
<!-- Node17 -->
<g id="node17" class="node">
<title>Node17</title>
<g id="a_node17"><a xlink:href="classbool.html" target="_top" xlink:title=" ">
<polygon fill="white" stroke="black" points="337.5,-248.5 337.5,-267.5 375.5,-267.5 375.5,-248.5 337.5,-248.5"/>
<text text-anchor="middle" x="356.5" y="-255.5" font-family="Helvetica,sans-Serif" font-size="10.00">bool</text>
</a>
</g>
</g>
<!-- Node17&#45;&gt;Node4 -->
<g id="edge17" class="edge">
<title>Node17&#45;&gt;Node4</title>
<path fill="none" stroke="#9a32cd" stroke-dasharray="5,2" d="M385.57,-251.88C425.13,-243.6 499.65,-229.26 564,-224 706.15,-212.38 757.09,-198.16 882,-267 891.64,-272.31 890.52,-278.42 900,-284 906.4,-287.77 913.64,-290.87 920.81,-293.4"/>
<polygon fill="#9a32cd" stroke="#9a32cd" points="384.66,-248.5 375.61,-253.99 386.12,-255.34 384.66,-248.5"/>
<text text-anchor="start" x="587" y="-238" font-family="Helvetica,sans-Serif" font-size="10.00"> m_node_registration</text>
<text text-anchor="middle" x="639" y="-227" font-family="Helvetica,sans-Serif" font-size="10.00">_complete</text>
</g>
<!-- Node17&#45;&gt;Node15 -->
<g id="edge16" class="edge">
<title>Node17&#45;&gt;Node15</title>
<path fill="none" stroke="#9a32cd" stroke-dasharray="5,2" d="M385.19,-268.55C423.98,-284.22 495.4,-316.44 546,-359 555.93,-367.36 553.14,-374.9 564,-382 569.88,-385.85 576.5,-388.92 583.3,-391.36"/>
<polygon fill="#9a32cd" stroke="#9a32cd" points="386.2,-265.18 375.61,-264.74 383.62,-271.69 386.2,-265.18"/>
<text text-anchor="middle" x="494.5" y="-384" font-family="Helvetica,sans-Serif" font-size="10.00"> sunlight_propagates</text>
<text text-anchor="middle" x="494.5" y="-373" font-family="Helvetica,sans-Serif" font-size="10.00">light_propagates</text>
<text text-anchor="middle" x="494.5" y="-362" font-family="Helvetica,sans-Serif" font-size="10.00">has_light</text>
</g>
<!-- Node18 -->
<g id="node18" class="node">
<title>Node18</title>
<g id="a_node18"><a xlink:href="classNameIdMapping.html" target="_top" xlink:title=" ">
<polygon fill="white" stroke="black" points="590.5,-429.5 590.5,-448.5 687.5,-448.5 687.5,-429.5 590.5,-429.5"/>
<text text-anchor="middle" x="639" y="-436.5" font-family="Helvetica,sans-Serif" font-size="10.00">NameIdMapping</text>
</a>
</g>
</g>
<!-- Node18&#45;&gt;Node4 -->
<g id="edge18" class="edge">
<title>Node18&#45;&gt;Node4</title>
<path fill="none" stroke="#9a32cd" stroke-dasharray="5,2" d="M697.76,-440.4C760.7,-440.64 855.94,-436.85 882,-413 912.41,-385.16 872.52,-352.73 900,-322 903.5,-318.09 907.79,-314.98 912.46,-312.5"/>
<polygon fill="#9a32cd" stroke="#9a32cd" points="697.59,-436.89 687.56,-440.32 697.54,-443.89 697.59,-436.89"/>
<text text-anchor="middle" x="807" y="-443" font-family="Helvetica,sans-Serif" font-size="10.00"> m_name_id_mapping</text>
</g>
<!-- Node19 -->
<g id="node19" class="node">
<title>Node19</title>
<g id="a_node19"><a xlink:title=" ">
<polygon fill="white" stroke="#bfbfbf" points="297,-424 297,-454 416,-454 416,-424 297,-424"/>
<text text-anchor="start" x="305" y="-442" font-family="Helvetica,sans-Serif" font-size="10.00">unordered_map&lt; std</text>
<text text-anchor="middle" x="356.5" y="-431" font-family="Helvetica,sans-Serif" font-size="10.00">::string, u16 &gt;</text>
</a>
</g>
</g>
<!-- Node19&#45;&gt;Node18 -->
<g id="edge19" class="edge">
<title>Node19&#45;&gt;Node18</title>
<path fill="none" stroke="#9a32cd" stroke-dasharray="5,2" d="M426.57,-439C477.51,-439 545.48,-439 590.44,-439"/>
<polygon fill="#9a32cd" stroke="#9a32cd" points="426.3,-435.5 416.3,-439 426.3,-442.5 426.3,-435.5"/>
<text text-anchor="middle" x="494.5" y="-442" font-family="Helvetica,sans-Serif" font-size="10.00"> m_name_to_id</text>
</g>
<!-- Node20 -->
<g id="node20" class="node">
<title>Node20</title>
<g id="a_node20"><a xlink:title=" ">
<polygon fill="white" stroke="#bfbfbf" points="294,-473 294,-503 419,-503 419,-473 294,-473"/>
<text text-anchor="start" x="302" y="-491" font-family="Helvetica,sans-Serif" font-size="10.00">unordered_map&lt; u16,</text>
<text text-anchor="middle" x="356.5" y="-480" font-family="Helvetica,sans-Serif" font-size="10.00"> std::string &gt;</text>
</a>
</g>
</g>
<!-- Node20&#45;&gt;Node18 -->
<g id="edge20" class="edge">
<title>Node20&#45;&gt;Node18</title>
<path fill="none" stroke="#9a32cd" stroke-dasharray="5,2" d="M428.97,-475.52C479.64,-466.66 546.24,-455.03 590.5,-447.3"/>
<polygon fill="#9a32cd" stroke="#9a32cd" points="428.31,-472.08 419.06,-477.25 429.51,-478.97 428.31,-472.08"/>
<text text-anchor="middle" x="494.5" y="-475" font-family="Helvetica,sans-Serif" font-size="10.00"> m_id_to_name</text>
</g>
<!-- Node21 -->
<g id="node21" class="node">
<title>Node21</title>
<g id="a_node21"><a xlink:title=" ">
<polygon fill="white" stroke="#bfbfbf" points="566,-517.5 566,-536.5 712,-536.5 712,-517.5 566,-517.5"/>
<text text-anchor="middle" x="639" y="-524.5" font-family="Helvetica,sans-Serif" font-size="10.00">vector&lt; NodeResolver * &gt;</text>
</a>
</g>
</g>
<!-- Node21&#45;&gt;Node4 -->
<g id="edge21" class="edge">
<title>Node21&#45;&gt;Node4</title>
<path fill="none" stroke="#9a32cd" stroke-dasharray="5,2" d="M689.23,-538.37C744.24,-547.87 832.11,-552.88 882,-503 910.59,-474.42 874.53,-353.39 900,-322 903.17,-318.1 907.13,-314.98 911.51,-312.5"/>
<polygon fill="#9a32cd" stroke="#9a32cd" points="689.83,-534.92 679.36,-536.56 688.56,-541.81 689.83,-534.92"/>
<text text-anchor="middle" x="807" y="-547" font-family="Helvetica,sans-Serif" font-size="10.00"> m_pending_resolve_callbacks</text>
</g>
<!-- Node22 -->
<g id="node22" class="node">
<title>Node22</title>
<g id="a_node22"><a xlink:title=" ">
<polygon fill="white" stroke="#bfbfbf" points="579.5,-468 579.5,-498 698.5,-498 698.5,-468 579.5,-468"/>
<text text-anchor="start" x="587.5" y="-486" font-family="Helvetica,sans-Serif" font-size="10.00">unordered_map&lt; std</text>
<text text-anchor="middle" x="639" y="-475" font-family="Helvetica,sans-Serif" font-size="10.00">::string, content_t &gt;</text>
</a>
</g>
</g>
<!-- Node22&#45;&gt;Node4 -->
<g id="edge22" class="edge">
<title>Node22&#45;&gt;Node4</title>
<path fill="none" stroke="#9a32cd" stroke-dasharray="5,2" d="M708.76,-479.31C775.91,-475.04 869.76,-467.01 882,-455 924.58,-413.23 861.6,-367.65 900,-322 903.24,-318.15 907.25,-315.08 911.65,-312.62"/>
<polygon fill="#9a32cd" stroke="#9a32cd" points="708.41,-475.83 698.64,-479.94 708.84,-482.81 708.41,-475.83"/>
<text text-anchor="start" x="739.5" y="-491" font-family="Helvetica,sans-Serif" font-size="10.00"> m_name_id_mapping_with</text>
<text text-anchor="middle" x="807" y="-480" font-family="Helvetica,sans-Serif" font-size="10.00">_aliases</text>
</g>
<!-- Node23&#45;&gt;Node4 -->
<g id="edge23" class="edge">
<title>Node23&#45;&gt;Node4</title>
<path fill="none" stroke="#9a32cd" stroke-dasharray="5,2" d="M703.3,-151.23C757.69,-145.02 834.62,-146.18 882,-190 913.23,-218.88 871.74,-252.21 900,-284 903.41,-287.84 907.59,-290.91 912.15,-293.36"/>
<polygon fill="#9a32cd" stroke="#9a32cd" points="702.57,-147.79 693.08,-152.51 703.44,-154.74 702.57,-147.79"/>
<text text-anchor="middle" x="807" y="-193" font-family="Helvetica,sans-Serif" font-size="10.00"> m_selection_box_union</text>
</g>
<!-- Node24&#45;&gt;Node23 -->
<g id="edge24" class="edge">
<title>Node24&#45;&gt;Node23</title>
<path fill="none" stroke="#9a32cd" stroke-dasharray="5,2" d="M418.56,-174.73C468.14,-172.08 537.36,-168.38 584.72,-165.85"/>
<polygon fill="#9a32cd" stroke="#9a32cd" points="418.1,-171.25 408.3,-175.28 418.47,-178.24 418.1,-171.25"/>
<text text-anchor="middle" x="494.5" y="-188" font-family="Helvetica,sans-Serif" font-size="10.00"> MinEdge</text>
<text text-anchor="middle" x="494.5" y="-177" font-family="Helvetica,sans-Serif" font-size="10.00">MaxEdge</text>
</g>
<!-- Node25 -->
<g id="node25" class="node">
<title>Node25</title>
<g id="a_node25"><a xlink:title=" ">
<polygon fill="white" stroke="#bfbfbf" points="121.5,-169.5 121.5,-188.5 159.5,-188.5 159.5,-169.5 121.5,-169.5"/>
<text text-anchor="middle" x="140.5" y="-176.5" font-family="Helvetica,sans-Serif" font-size="10.00">float</text>
</a>
</g>
</g>
<!-- Node25&#45;&gt;Node24 -->
<g id="edge25" class="edge">
<title>Node25&#45;&gt;Node24</title>
<path fill="none" stroke="#9a32cd" stroke-dasharray="5,2" d="M169.99,-178.87C204.27,-178.71 262.47,-178.43 304.56,-178.24"/>
<polygon fill="#9a32cd" stroke="#9a32cd" points="169.73,-175.37 159.75,-178.91 169.76,-182.37 169.73,-175.37"/>
<text text-anchor="middle" x="247" y="-204" font-family="Helvetica,sans-Serif" font-size="10.00"> X</text>
<text text-anchor="middle" x="247" y="-193" font-family="Helvetica,sans-Serif" font-size="10.00">Y</text>
<text text-anchor="middle" x="247" y="-182" font-family="Helvetica,sans-Serif" font-size="10.00">Z</text>
</g>
<!-- Node26 -->
<g id="node26" class="node">
<title>Node26</title>
<g id="a_node26"><a xlink:href="classModStorageDatabase.html" target="_top" xlink:title=" ">
<polygon fill="white" stroke="black" points="900,-255.5 900,-274.5 1022,-274.5 1022,-255.5 900,-255.5"/>
<text text-anchor="middle" x="961" y="-262.5" font-family="Helvetica,sans-Serif" font-size="10.00">ModStorageDatabase</text>
</a>
</g>
</g>
<!-- Node26&#45;&gt;Node1 -->
<g id="edge28" class="edge">
<title>Node26&#45;&gt;Node1</title>
<path fill="none" stroke="#9a32cd" stroke-dasharray="5,2" d="M1032.46,-270.75C1073.59,-274.59 1126.41,-280.34 1173,-288 1182.19,-289.51 1192,-291.47 1201.23,-293.47"/>
<polygon fill="#9a32cd" stroke="#9a32cd" points="1032.54,-267.25 1022.26,-269.82 1031.9,-274.22 1032.54,-267.25"/>
<text text-anchor="middle" x="1106.5" y="-291" font-family="Helvetica,sans-Serif" font-size="10.00"> m_mod_storage_database</text>
</g>
<!-- Node27 -->
<g id="node27" class="node">
<title>Node27</title>
<g id="a_node27"><a xlink:href="classDatabase.html" target="_top" xlink:title=" ">
<polygon fill="white" stroke="black" points="607.5,-58.5 607.5,-77.5 670.5,-77.5 670.5,-58.5 607.5,-58.5"/>
<text text-anchor="middle" x="639" y="-65.5" font-family="Helvetica,sans-Serif" font-size="10.00">Database</text>
</a>
</g>
</g>
<!-- Node27&#45;&gt;Node26 -->
<g id="edge29" class="edge">
<title>Node27&#45;&gt;Node26</title>
<path fill="none" stroke="midnightblue" d="M680.73,-56.64C734.49,-44.38 828.54,-32.88 882,-84 908.18,-109.03 877.02,-218 900,-246 903.19,-249.88 907.17,-252.99 911.55,-255.46"/>
<polygon fill="midnightblue" stroke="midnightblue" points="679.77,-53.27 670.86,-59 681.4,-60.08 679.77,-53.27"/>
</g>
<!-- Node28 -->
<g id="node28" class="node">
<title>Node28</title>
<g id="a_node28"><a xlink:href="classIItemDefManager.html" target="_top" xlink:title=" ">
<polygon fill="white" stroke="black" points="910,-217.5 910,-236.5 1012,-236.5 1012,-217.5 910,-217.5"/>
<text text-anchor="middle" x="961" y="-224.5" font-family="Helvetica,sans-Serif" font-size="10.00">IItemDefManager</text>
</a>
</g>
</g>
<!-- Node28&#45;&gt;Node1 -->
<g id="edge30" class="edge">
<title>Node28&#45;&gt;Node1</title>
<path fill="none" stroke="#9a32cd" stroke-dasharray="5,2" d="M1022.32,-227.88C1065.57,-230.26 1124.5,-237.15 1173,-256 1195.47,-264.73 1217.73,-282.25 1230.38,-293.25"/>
<polygon fill="#9a32cd" stroke="#9a32cd" points="1022.4,-224.38 1012.24,-227.39 1022.06,-231.37 1022.4,-224.38"/>
<text text-anchor="middle" x="1106.5" y="-259" font-family="Helvetica,sans-Serif" font-size="10.00"> m_itemdef</text>
</g>
</g>
</svg>
        <g id="navigator" transform="translate(0 0)" fill="#404254">
                <rect fill="#f2f5e9" fill-opacity="0.5" stroke="#606060" stroke-width=".5" x="0" y="0" width="60" height="60"/>
                <use id="zoomplus" xlink:href="#zoomPlus" x="17" y="9" onmousedown="handleZoom(evt,'in')"/>
                <use id="zoomminus" xlink:href="#zoomMin" x="42" y="9" onmousedown="handleZoom(evt,'out')"/>
                <use id="reset" xlink:href="#resetDef" x="30" y="36" onmousedown="handleReset()"/>
                <g id="arrowUp" xlink:href="#dirArrow" transform="translate(30 24)" onmousedown="handlePan(0,-1)">
                  <use xlink:href="#rim" fill="#404040">
                        <set attributeName="fill" to="#808080" begin="arrowUp.mouseover" end="arrowUp.mouseout"/>
                  </use>
                  <path fill="none" stroke="white" stroke-width="1.5" d="M0,-3.0v7 M-2.5,-0.5L0,-3.0L2.5,-0.5"/>
                </g>
                <g id="arrowRight" xlink:href="#dirArrow" transform="rotate(90) translate(36 -43)" onmousedown="handlePan(1,0)">
                  <use xlink:href="#rim" fill="#404040">
                        <set attributeName="fill" to="#808080" begin="arrowRight.mouseover" end="arrowRight.mouseout"/>
                  </use>
                  <path fill="none" stroke="white" stroke-width="1.5" d="M0,-3.0v7 M-2.5,-0.5L0,-3.0L2.5,-0.5"/>
                </g>
                <g id="arrowDown" xlink:href="#dirArrow" transform="rotate(180) translate(-30 -48)" onmousedown="handlePan(0,1)">
                  <use xlink:href="#rim" fill="#404040">
                        <set attributeName="fill" to="#808080" begin="arrowDown.mouseover" end="arrowDown.mouseout"/>
                  </use>
                  <path fill="none" stroke="white" stroke-width="1.5" d="M0,-3.0v7 M-2.5,-0.5L0,-3.0L2.5,-0.5"/>
                </g>
                <g id="arrowLeft" xlink:href="#dirArrow" transform="rotate(270) translate(-36 17)" onmousedown="handlePan(-1,0)">
                  <use xlink:href="#rim" fill="#404040">
                        <set attributeName="fill" to="#808080" begin="arrowLeft.mouseover" end="arrowLeft.mouseout"/>
                  </use>
                  <path fill="none" stroke="white" stroke-width="1.5" d="M0,-3.0v7 M-2.5,-0.5L0,-3.0L2.5,-0.5"/>
                </g>
        </g>
        <svg viewBox="0 0 15 15" width="100%" height="30px" preserveAspectRatio="xMaxYMin meet">
         <g id="arrow_out" transform="scale(0.3 0.3)">
          <a xlink:href="classDummyGameDef__coll__graph_org.svg" target="_base">
           <rect id="button" ry="5" rx="5" y="6" x="6" height="38" width="38"
                fill="#f2f5e9" fill-opacity="0.5" stroke="#606060" stroke-width="1.0"/>
           <path id="arrow"
             d="M 11.500037,31.436501 C 11.940474,20.09759 22.043105,11.32322 32.158766,21.979434 L 37.068811,17.246167 C 37.068811,17.246167 37.088388,32 37.088388,32 L 22.160133,31.978069 C 22.160133,31.978069 26.997745,27.140456 26.997745,27.140456 C 18.528582,18.264221 13.291696,25.230495 11.500037,31.436501 z"
             style="fill:#404040;"/>
          </a>
         </g>
        </svg>
</svg>
