<?xml version="1.0" encoding="UTF-8" standalone="no"?>
<!DOCTYPE svg PUBLIC "-//W3C//DTD SVG 1.1//EN"
 "http://www.w3.org/Graphics/SVG/1.1/DTD/svg11.dtd">
<!-- Generated by graphviz version 2.43.0 (0)
 -->
<!-- Title: irr::scene::ISceneNode::getTransformedBoundingBox Pages: 1 -->
<svg width="333pt" height="88pt"
 viewBox="0.00 0.00 333.00 88.00" xmlns="http://www.w3.org/2000/svg" xmlns:xlink="http://www.w3.org/1999/xlink">
<g id="graph0" class="graph" transform="scale(1 1) rotate(0) translate(4 84)">
<title>irr::scene::ISceneNode::getTransformedBoundingBox</title>
<polygon fill="white" stroke="transparent" points="-4,4 -4,-84 329,-84 329,4 -4,4"/>
<!-- Node1 -->
<g id="node1" class="node">
<title>Node1</title>
<g id="a_node1"><a xlink:title="Get the axis aligned, transformed and animated absolute bounding box of this node.">
<polygon fill="#bfbfbf" stroke="black" points="0,-24.5 0,-54.5 164,-54.5 164,-24.5 0,-24.5"/>
<text text-anchor="start" x="8" y="-42.5" font-family="Helvetica,sans-Serif" font-size="10.00">irr::scene::ISceneNode</text>
<text text-anchor="middle" x="82" y="-31.5" font-family="Helvetica,sans-Serif" font-size="10.00">::getTransformedBoundingBox</text>
</a>
</g>
</g>
<!-- Node2 -->
<g id="node2" class="node">
<title>Node2</title>
<g id="a_node2"><a xlink:href="classirr_1_1scene_1_1ISceneNode.html#a223f718fc2f4944b5ad28c592f6cc8c6" target="_top" xlink:title="Get the axis aligned, not transformed bounding box of this node.">
<polygon fill="white" stroke="black" points="200,-49.5 200,-79.5 325,-79.5 325,-49.5 200,-49.5"/>
<text text-anchor="start" x="208" y="-67.5" font-family="Helvetica,sans-Serif" font-size="10.00">irr::scene::ISceneNode</text>
<text text-anchor="middle" x="262.5" y="-56.5" font-family="Helvetica,sans-Serif" font-size="10.00">::getBoundingBox</text>
</a>
</g>
</g>
<!-- Node1&#45;&gt;Node2 -->
<g id="edge1" class="edge">
<title>Node1&#45;&gt;Node2</title>
<path fill="none" stroke="midnightblue" d="M164.15,-50.87C172.67,-52.06 181.28,-53.26 189.67,-54.44"/>
<polygon fill="midnightblue" stroke="midnightblue" points="189.4,-57.94 199.79,-55.86 190.37,-51 189.4,-57.94"/>
</g>
<!-- Node3 -->
<g id="node3" class="node">
<title>Node3</title>
<g id="a_node3"><a xlink:href="classirr_1_1core_1_1CMatrix4.html#a2fcdfa14ef16240470e2b46d19a5cb43" target="_top" xlink:title="Transforms a axis aligned bounding box.">
<polygon fill="white" stroke="black" points="210.5,-0.5 210.5,-30.5 314.5,-30.5 314.5,-0.5 210.5,-0.5"/>
<text text-anchor="start" x="218.5" y="-18.5" font-family="Helvetica,sans-Serif" font-size="10.00">irr::core::CMatrix4</text>
<text text-anchor="middle" x="262.5" y="-7.5" font-family="Helvetica,sans-Serif" font-size="10.00">::transformBoxEx</text>
</a>
</g>
</g>
<!-- Node1&#45;&gt;Node3 -->
<g id="edge2" class="edge">
<title>Node1&#45;&gt;Node3</title>
<path fill="none" stroke="midnightblue" d="M164.15,-28.59C176.33,-26.95 188.72,-25.29 200.39,-23.72"/>
<polygon fill="midnightblue" stroke="midnightblue" points="200.99,-27.17 210.43,-22.37 200.06,-20.23 200.99,-27.17"/>
</g>
</g>
</svg>
