<?xml version="1.0" encoding="UTF-8" standalone="no"?>
<!DOCTYPE svg PUBLIC "-//W3C//DTD SVG 1.1//EN"
 "http://www.w3.org/Graphics/SVG/1.1/DTD/svg11.dtd">
<!-- Generated by graphviz version 2.43.0 (0)
 -->
<!-- Title: irr::core::triangle3d::getIntersectionWithLimitedLine Pages: 1 -->
<svg width="718pt" height="162pt"
 viewBox="0.00 0.00 718.00 162.00" xmlns="http://www.w3.org/2000/svg" xmlns:xlink="http://www.w3.org/1999/xlink">
<g id="graph0" class="graph" transform="scale(1 1) rotate(0) translate(4 158)">
<title>irr::core::triangle3d::getIntersectionWithLimitedLine</title>
<polygon fill="white" stroke="transparent" points="-4,4 -4,-158 714,-158 714,4 -4,4"/>
<!-- Node1 -->
<g id="node1" class="node">
<title>Node1</title>
<g id="a_node1"><a xlink:title="Get an intersection with a 3d line.">
<polygon fill="#bfbfbf" stroke="black" points="0,-24.5 0,-54.5 176,-54.5 176,-24.5 0,-24.5"/>
<text text-anchor="start" x="8" y="-42.5" font-family="Helvetica,sans-Serif" font-size="10.00">irr::core::triangle3d</text>
<text text-anchor="middle" x="88" y="-31.5" font-family="Helvetica,sans-Serif" font-size="10.00">::getIntersectionWithLimitedLine</text>
</a>
</g>
</g>
<!-- Node2 -->
<g id="node2" class="node">
<title>Node2</title>
<g id="a_node2"><a xlink:href="classirr_1_1core_1_1triangle3d.html#a70e0d27d17f9f0d14117df912cdaafe1" target="_top" xlink:title="Get an intersection with a 3d line.">
<polygon fill="white" stroke="black" points="212,-49.5 212,-79.5 351,-79.5 351,-49.5 212,-49.5"/>
<text text-anchor="start" x="220" y="-67.5" font-family="Helvetica,sans-Serif" font-size="10.00">irr::core::triangle3d</text>
<text text-anchor="middle" x="281.5" y="-56.5" font-family="Helvetica,sans-Serif" font-size="10.00">::getIntersectionWithLine</text>
</a>
</g>
</g>
<!-- Node1&#45;&gt;Node2 -->
<g id="edge1" class="edge">
<title>Node1&#45;&gt;Node2</title>
<path fill="none" stroke="midnightblue" d="M176.06,-50.87C184.56,-51.98 193.16,-53.1 201.57,-54.2"/>
<polygon fill="midnightblue" stroke="midnightblue" points="201.35,-57.7 211.72,-55.52 202.26,-50.76 201.35,-57.7"/>
</g>
<!-- Node8 -->
<g id="node8" class="node">
<title>Node8</title>
<g id="a_node8"><a xlink:href="classirr_1_1core_1_1vector3d.html#abbde78a7c345e22a6fd42f4c84e9038c" target="_top" xlink:title="Returns if this vector interpreted as a point is on a line between two other points.">
<polygon fill="white" stroke="black" points="229.5,-0.5 229.5,-30.5 333.5,-30.5 333.5,-0.5 229.5,-0.5"/>
<text text-anchor="start" x="237.5" y="-18.5" font-family="Helvetica,sans-Serif" font-size="10.00">irr::core::vector3d</text>
<text text-anchor="middle" x="281.5" y="-7.5" font-family="Helvetica,sans-Serif" font-size="10.00">::isBetweenPoints</text>
</a>
</g>
</g>
<!-- Node1&#45;&gt;Node8 -->
<g id="edge7" class="edge">
<title>Node1&#45;&gt;Node8</title>
<path fill="none" stroke="midnightblue" d="M176.06,-28.59C190.63,-26.76 205.47,-24.9 219.21,-23.18"/>
<polygon fill="midnightblue" stroke="midnightblue" points="220,-26.61 229.48,-21.89 219.13,-19.66 220,-26.61"/>
</g>
<!-- Node3 -->
<g id="node3" class="node">
<title>Node3</title>
<g id="a_node3"><a xlink:href="classirr_1_1core_1_1triangle3d.html#a860339e3646bf2f7cbb7e88be1cf0783" target="_top" xlink:title="Calculates the intersection between a 3d line and the plane the triangle is on.">
<polygon fill="white" stroke="black" points="387,-74.5 387,-104.5 564,-104.5 564,-74.5 387,-74.5"/>
<text text-anchor="start" x="395" y="-92.5" font-family="Helvetica,sans-Serif" font-size="10.00">irr::core::triangle3d</text>
<text text-anchor="middle" x="475.5" y="-81.5" font-family="Helvetica,sans-Serif" font-size="10.00">::getIntersectionOfPlaneWithLine</text>
</a>
</g>
</g>
<!-- Node2&#45;&gt;Node3 -->
<g id="edge2" class="edge">
<title>Node2&#45;&gt;Node3</title>
<path fill="none" stroke="midnightblue" d="M351,-73.42C359.36,-74.51 368.03,-75.64 376.71,-76.77"/>
<polygon fill="midnightblue" stroke="midnightblue" points="376.53,-80.27 386.89,-78.09 377.43,-73.33 376.53,-80.27"/>
</g>
<!-- Node7 -->
<g id="node7" class="node">
<title>Node7</title>
<g id="a_node7"><a xlink:href="classirr_1_1core_1_1triangle3d.html#abd425100f688516bdd701135cc980f18" target="_top" xlink:title="Check if a point is inside the triangle (border&#45;points count also as inside)">
<polygon fill="white" stroke="black" points="420.5,-25.5 420.5,-55.5 530.5,-55.5 530.5,-25.5 420.5,-25.5"/>
<text text-anchor="start" x="428.5" y="-43.5" font-family="Helvetica,sans-Serif" font-size="10.00">irr::core::triangle3d</text>
<text text-anchor="middle" x="475.5" y="-32.5" font-family="Helvetica,sans-Serif" font-size="10.00">::isPointInside</text>
</a>
</g>
</g>
<!-- Node2&#45;&gt;Node7 -->
<g id="edge6" class="edge">
<title>Node2&#45;&gt;Node7</title>
<path fill="none" stroke="midnightblue" d="M351,-55.94C370.27,-53.53 391.14,-50.92 410.15,-48.54"/>
<polygon fill="midnightblue" stroke="midnightblue" points="410.71,-52 420.2,-47.29 409.84,-45.06 410.71,-52"/>
</g>
<!-- Node4 -->
<g id="node4" class="node">
<title>Node4</title>
<g id="a_node4"><a xlink:href="classirr_1_1core_1_1vector3d.html#ae220d3f24173601c5957961382588394" target="_top" xlink:title="Get the dot product with another vector.">
<polygon fill="white" stroke="black" points="603.5,-123.5 603.5,-153.5 706.5,-153.5 706.5,-123.5 603.5,-123.5"/>
<text text-anchor="start" x="611.5" y="-141.5" font-family="Helvetica,sans-Serif" font-size="10.00">irr::core::vector3d</text>
<text text-anchor="middle" x="655" y="-130.5" font-family="Helvetica,sans-Serif" font-size="10.00">::dotProduct</text>
</a>
</g>
</g>
<!-- Node3&#45;&gt;Node4 -->
<g id="edge3" class="edge">
<title>Node3&#45;&gt;Node4</title>
<path fill="none" stroke="midnightblue" d="M531.2,-104.6C550.99,-110.06 573.43,-116.26 593.67,-121.85"/>
<polygon fill="midnightblue" stroke="midnightblue" points="592.84,-125.25 603.41,-124.53 594.7,-118.5 592.84,-125.25"/>
</g>
<!-- Node5 -->
<g id="node5" class="node">
<title>Node5</title>
<g id="a_node5"><a xlink:href="classirr_1_1core_1_1triangle3d.html#af894905e54d2c29bdb23f95f892604f1" target="_top" xlink:title="Get the normal of the triangle.">
<polygon fill="white" stroke="black" points="600,-74.5 600,-104.5 710,-104.5 710,-74.5 600,-74.5"/>
<text text-anchor="start" x="608" y="-92.5" font-family="Helvetica,sans-Serif" font-size="10.00">irr::core::triangle3d</text>
<text text-anchor="middle" x="655" y="-81.5" font-family="Helvetica,sans-Serif" font-size="10.00">::getNormal</text>
</a>
</g>
</g>
<!-- Node3&#45;&gt;Node5 -->
<g id="edge4" class="edge">
<title>Node3&#45;&gt;Node5</title>
<path fill="none" stroke="midnightblue" d="M564.21,-89.5C572.68,-89.5 581.17,-89.5 589.36,-89.5"/>
<polygon fill="midnightblue" stroke="midnightblue" points="589.56,-93 599.56,-89.5 589.56,-86 589.56,-93"/>
</g>
<!-- Node6 -->
<g id="node6" class="node">
<title>Node6</title>
<g id="a_node6"><a xlink:href="namespaceirr_1_1core.html#afc24e6ba26469ec7ca7001ed272dc3b2" target="_top" xlink:title="returns if a equals zero, taking rounding errors into account">
<polygon fill="white" stroke="black" points="610.5,-36 610.5,-55 699.5,-55 699.5,-36 610.5,-36"/>
<text text-anchor="middle" x="655" y="-43" font-family="Helvetica,sans-Serif" font-size="10.00">irr::core::iszero</text>
</a>
</g>
</g>
<!-- Node3&#45;&gt;Node6 -->
<g id="edge5" class="edge">
<title>Node3&#45;&gt;Node6</title>
<path fill="none" stroke="midnightblue" d="M537.09,-74.48C559.54,-68.91 584.68,-62.68 605.88,-57.43"/>
<polygon fill="midnightblue" stroke="midnightblue" points="606.76,-60.82 615.63,-55.01 605.08,-54.02 606.76,-60.82"/>
</g>
</g>
</svg>
