<?xml version="1.0" encoding="UTF-8" standalone="no"?>
<!DOCTYPE svg PUBLIC "-//W3C//DTD SVG 1.1//EN"
 "http://www.w3.org/Graphics/SVG/1.1/DTD/svg11.dtd">
<!-- Generated by graphviz version 2.43.0 (0)
 -->
<!-- Title: irr::video::SColor::operator+ Pages: 1 -->
<svg width="240pt" height="274pt"
 viewBox="0.00 0.00 240.00 274.00" xmlns="http://www.w3.org/2000/svg" xmlns:xlink="http://www.w3.org/1999/xlink">
<g id="graph0" class="graph" transform="scale(1 1) rotate(0) translate(4 270)">
<title>irr::video::SColor::operator+</title>
<polygon fill="white" stroke="transparent" points="-4,4 -4,-270 236,-270 236,4 -4,4"/>
<!-- Node1 -->
<g id="node1" class="node">
<title>Node1</title>
<g id="a_node1"><a xlink:title="Adds two colors, result is clamped to 0..255 values.">
<polygon fill="#bfbfbf" stroke="black" points="0,-112.5 0,-142.5 98,-142.5 98,-112.5 0,-112.5"/>
<text text-anchor="start" x="8" y="-130.5" font-family="Helvetica,sans-Serif" font-size="10.00">irr::video::SColor</text>
<text text-anchor="middle" x="49" y="-119.5" font-family="Helvetica,sans-Serif" font-size="10.00">::operator+</text>
</a>
</g>
</g>
<!-- Node2 -->
<g id="node2" class="node">
<title>Node2</title>
<g id="a_node2"><a xlink:href="classirr_1_1video_1_1SColor.html#a8b0bcff9036b06e3483978a84a924b91" target="_top" xlink:title="Returns the alpha component of the color.">
<polygon fill="white" stroke="black" points="134,-235.5 134,-265.5 232,-265.5 232,-235.5 134,-235.5"/>
<text text-anchor="start" x="142" y="-253.5" font-family="Helvetica,sans-Serif" font-size="10.00">irr::video::SColor</text>
<text text-anchor="middle" x="183" y="-242.5" font-family="Helvetica,sans-Serif" font-size="10.00">::getAlpha</text>
</a>
</g>
</g>
<!-- Node1&#45;&gt;Node2 -->
<g id="edge1" class="edge">
<title>Node1&#45;&gt;Node2</title>
<path fill="none" stroke="midnightblue" d="M59.85,-142.57C74.16,-163.54 102.44,-201.73 134,-226.5 135.57,-227.73 137.21,-228.92 138.9,-230.07"/>
<polygon fill="midnightblue" stroke="midnightblue" points="137.31,-233.2 147.65,-235.48 140.99,-227.25 137.31,-233.2"/>
</g>
<!-- Node3 -->
<g id="node3" class="node">
<title>Node3</title>
<g id="a_node3"><a xlink:href="classirr_1_1video_1_1SColor.html#afb60ac456b2efc2f2a4f04a643293d26" target="_top" xlink:title="Returns the blue component of the color.">
<polygon fill="white" stroke="black" points="134,-186.5 134,-216.5 232,-216.5 232,-186.5 134,-186.5"/>
<text text-anchor="start" x="142" y="-204.5" font-family="Helvetica,sans-Serif" font-size="10.00">irr::video::SColor</text>
<text text-anchor="middle" x="183" y="-193.5" font-family="Helvetica,sans-Serif" font-size="10.00">::getBlue</text>
</a>
</g>
</g>
<!-- Node1&#45;&gt;Node3 -->
<g id="edge2" class="edge">
<title>Node1&#45;&gt;Node3</title>
<path fill="none" stroke="midnightblue" d="M74.35,-142.64C90.98,-152.81 113.6,-166.35 134,-177.5 136.65,-178.95 139.4,-180.42 142.19,-181.88"/>
<polygon fill="midnightblue" stroke="midnightblue" points="140.61,-185 151.1,-186.47 143.81,-178.78 140.61,-185"/>
</g>
<!-- Node4 -->
<g id="node4" class="node">
<title>Node4</title>
<g id="a_node4"><a xlink:href="classirr_1_1video_1_1SColor.html#a198773366f2a5436c1ca4adc9037bb8d" target="_top" xlink:title="Returns the green component of the color.">
<polygon fill="white" stroke="black" points="134,-137.5 134,-167.5 232,-167.5 232,-137.5 134,-137.5"/>
<text text-anchor="start" x="142" y="-155.5" font-family="Helvetica,sans-Serif" font-size="10.00">irr::video::SColor</text>
<text text-anchor="middle" x="183" y="-144.5" font-family="Helvetica,sans-Serif" font-size="10.00">::getGreen</text>
</a>
</g>
</g>
<!-- Node1&#45;&gt;Node4 -->
<g id="edge3" class="edge">
<title>Node1&#45;&gt;Node4</title>
<path fill="none" stroke="midnightblue" d="M98.03,-136.6C106.4,-138.18 115.19,-139.85 123.8,-141.48"/>
<polygon fill="midnightblue" stroke="midnightblue" points="123.31,-144.95 133.79,-143.37 124.61,-138.07 123.31,-144.95"/>
</g>
<!-- Node5 -->
<g id="node5" class="node">
<title>Node5</title>
<g id="a_node5"><a xlink:href="classirr_1_1video_1_1SColor.html#a70d11ec2247581c79ee11e0e1b511978" target="_top" xlink:title="Returns the red component of the color.">
<polygon fill="white" stroke="black" points="134,-88.5 134,-118.5 232,-118.5 232,-88.5 134,-88.5"/>
<text text-anchor="start" x="142" y="-106.5" font-family="Helvetica,sans-Serif" font-size="10.00">irr::video::SColor</text>
<text text-anchor="middle" x="183" y="-95.5" font-family="Helvetica,sans-Serif" font-size="10.00">::getRed</text>
</a>
</g>
</g>
<!-- Node1&#45;&gt;Node5 -->
<g id="edge4" class="edge">
<title>Node1&#45;&gt;Node5</title>
<path fill="none" stroke="midnightblue" d="M98.03,-118.77C106.4,-117.25 115.19,-115.65 123.8,-114.08"/>
<polygon fill="midnightblue" stroke="midnightblue" points="124.57,-117.5 133.79,-112.27 123.32,-110.61 124.57,-117.5"/>
</g>
<!-- Node6 -->
<g id="node6" class="node">
<title>Node6</title>
<g id="a_node6"><a xlink:href="namespaceirr_1_1core.html#a9d34bfdbbe9c136b01ae04974572bc11" target="_top" xlink:title="returns minimum of two values. Own implementation to get rid of the STL (VS6 problems)">
<polygon fill="white" stroke="black" points="141,-50 141,-69 225,-69 225,-50 141,-50"/>
<text text-anchor="middle" x="183" y="-57" font-family="Helvetica,sans-Serif" font-size="10.00">irr::core::min_</text>
</a>
</g>
</g>
<!-- Node1&#45;&gt;Node6 -->
<g id="edge5" class="edge">
<title>Node1&#45;&gt;Node6</title>
<path fill="none" stroke="midnightblue" d="M74.55,-112.39C91.07,-102.5 113.5,-89.58 134,-79.5 138.43,-77.32 143.15,-75.17 147.84,-73.12"/>
<polygon fill="midnightblue" stroke="midnightblue" points="149.48,-76.22 157.32,-69.1 146.75,-69.78 149.48,-76.22"/>
</g>
<!-- Node7 -->
<g id="node7" class="node">
<title>Node7</title>
<g id="a_node7"><a xlink:href="classirr_1_1video_1_1SColor.html#ab001c0c2515ff5f8a0b324d1345485f4" target="_top" xlink:title="Constructor of the Color. Does nothing.">
<polygon fill="white" stroke="black" points="134,-0.5 134,-30.5 232,-30.5 232,-0.5 134,-0.5"/>
<text text-anchor="start" x="142" y="-18.5" font-family="Helvetica,sans-Serif" font-size="10.00">irr::video::SColor</text>
<text text-anchor="middle" x="183" y="-7.5" font-family="Helvetica,sans-Serif" font-size="10.00">::SColor</text>
</a>
</g>
</g>
<!-- Node1&#45;&gt;Node7 -->
<g id="edge6" class="edge">
<title>Node1&#45;&gt;Node7</title>
<path fill="none" stroke="midnightblue" d="M62.12,-112.2C77.42,-93.59 105.24,-61.99 134,-40.5 136.11,-38.93 138.33,-37.4 140.61,-35.92"/>
<polygon fill="midnightblue" stroke="midnightblue" points="142.85,-38.66 149.63,-30.52 139.25,-32.66 142.85,-38.66"/>
</g>
</g>
</svg>
