<?xml version="1.0" encoding="UTF-8" standalone="no"?>
<!DOCTYPE svg PUBLIC "-//W3C//DTD SVG 1.1//EN"
 "http://www.w3.org/Graphics/SVG/1.1/DTD/svg11.dtd">
<!-- Generated by graphviz version 2.43.0 (0)
 -->
<!-- Title: ScopeProfiler Pages: 1 -->
<!--zoomable 173 -->
<svg id="main" version="1.1" xmlns="http://www.w3.org/2000/svg" xmlns:xlink="http://www.w3.org/1999/xlink" xml:space="preserve" onload="init(evt)">
<style type="text/css"><![CDATA[
.edge:hover path { stroke: red; }
.edge:hover polygon { stroke: red; fill: red; }
]]></style>
<script type="text/javascript"><![CDATA[
var edges = document.getElementsByTagName('g');
if (edges && edges.length) {
  for (var i=0;i<edges.length;i++) {
    if (edges[i].id.substr(0,4)=='edge') {
      edges[i].setAttribute('class','edge');
    }
  }
}
]]></script>
        <defs>
                <circle id="rim" cx="0" cy="0" r="7"/>
                <circle id="rim2" cx="0" cy="0" r="3.5"/>
                <g id="zoomPlus">
                        <use xlink:href="#rim" fill="#404040">
                                <set attributeName="fill" to="#808080" begin="zoomplus.mouseover" end="zoomplus.mouseout"/>
                        </use>
                        <path d="M-4,0h8M0,-4v8" fill="none" stroke="white" stroke-width="1.5" pointer-events="none"/>
                </g>
                <g id="zoomMin">
                        <use xlink:href="#rim" fill="#404040">
                                <set attributeName="fill" to="#808080" begin="zoomminus.mouseover" end="zoomminus.mouseout"/>
                        </use>
                        <path d="M-4,0h8" fill="none" stroke="white" stroke-width="1.5" pointer-events="none"/>
                </g>
                <g id="dirArrow">
                        <path fill="none" stroke="white" stroke-width="1.5" d="M0,-3.0v7 M-2.5,-0.5L0,-3.0L2.5,-0.5"/>
                </g>
               <g id="resetDef">
                       <use xlink:href="#rim2" fill="#404040">
                               <set attributeName="fill" to="#808080" begin="reset.mouseover" end="reset.mouseout"/>
                       </use>
               </g>
        </defs>

<script type="text/javascript">
var viewWidth = 766;
var viewHeight = 173;
var sectionId = 'dynsection-0';
</script>
<script xlink:href="svgpan.js"/>
<svg id="graph" class="graph">
<g id="viewport">
<title>ScopeProfiler</title>
<polygon fill="white" stroke="transparent" points="-4,4 -4,-169 762,-169 762,4 -4,4"/>
<!-- Node1 -->
<g id="node1" class="node">
<title>Node1</title>
<g id="a_node1"><a xlink:title=" ">
<polygon fill="#bfbfbf" stroke="black" points="229,-0.5 229,-19.5 309,-19.5 309,-0.5 229,-0.5"/>
<text text-anchor="middle" x="269" y="-7.5" font-family="Helvetica,sans-Serif" font-size="10.00">ScopeProfiler</text>
</a>
</g>
</g>
<!-- Node2 -->
<g id="node2" class="node">
<title>Node2</title>
<g id="a_node2"><a xlink:href="classTimeTaker.html" target="_top" xlink:title=" ">
<polygon fill="white" stroke="black" points="151.5,-67.5 151.5,-86.5 218.5,-86.5 218.5,-67.5 151.5,-67.5"/>
<text text-anchor="middle" x="185" y="-74.5" font-family="Helvetica,sans-Serif" font-size="10.00">TimeTaker</text>
</a>
</g>
</g>
<!-- Node2&#45;&gt;Node1 -->
<g id="edge1" class="edge">
<title>Node2&#45;&gt;Node1</title>
<path fill="none" stroke="#9a32cd" stroke-dasharray="5,2" d="M204.3,-61.07C220.88,-48.24 244.21,-30.19 257.85,-19.63"/>
<polygon fill="#9a32cd" stroke="#9a32cd" points="202.1,-58.35 196.33,-67.23 206.38,-63.88 202.1,-58.35"/>
<text text-anchor="middle" x="254.5" y="-41" font-family="Helvetica,sans-Serif" font-size="10.00"> m_timer</text>
</g>
<!-- Node3 -->
<g id="node3" class="node">
<title>Node3</title>
<g id="a_node3"><a xlink:title=" ">
<polygon fill="white" stroke="#bfbfbf" points="214,-145.5 214,-164.5 300,-164.5 300,-145.5 214,-145.5"/>
<text text-anchor="middle" x="257" y="-152.5" font-family="Helvetica,sans-Serif" font-size="10.00">TimePrecision</text>
</a>
</g>
</g>
<!-- Node3&#45;&gt;Node2 -->
<g id="edge2" class="edge">
<title>Node3&#45;&gt;Node2</title>
<path fill="none" stroke="#9a32cd" stroke-dasharray="5,2" d="M250.36,-136.1C245.99,-126.09 239.5,-113.88 231,-105 223.7,-97.38 213.78,-91.19 205.02,-86.67"/>
<polygon fill="#9a32cd" stroke="#9a32cd" points="247.16,-137.53 254.14,-145.5 253.66,-134.91 247.16,-137.53"/>
<text text-anchor="middle" x="276.5" y="-113.5" font-family="Helvetica,sans-Serif" font-size="10.00"> m_precision</text>
</g>
<!-- Node4 -->
<g id="node4" class="node">
<title>Node4</title>
<g id="a_node4"><a xlink:title=" ">
<polygon fill="white" stroke="#bfbfbf" points="152.5,-145.5 152.5,-164.5 195.5,-164.5 195.5,-145.5 152.5,-145.5"/>
<text text-anchor="middle" x="174" y="-152.5" font-family="Helvetica,sans-Serif" font-size="10.00">u64 *</text>
</a>
</g>
</g>
<!-- Node4&#45;&gt;Node2 -->
<g id="edge3" class="edge">
<title>Node4&#45;&gt;Node2</title>
<path fill="none" stroke="#9a32cd" stroke-dasharray="5,2" d="M176.72,-135.22C178.96,-119.7 182.05,-98.36 183.75,-86.62"/>
<polygon fill="#9a32cd" stroke="#9a32cd" points="173.23,-134.88 175.26,-145.28 180.16,-135.89 173.23,-134.88"/>
<text text-anchor="middle" x="204" y="-113.5" font-family="Helvetica,sans-Serif" font-size="10.00"> m_result</text>
</g>
<!-- Node5 -->
<g id="node5" class="node">
<title>Node5</title>
<g id="a_node5"><a xlink:href="classbool.html" target="_top" xlink:title=" ">
<polygon fill="white" stroke="black" points="88,-145.5 88,-164.5 126,-164.5 126,-145.5 88,-145.5"/>
<text text-anchor="middle" x="107" y="-152.5" font-family="Helvetica,sans-Serif" font-size="10.00">bool</text>
</a>
</g>
</g>
<!-- Node5&#45;&gt;Node2 -->
<g id="edge4" class="edge">
<title>Node5&#45;&gt;Node2</title>
<path fill="none" stroke="#9a32cd" stroke-dasharray="5,2" d="M108.04,-135.14C109.49,-125.15 112.76,-113.28 120,-105 128.12,-95.71 139.95,-89.54 151.3,-85.49"/>
<polygon fill="#9a32cd" stroke="#9a32cd" points="104.54,-135.03 107.06,-145.32 111.5,-135.7 104.54,-135.03"/>
<text text-anchor="middle" x="147.5" y="-113.5" font-family="Helvetica,sans-Serif" font-size="10.00"> m_running</text>
</g>
<!-- Node6 -->
<g id="node6" class="node">
<title>Node6</title>
<g id="a_node6"><a xlink:title=" ">
<polygon fill="white" stroke="#bfbfbf" points="0,-145.5 0,-164.5 44,-164.5 44,-145.5 0,-145.5"/>
<text text-anchor="middle" x="22" y="-152.5" font-family="Helvetica,sans-Serif" font-size="10.00">string</text>
</a>
</g>
</g>
<!-- Node6&#45;&gt;Node1 -->
<g id="edge7" class="edge">
<title>Node6&#45;&gt;Node1</title>
<path fill="none" stroke="#9a32cd" stroke-dasharray="5,2" d="M23.65,-135.24C25.29,-125.46 28.54,-113.74 35,-105 80.93,-42.86 174.76,-21.72 228.6,-14.59"/>
<polygon fill="#9a32cd" stroke="#9a32cd" points="20.17,-134.84 22.4,-145.2 27.12,-135.71 20.17,-134.84"/>
<text text-anchor="middle" x="96" y="-74.5" font-family="Helvetica,sans-Serif" font-size="10.00"> m_name</text>
</g>
<!-- Node6&#45;&gt;Node2 -->
<g id="edge5" class="edge">
<title>Node6&#45;&gt;Node2</title>
<path fill="none" stroke="#9a32cd" stroke-dasharray="5,2" d="M31.46,-136.27C38.07,-125.6 47.86,-112.64 60,-105 87.62,-87.61 124.73,-81.29 151.33,-79.06"/>
<polygon fill="#9a32cd" stroke="#9a32cd" points="28.27,-134.8 26.32,-145.21 34.34,-138.29 28.27,-134.8"/>
<text text-anchor="middle" x="83" y="-113.5" font-family="Helvetica,sans-Serif" font-size="10.00"> m_name</text>
</g>
<!-- Node7 -->
<g id="node7" class="node">
<title>Node7</title>
<g id="a_node7"><a xlink:title=" ">
<polygon fill="white" stroke="#bfbfbf" points="338.5,-145.5 338.5,-164.5 373.5,-164.5 373.5,-145.5 338.5,-145.5"/>
<text text-anchor="middle" x="356" y="-152.5" font-family="Helvetica,sans-Serif" font-size="10.00">u64</text>
</a>
</g>
</g>
<!-- Node7&#45;&gt;Node2 -->
<g id="edge6" class="edge">
<title>Node7&#45;&gt;Node2</title>
<path fill="none" stroke="#9a32cd" stroke-dasharray="5,2" d="M343,-137.43C332.86,-124.92 319.32,-109.23 312,-105 311.48,-104.7 255.98,-92.96 218.52,-85.06"/>
<polygon fill="#9a32cd" stroke="#9a32cd" points="340.38,-139.76 349.35,-145.39 345.85,-135.39 340.38,-139.76"/>
<text text-anchor="middle" x="357.5" y="-113.5" font-family="Helvetica,sans-Serif" font-size="10.00"> m_time1</text>
</g>
<!-- Node9 -->
<g id="node9" class="node">
<title>Node9</title>
<g id="a_node9"><a xlink:href="classProfiler.html" target="_top" xlink:title=" ">
<polygon fill="white" stroke="black" points="476.5,-67.5 476.5,-86.5 527.5,-86.5 527.5,-67.5 476.5,-67.5"/>
<text text-anchor="middle" x="502" y="-74.5" font-family="Helvetica,sans-Serif" font-size="10.00">Profiler</text>
</a>
</g>
</g>
<!-- Node7&#45;&gt;Node9 -->
<g id="edge12" class="edge">
<title>Node7&#45;&gt;Node9</title>
<path fill="none" stroke="#9a32cd" stroke-dasharray="5,2" d="M374.12,-138.82C378.67,-134.98 383.53,-130.86 388,-127 399.21,-117.34 400.07,-112.2 413,-105 432.89,-93.92 457.87,-86.86 476.3,-82.74"/>
<polygon fill="#9a32cd" stroke="#9a32cd" points="371.82,-136.18 366.42,-145.3 376.33,-141.54 371.82,-136.18"/>
<text text-anchor="middle" x="447.5" y="-113.5" font-family="Helvetica,sans-Serif" font-size="10.00"> m_start_time</text>
</g>
<!-- Node8 -->
<g id="node8" class="node">
<title>Node8</title>
<g id="a_node8"><a xlink:title=" ">
<polygon fill="white" stroke="#bfbfbf" points="237,-67.5 237,-86.5 371,-86.5 371,-67.5 237,-67.5"/>
<text text-anchor="middle" x="304" y="-74.5" font-family="Helvetica,sans-Serif" font-size="10.00">enum ScopeProfilerType</text>
</a>
</g>
</g>
<!-- Node8&#45;&gt;Node1 -->
<g id="edge8" class="edge">
<title>Node8&#45;&gt;Node1</title>
<path fill="none" stroke="#9a32cd" stroke-dasharray="5,2" d="M294.4,-58.16C287.65,-45.63 278.91,-29.41 273.65,-19.63"/>
<polygon fill="#9a32cd" stroke="#9a32cd" points="291.46,-60.09 299.28,-67.23 297.62,-56.77 291.46,-60.09"/>
<text text-anchor="middle" x="308" y="-41" font-family="Helvetica,sans-Serif" font-size="10.00"> m_type</text>
</g>
<!-- Node9&#45;&gt;Node1 -->
<g id="edge9" class="edge">
<title>Node9&#45;&gt;Node1</title>
<path fill="none" stroke="#9a32cd" stroke-dasharray="5,2" d="M466.43,-66.08C420.91,-53.38 342.8,-31.59 299.73,-19.57"/>
<polygon fill="#9a32cd" stroke="#9a32cd" points="465.6,-69.48 476.17,-68.8 467.48,-62.74 465.6,-69.48"/>
<text text-anchor="middle" x="425.5" y="-41" font-family="Helvetica,sans-Serif" font-size="10.00"> m_profiler</text>
</g>
<!-- Node10 -->
<g id="node10" class="node">
<title>Node10</title>
<g id="a_node10"><a xlink:title=" ">
<polygon fill="white" stroke="#bfbfbf" points="564,-145.5 564,-164.5 692,-164.5 692,-145.5 564,-145.5"/>
<text text-anchor="middle" x="628" y="-152.5" font-family="Helvetica,sans-Serif" font-size="10.00">map&lt; std::string, int &gt;</text>
</a>
</g>
</g>
<!-- Node10&#45;&gt;Node9 -->
<g id="edge10" class="edge">
<title>Node10&#45;&gt;Node9</title>
<path fill="none" stroke="#9a32cd" stroke-dasharray="5,2" d="M613.79,-137.91C603.8,-127.39 589.64,-113.98 575,-105 560.37,-96.03 542.29,-89.31 527.78,-84.82"/>
<polygon fill="#9a32cd" stroke="#9a32cd" points="611.22,-140.28 620.56,-145.28 616.37,-135.55 611.22,-140.28"/>
<text text-anchor="middle" x="636.5" y="-113.5" font-family="Helvetica,sans-Serif" font-size="10.00"> m_avgcounts</text>
</g>
<!-- Node11 -->
<g id="node11" class="node">
<title>Node11</title>
<g id="a_node11"><a xlink:title=" ">
<polygon fill="white" stroke="#bfbfbf" points="710,-145.5 710,-164.5 758,-164.5 758,-145.5 710,-145.5"/>
<text text-anchor="middle" x="734" y="-152.5" font-family="Helvetica,sans-Serif" font-size="10.00">mutex</text>
</a>
</g>
</g>
<!-- Node11&#45;&gt;Node9 -->
<g id="edge11" class="edge">
<title>Node11&#45;&gt;Node9</title>
<path fill="none" stroke="#9a32cd" stroke-dasharray="5,2" d="M719.49,-138.04C708.42,-126.93 692.19,-112.76 675,-105 626.1,-82.93 562.39,-78.46 527.54,-77.81"/>
<polygon fill="#9a32cd" stroke="#9a32cd" points="717.13,-140.65 726.57,-145.46 722.19,-135.81 717.13,-140.65"/>
<text text-anchor="middle" x="732" y="-113.5" font-family="Helvetica,sans-Serif" font-size="10.00"> m_mutex</text>
</g>
<!-- Node12 -->
<g id="node12" class="node">
<title>Node12</title>
<g id="a_node12"><a xlink:title=" ">
<polygon fill="white" stroke="#bfbfbf" points="408.5,-145.5 408.5,-164.5 545.5,-164.5 545.5,-145.5 408.5,-145.5"/>
<text text-anchor="middle" x="477" y="-152.5" font-family="Helvetica,sans-Serif" font-size="10.00">map&lt; std::string, float &gt;</text>
</a>
</g>
</g>
<!-- Node12&#45;&gt;Node9 -->
<g id="edge13" class="edge">
<title>Node12&#45;&gt;Node9</title>
<path fill="none" stroke="#9a32cd" stroke-dasharray="5,2" d="M483.03,-135.67C488.15,-120.11 495.27,-98.47 499.17,-86.62"/>
<polygon fill="#9a32cd" stroke="#9a32cd" points="479.67,-134.69 479.87,-145.28 486.32,-136.88 479.67,-134.69"/>
<text text-anchor="middle" x="531.5" y="-119" font-family="Helvetica,sans-Serif" font-size="10.00"> m_graphvalues</text>
<text text-anchor="middle" x="531.5" y="-108" font-family="Helvetica,sans-Serif" font-size="10.00">m_data</text>
</g>
</g>
</svg>
        <g id="navigator" transform="translate(0 0)" fill="#404254">
                <rect fill="#f2f5e9" fill-opacity="0.5" stroke="#606060" stroke-width=".5" x="0" y="0" width="60" height="60"/>
                <use id="zoomplus" xlink:href="#zoomPlus" x="17" y="9" onmousedown="handleZoom(evt,'in')"/>
                <use id="zoomminus" xlink:href="#zoomMin" x="42" y="9" onmousedown="handleZoom(evt,'out')"/>
                <use id="reset" xlink:href="#resetDef" x="30" y="36" onmousedown="handleReset()"/>
                <g id="arrowUp" xlink:href="#dirArrow" transform="translate(30 24)" onmousedown="handlePan(0,-1)">
                  <use xlink:href="#rim" fill="#404040">
                        <set attributeName="fill" to="#808080" begin="arrowUp.mouseover" end="arrowUp.mouseout"/>
                  </use>
                  <path fill="none" stroke="white" stroke-width="1.5" d="M0,-3.0v7 M-2.5,-0.5L0,-3.0L2.5,-0.5"/>
                </g>
                <g id="arrowRight" xlink:href="#dirArrow" transform="rotate(90) translate(36 -43)" onmousedown="handlePan(1,0)">
                  <use xlink:href="#rim" fill="#404040">
                        <set attributeName="fill" to="#808080" begin="arrowRight.mouseover" end="arrowRight.mouseout"/>
                  </use>
                  <path fill="none" stroke="white" stroke-width="1.5" d="M0,-3.0v7 M-2.5,-0.5L0,-3.0L2.5,-0.5"/>
                </g>
                <g id="arrowDown" xlink:href="#dirArrow" transform="rotate(180) translate(-30 -48)" onmousedown="handlePan(0,1)">
                  <use xlink:href="#rim" fill="#404040">
                        <set attributeName="fill" to="#808080" begin="arrowDown.mouseover" end="arrowDown.mouseout"/>
                  </use>
                  <path fill="none" stroke="white" stroke-width="1.5" d="M0,-3.0v7 M-2.5,-0.5L0,-3.0L2.5,-0.5"/>
                </g>
                <g id="arrowLeft" xlink:href="#dirArrow" transform="rotate(270) translate(-36 17)" onmousedown="handlePan(-1,0)">
                  <use xlink:href="#rim" fill="#404040">
                        <set attributeName="fill" to="#808080" begin="arrowLeft.mouseover" end="arrowLeft.mouseout"/>
                  </use>
                  <path fill="none" stroke="white" stroke-width="1.5" d="M0,-3.0v7 M-2.5,-0.5L0,-3.0L2.5,-0.5"/>
                </g>
        </g>
        <svg viewBox="0 0 15 15" width="100%" height="30px" preserveAspectRatio="xMaxYMin meet">
         <g id="arrow_out" transform="scale(0.3 0.3)">
          <a xlink:href="classScopeProfiler__coll__graph_org.svg" target="_base">
           <rect id="button" ry="5" rx="5" y="6" x="6" height="38" width="38"
                fill="#f2f5e9" fill-opacity="0.5" stroke="#606060" stroke-width="1.0"/>
           <path id="arrow"
             d="M 11.500037,31.436501 C 11.940474,20.09759 22.043105,11.32322 32.158766,21.979434 L 37.068811,17.246167 C 37.068811,17.246167 37.088388,32 37.088388,32 L 22.160133,31.978069 C 22.160133,31.978069 26.997745,27.140456 26.997745,27.140456 C 18.528582,18.264221 13.291696,25.230495 11.500037,31.436501 z"
             style="fill:#404040;"/>
          </a>
         </g>
        </svg>
</svg>
