<?xml version="1.0" encoding="UTF-8" standalone="no"?>
<!DOCTYPE svg PUBLIC "-//W3C//DTD SVG 1.1//EN"
 "http://www.w3.org/Graphics/SVG/1.1/DTD/svg11.dtd">
<!-- Generated by graphviz version 2.43.0 (0)
 -->
<!-- Title: MapEditEventAreaIgnorer Pages: 1 -->
<svg width="229pt" height="373pt"
 viewBox="0.00 0.00 229.00 373.00" xmlns="http://www.w3.org/2000/svg" xmlns:xlink="http://www.w3.org/1999/xlink">
<g id="graph0" class="graph" transform="scale(1 1) rotate(0) translate(4 369)">
<title>MapEditEventAreaIgnorer</title>
<polygon fill="white" stroke="transparent" points="-4,4 -4,-369 225,-369 225,4 -4,4"/>
<!-- Node1 -->
<g id="node1" class="node">
<title>Node1</title>
<g id="a_node1"><a xlink:title=" ">
<polygon fill="#bfbfbf" stroke="black" points="0,-0.5 0,-19.5 141,-19.5 141,-0.5 0,-0.5"/>
<text text-anchor="middle" x="70.5" y="-7.5" font-family="Helvetica,sans-Serif" font-size="10.00">MapEditEventAreaIgnorer</text>
</a>
</g>
</g>
<!-- Node2 -->
<g id="node2" class="node">
<title>Node2</title>
<g id="a_node2"><a xlink:href="classVoxelArea.html" target="_top" xlink:title=" ">
<polygon fill="white" stroke="black" points="38,-67.5 38,-86.5 103,-86.5 103,-67.5 38,-67.5"/>
<text text-anchor="middle" x="70.5" y="-74.5" font-family="Helvetica,sans-Serif" font-size="10.00">VoxelArea</text>
</a>
</g>
</g>
<!-- Node2&#45;&gt;Node1 -->
<g id="edge1" class="edge">
<title>Node2&#45;&gt;Node1</title>
<path fill="none" stroke="#9a32cd" stroke-dasharray="5,2" d="M70.5,-57.04C70.5,-44.67 70.5,-29.12 70.5,-19.63"/>
<polygon fill="#9a32cd" stroke="#9a32cd" points="67,-57.23 70.5,-67.23 74,-57.23 67,-57.23"/>
<text text-anchor="middle" x="115" y="-41" font-family="Helvetica,sans-Serif" font-size="10.00"> m_ignorevariable</text>
</g>
<!-- Node3 -->
<g id="node3" class="node">
<title>Node3</title>
<g id="a_node3"><a xlink:href="classirr_1_1core_1_1vector3d.html" target="_top" xlink:title=" ">
<polygon fill="white" stroke="black" points="19,-156.5 19,-186.5 122,-186.5 122,-156.5 19,-156.5"/>
<text text-anchor="start" x="27" y="-174.5" font-family="Helvetica,sans-Serif" font-size="10.00">irr::core::vector3d</text>
<text text-anchor="middle" x="70.5" y="-163.5" font-family="Helvetica,sans-Serif" font-size="10.00">&lt; s16 &gt;</text>
</a>
</g>
</g>
<!-- Node3&#45;&gt;Node2 -->
<g id="edge2" class="edge">
<title>Node3&#45;&gt;Node2</title>
<path fill="none" stroke="#9a32cd" stroke-dasharray="5,2" d="M70.5,-146.38C70.5,-126.74 70.5,-100.12 70.5,-86.62"/>
<polygon fill="#9a32cd" stroke="#9a32cd" points="67,-146.45 70.5,-156.45 74,-146.45 67,-146.45"/>
<text text-anchor="middle" x="111" y="-130" font-family="Helvetica,sans-Serif" font-size="10.00"> MinEdge</text>
<text text-anchor="middle" x="111" y="-119" font-family="Helvetica,sans-Serif" font-size="10.00">MaxEdge</text>
<text text-anchor="middle" x="111" y="-108" font-family="Helvetica,sans-Serif" font-size="10.00">m_cache_extent</text>
</g>
<!-- Node4 -->
<g id="node4" class="node">
<title>Node4</title>
<g id="a_node4"><a xlink:title=" ">
<polygon fill="white" stroke="#bfbfbf" points="37.5,-256.5 37.5,-275.5 71.5,-275.5 71.5,-256.5 37.5,-256.5"/>
<text text-anchor="middle" x="54.5" y="-263.5" font-family="Helvetica,sans-Serif" font-size="10.00">s16</text>
</a>
</g>
</g>
<!-- Node4&#45;&gt;Node3 -->
<g id="edge3" class="edge">
<title>Node4&#45;&gt;Node3</title>
<path fill="none" stroke="#9a32cd" stroke-dasharray="5,2" d="M57.69,-246.54C60.74,-228.92 65.27,-202.75 68.04,-186.7"/>
<polygon fill="#9a32cd" stroke="#9a32cd" points="54.23,-246.01 55.98,-256.46 61.13,-247.21 54.23,-246.01"/>
<text text-anchor="middle" x="70.5" y="-230" font-family="Helvetica,sans-Serif" font-size="10.00"> X</text>
<text text-anchor="middle" x="70.5" y="-219" font-family="Helvetica,sans-Serif" font-size="10.00">Y</text>
<text text-anchor="middle" x="70.5" y="-208" font-family="Helvetica,sans-Serif" font-size="10.00">Z</text>
</g>
<!-- Node5 -->
<g id="node5" class="node">
<title>Node5</title>
<g id="a_node5"><a xlink:href="classirr_1_1core_1_1vector3d.html" target="_top" xlink:title="3d vector template class with lots of operators and methods.">
<polygon fill="white" stroke="black" points="90,-256.5 90,-275.5 221,-275.5 221,-256.5 90,-256.5"/>
<text text-anchor="middle" x="155.5" y="-263.5" font-family="Helvetica,sans-Serif" font-size="10.00">irr::core::vector3d&lt; T &gt;</text>
</a>
</g>
</g>
<!-- Node5&#45;&gt;Node3 -->
<g id="edge4" class="edge">
<title>Node5&#45;&gt;Node3</title>
<path fill="none" stroke="orange" stroke-dasharray="5,2" d="M140.56,-248.74C124.41,-231.17 98.92,-203.43 83.55,-186.7"/>
<polygon fill="orange" stroke="orange" points="138.31,-251.47 147.66,-256.46 143.47,-246.73 138.31,-251.47"/>
<text text-anchor="middle" x="151" y="-219" font-family="Helvetica,sans-Serif" font-size="10.00"> &lt; s16 &gt;</text>
</g>
<!-- Node6 -->
<g id="node6" class="node">
<title>Node6</title>
<g id="a_node6"><a xlink:title=" ">
<polygon fill="white" stroke="#bfbfbf" points="141,-345.5 141,-364.5 170,-364.5 170,-345.5 141,-345.5"/>
<text text-anchor="middle" x="155.5" y="-352.5" font-family="Helvetica,sans-Serif" font-size="10.00">T</text>
</a>
</g>
</g>
<!-- Node6&#45;&gt;Node5 -->
<g id="edge5" class="edge">
<title>Node6&#45;&gt;Node5</title>
<path fill="none" stroke="#9a32cd" stroke-dasharray="5,2" d="M155.5,-335.19C155.5,-316.74 155.5,-289.41 155.5,-275.62"/>
<polygon fill="#9a32cd" stroke="#9a32cd" points="152,-335.34 155.5,-345.34 159,-335.34 152,-335.34"/>
<text text-anchor="middle" x="160.5" y="-319" font-family="Helvetica,sans-Serif" font-size="10.00"> X</text>
<text text-anchor="middle" x="160.5" y="-308" font-family="Helvetica,sans-Serif" font-size="10.00">Y</text>
<text text-anchor="middle" x="160.5" y="-297" font-family="Helvetica,sans-Serif" font-size="10.00">Z</text>
</g>
</g>
</svg>
