<?xml version="1.0" encoding="UTF-8" standalone="no"?>
<!DOCTYPE svg PUBLIC "-//W3C//DTD SVG 1.1//EN"
 "http://www.w3.org/Graphics/SVG/1.1/DTD/svg11.dtd">
<!-- Generated by graphviz version 2.43.0 (0)
 -->
<!-- Title: irr::core::ustring16::_ustring16_iterator_access::operator++ Pages: 1 -->
<svg width="562pt" height="235pt"
 viewBox="0.00 0.00 562.00 235.00" xmlns="http://www.w3.org/2000/svg" xmlns:xlink="http://www.w3.org/1999/xlink">
<g id="graph0" class="graph" transform="scale(1 1) rotate(0) translate(4 231)">
<title>irr::core::ustring16::_ustring16_iterator_access::operator++</title>
<polygon fill="white" stroke="transparent" points="-4,4 -4,-231 558,-231 558,4 -4,4"/>
<!-- Node1 -->
<g id="node1" class="node">
<title>Node1</title>
<g id="a_node1"><a xlink:title=" ">
<polygon fill="#bfbfbf" stroke="black" points="0,-123 0,-164 119,-164 119,-123 0,-123"/>
<text text-anchor="start" x="8" y="-152" font-family="Helvetica,sans-Serif" font-size="10.00">irr::core::ustring16</text>
<text text-anchor="start" x="8" y="-141" font-family="Helvetica,sans-Serif" font-size="10.00">::_ustring16_iterator</text>
<text text-anchor="middle" x="59.5" y="-130" font-family="Helvetica,sans-Serif" font-size="10.00">_access::operator++</text>
</a>
</g>
</g>
<!-- Node2 -->
<g id="node2" class="node">
<title>Node2</title>
<g id="a_node2"><a xlink:href="classirr_1_1core_1_1ustring16_1_1__ustring16__iterator__access.html#a8abd96541b8f98618ad51d7c6e3c5793" target="_top" xlink:title="Gets a uchar32_t from our current position.">
<polygon fill="white" stroke="black" points="155,-153 155,-194 270,-194 270,-153 155,-153"/>
<text text-anchor="start" x="163" y="-182" font-family="Helvetica,sans-Serif" font-size="10.00">irr::core::ustring16</text>
<text text-anchor="start" x="163" y="-171" font-family="Helvetica,sans-Serif" font-size="10.00">::_ustring16_iterator</text>
<text text-anchor="middle" x="212.5" y="-160" font-family="Helvetica,sans-Serif" font-size="10.00">_access::_get</text>
</a>
</g>
</g>
<!-- Node1&#45;&gt;Node2 -->
<g id="edge1" class="edge">
<title>Node1&#45;&gt;Node2</title>
<path fill="none" stroke="midnightblue" d="M119.31,-155.18C127.65,-156.84 136.26,-158.55 144.73,-160.24"/>
<polygon fill="midnightblue" stroke="midnightblue" points="144.09,-163.68 154.58,-162.19 145.46,-156.81 144.09,-163.68"/>
</g>
<!-- Node5 -->
<g id="node5" class="node">
<title>Node5</title>
<g id="a_node5"><a xlink:href="classirr_1_1core_1_1ustring16_1_1__ustring16__iterator__access.html#a8d449f31ee969aac24d5ab77bd95ff8e" target="_top" xlink:title="Sets a uchar32_t at our current position.">
<polygon fill="white" stroke="black" points="155,-93 155,-134 270,-134 270,-93 155,-93"/>
<text text-anchor="start" x="163" y="-122" font-family="Helvetica,sans-Serif" font-size="10.00">irr::core::ustring16</text>
<text text-anchor="start" x="163" y="-111" font-family="Helvetica,sans-Serif" font-size="10.00">::_ustring16_iterator</text>
<text text-anchor="middle" x="212.5" y="-100" font-family="Helvetica,sans-Serif" font-size="10.00">_access::_set</text>
</a>
</g>
</g>
<!-- Node1&#45;&gt;Node5 -->
<g id="edge4" class="edge">
<title>Node1&#45;&gt;Node5</title>
<path fill="none" stroke="midnightblue" d="M119.31,-131.82C127.65,-130.16 136.26,-128.45 144.73,-126.76"/>
<polygon fill="midnightblue" stroke="midnightblue" points="145.46,-130.19 154.58,-124.81 144.09,-123.32 145.46,-130.19"/>
</g>
<!-- Node3 -->
<g id="node3" class="node">
<title>Node3</title>
<g id="a_node3"><a xlink:href="classirr_1_1core_1_1ustring16.html#a13d082695b759bb889795470890ab5be" target="_top" xlink:title=" ">
<polygon fill="white" stroke="black" points="306,-147.5 306,-177.5 412,-177.5 412,-147.5 306,-147.5"/>
<text text-anchor="start" x="314" y="-165.5" font-family="Helvetica,sans-Serif" font-size="10.00">irr::core::ustring16</text>
<text text-anchor="middle" x="359" y="-154.5" font-family="Helvetica,sans-Serif" font-size="10.00">::c_str</text>
</a>
</g>
</g>
<!-- Node2&#45;&gt;Node3 -->
<g id="edge2" class="edge">
<title>Node2&#45;&gt;Node3</title>
<path fill="none" stroke="midnightblue" d="M270.2,-169.18C278.51,-168.55 287.12,-167.9 295.55,-167.25"/>
<polygon fill="midnightblue" stroke="midnightblue" points="296,-170.73 305.71,-166.48 295.47,-163.75 296,-170.73"/>
</g>
<!-- Node4 -->
<g id="node4" class="node">
<title>Node4</title>
<g id="a_node4"><a xlink:href="classirr_1_1core_1_1ustring16.html#a6ccdb1699994dcf50ff8f3db0cfb2686" target="_top" xlink:title=" ">
<polygon fill="white" stroke="black" points="306,-196.5 306,-226.5 412,-226.5 412,-196.5 306,-196.5"/>
<text text-anchor="start" x="314" y="-214.5" font-family="Helvetica,sans-Serif" font-size="10.00">irr::core::ustring16</text>
<text text-anchor="middle" x="359" y="-203.5" font-family="Helvetica,sans-Serif" font-size="10.00">::size_raw</text>
</a>
</g>
</g>
<!-- Node2&#45;&gt;Node4 -->
<g id="edge3" class="edge">
<title>Node2&#45;&gt;Node4</title>
<path fill="none" stroke="midnightblue" d="M270.2,-188.41C278.61,-190.62 287.31,-192.91 295.83,-195.15"/>
<polygon fill="midnightblue" stroke="midnightblue" points="295.15,-198.59 305.71,-197.75 296.93,-191.82 295.15,-198.59"/>
</g>
<!-- Node5&#45;&gt;Node3 -->
<g id="edge5" class="edge">
<title>Node5&#45;&gt;Node3</title>
<path fill="none" stroke="midnightblue" d="M270.2,-132.73C281.33,-136.5 292.97,-140.45 304.01,-144.19"/>
<polygon fill="midnightblue" stroke="midnightblue" points="302.93,-147.52 313.53,-147.42 305.18,-140.89 302.93,-147.52"/>
</g>
<!-- Node5&#45;&gt;Node4 -->
<g id="edge10" class="edge">
<title>Node5&#45;&gt;Node4</title>
<path fill="none" stroke="midnightblue" d="M256.62,-134.04C261.31,-136.95 265.88,-140.12 270,-143.5 289.54,-159.52 286.02,-172.03 306,-187.5 307.59,-188.73 309.26,-189.92 310.98,-191.06"/>
<polygon fill="midnightblue" stroke="midnightblue" points="309.52,-194.27 319.9,-196.39 313.11,-188.26 309.52,-194.27"/>
</g>
<!-- Node6 -->
<g id="node6" class="node">
<title>Node6</title>
<g id="a_node6"><a xlink:href="classirr_1_1core_1_1ustring16.html#af213adad883cef8d1c17b39d04c09594" target="_top" xlink:title=" ">
<polygon fill="white" stroke="black" points="306,-98.5 306,-128.5 412,-128.5 412,-98.5 306,-98.5"/>
<text text-anchor="start" x="314" y="-116.5" font-family="Helvetica,sans-Serif" font-size="10.00">irr::core::ustring16</text>
<text text-anchor="middle" x="359" y="-105.5" font-family="Helvetica,sans-Serif" font-size="10.00">::erase_raw</text>
</a>
</g>
</g>
<!-- Node5&#45;&gt;Node6 -->
<g id="edge6" class="edge">
<title>Node5&#45;&gt;Node6</title>
<path fill="none" stroke="midnightblue" d="M270.2,-113.5C278.51,-113.5 287.12,-113.5 295.55,-113.5"/>
<polygon fill="midnightblue" stroke="midnightblue" points="295.71,-117 305.71,-113.5 295.71,-110 295.71,-117"/>
</g>
<!-- Node7 -->
<g id="node7" class="node">
<title>Node7</title>
<g id="a_node7"><a xlink:href="classirr_1_1core_1_1ustring16.html#a68d644e363985b5a99c1229e4419e626" target="_top" xlink:title=" ">
<polygon fill="white" stroke="black" points="306,-49.5 306,-79.5 412,-79.5 412,-49.5 306,-49.5"/>
<text text-anchor="start" x="314" y="-67.5" font-family="Helvetica,sans-Serif" font-size="10.00">irr::core::ustring16</text>
<text text-anchor="middle" x="359" y="-56.5" font-family="Helvetica,sans-Serif" font-size="10.00">::insert_raw</text>
</a>
</g>
</g>
<!-- Node5&#45;&gt;Node7 -->
<g id="edge7" class="edge">
<title>Node5&#45;&gt;Node7</title>
<path fill="none" stroke="midnightblue" d="M270.2,-94.27C281.33,-90.5 292.97,-86.55 304.01,-82.81"/>
<polygon fill="midnightblue" stroke="midnightblue" points="305.18,-86.11 313.53,-79.58 302.93,-79.48 305.18,-86.11"/>
</g>
<!-- Node9 -->
<g id="node9" class="node">
<title>Node9</title>
<g id="a_node9"><a xlink:href="classirr_1_1core_1_1ustring16.html#aa265d8be171f04cef5510e4d99ccf36a" target="_top" xlink:title=" ">
<polygon fill="white" stroke="black" points="306,-0.5 306,-30.5 412,-30.5 412,-0.5 306,-0.5"/>
<text text-anchor="start" x="314" y="-18.5" font-family="Helvetica,sans-Serif" font-size="10.00">irr::core::ustring16</text>
<text text-anchor="middle" x="359" y="-7.5" font-family="Helvetica,sans-Serif" font-size="10.00">::replace_raw</text>
</a>
</g>
</g>
<!-- Node5&#45;&gt;Node9 -->
<g id="edge9" class="edge">
<title>Node5&#45;&gt;Node9</title>
<path fill="none" stroke="midnightblue" d="M236.77,-92.77C254.87,-77.25 281.01,-56.1 306,-40.5 308.8,-38.75 311.75,-37.03 314.75,-35.38"/>
<polygon fill="midnightblue" stroke="midnightblue" points="316.63,-38.34 323.85,-30.59 313.37,-32.15 316.63,-38.34"/>
</g>
<!-- Node8 -->
<g id="node8" class="node">
<title>Node8</title>
<g id="a_node8"><a xlink:href="classirr_1_1core_1_1ustring16.html#aed4535dda4bb841389071c473db1ebe9" target="_top" xlink:title=" ">
<polygon fill="white" stroke="black" points="448,-49.5 448,-79.5 554,-79.5 554,-49.5 448,-49.5"/>
<text text-anchor="start" x="456" y="-67.5" font-family="Helvetica,sans-Serif" font-size="10.00">irr::core::ustring16</text>
<text text-anchor="middle" x="501" y="-56.5" font-family="Helvetica,sans-Serif" font-size="10.00">::reallocate</text>
</a>
</g>
</g>
<!-- Node7&#45;&gt;Node8 -->
<g id="edge8" class="edge">
<title>Node7&#45;&gt;Node8</title>
<path fill="none" stroke="midnightblue" d="M412.13,-64.5C420.42,-64.5 429.07,-64.5 437.57,-64.5"/>
<polygon fill="midnightblue" stroke="midnightblue" points="437.83,-68 447.83,-64.5 437.83,-61 437.83,-68"/>
</g>
</g>
</svg>
