<?xml version="1.0" encoding="UTF-8" standalone="no"?>
<!DOCTYPE svg PUBLIC "-//W3C//DTD SVG 1.1//EN"
 "http://www.w3.org/Graphics/SVG/1.1/DTD/svg11.dtd">
<!-- Generated by graphviz version 2.43.0 (0)
 -->
<!-- Title: DirectionalLight Pages: 1 -->
<svg width="692pt" height="395pt"
 viewBox="0.00 0.00 691.73 395.00" xmlns="http://www.w3.org/2000/svg" xmlns:xlink="http://www.w3.org/1999/xlink">
<g id="graph0" class="graph" transform="scale(1 1) rotate(0) translate(4 391)">
<title>DirectionalLight</title>
<polygon fill="white" stroke="transparent" points="-4,4 -4,-391 687.73,-391 687.73,4 -4,4"/>
<!-- Node1 -->
<g id="node1" class="node">
<title>Node1</title>
<g id="a_node1"><a xlink:title=" ">
<polygon fill="#bfbfbf" stroke="black" points="315.23,-0.5 315.23,-19.5 409.23,-19.5 409.23,-0.5 315.23,-0.5"/>
<text text-anchor="middle" x="362.23" y="-7.5" font-family="Helvetica,sans-Serif" font-size="10.00">DirectionalLight</text>
</a>
</g>
</g>
<!-- Node2 -->
<g id="node2" class="node">
<title>Node2</title>
<g id="a_node2"><a xlink:href="classirr_1_1core_1_1vector3d.html" target="_top" xlink:title="3d vector template class with lots of operators and methods.">
<polygon fill="white" stroke="black" points="20.73,-278.5 20.73,-297.5 151.73,-297.5 151.73,-278.5 20.73,-278.5"/>
<text text-anchor="middle" x="86.23" y="-285.5" font-family="Helvetica,sans-Serif" font-size="10.00">irr::core::vector3d&lt; T &gt;</text>
</a>
</g>
</g>
<!-- Node2&#45;&gt;Node1 -->
<g id="edge1" class="edge">
<title>Node2&#45;&gt;Node1</title>
<path fill="none" stroke="#9a32cd" stroke-dasharray="5,2" d="M69.11,-271.11C37.26,-239.61 -24.73,-167.8 11.23,-116 46.19,-65.64 227.49,-31.59 314.94,-17.84"/>
<polygon fill="#9a32cd" stroke="#9a32cd" points="66.85,-273.79 76.48,-278.21 71.71,-268.75 66.85,-273.79"/>
<text text-anchor="middle" x="61.23" y="-152" font-family="Helvetica,sans-Serif" font-size="10.00"> last_look</text>
<text text-anchor="middle" x="61.23" y="-141" font-family="Helvetica,sans-Serif" font-size="10.00">direction</text>
<text text-anchor="middle" x="61.23" y="-130" font-family="Helvetica,sans-Serif" font-size="10.00">last_cam_pos_world</text>
<text text-anchor="middle" x="61.23" y="-119" font-family="Helvetica,sans-Serif" font-size="10.00">pos</text>
</g>
<!-- Node4 -->
<g id="node4" class="node">
<title>Node4</title>
<g id="a_node4"><a xlink:href="structshadowFrustum.html" target="_top" xlink:title=" ">
<polygon fill="white" stroke="black" points="154.23,-78.5 154.23,-97.5 248.23,-97.5 248.23,-78.5 154.23,-78.5"/>
<text text-anchor="middle" x="201.23" y="-85.5" font-family="Helvetica,sans-Serif" font-size="10.00">shadowFrustum</text>
</a>
</g>
</g>
<!-- Node2&#45;&gt;Node4 -->
<g id="edge4" class="edge">
<title>Node2&#45;&gt;Node4</title>
<path fill="none" stroke="#9a32cd" stroke-dasharray="5,2" d="M83.84,-267.85C83.59,-265.21 83.37,-262.54 83.23,-260 82.42,-245.36 80.28,-241.37 83.23,-227 88,-203.79 92.32,-198.48 104.23,-178 121.62,-148.11 124.98,-138.5 151.23,-116 159.92,-108.55 171,-102.31 180.52,-97.71"/>
<polygon fill="#9a32cd" stroke="#9a32cd" points="80.39,-268.47 84.98,-278.02 87.34,-267.69 80.39,-268.47"/>
<text text-anchor="middle" x="125.73" y="-196.5" font-family="Helvetica,sans-Serif" font-size="10.00"> position</text>
<text text-anchor="middle" x="125.73" y="-185.5" font-family="Helvetica,sans-Serif" font-size="10.00">player</text>
</g>
<!-- Node6 -->
<g id="node6" class="node">
<title>Node6</title>
<g id="a_node6"><a xlink:href="classirr_1_1core_1_1vector3d.html" target="_top" xlink:title=" ">
<polygon fill="white" stroke="black" points="228.73,-178.5 228.73,-208.5 331.73,-208.5 331.73,-178.5 228.73,-178.5"/>
<text text-anchor="start" x="236.73" y="-196.5" font-family="Helvetica,sans-Serif" font-size="10.00">irr::core::vector3d</text>
<text text-anchor="middle" x="280.23" y="-185.5" font-family="Helvetica,sans-Serif" font-size="10.00">&lt; s16 &gt;</text>
</a>
</g>
</g>
<!-- Node2&#45;&gt;Node6 -->
<g id="edge9" class="edge">
<title>Node2&#45;&gt;Node6</title>
<path fill="none" stroke="orange" stroke-dasharray="5,2" d="M84.77,-268.16C84.83,-254.8 87.32,-237.45 98.23,-227 117.07,-208.96 188.59,-213.8 214.23,-209 218.84,-208.14 223.63,-207.19 228.41,-206.2"/>
<polygon fill="orange" stroke="orange" points="81.27,-268.35 85.16,-278.21 88.27,-268.08 81.27,-268.35"/>
<text text-anchor="middle" x="119.73" y="-241" font-family="Helvetica,sans-Serif" font-size="10.00"> &lt; s16 &gt;</text>
</g>
<!-- Node3 -->
<g id="node3" class="node">
<title>Node3</title>
<g id="a_node3"><a xlink:title=" ">
<polygon fill="white" stroke="#bfbfbf" points="118.73,-367.5 118.73,-386.5 147.73,-386.5 147.73,-367.5 118.73,-367.5"/>
<text text-anchor="middle" x="133.23" y="-374.5" font-family="Helvetica,sans-Serif" font-size="10.00">T</text>
</a>
</g>
</g>
<!-- Node3&#45;&gt;Node2 -->
<g id="edge2" class="edge">
<title>Node3&#45;&gt;Node2</title>
<path fill="none" stroke="#9a32cd" stroke-dasharray="5,2" d="M123.77,-358.49C113.8,-340.03 98.51,-311.74 90.89,-297.62"/>
<polygon fill="#9a32cd" stroke="#9a32cd" points="120.72,-360.21 128.55,-367.34 126.88,-356.88 120.72,-360.21"/>
<text text-anchor="middle" x="123.23" y="-341" font-family="Helvetica,sans-Serif" font-size="10.00"> X</text>
<text text-anchor="middle" x="123.23" y="-330" font-family="Helvetica,sans-Serif" font-size="10.00">Y</text>
<text text-anchor="middle" x="123.23" y="-319" font-family="Helvetica,sans-Serif" font-size="10.00">Z</text>
</g>
<!-- Node5 -->
<g id="node5" class="node">
<title>Node5</title>
<g id="a_node5"><a xlink:href="classirr_1_1core_1_1CMatrix4.html" target="_top" xlink:title="4x4 matrix. Mostly used as transformation matrix for 3d calculations.">
<polygon fill="white" stroke="black" points="150.73,-234 150.73,-253 283.73,-253 283.73,-234 150.73,-234"/>
<text text-anchor="middle" x="217.23" y="-241" font-family="Helvetica,sans-Serif" font-size="10.00">irr::core::CMatrix4&lt; T &gt;</text>
</a>
</g>
</g>
<!-- Node3&#45;&gt;Node5 -->
<g id="edge6" class="edge">
<title>Node3&#45;&gt;Node5</title>
<path fill="none" stroke="#9a32cd" stroke-dasharray="5,2" d="M144.15,-358.9C162.25,-330.58 197.81,-274.9 211.59,-253.33"/>
<polygon fill="#9a32cd" stroke="#9a32cd" points="141.18,-357.06 138.74,-367.37 147.08,-360.83 141.18,-357.06"/>
<text text-anchor="middle" x="176.73" y="-330" font-family="Helvetica,sans-Serif" font-size="10.00"> M</text>
</g>
<!-- Node4&#45;&gt;Node1 -->
<g id="edge3" class="edge">
<title>Node4&#45;&gt;Node1</title>
<path fill="none" stroke="#9a32cd" stroke-dasharray="5,2" d="M213.77,-70.37C222.78,-59.59 235.82,-46.08 250.23,-38 270.03,-26.9 294.29,-20.33 315.16,-16.46"/>
<polygon fill="#9a32cd" stroke="#9a32cd" points="210.96,-68.29 207.47,-78.29 216.44,-72.65 210.96,-68.29"/>
<text text-anchor="middle" x="291.23" y="-52" font-family="Helvetica,sans-Serif" font-size="10.00"> future_frustum</text>
<text text-anchor="middle" x="291.23" y="-41" font-family="Helvetica,sans-Serif" font-size="10.00">shadow_frustum</text>
</g>
<!-- Node5&#45;&gt;Node4 -->
<g id="edge5" class="edge">
<title>Node5&#45;&gt;Node4</title>
<path fill="none" stroke="#9a32cd" stroke-dasharray="5,2" d="M179.94,-229.55C170.95,-224.57 162.44,-217.87 157.23,-209 134.54,-170.34 175.05,-117.98 193.16,-97.61"/>
<polygon fill="#9a32cd" stroke="#9a32cd" points="178.48,-232.73 189,-233.98 181.55,-226.44 178.48,-232.73"/>
<text text-anchor="middle" x="188.23" y="-196.5" font-family="Helvetica,sans-Serif" font-size="10.00"> ProjOrthMat</text>
<text text-anchor="middle" x="188.23" y="-185.5" font-family="Helvetica,sans-Serif" font-size="10.00">ViewMat</text>
</g>
<!-- Node6&#45;&gt;Node4 -->
<g id="edge7" class="edge">
<title>Node6&#45;&gt;Node4</title>
<path fill="none" stroke="#9a32cd" stroke-dasharray="5,2" d="M219.53,-176.01C212.74,-171.83 206.68,-166.58 202.23,-160 189.38,-141.01 194.67,-112.14 198.53,-97.76"/>
<polygon fill="#9a32cd" stroke="#9a32cd" points="217.97,-179.15 228.44,-180.77 221.27,-172.98 217.97,-179.15"/>
<text text-anchor="middle" x="238.73" y="-135.5" font-family="Helvetica,sans-Serif" font-size="10.00"> camera_offset</text>
</g>
<!-- Node7 -->
<g id="node7" class="node">
<title>Node7</title>
<g id="a_node7"><a xlink:title=" ">
<polygon fill="white" stroke="#bfbfbf" points="290.23,-278.5 290.23,-297.5 324.23,-297.5 324.23,-278.5 290.23,-278.5"/>
<text text-anchor="middle" x="307.23" y="-285.5" font-family="Helvetica,sans-Serif" font-size="10.00">s16</text>
</a>
</g>
</g>
<!-- Node7&#45;&gt;Node6 -->
<g id="edge8" class="edge">
<title>Node7&#45;&gt;Node6</title>
<path fill="none" stroke="#9a32cd" stroke-dasharray="5,2" d="M301.92,-268.79C296.77,-251.17 289.08,-224.82 284.38,-208.7"/>
<polygon fill="#9a32cd" stroke="#9a32cd" points="298.58,-269.84 304.74,-278.46 305.3,-267.88 298.58,-269.84"/>
<text text-anchor="middle" x="305.23" y="-252" font-family="Helvetica,sans-Serif" font-size="10.00"> X</text>
<text text-anchor="middle" x="305.23" y="-241" font-family="Helvetica,sans-Serif" font-size="10.00">Y</text>
<text text-anchor="middle" x="305.23" y="-230" font-family="Helvetica,sans-Serif" font-size="10.00">Z</text>
</g>
<!-- Node8 -->
<g id="node8" class="node">
<title>Node8</title>
<g id="a_node8"><a xlink:title=" ">
<polygon fill="white" stroke="#bfbfbf" points="350.23,-184 350.23,-203 382.23,-203 382.23,-184 350.23,-184"/>
<text text-anchor="middle" x="366.23" y="-191" font-family="Helvetica,sans-Serif" font-size="10.00">f32</text>
</a>
</g>
</g>
<!-- Node8&#45;&gt;Node1 -->
<g id="edge15" class="edge">
<title>Node8&#45;&gt;Node1</title>
<path fill="none" stroke="#9a32cd" stroke-dasharray="5,2" d="M362.76,-173.99C358.91,-151.38 353.46,-111.95 355.23,-78 356.33,-56.98 359.34,-32.39 361.04,-19.65"/>
<polygon fill="#9a32cd" stroke="#9a32cd" points="359.33,-174.67 364.53,-183.9 366.22,-173.44 359.33,-174.67"/>
<text text-anchor="middle" x="377.23" y="-85.5" font-family="Helvetica,sans-Serif" font-size="10.00"> farPlane</text>
</g>
<!-- Node8&#45;&gt;Node4 -->
<g id="edge10" class="edge">
<title>Node8&#45;&gt;Node4</title>
<path fill="none" stroke="#9a32cd" stroke-dasharray="5,2" d="M342.69,-179.23C341.87,-178.81 341.04,-178.4 340.23,-178 322,-169.04 313.13,-173.8 298.23,-160 282.04,-145.01 291.83,-130.54 275.23,-116 265.56,-107.53 253.02,-101.64 241.01,-97.58"/>
<polygon fill="#9a32cd" stroke="#9a32cd" points="341.05,-182.33 351.52,-183.95 344.35,-176.15 341.05,-182.33"/>
<text text-anchor="middle" x="315.23" y="-152" font-family="Helvetica,sans-Serif" font-size="10.00"> radius</text>
<text text-anchor="middle" x="315.23" y="-141" font-family="Helvetica,sans-Serif" font-size="10.00">length</text>
<text text-anchor="middle" x="315.23" y="-130" font-family="Helvetica,sans-Serif" font-size="10.00">zNear</text>
<text text-anchor="middle" x="315.23" y="-119" font-family="Helvetica,sans-Serif" font-size="10.00">zFar</text>
</g>
<!-- Node9 -->
<g id="node9" class="node">
<title>Node9</title>
<g id="a_node9"><a xlink:href="classbool.html" target="_top" xlink:title=" ">
<polygon fill="white" stroke="black" points="408.23,-78.5 408.23,-97.5 446.23,-97.5 446.23,-78.5 408.23,-78.5"/>
<text text-anchor="middle" x="427.23" y="-85.5" font-family="Helvetica,sans-Serif" font-size="10.00">bool</text>
</a>
</g>
</g>
<!-- Node9&#45;&gt;Node1 -->
<g id="edge11" class="edge">
<title>Node9&#45;&gt;Node1</title>
<path fill="none" stroke="#9a32cd" stroke-dasharray="5,2" d="M398.96,-74.98C392.12,-71.01 385.32,-66.03 380.23,-60 370.18,-48.08 365.51,-30.06 363.53,-19.52"/>
<polygon fill="#9a32cd" stroke="#9a32cd" points="397.68,-78.25 408.16,-79.76 400.91,-72.04 397.68,-78.25"/>
<text text-anchor="middle" x="452.73" y="-52" font-family="Helvetica,sans-Serif" font-size="10.00"> should_update_map_shadow</text>
<text text-anchor="middle" x="452.73" y="-41" font-family="Helvetica,sans-Serif" font-size="10.00">dirty</text>
</g>
<!-- Node10 -->
<g id="node10" class="node">
<title>Node10</title>
<g id="a_node10"><a xlink:title=" ">
<polygon fill="white" stroke="#bfbfbf" points="529.73,-78.5 529.73,-97.5 564.73,-97.5 564.73,-78.5 529.73,-78.5"/>
<text text-anchor="middle" x="547.23" y="-85.5" font-family="Helvetica,sans-Serif" font-size="10.00">u32</text>
</a>
</g>
</g>
<!-- Node10&#45;&gt;Node1 -->
<g id="edge12" class="edge">
<title>Node10&#45;&gt;Node1</title>
<path fill="none" stroke="#9a32cd" stroke-dasharray="5,2" d="M543.41,-68.24C540.28,-57.75 534.77,-45.35 525.23,-38 507.51,-24.34 450.86,-17.31 409.3,-13.89"/>
<polygon fill="#9a32cd" stroke="#9a32cd" points="540.07,-69.32 545.86,-78.19 546.86,-67.64 540.07,-69.32"/>
<text text-anchor="middle" x="561.73" y="-46.5" font-family="Helvetica,sans-Serif" font-size="10.00"> mapRes</text>
</g>
<!-- Node11 -->
<g id="node11" class="node">
<title>Node11</title>
<g id="a_node11"><a xlink:href="classirr_1_1video_1_1SColorf.html" target="_top" xlink:title="Class representing a color with four floats.">
<polygon fill="white" stroke="black" points="582.73,-78.5 582.73,-97.5 683.73,-97.5 683.73,-78.5 582.73,-78.5"/>
<text text-anchor="middle" x="633.23" y="-85.5" font-family="Helvetica,sans-Serif" font-size="10.00">irr::video::SColorf</text>
</a>
</g>
</g>
<!-- Node11&#45;&gt;Node1 -->
<g id="edge13" class="edge">
<title>Node11&#45;&gt;Node1</title>
<path fill="none" stroke="#9a32cd" stroke-dasharray="5,2" d="M621.99,-69.88C613.76,-58.84 601.55,-45.24 587.23,-38 557.04,-22.73 465.85,-15.79 409.26,-12.88"/>
<polygon fill="#9a32cd" stroke="#9a32cd" points="619.32,-72.17 627.93,-78.35 625.06,-68.15 619.32,-72.17"/>
<text text-anchor="middle" x="645.23" y="-46.5" font-family="Helvetica,sans-Serif" font-size="10.00"> diffuseColor</text>
</g>
<!-- Node12 -->
<g id="node12" class="node">
<title>Node12</title>
<g id="a_node12"><a xlink:title=" ">
<polygon fill="white" stroke="#bfbfbf" points="614.23,-184 614.23,-203 652.23,-203 652.23,-184 614.23,-184"/>
<text text-anchor="middle" x="633.23" y="-191" font-family="Helvetica,sans-Serif" font-size="10.00">float</text>
</a>
</g>
</g>
<!-- Node12&#45;&gt;Node11 -->
<g id="edge14" class="edge">
<title>Node12&#45;&gt;Node11</title>
<path fill="none" stroke="#9a32cd" stroke-dasharray="5,2" d="M633.23,-173.6C633.23,-150.97 633.23,-114.07 633.23,-97.51"/>
<polygon fill="#9a32cd" stroke="#9a32cd" points="629.73,-173.68 633.23,-183.68 636.73,-173.68 629.73,-173.68"/>
<text text-anchor="middle" x="638.23" y="-152" font-family="Helvetica,sans-Serif" font-size="10.00"> g</text>
<text text-anchor="middle" x="638.23" y="-141" font-family="Helvetica,sans-Serif" font-size="10.00">a</text>
<text text-anchor="middle" x="638.23" y="-130" font-family="Helvetica,sans-Serif" font-size="10.00">r</text>
<text text-anchor="middle" x="638.23" y="-119" font-family="Helvetica,sans-Serif" font-size="10.00">b</text>
</g>
</g>
</svg>
