<?xml version="1.0" encoding="UTF-8" standalone="no"?>
<!DOCTYPE svg PUBLIC "-//W3C//DTD SVG 1.1//EN"
 "http://www.w3.org/Graphics/SVG/1.1/DTD/svg11.dtd">
<!-- Generated by graphviz version 2.43.0 (0)
 -->
<!-- Title: InvRef Pages: 1 -->
<!--zoomable 351 -->
<svg id="main" version="1.1" xmlns="http://www.w3.org/2000/svg" xmlns:xlink="http://www.w3.org/1999/xlink" xml:space="preserve" onload="init(evt)">
<style type="text/css"><![CDATA[
.edge:hover path { stroke: red; }
.edge:hover polygon { stroke: red; fill: red; }
]]></style>
<script type="text/javascript"><![CDATA[
var edges = document.getElementsByTagName('g');
if (edges && edges.length) {
  for (var i=0;i<edges.length;i++) {
    if (edges[i].id.substr(0,4)=='edge') {
      edges[i].setAttribute('class','edge');
    }
  }
}
]]></script>
        <defs>
                <circle id="rim" cx="0" cy="0" r="7"/>
                <circle id="rim2" cx="0" cy="0" r="3.5"/>
                <g id="zoomPlus">
                        <use xlink:href="#rim" fill="#404040">
                                <set attributeName="fill" to="#808080" begin="zoomplus.mouseover" end="zoomplus.mouseout"/>
                        </use>
                        <path d="M-4,0h8M0,-4v8" fill="none" stroke="white" stroke-width="1.5" pointer-events="none"/>
                </g>
                <g id="zoomMin">
                        <use xlink:href="#rim" fill="#404040">
                                <set attributeName="fill" to="#808080" begin="zoomminus.mouseover" end="zoomminus.mouseout"/>
                        </use>
                        <path d="M-4,0h8" fill="none" stroke="white" stroke-width="1.5" pointer-events="none"/>
                </g>
                <g id="dirArrow">
                        <path fill="none" stroke="white" stroke-width="1.5" d="M0,-3.0v7 M-2.5,-0.5L0,-3.0L2.5,-0.5"/>
                </g>
               <g id="resetDef">
                       <use xlink:href="#rim2" fill="#404040">
                               <set attributeName="fill" to="#808080" begin="reset.mouseover" end="reset.mouseout"/>
                       </use>
               </g>
        </defs>

<script type="text/javascript">
var viewWidth = 563;
var viewHeight = 351;
var sectionId = 'dynsection-1';
</script>
<script xlink:href="svgpan.js"/>
<svg id="graph" class="graph">
<g id="viewport">
<title>InvRef</title>
<polygon fill="white" stroke="transparent" points="-4,4 -4,-347 559,-347 559,4 -4,4"/>
<!-- Node1 -->
<g id="node1" class="node">
<title>Node1</title>
<g id="a_node1"><a xlink:title=" ">
<polygon fill="#bfbfbf" stroke="black" points="124.5,-0.5 124.5,-19.5 172.5,-19.5 172.5,-0.5 124.5,-0.5"/>
<text text-anchor="middle" x="148.5" y="-7.5" font-family="Helvetica,sans-Serif" font-size="10.00">InvRef</text>
</a>
</g>
</g>
<!-- Node2 -->
<g id="node2" class="node">
<title>Node2</title>
<g id="a_node2"><a xlink:href="classModApiBase.html" target="_top" xlink:title=" ">
<polygon fill="white" stroke="black" points="0,-67.5 0,-86.5 77,-86.5 77,-67.5 0,-67.5"/>
<text text-anchor="middle" x="38.5" y="-74.5" font-family="Helvetica,sans-Serif" font-size="10.00">ModApiBase</text>
</a>
</g>
</g>
<!-- Node2&#45;&gt;Node1 -->
<g id="edge1" class="edge">
<title>Node2&#45;&gt;Node1</title>
<path fill="none" stroke="midnightblue" d="M60.49,-61.91C72.01,-54.62 86.42,-45.67 99.5,-38 110.39,-31.61 122.86,-24.75 132.49,-19.54"/>
<polygon fill="midnightblue" stroke="midnightblue" points="58.5,-59.02 51.94,-67.34 62.26,-64.93 58.5,-59.02"/>
</g>
<!-- Node3 -->
<g id="node3" class="node">
<title>Node3</title>
<g id="a_node3"><a xlink:href="classLuaHelper.html" target="_top" xlink:title=" ">
<polygon fill="white" stroke="black" points="5.5,-140 5.5,-159 71.5,-159 71.5,-140 5.5,-140"/>
<text text-anchor="middle" x="38.5" y="-147" font-family="Helvetica,sans-Serif" font-size="10.00">LuaHelper</text>
</a>
</g>
</g>
<!-- Node3&#45;&gt;Node2 -->
<g id="edge2" class="edge">
<title>Node3&#45;&gt;Node2</title>
<path fill="none" stroke="darkgreen" d="M38.5,-129.44C38.5,-115.53 38.5,-97.32 38.5,-86.72"/>
<polygon fill="darkgreen" stroke="darkgreen" points="35,-129.86 38.5,-139.86 42,-129.86 35,-129.86"/>
</g>
<!-- Node4 -->
<g id="node4" class="node">
<title>Node4</title>
<g id="a_node4"><a xlink:href="structluaL__Reg.html" target="_top" xlink:title=" ">
<polygon fill="white" stroke="black" points="190,-67.5 190,-86.5 251,-86.5 251,-67.5 190,-67.5"/>
<text text-anchor="middle" x="220.5" y="-74.5" font-family="Helvetica,sans-Serif" font-size="10.00">luaL_Reg</text>
</a>
</g>
</g>
<!-- Node4&#45;&gt;Node1 -->
<g id="edge3" class="edge">
<title>Node4&#45;&gt;Node1</title>
<path fill="none" stroke="#9a32cd" stroke-dasharray="5,2" d="M203.17,-60.36C189.02,-47.58 169.54,-29.99 158.06,-19.63"/>
<polygon fill="#9a32cd" stroke="#9a32cd" points="201.02,-63.13 210.79,-67.23 205.71,-57.93 201.02,-63.13"/>
<text text-anchor="middle" x="212.5" y="-41" font-family="Helvetica,sans-Serif" font-size="10.00"> methods</text>
</g>
<!-- Node5 -->
<g id="node5" class="node">
<title>Node5</title>
<g id="a_node5"><a xlink:title=" ">
<polygon fill="white" stroke="#bfbfbf" points="121.5,-140 121.5,-159 159.5,-159 159.5,-140 121.5,-140"/>
<text text-anchor="middle" x="140.5" y="-147" font-family="Helvetica,sans-Serif" font-size="10.00">char</text>
</a>
</g>
</g>
<!-- Node5&#45;&gt;Node1 -->
<g id="edge13" class="edge">
<title>Node5&#45;&gt;Node1</title>
<path fill="none" stroke="#9a32cd" stroke-dasharray="5,2" d="M131.94,-130.44C125.2,-113.93 117.68,-88.82 122.5,-67 126.43,-49.21 136.61,-30.35 143,-19.69"/>
<polygon fill="#9a32cd" stroke="#9a32cd" points="128.89,-132.19 136.12,-139.93 135.29,-129.37 128.89,-132.19"/>
<text text-anchor="middle" x="151.5" y="-74.5" font-family="Helvetica,sans-Serif" font-size="10.00"> className</text>
</g>
<!-- Node5&#45;&gt;Node4 -->
<g id="edge4" class="edge">
<title>Node5&#45;&gt;Node4</title>
<path fill="none" stroke="#9a32cd" stroke-dasharray="5,2" d="M155.73,-132.41C163.99,-123.97 174.51,-113.61 184.5,-105 192.07,-98.47 201.07,-91.72 208.18,-86.6"/>
<polygon fill="#9a32cd" stroke="#9a32cd" points="153.03,-130.18 148.61,-139.81 158.07,-135.04 153.03,-130.18"/>
<text text-anchor="middle" x="200" y="-108" font-family="Helvetica,sans-Serif" font-size="10.00"> name</text>
</g>
<!-- Node6 -->
<g id="node6" class="node">
<title>Node6</title>
<g id="a_node6"><a xlink:title=" ">
<polygon fill="white" stroke="#bfbfbf" points="203,-140 203,-159 232,-159 232,-140 203,-140"/>
<text text-anchor="middle" x="217.5" y="-147" font-family="Helvetica,sans-Serif" font-size="10.00">int</text>
</a>
</g>
</g>
<!-- Node6&#45;&gt;Node4 -->
<g id="edge5" class="edge">
<title>Node6&#45;&gt;Node4</title>
<path fill="none" stroke="#9a32cd" stroke-dasharray="5,2" d="M218.29,-129.86C218.89,-115.9 219.67,-97.43 220.13,-86.72"/>
<polygon fill="#9a32cd" stroke="#9a32cd" points="214.8,-129.72 217.87,-139.86 221.79,-130.01 214.8,-129.72"/>
<text text-anchor="middle" x="232" y="-108" font-family="Helvetica,sans-Serif" font-size="10.00"> func</text>
</g>
<!-- Node7 -->
<g id="node7" class="node">
<title>Node7</title>
<g id="a_node7"><a xlink:href="structInventoryLocation.html" target="_top" xlink:title=" ">
<polygon fill="white" stroke="black" points="274.5,-67.5 274.5,-86.5 378.5,-86.5 378.5,-67.5 274.5,-67.5"/>
<text text-anchor="middle" x="326.5" y="-74.5" font-family="Helvetica,sans-Serif" font-size="10.00">InventoryLocation</text>
</a>
</g>
</g>
<!-- Node7&#45;&gt;Node1 -->
<g id="edge6" class="edge">
<title>Node7&#45;&gt;Node1</title>
<path fill="none" stroke="#9a32cd" stroke-dasharray="5,2" d="M299.45,-63.16C282.46,-55.34 259.95,-45.47 239.5,-38 217.21,-29.86 191.2,-22.33 172.71,-17.31"/>
<polygon fill="#9a32cd" stroke="#9a32cd" points="298.22,-66.44 308.77,-67.48 301.17,-60.1 298.22,-66.44"/>
<text text-anchor="middle" x="283" y="-41" font-family="Helvetica,sans-Serif" font-size="10.00"> m_loc</text>
</g>
<!-- Node8 -->
<g id="node8" class="node">
<title>Node8</title>
<g id="a_node8"><a xlink:title=" ">
<polygon fill="white" stroke="#bfbfbf" points="250,-140 250,-159 289,-159 289,-140 250,-140"/>
<text text-anchor="middle" x="269.5" y="-147" font-family="Helvetica,sans-Serif" font-size="10.00">Type</text>
</a>
</g>
</g>
<!-- Node8&#45;&gt;Node7 -->
<g id="edge7" class="edge">
<title>Node8&#45;&gt;Node7</title>
<path fill="none" stroke="#9a32cd" stroke-dasharray="5,2" d="M280.26,-131.39C285.69,-123.16 292.59,-113.3 299.5,-105 304.93,-98.48 311.68,-91.73 317.07,-86.61"/>
<polygon fill="#9a32cd" stroke="#9a32cd" points="277.29,-129.53 274.82,-139.83 283.18,-133.32 277.29,-129.53"/>
<text text-anchor="middle" x="312" y="-108" font-family="Helvetica,sans-Serif" font-size="10.00"> type</text>
</g>
<!-- Node9 -->
<g id="node9" class="node">
<title>Node9</title>
<g id="a_node9"><a xlink:title=" ">
<polygon fill="white" stroke="#bfbfbf" points="307.5,-140 307.5,-159 351.5,-159 351.5,-140 307.5,-140"/>
<text text-anchor="middle" x="329.5" y="-147" font-family="Helvetica,sans-Serif" font-size="10.00">string</text>
</a>
</g>
</g>
<!-- Node9&#45;&gt;Node7 -->
<g id="edge8" class="edge">
<title>Node9&#45;&gt;Node7</title>
<path fill="none" stroke="#9a32cd" stroke-dasharray="5,2" d="M328.71,-129.86C328.11,-115.9 327.33,-97.43 326.87,-86.72"/>
<polygon fill="#9a32cd" stroke="#9a32cd" points="325.21,-130.01 329.13,-139.86 332.2,-129.72 325.21,-130.01"/>
<text text-anchor="middle" x="344" y="-108" font-family="Helvetica,sans-Serif" font-size="10.00"> name</text>
</g>
<!-- Node10 -->
<g id="node10" class="node">
<title>Node10</title>
<g id="a_node10"><a xlink:href="classirr_1_1core_1_1vector3d.html" target="_top" xlink:title=" ">
<polygon fill="white" stroke="black" points="370,-134.5 370,-164.5 473,-164.5 473,-134.5 370,-134.5"/>
<text text-anchor="start" x="378" y="-152.5" font-family="Helvetica,sans-Serif" font-size="10.00">irr::core::vector3d</text>
<text text-anchor="middle" x="421.5" y="-141.5" font-family="Helvetica,sans-Serif" font-size="10.00">&lt; s16 &gt;</text>
</a>
</g>
</g>
<!-- Node10&#45;&gt;Node7 -->
<g id="edge9" class="edge">
<title>Node10&#45;&gt;Node7</title>
<path fill="none" stroke="#9a32cd" stroke-dasharray="5,2" d="M394.57,-128.19C384.8,-120.85 373.67,-112.53 363.5,-105 355.19,-98.85 345.78,-91.99 338.53,-86.72"/>
<polygon fill="#9a32cd" stroke="#9a32cd" points="392.64,-131.12 402.74,-134.33 396.85,-125.52 392.64,-131.12"/>
<text text-anchor="middle" x="383.5" y="-108" font-family="Helvetica,sans-Serif" font-size="10.00"> p</text>
</g>
<!-- Node11 -->
<g id="node11" class="node">
<title>Node11</title>
<g id="a_node11"><a xlink:title=" ">
<polygon fill="white" stroke="#bfbfbf" points="371.5,-234.5 371.5,-253.5 405.5,-253.5 405.5,-234.5 371.5,-234.5"/>
<text text-anchor="middle" x="388.5" y="-241.5" font-family="Helvetica,sans-Serif" font-size="10.00">s16</text>
</a>
</g>
</g>
<!-- Node11&#45;&gt;Node10 -->
<g id="edge10" class="edge">
<title>Node11&#45;&gt;Node10</title>
<path fill="none" stroke="#9a32cd" stroke-dasharray="5,2" d="M395,-224.79C401.28,-207.17 410.68,-180.82 416.43,-164.7"/>
<polygon fill="#9a32cd" stroke="#9a32cd" points="391.61,-223.87 391.55,-234.46 398.2,-226.22 391.61,-223.87"/>
<text text-anchor="middle" x="415.5" y="-208" font-family="Helvetica,sans-Serif" font-size="10.00"> X</text>
<text text-anchor="middle" x="415.5" y="-197" font-family="Helvetica,sans-Serif" font-size="10.00">Y</text>
<text text-anchor="middle" x="415.5" y="-186" font-family="Helvetica,sans-Serif" font-size="10.00">Z</text>
</g>
<!-- Node12 -->
<g id="node12" class="node">
<title>Node12</title>
<g id="a_node12"><a xlink:href="classirr_1_1core_1_1vector3d.html" target="_top" xlink:title="3d vector template class with lots of operators and methods.">
<polygon fill="white" stroke="black" points="424,-234.5 424,-253.5 555,-253.5 555,-234.5 424,-234.5"/>
<text text-anchor="middle" x="489.5" y="-241.5" font-family="Helvetica,sans-Serif" font-size="10.00">irr::core::vector3d&lt; T &gt;</text>
</a>
</g>
</g>
<!-- Node12&#45;&gt;Node10 -->
<g id="edge11" class="edge">
<title>Node12&#45;&gt;Node10</title>
<path fill="none" stroke="orange" stroke-dasharray="5,2" d="M477.2,-226.26C464.26,-208.67 444.13,-181.28 431.94,-164.7"/>
<polygon fill="orange" stroke="orange" points="474.48,-228.48 483.22,-234.46 480.12,-224.33 474.48,-228.48"/>
<text text-anchor="middle" x="490" y="-197" font-family="Helvetica,sans-Serif" font-size="10.00"> &lt; s16 &gt;</text>
</g>
<!-- Node13 -->
<g id="node13" class="node">
<title>Node13</title>
<g id="a_node13"><a xlink:title=" ">
<polygon fill="white" stroke="#bfbfbf" points="475,-323.5 475,-342.5 504,-342.5 504,-323.5 475,-323.5"/>
<text text-anchor="middle" x="489.5" y="-330.5" font-family="Helvetica,sans-Serif" font-size="10.00">T</text>
</a>
</g>
</g>
<!-- Node13&#45;&gt;Node12 -->
<g id="edge12" class="edge">
<title>Node13&#45;&gt;Node12</title>
<path fill="none" stroke="#9a32cd" stroke-dasharray="5,2" d="M489.5,-313.19C489.5,-294.74 489.5,-267.41 489.5,-253.62"/>
<polygon fill="#9a32cd" stroke="#9a32cd" points="486,-313.34 489.5,-323.34 493,-313.34 486,-313.34"/>
<text text-anchor="middle" x="494.5" y="-297" font-family="Helvetica,sans-Serif" font-size="10.00"> X</text>
<text text-anchor="middle" x="494.5" y="-286" font-family="Helvetica,sans-Serif" font-size="10.00">Y</text>
<text text-anchor="middle" x="494.5" y="-275" font-family="Helvetica,sans-Serif" font-size="10.00">Z</text>
</g>
</g>
</svg>
        <g id="navigator" transform="translate(0 0)" fill="#404254">
                <rect fill="#f2f5e9" fill-opacity="0.5" stroke="#606060" stroke-width=".5" x="0" y="0" width="60" height="60"/>
                <use id="zoomplus" xlink:href="#zoomPlus" x="17" y="9" onmousedown="handleZoom(evt,'in')"/>
                <use id="zoomminus" xlink:href="#zoomMin" x="42" y="9" onmousedown="handleZoom(evt,'out')"/>
                <use id="reset" xlink:href="#resetDef" x="30" y="36" onmousedown="handleReset()"/>
                <g id="arrowUp" xlink:href="#dirArrow" transform="translate(30 24)" onmousedown="handlePan(0,-1)">
                  <use xlink:href="#rim" fill="#404040">
                        <set attributeName="fill" to="#808080" begin="arrowUp.mouseover" end="arrowUp.mouseout"/>
                  </use>
                  <path fill="none" stroke="white" stroke-width="1.5" d="M0,-3.0v7 M-2.5,-0.5L0,-3.0L2.5,-0.5"/>
                </g>
                <g id="arrowRight" xlink:href="#dirArrow" transform="rotate(90) translate(36 -43)" onmousedown="handlePan(1,0)">
                  <use xlink:href="#rim" fill="#404040">
                        <set attributeName="fill" to="#808080" begin="arrowRight.mouseover" end="arrowRight.mouseout"/>
                  </use>
                  <path fill="none" stroke="white" stroke-width="1.5" d="M0,-3.0v7 M-2.5,-0.5L0,-3.0L2.5,-0.5"/>
                </g>
                <g id="arrowDown" xlink:href="#dirArrow" transform="rotate(180) translate(-30 -48)" onmousedown="handlePan(0,1)">
                  <use xlink:href="#rim" fill="#404040">
                        <set attributeName="fill" to="#808080" begin="arrowDown.mouseover" end="arrowDown.mouseout"/>
                  </use>
                  <path fill="none" stroke="white" stroke-width="1.5" d="M0,-3.0v7 M-2.5,-0.5L0,-3.0L2.5,-0.5"/>
                </g>
                <g id="arrowLeft" xlink:href="#dirArrow" transform="rotate(270) translate(-36 17)" onmousedown="handlePan(-1,0)">
                  <use xlink:href="#rim" fill="#404040">
                        <set attributeName="fill" to="#808080" begin="arrowLeft.mouseover" end="arrowLeft.mouseout"/>
                  </use>
                  <path fill="none" stroke="white" stroke-width="1.5" d="M0,-3.0v7 M-2.5,-0.5L0,-3.0L2.5,-0.5"/>
                </g>
        </g>
        <svg viewBox="0 0 15 15" width="100%" height="30px" preserveAspectRatio="xMaxYMin meet">
         <g id="arrow_out" transform="scale(0.3 0.3)">
          <a xlink:href="classInvRef__coll__graph_org.svg" target="_base">
           <rect id="button" ry="5" rx="5" y="6" x="6" height="38" width="38"
                fill="#f2f5e9" fill-opacity="0.5" stroke="#606060" stroke-width="1.0"/>
           <path id="arrow"
             d="M 11.500037,31.436501 C 11.940474,20.09759 22.043105,11.32322 32.158766,21.979434 L 37.068811,17.246167 C 37.068811,17.246167 37.088388,32 37.088388,32 L 22.160133,31.978069 C 22.160133,31.978069 26.997745,27.140456 26.997745,27.140456 C 18.528582,18.264221 13.291696,25.230495 11.500037,31.436501 z"
             style="fill:#404040;"/>
          </a>
         </g>
        </svg>
</svg>
