<?xml version="1.0" encoding="UTF-8" standalone="no"?>
<!DOCTYPE svg PUBLIC "-//W3C//DTD SVG 1.1//EN"
 "http://www.w3.org/Graphics/SVG/1.1/DTD/svg11.dtd">
<!-- Generated by graphviz version 2.43.0 (0)
 -->
<!-- Title: DrawImageStep Pages: 1 -->
<svg width="499pt" height="262pt"
 viewBox="0.00 0.00 499.00 262.00" xmlns="http://www.w3.org/2000/svg" xmlns:xlink="http://www.w3.org/1999/xlink">
<g id="graph0" class="graph" transform="scale(1 1) rotate(0) translate(4 258)">
<title>DrawImageStep</title>
<polygon fill="white" stroke="transparent" points="-4,4 -4,-258 495,-258 495,4 -4,4"/>
<!-- Node1 -->
<g id="node1" class="node">
<title>Node1</title>
<g id="a_node1"><a xlink:title=" ">
<polygon fill="#bfbfbf" stroke="black" points="187,-0.5 187,-19.5 282,-19.5 282,-0.5 187,-0.5"/>
<text text-anchor="middle" x="234.5" y="-7.5" font-family="Helvetica,sans-Serif" font-size="10.00">DrawImageStep</text>
</a>
</g>
</g>
<!-- Node2 -->
<g id="node2" class="node">
<title>Node2</title>
<g id="a_node2"><a xlink:href="classRenderStep.html" target="_top" xlink:title=" ">
<polygon fill="white" stroke="black" points="0,-73 0,-92 73,-92 73,-73 0,-73"/>
<text text-anchor="middle" x="36.5" y="-80" font-family="Helvetica,sans-Serif" font-size="10.00">RenderStep</text>
</a>
</g>
</g>
<!-- Node2&#45;&gt;Node1 -->
<g id="edge1" class="edge">
<title>Node2&#45;&gt;Node1</title>
<path fill="none" stroke="midnightblue" d="M69.93,-69.6C109.78,-55.41 175.4,-32.04 210.53,-19.53"/>
<polygon fill="midnightblue" stroke="midnightblue" points="68.63,-66.34 60.38,-73 70.98,-72.94 68.63,-66.34"/>
</g>
<!-- Node3 -->
<g id="node3" class="node">
<title>Node3</title>
<g id="a_node3"><a xlink:href="classRenderPipelineObject.html" target="_top" xlink:title=" ">
<polygon fill="white" stroke="black" points="72.5,-156.5 72.5,-175.5 194.5,-175.5 194.5,-156.5 72.5,-156.5"/>
<text text-anchor="middle" x="133.5" y="-163.5" font-family="Helvetica,sans-Serif" font-size="10.00">RenderPipelineObject</text>
</a>
</g>
</g>
<!-- Node3&#45;&gt;Node2 -->
<g id="edge2" class="edge">
<title>Node3&#45;&gt;Node2</title>
<path fill="none" stroke="midnightblue" d="M115.24,-149.66C95.01,-132.66 63.09,-105.84 46.81,-92.16"/>
<polygon fill="midnightblue" stroke="midnightblue" points="113.21,-152.52 123.12,-156.28 117.71,-147.17 113.21,-152.52"/>
</g>
<!-- Node8 -->
<g id="node8" class="node">
<title>Node8</title>
<g id="a_node8"><a xlink:href="classRenderTarget.html" target="_top" xlink:title=" ">
<polygon fill="white" stroke="black" points="194,-73 194,-92 275,-92 275,-73 194,-73"/>
<text text-anchor="middle" x="234.5" y="-80" font-family="Helvetica,sans-Serif" font-size="10.00">RenderTarget</text>
</a>
</g>
</g>
<!-- Node3&#45;&gt;Node8 -->
<g id="edge8" class="edge">
<title>Node3&#45;&gt;Node8</title>
<path fill="none" stroke="midnightblue" d="M152.23,-149.89C173.28,-132.9 206.73,-105.91 223.77,-92.16"/>
<polygon fill="midnightblue" stroke="midnightblue" points="149.89,-147.27 144.31,-156.28 154.29,-152.72 149.89,-147.27"/>
</g>
<!-- Node10 -->
<g id="node10" class="node">
<title>Node10</title>
<g id="a_node10"><a xlink:href="classRenderSource.html" target="_top" xlink:title=" ">
<polygon fill="white" stroke="black" points="91.5,-73 91.5,-92 175.5,-92 175.5,-73 91.5,-73"/>
<text text-anchor="middle" x="133.5" y="-80" font-family="Helvetica,sans-Serif" font-size="10.00">RenderSource</text>
</a>
</g>
</g>
<!-- Node3&#45;&gt;Node10 -->
<g id="edge11" class="edge">
<title>Node3&#45;&gt;Node10</title>
<path fill="none" stroke="midnightblue" d="M133.5,-145.88C133.5,-128.9 133.5,-104.87 133.5,-92.16"/>
<polygon fill="midnightblue" stroke="midnightblue" points="130,-146.28 133.5,-156.28 137,-146.28 130,-146.28"/>
</g>
<!-- Node4 -->
<g id="node4" class="node">
<title>Node4</title>
<g id="a_node4"><a xlink:href="classirr_1_1core_1_1vector2d.html" target="_top" xlink:title=" ">
<polygon fill="white" stroke="black" points="293,-67.5 293,-97.5 396,-97.5 396,-67.5 293,-67.5"/>
<text text-anchor="start" x="301" y="-85.5" font-family="Helvetica,sans-Serif" font-size="10.00">irr::core::vector2d</text>
<text text-anchor="middle" x="344.5" y="-74.5" font-family="Helvetica,sans-Serif" font-size="10.00">&lt; f32 &gt;</text>
</a>
</g>
</g>
<!-- Node4&#45;&gt;Node1 -->
<g id="edge3" class="edge">
<title>Node4&#45;&gt;Node1</title>
<path fill="none" stroke="#9a32cd" stroke-dasharray="5,2" d="M313.94,-61.91C292.22,-47.99 264.11,-29.98 247.81,-19.53"/>
<polygon fill="#9a32cd" stroke="#9a32cd" points="312.2,-64.95 322.5,-67.4 315.97,-59.06 312.2,-64.95"/>
<text text-anchor="middle" x="308" y="-41" font-family="Helvetica,sans-Serif" font-size="10.00"> offset</text>
</g>
<!-- Node5 -->
<g id="node5" class="node">
<title>Node5</title>
<g id="a_node5"><a xlink:title=" ">
<polygon fill="white" stroke="#bfbfbf" points="309.5,-156.5 309.5,-175.5 341.5,-175.5 341.5,-156.5 309.5,-156.5"/>
<text text-anchor="middle" x="325.5" y="-163.5" font-family="Helvetica,sans-Serif" font-size="10.00">f32</text>
</a>
</g>
</g>
<!-- Node5&#45;&gt;Node4 -->
<g id="edge4" class="edge">
<title>Node5&#45;&gt;Node4</title>
<path fill="none" stroke="#9a32cd" stroke-dasharray="5,2" d="M326.66,-146.18C327.51,-136.97 328.99,-125.8 331.5,-116 333.07,-109.88 335.51,-103.37 337.85,-97.79"/>
<polygon fill="#9a32cd" stroke="#9a32cd" points="323.17,-145.96 325.89,-156.2 330.15,-146.5 323.17,-145.96"/>
<text text-anchor="middle" x="336.5" y="-130" font-family="Helvetica,sans-Serif" font-size="10.00"> X</text>
<text text-anchor="middle" x="336.5" y="-119" font-family="Helvetica,sans-Serif" font-size="10.00">Y</text>
</g>
<!-- Node6 -->
<g id="node6" class="node">
<title>Node6</title>
<g id="a_node6"><a xlink:href="classirr_1_1core_1_1vector2d.html" target="_top" xlink:title="2d vector template class with lots of operators and methods.">
<polygon fill="white" stroke="black" points="360,-156.5 360,-175.5 491,-175.5 491,-156.5 360,-156.5"/>
<text text-anchor="middle" x="425.5" y="-163.5" font-family="Helvetica,sans-Serif" font-size="10.00">irr::core::vector2d&lt; T &gt;</text>
</a>
</g>
</g>
<!-- Node6&#45;&gt;Node4 -->
<g id="edge5" class="edge">
<title>Node6&#45;&gt;Node4</title>
<path fill="none" stroke="orange" stroke-dasharray="5,2" d="M409.38,-148.78C394.52,-133.83 372.67,-111.84 358.51,-97.6"/>
<polygon fill="orange" stroke="orange" points="407.3,-151.65 416.83,-156.28 412.26,-146.72 407.3,-151.65"/>
<text text-anchor="middle" x="417.5" y="-124.5" font-family="Helvetica,sans-Serif" font-size="10.00"> &lt; f32 &gt;</text>
</g>
<!-- Node7 -->
<g id="node7" class="node">
<title>Node7</title>
<g id="a_node7"><a xlink:title=" ">
<polygon fill="white" stroke="#bfbfbf" points="411,-234.5 411,-253.5 440,-253.5 440,-234.5 411,-234.5"/>
<text text-anchor="middle" x="425.5" y="-241.5" font-family="Helvetica,sans-Serif" font-size="10.00">T</text>
</a>
</g>
</g>
<!-- Node7&#45;&gt;Node6 -->
<g id="edge6" class="edge">
<title>Node7&#45;&gt;Node6</title>
<path fill="none" stroke="#9a32cd" stroke-dasharray="5,2" d="M425.5,-224.22C425.5,-208.7 425.5,-187.36 425.5,-175.62"/>
<polygon fill="#9a32cd" stroke="#9a32cd" points="422,-224.28 425.5,-234.28 429,-224.28 422,-224.28"/>
<text text-anchor="middle" x="430.5" y="-208" font-family="Helvetica,sans-Serif" font-size="10.00"> X</text>
<text text-anchor="middle" x="430.5" y="-197" font-family="Helvetica,sans-Serif" font-size="10.00">Y</text>
</g>
<!-- Node8&#45;&gt;Node1 -->
<g id="edge7" class="edge">
<title>Node8&#45;&gt;Node1</title>
<path fill="none" stroke="#9a32cd" stroke-dasharray="5,2" d="M234.5,-62.44C234.5,-48.53 234.5,-30.32 234.5,-19.72"/>
<polygon fill="#9a32cd" stroke="#9a32cd" points="231,-62.86 234.5,-72.86 238,-62.86 231,-62.86"/>
<text text-anchor="middle" x="251" y="-41" font-family="Helvetica,sans-Serif" font-size="10.00"> target</text>
</g>
<!-- Node9 -->
<g id="node9" class="node">
<title>Node9</title>
<g id="a_node9"><a xlink:href="classbool.html" target="_top" xlink:title=" ">
<polygon fill="white" stroke="black" points="215.5,-156.5 215.5,-175.5 253.5,-175.5 253.5,-156.5 215.5,-156.5"/>
<text text-anchor="middle" x="234.5" y="-163.5" font-family="Helvetica,sans-Serif" font-size="10.00">bool</text>
</a>
</g>
</g>
<!-- Node9&#45;&gt;Node8 -->
<g id="edge9" class="edge">
<title>Node9&#45;&gt;Node8</title>
<path fill="none" stroke="#9a32cd" stroke-dasharray="5,2" d="M234.5,-145.88C234.5,-128.9 234.5,-104.87 234.5,-92.16"/>
<polygon fill="#9a32cd" stroke="#9a32cd" points="231,-146.28 234.5,-156.28 238,-146.28 231,-146.28"/>
<text text-anchor="middle" x="256" y="-124.5" font-family="Helvetica,sans-Serif" font-size="10.00"> m_clear</text>
</g>
<!-- Node10&#45;&gt;Node1 -->
<g id="edge10" class="edge">
<title>Node10&#45;&gt;Node1</title>
<path fill="none" stroke="#9a32cd" stroke-dasharray="5,2" d="M153.88,-66.77C165.69,-58.28 180.87,-47.45 194.5,-38 203.45,-31.79 213.62,-24.93 221.47,-19.67"/>
<polygon fill="#9a32cd" stroke="#9a32cd" points="151.66,-64.06 145.59,-72.74 155.75,-69.74 151.66,-64.06"/>
<text text-anchor="middle" x="212.5" y="-41" font-family="Helvetica,sans-Serif" font-size="10.00"> source</text>
</g>
<!-- Node11 -->
<g id="node11" class="node">
<title>Node11</title>
<g id="a_node11"><a xlink:title=" ">
<polygon fill="white" stroke="#bfbfbf" points="414,-73 414,-92 443,-92 443,-73 414,-73"/>
<text text-anchor="middle" x="428.5" y="-80" font-family="Helvetica,sans-Serif" font-size="10.00">u8</text>
</a>
</g>
</g>
<!-- Node11&#45;&gt;Node1 -->
<g id="edge12" class="edge">
<title>Node11&#45;&gt;Node1</title>
<path fill="none" stroke="#9a32cd" stroke-dasharray="5,2" d="M406.77,-67.64C406.35,-67.42 405.92,-67.21 405.5,-67 360.98,-44.98 305.79,-28.71 270.37,-19.54"/>
<polygon fill="#9a32cd" stroke="#9a32cd" points="405.22,-70.79 415.63,-72.74 408.71,-64.72 405.22,-70.79"/>
<text text-anchor="middle" x="395" y="-41" font-family="Helvetica,sans-Serif" font-size="10.00"> texture_index</text>
</g>
</g>
</svg>
