<?xml version="1.0" encoding="UTF-8" standalone="no"?>
<!DOCTYPE svg PUBLIC "-//W3C//DTD SVG 1.1//EN"
 "http://www.w3.org/Graphics/SVG/1.1/DTD/svg11.dtd">
<!-- Generated by graphviz version 2.43.0 (0)
 -->
<!-- Title: irr::video::COpenGL3ExtensionHandler Pages: 1 -->
<svg width="332pt" height="218pt"
 viewBox="0.00 0.00 332.00 218.00" xmlns="http://www.w3.org/2000/svg" xmlns:xlink="http://www.w3.org/1999/xlink">
<g id="graph0" class="graph" transform="scale(1 1) rotate(0) translate(4 214)">
<title>irr::video::COpenGL3ExtensionHandler</title>
<polygon fill="white" stroke="transparent" points="-4,4 -4,-214 328,-214 328,4 -4,4"/>
<!-- Node1 -->
<g id="node1" class="node">
<title>Node1</title>
<g id="a_node1"><a xlink:title=" ">
<polygon fill="#bfbfbf" stroke="black" points="76,-112.5 76,-142.5 241,-142.5 241,-112.5 76,-112.5"/>
<text text-anchor="start" x="84" y="-130.5" font-family="Helvetica,sans-Serif" font-size="10.00">irr::video::COpenGL3Extension</text>
<text text-anchor="middle" x="158.5" y="-119.5" font-family="Helvetica,sans-Serif" font-size="10.00">Handler</text>
</a>
</g>
</g>
<!-- Node3 -->
<g id="node3" class="node">
<title>Node3</title>
<g id="a_node3"><a xlink:href="classirr_1_1video_1_1COpenGL3DriverBase.html" target="_top" xlink:title=" ">
<polygon fill="white" stroke="black" points="73,-56.5 73,-75.5 244,-75.5 244,-56.5 73,-56.5"/>
<text text-anchor="middle" x="158.5" y="-63.5" font-family="Helvetica,sans-Serif" font-size="10.00">irr::video::COpenGL3DriverBase</text>
</a>
</g>
</g>
<!-- Node1&#45;&gt;Node3 -->
<g id="edge2" class="edge">
<title>Node1&#45;&gt;Node3</title>
<path fill="none" stroke="midnightblue" d="M158.5,-102.29C158.5,-92.86 158.5,-82.65 158.5,-75.66"/>
<polygon fill="midnightblue" stroke="midnightblue" points="155,-102.4 158.5,-112.4 162,-102.4 155,-102.4"/>
</g>
<!-- Node2 -->
<g id="node2" class="node">
<title>Node2</title>
<g id="a_node2"><a xlink:href="classirr_1_1video_1_1COGLESCoreExtensionHandler.html" target="_top" xlink:title=" ">
<polygon fill="white" stroke="black" points="70.5,-179.5 70.5,-209.5 246.5,-209.5 246.5,-179.5 70.5,-179.5"/>
<text text-anchor="start" x="78.5" y="-197.5" font-family="Helvetica,sans-Serif" font-size="10.00">irr::video::COGLESCoreExtension</text>
<text text-anchor="middle" x="158.5" y="-186.5" font-family="Helvetica,sans-Serif" font-size="10.00">Handler</text>
</a>
</g>
</g>
<!-- Node2&#45;&gt;Node1 -->
<g id="edge1" class="edge">
<title>Node2&#45;&gt;Node1</title>
<path fill="none" stroke="midnightblue" d="M158.5,-169.11C158.5,-160.15 158.5,-150.32 158.5,-142.58"/>
<polygon fill="midnightblue" stroke="midnightblue" points="155,-169.4 158.5,-179.4 162,-169.4 155,-169.4"/>
</g>
<!-- Node4 -->
<g id="node4" class="node">
<title>Node4</title>
<g id="a_node4"><a xlink:href="classirr_1_1video_1_1COpenGL3Driver.html" target="_top" xlink:title=" ">
<polygon fill="white" stroke="black" points="0,-0.5 0,-19.5 147,-19.5 147,-0.5 0,-0.5"/>
<text text-anchor="middle" x="73.5" y="-7.5" font-family="Helvetica,sans-Serif" font-size="10.00">irr::video::COpenGL3Driver</text>
</a>
</g>
</g>
<!-- Node3&#45;&gt;Node4 -->
<g id="edge3" class="edge">
<title>Node3&#45;&gt;Node4</title>
<path fill="none" stroke="midnightblue" d="M136.31,-50.9C120.72,-41 100.37,-28.07 87.12,-19.65"/>
<polygon fill="midnightblue" stroke="midnightblue" points="134.53,-53.92 144.84,-56.32 138.28,-48.01 134.53,-53.92"/>
</g>
<!-- Node5 -->
<g id="node5" class="node">
<title>Node5</title>
<g id="a_node5"><a xlink:href="classirr_1_1video_1_1COpenGLES2Driver.html" target="_top" xlink:title=" ">
<polygon fill="white" stroke="black" points="165,-0.5 165,-19.5 324,-19.5 324,-0.5 165,-0.5"/>
<text text-anchor="middle" x="244.5" y="-7.5" font-family="Helvetica,sans-Serif" font-size="10.00">irr::video::COpenGLES2Driver</text>
</a>
</g>
</g>
<!-- Node3&#45;&gt;Node5 -->
<g id="edge4" class="edge">
<title>Node3&#45;&gt;Node5</title>
<path fill="none" stroke="midnightblue" d="M180.95,-50.9C196.72,-41 217.31,-28.07 230.72,-19.65"/>
<polygon fill="midnightblue" stroke="midnightblue" points="178.93,-48.04 172.32,-56.32 182.65,-53.97 178.93,-48.04"/>
</g>
</g>
</svg>
