<?xml version="1.0" encoding="UTF-8" standalone="no"?>
<!DOCTYPE svg PUBLIC "-//W3C//DTD SVG 1.1//EN"
 "http://www.w3.org/Graphics/SVG/1.1/DTD/svg11.dtd">
<!-- Generated by graphviz version 2.43.0 (0)
 -->
<!-- Title: irr::gui::GUISkin::draw3DButtonPaneStandard Pages: 1 -->
<svg width="779pt" height="293pt"
 viewBox="0.00 0.00 779.00 292.50" xmlns="http://www.w3.org/2000/svg" xmlns:xlink="http://www.w3.org/1999/xlink">
<g id="graph0" class="graph" transform="scale(1 1) rotate(0) translate(4 288.5)">
<title>irr::gui::GUISkin::draw3DButtonPaneStandard</title>
<polygon fill="white" stroke="transparent" points="-4,4 -4,-288.5 775,-288.5 775,4 -4,4"/>
<!-- Node1 -->
<g id="node1" class="node">
<title>Node1</title>
<g id="a_node1"><a xlink:title="draws a standard 3d button pane">
<polygon fill="#bfbfbf" stroke="black" points="0,-122.5 0,-152.5 153,-152.5 153,-122.5 0,-122.5"/>
<text text-anchor="start" x="8" y="-140.5" font-family="Helvetica,sans-Serif" font-size="10.00">irr::gui::GUISkin::</text>
<text text-anchor="middle" x="76.5" y="-129.5" font-family="Helvetica,sans-Serif" font-size="10.00">draw3DButtonPaneStandard</text>
</a>
</g>
</g>
<!-- Node2 -->
<g id="node2" class="node">
<title>Node2</title>
<g id="a_node2"><a xlink:href="classirr_1_1gui_1_1GUISkin.html#a792f0dc23c0091f50a816615482b85ad" target="_top" xlink:title="draws a standard 3d button pane">
<polygon fill="white" stroke="black" points="189,-122.5 189,-152.5 380,-152.5 380,-122.5 189,-122.5"/>
<text text-anchor="start" x="197" y="-140.5" font-family="Helvetica,sans-Serif" font-size="10.00">irr::gui::GUISkin::</text>
<text text-anchor="middle" x="284.5" y="-129.5" font-family="Helvetica,sans-Serif" font-size="10.00">drawColored3DButtonPaneStandard</text>
</a>
</g>
</g>
<!-- Node1&#45;&gt;Node2 -->
<g id="edge1" class="edge">
<title>Node1&#45;&gt;Node2</title>
<path fill="none" stroke="midnightblue" d="M153.04,-137.5C161.37,-137.5 169.97,-137.5 178.58,-137.5"/>
<polygon fill="midnightblue" stroke="midnightblue" points="178.68,-141 188.68,-137.5 178.68,-134 178.68,-141"/>
</g>
<!-- Node3 -->
<g id="node3" class="node">
<title>Node3</title>
<g id="a_node3"><a xlink:href="classirr_1_1video_1_1SColor.html#a20bfa471b5cf672db83355c181a3cae6" target="_top" xlink:title="Interpolates the color with a f32 value to another color.">
<polygon fill="white" stroke="black" points="416,-122.5 416,-152.5 514,-152.5 514,-122.5 416,-122.5"/>
<text text-anchor="start" x="424" y="-140.5" font-family="Helvetica,sans-Serif" font-size="10.00">irr::video::SColor</text>
<text text-anchor="middle" x="465" y="-129.5" font-family="Helvetica,sans-Serif" font-size="10.00">::getInterpolated</text>
</a>
</g>
</g>
<!-- Node2&#45;&gt;Node3 -->
<g id="edge2" class="edge">
<title>Node2&#45;&gt;Node3</title>
<path fill="none" stroke="midnightblue" d="M380.24,-137.5C388.92,-137.5 397.53,-137.5 405.75,-137.5"/>
<polygon fill="midnightblue" stroke="midnightblue" points="405.91,-141 415.91,-137.5 405.91,-134 405.91,-141"/>
</g>
<!-- Node4 -->
<g id="node4" class="node">
<title>Node4</title>
<g id="a_node4"><a xlink:href="namespaceirr_1_1core.html#a6162f685b68f629e77336081d3316969" target="_top" xlink:title="clamps a value between low and high">
<polygon fill="white" stroke="black" points="554,-246 554,-265 644,-265 644,-246 554,-246"/>
<text text-anchor="middle" x="599" y="-253" font-family="Helvetica,sans-Serif" font-size="10.00">irr::core::clamp</text>
</a>
</g>
</g>
<!-- Node3&#45;&gt;Node4 -->
<g id="edge3" class="edge">
<title>Node3&#45;&gt;Node4</title>
<path fill="none" stroke="midnightblue" d="M475.66,-152.72C489.73,-173.83 517.73,-212.05 550,-235.5 553.03,-237.7 556.33,-239.71 559.74,-241.54"/>
<polygon fill="midnightblue" stroke="midnightblue" points="558.38,-244.77 568.91,-245.94 561.42,-238.46 558.38,-244.77"/>
</g>
<!-- Node7 -->
<g id="node7" class="node">
<title>Node7</title>
<g id="a_node7"><a xlink:href="classirr_1_1video_1_1SColor.html#a8b0bcff9036b06e3483978a84a924b91" target="_top" xlink:title="Returns the alpha component of the color.">
<polygon fill="white" stroke="black" points="550,-196.5 550,-226.5 648,-226.5 648,-196.5 550,-196.5"/>
<text text-anchor="start" x="558" y="-214.5" font-family="Helvetica,sans-Serif" font-size="10.00">irr::video::SColor</text>
<text text-anchor="middle" x="599" y="-203.5" font-family="Helvetica,sans-Serif" font-size="10.00">::getAlpha</text>
</a>
</g>
</g>
<!-- Node3&#45;&gt;Node7 -->
<g id="edge6" class="edge">
<title>Node3&#45;&gt;Node7</title>
<path fill="none" stroke="midnightblue" d="M491.18,-152.61C507.77,-162.47 530.04,-175.49 550,-186.5 553.05,-188.18 556.23,-189.91 559.43,-191.62"/>
<polygon fill="midnightblue" stroke="midnightblue" points="557.96,-194.8 568.44,-196.38 561.23,-188.61 557.96,-194.8"/>
</g>
<!-- Node8 -->
<g id="node8" class="node">
<title>Node8</title>
<g id="a_node8"><a xlink:href="classirr_1_1video_1_1SColor.html#afb60ac456b2efc2f2a4f04a643293d26" target="_top" xlink:title="Returns the blue component of the color.">
<polygon fill="white" stroke="black" points="550,-147.5 550,-177.5 648,-177.5 648,-147.5 550,-147.5"/>
<text text-anchor="start" x="558" y="-165.5" font-family="Helvetica,sans-Serif" font-size="10.00">irr::video::SColor</text>
<text text-anchor="middle" x="599" y="-154.5" font-family="Helvetica,sans-Serif" font-size="10.00">::getBlue</text>
</a>
</g>
</g>
<!-- Node3&#45;&gt;Node8 -->
<g id="edge7" class="edge">
<title>Node3&#45;&gt;Node8</title>
<path fill="none" stroke="midnightblue" d="M514.03,-146.6C522.4,-148.18 531.19,-149.85 539.8,-151.48"/>
<polygon fill="midnightblue" stroke="midnightblue" points="539.31,-154.95 549.79,-153.37 540.61,-148.07 539.31,-154.95"/>
</g>
<!-- Node9 -->
<g id="node9" class="node">
<title>Node9</title>
<g id="a_node9"><a xlink:href="classirr_1_1video_1_1SColor.html#a198773366f2a5436c1ca4adc9037bb8d" target="_top" xlink:title="Returns the green component of the color.">
<polygon fill="white" stroke="black" points="550,-98.5 550,-128.5 648,-128.5 648,-98.5 550,-98.5"/>
<text text-anchor="start" x="558" y="-116.5" font-family="Helvetica,sans-Serif" font-size="10.00">irr::video::SColor</text>
<text text-anchor="middle" x="599" y="-105.5" font-family="Helvetica,sans-Serif" font-size="10.00">::getGreen</text>
</a>
</g>
</g>
<!-- Node3&#45;&gt;Node9 -->
<g id="edge8" class="edge">
<title>Node3&#45;&gt;Node9</title>
<path fill="none" stroke="midnightblue" d="M514.03,-128.77C522.4,-127.25 531.19,-125.65 539.8,-124.08"/>
<polygon fill="midnightblue" stroke="midnightblue" points="540.57,-127.5 549.79,-122.27 539.32,-120.61 540.57,-127.5"/>
</g>
<!-- Node10 -->
<g id="node10" class="node">
<title>Node10</title>
<g id="a_node10"><a xlink:href="classirr_1_1video_1_1SColor.html#a70d11ec2247581c79ee11e0e1b511978" target="_top" xlink:title="Returns the red component of the color.">
<polygon fill="white" stroke="black" points="550,-49.5 550,-79.5 648,-79.5 648,-49.5 550,-49.5"/>
<text text-anchor="start" x="558" y="-67.5" font-family="Helvetica,sans-Serif" font-size="10.00">irr::video::SColor</text>
<text text-anchor="middle" x="599" y="-56.5" font-family="Helvetica,sans-Serif" font-size="10.00">::getRed</text>
</a>
</g>
</g>
<!-- Node3&#45;&gt;Node10 -->
<g id="edge9" class="edge">
<title>Node3&#45;&gt;Node10</title>
<path fill="none" stroke="midnightblue" d="M490.76,-122.5C507.36,-112.57 529.8,-99.42 550,-88.5 552.66,-87.06 555.42,-85.6 558.2,-84.15"/>
<polygon fill="midnightblue" stroke="midnightblue" points="559.82,-87.25 567.12,-79.57 556.63,-81.02 559.82,-87.25"/>
</g>
<!-- Node11 -->
<g id="node11" class="node">
<title>Node11</title>
<g id="a_node11"><a xlink:href="classirr_1_1video_1_1SColor.html#ab001c0c2515ff5f8a0b324d1345485f4" target="_top" xlink:title="Constructor of the Color. Does nothing.">
<polygon fill="white" stroke="black" points="550,-0.5 550,-30.5 648,-30.5 648,-0.5 550,-0.5"/>
<text text-anchor="start" x="558" y="-18.5" font-family="Helvetica,sans-Serif" font-size="10.00">irr::video::SColor</text>
<text text-anchor="middle" x="599" y="-7.5" font-family="Helvetica,sans-Serif" font-size="10.00">::SColor</text>
</a>
</g>
</g>
<!-- Node3&#45;&gt;Node11 -->
<g id="edge10" class="edge">
<title>Node3&#45;&gt;Node11</title>
<path fill="none" stroke="midnightblue" d="M476.13,-122.24C490.55,-101.41 518.74,-63.91 550,-39.5 551.57,-38.27 553.21,-37.09 554.9,-35.94"/>
<polygon fill="midnightblue" stroke="midnightblue" points="556.99,-38.76 563.67,-30.54 553.32,-32.8 556.99,-38.76"/>
</g>
<!-- Node5 -->
<g id="node5" class="node">
<title>Node5</title>
<g id="a_node5"><a xlink:href="namespaceirr_1_1core.html#afca1ce7ac54e0c31a9047947f4c7319b" target="_top" xlink:title="returns maximum of two values. Own implementation to get rid of the STL (VS6 problems)">
<polygon fill="white" stroke="black" points="684,-265 684,-284 771,-284 771,-265 684,-265"/>
<text text-anchor="middle" x="727.5" y="-272" font-family="Helvetica,sans-Serif" font-size="10.00">irr::core::max_</text>
</a>
</g>
</g>
<!-- Node4&#45;&gt;Node5 -->
<g id="edge4" class="edge">
<title>Node4&#45;&gt;Node5</title>
<path fill="none" stroke="midnightblue" d="M644.24,-262.15C653.76,-263.57 663.91,-265.1 673.72,-266.57"/>
<polygon fill="midnightblue" stroke="midnightblue" points="673.36,-270.06 683.77,-268.08 674.4,-263.14 673.36,-270.06"/>
</g>
<!-- Node6 -->
<g id="node6" class="node">
<title>Node6</title>
<g id="a_node6"><a xlink:href="namespaceirr_1_1core.html#a9d34bfdbbe9c136b01ae04974572bc11" target="_top" xlink:title="returns minimum of two values. Own implementation to get rid of the STL (VS6 problems)">
<polygon fill="white" stroke="black" points="685.5,-227 685.5,-246 769.5,-246 769.5,-227 685.5,-227"/>
<text text-anchor="middle" x="727.5" y="-234" font-family="Helvetica,sans-Serif" font-size="10.00">irr::core::min_</text>
</a>
</g>
</g>
<!-- Node4&#45;&gt;Node6 -->
<g id="edge5" class="edge">
<title>Node4&#45;&gt;Node6</title>
<path fill="none" stroke="midnightblue" d="M644.24,-248.85C654.29,-247.35 665.04,-245.73 675.35,-244.18"/>
<polygon fill="midnightblue" stroke="midnightblue" points="676.09,-247.61 685.46,-242.66 675.05,-240.69 676.09,-247.61"/>
</g>
</g>
</svg>
