<?xml version="1.0" encoding="UTF-8" standalone="no"?>
<!DOCTYPE svg PUBLIC "-//W3C//DTD SVG 1.1//EN"
 "http://www.w3.org/Graphics/SVG/1.1/DTD/svg11.dtd">
<!-- Generated by graphviz version 2.43.0 (0)
 -->
<!-- Title: Catch::Generators::RangeGenerator&lt; T &gt; Pages: 1 -->
<svg width="290pt" height="207pt"
 viewBox="0.00 0.00 289.50 207.00" xmlns="http://www.w3.org/2000/svg" xmlns:xlink="http://www.w3.org/1999/xlink">
<g id="graph0" class="graph" transform="scale(1 1) rotate(0) translate(4 203)">
<title>Catch::Generators::RangeGenerator&lt; T &gt;</title>
<polygon fill="white" stroke="transparent" points="-4,4 -4,-203 285.5,-203 285.5,4 -4,4"/>
<!-- Node1 -->
<g id="node1" class="node">
<title>Node1</title>
<g id="a_node1"><a xlink:title=" ">
<polygon fill="#bfbfbf" stroke="black" points="95,-0.5 95,-30.5 220,-30.5 220,-0.5 95,-0.5"/>
<text text-anchor="start" x="103" y="-18.5" font-family="Helvetica,sans-Serif" font-size="10.00">Catch::Generators::</text>
<text text-anchor="middle" x="157.5" y="-7.5" font-family="Helvetica,sans-Serif" font-size="10.00">RangeGenerator&lt; T &gt;</text>
</a>
</g>
</g>
<!-- Node2 -->
<g id="node2" class="node">
<title>Node2</title>
<g id="a_node2"><a xlink:href="structCatch_1_1Generators_1_1IGenerator.html" target="_top" xlink:title=" ">
<polygon fill="white" stroke="black" points="10.5,-100.5 10.5,-130.5 120.5,-130.5 120.5,-100.5 10.5,-100.5"/>
<text text-anchor="start" x="18.5" y="-118.5" font-family="Helvetica,sans-Serif" font-size="10.00">Catch::Generators::</text>
<text text-anchor="middle" x="65.5" y="-107.5" font-family="Helvetica,sans-Serif" font-size="10.00">IGenerator&lt; T &gt;</text>
</a>
</g>
</g>
<!-- Node2&#45;&gt;Node1 -->
<g id="edge1" class="edge">
<title>Node2&#45;&gt;Node1</title>
<path fill="none" stroke="midnightblue" d="M85.57,-93.12C103.41,-74.12 128.98,-46.88 144.34,-30.51"/>
<polygon fill="midnightblue" stroke="midnightblue" points="82.97,-90.77 78.68,-100.46 88.08,-95.56 82.97,-90.77"/>
</g>
<!-- Node3 -->
<g id="node3" class="node">
<title>Node3</title>
<g id="a_node3"><a xlink:href="classCatch_1_1Generators_1_1GeneratorUntypedBase.html" target="_top" xlink:title=" ">
<polygon fill="white" stroke="black" points="0,-168.5 0,-198.5 131,-198.5 131,-168.5 0,-168.5"/>
<text text-anchor="start" x="8" y="-186.5" font-family="Helvetica,sans-Serif" font-size="10.00">Catch::Generators::</text>
<text text-anchor="middle" x="65.5" y="-175.5" font-family="Helvetica,sans-Serif" font-size="10.00">GeneratorUntypedBase</text>
</a>
</g>
</g>
<!-- Node3&#45;&gt;Node2 -->
<g id="edge2" class="edge">
<title>Node3&#45;&gt;Node2</title>
<path fill="none" stroke="midnightblue" d="M65.5,-158.03C65.5,-148.86 65.5,-138.74 65.5,-130.79"/>
<polygon fill="midnightblue" stroke="midnightblue" points="62,-158.18 65.5,-168.18 69,-158.18 62,-158.18"/>
</g>
<!-- Node4 -->
<g id="node4" class="node">
<title>Node4</title>
<g id="a_node4"><a xlink:href="classbool.html" target="_top" xlink:title=" ">
<polygon fill="white" stroke="black" points="138.5,-106 138.5,-125 176.5,-125 176.5,-106 138.5,-106"/>
<text text-anchor="middle" x="157.5" y="-113" font-family="Helvetica,sans-Serif" font-size="10.00">bool</text>
</a>
</g>
</g>
<!-- Node4&#45;&gt;Node1 -->
<g id="edge3" class="edge">
<title>Node4&#45;&gt;Node1</title>
<path fill="none" stroke="#9a32cd" stroke-dasharray="5,2" d="M157.5,-95.69C157.5,-76.69 157.5,-47.77 157.5,-30.64"/>
<polygon fill="#9a32cd" stroke="#9a32cd" points="154,-95.8 157.5,-105.8 161,-95.8 154,-95.8"/>
<text text-anchor="middle" x="186.5" y="-63" font-family="Helvetica,sans-Serif" font-size="10.00"> m_positive</text>
</g>
<!-- Node5 -->
<g id="node5" class="node">
<title>Node5</title>
<g id="a_node5"><a xlink:title=" ">
<polygon fill="white" stroke="#bfbfbf" points="224,-106 224,-125 253,-125 253,-106 224,-106"/>
<text text-anchor="middle" x="238.5" y="-113" font-family="Helvetica,sans-Serif" font-size="10.00">T</text>
</a>
</g>
</g>
<!-- Node5&#45;&gt;Node1 -->
<g id="edge4" class="edge">
<title>Node5&#45;&gt;Node1</title>
<path fill="none" stroke="#9a32cd" stroke-dasharray="5,2" d="M235.98,-95.82C233.24,-81.64 227.66,-62.37 216.5,-49 210.2,-41.46 201.69,-35.37 193.09,-30.59"/>
<polygon fill="#9a32cd" stroke="#9a32cd" points="232.55,-96.58 237.62,-105.89 239.46,-95.46 232.55,-96.58"/>
<text text-anchor="middle" x="256.5" y="-74" font-family="Helvetica,sans-Serif" font-size="10.00"> m_end</text>
<text text-anchor="middle" x="256.5" y="-63" font-family="Helvetica,sans-Serif" font-size="10.00">m_current</text>
<text text-anchor="middle" x="256.5" y="-52" font-family="Helvetica,sans-Serif" font-size="10.00">m_step</text>
</g>
</g>
</svg>
