<?xml version="1.0" encoding="UTF-8" standalone="no"?>
<!DOCTYPE svg PUBLIC "-//W3C//DTD SVG 1.1//EN"
 "http://www.w3.org/Graphics/SVG/1.1/DTD/svg11.dtd">
<!-- Generated by graphviz version 2.43.0 (0)
 -->
<!-- Title: Catch::StringRef Pages: 1 -->
<svg width="118pt" height="106pt"
 viewBox="0.00 0.00 118.00 106.00" xmlns="http://www.w3.org/2000/svg" xmlns:xlink="http://www.w3.org/1999/xlink">
<g id="graph0" class="graph" transform="scale(1 1) rotate(0) translate(4 102)">
<title>Catch::StringRef</title>
<polygon fill="white" stroke="transparent" points="-4,4 -4,-102 114,-102 114,4 -4,4"/>
<!-- Node1 -->
<g id="node1" class="node">
<title>Node1</title>
<g id="a_node1"><a xlink:title=" ">
<polygon fill="#bfbfbf" stroke="black" points="4.5,-0.5 4.5,-19.5 99.5,-19.5 99.5,-0.5 4.5,-0.5"/>
<text text-anchor="middle" x="52" y="-7.5" font-family="Helvetica,sans-Serif" font-size="10.00">Catch::StringRef</text>
</a>
</g>
</g>
<!-- Node2 -->
<g id="node2" class="node">
<title>Node2</title>
<g id="a_node2"><a xlink:title=" ">
<polygon fill="white" stroke="#bfbfbf" points="0,-78.5 0,-97.5 38,-97.5 38,-78.5 0,-78.5"/>
<text text-anchor="middle" x="19" y="-85.5" font-family="Helvetica,sans-Serif" font-size="10.00">char</text>
</a>
</g>
</g>
<!-- Node2&#45;&gt;Node1 -->
<g id="edge1" class="edge">
<title>Node2&#45;&gt;Node1</title>
<path fill="none" stroke="#9a32cd" stroke-dasharray="5,2" d="M15.84,-68.19C15.1,-58.7 15.58,-47.27 20,-38 23.63,-30.39 30.54,-24.13 37.01,-19.56"/>
<polygon fill="#9a32cd" stroke="#9a32cd" points="12.37,-68.7 17.09,-78.18 19.32,-67.83 12.37,-68.7"/>
<text text-anchor="middle" x="41.5" y="-52" font-family="Helvetica,sans-Serif" font-size="10.00"> m_start</text>
<text text-anchor="middle" x="41.5" y="-41" font-family="Helvetica,sans-Serif" font-size="10.00">s_empty</text>
</g>
<!-- Node3 -->
<g id="node3" class="node">
<title>Node3</title>
<g id="a_node3"><a xlink:title=" ">
<polygon fill="white" stroke="#bfbfbf" points="62.5,-78.5 62.5,-97.5 107.5,-97.5 107.5,-78.5 62.5,-78.5"/>
<text text-anchor="middle" x="85" y="-85.5" font-family="Helvetica,sans-Serif" font-size="10.00">size_t</text>
</a>
</g>
</g>
<!-- Node3&#45;&gt;Node1 -->
<g id="edge2" class="edge">
<title>Node3&#45;&gt;Node1</title>
<path fill="none" stroke="#9a32cd" stroke-dasharray="5,2" d="M77.04,-68.67C70.29,-53.11 60.89,-31.47 55.74,-19.62"/>
<polygon fill="#9a32cd" stroke="#9a32cd" points="74.02,-70.5 81.21,-78.28 80.44,-67.72 74.02,-70.5"/>
<text text-anchor="middle" x="91" y="-46.5" font-family="Helvetica,sans-Serif" font-size="10.00"> m_size</text>
</g>
</g>
</svg>
