<?xml version="1.0" encoding="UTF-8" standalone="no"?>
<!DOCTYPE svg PUBLIC "-//W3C//DTD SVG 1.1//EN"
 "http://www.w3.org/Graphics/SVG/1.1/DTD/svg11.dtd">
<!-- Generated by graphviz version 2.43.0 (0)
 -->
<!-- Title: Catch::UnaryExpr&lt; LhsT &gt; Pages: 1 -->
<svg width="241pt" height="173pt"
 viewBox="0.00 0.00 240.50 173.00" xmlns="http://www.w3.org/2000/svg" xmlns:xlink="http://www.w3.org/1999/xlink">
<g id="graph0" class="graph" transform="scale(1 1) rotate(0) translate(4 169)">
<title>Catch::UnaryExpr&lt; LhsT &gt;</title>
<polygon fill="white" stroke="transparent" points="-4,4 -4,-169 236.5,-169 236.5,4 -4,4"/>
<!-- Node1 -->
<g id="node1" class="node">
<title>Node1</title>
<g id="a_node1"><a xlink:title=" ">
<polygon fill="#bfbfbf" stroke="black" points="86.5,-0.5 86.5,-19.5 232.5,-19.5 232.5,-0.5 86.5,-0.5"/>
<text text-anchor="middle" x="159.5" y="-7.5" font-family="Helvetica,sans-Serif" font-size="10.00">Catch::UnaryExpr&lt; LhsT &gt;</text>
</a>
</g>
</g>
<!-- Node2 -->
<g id="node2" class="node">
<title>Node2</title>
<g id="a_node2"><a xlink:href="structCatch_1_1ITransientExpression.html" target="_top" xlink:title=" ">
<polygon fill="white" stroke="black" points="0,-67.5 0,-86.5 151,-86.5 151,-67.5 0,-67.5"/>
<text text-anchor="middle" x="75.5" y="-74.5" font-family="Helvetica,sans-Serif" font-size="10.00">Catch::ITransientExpression</text>
</a>
</g>
</g>
<!-- Node2&#45;&gt;Node1 -->
<g id="edge1" class="edge">
<title>Node2&#45;&gt;Node1</title>
<path fill="none" stroke="midnightblue" d="M94.8,-61.07C111.38,-48.24 134.71,-30.19 148.35,-19.63"/>
<polygon fill="midnightblue" stroke="midnightblue" points="92.6,-58.35 86.83,-67.23 96.88,-63.88 92.6,-58.35"/>
</g>
<!-- Node3 -->
<g id="node3" class="node">
<title>Node3</title>
<g id="a_node3"><a xlink:href="classbool.html" target="_top" xlink:title=" ">
<polygon fill="white" stroke="black" points="56.5,-145.5 56.5,-164.5 94.5,-164.5 94.5,-145.5 56.5,-145.5"/>
<text text-anchor="middle" x="75.5" y="-152.5" font-family="Helvetica,sans-Serif" font-size="10.00">bool</text>
</a>
</g>
</g>
<!-- Node3&#45;&gt;Node2 -->
<g id="edge2" class="edge">
<title>Node3&#45;&gt;Node2</title>
<path fill="none" stroke="#9a32cd" stroke-dasharray="5,2" d="M75.5,-135.22C75.5,-119.7 75.5,-98.36 75.5,-86.62"/>
<polygon fill="#9a32cd" stroke="#9a32cd" points="72,-135.28 75.5,-145.28 79,-135.28 72,-135.28"/>
<text text-anchor="middle" x="130" y="-119" font-family="Helvetica,sans-Serif" font-size="10.00"> m_result</text>
<text text-anchor="middle" x="130" y="-108" font-family="Helvetica,sans-Serif" font-size="10.00">m_isBinaryExpression</text>
</g>
<!-- Node4 -->
<g id="node4" class="node">
<title>Node4</title>
<g id="a_node4"><a xlink:title=" ">
<polygon fill="white" stroke="#bfbfbf" points="169,-67.5 169,-86.5 208,-86.5 208,-67.5 169,-67.5"/>
<text text-anchor="middle" x="188.5" y="-74.5" font-family="Helvetica,sans-Serif" font-size="10.00">LhsT</text>
</a>
</g>
</g>
<!-- Node4&#45;&gt;Node1 -->
<g id="edge3" class="edge">
<title>Node4&#45;&gt;Node1</title>
<path fill="none" stroke="#9a32cd" stroke-dasharray="5,2" d="M180.38,-57.79C174.81,-45.31 167.67,-29.31 163.35,-19.63"/>
<polygon fill="#9a32cd" stroke="#9a32cd" points="177.32,-59.53 184.59,-67.23 183.71,-56.68 177.32,-59.53"/>
<text text-anchor="middle" x="192" y="-41" font-family="Helvetica,sans-Serif" font-size="10.00"> m_lhs</text>
</g>
</g>
</svg>
