<?xml version="1.0" encoding="UTF-8" standalone="no"?>
<!DOCTYPE svg PUBLIC "-//W3C//DTD SVG 1.1//EN"
 "http://www.w3.org/Graphics/SVG/1.1/DTD/svg11.dtd">
<!-- Generated by graphviz version 2.43.0 (0)
 -->
<!-- Title: FontEngine::getTextHeight Pages: 1 -->
<svg width="466pt" height="39pt"
 viewBox="0.00 0.00 466.00 39.00" xmlns="http://www.w3.org/2000/svg" xmlns:xlink="http://www.w3.org/1999/xlink">
<g id="graph0" class="graph" transform="scale(1 1) rotate(0) translate(4 35)">
<title>FontEngine::getTextHeight</title>
<polygon fill="white" stroke="transparent" points="-4,4 -4,-35 462,-35 462,4 -4,4"/>
<!-- Node1 -->
<g id="node1" class="node">
<title>Node1</title>
<g id="a_node1"><a xlink:title=" ">
<polygon fill="#bfbfbf" stroke="black" points="0,-6 0,-25 145,-25 145,-6 0,-6"/>
<text text-anchor="middle" x="72.5" y="-13" font-family="Helvetica,sans-Serif" font-size="10.00">FontEngine::getTextHeight</text>
</a>
</g>
</g>
<!-- Node2 -->
<g id="node2" class="node">
<title>Node2</title>
<g id="a_node2"><a xlink:href="classFontEngine.html#a2f730dd25243d78870d2b55e31a591dc" target="_top" xlink:title=" ">
<polygon fill="white" stroke="black" points="181,-6 181,-25 326,-25 326,-6 181,-6"/>
<text text-anchor="middle" x="253.5" y="-13" font-family="Helvetica,sans-Serif" font-size="10.00">FontEngine::getTextHeight</text>
</a>
</g>
</g>
<!-- Node1&#45;&gt;Node2 -->
<g id="edge1" class="edge">
<title>Node1&#45;&gt;Node2</title>
<path fill="none" stroke="midnightblue" d="M145.02,-15.5C153.49,-15.5 162.18,-15.5 170.78,-15.5"/>
<polygon fill="midnightblue" stroke="midnightblue" points="170.8,-19 180.8,-15.5 170.8,-12 170.8,-19"/>
</g>
<!-- Node3 -->
<g id="node3" class="node">
<title>Node3</title>
<g id="a_node3"><a xlink:href="classirr_1_1gui_1_1IGUIFont.html#aa7612db0c9dc2837b44a1a2fa5668797" target="_top" xlink:title="Calculates the width and height of a given string of text.">
<polygon fill="white" stroke="black" points="362,-0.5 362,-30.5 458,-30.5 458,-0.5 362,-0.5"/>
<text text-anchor="start" x="370" y="-18.5" font-family="Helvetica,sans-Serif" font-size="10.00">irr::gui::IGUIFont</text>
<text text-anchor="middle" x="410" y="-7.5" font-family="Helvetica,sans-Serif" font-size="10.00">::getDimension</text>
</a>
</g>
</g>
<!-- Node2&#45;&gt;Node3 -->
<g id="edge2" class="edge">
<title>Node2&#45;&gt;Node3</title>
<path fill="none" stroke="midnightblue" d="M326.32,-15.5C334.74,-15.5 343.25,-15.5 351.44,-15.5"/>
<polygon fill="midnightblue" stroke="midnightblue" points="351.62,-19 361.62,-15.5 351.62,-12 351.62,-19"/>
</g>
</g>
</svg>
