<?xml version="1.0" encoding="UTF-8" standalone="no"?>
<!DOCTYPE svg PUBLIC "-//W3C//DTD SVG 1.1//EN"
 "http://www.w3.org/Graphics/SVG/1.1/DTD/svg11.dtd">
<!-- Generated by graphviz version 2.43.0 (0)
 -->
<!-- Title: TextureBuffer Pages: 1 -->
<svg width="855pt" height="244pt"
 viewBox="0.00 0.00 855.00 244.00" xmlns="http://www.w3.org/2000/svg" xmlns:xlink="http://www.w3.org/1999/xlink">
<g id="graph0" class="graph" transform="scale(1 1) rotate(0) translate(4 240)">
<title>TextureBuffer</title>
<polygon fill="white" stroke="transparent" points="-4,4 -4,-240 851,-240 851,4 -4,4"/>
<!-- Node1 -->
<g id="node1" class="node">
<title>Node1</title>
<g id="a_node1"><a xlink:title=" ">
<polygon fill="#bfbfbf" stroke="black" points="765,-134.5 765,-153.5 847,-153.5 847,-134.5 765,-134.5"/>
<text text-anchor="middle" x="806" y="-141.5" font-family="Helvetica,sans-Serif" font-size="10.00">TextureBuffer</text>
</a>
</g>
</g>
<!-- Node2 -->
<g id="node2" class="node">
<title>Node2</title>
<g id="a_node2"><a xlink:href="classRenderSource.html" target="_top" xlink:title=" ">
<polygon fill="white" stroke="black" points="516.5,-216.5 516.5,-235.5 600.5,-235.5 600.5,-216.5 516.5,-216.5"/>
<text text-anchor="middle" x="558.5" y="-223.5" font-family="Helvetica,sans-Serif" font-size="10.00">RenderSource</text>
</a>
</g>
</g>
<!-- Node2&#45;&gt;Node1 -->
<g id="edge1" class="edge">
<title>Node2&#45;&gt;Node1</title>
<path fill="none" stroke="midnightblue" d="M610.86,-223.72C649.79,-220.35 703.77,-212.11 747,-192 766.91,-182.74 785.67,-164.96 796.21,-153.83"/>
<polygon fill="midnightblue" stroke="midnightblue" points="610.5,-220.23 600.81,-224.51 611.05,-227.21 610.5,-220.23"/>
</g>
<!-- Node3 -->
<g id="node3" class="node">
<title>Node3</title>
<g id="a_node3"><a xlink:href="classRenderPipelineObject.html" target="_top" xlink:title=" ">
<polygon fill="white" stroke="black" points="217,-216.5 217,-235.5 339,-235.5 339,-216.5 217,-216.5"/>
<text text-anchor="middle" x="278" y="-223.5" font-family="Helvetica,sans-Serif" font-size="10.00">RenderPipelineObject</text>
</a>
</g>
</g>
<!-- Node3&#45;&gt;Node2 -->
<g id="edge2" class="edge">
<title>Node3&#45;&gt;Node2</title>
<path fill="none" stroke="midnightblue" d="M349.39,-226C402.16,-226 472.55,-226 516.45,-226"/>
<polygon fill="midnightblue" stroke="midnightblue" points="349.09,-222.5 339.09,-226 349.09,-229.5 349.09,-222.5"/>
</g>
<!-- Node4 -->
<g id="node4" class="node">
<title>Node4</title>
<g id="a_node4"><a xlink:title=" ">
<polygon fill="white" stroke="#bfbfbf" points="544,-178.5 544,-197.5 573,-197.5 573,-178.5 544,-178.5"/>
<text text-anchor="middle" x="558.5" y="-185.5" font-family="Helvetica,sans-Serif" font-size="10.00">u8</text>
</a>
</g>
</g>
<!-- Node4&#45;&gt;Node1 -->
<g id="edge3" class="edge">
<title>Node4&#45;&gt;Node1</title>
<path fill="none" stroke="#9a32cd" stroke-dasharray="5,2" d="M583.17,-185.11C618.86,-180.58 688.53,-171.05 747,-159 754.64,-157.43 762.78,-155.49 770.48,-153.53"/>
<polygon fill="#9a32cd" stroke="#9a32cd" points="582.72,-181.64 573.23,-186.35 583.59,-188.58 582.72,-181.64"/>
<text text-anchor="middle" x="693.5" y="-180" font-family="Helvetica,sans-Serif" font-size="10.00"> NO_DEPTH_TEXTURE</text>
</g>
<!-- Node5 -->
<g id="node5" class="node">
<title>Node5</title>
<g id="a_node5"><a xlink:href="classirr_1_1core_1_1array.html" target="_top" xlink:title=" ">
<polygon fill="white" stroke="black" points="496.5,-129 496.5,-159 620.5,-159 620.5,-129 496.5,-129"/>
<text text-anchor="start" x="504.5" y="-147" font-family="Helvetica,sans-Serif" font-size="10.00">irr::core::array&lt; video</text>
<text text-anchor="middle" x="558.5" y="-136" font-family="Helvetica,sans-Serif" font-size="10.00">::ITexture * &gt;</text>
</a>
</g>
</g>
<!-- Node5&#45;&gt;Node1 -->
<g id="edge4" class="edge">
<title>Node5&#45;&gt;Node1</title>
<path fill="none" stroke="#9a32cd" stroke-dasharray="5,2" d="M630.76,-144C674.31,-144 728.42,-144 764.69,-144"/>
<polygon fill="#9a32cd" stroke="#9a32cd" points="630.5,-140.5 620.5,-144 630.5,-147.5 630.5,-140.5"/>
<text text-anchor="middle" x="693.5" y="-147" font-family="Helvetica,sans-Serif" font-size="10.00"> m_textures</text>
</g>
<!-- Node6 -->
<g id="node6" class="node">
<title>Node6</title>
<g id="a_node6"><a xlink:title=" ">
<polygon fill="white" stroke="#bfbfbf" points="203,-175.5 203,-194.5 353,-194.5 353,-175.5 203,-175.5"/>
<text text-anchor="middle" x="278" y="-182.5" font-family="Helvetica,sans-Serif" font-size="10.00">vector&lt; video::ITexture * &gt;</text>
</a>
</g>
</g>
<!-- Node6&#45;&gt;Node5 -->
<g id="edge5" class="edge">
<title>Node6&#45;&gt;Node5</title>
<path fill="none" stroke="#9a32cd" stroke-dasharray="5,2" d="M363.68,-175.64C398.82,-171.41 439.96,-166.01 477,-160 483.33,-158.97 489.92,-157.81 496.49,-156.6"/>
<polygon fill="#9a32cd" stroke="#9a32cd" points="362.97,-172.2 353.46,-176.86 363.8,-179.15 362.97,-172.2"/>
<text text-anchor="middle" x="424" y="-177" font-family="Helvetica,sans-Serif" font-size="10.00"> m_data</text>
</g>
<!-- Node7 -->
<g id="node7" class="node">
<title>Node7</title>
<g id="a_node7"><a xlink:href="classbool.html" target="_top" xlink:title=" ">
<polygon fill="white" stroke="black" points="19,-125.5 19,-144.5 57,-144.5 57,-125.5 19,-125.5"/>
<text text-anchor="middle" x="38" y="-132.5" font-family="Helvetica,sans-Serif" font-size="10.00">bool</text>
</a>
</g>
</g>
<!-- Node7&#45;&gt;Node5 -->
<g id="edge6" class="edge">
<title>Node7&#45;&gt;Node5</title>
<path fill="none" stroke="#9a32cd" stroke-dasharray="5,2" d="M67.61,-135.5C149.16,-136.91 384.11,-140.99 496.36,-142.94"/>
<polygon fill="#9a32cd" stroke="#9a32cd" points="67.21,-131.99 57.15,-135.32 67.09,-138.99 67.21,-131.99"/>
<text text-anchor="middle" x="278" y="-143" font-family="Helvetica,sans-Serif" font-size="10.00"> is_sorted</text>
</g>
<!-- Node8 -->
<g id="node8" class="node">
<title>Node8</title>
<g id="a_node8"><a xlink:href="classirr_1_1core_1_1array.html" target="_top" xlink:title="Self reallocating template array (like stl vector) with additional features.">
<polygon fill="white" stroke="black" points="221,-90.5 221,-109.5 335,-109.5 335,-90.5 221,-90.5"/>
<text text-anchor="middle" x="278" y="-97.5" font-family="Helvetica,sans-Serif" font-size="10.00">irr::core::array&lt; T &gt;</text>
</a>
</g>
</g>
<!-- Node7&#45;&gt;Node8 -->
<g id="edge8" class="edge">
<title>Node7&#45;&gt;Node8</title>
<path fill="none" stroke="#9a32cd" stroke-dasharray="5,2" d="M67.1,-127.07C75.68,-124.86 85.18,-122.62 94,-121 136.15,-113.25 184.31,-107.86 220.64,-104.48"/>
<polygon fill="#9a32cd" stroke="#9a32cd" points="65.96,-123.75 57.2,-129.71 67.76,-130.52 65.96,-123.75"/>
<text text-anchor="middle" x="139.5" y="-124" font-family="Helvetica,sans-Serif" font-size="10.00"> is_sorted</text>
</g>
<!-- Node8&#45;&gt;Node5 -->
<g id="edge7" class="edge">
<title>Node8&#45;&gt;Node5</title>
<path fill="none" stroke="orange" stroke-dasharray="5,2" d="M345.37,-104.16C384.02,-107.3 433.55,-112.55 477,-121 487.7,-123.08 499.04,-125.92 509.73,-128.88"/>
<polygon fill="orange" stroke="orange" points="345.53,-100.67 335.28,-103.37 344.98,-107.64 345.53,-100.67"/>
<text text-anchor="middle" x="424" y="-124" font-family="Helvetica,sans-Serif" font-size="10.00"> &lt; video::ITexture * &gt;</text>
</g>
<!-- Node9 -->
<g id="node9" class="node">
<title>Node9</title>
<g id="a_node9"><a xlink:title=" ">
<polygon fill="white" stroke="#bfbfbf" points="0,-76.5 0,-95.5 76,-95.5 76,-76.5 0,-76.5"/>
<text text-anchor="middle" x="38" y="-83.5" font-family="Helvetica,sans-Serif" font-size="10.00">vector&lt; T &gt;</text>
</a>
</g>
</g>
<!-- Node9&#45;&gt;Node8 -->
<g id="edge9" class="edge">
<title>Node9&#45;&gt;Node8</title>
<path fill="none" stroke="#9a32cd" stroke-dasharray="5,2" d="M86.39,-84.73C114.98,-84.36 152.13,-84.58 185,-87 196.58,-87.85 208.93,-89.26 220.69,-90.83"/>
<polygon fill="#9a32cd" stroke="#9a32cd" points="86.2,-81.23 76.26,-84.89 86.31,-88.23 86.2,-81.23"/>
<text text-anchor="middle" x="139.5" y="-90" font-family="Helvetica,sans-Serif" font-size="10.00"> m_data</text>
</g>
<!-- Node10 -->
<g id="node10" class="node">
<title>Node10</title>
<g id="a_node10"><a xlink:href="classirr_1_1video_1_1IVideoDriver.html" target="_top" xlink:title="Interface to driver which is able to perform 2d and 3d graphics functions.">
<polygon fill="white" stroke="black" points="495,-90.5 495,-109.5 622,-109.5 622,-90.5 495,-90.5"/>
<text text-anchor="middle" x="558.5" y="-97.5" font-family="Helvetica,sans-Serif" font-size="10.00">irr::video::IVideoDriver</text>
</a>
</g>
</g>
<!-- Node10&#45;&gt;Node1 -->
<g id="edge10" class="edge">
<title>Node10&#45;&gt;Node1</title>
<path fill="none" stroke="#9a32cd" stroke-dasharray="5,2" d="M632.37,-109.55C667.21,-114.55 709.42,-121.25 747,-129 754.64,-130.57 762.78,-132.51 770.48,-134.47"/>
<polygon fill="#9a32cd" stroke="#9a32cd" points="632.67,-106.06 622.28,-108.12 631.69,-112.99 632.67,-106.06"/>
<text text-anchor="middle" x="693.5" y="-132" font-family="Helvetica,sans-Serif" font-size="10.00"> m_driver</text>
</g>
<!-- Node11 -->
<g id="node11" class="node">
<title>Node11</title>
<g id="a_node11"><a xlink:href="classirr_1_1IReferenceCounted.html" target="_top" xlink:title="Base class of most objects of the Irrlicht Engine.">
<polygon fill="white" stroke="black" points="215,-38.5 215,-57.5 341,-57.5 341,-38.5 215,-38.5"/>
<text text-anchor="middle" x="278" y="-45.5" font-family="Helvetica,sans-Serif" font-size="10.00">irr::IReferenceCounted</text>
</a>
</g>
</g>
<!-- Node11&#45;&gt;Node10 -->
<g id="edge11" class="edge">
<title>Node11&#45;&gt;Node10</title>
<path fill="none" stroke="midnightblue" d="M340.08,-59.4C389.86,-68.7 459.36,-81.68 506.27,-90.43"/>
<polygon fill="midnightblue" stroke="midnightblue" points="340.55,-55.93 330.08,-57.54 339.27,-62.81 340.55,-55.93"/>
</g>
<!-- Node12 -->
<g id="node12" class="node">
<title>Node12</title>
<g id="a_node12"><a xlink:title=" ">
<polygon fill="white" stroke="#bfbfbf" points="19,-38.5 19,-57.5 57,-57.5 57,-38.5 19,-38.5"/>
<text text-anchor="middle" x="38" y="-45.5" font-family="Helvetica,sans-Serif" font-size="10.00">char</text>
</a>
</g>
</g>
<!-- Node12&#45;&gt;Node11 -->
<g id="edge12" class="edge">
<title>Node12&#45;&gt;Node11</title>
<path fill="none" stroke="#9a32cd" stroke-dasharray="5,2" d="M67.6,-48C103.83,-48 167.25,-48 214.83,-48"/>
<polygon fill="#9a32cd" stroke="#9a32cd" points="67.28,-44.5 57.28,-48 67.28,-51.5 67.28,-44.5"/>
<text text-anchor="middle" x="139.5" y="-51" font-family="Helvetica,sans-Serif" font-size="10.00"> DebugName</text>
</g>
<!-- Node13 -->
<g id="node13" class="node">
<title>Node13</title>
<g id="a_node13"><a xlink:title=" ">
<polygon fill="white" stroke="#bfbfbf" points="13,-0.5 13,-19.5 63,-19.5 63,-0.5 13,-0.5"/>
<text text-anchor="middle" x="38" y="-7.5" font-family="Helvetica,sans-Serif" font-size="10.00">int32_t</text>
</a>
</g>
</g>
<!-- Node13&#45;&gt;Node11 -->
<g id="edge13" class="edge">
<title>Node13&#45;&gt;Node11</title>
<path fill="none" stroke="#9a32cd" stroke-dasharray="5,2" d="M73.25,-15.34C102.84,-19.97 146.75,-26.87 185,-33 195.87,-34.74 207.45,-36.62 218.61,-38.43"/>
<polygon fill="#9a32cd" stroke="#9a32cd" points="73.45,-11.83 63.03,-13.75 72.37,-18.75 73.45,-11.83"/>
<text text-anchor="middle" x="139.5" y="-36" font-family="Helvetica,sans-Serif" font-size="10.00"> ReferenceCounter</text>
</g>
<!-- Node14 -->
<g id="node14" class="node">
<title>Node14</title>
<g id="a_node14"><a xlink:title=" ">
<polygon fill="white" stroke="#bfbfbf" points="496.5,-41 496.5,-71 620.5,-71 620.5,-41 496.5,-41"/>
<text text-anchor="start" x="504.5" y="-59" font-family="Helvetica,sans-Serif" font-size="10.00">vector&lt; TextureBuffer</text>
<text text-anchor="middle" x="558.5" y="-48" font-family="Helvetica,sans-Serif" font-size="10.00">::TextureDefinition &gt;</text>
</a>
</g>
</g>
<!-- Node14&#45;&gt;Node1 -->
<g id="edge14" class="edge">
<title>Node14&#45;&gt;Node1</title>
<path fill="none" stroke="#9a32cd" stroke-dasharray="5,2" d="M630.66,-62.39C666.88,-67.69 710.8,-77.37 747,-95 767.15,-104.81 786.11,-123.2 796.58,-134.45"/>
<polygon fill="#9a32cd" stroke="#9a32cd" points="631.04,-58.9 620.66,-61 630.08,-65.84 631.04,-58.9"/>
<text text-anchor="middle" x="693.5" y="-98" font-family="Helvetica,sans-Serif" font-size="10.00"> m_definitions</text>
</g>
</g>
</svg>
