<?xml version="1.0" encoding="UTF-8" standalone="no"?>
<!DOCTYPE svg PUBLIC "-//W3C//DTD SVG 1.1//EN"
 "http://www.w3.org/Graphics/SVG/1.1/DTD/svg11.dtd">
<!-- Generated by graphviz version 2.43.0 (0)
 -->
<!-- Title: irr::scene::CSkinnedMesh Pages: 1 -->
<!--zoomable 607 -->
<svg id="main" version="1.1" xmlns="http://www.w3.org/2000/svg" xmlns:xlink="http://www.w3.org/1999/xlink" xml:space="preserve" onload="init(evt)">
<style type="text/css"><![CDATA[
.edge:hover path { stroke: red; }
.edge:hover polygon { stroke: red; fill: red; }
]]></style>
<script type="text/javascript"><![CDATA[
var edges = document.getElementsByTagName('g');
if (edges && edges.length) {
  for (var i=0;i<edges.length;i++) {
    if (edges[i].id.substr(0,4)=='edge') {
      edges[i].setAttribute('class','edge');
    }
  }
}
]]></script>
        <defs>
                <circle id="rim" cx="0" cy="0" r="7"/>
                <circle id="rim2" cx="0" cy="0" r="3.5"/>
                <g id="zoomPlus">
                        <use xlink:href="#rim" fill="#404040">
                                <set attributeName="fill" to="#808080" begin="zoomplus.mouseover" end="zoomplus.mouseout"/>
                        </use>
                        <path d="M-4,0h8M0,-4v8" fill="none" stroke="white" stroke-width="1.5" pointer-events="none"/>
                </g>
                <g id="zoomMin">
                        <use xlink:href="#rim" fill="#404040">
                                <set attributeName="fill" to="#808080" begin="zoomminus.mouseover" end="zoomminus.mouseout"/>
                        </use>
                        <path d="M-4,0h8" fill="none" stroke="white" stroke-width="1.5" pointer-events="none"/>
                </g>
                <g id="dirArrow">
                        <path fill="none" stroke="white" stroke-width="1.5" d="M0,-3.0v7 M-2.5,-0.5L0,-3.0L2.5,-0.5"/>
                </g>
               <g id="resetDef">
                       <use xlink:href="#rim2" fill="#404040">
                               <set attributeName="fill" to="#808080" begin="reset.mouseover" end="reset.mouseout"/>
                       </use>
               </g>
        </defs>

<script type="text/javascript">
var viewWidth = 1348;
var viewHeight = 607;
var sectionId = 'dynsection-1';
</script>
<script xlink:href="svgpan.js"/>
<svg id="graph" class="graph">
<g id="viewport">
<title>irr::scene::CSkinnedMesh</title>
<polygon fill="white" stroke="transparent" points="-4,4 -4,-603 1344,-603 1344,4 -4,4"/>
<!-- Node1 -->
<g id="node1" class="node">
<title>Node1</title>
<g id="a_node1"><a xlink:title=" ">
<polygon fill="#bfbfbf" stroke="black" points="1200,-363.5 1200,-382.5 1340,-382.5 1340,-363.5 1200,-363.5"/>
<text text-anchor="middle" x="1270" y="-370.5" font-family="Helvetica,sans-Serif" font-size="10.00">irr::scene::CSkinnedMesh</text>
</a>
</g>
</g>
<!-- Node2 -->
<g id="node2" class="node">
<title>Node2</title>
<g id="a_node2"><a xlink:href="classirr_1_1scene_1_1ISkinnedMesh.html" target="_top" xlink:title="Interface for using some special functions of Skinned meshes.">
<polygon fill="white" stroke="black" points="923.5,-560.5 923.5,-579.5 1059.5,-579.5 1059.5,-560.5 923.5,-560.5"/>
<text text-anchor="middle" x="991.5" y="-567.5" font-family="Helvetica,sans-Serif" font-size="10.00">irr::scene::ISkinnedMesh</text>
</a>
</g>
</g>
<!-- Node2&#45;&gt;Node1 -->
<g id="edge1" class="edge">
<title>Node2&#45;&gt;Node1</title>
<path fill="none" stroke="midnightblue" d="M1070.08,-578.31C1106.96,-578.38 1149.89,-572.42 1182,-550 1241.8,-508.25 1262.32,-413.44 1267.52,-382.77"/>
<polygon fill="midnightblue" stroke="midnightblue" points="1069.91,-574.81 1059.85,-578.14 1069.79,-581.81 1069.91,-574.81"/>
</g>
<!-- Node3 -->
<g id="node3" class="node">
<title>Node3</title>
<g id="a_node3"><a xlink:href="classirr_1_1scene_1_1IAnimatedMesh.html" target="_top" xlink:title="Interface for an animated mesh.">
<polygon fill="white" stroke="black" points="564,-560.5 564,-579.5 708,-579.5 708,-560.5 564,-560.5"/>
<text text-anchor="middle" x="636" y="-567.5" font-family="Helvetica,sans-Serif" font-size="10.00">irr::scene::IAnimatedMesh</text>
</a>
</g>
</g>
<!-- Node3&#45;&gt;Node2 -->
<g id="edge2" class="edge">
<title>Node3&#45;&gt;Node2</title>
<path fill="none" stroke="midnightblue" d="M718.27,-570C780.42,-570 865.07,-570 923.39,-570"/>
<polygon fill="midnightblue" stroke="midnightblue" points="718.11,-566.5 708.11,-570 718.11,-573.5 718.11,-566.5"/>
</g>
<!-- Node4 -->
<g id="node4" class="node">
<title>Node4</title>
<g id="a_node4"><a xlink:href="classirr_1_1scene_1_1IMesh.html" target="_top" xlink:title="Class which holds the geometry of an object.">
<polygon fill="white" stroke="black" points="366,-560.5 366,-579.5 463,-579.5 463,-560.5 366,-560.5"/>
<text text-anchor="middle" x="414.5" y="-567.5" font-family="Helvetica,sans-Serif" font-size="10.00">irr::scene::IMesh</text>
</a>
</g>
</g>
<!-- Node4&#45;&gt;Node3 -->
<g id="edge3" class="edge">
<title>Node4&#45;&gt;Node3</title>
<path fill="none" stroke="midnightblue" d="M473.43,-570C501.1,-570 534.47,-570 563.68,-570"/>
<polygon fill="midnightblue" stroke="midnightblue" points="473.13,-566.5 463.13,-570 473.13,-573.5 473.13,-566.5"/>
</g>
<!-- Node5 -->
<g id="node5" class="node">
<title>Node5</title>
<g id="a_node5"><a xlink:href="classirr_1_1IReferenceCounted.html" target="_top" xlink:title="Base class of most objects of the Irrlicht Engine.">
<polygon fill="white" stroke="black" points="177,-560.5 177,-579.5 303,-579.5 303,-560.5 177,-560.5"/>
<text text-anchor="middle" x="240" y="-567.5" font-family="Helvetica,sans-Serif" font-size="10.00">irr::IReferenceCounted</text>
</a>
</g>
</g>
<!-- Node5&#45;&gt;Node4 -->
<g id="edge4" class="edge">
<title>Node5&#45;&gt;Node4</title>
<path fill="none" stroke="midnightblue" d="M313.58,-570C331.27,-570 349.75,-570 365.94,-570"/>
<polygon fill="midnightblue" stroke="midnightblue" points="313.28,-566.5 303.28,-570 313.28,-573.5 313.28,-566.5"/>
</g>
<!-- Node6 -->
<g id="node6" class="node">
<title>Node6</title>
<g id="a_node6"><a xlink:title=" ">
<polygon fill="white" stroke="#bfbfbf" points="6,-579.5 6,-598.5 44,-598.5 44,-579.5 6,-579.5"/>
<text text-anchor="middle" x="25" y="-586.5" font-family="Helvetica,sans-Serif" font-size="10.00">char</text>
</a>
</g>
</g>
<!-- Node6&#45;&gt;Node5 -->
<g id="edge5" class="edge">
<title>Node6&#45;&gt;Node5</title>
<path fill="none" stroke="#9a32cd" stroke-dasharray="5,2" d="M54.29,-586.48C85.39,-583.7 136.34,-579.16 176.86,-575.54"/>
<polygon fill="#9a32cd" stroke="#9a32cd" points="53.81,-583.01 44.16,-587.38 54.43,-589.98 53.81,-583.01"/>
<text text-anchor="middle" x="113.5" y="-587" font-family="Helvetica,sans-Serif" font-size="10.00"> DebugName</text>
</g>
<!-- Node7 -->
<g id="node7" class="node">
<title>Node7</title>
<g id="a_node7"><a xlink:title=" ">
<polygon fill="white" stroke="#bfbfbf" points="0,-541.5 0,-560.5 50,-560.5 50,-541.5 0,-541.5"/>
<text text-anchor="middle" x="25" y="-548.5" font-family="Helvetica,sans-Serif" font-size="10.00">int32_t</text>
</a>
</g>
</g>
<!-- Node7&#45;&gt;Node5 -->
<g id="edge6" class="edge">
<title>Node7&#45;&gt;Node5</title>
<path fill="none" stroke="#9a32cd" stroke-dasharray="5,2" d="M60.09,-553.66C86.97,-555.79 125.39,-558.93 159,-562 164.84,-562.53 170.91,-563.11 176.99,-563.69"/>
<polygon fill="#9a32cd" stroke="#9a32cd" points="60.28,-550.16 50.04,-552.86 59.73,-557.14 60.28,-550.16"/>
<text text-anchor="middle" x="113.5" y="-565" font-family="Helvetica,sans-Serif" font-size="10.00"> ReferenceCounter</text>
</g>
<!-- Node8 -->
<g id="node8" class="node">
<title>Node8</title>
<g id="a_node8"><a xlink:title=" ">
<polygon fill="white" stroke="#bfbfbf" points="920.5,-522.5 920.5,-541.5 1062.5,-541.5 1062.5,-522.5 920.5,-522.5"/>
<text text-anchor="middle" x="991.5" y="-529.5" font-family="Helvetica,sans-Serif" font-size="10.00">E_INTERPOLATION_MODE</text>
</a>
</g>
</g>
<!-- Node8&#45;&gt;Node1 -->
<g id="edge7" class="edge">
<title>Node8&#45;&gt;Node1</title>
<path fill="none" stroke="#9a32cd" stroke-dasharray="5,2" d="M1073,-536.65C1108.77,-535.14 1149.95,-528.19 1182,-508 1230.84,-477.24 1257.58,-407.96 1266.03,-382.56"/>
<polygon fill="#9a32cd" stroke="#9a32cd" points="1072.47,-533.16 1062.57,-536.94 1072.67,-540.16 1072.47,-533.16"/>
<text text-anchor="middle" x="1135.5" y="-538" font-family="Helvetica,sans-Serif" font-size="10.00"> InterpolationMode</text>
</g>
<!-- Node9 -->
<g id="node9" class="node">
<title>Node9</title>
<g id="a_node9"><a xlink:title=" ">
<polygon fill="white" stroke="#bfbfbf" points="395.5,-462.5 395.5,-481.5 433.5,-481.5 433.5,-462.5 395.5,-462.5"/>
<text text-anchor="middle" x="414.5" y="-469.5" font-family="Helvetica,sans-Serif" font-size="10.00">float</text>
</a>
</g>
</g>
<!-- Node9&#45;&gt;Node1 -->
<g id="edge8" class="edge">
<title>Node9&#45;&gt;Node1</title>
<path fill="none" stroke="#9a32cd" stroke-dasharray="5,2" d="M444.04,-475.45C459.9,-477.2 480.02,-479.13 498,-480 519.31,-481.03 524.67,-480.55 546,-480 780.04,-473.95 840.53,-478.14 1071,-437 1120.69,-428.13 1134.12,-428.97 1182,-413 1206.76,-404.74 1233.87,-391.57 1251.14,-382.61"/>
<polygon fill="#9a32cd" stroke="#9a32cd" points="444.14,-471.94 433.81,-474.29 443.35,-478.9 444.14,-471.94"/>
<text text-anchor="middle" x="810" y="-500" font-family="Helvetica,sans-Serif" font-size="10.00"> LastAnimatedFrame</text>
<text text-anchor="middle" x="810" y="-489" font-family="Helvetica,sans-Serif" font-size="10.00">FramesPerSecond</text>
<text text-anchor="middle" x="810" y="-478" font-family="Helvetica,sans-Serif" font-size="10.00">EndFrame</text>
</g>
<!-- Node20 -->
<g id="node20" class="node">
<title>Node20</title>
<g id="a_node20"><a xlink:href="classirr_1_1core_1_1vector3d.html" target="_top" xlink:title=" ">
<polygon fill="white" stroke="black" points="584.5,-431 584.5,-461 687.5,-461 687.5,-431 584.5,-431"/>
<text text-anchor="start" x="592.5" y="-449" font-family="Helvetica,sans-Serif" font-size="10.00">irr::core::vector3d</text>
<text text-anchor="middle" x="636" y="-438" font-family="Helvetica,sans-Serif" font-size="10.00">&lt; f32 &gt;</text>
</a>
</g>
</g>
<!-- Node9&#45;&gt;Node20 -->
<g id="edge26" class="edge">
<title>Node9&#45;&gt;Node20</title>
<path fill="none" stroke="#9a32cd" stroke-dasharray="5,2" d="M443.17,-461.44C458.97,-455.96 479.31,-449.84 498,-447 526.34,-442.7 558.35,-442.22 584.3,-442.93"/>
<polygon fill="#9a32cd" stroke="#9a32cd" points="441.74,-458.24 433.5,-464.9 444.1,-464.83 441.74,-458.24"/>
<text text-anchor="middle" x="522" y="-472" font-family="Helvetica,sans-Serif" font-size="10.00"> X</text>
<text text-anchor="middle" x="522" y="-461" font-family="Helvetica,sans-Serif" font-size="10.00">Y</text>
<text text-anchor="middle" x="522" y="-450" font-family="Helvetica,sans-Serif" font-size="10.00">Z</text>
</g>
<!-- Node10 -->
<g id="node10" class="node">
<title>Node10</title>
<g id="a_node10"><a xlink:href="classirr_1_1core_1_1array.html" target="_top" xlink:title=" ">
<polygon fill="white" stroke="black" points="926.5,-260 926.5,-290 1056.5,-290 1056.5,-260 926.5,-260"/>
<text text-anchor="start" x="934.5" y="-278" font-family="Helvetica,sans-Serif" font-size="10.00">irr::core::array&lt; irr</text>
<text text-anchor="middle" x="991.5" y="-267" font-family="Helvetica,sans-Serif" font-size="10.00">::core::array&lt; char &gt; &gt;</text>
</a>
</g>
</g>
<!-- Node10&#45;&gt;Node1 -->
<g id="edge9" class="edge">
<title>Node10&#45;&gt;Node1</title>
<path fill="none" stroke="#9a32cd" stroke-dasharray="5,2" d="M1067.28,-280.48C1103.1,-285.07 1145.94,-293.51 1182,-309 1213.35,-322.47 1244.1,-349.14 1259.25,-363.43"/>
<polygon fill="#9a32cd" stroke="#9a32cd" points="1067.24,-276.95 1056.89,-279.23 1066.4,-283.9 1067.24,-276.95"/>
<text text-anchor="middle" x="1135.5" y="-312" font-family="Helvetica,sans-Serif" font-size="10.00"> Vertices_Moved</text>
</g>
<!-- Node11 -->
<g id="node11" class="node">
<title>Node11</title>
<g id="a_node11"><a xlink:href="classbool.html" target="_top" xlink:title=" ">
<polygon fill="white" stroke="black" points="395.5,-139.5 395.5,-158.5 433.5,-158.5 433.5,-139.5 395.5,-139.5"/>
<text text-anchor="middle" x="414.5" y="-146.5" font-family="Helvetica,sans-Serif" font-size="10.00">bool</text>
</a>
</g>
</g>
<!-- Node11&#45;&gt;Node1 -->
<g id="edge15" class="edge">
<title>Node11&#45;&gt;Node1</title>
<path fill="none" stroke="#9a32cd" stroke-dasharray="5,2" d="M425,-168C444.77,-205.04 494.4,-285.63 564,-313 632.38,-339.89 820.77,-327.86 894,-334 1000.97,-342.96 1124.79,-356.45 1199.96,-364.98"/>
<polygon fill="#9a32cd" stroke="#9a32cd" points="427.93,-166.06 420.22,-158.79 421.72,-169.28 427.93,-166.06"/>
<text text-anchor="middle" x="810" y="-381" font-family="Helvetica,sans-Serif" font-size="10.00"> PreparedForSkinning</text>
<text text-anchor="middle" x="810" y="-370" font-family="Helvetica,sans-Serif" font-size="10.00">HasAnimation</text>
<text text-anchor="middle" x="810" y="-359" font-family="Helvetica,sans-Serif" font-size="10.00">AnimateNormals</text>
<text text-anchor="middle" x="810" y="-348" font-family="Helvetica,sans-Serif" font-size="10.00">HardwareSkinning</text>
<text text-anchor="middle" x="810" y="-337" font-family="Helvetica,sans-Serif" font-size="10.00">SkinnedLastFrame</text>
</g>
<!-- Node11&#45;&gt;Node10 -->
<g id="edge10" class="edge">
<title>Node11&#45;&gt;Node10</title>
<path fill="none" stroke="#9a32cd" stroke-dasharray="5,2" d="M430.36,-166.28C454.97,-193.52 507.16,-245.64 564,-268 684.95,-315.57 840.51,-301.21 926.38,-287.47"/>
<polygon fill="#9a32cd" stroke="#9a32cd" points="432.88,-163.85 423.63,-158.68 427.64,-168.49 432.88,-163.85"/>
<text text-anchor="middle" x="636" y="-301" font-family="Helvetica,sans-Serif" font-size="10.00"> is_sorted</text>
</g>
<!-- Node13 -->
<g id="node13" class="node">
<title>Node13</title>
<g id="a_node13"><a xlink:href="classirr_1_1core_1_1array.html" target="_top" xlink:title="Self reallocating template array (like stl vector) with additional features.">
<polygon fill="white" stroke="black" points="579,-93.5 579,-112.5 693,-112.5 693,-93.5 579,-93.5"/>
<text text-anchor="middle" x="636" y="-100.5" font-family="Helvetica,sans-Serif" font-size="10.00">irr::core::array&lt; T &gt;</text>
</a>
</g>
</g>
<!-- Node11&#45;&gt;Node13 -->
<g id="edge13" class="edge">
<title>Node11&#45;&gt;Node13</title>
<path fill="none" stroke="#9a32cd" stroke-dasharray="5,2" d="M443.37,-139.48C459.23,-134.33 479.56,-128.18 498,-124 524.28,-118.04 553.79,-113.27 578.67,-109.8"/>
<polygon fill="#9a32cd" stroke="#9a32cd" points="442.05,-136.23 433.65,-142.69 444.24,-142.87 442.05,-136.23"/>
<text text-anchor="middle" x="522" y="-127" font-family="Helvetica,sans-Serif" font-size="10.00"> is_sorted</text>
</g>
<!-- Node15 -->
<g id="node15" class="node">
<title>Node15</title>
<g id="a_node15"><a xlink:href="classirr_1_1core_1_1array.html" target="_top" xlink:title=" ">
<polygon fill="white" stroke="black" points="919.5,-63.5 919.5,-82.5 1063.5,-82.5 1063.5,-63.5 919.5,-63.5"/>
<text text-anchor="middle" x="991.5" y="-70.5" font-family="Helvetica,sans-Serif" font-size="10.00">irr::core::array&lt; SJoint * &gt;</text>
</a>
</g>
</g>
<!-- Node11&#45;&gt;Node15 -->
<g id="edge18" class="edge">
<title>Node11&#45;&gt;Node15</title>
<path fill="none" stroke="#9a32cd" stroke-dasharray="5,2" d="M437.52,-133.46C465.42,-114.83 515.69,-84.65 564,-73 688.35,-43.03 839.09,-53.51 923.98,-63.49"/>
<polygon fill="#9a32cd" stroke="#9a32cd" points="435.25,-130.77 428.96,-139.3 439.19,-136.56 435.25,-130.77"/>
<text text-anchor="middle" x="636" y="-76" font-family="Helvetica,sans-Serif" font-size="10.00"> is_sorted</text>
</g>
<!-- Node17 -->
<g id="node17" class="node">
<title>Node17</title>
<g id="a_node17"><a xlink:href="classirr_1_1core_1_1array.html" target="_top" xlink:title=" ">
<polygon fill="white" stroke="black" points="912,-165 912,-195 1071,-195 1071,-165 912,-165"/>
<text text-anchor="start" x="920" y="-183" font-family="Helvetica,sans-Serif" font-size="10.00">irr::core::array&lt; irr</text>
<text text-anchor="middle" x="991.5" y="-172" font-family="Helvetica,sans-Serif" font-size="10.00">::scene::SSkinMeshBuffer * &gt;</text>
</a>
</g>
</g>
<!-- Node11&#45;&gt;Node17 -->
<g id="edge22" class="edge">
<title>Node11&#45;&gt;Node17</title>
<path fill="none" stroke="#9a32cd" stroke-dasharray="5,2" d="M444.23,-148.39C518.72,-147.13 724.14,-145.65 894,-163 899.84,-163.6 905.86,-164.34 911.9,-165.18"/>
<polygon fill="#9a32cd" stroke="#9a32cd" points="443.75,-144.9 433.82,-148.58 443.88,-151.9 443.75,-144.9"/>
<text text-anchor="middle" x="636" y="-153" font-family="Helvetica,sans-Serif" font-size="10.00"> is_sorted</text>
</g>
<!-- Node12 -->
<g id="node12" class="node">
<title>Node12</title>
<g id="a_node12"><a xlink:title=" ">
<polygon fill="white" stroke="#bfbfbf" points="585,-228 585,-258 687,-258 687,-228 585,-228"/>
<text text-anchor="start" x="593" y="-246" font-family="Helvetica,sans-Serif" font-size="10.00">vector&lt; irr::core::</text>
<text text-anchor="middle" x="636" y="-235" font-family="Helvetica,sans-Serif" font-size="10.00">array&lt; char &gt; &gt;</text>
</a>
</g>
</g>
<!-- Node12&#45;&gt;Node10 -->
<g id="edge11" class="edge">
<title>Node12&#45;&gt;Node10</title>
<path fill="none" stroke="#9a32cd" stroke-dasharray="5,2" d="M697.57,-248.48C761.32,-254.25 861.26,-263.3 926.33,-269.19"/>
<polygon fill="#9a32cd" stroke="#9a32cd" points="697.55,-244.97 687.27,-247.55 696.92,-251.94 697.55,-244.97"/>
<text text-anchor="middle" x="810" y="-268" font-family="Helvetica,sans-Serif" font-size="10.00"> m_data</text>
</g>
<!-- Node13&#45;&gt;Node10 -->
<g id="edge12" class="edge">
<title>Node13&#45;&gt;Node10</title>
<path fill="none" stroke="orange" stroke-dasharray="5,2" d="M681.02,-115.87C690.12,-119.09 699.51,-122.83 708,-127 716.63,-131.24 717.19,-135.16 726,-139 796.37,-169.66 830.63,-135.69 894,-179 905.6,-186.93 902.69,-194.47 912,-205 930.26,-225.66 954.29,-246.3 970.93,-259.76"/>
<polygon fill="orange" stroke="orange" points="681.91,-112.48 671.31,-112.59 679.67,-119.11 681.91,-112.48"/>
<text text-anchor="start" x="768" y="-193" font-family="Helvetica,sans-Serif" font-size="10.00"> &lt; irr::core::array</text>
<text text-anchor="middle" x="810" y="-182" font-family="Helvetica,sans-Serif" font-size="10.00">&lt; char &gt; &gt;</text>
</g>
<!-- Node13&#45;&gt;Node15 -->
<g id="edge19" class="edge">
<title>Node13&#45;&gt;Node15</title>
<path fill="none" stroke="orange" stroke-dasharray="5,2" d="M703.37,-92.7C710.99,-91.7 718.66,-90.77 726,-90 791.33,-83.14 866.04,-78.65 919.36,-76.01"/>
<polygon fill="orange" stroke="orange" points="702.85,-89.24 693.41,-94.06 703.79,-96.18 702.85,-89.24"/>
<text text-anchor="middle" x="810" y="-93" font-family="Helvetica,sans-Serif" font-size="10.00"> &lt; SJoint * &gt;</text>
</g>
<!-- Node13&#45;&gt;Node17 -->
<g id="edge23" class="edge">
<title>Node13&#45;&gt;Node17</title>
<path fill="none" stroke="orange" stroke-dasharray="5,2" d="M703.11,-105.09C767.23,-107.72 859.69,-113.25 894,-124 922.65,-132.98 951.98,-151.61 970.67,-164.92"/>
<polygon fill="orange" stroke="orange" points="703.21,-101.6 693.08,-104.7 702.93,-108.59 703.21,-101.6"/>
<text text-anchor="middle" x="810" y="-127" font-family="Helvetica,sans-Serif" font-size="10.00"> &lt; irr::scene::SSkinMeshBuffer * &gt;</text>
</g>
<!-- Node14 -->
<g id="node14" class="node">
<title>Node14</title>
<g id="a_node14"><a xlink:title=" ">
<polygon fill="white" stroke="#bfbfbf" points="376.5,-20.5 376.5,-39.5 452.5,-39.5 452.5,-20.5 376.5,-20.5"/>
<text text-anchor="middle" x="414.5" y="-27.5" font-family="Helvetica,sans-Serif" font-size="10.00">vector&lt; T &gt;</text>
</a>
</g>
</g>
<!-- Node14&#45;&gt;Node13 -->
<g id="edge14" class="edge">
<title>Node14&#45;&gt;Node13</title>
<path fill="none" stroke="#9a32cd" stroke-dasharray="5,2" d="M453.85,-42.75C497.34,-57.22 567.27,-80.47 606.3,-93.45"/>
<polygon fill="#9a32cd" stroke="#9a32cd" points="454.79,-39.38 444.2,-39.54 452.58,-46.02 454.79,-39.38"/>
<text text-anchor="middle" x="522" y="-77" font-family="Helvetica,sans-Serif" font-size="10.00"> m_data</text>
</g>
<!-- Node15&#45;&gt;Node1 -->
<g id="edge16" class="edge">
<title>Node15&#45;&gt;Node1</title>
<path fill="none" stroke="#9a32cd" stroke-dasharray="5,2" d="M1029.74,-86.33C1071.62,-102.97 1139.32,-135.08 1182,-182 1233.98,-239.14 1259.53,-332.63 1266.78,-363.08"/>
<polygon fill="#9a32cd" stroke="#9a32cd" points="1030.79,-82.98 1020.2,-82.63 1028.25,-89.51 1030.79,-82.98"/>
<text text-anchor="middle" x="1135.5" y="-196" font-family="Helvetica,sans-Serif" font-size="10.00"> AllJoints</text>
<text text-anchor="middle" x="1135.5" y="-185" font-family="Helvetica,sans-Serif" font-size="10.00">RootJoints</text>
</g>
<!-- Node16 -->
<g id="node16" class="node">
<title>Node16</title>
<g id="a_node16"><a xlink:title=" ">
<polygon fill="white" stroke="#bfbfbf" points="583,-0.5 583,-19.5 689,-19.5 689,-0.5 583,-0.5"/>
<text text-anchor="middle" x="636" y="-7.5" font-family="Helvetica,sans-Serif" font-size="10.00">vector&lt; SJoint * &gt;</text>
</a>
</g>
</g>
<!-- Node16&#45;&gt;Node15 -->
<g id="edge17" class="edge">
<title>Node16&#45;&gt;Node15</title>
<path fill="none" stroke="#9a32cd" stroke-dasharray="5,2" d="M699.2,-9.41C751.83,-10.25 828.87,-14.65 894,-31 923.06,-38.3 954.49,-53.48 973.33,-63.45"/>
<polygon fill="#9a32cd" stroke="#9a32cd" points="699.05,-5.91 689.01,-9.29 698.97,-12.91 699.05,-5.91"/>
<text text-anchor="middle" x="810" y="-34" font-family="Helvetica,sans-Serif" font-size="10.00"> m_data</text>
</g>
<!-- Node17&#45;&gt;Node1 -->
<g id="edge20" class="edge">
<title>Node17&#45;&gt;Node1</title>
<path fill="none" stroke="#9a32cd" stroke-dasharray="5,2" d="M1060.08,-198.1C1098.46,-210.65 1145.9,-230.16 1182,-258 1221.65,-288.57 1252.45,-341.57 1264.02,-363.29"/>
<polygon fill="#9a32cd" stroke="#9a32cd" points="1061.12,-194.76 1050.52,-195.06 1058.99,-201.43 1061.12,-194.76"/>
<text text-anchor="middle" x="1135.5" y="-272" font-family="Helvetica,sans-Serif" font-size="10.00"> SkinningBuffers</text>
<text text-anchor="middle" x="1135.5" y="-261" font-family="Helvetica,sans-Serif" font-size="10.00">LocalBuffers</text>
</g>
<!-- Node18 -->
<g id="node18" class="node">
<title>Node18</title>
<g id="a_node18"><a xlink:title=" ">
<polygon fill="white" stroke="#bfbfbf" points="573.5,-179 573.5,-209 698.5,-209 698.5,-179 573.5,-179"/>
<text text-anchor="start" x="581.5" y="-197" font-family="Helvetica,sans-Serif" font-size="10.00">vector&lt; irr::scene</text>
<text text-anchor="middle" x="636" y="-186" font-family="Helvetica,sans-Serif" font-size="10.00">::SSkinMeshBuffer * &gt;</text>
</a>
</g>
</g>
<!-- Node18&#45;&gt;Node17 -->
<g id="edge21" class="edge">
<title>Node18&#45;&gt;Node17</title>
<path fill="none" stroke="#9a32cd" stroke-dasharray="5,2" d="M708.59,-203.53C760.3,-208.84 831.7,-212.94 894,-205 909.97,-202.97 927.07,-199.11 942.37,-195.02"/>
<polygon fill="#9a32cd" stroke="#9a32cd" points="708.83,-200.03 698.52,-202.45 708.09,-206.99 708.83,-200.03"/>
<text text-anchor="middle" x="810" y="-212" font-family="Helvetica,sans-Serif" font-size="10.00"> m_data</text>
</g>
<!-- Node19 -->
<g id="node19" class="node">
<title>Node19</title>
<g id="a_node19"><a xlink:href="classirr_1_1core_1_1aabbox3d.html" target="_top" xlink:title=" ">
<polygon fill="white" stroke="black" points="937.5,-397 937.5,-427 1045.5,-427 1045.5,-397 937.5,-397"/>
<text text-anchor="start" x="945.5" y="-415" font-family="Helvetica,sans-Serif" font-size="10.00">irr::core::aabbox3d</text>
<text text-anchor="middle" x="991.5" y="-404" font-family="Helvetica,sans-Serif" font-size="10.00">&lt; f32 &gt;</text>
</a>
</g>
</g>
<!-- Node19&#45;&gt;Node1 -->
<g id="edge24" class="edge">
<title>Node19&#45;&gt;Node1</title>
<path fill="none" stroke="#9a32cd" stroke-dasharray="5,2" d="M1055.98,-403.05C1099.46,-396.91 1157.06,-388.79 1201.39,-382.54"/>
<polygon fill="#9a32cd" stroke="#9a32cd" points="1055.23,-399.62 1045.81,-404.48 1056.2,-406.55 1055.23,-399.62"/>
<text text-anchor="middle" x="1135.5" y="-401" font-family="Helvetica,sans-Serif" font-size="10.00"> BoundingBox</text>
</g>
<!-- Node20&#45;&gt;Node19 -->
<g id="edge25" class="edge">
<title>Node20&#45;&gt;Node19</title>
<path fill="none" stroke="#9a32cd" stroke-dasharray="5,2" d="M697.71,-440.16C765.18,-433.67 873.08,-423.29 937.35,-417.11"/>
<polygon fill="#9a32cd" stroke="#9a32cd" points="697.27,-436.69 687.65,-441.13 697.94,-443.66 697.27,-436.69"/>
<text text-anchor="middle" x="810" y="-450" font-family="Helvetica,sans-Serif" font-size="10.00"> MinEdge</text>
<text text-anchor="middle" x="810" y="-439" font-family="Helvetica,sans-Serif" font-size="10.00">MaxEdge</text>
</g>
<!-- Node21 -->
<g id="node21" class="node">
<title>Node21</title>
<g id="a_node21"><a xlink:href="classirr_1_1core_1_1vector3d.html" target="_top" xlink:title="3d vector template class with lots of operators and methods.">
<polygon fill="white" stroke="black" points="349,-402.5 349,-421.5 480,-421.5 480,-402.5 349,-402.5"/>
<text text-anchor="middle" x="414.5" y="-409.5" font-family="Helvetica,sans-Serif" font-size="10.00">irr::core::vector3d&lt; T &gt;</text>
</a>
</g>
</g>
<!-- Node21&#45;&gt;Node20 -->
<g id="edge27" class="edge">
<title>Node21&#45;&gt;Node20</title>
<path fill="none" stroke="orange" stroke-dasharray="5,2" d="M490.07,-420.13C508.39,-422.41 527.94,-425.07 546,-428 558.45,-430.02 571.81,-432.53 584.29,-435.04"/>
<polygon fill="orange" stroke="orange" points="490.38,-416.64 480.03,-418.91 489.53,-423.59 490.38,-416.64"/>
<text text-anchor="middle" x="522" y="-431" font-family="Helvetica,sans-Serif" font-size="10.00"> &lt; f32 &gt;</text>
</g>
<!-- Node22 -->
<g id="node22" class="node">
<title>Node22</title>
<g id="a_node22"><a xlink:title=" ">
<polygon fill="white" stroke="#bfbfbf" points="225.5,-402.5 225.5,-421.5 254.5,-421.5 254.5,-402.5 225.5,-402.5"/>
<text text-anchor="middle" x="240" y="-409.5" font-family="Helvetica,sans-Serif" font-size="10.00">T</text>
</a>
</g>
</g>
<!-- Node22&#45;&gt;Node21 -->
<g id="edge28" class="edge">
<title>Node22&#45;&gt;Node21</title>
<path fill="none" stroke="#9a32cd" stroke-dasharray="5,2" d="M264.75,-412C286.41,-412 319.43,-412 348.86,-412"/>
<polygon fill="#9a32cd" stroke="#9a32cd" points="264.54,-408.5 254.54,-412 264.54,-415.5 264.54,-408.5"/>
<text text-anchor="middle" x="326" y="-437" font-family="Helvetica,sans-Serif" font-size="10.00"> X</text>
<text text-anchor="middle" x="326" y="-426" font-family="Helvetica,sans-Serif" font-size="10.00">Y</text>
<text text-anchor="middle" x="326" y="-415" font-family="Helvetica,sans-Serif" font-size="10.00">Z</text>
</g>
<!-- Node23 -->
<g id="node23" class="node">
<title>Node23</title>
<g id="a_node23"><a xlink:href="classirr_1_1core_1_1aabbox3d.html" target="_top" xlink:title="Axis aligned bounding box in 3d dimensional space.">
<polygon fill="white" stroke="black" points="567.5,-377.5 567.5,-396.5 704.5,-396.5 704.5,-377.5 567.5,-377.5"/>
<text text-anchor="middle" x="636" y="-384.5" font-family="Helvetica,sans-Serif" font-size="10.00">irr::core::aabbox3d&lt; T &gt;</text>
</a>
</g>
</g>
<!-- Node23&#45;&gt;Node19 -->
<g id="edge29" class="edge">
<title>Node23&#45;&gt;Node19</title>
<path fill="none" stroke="orange" stroke-dasharray="5,2" d="M714.91,-392.51C782.45,-397.29 878.36,-404.07 937.4,-408.24"/>
<polygon fill="orange" stroke="orange" points="714.96,-389 704.74,-391.79 714.47,-395.99 714.96,-389"/>
<text text-anchor="middle" x="810" y="-407" font-family="Helvetica,sans-Serif" font-size="10.00"> &lt; f32 &gt;</text>
</g>
<!-- Node24 -->
<g id="node24" class="node">
<title>Node24</title>
<g id="a_node24"><a xlink:title=" ">
<polygon fill="white" stroke="#bfbfbf" points="370.5,-357.5 370.5,-376.5 458.5,-376.5 458.5,-357.5 370.5,-357.5"/>
<text text-anchor="middle" x="414.5" y="-364.5" font-family="Helvetica,sans-Serif" font-size="10.00">vector3d&lt; T &gt;</text>
</a>
</g>
</g>
<!-- Node24&#45;&gt;Node23 -->
<g id="edge30" class="edge">
<title>Node24&#45;&gt;Node23</title>
<path fill="none" stroke="#9a32cd" stroke-dasharray="5,2" d="M468.74,-364.98C492.46,-364.7 520.69,-365.23 546,-368 563.43,-369.91 582.48,-373.73 598.47,-377.45"/>
<polygon fill="#9a32cd" stroke="#9a32cd" points="468.47,-361.48 458.53,-365.15 468.59,-368.48 468.47,-361.48"/>
<text text-anchor="middle" x="522" y="-382" font-family="Helvetica,sans-Serif" font-size="10.00"> MinEdge</text>
<text text-anchor="middle" x="522" y="-371" font-family="Helvetica,sans-Serif" font-size="10.00">MaxEdge</text>
</g>
</g>
</svg>
        <g id="navigator" transform="translate(0 0)" fill="#404254">
                <rect fill="#f2f5e9" fill-opacity="0.5" stroke="#606060" stroke-width=".5" x="0" y="0" width="60" height="60"/>
                <use id="zoomplus" xlink:href="#zoomPlus" x="17" y="9" onmousedown="handleZoom(evt,'in')"/>
                <use id="zoomminus" xlink:href="#zoomMin" x="42" y="9" onmousedown="handleZoom(evt,'out')"/>
                <use id="reset" xlink:href="#resetDef" x="30" y="36" onmousedown="handleReset()"/>
                <g id="arrowUp" xlink:href="#dirArrow" transform="translate(30 24)" onmousedown="handlePan(0,-1)">
                  <use xlink:href="#rim" fill="#404040">
                        <set attributeName="fill" to="#808080" begin="arrowUp.mouseover" end="arrowUp.mouseout"/>
                  </use>
                  <path fill="none" stroke="white" stroke-width="1.5" d="M0,-3.0v7 M-2.5,-0.5L0,-3.0L2.5,-0.5"/>
                </g>
                <g id="arrowRight" xlink:href="#dirArrow" transform="rotate(90) translate(36 -43)" onmousedown="handlePan(1,0)">
                  <use xlink:href="#rim" fill="#404040">
                        <set attributeName="fill" to="#808080" begin="arrowRight.mouseover" end="arrowRight.mouseout"/>
                  </use>
                  <path fill="none" stroke="white" stroke-width="1.5" d="M0,-3.0v7 M-2.5,-0.5L0,-3.0L2.5,-0.5"/>
                </g>
                <g id="arrowDown" xlink:href="#dirArrow" transform="rotate(180) translate(-30 -48)" onmousedown="handlePan(0,1)">
                  <use xlink:href="#rim" fill="#404040">
                        <set attributeName="fill" to="#808080" begin="arrowDown.mouseover" end="arrowDown.mouseout"/>
                  </use>
                  <path fill="none" stroke="white" stroke-width="1.5" d="M0,-3.0v7 M-2.5,-0.5L0,-3.0L2.5,-0.5"/>
                </g>
                <g id="arrowLeft" xlink:href="#dirArrow" transform="rotate(270) translate(-36 17)" onmousedown="handlePan(-1,0)">
                  <use xlink:href="#rim" fill="#404040">
                        <set attributeName="fill" to="#808080" begin="arrowLeft.mouseover" end="arrowLeft.mouseout"/>
                  </use>
                  <path fill="none" stroke="white" stroke-width="1.5" d="M0,-3.0v7 M-2.5,-0.5L0,-3.0L2.5,-0.5"/>
                </g>
        </g>
        <svg viewBox="0 0 15 15" width="100%" height="30px" preserveAspectRatio="xMaxYMin meet">
         <g id="arrow_out" transform="scale(0.3 0.3)">
          <a xlink:href="classirr_1_1scene_1_1CSkinnedMesh__coll__graph_org.svg" target="_base">
           <rect id="button" ry="5" rx="5" y="6" x="6" height="38" width="38"
                fill="#f2f5e9" fill-opacity="0.5" stroke="#606060" stroke-width="1.0"/>
           <path id="arrow"
             d="M 11.500037,31.436501 C 11.940474,20.09759 22.043105,11.32322 32.158766,21.979434 L 37.068811,17.246167 C 37.068811,17.246167 37.088388,32 37.088388,32 L 22.160133,31.978069 C 22.160133,31.978069 26.997745,27.140456 26.997745,27.140456 C 18.528582,18.264221 13.291696,25.230495 11.500037,31.436501 z"
             style="fill:#404040;"/>
          </a>
         </g>
        </svg>
</svg>
