<?xml version="1.0" encoding="UTF-8" standalone="no"?>
<!DOCTYPE svg PUBLIC "-//W3C//DTD SVG 1.1//EN"
 "http://www.w3.org/Graphics/SVG/1.1/DTD/svg11.dtd">
<!-- Generated by graphviz version 2.43.0 (0)
 -->
<!-- Title: irr::video::IRenderTarget::setTexture Pages: 1 -->
<svg width="312pt" height="127pt"
 viewBox="0.00 0.00 312.00 126.50" xmlns="http://www.w3.org/2000/svg" xmlns:xlink="http://www.w3.org/1999/xlink">
<g id="graph0" class="graph" transform="scale(1 1) rotate(0) translate(4 122.5)">
<title>irr::video::IRenderTarget::setTexture</title>
<polygon fill="white" stroke="transparent" points="-4,4 -4,-122.5 308,-122.5 308,4 -4,4"/>
<!-- Node1 -->
<g id="node1" class="node">
<title>Node1</title>
<g id="a_node1"><a xlink:title="Set multiple textures.">
<polygon fill="#bfbfbf" stroke="black" points="0,-39 0,-69 134,-69 134,-39 0,-39"/>
<text text-anchor="start" x="8" y="-57" font-family="Helvetica,sans-Serif" font-size="10.00">irr::video::IRenderTarget</text>
<text text-anchor="middle" x="67" y="-46" font-family="Helvetica,sans-Serif" font-size="10.00">::setTexture</text>
</a>
</g>
</g>
<!-- Node2 -->
<g id="node2" class="node">
<title>Node2</title>
<g id="a_node2"><a xlink:href="classirr_1_1core_1_1array.html#a7cd7985c7fb32e90205e1df663f0fffb" target="_top" xlink:title="Gets a const pointer to the array.">
<polygon fill="white" stroke="black" points="178.5,-88 178.5,-118 295.5,-118 295.5,-88 178.5,-88"/>
<text text-anchor="start" x="186.5" y="-106" font-family="Helvetica,sans-Serif" font-size="10.00">irr::core::array::const</text>
<text text-anchor="middle" x="237" y="-95" font-family="Helvetica,sans-Serif" font-size="10.00">_pointer</text>
</a>
</g>
</g>
<!-- Node1&#45;&gt;Node2 -->
<g id="edge1" class="edge">
<title>Node1&#45;&gt;Node2</title>
<path fill="none" stroke="midnightblue" d="M119.78,-69.1C137.1,-74.16 156.59,-79.84 174.58,-85.08"/>
<polygon fill="midnightblue" stroke="midnightblue" points="173.81,-88.51 184.39,-87.95 175.77,-81.79 173.81,-88.51"/>
</g>
<!-- Node3 -->
<g id="node3" class="node">
<title>Node3</title>
<g id="a_node3"><a xlink:href="classirr_1_1video_1_1IRenderTarget.html#ad73cc8d3fe37713fe27a84b8d80475f1" target="_top" xlink:title="Set multiple textures.">
<polygon fill="white" stroke="black" points="170,-39 170,-69 304,-69 304,-39 170,-39"/>
<text text-anchor="start" x="178" y="-57" font-family="Helvetica,sans-Serif" font-size="10.00">irr::video::IRenderTarget</text>
<text text-anchor="middle" x="237" y="-46" font-family="Helvetica,sans-Serif" font-size="10.00">::setTextures</text>
</a>
</g>
</g>
<!-- Node1&#45;&gt;Node3 -->
<g id="edge2" class="edge">
<title>Node1&#45;&gt;Node3</title>
<path fill="none" stroke="midnightblue" d="M134.4,-54C142.68,-54 151.2,-54 159.62,-54"/>
<polygon fill="midnightblue" stroke="midnightblue" points="159.81,-57.5 169.81,-54 159.81,-50.5 159.81,-57.5"/>
</g>
<!-- Node4 -->
<g id="node4" class="node">
<title>Node4</title>
<g id="a_node4"><a xlink:href="classirr_1_1core_1_1array.html#af2a884d7e19d685b58617fed4ea4d4b9" target="_top" xlink:title="Get number of occupied elements of the array.">
<polygon fill="white" stroke="black" points="182,-0.5 182,-19.5 292,-19.5 292,-0.5 182,-0.5"/>
<text text-anchor="middle" x="237" y="-7.5" font-family="Helvetica,sans-Serif" font-size="10.00">irr::core::array::size</text>
</a>
</g>
</g>
<!-- Node1&#45;&gt;Node4 -->
<g id="edge3" class="edge">
<title>Node1&#45;&gt;Node4</title>
<path fill="none" stroke="midnightblue" d="M125.35,-38.98C146.41,-33.46 169.96,-27.3 189.91,-22.07"/>
<polygon fill="midnightblue" stroke="midnightblue" points="190.89,-25.43 199.68,-19.51 189.12,-18.66 190.89,-25.43"/>
</g>
</g>
</svg>
