<?xml version="1.0" encoding="UTF-8" standalone="no"?>
<!DOCTYPE svg PUBLIC "-//W3C//DTD SVG 1.1//EN"
 "http://www.w3.org/Graphics/SVG/1.1/DTD/svg11.dtd">
<!-- Generated by graphviz version 2.43.0 (0)
 -->
<!-- Title: con::NoIncomingDataException Pages: 1 -->
<svg width="178pt" height="152pt"
 viewBox="0.00 0.00 178.00 152.00" xmlns="http://www.w3.org/2000/svg" xmlns:xlink="http://www.w3.org/1999/xlink">
<g id="graph0" class="graph" transform="scale(1 1) rotate(0) translate(4 148)">
<title>con::NoIncomingDataException</title>
<polygon fill="white" stroke="transparent" points="-4,4 -4,-148 174,-148 174,4 -4,4"/>
<!-- Node1 -->
<g id="node1" class="node">
<title>Node1</title>
<g id="a_node1"><a xlink:title=" ">
<polygon fill="#bfbfbf" stroke="black" points="0,-0.5 0,-19.5 170,-19.5 170,-0.5 0,-0.5"/>
<text text-anchor="middle" x="85" y="-7.5" font-family="Helvetica,sans-Serif" font-size="10.00">con::NoIncomingDataException</text>
</a>
</g>
</g>
<!-- Node2 -->
<g id="node2" class="node">
<title>Node2</title>
<g id="a_node2"><a xlink:href="classBaseException.html" target="_top" xlink:title=" ">
<polygon fill="white" stroke="black" points="40.5,-57.5 40.5,-76.5 129.5,-76.5 129.5,-57.5 40.5,-57.5"/>
<text text-anchor="middle" x="85" y="-64.5" font-family="Helvetica,sans-Serif" font-size="10.00">BaseException</text>
</a>
</g>
</g>
<!-- Node2&#45;&gt;Node1 -->
<g id="edge1" class="edge">
<title>Node2&#45;&gt;Node1</title>
<path fill="none" stroke="midnightblue" d="M85,-47.12C85,-37.82 85,-27.06 85,-19.71"/>
<polygon fill="midnightblue" stroke="midnightblue" points="81.5,-47.41 85,-57.41 88.5,-47.41 81.5,-47.41"/>
</g>
<!-- Node3 -->
<g id="node3" class="node">
<title>Node3</title>
<g id="a_node3"><a xlink:title=" ">
<polygon fill="white" stroke="#bfbfbf" points="16.5,-124.5 16.5,-143.5 81.5,-143.5 81.5,-124.5 16.5,-124.5"/>
<text text-anchor="middle" x="49" y="-131.5" font-family="Helvetica,sans-Serif" font-size="10.00">exception</text>
</a>
</g>
</g>
<!-- Node3&#45;&gt;Node2 -->
<g id="edge2" class="edge">
<title>Node3&#45;&gt;Node2</title>
<path fill="none" stroke="midnightblue" d="M58.88,-115.16C65.82,-102.63 74.8,-86.41 80.22,-76.63"/>
<polygon fill="midnightblue" stroke="midnightblue" points="55.64,-113.79 53.86,-124.23 61.76,-117.18 55.64,-113.79"/>
</g>
<!-- Node4 -->
<g id="node4" class="node">
<title>Node4</title>
<g id="a_node4"><a xlink:title=" ">
<polygon fill="white" stroke="#bfbfbf" points="100,-124.5 100,-143.5 144,-143.5 144,-124.5 100,-124.5"/>
<text text-anchor="middle" x="122" y="-131.5" font-family="Helvetica,sans-Serif" font-size="10.00">string</text>
</a>
</g>
</g>
<!-- Node4&#45;&gt;Node2 -->
<g id="edge3" class="edge">
<title>Node4&#45;&gt;Node2</title>
<path fill="none" stroke="#9a32cd" stroke-dasharray="5,2" d="M112.06,-115.53C104.89,-102.95 95.53,-86.51 89.91,-76.63"/>
<polygon fill="#9a32cd" stroke="#9a32cd" points="109.02,-117.27 117.01,-124.23 115.1,-113.81 109.02,-117.27"/>
<text text-anchor="middle" x="117" y="-98" font-family="Helvetica,sans-Serif" font-size="10.00"> m_s</text>
</g>
</g>
</svg>
