<?xml version="1.0" encoding="UTF-8" standalone="no"?>
<!DOCTYPE svg PUBLIC "-//W3C//DTD SVG 1.1//EN"
 "http://www.w3.org/Graphics/SVG/1.1/DTD/svg11.dtd">
<!-- Generated by graphviz version 2.43.0 (0)
 -->
<!-- Title: irr::scene::IBoneSceneNode Pages: 1 -->
<!--zoomable 496 -->
<svg id="main" version="1.1" xmlns="http://www.w3.org/2000/svg" xmlns:xlink="http://www.w3.org/1999/xlink" xml:space="preserve" onload="init(evt)">
<style type="text/css"><![CDATA[
.edge:hover path { stroke: red; }
.edge:hover polygon { stroke: red; fill: red; }
]]></style>
<script type="text/javascript"><![CDATA[
var edges = document.getElementsByTagName('g');
if (edges && edges.length) {
  for (var i=0;i<edges.length;i++) {
    if (edges[i].id.substr(0,4)=='edge') {
      edges[i].setAttribute('class','edge');
    }
  }
}
]]></script>
        <defs>
                <circle id="rim" cx="0" cy="0" r="7"/>
                <circle id="rim2" cx="0" cy="0" r="3.5"/>
                <g id="zoomPlus">
                        <use xlink:href="#rim" fill="#404040">
                                <set attributeName="fill" to="#808080" begin="zoomplus.mouseover" end="zoomplus.mouseout"/>
                        </use>
                        <path d="M-4,0h8M0,-4v8" fill="none" stroke="white" stroke-width="1.5" pointer-events="none"/>
                </g>
                <g id="zoomMin">
                        <use xlink:href="#rim" fill="#404040">
                                <set attributeName="fill" to="#808080" begin="zoomminus.mouseover" end="zoomminus.mouseout"/>
                        </use>
                        <path d="M-4,0h8" fill="none" stroke="white" stroke-width="1.5" pointer-events="none"/>
                </g>
                <g id="dirArrow">
                        <path fill="none" stroke="white" stroke-width="1.5" d="M0,-3.0v7 M-2.5,-0.5L0,-3.0L2.5,-0.5"/>
                </g>
               <g id="resetDef">
                       <use xlink:href="#rim2" fill="#404040">
                               <set attributeName="fill" to="#808080" begin="reset.mouseover" end="reset.mouseout"/>
                       </use>
               </g>
        </defs>

<script type="text/javascript">
var viewWidth = 1079;
var viewHeight = 496;
var sectionId = 'dynsection-1';
</script>
<script xlink:href="svgpan.js"/>
<svg id="graph" class="graph">
<g id="viewport">
<title>irr::scene::IBoneSceneNode</title>
<polygon fill="white" stroke="transparent" points="-4,4 -4,-491.73 1075,-491.73 1075,4 -4,4"/>
<!-- Node1 -->
<g id="node1" class="node">
<title>Node1</title>
<g id="a_node1"><a xlink:title="Interface for bones used for skeletal animation.">
<polygon fill="#bfbfbf" stroke="black" points="921,-362.23 921,-381.23 1071,-381.23 1071,-362.23 921,-362.23"/>
<text text-anchor="middle" x="996" y="-369.23" font-family="Helvetica,sans-Serif" font-size="10.00">irr::scene::IBoneSceneNode</text>
</a>
</g>
</g>
<!-- Node2 -->
<g id="node2" class="node">
<title>Node2</title>
<g id="a_node2"><a xlink:href="classirr_1_1scene_1_1ISceneNode.html" target="_top" xlink:title="Scene node interface.">
<polygon fill="white" stroke="black" points="759,-263.23 759,-282.23 884,-282.23 884,-263.23 759,-263.23"/>
<text text-anchor="middle" x="821.5" y="-270.23" font-family="Helvetica,sans-Serif" font-size="10.00">irr::scene::ISceneNode</text>
</a>
</g>
</g>
<!-- Node2&#45;&gt;Node1 -->
<g id="edge1" class="edge">
<title>Node2&#45;&gt;Node1</title>
<path fill="none" stroke="midnightblue" d="M848.25,-287.51C884.12,-308.1 948.12,-344.83 978.33,-362.17"/>
<polygon fill="midnightblue" stroke="midnightblue" points="849.77,-284.35 839.35,-282.4 846.29,-290.42 849.77,-284.35"/>
</g>
<!-- Node2&#45;&gt;Node2 -->
<g id="edge25" class="edge">
<title>Node2&#45;&gt;Node2</title>
<path fill="none" stroke="#9a32cd" stroke-dasharray="5,2" d="M806.77,-292.5C807.92,-297.23 812.84,-300.73 821.5,-300.73 835.72,-300.73 839.83,-291.3 833.83,-282.49"/>
<polygon fill="#9a32cd" stroke="#9a32cd" points="810.24,-293.03 809.17,-282.49 803.43,-291.4 810.24,-293.03"/>
<text text-anchor="middle" x="821.5" y="-303.73" font-family="Helvetica,sans-Serif" font-size="10.00"> Parent</text>
</g>
<!-- Node3 -->
<g id="node3" class="node">
<title>Node3</title>
<g id="a_node3"><a xlink:href="classirr_1_1IReferenceCounted.html" target="_top" xlink:title="Base class of most objects of the Irrlicht Engine.">
<polygon fill="white" stroke="black" points="252.5,-383.23 252.5,-402.23 378.5,-402.23 378.5,-383.23 252.5,-383.23"/>
<text text-anchor="middle" x="315.5" y="-390.23" font-family="Helvetica,sans-Serif" font-size="10.00">irr::IReferenceCounted</text>
</a>
</g>
</g>
<!-- Node3&#45;&gt;Node2 -->
<g id="edge2" class="edge">
<title>Node3&#45;&gt;Node2</title>
<path fill="none" stroke="midnightblue" d="M357.66,-404.88C437.28,-425.89 615.61,-460.61 741,-392.73 785.83,-368.46 809.7,-306.67 817.54,-282.57"/>
<polygon fill="midnightblue" stroke="midnightblue" points="358.56,-401.5 347.99,-402.27 356.74,-408.26 358.56,-401.5"/>
</g>
<!-- Node20 -->
<g id="node20" class="node">
<title>Node20</title>
<g id="a_node20"><a xlink:href="classirr_1_1scene_1_1ISceneManager.html" target="_top" xlink:title="The Scene Manager manages scene nodes, mesh resources, cameras and all the other stuff.">
<polygon fill="white" stroke="black" points="460,-361.23 460,-380.23 603,-380.23 603,-361.23 460,-361.23"/>
<text text-anchor="middle" x="531.5" y="-368.23" font-family="Helvetica,sans-Serif" font-size="10.00">irr::scene::ISceneManager</text>
</a>
</g>
</g>
<!-- Node3&#45;&gt;Node20 -->
<g id="edge24" class="edge">
<title>Node3&#45;&gt;Node20</title>
<path fill="none" stroke="midnightblue" d="M388.71,-385.31C411.67,-382.95 437.03,-380.34 459.88,-377.99"/>
<polygon fill="midnightblue" stroke="midnightblue" points="388.27,-381.83 378.69,-386.34 388.99,-388.8 388.27,-381.83"/>
</g>
<!-- Node4 -->
<g id="node4" class="node">
<title>Node4</title>
<g id="a_node4"><a xlink:title=" ">
<polygon fill="white" stroke="#bfbfbf" points="42,-401.23 42,-420.23 80,-420.23 80,-401.23 42,-401.23"/>
<text text-anchor="middle" x="61" y="-408.23" font-family="Helvetica,sans-Serif" font-size="10.00">char</text>
</a>
</g>
</g>
<!-- Node4&#45;&gt;Node3 -->
<g id="edge3" class="edge">
<title>Node4&#45;&gt;Node3</title>
<path fill="none" stroke="#9a32cd" stroke-dasharray="5,2" d="M90.26,-408.72C129.26,-405.94 200.63,-400.85 252.4,-397.16"/>
<polygon fill="#9a32cd" stroke="#9a32cd" points="89.88,-405.24 80.16,-409.44 90.38,-412.22 89.88,-405.24"/>
<text text-anchor="middle" x="185.5" y="-407.73" font-family="Helvetica,sans-Serif" font-size="10.00"> DebugName</text>
</g>
<!-- Node5 -->
<g id="node5" class="node">
<title>Node5</title>
<g id="a_node5"><a xlink:title=" ">
<polygon fill="white" stroke="#bfbfbf" points="36,-363.23 36,-382.23 86,-382.23 86,-363.23 36,-363.23"/>
<text text-anchor="middle" x="61" y="-370.23" font-family="Helvetica,sans-Serif" font-size="10.00">int32_t</text>
</a>
</g>
</g>
<!-- Node5&#45;&gt;Node1 -->
<g id="edge26" class="edge">
<title>Node5&#45;&gt;Node1</title>
<path fill="none" stroke="#9a32cd" stroke-dasharray="5,2" d="M96.22,-379.14C105.22,-381.96 114.5,-385.99 122,-391.73 133.75,-400.72 127.78,-411.39 140,-419.73 205.34,-464.31 235.4,-454.73 314.5,-454.73 314.5,-454.73 314.5,-454.73 822.5,-454.73 889.63,-454.73 958.22,-403.05 984.17,-381.25"/>
<polygon fill="#9a32cd" stroke="#9a32cd" points="96.85,-375.69 86.29,-376.44 95.02,-382.44 96.85,-375.69"/>
<text text-anchor="middle" x="531.5" y="-479.73" font-family="Helvetica,sans-Serif" font-size="10.00"> scaleHint</text>
<text text-anchor="middle" x="531.5" y="-468.73" font-family="Helvetica,sans-Serif" font-size="10.00">rotationHint</text>
<text text-anchor="middle" x="531.5" y="-457.73" font-family="Helvetica,sans-Serif" font-size="10.00">positionHint</text>
</g>
<!-- Node5&#45;&gt;Node2 -->
<g id="edge14" class="edge">
<title>Node5&#45;&gt;Node2</title>
<path fill="none" stroke="#9a32cd" stroke-dasharray="5,2" d="M96.08,-361.44C164.24,-339.5 322.64,-291.78 460,-274.73 564.35,-261.78 686.99,-264.97 758.98,-268.69"/>
<polygon fill="#9a32cd" stroke="#9a32cd" points="94.74,-358.19 86.31,-364.61 96.9,-364.85 94.74,-358.19"/>
<text text-anchor="middle" x="421" y="-285.73" font-family="Helvetica,sans-Serif" font-size="10.00"> ID</text>
</g>
<!-- Node5&#45;&gt;Node3 -->
<g id="edge4" class="edge">
<title>Node5&#45;&gt;Node3</title>
<path fill="none" stroke="#9a32cd" stroke-dasharray="5,2" d="M96.46,-374.55C130.64,-376.45 184.48,-379.71 231,-383.73 237.83,-384.32 244.96,-385 252.06,-385.71"/>
<polygon fill="#9a32cd" stroke="#9a32cd" points="96.27,-371.03 86.09,-373.98 95.89,-378.02 96.27,-371.03"/>
<text text-anchor="middle" x="185.5" y="-386.73" font-family="Helvetica,sans-Serif" font-size="10.00"> ReferenceCounter</text>
</g>
<!-- Node6 -->
<g id="node6" class="node">
<title>Node6</title>
<g id="a_node6"><a xlink:href="classirr_1_1core_1_1vector3d.html" target="_top" xlink:title=" ">
<polygon fill="white" stroke="black" points="480,-192.73 480,-222.73 583,-222.73 583,-192.73 480,-192.73"/>
<text text-anchor="start" x="488" y="-210.73" font-family="Helvetica,sans-Serif" font-size="10.00">irr::core::vector3d</text>
<text text-anchor="middle" x="531.5" y="-199.73" font-family="Helvetica,sans-Serif" font-size="10.00">&lt; f32 &gt;</text>
</a>
</g>
</g>
<!-- Node6&#45;&gt;Node2 -->
<g id="edge5" class="edge">
<title>Node6&#45;&gt;Node2</title>
<path fill="none" stroke="#9a32cd" stroke-dasharray="5,2" d="M593.33,-197.65C635.92,-193.05 693.47,-191.85 741,-208.73 771.72,-219.64 799.35,-247.93 812.46,-262.98"/>
<polygon fill="#9a32cd" stroke="#9a32cd" points="592.91,-194.17 583.39,-198.81 593.73,-201.12 592.91,-194.17"/>
<text text-anchor="middle" x="681" y="-233.73" font-family="Helvetica,sans-Serif" font-size="10.00"> RelativeScale</text>
<text text-anchor="middle" x="681" y="-222.73" font-family="Helvetica,sans-Serif" font-size="10.00">RelativeRotation</text>
<text text-anchor="middle" x="681" y="-211.73" font-family="Helvetica,sans-Serif" font-size="10.00">RelativeTranslation</text>
</g>
<!-- Node7 -->
<g id="node7" class="node">
<title>Node7</title>
<g id="a_node7"><a xlink:title=" ">
<polygon fill="white" stroke="#bfbfbf" points="296.5,-152.23 296.5,-171.23 334.5,-171.23 334.5,-152.23 296.5,-152.23"/>
<text text-anchor="middle" x="315.5" y="-159.23" font-family="Helvetica,sans-Serif" font-size="10.00">float</text>
</a>
</g>
</g>
<!-- Node7&#45;&gt;Node6 -->
<g id="edge6" class="edge">
<title>Node7&#45;&gt;Node6</title>
<path fill="none" stroke="#9a32cd" stroke-dasharray="5,2" d="M344.78,-161.89C370.46,-162.58 409.22,-164.99 442,-172.73 461.46,-177.33 482.29,-185.4 498.86,-192.63"/>
<polygon fill="#9a32cd" stroke="#9a32cd" points="344.7,-158.39 334.63,-161.69 344.56,-165.39 344.7,-158.39"/>
<text text-anchor="middle" x="421" y="-197.73" font-family="Helvetica,sans-Serif" font-size="10.00"> X</text>
<text text-anchor="middle" x="421" y="-186.73" font-family="Helvetica,sans-Serif" font-size="10.00">Y</text>
<text text-anchor="middle" x="421" y="-175.73" font-family="Helvetica,sans-Serif" font-size="10.00">Z</text>
</g>
<!-- Node11 -->
<g id="node11" class="node">
<title>Node11</title>
<g id="a_node11"><a xlink:href="classirr_1_1core_1_1CMatrix4.html" target="_top" xlink:title=" ">
<polygon fill="white" stroke="black" points="479.5,-130.73 479.5,-160.73 583.5,-160.73 583.5,-130.73 479.5,-130.73"/>
<text text-anchor="start" x="487.5" y="-148.73" font-family="Helvetica,sans-Serif" font-size="10.00">irr::core::CMatrix4</text>
<text text-anchor="middle" x="531.5" y="-137.73" font-family="Helvetica,sans-Serif" font-size="10.00">&lt; f32 &gt;</text>
</a>
</g>
</g>
<!-- Node7&#45;&gt;Node11 -->
<g id="edge11" class="edge">
<title>Node7&#45;&gt;Node11</title>
<path fill="none" stroke="#9a32cd" stroke-dasharray="5,2" d="M344.61,-152.39C360.64,-147.55 381.22,-142.16 400,-139.73 425.98,-136.37 455.08,-137.26 479.2,-139.25"/>
<polygon fill="#9a32cd" stroke="#9a32cd" points="343.3,-149.13 334.8,-155.45 345.39,-155.81 343.3,-149.13"/>
<text text-anchor="middle" x="421" y="-142.73" font-family="Helvetica,sans-Serif" font-size="10.00"> M</text>
</g>
<!-- Node8 -->
<g id="node8" class="node">
<title>Node8</title>
<g id="a_node8"><a xlink:href="classirr_1_1core_1_1vector3d.html" target="_top" xlink:title="3d vector template class with lots of operators and methods.">
<polygon fill="white" stroke="black" points="250,-203.23 250,-222.23 381,-222.23 381,-203.23 250,-203.23"/>
<text text-anchor="middle" x="315.5" y="-210.23" font-family="Helvetica,sans-Serif" font-size="10.00">irr::core::vector3d&lt; T &gt;</text>
</a>
</g>
</g>
<!-- Node8&#45;&gt;Node6 -->
<g id="edge7" class="edge">
<title>Node8&#45;&gt;Node6</title>
<path fill="none" stroke="orange" stroke-dasharray="5,2" d="M391.47,-210.98C420.72,-210.3 453.48,-209.53 479.86,-208.92"/>
<polygon fill="orange" stroke="orange" points="391.2,-207.49 381.29,-211.22 391.37,-214.48 391.2,-207.49"/>
<text text-anchor="middle" x="421" y="-212.73" font-family="Helvetica,sans-Serif" font-size="10.00"> &lt; f32 &gt;</text>
</g>
<!-- Node9 -->
<g id="node9" class="node">
<title>Node9</title>
<g id="a_node9"><a xlink:title=" ">
<polygon fill="white" stroke="#bfbfbf" points="46.5,-160.23 46.5,-179.23 75.5,-179.23 75.5,-160.23 46.5,-160.23"/>
<text text-anchor="middle" x="61" y="-167.23" font-family="Helvetica,sans-Serif" font-size="10.00">T</text>
</a>
</g>
</g>
<!-- Node9&#45;&gt;Node8 -->
<g id="edge8" class="edge">
<title>Node9&#45;&gt;Node8</title>
<path fill="none" stroke="#9a32cd" stroke-dasharray="5,2" d="M85.49,-173.73C124.62,-180.4 204.23,-193.95 258.48,-203.19"/>
<polygon fill="#9a32cd" stroke="#9a32cd" points="86.02,-170.27 75.58,-172.04 84.85,-177.17 86.02,-170.27"/>
<text text-anchor="middle" x="185.5" y="-221.73" font-family="Helvetica,sans-Serif" font-size="10.00"> X</text>
<text text-anchor="middle" x="185.5" y="-210.73" font-family="Helvetica,sans-Serif" font-size="10.00">Y</text>
<text text-anchor="middle" x="185.5" y="-199.73" font-family="Helvetica,sans-Serif" font-size="10.00">Z</text>
</g>
<!-- Node12 -->
<g id="node12" class="node">
<title>Node12</title>
<g id="a_node12"><a xlink:href="classirr_1_1core_1_1CMatrix4.html" target="_top" xlink:title="4x4 matrix. Mostly used as transformation matrix for 3d calculations.">
<polygon fill="white" stroke="black" points="249,-109.23 249,-128.23 382,-128.23 382,-109.23 249,-109.23"/>
<text text-anchor="middle" x="315.5" y="-116.23" font-family="Helvetica,sans-Serif" font-size="10.00">irr::core::CMatrix4&lt; T &gt;</text>
</a>
</g>
</g>
<!-- Node9&#45;&gt;Node12 -->
<g id="edge13" class="edge">
<title>Node9&#45;&gt;Node12</title>
<path fill="none" stroke="#9a32cd" stroke-dasharray="5,2" d="M85.53,-164.98C126.88,-156.63 213.34,-139.16 267.38,-128.25"/>
<polygon fill="#9a32cd" stroke="#9a32cd" points="84.68,-161.58 75.58,-166.99 86.07,-168.44 84.68,-161.58"/>
<text text-anchor="middle" x="185.5" y="-155.73" font-family="Helvetica,sans-Serif" font-size="10.00"> M</text>
</g>
<!-- Node10 -->
<g id="node10" class="node">
<title>Node10</title>
<g id="a_node10"><a xlink:title=" ">
<polygon fill="white" stroke="#bfbfbf" points="468.5,-81.73 468.5,-111.73 594.5,-111.73 594.5,-81.73 468.5,-81.73"/>
<text text-anchor="start" x="476.5" y="-99.73" font-family="Helvetica,sans-Serif" font-size="10.00">list&lt; irr::scene::IScene</text>
<text text-anchor="middle" x="531.5" y="-88.73" font-family="Helvetica,sans-Serif" font-size="10.00">Node * &gt;</text>
</a>
</g>
</g>
<!-- Node10&#45;&gt;Node2 -->
<g id="edge9" class="edge">
<title>Node10&#45;&gt;Node2</title>
<path fill="none" stroke="#9a32cd" stroke-dasharray="5,2" d="M604.94,-93.42C647.97,-94.91 701.65,-103.17 741,-130.73 789.13,-164.45 811.53,-237.12 818.24,-263.18"/>
<polygon fill="#9a32cd" stroke="#9a32cd" points="604.89,-89.92 594.81,-93.18 604.72,-96.91 604.89,-89.92"/>
<text text-anchor="middle" x="681" y="-133.73" font-family="Helvetica,sans-Serif" font-size="10.00"> Children</text>
</g>
<!-- Node11&#45;&gt;Node2 -->
<g id="edge10" class="edge">
<title>Node11&#45;&gt;Node2</title>
<path fill="none" stroke="#9a32cd" stroke-dasharray="5,2" d="M593.93,-144.39C637.53,-145.97 696.06,-153.43 741,-178.73 777.5,-199.29 804.71,-243.47 815.46,-263.05"/>
<polygon fill="#9a32cd" stroke="#9a32cd" points="593.83,-140.88 583.74,-144.11 593.64,-147.88 593.83,-140.88"/>
<text text-anchor="middle" x="681" y="-181.73" font-family="Helvetica,sans-Serif" font-size="10.00"> AbsoluteTransformation</text>
</g>
<!-- Node12&#45;&gt;Node11 -->
<g id="edge12" class="edge">
<title>Node12&#45;&gt;Node11</title>
<path fill="none" stroke="orange" stroke-dasharray="5,2" d="M392.32,-117.6C408.77,-118.18 426.01,-119.41 442,-121.73 455.55,-123.7 469.98,-127.06 483.18,-130.64"/>
<polygon fill="orange" stroke="orange" points="392.3,-114.1 382.21,-117.33 392.11,-121.1 392.3,-114.1"/>
<text text-anchor="middle" x="421" y="-124.73" font-family="Helvetica,sans-Serif" font-size="10.00"> &lt; f32 &gt;</text>
</g>
<!-- Node13 -->
<g id="node13" class="node">
<title>Node13</title>
<g id="a_node13"><a xlink:href="classirr_1_1core_1_1string.html" target="_top" xlink:title=" ">
<polygon fill="white" stroke="black" points="470.5,-39.23 470.5,-58.23 592.5,-58.23 592.5,-39.23 470.5,-39.23"/>
<text text-anchor="middle" x="531.5" y="-46.23" font-family="Helvetica,sans-Serif" font-size="10.00">irr::core::string&lt; c8 &gt;</text>
</a>
</g>
</g>
<!-- Node13&#45;&gt;Node2 -->
<g id="edge15" class="edge">
<title>Node13&#45;&gt;Node2</title>
<path fill="none" stroke="#9a32cd" stroke-dasharray="5,2" d="M602.6,-42.56C646.63,-42.39 702.23,-49.4 741,-79.73 802.37,-127.74 816.73,-231.24 819.76,-263.16"/>
<polygon fill="#9a32cd" stroke="#9a32cd" points="602.47,-39.06 592.53,-42.72 602.59,-46.06 602.47,-39.06"/>
<text text-anchor="middle" x="681" y="-82.73" font-family="Helvetica,sans-Serif" font-size="10.00"> Name</text>
</g>
<!-- Node14 -->
<g id="node14" class="node">
<title>Node14</title>
<g id="a_node14"><a xlink:title=" ">
<polygon fill="white" stroke="#bfbfbf" points="261,-27.23 261,-46.23 370,-46.23 370,-27.23 261,-27.23"/>
<text text-anchor="middle" x="315.5" y="-34.23" font-family="Helvetica,sans-Serif" font-size="10.00">basic_string&lt; c8 &gt;</text>
</a>
</g>
</g>
<!-- Node14&#45;&gt;Node13 -->
<g id="edge16" class="edge">
<title>Node14&#45;&gt;Node13</title>
<path fill="none" stroke="#9a32cd" stroke-dasharray="5,2" d="M380.42,-35.81C400.18,-35.91 422,-36.41 442,-37.73 451.12,-38.33 460.73,-39.24 470.13,-40.28"/>
<polygon fill="#9a32cd" stroke="#9a32cd" points="380.3,-32.31 370.29,-35.8 380.29,-39.31 380.3,-32.31"/>
<text text-anchor="middle" x="421" y="-40.73" font-family="Helvetica,sans-Serif" font-size="10.00"> str</text>
</g>
<!-- Node15 -->
<g id="node15" class="node">
<title>Node15</title>
<g id="a_node15"><a xlink:title=" ">
<polygon fill="white" stroke="#bfbfbf" points="0,-8.23 0,-27.23 122,-27.23 122,-8.23 0,-8.23"/>
<text text-anchor="middle" x="61" y="-15.23" font-family="Helvetica,sans-Serif" font-size="10.00">static const size_type</text>
</a>
</g>
</g>
<!-- Node15&#45;&gt;Node13 -->
<g id="edge17" class="edge">
<title>Node15&#45;&gt;Node13</title>
<path fill="none" stroke="#9a32cd" stroke-dasharray="5,2" d="M132.32,-8.41C197.4,-1.42 296.68,5.1 382,-6.73 426.19,-12.86 475.71,-28.78 504.94,-39.17"/>
<polygon fill="#9a32cd" stroke="#9a32cd" points="131.73,-4.96 122.18,-9.54 132.5,-11.91 131.73,-4.96"/>
<text text-anchor="middle" x="315.5" y="-9.73" font-family="Helvetica,sans-Serif" font-size="10.00"> npos</text>
</g>
<!-- Node16 -->
<g id="node16" class="node">
<title>Node16</title>
<g id="a_node16"><a xlink:href="classirr_1_1core_1_1string.html" target="_top" xlink:title="Very simple string class with some useful features.">
<polygon fill="white" stroke="black" points="257.5,-65.23 257.5,-84.23 373.5,-84.23 373.5,-65.23 257.5,-65.23"/>
<text text-anchor="middle" x="315.5" y="-72.23" font-family="Helvetica,sans-Serif" font-size="10.00">irr::core::string&lt; T &gt;</text>
</a>
</g>
</g>
<!-- Node15&#45;&gt;Node16 -->
<g id="edge20" class="edge">
<title>Node15&#45;&gt;Node16</title>
<path fill="none" stroke="#9a32cd" stroke-dasharray="5,2" d="M114.2,-29.51C160.94,-40.07 228.62,-55.35 272.1,-65.16"/>
<polygon fill="#9a32cd" stroke="#9a32cd" points="114.79,-26.06 104.26,-27.27 113.25,-32.89 114.79,-26.06"/>
<text text-anchor="middle" x="185.5" y="-57.73" font-family="Helvetica,sans-Serif" font-size="10.00"> npos</text>
</g>
<!-- Node16&#45;&gt;Node13 -->
<g id="edge18" class="edge">
<title>Node16&#45;&gt;Node13</title>
<path fill="none" stroke="orange" stroke-dasharray="5,2" d="M383.58,-66.58C411.32,-63.21 443.24,-59.33 470.22,-56.06"/>
<polygon fill="orange" stroke="orange" points="383.07,-63.12 373.57,-67.8 383.92,-70.07 383.07,-63.12"/>
<text text-anchor="middle" x="421" y="-67.73" font-family="Helvetica,sans-Serif" font-size="10.00"> &lt; c8 &gt;</text>
</g>
<!-- Node17 -->
<g id="node17" class="node">
<title>Node17</title>
<g id="a_node17"><a xlink:title=" ">
<polygon fill="white" stroke="#bfbfbf" points="9,-65.23 9,-84.23 113,-84.23 113,-65.23 9,-65.23"/>
<text text-anchor="middle" x="61" y="-72.23" font-family="Helvetica,sans-Serif" font-size="10.00">basic_string&lt; T &gt;</text>
</a>
</g>
</g>
<!-- Node17&#45;&gt;Node16 -->
<g id="edge19" class="edge">
<title>Node17&#45;&gt;Node16</title>
<path fill="none" stroke="#9a32cd" stroke-dasharray="5,2" d="M123.19,-74.73C164.02,-74.73 217.34,-74.73 257.31,-74.73"/>
<polygon fill="#9a32cd" stroke="#9a32cd" points="123.1,-71.23 113.1,-74.73 123.1,-78.23 123.1,-71.23"/>
<text text-anchor="middle" x="185.5" y="-77.73" font-family="Helvetica,sans-Serif" font-size="10.00"> str</text>
</g>
<!-- Node18 -->
<g id="node18" class="node">
<title>Node18</title>
<g id="a_node18"><a xlink:title=" ">
<polygon fill="white" stroke="#bfbfbf" points="503.5,-323.23 503.5,-342.23 559.5,-342.23 559.5,-323.23 503.5,-323.23"/>
<text text-anchor="middle" x="531.5" y="-330.23" font-family="Helvetica,sans-Serif" font-size="10.00">uint32_t</text>
</a>
</g>
</g>
<!-- Node18&#45;&gt;Node2 -->
<g id="edge21" class="edge">
<title>Node18&#45;&gt;Node2</title>
<path fill="none" stroke="#9a32cd" stroke-dasharray="5,2" d="M569.85,-332.93C612.16,-332.24 682.79,-328.36 741,-311.73 764.5,-305.02 789.48,-291.6 805.03,-282.39"/>
<polygon fill="#9a32cd" stroke="#9a32cd" points="569.69,-329.43 559.73,-333.04 569.77,-336.43 569.69,-329.43"/>
<text text-anchor="middle" x="681" y="-343.73" font-family="Helvetica,sans-Serif" font-size="10.00"> DebugDataVisible</text>
<text text-anchor="middle" x="681" y="-332.73" font-family="Helvetica,sans-Serif" font-size="10.00">AutomaticCullingState</text>
</g>
<!-- Node19 -->
<g id="node19" class="node">
<title>Node19</title>
<g id="a_node19"><a xlink:href="classbool.html" target="_top" xlink:title=" ">
<polygon fill="white" stroke="black" points="512.5,-284.23 512.5,-303.23 550.5,-303.23 550.5,-284.23 512.5,-284.23"/>
<text text-anchor="middle" x="531.5" y="-291.23" font-family="Helvetica,sans-Serif" font-size="10.00">bool</text>
</a>
</g>
</g>
<!-- Node19&#45;&gt;Node2 -->
<g id="edge22" class="edge">
<title>Node19&#45;&gt;Node2</title>
<path fill="none" stroke="#9a32cd" stroke-dasharray="5,2" d="M560.56,-291.69C606.16,-288.36 697.39,-281.71 758.72,-277.24"/>
<polygon fill="#9a32cd" stroke="#9a32cd" points="560.23,-288.2 550.52,-292.42 560.74,-295.18 560.23,-288.2"/>
<text text-anchor="middle" x="681" y="-300.73" font-family="Helvetica,sans-Serif" font-size="10.00"> IsDebugObject</text>
<text text-anchor="middle" x="681" y="-289.73" font-family="Helvetica,sans-Serif" font-size="10.00">IsVisible</text>
</g>
<!-- Node20&#45;&gt;Node2 -->
<g id="edge23" class="edge">
<title>Node20&#45;&gt;Node2</title>
<path fill="none" stroke="#9a32cd" stroke-dasharray="5,2" d="M613.3,-378.22C653.44,-378.7 701.64,-374.23 741,-355.73 775.85,-339.35 803.34,-300.49 814.76,-282.36"/>
<polygon fill="#9a32cd" stroke="#9a32cd" points="613.35,-374.72 603.28,-377.99 613.2,-381.71 613.35,-374.72"/>
<text text-anchor="middle" x="681" y="-380.73" font-family="Helvetica,sans-Serif" font-size="10.00"> SceneManager</text>
</g>
</g>
</svg>
        <g id="navigator" transform="translate(0 0)" fill="#404254">
                <rect fill="#f2f5e9" fill-opacity="0.5" stroke="#606060" stroke-width=".5" x="0" y="0" width="60" height="60"/>
                <use id="zoomplus" xlink:href="#zoomPlus" x="17" y="9" onmousedown="handleZoom(evt,'in')"/>
                <use id="zoomminus" xlink:href="#zoomMin" x="42" y="9" onmousedown="handleZoom(evt,'out')"/>
                <use id="reset" xlink:href="#resetDef" x="30" y="36" onmousedown="handleReset()"/>
                <g id="arrowUp" xlink:href="#dirArrow" transform="translate(30 24)" onmousedown="handlePan(0,-1)">
                  <use xlink:href="#rim" fill="#404040">
                        <set attributeName="fill" to="#808080" begin="arrowUp.mouseover" end="arrowUp.mouseout"/>
                  </use>
                  <path fill="none" stroke="white" stroke-width="1.5" d="M0,-3.0v7 M-2.5,-0.5L0,-3.0L2.5,-0.5"/>
                </g>
                <g id="arrowRight" xlink:href="#dirArrow" transform="rotate(90) translate(36 -43)" onmousedown="handlePan(1,0)">
                  <use xlink:href="#rim" fill="#404040">
                        <set attributeName="fill" to="#808080" begin="arrowRight.mouseover" end="arrowRight.mouseout"/>
                  </use>
                  <path fill="none" stroke="white" stroke-width="1.5" d="M0,-3.0v7 M-2.5,-0.5L0,-3.0L2.5,-0.5"/>
                </g>
                <g id="arrowDown" xlink:href="#dirArrow" transform="rotate(180) translate(-30 -48)" onmousedown="handlePan(0,1)">
                  <use xlink:href="#rim" fill="#404040">
                        <set attributeName="fill" to="#808080" begin="arrowDown.mouseover" end="arrowDown.mouseout"/>
                  </use>
                  <path fill="none" stroke="white" stroke-width="1.5" d="M0,-3.0v7 M-2.5,-0.5L0,-3.0L2.5,-0.5"/>
                </g>
                <g id="arrowLeft" xlink:href="#dirArrow" transform="rotate(270) translate(-36 17)" onmousedown="handlePan(-1,0)">
                  <use xlink:href="#rim" fill="#404040">
                        <set attributeName="fill" to="#808080" begin="arrowLeft.mouseover" end="arrowLeft.mouseout"/>
                  </use>
                  <path fill="none" stroke="white" stroke-width="1.5" d="M0,-3.0v7 M-2.5,-0.5L0,-3.0L2.5,-0.5"/>
                </g>
        </g>
        <svg viewBox="0 0 15 15" width="100%" height="30px" preserveAspectRatio="xMaxYMin meet">
         <g id="arrow_out" transform="scale(0.3 0.3)">
          <a xlink:href="classirr_1_1scene_1_1IBoneSceneNode__coll__graph_org.svg" target="_base">
           <rect id="button" ry="5" rx="5" y="6" x="6" height="38" width="38"
                fill="#f2f5e9" fill-opacity="0.5" stroke="#606060" stroke-width="1.0"/>
           <path id="arrow"
             d="M 11.500037,31.436501 C 11.940474,20.09759 22.043105,11.32322 32.158766,21.979434 L 37.068811,17.246167 C 37.068811,17.246167 37.088388,32 37.088388,32 L 22.160133,31.978069 C 22.160133,31.978069 26.997745,27.140456 26.997745,27.140456 C 18.528582,18.264221 13.291696,25.230495 11.500037,31.436501 z"
             style="fill:#404040;"/>
          </a>
         </g>
        </svg>
</svg>
