<?xml version="1.0" encoding="UTF-8" standalone="no"?>
<!DOCTYPE svg PUBLIC "-//W3C//DTD SVG 1.1//EN"
 "http://www.w3.org/Graphics/SVG/1.1/DTD/svg11.dtd">
<!-- Generated by graphviz version 2.43.0 (0)
 -->
<!-- Title: irr::video::CColorConverter::convert8BitTo16Bit Pages: 1 -->
<svg width="330pt" height="39pt"
 viewBox="0.00 0.00 330.00 39.00" xmlns="http://www.w3.org/2000/svg" xmlns:xlink="http://www.w3.org/1999/xlink">
<g id="graph0" class="graph" transform="scale(1 1) rotate(0) translate(4 35)">
<title>irr::video::CColorConverter::convert8BitTo16Bit</title>
<polygon fill="white" stroke="transparent" points="-4,4 -4,-35 326,-35 326,4 -4,4"/>
<!-- Node1 -->
<g id="node1" class="node">
<title>Node1</title>
<g id="a_node1"><a xlink:title="converts a 8 bit palettized image to A1R5G5B5">
<polygon fill="#bfbfbf" stroke="black" points="0,-0.5 0,-30.5 146,-30.5 146,-0.5 0,-0.5"/>
<text text-anchor="start" x="8" y="-18.5" font-family="Helvetica,sans-Serif" font-size="10.00">irr::video::CColorConverter</text>
<text text-anchor="middle" x="73" y="-7.5" font-family="Helvetica,sans-Serif" font-size="10.00">::convert8BitTo16Bit</text>
</a>
</g>
</g>
<!-- Node2 -->
<g id="node2" class="node">
<title>Node2</title>
<g id="a_node2"><a xlink:href="namespaceirr_1_1video.html#a6824dfc9c71a7fd9d7a3e704b1267ddc" target="_top" xlink:title="Converts a 32bit (X8R8G8B8) color to a 16bit A1R5G5B5 color.">
<polygon fill="white" stroke="black" points="182,-0.5 182,-30.5 322,-30.5 322,-0.5 182,-0.5"/>
<text text-anchor="start" x="190" y="-18.5" font-family="Helvetica,sans-Serif" font-size="10.00">irr::video::X8R8G8B8toA1</text>
<text text-anchor="middle" x="252" y="-7.5" font-family="Helvetica,sans-Serif" font-size="10.00">R5G5B5</text>
</a>
</g>
</g>
<!-- Node1&#45;&gt;Node2 -->
<g id="edge1" class="edge">
<title>Node1&#45;&gt;Node2</title>
<path fill="none" stroke="midnightblue" d="M146.25,-15.5C154.61,-15.5 163.17,-15.5 171.61,-15.5"/>
<polygon fill="midnightblue" stroke="midnightblue" points="171.84,-19 181.84,-15.5 171.84,-12 171.84,-19"/>
</g>
</g>
</svg>
