<?xml version="1.0" encoding="UTF-8" standalone="no"?>
<!DOCTYPE svg PUBLIC "-//W3C//DTD SVG 1.1//EN"
 "http://www.w3.org/Graphics/SVG/1.1/DTD/svg11.dtd">
<!-- Generated by graphviz version 2.43.0 (0)
 -->
<!-- Title: TerminalChatConsole Pages: 1 -->
<svg width="1489pt" height="1098pt"
 viewBox="0.00 0.00 1489.00 1097.50" xmlns="http://www.w3.org/2000/svg" xmlns:xlink="http://www.w3.org/1999/xlink">
<g id="graph0" class="graph" transform="scale(1 1) rotate(0) translate(4 1093.5)">
<title>TerminalChatConsole</title>
<polygon fill="white" stroke="transparent" points="-4,4 -4,-1093.5 1485,-1093.5 1485,4 -4,4"/>
<!-- Node1 -->
<g id="node1" class="node">
<title>Node1</title>
<g id="a_node1"><a xlink:title=" ">
<polygon fill="#bfbfbf" stroke="black" points="1361,-400 1361,-419 1481,-419 1481,-400 1361,-400"/>
<text text-anchor="middle" x="1421" y="-407" font-family="Helvetica,sans-Serif" font-size="10.00">TerminalChatConsole</text>
</a>
</g>
</g>
<!-- Node2 -->
<g id="node2" class="node">
<title>Node2</title>
<g id="a_node2"><a xlink:href="classThread.html" target="_top" xlink:title=" ">
<polygon fill="white" stroke="black" points="543.5,-926 543.5,-945 593.5,-945 593.5,-926 543.5,-926"/>
<text text-anchor="middle" x="568.5" y="-933" font-family="Helvetica,sans-Serif" font-size="10.00">Thread</text>
</a>
</g>
</g>
<!-- Node2&#45;&gt;Node1 -->
<g id="edge1" class="edge">
<title>Node2&#45;&gt;Node1</title>
<path fill="none" stroke="midnightblue" d="M603.87,-937.56C724.87,-942.77 1135.03,-943 1343,-724.5 1386.96,-678.32 1413.41,-467.27 1418.92,-419.24"/>
<polygon fill="midnightblue" stroke="midnightblue" points="603.87,-934.05 593.72,-937.08 603.54,-941.04 603.87,-934.05"/>
</g>
<!-- Node3 -->
<g id="node3" class="node">
<title>Node3</title>
<g id="a_node3"><a xlink:title=" ">
<polygon fill="white" stroke="#bfbfbf" points="211.5,-823 211.5,-842 259.5,-842 259.5,-823 211.5,-823"/>
<text text-anchor="middle" x="235.5" y="-830" font-family="Helvetica,sans-Serif" font-size="10.00">mutex</text>
</a>
</g>
</g>
<!-- Node3&#45;&gt;Node2 -->
<g id="edge2" class="edge">
<title>Node3&#45;&gt;Node2</title>
<path fill="none" stroke="#9a32cd" stroke-dasharray="5,2" d="M269.86,-841.09C325.07,-855.51 432.96,-884.55 469,-900.5 477.57,-904.29 478.44,-907.68 487,-911.5 505.25,-919.63 527.02,-925.93 543.32,-930.03"/>
<polygon fill="#9a32cd" stroke="#9a32cd" points="270.43,-837.62 259.87,-838.49 268.67,-844.4 270.43,-837.62"/>
<text text-anchor="middle" x="408.5" y="-914.5" font-family="Helvetica,sans-Serif" font-size="10.00"> m_start_finished_mutex</text>
<text text-anchor="middle" x="408.5" y="-903.5" font-family="Helvetica,sans-Serif" font-size="10.00">m_mutex</text>
</g>
<!-- Node10 -->
<g id="node10" class="node">
<title>Node10</title>
<g id="a_node10"><a xlink:href="classMutexedQueue.html" target="_top" xlink:title=" ">
<polygon fill="white" stroke="black" points="813,-776 813,-795 984,-795 984,-776 813,-776"/>
<text text-anchor="middle" x="898.5" y="-783" font-family="Helvetica,sans-Serif" font-size="10.00">MutexedQueue&lt; ChatEvent * &gt;</text>
</a>
</g>
</g>
<!-- Node3&#45;&gt;Node10 -->
<g id="edge12" class="edge">
<title>Node3&#45;&gt;Node10</title>
<path fill="none" stroke="#9a32cd" stroke-dasharray="5,2" d="M269.93,-835.68C315.31,-840.31 398.81,-849.99 469,-864.5 477.13,-866.18 478.77,-868.38 487,-869.5 622.71,-888 666.21,-906.09 795,-859.5 834.01,-845.39 871.29,-811.78 888.13,-795.15"/>
<polygon fill="#9a32cd" stroke="#9a32cd" points="270.07,-832.17 259.78,-834.66 269.38,-839.14 270.07,-832.17"/>
<text text-anchor="middle" x="568.5" y="-891.5" font-family="Helvetica,sans-Serif" font-size="10.00"> m_mutex</text>
</g>
<!-- Node14 -->
<g id="node14" class="node">
<title>Node14</title>
<g id="a_node14"><a xlink:href="classMutexedQueue.html" target="_top" xlink:title=" ">
<polygon fill="white" stroke="black" points="509,-752 509,-771 628,-771 628,-752 509,-752"/>
<text text-anchor="middle" x="568.5" y="-759" font-family="Helvetica,sans-Serif" font-size="10.00">MutexedQueue&lt; T &gt;</text>
</a>
</g>
</g>
<!-- Node3&#45;&gt;Node14 -->
<g id="edge16" class="edge">
<title>Node3&#45;&gt;Node14</title>
<path fill="none" stroke="#9a32cd" stroke-dasharray="5,2" d="M266.6,-819.01C288.71,-809.64 319.69,-797.6 348,-790.5 401.5,-777.08 463.99,-769.59 508.58,-765.6"/>
<polygon fill="#9a32cd" stroke="#9a32cd" points="265.21,-815.8 257.41,-822.97 267.98,-822.23 265.21,-815.8"/>
<text text-anchor="middle" x="408.5" y="-793.5" font-family="Helvetica,sans-Serif" font-size="10.00"> m_mutex</text>
</g>
<!-- Node18 -->
<g id="node18" class="node">
<title>Node18</title>
<g id="a_node18"><a xlink:href="classMutexedQueue.html" target="_top" xlink:title=" ">
<polygon fill="white" stroke="black" points="837.5,-655 837.5,-696 959.5,-696 959.5,-655 837.5,-655"/>
<text text-anchor="start" x="845.5" y="-684" font-family="Helvetica,sans-Serif" font-size="10.00">MutexedQueue&lt; std::</text>
<text text-anchor="start" x="845.5" y="-673" font-family="Helvetica,sans-Serif" font-size="10.00">pair&lt; LogLevel, std</text>
<text text-anchor="middle" x="898.5" y="-662" font-family="Helvetica,sans-Serif" font-size="10.00">::string &gt; &gt;</text>
</a>
</g>
</g>
<!-- Node3&#45;&gt;Node18 -->
<g id="edge22" class="edge">
<title>Node3&#45;&gt;Node18</title>
<path fill="none" stroke="#9a32cd" stroke-dasharray="5,2" d="M269.88,-830.91C386.81,-825.22 772.1,-805.56 795,-792.5 807.21,-785.54 804.2,-777.46 813,-766.5 833.39,-741.12 859.13,-714.02 876.81,-696.06"/>
<polygon fill="#9a32cd" stroke="#9a32cd" points="269.55,-827.42 259.73,-831.4 269.89,-834.41 269.55,-827.42"/>
<text text-anchor="middle" x="568.5" y="-821.5" font-family="Helvetica,sans-Serif" font-size="10.00"> m_mutex</text>
</g>
<!-- Node4 -->
<g id="node4" class="node">
<title>Node4</title>
<g id="a_node4"><a xlink:title=" ">
<polygon fill="white" stroke="#bfbfbf" points="207.5,-998 207.5,-1017 263.5,-1017 263.5,-998 207.5,-998"/>
<text text-anchor="middle" x="235.5" y="-1005" font-family="Helvetica,sans-Serif" font-size="10.00">thread *</text>
</a>
</g>
</g>
<!-- Node4&#45;&gt;Node2 -->
<g id="edge3" class="edge">
<title>Node4&#45;&gt;Node2</title>
<path fill="none" stroke="#9a32cd" stroke-dasharray="5,2" d="M273.7,-1006.45C320.17,-1004.35 401.75,-998.11 469,-979.5 498.78,-971.26 531.09,-955.36 550.3,-945.1"/>
<polygon fill="#9a32cd" stroke="#9a32cd" points="273.35,-1002.96 263.5,-1006.86 273.64,-1009.95 273.35,-1002.96"/>
<text text-anchor="middle" x="408.5" y="-1003.5" font-family="Helvetica,sans-Serif" font-size="10.00"> m_thread_obj</text>
</g>
<!-- Node5 -->
<g id="node5" class="node">
<title>Node5</title>
<g id="a_node5"><a xlink:href="classbool.html" target="_top" xlink:title=" ">
<polygon fill="white" stroke="black" points="216.5,-521 216.5,-540 254.5,-540 254.5,-521 216.5,-521"/>
<text text-anchor="middle" x="235.5" y="-528" font-family="Helvetica,sans-Serif" font-size="10.00">bool</text>
</a>
</g>
</g>
<!-- Node5&#45;&gt;Node1 -->
<g id="edge45" class="edge">
<title>Node5&#45;&gt;Node1</title>
<path fill="none" stroke="#9a32cd" stroke-dasharray="5,2" d="M264.68,-537.53C321.55,-551.09 454.26,-579.5 567.5,-579.5 567.5,-579.5 567.5,-579.5 1162.5,-579.5 1279.82,-579.5 1384.86,-455.09 1412.77,-419.13"/>
<polygon fill="#9a32cd" stroke="#9a32cd" points="265.2,-534.06 254.66,-535.11 263.56,-540.86 265.2,-534.06"/>
<text text-anchor="middle" x="898.5" y="-604.5" font-family="Helvetica,sans-Serif" font-size="10.00"> m_esc_mode</text>
<text text-anchor="middle" x="898.5" y="-593.5" font-family="Helvetica,sans-Serif" font-size="10.00">m_can_draw_text</text>
<text text-anchor="middle" x="898.5" y="-582.5" font-family="Helvetica,sans-Serif" font-size="10.00">m_kill_requested</text>
</g>
<!-- Node5&#45;&gt;Node2 -->
<g id="edge4" class="edge">
<title>Node5&#45;&gt;Node2</title>
<path fill="none" stroke="#9a32cd" stroke-dasharray="5,2" d="M262.82,-545.22C285.4,-557.82 318.8,-576.42 348,-592.5 401.66,-622.05 435.88,-606.97 469,-658.5 499.47,-705.92 451.73,-867.53 487,-911.5 500.41,-928.22 524.97,-933.65 543.44,-935.25"/>
<polygon fill="#9a32cd" stroke="#9a32cd" points="264.29,-542.03 253.86,-540.21 260.88,-548.14 264.29,-542.03"/>
<text text-anchor="middle" x="408.5" y="-661.5" font-family="Helvetica,sans-Serif" font-size="10.00"> m_joinable</text>
</g>
<!-- Node26 -->
<g id="node26" class="node">
<title>Node26</title>
<g id="a_node26"><a xlink:href="classChatBuffer.html" target="_top" xlink:title=" ">
<polygon fill="white" stroke="black" points="864.5,-400 864.5,-419 932.5,-419 932.5,-400 864.5,-400"/>
<text text-anchor="middle" x="898.5" y="-407" font-family="Helvetica,sans-Serif" font-size="10.00">ChatBuffer</text>
</a>
</g>
</g>
<!-- Node5&#45;&gt;Node26 -->
<g id="edge39" class="edge">
<title>Node5&#45;&gt;Node26</title>
<path fill="none" stroke="#9a32cd" stroke-dasharray="5,2" d="M264.58,-525.53C310.86,-517.43 406.06,-501.11 487,-489.5 623.53,-469.91 661.56,-486.4 795,-451.5 825.14,-443.62 858.18,-428.89 878.38,-419.14"/>
<polygon fill="#9a32cd" stroke="#9a32cd" points="263.94,-522.09 254.69,-527.27 265.15,-528.99 263.94,-522.09"/>
<text text-anchor="middle" x="568.5" y="-514.5" font-family="Helvetica,sans-Serif" font-size="10.00"> m_lines_modified</text>
<text text-anchor="start" x="522.5" y="-503.5" font-family="Helvetica,sans-Serif" font-size="10.00">m_cache_clickable</text>
<text text-anchor="middle" x="568.5" y="-492.5" font-family="Helvetica,sans-Serif" font-size="10.00">_chat_weblinks</text>
</g>
<!-- Node30 -->
<g id="node30" class="node">
<title>Node30</title>
<g id="a_node30"><a xlink:href="structChatFormattedLine.html" target="_top" xlink:title=" ">
<polygon fill="white" stroke="black" points="513.5,-425 513.5,-444 623.5,-444 623.5,-425 513.5,-425"/>
<text text-anchor="middle" x="568.5" y="-432" font-family="Helvetica,sans-Serif" font-size="10.00">ChatFormattedLine</text>
</a>
</g>
</g>
<!-- Node5&#45;&gt;Node30 -->
<g id="edge36" class="edge">
<title>Node5&#45;&gt;Node30</title>
<path fill="none" stroke="#9a32cd" stroke-dasharray="5,2" d="M254.59,-514.08C275.43,-496.25 311.51,-468.56 348,-455.5 401.88,-436.21 467.69,-432.29 513.12,-432.36"/>
<polygon fill="#9a32cd" stroke="#9a32cd" points="252.1,-511.61 246.88,-520.83 256.71,-516.88 252.1,-511.61"/>
<text text-anchor="middle" x="408.5" y="-458.5" font-family="Helvetica,sans-Serif" font-size="10.00"> first</text>
</g>
<!-- Node6 -->
<g id="node6" class="node">
<title>Node6</title>
<g id="a_node6"><a xlink:title=" ">
<polygon fill="white" stroke="#bfbfbf" points="213.5,-1047 213.5,-1066 257.5,-1066 257.5,-1047 213.5,-1047"/>
<text text-anchor="middle" x="235.5" y="-1054" font-family="Helvetica,sans-Serif" font-size="10.00">string</text>
</a>
</g>
</g>
<!-- Node6&#45;&gt;Node1 -->
<g id="edge46" class="edge">
<title>Node6&#45;&gt;Node1</title>
<path fill="none" stroke="#9a32cd" stroke-dasharray="5,2" d="M267.91,-1058.24C326.69,-1061.34 457.35,-1067.5 567.5,-1067.5 567.5,-1067.5 567.5,-1067.5 1162.5,-1067.5 1312.81,-1067.5 1286.75,-920.89 1343,-781.5 1398.28,-644.5 1415.77,-462.44 1419.28,-419.06"/>
<polygon fill="#9a32cd" stroke="#9a32cd" points="267.96,-1054.74 257.79,-1057.7 267.59,-1061.73 267.96,-1054.74"/>
<text text-anchor="middle" x="898.5" y="-1081.5" font-family="Helvetica,sans-Serif" font-size="10.00"> m_pending_utf8_bytes</text>
<text text-anchor="middle" x="898.5" y="-1070.5" font-family="Helvetica,sans-Serif" font-size="10.00">m_nick</text>
</g>
<!-- Node6&#45;&gt;Node2 -->
<g id="edge5" class="edge">
<title>Node6&#45;&gt;Node2</title>
<path fill="none" stroke="#9a32cd" stroke-dasharray="5,2" d="M267.97,-1052.94C322.85,-1046.4 433.61,-1031.66 469,-1015.5 507.08,-998.11 542.89,-962.47 558.83,-945.24"/>
<polygon fill="#9a32cd" stroke="#9a32cd" points="267.3,-1049.49 257.77,-1054.13 268.11,-1056.45 267.3,-1049.49"/>
<text text-anchor="middle" x="408.5" y="-1043.5" font-family="Helvetica,sans-Serif" font-size="10.00"> m_name</text>
</g>
<!-- Node7 -->
<g id="node7" class="node">
<title>Node7</title>
<g id="a_node7"><a xlink:title=" ">
<polygon fill="white" stroke="#bfbfbf" points="188.5,-955 188.5,-974 282.5,-974 282.5,-955 188.5,-955"/>
<text text-anchor="middle" x="235.5" y="-962" font-family="Helvetica,sans-Serif" font-size="10.00">atomic&lt; bool &gt;</text>
</a>
</g>
</g>
<!-- Node7&#45;&gt;Node2 -->
<g id="edge6" class="edge">
<title>Node7&#45;&gt;Node2</title>
<path fill="none" stroke="#9a32cd" stroke-dasharray="5,2" d="M292.49,-959.59C365.68,-953.18 490.68,-942.23 543.17,-937.63"/>
<polygon fill="#9a32cd" stroke="#9a32cd" points="292.18,-956.11 282.52,-960.47 292.79,-963.08 292.18,-956.11"/>
<text text-anchor="middle" x="408.5" y="-967.5" font-family="Helvetica,sans-Serif" font-size="10.00"> m_running</text>
<text text-anchor="middle" x="408.5" y="-956.5" font-family="Helvetica,sans-Serif" font-size="10.00">m_request_stop</text>
</g>
<!-- Node8 -->
<g id="node8" class="node">
<title>Node8</title>
<g id="a_node8"><a xlink:title=" ">
<polygon fill="white" stroke="#bfbfbf" points="212.5,-917 212.5,-936 258.5,-936 258.5,-917 212.5,-917"/>
<text text-anchor="middle" x="235.5" y="-924" font-family="Helvetica,sans-Serif" font-size="10.00">void *</text>
</a>
</g>
</g>
<!-- Node8&#45;&gt;Node2 -->
<g id="edge7" class="edge">
<title>Node8&#45;&gt;Node2</title>
<path fill="none" stroke="#9a32cd" stroke-dasharray="5,2" d="M268.64,-926.43C313.51,-926.44 397.48,-926.86 469,-929.5 494.34,-930.43 523.3,-932.29 543.23,-933.7"/>
<polygon fill="#9a32cd" stroke="#9a32cd" points="268.63,-922.93 258.63,-926.43 268.63,-929.93 268.63,-922.93"/>
<text text-anchor="middle" x="408.5" y="-932.5" font-family="Helvetica,sans-Serif" font-size="10.00"> m_retval</text>
</g>
<!-- Node9 -->
<g id="node9" class="node">
<title>Node9</title>
<g id="a_node9"><a xlink:href="structChatInterface.html" target="_top" xlink:title=" ">
<polygon fill="white" stroke="black" points="1120,-724 1120,-743 1203,-743 1203,-724 1120,-724"/>
<text text-anchor="middle" x="1161.5" y="-731" font-family="Helvetica,sans-Serif" font-size="10.00">ChatInterface</text>
</a>
</g>
</g>
<!-- Node9&#45;&gt;Node1 -->
<g id="edge8" class="edge">
<title>Node9&#45;&gt;Node1</title>
<path fill="none" stroke="#9a32cd" stroke-dasharray="5,2" d="M1206.75,-720.75C1247.55,-706.83 1307.05,-680.72 1343,-638.5 1401.74,-569.52 1416.17,-453.91 1419.25,-419.47"/>
<polygon fill="#9a32cd" stroke="#9a32cd" points="1205.47,-717.49 1197.07,-723.94 1207.66,-724.13 1205.47,-717.49"/>
<text text-anchor="middle" x="1287" y="-712.5" font-family="Helvetica,sans-Serif" font-size="10.00"> m_chat_interface</text>
</g>
<!-- Node10&#45;&gt;Node9 -->
<g id="edge9" class="edge">
<title>Node10&#45;&gt;Node9</title>
<path fill="none" stroke="#9a32cd" stroke-dasharray="5,2" d="M957.25,-773.99C1006.54,-764.17 1076.16,-750.3 1119.79,-741.61"/>
<polygon fill="#9a32cd" stroke="#9a32cd" points="956.49,-770.58 947.37,-775.96 957.86,-777.44 956.49,-770.58"/>
<text text-anchor="middle" x="1047" y="-777.5" font-family="Helvetica,sans-Serif" font-size="10.00"> command_queue</text>
<text text-anchor="middle" x="1047" y="-766.5" font-family="Helvetica,sans-Serif" font-size="10.00">outgoing_queue</text>
</g>
<!-- Node11 -->
<g id="node11" class="node">
<title>Node11</title>
<g id="a_node11"><a xlink:href="classSemaphore.html" target="_top" xlink:title=" ">
<polygon fill="white" stroke="black" points="199.5,-713 199.5,-732 271.5,-732 271.5,-713 199.5,-713"/>
<text text-anchor="middle" x="235.5" y="-720" font-family="Helvetica,sans-Serif" font-size="10.00">Semaphore</text>
</a>
</g>
</g>
<!-- Node11&#45;&gt;Node10 -->
<g id="edge10" class="edge">
<title>Node11&#45;&gt;Node10</title>
<path fill="none" stroke="#9a32cd" stroke-dasharray="5,2" d="M281.81,-719.2C397.09,-711.33 699.19,-694.04 795,-721.5 832.31,-732.19 869.22,-760.85 886.83,-775.93"/>
<polygon fill="#9a32cd" stroke="#9a32cd" points="281.3,-715.73 271.57,-719.91 281.79,-722.71 281.3,-715.73"/>
<text text-anchor="middle" x="568.5" y="-711.5" font-family="Helvetica,sans-Serif" font-size="10.00"> m_signal</text>
</g>
<!-- Node11&#45;&gt;Node14 -->
<g id="edge15" class="edge">
<title>Node11&#45;&gt;Node14</title>
<path fill="none" stroke="#9a32cd" stroke-dasharray="5,2" d="M281.74,-727.83C340.72,-734.78 444,-746.95 508.91,-754.6"/>
<polygon fill="#9a32cd" stroke="#9a32cd" points="281.95,-724.33 271.61,-726.64 281.13,-731.28 281.95,-724.33"/>
<text text-anchor="middle" x="408.5" y="-751.5" font-family="Helvetica,sans-Serif" font-size="10.00"> m_signal</text>
</g>
<!-- Node11&#45;&gt;Node18 -->
<g id="edge21" class="edge">
<title>Node11&#45;&gt;Node18</title>
<path fill="none" stroke="#9a32cd" stroke-dasharray="5,2" d="M281.81,-715.19C331.88,-707.42 414.97,-695.46 487,-689.5 611.19,-679.23 757.11,-676.46 837.23,-675.73"/>
<polygon fill="#9a32cd" stroke="#9a32cd" points="280.99,-711.77 271.65,-716.78 282.07,-718.69 280.99,-711.77"/>
<text text-anchor="middle" x="568.5" y="-692.5" font-family="Helvetica,sans-Serif" font-size="10.00"> m_signal</text>
</g>
<!-- Node12 -->
<g id="node12" class="node">
<title>Node12</title>
<g id="a_node12"><a xlink:title=" ">
<polygon fill="white" stroke="#bfbfbf" points="0,-713 0,-732 47,-732 47,-713 0,-713"/>
<text text-anchor="middle" x="23.5" y="-720" font-family="Helvetica,sans-Serif" font-size="10.00">sem_t</text>
</a>
</g>
</g>
<!-- Node12&#45;&gt;Node11 -->
<g id="edge11" class="edge">
<title>Node12&#45;&gt;Node11</title>
<path fill="none" stroke="#9a32cd" stroke-dasharray="5,2" d="M57.58,-722.5C96.25,-722.5 159.97,-722.5 199.47,-722.5"/>
<polygon fill="#9a32cd" stroke="#9a32cd" points="57.37,-719 47.37,-722.5 57.37,-726 57.37,-719"/>
<text text-anchor="middle" x="94" y="-725.5" font-family="Helvetica,sans-Serif" font-size="10.00"> semaphore</text>
</g>
<!-- Node13 -->
<g id="node13" class="node">
<title>Node13</title>
<g id="a_node13"><a xlink:title=" ">
<polygon fill="white" stroke="#bfbfbf" points="504.5,-841 504.5,-860 632.5,-860 632.5,-841 504.5,-841"/>
<text text-anchor="middle" x="568.5" y="-848" font-family="Helvetica,sans-Serif" font-size="10.00">deque&lt; ChatEvent * &gt;</text>
</a>
</g>
</g>
<!-- Node13&#45;&gt;Node10 -->
<g id="edge13" class="edge">
<title>Node13&#45;&gt;Node10</title>
<path fill="none" stroke="#9a32cd" stroke-dasharray="5,2" d="M643.12,-847.21C687.6,-844.02 745.14,-837.77 795,-825.5 824.68,-818.2 857.3,-804.4 877.59,-795.08"/>
<polygon fill="#9a32cd" stroke="#9a32cd" points="642.71,-843.73 632.97,-847.9 643.18,-850.71 642.71,-843.73"/>
<text text-anchor="middle" x="731.5" y="-847.5" font-family="Helvetica,sans-Serif" font-size="10.00"> m_queue</text>
</g>
<!-- Node14&#45;&gt;Node10 -->
<g id="edge14" class="edge">
<title>Node14&#45;&gt;Node10</title>
<path fill="none" stroke="orange" stroke-dasharray="5,2" d="M638.37,-766.54C689.19,-770.26 758.65,-775.34 812.86,-779.31"/>
<polygon fill="orange" stroke="orange" points="638.37,-763.03 628.14,-765.79 637.86,-770.01 638.37,-763.03"/>
<text text-anchor="middle" x="731.5" y="-780.5" font-family="Helvetica,sans-Serif" font-size="10.00"> &lt; ChatEvent * &gt;</text>
</g>
<!-- Node14&#45;&gt;Node18 -->
<g id="edge24" class="edge">
<title>Node14&#45;&gt;Node18</title>
<path fill="none" stroke="orange" stroke-dasharray="5,2" d="M615.85,-749.35C673.9,-734.13 773.5,-708.01 837.37,-691.27"/>
<polygon fill="orange" stroke="orange" points="614.64,-746.05 605.85,-751.97 616.42,-752.82 614.64,-746.05"/>
<text text-anchor="start" x="675.5" y="-747.5" font-family="Helvetica,sans-Serif" font-size="10.00"> &lt; std::pair&lt; LogLevel,</text>
<text text-anchor="middle" x="731.5" y="-736.5" font-family="Helvetica,sans-Serif" font-size="10.00"> std::string &gt; &gt;</text>
</g>
<!-- Node15 -->
<g id="node15" class="node">
<title>Node15</title>
<g id="a_node15"><a xlink:title=" ">
<polygon fill="white" stroke="#bfbfbf" points="198,-640 198,-659 273,-659 273,-640 198,-640"/>
<text text-anchor="middle" x="235.5" y="-647" font-family="Helvetica,sans-Serif" font-size="10.00">deque&lt; T &gt;</text>
</a>
</g>
</g>
<!-- Node15&#45;&gt;Node14 -->
<g id="edge17" class="edge">
<title>Node15&#45;&gt;Node14</title>
<path fill="none" stroke="#9a32cd" stroke-dasharray="5,2" d="M283.21,-657.21C332.06,-666.73 409.73,-686.04 469,-720.5 478.51,-726.03 477.47,-732 487,-737.5 497.74,-743.69 510.22,-748.42 522.1,-751.97"/>
<polygon fill="#9a32cd" stroke="#9a32cd" points="283.72,-653.74 273.24,-655.33 282.42,-660.62 283.72,-653.74"/>
<text text-anchor="middle" x="408.5" y="-723.5" font-family="Helvetica,sans-Serif" font-size="10.00"> m_queue</text>
</g>
<!-- Node16 -->
<g id="node16" class="node">
<title>Node16</title>
<g id="a_node16"><a xlink:href="classTermLogOutput.html" target="_top" xlink:title=" ">
<polygon fill="white" stroke="black" points="1116,-608 1116,-627 1207,-627 1207,-608 1116,-608"/>
<text text-anchor="middle" x="1161.5" y="-615" font-family="Helvetica,sans-Serif" font-size="10.00">TermLogOutput</text>
</a>
</g>
</g>
<!-- Node16&#45;&gt;Node1 -->
<g id="edge18" class="edge">
<title>Node16&#45;&gt;Node1</title>
<path fill="none" stroke="#9a32cd" stroke-dasharray="5,2" d="M1217.32,-623.71C1256.18,-625.15 1307.51,-620.66 1343,-593.5 1401.84,-548.46 1416.12,-450.14 1419.21,-419.1"/>
<polygon fill="#9a32cd" stroke="#9a32cd" points="1217.38,-620.21 1207.22,-623.2 1217.03,-627.2 1217.38,-620.21"/>
<text text-anchor="middle" x="1287" y="-626.5" font-family="Helvetica,sans-Serif" font-size="10.00"> m_log_output</text>
</g>
<!-- Node17 -->
<g id="node17" class="node">
<title>Node17</title>
<g id="a_node17"><a xlink:href="classILogOutput.html" target="_top" xlink:title=" ">
<polygon fill="white" stroke="black" points="863.5,-524 863.5,-543 933.5,-543 933.5,-524 863.5,-524"/>
<text text-anchor="middle" x="898.5" y="-531" font-family="Helvetica,sans-Serif" font-size="10.00">ILogOutput</text>
</a>
</g>
</g>
<!-- Node17&#45;&gt;Node16 -->
<g id="edge19" class="edge">
<title>Node17&#45;&gt;Node16</title>
<path fill="none" stroke="midnightblue" d="M943.46,-545.53C956.55,-549.23 970.89,-553.41 984,-557.5 1037.45,-574.16 1099.27,-595.71 1133.73,-607.92"/>
<polygon fill="midnightblue" stroke="midnightblue" points="944.32,-542.13 933.74,-542.8 942.42,-548.87 944.32,-542.13"/>
</g>
<!-- Node18&#45;&gt;Node16 -->
<g id="edge20" class="edge">
<title>Node18&#45;&gt;Node16</title>
<path fill="none" stroke="#9a32cd" stroke-dasharray="5,2" d="M969.56,-659.93C1016.78,-649.44 1077.54,-635.93 1117.69,-627.01"/>
<polygon fill="#9a32cd" stroke="#9a32cd" points="968.71,-656.53 959.71,-662.12 970.23,-663.37 968.71,-656.53"/>
<text text-anchor="middle" x="1047" y="-654.5" font-family="Helvetica,sans-Serif" font-size="10.00"> queue</text>
</g>
<!-- Node19 -->
<g id="node19" class="node">
<title>Node19</title>
<g id="a_node19"><a xlink:title=" ">
<polygon fill="white" stroke="#bfbfbf" points="491,-608.5 491,-638.5 646,-638.5 646,-608.5 491,-608.5"/>
<text text-anchor="start" x="499" y="-626.5" font-family="Helvetica,sans-Serif" font-size="10.00">deque&lt; std::pair&lt; LogLevel,</text>
<text text-anchor="middle" x="568.5" y="-615.5" font-family="Helvetica,sans-Serif" font-size="10.00"> std::string &gt; &gt;</text>
</a>
</g>
</g>
<!-- Node19&#45;&gt;Node18 -->
<g id="edge23" class="edge">
<title>Node19&#45;&gt;Node18</title>
<path fill="none" stroke="#9a32cd" stroke-dasharray="5,2" d="M655.98,-631.4C698.1,-635.87 749.38,-642.24 795,-650.5 808.79,-653 823.49,-656.23 837.33,-659.55"/>
<polygon fill="#9a32cd" stroke="#9a32cd" points="656.35,-627.92 646.04,-630.36 655.62,-634.88 656.35,-627.92"/>
<text text-anchor="middle" x="731.5" y="-653.5" font-family="Helvetica,sans-Serif" font-size="10.00"> m_queue</text>
</g>
<!-- Node20 -->
<g id="node20" class="node">
<title>Node20</title>
<g id="a_node20"><a xlink:href="classChatBackend.html" target="_top" xlink:title=" ">
<polygon fill="white" stroke="black" points="1121.5,-400 1121.5,-419 1201.5,-419 1201.5,-400 1121.5,-400"/>
<text text-anchor="middle" x="1161.5" y="-407" font-family="Helvetica,sans-Serif" font-size="10.00">ChatBackend</text>
</a>
</g>
</g>
<!-- Node20&#45;&gt;Node1 -->
<g id="edge25" class="edge">
<title>Node20&#45;&gt;Node1</title>
<path fill="none" stroke="#9a32cd" stroke-dasharray="5,2" d="M1211.71,-409.5C1254.21,-409.5 1315.72,-409.5 1360.88,-409.5"/>
<polygon fill="#9a32cd" stroke="#9a32cd" points="1211.61,-406 1201.61,-409.5 1211.61,-413 1211.61,-406"/>
<text text-anchor="middle" x="1287" y="-412.5" font-family="Helvetica,sans-Serif" font-size="10.00"> m_chat_backend</text>
</g>
<!-- Node21 -->
<g id="node21" class="node">
<title>Node21</title>
<g id="a_node21"><a xlink:href="classChatPrompt.html" target="_top" xlink:title=" ">
<polygon fill="white" stroke="black" points="861.5,-125 861.5,-144 935.5,-144 935.5,-125 861.5,-125"/>
<text text-anchor="middle" x="898.5" y="-132" font-family="Helvetica,sans-Serif" font-size="10.00">ChatPrompt</text>
</a>
</g>
</g>
<!-- Node21&#45;&gt;Node20 -->
<g id="edge26" class="edge">
<title>Node21&#45;&gt;Node20</title>
<path fill="none" stroke="#9a32cd" stroke-dasharray="5,2" d="M911.05,-153.17C939.75,-198.31 1018.63,-314.84 1110,-385.5 1117.45,-391.26 1126.5,-396.1 1134.88,-399.89"/>
<polygon fill="#9a32cd" stroke="#9a32cd" points="913.84,-151.04 905.55,-144.44 907.91,-154.76 913.84,-151.04"/>
<text text-anchor="middle" x="1047" y="-371.5" font-family="Helvetica,sans-Serif" font-size="10.00"> m_prompt</text>
</g>
<!-- Node22 -->
<g id="node22" class="node">
<title>Node22</title>
<g id="a_node22"><a xlink:title=" ">
<polygon fill="white" stroke="#bfbfbf" points="510.5,-0.5 510.5,-30.5 626.5,-30.5 626.5,-0.5 510.5,-0.5"/>
<text text-anchor="start" x="518.5" y="-18.5" font-family="Helvetica,sans-Serif" font-size="10.00">vector&lt; ChatPrompt</text>
<text text-anchor="middle" x="568.5" y="-7.5" font-family="Helvetica,sans-Serif" font-size="10.00">::HistoryEntry &gt;</text>
</a>
</g>
</g>
<!-- Node22&#45;&gt;Node21 -->
<g id="edge27" class="edge">
<title>Node22&#45;&gt;Node21</title>
<path fill="none" stroke="#9a32cd" stroke-dasharray="5,2" d="M636.73,-22.26C682.74,-28.6 744.34,-40.55 795,-62.5 832.11,-78.58 869.41,-109.3 887.02,-124.9"/>
<polygon fill="#9a32cd" stroke="#9a32cd" points="636.94,-18.75 626.57,-20.91 636.02,-25.69 636.94,-18.75"/>
<text text-anchor="middle" x="731.5" y="-65.5" font-family="Helvetica,sans-Serif" font-size="10.00"> m_history</text>
</g>
<!-- Node23 -->
<g id="node23" class="node">
<title>Node23</title>
<g id="a_node23"><a xlink:title=" ">
<polygon fill="white" stroke="#bfbfbf" points="551.5,-266 551.5,-285 585.5,-285 585.5,-266 551.5,-266"/>
<text text-anchor="middle" x="568.5" y="-273" font-family="Helvetica,sans-Serif" font-size="10.00">s32</text>
</a>
</g>
</g>
<!-- Node23&#45;&gt;Node21 -->
<g id="edge28" class="edge">
<title>Node23&#45;&gt;Node21</title>
<path fill="none" stroke="#9a32cd" stroke-dasharray="5,2" d="M594.04,-260.92C613.46,-250.04 641.61,-235.69 668,-227.5 722.51,-210.58 742.15,-230.03 795,-208.5 833.21,-192.93 870.58,-160.32 887.73,-144.09"/>
<polygon fill="#9a32cd" stroke="#9a32cd" points="592.2,-257.94 585.26,-265.94 595.68,-264.02 592.2,-257.94"/>
<text text-anchor="middle" x="731.5" y="-307.5" font-family="Helvetica,sans-Serif" font-size="10.00"> m_cols</text>
<text text-anchor="middle" x="731.5" y="-296.5" font-family="Helvetica,sans-Serif" font-size="10.00">m_cursor_len</text>
<text text-anchor="start" x="683.5" y="-285.5" font-family="Helvetica,sans-Serif" font-size="10.00">m_nick_completion</text>
<text text-anchor="middle" x="731.5" y="-274.5" font-family="Helvetica,sans-Serif" font-size="10.00">_end</text>
<text text-anchor="start" x="683.5" y="-263.5" font-family="Helvetica,sans-Serif" font-size="10.00">m_nick_completion</text>
<text text-anchor="middle" x="731.5" y="-252.5" font-family="Helvetica,sans-Serif" font-size="10.00">_start</text>
<text text-anchor="middle" x="731.5" y="-241.5" font-family="Helvetica,sans-Serif" font-size="10.00">m_view</text>
<text text-anchor="middle" x="731.5" y="-230.5" font-family="Helvetica,sans-Serif" font-size="10.00">m_cursor</text>
</g>
<!-- Node23&#45;&gt;Node26 -->
<g id="edge40" class="edge">
<title>Node23&#45;&gt;Node26</title>
<path fill="none" stroke="#9a32cd" stroke-dasharray="5,2" d="M594.71,-288.16C614.34,-297.67 642.45,-310.54 668,-319.5 723.04,-338.79 740.86,-330.82 795,-352.5 828.08,-365.75 863.83,-387.52 883.14,-399.97"/>
<polygon fill="#9a32cd" stroke="#9a32cd" points="596.07,-284.92 585.55,-283.66 592.98,-291.21 596.07,-284.92"/>
<text text-anchor="middle" x="731.5" y="-355.5" font-family="Helvetica,sans-Serif" font-size="10.00"> m_scroll</text>
</g>
<!-- Node24 -->
<g id="node24" class="node">
<title>Node24</title>
<g id="a_node24"><a xlink:title=" ">
<polygon fill="white" stroke="#bfbfbf" points="551,-120 551,-139 586,-139 586,-120 551,-120"/>
<text text-anchor="middle" x="568.5" y="-127" font-family="Helvetica,sans-Serif" font-size="10.00">u32</text>
</a>
</g>
</g>
<!-- Node24&#45;&gt;Node1 -->
<g id="edge48" class="edge">
<title>Node24&#45;&gt;Node1</title>
<path fill="none" stroke="#9a32cd" stroke-dasharray="5,2" d="M596.51,-125.26C677.37,-113.08 916.1,-80.99 984,-115.5 1056.59,-152.39 1059.17,-188.98 1092,-263.5 1108.27,-300.43 1081.21,-324.22 1110,-352.5 1144.74,-386.63 1281.04,-400.86 1360.88,-406.36"/>
<polygon fill="#9a32cd" stroke="#9a32cd" points="595.54,-121.87 586.18,-126.84 596.6,-128.79 595.54,-121.87"/>
<text text-anchor="middle" x="1047" y="-266.5" font-family="Helvetica,sans-Serif" font-size="10.00"> m_time_of_day</text>
</g>
<!-- Node24&#45;&gt;Node21 -->
<g id="edge29" class="edge">
<title>Node24&#45;&gt;Node21</title>
<path fill="none" stroke="#9a32cd" stroke-dasharray="5,2" d="M596.22,-129.32C638.44,-129.1 723.17,-128.94 795,-130.5 817.08,-130.98 841.82,-131.93 861.46,-132.79"/>
<polygon fill="#9a32cd" stroke="#9a32cd" points="596.17,-125.82 586.19,-129.38 596.21,-132.82 596.17,-125.82"/>
<text text-anchor="middle" x="731.5" y="-144.5" font-family="Helvetica,sans-Serif" font-size="10.00"> m_history_limit</text>
<text text-anchor="middle" x="731.5" y="-133.5" font-family="Helvetica,sans-Serif" font-size="10.00">m_history_index</text>
</g>
<!-- Node24&#45;&gt;Node26 -->
<g id="edge41" class="edge">
<title>Node24&#45;&gt;Node26</title>
<path fill="none" stroke="#9a32cd" stroke-dasharray="5,2" d="M595.96,-136.29C615.72,-141.21 643.44,-147.8 668,-152.5 724.06,-163.22 749.78,-136.67 795,-171.5 873.06,-231.62 892.58,-363.05 896.59,-399.79"/>
<polygon fill="#9a32cd" stroke="#9a32cd" points="596.7,-132.87 586.14,-133.82 594.99,-139.66 596.7,-132.87"/>
<text text-anchor="middle" x="731.5" y="-196.5" font-family="Helvetica,sans-Serif" font-size="10.00"> m_cols</text>
<text text-anchor="middle" x="731.5" y="-185.5" font-family="Helvetica,sans-Serif" font-size="10.00">m_scrollback</text>
<text text-anchor="middle" x="731.5" y="-174.5" font-family="Helvetica,sans-Serif" font-size="10.00">m_rows</text>
</g>
<!-- Node25 -->
<g id="node25" class="node">
<title>Node25</title>
<g id="a_node25"><a xlink:title=" ">
<polygon fill="white" stroke="#bfbfbf" points="542,-50 542,-69 595,-69 595,-50 542,-50"/>
<text text-anchor="middle" x="568.5" y="-57" font-family="Helvetica,sans-Serif" font-size="10.00">wstring</text>
</a>
</g>
</g>
<!-- Node25&#45;&gt;Node21 -->
<g id="edge30" class="edge">
<title>Node25&#45;&gt;Node21</title>
<path fill="none" stroke="#9a32cd" stroke-dasharray="5,2" d="M605.1,-65.3C649.75,-72.84 728.52,-87 795,-103.5 820.08,-109.72 848.14,-118.33 868.56,-124.89"/>
<polygon fill="#9a32cd" stroke="#9a32cd" points="605.49,-61.82 595.05,-63.62 604.33,-68.72 605.49,-61.82"/>
<text text-anchor="middle" x="731.5" y="-117.5" font-family="Helvetica,sans-Serif" font-size="10.00"> m_prompt</text>
<text text-anchor="middle" x="731.5" y="-106.5" font-family="Helvetica,sans-Serif" font-size="10.00">m_line</text>
</g>
<!-- Node26&#45;&gt;Node20 -->
<g id="edge31" class="edge">
<title>Node26&#45;&gt;Node20</title>
<path fill="none" stroke="#9a32cd" stroke-dasharray="5,2" d="M942.67,-409.5C992.39,-409.5 1073.38,-409.5 1121.34,-409.5"/>
<polygon fill="#9a32cd" stroke="#9a32cd" points="942.56,-406 932.56,-409.5 942.56,-413 942.56,-406"/>
<text text-anchor="middle" x="1047" y="-423.5" font-family="Helvetica,sans-Serif" font-size="10.00"> m_console_buffer</text>
<text text-anchor="middle" x="1047" y="-412.5" font-family="Helvetica,sans-Serif" font-size="10.00">m_recent_buffer</text>
</g>
<!-- Node27 -->
<g id="node27" class="node">
<title>Node27</title>
<g id="a_node27"><a xlink:href="classirr_1_1video_1_1SColor.html" target="_top" xlink:title="Class representing a 32 bit ARGB color.">
<polygon fill="white" stroke="black" points="519.5,-387 519.5,-406 617.5,-406 617.5,-387 519.5,-387"/>
<text text-anchor="middle" x="568.5" y="-394" font-family="Helvetica,sans-Serif" font-size="10.00">irr::video::SColor</text>
</a>
</g>
</g>
<!-- Node27&#45;&gt;Node26 -->
<g id="edge32" class="edge">
<title>Node27&#45;&gt;Node26</title>
<path fill="none" stroke="#9a32cd" stroke-dasharray="5,2" d="M627.79,-398.81C696.65,-401.54 808.83,-405.99 864.29,-408.18"/>
<polygon fill="#9a32cd" stroke="#9a32cd" points="627.68,-395.3 617.55,-398.4 627.4,-402.3 627.68,-395.3"/>
<text text-anchor="start" x="673" y="-418.5" font-family="Helvetica,sans-Serif" font-size="10.00"> m_cache_chat_weblink</text>
<text text-anchor="middle" x="731.5" y="-407.5" font-family="Helvetica,sans-Serif" font-size="10.00">_color</text>
</g>
<!-- Node28 -->
<g id="node28" class="node">
<title>Node28</title>
<g id="a_node28"><a xlink:title=" ">
<polygon fill="white" stroke="#bfbfbf" points="207.5,-373 207.5,-392 263.5,-392 263.5,-373 207.5,-373"/>
<text text-anchor="middle" x="235.5" y="-380" font-family="Helvetica,sans-Serif" font-size="10.00">uint32_t</text>
</a>
</g>
</g>
<!-- Node28&#45;&gt;Node27 -->
<g id="edge33" class="edge">
<title>Node28&#45;&gt;Node27</title>
<path fill="none" stroke="#9a32cd" stroke-dasharray="5,2" d="M273.82,-382.5C319.77,-382.69 400.19,-383.62 469,-387.5 485.46,-388.43 503.43,-389.93 519.45,-391.43"/>
<polygon fill="#9a32cd" stroke="#9a32cd" points="273.74,-379 263.73,-382.47 273.72,-386 273.74,-379"/>
<text text-anchor="middle" x="408.5" y="-390.5" font-family="Helvetica,sans-Serif" font-size="10.00"> color</text>
</g>
<!-- Node29 -->
<g id="node29" class="node">
<title>Node29</title>
<g id="a_node29"><a xlink:title=" ">
<polygon fill="white" stroke="#bfbfbf" points="512,-532 512,-551 625,-551 625,-532 512,-532"/>
<text text-anchor="middle" x="568.5" y="-539" font-family="Helvetica,sans-Serif" font-size="10.00">vector&lt; ChatLine &gt;</text>
</a>
</g>
</g>
<!-- Node29&#45;&gt;Node26 -->
<g id="edge34" class="edge">
<title>Node29&#45;&gt;Node26</title>
<path fill="none" stroke="#9a32cd" stroke-dasharray="5,2" d="M635.16,-536.29C681.66,-530.61 744.48,-518.83 795,-494.5 834.99,-475.24 872.65,-437.06 888.98,-419.17"/>
<polygon fill="#9a32cd" stroke="#9a32cd" points="634.73,-532.81 625.2,-537.44 635.54,-539.77 634.73,-532.81"/>
<text text-anchor="middle" x="731.5" y="-533.5" font-family="Helvetica,sans-Serif" font-size="10.00"> m_unformatted</text>
</g>
<!-- Node30&#45;&gt;Node26 -->
<g id="edge35" class="edge">
<title>Node30&#45;&gt;Node26</title>
<path fill="none" stroke="#9a32cd" stroke-dasharray="5,2" d="M634.15,-436.5C679.34,-437.13 741.02,-436.46 795,-430.5 818.29,-427.93 844.14,-422.62 864.05,-417.98"/>
<polygon fill="#9a32cd" stroke="#9a32cd" points="633.96,-433 623.9,-436.33 633.84,-440 633.96,-433"/>
<text text-anchor="middle" x="731.5" y="-439.5" font-family="Helvetica,sans-Serif" font-size="10.00"> m_empty_formatted_line</text>
</g>
<!-- Node31 -->
<g id="node31" class="node">
<title>Node31</title>
<g id="a_node31"><a xlink:title=" ">
<polygon fill="white" stroke="#bfbfbf" points="141,-411 141,-430 330,-430 330,-411 141,-411"/>
<text text-anchor="middle" x="235.5" y="-418" font-family="Helvetica,sans-Serif" font-size="10.00">vector&lt; ChatFormattedFragment &gt;</text>
</a>
</g>
</g>
<!-- Node31&#45;&gt;Node30 -->
<g id="edge37" class="edge">
<title>Node31&#45;&gt;Node30</title>
<path fill="none" stroke="#9a32cd" stroke-dasharray="5,2" d="M340.3,-418.13C380.53,-417.95 426.95,-418.65 469,-421.5 483.46,-422.48 499.03,-424.22 513.43,-426.11"/>
<polygon fill="#9a32cd" stroke="#9a32cd" points="340.19,-414.64 330.21,-418.2 340.23,-421.64 340.19,-414.64"/>
<text text-anchor="middle" x="408.5" y="-424.5" font-family="Helvetica,sans-Serif" font-size="10.00"> fragments</text>
</g>
<!-- Node32 -->
<g id="node32" class="node">
<title>Node32</title>
<g id="a_node32"><a xlink:title=" ">
<polygon fill="white" stroke="#bfbfbf" points="487,-349 487,-368 650,-368 650,-349 487,-349"/>
<text text-anchor="middle" x="568.5" y="-356" font-family="Helvetica,sans-Serif" font-size="10.00">vector&lt; ChatFormattedLine &gt;</text>
</a>
</g>
</g>
<!-- Node32&#45;&gt;Node26 -->
<g id="edge38" class="edge">
<title>Node32&#45;&gt;Node26</title>
<path fill="none" stroke="#9a32cd" stroke-dasharray="5,2" d="M660.22,-367.04C701.5,-371.52 750.88,-377.72 795,-385.5 818.4,-389.63 844.46,-395.75 864.46,-400.78"/>
<polygon fill="#9a32cd" stroke="#9a32cd" points="660.5,-363.55 650.18,-365.97 659.75,-370.51 660.5,-363.55"/>
<text text-anchor="middle" x="731.5" y="-388.5" font-family="Helvetica,sans-Serif" font-size="10.00"> m_formatted</text>
</g>
<!-- Node33 -->
<g id="node33" class="node">
<title>Node33</title>
<g id="a_node33"><a xlink:title=" ">
<polygon fill="white" stroke="#bfbfbf" points="1110,-324 1110,-343 1213,-343 1213,-324 1110,-324"/>
<text text-anchor="middle" x="1161.5" y="-331" font-family="Helvetica,sans-Serif" font-size="10.00">list&lt; std::string &gt;</text>
</a>
</g>
</g>
<!-- Node33&#45;&gt;Node1 -->
<g id="edge42" class="edge">
<title>Node33&#45;&gt;Node1</title>
<path fill="none" stroke="#9a32cd" stroke-dasharray="5,2" d="M1223.69,-328.86C1259.63,-328.32 1305.27,-331.48 1343,-346.5 1372.21,-358.13 1398.8,-385.06 1411.74,-399.67"/>
<polygon fill="#9a32cd" stroke="#9a32cd" points="1223.25,-325.37 1213.34,-329.12 1223.43,-332.37 1223.25,-325.37"/>
<text text-anchor="middle" x="1287" y="-349.5" font-family="Helvetica,sans-Serif" font-size="10.00"> m_nicks</text>
</g>
<!-- Node34 -->
<g id="node34" class="node">
<title>Node34</title>
<g id="a_node34"><a xlink:title=" ">
<polygon fill="white" stroke="#bfbfbf" points="1147,-286 1147,-305 1176,-305 1176,-286 1147,-286"/>
<text text-anchor="middle" x="1161.5" y="-293" font-family="Helvetica,sans-Serif" font-size="10.00">u8</text>
</a>
</g>
</g>
<!-- Node34&#45;&gt;Node1 -->
<g id="edge43" class="edge">
<title>Node34&#45;&gt;Node1</title>
<path fill="none" stroke="#9a32cd" stroke-dasharray="5,2" d="M1186.3,-292.3C1222.52,-288.6 1292.58,-286.14 1343,-313.5 1380,-333.57 1405.65,-379.6 1415.51,-399.75"/>
<polygon fill="#9a32cd" stroke="#9a32cd" points="1185.75,-288.84 1176.21,-293.46 1186.54,-295.8 1185.75,-288.84"/>
<text text-anchor="middle" x="1287" y="-316.5" font-family="Helvetica,sans-Serif" font-size="10.00"> m_utf8_bytes_to_wait</text>
</g>
<!-- Node35 -->
<g id="node35" class="node">
<title>Node35</title>
<g id="a_node35"><a xlink:title=" ">
<polygon fill="white" stroke="#bfbfbf" points="1147,-240 1147,-259 1176,-259 1176,-240 1147,-240"/>
<text text-anchor="middle" x="1161.5" y="-247" font-family="Helvetica,sans-Serif" font-size="10.00">int</text>
</a>
</g>
</g>
<!-- Node35&#45;&gt;Node1 -->
<g id="edge44" class="edge">
<title>Node35&#45;&gt;Node1</title>
<path fill="none" stroke="#9a32cd" stroke-dasharray="5,2" d="M1185.84,-242.72C1222.49,-233.54 1294.36,-221.61 1343,-252.5 1397.08,-286.84 1414.32,-371.23 1418.71,-399.83"/>
<polygon fill="#9a32cd" stroke="#9a32cd" points="1184.84,-239.36 1176.07,-245.31 1186.63,-246.13 1184.84,-239.36"/>
<text text-anchor="middle" x="1287" y="-277.5" font-family="Helvetica,sans-Serif" font-size="10.00"> m_cols</text>
<text text-anchor="middle" x="1287" y="-266.5" font-family="Helvetica,sans-Serif" font-size="10.00">m_rows</text>
<text text-anchor="middle" x="1287" y="-255.5" font-family="Helvetica,sans-Serif" font-size="10.00">m_log_level</text>
</g>
<!-- Node36 -->
<g id="node36" class="node">
<title>Node36</title>
<g id="a_node36"><a xlink:title=" ">
<polygon fill="white" stroke="#bfbfbf" points="1144,-202 1144,-221 1179,-221 1179,-202 1144,-202"/>
<text text-anchor="middle" x="1161.5" y="-209" font-family="Helvetica,sans-Serif" font-size="10.00">u64</text>
</a>
</g>
</g>
<!-- Node36&#45;&gt;Node1 -->
<g id="edge47" class="edge">
<title>Node36&#45;&gt;Node1</title>
<path fill="none" stroke="#9a32cd" stroke-dasharray="5,2" d="M1188.82,-204.34C1226.66,-195.71 1296.93,-186.09 1343,-218.5 1405.87,-262.74 1417.45,-367.39 1419.54,-399.78"/>
<polygon fill="#9a32cd" stroke="#9a32cd" points="1187.94,-200.95 1179.05,-206.71 1189.6,-207.75 1187.94,-200.95"/>
<text text-anchor="middle" x="1287" y="-221.5" font-family="Helvetica,sans-Serif" font-size="10.00"> m_game_time</text>
</g>
</g>
</svg>
