<?xml version="1.0" encoding="UTF-8" standalone="no"?>
<!DOCTYPE svg PUBLIC "-//W3C//DTD SVG 1.1//EN"
 "http://www.w3.org/Graphics/SVG/1.1/DTD/svg11.dtd">
<!-- Generated by graphviz version 2.43.0 (0)
 -->
<!-- Title: irr::scene::CCameraSceneNode::render Pages: 1 -->
<svg width="668pt" height="274pt"
 viewBox="0.00 0.00 668.00 274.00" xmlns="http://www.w3.org/2000/svg" xmlns:xlink="http://www.w3.org/1999/xlink">
<g id="graph0" class="graph" transform="scale(1 1) rotate(0) translate(4 270)">
<title>irr::scene::CCameraSceneNode::render</title>
<polygon fill="white" stroke="transparent" points="-4,4 -4,-270 664,-270 664,4 -4,4"/>
<!-- Node1 -->
<g id="node1" class="node">
<title>Node1</title>
<g id="a_node1"><a xlink:title="Render.">
<polygon fill="#bfbfbf" stroke="black" points="0,-166.5 0,-196.5 142,-196.5 142,-166.5 0,-166.5"/>
<text text-anchor="start" x="8" y="-184.5" font-family="Helvetica,sans-Serif" font-size="10.00">irr::scene::CCameraScene</text>
<text text-anchor="middle" x="71" y="-173.5" font-family="Helvetica,sans-Serif" font-size="10.00">Node::render</text>
</a>
</g>
</g>
<!-- Node2 -->
<g id="node2" class="node">
<title>Node2</title>
<g id="a_node2"><a xlink:href="structirr_1_1scene_1_1SViewFrustum.html#acf8edd203e7479d2b444ed548075ffa6" target="_top" xlink:title="get the given state&#39;s matrix based on frustum E_TRANSFORMATION_STATE">
<polygon fill="white" stroke="black" points="370,-235.5 370,-265.5 507,-265.5 507,-235.5 370,-235.5"/>
<text text-anchor="start" x="378" y="-253.5" font-family="Helvetica,sans-Serif" font-size="10.00">irr::scene::SViewFrustum</text>
<text text-anchor="middle" x="438.5" y="-242.5" font-family="Helvetica,sans-Serif" font-size="10.00">::getTransform</text>
</a>
</g>
</g>
<!-- Node1&#45;&gt;Node2 -->
<g id="edge1" class="edge">
<title>Node1&#45;&gt;Node2</title>
<path fill="none" stroke="midnightblue" d="M97.13,-196.6C118,-208.33 148.87,-223.85 178,-231.5 237.7,-247.18 307.6,-251.54 359.8,-252.19"/>
<polygon fill="midnightblue" stroke="midnightblue" points="359.97,-255.69 370,-252.27 360.03,-248.69 359.97,-255.69"/>
</g>
<!-- Node3 -->
<g id="node3" class="node">
<title>Node3</title>
<g id="a_node3"><a xlink:href="classirr_1_1scene_1_1ISceneManager.html#afde082160205a8faab44cd5b61e3745c" target="_top" xlink:title="Get the video driver.">
<polygon fill="white" stroke="black" points="178,-191.5 178,-221.5 321,-221.5 321,-191.5 178,-191.5"/>
<text text-anchor="start" x="186" y="-209.5" font-family="Helvetica,sans-Serif" font-size="10.00">irr::scene::ISceneManager</text>
<text text-anchor="middle" x="249.5" y="-198.5" font-family="Helvetica,sans-Serif" font-size="10.00">::getVideoDriver</text>
</a>
</g>
</g>
<!-- Node1&#45;&gt;Node3 -->
<g id="edge2" class="edge">
<title>Node1&#45;&gt;Node3</title>
<path fill="none" stroke="midnightblue" d="M142.01,-191.42C150.52,-192.62 159.26,-193.86 167.91,-195.09"/>
<polygon fill="midnightblue" stroke="midnightblue" points="167.6,-198.58 178,-196.51 168.59,-191.65 167.6,-198.58"/>
</g>
<!-- Node4 -->
<g id="node4" class="node">
<title>Node4</title>
<g id="a_node4"><a xlink:href="classirr_1_1video_1_1IVideoDriver.html#aaf6e88bedf7b91666a2bd34f46e092fc" target="_top" xlink:title="Sets transformation matrices.">
<polygon fill="white" stroke="black" points="186,-142.5 186,-172.5 313,-172.5 313,-142.5 186,-142.5"/>
<text text-anchor="start" x="194" y="-160.5" font-family="Helvetica,sans-Serif" font-size="10.00">irr::video::IVideoDriver</text>
<text text-anchor="middle" x="249.5" y="-149.5" font-family="Helvetica,sans-Serif" font-size="10.00">::setTransform</text>
</a>
</g>
</g>
<!-- Node1&#45;&gt;Node4 -->
<g id="edge3" class="edge">
<title>Node1&#45;&gt;Node4</title>
<path fill="none" stroke="midnightblue" d="M142.01,-171.98C153.06,-170.48 164.52,-168.92 175.63,-167.41"/>
<polygon fill="midnightblue" stroke="midnightblue" points="176.29,-170.85 185.73,-166.04 175.35,-163.92 176.29,-170.85"/>
</g>
<!-- Node5 -->
<g id="node5" class="node">
<title>Node5</title>
<g id="a_node5"><a xlink:href="classirr_1_1scene_1_1CCameraSceneNode.html#adecfaffa58c4a89150d2e780ae9f130f" target="_top" xlink:title="Update.">
<polygon fill="white" stroke="black" points="178.5,-93.5 178.5,-123.5 320.5,-123.5 320.5,-93.5 178.5,-93.5"/>
<text text-anchor="start" x="186.5" y="-111.5" font-family="Helvetica,sans-Serif" font-size="10.00">irr::scene::CCameraScene</text>
<text text-anchor="middle" x="249.5" y="-100.5" font-family="Helvetica,sans-Serif" font-size="10.00">Node::updateMatrices</text>
</a>
</g>
</g>
<!-- Node1&#45;&gt;Node5 -->
<g id="edge4" class="edge">
<title>Node1&#45;&gt;Node5</title>
<path fill="none" stroke="midnightblue" d="M103.7,-166.3C124.61,-156.48 152.7,-143.69 178,-133.5 183.4,-131.32 189.07,-129.14 194.76,-127.03"/>
<polygon fill="midnightblue" stroke="midnightblue" points="196.1,-130.26 204.28,-123.53 193.69,-123.69 196.1,-130.26"/>
</g>
<!-- Node5&#45;&gt;Node2 -->
<g id="edge10" class="edge">
<title>Node5&#45;&gt;Node2</title>
<path fill="none" stroke="midnightblue" d="M307.38,-123.54C312.35,-126.32 317,-129.61 321,-133.5 352.78,-164.39 324.44,-196.43 357,-226.5 358.33,-227.72 359.71,-228.89 361.15,-229.99"/>
<polygon fill="midnightblue" stroke="midnightblue" points="359.59,-233.15 369.87,-235.68 363.41,-227.29 359.59,-233.15"/>
</g>
<!-- Node6 -->
<g id="node6" class="node">
<title>Node6</title>
<g id="a_node6"><a xlink:href="classirr_1_1core_1_1CMatrix4.html#a78e15297c806006898df58498755ecd4" target="_top" xlink:title="Builds a left&#45;handed look&#45;at matrix.">
<polygon fill="white" stroke="black" points="357,-186.5 357,-216.5 520,-216.5 520,-186.5 357,-186.5"/>
<text text-anchor="start" x="365" y="-204.5" font-family="Helvetica,sans-Serif" font-size="10.00">irr::core::CMatrix4</text>
<text text-anchor="middle" x="438.5" y="-193.5" font-family="Helvetica,sans-Serif" font-size="10.00">::buildCameraLookAtMatrixLH</text>
</a>
</g>
</g>
<!-- Node5&#45;&gt;Node6 -->
<g id="edge5" class="edge">
<title>Node5&#45;&gt;Node6</title>
<path fill="none" stroke="midnightblue" d="M303.3,-123.59C309.53,-126.41 315.58,-129.69 321,-133.5 341.67,-148.04 335.97,-163.5 357,-177.5 359.39,-179.09 361.89,-180.58 364.46,-181.97"/>
<polygon fill="midnightblue" stroke="midnightblue" points="362.95,-185.13 373.48,-186.34 366.01,-178.83 362.95,-185.13"/>
</g>
<!-- Node7 -->
<g id="node7" class="node">
<title>Node7</title>
<g id="a_node7"><a xlink:href="classirr_1_1core_1_1vector3d.html#ae220d3f24173601c5957961382588394" target="_top" xlink:title="Get the dot product with another vector.">
<polygon fill="white" stroke="black" points="387,-137.5 387,-167.5 490,-167.5 490,-137.5 387,-137.5"/>
<text text-anchor="start" x="395" y="-155.5" font-family="Helvetica,sans-Serif" font-size="10.00">irr::core::vector3d</text>
<text text-anchor="middle" x="438.5" y="-144.5" font-family="Helvetica,sans-Serif" font-size="10.00">::dotProduct</text>
</a>
</g>
</g>
<!-- Node5&#45;&gt;Node7 -->
<g id="edge6" class="edge">
<title>Node5&#45;&gt;Node7</title>
<path fill="none" stroke="midnightblue" d="M314.33,-123.52C334.61,-128.29 356.96,-133.55 376.99,-138.26"/>
<polygon fill="midnightblue" stroke="midnightblue" points="376.39,-141.72 386.93,-140.6 377.99,-134.9 376.39,-141.72"/>
</g>
<!-- Node8 -->
<g id="node8" class="node">
<title>Node8</title>
<g id="a_node8"><a xlink:href="namespaceirr_1_1core.html#ac1fa0ed48254bc3d2797468f3ffff735" target="_top" xlink:title="returns if a equals b, taking possible rounding errors into account">
<polygon fill="white" stroke="black" points="392.5,-99 392.5,-118 484.5,-118 484.5,-99 392.5,-99"/>
<text text-anchor="middle" x="438.5" y="-106" font-family="Helvetica,sans-Serif" font-size="10.00">irr::core::equals</text>
</a>
</g>
</g>
<!-- Node5&#45;&gt;Node8 -->
<g id="edge7" class="edge">
<title>Node5&#45;&gt;Node8</title>
<path fill="none" stroke="midnightblue" d="M320.66,-108.5C341.04,-108.5 363.01,-108.5 382.33,-108.5"/>
<polygon fill="midnightblue" stroke="midnightblue" points="382.46,-112 392.46,-108.5 382.46,-105 382.46,-112"/>
</g>
<!-- Node9 -->
<g id="node9" class="node">
<title>Node9</title>
<g id="a_node9"><a xlink:href="classirr_1_1scene_1_1ISceneNode.html#a09a1c2ce3cf5448197a0c7b0bb16a516" target="_top" xlink:title="Gets the absolute position of the node in world coordinates.">
<polygon fill="white" stroke="black" points="376,-49.5 376,-79.5 501,-79.5 501,-49.5 376,-49.5"/>
<text text-anchor="start" x="384" y="-67.5" font-family="Helvetica,sans-Serif" font-size="10.00">irr::scene::ISceneNode</text>
<text text-anchor="middle" x="438.5" y="-56.5" font-family="Helvetica,sans-Serif" font-size="10.00">::getAbsolutePosition</text>
</a>
</g>
</g>
<!-- Node5&#45;&gt;Node9 -->
<g id="edge8" class="edge">
<title>Node5&#45;&gt;Node9</title>
<path fill="none" stroke="midnightblue" d="M314.33,-93.48C330.96,-89.57 348.98,-85.33 365.98,-81.33"/>
<polygon fill="midnightblue" stroke="midnightblue" points="366.92,-84.7 375.85,-79.01 365.32,-77.89 366.92,-84.7"/>
</g>
<!-- Node11 -->
<g id="node11" class="node">
<title>Node11</title>
<g id="a_node11"><a xlink:href="classirr_1_1core_1_1vector3d.html#a84a1861464ef70e6965c146732103c09" target="_top" xlink:title="Normalizes the vector.">
<polygon fill="white" stroke="black" points="387,-0.5 387,-30.5 490,-30.5 490,-0.5 387,-0.5"/>
<text text-anchor="start" x="395" y="-18.5" font-family="Helvetica,sans-Serif" font-size="10.00">irr::core::vector3d</text>
<text text-anchor="middle" x="438.5" y="-7.5" font-family="Helvetica,sans-Serif" font-size="10.00">::normalize</text>
</a>
</g>
</g>
<!-- Node5&#45;&gt;Node11 -->
<g id="edge11" class="edge">
<title>Node5&#45;&gt;Node11</title>
<path fill="none" stroke="midnightblue" d="M270.77,-93.22C291.52,-78.15 325.16,-55.28 357,-40.5 363.48,-37.49 370.41,-34.72 377.4,-32.21"/>
<polygon fill="midnightblue" stroke="midnightblue" points="378.58,-35.5 386.91,-28.94 376.31,-28.88 378.58,-35.5"/>
</g>
<!-- Node10 -->
<g id="node10" class="node">
<title>Node10</title>
<g id="a_node10"><a xlink:href="classirr_1_1core_1_1CMatrix4.html#a574f83a4c1c6809f71ccb200020983f7" target="_top" xlink:title="Gets the current translation.">
<polygon fill="white" stroke="black" points="556,-49.5 556,-79.5 660,-79.5 660,-49.5 556,-49.5"/>
<text text-anchor="start" x="564" y="-67.5" font-family="Helvetica,sans-Serif" font-size="10.00">irr::core::CMatrix4</text>
<text text-anchor="middle" x="608" y="-56.5" font-family="Helvetica,sans-Serif" font-size="10.00">::getTranslation</text>
</a>
</g>
</g>
<!-- Node9&#45;&gt;Node10 -->
<g id="edge9" class="edge">
<title>Node9&#45;&gt;Node10</title>
<path fill="none" stroke="midnightblue" d="M501.39,-64.5C515.79,-64.5 531.12,-64.5 545.5,-64.5"/>
<polygon fill="midnightblue" stroke="midnightblue" points="545.78,-68 555.78,-64.5 545.78,-61 545.78,-68"/>
</g>
</g>
</svg>
