<?xml version="1.0" encoding="UTF-8" standalone="no"?>
<!DOCTYPE svg PUBLIC "-//W3C//DTD SVG 1.1//EN"
 "http://www.w3.org/Graphics/SVG/1.1/DTD/svg11.dtd">
<!-- Generated by graphviz version 2.43.0 (0)
 -->
<!-- Title: irr::scene::CMeshManipulator::recalculateNormals Pages: 1 -->
<svg width="329pt" height="39pt"
 viewBox="0.00 0.00 329.00 39.00" xmlns="http://www.w3.org/2000/svg" xmlns:xlink="http://www.w3.org/1999/xlink">
<g id="graph0" class="graph" transform="scale(1 1) rotate(0) translate(4 35)">
<title>irr::scene::CMeshManipulator::recalculateNormals</title>
<polygon fill="white" stroke="transparent" points="-4,4 -4,-35 325,-35 325,4 -4,4"/>
<!-- Node1 -->
<g id="node1" class="node">
<title>Node1</title>
<g id="a_node1"><a xlink:title="Recalculates all normals of the mesh buffer.">
<polygon fill="#bfbfbf" stroke="black" points="0,-0.5 0,-30.5 159,-30.5 159,-0.5 0,-0.5"/>
<text text-anchor="start" x="8" y="-18.5" font-family="Helvetica,sans-Serif" font-size="10.00">irr::scene::CMeshManipulator</text>
<text text-anchor="middle" x="79.5" y="-7.5" font-family="Helvetica,sans-Serif" font-size="10.00">::recalculateNormals</text>
</a>
</g>
</g>
<!-- Node2 -->
<g id="node2" class="node">
<title>Node2</title>
<g id="a_node2"><a xlink:href="classirr_1_1scene_1_1IMeshBuffer.html#a8a993431c2c35420b62a577dc18dbdc2" target="_top" xlink:title="Get type of index data which is stored in this meshbuffer.">
<polygon fill="white" stroke="black" points="195,-0.5 195,-30.5 321,-30.5 321,-0.5 195,-0.5"/>
<text text-anchor="start" x="203" y="-18.5" font-family="Helvetica,sans-Serif" font-size="10.00">irr::scene::IMeshBuffer</text>
<text text-anchor="middle" x="258" y="-7.5" font-family="Helvetica,sans-Serif" font-size="10.00">::getIndexType</text>
</a>
</g>
</g>
<!-- Node1&#45;&gt;Node2 -->
<g id="edge1" class="edge">
<title>Node1&#45;&gt;Node2</title>
<path fill="none" stroke="midnightblue" d="M159.2,-15.5C167.7,-15.5 176.31,-15.5 184.73,-15.5"/>
<polygon fill="midnightblue" stroke="midnightblue" points="184.87,-19 194.87,-15.5 184.87,-12 184.87,-19"/>
</g>
</g>
</svg>
