<?xml version="1.0" encoding="UTF-8" standalone="no"?>
<!DOCTYPE svg PUBLIC "-//W3C//DTD SVG 1.1//EN"
 "http://www.w3.org/Graphics/SVG/1.1/DTD/svg11.dtd">
<!-- Generated by graphviz version 2.43.0 (0)
 -->
<!-- Title: irr::gui::CGUIImageList::createImageList Pages: 1 -->
<svg width="297pt" height="88pt"
 viewBox="0.00 0.00 297.00 88.00" xmlns="http://www.w3.org/2000/svg" xmlns:xlink="http://www.w3.org/1999/xlink">
<g id="graph0" class="graph" transform="scale(1 1) rotate(0) translate(4 84)">
<title>irr::gui::CGUIImageList::createImageList</title>
<polygon fill="white" stroke="transparent" points="-4,4 -4,-84 293,-84 293,4 -4,4"/>
<!-- Node1 -->
<g id="node1" class="node">
<title>Node1</title>
<g id="a_node1"><a xlink:title="Creates the image list from texture.">
<polygon fill="#bfbfbf" stroke="black" points="0,-24.5 0,-54.5 127,-54.5 127,-24.5 0,-24.5"/>
<text text-anchor="start" x="8" y="-42.5" font-family="Helvetica,sans-Serif" font-size="10.00">irr::gui::CGUIImageList</text>
<text text-anchor="middle" x="63.5" y="-31.5" font-family="Helvetica,sans-Serif" font-size="10.00">::createImageList</text>
</a>
</g>
</g>
<!-- Node2 -->
<g id="node2" class="node">
<title>Node2</title>
<g id="a_node2"><a xlink:href="classirr_1_1video_1_1ITexture.html#aa2d4f5a6dc7dcae625845ab0bbac8ca4" target="_top" xlink:title="Get dimension (=size) of the texture.">
<polygon fill="white" stroke="black" points="173.5,-49.5 173.5,-79.5 278.5,-79.5 278.5,-49.5 173.5,-49.5"/>
<text text-anchor="start" x="181.5" y="-67.5" font-family="Helvetica,sans-Serif" font-size="10.00">irr::video::ITexture</text>
<text text-anchor="middle" x="226" y="-56.5" font-family="Helvetica,sans-Serif" font-size="10.00">::getSize</text>
</a>
</g>
</g>
<!-- Node1&#45;&gt;Node2 -->
<g id="edge1" class="edge">
<title>Node1&#45;&gt;Node2</title>
<path fill="none" stroke="midnightblue" d="M127.01,-49.24C138.86,-51.08 151.25,-53.01 163.07,-54.85"/>
<polygon fill="midnightblue" stroke="midnightblue" points="162.88,-58.37 173.3,-56.45 163.95,-51.45 162.88,-58.37"/>
</g>
<!-- Node3 -->
<g id="node3" class="node">
<title>Node3</title>
<g id="a_node3"><a xlink:href="classirr_1_1IReferenceCounted.html#a396f9cdbe311ada278626477b3c6f0f5" target="_top" xlink:title="Grabs the object. Increments the reference counter by one.">
<polygon fill="white" stroke="black" points="163,-0.5 163,-30.5 289,-30.5 289,-0.5 163,-0.5"/>
<text text-anchor="start" x="171" y="-18.5" font-family="Helvetica,sans-Serif" font-size="10.00">irr::IReferenceCounted</text>
<text text-anchor="middle" x="226" y="-7.5" font-family="Helvetica,sans-Serif" font-size="10.00">::grab</text>
</a>
</g>
</g>
<!-- Node1&#45;&gt;Node3 -->
<g id="edge2" class="edge">
<title>Node1&#45;&gt;Node3</title>
<path fill="none" stroke="midnightblue" d="M127.01,-30.15C135.49,-28.88 144.25,-27.58 152.87,-26.29"/>
<polygon fill="midnightblue" stroke="midnightblue" points="153.55,-29.72 162.92,-24.78 152.51,-22.8 153.55,-29.72"/>
</g>
</g>
</svg>
