<?xml version="1.0" encoding="UTF-8" standalone="no"?>
<!DOCTYPE svg PUBLIC "-//W3C//DTD SVG 1.1//EN"
 "http://www.w3.org/Graphics/SVG/1.1/DTD/svg11.dtd">
<!-- Generated by graphviz version 2.43.0 (0)
 -->
<!-- Title: irr::video::IMaterialRendererServices::setVertexShaderConstant Pages: 1 -->
<svg width="431pt" height="88pt"
 viewBox="0.00 0.00 431.00 88.00" xmlns="http://www.w3.org/2000/svg" xmlns:xlink="http://www.w3.org/1999/xlink">
<g id="graph0" class="graph" transform="scale(1 1) rotate(0) translate(4 84)">
<title>irr::video::IMaterialRendererServices::setVertexShaderConstant</title>
<polygon fill="white" stroke="transparent" points="-4,4 -4,-84 427,-84 427,4 -4,4"/>
<!-- Node1 -->
<g id="node1" class="node">
<title>Node1</title>
<g id="a_node1"><a xlink:title=" ">
<polygon fill="#bfbfbf" stroke="black" points="0,-24.5 0,-54.5 188,-54.5 188,-24.5 0,-24.5"/>
<text text-anchor="start" x="8" y="-42.5" font-family="Helvetica,sans-Serif" font-size="10.00">irr::video::IMaterialRenderer</text>
<text text-anchor="middle" x="94" y="-31.5" font-family="Helvetica,sans-Serif" font-size="10.00">Services::setVertexShaderConstant</text>
</a>
</g>
</g>
<!-- Node2 -->
<g id="node2" class="node">
<title>Node2</title>
<g id="a_node2"><a xlink:href="classirr_1_1video_1_1IMaterialRendererServices.html#a368195f7c77f0d9f677bee912416aac6" target="_top" xlink:title="Return an index constant for the vertex shader based on a name.">
<polygon fill="white" stroke="black" points="224,-49.5 224,-79.5 423,-79.5 423,-49.5 224,-49.5"/>
<text text-anchor="start" x="232" y="-67.5" font-family="Helvetica,sans-Serif" font-size="10.00">irr::video::IMaterialRenderer</text>
<text text-anchor="middle" x="323.5" y="-56.5" font-family="Helvetica,sans-Serif" font-size="10.00">Services::getVertexShaderConstantID</text>
</a>
</g>
</g>
<!-- Node1&#45;&gt;Node2 -->
<g id="edge1" class="edge">
<title>Node1&#45;&gt;Node2</title>
<path fill="none" stroke="midnightblue" d="M188.19,-49.74C196.66,-50.67 205.28,-51.62 213.87,-52.56"/>
<polygon fill="midnightblue" stroke="midnightblue" points="213.59,-56.05 223.91,-53.67 214.36,-49.09 213.59,-56.05"/>
</g>
<!-- Node3 -->
<g id="node3" class="node">
<title>Node3</title>
<g id="a_node3"><a xlink:href="classirr_1_1video_1_1IMaterialRendererServices.html#a737ef09fe6f80110c320ec4b0d8ad1dc" target="_top" xlink:title="Sets a constant for the vertex shader based on a name.">
<polygon fill="white" stroke="black" points="229.5,-0.5 229.5,-30.5 417.5,-30.5 417.5,-0.5 229.5,-0.5"/>
<text text-anchor="start" x="237.5" y="-18.5" font-family="Helvetica,sans-Serif" font-size="10.00">irr::video::IMaterialRenderer</text>
<text text-anchor="middle" x="323.5" y="-7.5" font-family="Helvetica,sans-Serif" font-size="10.00">Services::setVertexShaderConstant</text>
</a>
</g>
</g>
<!-- Node1&#45;&gt;Node3 -->
<g id="edge2" class="edge">
<title>Node1&#45;&gt;Node3</title>
<path fill="none" stroke="midnightblue" d="M188.19,-29.67C198.51,-28.58 209.07,-27.47 219.5,-26.37"/>
<polygon fill="midnightblue" stroke="midnightblue" points="219.88,-29.85 229.46,-25.32 219.14,-22.88 219.88,-29.85"/>
</g>
</g>
</svg>
