<?xml version="1.0" encoding="UTF-8" standalone="no"?>
<!DOCTYPE svg PUBLIC "-//W3C//DTD SVG 1.1//EN"
 "http://www.w3.org/Graphics/SVG/1.1/DTD/svg11.dtd">
<!-- Generated by graphviz version 2.43.0 (0)
 -->
<!-- Title: NodeTimerList Pages: 1 -->
<svg width="417pt" height="129pt"
 viewBox="0.00 0.00 417.00 129.00" xmlns="http://www.w3.org/2000/svg" xmlns:xlink="http://www.w3.org/1999/xlink">
<g id="graph0" class="graph" transform="scale(1 1) rotate(0) translate(4 125)">
<title>NodeTimerList</title>
<polygon fill="white" stroke="transparent" points="-4,4 -4,-125 413,-125 413,4 -4,4"/>
<!-- Node1 -->
<g id="node1" class="node">
<title>Node1</title>
<g id="a_node1"><a xlink:title=" ">
<polygon fill="#bfbfbf" stroke="black" points="321,-60.5 321,-79.5 409,-79.5 409,-60.5 321,-60.5"/>
<text text-anchor="middle" x="365" y="-67.5" font-family="Helvetica,sans-Serif" font-size="10.00">NodeTimerList</text>
</a>
</g>
</g>
<!-- Node2 -->
<g id="node2" class="node">
<title>Node2</title>
<g id="a_node2"><a xlink:title=" ">
<polygon fill="white" stroke="#bfbfbf" points="64.5,-98.5 64.5,-117.5 114.5,-117.5 114.5,-98.5 64.5,-98.5"/>
<text text-anchor="middle" x="89.5" y="-105.5" font-family="Helvetica,sans-Serif" font-size="10.00">double</text>
</a>
</g>
</g>
<!-- Node2&#45;&gt;Node1 -->
<g id="edge1" class="edge">
<title>Node2&#45;&gt;Node1</title>
<path fill="none" stroke="#9a32cd" stroke-dasharray="5,2" d="M124.55,-105.72C166.68,-102.58 240.51,-96.02 303,-85 311.38,-83.52 320.31,-81.55 328.69,-79.53"/>
<polygon fill="#9a32cd" stroke="#9a32cd" points="124.27,-102.23 114.55,-106.45 124.78,-109.21 124.27,-102.23"/>
<text text-anchor="middle" x="250" y="-113" font-family="Helvetica,sans-Serif" font-size="10.00"> m_next_trigger_time</text>
<text text-anchor="middle" x="250" y="-102" font-family="Helvetica,sans-Serif" font-size="10.00">m_time</text>
</g>
<!-- Node3 -->
<g id="node3" class="node">
<title>Node3</title>
<g id="a_node3"><a xlink:title=" ">
<polygon fill="white" stroke="#bfbfbf" points="0,-60.5 0,-79.5 179,-79.5 179,-60.5 0,-60.5"/>
<text text-anchor="middle" x="89.5" y="-67.5" font-family="Helvetica,sans-Serif" font-size="10.00">multimap&lt; double, NodeTimer &gt;</text>
</a>
</g>
</g>
<!-- Node3&#45;&gt;Node1 -->
<g id="edge2" class="edge">
<title>Node3&#45;&gt;Node1</title>
<path fill="none" stroke="#9a32cd" stroke-dasharray="5,2" d="M189.42,-70C234.53,-70 285.6,-70 320.8,-70"/>
<polygon fill="#9a32cd" stroke="#9a32cd" points="189.3,-66.5 179.3,-70 189.3,-73.5 189.3,-66.5"/>
<text text-anchor="middle" x="250" y="-73" font-family="Helvetica,sans-Serif" font-size="10.00"> m_timers</text>
</g>
<!-- Node4 -->
<g id="node4" class="node">
<title>Node4</title>
<g id="a_node4"><a xlink:title=" ">
<polygon fill="white" stroke="#bfbfbf" points="20,-0.5 20,-41.5 159,-41.5 159,-0.5 20,-0.5"/>
<text text-anchor="start" x="28" y="-29.5" font-family="Helvetica,sans-Serif" font-size="10.00">map&lt; irr::core::vector3d,</text>
<text text-anchor="start" x="28" y="-18.5" font-family="Helvetica,sans-Serif" font-size="10.00"> std::multimap&lt; double,</text>
<text text-anchor="middle" x="89.5" y="-7.5" font-family="Helvetica,sans-Serif" font-size="10.00"> NodeTimer &gt;::iterator &gt;</text>
</a>
</g>
</g>
<!-- Node4&#45;&gt;Node1 -->
<g id="edge3" class="edge">
<title>Node4&#45;&gt;Node1</title>
<path fill="none" stroke="#9a32cd" stroke-dasharray="5,2" d="M169.19,-32.01C209.37,-38.03 258.95,-46.08 303,-55 310.91,-56.6 319.34,-58.53 327.34,-60.47"/>
<polygon fill="#9a32cd" stroke="#9a32cd" points="169.59,-28.53 159.18,-30.52 168.56,-35.45 169.59,-28.53"/>
<text text-anchor="middle" x="250" y="-58" font-family="Helvetica,sans-Serif" font-size="10.00"> m_iterators</text>
</g>
</g>
</svg>
