<?xml version="1.0" encoding="UTF-8" standalone="no"?>
<!DOCTYPE svg PUBLIC "-//W3C//DTD SVG 1.1//EN"
 "http://www.w3.org/Graphics/SVG/1.1/DTD/svg11.dtd">
<!-- Generated by graphviz version 2.43.0 (0)
 -->
<!-- Title: irr::core::line2d::isPointOnLine Pages: 1 -->
<svg width="252pt" height="39pt"
 viewBox="0.00 0.00 252.00 39.00" xmlns="http://www.w3.org/2000/svg" xmlns:xlink="http://www.w3.org/1999/xlink">
<g id="graph0" class="graph" transform="scale(1 1) rotate(0) translate(4 35)">
<title>irr::core::line2d::isPointOnLine</title>
<polygon fill="white" stroke="transparent" points="-4,4 -4,-35 248,-35 248,4 -4,4"/>
<!-- Node1 -->
<g id="node1" class="node">
<title>Node1</title>
<g id="a_node1"><a xlink:title="Check if the given point is a member of the line.">
<polygon fill="#bfbfbf" stroke="black" points="0,-0.5 0,-30.5 96,-30.5 96,-0.5 0,-0.5"/>
<text text-anchor="start" x="8" y="-18.5" font-family="Helvetica,sans-Serif" font-size="10.00">irr::core::line2d::</text>
<text text-anchor="middle" x="48" y="-7.5" font-family="Helvetica,sans-Serif" font-size="10.00">isPointOnLine</text>
</a>
</g>
</g>
<!-- Node2 -->
<g id="node2" class="node">
<title>Node2</title>
<g id="a_node2"><a xlink:href="classirr_1_1core_1_1line2d.html#a85405d08c6e3ea55cdb39b60484f7275" target="_top" xlink:title="Tells us if the given point lies to the left, right, or on the line.">
<polygon fill="white" stroke="black" points="132,-0.5 132,-30.5 244,-30.5 244,-0.5 132,-0.5"/>
<text text-anchor="start" x="140" y="-18.5" font-family="Helvetica,sans-Serif" font-size="10.00">irr::core::line2d::</text>
<text text-anchor="middle" x="188" y="-7.5" font-family="Helvetica,sans-Serif" font-size="10.00">getPointOrientation</text>
</a>
</g>
</g>
<!-- Node1&#45;&gt;Node2 -->
<g id="edge1" class="edge">
<title>Node1&#45;&gt;Node2</title>
<path fill="none" stroke="midnightblue" d="M96.11,-15.5C104.3,-15.5 112.95,-15.5 121.53,-15.5"/>
<polygon fill="midnightblue" stroke="midnightblue" points="121.54,-19 131.54,-15.5 121.54,-12 121.54,-19"/>
</g>
</g>
</svg>
