<?xml version="1.0" encoding="UTF-8" standalone="no"?>
<!DOCTYPE svg PUBLIC "-//W3C//DTD SVG 1.1//EN"
 "http://www.w3.org/Graphics/SVG/1.1/DTD/svg11.dtd">
<!-- Generated by graphviz version 2.43.0 (0)
 -->
<!-- Title: shadowScreenQuadCB Pages: 1 -->
<!--zoomable 392 -->
<svg id="main" version="1.1" xmlns="http://www.w3.org/2000/svg" xmlns:xlink="http://www.w3.org/1999/xlink" xml:space="preserve" onload="init(evt)">
<style type="text/css"><![CDATA[
.edge:hover path { stroke: red; }
.edge:hover polygon { stroke: red; fill: red; }
]]></style>
<script type="text/javascript"><![CDATA[
var edges = document.getElementsByTagName('g');
if (edges && edges.length) {
  for (var i=0;i<edges.length;i++) {
    if (edges[i].id.substr(0,4)=='edge') {
      edges[i].setAttribute('class','edge');
    }
  }
}
]]></script>
        <defs>
                <circle id="rim" cx="0" cy="0" r="7"/>
                <circle id="rim2" cx="0" cy="0" r="3.5"/>
                <g id="zoomPlus">
                        <use xlink:href="#rim" fill="#404040">
                                <set attributeName="fill" to="#808080" begin="zoomplus.mouseover" end="zoomplus.mouseout"/>
                        </use>
                        <path d="M-4,0h8M0,-4v8" fill="none" stroke="white" stroke-width="1.5" pointer-events="none"/>
                </g>
                <g id="zoomMin">
                        <use xlink:href="#rim" fill="#404040">
                                <set attributeName="fill" to="#808080" begin="zoomminus.mouseover" end="zoomminus.mouseout"/>
                        </use>
                        <path d="M-4,0h8" fill="none" stroke="white" stroke-width="1.5" pointer-events="none"/>
                </g>
                <g id="dirArrow">
                        <path fill="none" stroke="white" stroke-width="1.5" d="M0,-3.0v7 M-2.5,-0.5L0,-3.0L2.5,-0.5"/>
                </g>
               <g id="resetDef">
                       <use xlink:href="#rim2" fill="#404040">
                               <set attributeName="fill" to="#808080" begin="reset.mouseover" end="reset.mouseout"/>
                       </use>
               </g>
        </defs>

<script type="text/javascript">
var viewWidth = 1389;
var viewHeight = 392;
var sectionId = 'dynsection-1';
</script>
<script xlink:href="svgpan.js"/>
<svg id="graph" class="graph">
<g id="viewport">
<title>shadowScreenQuadCB</title>
<polygon fill="white" stroke="transparent" points="-4,4 -4,-388 1385,-388 1385,4 -4,4"/>
<!-- Node1 -->
<g id="node1" class="node">
<title>Node1</title>
<g id="a_node1"><a xlink:title=" ">
<polygon fill="#bfbfbf" stroke="black" points="1255,-263.5 1255,-282.5 1381,-282.5 1381,-263.5 1255,-263.5"/>
<text text-anchor="middle" x="1318" y="-270.5" font-family="Helvetica,sans-Serif" font-size="10.00">shadowScreenQuadCB</text>
</a>
</g>
</g>
<!-- Node2 -->
<g id="node2" class="node">
<title>Node2</title>
<g id="a_node2"><a xlink:href="classirr_1_1video_1_1IShaderConstantSetCallBack.html" target="_top" xlink:title="Interface making it possible to set constants for gpu programs every frame.">
<polygon fill="white" stroke="black" points="559,-318 559,-348 705,-348 705,-318 559,-318"/>
<text text-anchor="start" x="567" y="-336" font-family="Helvetica,sans-Serif" font-size="10.00">irr::video::IShaderConstant</text>
<text text-anchor="middle" x="632" y="-325" font-family="Helvetica,sans-Serif" font-size="10.00">SetCallBack</text>
</a>
</g>
</g>
<!-- Node2&#45;&gt;Node1 -->
<g id="edge1" class="edge">
<title>Node2&#45;&gt;Node1</title>
<path fill="none" stroke="midnightblue" d="M715.27,-339.09C832.71,-345.67 1054.42,-350.15 1237,-308 1259.9,-302.71 1284.39,-291 1300.16,-282.58"/>
<polygon fill="midnightblue" stroke="midnightblue" points="715.46,-335.6 705.27,-338.52 715.05,-342.59 715.46,-335.6"/>
</g>
<!-- Node3 -->
<g id="node3" class="node">
<title>Node3</title>
<g id="a_node3"><a xlink:href="classirr_1_1IReferenceCounted.html" target="_top" xlink:title="Base class of most objects of the Irrlicht Engine.">
<polygon fill="white" stroke="black" points="177,-336.5 177,-355.5 303,-355.5 303,-336.5 177,-336.5"/>
<text text-anchor="middle" x="240" y="-343.5" font-family="Helvetica,sans-Serif" font-size="10.00">irr::IReferenceCounted</text>
</a>
</g>
</g>
<!-- Node3&#45;&gt;Node2 -->
<g id="edge2" class="edge">
<title>Node3&#45;&gt;Node2</title>
<path fill="none" stroke="midnightblue" d="M313.29,-343.59C383.26,-341.26 488.75,-337.74 558.72,-335.41"/>
<polygon fill="midnightblue" stroke="midnightblue" points="313.11,-340.09 303.23,-343.93 313.34,-347.09 313.11,-340.09"/>
</g>
<!-- Node4 -->
<g id="node4" class="node">
<title>Node4</title>
<g id="a_node4"><a xlink:title=" ">
<polygon fill="white" stroke="#bfbfbf" points="6,-297.5 6,-316.5 44,-316.5 44,-297.5 6,-297.5"/>
<text text-anchor="middle" x="25" y="-304.5" font-family="Helvetica,sans-Serif" font-size="10.00">char</text>
</a>
</g>
</g>
<!-- Node4&#45;&gt;Node3 -->
<g id="edge3" class="edge">
<title>Node4&#45;&gt;Node3</title>
<path fill="none" stroke="#9a32cd" stroke-dasharray="5,2" d="M54.09,-314.75C58.72,-315.91 63.48,-317.04 68,-318 103.75,-325.59 144.09,-332.28 176.6,-337.22"/>
<polygon fill="#9a32cd" stroke="#9a32cd" points="54.87,-311.33 44.31,-312.19 53.1,-318.11 54.87,-311.33"/>
<text text-anchor="middle" x="113.5" y="-338" font-family="Helvetica,sans-Serif" font-size="10.00"> DebugName</text>
</g>
<!-- Node7 -->
<g id="node7" class="node">
<title>Node7</title>
<g id="a_node7"><a xlink:href="classCachedShaderSetting.html" target="_top" xlink:title=" ">
<polygon fill="white" stroke="black" points="420,-194 420,-224 541,-224 541,-194 420,-194"/>
<text text-anchor="start" x="428" y="-212" font-family="Helvetica,sans-Serif" font-size="10.00">CachedShaderSetting</text>
<text text-anchor="middle" x="480.5" y="-201" font-family="Helvetica,sans-Serif" font-size="10.00">&lt; s32, 1, true &gt;</text>
</a>
</g>
</g>
<!-- Node4&#45;&gt;Node7 -->
<g id="edge7" class="edge">
<title>Node4&#45;&gt;Node7</title>
<path fill="none" stroke="#9a32cd" stroke-dasharray="5,2" d="M54.15,-305.72C104.54,-303.02 213.31,-295.31 303,-276 348.21,-266.27 358.86,-260.65 402,-244 417.43,-238.05 434.19,-230.6 448.16,-224.11"/>
<polygon fill="#9a32cd" stroke="#9a32cd" points="53.83,-302.23 44.02,-306.24 54.19,-309.22 53.83,-302.23"/>
<text text-anchor="middle" x="240" y="-299" font-family="Helvetica,sans-Serif" font-size="10.00"> m_name</text>
</g>
<!-- Node10 -->
<g id="node10" class="node">
<title>Node10</title>
<g id="a_node10"><a xlink:href="classCachedShaderSetting.html" target="_top" xlink:title=" ">
<polygon fill="white" stroke="black" points="179.5,-144 179.5,-174 300.5,-174 300.5,-144 179.5,-144"/>
<text text-anchor="start" x="187.5" y="-162" font-family="Helvetica,sans-Serif" font-size="10.00">CachedShaderSetting</text>
<text text-anchor="middle" x="240" y="-151" font-family="Helvetica,sans-Serif" font-size="10.00">&lt; T, count, cache &gt;</text>
</a>
</g>
</g>
<!-- Node4&#45;&gt;Node10 -->
<g id="edge11" class="edge">
<title>Node4&#45;&gt;Node10</title>
<path fill="none" stroke="#9a32cd" stroke-dasharray="5,2" d="M43.21,-290.02C69.95,-264.34 123.97,-215.32 177,-184 183.2,-180.34 190.03,-176.99 196.82,-174.01"/>
<polygon fill="#9a32cd" stroke="#9a32cd" points="40.55,-287.72 35.81,-297.19 45.43,-292.74 40.55,-287.72"/>
<text text-anchor="middle" x="113.5" y="-269" font-family="Helvetica,sans-Serif" font-size="10.00"> m_name</text>
</g>
<!-- Node5 -->
<g id="node5" class="node">
<title>Node5</title>
<g id="a_node5"><a xlink:title=" ">
<polygon fill="white" stroke="#bfbfbf" points="0,-364.5 0,-383.5 50,-383.5 50,-364.5 0,-364.5"/>
<text text-anchor="middle" x="25" y="-371.5" font-family="Helvetica,sans-Serif" font-size="10.00">int32_t</text>
</a>
</g>
</g>
<!-- Node5&#45;&gt;Node3 -->
<g id="edge4" class="edge">
<title>Node5&#45;&gt;Node3</title>
<path fill="none" stroke="#9a32cd" stroke-dasharray="5,2" d="M60.02,-369.53C91.43,-365.4 138.84,-359.17 176.98,-354.15"/>
<polygon fill="#9a32cd" stroke="#9a32cd" points="59.48,-366.07 50.02,-370.84 60.39,-373.01 59.48,-366.07"/>
<text text-anchor="middle" x="113.5" y="-371" font-family="Helvetica,sans-Serif" font-size="10.00"> ReferenceCounter</text>
</g>
<!-- Node6 -->
<g id="node6" class="node">
<title>Node6</title>
<g id="a_node6"><a xlink:href="classCachedPixelShaderSetting.html" target="_top" xlink:title=" ">
<polygon fill="white" stroke="black" points="946,-194 946,-224 1090,-224 1090,-194 946,-194"/>
<text text-anchor="start" x="954" y="-212" font-family="Helvetica,sans-Serif" font-size="10.00">CachedPixelShaderSetting</text>
<text text-anchor="middle" x="1018" y="-201" font-family="Helvetica,sans-Serif" font-size="10.00">&lt; s32 &gt;</text>
</a>
</g>
</g>
<!-- Node6&#45;&gt;Node1 -->
<g id="edge5" class="edge">
<title>Node6&#45;&gt;Node1</title>
<path fill="none" stroke="#9a32cd" stroke-dasharray="5,2" d="M1100.31,-224.49C1141.39,-232.55 1191.94,-242.83 1237,-253 1251.24,-256.22 1266.84,-260.04 1280.44,-263.49"/>
<polygon fill="#9a32cd" stroke="#9a32cd" points="1100.84,-221.03 1090.36,-222.55 1099.5,-227.9 1100.84,-221.03"/>
<text text-anchor="start" x="1108" y="-300" font-family="Helvetica,sans-Serif" font-size="10.00"> m_sm_client_map_trans</text>
<text text-anchor="middle" x="1172.5" y="-289" font-family="Helvetica,sans-Serif" font-size="10.00">_setting</text>
<text text-anchor="middle" x="1172.5" y="-278" font-family="Helvetica,sans-Serif" font-size="10.00">m_sm_client_map_setting</text>
<text text-anchor="start" x="1108" y="-267" font-family="Helvetica,sans-Serif" font-size="10.00">m_sm_dynamic_sampler</text>
<text text-anchor="middle" x="1172.5" y="-256" font-family="Helvetica,sans-Serif" font-size="10.00">_setting</text>
</g>
<!-- Node7&#45;&gt;Node6 -->
<g id="edge6" class="edge">
<title>Node7&#45;&gt;Node6</title>
<path fill="none" stroke="midnightblue" d="M551.32,-209C653.44,-209 842.55,-209 945.57,-209"/>
<polygon fill="midnightblue" stroke="midnightblue" points="551.11,-205.5 541.11,-209 551.11,-212.5 551.11,-205.5"/>
</g>
<!-- Node8 -->
<g id="node8" class="node">
<title>Node8</title>
<g id="a_node8"><a xlink:href="classbool.html" target="_top" xlink:title=" ">
<polygon fill="white" stroke="black" points="6,-160.5 6,-179.5 44,-179.5 44,-160.5 6,-160.5"/>
<text text-anchor="middle" x="25" y="-167.5" font-family="Helvetica,sans-Serif" font-size="10.00">bool</text>
</a>
</g>
</g>
<!-- Node8&#45;&gt;Node7 -->
<g id="edge8" class="edge">
<title>Node8&#45;&gt;Node7</title>
<path fill="none" stroke="#9a32cd" stroke-dasharray="5,2" d="M32.6,-189.4C39,-204.84 50.36,-225.4 68,-235 127.02,-267.13 320.8,-238.15 419.94,-220.41"/>
<polygon fill="#9a32cd" stroke="#9a32cd" points="35.75,-187.85 28.95,-179.73 29.2,-190.32 35.75,-187.85"/>
<text text-anchor="middle" x="240" y="-264" font-family="Helvetica,sans-Serif" font-size="10.00"> is_pixel</text>
<text text-anchor="middle" x="240" y="-253" font-family="Helvetica,sans-Serif" font-size="10.00">has_been_set</text>
</g>
<!-- Node8&#45;&gt;Node10 -->
<g id="edge12" class="edge">
<title>Node8&#45;&gt;Node10</title>
<path fill="none" stroke="#9a32cd" stroke-dasharray="5,2" d="M54.48,-168.53C86.2,-166.89 138.4,-164.2 179.2,-162.09"/>
<polygon fill="#9a32cd" stroke="#9a32cd" points="53.97,-165.05 44.16,-169.06 54.33,-172.04 53.97,-165.05"/>
<text text-anchor="middle" x="113.5" y="-182" font-family="Helvetica,sans-Serif" font-size="10.00"> is_pixel</text>
<text text-anchor="middle" x="113.5" y="-171" font-family="Helvetica,sans-Serif" font-size="10.00">has_been_set</text>
</g>
<!-- Node13 -->
<g id="node13" class="node">
<title>Node13</title>
<g id="a_node13"><a xlink:href="classCachedShaderSetting.html" target="_top" xlink:title=" ">
<polygon fill="white" stroke="black" points="420,-88 420,-118 541,-118 541,-88 420,-88"/>
<text text-anchor="start" x="428" y="-106" font-family="Helvetica,sans-Serif" font-size="10.00">CachedShaderSetting</text>
<text text-anchor="middle" x="480.5" y="-95" font-family="Helvetica,sans-Serif" font-size="10.00">&lt; T, 1, true &gt;</text>
</a>
</g>
</g>
<!-- Node8&#45;&gt;Node13 -->
<g id="edge16" class="edge">
<title>Node8&#45;&gt;Node13</title>
<path fill="none" stroke="#9a32cd" stroke-dasharray="5,2" d="M35.22,-151.54C42.36,-139.4 53.49,-124.43 68,-117 127.65,-86.46 320.67,-93.14 419.69,-98.91"/>
<polygon fill="#9a32cd" stroke="#9a32cd" points="32.06,-150.01 30.35,-160.47 38.21,-153.36 32.06,-150.01"/>
<text text-anchor="middle" x="240" y="-111" font-family="Helvetica,sans-Serif" font-size="10.00"> is_pixel</text>
<text text-anchor="middle" x="240" y="-100" font-family="Helvetica,sans-Serif" font-size="10.00">has_been_set</text>
</g>
<!-- Node9 -->
<g id="node9" class="node">
<title>Node9</title>
<g id="a_node9"><a xlink:title=" ">
<polygon fill="white" stroke="#bfbfbf" points="223,-193.5 223,-212.5 257,-212.5 257,-193.5 223,-193.5"/>
<text text-anchor="middle" x="240" y="-200.5" font-family="Helvetica,sans-Serif" font-size="10.00">s32</text>
</a>
</g>
</g>
<!-- Node9&#45;&gt;Node7 -->
<g id="edge9" class="edge">
<title>Node9&#45;&gt;Node7</title>
<path fill="none" stroke="#9a32cd" stroke-dasharray="5,2" d="M267.32,-203.66C303.83,-204.58 370.89,-206.27 419.87,-207.5"/>
<polygon fill="#9a32cd" stroke="#9a32cd" points="267.1,-200.16 257.02,-203.4 266.93,-207.15 267.1,-200.16"/>
<text text-anchor="middle" x="361.5" y="-210" font-family="Helvetica,sans-Serif" font-size="10.00"> m_sent</text>
</g>
<!-- Node10&#45;&gt;Node7 -->
<g id="edge10" class="edge">
<title>Node10&#45;&gt;Node7</title>
<path fill="none" stroke="orange" stroke-dasharray="5,2" d="M310.57,-172.32C338.96,-177.89 372.1,-184.56 402,-191 407.81,-192.25 413.85,-193.59 419.88,-194.95"/>
<polygon fill="orange" stroke="orange" points="311.22,-168.88 300.73,-170.4 309.87,-175.75 311.22,-168.88"/>
<text text-anchor="middle" x="361.5" y="-194" font-family="Helvetica,sans-Serif" font-size="10.00"> &lt; s32, 1, true &gt;</text>
</g>
<!-- Node10&#45;&gt;Node13 -->
<g id="edge19" class="edge">
<title>Node10&#45;&gt;Node13</title>
<path fill="none" stroke="orange" stroke-dasharray="5,2" d="M310.61,-142.65C345.26,-134.52 386.7,-124.79 419.86,-117"/>
<polygon fill="orange" stroke="orange" points="309.5,-139.32 300.57,-145.01 311.1,-146.13 309.5,-139.32"/>
<text text-anchor="middle" x="361.5" y="-143" font-family="Helvetica,sans-Serif" font-size="10.00"> &lt; T, 1, true &gt;</text>
</g>
<!-- Node11 -->
<g id="node11" class="node">
<title>Node11</title>
<g id="a_node11"><a xlink:title=" ">
<polygon fill="white" stroke="#bfbfbf" points="10.5,-84.5 10.5,-103.5 39.5,-103.5 39.5,-84.5 10.5,-84.5"/>
<text text-anchor="middle" x="25" y="-91.5" font-family="Helvetica,sans-Serif" font-size="10.00">T</text>
</a>
</g>
</g>
<!-- Node11&#45;&gt;Node10 -->
<g id="edge13" class="edge">
<title>Node11&#45;&gt;Node10</title>
<path fill="none" stroke="#9a32cd" stroke-dasharray="5,2" d="M49.48,-101.16C83.07,-111.42 145.65,-130.51 189.69,-143.95"/>
<polygon fill="#9a32cd" stroke="#9a32cd" points="50.23,-97.74 39.65,-98.16 48.19,-104.43 50.23,-97.74"/>
<text text-anchor="middle" x="113.5" y="-138" font-family="Helvetica,sans-Serif" font-size="10.00"> m_sent</text>
</g>
<!-- Node11&#45;&gt;Node13 -->
<g id="edge18" class="edge">
<title>Node11&#45;&gt;Node13</title>
<path fill="none" stroke="#9a32cd" stroke-dasharray="5,2" d="M49.46,-89.09C79.03,-83.18 131.51,-73.59 177,-70 232.83,-65.59 247.24,-64.83 303,-70 342.27,-73.64 385.82,-81.74 419.84,-89"/>
<polygon fill="#9a32cd" stroke="#9a32cd" points="48.76,-85.66 39.65,-91.09 50.15,-92.52 48.76,-85.66"/>
<text text-anchor="middle" x="240" y="-73" font-family="Helvetica,sans-Serif" font-size="10.00"> m_sent</text>
</g>
<!-- Node12 -->
<g id="node12" class="node">
<title>Node12</title>
<g id="a_node12"><a xlink:href="classCachedPixelShaderSetting.html" target="_top" xlink:title=" ">
<polygon fill="white" stroke="black" points="723,-136 723,-166 867,-166 867,-136 723,-136"/>
<text text-anchor="start" x="731" y="-154" font-family="Helvetica,sans-Serif" font-size="10.00">CachedPixelShaderSetting</text>
<text text-anchor="middle" x="795" y="-143" font-family="Helvetica,sans-Serif" font-size="10.00">&lt; T, count, cache &gt;</text>
</a>
</g>
</g>
<!-- Node12&#45;&gt;Node6 -->
<g id="edge14" class="edge">
<title>Node12&#45;&gt;Node6</title>
<path fill="none" stroke="orange" stroke-dasharray="5,2" d="M867.65,-168.51C887.25,-173.41 908.47,-178.82 928,-184 939.79,-187.13 952.42,-190.6 964.36,-193.94"/>
<polygon fill="orange" stroke="orange" points="868.43,-165.1 857.88,-166.08 866.73,-171.89 868.43,-165.1"/>
<text text-anchor="middle" x="906.5" y="-187" font-family="Helvetica,sans-Serif" font-size="10.00"> &lt; s32 &gt;</text>
</g>
<!-- Node13&#45;&gt;Node12 -->
<g id="edge15" class="edge">
<title>Node13&#45;&gt;Node12</title>
<path fill="none" stroke="midnightblue" d="M550.99,-113.67C602.13,-121.53 671.43,-132.17 722.94,-140.08"/>
<polygon fill="midnightblue" stroke="midnightblue" points="551.43,-110.2 541.01,-112.14 550.37,-117.12 551.43,-110.2"/>
</g>
<!-- Node14 -->
<g id="node14" class="node">
<title>Node14</title>
<g id="a_node14"><a xlink:title=" ">
<polygon fill="white" stroke="#bfbfbf" points="202.5,-0.5 202.5,-19.5 277.5,-19.5 277.5,-0.5 202.5,-0.5"/>
<text text-anchor="middle" x="240" y="-7.5" font-family="Helvetica,sans-Serif" font-size="10.00">const char *</text>
</a>
</g>
</g>
<!-- Node14&#45;&gt;Node13 -->
<g id="edge17" class="edge">
<title>Node14&#45;&gt;Node13</title>
<path fill="none" stroke="#9a32cd" stroke-dasharray="5,2" d="M287.99,-8.69C321.28,-9.49 366.2,-14.18 402,-31 429.93,-44.12 454.58,-71.03 468.22,-87.98"/>
<polygon fill="#9a32cd" stroke="#9a32cd" points="287.66,-5.18 277.61,-8.55 287.57,-12.18 287.66,-5.18"/>
<text text-anchor="middle" x="361.5" y="-34" font-family="Helvetica,sans-Serif" font-size="10.00"> m_name</text>
</g>
</g>
</svg>
        <g id="navigator" transform="translate(0 0)" fill="#404254">
                <rect fill="#f2f5e9" fill-opacity="0.5" stroke="#606060" stroke-width=".5" x="0" y="0" width="60" height="60"/>
                <use id="zoomplus" xlink:href="#zoomPlus" x="17" y="9" onmousedown="handleZoom(evt,'in')"/>
                <use id="zoomminus" xlink:href="#zoomMin" x="42" y="9" onmousedown="handleZoom(evt,'out')"/>
                <use id="reset" xlink:href="#resetDef" x="30" y="36" onmousedown="handleReset()"/>
                <g id="arrowUp" xlink:href="#dirArrow" transform="translate(30 24)" onmousedown="handlePan(0,-1)">
                  <use xlink:href="#rim" fill="#404040">
                        <set attributeName="fill" to="#808080" begin="arrowUp.mouseover" end="arrowUp.mouseout"/>
                  </use>
                  <path fill="none" stroke="white" stroke-width="1.5" d="M0,-3.0v7 M-2.5,-0.5L0,-3.0L2.5,-0.5"/>
                </g>
                <g id="arrowRight" xlink:href="#dirArrow" transform="rotate(90) translate(36 -43)" onmousedown="handlePan(1,0)">
                  <use xlink:href="#rim" fill="#404040">
                        <set attributeName="fill" to="#808080" begin="arrowRight.mouseover" end="arrowRight.mouseout"/>
                  </use>
                  <path fill="none" stroke="white" stroke-width="1.5" d="M0,-3.0v7 M-2.5,-0.5L0,-3.0L2.5,-0.5"/>
                </g>
                <g id="arrowDown" xlink:href="#dirArrow" transform="rotate(180) translate(-30 -48)" onmousedown="handlePan(0,1)">
                  <use xlink:href="#rim" fill="#404040">
                        <set attributeName="fill" to="#808080" begin="arrowDown.mouseover" end="arrowDown.mouseout"/>
                  </use>
                  <path fill="none" stroke="white" stroke-width="1.5" d="M0,-3.0v7 M-2.5,-0.5L0,-3.0L2.5,-0.5"/>
                </g>
                <g id="arrowLeft" xlink:href="#dirArrow" transform="rotate(270) translate(-36 17)" onmousedown="handlePan(-1,0)">
                  <use xlink:href="#rim" fill="#404040">
                        <set attributeName="fill" to="#808080" begin="arrowLeft.mouseover" end="arrowLeft.mouseout"/>
                  </use>
                  <path fill="none" stroke="white" stroke-width="1.5" d="M0,-3.0v7 M-2.5,-0.5L0,-3.0L2.5,-0.5"/>
                </g>
        </g>
        <svg viewBox="0 0 15 15" width="100%" height="30px" preserveAspectRatio="xMaxYMin meet">
         <g id="arrow_out" transform="scale(0.3 0.3)">
          <a xlink:href="classshadowScreenQuadCB__coll__graph_org.svg" target="_base">
           <rect id="button" ry="5" rx="5" y="6" x="6" height="38" width="38"
                fill="#f2f5e9" fill-opacity="0.5" stroke="#606060" stroke-width="1.0"/>
           <path id="arrow"
             d="M 11.500037,31.436501 C 11.940474,20.09759 22.043105,11.32322 32.158766,21.979434 L 37.068811,17.246167 C 37.068811,17.246167 37.088388,32 37.088388,32 L 22.160133,31.978069 C 22.160133,31.978069 26.997745,27.140456 26.997745,27.140456 C 18.528582,18.264221 13.291696,25.230495 11.500037,31.436501 z"
             style="fill:#404040;"/>
          </a>
         </g>
        </svg>
</svg>
