<?xml version="1.0" encoding="UTF-8" standalone="no"?>
<!DOCTYPE svg PUBLIC "-//W3C//DTD SVG 1.1//EN"
 "http://www.w3.org/Graphics/SVG/1.1/DTD/svg11.dtd">
<!-- Generated by graphviz version 2.43.0 (0)
 -->
<!-- Title: irr_ptr&lt; ReferenceCounted, class &gt; Pages: 1 -->
<svg width="480pt" height="218pt"
 viewBox="0.00 0.00 480.00 218.00" xmlns="http://www.w3.org/2000/svg" xmlns:xlink="http://www.w3.org/1999/xlink">
<g id="graph0" class="graph" transform="scale(1 1) rotate(0) translate(4 214)">
<title>irr_ptr&lt; ReferenceCounted, class &gt;</title>
<polygon fill="white" stroke="transparent" points="-4,4 -4,-214 476,-214 476,4 -4,4"/>
<!-- Node1 -->
<g id="node1" class="node">
<title>Node1</title>
<g id="a_node1"><a xlink:title=" ">
<polygon fill="#bfbfbf" stroke="black" points="0,-90 0,-120 150,-120 150,-90 0,-90"/>
<text text-anchor="start" x="8" y="-108" font-family="Helvetica,sans-Serif" font-size="10.00">irr_ptr&lt; ReferenceCounted,</text>
<text text-anchor="middle" x="75" y="-97" font-family="Helvetica,sans-Serif" font-size="10.00"> class &gt;</text>
</a>
</g>
</g>
<!-- Node2 -->
<g id="node2" class="node">
<title>Node2</title>
<g id="a_node2"><a xlink:href="classirr__ptr.html" target="_top" xlink:title=" ">
<polygon fill="white" stroke="black" points="309.5,-190.5 309.5,-209.5 470.5,-209.5 470.5,-190.5 309.5,-190.5"/>
<text text-anchor="middle" x="390" y="-197.5" font-family="Helvetica,sans-Serif" font-size="10.00">irr_ptr&lt; GUIFormSpecMenu &gt;</text>
</a>
</g>
</g>
<!-- Node1&#45;&gt;Node2 -->
<g id="edge1" class="edge">
<title>Node1&#45;&gt;Node2</title>
<path fill="none" stroke="orange" stroke-dasharray="5,2" d="M101.75,-126.51C119.32,-140.02 143.73,-156.61 168,-166 212.99,-183.4 266.36,-191.92 309.39,-196.08"/>
<polygon fill="orange" stroke="orange" points="103.73,-123.61 93.71,-120.17 99.4,-129.11 103.73,-123.61"/>
<text text-anchor="middle" x="229" y="-196" font-family="Helvetica,sans-Serif" font-size="10.00"> &lt; GUIFormSpecMenu &gt;</text>
</g>
<!-- Node3 -->
<g id="node3" class="node">
<title>Node3</title>
<g id="a_node3"><a xlink:href="classirr__ptr.html" target="_top" xlink:title=" ">
<polygon fill="white" stroke="black" points="314.5,-152.5 314.5,-171.5 465.5,-171.5 465.5,-152.5 314.5,-152.5"/>
<text text-anchor="middle" x="390" y="-159.5" font-family="Helvetica,sans-Serif" font-size="10.00">irr_ptr&lt; gui::IGUIElement &gt;</text>
</a>
</g>
</g>
<!-- Node1&#45;&gt;Node3 -->
<g id="edge2" class="edge">
<title>Node1&#45;&gt;Node3</title>
<path fill="none" stroke="orange" stroke-dasharray="5,2" d="M132.16,-122.94C143.92,-126.28 156.3,-129.5 168,-132 216.28,-142.3 271.29,-149.78 314.35,-154.7"/>
<polygon fill="orange" stroke="orange" points="133.03,-119.55 122.45,-120.11 131.08,-126.27 133.03,-119.55"/>
<text text-anchor="middle" x="229" y="-154" font-family="Helvetica,sans-Serif" font-size="10.00"> &lt; gui::IGUIElement &gt;</text>
</g>
<!-- Node4 -->
<g id="node4" class="node">
<title>Node4</title>
<g id="a_node4"><a xlink:href="classirr__ptr.html" target="_top" xlink:title=" ">
<polygon fill="white" stroke="black" points="320,-114.5 320,-133.5 460,-133.5 460,-114.5 320,-114.5"/>
<text text-anchor="middle" x="390" y="-121.5" font-family="Helvetica,sans-Serif" font-size="10.00">irr_ptr&lt; video::ITexture &gt;</text>
</a>
</g>
</g>
<!-- Node1&#45;&gt;Node4 -->
<g id="edge3" class="edge">
<title>Node1&#45;&gt;Node4</title>
<path fill="none" stroke="orange" stroke-dasharray="5,2" d="M160.32,-110.12C210.3,-113.15 272.86,-116.95 319.91,-119.81"/>
<polygon fill="orange" stroke="orange" points="160.37,-106.62 150.18,-109.5 159.95,-113.6 160.37,-106.62"/>
<text text-anchor="middle" x="229" y="-120" font-family="Helvetica,sans-Serif" font-size="10.00"> &lt; video::ITexture &gt;</text>
</g>
<!-- Node5 -->
<g id="node5" class="node">
<title>Node5</title>
<g id="a_node5"><a xlink:href="classirr__ptr.html" target="_top" xlink:title=" ">
<polygon fill="white" stroke="black" points="339.5,-76.5 339.5,-95.5 440.5,-95.5 440.5,-76.5 339.5,-76.5"/>
<text text-anchor="middle" x="390" y="-83.5" font-family="Helvetica,sans-Serif" font-size="10.00">irr_ptr&lt; Clouds &gt;</text>
</a>
</g>
</g>
<!-- Node1&#45;&gt;Node5 -->
<g id="edge4" class="edge">
<title>Node1&#45;&gt;Node5</title>
<path fill="none" stroke="orange" stroke-dasharray="5,2" d="M160.33,-95.61C162.92,-95.39 165.48,-95.19 168,-95 226.78,-90.61 294.53,-88.25 339.35,-87.06"/>
<polygon fill="orange" stroke="orange" points="159.93,-92.13 150.27,-96.49 160.54,-99.1 159.93,-92.13"/>
<text text-anchor="middle" x="229" y="-98" font-family="Helvetica,sans-Serif" font-size="10.00"> &lt; Clouds &gt;</text>
</g>
<!-- Node6 -->
<g id="node6" class="node">
<title>Node6</title>
<g id="a_node6"><a xlink:href="classirr__ptr.html" target="_top" xlink:title=" ">
<polygon fill="white" stroke="black" points="308,-38.5 308,-57.5 472,-57.5 472,-38.5 308,-38.5"/>
<text text-anchor="middle" x="390" y="-45.5" font-family="Helvetica,sans-Serif" font-size="10.00">irr_ptr&lt; scene::SMeshBuffer &gt;</text>
</a>
</g>
</g>
<!-- Node1&#45;&gt;Node6 -->
<g id="edge5" class="edge">
<title>Node1&#45;&gt;Node6</title>
<path fill="none" stroke="orange" stroke-dasharray="5,2" d="M123.07,-86.37C137.32,-81.35 153.13,-76.38 168,-73 213.75,-62.59 265.85,-56.43 307.97,-52.83"/>
<polygon fill="orange" stroke="orange" points="121.71,-83.15 113.49,-89.84 124.09,-89.73 121.71,-83.15"/>
<text text-anchor="middle" x="229" y="-76" font-family="Helvetica,sans-Serif" font-size="10.00"> &lt; scene::SMeshBuffer &gt;</text>
</g>
<!-- Node7 -->
<g id="node7" class="node">
<title>Node7</title>
<g id="a_node7"><a xlink:href="classirr__ptr.html" target="_top" xlink:title=" ">
<polygon fill="white" stroke="black" points="308,-0.5 308,-19.5 472,-19.5 472,-0.5 308,-0.5"/>
<text text-anchor="middle" x="390" y="-7.5" font-family="Helvetica,sans-Serif" font-size="10.00">irr_ptr&lt; GUIAnimatedImage &gt;</text>
</a>
</g>
</g>
<!-- Node1&#45;&gt;Node7 -->
<g id="edge6" class="edge">
<title>Node1&#45;&gt;Node7</title>
<path fill="none" stroke="orange" stroke-dasharray="5,2" d="M99.76,-82.88C117.26,-67.93 142.39,-49.12 168,-39 212.27,-21.5 265.01,-14.13 307.87,-11.18"/>
<polygon fill="orange" stroke="orange" points="97.01,-80.63 91.81,-89.86 101.63,-85.89 97.01,-80.63"/>
<text text-anchor="middle" x="229" y="-42" font-family="Helvetica,sans-Serif" font-size="10.00"> &lt; GUIAnimatedImage &gt;</text>
</g>
</g>
</svg>
