<?xml version="1.0" encoding="UTF-8" standalone="no"?>
<!DOCTYPE svg PUBLIC "-//W3C//DTD SVG 1.1//EN"
 "http://www.w3.org/Graphics/SVG/1.1/DTD/svg11.dtd">
<!-- Generated by graphviz version 2.43.0 (0)
 -->
<!-- Title: CavernsNoise Pages: 1 -->
<svg width="1176pt" height="836pt"
 viewBox="0.00 0.00 1176.00 836.37" xmlns="http://www.w3.org/2000/svg" xmlns:xlink="http://www.w3.org/1999/xlink">
<g id="graph0" class="graph" transform="scale(1 1) rotate(0) translate(4 832.37)">
<title>CavernsNoise</title>
<polygon fill="white" stroke="transparent" points="-4,4 -4,-832.37 1172,-832.37 1172,4 -4,4"/>
<!-- Node1 -->
<g id="node1" class="node">
<title>Node1</title>
<g id="a_node1"><a xlink:title=" ">
<polygon fill="#bfbfbf" stroke="black" points="1084,-429.87 1084,-448.87 1168,-448.87 1168,-429.87 1084,-429.87"/>
<text text-anchor="middle" x="1126" y="-436.87" font-family="Helvetica,sans-Serif" font-size="10.00">CavernsNoise</text>
</a>
</g>
</g>
<!-- Node2 -->
<g id="node2" class="node">
<title>Node2</title>
<g id="a_node2"><a xlink:href="classNodeDefManager.html" target="_top" xlink:title="This class is for getting the actual properties of nodes from their content ID.">
<polygon fill="white" stroke="black" points="903,-280.87 903,-299.87 1005,-299.87 1005,-280.87 903,-280.87"/>
<text text-anchor="middle" x="954" y="-287.87" font-family="Helvetica,sans-Serif" font-size="10.00">NodeDefManager</text>
</a>
</g>
</g>
<!-- Node2&#45;&gt;Node1 -->
<g id="edge1" class="edge">
<title>Node2&#45;&gt;Node1</title>
<path fill="none" stroke="#9a32cd" stroke-dasharray="5,2" d="M973.59,-306.66C1009.08,-337.77 1085.47,-404.72 1113.98,-429.71"/>
<polygon fill="#9a32cd" stroke="#9a32cd" points="975.72,-303.87 965.89,-299.91 971.11,-309.14 975.72,-303.87"/>
<text text-anchor="middle" x="1044.5" y="-389.37" font-family="Helvetica,sans-Serif" font-size="10.00"> m_ndef</text>
</g>
<!-- Node3 -->
<g id="node3" class="node">
<title>Node3</title>
<g id="a_node3"><a xlink:href="classirr_1_1core_1_1aabbox3d.html" target="_top" xlink:title=" ">
<polygon fill="white" stroke="black" points="588,-151.37 588,-181.37 696,-181.37 696,-151.37 588,-151.37"/>
<text text-anchor="start" x="596" y="-169.37" font-family="Helvetica,sans-Serif" font-size="10.00">irr::core::aabbox3d</text>
<text text-anchor="middle" x="642" y="-158.37" font-family="Helvetica,sans-Serif" font-size="10.00">&lt; s16 &gt;</text>
</a>
</g>
</g>
<!-- Node3&#45;&gt;Node2 -->
<g id="edge2" class="edge">
<title>Node3&#45;&gt;Node2</title>
<path fill="none" stroke="#9a32cd" stroke-dasharray="5,2" d="M706.38,-153.64C760.47,-146.71 836.91,-146.79 885,-189.37 912.93,-214.1 878.63,-243.12 903,-271.37 906.28,-275.16 910.39,-278.2 914.85,-280.64"/>
<polygon fill="#9a32cd" stroke="#9a32cd" points="705.64,-150.21 696.22,-155.06 706.61,-157.14 705.64,-150.21"/>
<text text-anchor="start" x="758" y="-203.37" font-family="Helvetica,sans-Serif" font-size="10.00"> m_selection_box_int</text>
<text text-anchor="middle" x="810" y="-192.37" font-family="Helvetica,sans-Serif" font-size="10.00">_union</text>
</g>
<!-- Node4 -->
<g id="node4" class="node">
<title>Node4</title>
<g id="a_node4"><a xlink:href="classirr_1_1core_1_1vector3d.html" target="_top" xlink:title=" ">
<polygon fill="white" stroke="black" points="308,-83.37 308,-113.37 411,-113.37 411,-83.37 308,-83.37"/>
<text text-anchor="start" x="316" y="-101.37" font-family="Helvetica,sans-Serif" font-size="10.00">irr::core::vector3d</text>
<text text-anchor="middle" x="359.5" y="-90.37" font-family="Helvetica,sans-Serif" font-size="10.00">&lt; s16 &gt;</text>
</a>
</g>
</g>
<!-- Node4&#45;&gt;Node3 -->
<g id="edge3" class="edge">
<title>Node4&#45;&gt;Node3</title>
<path fill="none" stroke="#9a32cd" stroke-dasharray="5,2" d="M421.39,-91.2C460.39,-89.53 510.69,-93.04 549,-115.37 561.14,-122.44 555.77,-132.91 567,-141.37 573.28,-146.1 580.52,-149.97 587.95,-153.13"/>
<polygon fill="#9a32cd" stroke="#9a32cd" points="421.01,-87.72 411.22,-91.76 421.4,-94.71 421.01,-87.72"/>
<text text-anchor="middle" x="497.5" y="-129.37" font-family="Helvetica,sans-Serif" font-size="10.00"> MinEdge</text>
<text text-anchor="middle" x="497.5" y="-118.37" font-family="Helvetica,sans-Serif" font-size="10.00">MaxEdge</text>
</g>
<!-- Node5 -->
<g id="node5" class="node">
<title>Node5</title>
<g id="a_node5"><a xlink:title=" ">
<polygon fill="white" stroke="#bfbfbf" points="123.5,-63.87 123.5,-82.87 157.5,-82.87 157.5,-63.87 123.5,-63.87"/>
<text text-anchor="middle" x="140.5" y="-70.87" font-family="Helvetica,sans-Serif" font-size="10.00">s16</text>
</a>
</g>
</g>
<!-- Node5&#45;&gt;Node4 -->
<g id="edge4" class="edge">
<title>Node5&#45;&gt;Node4</title>
<path fill="none" stroke="#9a32cd" stroke-dasharray="5,2" d="M167.87,-71.52C194.53,-70.14 236.84,-69.25 273,-74.37 286.28,-76.25 300.41,-79.62 313.28,-83.26"/>
<polygon fill="#9a32cd" stroke="#9a32cd" points="167.58,-68.03 157.8,-72.11 167.98,-75.02 167.58,-68.03"/>
<text text-anchor="middle" x="248.5" y="-99.37" font-family="Helvetica,sans-Serif" font-size="10.00"> X</text>
<text text-anchor="middle" x="248.5" y="-88.37" font-family="Helvetica,sans-Serif" font-size="10.00">Y</text>
<text text-anchor="middle" x="248.5" y="-77.37" font-family="Helvetica,sans-Serif" font-size="10.00">Z</text>
</g>
<!-- Node6 -->
<g id="node6" class="node">
<title>Node6</title>
<g id="a_node6"><a xlink:href="classirr_1_1core_1_1vector3d.html" target="_top" xlink:title="3d vector template class with lots of operators and methods.">
<polygon fill="white" stroke="black" points="75,-198.87 75,-217.87 206,-217.87 206,-198.87 75,-198.87"/>
<text text-anchor="middle" x="140.5" y="-205.87" font-family="Helvetica,sans-Serif" font-size="10.00">irr::core::vector3d&lt; T &gt;</text>
</a>
</g>
</g>
<!-- Node6&#45;&gt;Node4 -->
<g id="edge5" class="edge">
<title>Node6&#45;&gt;Node4</title>
<path fill="none" stroke="orange" stroke-dasharray="5,2" d="M187.17,-194.71C193.96,-191.38 200.51,-187.31 206,-182.37 218.7,-170.92 211.14,-159.64 224,-148.37 247.6,-127.67 280.55,-115.24 307.93,-107.94"/>
<polygon fill="orange" stroke="orange" points="185.6,-191.58 177.84,-198.79 188.41,-197.99 185.6,-191.58"/>
<text text-anchor="middle" x="248.5" y="-151.37" font-family="Helvetica,sans-Serif" font-size="10.00"> &lt; s16 &gt;</text>
</g>
<!-- Node22 -->
<g id="node22" class="node">
<title>Node22</title>
<g id="a_node22"><a xlink:href="classirr_1_1core_1_1vector3d.html" target="_top" xlink:title=" ">
<polygon fill="white" stroke="black" points="308,-192.37 308,-222.37 411,-222.37 411,-192.37 308,-192.37"/>
<text text-anchor="start" x="316" y="-210.37" font-family="Helvetica,sans-Serif" font-size="10.00">irr::core::vector3d</text>
<text text-anchor="middle" x="359.5" y="-199.37" font-family="Helvetica,sans-Serif" font-size="10.00">&lt; f32 &gt;</text>
</a>
</g>
</g>
<!-- Node6&#45;&gt;Node22 -->
<g id="edge24" class="edge">
<title>Node6&#45;&gt;Node22</title>
<path fill="none" stroke="orange" stroke-dasharray="5,2" d="M216.1,-208.02C246.3,-207.88 280.4,-207.73 307.65,-207.6"/>
<polygon fill="orange" stroke="orange" points="216,-204.52 206.02,-208.07 216.04,-211.52 216,-204.52"/>
<text text-anchor="middle" x="248.5" y="-211.37" font-family="Helvetica,sans-Serif" font-size="10.00"> &lt; f32 &gt;</text>
</g>
<!-- Node25 -->
<g id="node25" class="node">
<title>Node25</title>
<g id="a_node25"><a xlink:href="structNoiseParams.html" target="_top" xlink:title=" ">
<polygon fill="white" stroke="black" points="319.5,-616.87 319.5,-635.87 399.5,-635.87 399.5,-616.87 319.5,-616.87"/>
<text text-anchor="middle" x="359.5" y="-623.87" font-family="Helvetica,sans-Serif" font-size="10.00">NoiseParams</text>
</a>
</g>
</g>
<!-- Node6&#45;&gt;Node25 -->
<g id="edge32" class="edge">
<title>Node6&#45;&gt;Node25</title>
<path fill="none" stroke="#9a32cd" stroke-dasharray="5,2" d="M198.05,-221.07C225.38,-230.29 255.9,-245.78 273,-271.37 313.93,-332.61 246.9,-543.36 291,-602.37 297.85,-611.53 308.49,-617.21 319.32,-620.72"/>
<polygon fill="#9a32cd" stroke="#9a32cd" points="198.75,-217.62 188.16,-217.95 196.64,-224.3 198.75,-217.62"/>
<text text-anchor="middle" x="248.5" y="-274.37" font-family="Helvetica,sans-Serif" font-size="10.00"> spread</text>
</g>
<!-- Node7 -->
<g id="node7" class="node">
<title>Node7</title>
<g id="a_node7"><a xlink:title=" ">
<polygon fill="white" stroke="#bfbfbf" points="0,-198.87 0,-217.87 29,-217.87 29,-198.87 0,-198.87"/>
<text text-anchor="middle" x="14.5" y="-205.87" font-family="Helvetica,sans-Serif" font-size="10.00">T</text>
</a>
</g>
</g>
<!-- Node7&#45;&gt;Node6 -->
<g id="edge6" class="edge">
<title>Node7&#45;&gt;Node6</title>
<path fill="none" stroke="#9a32cd" stroke-dasharray="5,2" d="M39.38,-208.37C49.64,-208.37 62.18,-208.37 74.86,-208.37"/>
<polygon fill="#9a32cd" stroke="#9a32cd" points="39.24,-204.87 29.24,-208.37 39.24,-211.87 39.24,-204.87"/>
<text text-anchor="middle" x="52" y="-233.37" font-family="Helvetica,sans-Serif" font-size="10.00"> X</text>
<text text-anchor="middle" x="52" y="-222.37" font-family="Helvetica,sans-Serif" font-size="10.00">Y</text>
<text text-anchor="middle" x="52" y="-211.37" font-family="Helvetica,sans-Serif" font-size="10.00">Z</text>
</g>
<!-- Node8 -->
<g id="node8" class="node">
<title>Node8</title>
<g id="a_node8"><a xlink:href="classirr_1_1core_1_1aabbox3d.html" target="_top" xlink:title="Axis aligned bounding box in 3d dimensional space.">
<polygon fill="white" stroke="black" points="291,-153.87 291,-172.87 428,-172.87 428,-153.87 291,-153.87"/>
<text text-anchor="middle" x="359.5" y="-160.87" font-family="Helvetica,sans-Serif" font-size="10.00">irr::core::aabbox3d&lt; T &gt;</text>
</a>
</g>
</g>
<!-- Node8&#45;&gt;Node3 -->
<g id="edge7" class="edge">
<title>Node8&#45;&gt;Node3</title>
<path fill="none" stroke="orange" stroke-dasharray="5,2" d="M404.9,-151.57C418.03,-148.61 432.51,-145.85 446,-144.37 491.5,-139.37 503.54,-139.01 549,-144.37 561.72,-145.87 575.23,-148.5 587.87,-151.43"/>
<polygon fill="orange" stroke="orange" points="404.09,-148.17 395.15,-153.86 405.69,-154.98 404.09,-148.17"/>
<text text-anchor="middle" x="497.5" y="-147.37" font-family="Helvetica,sans-Serif" font-size="10.00"> &lt; s16 &gt;</text>
</g>
<!-- Node21 -->
<g id="node21" class="node">
<title>Node21</title>
<g id="a_node21"><a xlink:href="classirr_1_1core_1_1aabbox3d.html" target="_top" xlink:title=" ">
<polygon fill="white" stroke="black" points="588,-200.37 588,-230.37 696,-230.37 696,-200.37 588,-200.37"/>
<text text-anchor="start" x="596" y="-218.37" font-family="Helvetica,sans-Serif" font-size="10.00">irr::core::aabbox3d</text>
<text text-anchor="middle" x="642" y="-207.37" font-family="Helvetica,sans-Serif" font-size="10.00">&lt; f32 &gt;</text>
</a>
</g>
</g>
<!-- Node8&#45;&gt;Node21 -->
<g id="edge25" class="edge">
<title>Node8&#45;&gt;Node21</title>
<path fill="none" stroke="orange" stroke-dasharray="5,2" d="M431.15,-174.57C466.59,-180.39 510.14,-187.85 549,-195.37 561.52,-197.79 574.95,-200.59 587.57,-203.32"/>
<polygon fill="orange" stroke="orange" points="431.33,-171.06 420.9,-172.9 430.21,-177.96 431.33,-171.06"/>
<text text-anchor="middle" x="497.5" y="-198.37" font-family="Helvetica,sans-Serif" font-size="10.00"> &lt; f32 &gt;</text>
</g>
<!-- Node9 -->
<g id="node9" class="node">
<title>Node9</title>
<g id="a_node9"><a xlink:title=" ">
<polygon fill="white" stroke="#bfbfbf" points="96.5,-153.87 96.5,-172.87 184.5,-172.87 184.5,-153.87 96.5,-153.87"/>
<text text-anchor="middle" x="140.5" y="-160.87" font-family="Helvetica,sans-Serif" font-size="10.00">vector3d&lt; T &gt;</text>
</a>
</g>
</g>
<!-- Node9&#45;&gt;Node8 -->
<g id="edge8" class="edge">
<title>Node9&#45;&gt;Node8</title>
<path fill="none" stroke="#9a32cd" stroke-dasharray="5,2" d="M194.93,-163.37C223.83,-163.37 259.82,-163.37 290.67,-163.37"/>
<polygon fill="#9a32cd" stroke="#9a32cd" points="194.63,-159.87 184.63,-163.37 194.63,-166.87 194.63,-159.87"/>
<text text-anchor="middle" x="248.5" y="-177.37" font-family="Helvetica,sans-Serif" font-size="10.00"> MinEdge</text>
<text text-anchor="middle" x="248.5" y="-166.37" font-family="Helvetica,sans-Serif" font-size="10.00">MaxEdge</text>
</g>
<!-- Node10 -->
<g id="node10" class="node">
<title>Node10</title>
<g id="a_node10"><a xlink:title=" ">
<polygon fill="white" stroke="#bfbfbf" points="582.5,-2.87 582.5,-43.87 701.5,-43.87 701.5,-2.87 582.5,-2.87"/>
<text text-anchor="start" x="590.5" y="-31.87" font-family="Helvetica,sans-Serif" font-size="10.00">unordered_map&lt; std</text>
<text text-anchor="start" x="590.5" y="-20.87" font-family="Helvetica,sans-Serif" font-size="10.00">::string, std::vector</text>
<text text-anchor="middle" x="642" y="-9.87" font-family="Helvetica,sans-Serif" font-size="10.00">&lt; content_t &gt; &gt;</text>
</a>
</g>
</g>
<!-- Node10&#45;&gt;Node2 -->
<g id="edge9" class="edge">
<title>Node10&#45;&gt;Node2</title>
<path fill="none" stroke="#9a32cd" stroke-dasharray="5,2" d="M711.61,-5.88C766.16,3.52 840.46,5.5 885,-38.37 922,-74.81 871.89,-229.79 903,-271.37 905.89,-275.23 909.67,-278.31 913.86,-280.77"/>
<polygon fill="#9a32cd" stroke="#9a32cd" points="710.87,-2.46 701.67,-7.71 712.14,-9.34 710.87,-2.46"/>
<text text-anchor="middle" x="810" y="-41.37" font-family="Helvetica,sans-Serif" font-size="10.00"> m_group_to_items</text>
</g>
<!-- Node11 -->
<g id="node11" class="node">
<title>Node11</title>
<g id="a_node11"><a xlink:title=" ">
<polygon fill="white" stroke="#bfbfbf" points="567,-383.87 567,-402.87 717,-402.87 717,-383.87 567,-383.87"/>
<text text-anchor="middle" x="642" y="-390.87" font-family="Helvetica,sans-Serif" font-size="10.00">vector&lt; ContentFeatures &gt;</text>
</a>
</g>
</g>
<!-- Node11&#45;&gt;Node2 -->
<g id="edge10" class="edge">
<title>Node11&#45;&gt;Node2</title>
<path fill="none" stroke="#9a32cd" stroke-dasharray="5,2" d="M727.42,-401.11C776.07,-401.93 836.92,-396.5 885,-371.37 916.24,-355.04 938.87,-317.64 948.23,-299.96"/>
<polygon fill="#9a32cd" stroke="#9a32cd" points="727.32,-397.61 717.23,-400.85 727.14,-404.61 727.32,-397.61"/>
<text text-anchor="middle" x="810" y="-403.37" font-family="Helvetica,sans-Serif" font-size="10.00"> m_content_features</text>
</g>
<!-- Node12 -->
<g id="node12" class="node">
<title>Node12</title>
<g id="a_node12"><a xlink:title=" ">
<polygon fill="white" stroke="#bfbfbf" points="123,-728.87 123,-747.87 158,-747.87 158,-728.87 123,-728.87"/>
<text text-anchor="middle" x="140.5" y="-735.87" font-family="Helvetica,sans-Serif" font-size="10.00">u16</text>
</a>
</g>
</g>
<!-- Node12&#45;&gt;Node1 -->
<g id="edge26" class="edge">
<title>Node12&#45;&gt;Node1</title>
<path fill="none" stroke="#9a32cd" stroke-dasharray="5,2" d="M167.75,-747.64C208.17,-761.08 288.35,-784.37 358.5,-784.37 358.5,-784.37 358.5,-784.37 955,-784.37 1108.91,-784.37 1123.48,-504.68 1124.86,-448.96"/>
<polygon fill="#9a32cd" stroke="#9a32cd" points="168.72,-744.28 158.13,-744.38 166.47,-750.91 168.72,-744.28"/>
<text text-anchor="middle" x="642" y="-820.37" font-family="Helvetica,sans-Serif" font-size="10.00"> c_water_source</text>
<text text-anchor="middle" x="642" y="-809.37" font-family="Helvetica,sans-Serif" font-size="10.00">m_zstride_1d</text>
<text text-anchor="middle" x="642" y="-798.37" font-family="Helvetica,sans-Serif" font-size="10.00">m_ystride</text>
<text text-anchor="middle" x="642" y="-787.37" font-family="Helvetica,sans-Serif" font-size="10.00">c_lava_source</text>
</g>
<!-- Node12&#45;&gt;Node2 -->
<g id="edge11" class="edge">
<title>Node12&#45;&gt;Node2</title>
<path fill="none" stroke="#9a32cd" stroke-dasharray="5,2" d="M168.1,-737.06C254.43,-731.67 531.84,-705.35 717,-584.37 805.66,-526.44 821.72,-500.3 885,-415.37 914.52,-375.75 939.42,-321.74 948.9,-300.01"/>
<polygon fill="#9a32cd" stroke="#9a32cd" points="167.88,-733.56 158.1,-737.64 168.28,-740.55 167.88,-733.56"/>
<text text-anchor="middle" x="497.5" y="-696.37" font-family="Helvetica,sans-Serif" font-size="10.00"> m_next_id</text>
</g>
<!-- Node12&#45;&gt;Node25 -->
<g id="edge30" class="edge">
<title>Node12&#45;&gt;Node25</title>
<path fill="none" stroke="#9a32cd" stroke-dasharray="5,2" d="M167.19,-723.78C196.76,-707.14 246.92,-679.4 291,-657.37 306.11,-649.81 323.43,-641.87 336.74,-635.92"/>
<polygon fill="#9a32cd" stroke="#9a32cd" points="165.34,-720.8 158.35,-728.77 168.78,-726.9 165.34,-720.8"/>
<text text-anchor="middle" x="248.5" y="-694.37" font-family="Helvetica,sans-Serif" font-size="10.00"> octaves</text>
</g>
<!-- Node13 -->
<g id="node13" class="node">
<title>Node13</title>
<g id="a_node13"><a xlink:href="structContentLightingFlags.html" target="_top" xlink:title=" ">
<polygon fill="white" stroke="black" points="582,-345.87 582,-364.87 702,-364.87 702,-345.87 582,-345.87"/>
<text text-anchor="middle" x="642" y="-352.87" font-family="Helvetica,sans-Serif" font-size="10.00">ContentLightingFlags</text>
</a>
</g>
</g>
<!-- Node13&#45;&gt;Node2 -->
<g id="edge12" class="edge">
<title>Node13&#45;&gt;Node2</title>
<path fill="none" stroke="#9a32cd" stroke-dasharray="5,2" d="M712.23,-349.81C761.17,-344.73 827.95,-335.49 885,-319.37 902.17,-314.52 920.74,-306.38 934.13,-299.96"/>
<polygon fill="#9a32cd" stroke="#9a32cd" points="711.67,-346.34 702.07,-350.83 712.37,-353.31 711.67,-346.34"/>
<text text-anchor="start" x="761.5" y="-360.37" font-family="Helvetica,sans-Serif" font-size="10.00"> m_content_lighting</text>
<text text-anchor="middle" x="810" y="-349.37" font-family="Helvetica,sans-Serif" font-size="10.00">_flag_cache</text>
</g>
<!-- Node14 -->
<g id="node14" class="node">
<title>Node14</title>
<g id="a_node14"><a xlink:title=" ">
<polygon fill="white" stroke="#bfbfbf" points="345,-391.87 345,-410.87 374,-410.87 374,-391.87 345,-391.87"/>
<text text-anchor="middle" x="359.5" y="-398.87" font-family="Helvetica,sans-Serif" font-size="10.00">u8</text>
</a>
</g>
</g>
<!-- Node14&#45;&gt;Node13 -->
<g id="edge13" class="edge">
<title>Node14&#45;&gt;Node13</title>
<path fill="none" stroke="#9a32cd" stroke-dasharray="5,2" d="M384.14,-401.86C420.36,-402.01 491.44,-399.88 549,-383.37 557.6,-380.9 558.62,-377.5 567,-374.37 576.69,-370.75 587.35,-367.57 597.48,-364.9"/>
<polygon fill="#9a32cd" stroke="#9a32cd" points="384.1,-398.36 374.07,-401.76 384.03,-405.36 384.1,-398.36"/>
<text text-anchor="middle" x="497.5" y="-402.37" font-family="Helvetica,sans-Serif" font-size="10.00"> light_source</text>
</g>
<!-- Node15 -->
<g id="node15" class="node">
<title>Node15</title>
<g id="a_node15"><a xlink:href="classbool.html" target="_top" xlink:title=" ">
<polygon fill="white" stroke="black" points="340.5,-339.87 340.5,-358.87 378.5,-358.87 378.5,-339.87 340.5,-339.87"/>
<text text-anchor="middle" x="359.5" y="-346.87" font-family="Helvetica,sans-Serif" font-size="10.00">bool</text>
</a>
</g>
</g>
<!-- Node15&#45;&gt;Node2 -->
<g id="edge15" class="edge">
<title>Node15&#45;&gt;Node2</title>
<path fill="none" stroke="#9a32cd" stroke-dasharray="5,2" d="M388.62,-343.63C428.23,-335.77 502.81,-321.78 567,-314.37 687.06,-300.5 829.12,-294.27 902.88,-291.79"/>
<polygon fill="#9a32cd" stroke="#9a32cd" points="387.76,-340.23 378.64,-345.63 389.13,-347.1 387.76,-340.23"/>
<text text-anchor="start" x="590" y="-328.37" font-family="Helvetica,sans-Serif" font-size="10.00"> m_node_registration</text>
<text text-anchor="middle" x="642" y="-317.37" font-family="Helvetica,sans-Serif" font-size="10.00">_complete</text>
</g>
<!-- Node15&#45;&gt;Node13 -->
<g id="edge14" class="edge">
<title>Node15&#45;&gt;Node13</title>
<path fill="none" stroke="#9a32cd" stroke-dasharray="5,2" d="M388.71,-349.09C425.58,-348.82 492.13,-348.67 549,-350.37 559.55,-350.68 570.78,-351.17 581.63,-351.71"/>
<polygon fill="#9a32cd" stroke="#9a32cd" points="388.67,-345.59 378.7,-349.17 388.73,-352.59 388.67,-345.59"/>
<text text-anchor="middle" x="497.5" y="-375.37" font-family="Helvetica,sans-Serif" font-size="10.00"> sunlight_propagates</text>
<text text-anchor="middle" x="497.5" y="-364.37" font-family="Helvetica,sans-Serif" font-size="10.00">light_propagates</text>
<text text-anchor="middle" x="497.5" y="-353.37" font-family="Helvetica,sans-Serif" font-size="10.00">has_light</text>
</g>
<!-- Node16 -->
<g id="node16" class="node">
<title>Node16</title>
<g id="a_node16"><a xlink:href="classNameIdMapping.html" target="_top" xlink:title=" ">
<polygon fill="white" stroke="black" points="593.5,-249.87 593.5,-268.87 690.5,-268.87 690.5,-249.87 593.5,-249.87"/>
<text text-anchor="middle" x="642" y="-256.87" font-family="Helvetica,sans-Serif" font-size="10.00">NameIdMapping</text>
</a>
</g>
</g>
<!-- Node16&#45;&gt;Node2 -->
<g id="edge16" class="edge">
<title>Node16&#45;&gt;Node2</title>
<path fill="none" stroke="#9a32cd" stroke-dasharray="5,2" d="M700.95,-263.42C750.04,-267.09 822.24,-273.04 885,-280.37 890.81,-281.05 896.88,-281.83 902.91,-282.66"/>
<polygon fill="#9a32cd" stroke="#9a32cd" points="701.07,-259.92 690.84,-262.68 700.55,-266.9 701.07,-259.92"/>
<text text-anchor="middle" x="810" y="-283.37" font-family="Helvetica,sans-Serif" font-size="10.00"> m_name_id_mapping</text>
</g>
<!-- Node17 -->
<g id="node17" class="node">
<title>Node17</title>
<g id="a_node17"><a xlink:title=" ">
<polygon fill="white" stroke="#bfbfbf" points="300,-241.37 300,-271.37 419,-271.37 419,-241.37 300,-241.37"/>
<text text-anchor="start" x="308" y="-259.37" font-family="Helvetica,sans-Serif" font-size="10.00">unordered_map&lt; std</text>
<text text-anchor="middle" x="359.5" y="-248.37" font-family="Helvetica,sans-Serif" font-size="10.00">::string, u16 &gt;</text>
</a>
</g>
</g>
<!-- Node17&#45;&gt;Node16 -->
<g id="edge17" class="edge">
<title>Node17&#45;&gt;Node16</title>
<path fill="none" stroke="#9a32cd" stroke-dasharray="5,2" d="M429.4,-256.46C465.09,-256.58 509.39,-256.83 549,-257.37 563.38,-257.56 579.02,-257.87 593.25,-258.18"/>
<polygon fill="#9a32cd" stroke="#9a32cd" points="429.1,-252.96 419.09,-256.43 429.08,-259.96 429.1,-252.96"/>
<text text-anchor="middle" x="497.5" y="-260.37" font-family="Helvetica,sans-Serif" font-size="10.00"> m_name_to_id</text>
</g>
<!-- Node18 -->
<g id="node18" class="node">
<title>Node18</title>
<g id="a_node18"><a xlink:title=" ">
<polygon fill="white" stroke="#bfbfbf" points="297,-290.37 297,-320.37 422,-320.37 422,-290.37 297,-290.37"/>
<text text-anchor="start" x="305" y="-308.37" font-family="Helvetica,sans-Serif" font-size="10.00">unordered_map&lt; u16,</text>
<text text-anchor="middle" x="359.5" y="-297.37" font-family="Helvetica,sans-Serif" font-size="10.00"> std::string &gt;</text>
</a>
</g>
</g>
<!-- Node18&#45;&gt;Node16 -->
<g id="edge18" class="edge">
<title>Node18&#45;&gt;Node16</title>
<path fill="none" stroke="#9a32cd" stroke-dasharray="5,2" d="M431.97,-293.65C482.64,-285.34 549.24,-274.42 593.5,-267.16"/>
<polygon fill="#9a32cd" stroke="#9a32cd" points="431.36,-290.2 422.06,-295.27 432.49,-297.11 431.36,-290.2"/>
<text text-anchor="middle" x="497.5" y="-294.37" font-family="Helvetica,sans-Serif" font-size="10.00"> m_id_to_name</text>
</g>
<!-- Node19 -->
<g id="node19" class="node">
<title>Node19</title>
<g id="a_node19"><a xlink:title=" ">
<polygon fill="white" stroke="#bfbfbf" points="569,-112.87 569,-131.87 715,-131.87 715,-112.87 569,-112.87"/>
<text text-anchor="middle" x="642" y="-119.87" font-family="Helvetica,sans-Serif" font-size="10.00">vector&lt; NodeResolver * &gt;</text>
</a>
</g>
</g>
<!-- Node19&#45;&gt;Node2 -->
<g id="edge19" class="edge">
<title>Node19&#45;&gt;Node2</title>
<path fill="none" stroke="#9a32cd" stroke-dasharray="5,2" d="M725.13,-116C786.05,-113.2 862.32,-114.39 885,-135.37 929.76,-176.77 865.16,-223.56 903,-271.37 906,-275.15 909.84,-278.19 914.06,-280.61"/>
<polygon fill="#9a32cd" stroke="#9a32cd" points="724.92,-112.51 715.1,-116.5 725.27,-119.5 724.92,-112.51"/>
<text text-anchor="middle" x="810" y="-138.37" font-family="Helvetica,sans-Serif" font-size="10.00"> m_pending_resolve_callbacks</text>
</g>
<!-- Node20 -->
<g id="node20" class="node">
<title>Node20</title>
<g id="a_node20"><a xlink:title=" ">
<polygon fill="white" stroke="#bfbfbf" points="582.5,-63.37 582.5,-93.37 701.5,-93.37 701.5,-63.37 582.5,-63.37"/>
<text text-anchor="start" x="590.5" y="-81.37" font-family="Helvetica,sans-Serif" font-size="10.00">unordered_map&lt; std</text>
<text text-anchor="middle" x="642" y="-70.37" font-family="Helvetica,sans-Serif" font-size="10.00">::string, content_t &gt;</text>
</a>
</g>
</g>
<!-- Node20&#45;&gt;Node2 -->
<g id="edge20" class="edge">
<title>Node20&#45;&gt;Node2</title>
<path fill="none" stroke="#9a32cd" stroke-dasharray="5,2" d="M704.34,-61.18C759.1,-49.93 837.74,-44.55 885,-89.37 914.49,-117.33 878.3,-239.09 903,-271.37 905.93,-275.2 909.74,-278.26 913.94,-280.71"/>
<polygon fill="#9a32cd" stroke="#9a32cd" points="703.44,-57.79 694.41,-63.33 704.92,-64.63 703.44,-57.79"/>
<text text-anchor="start" x="742.5" y="-103.37" font-family="Helvetica,sans-Serif" font-size="10.00"> m_name_id_mapping_with</text>
<text text-anchor="middle" x="810" y="-92.37" font-family="Helvetica,sans-Serif" font-size="10.00">_aliases</text>
</g>
<!-- Node21&#45;&gt;Node2 -->
<g id="edge21" class="edge">
<title>Node21&#45;&gt;Node2</title>
<path fill="none" stroke="#9a32cd" stroke-dasharray="5,2" d="M706.49,-213.31C757.57,-214.26 829.68,-221.66 885,-251.37 895.54,-257.03 893.13,-264.61 903,-271.37 908.44,-275.09 914.71,-278.21 920.93,-280.78"/>
<polygon fill="#9a32cd" stroke="#9a32cd" points="706.28,-209.8 696.25,-213.2 706.21,-216.8 706.28,-209.8"/>
<text text-anchor="middle" x="810" y="-254.37" font-family="Helvetica,sans-Serif" font-size="10.00"> m_selection_box_union</text>
</g>
<!-- Node22&#45;&gt;Node21 -->
<g id="edge22" class="edge">
<title>Node22&#45;&gt;Node21</title>
<path fill="none" stroke="#9a32cd" stroke-dasharray="5,2" d="M421.56,-209.11C471.14,-210.52 540.36,-212.5 587.72,-213.85"/>
<polygon fill="#9a32cd" stroke="#9a32cd" points="421.39,-205.6 411.3,-208.82 421.19,-212.6 421.39,-205.6"/>
<text text-anchor="middle" x="497.5" y="-227.37" font-family="Helvetica,sans-Serif" font-size="10.00"> MinEdge</text>
<text text-anchor="middle" x="497.5" y="-216.37" font-family="Helvetica,sans-Serif" font-size="10.00">MaxEdge</text>
</g>
<!-- Node23 -->
<g id="node23" class="node">
<title>Node23</title>
<g id="a_node23"><a xlink:title=" ">
<polygon fill="white" stroke="#bfbfbf" points="121.5,-452.87 121.5,-471.87 159.5,-471.87 159.5,-452.87 121.5,-452.87"/>
<text text-anchor="middle" x="140.5" y="-459.87" font-family="Helvetica,sans-Serif" font-size="10.00">float</text>
</a>
</g>
</g>
<!-- Node23&#45;&gt;Node1 -->
<g id="edge27" class="edge">
<title>Node23&#45;&gt;Node1</title>
<path fill="none" stroke="#9a32cd" stroke-dasharray="5,2" d="M169.6,-457.47C210.87,-450.72 290.37,-439.37 358.5,-439.37 358.5,-439.37 358.5,-439.37 955,-439.37 998.98,-439.37 1049.35,-439.37 1083.78,-439.37"/>
<polygon fill="#9a32cd" stroke="#9a32cd" points="169.01,-454.02 159.72,-459.12 170.16,-460.93 169.01,-454.02"/>
<text text-anchor="middle" x="642" y="-464.37" font-family="Helvetica,sans-Serif" font-size="10.00"> m_cavern_limit</text>
<text text-anchor="middle" x="642" y="-453.37" font-family="Helvetica,sans-Serif" font-size="10.00">m_cavern_taper</text>
<text text-anchor="middle" x="642" y="-442.37" font-family="Helvetica,sans-Serif" font-size="10.00">m_cavern_threshold</text>
</g>
<!-- Node23&#45;&gt;Node22 -->
<g id="edge23" class="edge">
<title>Node23&#45;&gt;Node22</title>
<path fill="none" stroke="#9a32cd" stroke-dasharray="5,2" d="M157.28,-445.32C184.35,-415.3 239.9,-350.11 273,-286.37 284.85,-263.54 273.04,-249.78 291,-231.37 295.78,-226.47 301.61,-222.57 307.84,-219.46"/>
<polygon fill="#9a32cd" stroke="#9a32cd" points="154.59,-443.08 150.45,-452.83 159.77,-447.79 154.59,-443.08"/>
<text text-anchor="middle" x="248.5" y="-387.37" font-family="Helvetica,sans-Serif" font-size="10.00"> X</text>
<text text-anchor="middle" x="248.5" y="-376.37" font-family="Helvetica,sans-Serif" font-size="10.00">Y</text>
<text text-anchor="middle" x="248.5" y="-365.37" font-family="Helvetica,sans-Serif" font-size="10.00">Z</text>
</g>
<!-- Node24 -->
<g id="node24" class="node">
<title>Node24</title>
<g id="a_node24"><a xlink:href="classNoise.html" target="_top" xlink:title=" ">
<polygon fill="white" stroke="black" points="620,-555.87 620,-574.87 664,-574.87 664,-555.87 620,-555.87"/>
<text text-anchor="middle" x="642" y="-562.87" font-family="Helvetica,sans-Serif" font-size="10.00">Noise</text>
</a>
</g>
</g>
<!-- Node23&#45;&gt;Node24 -->
<g id="edge35" class="edge">
<title>Node23&#45;&gt;Node24</title>
<path fill="none" stroke="#9a32cd" stroke-dasharray="5,2" d="M169.6,-462.21C221.36,-462.48 334.99,-465.63 428,-486.37 501.53,-502.76 583.91,-538.67 621,-555.85"/>
<polygon fill="#9a32cd" stroke="#9a32cd" points="169.53,-458.71 159.52,-462.19 169.52,-465.71 169.53,-458.71"/>
<text text-anchor="middle" x="359.5" y="-522.37" font-family="Helvetica,sans-Serif" font-size="10.00"> noise_buf</text>
<text text-anchor="middle" x="359.5" y="-511.37" font-family="Helvetica,sans-Serif" font-size="10.00">gradient_buf</text>
<text text-anchor="middle" x="359.5" y="-500.37" font-family="Helvetica,sans-Serif" font-size="10.00">result</text>
<text text-anchor="middle" x="359.5" y="-489.37" font-family="Helvetica,sans-Serif" font-size="10.00">persist_buf</text>
</g>
<!-- Node23&#45;&gt;Node25 -->
<g id="edge31" class="edge">
<title>Node23&#45;&gt;Node25</title>
<path fill="none" stroke="#9a32cd" stroke-dasharray="5,2" d="M168.91,-473.89C198.59,-487.7 245.37,-513.53 273,-549.37 288.19,-569.07 273.53,-584.65 291,-602.37 298.68,-610.16 309.06,-615.43 319.37,-619"/>
<polygon fill="#9a32cd" stroke="#9a32cd" points="170.11,-470.6 159.56,-469.68 167.23,-476.98 170.11,-470.6"/>
<text text-anchor="middle" x="248.5" y="-585.37" font-family="Helvetica,sans-Serif" font-size="10.00"> persist</text>
<text text-anchor="middle" x="248.5" y="-574.37" font-family="Helvetica,sans-Serif" font-size="10.00">offset</text>
<text text-anchor="middle" x="248.5" y="-563.37" font-family="Helvetica,sans-Serif" font-size="10.00">scale</text>
<text text-anchor="middle" x="248.5" y="-552.37" font-family="Helvetica,sans-Serif" font-size="10.00">lacunarity</text>
</g>
<!-- Node24&#45;&gt;Node1 -->
<g id="edge28" class="edge">
<title>Node24&#45;&gt;Node1</title>
<path fill="none" stroke="#9a32cd" stroke-dasharray="5,2" d="M673.85,-557.3C758.94,-535.06 996.73,-472.9 1088.35,-448.95"/>
<polygon fill="#9a32cd" stroke="#9a32cd" points="672.81,-553.96 664.02,-559.87 674.58,-560.73 672.81,-553.96"/>
<text text-anchor="middle" x="954" y="-498.37" font-family="Helvetica,sans-Serif" font-size="10.00"> noise_cavern</text>
</g>
<!-- Node25&#45;&gt;Node24 -->
<g id="edge29" class="edge">
<title>Node25&#45;&gt;Node24</title>
<path fill="none" stroke="#9a32cd" stroke-dasharray="5,2" d="M409.43,-615.73C471.31,-602.27 575.16,-579.69 619.68,-570"/>
<polygon fill="#9a32cd" stroke="#9a32cd" points="408.53,-612.34 399.5,-617.89 410.02,-619.18 408.53,-612.34"/>
<text text-anchor="middle" x="497.5" y="-609.37" font-family="Helvetica,sans-Serif" font-size="10.00"> np</text>
</g>
<!-- Node26 -->
<g id="node26" class="node">
<title>Node26</title>
<g id="a_node26"><a xlink:title=" ">
<polygon fill="white" stroke="#bfbfbf" points="123.5,-658.87 123.5,-677.87 157.5,-677.87 157.5,-658.87 123.5,-658.87"/>
<text text-anchor="middle" x="140.5" y="-665.87" font-family="Helvetica,sans-Serif" font-size="10.00">s32</text>
</a>
</g>
</g>
<!-- Node26&#45;&gt;Node24 -->
<g id="edge36" class="edge">
<title>Node26&#45;&gt;Node24</title>
<path fill="none" stroke="#9a32cd" stroke-dasharray="5,2" d="M167.76,-669.84C234.17,-672.62 413.22,-674.24 549,-621.37 579.49,-609.5 611.29,-587.69 628.36,-575.07"/>
<polygon fill="#9a32cd" stroke="#9a32cd" points="167.89,-666.34 157.74,-669.37 167.56,-673.33 167.89,-666.34"/>
<text text-anchor="middle" x="359.5" y="-671.37" font-family="Helvetica,sans-Serif" font-size="10.00"> seed</text>
</g>
<!-- Node26&#45;&gt;Node25 -->
<g id="edge33" class="edge">
<title>Node26&#45;&gt;Node25</title>
<path fill="none" stroke="#9a32cd" stroke-dasharray="5,2" d="M168.02,-663.24C205.81,-655.92 275.44,-642.44 319.23,-633.97"/>
<polygon fill="#9a32cd" stroke="#9a32cd" points="166.96,-659.87 157.81,-665.21 168.29,-666.75 166.96,-659.87"/>
<text text-anchor="middle" x="248.5" y="-654.37" font-family="Helvetica,sans-Serif" font-size="10.00"> seed</text>
</g>
<!-- Node27 -->
<g id="node27" class="node">
<title>Node27</title>
<g id="a_node27"><a xlink:title=" ">
<polygon fill="white" stroke="#bfbfbf" points="123,-559.87 123,-578.87 158,-578.87 158,-559.87 123,-559.87"/>
<text text-anchor="middle" x="140.5" y="-566.87" font-family="Helvetica,sans-Serif" font-size="10.00">u32</text>
</a>
</g>
</g>
<!-- Node27&#45;&gt;Node24 -->
<g id="edge37" class="edge">
<title>Node27&#45;&gt;Node24</title>
<path fill="none" stroke="#9a32cd" stroke-dasharray="5,2" d="M167.02,-554.96C182.88,-546.86 203.98,-537.54 224,-533.37 245.32,-528.92 251.24,-532.42 273,-533.37 405.3,-539.11 563.61,-556.41 619.88,-562.89"/>
<polygon fill="#9a32cd" stroke="#9a32cd" points="165.09,-552.03 157.89,-559.8 168.36,-558.21 165.09,-552.03"/>
<text text-anchor="middle" x="359.5" y="-568.37" font-family="Helvetica,sans-Serif" font-size="10.00"> sx</text>
<text text-anchor="middle" x="359.5" y="-557.37" font-family="Helvetica,sans-Serif" font-size="10.00">sy</text>
<text text-anchor="middle" x="359.5" y="-546.37" font-family="Helvetica,sans-Serif" font-size="10.00">sz</text>
</g>
<!-- Node27&#45;&gt;Node25 -->
<g id="edge34" class="edge">
<title>Node27&#45;&gt;Node25</title>
<path fill="none" stroke="#9a32cd" stroke-dasharray="5,2" d="M167.85,-579.17C183.93,-584.94 204.99,-592.11 224,-597.37 255.77,-606.15 292.37,-613.89 319.37,-619.16"/>
<polygon fill="#9a32cd" stroke="#9a32cd" points="168.67,-575.75 158.07,-575.62 166.28,-582.33 168.67,-575.75"/>
<text text-anchor="middle" x="248.5" y="-611.37" font-family="Helvetica,sans-Serif" font-size="10.00"> flags</text>
</g>
<!-- Node28 -->
<g id="node28" class="node">
<title>Node28</title>
<g id="a_node28"><a xlink:title=" ">
<polygon fill="white" stroke="#bfbfbf" points="904.5,-242.87 904.5,-261.87 1003.5,-261.87 1003.5,-242.87 904.5,-242.87"/>
<text text-anchor="middle" x="954" y="-249.87" font-family="Helvetica,sans-Serif" font-size="10.00">vector3d&lt; s16 &gt;</text>
</a>
</g>
</g>
<!-- Node28&#45;&gt;Node1 -->
<g id="edge38" class="edge">
<title>Node28&#45;&gt;Node1</title>
<path fill="none" stroke="#9a32cd" stroke-dasharray="5,2" d="M995.87,-266.08C999.05,-267.69 1002.14,-269.45 1005,-271.37 1067.84,-313.45 1108.61,-400.29 1121,-429.52"/>
<polygon fill="#9a32cd" stroke="#9a32cd" points="997.3,-262.88 986.75,-261.94 994.41,-269.26 997.3,-262.88"/>
<text text-anchor="middle" x="1044.5" y="-332.37" font-family="Helvetica,sans-Serif" font-size="10.00"> m_csize</text>
</g>
</g>
</svg>
