<?xml version="1.0" encoding="UTF-8" standalone="no"?>
<!DOCTYPE svg PUBLIC "-//W3C//DTD SVG 1.1//EN"
 "http://www.w3.org/Graphics/SVG/1.1/DTD/svg11.dtd">
<!-- Generated by graphviz version 2.43.0 (0)
 -->
<!-- Title: EventManager Pages: 1 -->
<svg width="256pt" height="106pt"
 viewBox="0.00 0.00 256.00 106.00" xmlns="http://www.w3.org/2000/svg" xmlns:xlink="http://www.w3.org/1999/xlink">
<g id="graph0" class="graph" transform="scale(1 1) rotate(0) translate(4 102)">
<title>EventManager</title>
<polygon fill="white" stroke="transparent" points="-4,4 -4,-102 252,-102 252,4 -4,4"/>
<!-- Node1 -->
<g id="node1" class="node">
<title>Node1</title>
<g id="a_node1"><a xlink:title=" ">
<polygon fill="#bfbfbf" stroke="black" points="72.5,-0.5 72.5,-19.5 159.5,-19.5 159.5,-0.5 72.5,-0.5"/>
<text text-anchor="middle" x="116" y="-7.5" font-family="Helvetica,sans-Serif" font-size="10.00">EventManager</text>
</a>
</g>
</g>
<!-- Node2 -->
<g id="node2" class="node">
<title>Node2</title>
<g id="a_node2"><a xlink:href="classMtEventManager.html" target="_top" xlink:title=" ">
<polygon fill="white" stroke="black" points="0,-73 0,-92 100,-92 100,-73 0,-73"/>
<text text-anchor="middle" x="50" y="-80" font-family="Helvetica,sans-Serif" font-size="10.00">MtEventManager</text>
</a>
</g>
</g>
<!-- Node2&#45;&gt;Node1 -->
<g id="edge1" class="edge">
<title>Node2&#45;&gt;Node1</title>
<path fill="none" stroke="midnightblue" d="M65.17,-65.3C78.44,-51.12 97.22,-31.06 107.84,-19.72"/>
<polygon fill="midnightblue" stroke="midnightblue" points="62.37,-63.16 58.09,-72.86 67.48,-67.95 62.37,-63.16"/>
</g>
<!-- Node3 -->
<g id="node3" class="node">
<title>Node3</title>
<g id="a_node3"><a xlink:title=" ">
<polygon fill="white" stroke="#bfbfbf" points="118,-67.5 118,-97.5 248,-97.5 248,-67.5 118,-67.5"/>
<text text-anchor="start" x="126" y="-85.5" font-family="Helvetica,sans-Serif" font-size="10.00">map&lt; MtEvent::Type,</text>
<text text-anchor="middle" x="183" y="-74.5" font-family="Helvetica,sans-Serif" font-size="10.00"> EventManager::Dest &gt;</text>
</a>
</g>
</g>
<!-- Node3&#45;&gt;Node1 -->
<g id="edge2" class="edge">
<title>Node3&#45;&gt;Node1</title>
<path fill="none" stroke="#9a32cd" stroke-dasharray="5,2" d="M162.34,-59.76C149.59,-46.34 133.91,-29.85 124.45,-19.89"/>
<polygon fill="#9a32cd" stroke="#9a32cd" points="160.02,-62.4 169.44,-67.23 165.09,-57.57 160.02,-62.4"/>
<text text-anchor="middle" x="171" y="-41" font-family="Helvetica,sans-Serif" font-size="10.00"> m_dest</text>
</g>
</g>
</svg>
