<?xml version="1.0" encoding="UTF-8" standalone="no"?>
<!DOCTYPE svg PUBLIC "-//W3C//DTD SVG 1.1//EN"
 "http://www.w3.org/Graphics/SVG/1.1/DTD/svg11.dtd">
<!-- Generated by graphviz version 2.43.0 (0)
 -->
<!-- Title: con::ReliablePacketBuffer Pages: 1 -->
<svg width="332pt" height="95pt"
 viewBox="0.00 0.00 331.50 95.00" xmlns="http://www.w3.org/2000/svg" xmlns:xlink="http://www.w3.org/1999/xlink">
<g id="graph0" class="graph" transform="scale(1 1) rotate(0) translate(4 91)">
<title>con::ReliablePacketBuffer</title>
<polygon fill="white" stroke="transparent" points="-4,4 -4,-91 327.5,-91 327.5,4 -4,4"/>
<!-- Node1 -->
<g id="node1" class="node">
<title>Node1</title>
<g id="a_node1"><a xlink:title=" ">
<polygon fill="#bfbfbf" stroke="black" points="117.5,-0.5 117.5,-19.5 257.5,-19.5 257.5,-0.5 117.5,-0.5"/>
<text text-anchor="middle" x="187.5" y="-7.5" font-family="Helvetica,sans-Serif" font-size="10.00">con::ReliablePacketBuffer</text>
</a>
</g>
</g>
<!-- Node2 -->
<g id="node2" class="node">
<title>Node2</title>
<g id="a_node2"><a xlink:title=" ">
<polygon fill="white" stroke="#bfbfbf" points="0,-67.5 0,-86.5 35,-86.5 35,-67.5 0,-67.5"/>
<text text-anchor="middle" x="17.5" y="-74.5" font-family="Helvetica,sans-Serif" font-size="10.00">u16</text>
</a>
</g>
</g>
<!-- Node2&#45;&gt;Node1 -->
<g id="edge1" class="edge">
<title>Node2&#45;&gt;Node1</title>
<path fill="none" stroke="#9a32cd" stroke-dasharray="5,2" d="M22.74,-57.53C25.67,-50.4 30.07,-42.81 36.5,-38 49.51,-28.27 84.41,-21.68 117.39,-17.45"/>
<polygon fill="#9a32cd" stroke="#9a32cd" points="19.33,-56.69 19.43,-67.29 25.96,-58.94 19.33,-56.69"/>
<text text-anchor="middle" x="110" y="-41" font-family="Helvetica,sans-Serif" font-size="10.00"> m_oldest_non_answered_ack</text>
</g>
<!-- Node3 -->
<g id="node3" class="node">
<title>Node3</title>
<g id="a_node3"><a xlink:title=" ">
<polygon fill="white" stroke="#bfbfbf" points="117.5,-67.5 117.5,-86.5 257.5,-86.5 257.5,-67.5 117.5,-67.5"/>
<text text-anchor="middle" x="187.5" y="-74.5" font-family="Helvetica,sans-Serif" font-size="10.00">list&lt; BufferedPacketPtr &gt;</text>
</a>
</g>
</g>
<!-- Node3&#45;&gt;Node1 -->
<g id="edge2" class="edge">
<title>Node3&#45;&gt;Node1</title>
<path fill="none" stroke="#9a32cd" stroke-dasharray="5,2" d="M187.5,-57.04C187.5,-44.67 187.5,-29.12 187.5,-19.63"/>
<polygon fill="#9a32cd" stroke="#9a32cd" points="184,-57.23 187.5,-67.23 191,-57.23 184,-57.23"/>
<text text-anchor="middle" x="204.5" y="-41" font-family="Helvetica,sans-Serif" font-size="10.00"> m_list</text>
</g>
<!-- Node4 -->
<g id="node4" class="node">
<title>Node4</title>
<g id="a_node4"><a xlink:title=" ">
<polygon fill="white" stroke="#bfbfbf" points="275.5,-67.5 275.5,-86.5 323.5,-86.5 323.5,-67.5 275.5,-67.5"/>
<text text-anchor="middle" x="299.5" y="-74.5" font-family="Helvetica,sans-Serif" font-size="10.00">mutex</text>
</a>
</g>
</g>
<!-- Node4&#45;&gt;Node1 -->
<g id="edge3" class="edge">
<title>Node4&#45;&gt;Node1</title>
<path fill="none" stroke="#9a32cd" stroke-dasharray="5,2" d="M275.58,-62.12C253.39,-49.24 221.06,-30.48 202.37,-19.63"/>
<polygon fill="#9a32cd" stroke="#9a32cd" points="273.99,-65.24 284.4,-67.23 277.5,-59.19 273.99,-65.24"/>
<text text-anchor="middle" x="284.5" y="-41" font-family="Helvetica,sans-Serif" font-size="10.00"> m_list_mutex</text>
</g>
</g>
</svg>
