<?xml version="1.0" encoding="UTF-8" standalone="no"?>
<!DOCTYPE svg PUBLIC "-//W3C//DTD SVG 1.1//EN"
 "http://www.w3.org/Graphics/SVG/1.1/DTD/svg11.dtd">
<!-- Generated by graphviz version 2.43.0 (0)
 -->
<!-- Title: TestModStorageDatabase Pages: 1 -->
<svg width="272pt" height="184pt"
 viewBox="0.00 0.00 272.00 184.00" xmlns="http://www.w3.org/2000/svg" xmlns:xlink="http://www.w3.org/1999/xlink">
<g id="graph0" class="graph" transform="scale(1 1) rotate(0) translate(4 180)">
<title>TestModStorageDatabase</title>
<polygon fill="white" stroke="transparent" points="-4,4 -4,-180 268,-180 268,4 -4,4"/>
<!-- Node1 -->
<g id="node1" class="node">
<title>Node1</title>
<g id="a_node1"><a xlink:title=" ">
<polygon fill="#bfbfbf" stroke="black" points="49.5,-0.5 49.5,-19.5 190.5,-19.5 190.5,-0.5 49.5,-0.5"/>
<text text-anchor="middle" x="120" y="-7.5" font-family="Helvetica,sans-Serif" font-size="10.00">TestModStorageDatabase</text>
</a>
</g>
</g>
<!-- Node2 -->
<g id="node2" class="node">
<title>Node2</title>
<g id="a_node2"><a xlink:href="classTestBase.html" target="_top" xlink:title=" ">
<polygon fill="white" stroke="black" points="31,-73 31,-92 91,-92 91,-73 31,-73"/>
<text text-anchor="middle" x="61" y="-80" font-family="Helvetica,sans-Serif" font-size="10.00">TestBase</text>
</a>
</g>
</g>
<!-- Node2&#45;&gt;Node1 -->
<g id="edge1" class="edge">
<title>Node2&#45;&gt;Node1</title>
<path fill="none" stroke="midnightblue" d="M74.89,-64.9C86.74,-50.74 103.3,-30.96 112.71,-19.72"/>
<polygon fill="midnightblue" stroke="midnightblue" points="71.97,-62.94 68.23,-72.86 77.34,-67.43 71.97,-62.94"/>
</g>
<!-- Node3 -->
<g id="node3" class="node">
<title>Node3</title>
<g id="a_node3"><a xlink:title=" ">
<polygon fill="white" stroke="#bfbfbf" points="0,-156.5 0,-175.5 44,-175.5 44,-156.5 0,-156.5"/>
<text text-anchor="middle" x="22" y="-163.5" font-family="Helvetica,sans-Serif" font-size="10.00">string</text>
</a>
</g>
</g>
<!-- Node3&#45;&gt;Node2 -->
<g id="edge2" class="edge">
<title>Node3&#45;&gt;Node2</title>
<path fill="none" stroke="#9a32cd" stroke-dasharray="5,2" d="M18.86,-146.2C18.14,-136.72 18.61,-125.29 23,-116 27.75,-105.96 37.25,-97.83 45.56,-92.22"/>
<polygon fill="#9a32cd" stroke="#9a32cd" points="15.4,-146.7 20.11,-156.19 22.35,-145.84 15.4,-146.7"/>
<text text-anchor="middle" x="50.5" y="-124.5" font-family="Helvetica,sans-Serif" font-size="10.00"> m_test_dir</text>
</g>
<!-- Node4 -->
<g id="node4" class="node">
<title>Node4</title>
<g id="a_node4"><a xlink:title=" ">
<polygon fill="white" stroke="#bfbfbf" points="82.5,-156.5 82.5,-175.5 117.5,-175.5 117.5,-156.5 82.5,-156.5"/>
<text text-anchor="middle" x="100" y="-163.5" font-family="Helvetica,sans-Serif" font-size="10.00">u32</text>
</a>
</g>
</g>
<!-- Node4&#45;&gt;Node2 -->
<g id="edge3" class="edge">
<title>Node4&#45;&gt;Node2</title>
<path fill="none" stroke="#9a32cd" stroke-dasharray="5,2" d="M92.17,-146.87C88.08,-137.58 82.91,-126.12 78,-116 74.05,-107.87 69.25,-98.76 65.76,-92.26"/>
<polygon fill="#9a32cd" stroke="#9a32cd" points="89.06,-148.49 96.26,-156.25 95.47,-145.69 89.06,-148.49"/>
<text text-anchor="middle" x="130.5" y="-130" font-family="Helvetica,sans-Serif" font-size="10.00"> num_tests_run</text>
<text text-anchor="middle" x="130.5" y="-119" font-family="Helvetica,sans-Serif" font-size="10.00">num_tests_failed</text>
</g>
<!-- Node5 -->
<g id="node5" class="node">
<title>Node5</title>
<g id="a_node5"><a xlink:title=" ">
<polygon fill="white" stroke="#bfbfbf" points="109,-67.5 109,-97.5 249,-97.5 249,-67.5 109,-67.5"/>
<text text-anchor="start" x="117" y="-85.5" font-family="Helvetica,sans-Serif" font-size="10.00">anonymous:mod_storage</text>
<text text-anchor="middle" x="179" y="-74.5" font-family="Helvetica,sans-Serif" font-size="10.00">_provider</text>
</a>
</g>
</g>
<!-- Node5&#45;&gt;Node1 -->
<g id="edge4" class="edge">
<title>Node5&#45;&gt;Node1</title>
<path fill="none" stroke="#9a32cd" stroke-dasharray="5,2" d="M160.49,-59.38C149.32,-46.04 135.7,-29.76 127.44,-19.89"/>
<polygon fill="#9a32cd" stroke="#9a32cd" points="157.96,-61.81 167.06,-67.23 163.33,-57.32 157.96,-61.81"/>
<text text-anchor="middle" x="207.5" y="-41" font-family="Helvetica,sans-Serif" font-size="10.00"> mod_storage_provider</text>
</g>
</g>
</svg>
