<?xml version="1.0" encoding="UTF-8" standalone="no"?>
<!DOCTYPE svg PUBLIC "-//W3C//DTD SVG 1.1//EN"
 "http://www.w3.org/Graphics/SVG/1.1/DTD/svg11.dtd">
<!-- Generated by graphviz version 2.43.0 (0)
 -->
<!-- Title: RenderTarget Pages: 1 -->
<svg width="188pt" height="95pt"
 viewBox="0.00 0.00 188.00 95.00" xmlns="http://www.w3.org/2000/svg" xmlns:xlink="http://www.w3.org/1999/xlink">
<g id="graph0" class="graph" transform="scale(1 1) rotate(0) translate(4 91)">
<title>RenderTarget</title>
<polygon fill="white" stroke="transparent" points="-4,4 -4,-91 184,-91 184,4 -4,4"/>
<!-- Node1 -->
<g id="node1" class="node">
<title>Node1</title>
<g id="a_node1"><a xlink:title=" ">
<polygon fill="#bfbfbf" stroke="black" points="69.5,-0.5 69.5,-19.5 150.5,-19.5 150.5,-0.5 69.5,-0.5"/>
<text text-anchor="middle" x="110" y="-7.5" font-family="Helvetica,sans-Serif" font-size="10.00">RenderTarget</text>
</a>
</g>
</g>
<!-- Node2 -->
<g id="node2" class="node">
<title>Node2</title>
<g id="a_node2"><a xlink:href="classRenderPipelineObject.html" target="_top" xlink:title=" ">
<polygon fill="white" stroke="black" points="0,-67.5 0,-86.5 122,-86.5 122,-67.5 0,-67.5"/>
<text text-anchor="middle" x="61" y="-74.5" font-family="Helvetica,sans-Serif" font-size="10.00">RenderPipelineObject</text>
</a>
</g>
</g>
<!-- Node2&#45;&gt;Node1 -->
<g id="edge1" class="edge">
<title>Node2&#45;&gt;Node1</title>
<path fill="none" stroke="midnightblue" d="M73.89,-58.9C83.41,-46.27 95.98,-29.6 103.5,-19.63"/>
<polygon fill="midnightblue" stroke="midnightblue" points="70.83,-57.14 67.61,-67.23 76.42,-61.36 70.83,-57.14"/>
</g>
<!-- Node3 -->
<g id="node3" class="node">
<title>Node3</title>
<g id="a_node3"><a xlink:href="classbool.html" target="_top" xlink:title=" ">
<polygon fill="white" stroke="black" points="140,-67.5 140,-86.5 178,-86.5 178,-67.5 140,-67.5"/>
<text text-anchor="middle" x="159" y="-74.5" font-family="Helvetica,sans-Serif" font-size="10.00">bool</text>
</a>
</g>
</g>
<!-- Node3&#45;&gt;Node1 -->
<g id="edge2" class="edge">
<title>Node3&#45;&gt;Node1</title>
<path fill="none" stroke="#9a32cd" stroke-dasharray="5,2" d="M146.11,-58.9C136.59,-46.27 124.02,-29.6 116.5,-19.63"/>
<polygon fill="#9a32cd" stroke="#9a32cd" points="143.58,-61.36 152.39,-67.23 149.17,-57.14 143.58,-61.36"/>
<text text-anchor="middle" x="158.5" y="-41" font-family="Helvetica,sans-Serif" font-size="10.00"> m_clear</text>
</g>
</g>
</svg>
