<?xml version="1.0" encoding="UTF-8" standalone="no"?>
<!DOCTYPE svg PUBLIC "-//W3C//DTD SVG 1.1//EN"
 "http://www.w3.org/Graphics/SVG/1.1/DTD/svg11.dtd">
<!-- Generated by graphviz version 2.43.0 (0)
 -->
<!-- Title: CCraftDefManager Pages: 1 -->
<svg width="568pt" height="148pt"
 viewBox="0.00 0.00 568.00 148.00" xmlns="http://www.w3.org/2000/svg" xmlns:xlink="http://www.w3.org/1999/xlink">
<g id="graph0" class="graph" transform="scale(1 1) rotate(0) translate(4 144)">
<title>CCraftDefManager</title>
<polygon fill="white" stroke="transparent" points="-4,4 -4,-144 564,-144 564,4 -4,4"/>
<!-- Node1 -->
<g id="node1" class="node">
<title>Node1</title>
<g id="a_node1"><a xlink:title=" ">
<polygon fill="#bfbfbf" stroke="black" points="453,-71.5 453,-90.5 560,-90.5 560,-71.5 453,-71.5"/>
<text text-anchor="middle" x="506.5" y="-78.5" font-family="Helvetica,sans-Serif" font-size="10.00">CCraftDefManager</text>
</a>
</g>
</g>
<!-- Node2 -->
<g id="node2" class="node">
<title>Node2</title>
<g id="a_node2"><a xlink:href="classIWritableCraftDefManager.html" target="_top" xlink:title=" ">
<polygon fill="white" stroke="black" points="140,-120.5 140,-139.5 284,-139.5 284,-120.5 140,-120.5"/>
<text text-anchor="middle" x="212" y="-127.5" font-family="Helvetica,sans-Serif" font-size="10.00">IWritableCraftDefManager</text>
</a>
</g>
</g>
<!-- Node2&#45;&gt;Node1 -->
<g id="edge1" class="edge">
<title>Node2&#45;&gt;Node1</title>
<path fill="none" stroke="midnightblue" d="M292.17,-119.01C334.62,-112.83 387.77,-104.63 435,-96 443.99,-94.36 453.58,-92.43 462.7,-90.52"/>
<polygon fill="midnightblue" stroke="midnightblue" points="291.57,-115.56 282.17,-120.45 292.57,-122.49 291.57,-115.56"/>
</g>
<!-- Node3 -->
<g id="node3" class="node">
<title>Node3</title>
<g id="a_node3"><a xlink:href="classICraftDefManager.html" target="_top" xlink:title=" ">
<polygon fill="white" stroke="black" points="0,-120.5 0,-139.5 103,-139.5 103,-120.5 0,-120.5"/>
<text text-anchor="middle" x="51.5" y="-127.5" font-family="Helvetica,sans-Serif" font-size="10.00">ICraftDefManager</text>
</a>
</g>
</g>
<!-- Node3&#45;&gt;Node2 -->
<g id="edge2" class="edge">
<title>Node3&#45;&gt;Node2</title>
<path fill="none" stroke="midnightblue" d="M113.15,-130C121.87,-130 130.9,-130 139.8,-130"/>
<polygon fill="midnightblue" stroke="midnightblue" points="113.09,-126.5 103.09,-130 113.09,-133.5 113.09,-126.5"/>
</g>
<!-- Node4 -->
<g id="node4" class="node">
<title>Node4</title>
<g id="a_node4"><a xlink:title=" ">
<polygon fill="white" stroke="#bfbfbf" points="147.5,-60.5 147.5,-101.5 276.5,-101.5 276.5,-60.5 147.5,-60.5"/>
<text text-anchor="start" x="155.5" y="-89.5" font-family="Helvetica,sans-Serif" font-size="10.00">unordered_map&lt; std</text>
<text text-anchor="start" x="155.5" y="-78.5" font-family="Helvetica,sans-Serif" font-size="10.00">::string, std::vector</text>
<text text-anchor="middle" x="212" y="-67.5" font-family="Helvetica,sans-Serif" font-size="10.00">&lt; CraftDefinition * &gt; &gt;</text>
</a>
</g>
</g>
<!-- Node4&#45;&gt;Node1 -->
<g id="edge3" class="edge">
<title>Node4&#45;&gt;Node1</title>
<path fill="none" stroke="#9a32cd" stroke-dasharray="5,2" d="M286.93,-81C338.57,-81 406.27,-81 452.56,-81"/>
<polygon fill="#9a32cd" stroke="#9a32cd" points="286.83,-77.5 276.83,-81 286.83,-84.5 286.83,-77.5"/>
<text text-anchor="middle" x="368.5" y="-84" font-family="Helvetica,sans-Serif" font-size="10.00"> m_output_craft_definitions</text>
</g>
<!-- Node5 -->
<g id="node5" class="node">
<title>Node5</title>
<g id="a_node5"><a xlink:title=" ">
<polygon fill="white" stroke="#bfbfbf" points="142,-0.5 142,-41.5 282,-41.5 282,-0.5 142,-0.5"/>
<text text-anchor="start" x="150" y="-29.5" font-family="Helvetica,sans-Serif" font-size="10.00">vector&lt; std::unordered</text>
<text text-anchor="start" x="150" y="-18.5" font-family="Helvetica,sans-Serif" font-size="10.00">_map&lt; u64, std::vector</text>
<text text-anchor="middle" x="212" y="-7.5" font-family="Helvetica,sans-Serif" font-size="10.00">&lt; CraftDefinition * &gt; &gt; &gt;</text>
</a>
</g>
</g>
<!-- Node5&#45;&gt;Node1 -->
<g id="edge4" class="edge">
<title>Node5&#45;&gt;Node1</title>
<path fill="none" stroke="#9a32cd" stroke-dasharray="5,2" d="M292.02,-36.82C334.43,-45.37 387.59,-56.15 435,-66 443.45,-67.76 452.47,-69.66 461.14,-71.49"/>
<polygon fill="#9a32cd" stroke="#9a32cd" points="292.53,-33.36 282.03,-34.82 291.15,-40.22 292.53,-33.36"/>
<text text-anchor="middle" x="368.5" y="-69" font-family="Helvetica,sans-Serif" font-size="10.00"> m_craft_defs</text>
</g>
</g>
</svg>
