<?xml version="1.0" encoding="UTF-8" standalone="no"?>
<!DOCTYPE svg PUBLIC "-//W3C//DTD SVG 1.1//EN"
 "http://www.w3.org/Graphics/SVG/1.1/DTD/svg11.dtd">
<!-- Generated by graphviz version 2.43.0 (0)
 -->
<!-- Title: Catch::ScopedMessage Pages: 1 -->
<svg width="462pt" height="251pt"
 viewBox="0.00 0.00 461.50 251.00" xmlns="http://www.w3.org/2000/svg" xmlns:xlink="http://www.w3.org/1999/xlink">
<g id="graph0" class="graph" transform="scale(1 1) rotate(0) translate(4 247)">
<title>Catch::ScopedMessage</title>
<polygon fill="white" stroke="transparent" points="-4,4 -4,-247 457.5,-247 457.5,4 -4,4"/>
<!-- Node1 -->
<g id="node1" class="node">
<title>Node1</title>
<g id="a_node1"><a xlink:title=" ">
<polygon fill="#bfbfbf" stroke="black" points="255,-0.5 255,-19.5 384,-19.5 384,-0.5 255,-0.5"/>
<text text-anchor="middle" x="319.5" y="-7.5" font-family="Helvetica,sans-Serif" font-size="10.00">Catch::ScopedMessage</text>
</a>
</g>
</g>
<!-- Node2 -->
<g id="node2" class="node">
<title>Node2</title>
<g id="a_node2"><a xlink:href="structCatch_1_1MessageInfo.html" target="_top" xlink:title=" ">
<polygon fill="white" stroke="black" points="216,-67.5 216,-86.5 329,-86.5 329,-67.5 216,-67.5"/>
<text text-anchor="middle" x="272.5" y="-74.5" font-family="Helvetica,sans-Serif" font-size="10.00">Catch::MessageInfo</text>
</a>
</g>
</g>
<!-- Node2&#45;&gt;Node1 -->
<g id="edge1" class="edge">
<title>Node2&#45;&gt;Node1</title>
<path fill="none" stroke="#9a32cd" stroke-dasharray="5,2" d="M284.86,-58.9C293.99,-46.27 306.05,-29.6 313.26,-19.63"/>
<polygon fill="#9a32cd" stroke="#9a32cd" points="281.86,-57.08 278.84,-67.23 287.53,-61.18 281.86,-57.08"/>
<text text-anchor="middle" x="318" y="-41" font-family="Helvetica,sans-Serif" font-size="10.00"> m_info</text>
</g>
<!-- Node3 -->
<g id="node3" class="node">
<title>Node3</title>
<g id="a_node3"><a xlink:href="structCatch_1_1SourceLineInfo.html" target="_top" xlink:title=" ">
<polygon fill="white" stroke="black" points="113.5,-145.5 113.5,-164.5 235.5,-164.5 235.5,-145.5 113.5,-145.5"/>
<text text-anchor="middle" x="174.5" y="-152.5" font-family="Helvetica,sans-Serif" font-size="10.00">Catch::SourceLineInfo</text>
</a>
</g>
</g>
<!-- Node3&#45;&gt;Node2 -->
<g id="edge2" class="edge">
<title>Node3&#45;&gt;Node2</title>
<path fill="none" stroke="#9a32cd" stroke-dasharray="5,2" d="M190.76,-138.21C201.4,-128.21 215.81,-115.28 229.5,-105 238.38,-98.33 248.94,-91.68 257.37,-86.66"/>
<polygon fill="#9a32cd" stroke="#9a32cd" points="188.26,-135.75 183.44,-145.18 193.09,-140.82 188.26,-135.75"/>
<text text-anchor="middle" x="249.5" y="-113.5" font-family="Helvetica,sans-Serif" font-size="10.00"> lineInfo</text>
</g>
<!-- Node4 -->
<g id="node4" class="node">
<title>Node4</title>
<g id="a_node4"><a xlink:title=" ">
<polygon fill="white" stroke="#bfbfbf" points="52.5,-223.5 52.5,-242.5 90.5,-242.5 90.5,-223.5 52.5,-223.5"/>
<text text-anchor="middle" x="71.5" y="-230.5" font-family="Helvetica,sans-Serif" font-size="10.00">char</text>
</a>
</g>
</g>
<!-- Node4&#45;&gt;Node3 -->
<g id="edge3" class="edge">
<title>Node4&#45;&gt;Node3</title>
<path fill="none" stroke="#9a32cd" stroke-dasharray="5,2" d="M75.77,-213.78C79.05,-203.48 84.57,-191.08 93.5,-183 102.95,-174.45 115.2,-168.6 127.29,-164.59"/>
<polygon fill="#9a32cd" stroke="#9a32cd" points="72.38,-212.92 73.12,-223.49 79.13,-214.76 72.38,-212.92"/>
<text text-anchor="middle" x="103" y="-191.5" font-family="Helvetica,sans-Serif" font-size="10.00"> file</text>
</g>
<!-- Node6 -->
<g id="node6" class="node">
<title>Node6</title>
<g id="a_node6"><a xlink:href="classCatch_1_1StringRef.html" target="_top" xlink:title=" ">
<polygon fill="white" stroke="black" points="0,-145.5 0,-164.5 95,-164.5 95,-145.5 0,-145.5"/>
<text text-anchor="middle" x="47.5" y="-152.5" font-family="Helvetica,sans-Serif" font-size="10.00">Catch::StringRef</text>
</a>
</g>
</g>
<!-- Node4&#45;&gt;Node6 -->
<g id="edge6" class="edge">
<title>Node4&#45;&gt;Node6</title>
<path fill="none" stroke="#9a32cd" stroke-dasharray="5,2" d="M43.12,-220.42C36.89,-216.48 31.09,-211.41 27.5,-205 22.72,-196.47 24.44,-192.29 27.5,-183 29.77,-176.13 34.53,-169.58 38.84,-164.65"/>
<polygon fill="#9a32cd" stroke="#9a32cd" points="41.88,-223.73 52.34,-225.39 45.2,-217.57 41.88,-223.73"/>
<text text-anchor="middle" x="49" y="-197" font-family="Helvetica,sans-Serif" font-size="10.00"> m_start</text>
<text text-anchor="middle" x="49" y="-186" font-family="Helvetica,sans-Serif" font-size="10.00">s_empty</text>
</g>
<!-- Node5 -->
<g id="node5" class="node">
<title>Node5</title>
<g id="a_node5"><a xlink:title=" ">
<polygon fill="white" stroke="#bfbfbf" points="133,-223.5 133,-242.5 178,-242.5 178,-223.5 133,-223.5"/>
<text text-anchor="middle" x="155.5" y="-230.5" font-family="Helvetica,sans-Serif" font-size="10.00">size_t</text>
</a>
</g>
</g>
<!-- Node5&#45;&gt;Node3 -->
<g id="edge4" class="edge">
<title>Node5&#45;&gt;Node3</title>
<path fill="none" stroke="#9a32cd" stroke-dasharray="5,2" d="M169.04,-214.73C170.86,-211.63 172.45,-208.33 173.5,-205 177.78,-191.36 176.87,-174.52 175.74,-164.55"/>
<polygon fill="#9a32cd" stroke="#9a32cd" points="166.01,-212.95 163.25,-223.18 171.79,-216.91 166.01,-212.95"/>
<text text-anchor="middle" x="188.5" y="-191.5" font-family="Helvetica,sans-Serif" font-size="10.00"> line</text>
</g>
<!-- Node5&#45;&gt;Node6 -->
<g id="edge7" class="edge">
<title>Node5&#45;&gt;Node6</title>
<path fill="none" stroke="#9a32cd" stroke-dasharray="5,2" d="M140.74,-215.47C137.68,-212.02 134.48,-208.4 131.5,-205 122.99,-195.28 122.97,-190.57 112.5,-183 101.51,-175.05 87.83,-168.92 75.86,-164.52"/>
<polygon fill="#9a32cd" stroke="#9a32cd" points="138.2,-217.89 147.47,-223.03 143.43,-213.23 138.2,-217.89"/>
<text text-anchor="middle" x="150.5" y="-191.5" font-family="Helvetica,sans-Serif" font-size="10.00"> m_size</text>
</g>
<!-- Node6&#45;&gt;Node2 -->
<g id="edge5" class="edge">
<title>Node6&#45;&gt;Node2</title>
<path fill="none" stroke="#9a32cd" stroke-dasharray="5,2" d="M68.71,-139.68C86,-128.65 111.4,-113.83 135.5,-105 161.11,-95.61 190.66,-89.26 215.76,-85.09"/>
<polygon fill="#9a32cd" stroke="#9a32cd" points="66.47,-136.97 60.01,-145.36 70.3,-142.83 66.47,-136.97"/>
<text text-anchor="middle" x="167.5" y="-113.5" font-family="Helvetica,sans-Serif" font-size="10.00"> macroName</text>
</g>
<!-- Node7 -->
<g id="node7" class="node">
<title>Node7</title>
<g id="a_node7"><a xlink:title=" ">
<polygon fill="white" stroke="#bfbfbf" points="253.5,-145.5 253.5,-164.5 297.5,-164.5 297.5,-145.5 253.5,-145.5"/>
<text text-anchor="middle" x="275.5" y="-152.5" font-family="Helvetica,sans-Serif" font-size="10.00">string</text>
</a>
</g>
</g>
<!-- Node7&#45;&gt;Node2 -->
<g id="edge8" class="edge">
<title>Node7&#45;&gt;Node2</title>
<path fill="none" stroke="#9a32cd" stroke-dasharray="5,2" d="M273.99,-135.38C273.8,-132.57 273.63,-129.71 273.5,-127 272.83,-112.89 272.61,-96.48 272.54,-86.68"/>
<polygon fill="#9a32cd" stroke="#9a32cd" points="270.51,-135.79 274.75,-145.49 277.49,-135.26 270.51,-135.79"/>
<text text-anchor="middle" x="297.5" y="-113.5" font-family="Helvetica,sans-Serif" font-size="10.00"> message</text>
</g>
<!-- Node8 -->
<g id="node8" class="node">
<title>Node8</title>
<g id="a_node8"><a xlink:title=" ">
<polygon fill="white" stroke="#bfbfbf" points="318.5,-145.5 318.5,-164.5 368.5,-164.5 368.5,-145.5 318.5,-145.5"/>
<text text-anchor="middle" x="343.5" y="-152.5" font-family="Helvetica,sans-Serif" font-size="10.00">OfType</text>
</a>
</g>
</g>
<!-- Node8&#45;&gt;Node2 -->
<g id="edge9" class="edge">
<title>Node8&#45;&gt;Node2</title>
<path fill="none" stroke="#9a32cd" stroke-dasharray="5,2" d="M338.43,-135.68C334.94,-125.7 329.48,-113.66 321.5,-105 314.26,-97.14 304.19,-91.05 295.07,-86.66"/>
<polygon fill="#9a32cd" stroke="#9a32cd" points="335.15,-136.93 341.46,-145.44 341.84,-134.86 335.15,-136.93"/>
<text text-anchor="middle" x="347" y="-113.5" font-family="Helvetica,sans-Serif" font-size="10.00"> type</text>
</g>
<!-- Node9 -->
<g id="node9" class="node">
<title>Node9</title>
<g id="a_node9"><a xlink:title=" ">
<polygon fill="white" stroke="#bfbfbf" points="387,-145.5 387,-164.5 448,-164.5 448,-145.5 387,-145.5"/>
<text text-anchor="middle" x="417.5" y="-152.5" font-family="Helvetica,sans-Serif" font-size="10.00">unsigned</text>
</a>
</g>
</g>
<!-- Node9&#45;&gt;Node2 -->
<g id="edge10" class="edge">
<title>Node9&#45;&gt;Node2</title>
<path fill="none" stroke="#9a32cd" stroke-dasharray="5,2" d="M403.51,-137.98C393.36,-127.27 378.8,-113.61 363.5,-105 348.85,-96.76 331.43,-90.79 315.77,-86.61"/>
<polygon fill="#9a32cd" stroke="#9a32cd" points="401.01,-140.44 410.34,-145.46 406.18,-135.72 401.01,-140.44"/>
<text text-anchor="middle" x="422.5" y="-119" font-family="Helvetica,sans-Serif" font-size="10.00"> globalCount</text>
<text text-anchor="middle" x="422.5" y="-108" font-family="Helvetica,sans-Serif" font-size="10.00">sequence</text>
</g>
<!-- Node10 -->
<g id="node10" class="node">
<title>Node10</title>
<g id="a_node10"><a xlink:href="classbool.html" target="_top" xlink:title=" ">
<polygon fill="white" stroke="black" points="347.5,-67.5 347.5,-86.5 385.5,-86.5 385.5,-67.5 347.5,-67.5"/>
<text text-anchor="middle" x="366.5" y="-74.5" font-family="Helvetica,sans-Serif" font-size="10.00">bool</text>
</a>
</g>
</g>
<!-- Node10&#45;&gt;Node1 -->
<g id="edge11" class="edge">
<title>Node10&#45;&gt;Node1</title>
<path fill="none" stroke="#9a32cd" stroke-dasharray="5,2" d="M355,-58.72C350.56,-52.17 345.38,-44.68 340.5,-38 336.02,-31.86 330.77,-25.11 326.64,-19.9"/>
<polygon fill="#9a32cd" stroke="#9a32cd" points="352.38,-61.1 360.86,-67.44 358.19,-57.19 352.38,-61.1"/>
<text text-anchor="middle" x="373.5" y="-41" font-family="Helvetica,sans-Serif" font-size="10.00"> m_moved</text>
</g>
</g>
</svg>
