<?xml version="1.0" encoding="UTF-8" standalone="no"?>
<!DOCTYPE svg PUBLIC "-//W3C//DTD SVG 1.1//EN"
 "http://www.w3.org/Graphics/SVG/1.1/DTD/svg11.dtd">
<!-- Generated by graphviz version 2.43.0 (0)
 -->
<!-- Title: ModApiEnvMod Pages: 1 -->
<svg width="232pt" height="173pt"
 viewBox="0.00 0.00 231.50 173.00" xmlns="http://www.w3.org/2000/svg" xmlns:xlink="http://www.w3.org/1999/xlink">
<g id="graph0" class="graph" transform="scale(1 1) rotate(0) translate(4 169)">
<title>ModApiEnvMod</title>
<polygon fill="white" stroke="transparent" points="-4,4 -4,-169 227.5,-169 227.5,4 -4,4"/>
<!-- Node1 -->
<g id="node1" class="node">
<title>Node1</title>
<g id="a_node1"><a xlink:title=" ">
<polygon fill="#bfbfbf" stroke="black" points="38.5,-0.5 38.5,-19.5 130.5,-19.5 130.5,-0.5 38.5,-0.5"/>
<text text-anchor="middle" x="84.5" y="-7.5" font-family="Helvetica,sans-Serif" font-size="10.00">ModApiEnvMod</text>
</a>
</g>
</g>
<!-- Node2 -->
<g id="node2" class="node">
<title>Node2</title>
<g id="a_node2"><a xlink:href="classModApiBase.html" target="_top" xlink:title=" ">
<polygon fill="white" stroke="black" points="0,-78.5 0,-97.5 77,-97.5 77,-78.5 0,-78.5"/>
<text text-anchor="middle" x="38.5" y="-85.5" font-family="Helvetica,sans-Serif" font-size="10.00">ModApiBase</text>
</a>
</g>
</g>
<!-- Node2&#45;&gt;Node1 -->
<g id="edge1" class="edge">
<title>Node2&#45;&gt;Node1</title>
<path fill="none" stroke="midnightblue" d="M49.05,-69.57C58.5,-53.95 71.97,-31.7 79.28,-19.62"/>
<polygon fill="midnightblue" stroke="midnightblue" points="45.96,-67.91 43.78,-78.28 51.95,-71.54 45.96,-67.91"/>
</g>
<!-- Node3 -->
<g id="node3" class="node">
<title>Node3</title>
<g id="a_node3"><a xlink:href="classLuaHelper.html" target="_top" xlink:title=" ">
<polygon fill="white" stroke="black" points="5.5,-145.5 5.5,-164.5 71.5,-164.5 71.5,-145.5 5.5,-145.5"/>
<text text-anchor="middle" x="38.5" y="-152.5" font-family="Helvetica,sans-Serif" font-size="10.00">LuaHelper</text>
</a>
</g>
</g>
<!-- Node3&#45;&gt;Node2 -->
<g id="edge2" class="edge">
<title>Node3&#45;&gt;Node2</title>
<path fill="none" stroke="darkgreen" d="M38.5,-135.04C38.5,-122.67 38.5,-107.12 38.5,-97.63"/>
<polygon fill="darkgreen" stroke="darkgreen" points="35,-135.23 38.5,-145.23 42,-135.23 35,-135.23"/>
</g>
<!-- Node4 -->
<g id="node4" class="node">
<title>Node4</title>
<g id="a_node4"><a xlink:href="structEnumString.html" target="_top" xlink:title=" ">
<polygon fill="white" stroke="black" points="95,-78.5 95,-97.5 168,-97.5 168,-78.5 95,-78.5"/>
<text text-anchor="middle" x="131.5" y="-85.5" font-family="Helvetica,sans-Serif" font-size="10.00">EnumString</text>
</a>
</g>
</g>
<!-- Node4&#45;&gt;Node1 -->
<g id="edge3" class="edge">
<title>Node4&#45;&gt;Node1</title>
<path fill="none" stroke="#9a32cd" stroke-dasharray="5,2" d="M120.72,-69.57C111.06,-53.95 97.3,-31.7 89.83,-19.62"/>
<polygon fill="#9a32cd" stroke="#9a32cd" points="117.87,-71.62 126.11,-78.28 123.83,-67.94 117.87,-71.62"/>
<text text-anchor="middle" x="169" y="-52" font-family="Helvetica,sans-Serif" font-size="10.00"> es_ClearObjectsMode</text>
<text text-anchor="middle" x="169" y="-41" font-family="Helvetica,sans-Serif" font-size="10.00">es_BlockStatusType</text>
</g>
<!-- Node5 -->
<g id="node5" class="node">
<title>Node5</title>
<g id="a_node5"><a xlink:title=" ">
<polygon fill="white" stroke="#bfbfbf" points="100.5,-145.5 100.5,-164.5 138.5,-164.5 138.5,-145.5 100.5,-145.5"/>
<text text-anchor="middle" x="119.5" y="-152.5" font-family="Helvetica,sans-Serif" font-size="10.00">char</text>
</a>
</g>
</g>
<!-- Node5&#45;&gt;Node4 -->
<g id="edge4" class="edge">
<title>Node5&#45;&gt;Node4</title>
<path fill="none" stroke="#9a32cd" stroke-dasharray="5,2" d="M123,-135.04C125.28,-122.67 128.15,-107.12 129.91,-97.63"/>
<polygon fill="#9a32cd" stroke="#9a32cd" points="119.49,-134.76 121.12,-145.23 126.38,-136.04 119.49,-134.76"/>
<text text-anchor="middle" x="134.5" y="-119" font-family="Helvetica,sans-Serif" font-size="10.00"> str</text>
</g>
<!-- Node6 -->
<g id="node6" class="node">
<title>Node6</title>
<g id="a_node6"><a xlink:title=" ">
<polygon fill="white" stroke="#bfbfbf" points="157,-145.5 157,-164.5 186,-164.5 186,-145.5 157,-145.5"/>
<text text-anchor="middle" x="171.5" y="-152.5" font-family="Helvetica,sans-Serif" font-size="10.00">int</text>
</a>
</g>
</g>
<!-- Node6&#45;&gt;Node4 -->
<g id="edge5" class="edge">
<title>Node6&#45;&gt;Node4</title>
<path fill="none" stroke="#9a32cd" stroke-dasharray="5,2" d="M160.75,-136.53C153.01,-123.95 142.89,-107.51 136.81,-97.63"/>
<polygon fill="#9a32cd" stroke="#9a32cd" points="157.88,-138.55 166.11,-145.23 163.85,-134.88 157.88,-138.55"/>
<text text-anchor="middle" x="167" y="-119" font-family="Helvetica,sans-Serif" font-size="10.00"> num</text>
</g>
</g>
</svg>
