<?xml version="1.0" encoding="UTF-8" standalone="no"?>
<!DOCTYPE svg PUBLIC "-//W3C//DTD SVG 1.1//EN"
 "http://www.w3.org/Graphics/SVG/1.1/DTD/svg11.dtd">
<!-- Generated by graphviz version 2.43.0 (0)
 -->
<!-- Title: irr::gui::CGUISkin::draw3DTabBody Pages: 1 -->
<svg width="272pt" height="137pt"
 viewBox="0.00 0.00 272.00 137.00" xmlns="http://www.w3.org/2000/svg" xmlns:xlink="http://www.w3.org/1999/xlink">
<g id="graph0" class="graph" transform="scale(1 1) rotate(0) translate(4 133)">
<title>irr::gui::CGUISkin::draw3DTabBody</title>
<polygon fill="white" stroke="transparent" points="-4,4 -4,-133 268,-133 268,4 -4,4"/>
<!-- Node1 -->
<g id="node1" class="node">
<title>Node1</title>
<g id="a_node1"><a xlink:title="draws a tab control body">
<polygon fill="#bfbfbf" stroke="black" points="0,-49.5 0,-79.5 101,-79.5 101,-49.5 0,-49.5"/>
<text text-anchor="start" x="8" y="-67.5" font-family="Helvetica,sans-Serif" font-size="10.00">irr::gui::CGUISkin</text>
<text text-anchor="middle" x="50.5" y="-56.5" font-family="Helvetica,sans-Serif" font-size="10.00">::draw3DTabBody</text>
</a>
</g>
</g>
<!-- Node2 -->
<g id="node2" class="node">
<title>Node2</title>
<g id="a_node2"><a xlink:href="classirr_1_1video_1_1IVideoDriver.html#ac7f452fae0ef8abe01768a78ba7033b7" target="_top" xlink:title="Draws a 2d rectangle.">
<polygon fill="white" stroke="black" points="137,-98.5 137,-128.5 264,-128.5 264,-98.5 137,-98.5"/>
<text text-anchor="start" x="145" y="-116.5" font-family="Helvetica,sans-Serif" font-size="10.00">irr::video::IVideoDriver</text>
<text text-anchor="middle" x="200.5" y="-105.5" font-family="Helvetica,sans-Serif" font-size="10.00">::draw2DRectangle</text>
</a>
</g>
</g>
<!-- Node1&#45;&gt;Node2 -->
<g id="edge1" class="edge">
<title>Node1&#45;&gt;Node2</title>
<path fill="none" stroke="midnightblue" d="M97.11,-79.6C112.09,-84.56 128.91,-90.13 144.51,-95.29"/>
<polygon fill="midnightblue" stroke="midnightblue" points="143.44,-98.63 154.04,-98.45 145.64,-91.98 143.44,-98.63"/>
</g>
<!-- Node3 -->
<g id="node3" class="node">
<title>Node3</title>
<g id="a_node3"><a xlink:href="classirr_1_1gui_1_1CGUISkin.html#a0f12cb721c0b7d19004a209fe32cd04d" target="_top" xlink:title="returns default color">
<polygon fill="white" stroke="black" points="150.5,-49.5 150.5,-79.5 250.5,-79.5 250.5,-49.5 150.5,-49.5"/>
<text text-anchor="start" x="158.5" y="-67.5" font-family="Helvetica,sans-Serif" font-size="10.00">irr::gui::CGUISkin</text>
<text text-anchor="middle" x="200.5" y="-56.5" font-family="Helvetica,sans-Serif" font-size="10.00">::getColor</text>
</a>
</g>
</g>
<!-- Node1&#45;&gt;Node3 -->
<g id="edge2" class="edge">
<title>Node1&#45;&gt;Node3</title>
<path fill="none" stroke="midnightblue" d="M101.19,-64.5C113.72,-64.5 127.29,-64.5 140.23,-64.5"/>
<polygon fill="midnightblue" stroke="midnightblue" points="140.44,-68 150.44,-64.5 140.44,-61 140.44,-68"/>
</g>
<!-- Node4 -->
<g id="node4" class="node">
<title>Node4</title>
<g id="a_node4"><a xlink:href="classirr_1_1gui_1_1CGUISkin.html#a124841d8dd783286d8cef294b5d6ee21" target="_top" xlink:title="returns size for the given size type">
<polygon fill="white" stroke="black" points="150.5,-0.5 150.5,-30.5 250.5,-30.5 250.5,-0.5 150.5,-0.5"/>
<text text-anchor="start" x="158.5" y="-18.5" font-family="Helvetica,sans-Serif" font-size="10.00">irr::gui::CGUISkin</text>
<text text-anchor="middle" x="200.5" y="-7.5" font-family="Helvetica,sans-Serif" font-size="10.00">::getSize</text>
</a>
</g>
</g>
<!-- Node1&#45;&gt;Node4 -->
<g id="edge3" class="edge">
<title>Node1&#45;&gt;Node4</title>
<path fill="none" stroke="midnightblue" d="M97.11,-49.4C112.09,-44.44 128.91,-38.87 144.51,-33.71"/>
<polygon fill="midnightblue" stroke="midnightblue" points="145.64,-37.02 154.04,-30.55 143.44,-30.37 145.64,-37.02"/>
</g>
</g>
</svg>
