<?xml version="1.0" encoding="UTF-8" standalone="no"?>
<!DOCTYPE svg PUBLIC "-//W3C//DTD SVG 1.1//EN"
 "http://www.w3.org/Graphics/SVG/1.1/DTD/svg11.dtd">
<!-- Generated by graphviz version 2.43.0 (0)
 -->
<!-- Title: ItemStackRow Pages: 1 -->
<svg width="897pt" height="320pt"
 viewBox="0.00 0.00 897.00 319.50" xmlns="http://www.w3.org/2000/svg" xmlns:xlink="http://www.w3.org/1999/xlink">
<g id="graph0" class="graph" transform="scale(1 1) rotate(0) translate(4 315.5)">
<title>ItemStackRow</title>
<polygon fill="white" stroke="transparent" points="-4,4 -4,-315.5 893,-315.5 893,4 -4,4"/>
<!-- Node1 -->
<g id="node1" class="node">
<title>Node1</title>
<g id="a_node1"><a xlink:title=" ">
<polygon fill="#bfbfbf" stroke="black" points="802,-207 802,-226 889,-226 889,-207 802,-207"/>
<text text-anchor="middle" x="845.5" y="-214" font-family="Helvetica,sans-Serif" font-size="10.00">ItemStackRow</text>
</a>
</g>
</g>
<!-- Node2 -->
<g id="node2" class="node">
<title>Node2</title>
<g id="a_node2"><a xlink:href="structItemStack.html" target="_top" xlink:title=" ">
<polygon fill="white" stroke="black" points="699,-119 699,-138 765,-138 765,-119 699,-119"/>
<text text-anchor="middle" x="732" y="-126" font-family="Helvetica,sans-Serif" font-size="10.00">ItemStack</text>
</a>
</g>
</g>
<!-- Node2&#45;&gt;Node1 -->
<g id="edge1" class="edge">
<title>Node2&#45;&gt;Node1</title>
<path fill="none" stroke="midnightblue" d="M753.49,-144.67C776.62,-162.93 813.5,-192.03 832.43,-206.97"/>
<polygon fill="midnightblue" stroke="midnightblue" points="755.38,-141.7 745.36,-138.25 751.04,-147.2 755.38,-141.7"/>
</g>
<!-- Node3 -->
<g id="node3" class="node">
<title>Node3</title>
<g id="a_node3"><a xlink:title=" ">
<polygon fill="white" stroke="#bfbfbf" points="538,-96 538,-115 573,-115 573,-96 538,-96"/>
<text text-anchor="middle" x="555.5" y="-103" font-family="Helvetica,sans-Serif" font-size="10.00">u16</text>
</a>
</g>
</g>
<!-- Node3&#45;&gt;Node2 -->
<g id="edge2" class="edge">
<title>Node3&#45;&gt;Node2</title>
<path fill="none" stroke="#9a32cd" stroke-dasharray="5,2" d="M583.24,-103.03C608.67,-101.35 647.86,-100.55 681,-107.5 692.06,-109.82 703.73,-114.58 713.02,-118.98"/>
<polygon fill="#9a32cd" stroke="#9a32cd" points="582.95,-99.54 573.24,-103.78 583.47,-106.52 582.95,-99.54"/>
<text text-anchor="middle" x="655.5" y="-121.5" font-family="Helvetica,sans-Serif" font-size="10.00"> count</text>
<text text-anchor="middle" x="655.5" y="-110.5" font-family="Helvetica,sans-Serif" font-size="10.00">wear</text>
</g>
<!-- Node4 -->
<g id="node4" class="node">
<title>Node4</title>
<g id="a_node4"><a xlink:title=" ">
<polygon fill="white" stroke="#bfbfbf" points="533.5,-58 533.5,-77 577.5,-77 577.5,-58 533.5,-58"/>
<text text-anchor="middle" x="555.5" y="-65" font-family="Helvetica,sans-Serif" font-size="10.00">string</text>
</a>
</g>
</g>
<!-- Node4&#45;&gt;Node2 -->
<g id="edge3" class="edge">
<title>Node4&#45;&gt;Node2</title>
<path fill="none" stroke="#9a32cd" stroke-dasharray="5,2" d="M587.76,-68.03C613.75,-69.51 651.17,-74.07 681,-87.5 697.58,-94.97 713.2,-109.4 722.43,-119"/>
<polygon fill="#9a32cd" stroke="#9a32cd" points="587.87,-64.53 577.72,-67.58 587.56,-71.52 587.87,-64.53"/>
<text text-anchor="middle" x="655.5" y="-90.5" font-family="Helvetica,sans-Serif" font-size="10.00"> name</text>
</g>
<!-- Node5 -->
<g id="node5" class="node">
<title>Node5</title>
<g id="a_node5"><a xlink:href="classItemStackMetadata.html" target="_top" xlink:title=" ">
<polygon fill="white" stroke="black" points="499,-137 499,-156 612,-156 612,-137 499,-137"/>
<text text-anchor="middle" x="555.5" y="-144" font-family="Helvetica,sans-Serif" font-size="10.00">ItemStackMetadata</text>
</a>
</g>
</g>
<!-- Node5&#45;&gt;Node2 -->
<g id="edge4" class="edge">
<title>Node5&#45;&gt;Node2</title>
<path fill="none" stroke="#9a32cd" stroke-dasharray="5,2" d="M622.45,-139.7C648.62,-137 677.52,-134.02 698.92,-131.81"/>
<polygon fill="#9a32cd" stroke="#9a32cd" points="621.78,-136.25 612.19,-140.76 622.5,-143.21 621.78,-136.25"/>
<text text-anchor="middle" x="655.5" y="-141.5" font-family="Helvetica,sans-Serif" font-size="10.00"> metadata</text>
</g>
<!-- Node6 -->
<g id="node6" class="node">
<title>Node6</title>
<g id="a_node6"><a xlink:href="classSimpleMetadata.html" target="_top" xlink:title=" ">
<polygon fill="white" stroke="black" points="272,-57 272,-76 369,-76 369,-57 272,-57"/>
<text text-anchor="middle" x="320.5" y="-64" font-family="Helvetica,sans-Serif" font-size="10.00">SimpleMetadata</text>
</a>
</g>
</g>
<!-- Node6&#45;&gt;Node5 -->
<g id="edge5" class="edge">
<title>Node6&#45;&gt;Node5</title>
<path fill="none" stroke="midnightblue" d="M379.35,-71.79C411.12,-76.71 450.19,-86.2 481,-104.5 491.28,-110.61 489.18,-117.67 499,-124.5 506.23,-129.53 514.78,-133.65 522.97,-136.9"/>
<polygon fill="midnightblue" stroke="midnightblue" points="379.72,-68.31 369.32,-70.35 378.72,-75.24 379.72,-68.31"/>
</g>
<!-- Node7 -->
<g id="node7" class="node">
<title>Node7</title>
<g id="a_node7"><a xlink:href="classIMetadata.html" target="_top" xlink:title=" ">
<polygon fill="white" stroke="black" points="35,-50 35,-69 101,-69 101,-50 35,-50"/>
<text text-anchor="middle" x="68" y="-57" font-family="Helvetica,sans-Serif" font-size="10.00">IMetadata</text>
</a>
</g>
</g>
<!-- Node7&#45;&gt;Node6 -->
<g id="edge6" class="edge">
<title>Node7&#45;&gt;Node6</title>
<path fill="none" stroke="midnightblue" d="M111.42,-60.69C155.91,-61.93 225.68,-63.88 271.99,-65.17"/>
<polygon fill="midnightblue" stroke="midnightblue" points="111.33,-57.18 101.24,-60.4 111.13,-64.18 111.33,-57.18"/>
</g>
<!-- Node8 -->
<g id="node8" class="node">
<title>Node8</title>
<g id="a_node8"><a xlink:title=" ">
<polygon fill="white" stroke="#bfbfbf" points="8.5,-0.5 8.5,-30.5 127.5,-30.5 127.5,-0.5 8.5,-0.5"/>
<text text-anchor="start" x="16.5" y="-18.5" font-family="Helvetica,sans-Serif" font-size="10.00">unordered_map&lt; std</text>
<text text-anchor="middle" x="68" y="-7.5" font-family="Helvetica,sans-Serif" font-size="10.00">::string, std::string &gt;</text>
</a>
</g>
</g>
<!-- Node8&#45;&gt;Node6 -->
<g id="edge7" class="edge">
<title>Node8&#45;&gt;Node6</title>
<path fill="none" stroke="#9a32cd" stroke-dasharray="5,2" d="M137.78,-25.98C171.98,-31.6 213.83,-39.1 251,-47.5 263.04,-50.22 276.12,-53.72 287.6,-56.96"/>
<polygon fill="#9a32cd" stroke="#9a32cd" points="138.32,-22.53 127.89,-24.38 137.2,-29.44 138.32,-22.53"/>
<text text-anchor="middle" x="202.5" y="-50.5" font-family="Helvetica,sans-Serif" font-size="10.00"> m_stringvars</text>
</g>
<!-- Node9 -->
<g id="node9" class="node">
<title>Node9</title>
<g id="a_node9"><a xlink:href="classbool.html" target="_top" xlink:title=" ">
<polygon fill="white" stroke="black" points="49,-88 49,-107 87,-107 87,-88 49,-88"/>
<text text-anchor="middle" x="68" y="-95" font-family="Helvetica,sans-Serif" font-size="10.00">bool</text>
</a>
</g>
</g>
<!-- Node9&#45;&gt;Node5 -->
<g id="edge14" class="edge">
<title>Node9&#45;&gt;Node5</title>
<path fill="none" stroke="#9a32cd" stroke-dasharray="5,2" d="M97.19,-100.35C175.23,-108.22 395.19,-130.42 498.98,-140.9"/>
<polygon fill="#9a32cd" stroke="#9a32cd" points="97.45,-96.85 87.15,-99.33 96.74,-103.82 97.45,-96.85"/>
<text text-anchor="middle" x="320.5" y="-130.5" font-family="Helvetica,sans-Serif" font-size="10.00"> toolcaps_overridden</text>
</g>
<!-- Node9&#45;&gt;Node6 -->
<g id="edge8" class="edge">
<title>Node9&#45;&gt;Node6</title>
<path fill="none" stroke="#9a32cd" stroke-dasharray="5,2" d="M97.16,-94.01C139.53,-88.77 220.19,-78.79 271.83,-72.4"/>
<polygon fill="#9a32cd" stroke="#9a32cd" points="96.51,-90.57 87.02,-95.27 97.37,-97.52 96.51,-90.57"/>
<text text-anchor="middle" x="202.5" y="-90.5" font-family="Helvetica,sans-Serif" font-size="10.00"> m_modified</text>
</g>
<!-- Node10 -->
<g id="node10" class="node">
<title>Node10</title>
<g id="a_node10"><a xlink:href="structToolCapabilities.html" target="_top" xlink:title=" ">
<polygon fill="white" stroke="black" points="273.5,-186 273.5,-205 367.5,-205 367.5,-186 273.5,-186"/>
<text text-anchor="middle" x="320.5" y="-193" font-family="Helvetica,sans-Serif" font-size="10.00">ToolCapabilities</text>
</a>
</g>
</g>
<!-- Node10&#45;&gt;Node5 -->
<g id="edge9" class="edge">
<title>Node10&#45;&gt;Node5</title>
<path fill="none" stroke="#9a32cd" stroke-dasharray="5,2" d="M376.65,-183.9C417.01,-175.41 471.13,-164.03 509.03,-156.06"/>
<polygon fill="#9a32cd" stroke="#9a32cd" points="375.77,-180.51 366.7,-185.99 377.21,-187.36 375.77,-180.51"/>
<text text-anchor="middle" x="435.5" y="-183.5" font-family="Helvetica,sans-Serif" font-size="10.00"> toolcaps_override</text>
</g>
<!-- Node11 -->
<g id="node11" class="node">
<title>Node11</title>
<g id="a_node11"><a xlink:title=" ">
<polygon fill="white" stroke="#bfbfbf" points="49,-186 49,-205 87,-205 87,-186 49,-186"/>
<text text-anchor="middle" x="68" y="-193" font-family="Helvetica,sans-Serif" font-size="10.00">float</text>
</a>
</g>
</g>
<!-- Node11&#45;&gt;Node10 -->
<g id="edge10" class="edge">
<title>Node11&#45;&gt;Node10</title>
<path fill="none" stroke="#9a32cd" stroke-dasharray="5,2" d="M97.26,-195.5C140.06,-195.5 221.77,-195.5 273.3,-195.5"/>
<polygon fill="#9a32cd" stroke="#9a32cd" points="97.02,-192 87.02,-195.5 97.02,-199 97.02,-192"/>
<text text-anchor="middle" x="202.5" y="-198.5" font-family="Helvetica,sans-Serif" font-size="10.00"> full_punch_interval</text>
</g>
<!-- Node12 -->
<g id="node12" class="node">
<title>Node12</title>
<g id="a_node12"><a xlink:title=" ">
<polygon fill="white" stroke="#bfbfbf" points="0,-126 0,-167 136,-167 136,-126 0,-126"/>
<text text-anchor="start" x="8" y="-155" font-family="Helvetica,sans-Serif" font-size="10.00">unordered_map&lt; std</text>
<text text-anchor="start" x="8" y="-144" font-family="Helvetica,sans-Serif" font-size="10.00">::string, struct ToolGroup</text>
<text text-anchor="middle" x="68" y="-133" font-family="Helvetica,sans-Serif" font-size="10.00">Cap &gt;</text>
</a>
</g>
</g>
<!-- Node12&#45;&gt;Node10 -->
<g id="edge11" class="edge">
<title>Node12&#45;&gt;Node10</title>
<path fill="none" stroke="#9a32cd" stroke-dasharray="5,2" d="M145.97,-160.33C178.43,-166.31 216.6,-173.52 251,-180.5 259.35,-182.19 268.26,-184.08 276.79,-185.93"/>
<polygon fill="#9a32cd" stroke="#9a32cd" points="146.55,-156.88 136.08,-158.52 145.29,-163.77 146.55,-156.88"/>
<text text-anchor="middle" x="202.5" y="-183.5" font-family="Helvetica,sans-Serif" font-size="10.00"> groupcaps</text>
</g>
<!-- Node13 -->
<g id="node13" class="node">
<title>Node13</title>
<g id="a_node13"><a xlink:title=" ">
<polygon fill="white" stroke="#bfbfbf" points="53.5,-283 53.5,-302 82.5,-302 82.5,-283 53.5,-283"/>
<text text-anchor="middle" x="68" y="-290" font-family="Helvetica,sans-Serif" font-size="10.00">int</text>
</a>
</g>
</g>
<!-- Node13&#45;&gt;Node1 -->
<g id="edge15" class="edge">
<title>Node13&#45;&gt;Node1</title>
<path fill="none" stroke="#9a32cd" stroke-dasharray="5,2" d="M92.65,-293.76C137.08,-296.01 236.07,-300.5 319.5,-300.5 319.5,-300.5 319.5,-300.5 733,-300.5 781.96,-300.5 823.08,-248.2 838.24,-226.14"/>
<polygon fill="#9a32cd" stroke="#9a32cd" points="92.74,-290.26 82.57,-293.24 92.38,-297.25 92.74,-290.26"/>
<text text-anchor="middle" x="555.5" y="-303.5" font-family="Helvetica,sans-Serif" font-size="10.00"> id</text>
</g>
<!-- Node13&#45;&gt;Node10 -->
<g id="edge12" class="edge">
<title>Node13&#45;&gt;Node10</title>
<path fill="none" stroke="#9a32cd" stroke-dasharray="5,2" d="M92.42,-284.39C109.43,-278.6 133.04,-270.76 154,-264.5 196.77,-251.73 210.09,-256.34 251,-238.5 271.59,-229.52 293.2,-214.97 306.51,-205.32"/>
<polygon fill="#9a32cd" stroke="#9a32cd" points="91.09,-281.15 82.76,-287.7 93.36,-287.77 91.09,-281.15"/>
<text text-anchor="middle" x="202.5" y="-278.5" font-family="Helvetica,sans-Serif" font-size="10.00"> max_drop_level</text>
<text text-anchor="middle" x="202.5" y="-267.5" font-family="Helvetica,sans-Serif" font-size="10.00">punch_attack_uses</text>
</g>
<!-- Node14 -->
<g id="node14" class="node">
<title>Node14</title>
<g id="a_node14"><a xlink:title=" ">
<polygon fill="white" stroke="#bfbfbf" points="8.5,-224.5 8.5,-254.5 127.5,-254.5 127.5,-224.5 8.5,-224.5"/>
<text text-anchor="start" x="16.5" y="-242.5" font-family="Helvetica,sans-Serif" font-size="10.00">unordered_map&lt; std</text>
<text text-anchor="middle" x="68" y="-231.5" font-family="Helvetica,sans-Serif" font-size="10.00">::string, s16 &gt;</text>
</a>
</g>
</g>
<!-- Node14&#45;&gt;Node10 -->
<g id="edge13" class="edge">
<title>Node14&#45;&gt;Node10</title>
<path fill="none" stroke="#9a32cd" stroke-dasharray="5,2" d="M137.59,-227.45C180.71,-219.88 235.19,-210.31 273.24,-203.63"/>
<polygon fill="#9a32cd" stroke="#9a32cd" points="136.97,-224.01 127.73,-229.18 138.19,-230.9 136.97,-224.01"/>
<text text-anchor="middle" x="202.5" y="-226.5" font-family="Helvetica,sans-Serif" font-size="10.00"> damageGroups</text>
</g>
</g>
</svg>
