<?xml version="1.0" encoding="UTF-8" standalone="no"?>
<!DOCTYPE svg PUBLIC "-//W3C//DTD SVG 1.1//EN"
 "http://www.w3.org/Graphics/SVG/1.1/DTD/svg11.dtd">
<!-- Generated by graphviz version 2.43.0 (0)
 -->
<!-- Title: irr::video::CImageLoaderBMP::isALoadableFileExtension Pages: 1 -->
<svg width="725pt" height="88pt"
 viewBox="0.00 0.00 725.00 88.00" xmlns="http://www.w3.org/2000/svg" xmlns:xlink="http://www.w3.org/1999/xlink">
<g id="graph0" class="graph" transform="scale(1 1) rotate(0) translate(4 84)">
<title>irr::video::CImageLoaderBMP::isALoadableFileExtension</title>
<polygon fill="white" stroke="transparent" points="-4,4 -4,-84 721,-84 721,4 -4,4"/>
<!-- Node1 -->
<g id="node1" class="node">
<title>Node1</title>
<g id="a_node1"><a xlink:title=" ">
<polygon fill="#bfbfbf" stroke="black" points="0,-24.5 0,-54.5 169,-54.5 169,-24.5 0,-24.5"/>
<text text-anchor="start" x="8" y="-42.5" font-family="Helvetica,sans-Serif" font-size="10.00">irr::video::CImageLoader</text>
<text text-anchor="middle" x="84.5" y="-31.5" font-family="Helvetica,sans-Serif" font-size="10.00">BMP::isALoadableFileExtension</text>
</a>
</g>
</g>
<!-- Node2 -->
<g id="node2" class="node">
<title>Node2</title>
<g id="a_node2"><a xlink:href="namespaceirr_1_1core.html#a7a0c7be24d78c02b334c3ae5a18005a1" target="_top" xlink:title="search if a filename has a proper extension">
<polygon fill="white" stroke="black" points="205,-30 205,-49 348,-49 348,-30 205,-30"/>
<text text-anchor="middle" x="276.5" y="-37" font-family="Helvetica,sans-Serif" font-size="10.00">irr::core::hasFileExtension</text>
</a>
</g>
</g>
<!-- Node1&#45;&gt;Node2 -->
<g id="edge1" class="edge">
<title>Node1&#45;&gt;Node2</title>
<path fill="none" stroke="midnightblue" d="M169.11,-39.5C177.61,-39.5 186.22,-39.5 194.69,-39.5"/>
<polygon fill="midnightblue" stroke="midnightblue" points="194.92,-43 204.92,-39.5 194.92,-36 194.92,-43"/>
</g>
<!-- Node3 -->
<g id="node3" class="node">
<title>Node3</title>
<g id="a_node3"><a xlink:href="namespaceirr_1_1core.html#ab214253f8925de2ed42a7d671d02cf7f" target="_top" xlink:title="search if a filename has a proper extension">
<polygon fill="white" stroke="black" points="384,-30 384,-49 518,-49 518,-30 384,-30"/>
<text text-anchor="middle" x="451" y="-37" font-family="Helvetica,sans-Serif" font-size="10.00">irr::core::isFileExtension</text>
</a>
</g>
</g>
<!-- Node2&#45;&gt;Node3 -->
<g id="edge2" class="edge">
<title>Node2&#45;&gt;Node3</title>
<path fill="none" stroke="midnightblue" d="M348.16,-39.5C356.56,-39.5 365.17,-39.5 373.64,-39.5"/>
<polygon fill="midnightblue" stroke="midnightblue" points="373.89,-43 383.89,-39.5 373.89,-36 373.89,-43"/>
</g>
<!-- Node4 -->
<g id="node4" class="node">
<title>Node4</title>
<g id="a_node4"><a xlink:href="classirr_1_1core_1_1string.html#a384fda94b2dd511721231d9585017109" target="_top" xlink:title="Compares the strings ignoring case.">
<polygon fill="white" stroke="black" points="554,-49.5 554,-79.5 717,-79.5 717,-49.5 554,-49.5"/>
<text text-anchor="start" x="562" y="-67.5" font-family="Helvetica,sans-Serif" font-size="10.00">irr::core::string::</text>
<text text-anchor="middle" x="635.5" y="-56.5" font-family="Helvetica,sans-Serif" font-size="10.00">equals_substring_ignore_case</text>
</a>
</g>
</g>
<!-- Node3&#45;&gt;Node4 -->
<g id="edge3" class="edge">
<title>Node3&#45;&gt;Node4</title>
<path fill="none" stroke="midnightblue" d="M518.14,-48.56C526.5,-49.71 535.17,-50.89 543.82,-52.08"/>
<polygon fill="midnightblue" stroke="midnightblue" points="543.58,-55.58 553.96,-53.47 544.53,-48.64 543.58,-55.58"/>
</g>
<!-- Node5 -->
<g id="node5" class="node">
<title>Node5</title>
<g id="a_node5"><a xlink:href="classirr_1_1core_1_1string.html#af9f62c87ac856a30080fad2fc32a3f45" target="_top" xlink:title="finds last occurrence of character in string">
<polygon fill="white" stroke="black" points="588.5,-0.5 588.5,-30.5 682.5,-30.5 682.5,-0.5 588.5,-0.5"/>
<text text-anchor="start" x="596.5" y="-18.5" font-family="Helvetica,sans-Serif" font-size="10.00">irr::core::string::</text>
<text text-anchor="middle" x="635.5" y="-7.5" font-family="Helvetica,sans-Serif" font-size="10.00">findLast</text>
</a>
</g>
</g>
<!-- Node3&#45;&gt;Node5 -->
<g id="edge4" class="edge">
<title>Node3&#45;&gt;Node5</title>
<path fill="none" stroke="midnightblue" d="M518.14,-30.8C537.86,-28.21 559.27,-25.39 578.29,-22.89"/>
<polygon fill="midnightblue" stroke="midnightblue" points="578.83,-26.35 588.28,-21.58 577.91,-19.41 578.83,-26.35"/>
</g>
</g>
</svg>
