<?xml version="1.0" encoding="UTF-8" standalone="no"?>
<!DOCTYPE svg PUBLIC "-//W3C//DTD SVG 1.1//EN"
 "http://www.w3.org/Graphics/SVG/1.1/DTD/svg11.dtd">
<!-- Generated by graphviz version 2.43.0 (0)
 -->
<!-- Title: Address Pages: 1 -->
<svg width="479pt" height="95pt"
 viewBox="0.00 0.00 479.00 95.00" xmlns="http://www.w3.org/2000/svg" xmlns:xlink="http://www.w3.org/1999/xlink">
<g id="graph0" class="graph" transform="scale(1 1) rotate(0) translate(4 91)">
<title>Address</title>
<polygon fill="white" stroke="transparent" points="-4,4 -4,-91 475,-91 475,4 -4,4"/>
<!-- Node1 -->
<g id="node1" class="node">
<title>Node1</title>
<g id="a_node1"><a xlink:title=" ">
<polygon fill="#bfbfbf" stroke="black" points="170.5,-0.5 170.5,-19.5 226.5,-19.5 226.5,-0.5 170.5,-0.5"/>
<text text-anchor="middle" x="198.5" y="-7.5" font-family="Helvetica,sans-Serif" font-size="10.00">Address</text>
</a>
</g>
</g>
<!-- Node2 -->
<g id="node2" class="node">
<title>Node2</title>
<g id="a_node2"><a xlink:title=" ">
<polygon fill="white" stroke="#bfbfbf" points="0,-67.5 0,-86.5 83,-86.5 83,-67.5 0,-67.5"/>
<text text-anchor="middle" x="41.5" y="-74.5" font-family="Helvetica,sans-Serif" font-size="10.00">struct in_addr</text>
</a>
</g>
</g>
<!-- Node2&#45;&gt;Node1 -->
<g id="edge1" class="edge">
<title>Node2&#45;&gt;Node1</title>
<path fill="none" stroke="#9a32cd" stroke-dasharray="5,2" d="M65.58,-62.4C79.83,-54.66 98.38,-45.12 115.5,-38 133.41,-30.55 154.16,-23.8 170.43,-18.91"/>
<polygon fill="#9a32cd" stroke="#9a32cd" points="63.54,-59.52 56.47,-67.41 66.92,-65.65 63.54,-59.52"/>
<text text-anchor="middle" x="128" y="-41" font-family="Helvetica,sans-Serif" font-size="10.00"> ipv4</text>
</g>
<!-- Node3 -->
<g id="node3" class="node">
<title>Node3</title>
<g id="a_node3"><a xlink:title=" ">
<polygon fill="white" stroke="#bfbfbf" points="101,-67.5 101,-86.5 136,-86.5 136,-67.5 101,-67.5"/>
<text text-anchor="middle" x="118.5" y="-74.5" font-family="Helvetica,sans-Serif" font-size="10.00">u16</text>
</a>
</g>
</g>
<!-- Node3&#45;&gt;Node1 -->
<g id="edge2" class="edge">
<title>Node3&#45;&gt;Node1</title>
<path fill="none" stroke="#9a32cd" stroke-dasharray="5,2" d="M133.3,-59.7C140.06,-52.67 148.35,-44.56 156.5,-38 165,-31.15 175.31,-24.5 183.59,-19.51"/>
<polygon fill="#9a32cd" stroke="#9a32cd" points="130.45,-57.62 126.18,-67.32 135.57,-62.4 130.45,-57.62"/>
<text text-anchor="middle" x="175.5" y="-41" font-family="Helvetica,sans-Serif" font-size="10.00"> m_port</text>
</g>
<!-- Node4 -->
<g id="node4" class="node">
<title>Node4</title>
<g id="a_node4"><a xlink:title=" ">
<polygon fill="white" stroke="#bfbfbf" points="154,-67.5 154,-86.5 243,-86.5 243,-67.5 154,-67.5"/>
<text text-anchor="middle" x="198.5" y="-74.5" font-family="Helvetica,sans-Serif" font-size="10.00">struct in6_addr</text>
</a>
</g>
</g>
<!-- Node4&#45;&gt;Node1 -->
<g id="edge3" class="edge">
<title>Node4&#45;&gt;Node1</title>
<path fill="none" stroke="#9a32cd" stroke-dasharray="5,2" d="M198.5,-57.04C198.5,-44.67 198.5,-29.12 198.5,-19.63"/>
<polygon fill="#9a32cd" stroke="#9a32cd" points="195,-57.23 198.5,-67.23 202,-57.23 195,-57.23"/>
<text text-anchor="middle" x="211" y="-41" font-family="Helvetica,sans-Serif" font-size="10.00"> ipv6</text>
</g>
<!-- Node5 -->
<g id="node5" class="node">
<title>Node5</title>
<g id="a_node5"><a xlink:title=" ">
<polygon fill="white" stroke="#bfbfbf" points="261.5,-67.5 261.5,-86.5 391.5,-86.5 391.5,-67.5 261.5,-67.5"/>
<text text-anchor="middle" x="326.5" y="-74.5" font-family="Helvetica,sans-Serif" font-size="10.00">anonymous:m_address</text>
</a>
</g>
</g>
<!-- Node5&#45;&gt;Node1 -->
<g id="edge4" class="edge">
<title>Node5&#45;&gt;Node1</title>
<path fill="none" stroke="#9a32cd" stroke-dasharray="5,2" d="M300.45,-62.77C275.1,-49.9 237.31,-30.71 215.57,-19.67"/>
<polygon fill="#9a32cd" stroke="#9a32cd" points="299,-65.96 309.5,-67.37 302.17,-59.72 299,-65.96"/>
<text text-anchor="middle" x="298" y="-41" font-family="Helvetica,sans-Serif" font-size="10.00"> m_address</text>
</g>
<!-- Node6 -->
<g id="node6" class="node">
<title>Node6</title>
<g id="a_node6"><a xlink:title=" ">
<polygon fill="white" stroke="#bfbfbf" points="410,-67.5 410,-86.5 471,-86.5 471,-67.5 410,-67.5"/>
<text text-anchor="middle" x="440.5" y="-74.5" font-family="Helvetica,sans-Serif" font-size="10.00">unsigned</text>
</a>
</g>
</g>
<!-- Node6&#45;&gt;Node1 -->
<g id="edge5" class="edge">
<title>Node6&#45;&gt;Node1</title>
<path fill="none" stroke="#9a32cd" stroke-dasharray="5,2" d="M409.02,-63.89C387.21,-55.81 357.37,-45.36 330.5,-38 295.08,-28.3 253.46,-20.35 226.56,-15.64"/>
<polygon fill="#9a32cd" stroke="#9a32cd" points="407.84,-67.19 418.44,-67.42 410.3,-60.64 407.84,-67.19"/>
<text text-anchor="middle" x="402" y="-41" font-family="Helvetica,sans-Serif" font-size="10.00"> m_addr_family</text>
</g>
</g>
</svg>
