<?xml version="1.0" encoding="UTF-8" standalone="no"?>
<!DOCTYPE svg PUBLIC "-//W3C//DTD SVG 1.1//EN"
 "http://www.w3.org/Graphics/SVG/1.1/DTD/svg11.dtd">
<!-- Generated by graphviz version 2.43.0 (0)
 -->
<!-- Title: irr::io::CMemoryReadFile Pages: 1 -->
<svg width="1063pt" height="270pt"
 viewBox="0.00 0.00 1063.00 270.00" xmlns="http://www.w3.org/2000/svg" xmlns:xlink="http://www.w3.org/1999/xlink">
<g id="graph0" class="graph" transform="scale(1 1) rotate(0) translate(4 266)">
<title>irr::io::CMemoryReadFile</title>
<polygon fill="white" stroke="transparent" points="-4,4 -4,-266 1059,-266 1059,4 -4,4"/>
<!-- Node1 -->
<g id="node1" class="node">
<title>Node1</title>
<g id="a_node1"><a xlink:title=" ">
<polygon fill="#bfbfbf" stroke="black" points="918,-149.5 918,-168.5 1055,-168.5 1055,-149.5 918,-149.5"/>
<text text-anchor="middle" x="986.5" y="-156.5" font-family="Helvetica,sans-Serif" font-size="10.00">irr::io::CMemoryReadFile</text>
</a>
</g>
</g>
<!-- Node2 -->
<g id="node2" class="node">
<title>Node2</title>
<g id="a_node2"><a xlink:href="classirr_1_1io_1_1IMemoryReadFile.html" target="_top" xlink:title="Interface providing read access to a memory read file.">
<polygon fill="white" stroke="black" points="604,-223.5 604,-242.5 738,-242.5 738,-223.5 604,-223.5"/>
<text text-anchor="middle" x="671" y="-230.5" font-family="Helvetica,sans-Serif" font-size="10.00">irr::io::IMemoryReadFile</text>
</a>
</g>
</g>
<!-- Node2&#45;&gt;Node1 -->
<g id="edge1" class="edge">
<title>Node2&#45;&gt;Node1</title>
<path fill="none" stroke="midnightblue" d="M748.09,-228.97C793.07,-225.04 850.69,-217.28 900,-202 926.03,-193.93 953.8,-178.55 970.39,-168.54"/>
<polygon fill="midnightblue" stroke="midnightblue" points="747.78,-225.48 738.11,-229.79 748.36,-232.46 747.78,-225.48"/>
</g>
<!-- Node3 -->
<g id="node3" class="node">
<title>Node3</title>
<g id="a_node3"><a xlink:href="classirr_1_1io_1_1IReadFile.html" target="_top" xlink:title="Interface providing read access to a file.">
<polygon fill="white" stroke="black" points="388,-223.5 388,-242.5 481,-242.5 481,-223.5 388,-223.5"/>
<text text-anchor="middle" x="434.5" y="-230.5" font-family="Helvetica,sans-Serif" font-size="10.00">irr::io::IReadFile</text>
</a>
</g>
</g>
<!-- Node3&#45;&gt;Node2 -->
<g id="edge2" class="edge">
<title>Node3&#45;&gt;Node2</title>
<path fill="none" stroke="midnightblue" d="M491.43,-233C525.22,-233 568.46,-233 603.93,-233"/>
<polygon fill="midnightblue" stroke="midnightblue" points="491.27,-229.5 481.27,-233 491.27,-236.5 491.27,-229.5"/>
</g>
<!-- Node4 -->
<g id="node4" class="node">
<title>Node4</title>
<g id="a_node4"><a xlink:href="classirr_1_1IReferenceCounted.html" target="_top" xlink:title="Base class of most objects of the Irrlicht Engine.">
<polygon fill="white" stroke="black" points="177,-223.5 177,-242.5 303,-242.5 303,-223.5 177,-223.5"/>
<text text-anchor="middle" x="240" y="-230.5" font-family="Helvetica,sans-Serif" font-size="10.00">irr::IReferenceCounted</text>
</a>
</g>
</g>
<!-- Node4&#45;&gt;Node3 -->
<g id="edge3" class="edge">
<title>Node4&#45;&gt;Node3</title>
<path fill="none" stroke="midnightblue" d="M313.42,-233C338.42,-233 365.71,-233 387.95,-233"/>
<polygon fill="midnightblue" stroke="midnightblue" points="313.23,-229.5 303.23,-233 313.23,-236.5 313.23,-229.5"/>
</g>
<!-- Node5 -->
<g id="node5" class="node">
<title>Node5</title>
<g id="a_node5"><a xlink:title=" ">
<polygon fill="white" stroke="#bfbfbf" points="6,-242.5 6,-261.5 44,-261.5 44,-242.5 6,-242.5"/>
<text text-anchor="middle" x="25" y="-249.5" font-family="Helvetica,sans-Serif" font-size="10.00">char</text>
</a>
</g>
</g>
<!-- Node5&#45;&gt;Node4 -->
<g id="edge4" class="edge">
<title>Node5&#45;&gt;Node4</title>
<path fill="none" stroke="#9a32cd" stroke-dasharray="5,2" d="M54.29,-249.48C85.39,-246.7 136.34,-242.16 176.86,-238.54"/>
<polygon fill="#9a32cd" stroke="#9a32cd" points="53.81,-246.01 44.16,-250.38 54.43,-252.98 53.81,-246.01"/>
<text text-anchor="middle" x="113.5" y="-250" font-family="Helvetica,sans-Serif" font-size="10.00"> DebugName</text>
</g>
<!-- Node6 -->
<g id="node6" class="node">
<title>Node6</title>
<g id="a_node6"><a xlink:title=" ">
<polygon fill="white" stroke="#bfbfbf" points="0,-204.5 0,-223.5 50,-223.5 50,-204.5 0,-204.5"/>
<text text-anchor="middle" x="25" y="-211.5" font-family="Helvetica,sans-Serif" font-size="10.00">int32_t</text>
</a>
</g>
</g>
<!-- Node6&#45;&gt;Node4 -->
<g id="edge5" class="edge">
<title>Node6&#45;&gt;Node4</title>
<path fill="none" stroke="#9a32cd" stroke-dasharray="5,2" d="M60.09,-216.66C86.97,-218.79 125.39,-221.93 159,-225 164.84,-225.53 170.91,-226.11 176.99,-226.69"/>
<polygon fill="#9a32cd" stroke="#9a32cd" points="60.28,-213.16 50.04,-215.86 59.73,-220.14 60.28,-213.16"/>
<text text-anchor="middle" x="113.5" y="-228" font-family="Helvetica,sans-Serif" font-size="10.00"> ReferenceCounter</text>
</g>
<!-- Node7 -->
<g id="node7" class="node">
<title>Node7</title>
<g id="a_node7"><a xlink:title=" ">
<polygon fill="white" stroke="#bfbfbf" points="633.5,-185.5 633.5,-204.5 708.5,-204.5 708.5,-185.5 633.5,-185.5"/>
<text text-anchor="middle" x="671" y="-192.5" font-family="Helvetica,sans-Serif" font-size="10.00">const void *</text>
</a>
</g>
</g>
<!-- Node7&#45;&gt;Node1 -->
<g id="edge6" class="edge">
<title>Node7&#45;&gt;Node1</title>
<path fill="none" stroke="#9a32cd" stroke-dasharray="5,2" d="M718.81,-191.39C764.98,-187.62 837.49,-181.12 900,-173 909.99,-171.7 920.61,-170.12 930.85,-168.5"/>
<polygon fill="#9a32cd" stroke="#9a32cd" points="718.49,-187.91 708.81,-192.2 719.06,-194.88 718.49,-187.91"/>
<text text-anchor="middle" x="828" y="-190" font-family="Helvetica,sans-Serif" font-size="10.00"> Buffer</text>
</g>
<!-- Node8 -->
<g id="node8" class="node">
<title>Node8</title>
<g id="a_node8"><a xlink:href="classbool.html" target="_top" xlink:title=" ">
<polygon fill="white" stroke="black" points="652,-147.5 652,-166.5 690,-166.5 690,-147.5 652,-147.5"/>
<text text-anchor="middle" x="671" y="-154.5" font-family="Helvetica,sans-Serif" font-size="10.00">bool</text>
</a>
</g>
</g>
<!-- Node8&#45;&gt;Node1 -->
<g id="edge7" class="edge">
<title>Node8&#45;&gt;Node1</title>
<path fill="none" stroke="#9a32cd" stroke-dasharray="5,2" d="M700.33,-157.18C749.06,-157.49 850,-158.14 917.76,-158.57"/>
<polygon fill="#9a32cd" stroke="#9a32cd" points="700.23,-153.68 690.21,-157.12 700.19,-160.68 700.23,-153.68"/>
<text text-anchor="middle" x="828" y="-161" font-family="Helvetica,sans-Serif" font-size="10.00"> deleteMemoryWhenDropped</text>
</g>
<!-- Node9 -->
<g id="node9" class="node">
<title>Node9</title>
<g id="a_node9"><a xlink:title=" ">
<polygon fill="white" stroke="#bfbfbf" points="652,-104.5 652,-123.5 690,-123.5 690,-104.5 652,-104.5"/>
<text text-anchor="middle" x="671" y="-111.5" font-family="Helvetica,sans-Serif" font-size="10.00">long</text>
</a>
</g>
</g>
<!-- Node9&#45;&gt;Node1 -->
<g id="edge8" class="edge">
<title>Node9&#45;&gt;Node1</title>
<path fill="none" stroke="#9a32cd" stroke-dasharray="5,2" d="M700.32,-113.92C743.73,-114.29 829.11,-116.96 900,-131 921.3,-135.22 944.67,-143.11 961.59,-149.44"/>
<polygon fill="#9a32cd" stroke="#9a32cd" points="700.25,-110.42 690.23,-113.87 700.21,-117.42 700.25,-110.42"/>
<text text-anchor="middle" x="828" y="-145" font-family="Helvetica,sans-Serif" font-size="10.00"> Len</text>
<text text-anchor="middle" x="828" y="-134" font-family="Helvetica,sans-Serif" font-size="10.00">Pos</text>
</g>
<!-- Node10 -->
<g id="node10" class="node">
<title>Node10</title>
<g id="a_node10"><a xlink:href="classirr_1_1core_1_1string.html" target="_top" xlink:title=" ">
<polygon fill="white" stroke="black" points="623,-55 623,-85 719,-85 719,-55 623,-55"/>
<text text-anchor="start" x="631" y="-73" font-family="Helvetica,sans-Serif" font-size="10.00">irr::core::string&lt;</text>
<text text-anchor="middle" x="671" y="-62" font-family="Helvetica,sans-Serif" font-size="10.00"> fschar_t &gt;</text>
</a>
</g>
</g>
<!-- Node10&#45;&gt;Node1 -->
<g id="edge9" class="edge">
<title>Node10&#45;&gt;Node1</title>
<path fill="none" stroke="#9a32cd" stroke-dasharray="5,2" d="M729.49,-70.16C776.72,-72.01 844.63,-78.69 900,-100 930.13,-111.6 959.93,-135.82 975.12,-149.35"/>
<polygon fill="#9a32cd" stroke="#9a32cd" points="729.54,-66.66 719.43,-69.82 729.31,-73.65 729.54,-66.66"/>
<text text-anchor="middle" x="828" y="-103" font-family="Helvetica,sans-Serif" font-size="10.00"> Filename</text>
</g>
<!-- Node11 -->
<g id="node11" class="node">
<title>Node11</title>
<g id="a_node11"><a xlink:title=" ">
<polygon fill="white" stroke="#bfbfbf" points="366,-99.5 366,-118.5 503,-118.5 503,-99.5 366,-99.5"/>
<text text-anchor="middle" x="434.5" y="-106.5" font-family="Helvetica,sans-Serif" font-size="10.00">basic_string&lt; fschar_t &gt;</text>
</a>
</g>
</g>
<!-- Node11&#45;&gt;Node10 -->
<g id="edge10" class="edge">
<title>Node11&#45;&gt;Node10</title>
<path fill="none" stroke="#9a32cd" stroke-dasharray="5,2" d="M503.13,-97.77C529.05,-93.47 558.9,-88.51 586,-84 597.96,-82.01 610.87,-79.86 622.91,-77.85"/>
<polygon fill="#9a32cd" stroke="#9a32cd" points="502.32,-94.36 493.03,-99.45 503.47,-101.27 502.32,-94.36"/>
<text text-anchor="middle" x="553.5" y="-97" font-family="Helvetica,sans-Serif" font-size="10.00"> str</text>
</g>
<!-- Node12 -->
<g id="node12" class="node">
<title>Node12</title>
<g id="a_node12"><a xlink:title=" ">
<polygon fill="white" stroke="#bfbfbf" points="179,-49.5 179,-68.5 301,-68.5 301,-49.5 179,-49.5"/>
<text text-anchor="middle" x="240" y="-56.5" font-family="Helvetica,sans-Serif" font-size="10.00">static const size_type</text>
</a>
</g>
</g>
<!-- Node12&#45;&gt;Node10 -->
<g id="edge11" class="edge">
<title>Node12&#45;&gt;Node10</title>
<path fill="none" stroke="#9a32cd" stroke-dasharray="5,2" d="M311.26,-60.8C399.2,-63.06 547.42,-66.86 622.84,-68.79"/>
<polygon fill="#9a32cd" stroke="#9a32cd" points="311.19,-57.3 301.1,-60.54 311.01,-64.3 311.19,-57.3"/>
<text text-anchor="middle" x="434.5" y="-68" font-family="Helvetica,sans-Serif" font-size="10.00"> npos</text>
</g>
<!-- Node13 -->
<g id="node13" class="node">
<title>Node13</title>
<g id="a_node13"><a xlink:href="classirr_1_1core_1_1string.html" target="_top" xlink:title="Very simple string class with some useful features.">
<polygon fill="white" stroke="black" points="376.5,-14.5 376.5,-33.5 492.5,-33.5 492.5,-14.5 376.5,-14.5"/>
<text text-anchor="middle" x="434.5" y="-21.5" font-family="Helvetica,sans-Serif" font-size="10.00">irr::core::string&lt; T &gt;</text>
</a>
</g>
</g>
<!-- Node12&#45;&gt;Node13 -->
<g id="edge14" class="edge">
<title>Node12&#45;&gt;Node13</title>
<path fill="none" stroke="#9a32cd" stroke-dasharray="5,2" d="M303.5,-47.64C328.59,-43.07 357.19,-37.87 381.16,-33.52"/>
<polygon fill="#9a32cd" stroke="#9a32cd" points="302.56,-44.25 293.35,-49.48 303.81,-51.14 302.56,-44.25"/>
<text text-anchor="middle" x="334.5" y="-46" font-family="Helvetica,sans-Serif" font-size="10.00"> npos</text>
</g>
<!-- Node13&#45;&gt;Node10 -->
<g id="edge12" class="edge">
<title>Node13&#45;&gt;Node10</title>
<path fill="none" stroke="orange" stroke-dasharray="5,2" d="M502.85,-31.2C528.97,-34.56 559.03,-39.14 586,-45 598.49,-47.71 611.83,-51.34 624.11,-54.98"/>
<polygon fill="orange" stroke="orange" points="503.03,-27.69 492.67,-29.92 502.16,-34.64 503.03,-27.69"/>
<text text-anchor="middle" x="553.5" y="-48" font-family="Helvetica,sans-Serif" font-size="10.00"> &lt; fschar_t &gt;</text>
</g>
<!-- Node14 -->
<g id="node14" class="node">
<title>Node14</title>
<g id="a_node14"><a xlink:title=" ">
<polygon fill="white" stroke="#bfbfbf" points="188,-0.5 188,-19.5 292,-19.5 292,-0.5 188,-0.5"/>
<text text-anchor="middle" x="240" y="-7.5" font-family="Helvetica,sans-Serif" font-size="10.00">basic_string&lt; T &gt;</text>
</a>
</g>
</g>
<!-- Node14&#45;&gt;Node13 -->
<g id="edge13" class="edge">
<title>Node14&#45;&gt;Node13</title>
<path fill="none" stroke="#9a32cd" stroke-dasharray="5,2" d="M302.39,-9.08C317.33,-9.27 333.26,-9.82 348,-11 357.88,-11.79 368.35,-13.04 378.44,-14.46"/>
<polygon fill="#9a32cd" stroke="#9a32cd" points="302.25,-5.58 292.23,-9.01 302.2,-12.58 302.25,-5.58"/>
<text text-anchor="middle" x="334.5" y="-14" font-family="Helvetica,sans-Serif" font-size="10.00"> str</text>
</g>
</g>
</svg>
