<?xml version="1.0" encoding="UTF-8" standalone="no"?>
<!DOCTYPE svg PUBLIC "-//W3C//DTD SVG 1.1//EN"
 "http://www.w3.org/Graphics/SVG/1.1/DTD/svg11.dtd">
<!-- Generated by graphviz version 2.43.0 (0)
 -->
<!-- Title: irr::io::IAttribute Pages: 1 -->
<svg width="270pt" height="162pt"
 viewBox="0.00 0.00 270.00 162.00" xmlns="http://www.w3.org/2000/svg" xmlns:xlink="http://www.w3.org/1999/xlink">
<g id="graph0" class="graph" transform="scale(1 1) rotate(0) translate(4 158)">
<title>irr::io::IAttribute</title>
<polygon fill="white" stroke="transparent" points="-4,4 -4,-158 266,-158 266,4 -4,4"/>
<!-- Node1 -->
<g id="node1" class="node">
<title>Node1</title>
<g id="a_node1"><a xlink:title=" ">
<polygon fill="#bfbfbf" stroke="black" points="115,-0.5 115,-19.5 209,-19.5 209,-0.5 115,-0.5"/>
<text text-anchor="middle" x="162" y="-7.5" font-family="Helvetica,sans-Serif" font-size="10.00">irr::io::IAttribute</text>
</a>
</g>
</g>
<!-- Node2 -->
<g id="node2" class="node">
<title>Node2</title>
<g id="a_node2"><a xlink:href="classirr_1_1IReferenceCounted.html" target="_top" xlink:title="Base class of most objects of the Irrlicht Engine.">
<polygon fill="white" stroke="black" points="40,-67.5 40,-86.5 166,-86.5 166,-67.5 40,-67.5"/>
<text text-anchor="middle" x="103" y="-74.5" font-family="Helvetica,sans-Serif" font-size="10.00">irr::IReferenceCounted</text>
</a>
</g>
</g>
<!-- Node2&#45;&gt;Node1 -->
<g id="edge1" class="edge">
<title>Node2&#45;&gt;Node1</title>
<path fill="none" stroke="midnightblue" d="M117.85,-59.63C129.39,-46.92 144.94,-29.8 154.17,-19.63"/>
<polygon fill="midnightblue" stroke="midnightblue" points="115.09,-57.48 110.96,-67.23 120.27,-62.18 115.09,-57.48"/>
</g>
<!-- Node3 -->
<g id="node3" class="node">
<title>Node3</title>
<g id="a_node3"><a xlink:title=" ">
<polygon fill="white" stroke="#bfbfbf" points="0,-134.5 0,-153.5 38,-153.5 38,-134.5 0,-134.5"/>
<text text-anchor="middle" x="19" y="-141.5" font-family="Helvetica,sans-Serif" font-size="10.00">char</text>
</a>
</g>
</g>
<!-- Node3&#45;&gt;Node2 -->
<g id="edge2" class="edge">
<title>Node3&#45;&gt;Node2</title>
<path fill="none" stroke="#9a32cd" stroke-dasharray="5,2" d="M24.06,-124.43C26.69,-117.6 30.53,-110.26 36,-105 44.76,-96.56 56.5,-90.64 67.71,-86.54"/>
<polygon fill="#9a32cd" stroke="#9a32cd" points="20.6,-123.77 20.87,-134.36 27.26,-125.91 20.6,-123.77"/>
<text text-anchor="middle" x="68" y="-108" font-family="Helvetica,sans-Serif" font-size="10.00"> DebugName</text>
</g>
<!-- Node4 -->
<g id="node4" class="node">
<title>Node4</title>
<g id="a_node4"><a xlink:title=" ">
<polygon fill="white" stroke="#bfbfbf" points="81,-134.5 81,-153.5 131,-153.5 131,-134.5 81,-134.5"/>
<text text-anchor="middle" x="106" y="-141.5" font-family="Helvetica,sans-Serif" font-size="10.00">int32_t</text>
</a>
</g>
</g>
<!-- Node4&#45;&gt;Node2 -->
<g id="edge3" class="edge">
<title>Node4&#45;&gt;Node2</title>
<path fill="none" stroke="#9a32cd" stroke-dasharray="5,2" d="M105.12,-124.04C104.55,-111.67 103.84,-96.12 103.4,-86.63"/>
<polygon fill="#9a32cd" stroke="#9a32cd" points="101.64,-124.41 105.6,-134.23 108.63,-124.08 101.64,-124.41"/>
<text text-anchor="middle" x="149.5" y="-108" font-family="Helvetica,sans-Serif" font-size="10.00"> ReferenceCounter</text>
</g>
<!-- Node5 -->
<g id="node5" class="node">
<title>Node5</title>
<g id="a_node5"><a xlink:title=" ">
<polygon fill="white" stroke="#bfbfbf" points="184,-67.5 184,-86.5 262,-86.5 262,-67.5 184,-67.5"/>
<text text-anchor="middle" x="223" y="-74.5" font-family="Helvetica,sans-Serif" font-size="10.00">string&lt; c8 &gt;</text>
</a>
</g>
</g>
<!-- Node5&#45;&gt;Node1 -->
<g id="edge4" class="edge">
<title>Node5&#45;&gt;Node1</title>
<path fill="none" stroke="#9a32cd" stroke-dasharray="5,2" d="M207.64,-59.63C195.71,-46.92 179.64,-29.8 170.1,-19.63"/>
<polygon fill="#9a32cd" stroke="#9a32cd" points="205.38,-62.34 214.77,-67.23 210.48,-57.55 205.38,-62.34"/>
<text text-anchor="middle" x="212.5" y="-41" font-family="Helvetica,sans-Serif" font-size="10.00"> Name</text>
</g>
<!-- Node6 -->
<g id="node6" class="node">
<title>Node6</title>
<g id="a_node6"><a xlink:title=" ">
<polygon fill="white" stroke="#bfbfbf" points="201,-134.5 201,-153.5 245,-153.5 245,-134.5 201,-134.5"/>
<text text-anchor="middle" x="223" y="-141.5" font-family="Helvetica,sans-Serif" font-size="10.00">string</text>
</a>
</g>
</g>
<!-- Node6&#45;&gt;Node5 -->
<g id="edge5" class="edge">
<title>Node6&#45;&gt;Node5</title>
<path fill="none" stroke="orange" stroke-dasharray="5,2" d="M223,-124.04C223,-111.67 223,-96.12 223,-86.63"/>
<polygon fill="orange" stroke="orange" points="219.5,-124.23 223,-134.23 226.5,-124.23 219.5,-124.23"/>
<text text-anchor="middle" x="241.5" y="-108" font-family="Helvetica,sans-Serif" font-size="10.00"> &lt; c8 &gt;</text>
</g>
</g>
</svg>
