<?xml version="1.0" encoding="UTF-8" standalone="no"?>
<!DOCTYPE svg PUBLIC "-//W3C//DTD SVG 1.1//EN"
 "http://www.w3.org/Graphics/SVG/1.1/DTD/svg11.dtd">
<!-- Generated by graphviz version 2.43.0 (0)
 -->
<!-- Title: Catch::TestCase Pages: 1 -->
<svg width="450pt" height="262pt"
 viewBox="0.00 0.00 449.50 262.00" xmlns="http://www.w3.org/2000/svg" xmlns:xlink="http://www.w3.org/1999/xlink">
<g id="graph0" class="graph" transform="scale(1 1) rotate(0) translate(4 258)">
<title>Catch::TestCase</title>
<polygon fill="white" stroke="transparent" points="-4,4 -4,-258 445.5,-258 445.5,4 -4,4"/>
<!-- Node1 -->
<g id="node1" class="node">
<title>Node1</title>
<g id="a_node1"><a xlink:title=" ">
<polygon fill="#bfbfbf" stroke="black" points="268,-0.5 268,-19.5 362,-19.5 362,-0.5 268,-0.5"/>
<text text-anchor="middle" x="315" y="-7.5" font-family="Helvetica,sans-Serif" font-size="10.00">Catch::TestCase</text>
</a>
</g>
</g>
<!-- Node2 -->
<g id="node2" class="node">
<title>Node2</title>
<g id="a_node2"><a xlink:href="structCatch_1_1TestCaseInfo.html" target="_top" xlink:title=" ">
<polygon fill="white" stroke="black" points="193.5,-73 193.5,-92 306.5,-92 306.5,-73 193.5,-73"/>
<text text-anchor="middle" x="250" y="-80" font-family="Helvetica,sans-Serif" font-size="10.00">Catch::TestCaseInfo</text>
</a>
</g>
</g>
<!-- Node2&#45;&gt;Node1 -->
<g id="edge1" class="edge">
<title>Node2&#45;&gt;Node1</title>
<path fill="none" stroke="midnightblue" d="M264.94,-65.3C278.01,-51.12 296.5,-31.06 306.96,-19.72"/>
<polygon fill="midnightblue" stroke="midnightblue" points="262.18,-63.13 257.97,-72.86 267.32,-67.88 262.18,-63.13"/>
</g>
<!-- Node3 -->
<g id="node3" class="node">
<title>Node3</title>
<g id="a_node3"><a xlink:href="structCatch_1_1SourceLineInfo.html" target="_top" xlink:title=" ">
<polygon fill="white" stroke="black" points="0,-167.5 0,-186.5 122,-186.5 122,-167.5 0,-167.5"/>
<text text-anchor="middle" x="61" y="-174.5" font-family="Helvetica,sans-Serif" font-size="10.00">Catch::SourceLineInfo</text>
</a>
</g>
</g>
<!-- Node3&#45;&gt;Node2 -->
<g id="edge2" class="edge">
<title>Node3&#45;&gt;Node2</title>
<path fill="none" stroke="#9a32cd" stroke-dasharray="5,2" d="M84.01,-162.3C105.79,-149.58 139.59,-130.48 170,-116 188.81,-107.04 210.78,-98.23 226.93,-92.05"/>
<polygon fill="#9a32cd" stroke="#9a32cd" points="82.02,-159.41 75.18,-167.49 85.57,-165.44 82.02,-159.41"/>
<text text-anchor="middle" x="190" y="-130" font-family="Helvetica,sans-Serif" font-size="10.00"> lineInfo</text>
</g>
<!-- Node4 -->
<g id="node4" class="node">
<title>Node4</title>
<g id="a_node4"><a xlink:title=" ">
<polygon fill="white" stroke="#bfbfbf" points="12,-234.5 12,-253.5 50,-253.5 50,-234.5 12,-234.5"/>
<text text-anchor="middle" x="31" y="-241.5" font-family="Helvetica,sans-Serif" font-size="10.00">char</text>
</a>
</g>
</g>
<!-- Node4&#45;&gt;Node3 -->
<g id="edge3" class="edge">
<title>Node4&#45;&gt;Node3</title>
<path fill="none" stroke="#9a32cd" stroke-dasharray="5,2" d="M39.4,-224.79C45.17,-212.31 52.55,-196.31 57.02,-186.63"/>
<polygon fill="#9a32cd" stroke="#9a32cd" points="36.06,-223.69 35.05,-234.23 42.41,-226.62 36.06,-223.69"/>
<text text-anchor="middle" x="57.5" y="-208" font-family="Helvetica,sans-Serif" font-size="10.00"> file</text>
</g>
<!-- Node5 -->
<g id="node5" class="node">
<title>Node5</title>
<g id="a_node5"><a xlink:title=" ">
<polygon fill="white" stroke="#bfbfbf" points="68.5,-234.5 68.5,-253.5 113.5,-253.5 113.5,-234.5 68.5,-234.5"/>
<text text-anchor="middle" x="91" y="-241.5" font-family="Helvetica,sans-Serif" font-size="10.00">size_t</text>
</a>
</g>
</g>
<!-- Node5&#45;&gt;Node3 -->
<g id="edge4" class="edge">
<title>Node5&#45;&gt;Node3</title>
<path fill="none" stroke="#9a32cd" stroke-dasharray="5,2" d="M82.6,-224.79C76.83,-212.31 69.45,-196.31 64.98,-186.63"/>
<polygon fill="#9a32cd" stroke="#9a32cd" points="79.59,-226.62 86.95,-234.23 85.94,-223.69 79.59,-226.62"/>
<text text-anchor="middle" x="89" y="-208" font-family="Helvetica,sans-Serif" font-size="10.00"> line</text>
</g>
<!-- Node6 -->
<g id="node6" class="node">
<title>Node6</title>
<g id="a_node6"><a xlink:title=" ">
<polygon fill="white" stroke="#bfbfbf" points="140.5,-167.5 140.5,-186.5 259.5,-186.5 259.5,-167.5 140.5,-167.5"/>
<text text-anchor="middle" x="200" y="-174.5" font-family="Helvetica,sans-Serif" font-size="10.00">vector&lt; std::string &gt;</text>
</a>
</g>
</g>
<!-- Node6&#45;&gt;Node2 -->
<g id="edge5" class="edge">
<title>Node6&#45;&gt;Node2</title>
<path fill="none" stroke="#9a32cd" stroke-dasharray="5,2" d="M208.5,-157.97C214.3,-145.94 222.29,-129.85 230,-116 234.57,-107.78 240.23,-98.68 244.35,-92.2"/>
<polygon fill="#9a32cd" stroke="#9a32cd" points="205.18,-156.8 204.04,-167.33 211.5,-159.81 205.18,-156.8"/>
<text text-anchor="middle" x="254" y="-135.5" font-family="Helvetica,sans-Serif" font-size="10.00"> tags</text>
<text text-anchor="middle" x="254" y="-124.5" font-family="Helvetica,sans-Serif" font-size="10.00">lcaseTags</text>
</g>
<!-- Node7 -->
<g id="node7" class="node">
<title>Node7</title>
<g id="a_node7"><a xlink:title=" ">
<polygon fill="white" stroke="#bfbfbf" points="278,-167.5 278,-186.5 322,-186.5 322,-167.5 278,-167.5"/>
<text text-anchor="middle" x="300" y="-174.5" font-family="Helvetica,sans-Serif" font-size="10.00">string</text>
</a>
</g>
</g>
<!-- Node7&#45;&gt;Node2 -->
<g id="edge6" class="edge">
<title>Node7&#45;&gt;Node2</title>
<path fill="none" stroke="#9a32cd" stroke-dasharray="5,2" d="M295.09,-157.46C291.4,-145.2 285.66,-129.04 278,-116 272.79,-107.14 265.06,-98.39 259.04,-92.2"/>
<polygon fill="#9a32cd" stroke="#9a32cd" points="291.82,-158.75 297.9,-167.43 298.56,-156.85 291.82,-158.75"/>
<text text-anchor="middle" x="321" y="-141" font-family="Helvetica,sans-Serif" font-size="10.00"> className</text>
<text text-anchor="middle" x="321" y="-130" font-family="Helvetica,sans-Serif" font-size="10.00">name</text>
<text text-anchor="middle" x="321" y="-119" font-family="Helvetica,sans-Serif" font-size="10.00">description</text>
</g>
<!-- Node8 -->
<g id="node8" class="node">
<title>Node8</title>
<g id="a_node8"><a xlink:title=" ">
<polygon fill="white" stroke="#bfbfbf" points="340.5,-167.5 340.5,-186.5 441.5,-186.5 441.5,-167.5 340.5,-167.5"/>
<text text-anchor="middle" x="391" y="-174.5" font-family="Helvetica,sans-Serif" font-size="10.00">SpecialProperties</text>
</a>
</g>
</g>
<!-- Node8&#45;&gt;Node2 -->
<g id="edge7" class="edge">
<title>Node8&#45;&gt;Node2</title>
<path fill="none" stroke="#9a32cd" stroke-dasharray="5,2" d="M383.89,-157.7C377.83,-144.35 367.88,-126.78 354,-116 343.32,-107.7 312.12,-98.53 286.66,-92.06"/>
<polygon fill="#9a32cd" stroke="#9a32cd" points="380.82,-159.42 387.92,-167.28 387.27,-156.71 380.82,-159.42"/>
<text text-anchor="middle" x="405.5" y="-130" font-family="Helvetica,sans-Serif" font-size="10.00"> properties</text>
</g>
<!-- Node9 -->
<g id="node9" class="node">
<title>Node9</title>
<g id="a_node9"><a xlink:title=" ">
<polygon fill="white" stroke="#bfbfbf" points="324.5,-67.5 324.5,-97.5 437.5,-97.5 437.5,-67.5 324.5,-67.5"/>
<text text-anchor="start" x="332.5" y="-85.5" font-family="Helvetica,sans-Serif" font-size="10.00">shared_ptr&lt; Catch::</text>
<text text-anchor="middle" x="381" y="-74.5" font-family="Helvetica,sans-Serif" font-size="10.00">ITestInvoker &gt;</text>
</a>
</g>
</g>
<!-- Node9&#45;&gt;Node1 -->
<g id="edge8" class="edge">
<title>Node9&#45;&gt;Node1</title>
<path fill="none" stroke="#9a32cd" stroke-dasharray="5,2" d="M360.65,-59.76C348.09,-46.34 332.65,-29.85 323.33,-19.89"/>
<polygon fill="#9a32cd" stroke="#9a32cd" points="358.25,-62.33 367.64,-67.23 363.36,-57.54 358.25,-62.33"/>
<text text-anchor="middle" x="360" y="-41" font-family="Helvetica,sans-Serif" font-size="10.00"> test</text>
</g>
</g>
</svg>
