<?xml version="1.0" encoding="UTF-8" standalone="no"?>
<!DOCTYPE svg PUBLIC "-//W3C//DTD SVG 1.1//EN"
 "http://www.w3.org/Graphics/SVG/1.1/DTD/svg11.dtd">
<!-- Generated by graphviz version 2.43.0 (0)
 -->
<!-- Title: irr::gui::GUISkin Pages: 1 -->
<svg width="732pt" height="379pt"
 viewBox="0.00 0.00 732.00 379.00" xmlns="http://www.w3.org/2000/svg" xmlns:xlink="http://www.w3.org/1999/xlink">
<g id="graph0" class="graph" transform="scale(1 1) rotate(0) translate(4 375)">
<title>irr::gui::GUISkin</title>
<polygon fill="white" stroke="transparent" points="-4,4 -4,-375 728,-375 728,4 -4,4"/>
<!-- Node1 -->
<g id="node1" class="node">
<title>Node1</title>
<g id="a_node1"><a xlink:title=" ">
<polygon fill="#bfbfbf" stroke="black" points="631,-179.5 631,-198.5 724,-198.5 724,-179.5 631,-179.5"/>
<text text-anchor="middle" x="677.5" y="-186.5" font-family="Helvetica,sans-Serif" font-size="10.00">irr::gui::GUISkin</text>
</a>
</g>
</g>
<!-- Node2 -->
<g id="node2" class="node">
<title>Node2</title>
<g id="a_node2"><a xlink:href="classirr_1_1gui_1_1IGUISkin.html" target="_top" xlink:title="A skin modifies the look of the GUI elements.">
<polygon fill="white" stroke="black" points="419,-351.5 419,-370.5 515,-370.5 515,-351.5 419,-351.5"/>
<text text-anchor="middle" x="467" y="-358.5" font-family="Helvetica,sans-Serif" font-size="10.00">irr::gui::IGUISkin</text>
</a>
</g>
</g>
<!-- Node2&#45;&gt;Node1 -->
<g id="edge1" class="edge">
<title>Node2&#45;&gt;Node1</title>
<path fill="none" stroke="midnightblue" d="M525.12,-360.66C554.18,-357.76 588.45,-349.82 613,-330 656.24,-295.09 671.07,-224.45 675.16,-198.68"/>
<polygon fill="midnightblue" stroke="midnightblue" points="524.76,-357.18 515.08,-361.49 525.33,-364.16 524.76,-357.18"/>
</g>
<!-- Node3 -->
<g id="node3" class="node">
<title>Node3</title>
<g id="a_node3"><a xlink:href="classirr_1_1IReferenceCounted.html" target="_top" xlink:title="Base class of most objects of the Irrlicht Engine.">
<polygon fill="white" stroke="black" points="177,-275.5 177,-294.5 303,-294.5 303,-275.5 177,-275.5"/>
<text text-anchor="middle" x="240" y="-282.5" font-family="Helvetica,sans-Serif" font-size="10.00">irr::IReferenceCounted</text>
</a>
</g>
</g>
<!-- Node3&#45;&gt;Node2 -->
<g id="edge2" class="edge">
<title>Node3&#45;&gt;Node2</title>
<path fill="none" stroke="midnightblue" d="M272.1,-298.7C286.8,-304.95 304.66,-312.22 321,-318 357.76,-330.99 400.67,-343.38 430.22,-351.5"/>
<polygon fill="midnightblue" stroke="midnightblue" points="273.07,-295.31 262.5,-294.57 270.3,-301.74 273.07,-295.31"/>
</g>
<!-- Node11 -->
<g id="node11" class="node">
<title>Node11</title>
<g id="a_node11"><a xlink:href="classirr_1_1gui_1_1IGUIFont.html" target="_top" xlink:title="Font interface.">
<polygon fill="white" stroke="black" points="419,-313.5 419,-332.5 515,-332.5 515,-313.5 419,-313.5"/>
<text text-anchor="middle" x="467" y="-320.5" font-family="Helvetica,sans-Serif" font-size="10.00">irr::gui::IGUIFont</text>
</a>
</g>
</g>
<!-- Node3&#45;&gt;Node11 -->
<g id="edge12" class="edge">
<title>Node3&#45;&gt;Node11</title>
<path fill="none" stroke="midnightblue" d="M305.37,-296.32C310.66,-297.23 315.92,-298.13 321,-299 353.7,-304.57 390.58,-310.67 418.96,-315.33"/>
<polygon fill="midnightblue" stroke="midnightblue" points="305.66,-292.82 295.21,-294.56 304.47,-299.71 305.66,-292.82"/>
</g>
<!-- Node13 -->
<g id="node13" class="node">
<title>Node13</title>
<g id="a_node13"><a xlink:href="classirr_1_1video_1_1IVideoDriver.html" target="_top" xlink:title="Interface to driver which is able to perform 2d and 3d graphics functions.">
<polygon fill="white" stroke="black" points="403.5,-275.5 403.5,-294.5 530.5,-294.5 530.5,-275.5 403.5,-275.5"/>
<text text-anchor="middle" x="467" y="-282.5" font-family="Helvetica,sans-Serif" font-size="10.00">irr::video::IVideoDriver</text>
</a>
</g>
</g>
<!-- Node3&#45;&gt;Node13 -->
<g id="edge16" class="edge">
<title>Node3&#45;&gt;Node13</title>
<path fill="none" stroke="midnightblue" d="M313.16,-285C342.19,-285 375.35,-285 403.34,-285"/>
<polygon fill="midnightblue" stroke="midnightblue" points="313.08,-281.5 303.08,-285 313.08,-288.5 313.08,-281.5"/>
</g>
<!-- Node14 -->
<g id="node14" class="node">
<title>Node14</title>
<g id="a_node14"><a xlink:href="classirr_1_1gui_1_1IGUISpriteBank.html" target="_top" xlink:title="Sprite bank interface.">
<polygon fill="white" stroke="black" points="403,-237.5 403,-256.5 531,-256.5 531,-237.5 403,-237.5"/>
<text text-anchor="middle" x="467" y="-244.5" font-family="Helvetica,sans-Serif" font-size="10.00">irr::gui::IGUISpriteBank</text>
</a>
</g>
</g>
<!-- Node3&#45;&gt;Node14 -->
<g id="edge18" class="edge">
<title>Node3&#45;&gt;Node14</title>
<path fill="none" stroke="midnightblue" d="M307.77,-273.72C340.14,-268.26 378.59,-261.76 409.49,-256.54"/>
<polygon fill="midnightblue" stroke="midnightblue" points="306.76,-270.34 297.49,-275.46 307.93,-277.25 306.76,-270.34"/>
</g>
<!-- Node4 -->
<g id="node4" class="node">
<title>Node4</title>
<g id="a_node4"><a xlink:title=" ">
<polygon fill="white" stroke="#bfbfbf" points="6,-275.5 6,-294.5 44,-294.5 44,-275.5 6,-275.5"/>
<text text-anchor="middle" x="25" y="-282.5" font-family="Helvetica,sans-Serif" font-size="10.00">char</text>
</a>
</g>
</g>
<!-- Node4&#45;&gt;Node3 -->
<g id="edge3" class="edge">
<title>Node4&#45;&gt;Node3</title>
<path fill="none" stroke="#9a32cd" stroke-dasharray="5,2" d="M54.29,-285C85.39,-285 136.34,-285 176.86,-285"/>
<polygon fill="#9a32cd" stroke="#9a32cd" points="54.16,-281.5 44.16,-285 54.16,-288.5 54.16,-281.5"/>
<text text-anchor="middle" x="113.5" y="-288" font-family="Helvetica,sans-Serif" font-size="10.00"> DebugName</text>
</g>
<!-- Node5 -->
<g id="node5" class="node">
<title>Node5</title>
<g id="a_node5"><a xlink:title=" ">
<polygon fill="white" stroke="#bfbfbf" points="0,-218.5 0,-237.5 50,-237.5 50,-218.5 0,-218.5"/>
<text text-anchor="middle" x="25" y="-225.5" font-family="Helvetica,sans-Serif" font-size="10.00">int32_t</text>
</a>
</g>
</g>
<!-- Node5&#45;&gt;Node1 -->
<g id="edge10" class="edge">
<title>Node5&#45;&gt;Node1</title>
<path fill="none" stroke="#9a32cd" stroke-dasharray="5,2" d="M60.26,-226.26C150.66,-221.63 403.08,-208.34 613,-194 618.74,-193.61 624.76,-193.17 630.72,-192.72"/>
<polygon fill="#9a32cd" stroke="#9a32cd" points="59.86,-222.78 50.05,-226.79 60.22,-229.77 59.86,-222.78"/>
<text text-anchor="middle" x="353" y="-214" font-family="Helvetica,sans-Serif" font-size="10.00"> Sizes</text>
</g>
<!-- Node5&#45;&gt;Node3 -->
<g id="edge4" class="edge">
<title>Node5&#45;&gt;Node3</title>
<path fill="none" stroke="#9a32cd" stroke-dasharray="5,2" d="M59.9,-237.07C99.14,-247.57 163.46,-264.78 203.4,-275.47"/>
<polygon fill="#9a32cd" stroke="#9a32cd" points="60.58,-233.63 50.02,-234.43 58.78,-240.39 60.58,-233.63"/>
<text text-anchor="middle" x="113.5" y="-266" font-family="Helvetica,sans-Serif" font-size="10.00"> ReferenceCounter</text>
</g>
<!-- Node6 -->
<g id="node6" class="node">
<title>Node6</title>
<g id="a_node6"><a xlink:href="classirr_1_1video_1_1SColor.html" target="_top" xlink:title="Class representing a 32 bit ARGB color.">
<polygon fill="white" stroke="black" points="418,-114.5 418,-133.5 516,-133.5 516,-114.5 418,-114.5"/>
<text text-anchor="middle" x="467" y="-121.5" font-family="Helvetica,sans-Serif" font-size="10.00">irr::video::SColor</text>
</a>
</g>
</g>
<!-- Node6&#45;&gt;Node1 -->
<g id="edge5" class="edge">
<title>Node6&#45;&gt;Node1</title>
<path fill="none" stroke="#9a32cd" stroke-dasharray="5,2" d="M526.23,-126.3C553.36,-128.9 585.61,-134.22 613,-145 633.47,-153.05 653.77,-168.85 665.72,-179.16"/>
<polygon fill="#9a32cd" stroke="#9a32cd" points="526.37,-122.8 516.11,-125.43 525.77,-129.77 526.37,-122.8"/>
<text text-anchor="middle" x="581" y="-148" font-family="Helvetica,sans-Serif" font-size="10.00"> Colors</text>
</g>
<!-- Node7 -->
<g id="node7" class="node">
<title>Node7</title>
<g id="a_node7"><a xlink:title=" ">
<polygon fill="white" stroke="#bfbfbf" points="212,-142.5 212,-161.5 268,-161.5 268,-142.5 212,-142.5"/>
<text text-anchor="middle" x="240" y="-149.5" font-family="Helvetica,sans-Serif" font-size="10.00">uint32_t</text>
</a>
</g>
</g>
<!-- Node7&#45;&gt;Node1 -->
<g id="edge13" class="edge">
<title>Node7&#45;&gt;Node1</title>
<path fill="none" stroke="#9a32cd" stroke-dasharray="5,2" d="M278.3,-155.17C357.88,-161.93 544.13,-177.75 630.72,-185.11"/>
<polygon fill="#9a32cd" stroke="#9a32cd" points="278.5,-151.67 268.24,-154.31 277.91,-158.65 278.5,-151.67"/>
<text text-anchor="middle" x="467" y="-179" font-family="Helvetica,sans-Serif" font-size="10.00"> Icons</text>
</g>
<!-- Node7&#45;&gt;Node6 -->
<g id="edge6" class="edge">
<title>Node7&#45;&gt;Node6</title>
<path fill="none" stroke="#9a32cd" stroke-dasharray="5,2" d="M278.32,-147.36C316.55,-142.6 376.13,-135.18 417.88,-129.99"/>
<polygon fill="#9a32cd" stroke="#9a32cd" points="277.63,-143.91 268.14,-148.62 278.5,-150.86 277.63,-143.91"/>
<text text-anchor="middle" x="353" y="-144" font-family="Helvetica,sans-Serif" font-size="10.00"> color</text>
</g>
<!-- Node8 -->
<g id="node8" class="node">
<title>Node8</title>
<g id="a_node8"><a xlink:title=" ">
<polygon fill="white" stroke="#bfbfbf" points="418,-76.5 418,-95.5 516,-95.5 516,-76.5 418,-76.5"/>
<text text-anchor="middle" x="467" y="-83.5" font-family="Helvetica,sans-Serif" font-size="10.00">EGUI_SKIN_TYPE</text>
</a>
</g>
</g>
<!-- Node8&#45;&gt;Node1 -->
<g id="edge7" class="edge">
<title>Node8&#45;&gt;Node1</title>
<path fill="none" stroke="#9a32cd" stroke-dasharray="5,2" d="M526.21,-88.32C554.04,-91.58 586.89,-98.72 613,-114 640.68,-130.2 661.95,-163.05 671.3,-179.37"/>
<polygon fill="#9a32cd" stroke="#9a32cd" points="526.51,-84.83 516.21,-87.28 525.8,-91.79 526.51,-84.83"/>
<text text-anchor="middle" x="581" y="-117" font-family="Helvetica,sans-Serif" font-size="10.00"> Type</text>
</g>
<!-- Node9 -->
<g id="node9" class="node">
<title>Node9</title>
<g id="a_node9"><a xlink:title=" ">
<polygon fill="white" stroke="#bfbfbf" points="414.5,-38.5 414.5,-57.5 519.5,-57.5 519.5,-38.5 414.5,-38.5"/>
<text text-anchor="middle" x="467" y="-45.5" font-family="Helvetica,sans-Serif" font-size="10.00">string&lt; wchar_t &gt;</text>
</a>
</g>
</g>
<!-- Node9&#45;&gt;Node1 -->
<g id="edge8" class="edge">
<title>Node9&#45;&gt;Node1</title>
<path fill="none" stroke="#9a32cd" stroke-dasharray="5,2" d="M529.82,-48.96C557.45,-52.1 589.1,-59.71 613,-77 649.4,-103.33 667.79,-157.36 674.01,-179.36"/>
<polygon fill="#9a32cd" stroke="#9a32cd" points="530.13,-45.48 519.84,-48 529.46,-52.45 530.13,-45.48"/>
<text text-anchor="middle" x="581" y="-80" font-family="Helvetica,sans-Serif" font-size="10.00"> Texts</text>
</g>
<!-- Node10 -->
<g id="node10" class="node">
<title>Node10</title>
<g id="a_node10"><a xlink:title=" ">
<polygon fill="white" stroke="#bfbfbf" points="218,-38.5 218,-57.5 262,-57.5 262,-38.5 218,-38.5"/>
<text text-anchor="middle" x="240" y="-45.5" font-family="Helvetica,sans-Serif" font-size="10.00">string</text>
</a>
</g>
</g>
<!-- Node10&#45;&gt;Node9 -->
<g id="edge9" class="edge">
<title>Node10&#45;&gt;Node9</title>
<path fill="none" stroke="orange" stroke-dasharray="5,2" d="M272.29,-48C309.06,-48 370.61,-48 414.46,-48"/>
<polygon fill="orange" stroke="orange" points="272.17,-44.5 262.17,-48 272.17,-51.5 272.17,-44.5"/>
<text text-anchor="middle" x="353" y="-51" font-family="Helvetica,sans-Serif" font-size="10.00"> &lt; wchar_t &gt;</text>
</g>
<!-- Node11&#45;&gt;Node1 -->
<g id="edge11" class="edge">
<title>Node11&#45;&gt;Node1</title>
<path fill="none" stroke="#9a32cd" stroke-dasharray="5,2" d="M525.39,-319.69C553.89,-315.66 587.56,-307.07 613,-289 646.03,-265.54 665.83,-218.97 673.2,-198.75"/>
<polygon fill="#9a32cd" stroke="#9a32cd" points="524.64,-316.26 515.15,-320.98 525.51,-323.2 524.64,-316.26"/>
<text text-anchor="middle" x="581" y="-318" font-family="Helvetica,sans-Serif" font-size="10.00"> Fonts</text>
</g>
<!-- Node12 -->
<g id="node12" class="node">
<title>Node12</title>
<g id="a_node12"><a xlink:href="classbool.html" target="_top" xlink:title=" ">
<polygon fill="white" stroke="black" points="448,-0.5 448,-19.5 486,-19.5 486,-0.5 448,-0.5"/>
<text text-anchor="middle" x="467" y="-7.5" font-family="Helvetica,sans-Serif" font-size="10.00">bool</text>
</a>
</g>
</g>
<!-- Node12&#45;&gt;Node1 -->
<g id="edge14" class="edge">
<title>Node12&#45;&gt;Node1</title>
<path fill="none" stroke="#9a32cd" stroke-dasharray="5,2" d="M496.68,-7.77C528.55,-6.85 579.86,-10.22 613,-37 659.49,-74.57 672.4,-152.1 675.57,-179.31"/>
<polygon fill="#9a32cd" stroke="#9a32cd" points="496.12,-4.29 486.29,-8.24 496.43,-11.28 496.12,-4.29"/>
<text text-anchor="middle" x="581" y="-40" font-family="Helvetica,sans-Serif" font-size="10.00"> UseGradient</text>
</g>
<!-- Node13&#45;&gt;Node1 -->
<g id="edge15" class="edge">
<title>Node13&#45;&gt;Node1</title>
<path fill="none" stroke="#9a32cd" stroke-dasharray="5,2" d="M540.83,-276.6C564.85,-271.74 591.03,-264.08 613,-252 637.5,-238.53 658.94,-212.86 669.51,-198.8"/>
<polygon fill="#9a32cd" stroke="#9a32cd" points="539.87,-273.22 530.69,-278.52 541.16,-280.1 539.87,-273.22"/>
<text text-anchor="middle" x="581" y="-277" font-family="Helvetica,sans-Serif" font-size="10.00"> Driver</text>
</g>
<!-- Node14&#45;&gt;Node1 -->
<g id="edge17" class="edge">
<title>Node14&#45;&gt;Node1</title>
<path fill="none" stroke="#9a32cd" stroke-dasharray="5,2" d="M541.31,-238.86C564.61,-235.08 590.23,-229.67 613,-222 630.43,-216.13 648.93,-206.02 661.43,-198.53"/>
<polygon fill="#9a32cd" stroke="#9a32cd" points="540.49,-235.44 531.14,-240.43 541.56,-242.36 540.49,-235.44"/>
<text text-anchor="middle" x="581" y="-240" font-family="Helvetica,sans-Serif" font-size="10.00"> SpriteBank</text>
</g>
</g>
</svg>
