<?xml version="1.0" encoding="UTF-8" standalone="no"?>
<!DOCTYPE svg PUBLIC "-//W3C//DTD SVG 1.1//EN"
 "http://www.w3.org/Graphics/SVG/1.1/DTD/svg11.dtd">
<!-- Generated by graphviz version 2.43.0 (0)
 -->
<!-- Title: MinimapUpdateThread Pages: 1 -->
<svg width="1702pt" height="1067pt"
 viewBox="0.00 0.00 1702.00 1067.00" xmlns="http://www.w3.org/2000/svg" xmlns:xlink="http://www.w3.org/1999/xlink">
<g id="graph0" class="graph" transform="scale(1 1) rotate(0) translate(4 1063)">
<title>MinimapUpdateThread</title>
<polygon fill="white" stroke="transparent" points="-4,4 -4,-1063 1698,-1063 1698,4 -4,4"/>
<!-- Node1 -->
<g id="node1" class="node">
<title>Node1</title>
<g id="a_node1"><a xlink:title=" ">
<polygon fill="#bfbfbf" stroke="black" points="1566,-715.5 1566,-734.5 1694,-734.5 1694,-715.5 1566,-715.5"/>
<text text-anchor="middle" x="1630" y="-722.5" font-family="Helvetica,sans-Serif" font-size="10.00">MinimapUpdateThread</text>
</a>
</g>
</g>
<!-- Node2 -->
<g id="node2" class="node">
<title>Node2</title>
<g id="a_node2"><a xlink:href="classUpdateThread.html" target="_top" xlink:title=" ">
<polygon fill="white" stroke="black" points="1306.5,-836.5 1306.5,-855.5 1392.5,-855.5 1392.5,-836.5 1306.5,-836.5"/>
<text text-anchor="middle" x="1349.5" y="-843.5" font-family="Helvetica,sans-Serif" font-size="10.00">UpdateThread</text>
</a>
</g>
</g>
<!-- Node2&#45;&gt;Node1 -->
<g id="edge1" class="edge">
<title>Node2&#45;&gt;Node1</title>
<path fill="none" stroke="midnightblue" d="M1382.07,-832.28C1439.07,-807.52 1557.81,-755.93 1606.96,-734.58"/>
<polygon fill="midnightblue" stroke="midnightblue" points="1380.6,-829.11 1372.82,-836.3 1383.39,-835.53 1380.6,-829.11"/>
</g>
<!-- Node3 -->
<g id="node3" class="node">
<title>Node3</title>
<g id="a_node3"><a xlink:href="classThread.html" target="_top" xlink:title=" ">
<polygon fill="white" stroke="black" points="1016,-904.5 1016,-923.5 1066,-923.5 1066,-904.5 1016,-904.5"/>
<text text-anchor="middle" x="1041" y="-911.5" font-family="Helvetica,sans-Serif" font-size="10.00">Thread</text>
</a>
</g>
</g>
<!-- Node3&#45;&gt;Node2 -->
<g id="edge2" class="edge">
<title>Node3&#45;&gt;Node2</title>
<path fill="none" stroke="midnightblue" d="M1075.89,-906.48C1132.22,-893.98 1245,-868.96 1306.36,-855.35"/>
<polygon fill="midnightblue" stroke="midnightblue" points="1075.06,-903.08 1066.05,-908.66 1076.57,-909.92 1075.06,-903.08"/>
</g>
<!-- Node4 -->
<g id="node4" class="node">
<title>Node4</title>
<g id="a_node4"><a xlink:title=" ">
<polygon fill="white" stroke="#bfbfbf" points="741,-1039.5 741,-1058.5 789,-1058.5 789,-1039.5 741,-1039.5"/>
<text text-anchor="middle" x="765" y="-1046.5" font-family="Helvetica,sans-Serif" font-size="10.00">mutex</text>
</a>
</g>
</g>
<!-- Node4&#45;&gt;Node1 -->
<g id="edge55" class="edge">
<title>Node4&#45;&gt;Node1</title>
<path fill="none" stroke="#9a32cd" stroke-dasharray="5,2" d="M799.2,-1052.98C839.33,-1056.93 908.76,-1060.94 967,-1050 1189.66,-1008.17 1241.81,-971.07 1442,-865 1515.46,-826.08 1591.18,-759.72 1618.44,-734.82"/>
<polygon fill="#9a32cd" stroke="#9a32cd" points="799.47,-1049.49 789.17,-1051.94 798.75,-1056.46 799.47,-1049.49"/>
<text text-anchor="middle" x="1177" y="-1018" font-family="Helvetica,sans-Serif" font-size="10.00"> m_queue_mutex</text>
</g>
<!-- Node4&#45;&gt;Node3 -->
<g id="edge3" class="edge">
<title>Node4&#45;&gt;Node3</title>
<path fill="none" stroke="#9a32cd" stroke-dasharray="5,2" d="M798.94,-1039.81C813.33,-1035.93 830.45,-1031.52 846,-1028 899.39,-1015.93 920.08,-1033.2 967,-1005 1000.85,-984.65 1025.49,-942.5 1035.31,-923.57"/>
<polygon fill="#9a32cd" stroke="#9a32cd" points="797.73,-1036.51 789,-1042.51 799.57,-1043.26 797.73,-1036.51"/>
<text text-anchor="middle" x="906.5" y="-1042" font-family="Helvetica,sans-Serif" font-size="10.00"> m_start_finished_mutex</text>
<text text-anchor="middle" x="906.5" y="-1031" font-family="Helvetica,sans-Serif" font-size="10.00">m_mutex</text>
</g>
<!-- Node5 -->
<g id="node5" class="node">
<title>Node5</title>
<g id="a_node5"><a xlink:title=" ">
<polygon fill="white" stroke="#bfbfbf" points="737,-947.5 737,-966.5 793,-966.5 793,-947.5 737,-947.5"/>
<text text-anchor="middle" x="765" y="-954.5" font-family="Helvetica,sans-Serif" font-size="10.00">thread *</text>
</a>
</g>
</g>
<!-- Node5&#45;&gt;Node3 -->
<g id="edge4" class="edge">
<title>Node5&#45;&gt;Node3</title>
<path fill="none" stroke="#9a32cd" stroke-dasharray="5,2" d="M803.5,-955.58C844.13,-953.5 910.71,-948.54 967,-937 983.66,-933.58 1001.91,-927.83 1016,-922.94"/>
<polygon fill="#9a32cd" stroke="#9a32cd" points="803.07,-952.09 793.25,-956.07 803.41,-959.09 803.07,-952.09"/>
<text text-anchor="middle" x="906.5" y="-955" font-family="Helvetica,sans-Serif" font-size="10.00"> m_thread_obj</text>
</g>
<!-- Node6 -->
<g id="node6" class="node">
<title>Node6</title>
<g id="a_node6"><a xlink:href="classbool.html" target="_top" xlink:title=" ">
<polygon fill="white" stroke="black" points="746,-420.5 746,-439.5 784,-439.5 784,-420.5 746,-420.5"/>
<text text-anchor="middle" x="765" y="-427.5" font-family="Helvetica,sans-Serif" font-size="10.00">bool</text>
</a>
</g>
</g>
<!-- Node6&#45;&gt;Node3 -->
<g id="edge5" class="edge">
<title>Node6&#45;&gt;Node3</title>
<path fill="none" stroke="#9a32cd" stroke-dasharray="5,2" d="M794.13,-435.4C806.54,-439.28 820.07,-445.87 828,-457 857.99,-499.12 819.38,-644.67 846,-689 878.81,-743.65 931.43,-713.1 967,-766 991.95,-803.11 963.11,-826 985,-865 994.39,-881.73 1011.66,-895.68 1024.35,-904.36"/>
<polygon fill="#9a32cd" stroke="#9a32cd" points="794.69,-431.92 784.12,-432.74 792.89,-438.69 794.69,-431.92"/>
<text text-anchor="middle" x="906.5" y="-769" font-family="Helvetica,sans-Serif" font-size="10.00"> m_joinable</text>
</g>
<!-- Node13 -->
<g id="node13" class="node">
<title>Node13</title>
<g id="a_node13"><a xlink:href="structMinimapData.html" target="_top" xlink:title=" ">
<polygon fill="white" stroke="black" points="1308,-636.5 1308,-655.5 1391,-655.5 1391,-636.5 1308,-636.5"/>
<text text-anchor="middle" x="1349.5" y="-643.5" font-family="Helvetica,sans-Serif" font-size="10.00">MinimapData</text>
</a>
</g>
</g>
<!-- Node6&#45;&gt;Node13 -->
<g id="edge45" class="edge">
<title>Node6&#45;&gt;Node13</title>
<path fill="none" stroke="#9a32cd" stroke-dasharray="5,2" d="M794.53,-426.46C852.53,-420.16 987.97,-410.04 1097,-437 1165.5,-453.94 1197.51,-450.93 1239,-508 1270.45,-551.26 1220.22,-588.16 1257,-627 1269.94,-640.67 1289.94,-645.85 1307.94,-647.43"/>
<polygon fill="#9a32cd" stroke="#9a32cd" points="793.85,-423.01 784.31,-427.62 794.64,-429.97 793.85,-423.01"/>
<text text-anchor="middle" x="1041" y="-451" font-family="Helvetica,sans-Serif" font-size="10.00"> map_invalidated</text>
<text text-anchor="middle" x="1041" y="-440" font-family="Helvetica,sans-Serif" font-size="10.00">minimap_shape_round</text>
</g>
<!-- Node14 -->
<g id="node14" class="node">
<title>Node14</title>
<g id="a_node14"><a xlink:href="classirr_1_1video_1_1IImage.html" target="_top" xlink:title="Interface for software image data.">
<polygon fill="white" stroke="black" points="991,-468.5 991,-487.5 1091,-487.5 1091,-468.5 991,-468.5"/>
<text text-anchor="middle" x="1041" y="-475.5" font-family="Helvetica,sans-Serif" font-size="10.00">irr::video::IImage</text>
</a>
</g>
</g>
<!-- Node6&#45;&gt;Node14 -->
<g id="edge23" class="edge">
<title>Node6&#45;&gt;Node14</title>
<path fill="none" stroke="#9a32cd" stroke-dasharray="5,2" d="M794.14,-433.95C833.09,-439.55 905.59,-450.39 967,-462 977.2,-463.93 988.15,-466.21 998.39,-468.44"/>
<polygon fill="#9a32cd" stroke="#9a32cd" points="794.47,-430.47 784.08,-432.52 793.48,-437.4 794.47,-430.47"/>
<text text-anchor="middle" x="906.5" y="-476" font-family="Helvetica,sans-Serif" font-size="10.00"> DeleteMemory</text>
<text text-anchor="middle" x="906.5" y="-465" font-family="Helvetica,sans-Serif" font-size="10.00">DeleteMipMapsMemory</text>
</g>
<!-- Node24 -->
<g id="node24" class="node">
<title>Node24</title>
<g id="a_node24"><a xlink:href="classirr_1_1video_1_1ITexture.html" target="_top" xlink:title="Interface of a Video Driver dependent Texture.">
<polygon fill="white" stroke="black" points="988.5,-153.5 988.5,-172.5 1093.5,-172.5 1093.5,-153.5 988.5,-153.5"/>
<text text-anchor="middle" x="1041" y="-160.5" font-family="Helvetica,sans-Serif" font-size="10.00">irr::video::ITexture</text>
</a>
</g>
</g>
<!-- Node6&#45;&gt;Node24 -->
<g id="edge39" class="edge">
<title>Node6&#45;&gt;Node24</title>
<path fill="none" stroke="#9a32cd" stroke-dasharray="5,2" d="M793.52,-421.48C805.33,-416.7 818.56,-409.71 828,-400 841.59,-386.02 830.79,-372.2 846,-360 888.84,-325.65 924.53,-369.81 967,-335 1020.19,-291.41 1035.35,-202.06 1038.99,-172.63"/>
<polygon fill="#9a32cd" stroke="#9a32cd" points="792.21,-418.23 784.04,-424.98 794.64,-424.8 792.21,-418.23"/>
<text text-anchor="middle" x="906.5" y="-374" font-family="Helvetica,sans-Serif" font-size="10.00"> IsRenderTarget</text>
<text text-anchor="middle" x="906.5" y="-363" font-family="Helvetica,sans-Serif" font-size="10.00">HasMipMaps</text>
</g>
<!-- Node7 -->
<g id="node7" class="node">
<title>Node7</title>
<g id="a_node7"><a xlink:title=" ">
<polygon fill="white" stroke="#bfbfbf" points="743,-810.5 743,-829.5 787,-829.5 787,-810.5 743,-810.5"/>
<text text-anchor="middle" x="765" y="-817.5" font-family="Helvetica,sans-Serif" font-size="10.00">string</text>
</a>
</g>
</g>
<!-- Node7&#45;&gt;Node3 -->
<g id="edge6" class="edge">
<title>Node7&#45;&gt;Node3</title>
<path fill="none" stroke="#9a32cd" stroke-dasharray="5,2" d="M797.14,-826.18C807.45,-829.08 818.67,-833.22 828,-839 837.89,-845.13 836.06,-851.95 846,-858 874.9,-875.59 970.49,-898.49 1015.79,-908.69"/>
<polygon fill="#9a32cd" stroke="#9a32cd" points="797.79,-822.73 787.23,-823.67 796.07,-829.52 797.79,-822.73"/>
<text text-anchor="middle" x="906.5" y="-899" font-family="Helvetica,sans-Serif" font-size="10.00"> m_name</text>
</g>
<!-- Node34 -->
<g id="node34" class="node">
<title>Node34</title>
<g id="a_node34"><a xlink:href="structMinimapModeDef.html" target="_top" xlink:title=" ">
<polygon fill="white" stroke="black" points="989,-668.5 989,-687.5 1093,-687.5 1093,-668.5 989,-668.5"/>
<text text-anchor="middle" x="1041" y="-675.5" font-family="Helvetica,sans-Serif" font-size="10.00">MinimapModeDef</text>
</a>
</g>
</g>
<!-- Node7&#45;&gt;Node34 -->
<g id="edge44" class="edge">
<title>Node7&#45;&gt;Node34</title>
<path fill="none" stroke="#9a32cd" stroke-dasharray="5,2" d="M797.25,-817.59C847.44,-813.08 942.84,-801.72 967,-779 989.46,-757.88 966.59,-736.74 985,-712 992.98,-701.28 1005.42,-693.18 1016.46,-687.58"/>
<polygon fill="#9a32cd" stroke="#9a32cd" points="796.93,-814.1 787.27,-818.45 797.53,-821.08 796.93,-814.1"/>
<text text-anchor="middle" x="906.5" y="-825" font-family="Helvetica,sans-Serif" font-size="10.00"> texture</text>
<text text-anchor="middle" x="906.5" y="-814" font-family="Helvetica,sans-Serif" font-size="10.00">label</text>
</g>
<!-- Node8 -->
<g id="node8" class="node">
<title>Node8</title>
<g id="a_node8"><a xlink:title=" ">
<polygon fill="white" stroke="#bfbfbf" points="718,-904.5 718,-923.5 812,-923.5 812,-904.5 718,-904.5"/>
<text text-anchor="middle" x="765" y="-911.5" font-family="Helvetica,sans-Serif" font-size="10.00">atomic&lt; bool &gt;</text>
</a>
</g>
</g>
<!-- Node8&#45;&gt;Node3 -->
<g id="edge7" class="edge">
<title>Node8&#45;&gt;Node3</title>
<path fill="none" stroke="#9a32cd" stroke-dasharray="5,2" d="M822.52,-914C881.96,-914 972.71,-914 1015.74,-914"/>
<polygon fill="#9a32cd" stroke="#9a32cd" points="822.17,-910.5 812.17,-914 822.17,-917.5 822.17,-910.5"/>
<text text-anchor="middle" x="906.5" y="-928" font-family="Helvetica,sans-Serif" font-size="10.00"> m_running</text>
<text text-anchor="middle" x="906.5" y="-917" font-family="Helvetica,sans-Serif" font-size="10.00">m_request_stop</text>
</g>
<!-- Node9 -->
<g id="node9" class="node">
<title>Node9</title>
<g id="a_node9"><a xlink:title=" ">
<polygon fill="white" stroke="#bfbfbf" points="742,-985.5 742,-1004.5 788,-1004.5 788,-985.5 742,-985.5"/>
<text text-anchor="middle" x="765" y="-992.5" font-family="Helvetica,sans-Serif" font-size="10.00">void *</text>
</a>
</g>
</g>
<!-- Node9&#45;&gt;Node3 -->
<g id="edge8" class="edge">
<title>Node9&#45;&gt;Node3</title>
<path fill="none" stroke="#9a32cd" stroke-dasharray="5,2" d="M798.16,-995.26C838.9,-994.54 910.61,-989.73 967,-967 992.27,-956.81 1016.92,-935.99 1030.11,-923.69"/>
<polygon fill="#9a32cd" stroke="#9a32cd" points="797.97,-991.76 788.01,-995.36 798.04,-998.76 797.97,-991.76"/>
<text text-anchor="middle" x="906.5" y="-995" font-family="Helvetica,sans-Serif" font-size="10.00"> m_retval</text>
</g>
<!-- Node10 -->
<g id="node10" class="node">
<title>Node10</title>
<g id="a_node10"><a xlink:href="classSemaphore.html" target="_top" xlink:title=" ">
<polygon fill="white" stroke="black" points="1005,-836.5 1005,-855.5 1077,-855.5 1077,-836.5 1005,-836.5"/>
<text text-anchor="middle" x="1041" y="-843.5" font-family="Helvetica,sans-Serif" font-size="10.00">Semaphore</text>
</a>
</g>
</g>
<!-- Node10&#45;&gt;Node2 -->
<g id="edge9" class="edge">
<title>Node10&#45;&gt;Node2</title>
<path fill="none" stroke="#9a32cd" stroke-dasharray="5,2" d="M1087.31,-846C1146.4,-846 1248.98,-846 1306.43,-846"/>
<polygon fill="#9a32cd" stroke="#9a32cd" points="1087.16,-842.5 1077.16,-846 1087.16,-849.5 1087.16,-842.5"/>
<text text-anchor="middle" x="1177" y="-849" font-family="Helvetica,sans-Serif" font-size="10.00"> m_update_sem</text>
</g>
<!-- Node11 -->
<g id="node11" class="node">
<title>Node11</title>
<g id="a_node11"><a xlink:title=" ">
<polygon fill="white" stroke="#bfbfbf" points="741.5,-848.5 741.5,-867.5 788.5,-867.5 788.5,-848.5 741.5,-848.5"/>
<text text-anchor="middle" x="765" y="-855.5" font-family="Helvetica,sans-Serif" font-size="10.00">sem_t</text>
</a>
</g>
</g>
<!-- Node11&#45;&gt;Node10 -->
<g id="edge10" class="edge">
<title>Node11&#45;&gt;Node10</title>
<path fill="none" stroke="#9a32cd" stroke-dasharray="5,2" d="M798.65,-852.52C813.11,-850.35 830.36,-848.11 846,-847 901.43,-843.06 966,-843.79 1004.9,-844.8"/>
<polygon fill="#9a32cd" stroke="#9a32cd" points="798.02,-849.08 788.68,-854.07 799.09,-855.99 798.02,-849.08"/>
<text text-anchor="middle" x="906.5" y="-850" font-family="Helvetica,sans-Serif" font-size="10.00"> semaphore</text>
</g>
<!-- Node12 -->
<g id="node12" class="node">
<title>Node12</title>
<g id="a_node12"><a xlink:title=" ">
<polygon fill="white" stroke="#bfbfbf" points="1280,-710 1280,-740 1419,-740 1419,-710 1280,-710"/>
<text text-anchor="start" x="1288" y="-728" font-family="Helvetica,sans-Serif" font-size="10.00">map&lt; irr::core::vector3d,</text>
<text text-anchor="middle" x="1349.5" y="-717" font-family="Helvetica,sans-Serif" font-size="10.00"> MinimapMapblock * &gt;</text>
</a>
</g>
</g>
<!-- Node12&#45;&gt;Node1 -->
<g id="edge11" class="edge">
<title>Node12&#45;&gt;Node1</title>
<path fill="none" stroke="#9a32cd" stroke-dasharray="5,2" d="M1429.52,-725C1472.65,-725 1525.32,-725 1565.71,-725"/>
<polygon fill="#9a32cd" stroke="#9a32cd" points="1429.34,-721.5 1419.34,-725 1429.34,-728.5 1429.34,-721.5"/>
<text text-anchor="middle" x="1504" y="-728" font-family="Helvetica,sans-Serif" font-size="10.00"> m_blocks_cache</text>
</g>
<!-- Node13&#45;&gt;Node1 -->
<g id="edge12" class="edge">
<title>Node13&#45;&gt;Node1</title>
<path fill="none" stroke="#9a32cd" stroke-dasharray="5,2" d="M1394,-658.34C1449.64,-674.12 1544.82,-701.12 1595.29,-715.44"/>
<polygon fill="#9a32cd" stroke="#9a32cd" points="1394.67,-654.89 1384.09,-655.53 1392.76,-661.63 1394.67,-654.89"/>
<text text-anchor="middle" x="1504" y="-704" font-family="Helvetica,sans-Serif" font-size="10.00"> data</text>
</g>
<!-- Node14&#45;&gt;Node13 -->
<g id="edge13" class="edge">
<title>Node14&#45;&gt;Node13</title>
<path fill="none" stroke="#9a32cd" stroke-dasharray="5,2" d="M1075.86,-491.54C1118.23,-509.83 1191.04,-545.9 1239,-595 1250.4,-606.67 1243.83,-617.37 1257,-627 1271.54,-637.63 1290.67,-642.62 1307.68,-644.85"/>
<polygon fill="#9a32cd" stroke="#9a32cd" points="1077.11,-488.27 1066.54,-487.59 1074.38,-494.71 1077.11,-488.27"/>
<text text-anchor="middle" x="1177" y="-609" font-family="Helvetica,sans-Serif" font-size="10.00"> minimap_mask_square</text>
<text text-anchor="middle" x="1177" y="-598" font-family="Helvetica,sans-Serif" font-size="10.00">minimap_mask_round</text>
</g>
<!-- Node15 -->
<g id="node15" class="node">
<title>Node15</title>
<g id="a_node15"><a xlink:href="classirr_1_1IReferenceCounted.html" target="_top" xlink:title="Base class of most objects of the Irrlicht Engine.">
<polygon fill="white" stroke="black" points="702,-152.5 702,-171.5 828,-171.5 828,-152.5 702,-152.5"/>
<text text-anchor="middle" x="765" y="-159.5" font-family="Helvetica,sans-Serif" font-size="10.00">irr::IReferenceCounted</text>
</a>
</g>
</g>
<!-- Node15&#45;&gt;Node14 -->
<g id="edge14" class="edge">
<title>Node15&#45;&gt;Node14</title>
<path fill="none" stroke="midnightblue" d="M816.78,-176.36C820.98,-179.04 824.82,-182.22 828,-186 854.26,-217.21 817.94,-246.4 846,-276 884.19,-316.29 930.36,-265.3 967,-307 1010.45,-356.44 945.66,-401.23 985,-454 989.67,-460.26 996.32,-464.92 1003.4,-468.37"/>
<polygon fill="midnightblue" stroke="midnightblue" points="818.22,-173.16 807.75,-171.52 814.91,-179.33 818.22,-173.16"/>
</g>
<!-- Node15&#45;&gt;Node24 -->
<g id="edge26" class="edge">
<title>Node15&#45;&gt;Node24</title>
<path fill="none" stroke="midnightblue" d="M838.32,-162.26C885.45,-162.44 945.82,-162.66 988.19,-162.81"/>
<polygon fill="midnightblue" stroke="midnightblue" points="838.19,-158.76 828.17,-162.23 838.16,-165.76 838.19,-158.76"/>
</g>
<!-- Node16 -->
<g id="node16" class="node">
<title>Node16</title>
<g id="a_node16"><a xlink:title=" ">
<polygon fill="white" stroke="#bfbfbf" points="480,-127.5 480,-146.5 518,-146.5 518,-127.5 480,-127.5"/>
<text text-anchor="middle" x="499" y="-134.5" font-family="Helvetica,sans-Serif" font-size="10.00">char</text>
</a>
</g>
</g>
<!-- Node16&#45;&gt;Node15 -->
<g id="edge15" class="edge">
<title>Node16&#45;&gt;Node15</title>
<path fill="none" stroke="#9a32cd" stroke-dasharray="5,2" d="M528.32,-138.93C564.48,-141.48 628.96,-146.32 684,-152 689.71,-152.59 695.64,-153.25 701.58,-153.93"/>
<polygon fill="#9a32cd" stroke="#9a32cd" points="528.26,-135.42 518.04,-138.21 527.78,-142.4 528.26,-135.42"/>
<text text-anchor="middle" x="638.5" y="-155" font-family="Helvetica,sans-Serif" font-size="10.00"> DebugName</text>
</g>
<!-- Node17 -->
<g id="node17" class="node">
<title>Node17</title>
<g id="a_node17"><a xlink:title=" ">
<polygon fill="white" stroke="#bfbfbf" points="474,-165.5 474,-184.5 524,-184.5 524,-165.5 474,-165.5"/>
<text text-anchor="middle" x="499" y="-172.5" font-family="Helvetica,sans-Serif" font-size="10.00">int32_t</text>
</a>
</g>
</g>
<!-- Node17&#45;&gt;Node15 -->
<g id="edge16" class="edge">
<title>Node17&#45;&gt;Node15</title>
<path fill="none" stroke="#9a32cd" stroke-dasharray="5,2" d="M534.46,-173.3C576.87,-171.21 649.66,-167.63 701.92,-165.06"/>
<polygon fill="#9a32cd" stroke="#9a32cd" points="534.18,-169.81 524.36,-173.8 534.52,-176.8 534.18,-169.81"/>
<text text-anchor="middle" x="638.5" y="-174" font-family="Helvetica,sans-Serif" font-size="10.00"> ReferenceCounter</text>
</g>
<!-- Node18 -->
<g id="node18" class="node">
<title>Node18</title>
<g id="a_node18"><a xlink:href="classirr_1_1core_1_1dimension2d.html" target="_top" xlink:title=" ">
<polygon fill="white" stroke="black" points="703.5,-308 703.5,-338 826.5,-338 826.5,-308 703.5,-308"/>
<text text-anchor="start" x="711.5" y="-326" font-family="Helvetica,sans-Serif" font-size="10.00">irr::core::dimension2d</text>
<text text-anchor="middle" x="765" y="-315" font-family="Helvetica,sans-Serif" font-size="10.00">&lt; u32 &gt;</text>
</a>
</g>
</g>
<!-- Node18&#45;&gt;Node14 -->
<g id="edge17" class="edge">
<title>Node18&#45;&gt;Node14</title>
<path fill="none" stroke="#9a32cd" stroke-dasharray="5,2" d="M836.82,-313.91C886.8,-309.2 948.09,-307.44 967,-324 1010.89,-362.42 949.77,-407.51 985,-454 989.78,-460.31 996.57,-464.99 1003.76,-468.45"/>
<polygon fill="#9a32cd" stroke="#9a32cd" points="836.28,-310.45 826.67,-314.92 836.97,-317.41 836.28,-310.45"/>
<text text-anchor="middle" x="906.5" y="-327" font-family="Helvetica,sans-Serif" font-size="10.00"> Size</text>
</g>
<!-- Node18&#45;&gt;Node24 -->
<g id="edge27" class="edge">
<title>Node18&#45;&gt;Node24</title>
<path fill="none" stroke="#9a32cd" stroke-dasharray="5,2" d="M776.25,-298.62C788.71,-272.15 812.32,-230.75 846,-209 891.99,-179.31 913.91,-199.36 967,-186 982.21,-182.17 998.9,-176.99 1012.49,-172.51"/>
<polygon fill="#9a32cd" stroke="#9a32cd" points="772.96,-297.41 772.02,-307.96 779.33,-300.3 772.96,-297.41"/>
<text text-anchor="middle" x="906.5" y="-223" font-family="Helvetica,sans-Serif" font-size="10.00"> Size</text>
<text text-anchor="middle" x="906.5" y="-212" font-family="Helvetica,sans-Serif" font-size="10.00">OriginalSize</text>
</g>
<!-- Node19 -->
<g id="node19" class="node">
<title>Node19</title>
<g id="a_node19"><a xlink:title=" ">
<polygon fill="white" stroke="#bfbfbf" points="471,-313.5 471,-332.5 527,-332.5 527,-313.5 471,-313.5"/>
<text text-anchor="middle" x="499" y="-320.5" font-family="Helvetica,sans-Serif" font-size="10.00">uint32_t</text>
</a>
</g>
</g>
<!-- Node19&#45;&gt;Node14 -->
<g id="edge22" class="edge">
<title>Node19&#45;&gt;Node14</title>
<path fill="none" stroke="#9a32cd" stroke-dasharray="5,2" d="M512.16,-341.02C528.1,-363.23 558.17,-400.52 593,-421 720.63,-496.04 903.84,-491.28 990.71,-483.7"/>
<polygon fill="#9a32cd" stroke="#9a32cd" points="515,-338.97 506.4,-332.79 509.26,-342.99 515,-338.97"/>
<text text-anchor="middle" x="765" y="-499" font-family="Helvetica,sans-Serif" font-size="10.00"> BytesPerPixel</text>
<text text-anchor="middle" x="765" y="-488" font-family="Helvetica,sans-Serif" font-size="10.00">Pitch</text>
</g>
<!-- Node19&#45;&gt;Node18 -->
<g id="edge18" class="edge">
<title>Node19&#45;&gt;Node18</title>
<path fill="none" stroke="#9a32cd" stroke-dasharray="5,2" d="M537.33,-323C580.53,-323 652.26,-323 703.46,-323"/>
<polygon fill="#9a32cd" stroke="#9a32cd" points="537.26,-319.5 527.26,-323 537.26,-326.5 537.26,-319.5"/>
<text text-anchor="middle" x="638.5" y="-337" font-family="Helvetica,sans-Serif" font-size="10.00"> Width</text>
<text text-anchor="middle" x="638.5" y="-326" font-family="Helvetica,sans-Serif" font-size="10.00">Height</text>
</g>
<!-- Node19&#45;&gt;Node24 -->
<g id="edge31" class="edge">
<title>Node19&#45;&gt;Node24</title>
<path fill="none" stroke="#9a32cd" stroke-dasharray="5,2" d="M529.09,-309.01C587.64,-281.47 724.5,-220.2 846,-189 893.4,-176.83 948.85,-170.12 988.31,-166.59"/>
<polygon fill="#9a32cd" stroke="#9a32cd" points="527.27,-306 519.73,-313.44 530.27,-312.32 527.27,-306"/>
<text text-anchor="middle" x="765" y="-238" font-family="Helvetica,sans-Serif" font-size="10.00"> Pitch</text>
</g>
<!-- Node20 -->
<g id="node20" class="node">
<title>Node20</title>
<g id="a_node20"><a xlink:href="classirr_1_1core_1_1dimension2d.html" target="_top" xlink:title="Specifies a 2 dimensional size.">
<polygon fill="white" stroke="black" points="423,-446.5 423,-465.5 575,-465.5 575,-446.5 423,-446.5"/>
<text text-anchor="middle" x="499" y="-453.5" font-family="Helvetica,sans-Serif" font-size="10.00">irr::core::dimension2d&lt; T &gt;</text>
</a>
</g>
</g>
<!-- Node20&#45;&gt;Node18 -->
<g id="edge19" class="edge">
<title>Node20&#45;&gt;Node18</title>
<path fill="none" stroke="orange" stroke-dasharray="5,2" d="M527.95,-441.92C577.93,-416.74 682.23,-364.19 733.8,-338.21"/>
<polygon fill="orange" stroke="orange" points="526.34,-438.81 518.99,-446.43 529.49,-445.06 526.34,-438.81"/>
<text text-anchor="middle" x="638.5" y="-409" font-family="Helvetica,sans-Serif" font-size="10.00"> &lt; u32 &gt;</text>
</g>
<!-- Node21 -->
<g id="node21" class="node">
<title>Node21</title>
<g id="a_node21"><a xlink:title=" ">
<polygon fill="white" stroke="#bfbfbf" points="239,-505.5 239,-524.5 268,-524.5 268,-505.5 239,-505.5"/>
<text text-anchor="middle" x="253.5" y="-512.5" font-family="Helvetica,sans-Serif" font-size="10.00">T</text>
</a>
</g>
</g>
<!-- Node21&#45;&gt;Node20 -->
<g id="edge20" class="edge">
<title>Node21&#45;&gt;Node20</title>
<path fill="none" stroke="#9a32cd" stroke-dasharray="5,2" d="M278.11,-509.28C319.89,-499.16 407.26,-477.99 458.4,-465.6"/>
<polygon fill="#9a32cd" stroke="#9a32cd" points="277.18,-505.9 268.29,-511.66 278.83,-512.71 277.18,-505.9"/>
<text text-anchor="middle" x="372.5" y="-509" font-family="Helvetica,sans-Serif" font-size="10.00"> Width</text>
<text text-anchor="middle" x="372.5" y="-498" font-family="Helvetica,sans-Serif" font-size="10.00">Height</text>
</g>
<!-- Node42 -->
<g id="node42" class="node">
<title>Node42</title>
<g id="a_node42"><a xlink:href="classirr_1_1core_1_1vector3d.html" target="_top" xlink:title="3d vector template class with lots of operators and methods.">
<polygon fill="white" stroke="black" points="433.5,-685.5 433.5,-704.5 564.5,-704.5 564.5,-685.5 433.5,-685.5"/>
<text text-anchor="middle" x="499" y="-692.5" font-family="Helvetica,sans-Serif" font-size="10.00">irr::core::vector3d&lt; T &gt;</text>
</a>
</g>
</g>
<!-- Node21&#45;&gt;Node42 -->
<g id="edge54" class="edge">
<title>Node21&#45;&gt;Node42</title>
<path fill="none" stroke="#9a32cd" stroke-dasharray="5,2" d="M275.94,-530.85C325.26,-567.31 445.56,-656.23 485.14,-685.49"/>
<polygon fill="#9a32cd" stroke="#9a32cd" points="277.71,-527.81 267.59,-524.68 273.55,-533.44 277.71,-527.81"/>
<text text-anchor="middle" x="372.5" y="-647" font-family="Helvetica,sans-Serif" font-size="10.00"> X</text>
<text text-anchor="middle" x="372.5" y="-636" font-family="Helvetica,sans-Serif" font-size="10.00">Y</text>
<text text-anchor="middle" x="372.5" y="-625" font-family="Helvetica,sans-Serif" font-size="10.00">Z</text>
</g>
<!-- Node22 -->
<g id="node22" class="node">
<title>Node22</title>
<g id="a_node22"><a xlink:title=" ">
<polygon fill="white" stroke="#bfbfbf" points="713.5,-371.5 713.5,-390.5 816.5,-390.5 816.5,-371.5 713.5,-371.5"/>
<text text-anchor="middle" x="765" y="-378.5" font-family="Helvetica,sans-Serif" font-size="10.00">ECOLOR_FORMAT</text>
</a>
</g>
</g>
<!-- Node22&#45;&gt;Node14 -->
<g id="edge21" class="edge">
<title>Node22&#45;&gt;Node14</title>
<path fill="none" stroke="#9a32cd" stroke-dasharray="5,2" d="M827.03,-383.25C869.53,-387.46 925.76,-398.55 967,-427 978.87,-435.19 973.94,-444.74 985,-454 992.19,-460.02 1001.12,-464.77 1009.68,-468.41"/>
<polygon fill="#9a32cd" stroke="#9a32cd" points="827.09,-379.74 816.82,-382.34 826.47,-386.71 827.09,-379.74"/>
<text text-anchor="middle" x="906.5" y="-430" font-family="Helvetica,sans-Serif" font-size="10.00"> Format</text>
</g>
<!-- Node22&#45;&gt;Node24 -->
<g id="edge29" class="edge">
<title>Node22&#45;&gt;Node24</title>
<path fill="none" stroke="#9a32cd" stroke-dasharray="5,2" d="M802.89,-366.87C812.18,-361.81 821.38,-355.26 828,-347 845.95,-324.61 827.15,-306.63 846,-285 884.69,-240.6 917.9,-263.51 967,-231 992.99,-213.79 1018.52,-187.16 1031.39,-172.87"/>
<polygon fill="#9a32cd" stroke="#9a32cd" points="801.08,-363.87 793.67,-371.44 804.18,-370.14 801.08,-363.87"/>
<text text-anchor="middle" x="906.5" y="-299" font-family="Helvetica,sans-Serif" font-size="10.00"> ColorFormat</text>
<text text-anchor="middle" x="906.5" y="-288" font-family="Helvetica,sans-Serif" font-size="10.00">OriginalColorFormat</text>
</g>
<!-- Node23 -->
<g id="node23" class="node">
<title>Node23</title>
<g id="a_node23"><a xlink:title=" ">
<polygon fill="white" stroke="#bfbfbf" points="740,-519.5 740,-538.5 790,-538.5 790,-519.5 740,-519.5"/>
<text text-anchor="middle" x="765" y="-526.5" font-family="Helvetica,sans-Serif" font-size="10.00">uint8_t</text>
</a>
</g>
</g>
<!-- Node23&#45;&gt;Node14 -->
<g id="edge24" class="edge">
<title>Node23&#45;&gt;Node14</title>
<path fill="none" stroke="#9a32cd" stroke-dasharray="5,2" d="M800.37,-528.72C840.83,-527.67 909.77,-523.64 967,-509 986.34,-504.05 1007.19,-494.76 1021.64,-487.64"/>
<polygon fill="#9a32cd" stroke="#9a32cd" points="800.15,-525.22 790.23,-528.93 800.3,-532.22 800.15,-525.22"/>
<text text-anchor="middle" x="906.5" y="-541" font-family="Helvetica,sans-Serif" font-size="10.00"> MipMapsData</text>
<text text-anchor="middle" x="906.5" y="-530" font-family="Helvetica,sans-Serif" font-size="10.00">Data</text>
</g>
<!-- Node24&#45;&gt;Node13 -->
<g id="edge25" class="edge">
<title>Node24&#45;&gt;Node13</title>
<path fill="none" stroke="#9a32cd" stroke-dasharray="5,2" d="M1067.61,-177.88C1111.78,-205.15 1201.17,-267.77 1239,-348 1265.5,-404.19 1216.26,-580.1 1257,-627 1269.45,-641.33 1289.63,-646.53 1307.88,-647.95"/>
<polygon fill="#9a32cd" stroke="#9a32cd" points="1069.27,-174.79 1058.91,-172.6 1065.64,-180.78 1069.27,-174.79"/>
<text text-anchor="middle" x="1177" y="-406" font-family="Helvetica,sans-Serif" font-size="10.00"> minimap_overlay_round</text>
<text text-anchor="middle" x="1177" y="-395" font-family="Helvetica,sans-Serif" font-size="10.00">texture</text>
<text text-anchor="middle" x="1177" y="-384" font-family="Helvetica,sans-Serif" font-size="10.00">heightmap_texture</text>
<text text-anchor="middle" x="1177" y="-373" font-family="Helvetica,sans-Serif" font-size="10.00">object_marker_red</text>
<text text-anchor="middle" x="1177" y="-362" font-family="Helvetica,sans-Serif" font-size="10.00">player_marker</text>
<text text-anchor="middle" x="1177" y="-351" font-family="Helvetica,sans-Serif" font-size="10.00">minimap_overlay_square</text>
</g>
<!-- Node25 -->
<g id="node25" class="node">
<title>Node25</title>
<g id="a_node25"><a xlink:title=" ">
<polygon fill="white" stroke="#bfbfbf" points="705.5,-38.5 705.5,-57.5 824.5,-57.5 824.5,-38.5 705.5,-38.5"/>
<text text-anchor="middle" x="765" y="-45.5" font-family="Helvetica,sans-Serif" font-size="10.00">E_TEXTURE_SOURCE</text>
</a>
</g>
</g>
<!-- Node25&#45;&gt;Node24 -->
<g id="edge28" class="edge">
<title>Node25&#45;&gt;Node24</title>
<path fill="none" stroke="#9a32cd" stroke-dasharray="5,2" d="M835.01,-46.04C875.7,-47.69 926.89,-54.82 967,-77 1000.08,-95.29 1024.77,-134.88 1034.92,-153.26"/>
<polygon fill="#9a32cd" stroke="#9a32cd" points="835.01,-42.54 824.91,-45.73 834.79,-49.54 835.01,-42.54"/>
<text text-anchor="middle" x="906.5" y="-80" font-family="Helvetica,sans-Serif" font-size="10.00"> Source</text>
</g>
<!-- Node26 -->
<g id="node26" class="node">
<title>Node26</title>
<g id="a_node26"><a xlink:title=" ">
<polygon fill="white" stroke="#bfbfbf" points="718,-114.5 718,-133.5 812,-133.5 812,-114.5 718,-114.5"/>
<text text-anchor="middle" x="765" y="-121.5" font-family="Helvetica,sans-Serif" font-size="10.00">E_DRIVER_TYPE</text>
</a>
</g>
</g>
<!-- Node26&#45;&gt;Node24 -->
<g id="edge30" class="edge">
<title>Node26&#45;&gt;Node24</title>
<path fill="none" stroke="#9a32cd" stroke-dasharray="5,2" d="M822.24,-129.44C862.64,-133.66 918.33,-140.11 967,-148 976.58,-149.55 986.81,-151.48 996.49,-153.44"/>
<polygon fill="#9a32cd" stroke="#9a32cd" points="822.36,-125.93 812.06,-128.39 821.64,-132.9 822.36,-125.93"/>
<text text-anchor="middle" x="906.5" y="-151" font-family="Helvetica,sans-Serif" font-size="10.00"> DriverType</text>
</g>
<!-- Node27 -->
<g id="node27" class="node">
<title>Node27</title>
<g id="a_node27"><a xlink:href="structirr_1_1io_1_1SNamedPath.html" target="_top" xlink:title="Used in places where we identify objects by a filename, but don&#39;t actually work with the real filenam...">
<polygon fill="white" stroke="black" points="710,-76.5 710,-95.5 820,-95.5 820,-76.5 710,-76.5"/>
<text text-anchor="middle" x="765" y="-83.5" font-family="Helvetica,sans-Serif" font-size="10.00">irr::io::SNamedPath</text>
</a>
</g>
</g>
<!-- Node27&#45;&gt;Node24 -->
<g id="edge32" class="edge">
<title>Node27&#45;&gt;Node24</title>
<path fill="none" stroke="#9a32cd" stroke-dasharray="5,2" d="M830.33,-89.77C870.6,-93.69 923.02,-101.69 967,-118 990.17,-126.59 1013.99,-142.96 1027.87,-153.41"/>
<polygon fill="#9a32cd" stroke="#9a32cd" points="830.64,-86.28 820.36,-88.86 830,-93.25 830.64,-86.28"/>
<text text-anchor="middle" x="906.5" y="-121" font-family="Helvetica,sans-Serif" font-size="10.00"> NamedPath</text>
</g>
<!-- Node28 -->
<g id="node28" class="node">
<title>Node28</title>
<g id="a_node28"><a xlink:href="classirr_1_1core_1_1string.html" target="_top" xlink:title=" ">
<polygon fill="white" stroke="black" points="451,-71 451,-101 547,-101 547,-71 451,-71"/>
<text text-anchor="start" x="459" y="-89" font-family="Helvetica,sans-Serif" font-size="10.00">irr::core::string&lt;</text>
<text text-anchor="middle" x="499" y="-78" font-family="Helvetica,sans-Serif" font-size="10.00"> fschar_t &gt;</text>
</a>
</g>
</g>
<!-- Node28&#45;&gt;Node27 -->
<g id="edge33" class="edge">
<title>Node28&#45;&gt;Node27</title>
<path fill="none" stroke="#9a32cd" stroke-dasharray="5,2" d="M557.45,-86C602.77,-86 665.51,-86 709.93,-86"/>
<polygon fill="#9a32cd" stroke="#9a32cd" points="557.2,-82.5 547.2,-86 557.2,-89.5 557.2,-82.5"/>
<text text-anchor="middle" x="638.5" y="-100" font-family="Helvetica,sans-Serif" font-size="10.00"> Path</text>
<text text-anchor="middle" x="638.5" y="-89" font-family="Helvetica,sans-Serif" font-size="10.00">InternalName</text>
</g>
<!-- Node29 -->
<g id="node29" class="node">
<title>Node29</title>
<g id="a_node29"><a xlink:title=" ">
<polygon fill="white" stroke="#bfbfbf" points="185,-76.5 185,-95.5 322,-95.5 322,-76.5 185,-76.5"/>
<text text-anchor="middle" x="253.5" y="-83.5" font-family="Helvetica,sans-Serif" font-size="10.00">basic_string&lt; fschar_t &gt;</text>
</a>
</g>
</g>
<!-- Node29&#45;&gt;Node28 -->
<g id="edge34" class="edge">
<title>Node29&#45;&gt;Node28</title>
<path fill="none" stroke="#9a32cd" stroke-dasharray="5,2" d="M332.28,-86C371.27,-86 417.22,-86 450.83,-86"/>
<polygon fill="#9a32cd" stroke="#9a32cd" points="332,-82.5 322,-86 332,-89.5 332,-82.5"/>
<text text-anchor="middle" x="372.5" y="-89" font-family="Helvetica,sans-Serif" font-size="10.00"> str</text>
</g>
<!-- Node30 -->
<g id="node30" class="node">
<title>Node30</title>
<g id="a_node30"><a xlink:title=" ">
<polygon fill="white" stroke="#bfbfbf" points="0,-97.5 0,-116.5 122,-116.5 122,-97.5 0,-97.5"/>
<text text-anchor="middle" x="61" y="-104.5" font-family="Helvetica,sans-Serif" font-size="10.00">static const size_type</text>
</a>
</g>
</g>
<!-- Node30&#45;&gt;Node28 -->
<g id="edge35" class="edge">
<title>Node30&#45;&gt;Node28</title>
<path fill="none" stroke="#9a32cd" stroke-dasharray="5,2" d="M132.68,-109.32C202.18,-110.77 311.19,-110.79 405,-101 419.96,-99.44 436.18,-97.06 450.82,-94.66"/>
<polygon fill="#9a32cd" stroke="#9a32cd" points="132.37,-105.81 122.29,-109.09 132.21,-112.81 132.37,-105.81"/>
<text text-anchor="middle" x="253.5" y="-114" font-family="Helvetica,sans-Serif" font-size="10.00"> npos</text>
</g>
<!-- Node31 -->
<g id="node31" class="node">
<title>Node31</title>
<g id="a_node31"><a xlink:href="classirr_1_1core_1_1string.html" target="_top" xlink:title="Very simple string class with some useful features.">
<polygon fill="white" stroke="black" points="195.5,-38.5 195.5,-57.5 311.5,-57.5 311.5,-38.5 195.5,-38.5"/>
<text text-anchor="middle" x="253.5" y="-45.5" font-family="Helvetica,sans-Serif" font-size="10.00">irr::core::string&lt; T &gt;</text>
</a>
</g>
</g>
<!-- Node30&#45;&gt;Node31 -->
<g id="edge38" class="edge">
<title>Node30&#45;&gt;Node31</title>
<path fill="none" stroke="#9a32cd" stroke-dasharray="5,2" d="M99.78,-94.28C124.05,-86.22 156.29,-75.7 185,-67 195.49,-63.82 206.94,-60.53 217.39,-57.6"/>
<polygon fill="#9a32cd" stroke="#9a32cd" points="98.61,-90.98 90.23,-97.46 100.83,-97.62 98.61,-90.98"/>
<text text-anchor="middle" x="153.5" y="-84" font-family="Helvetica,sans-Serif" font-size="10.00"> npos</text>
</g>
<!-- Node31&#45;&gt;Node28 -->
<g id="edge36" class="edge">
<title>Node31&#45;&gt;Node28</title>
<path fill="none" stroke="orange" stroke-dasharray="5,2" d="M321.82,-58.17C347.81,-62.12 377.8,-66.73 405,-71 419.86,-73.33 436.06,-75.93 450.7,-78.29"/>
<polygon fill="orange" stroke="orange" points="322.1,-54.67 311.69,-56.63 321.05,-61.59 322.1,-54.67"/>
<text text-anchor="middle" x="372.5" y="-74" font-family="Helvetica,sans-Serif" font-size="10.00"> &lt; fschar_t &gt;</text>
</g>
<!-- Node32 -->
<g id="node32" class="node">
<title>Node32</title>
<g id="a_node32"><a xlink:title=" ">
<polygon fill="white" stroke="#bfbfbf" points="9,-38.5 9,-57.5 113,-57.5 113,-38.5 9,-38.5"/>
<text text-anchor="middle" x="61" y="-45.5" font-family="Helvetica,sans-Serif" font-size="10.00">basic_string&lt; T &gt;</text>
</a>
</g>
</g>
<!-- Node32&#45;&gt;Node31 -->
<g id="edge37" class="edge">
<title>Node32&#45;&gt;Node31</title>
<path fill="none" stroke="#9a32cd" stroke-dasharray="5,2" d="M123.1,-48C146.24,-48 172.48,-48 195.26,-48"/>
<polygon fill="#9a32cd" stroke="#9a32cd" points="123.05,-44.5 113.05,-48 123.05,-51.5 123.05,-44.5"/>
<text text-anchor="middle" x="153.5" y="-51" font-family="Helvetica,sans-Serif" font-size="10.00"> str</text>
</g>
<!-- Node33 -->
<g id="node33" class="node">
<title>Node33</title>
<g id="a_node33"><a xlink:title=" ">
<polygon fill="white" stroke="#bfbfbf" points="714,-0.5 714,-19.5 816,-19.5 816,-0.5 714,-0.5"/>
<text text-anchor="middle" x="765" y="-7.5" font-family="Helvetica,sans-Serif" font-size="10.00">E_TEXTURE_TYPE</text>
</a>
</g>
</g>
<!-- Node33&#45;&gt;Node24 -->
<g id="edge40" class="edge">
<title>Node33&#45;&gt;Node24</title>
<path fill="none" stroke="#9a32cd" stroke-dasharray="5,2" d="M826.11,-2.77C868.82,-0.73 925.7,-4.6 967,-32 1011.69,-61.65 1031.73,-128.41 1037.85,-153.35"/>
<polygon fill="#9a32cd" stroke="#9a32cd" points="825.9,0.72 816.12,-3.37 826.31,-6.27 825.9,0.72"/>
<text text-anchor="middle" x="906.5" y="-35" font-family="Helvetica,sans-Serif" font-size="10.00"> Type</text>
</g>
<!-- Node34&#45;&gt;Node13 -->
<g id="edge41" class="edge">
<title>Node34&#45;&gt;Node13</title>
<path fill="none" stroke="#9a32cd" stroke-dasharray="5,2" d="M1103.53,-671.58C1164.32,-665.23 1255.55,-655.7 1307.83,-650.25"/>
<polygon fill="#9a32cd" stroke="#9a32cd" points="1102.88,-668.12 1093.3,-672.64 1103.61,-675.09 1102.88,-668.12"/>
<text text-anchor="middle" x="1177" y="-674" font-family="Helvetica,sans-Serif" font-size="10.00"> mode</text>
</g>
<!-- Node35 -->
<g id="node35" class="node">
<title>Node35</title>
<g id="a_node35"><a xlink:title=" ">
<polygon fill="white" stroke="#bfbfbf" points="724,-653.5 724,-672.5 806,-672.5 806,-653.5 724,-653.5"/>
<text text-anchor="middle" x="765" y="-660.5" font-family="Helvetica,sans-Serif" font-size="10.00">MinimapType</text>
</a>
</g>
</g>
<!-- Node35&#45;&gt;Node34 -->
<g id="edge42" class="edge">
<title>Node35&#45;&gt;Node34</title>
<path fill="none" stroke="#9a32cd" stroke-dasharray="5,2" d="M816.18,-665.75C865.11,-668.43 939.17,-672.48 988.53,-675.18"/>
<polygon fill="#9a32cd" stroke="#9a32cd" points="816.31,-662.25 806.14,-665.2 815.93,-669.24 816.31,-662.25"/>
<text text-anchor="middle" x="906.5" y="-677" font-family="Helvetica,sans-Serif" font-size="10.00"> type</text>
</g>
<!-- Node36 -->
<g id="node36" class="node">
<title>Node36</title>
<g id="a_node36"><a xlink:title=" ">
<polygon fill="white" stroke="#bfbfbf" points="481.5,-603.5 481.5,-622.5 516.5,-622.5 516.5,-603.5 481.5,-603.5"/>
<text text-anchor="middle" x="499" y="-610.5" font-family="Helvetica,sans-Serif" font-size="10.00">u16</text>
</a>
</g>
</g>
<!-- Node36&#45;&gt;Node34 -->
<g id="edge43" class="edge">
<title>Node36&#45;&gt;Node34</title>
<path fill="none" stroke="#9a32cd" stroke-dasharray="5,2" d="M525.85,-624.47C563.67,-640.62 636.68,-669.51 702,-682 817.72,-704.12 849.51,-697.8 967,-689 974.03,-688.47 981.41,-687.67 988.66,-686.72"/>
<polygon fill="#9a32cd" stroke="#9a32cd" points="527.16,-621.22 516.59,-620.46 524.38,-627.64 527.16,-621.22"/>
<text text-anchor="middle" x="765" y="-722" font-family="Helvetica,sans-Serif" font-size="10.00"> scale</text>
<text text-anchor="middle" x="765" y="-711" font-family="Helvetica,sans-Serif" font-size="10.00">scan_height</text>
<text text-anchor="middle" x="765" y="-700" font-family="Helvetica,sans-Serif" font-size="10.00">map_size</text>
</g>
<!-- Node37 -->
<g id="node37" class="node">
<title>Node37</title>
<g id="a_node37"><a xlink:href="structMinimapPixel.html" target="_top" xlink:title=" ">
<polygon fill="white" stroke="black" points="999.5,-603.5 999.5,-622.5 1082.5,-622.5 1082.5,-603.5 999.5,-603.5"/>
<text text-anchor="middle" x="1041" y="-610.5" font-family="Helvetica,sans-Serif" font-size="10.00">MinimapPixel</text>
</a>
</g>
</g>
<!-- Node36&#45;&gt;Node37 -->
<g id="edge47" class="edge">
<title>Node36&#45;&gt;Node37</title>
<path fill="none" stroke="#9a32cd" stroke-dasharray="5,2" d="M526.96,-613C614.89,-613 893.74,-613 999.13,-613"/>
<polygon fill="#9a32cd" stroke="#9a32cd" points="526.75,-609.5 516.75,-613 526.75,-616.5 526.75,-609.5"/>
<text text-anchor="middle" x="765" y="-627" font-family="Helvetica,sans-Serif" font-size="10.00"> height</text>
<text text-anchor="middle" x="765" y="-616" font-family="Helvetica,sans-Serif" font-size="10.00">air_count</text>
</g>
<!-- Node38 -->
<g id="node38" class="node">
<title>Node38</title>
<g id="a_node38"><a xlink:href="structMapNode.html" target="_top" xlink:title=" ">
<polygon fill="white" stroke="black" points="733.5,-557.5 733.5,-576.5 796.5,-576.5 796.5,-557.5 733.5,-557.5"/>
<text text-anchor="middle" x="765" y="-564.5" font-family="Helvetica,sans-Serif" font-size="10.00">MapNode</text>
</a>
</g>
</g>
<!-- Node36&#45;&gt;Node38 -->
<g id="edge49" class="edge">
<title>Node36&#45;&gt;Node38</title>
<path fill="none" stroke="#9a32cd" stroke-dasharray="5,2" d="M526.4,-604.84C544.89,-599.39 570.26,-592.43 593,-588 641.59,-578.53 698.82,-572.53 733.22,-569.47"/>
<polygon fill="#9a32cd" stroke="#9a32cd" points="525.21,-601.54 516.64,-607.77 527.22,-608.25 525.21,-601.54"/>
<text text-anchor="middle" x="638.5" y="-591" font-family="Helvetica,sans-Serif" font-size="10.00"> param0</text>
</g>
<!-- Node37&#45;&gt;Node13 -->
<g id="edge46" class="edge">
<title>Node37&#45;&gt;Node13</title>
<path fill="none" stroke="#9a32cd" stroke-dasharray="5,2" d="M1092.74,-618.46C1152.94,-624.95 1252.13,-635.62 1307.63,-641.6"/>
<polygon fill="#9a32cd" stroke="#9a32cd" points="1093.02,-614.97 1082.7,-617.38 1092.27,-621.93 1093.02,-614.97"/>
<text text-anchor="middle" x="1177" y="-637" font-family="Helvetica,sans-Serif" font-size="10.00"> minimap_scan</text>
</g>
<!-- Node38&#45;&gt;Node37 -->
<g id="edge48" class="edge">
<title>Node38&#45;&gt;Node37</title>
<path fill="none" stroke="#9a32cd" stroke-dasharray="5,2" d="M806.77,-568.56C847.69,-570.76 912.31,-575.94 967,-588 983.88,-591.72 1002.28,-598.04 1016.39,-603.39"/>
<polygon fill="#9a32cd" stroke="#9a32cd" points="806.81,-565.06 796.65,-568.05 806.46,-572.05 806.81,-565.06"/>
<text text-anchor="middle" x="906.5" y="-591" font-family="Helvetica,sans-Serif" font-size="10.00"> n</text>
</g>
<!-- Node39 -->
<g id="node39" class="node">
<title>Node39</title>
<g id="a_node39"><a xlink:title=" ">
<polygon fill="white" stroke="#bfbfbf" points="484.5,-532.5 484.5,-551.5 513.5,-551.5 513.5,-532.5 484.5,-532.5"/>
<text text-anchor="middle" x="499" y="-539.5" font-family="Helvetica,sans-Serif" font-size="10.00">u8</text>
</a>
</g>
</g>
<!-- Node39&#45;&gt;Node38 -->
<g id="edge50" class="edge">
<title>Node39&#45;&gt;Node38</title>
<path fill="none" stroke="#9a32cd" stroke-dasharray="5,2" d="M524.24,-539.95C559.59,-537.44 627.27,-534.52 684,-543 686.6,-543.39 711.92,-551.04 733.39,-557.6"/>
<polygon fill="#9a32cd" stroke="#9a32cd" points="523.66,-536.48 513.95,-540.73 524.19,-543.46 523.66,-536.48"/>
<text text-anchor="middle" x="638.5" y="-557" font-family="Helvetica,sans-Serif" font-size="10.00"> param1</text>
<text text-anchor="middle" x="638.5" y="-546" font-family="Helvetica,sans-Serif" font-size="10.00">param2</text>
</g>
<!-- Node40 -->
<g id="node40" class="node">
<title>Node40</title>
<g id="a_node40"><a xlink:href="classirr_1_1core_1_1vector3d.html" target="_top" xlink:title=" ">
<polygon fill="white" stroke="black" points="713.5,-761 713.5,-791 816.5,-791 816.5,-761 713.5,-761"/>
<text text-anchor="start" x="721.5" y="-779" font-family="Helvetica,sans-Serif" font-size="10.00">irr::core::vector3d</text>
<text text-anchor="middle" x="765" y="-768" font-family="Helvetica,sans-Serif" font-size="10.00">&lt; s16 &gt;</text>
</a>
</g>
</g>
<!-- Node40&#45;&gt;Node13 -->
<g id="edge51" class="edge">
<title>Node40&#45;&gt;Node13</title>
<path fill="none" stroke="#9a32cd" stroke-dasharray="5,2" d="M814.33,-757.52C824.68,-754 835.62,-750.61 846,-748 1017.48,-704.84 1067.82,-730.32 1239,-686 1269.96,-677.98 1304.41,-664.63 1326.26,-655.57"/>
<polygon fill="#9a32cd" stroke="#9a32cd" points="812.92,-754.3 804.63,-760.9 815.23,-760.91 812.92,-754.3"/>
<text text-anchor="middle" x="1041" y="-736" font-family="Helvetica,sans-Serif" font-size="10.00"> old_pos</text>
<text text-anchor="middle" x="1041" y="-725" font-family="Helvetica,sans-Serif" font-size="10.00">pos</text>
</g>
<!-- Node41 -->
<g id="node41" class="node">
<title>Node41</title>
<g id="a_node41"><a xlink:title=" ">
<polygon fill="white" stroke="#bfbfbf" points="482,-766.5 482,-785.5 516,-785.5 516,-766.5 482,-766.5"/>
<text text-anchor="middle" x="499" y="-773.5" font-family="Helvetica,sans-Serif" font-size="10.00">s16</text>
</a>
</g>
</g>
<!-- Node41&#45;&gt;Node40 -->
<g id="edge52" class="edge">
<title>Node41&#45;&gt;Node40</title>
<path fill="none" stroke="#9a32cd" stroke-dasharray="5,2" d="M526.17,-776C569.63,-776 657.45,-776 713.36,-776"/>
<polygon fill="#9a32cd" stroke="#9a32cd" points="526.12,-772.5 516.12,-776 526.12,-779.5 526.12,-772.5"/>
<text text-anchor="middle" x="638.5" y="-801" font-family="Helvetica,sans-Serif" font-size="10.00"> X</text>
<text text-anchor="middle" x="638.5" y="-790" font-family="Helvetica,sans-Serif" font-size="10.00">Y</text>
<text text-anchor="middle" x="638.5" y="-779" font-family="Helvetica,sans-Serif" font-size="10.00">Z</text>
</g>
<!-- Node42&#45;&gt;Node40 -->
<g id="edge53" class="edge">
<title>Node42&#45;&gt;Node40</title>
<path fill="none" stroke="orange" stroke-dasharray="5,2" d="M540.87,-707.54C587.72,-721.92 664.5,-745.47 714.65,-760.86"/>
<polygon fill="orange" stroke="orange" points="541.65,-704.12 531.06,-704.53 539.59,-710.81 541.65,-704.12"/>
<text text-anchor="middle" x="638.5" y="-752" font-family="Helvetica,sans-Serif" font-size="10.00"> &lt; s16 &gt;</text>
</g>
<!-- Node43 -->
<g id="node43" class="node">
<title>Node43</title>
<g id="a_node43"><a xlink:title=" ">
<polygon fill="white" stroke="#bfbfbf" points="1257,-598.5 1257,-617.5 1442,-617.5 1442,-598.5 1257,-598.5"/>
<text text-anchor="middle" x="1349.5" y="-605.5" font-family="Helvetica,sans-Serif" font-size="10.00">deque&lt; QueuedMinimapUpdate &gt;</text>
</a>
</g>
</g>
<!-- Node43&#45;&gt;Node1 -->
<g id="edge56" class="edge">
<title>Node43&#45;&gt;Node1</title>
<path fill="none" stroke="#9a32cd" stroke-dasharray="5,2" d="M1420.33,-619.67C1459.45,-628.08 1508.22,-641.77 1548,-663 1575.81,-677.85 1604.11,-702.02 1618.77,-715.37"/>
<polygon fill="#9a32cd" stroke="#9a32cd" points="1420.59,-616.15 1410.08,-617.54 1419.16,-623 1420.59,-616.15"/>
<text text-anchor="middle" x="1504" y="-666" font-family="Helvetica,sans-Serif" font-size="10.00"> m_update_queue</text>
</g>
</g>
</svg>
