<?xml version="1.0" encoding="UTF-8" standalone="no"?>
<!DOCTYPE svg PUBLIC "-//W3C//DTD SVG 1.1//EN"
 "http://www.w3.org/Graphics/SVG/1.1/DTD/svg11.dtd">
<!-- Generated by graphviz version 2.43.0 (0)
 -->
<!-- Title: RealInputHandler Pages: 1 -->
<svg width="1252pt" height="449pt"
 viewBox="0.00 0.00 1252.00 449.00" xmlns="http://www.w3.org/2000/svg" xmlns:xlink="http://www.w3.org/1999/xlink">
<g id="graph0" class="graph" transform="scale(1 1) rotate(0) translate(4 445)">
<title>RealInputHandler</title>
<polygon fill="white" stroke="transparent" points="-4,4 -4,-445 1248,-445 1248,4 -4,4"/>
<!-- Node1 -->
<g id="node1" class="node">
<title>Node1</title>
<g id="a_node1"><a xlink:title=" ">
<polygon fill="#bfbfbf" stroke="black" points="1143,-235.5 1143,-254.5 1244,-254.5 1244,-235.5 1143,-235.5"/>
<text text-anchor="middle" x="1193.5" y="-242.5" font-family="Helvetica,sans-Serif" font-size="10.00">RealInputHandler</text>
</a>
</g>
</g>
<!-- Node2 -->
<g id="node2" class="node">
<title>Node2</title>
<g id="a_node2"><a xlink:href="classInputHandler.html" target="_top" xlink:title=" ">
<polygon fill="white" stroke="black" points="946.5,-159.5 946.5,-178.5 1026.5,-178.5 1026.5,-159.5 946.5,-159.5"/>
<text text-anchor="middle" x="986.5" y="-166.5" font-family="Helvetica,sans-Serif" font-size="10.00">InputHandler</text>
</a>
</g>
</g>
<!-- Node2&#45;&gt;Node1 -->
<g id="edge1" class="edge">
<title>Node2&#45;&gt;Node1</title>
<path fill="none" stroke="midnightblue" d="M1023.05,-182.18C1064.05,-197.38 1130.43,-221.99 1166.75,-235.45"/>
<polygon fill="midnightblue" stroke="midnightblue" points="1024.06,-178.82 1013.46,-178.63 1021.62,-185.38 1024.06,-178.82"/>
</g>
<!-- Node3 -->
<g id="node3" class="node">
<title>Node3</title>
<g id="a_node3"><a xlink:href="structKeyCache.html" target="_top" xlink:title=" ">
<polygon fill="white" stroke="black" points="1161,-125.5 1161,-144.5 1226,-144.5 1226,-125.5 1161,-125.5"/>
<text text-anchor="middle" x="1193.5" y="-132.5" font-family="Helvetica,sans-Serif" font-size="10.00">KeyCache</text>
</a>
</g>
</g>
<!-- Node2&#45;&gt;Node3 -->
<g id="edge3" class="edge">
<title>Node2&#45;&gt;Node3</title>
<path fill="none" stroke="#9a32cd" stroke-dasharray="5,2" d="M1010.04,-154.05C1022.92,-146.41 1039.7,-137.92 1056,-134 1091.14,-125.54 1132.85,-127.52 1160.84,-130.49"/>
<polygon fill="#9a32cd" stroke="#9a32cd" points="1008.08,-151.15 1001.42,-159.38 1011.76,-157.1 1008.08,-151.15"/>
<text text-anchor="middle" x="1090.5" y="-137" font-family="Helvetica,sans-Serif" font-size="10.00"> handler</text>
</g>
<!-- Node3&#45;&gt;Node2 -->
<g id="edge2" class="edge">
<title>Node3&#45;&gt;Node2</title>
<path fill="none" stroke="#9a32cd" stroke-dasharray="5,2" d="M1151.07,-142.48C1142.46,-144 1133.44,-145.58 1125,-147 1091.87,-152.6 1054.18,-158.6 1026.65,-162.92"/>
<polygon fill="#9a32cd" stroke="#9a32cd" points="1151.69,-145.93 1160.93,-140.73 1150.47,-139.03 1151.69,-145.93"/>
<text text-anchor="middle" x="1090.5" y="-161" font-family="Helvetica,sans-Serif" font-size="10.00"> keycache</text>
</g>
<!-- Node4 -->
<g id="node4" class="node">
<title>Node4</title>
<g id="a_node4"><a xlink:href="classKeyPress.html" target="_top" xlink:title=" ">
<polygon fill="white" stroke="black" points="956,-86.5 956,-105.5 1017,-105.5 1017,-86.5 956,-86.5"/>
<text text-anchor="middle" x="986.5" y="-93.5" font-family="Helvetica,sans-Serif" font-size="10.00">KeyPress</text>
</a>
</g>
</g>
<!-- Node4&#45;&gt;Node3 -->
<g id="edge4" class="edge">
<title>Node4&#45;&gt;Node3</title>
<path fill="none" stroke="#9a32cd" stroke-dasharray="5,2" d="M1027.13,-98.37C1054.8,-100.57 1092.47,-104.65 1125,-112 1139.73,-115.33 1155.75,-120.71 1168.49,-125.43"/>
<polygon fill="#9a32cd" stroke="#9a32cd" points="1027.27,-94.87 1017.04,-97.62 1026.75,-101.85 1027.27,-94.87"/>
<text text-anchor="middle" x="1090.5" y="-115" font-family="Helvetica,sans-Serif" font-size="10.00"> key</text>
</g>
<!-- Node5 -->
<g id="node5" class="node">
<title>Node5</title>
<g id="a_node5"><a xlink:title=" ">
<polygon fill="white" stroke="#bfbfbf" points="723,-85.5 723,-104.5 778,-104.5 778,-85.5 723,-85.5"/>
<text text-anchor="middle" x="750.5" y="-92.5" font-family="Helvetica,sans-Serif" font-size="10.00">wchar_t</text>
</a>
</g>
</g>
<!-- Node5&#45;&gt;Node4 -->
<g id="edge5" class="edge">
<title>Node5&#45;&gt;Node4</title>
<path fill="none" stroke="#9a32cd" stroke-dasharray="5,2" d="M788.54,-95.16C834.81,-95.36 913.05,-95.69 955.67,-95.87"/>
<polygon fill="#9a32cd" stroke="#9a32cd" points="788.36,-91.66 778.34,-95.11 788.33,-98.66 788.36,-91.66"/>
<text text-anchor="middle" x="875.5" y="-99" font-family="Helvetica,sans-Serif" font-size="10.00"> Char</text>
</g>
<!-- Node6 -->
<g id="node6" class="node">
<title>Node6</title>
<g id="a_node6"><a xlink:title=" ">
<polygon fill="white" stroke="#bfbfbf" points="713.5,-47.5 713.5,-66.5 787.5,-66.5 787.5,-47.5 713.5,-47.5"/>
<text text-anchor="middle" x="750.5" y="-54.5" font-family="Helvetica,sans-Serif" font-size="10.00">EKEY_CODE</text>
</a>
</g>
</g>
<!-- Node6&#45;&gt;Node4 -->
<g id="edge6" class="edge">
<title>Node6&#45;&gt;Node4</title>
<path fill="none" stroke="#9a32cd" stroke-dasharray="5,2" d="M798.11,-62.85C831.35,-67.25 877.05,-73.74 917,-81 929.82,-83.33 943.89,-86.33 955.92,-89.04"/>
<polygon fill="#9a32cd" stroke="#9a32cd" points="798.15,-59.33 787.78,-61.5 797.24,-66.27 798.15,-59.33"/>
<text text-anchor="middle" x="875.5" y="-84" font-family="Helvetica,sans-Serif" font-size="10.00"> Key</text>
</g>
<!-- Node7 -->
<g id="node7" class="node">
<title>Node7</title>
<g id="a_node7"><a xlink:title=" ">
<polygon fill="white" stroke="#bfbfbf" points="728.5,-123.5 728.5,-142.5 772.5,-142.5 772.5,-123.5 728.5,-123.5"/>
<text text-anchor="middle" x="750.5" y="-130.5" font-family="Helvetica,sans-Serif" font-size="10.00">string</text>
</a>
</g>
</g>
<!-- Node7&#45;&gt;Node4 -->
<g id="edge7" class="edge">
<title>Node7&#45;&gt;Node4</title>
<path fill="none" stroke="#9a32cd" stroke-dasharray="5,2" d="M782.81,-129.63C816.18,-125.85 870.5,-119.17 917,-111 929.83,-108.75 943.9,-105.76 955.94,-103.04"/>
<polygon fill="#9a32cd" stroke="#9a32cd" points="782.3,-126.16 772.75,-130.75 783.07,-133.12 782.3,-126.16"/>
<text text-anchor="middle" x="875.5" y="-126" font-family="Helvetica,sans-Serif" font-size="10.00"> m_name</text>
</g>
<!-- Node8 -->
<g id="node8" class="node">
<title>Node8</title>
<g id="a_node8"><a xlink:href="classJoystickController.html" target="_top" xlink:title=" ">
<polygon fill="white" stroke="black" points="699,-161.5 699,-180.5 802,-180.5 802,-161.5 699,-161.5"/>
<text text-anchor="middle" x="750.5" y="-168.5" font-family="Helvetica,sans-Serif" font-size="10.00">JoystickController</text>
</a>
</g>
</g>
<!-- Node8&#45;&gt;Node2 -->
<g id="edge8" class="edge">
<title>Node8&#45;&gt;Node2</title>
<path fill="none" stroke="#9a32cd" stroke-dasharray="5,2" d="M812.35,-170.22C819.65,-170.14 826.99,-170.07 834,-170 872.14,-169.64 915.68,-169.37 946.26,-169.2"/>
<polygon fill="#9a32cd" stroke="#9a32cd" points="812.07,-166.73 802.11,-170.34 812.15,-173.73 812.07,-166.73"/>
<text text-anchor="middle" x="875.5" y="-173" font-family="Helvetica,sans-Serif" font-size="10.00"> joystick</text>
</g>
<!-- Node23 -->
<g id="node23" class="node">
<title>Node23</title>
<g id="a_node23"><a xlink:href="classMyEventReceiver.html" target="_top" xlink:title=" ">
<polygon fill="white" stroke="black" points="935.5,-235.5 935.5,-254.5 1037.5,-254.5 1037.5,-235.5 935.5,-235.5"/>
<text text-anchor="middle" x="986.5" y="-242.5" font-family="Helvetica,sans-Serif" font-size="10.00">MyEventReceiver</text>
</a>
</g>
</g>
<!-- Node8&#45;&gt;Node23 -->
<g id="edge26" class="edge">
<title>Node8&#45;&gt;Node23</title>
<path fill="none" stroke="#9a32cd" stroke-dasharray="5,2" d="M795.85,-183.32C829.31,-192.81 876.26,-206.55 917,-220 931.55,-224.8 947.64,-230.65 960.58,-235.48"/>
<polygon fill="#9a32cd" stroke="#9a32cd" points="796.5,-179.87 785.93,-180.52 794.6,-186.6 796.5,-179.87"/>
<text text-anchor="middle" x="875.5" y="-223" font-family="Helvetica,sans-Serif" font-size="10.00"> joystick</text>
</g>
<!-- Node9 -->
<g id="node9" class="node">
<title>Node9</title>
<g id="a_node9"><a xlink:title=" ">
<polygon fill="white" stroke="#bfbfbf" points="173.5,-143.5 173.5,-162.5 207.5,-162.5 207.5,-143.5 173.5,-143.5"/>
<text text-anchor="middle" x="190.5" y="-150.5" font-family="Helvetica,sans-Serif" font-size="10.00">s16</text>
</a>
</g>
</g>
<!-- Node9&#45;&gt;Node8 -->
<g id="edge9" class="edge">
<title>Node9&#45;&gt;Node8</title>
<path fill="none" stroke="#9a32cd" stroke-dasharray="5,2" d="M217.64,-153.84C304.31,-156.64 583.32,-165.64 698.77,-169.36"/>
<polygon fill="#9a32cd" stroke="#9a32cd" points="217.71,-150.34 207.6,-153.52 217.48,-157.34 217.71,-150.34"/>
<text text-anchor="middle" x="462.5" y="-167" font-family="Helvetica,sans-Serif" font-size="10.00"> m_axes_vals</text>
</g>
<!-- Node12 -->
<g id="node12" class="node">
<title>Node12</title>
<g id="a_node12"><a xlink:href="structJoystickLayout.html" target="_top" xlink:title=" ">
<polygon fill="white" stroke="black" points="418.5,-100.5 418.5,-119.5 506.5,-119.5 506.5,-100.5 418.5,-100.5"/>
<text text-anchor="middle" x="462.5" y="-107.5" font-family="Helvetica,sans-Serif" font-size="10.00">JoystickLayout</text>
</a>
</g>
</g>
<!-- Node9&#45;&gt;Node12 -->
<g id="edge13" class="edge">
<title>Node9&#45;&gt;Node12</title>
<path fill="none" stroke="#9a32cd" stroke-dasharray="5,2" d="M217.46,-148.86C263.94,-141.46 361.79,-125.88 418.46,-116.86"/>
<polygon fill="#9a32cd" stroke="#9a32cd" points="216.91,-145.41 207.58,-150.44 218.01,-152.32 216.91,-145.41"/>
<text text-anchor="middle" x="329.5" y="-139" font-family="Helvetica,sans-Serif" font-size="10.00"> axes_deadzone</text>
</g>
<!-- Node10 -->
<g id="node10" class="node">
<title>Node10</title>
<g id="a_node10"><a xlink:title=" ">
<polygon fill="white" stroke="#bfbfbf" points="448,-62.5 448,-81.5 477,-81.5 477,-62.5 448,-62.5"/>
<text text-anchor="middle" x="462.5" y="-69.5" font-family="Helvetica,sans-Serif" font-size="10.00">u8</text>
</a>
</g>
</g>
<!-- Node10&#45;&gt;Node8 -->
<g id="edge10" class="edge">
<title>Node10&#45;&gt;Node8</title>
<path fill="none" stroke="#9a32cd" stroke-dasharray="5,2" d="M486.98,-67.52C528.37,-61.04 614.89,-54.13 667,-97 686.86,-113.34 666.54,-134.09 685,-152 689.02,-155.9 693.8,-159.01 698.92,-161.48"/>
<polygon fill="#9a32cd" stroke="#9a32cd" points="486.29,-64.08 477.02,-69.21 487.46,-70.98 486.29,-64.08"/>
<text text-anchor="middle" x="611.5" y="-100" font-family="Helvetica,sans-Serif" font-size="10.00"> m_joystick_id</text>
</g>
<!-- Node11 -->
<g id="node11" class="node">
<title>Node11</title>
<g id="a_node11"><a xlink:title=" ">
<polygon fill="white" stroke="#bfbfbf" points="387,-237 387,-267 538,-267 538,-237 387,-237"/>
<text text-anchor="start" x="395" y="-255" font-family="Helvetica,sans-Serif" font-size="10.00">bitset&lt; KeyType::INTERNAL</text>
<text text-anchor="middle" x="462.5" y="-244" font-family="Helvetica,sans-Serif" font-size="10.00">_ENUM_COUNT &gt;</text>
</a>
</g>
</g>
<!-- Node11&#45;&gt;Node8 -->
<g id="edge11" class="edge">
<title>Node11&#45;&gt;Node8</title>
<path fill="none" stroke="#9a32cd" stroke-dasharray="5,2" d="M548.36,-254.36C586.29,-252.37 630.56,-245.66 667,-228 677.18,-223.06 676.09,-216.98 685,-210 699.52,-198.62 717.62,-187.94 730.94,-180.65"/>
<polygon fill="#9a32cd" stroke="#9a32cd" points="548.2,-250.86 538.36,-254.79 548.5,-257.86 548.2,-250.86"/>
<text text-anchor="middle" x="611.5" y="-289" font-family="Helvetica,sans-Serif" font-size="10.00"> m_past_keys_pressed</text>
<text text-anchor="middle" x="611.5" y="-278" font-family="Helvetica,sans-Serif" font-size="10.00">m_keys_released</text>
<text text-anchor="middle" x="611.5" y="-267" font-family="Helvetica,sans-Serif" font-size="10.00">m_keys_pressed</text>
<text text-anchor="middle" x="611.5" y="-256" font-family="Helvetica,sans-Serif" font-size="10.00">m_keys_down</text>
</g>
<!-- Node12&#45;&gt;Node8 -->
<g id="edge12" class="edge">
<title>Node12&#45;&gt;Node8</title>
<path fill="none" stroke="#9a32cd" stroke-dasharray="5,2" d="M516.58,-109.84C558.85,-111.44 618.73,-117.65 667,-138 676.34,-141.94 675.98,-147.38 685,-152 692.38,-155.78 700.62,-158.93 708.69,-161.5"/>
<polygon fill="#9a32cd" stroke="#9a32cd" points="516.61,-106.33 506.5,-109.53 516.39,-113.33 516.61,-106.33"/>
<text text-anchor="middle" x="611.5" y="-141" font-family="Helvetica,sans-Serif" font-size="10.00"> m_layout</text>
</g>
<!-- Node13 -->
<g id="node13" class="node">
<title>Node13</title>
<g id="a_node13"><a xlink:title=" ">
<polygon fill="white" stroke="#bfbfbf" points="109,-57.5 109,-76.5 272,-76.5 272,-57.5 109,-57.5"/>
<text text-anchor="middle" x="190.5" y="-64.5" font-family="Helvetica,sans-Serif" font-size="10.00">vector&lt; JoystickButtonCmb &gt;</text>
</a>
</g>
</g>
<!-- Node13&#45;&gt;Node12 -->
<g id="edge14" class="edge">
<title>Node13&#45;&gt;Node12</title>
<path fill="none" stroke="#9a32cd" stroke-dasharray="5,2" d="M282.34,-75.7C310.24,-78.92 340.97,-83.03 369,-88 387.85,-91.35 408.61,-96.18 425.68,-100.46"/>
<polygon fill="#9a32cd" stroke="#9a32cd" points="282.53,-72.2 272.2,-74.55 281.74,-79.15 282.53,-72.2"/>
<text text-anchor="middle" x="329.5" y="-91" font-family="Helvetica,sans-Serif" font-size="10.00"> button_keys</text>
</g>
<!-- Node14 -->
<g id="node14" class="node">
<title>Node14</title>
<g id="a_node14"><a xlink:href="structJoystickAxisLayout.html" target="_top" xlink:title=" ">
<polygon fill="white" stroke="black" points="136,-19.5 136,-38.5 245,-38.5 245,-19.5 136,-19.5"/>
<text text-anchor="middle" x="190.5" y="-26.5" font-family="Helvetica,sans-Serif" font-size="10.00">JoystickAxisLayout</text>
</a>
</g>
</g>
<!-- Node14&#45;&gt;Node12 -->
<g id="edge15" class="edge">
<title>Node14&#45;&gt;Node12</title>
<path fill="none" stroke="#9a32cd" stroke-dasharray="5,2" d="M255.51,-28.53C291.59,-31.13 335.91,-39.38 369,-62 381.52,-70.56 374.76,-82.03 387,-91 396.15,-97.71 407.44,-102.06 418.43,-104.87"/>
<polygon fill="#9a32cd" stroke="#9a32cd" points="255.28,-25.01 245.09,-27.92 254.87,-32 255.28,-25.01"/>
<text text-anchor="middle" x="329.5" y="-65" font-family="Helvetica,sans-Serif" font-size="10.00"> axes</text>
</g>
<!-- Node15 -->
<g id="node15" class="node">
<title>Node15</title>
<g id="a_node15"><a xlink:title=" ">
<polygon fill="white" stroke="#bfbfbf" points="0,-38.5 0,-57.5 35,-57.5 35,-38.5 0,-38.5"/>
<text text-anchor="middle" x="17.5" y="-45.5" font-family="Helvetica,sans-Serif" font-size="10.00">u16</text>
</a>
</g>
</g>
<!-- Node15&#45;&gt;Node14 -->
<g id="edge16" class="edge">
<title>Node15&#45;&gt;Node14</title>
<path fill="none" stroke="#9a32cd" stroke-dasharray="5,2" d="M45.39,-45.01C69.54,-42.33 105.72,-38.31 135.78,-34.97"/>
<polygon fill="#9a32cd" stroke="#9a32cd" points="44.76,-41.56 35.21,-46.14 45.53,-48.52 44.76,-41.56"/>
<text text-anchor="middle" x="72" y="-47" font-family="Helvetica,sans-Serif" font-size="10.00"> axis_id</text>
</g>
<!-- Node16 -->
<g id="node16" class="node">
<title>Node16</title>
<g id="a_node16"><a xlink:title=" ">
<polygon fill="white" stroke="#bfbfbf" points="3,-0.5 3,-19.5 32,-19.5 32,-0.5 3,-0.5"/>
<text text-anchor="middle" x="17.5" y="-7.5" font-family="Helvetica,sans-Serif" font-size="10.00">int</text>
</a>
</g>
</g>
<!-- Node16&#45;&gt;Node14 -->
<g id="edge17" class="edge">
<title>Node16&#45;&gt;Node14</title>
<path fill="none" stroke="#9a32cd" stroke-dasharray="5,2" d="M42.22,-12.64C66.32,-15.31 104.49,-19.55 135.94,-23.05"/>
<polygon fill="#9a32cd" stroke="#9a32cd" points="42.53,-9.15 32.2,-11.52 41.76,-16.11 42.53,-9.15"/>
<text text-anchor="middle" x="72" y="-21" font-family="Helvetica,sans-Serif" font-size="10.00"> invert</text>
</g>
<!-- Node17 -->
<g id="node17" class="node">
<title>Node17</title>
<g id="a_node17"><a xlink:title=" ">
<polygon fill="white" stroke="#bfbfbf" points="114.5,-95.5 114.5,-114.5 266.5,-114.5 266.5,-95.5 114.5,-95.5"/>
<text text-anchor="middle" x="190.5" y="-102.5" font-family="Helvetica,sans-Serif" font-size="10.00">vector&lt; JoystickAxisCmb &gt;</text>
</a>
</g>
</g>
<!-- Node17&#45;&gt;Node12 -->
<g id="edge18" class="edge">
<title>Node17&#45;&gt;Node12</title>
<path fill="none" stroke="#9a32cd" stroke-dasharray="5,2" d="M276.83,-103.21C306.06,-102.94 338.97,-103.03 369,-104 385.08,-104.52 402.72,-105.55 418.23,-106.61"/>
<polygon fill="#9a32cd" stroke="#9a32cd" points="276.62,-99.71 266.66,-103.31 276.69,-106.71 276.62,-99.71"/>
<text text-anchor="middle" x="329.5" y="-107" font-family="Helvetica,sans-Serif" font-size="10.00"> axis_keys</text>
</g>
<!-- Node18 -->
<g id="node18" class="node">
<title>Node18</title>
<g id="a_node18"><a xlink:title=" ">
<polygon fill="white" stroke="#bfbfbf" points="446.5,-192.5 446.5,-211.5 478.5,-211.5 478.5,-192.5 446.5,-192.5"/>
<text text-anchor="middle" x="462.5" y="-199.5" font-family="Helvetica,sans-Serif" font-size="10.00">f32</text>
</a>
</g>
</g>
<!-- Node18&#45;&gt;Node8 -->
<g id="edge19" class="edge">
<title>Node18&#45;&gt;Node8</title>
<path fill="none" stroke="#9a32cd" stroke-dasharray="5,2" d="M488.83,-199.25C535.84,-194.16 637.43,-183.15 698.98,-176.48"/>
<polygon fill="#9a32cd" stroke="#9a32cd" points="488.44,-195.78 478.88,-200.33 489.2,-202.74 488.44,-195.78"/>
<text text-anchor="middle" x="611.5" y="-216" font-family="Helvetica,sans-Serif" font-size="10.00"> m_internal_time</text>
<text text-anchor="middle" x="611.5" y="-205" font-family="Helvetica,sans-Serif" font-size="10.00">doubling_dtime</text>
<text text-anchor="middle" x="611.5" y="-194" font-family="Helvetica,sans-Serif" font-size="10.00">m_past_pressed_time</text>
</g>
<!-- Node19 -->
<g id="node19" class="node">
<title>Node19</title>
<g id="a_node19"><a xlink:href="classirr_1_1core_1_1vector2d.html" target="_top" xlink:title=" ">
<polygon fill="white" stroke="black" points="935,-359 935,-389 1038,-389 1038,-359 935,-359"/>
<text text-anchor="start" x="943" y="-377" font-family="Helvetica,sans-Serif" font-size="10.00">irr::core::vector2d</text>
<text text-anchor="middle" x="986.5" y="-366" font-family="Helvetica,sans-Serif" font-size="10.00">&lt; s32 &gt;</text>
</a>
</g>
</g>
<!-- Node19&#45;&gt;Node1 -->
<g id="edge20" class="edge">
<title>Node19&#45;&gt;Node1</title>
<path fill="none" stroke="#9a32cd" stroke-dasharray="5,2" d="M1019.9,-353.61C1064.75,-325.39 1143.94,-275.56 1177.16,-254.65"/>
<polygon fill="#9a32cd" stroke="#9a32cd" points="1018.02,-350.66 1011.42,-358.95 1021.75,-356.59 1018.02,-350.66"/>
<text text-anchor="middle" x="1090.5" y="-331" font-family="Helvetica,sans-Serif" font-size="10.00"> m_mousepos</text>
</g>
<!-- Node20 -->
<g id="node20" class="node">
<title>Node20</title>
<g id="a_node20"><a xlink:title=" ">
<polygon fill="white" stroke="#bfbfbf" points="733.5,-347.5 733.5,-366.5 767.5,-366.5 767.5,-347.5 733.5,-347.5"/>
<text text-anchor="middle" x="750.5" y="-354.5" font-family="Helvetica,sans-Serif" font-size="10.00">s32</text>
</a>
</g>
</g>
<!-- Node20&#45;&gt;Node19 -->
<g id="edge21" class="edge">
<title>Node20&#45;&gt;Node19</title>
<path fill="none" stroke="#9a32cd" stroke-dasharray="5,2" d="M777.81,-358.91C815.76,-361.67 886.61,-366.82 934.9,-370.32"/>
<polygon fill="#9a32cd" stroke="#9a32cd" points="777.81,-355.4 767.58,-358.17 777.3,-362.38 777.81,-355.4"/>
<text text-anchor="middle" x="875.5" y="-382" font-family="Helvetica,sans-Serif" font-size="10.00"> X</text>
<text text-anchor="middle" x="875.5" y="-371" font-family="Helvetica,sans-Serif" font-size="10.00">Y</text>
</g>
<!-- Node20&#45;&gt;Node23 -->
<g id="edge29" class="edge">
<title>Node20&#45;&gt;Node23</title>
<path fill="none" stroke="#9a32cd" stroke-dasharray="5,2" d="M777.79,-355.48C811.95,-352.51 872.5,-343.74 917,-318 945.13,-301.73 968.72,-270.28 979.39,-254.51"/>
<polygon fill="#9a32cd" stroke="#9a32cd" points="777.38,-352 767.68,-356.26 777.91,-358.98 777.38,-352"/>
<text text-anchor="middle" x="875.5" y="-350" font-family="Helvetica,sans-Serif" font-size="10.00"> mouse_wheel</text>
</g>
<!-- Node21 -->
<g id="node21" class="node">
<title>Node21</title>
<g id="a_node21"><a xlink:href="classirr_1_1core_1_1vector2d.html" target="_top" xlink:title="2d vector template class with lots of operators and methods.">
<polygon fill="white" stroke="black" points="685,-409.5 685,-428.5 816,-428.5 816,-409.5 685,-409.5"/>
<text text-anchor="middle" x="750.5" y="-416.5" font-family="Helvetica,sans-Serif" font-size="10.00">irr::core::vector2d&lt; T &gt;</text>
</a>
</g>
</g>
<!-- Node21&#45;&gt;Node19 -->
<g id="edge22" class="edge">
<title>Node21&#45;&gt;Node19</title>
<path fill="none" stroke="orange" stroke-dasharray="5,2" d="M826.23,-409.88C854.79,-405.83 887.55,-400.49 917,-394 923.53,-392.56 930.36,-390.84 937.06,-389.02"/>
<polygon fill="orange" stroke="orange" points="825.74,-406.41 816.32,-411.26 826.71,-413.35 825.74,-406.41"/>
<text text-anchor="middle" x="875.5" y="-411" font-family="Helvetica,sans-Serif" font-size="10.00"> &lt; s32 &gt;</text>
</g>
<!-- Node22 -->
<g id="node22" class="node">
<title>Node22</title>
<g id="a_node22"><a xlink:title=" ">
<polygon fill="white" stroke="#bfbfbf" points="448,-409.5 448,-428.5 477,-428.5 477,-409.5 448,-409.5"/>
<text text-anchor="middle" x="462.5" y="-416.5" font-family="Helvetica,sans-Serif" font-size="10.00">T</text>
</a>
</g>
</g>
<!-- Node22&#45;&gt;Node21 -->
<g id="edge23" class="edge">
<title>Node22&#45;&gt;Node21</title>
<path fill="none" stroke="#9a32cd" stroke-dasharray="5,2" d="M487.35,-419C530.3,-419 622.01,-419 684.73,-419"/>
<polygon fill="#9a32cd" stroke="#9a32cd" points="487.29,-415.5 477.29,-419 487.29,-422.5 487.29,-415.5"/>
<text text-anchor="middle" x="611.5" y="-433" font-family="Helvetica,sans-Serif" font-size="10.00"> X</text>
<text text-anchor="middle" x="611.5" y="-422" font-family="Helvetica,sans-Serif" font-size="10.00">Y</text>
</g>
<!-- Node23&#45;&gt;Node1 -->
<g id="edge24" class="edge">
<title>Node23&#45;&gt;Node1</title>
<path fill="none" stroke="#9a32cd" stroke-dasharray="5,2" d="M1047.67,-245C1077.95,-245 1114.21,-245 1142.87,-245"/>
<polygon fill="#9a32cd" stroke="#9a32cd" points="1047.65,-241.5 1037.65,-245 1047.65,-248.5 1047.65,-241.5"/>
<text text-anchor="middle" x="1090.5" y="-248" font-family="Helvetica,sans-Serif" font-size="10.00"> m_receiver</text>
</g>
<!-- Node24 -->
<g id="node24" class="node">
<title>Node24</title>
<g id="a_node24"><a xlink:href="classirr_1_1IEventReceiver.html" target="_top" xlink:title="Interface of an object which can receive events.">
<polygon fill="white" stroke="black" points="697,-219.5 697,-238.5 804,-238.5 804,-219.5 697,-219.5"/>
<text text-anchor="middle" x="750.5" y="-226.5" font-family="Helvetica,sans-Serif" font-size="10.00">irr::IEventReceiver</text>
</a>
</g>
</g>
<!-- Node24&#45;&gt;Node23 -->
<g id="edge25" class="edge">
<title>Node24&#45;&gt;Node23</title>
<path fill="none" stroke="midnightblue" d="M814.42,-233.3C852.27,-235.89 899.81,-239.14 935.17,-241.56"/>
<polygon fill="midnightblue" stroke="midnightblue" points="814.23,-229.78 804.01,-232.59 813.75,-236.76 814.23,-229.78"/>
</g>
<!-- Node25 -->
<g id="node25" class="node">
<title>Node25</title>
<g id="a_node25"><a xlink:href="classKeyList.html" target="_top" xlink:title=" ">
<polygon fill="white" stroke="black" points="724.5,-292.5 724.5,-311.5 776.5,-311.5 776.5,-292.5 724.5,-292.5"/>
<text text-anchor="middle" x="750.5" y="-299.5" font-family="Helvetica,sans-Serif" font-size="10.00">KeyList</text>
</a>
</g>
</g>
<!-- Node25&#45;&gt;Node23 -->
<g id="edge27" class="edge">
<title>Node25&#45;&gt;Node23</title>
<path fill="none" stroke="#9a32cd" stroke-dasharray="5,2" d="M776.79,-287.42C792.7,-278.92 813.95,-268.76 834,-263 866.97,-253.52 905.35,-249.03 935.23,-246.9"/>
<polygon fill="#9a32cd" stroke="#9a32cd" points="774.71,-284.56 767.63,-292.44 778.08,-290.7 774.71,-284.56"/>
<text text-anchor="middle" x="875.5" y="-310" font-family="Helvetica,sans-Serif" font-size="10.00"> keysListenedFor</text>
<text text-anchor="middle" x="875.5" y="-299" font-family="Helvetica,sans-Serif" font-size="10.00">keyWasReleased</text>
<text text-anchor="middle" x="875.5" y="-288" font-family="Helvetica,sans-Serif" font-size="10.00">keyIsDown</text>
<text text-anchor="middle" x="875.5" y="-277" font-family="Helvetica,sans-Serif" font-size="10.00">keyWasDown</text>
<text text-anchor="middle" x="875.5" y="-266" font-family="Helvetica,sans-Serif" font-size="10.00">keyWasPressed</text>
</g>
<!-- Node26 -->
<g id="node26" class="node">
<title>Node26</title>
<g id="a_node26"><a xlink:title=" ">
<polygon fill="white" stroke="#bfbfbf" points="403,-301.5 403,-320.5 522,-320.5 522,-301.5 403,-301.5"/>
<text text-anchor="middle" x="462.5" y="-308.5" font-family="Helvetica,sans-Serif" font-size="10.00">std::list&lt; KeyPress &gt;</text>
</a>
</g>
</g>
<!-- Node26&#45;&gt;Node25 -->
<g id="edge28" class="edge">
<title>Node26&#45;&gt;Node25</title>
<path fill="none" stroke="#8b1a1a" d="M532.16,-308.84C594.07,-306.89 681.74,-304.13 724.33,-302.79"/>
<polygon fill="#8b1a1a" stroke="#8b1a1a" points="531.95,-305.34 522.07,-309.16 532.17,-312.34 531.95,-305.34"/>
</g>
</g>
</svg>
