<?xml version="1.0" encoding="UTF-8" standalone="no"?>
<!DOCTYPE svg PUBLIC "-//W3C//DTD SVG 1.1//EN"
 "http://www.w3.org/Graphics/SVG/1.1/DTD/svg11.dtd">
<!-- Generated by graphviz version 2.43.0 (0)
 -->
<!-- Title: LogOutputBuffer Pages: 1 -->
<svg width="569pt" height="275pt"
 viewBox="0.00 0.00 569.00 275.45" xmlns="http://www.w3.org/2000/svg" xmlns:xlink="http://www.w3.org/1999/xlink">
<g id="graph0" class="graph" transform="scale(1 1) rotate(0) translate(4 271.45)">
<title>LogOutputBuffer</title>
<polygon fill="white" stroke="transparent" points="-4,4 -4,-271.45 565,-271.45 565,4 -4,4"/>
<!-- Node1 -->
<g id="node1" class="node">
<title>Node1</title>
<g id="a_node1"><a xlink:title=" ">
<polygon fill="#bfbfbf" stroke="black" points="465,-196.95 465,-215.95 561,-215.95 561,-196.95 465,-196.95"/>
<text text-anchor="middle" x="513" y="-203.95" font-family="Helvetica,sans-Serif" font-size="10.00">LogOutputBuffer</text>
</a>
</g>
</g>
<!-- Node2 -->
<g id="node2" class="node">
<title>Node2</title>
<g id="a_node2"><a xlink:href="classICombinedLogOutput.html" target="_top" xlink:title=" ">
<polygon fill="white" stroke="black" points="261,-247.95 261,-266.95 380,-266.95 380,-247.95 261,-247.95"/>
<text text-anchor="middle" x="320.5" y="-254.95" font-family="Helvetica,sans-Serif" font-size="10.00">ICombinedLogOutput</text>
</a>
</g>
</g>
<!-- Node2&#45;&gt;Node1 -->
<g id="edge1" class="edge">
<title>Node2&#45;&gt;Node1</title>
<path fill="none" stroke="midnightblue" d="M390.05,-246.16C408.69,-242.45 428.77,-237.86 447,-232.45 462.03,-227.99 478.42,-221.42 490.98,-216.01"/>
<polygon fill="midnightblue" stroke="midnightblue" points="389.31,-242.74 380.15,-248.08 390.64,-249.61 389.31,-242.74"/>
</g>
<!-- Node3 -->
<g id="node3" class="node">
<title>Node3</title>
<g id="a_node3"><a xlink:href="classILogOutput.html" target="_top" xlink:title=" ">
<polygon fill="white" stroke="black" points="30.5,-247.95 30.5,-266.95 100.5,-266.95 100.5,-247.95 30.5,-247.95"/>
<text text-anchor="middle" x="65.5" y="-254.95" font-family="Helvetica,sans-Serif" font-size="10.00">ILogOutput</text>
</a>
</g>
</g>
<!-- Node3&#45;&gt;Node2 -->
<g id="edge2" class="edge">
<title>Node3&#45;&gt;Node2</title>
<path fill="none" stroke="midnightblue" d="M110.73,-257.45C152.36,-257.45 214.98,-257.45 260.78,-257.45"/>
<polygon fill="midnightblue" stroke="midnightblue" points="110.62,-253.95 100.62,-257.45 110.62,-260.95 110.62,-253.95"/>
</g>
<!-- Node4 -->
<g id="node4" class="node">
<title>Node4</title>
<g id="a_node4"><a xlink:title=" ">
<polygon fill="white" stroke="#bfbfbf" points="41.5,-205.95 41.5,-224.95 89.5,-224.95 89.5,-205.95 41.5,-205.95"/>
<text text-anchor="middle" x="65.5" y="-212.95" font-family="Helvetica,sans-Serif" font-size="10.00">mutex</text>
</a>
</g>
</g>
<!-- Node4&#45;&gt;Node1 -->
<g id="edge3" class="edge">
<title>Node4&#45;&gt;Node1</title>
<path fill="none" stroke="#9a32cd" stroke-dasharray="5,2" d="M99.76,-214.78C178.04,-213.2 374.17,-209.24 464.77,-207.41"/>
<polygon fill="#9a32cd" stroke="#9a32cd" points="99.44,-211.29 89.51,-214.99 99.58,-218.28 99.44,-211.29"/>
<text text-anchor="middle" x="320.5" y="-213.45" font-family="Helvetica,sans-Serif" font-size="10.00"> m_buffer_mutex</text>
</g>
<!-- Node6 -->
<g id="node6" class="node">
<title>Node6</title>
<g id="a_node6"><a xlink:href="classLogger.html" target="_top" xlink:title=" ">
<polygon fill="white" stroke="black" points="295.5,-126.95 295.5,-145.95 345.5,-145.95 345.5,-126.95 295.5,-126.95"/>
<text text-anchor="middle" x="320.5" y="-133.95" font-family="Helvetica,sans-Serif" font-size="10.00">Logger</text>
</a>
</g>
</g>
<!-- Node4&#45;&gt;Node6 -->
<g id="edge6" class="edge">
<title>Node4&#45;&gt;Node6</title>
<path fill="none" stroke="#9a32cd" stroke-dasharray="5,2" d="M99.48,-206.49C114.56,-202.44 132.66,-197.63 149,-193.45 190.67,-182.8 202.3,-184.35 243,-170.45 263.08,-163.59 285.14,-153.5 300.39,-146.09"/>
<polygon fill="#9a32cd" stroke="#9a32cd" points="98.32,-203.18 89.58,-209.16 100.15,-209.94 98.32,-203.18"/>
<text text-anchor="middle" x="196" y="-196.45" font-family="Helvetica,sans-Serif" font-size="10.00"> m_mutex</text>
</g>
<!-- Node5 -->
<g id="node5" class="node">
<title>Node5</title>
<g id="a_node5"><a xlink:title=" ">
<polygon fill="white" stroke="#bfbfbf" points="261.5,-88.95 261.5,-107.95 379.5,-107.95 379.5,-88.95 261.5,-88.95"/>
<text text-anchor="middle" x="320.5" y="-95.95" font-family="Helvetica,sans-Serif" font-size="10.00">queue&lt; std::string &gt;</text>
</a>
</g>
</g>
<!-- Node5&#45;&gt;Node1 -->
<g id="edge4" class="edge">
<title>Node5&#45;&gt;Node1</title>
<path fill="none" stroke="#9a32cd" stroke-dasharray="5,2" d="M362.94,-111.16C368.71,-113.15 374.54,-115.27 380,-117.45 410.65,-129.69 419.45,-131.29 447,-149.45 468.55,-163.66 490.49,-184.51 502.56,-196.66"/>
<polygon fill="#9a32cd" stroke="#9a32cd" points="363.94,-107.8 353.35,-107.96 361.72,-114.44 363.94,-107.8"/>
<text text-anchor="middle" x="422.5" y="-152.45" font-family="Helvetica,sans-Serif" font-size="10.00"> m_buffer</text>
</g>
<!-- Node6&#45;&gt;Node1 -->
<g id="edge5" class="edge">
<title>Node6&#45;&gt;Node1</title>
<path fill="none" stroke="#9a32cd" stroke-dasharray="5,2" d="M355.07,-148.79C392.41,-162.51 451.94,-184.38 485.94,-196.87"/>
<polygon fill="#9a32cd" stroke="#9a32cd" points="356.22,-145.48 345.63,-145.32 353.81,-152.05 356.22,-145.48"/>
<text text-anchor="middle" x="422.5" y="-184.45" font-family="Helvetica,sans-Serif" font-size="10.00"> m_logger</text>
</g>
<!-- Node7 -->
<g id="node7" class="node">
<title>Node7</title>
<g id="a_node7"><a xlink:title=" ">
<polygon fill="white" stroke="#bfbfbf" points="5.5,-153.45 5.5,-183.45 125.5,-183.45 125.5,-153.45 5.5,-153.45"/>
<text text-anchor="start" x="13.5" y="-171.45" font-family="Helvetica,sans-Serif" font-size="10.00">map&lt; std::thread::id,</text>
<text text-anchor="middle" x="65.5" y="-160.45" font-family="Helvetica,sans-Serif" font-size="10.00"> std::string &gt;</text>
</a>
</g>
</g>
<!-- Node7&#45;&gt;Node6 -->
<g id="edge7" class="edge">
<title>Node7&#45;&gt;Node6</title>
<path fill="none" stroke="#9a32cd" stroke-dasharray="5,2" d="M135.85,-159.68C188.87,-152.97 258.87,-144.12 295.23,-139.52"/>
<polygon fill="#9a32cd" stroke="#9a32cd" points="135.3,-156.22 125.82,-160.95 136.18,-163.17 135.3,-156.22"/>
<text text-anchor="middle" x="196" y="-159.45" font-family="Helvetica,sans-Serif" font-size="10.00"> m_thread_names</text>
</g>
<!-- Node8 -->
<g id="node8" class="node">
<title>Node8</title>
<g id="a_node8"><a xlink:title=" ">
<polygon fill="white" stroke="#bfbfbf" points="0,-114.95 0,-133.95 131,-133.95 131,-114.95 0,-114.95"/>
<text text-anchor="middle" x="65.5" y="-121.95" font-family="Helvetica,sans-Serif" font-size="10.00">vector&lt; ILogOutput * &gt;</text>
</a>
</g>
</g>
<!-- Node8&#45;&gt;Node6 -->
<g id="edge8" class="edge">
<title>Node8&#45;&gt;Node6</title>
<path fill="none" stroke="#9a32cd" stroke-dasharray="5,2" d="M141.15,-122.61C172.62,-122.42 209.64,-122.97 243,-125.45 260.66,-126.77 280.45,-129.65 295.47,-132.13"/>
<polygon fill="#9a32cd" stroke="#9a32cd" points="141.1,-119.11 131.13,-122.7 141.16,-126.11 141.1,-119.11"/>
<text text-anchor="middle" x="196" y="-128.45" font-family="Helvetica,sans-Serif" font-size="10.00"> m_outputs</text>
</g>
<!-- Node9 -->
<g id="node9" class="node">
<title>Node9</title>
<g id="a_node9"><a xlink:href="classbool.html" target="_top" xlink:title=" ">
<polygon fill="white" stroke="black" points="46.5,-76.95 46.5,-95.95 84.5,-95.95 84.5,-76.95 46.5,-76.95"/>
<text text-anchor="middle" x="65.5" y="-83.95" font-family="Helvetica,sans-Serif" font-size="10.00">bool</text>
</a>
</g>
</g>
<!-- Node9&#45;&gt;Node6 -->
<g id="edge9" class="edge">
<title>Node9&#45;&gt;Node6</title>
<path fill="none" stroke="#9a32cd" stroke-dasharray="5,2" d="M94.61,-86.47C130.05,-87.25 192.44,-91.1 243,-107.45 251.71,-110.27 252.61,-113.8 261,-117.45 272.06,-122.27 284.76,-126.53 295.49,-129.8"/>
<polygon fill="#9a32cd" stroke="#9a32cd" points="94.57,-82.97 84.52,-86.32 94.47,-89.97 94.57,-82.97"/>
<text text-anchor="middle" x="196" y="-110.45" font-family="Helvetica,sans-Serif" font-size="10.00"> m_silenced_levels</text>
</g>
<!-- Node10 -->
<g id="node10" class="node">
<title>Node10</title>
<g id="a_node10"><a xlink:title=" ">
<polygon fill="white" stroke="#bfbfbf" points="21,-38.95 21,-57.95 110,-57.95 110,-38.95 21,-38.95"/>
<text text-anchor="middle" x="65.5" y="-45.95" font-family="Helvetica,sans-Serif" font-size="10.00">static LogColor</text>
</a>
</g>
</g>
<!-- Node10&#45;&gt;Node6 -->
<g id="edge10" class="edge">
<title>Node10&#45;&gt;Node6</title>
<path fill="none" stroke="#9a32cd" stroke-dasharray="5,2" d="M120.62,-43.7C158.57,-43.24 208.5,-48.74 243,-75.45 259.06,-87.88 246,-103.76 261,-117.45 270.38,-126.02 283.68,-130.73 295.23,-133.31"/>
<polygon fill="#9a32cd" stroke="#9a32cd" points="120.16,-40.21 110.25,-43.98 120.34,-47.21 120.16,-40.21"/>
<text text-anchor="middle" x="196" y="-78.45" font-family="Helvetica,sans-Serif" font-size="10.00"> color_mode</text>
</g>
<!-- Node11 -->
<g id="node11" class="node">
<title>Node11</title>
<g id="a_node11"><a xlink:title=" ">
<polygon fill="white" stroke="#bfbfbf" points="18.5,-0.95 18.5,-19.95 112.5,-19.95 112.5,-0.95 18.5,-0.95"/>
<text text-anchor="middle" x="65.5" y="-7.95" font-family="Helvetica,sans-Serif" font-size="10.00">atomic&lt; bool &gt;</text>
</a>
</g>
</g>
<!-- Node11&#45;&gt;Node6 -->
<g id="edge11" class="edge">
<title>Node11&#45;&gt;Node6</title>
<path fill="none" stroke="#9a32cd" stroke-dasharray="5,2" d="M122.74,-1.12C161.32,1.91 211.11,-1.35 243,-30.45 272.16,-57.07 234.66,-88.04 261,-117.45 269.69,-127.16 283.39,-131.93 295.34,-134.26"/>
<polygon fill="#9a32cd" stroke="#9a32cd" points="122.32,2.35 112.69,-2.07 122.97,-4.61 122.32,2.35"/>
<text text-anchor="middle" x="196" y="-33.45" font-family="Helvetica,sans-Serif" font-size="10.00"> m_has_outputs</text>
</g>
</g>
</svg>
