<?xml version="1.0" encoding="UTF-8" standalone="no"?>
<!DOCTYPE svg PUBLIC "-//W3C//DTD SVG 1.1//EN"
 "http://www.w3.org/Graphics/SVG/1.1/DTD/svg11.dtd">
<!-- Generated by graphviz version 2.43.0 (0)
 -->
<!-- Title: net.minetest.minetest.MainActivity Pages: 1 -->
<!--zoomable 128 -->
<svg id="main" version="1.1" xmlns="http://www.w3.org/2000/svg" xmlns:xlink="http://www.w3.org/1999/xlink" xml:space="preserve" onload="init(evt)">
<style type="text/css"><![CDATA[
.edge:hover path { stroke: red; }
.edge:hover polygon { stroke: red; fill: red; }
]]></style>
<script type="text/javascript"><![CDATA[
var edges = document.getElementsByTagName('g');
if (edges && edges.length) {
  for (var i=0;i<edges.length;i++) {
    if (edges[i].id.substr(0,4)=='edge') {
      edges[i].setAttribute('class','edge');
    }
  }
}
]]></script>
        <defs>
                <circle id="rim" cx="0" cy="0" r="7"/>
                <circle id="rim2" cx="0" cy="0" r="3.5"/>
                <g id="zoomPlus">
                        <use xlink:href="#rim" fill="#404040">
                                <set attributeName="fill" to="#808080" begin="zoomplus.mouseover" end="zoomplus.mouseout"/>
                        </use>
                        <path d="M-4,0h8M0,-4v8" fill="none" stroke="white" stroke-width="1.5" pointer-events="none"/>
                </g>
                <g id="zoomMin">
                        <use xlink:href="#rim" fill="#404040">
                                <set attributeName="fill" to="#808080" begin="zoomminus.mouseover" end="zoomminus.mouseout"/>
                        </use>
                        <path d="M-4,0h8" fill="none" stroke="white" stroke-width="1.5" pointer-events="none"/>
                </g>
                <g id="dirArrow">
                        <path fill="none" stroke="white" stroke-width="1.5" d="M0,-3.0v7 M-2.5,-0.5L0,-3.0L2.5,-0.5"/>
                </g>
               <g id="resetDef">
                       <use xlink:href="#rim2" fill="#404040">
                               <set attributeName="fill" to="#808080" begin="reset.mouseover" end="reset.mouseout"/>
                       </use>
               </g>
        </defs>

<script type="text/javascript">
var viewWidth = 778;
var viewHeight = 128;
var sectionId = 'dynsection-1';
</script>
<script xlink:href="svgpan.js"/>
<svg id="graph" class="graph">
<g id="viewport">
<title>net.minetest.minetest.MainActivity</title>
<polygon fill="white" stroke="transparent" points="-4,4 -4,-124 773.5,-124 773.5,4 -4,4"/>
<!-- Node1 -->
<g id="node1" class="node">
<title>Node1</title>
<g id="a_node1"><a xlink:title=" ">
<polygon fill="#bfbfbf" stroke="black" points="335.5,-0.5 335.5,-30.5 487.5,-30.5 487.5,-0.5 335.5,-0.5"/>
<text text-anchor="start" x="343.5" y="-18.5" font-family="Helvetica,sans-Serif" font-size="10.00">net.minetest.minetest.Main</text>
<text text-anchor="middle" x="411.5" y="-7.5" font-family="Helvetica,sans-Serif" font-size="10.00">Activity</text>
</a>
</g>
</g>
<!-- Node2 -->
<g id="node2" class="node">
<title>Node2</title>
<g id="a_node2"><a xlink:title=" ">
<polygon fill="white" stroke="#bfbfbf" points="0,-100.5 0,-119.5 111,-119.5 111,-100.5 0,-100.5"/>
<text text-anchor="middle" x="55.5" y="-107.5" font-family="Helvetica,sans-Serif" font-size="10.00">AppCompatActivity</text>
</a>
</g>
</g>
<!-- Node2&#45;&gt;Node1 -->
<g id="edge1" class="edge">
<title>Node2&#45;&gt;Node1</title>
<path fill="none" stroke="midnightblue" d="M72.94,-93.53C89.93,-79.4 117.14,-59.21 144.5,-49 206.08,-26.02 280.65,-18.49 335.32,-16.36"/>
<polygon fill="midnightblue" stroke="midnightblue" points="70.37,-91.12 65.04,-100.28 74.91,-96.44 70.37,-91.12"/>
</g>
<!-- Node3 -->
<g id="node3" class="node">
<title>Node3</title>
<g id="a_node3"><a xlink:title=" ">
<polygon fill="white" stroke="#bfbfbf" points="129,-100.5 129,-119.5 174,-119.5 174,-100.5 129,-100.5"/>
<text text-anchor="middle" x="151.5" y="-107.5" font-family="Helvetica,sans-Serif" font-size="10.00">String</text>
</a>
</g>
</g>
<!-- Node3&#45;&gt;Node1 -->
<g id="edge2" class="edge">
<title>Node3&#45;&gt;Node1</title>
<path fill="none" stroke="#9a32cd" stroke-dasharray="5,2" d="M148.56,-90.22C147.62,-76.88 148.91,-59.54 159.5,-49 183.65,-24.96 270.43,-18.1 335.46,-16.44"/>
<polygon fill="#9a32cd" stroke="#9a32cd" points="145.09,-90.71 149.72,-100.24 152.05,-89.9 145.09,-90.71"/>
<text text-anchor="middle" x="235.5" y="-74" font-family="Helvetica,sans-Serif" font-size="10.00"> REQUIRED_SDK_PERMISSIONS</text>
<text text-anchor="middle" x="235.5" y="-63" font-family="Helvetica,sans-Serif" font-size="10.00">SETTINGS</text>
<text text-anchor="middle" x="235.5" y="-52" font-family="Helvetica,sans-Serif" font-size="10.00">TAG_VERSION_CODE</text>
</g>
<!-- Node4 -->
<g id="node4" class="node">
<title>Node4</title>
<g id="a_node4"><a xlink:title=" ">
<polygon fill="white" stroke="#bfbfbf" points="246.5,-100.5 246.5,-119.5 354.5,-119.5 354.5,-100.5 246.5,-100.5"/>
<text text-anchor="middle" x="300.5" y="-107.5" font-family="Helvetica,sans-Serif" font-size="10.00">BroadcastReceiver</text>
</a>
</g>
</g>
<!-- Node4&#45;&gt;Node1 -->
<g id="edge3" class="edge">
<title>Node4&#45;&gt;Node1</title>
<path fill="none" stroke="#9a32cd" stroke-dasharray="5,2" d="M309.63,-91.22C317.05,-78.17 328.55,-60.75 342.5,-49 351.31,-41.58 362.1,-35.45 372.51,-30.59"/>
<polygon fill="#9a32cd" stroke="#9a32cd" points="306.46,-89.71 304.78,-100.17 312.62,-93.05 306.46,-89.71"/>
<text text-anchor="middle" x="373.5" y="-63" font-family="Helvetica,sans-Serif" font-size="10.00"> myReceiver</text>
</g>
<!-- Node5 -->
<g id="node5" class="node">
<title>Node5</title>
<g id="a_node5"><a xlink:title=" ">
<polygon fill="white" stroke="#bfbfbf" points="372.5,-100.5 372.5,-119.5 480.5,-119.5 480.5,-100.5 372.5,-100.5"/>
<text text-anchor="middle" x="426.5" y="-107.5" font-family="Helvetica,sans-Serif" font-size="10.00">SharedPreferences</text>
</a>
</g>
</g>
<!-- Node5&#45;&gt;Node1 -->
<g id="edge4" class="edge">
<title>Node5&#45;&gt;Node1</title>
<path fill="none" stroke="#9a32cd" stroke-dasharray="5,2" d="M415.94,-91.45C414.53,-88.4 413.3,-85.17 412.5,-82 408.14,-64.69 408.75,-43.97 409.88,-30.54"/>
<polygon fill="#9a32cd" stroke="#9a32cd" points="412.93,-93.25 420.74,-100.42 419.11,-89.95 412.93,-93.25"/>
<text text-anchor="middle" x="459.5" y="-63" font-family="Helvetica,sans-Serif" font-size="10.00"> sharedPreferences</text>
</g>
<!-- Node6 -->
<g id="node6" class="node">
<title>Node6</title>
<g id="a_node6"><a xlink:title=" ">
<polygon fill="white" stroke="#bfbfbf" points="514,-100.5 514,-119.5 543,-119.5 543,-100.5 514,-100.5"/>
<text text-anchor="middle" x="528.5" y="-107.5" font-family="Helvetica,sans-Serif" font-size="10.00">int</text>
</a>
</g>
</g>
<!-- Node6&#45;&gt;Node1 -->
<g id="edge5" class="edge">
<title>Node6&#45;&gt;Node1</title>
<path fill="none" stroke="#9a32cd" stroke-dasharray="5,2" d="M526.01,-90.51C523.31,-77.32 517.78,-60.03 506.5,-49 498.4,-41.08 488.29,-35.08 477.71,-30.55"/>
<polygon fill="#9a32cd" stroke="#9a32cd" points="522.56,-91.11 527.67,-100.4 529.46,-89.96 522.56,-91.11"/>
<text text-anchor="middle" x="558.5" y="-68.5" font-family="Helvetica,sans-Serif" font-size="10.00"> PERMISSIONS</text>
<text text-anchor="middle" x="558.5" y="-57.5" font-family="Helvetica,sans-Serif" font-size="10.00">versionCode</text>
</g>
<!-- Node7 -->
<g id="node7" class="node">
<title>Node7</title>
<g id="a_node7"><a xlink:title=" ">
<polygon fill="white" stroke="#bfbfbf" points="584,-100.5 584,-119.5 659,-119.5 659,-100.5 584,-100.5"/>
<text text-anchor="middle" x="621.5" y="-107.5" font-family="Helvetica,sans-Serif" font-size="10.00">ProgressBar</text>
</a>
</g>
</g>
<!-- Node7&#45;&gt;Node1 -->
<g id="edge6" class="edge">
<title>Node7&#45;&gt;Node1</title>
<path fill="none" stroke="#9a32cd" stroke-dasharray="5,2" d="M618.83,-89.93C615.92,-76.45 609.89,-59.05 597.5,-49 580.64,-35.32 531.4,-27.09 487.82,-22.34"/>
<polygon fill="#9a32cd" stroke="#9a32cd" points="615.44,-90.84 620.62,-100.08 622.33,-89.63 615.44,-90.84"/>
<text text-anchor="middle" x="652.5" y="-63" font-family="Helvetica,sans-Serif" font-size="10.00"> mProgressBar</text>
</g>
<!-- Node8 -->
<g id="node8" class="node">
<title>Node8</title>
<g id="a_node8"><a xlink:title=" ">
<polygon fill="white" stroke="#bfbfbf" points="686,-100.5 686,-119.5 747,-119.5 747,-100.5 686,-100.5"/>
<text text-anchor="middle" x="716.5" y="-107.5" font-family="Helvetica,sans-Serif" font-size="10.00">TextView</text>
</a>
</g>
</g>
<!-- Node8&#45;&gt;Node1 -->
<g id="edge7" class="edge">
<title>Node8&#45;&gt;Node1</title>
<path fill="none" stroke="#9a32cd" stroke-dasharray="5,2" d="M714.09,-90.16C711.3,-76.51 705.31,-58.79 692.5,-49 661.34,-25.18 559.64,-18.43 487.58,-16.72"/>
<polygon fill="#9a32cd" stroke="#9a32cd" points="710.7,-91.1 715.76,-100.41 717.61,-89.97 710.7,-91.1"/>
<text text-anchor="middle" x="740.5" y="-63" font-family="Helvetica,sans-Serif" font-size="10.00"> mTextView</text>
</g>
</g>
</svg>
        <g id="navigator" transform="translate(0 0)" fill="#404254">
                <rect fill="#f2f5e9" fill-opacity="0.5" stroke="#606060" stroke-width=".5" x="0" y="0" width="60" height="60"/>
                <use id="zoomplus" xlink:href="#zoomPlus" x="17" y="9" onmousedown="handleZoom(evt,'in')"/>
                <use id="zoomminus" xlink:href="#zoomMin" x="42" y="9" onmousedown="handleZoom(evt,'out')"/>
                <use id="reset" xlink:href="#resetDef" x="30" y="36" onmousedown="handleReset()"/>
                <g id="arrowUp" xlink:href="#dirArrow" transform="translate(30 24)" onmousedown="handlePan(0,-1)">
                  <use xlink:href="#rim" fill="#404040">
                        <set attributeName="fill" to="#808080" begin="arrowUp.mouseover" end="arrowUp.mouseout"/>
                  </use>
                  <path fill="none" stroke="white" stroke-width="1.5" d="M0,-3.0v7 M-2.5,-0.5L0,-3.0L2.5,-0.5"/>
                </g>
                <g id="arrowRight" xlink:href="#dirArrow" transform="rotate(90) translate(36 -43)" onmousedown="handlePan(1,0)">
                  <use xlink:href="#rim" fill="#404040">
                        <set attributeName="fill" to="#808080" begin="arrowRight.mouseover" end="arrowRight.mouseout"/>
                  </use>
                  <path fill="none" stroke="white" stroke-width="1.5" d="M0,-3.0v7 M-2.5,-0.5L0,-3.0L2.5,-0.5"/>
                </g>
                <g id="arrowDown" xlink:href="#dirArrow" transform="rotate(180) translate(-30 -48)" onmousedown="handlePan(0,1)">
                  <use xlink:href="#rim" fill="#404040">
                        <set attributeName="fill" to="#808080" begin="arrowDown.mouseover" end="arrowDown.mouseout"/>
                  </use>
                  <path fill="none" stroke="white" stroke-width="1.5" d="M0,-3.0v7 M-2.5,-0.5L0,-3.0L2.5,-0.5"/>
                </g>
                <g id="arrowLeft" xlink:href="#dirArrow" transform="rotate(270) translate(-36 17)" onmousedown="handlePan(-1,0)">
                  <use xlink:href="#rim" fill="#404040">
                        <set attributeName="fill" to="#808080" begin="arrowLeft.mouseover" end="arrowLeft.mouseout"/>
                  </use>
                  <path fill="none" stroke="white" stroke-width="1.5" d="M0,-3.0v7 M-2.5,-0.5L0,-3.0L2.5,-0.5"/>
                </g>
        </g>
        <svg viewBox="0 0 15 15" width="100%" height="30px" preserveAspectRatio="xMaxYMin meet">
         <g id="arrow_out" transform="scale(0.3 0.3)">
          <a xlink:href="classnet_1_1minetest_1_1minetest_1_1MainActivity__coll__graph_org.svg" target="_base">
           <rect id="button" ry="5" rx="5" y="6" x="6" height="38" width="38"
                fill="#f2f5e9" fill-opacity="0.5" stroke="#606060" stroke-width="1.0"/>
           <path id="arrow"
             d="M 11.500037,31.436501 C 11.940474,20.09759 22.043105,11.32322 32.158766,21.979434 L 37.068811,17.246167 C 37.068811,17.246167 37.088388,32 37.088388,32 L 22.160133,31.978069 C 22.160133,31.978069 26.997745,27.140456 26.997745,27.140456 C 18.528582,18.264221 13.291696,25.230495 11.500037,31.436501 z"
             style="fill:#404040;"/>
          </a>
         </g>
        </svg>
</svg>
