<?xml version="1.0" encoding="UTF-8" standalone="no"?>
<!DOCTYPE svg PUBLIC "-//W3C//DTD SVG 1.1//EN"
 "http://www.w3.org/Graphics/SVG/1.1/DTD/svg11.dtd">
<!-- Generated by graphviz version 2.43.0 (0)
 -->
<!-- Title: RequestQueue&lt; Key, T, Caller, CallerData &gt; Pages: 1 -->
<svg width="493pt" height="340pt"
 viewBox="0.00 0.00 492.81 340.00" xmlns="http://www.w3.org/2000/svg" xmlns:xlink="http://www.w3.org/1999/xlink">
<g id="graph0" class="graph" transform="scale(1 1) rotate(0) translate(4 336)">
<title>RequestQueue&lt; Key, T, Caller, CallerData &gt;</title>
<polygon fill="white" stroke="transparent" points="-4,4 -4,-336 488.81,-336 488.81,4 -4,4"/>
<!-- Node1 -->
<g id="node1" class="node">
<title>Node1</title>
<g id="a_node1"><a xlink:title=" ">
<polygon fill="#bfbfbf" stroke="black" points="120.31,-0.5 120.31,-30.5 249.31,-30.5 249.31,-0.5 120.31,-0.5"/>
<text text-anchor="start" x="128.31" y="-18.5" font-family="Helvetica,sans-Serif" font-size="10.00">RequestQueue&lt; Key,</text>
<text text-anchor="middle" x="184.81" y="-7.5" font-family="Helvetica,sans-Serif" font-size="10.00"> T, Caller, CallerData &gt;</text>
</a>
</g>
</g>
<!-- Node2 -->
<g id="node2" class="node">
<title>Node2</title>
<g id="a_node2"><a xlink:href="classMutexedQueue.html" target="_top" xlink:title=" ">
<polygon fill="white" stroke="black" points="98.31,-78.5 98.31,-108.5 271.31,-108.5 271.31,-78.5 98.31,-78.5"/>
<text text-anchor="start" x="106.31" y="-96.5" font-family="Helvetica,sans-Serif" font-size="10.00">MutexedQueue&lt; GetRequest</text>
<text text-anchor="middle" x="184.81" y="-85.5" font-family="Helvetica,sans-Serif" font-size="10.00">&lt; Key, T, Caller, CallerData &gt; &gt;</text>
</a>
</g>
</g>
<!-- Node2&#45;&gt;Node1 -->
<g id="edge1" class="edge">
<title>Node2&#45;&gt;Node1</title>
<path fill="none" stroke="#9a32cd" stroke-dasharray="5,2" d="M184.81,-68.09C184.81,-55.76 184.81,-41.22 184.81,-30.73"/>
<polygon fill="#9a32cd" stroke="#9a32cd" points="181.31,-68.2 184.81,-78.2 188.31,-68.21 181.31,-68.2"/>
<text text-anchor="middle" x="209.31" y="-52" font-family="Helvetica,sans-Serif" font-size="10.00"> m_queue</text>
</g>
<!-- Node3 -->
<g id="node3" class="node">
<title>Node3</title>
<g id="a_node3"><a xlink:href="classSemaphore.html" target="_top" xlink:title=" ">
<polygon fill="white" stroke="black" points="196.81,-245.5 196.81,-264.5 268.81,-264.5 268.81,-245.5 196.81,-245.5"/>
<text text-anchor="middle" x="232.81" y="-252.5" font-family="Helvetica,sans-Serif" font-size="10.00">Semaphore</text>
</a>
</g>
</g>
<!-- Node3&#45;&gt;Node2 -->
<g id="edge2" class="edge">
<title>Node3&#45;&gt;Node2</title>
<path fill="none" stroke="#9a32cd" stroke-dasharray="5,2" d="M239.98,-235.53C248.84,-209.44 260.49,-161.17 240.81,-127 236.38,-119.3 229.35,-113.26 221.75,-108.59"/>
<polygon fill="#9a32cd" stroke="#9a32cd" points="236.58,-234.65 236.45,-245.24 243.16,-237.04 236.58,-234.65"/>
<text text-anchor="middle" x="274.81" y="-180" font-family="Helvetica,sans-Serif" font-size="10.00"> m_signal</text>
</g>
<!-- Node7 -->
<g id="node7" class="node">
<title>Node7</title>
<g id="a_node7"><a xlink:href="classMutexedQueue.html" target="_top" xlink:title=" ">
<polygon fill="white" stroke="black" points="66.31,-173 66.31,-192 185.31,-192 185.31,-173 66.31,-173"/>
<text text-anchor="middle" x="125.81" y="-180" font-family="Helvetica,sans-Serif" font-size="10.00">MutexedQueue&lt; T &gt;</text>
</a>
</g>
</g>
<!-- Node3&#45;&gt;Node7 -->
<g id="edge7" class="edge">
<title>Node3&#45;&gt;Node7</title>
<path fill="none" stroke="#9a32cd" stroke-dasharray="5,2" d="M211.18,-239.74C189.58,-225.51 157.07,-204.09 139.04,-192.22"/>
<polygon fill="#9a32cd" stroke="#9a32cd" points="209.42,-242.78 219.69,-245.36 213.27,-236.93 209.42,-242.78"/>
<text text-anchor="middle" x="213.81" y="-219" font-family="Helvetica,sans-Serif" font-size="10.00"> m_signal</text>
</g>
<!-- Node4 -->
<g id="node4" class="node">
<title>Node4</title>
<g id="a_node4"><a xlink:title=" ">
<polygon fill="white" stroke="#bfbfbf" points="209.31,-312.5 209.31,-331.5 256.31,-331.5 256.31,-312.5 209.31,-312.5"/>
<text text-anchor="middle" x="232.81" y="-319.5" font-family="Helvetica,sans-Serif" font-size="10.00">sem_t</text>
</a>
</g>
</g>
<!-- Node4&#45;&gt;Node3 -->
<g id="edge3" class="edge">
<title>Node4&#45;&gt;Node3</title>
<path fill="none" stroke="#9a32cd" stroke-dasharray="5,2" d="M232.81,-302.04C232.81,-289.67 232.81,-274.12 232.81,-264.63"/>
<polygon fill="#9a32cd" stroke="#9a32cd" points="229.31,-302.23 232.81,-312.23 236.31,-302.23 229.31,-302.23"/>
<text text-anchor="middle" x="261.81" y="-286" font-family="Helvetica,sans-Serif" font-size="10.00"> semaphore</text>
</g>
<!-- Node5 -->
<g id="node5" class="node">
<title>Node5</title>
<g id="a_node5"><a xlink:title=" ">
<polygon fill="white" stroke="#bfbfbf" points="2.81,-245.5 2.81,-264.5 50.81,-264.5 50.81,-245.5 2.81,-245.5"/>
<text text-anchor="middle" x="26.81" y="-252.5" font-family="Helvetica,sans-Serif" font-size="10.00">mutex</text>
</a>
</g>
</g>
<!-- Node5&#45;&gt;Node2 -->
<g id="edge4" class="edge">
<title>Node5&#45;&gt;Node2</title>
<path fill="none" stroke="#9a32cd" stroke-dasharray="5,2" d="M15.49,-236.66C4.88,-217.99 -7.4,-188.14 6.81,-167 27.48,-136.26 63.69,-118.55 98.08,-108.35"/>
<polygon fill="#9a32cd" stroke="#9a32cd" points="12.56,-238.57 20.74,-245.3 18.54,-234.93 12.56,-238.57"/>
<text text-anchor="middle" x="31.81" y="-180" font-family="Helvetica,sans-Serif" font-size="10.00"> m_mutex</text>
</g>
<!-- Node5&#45;&gt;Node7 -->
<g id="edge8" class="edge">
<title>Node5&#45;&gt;Node7</title>
<path fill="none" stroke="#9a32cd" stroke-dasharray="5,2" d="M41.57,-238.23C48.79,-230.98 57.84,-222.56 66.81,-216 79.65,-206.61 95.5,-198.02 107.54,-192.04"/>
<polygon fill="#9a32cd" stroke="#9a32cd" points="38.98,-235.87 34.54,-245.49 44.01,-240.73 38.98,-235.87"/>
<text text-anchor="middle" x="91.81" y="-219" font-family="Helvetica,sans-Serif" font-size="10.00"> m_mutex</text>
</g>
<!-- Node6 -->
<g id="node6" class="node">
<title>Node6</title>
<g id="a_node6"><a xlink:title=" ">
<polygon fill="white" stroke="#bfbfbf" points="320.81,-167.5 320.81,-197.5 484.81,-197.5 484.81,-167.5 320.81,-167.5"/>
<text text-anchor="start" x="328.81" y="-185.5" font-family="Helvetica,sans-Serif" font-size="10.00">deque&lt; GetRequest&lt;</text>
<text text-anchor="middle" x="402.81" y="-174.5" font-family="Helvetica,sans-Serif" font-size="10.00"> Key, T, Caller, CallerData &gt; &gt;</text>
</a>
</g>
</g>
<!-- Node6&#45;&gt;Node2 -->
<g id="edge5" class="edge">
<title>Node6&#45;&gt;Node2</title>
<path fill="none" stroke="#9a32cd" stroke-dasharray="5,2" d="M359.46,-163.65C333.26,-152.91 299.17,-139.04 268.81,-127 253.41,-120.89 236.36,-114.26 221.67,-108.6"/>
<polygon fill="#9a32cd" stroke="#9a32cd" points="358.15,-166.89 368.73,-167.45 360.81,-160.42 358.15,-166.89"/>
<text text-anchor="middle" x="344.31" y="-135.5" font-family="Helvetica,sans-Serif" font-size="10.00"> m_queue</text>
</g>
<!-- Node7&#45;&gt;Node2 -->
<g id="edge6" class="edge">
<title>Node7&#45;&gt;Node2</title>
<path fill="none" stroke="orange" stroke-dasharray="5,2" d="M116.89,-163.37C112.72,-152.13 110,-137.81 116.81,-127 121.77,-119.14 129.21,-113.14 137.37,-108.57"/>
<polygon fill="orange" stroke="orange" points="113.72,-164.86 120.9,-172.65 120.14,-162.08 113.72,-164.86"/>
<text text-anchor="start" x="116.81" y="-141" font-family="Helvetica,sans-Serif" font-size="10.00"> &lt; GetRequest&lt; Key,</text>
<text text-anchor="middle" x="178.81" y="-130" font-family="Helvetica,sans-Serif" font-size="10.00"> T, Caller, CallerData &gt; &gt;</text>
</g>
<!-- Node8 -->
<g id="node8" class="node">
<title>Node8</title>
<g id="a_node8"><a xlink:title=" ">
<polygon fill="white" stroke="#bfbfbf" points="82.31,-245.5 82.31,-264.5 157.31,-264.5 157.31,-245.5 82.31,-245.5"/>
<text text-anchor="middle" x="119.81" y="-252.5" font-family="Helvetica,sans-Serif" font-size="10.00">deque&lt; T &gt;</text>
</a>
</g>
</g>
<!-- Node8&#45;&gt;Node7 -->
<g id="edge9" class="edge">
<title>Node8&#45;&gt;Node7</title>
<path fill="none" stroke="#9a32cd" stroke-dasharray="5,2" d="M119.84,-235.22C119.97,-229.09 120.25,-222.24 120.81,-216 121.55,-207.81 123.04,-198.55 124.2,-192.02"/>
<polygon fill="#9a32cd" stroke="#9a32cd" points="116.34,-235.19 119.73,-245.23 123.34,-235.27 116.34,-235.19"/>
<text text-anchor="middle" x="145.31" y="-219" font-family="Helvetica,sans-Serif" font-size="10.00"> m_queue</text>
</g>
</g>
</svg>
