<?xml version="1.0" encoding="UTF-8" standalone="no"?>
<!DOCTYPE svg PUBLIC "-//W3C//DTD SVG 1.1//EN"
 "http://www.w3.org/Graphics/SVG/1.1/DTD/svg11.dtd">
<!-- Generated by graphviz version 2.43.0 (0)
 -->
<!-- Title: PathGridnode Pages: 1 -->
<svg width="504pt" height="330pt"
 viewBox="0.00 0.00 503.50 330.00" xmlns="http://www.w3.org/2000/svg" xmlns:xlink="http://www.w3.org/1999/xlink">
<g id="graph0" class="graph" transform="scale(1 1) rotate(0) translate(4 326)">
<title>PathGridnode</title>
<polygon fill="white" stroke="transparent" points="-4,4 -4,-326 499.5,-326 499.5,4 -4,4"/>
<!-- Node1 -->
<g id="node1" class="node">
<title>Node1</title>
<g id="a_node1"><a xlink:title=" ">
<polygon fill="#bfbfbf" stroke="black" points="159,-0.5 159,-19.5 241,-19.5 241,-0.5 159,-0.5"/>
<text text-anchor="middle" x="200" y="-7.5" font-family="Helvetica,sans-Serif" font-size="10.00">PathGridnode</text>
</a>
</g>
</g>
<!-- Node2 -->
<g id="node2" class="node">
<title>Node2</title>
<g id="a_node2"><a xlink:title=" ">
<polygon fill="white" stroke="#bfbfbf" points="0,-101.5 0,-120.5 38,-120.5 38,-101.5 0,-101.5"/>
<text text-anchor="middle" x="19" y="-108.5" font-family="Helvetica,sans-Serif" font-size="10.00">char</text>
</a>
</g>
</g>
<!-- Node2&#45;&gt;Node1 -->
<g id="edge1" class="edge">
<title>Node2&#45;&gt;Node1</title>
<path fill="none" stroke="#9a32cd" stroke-dasharray="5,2" d="M17.77,-91.39C17.78,-74.96 20.63,-51.58 35,-38 52.4,-21.55 115.92,-15.09 158.87,-12.57"/>
<polygon fill="#9a32cd" stroke="#9a32cd" points="14.27,-91.57 18.12,-101.44 21.27,-91.33 14.27,-91.57"/>
<text text-anchor="middle" x="47.5" y="-46.5" font-family="Helvetica,sans-Serif" font-size="10.00"> type</text>
</g>
<!-- Node3 -->
<g id="node3" class="node">
<title>Node3</title>
<g id="a_node3"><a xlink:title=" ">
<polygon fill="white" stroke="#bfbfbf" points="86.5,-213.5 86.5,-232.5 115.5,-232.5 115.5,-213.5 86.5,-213.5"/>
<text text-anchor="middle" x="101" y="-220.5" font-family="Helvetica,sans-Serif" font-size="10.00">int</text>
</a>
</g>
</g>
<!-- Node3&#45;&gt;Node1 -->
<g id="edge2" class="edge">
<title>Node3&#45;&gt;Node1</title>
<path fill="none" stroke="#9a32cd" stroke-dasharray="5,2" d="M92.27,-204.34C79.49,-175.72 59.59,-118.38 83,-78 101.08,-46.81 139.75,-28.9 167.69,-19.58"/>
<polygon fill="#9a32cd" stroke="#9a32cd" points="89.15,-205.93 96.57,-213.49 95.49,-202.95 89.15,-205.93"/>
<text text-anchor="middle" x="122.5" y="-114" font-family="Helvetica,sans-Serif" font-size="10.00"> estimated_cost</text>
<text text-anchor="middle" x="122.5" y="-103" font-family="Helvetica,sans-Serif" font-size="10.00">totalcost</text>
</g>
<!-- Node5 -->
<g id="node5" class="node">
<title>Node5</title>
<g id="a_node5"><a xlink:href="classPathCost.html" target="_top" xlink:title=" ">
<polygon fill="white" stroke="black" points="171.5,-101.5 171.5,-120.5 230.5,-120.5 230.5,-101.5 171.5,-101.5"/>
<text text-anchor="middle" x="201" y="-108.5" font-family="Helvetica,sans-Serif" font-size="10.00">PathCost</text>
</a>
</g>
</g>
<!-- Node3&#45;&gt;Node5 -->
<g id="edge5" class="edge">
<title>Node3&#45;&gt;Node5</title>
<path fill="none" stroke="#9a32cd" stroke-dasharray="5,2" d="M113.91,-205.19C123.53,-192.93 137.16,-176.06 150,-162 163.88,-146.8 181.2,-130.29 191.67,-120.56"/>
<polygon fill="#9a32cd" stroke="#9a32cd" points="111.06,-203.16 107.69,-213.2 116.59,-207.45 111.06,-203.16"/>
<text text-anchor="middle" x="175" y="-181.5" font-family="Helvetica,sans-Serif" font-size="10.00"> y_change</text>
<text text-anchor="middle" x="175" y="-170.5" font-family="Helvetica,sans-Serif" font-size="10.00">value</text>
</g>
<!-- Node4 -->
<g id="node4" class="node">
<title>Node4</title>
<g id="a_node4"><a xlink:href="classbool.html" target="_top" xlink:title=" ">
<polygon fill="white" stroke="black" points="217,-213.5 217,-232.5 255,-232.5 255,-213.5 217,-213.5"/>
<text text-anchor="middle" x="236" y="-220.5" font-family="Helvetica,sans-Serif" font-size="10.00">bool</text>
</a>
</g>
</g>
<!-- Node4&#45;&gt;Node1 -->
<g id="edge3" class="edge">
<title>Node4&#45;&gt;Node1</title>
<path fill="none" stroke="#9a32cd" stroke-dasharray="5,2" d="M248.85,-204.67C250.56,-201.58 252.05,-198.3 253,-195 272.35,-127.96 289.46,-97.49 253,-38 247.82,-29.55 239.07,-23.64 230.16,-19.55"/>
<polygon fill="#9a32cd" stroke="#9a32cd" points="245.87,-202.83 243.38,-213.13 251.75,-206.63 245.87,-202.83"/>
<text text-anchor="middle" x="302.5" y="-136" font-family="Helvetica,sans-Serif" font-size="10.00"> target</text>
<text text-anchor="middle" x="302.5" y="-125" font-family="Helvetica,sans-Serif" font-size="10.00">valid</text>
<text text-anchor="middle" x="302.5" y="-114" font-family="Helvetica,sans-Serif" font-size="10.00">is_closed</text>
<text text-anchor="middle" x="302.5" y="-103" font-family="Helvetica,sans-Serif" font-size="10.00">is_element</text>
<text text-anchor="middle" x="302.5" y="-92" font-family="Helvetica,sans-Serif" font-size="10.00">source</text>
<text text-anchor="middle" x="302.5" y="-81" font-family="Helvetica,sans-Serif" font-size="10.00">is_open</text>
</g>
<!-- Node4&#45;&gt;Node5 -->
<g id="edge6" class="edge">
<title>Node4&#45;&gt;Node5</title>
<path fill="none" stroke="#9a32cd" stroke-dasharray="5,2" d="M219.78,-205.85C217.14,-202.49 214.72,-198.8 213,-195 201.6,-169.79 200.51,-136.28 200.71,-120.68"/>
<polygon fill="#9a32cd" stroke="#9a32cd" points="217.22,-208.25 226.47,-213.42 222.47,-203.61 217.22,-208.25"/>
<text text-anchor="middle" x="233" y="-181.5" font-family="Helvetica,sans-Serif" font-size="10.00"> valid</text>
<text text-anchor="middle" x="233" y="-170.5" font-family="Helvetica,sans-Serif" font-size="10.00">updated</text>
</g>
<!-- Node5&#45;&gt;Node1 -->
<g id="edge4" class="edge">
<title>Node5&#45;&gt;Node1</title>
<path fill="none" stroke="#9a32cd" stroke-dasharray="5,2" d="M200.81,-91.03C200.59,-69.54 200.25,-35.47 200.09,-19.62"/>
<polygon fill="#9a32cd" stroke="#9a32cd" points="197.31,-91.25 200.91,-101.21 204.31,-91.18 197.31,-91.25"/>
<text text-anchor="middle" x="227" y="-46.5" font-family="Helvetica,sans-Serif" font-size="10.00"> directions</text>
</g>
<!-- Node6 -->
<g id="node6" class="node">
<title>Node6</title>
<g id="a_node6"><a xlink:href="classirr_1_1core_1_1vector3d.html" target="_top" xlink:title=" ">
<polygon fill="white" stroke="black" points="340.5,-96 340.5,-126 443.5,-126 443.5,-96 340.5,-96"/>
<text text-anchor="start" x="348.5" y="-114" font-family="Helvetica,sans-Serif" font-size="10.00">irr::core::vector3d</text>
<text text-anchor="middle" x="392" y="-103" font-family="Helvetica,sans-Serif" font-size="10.00">&lt; s16 &gt;</text>
</a>
</g>
</g>
<!-- Node6&#45;&gt;Node1 -->
<g id="edge7" class="edge">
<title>Node6&#45;&gt;Node1</title>
<path fill="none" stroke="#9a32cd" stroke-dasharray="5,2" d="M365.5,-90.06C343.7,-74.34 311.51,-52.69 281,-38 265.37,-30.48 247.11,-24.19 231.89,-19.58"/>
<polygon fill="#9a32cd" stroke="#9a32cd" points="363.47,-92.91 373.61,-95.98 367.6,-87.25 363.47,-92.91"/>
<text text-anchor="middle" x="343" y="-52" font-family="Helvetica,sans-Serif" font-size="10.00"> pos</text>
<text text-anchor="middle" x="343" y="-41" font-family="Helvetica,sans-Serif" font-size="10.00">sourcedir</text>
</g>
<!-- Node7 -->
<g id="node7" class="node">
<title>Node7</title>
<g id="a_node7"><a xlink:title=" ">
<polygon fill="white" stroke="#bfbfbf" points="312,-213.5 312,-232.5 346,-232.5 346,-213.5 312,-213.5"/>
<text text-anchor="middle" x="329" y="-220.5" font-family="Helvetica,sans-Serif" font-size="10.00">s16</text>
</a>
</g>
</g>
<!-- Node7&#45;&gt;Node6 -->
<g id="edge8" class="edge">
<title>Node7&#45;&gt;Node6</title>
<path fill="none" stroke="#9a32cd" stroke-dasharray="5,2" d="M338.97,-204.59C351.36,-182.97 372.26,-146.47 383.77,-126.37"/>
<polygon fill="#9a32cd" stroke="#9a32cd" points="335.88,-202.95 333.94,-213.37 341.95,-206.43 335.88,-202.95"/>
<text text-anchor="middle" x="368" y="-187" font-family="Helvetica,sans-Serif" font-size="10.00"> X</text>
<text text-anchor="middle" x="368" y="-176" font-family="Helvetica,sans-Serif" font-size="10.00">Y</text>
<text text-anchor="middle" x="368" y="-165" font-family="Helvetica,sans-Serif" font-size="10.00">Z</text>
</g>
<!-- Node8 -->
<g id="node8" class="node">
<title>Node8</title>
<g id="a_node8"><a xlink:href="classirr_1_1core_1_1vector3d.html" target="_top" xlink:title="3d vector template class with lots of operators and methods.">
<polygon fill="white" stroke="black" points="364.5,-213.5 364.5,-232.5 495.5,-232.5 495.5,-213.5 364.5,-213.5"/>
<text text-anchor="middle" x="430" y="-220.5" font-family="Helvetica,sans-Serif" font-size="10.00">irr::core::vector3d&lt; T &gt;</text>
</a>
</g>
</g>
<!-- Node8&#45;&gt;Node6 -->
<g id="edge9" class="edge">
<title>Node8&#45;&gt;Node6</title>
<path fill="none" stroke="orange" stroke-dasharray="5,2" d="M423.68,-203.71C416.18,-181.98 403.82,-146.2 396.96,-126.37"/>
<polygon fill="orange" stroke="orange" points="420.44,-205.06 427.02,-213.37 427.06,-202.77 420.44,-205.06"/>
<text text-anchor="middle" x="441.5" y="-176" font-family="Helvetica,sans-Serif" font-size="10.00"> &lt; s16 &gt;</text>
</g>
<!-- Node9 -->
<g id="node9" class="node">
<title>Node9</title>
<g id="a_node9"><a xlink:title=" ">
<polygon fill="white" stroke="#bfbfbf" points="415.5,-302.5 415.5,-321.5 444.5,-321.5 444.5,-302.5 415.5,-302.5"/>
<text text-anchor="middle" x="430" y="-309.5" font-family="Helvetica,sans-Serif" font-size="10.00">T</text>
</a>
</g>
</g>
<!-- Node9&#45;&gt;Node8 -->
<g id="edge10" class="edge">
<title>Node9&#45;&gt;Node8</title>
<path fill="none" stroke="#9a32cd" stroke-dasharray="5,2" d="M430,-292.19C430,-273.74 430,-246.41 430,-232.62"/>
<polygon fill="#9a32cd" stroke="#9a32cd" points="426.5,-292.34 430,-302.34 433.5,-292.34 426.5,-292.34"/>
<text text-anchor="middle" x="435" y="-276" font-family="Helvetica,sans-Serif" font-size="10.00"> X</text>
<text text-anchor="middle" x="435" y="-265" font-family="Helvetica,sans-Serif" font-size="10.00">Y</text>
<text text-anchor="middle" x="435" y="-254" font-family="Helvetica,sans-Serif" font-size="10.00">Z</text>
</g>
</g>
</svg>
