<?xml version="1.0" encoding="UTF-8" standalone="no"?>
<!DOCTYPE svg PUBLIC "-//W3C//DTD SVG 1.1//EN"
 "http://www.w3.org/Graphics/SVG/1.1/DTD/svg11.dtd">
<!-- Generated by graphviz version 2.43.0 (0)
 -->
<!-- Title: Game::updatePointedThing Pages: 1 -->
<svg width="508pt" height="470pt"
 viewBox="0.00 0.00 508.00 470.00" xmlns="http://www.w3.org/2000/svg" xmlns:xlink="http://www.w3.org/1999/xlink">
<g id="graph0" class="graph" transform="scale(1 1) rotate(0) translate(4 466)">
<title>Game::updatePointedThing</title>
<polygon fill="white" stroke="transparent" points="-4,4 -4,-466 504,-466 504,4 -4,4"/>
<!-- Node1 -->
<g id="node1" class="node">
<title>Node1</title>
<g id="a_node1"><a xlink:title=" ">
<polygon fill="#bfbfbf" stroke="black" points="0,-226 0,-245 149,-245 149,-226 0,-226"/>
<text text-anchor="middle" x="74.5" y="-233" font-family="Helvetica,sans-Serif" font-size="10.00">Game::updatePointedThing</text>
</a>
</g>
</g>
<!-- Node2 -->
<g id="node2" class="node">
<title>Node2</title>
<g id="a_node2"><a xlink:href="classirr_1_1scene_1_1ISceneNode.html#af13dc546a7be796cc0868a2eec51e508" target="_top" xlink:title="Get the absolute transformation of the node. Is recalculated every OnAnimate()&#45;call.">
<polygon fill="white" stroke="black" points="185,-431.5 185,-461.5 340,-461.5 340,-431.5 185,-431.5"/>
<text text-anchor="start" x="193" y="-449.5" font-family="Helvetica,sans-Serif" font-size="10.00">irr::scene::ISceneNode</text>
<text text-anchor="middle" x="262.5" y="-438.5" font-family="Helvetica,sans-Serif" font-size="10.00">::getAbsoluteTransformation</text>
</a>
</g>
</g>
<!-- Node1&#45;&gt;Node2 -->
<g id="edge1" class="edge">
<title>Node1&#45;&gt;Node2</title>
<path fill="none" stroke="midnightblue" d="M78.42,-245.33C88.14,-276.27 122.32,-372.58 185,-422.5 186.77,-423.91 188.62,-425.24 190.54,-426.49"/>
<polygon fill="midnightblue" stroke="midnightblue" points="188.9,-429.58 199.32,-431.48 192.36,-423.49 188.9,-429.58"/>
</g>
<!-- Node3 -->
<g id="node3" class="node">
<title>Node3</title>
<g id="a_node3"><a xlink:href="classirr_1_1video_1_1SColor.html#afb60ac456b2efc2f2a4f04a643293d26" target="_top" xlink:title="Returns the blue component of the color.">
<polygon fill="white" stroke="black" points="213.5,-382.5 213.5,-412.5 311.5,-412.5 311.5,-382.5 213.5,-382.5"/>
<text text-anchor="start" x="221.5" y="-400.5" font-family="Helvetica,sans-Serif" font-size="10.00">irr::video::SColor</text>
<text text-anchor="middle" x="262.5" y="-389.5" font-family="Helvetica,sans-Serif" font-size="10.00">::getBlue</text>
</a>
</g>
</g>
<!-- Node1&#45;&gt;Node3 -->
<g id="edge2" class="edge">
<title>Node1&#45;&gt;Node3</title>
<path fill="none" stroke="midnightblue" d="M80.46,-245.15C93.81,-270.2 133.07,-337.82 185,-373.5 190.7,-377.42 197.08,-380.72 203.65,-383.5"/>
<polygon fill="midnightblue" stroke="midnightblue" points="202.76,-386.91 213.35,-387.2 205.26,-380.37 202.76,-386.91"/>
</g>
<!-- Node4 -->
<g id="node4" class="node">
<title>Node4</title>
<g id="a_node4"><a xlink:href="classirr_1_1video_1_1SColor.html#a198773366f2a5436c1ca4adc9037bb8d" target="_top" xlink:title="Returns the green component of the color.">
<polygon fill="white" stroke="black" points="213.5,-333.5 213.5,-363.5 311.5,-363.5 311.5,-333.5 213.5,-333.5"/>
<text text-anchor="start" x="221.5" y="-351.5" font-family="Helvetica,sans-Serif" font-size="10.00">irr::video::SColor</text>
<text text-anchor="middle" x="262.5" y="-340.5" font-family="Helvetica,sans-Serif" font-size="10.00">::getGreen</text>
</a>
</g>
</g>
<!-- Node1&#45;&gt;Node4 -->
<g id="edge3" class="edge">
<title>Node1&#45;&gt;Node4</title>
<path fill="none" stroke="midnightblue" d="M84.89,-245.07C102.82,-262.85 143.83,-301.2 185,-323.5 190.94,-326.72 197.37,-329.61 203.89,-332.19"/>
<polygon fill="midnightblue" stroke="midnightblue" points="202.87,-335.55 213.46,-335.75 205.3,-328.98 202.87,-335.55"/>
</g>
<!-- Node5 -->
<g id="node5" class="node">
<title>Node5</title>
<g id="a_node5"><a xlink:href="structMapNode.html#ad0672c436fa3bffef6cfe2c9b313a3b9" target="_top" xlink:title=" ">
<polygon fill="white" stroke="black" points="195.5,-295 195.5,-314 329.5,-314 329.5,-295 195.5,-295"/>
<text text-anchor="middle" x="262.5" y="-302" font-family="Helvetica,sans-Serif" font-size="10.00">MapNode::getNeighbors</text>
</a>
</g>
</g>
<!-- Node1&#45;&gt;Node5 -->
<g id="edge4" class="edge">
<title>Node1&#45;&gt;Node5</title>
<path fill="none" stroke="midnightblue" d="M93.67,-245.06C115.05,-256.01 151.85,-273.93 185,-285.5 192.1,-287.98 199.67,-290.27 207.19,-292.33"/>
<polygon fill="midnightblue" stroke="midnightblue" points="206.43,-295.76 217,-294.92 208.22,-288.99 206.43,-295.76"/>
</g>
<!-- Node7 -->
<g id="node7" class="node">
<title>Node7</title>
<g id="a_node7"><a xlink:href="classirr_1_1video_1_1SColor.html#a70d11ec2247581c79ee11e0e1b511978" target="_top" xlink:title="Returns the red component of the color.">
<polygon fill="white" stroke="black" points="213.5,-245.5 213.5,-275.5 311.5,-275.5 311.5,-245.5 213.5,-245.5"/>
<text text-anchor="start" x="221.5" y="-263.5" font-family="Helvetica,sans-Serif" font-size="10.00">irr::video::SColor</text>
<text text-anchor="middle" x="262.5" y="-252.5" font-family="Helvetica,sans-Serif" font-size="10.00">::getRed</text>
</a>
</g>
</g>
<!-- Node1&#45;&gt;Node7 -->
<g id="edge6" class="edge">
<title>Node1&#45;&gt;Node7</title>
<path fill="none" stroke="midnightblue" d="M146.35,-245.02C165.15,-247.55 185.22,-250.25 203.26,-252.67"/>
<polygon fill="midnightblue" stroke="midnightblue" points="202.96,-256.16 213.34,-254.03 203.89,-249.23 202.96,-256.16"/>
</g>
<!-- Node8 -->
<g id="node8" class="node">
<title>Node8</title>
<g id="a_node8"><a xlink:href="classirr_1_1core_1_1CMatrix4.html#a0f650647b58282ea44a23508fc6a9dc0" target="_top" xlink:title="Get the rotation, as set by setRotation() when you already know the scale used to create the matrix.">
<polygon fill="white" stroke="black" points="202.5,-196.5 202.5,-226.5 322.5,-226.5 322.5,-196.5 202.5,-196.5"/>
<text text-anchor="start" x="210.5" y="-214.5" font-family="Helvetica,sans-Serif" font-size="10.00">irr::core::CMatrix4</text>
<text text-anchor="middle" x="262.5" y="-203.5" font-family="Helvetica,sans-Serif" font-size="10.00">::getRotationDegrees</text>
</a>
</g>
</g>
<!-- Node1&#45;&gt;Node8 -->
<g id="edge7" class="edge">
<title>Node1&#45;&gt;Node8</title>
<path fill="none" stroke="midnightblue" d="M149.01,-226.01C163.23,-224.18 178.08,-222.26 192.16,-220.45"/>
<polygon fill="midnightblue" stroke="midnightblue" points="192.79,-223.9 202.26,-219.14 191.89,-216.95 192.79,-223.9"/>
</g>
<!-- Node9 -->
<g id="node9" class="node">
<title>Node9</title>
<g id="a_node9"><a xlink:href="classClientActiveObject.html#abf6d5ee06d3dae4bf271865a191d5d6d" target="_top" xlink:title=" ">
<polygon fill="white" stroke="black" points="209,-147.5 209,-177.5 316,-177.5 316,-147.5 209,-147.5"/>
<text text-anchor="start" x="217" y="-165.5" font-family="Helvetica,sans-Serif" font-size="10.00">ClientActiveObject</text>
<text text-anchor="middle" x="262.5" y="-154.5" font-family="Helvetica,sans-Serif" font-size="10.00">::getSelectionBox</text>
</a>
</g>
</g>
<!-- Node1&#45;&gt;Node9 -->
<g id="edge8" class="edge">
<title>Node1&#45;&gt;Node9</title>
<path fill="none" stroke="midnightblue" d="M95.84,-225.87C117.64,-215.72 153.39,-199.56 185,-187.5 190.91,-185.24 197.12,-183 203.35,-180.85"/>
<polygon fill="midnightblue" stroke="midnightblue" points="204.76,-184.06 213.1,-177.53 202.5,-177.44 204.76,-184.06"/>
</g>
<!-- Node10 -->
<g id="node10" class="node">
<title>Node10</title>
<g id="a_node10"><a xlink:href="classirr_1_1video_1_1SColor.html#a13d82e6b52d32f7394f3cce041dc2965" target="_top" xlink:title="Sets the blue component of the Color.">
<polygon fill="white" stroke="black" points="213.5,-98.5 213.5,-128.5 311.5,-128.5 311.5,-98.5 213.5,-98.5"/>
<text text-anchor="start" x="221.5" y="-116.5" font-family="Helvetica,sans-Serif" font-size="10.00">irr::video::SColor</text>
<text text-anchor="middle" x="262.5" y="-105.5" font-family="Helvetica,sans-Serif" font-size="10.00">::setBlue</text>
</a>
</g>
</g>
<!-- Node1&#45;&gt;Node10 -->
<g id="edge9" class="edge">
<title>Node1&#45;&gt;Node10</title>
<path fill="none" stroke="midnightblue" d="M83.87,-225.8C100.99,-206.52 142.03,-163.12 185,-138.5 190.86,-135.14 197.24,-132.16 203.73,-129.53"/>
<polygon fill="midnightblue" stroke="midnightblue" points="205.16,-132.73 213.28,-125.93 202.69,-126.18 205.16,-132.73"/>
</g>
<!-- Node11 -->
<g id="node11" class="node">
<title>Node11</title>
<g id="a_node11"><a xlink:href="classirr_1_1video_1_1SColor.html#af80cfedd5e761216b8bed259963ac948" target="_top" xlink:title="Sets the green component of the Color.">
<polygon fill="white" stroke="black" points="213.5,-49.5 213.5,-79.5 311.5,-79.5 311.5,-49.5 213.5,-49.5"/>
<text text-anchor="start" x="221.5" y="-67.5" font-family="Helvetica,sans-Serif" font-size="10.00">irr::video::SColor</text>
<text text-anchor="middle" x="262.5" y="-56.5" font-family="Helvetica,sans-Serif" font-size="10.00">::setGreen</text>
</a>
</g>
</g>
<!-- Node1&#45;&gt;Node11 -->
<g id="edge10" class="edge">
<title>Node1&#45;&gt;Node11</title>
<path fill="none" stroke="midnightblue" d="M80.14,-225.7C93,-199.58 131.68,-127.69 185,-89.5 190.65,-85.45 196.99,-82.04 203.54,-79.16"/>
<polygon fill="midnightblue" stroke="midnightblue" points="205.22,-82.25 213.23,-75.31 202.64,-75.75 205.22,-82.25"/>
</g>
<!-- Node12 -->
<g id="node12" class="node">
<title>Node12</title>
<g id="a_node12"><a xlink:href="classirr_1_1video_1_1SColor.html#a950c98714711ae9dd8c5219f83c07693" target="_top" xlink:title="Sets the red component of the Color.">
<polygon fill="white" stroke="black" points="213.5,-0.5 213.5,-30.5 311.5,-30.5 311.5,-0.5 213.5,-0.5"/>
<text text-anchor="start" x="221.5" y="-18.5" font-family="Helvetica,sans-Serif" font-size="10.00">irr::video::SColor</text>
<text text-anchor="middle" x="262.5" y="-7.5" font-family="Helvetica,sans-Serif" font-size="10.00">::setRed</text>
</a>
</g>
</g>
<!-- Node1&#45;&gt;Node12 -->
<g id="edge11" class="edge">
<title>Node1&#45;&gt;Node12</title>
<path fill="none" stroke="midnightblue" d="M78.19,-225.73C87.41,-194.07 120.79,-93.23 185,-40.5 190.64,-35.87 197.17,-32.08 203.98,-29"/>
<polygon fill="midnightblue" stroke="midnightblue" points="205.43,-32.19 213.4,-25.2 202.81,-25.69 205.43,-32.19"/>
</g>
<!-- Node6 -->
<g id="node6" class="node">
<title>Node6</title>
<g id="a_node6"><a xlink:href="classNodeDefManager.html#a1454fd287c77a8d41c4a67bc474114b4" target="_top" xlink:title=" ">
<polygon fill="white" stroke="black" points="376,-295 376,-314 500,-314 500,-295 376,-295"/>
<text text-anchor="middle" x="438" y="-302" font-family="Helvetica,sans-Serif" font-size="10.00">NodeDefManager::get</text>
</a>
</g>
</g>
<!-- Node5&#45;&gt;Node6 -->
<g id="edge5" class="edge">
<title>Node5&#45;&gt;Node6</title>
<path fill="none" stroke="midnightblue" d="M329.59,-304.5C341.36,-304.5 353.68,-304.5 365.6,-304.5"/>
<polygon fill="midnightblue" stroke="midnightblue" points="365.94,-308 375.94,-304.5 365.94,-301 365.94,-308"/>
</g>
</g>
</svg>
