<?xml version="1.0" encoding="UTF-8" standalone="no"?>
<!DOCTYPE svg PUBLIC "-//W3C//DTD SVG 1.1//EN"
 "http://www.w3.org/Graphics/SVG/1.1/DTD/svg11.dtd">
<!-- Generated by graphviz version 2.43.0 (0)
 -->
<!-- Title: MyObjDefManager Pages: 1 -->
<svg width="1349pt" height="506pt"
 viewBox="0.00 0.00 1349.00 505.50" xmlns="http://www.w3.org/2000/svg" xmlns:xlink="http://www.w3.org/1999/xlink">
<g id="graph0" class="graph" transform="scale(1 1) rotate(0) translate(4 501.5)">
<title>MyObjDefManager</title>
<polygon fill="white" stroke="transparent" points="-4,4 -4,-501.5 1345,-501.5 1345,4 -4,4"/>
<!-- Node1 -->
<g id="node1" class="node">
<title>Node1</title>
<g id="a_node1"><a xlink:title=" ">
<polygon fill="#bfbfbf" stroke="black" points="1233,-214 1233,-233 1341,-233 1341,-214 1233,-214"/>
<text text-anchor="middle" x="1287" y="-221" font-family="Helvetica,sans-Serif" font-size="10.00">MyObjDefManager</text>
</a>
</g>
</g>
<!-- Node2 -->
<g id="node2" class="node">
<title>Node2</title>
<g id="a_node2"><a xlink:href="classObjDefManager.html" target="_top" xlink:title=" ">
<polygon fill="white" stroke="black" points="1103,-214 1103,-233 1196,-233 1196,-214 1103,-214"/>
<text text-anchor="middle" x="1149.5" y="-221" font-family="Helvetica,sans-Serif" font-size="10.00">ObjDefManager</text>
</a>
</g>
</g>
<!-- Node2&#45;&gt;Node1 -->
<g id="edge1" class="edge">
<title>Node2&#45;&gt;Node1</title>
<path fill="none" stroke="midnightblue" d="M1206.42,-223.5C1215.1,-223.5 1224.06,-223.5 1232.69,-223.5"/>
<polygon fill="midnightblue" stroke="midnightblue" points="1206.37,-220 1196.37,-223.5 1206.37,-227 1206.37,-220"/>
</g>
<!-- Node3 -->
<g id="node3" class="node">
<title>Node3</title>
<g id="a_node3"><a xlink:href="classNodeDefManager.html" target="_top" xlink:title="This class is for getting the actual properties of nodes from their content ID.">
<polygon fill="white" stroke="black" points="905,-252 905,-271 1007,-271 1007,-252 905,-252"/>
<text text-anchor="middle" x="956" y="-259" font-family="Helvetica,sans-Serif" font-size="10.00">NodeDefManager</text>
</a>
</g>
</g>
<!-- Node3&#45;&gt;Node2 -->
<g id="edge2" class="edge">
<title>Node3&#45;&gt;Node2</title>
<path fill="none" stroke="#9a32cd" stroke-dasharray="5,2" d="M1017.17,-250.62C1038.61,-246.64 1062.91,-242 1085,-237.5 1091.86,-236.1 1099.12,-234.56 1106.18,-233.02"/>
<polygon fill="#9a32cd" stroke="#9a32cd" points="1016.42,-247.2 1007.22,-252.46 1017.69,-254.09 1016.42,-247.2"/>
<text text-anchor="middle" x="1057.5" y="-250.5" font-family="Helvetica,sans-Serif" font-size="10.00"> m_ndef</text>
</g>
<!-- Node4 -->
<g id="node4" class="node">
<title>Node4</title>
<g id="a_node4"><a xlink:href="classirr_1_1core_1_1aabbox3d.html" target="_top" xlink:title=" ">
<polygon fill="white" stroke="black" points="585,-213.5 585,-243.5 693,-243.5 693,-213.5 585,-213.5"/>
<text text-anchor="start" x="593" y="-231.5" font-family="Helvetica,sans-Serif" font-size="10.00">irr::core::aabbox3d</text>
<text text-anchor="middle" x="639" y="-220.5" font-family="Helvetica,sans-Serif" font-size="10.00">&lt; s16 &gt;</text>
</a>
</g>
</g>
<!-- Node4&#45;&gt;Node3 -->
<g id="edge3" class="edge">
<title>Node4&#45;&gt;Node3</title>
<path fill="none" stroke="#9a32cd" stroke-dasharray="5,2" d="M703.27,-229.87C752.27,-231.61 821.73,-235.55 882,-244.5 894.23,-246.32 907.43,-249.12 919.21,-251.94"/>
<polygon fill="#9a32cd" stroke="#9a32cd" points="703.25,-226.37 693.14,-229.53 703.01,-233.36 703.25,-226.37"/>
<text text-anchor="start" x="755" y="-258.5" font-family="Helvetica,sans-Serif" font-size="10.00"> m_selection_box_int</text>
<text text-anchor="middle" x="807" y="-247.5" font-family="Helvetica,sans-Serif" font-size="10.00">_union</text>
</g>
<!-- Node5 -->
<g id="node5" class="node">
<title>Node5</title>
<g id="a_node5"><a xlink:href="classirr_1_1core_1_1vector3d.html" target="_top" xlink:title=" ">
<polygon fill="white" stroke="black" points="305,-228.5 305,-258.5 408,-258.5 408,-228.5 305,-228.5"/>
<text text-anchor="start" x="313" y="-246.5" font-family="Helvetica,sans-Serif" font-size="10.00">irr::core::vector3d</text>
<text text-anchor="middle" x="356.5" y="-235.5" font-family="Helvetica,sans-Serif" font-size="10.00">&lt; s16 &gt;</text>
</a>
</g>
</g>
<!-- Node5&#45;&gt;Node4 -->
<g id="edge4" class="edge">
<title>Node5&#45;&gt;Node4</title>
<path fill="none" stroke="#9a32cd" stroke-dasharray="5,2" d="M418.56,-240.23C468.14,-237.58 537.36,-233.88 584.72,-231.35"/>
<polygon fill="#9a32cd" stroke="#9a32cd" points="418.1,-236.75 408.3,-240.78 418.47,-243.74 418.1,-236.75"/>
<text text-anchor="middle" x="494.5" y="-252.5" font-family="Helvetica,sans-Serif" font-size="10.00"> MinEdge</text>
<text text-anchor="middle" x="494.5" y="-241.5" font-family="Helvetica,sans-Serif" font-size="10.00">MaxEdge</text>
</g>
<!-- Node6 -->
<g id="node6" class="node">
<title>Node6</title>
<g id="a_node6"><a xlink:title=" ">
<polygon fill="white" stroke="#bfbfbf" points="123.5,-256 123.5,-275 157.5,-275 157.5,-256 123.5,-256"/>
<text text-anchor="middle" x="140.5" y="-263" font-family="Helvetica,sans-Serif" font-size="10.00">s16</text>
</a>
</g>
</g>
<!-- Node6&#45;&gt;Node5 -->
<g id="edge5" class="edge">
<title>Node6&#45;&gt;Node5</title>
<path fill="none" stroke="#9a32cd" stroke-dasharray="5,2" d="M167.64,-262.81C201.58,-259.32 261.58,-253.15 304.65,-248.73"/>
<polygon fill="#9a32cd" stroke="#9a32cd" points="167.17,-259.34 157.58,-263.85 167.89,-266.31 167.17,-259.34"/>
<text text-anchor="middle" x="247" y="-280.5" font-family="Helvetica,sans-Serif" font-size="10.00"> X</text>
<text text-anchor="middle" x="247" y="-269.5" font-family="Helvetica,sans-Serif" font-size="10.00">Y</text>
<text text-anchor="middle" x="247" y="-258.5" font-family="Helvetica,sans-Serif" font-size="10.00">Z</text>
</g>
<!-- Node7 -->
<g id="node7" class="node">
<title>Node7</title>
<g id="a_node7"><a xlink:href="classirr_1_1core_1_1vector3d.html" target="_top" xlink:title="3d vector template class with lots of operators and methods.">
<polygon fill="white" stroke="black" points="75,-139 75,-158 206,-158 206,-139 75,-139"/>
<text text-anchor="middle" x="140.5" y="-146" font-family="Helvetica,sans-Serif" font-size="10.00">irr::core::vector3d&lt; T &gt;</text>
</a>
</g>
</g>
<!-- Node7&#45;&gt;Node5 -->
<g id="edge6" class="edge">
<title>Node7&#45;&gt;Node5</title>
<path fill="none" stroke="orange" stroke-dasharray="5,2" d="M200.34,-163.16C202.33,-164.48 204.23,-165.93 206,-167.5 221.19,-180.99 208.59,-196.27 224,-209.5 246.27,-228.62 277.99,-237.19 304.69,-240.94"/>
<polygon fill="orange" stroke="orange" points="201.55,-159.83 191.1,-158.08 198.18,-165.96 201.55,-159.83"/>
<text text-anchor="middle" x="247" y="-235.5" font-family="Helvetica,sans-Serif" font-size="10.00"> &lt; s16 &gt;</text>
</g>
<!-- Node23 -->
<g id="node23" class="node">
<title>Node23</title>
<g id="a_node23"><a xlink:href="classirr_1_1core_1_1vector3d.html" target="_top" xlink:title=" ">
<polygon fill="white" stroke="black" points="305,-115.5 305,-145.5 408,-145.5 408,-115.5 305,-115.5"/>
<text text-anchor="start" x="313" y="-133.5" font-family="Helvetica,sans-Serif" font-size="10.00">irr::core::vector3d</text>
<text text-anchor="middle" x="356.5" y="-122.5" font-family="Helvetica,sans-Serif" font-size="10.00">&lt; f32 &gt;</text>
</a>
</g>
</g>
<!-- Node7&#45;&gt;Node23 -->
<g id="edge25" class="edge">
<title>Node7&#45;&gt;Node23</title>
<path fill="none" stroke="orange" stroke-dasharray="5,2" d="M216.47,-142.19C245.72,-139.73 278.48,-136.98 304.86,-134.76"/>
<polygon fill="orange" stroke="orange" points="215.96,-138.72 206.29,-143.05 216.55,-145.7 215.96,-138.72"/>
<text text-anchor="middle" x="247" y="-144.5" font-family="Helvetica,sans-Serif" font-size="10.00"> &lt; f32 &gt;</text>
</g>
<!-- Node8 -->
<g id="node8" class="node">
<title>Node8</title>
<g id="a_node8"><a xlink:title=" ">
<polygon fill="white" stroke="#bfbfbf" points="0,-139 0,-158 29,-158 29,-139 0,-139"/>
<text text-anchor="middle" x="14.5" y="-146" font-family="Helvetica,sans-Serif" font-size="10.00">T</text>
</a>
</g>
</g>
<!-- Node8&#45;&gt;Node7 -->
<g id="edge7" class="edge">
<title>Node8&#45;&gt;Node7</title>
<path fill="none" stroke="#9a32cd" stroke-dasharray="5,2" d="M39.38,-148.5C49.64,-148.5 62.18,-148.5 74.86,-148.5"/>
<polygon fill="#9a32cd" stroke="#9a32cd" points="39.24,-145 29.24,-148.5 39.24,-152 39.24,-145"/>
<text text-anchor="middle" x="52" y="-173.5" font-family="Helvetica,sans-Serif" font-size="10.00"> X</text>
<text text-anchor="middle" x="52" y="-162.5" font-family="Helvetica,sans-Serif" font-size="10.00">Y</text>
<text text-anchor="middle" x="52" y="-151.5" font-family="Helvetica,sans-Serif" font-size="10.00">Z</text>
</g>
<!-- Node9 -->
<g id="node9" class="node">
<title>Node9</title>
<g id="a_node9"><a xlink:href="classirr_1_1core_1_1aabbox3d.html" target="_top" xlink:title="Axis aligned bounding box in 3d dimensional space.">
<polygon fill="white" stroke="black" points="288,-177 288,-196 425,-196 425,-177 288,-177"/>
<text text-anchor="middle" x="356.5" y="-184" font-family="Helvetica,sans-Serif" font-size="10.00">irr::core::aabbox3d&lt; T &gt;</text>
</a>
</g>
</g>
<!-- Node9&#45;&gt;Node4 -->
<g id="edge8" class="edge">
<title>Node9&#45;&gt;Node4</title>
<path fill="none" stroke="orange" stroke-dasharray="5,2" d="M431.23,-197.54C479.52,-204.77 541.5,-214.05 584.96,-220.56"/>
<polygon fill="orange" stroke="orange" points="431.56,-194.05 421.15,-196.03 430.52,-200.97 431.56,-194.05"/>
<text text-anchor="middle" x="494.5" y="-217.5" font-family="Helvetica,sans-Serif" font-size="10.00"> &lt; s16 &gt;</text>
</g>
<!-- Node22 -->
<g id="node22" class="node">
<title>Node22</title>
<g id="a_node22"><a xlink:href="classirr_1_1core_1_1aabbox3d.html" target="_top" xlink:title=" ">
<polygon fill="white" stroke="black" points="585,-164.5 585,-194.5 693,-194.5 693,-164.5 585,-164.5"/>
<text text-anchor="start" x="593" y="-182.5" font-family="Helvetica,sans-Serif" font-size="10.00">irr::core::aabbox3d</text>
<text text-anchor="middle" x="639" y="-171.5" font-family="Helvetica,sans-Serif" font-size="10.00">&lt; f32 &gt;</text>
</a>
</g>
</g>
<!-- Node9&#45;&gt;Node22 -->
<g id="edge26" class="edge">
<title>Node9&#45;&gt;Node22</title>
<path fill="none" stroke="orange" stroke-dasharray="5,2" d="M435.26,-177.02C437.87,-176.82 440.45,-176.65 443,-176.5 491,-173.7 545.74,-174.93 584.99,-176.58"/>
<polygon fill="orange" stroke="orange" points="434.79,-173.54 425.11,-177.86 435.36,-180.52 434.79,-173.54"/>
<text text-anchor="middle" x="494.5" y="-179.5" font-family="Helvetica,sans-Serif" font-size="10.00"> &lt; f32 &gt;</text>
</g>
<!-- Node10 -->
<g id="node10" class="node">
<title>Node10</title>
<g id="a_node10"><a xlink:title=" ">
<polygon fill="white" stroke="#bfbfbf" points="96.5,-177 96.5,-196 184.5,-196 184.5,-177 96.5,-177"/>
<text text-anchor="middle" x="140.5" y="-184" font-family="Helvetica,sans-Serif" font-size="10.00">vector3d&lt; T &gt;</text>
</a>
</g>
</g>
<!-- Node10&#45;&gt;Node9 -->
<g id="edge9" class="edge">
<title>Node10&#45;&gt;Node9</title>
<path fill="none" stroke="#9a32cd" stroke-dasharray="5,2" d="M194.59,-186.5C222.72,-186.5 257.59,-186.5 287.66,-186.5"/>
<polygon fill="#9a32cd" stroke="#9a32cd" points="194.55,-183 184.55,-186.5 194.55,-190 194.55,-183"/>
<text text-anchor="middle" x="247" y="-200.5" font-family="Helvetica,sans-Serif" font-size="10.00"> MinEdge</text>
<text text-anchor="middle" x="247" y="-189.5" font-family="Helvetica,sans-Serif" font-size="10.00">MaxEdge</text>
</g>
<!-- Node11 -->
<g id="node11" class="node">
<title>Node11</title>
<g id="a_node11"><a xlink:title=" ">
<polygon fill="white" stroke="#bfbfbf" points="579.5,-397 579.5,-438 698.5,-438 698.5,-397 579.5,-397"/>
<text text-anchor="start" x="587.5" y="-426" font-family="Helvetica,sans-Serif" font-size="10.00">unordered_map&lt; std</text>
<text text-anchor="start" x="587.5" y="-415" font-family="Helvetica,sans-Serif" font-size="10.00">::string, std::vector</text>
<text text-anchor="middle" x="639" y="-404" font-family="Helvetica,sans-Serif" font-size="10.00">&lt; content_t &gt; &gt;</text>
</a>
</g>
</g>
<!-- Node11&#45;&gt;Node3 -->
<g id="edge10" class="edge">
<title>Node11&#45;&gt;Node3</title>
<path fill="none" stroke="#9a32cd" stroke-dasharray="5,2" d="M708.81,-423.83C760.55,-425.15 830.99,-419.29 882,-385.5 924.48,-357.35 945.62,-295.32 952.45,-271.29"/>
<polygon fill="#9a32cd" stroke="#9a32cd" points="708.84,-420.33 698.73,-423.47 708.6,-427.32 708.84,-420.33"/>
<text text-anchor="middle" x="807" y="-426.5" font-family="Helvetica,sans-Serif" font-size="10.00"> m_group_to_items</text>
</g>
<!-- Node12 -->
<g id="node12" class="node">
<title>Node12</title>
<g id="a_node12"><a xlink:title=" ">
<polygon fill="white" stroke="#bfbfbf" points="564,-359 564,-378 714,-378 714,-359 564,-359"/>
<text text-anchor="middle" x="639" y="-366" font-family="Helvetica,sans-Serif" font-size="10.00">vector&lt; ContentFeatures &gt;</text>
</a>
</g>
</g>
<!-- Node12&#45;&gt;Node3 -->
<g id="edge11" class="edge">
<title>Node12&#45;&gt;Node3</title>
<path fill="none" stroke="#9a32cd" stroke-dasharray="5,2" d="M724.26,-371.3C772.73,-369.68 833.44,-361.95 882,-337.5 912.88,-321.95 937.96,-287.94 948.96,-271.2"/>
<polygon fill="#9a32cd" stroke="#9a32cd" points="724.02,-367.81 714.12,-371.56 724.2,-374.8 724.02,-367.81"/>
<text text-anchor="middle" x="807" y="-373.5" font-family="Helvetica,sans-Serif" font-size="10.00"> m_content_features</text>
</g>
<!-- Node13 -->
<g id="node13" class="node">
<title>Node13</title>
<g id="a_node13"><a xlink:title=" ">
<polygon fill="white" stroke="#bfbfbf" points="621.5,-321 621.5,-340 656.5,-340 656.5,-321 621.5,-321"/>
<text text-anchor="middle" x="639" y="-328" font-family="Helvetica,sans-Serif" font-size="10.00">u16</text>
</a>
</g>
</g>
<!-- Node13&#45;&gt;Node3 -->
<g id="edge12" class="edge">
<title>Node13&#45;&gt;Node3</title>
<path fill="none" stroke="#9a32cd" stroke-dasharray="5,2" d="M666.94,-328.93C712.18,-325.76 805.96,-316.87 882,-294.5 901.75,-288.69 923.06,-278.57 937.53,-271.06"/>
<polygon fill="#9a32cd" stroke="#9a32cd" points="666.52,-325.45 656.77,-329.6 666.98,-332.43 666.52,-325.45"/>
<text text-anchor="middle" x="807" y="-325.5" font-family="Helvetica,sans-Serif" font-size="10.00"> m_next_id</text>
</g>
<!-- Node14 -->
<g id="node14" class="node">
<title>Node14</title>
<g id="a_node14"><a xlink:href="structContentLightingFlags.html" target="_top" xlink:title=" ">
<polygon fill="white" stroke="black" points="579,-457 579,-476 699,-476 699,-457 579,-457"/>
<text text-anchor="middle" x="639" y="-464" font-family="Helvetica,sans-Serif" font-size="10.00">ContentLightingFlags</text>
</a>
</g>
</g>
<!-- Node14&#45;&gt;Node3 -->
<g id="edge13" class="edge">
<title>Node14&#45;&gt;Node3</title>
<path fill="none" stroke="#9a32cd" stroke-dasharray="5,2" d="M709.38,-475.4C761.89,-478.32 833.09,-473.64 882,-436.5 937.84,-394.1 951.3,-301.11 954.24,-271.06"/>
<polygon fill="#9a32cd" stroke="#9a32cd" points="709.35,-471.89 699.14,-474.73 708.88,-478.88 709.35,-471.89"/>
<text text-anchor="start" x="758.5" y="-489.5" font-family="Helvetica,sans-Serif" font-size="10.00"> m_content_lighting</text>
<text text-anchor="middle" x="807" y="-478.5" font-family="Helvetica,sans-Serif" font-size="10.00">_flag_cache</text>
</g>
<!-- Node15 -->
<g id="node15" class="node">
<title>Node15</title>
<g id="a_node15"><a xlink:title=" ">
<polygon fill="white" stroke="#bfbfbf" points="342,-457 342,-476 371,-476 371,-457 342,-457"/>
<text text-anchor="middle" x="356.5" y="-464" font-family="Helvetica,sans-Serif" font-size="10.00">u8</text>
</a>
</g>
</g>
<!-- Node15&#45;&gt;Node14 -->
<g id="edge14" class="edge">
<title>Node15&#45;&gt;Node14</title>
<path fill="none" stroke="#9a32cd" stroke-dasharray="5,2" d="M381.14,-466.5C424.42,-466.5 517.56,-466.5 578.98,-466.5"/>
<polygon fill="#9a32cd" stroke="#9a32cd" points="381.03,-463 371.03,-466.5 381.03,-470 381.03,-463"/>
<text text-anchor="middle" x="494.5" y="-469.5" font-family="Helvetica,sans-Serif" font-size="10.00"> light_source</text>
</g>
<!-- Node16 -->
<g id="node16" class="node">
<title>Node16</title>
<g id="a_node16"><a xlink:href="classbool.html" target="_top" xlink:title=" ">
<polygon fill="white" stroke="black" points="337.5,-309 337.5,-328 375.5,-328 375.5,-309 337.5,-309"/>
<text text-anchor="middle" x="356.5" y="-316" font-family="Helvetica,sans-Serif" font-size="10.00">bool</text>
</a>
</g>
</g>
<!-- Node16&#45;&gt;Node3 -->
<g id="edge16" class="edge">
<title>Node16&#45;&gt;Node3</title>
<path fill="none" stroke="#9a32cd" stroke-dasharray="5,2" d="M385.68,-313.92C425.36,-307.62 500.02,-296.28 564,-289.5 580.67,-287.74 803.22,-272.11 904.92,-264.99"/>
<polygon fill="#9a32cd" stroke="#9a32cd" points="385,-310.49 375.68,-315.52 386.11,-317.4 385,-310.49"/>
<text text-anchor="start" x="587" y="-303.5" font-family="Helvetica,sans-Serif" font-size="10.00"> m_node_registration</text>
<text text-anchor="middle" x="639" y="-292.5" font-family="Helvetica,sans-Serif" font-size="10.00">_complete</text>
</g>
<!-- Node16&#45;&gt;Node14 -->
<g id="edge15" class="edge">
<title>Node16&#45;&gt;Node14</title>
<path fill="none" stroke="#9a32cd" stroke-dasharray="5,2" d="M384.98,-331.88C422.95,-350.97 492.8,-388.31 546,-429.5 554.95,-436.43 554.17,-441.89 564,-447.5 570.8,-451.38 578.39,-454.48 586.06,-456.95"/>
<polygon fill="#9a32cd" stroke="#9a32cd" points="386.11,-328.53 375.6,-327.21 382.99,-334.8 386.11,-328.53"/>
<text text-anchor="middle" x="494.5" y="-454.5" font-family="Helvetica,sans-Serif" font-size="10.00"> sunlight_propagates</text>
<text text-anchor="middle" x="494.5" y="-443.5" font-family="Helvetica,sans-Serif" font-size="10.00">light_propagates</text>
<text text-anchor="middle" x="494.5" y="-432.5" font-family="Helvetica,sans-Serif" font-size="10.00">has_light</text>
</g>
<!-- Node17 -->
<g id="node17" class="node">
<title>Node17</title>
<g id="a_node17"><a xlink:href="classNameIdMapping.html" target="_top" xlink:title=" ">
<polygon fill="white" stroke="black" points="590.5,-38 590.5,-57 687.5,-57 687.5,-38 590.5,-38"/>
<text text-anchor="middle" x="639" y="-45" font-family="Helvetica,sans-Serif" font-size="10.00">NameIdMapping</text>
</a>
</g>
</g>
<!-- Node17&#45;&gt;Node3 -->
<g id="edge17" class="edge">
<title>Node17&#45;&gt;Node3</title>
<path fill="none" stroke="#9a32cd" stroke-dasharray="5,2" d="M682.99,-35.56C737.17,-23.41 829.52,-12.78 882,-63.5 910.75,-91.28 875.2,-211.14 900,-242.5 903.07,-246.38 906.98,-249.47 911.3,-251.94"/>
<polygon fill="#9a32cd" stroke="#9a32cd" points="681.94,-32.21 673.01,-37.91 683.55,-39.03 681.94,-32.21"/>
<text text-anchor="middle" x="807" y="-66.5" font-family="Helvetica,sans-Serif" font-size="10.00"> m_name_id_mapping</text>
</g>
<!-- Node18 -->
<g id="node18" class="node">
<title>Node18</title>
<g id="a_node18"><a xlink:title=" ">
<polygon fill="white" stroke="#bfbfbf" points="297,-0.5 297,-30.5 416,-30.5 416,-0.5 297,-0.5"/>
<text text-anchor="start" x="305" y="-18.5" font-family="Helvetica,sans-Serif" font-size="10.00">unordered_map&lt; std</text>
<text text-anchor="middle" x="356.5" y="-7.5" font-family="Helvetica,sans-Serif" font-size="10.00">::string, u16 &gt;</text>
</a>
</g>
</g>
<!-- Node18&#45;&gt;Node17 -->
<g id="edge18" class="edge">
<title>Node18&#45;&gt;Node17</title>
<path fill="none" stroke="#9a32cd" stroke-dasharray="5,2" d="M426.25,-23.34C477.22,-29.16 545.38,-36.93 590.44,-42.07"/>
<polygon fill="#9a32cd" stroke="#9a32cd" points="426.63,-19.86 416.3,-22.21 425.84,-26.82 426.63,-19.86"/>
<text text-anchor="middle" x="494.5" y="-39.5" font-family="Helvetica,sans-Serif" font-size="10.00"> m_name_to_id</text>
</g>
<!-- Node19 -->
<g id="node19" class="node">
<title>Node19</title>
<g id="a_node19"><a xlink:title=" ">
<polygon fill="white" stroke="#bfbfbf" points="294,-49.5 294,-79.5 419,-79.5 419,-49.5 294,-49.5"/>
<text text-anchor="start" x="302" y="-67.5" font-family="Helvetica,sans-Serif" font-size="10.00">unordered_map&lt; u16,</text>
<text text-anchor="middle" x="356.5" y="-56.5" font-family="Helvetica,sans-Serif" font-size="10.00"> std::string &gt;</text>
</a>
</g>
</g>
<!-- Node19&#45;&gt;Node17 -->
<g id="edge19" class="edge">
<title>Node19&#45;&gt;Node17</title>
<path fill="none" stroke="#9a32cd" stroke-dasharray="5,2" d="M429.28,-60.15C479.92,-57.08 546.33,-53.06 590.5,-50.38"/>
<polygon fill="#9a32cd" stroke="#9a32cd" points="428.83,-56.67 419.06,-60.77 429.25,-63.66 428.83,-56.67"/>
<text text-anchor="middle" x="494.5" y="-62.5" font-family="Helvetica,sans-Serif" font-size="10.00"> m_id_to_name</text>
</g>
<!-- Node20 -->
<g id="node20" class="node">
<title>Node20</title>
<g id="a_node20"><a xlink:title=" ">
<polygon fill="white" stroke="#bfbfbf" points="566,-126 566,-145 712,-145 712,-126 566,-126"/>
<text text-anchor="middle" x="639" y="-133" font-family="Helvetica,sans-Serif" font-size="10.00">vector&lt; NodeResolver * &gt;</text>
</a>
</g>
</g>
<!-- Node20&#45;&gt;Node3 -->
<g id="edge20" class="edge">
<title>Node20&#45;&gt;Node3</title>
<path fill="none" stroke="#9a32cd" stroke-dasharray="5,2" d="M696.57,-124.55C750.93,-117.53 831.99,-116.78 882,-161.5 909.49,-186.08 875.45,-214.98 900,-242.5 903.43,-246.34 907.68,-249.41 912.28,-251.86"/>
<polygon fill="#9a32cd" stroke="#9a32cd" points="695.82,-121.12 686.41,-125.97 696.8,-128.05 695.82,-121.12"/>
<text text-anchor="middle" x="807" y="-164.5" font-family="Helvetica,sans-Serif" font-size="10.00"> m_pending_resolve_callbacks</text>
</g>
<!-- Node21 -->
<g id="node21" class="node">
<title>Node21</title>
<g id="a_node21"><a xlink:title=" ">
<polygon fill="white" stroke="#bfbfbf" points="579.5,-76.5 579.5,-106.5 698.5,-106.5 698.5,-76.5 579.5,-76.5"/>
<text text-anchor="start" x="587.5" y="-94.5" font-family="Helvetica,sans-Serif" font-size="10.00">unordered_map&lt; std</text>
<text text-anchor="middle" x="639" y="-83.5" font-family="Helvetica,sans-Serif" font-size="10.00">::string, content_t &gt;</text>
</a>
</g>
</g>
<!-- Node21&#45;&gt;Node3 -->
<g id="edge21" class="edge">
<title>Node21&#45;&gt;Node3</title>
<path fill="none" stroke="#9a32cd" stroke-dasharray="5,2" d="M708.72,-83.02C771.23,-76.96 857.37,-73.33 882,-95.5 930.93,-139.53 858.61,-191.32 900,-242.5 903.11,-246.35 907.05,-249.42 911.38,-251.87"/>
<polygon fill="#9a32cd" stroke="#9a32cd" points="708.12,-79.56 698.52,-84.04 708.82,-86.52 708.12,-79.56"/>
<text text-anchor="start" x="739.5" y="-109.5" font-family="Helvetica,sans-Serif" font-size="10.00"> m_name_id_mapping_with</text>
<text text-anchor="middle" x="807" y="-98.5" font-family="Helvetica,sans-Serif" font-size="10.00">_aliases</text>
</g>
<!-- Node22&#45;&gt;Node3 -->
<g id="edge22" class="edge">
<title>Node22&#45;&gt;Node3</title>
<path fill="none" stroke="#9a32cd" stroke-dasharray="5,2" d="M703.41,-175.34C755.28,-174.96 828.53,-181.59 882,-215.5 894.18,-223.22 888.59,-233.68 900,-242.5 904.96,-246.33 910.74,-249.42 916.66,-251.9"/>
<polygon fill="#9a32cd" stroke="#9a32cd" points="703.28,-171.85 693.34,-175.51 703.39,-178.85 703.28,-171.85"/>
<text text-anchor="middle" x="807" y="-218.5" font-family="Helvetica,sans-Serif" font-size="10.00"> m_selection_box_union</text>
</g>
<!-- Node23&#45;&gt;Node22 -->
<g id="edge23" class="edge">
<title>Node23&#45;&gt;Node22</title>
<path fill="none" stroke="#9a32cd" stroke-dasharray="5,2" d="M418.53,-133.32C455.68,-135.86 503.93,-140.63 546,-149.5 551.05,-150.57 572.49,-157.53 593.4,-164.48"/>
<polygon fill="#9a32cd" stroke="#9a32cd" points="418.56,-129.82 408.36,-132.66 418.11,-136.8 418.56,-129.82"/>
<text text-anchor="middle" x="494.5" y="-163.5" font-family="Helvetica,sans-Serif" font-size="10.00"> MinEdge</text>
<text text-anchor="middle" x="494.5" y="-152.5" font-family="Helvetica,sans-Serif" font-size="10.00">MaxEdge</text>
</g>
<!-- Node24 -->
<g id="node24" class="node">
<title>Node24</title>
<g id="a_node24"><a xlink:title=" ">
<polygon fill="white" stroke="#bfbfbf" points="121.5,-83 121.5,-102 159.5,-102 159.5,-83 121.5,-83"/>
<text text-anchor="middle" x="140.5" y="-90" font-family="Helvetica,sans-Serif" font-size="10.00">float</text>
</a>
</g>
</g>
<!-- Node24&#45;&gt;Node23 -->
<g id="edge24" class="edge">
<title>Node24&#45;&gt;Node23</title>
<path fill="none" stroke="#9a32cd" stroke-dasharray="5,2" d="M169.92,-92.41C196.14,-92.81 236.04,-94.67 270,-101.5 285.98,-104.71 303.09,-110.1 317.77,-115.37"/>
<polygon fill="#9a32cd" stroke="#9a32cd" points="169.6,-88.9 159.57,-92.31 169.54,-95.9 169.6,-88.9"/>
<text text-anchor="middle" x="247" y="-126.5" font-family="Helvetica,sans-Serif" font-size="10.00"> X</text>
<text text-anchor="middle" x="247" y="-115.5" font-family="Helvetica,sans-Serif" font-size="10.00">Y</text>
<text text-anchor="middle" x="247" y="-104.5" font-family="Helvetica,sans-Serif" font-size="10.00">Z</text>
</g>
<!-- Node25 -->
<g id="node25" class="node">
<title>Node25</title>
<g id="a_node25"><a xlink:title=" ">
<polygon fill="white" stroke="#bfbfbf" points="919.5,-214 919.5,-233 992.5,-233 992.5,-214 919.5,-214"/>
<text text-anchor="middle" x="956" y="-221" font-family="Helvetica,sans-Serif" font-size="10.00">ObjDefType</text>
</a>
</g>
</g>
<!-- Node25&#45;&gt;Node2 -->
<g id="edge27" class="edge">
<title>Node25&#45;&gt;Node2</title>
<path fill="none" stroke="#9a32cd" stroke-dasharray="5,2" d="M1002.87,-223.5C1033.18,-223.5 1072.73,-223.5 1102.97,-223.5"/>
<polygon fill="#9a32cd" stroke="#9a32cd" points="1002.57,-220 992.57,-223.5 1002.57,-227 1002.57,-220"/>
<text text-anchor="middle" x="1057.5" y="-226.5" font-family="Helvetica,sans-Serif" font-size="10.00"> m_objtype</text>
</g>
<!-- Node26 -->
<g id="node26" class="node">
<title>Node26</title>
<g id="a_node26"><a xlink:title=" ">
<polygon fill="white" stroke="#bfbfbf" points="900,-176 900,-195 1012,-195 1012,-176 900,-176"/>
<text text-anchor="middle" x="956" y="-183" font-family="Helvetica,sans-Serif" font-size="10.00">vector&lt; ObjDef * &gt;</text>
</a>
</g>
</g>
<!-- Node26&#45;&gt;Node2 -->
<g id="edge28" class="edge">
<title>Node26&#45;&gt;Node2</title>
<path fill="none" stroke="#9a32cd" stroke-dasharray="5,2" d="M1022.27,-196.52C1042.43,-200.12 1064.67,-204.28 1085,-208.5 1092.99,-210.16 1101.5,-212.07 1109.62,-213.96"/>
<polygon fill="#9a32cd" stroke="#9a32cd" points="1022.71,-193.05 1012.25,-194.75 1021.49,-199.94 1022.71,-193.05"/>
<text text-anchor="middle" x="1057.5" y="-211.5" font-family="Helvetica,sans-Serif" font-size="10.00"> m_objects</text>
</g>
</g>
</svg>
