<?xml version="1.0" encoding="UTF-8" standalone="no"?>
<!DOCTYPE svg PUBLIC "-//W3C//DTD SVG 1.1//EN"
 "http://www.w3.org/Graphics/SVG/1.1/DTD/svg11.dtd">
<!-- Generated by graphviz version 2.43.0 (0)
 -->
<!-- Title: irr::core::plane3d&lt; T &gt; Pages: 1 -->
<svg width="154pt" height="95pt"
 viewBox="0.00 0.00 154.00 95.00" xmlns="http://www.w3.org/2000/svg" xmlns:xlink="http://www.w3.org/1999/xlink">
<g id="graph0" class="graph" transform="scale(1 1) rotate(0) translate(4 91)">
<title>irr::core::plane3d&lt; T &gt;</title>
<polygon fill="white" stroke="transparent" points="-4,4 -4,-91 150,-91 150,4 -4,4"/>
<!-- Node1 -->
<g id="node1" class="node">
<title>Node1</title>
<g id="a_node1"><a xlink:title="Template plane class with some intersection testing methods.">
<polygon fill="#bfbfbf" stroke="black" points="18,-0.5 18,-19.5 146,-19.5 146,-0.5 18,-0.5"/>
<text text-anchor="middle" x="82" y="-7.5" font-family="Helvetica,sans-Serif" font-size="10.00">irr::core::plane3d&lt; T &gt;</text>
</a>
</g>
</g>
<!-- Node2 -->
<g id="node2" class="node">
<title>Node2</title>
<g id="a_node2"><a xlink:title=" ">
<polygon fill="white" stroke="#bfbfbf" points="0,-67.5 0,-86.5 88,-86.5 88,-67.5 0,-67.5"/>
<text text-anchor="middle" x="44" y="-74.5" font-family="Helvetica,sans-Serif" font-size="10.00">vector3d&lt; T &gt;</text>
</a>
</g>
</g>
<!-- Node2&#45;&gt;Node1 -->
<g id="edge1" class="edge">
<title>Node2&#45;&gt;Node1</title>
<path fill="none" stroke="#9a32cd" stroke-dasharray="5,2" d="M49.24,-57.57C51.46,-51.14 54.39,-44.03 58,-38 62,-31.33 67.75,-24.79 72.63,-19.81"/>
<polygon fill="#9a32cd" stroke="#9a32cd" points="45.8,-56.85 46.16,-67.44 52.48,-58.94 45.8,-56.85"/>
<text text-anchor="middle" x="78" y="-41" font-family="Helvetica,sans-Serif" font-size="10.00"> Normal</text>
</g>
<!-- Node3 -->
<g id="node3" class="node">
<title>Node3</title>
<g id="a_node3"><a xlink:title=" ">
<polygon fill="white" stroke="#bfbfbf" points="105.5,-67.5 105.5,-86.5 134.5,-86.5 134.5,-67.5 105.5,-67.5"/>
<text text-anchor="middle" x="120" y="-74.5" font-family="Helvetica,sans-Serif" font-size="10.00">T</text>
</a>
</g>
</g>
<!-- Node3&#45;&gt;Node1 -->
<g id="edge2" class="edge">
<title>Node3&#45;&gt;Node1</title>
<path fill="none" stroke="#9a32cd" stroke-dasharray="5,2" d="M109.71,-58.14C106.03,-51.78 101.84,-44.56 98,-38 94.47,-31.98 90.47,-25.23 87.36,-19.99"/>
<polygon fill="#9a32cd" stroke="#9a32cd" points="106.93,-60.32 114.96,-67.23 112.99,-56.82 106.93,-60.32"/>
<text text-anchor="middle" x="109.5" y="-41" font-family="Helvetica,sans-Serif" font-size="10.00"> D</text>
</g>
</g>
</svg>
