<?xml version="1.0" encoding="UTF-8" standalone="no"?>
<!DOCTYPE svg PUBLIC "-//W3C//DTD SVG 1.1//EN"
 "http://www.w3.org/Graphics/SVG/1.1/DTD/svg11.dtd">
<!-- Generated by graphviz version 2.43.0 (0)
 -->
<!-- Title: GUIEditBox::setPasswordBox Pages: 1 -->
<svg width="345pt" height="66pt"
 viewBox="0.00 0.00 345.00 66.00" xmlns="http://www.w3.org/2000/svg" xmlns:xlink="http://www.w3.org/1999/xlink">
<g id="graph0" class="graph" transform="scale(1 1) rotate(0) translate(4 62)">
<title>GUIEditBox::setPasswordBox</title>
<polygon fill="white" stroke="transparent" points="-4,4 -4,-62 341,-62 341,4 -4,4"/>
<!-- Node1 -->
<g id="node1" class="node">
<title>Node1</title>
<g id="a_node1"><a xlink:title="Sets whether the edit box is a password box. Setting this to true will.">
<polygon fill="#bfbfbf" stroke="black" points="0,-19.5 0,-38.5 158,-38.5 158,-19.5 0,-19.5"/>
<text text-anchor="middle" x="79" y="-26.5" font-family="Helvetica,sans-Serif" font-size="10.00">GUIEditBox::setPasswordBox</text>
</a>
</g>
</g>
<!-- Node2 -->
<g id="node2" class="node">
<title>Node2</title>
<g id="a_node2"><a xlink:href="classGUIEditBox.html#a0bc46f4503438867b3db2fee0e5eda43" target="_top" xlink:title="Enables or disables newlines.">
<polygon fill="white" stroke="black" points="196.5,-38.5 196.5,-57.5 334.5,-57.5 334.5,-38.5 196.5,-38.5"/>
<text text-anchor="middle" x="265.5" y="-45.5" font-family="Helvetica,sans-Serif" font-size="10.00">GUIEditBox::setMultiLine</text>
</a>
</g>
</g>
<!-- Node1&#45;&gt;Node2 -->
<g id="edge1" class="edge">
<title>Node1&#45;&gt;Node2</title>
<path fill="none" stroke="midnightblue" d="M158.24,-37.06C167.55,-38.02 177.05,-38.99 186.35,-39.95"/>
<polygon fill="midnightblue" stroke="midnightblue" points="186.04,-43.44 196.35,-40.98 186.76,-36.48 186.04,-43.44"/>
</g>
<!-- Node3 -->
<g id="node3" class="node">
<title>Node3</title>
<g id="a_node3"><a xlink:href="classGUIEditBox.html#a53e1377fc66fce369f233a7d2881501d" target="_top" xlink:title="Enables or disables word wrap for using the edit box as multiline text editor.">
<polygon fill="white" stroke="black" points="194,-0.5 194,-19.5 337,-19.5 337,-0.5 194,-0.5"/>
<text text-anchor="middle" x="265.5" y="-7.5" font-family="Helvetica,sans-Serif" font-size="10.00">GUIEditBox::setWordWrap</text>
</a>
</g>
</g>
<!-- Node1&#45;&gt;Node3 -->
<g id="edge2" class="edge">
<title>Node1&#45;&gt;Node3</title>
<path fill="none" stroke="midnightblue" d="M158.24,-20.94C166.62,-20.08 175.16,-19.2 183.57,-18.33"/>
<polygon fill="midnightblue" stroke="midnightblue" points="184.16,-21.79 193.74,-17.29 183.44,-14.83 184.16,-21.79"/>
</g>
</g>
</svg>
