<?xml version="1.0" encoding="UTF-8" standalone="no"?>
<!DOCTYPE svg PUBLIC "-//W3C//DTD SVG 1.1//EN"
 "http://www.w3.org/Graphics/SVG/1.1/DTD/svg11.dtd">
<!-- Generated by graphviz version 2.43.0 (0)
 -->
<!-- Title: irr::core::ustring16::_ustring16_const_iterator Pages: 1 -->
<svg width="770pt" height="248pt"
 viewBox="0.00 0.00 770.00 247.50" xmlns="http://www.w3.org/2000/svg" xmlns:xlink="http://www.w3.org/1999/xlink">
<g id="graph0" class="graph" transform="scale(1 1) rotate(0) translate(4 243.5)">
<title>irr::core::ustring16::_ustring16_const_iterator</title>
<polygon fill="white" stroke="transparent" points="-4,4 -4,-243.5 766,-243.5 766,4 -4,4"/>
<!-- Node1 -->
<g id="node1" class="node">
<title>Node1</title>
<g id="a_node1"><a xlink:title="Iterator to iterate through a UTF&#45;16 string.">
<polygon fill="#bfbfbf" stroke="black" points="616,-124 616,-154 762,-154 762,-124 616,-124"/>
<text text-anchor="start" x="624" y="-142" font-family="Helvetica,sans-Serif" font-size="10.00">irr::core::ustring16</text>
<text text-anchor="middle" x="689" y="-131" font-family="Helvetica,sans-Serif" font-size="10.00">::_ustring16_const_iterator</text>
</a>
</g>
</g>
<!-- Node2 -->
<g id="node2" class="node">
<title>Node2</title>
<g id="a_node2"><a xlink:title=" ">
<polygon fill="white" stroke="#bfbfbf" points="337,-187 337,-239 498,-239 498,-187 337,-187"/>
<text text-anchor="start" x="345" y="-227" font-family="Helvetica,sans-Serif" font-size="10.00">std::iterator&lt; std</text>
<text text-anchor="start" x="345" y="-216" font-family="Helvetica,sans-Serif" font-size="10.00">::bidirectional_iterator</text>
<text text-anchor="start" x="345" y="-205" font-family="Helvetica,sans-Serif" font-size="10.00">_tag, access, ptrdiff_t,</text>
<text text-anchor="middle" x="417.5" y="-194" font-family="Helvetica,sans-Serif" font-size="10.00"> const access, const access &gt;</text>
</a>
</g>
</g>
<!-- Node2&#45;&gt;Node1 -->
<g id="edge1" class="edge">
<title>Node2&#45;&gt;Node1</title>
<path fill="none" stroke="midnightblue" d="M508.21,-194.85C537.08,-188.39 569.08,-180.57 598,-172 615.39,-166.85 634.29,-160.1 650.26,-154.05"/>
<polygon fill="midnightblue" stroke="midnightblue" points="507.15,-191.5 498.14,-197.08 508.66,-198.34 507.15,-191.5"/>
</g>
<!-- Node3 -->
<g id="node3" class="node">
<title>Node3</title>
<g id="a_node3"><a xlink:href="classirr_1_1core_1_1ustring16.html" target="_top" xlink:title="UTF&#45;16 string class.">
<polygon fill="white" stroke="black" points="174,-49.5 174,-68.5 280,-68.5 280,-49.5 174,-49.5"/>
<text text-anchor="middle" x="227" y="-56.5" font-family="Helvetica,sans-Serif" font-size="10.00">irr::core::ustring16</text>
</a>
</g>
</g>
<!-- Node3&#45;&gt;Node1 -->
<g id="edge2" class="edge">
<title>Node3&#45;&gt;Node1</title>
<path fill="none" stroke="#9a32cd" stroke-dasharray="5,2" d="M290.39,-55.41C345.53,-53.57 427.87,-54.11 498,-68 556.38,-79.56 620.48,-106.8 657.31,-123.98"/>
<polygon fill="#9a32cd" stroke="#9a32cd" points="289.94,-51.92 280.08,-55.79 290.2,-58.92 289.94,-51.92"/>
<text text-anchor="middle" x="417.5" y="-71" font-family="Helvetica,sans-Serif" font-size="10.00"> ref</text>
</g>
<!-- Node7 -->
<g id="node7" class="node">
<title>Node7</title>
<g id="a_node7"><a xlink:href="classirr_1_1core_1_1ustring16_1_1__ustring16__iterator__access.html" target="_top" xlink:title="Access an element in a unicode string, allowing one to change it.">
<polygon fill="white" stroke="black" points="360,-88.5 360,-129.5 475,-129.5 475,-88.5 360,-88.5"/>
<text text-anchor="start" x="368" y="-117.5" font-family="Helvetica,sans-Serif" font-size="10.00">irr::core::ustring16</text>
<text text-anchor="start" x="368" y="-106.5" font-family="Helvetica,sans-Serif" font-size="10.00">::_ustring16_iterator</text>
<text text-anchor="middle" x="417.5" y="-95.5" font-family="Helvetica,sans-Serif" font-size="10.00">_access</text>
</a>
</g>
</g>
<!-- Node3&#45;&gt;Node7 -->
<g id="edge7" class="edge">
<title>Node3&#45;&gt;Node7</title>
<path fill="none" stroke="#9a32cd" stroke-dasharray="5,2" d="M273.85,-71.16C299.79,-78.04 332.45,-86.71 359.97,-94.01"/>
<polygon fill="#9a32cd" stroke="#9a32cd" points="274.46,-67.7 263.9,-68.52 272.67,-74.47 274.46,-67.7"/>
<text text-anchor="middle" x="308.5" y="-85" font-family="Helvetica,sans-Serif" font-size="10.00"> ref</text>
</g>
<!-- Node4 -->
<g id="node4" class="node">
<title>Node4</title>
<g id="a_node4"><a xlink:title=" ">
<polygon fill="white" stroke="#bfbfbf" points="16.5,-109.5 16.5,-128.5 72.5,-128.5 72.5,-109.5 16.5,-109.5"/>
<text text-anchor="middle" x="44.5" y="-116.5" font-family="Helvetica,sans-Serif" font-size="10.00">uint32_t</text>
</a>
</g>
</g>
<!-- Node4&#45;&gt;Node1 -->
<g id="edge9" class="edge">
<title>Node4&#45;&gt;Node1</title>
<path fill="none" stroke="#9a32cd" stroke-dasharray="5,2" d="M82.51,-126.47C90.55,-127.86 99.04,-129.14 107,-130 287.82,-149.61 334.13,-141.46 516,-144 552.44,-144.51 561.57,-145.01 598,-144 603.79,-143.84 609.78,-143.62 615.8,-143.36"/>
<polygon fill="#9a32cd" stroke="#9a32cd" points="83.09,-123.02 72.63,-124.68 81.85,-129.91 83.09,-123.02"/>
<text text-anchor="middle" x="308.5" y="-146" font-family="Helvetica,sans-Serif" font-size="10.00"> pos</text>
</g>
<!-- Node4&#45;&gt;Node3 -->
<g id="edge3" class="edge">
<title>Node4&#45;&gt;Node3</title>
<path fill="none" stroke="#9a32cd" stroke-dasharray="5,2" d="M67.4,-103.78C78.76,-96.52 93.14,-88.29 107,-83 128.27,-74.89 152.77,-69.35 173.99,-65.66"/>
<polygon fill="#9a32cd" stroke="#9a32cd" points="65.42,-100.89 59,-109.32 69.28,-106.74 65.42,-100.89"/>
<text text-anchor="middle" x="131.5" y="-97" font-family="Helvetica,sans-Serif" font-size="10.00"> allocated</text>
<text text-anchor="middle" x="131.5" y="-86" font-family="Helvetica,sans-Serif" font-size="10.00">used</text>
</g>
<!-- Node4&#45;&gt;Node7 -->
<g id="edge8" class="edge">
<title>Node4&#45;&gt;Node7</title>
<path fill="none" stroke="#9a32cd" stroke-dasharray="5,2" d="M83.02,-117.99C148.3,-116.23 283.15,-112.59 359.87,-110.53"/>
<polygon fill="#9a32cd" stroke="#9a32cd" points="82.68,-114.5 72.78,-118.26 82.87,-121.49 82.68,-114.5"/>
<text text-anchor="middle" x="227" y="-118" font-family="Helvetica,sans-Serif" font-size="10.00"> pos</text>
</g>
<!-- Node5 -->
<g id="node5" class="node">
<title>Node5</title>
<g id="a_node5"><a xlink:title=" ">
<polygon fill="white" stroke="#bfbfbf" points="0,-38.5 0,-57.5 89,-57.5 89,-38.5 0,-38.5"/>
<text text-anchor="middle" x="44.5" y="-45.5" font-family="Helvetica,sans-Serif" font-size="10.00">EUTF_ENCODE</text>
</a>
</g>
</g>
<!-- Node5&#45;&gt;Node3 -->
<g id="edge4" class="edge">
<title>Node5&#45;&gt;Node3</title>
<path fill="none" stroke="#9a32cd" stroke-dasharray="5,2" d="M99.19,-47.06C117.26,-47.12 137.52,-47.6 156,-49 161.75,-49.44 167.75,-50.05 173.72,-50.76"/>
<polygon fill="#9a32cd" stroke="#9a32cd" points="99.11,-43.55 89.12,-47.06 99.12,-50.55 99.11,-43.55"/>
<text text-anchor="middle" x="131.5" y="-52" font-family="Helvetica,sans-Serif" font-size="10.00"> encoding</text>
</g>
<!-- Node6 -->
<g id="node6" class="node">
<title>Node6</title>
<g id="a_node6"><a xlink:title=" ">
<polygon fill="white" stroke="#bfbfbf" points="8,-0.5 8,-19.5 81,-19.5 81,-0.5 8,-0.5"/>
<text text-anchor="middle" x="44.5" y="-7.5" font-family="Helvetica,sans-Serif" font-size="10.00">uchar16_t *</text>
</a>
</g>
</g>
<!-- Node6&#45;&gt;Node3 -->
<g id="edge5" class="edge">
<title>Node6&#45;&gt;Node3</title>
<path fill="none" stroke="#9a32cd" stroke-dasharray="5,2" d="M91.32,-17.3C111.37,-20.96 135.04,-25.92 156,-32 172.39,-36.75 190.33,-43.71 203.95,-49.37"/>
<polygon fill="#9a32cd" stroke="#9a32cd" points="91.66,-13.81 81.21,-15.51 90.44,-20.7 91.66,-13.81"/>
<text text-anchor="middle" x="131.5" y="-35" font-family="Helvetica,sans-Serif" font-size="10.00"> array</text>
</g>
<!-- Node7&#45;&gt;Node1 -->
<g id="edge6" class="edge">
<title>Node7&#45;&gt;Node1</title>
<path fill="none" stroke="#9a32cd" stroke-dasharray="5,2" d="M485.49,-112.03C519.32,-114.02 560.94,-117.17 598,-122 603.83,-122.76 609.86,-123.65 615.91,-124.63"/>
<polygon fill="#9a32cd" stroke="#9a32cd" points="485.44,-108.52 475.26,-111.45 485.04,-115.51 485.44,-108.52"/>
<text text-anchor="middle" x="557" y="-136" font-family="Helvetica,sans-Serif" font-size="10.00"> const_reference</text>
<text text-anchor="middle" x="557" y="-125" font-family="Helvetica,sans-Serif" font-size="10.00">const_pointer</text>
</g>
</g>
</svg>
