<?xml version="1.0" encoding="UTF-8" standalone="no"?>
<!DOCTYPE svg PUBLIC "-//W3C//DTD SVG 1.1//EN"
 "http://www.w3.org/Graphics/SVG/1.1/DTD/svg11.dtd">
<!-- Generated by graphviz version 2.43.0 (0)
 -->
<!-- Title: Environment Pages: 1 -->
<svg width="890pt" height="161pt"
 viewBox="0.00 0.00 890.00 161.00" xmlns="http://www.w3.org/2000/svg" xmlns:xlink="http://www.w3.org/1999/xlink">
<g id="graph0" class="graph" transform="scale(1 1) rotate(0) translate(4 157)">
<title>Environment</title>
<polygon fill="white" stroke="transparent" points="-4,4 -4,-157 886,-157 886,4 -4,4"/>
<!-- Node1 -->
<g id="node1" class="node">
<title>Node1</title>
<g id="a_node1"><a xlink:title=" ">
<polygon fill="#bfbfbf" stroke="black" points="386.5,-0.5 386.5,-19.5 465.5,-19.5 465.5,-0.5 386.5,-0.5"/>
<text text-anchor="middle" x="426" y="-7.5" font-family="Helvetica,sans-Serif" font-size="10.00">Environment</text>
</a>
</g>
</g>
<!-- Node2 -->
<g id="node2" class="node">
<title>Node2</title>
<g id="a_node2"><a xlink:title=" ">
<polygon fill="white" stroke="#bfbfbf" points="0,-133.5 0,-152.5 38,-152.5 38,-133.5 0,-133.5"/>
<text text-anchor="middle" x="19" y="-140.5" font-family="Helvetica,sans-Serif" font-size="10.00">float</text>
</a>
</g>
</g>
<!-- Node2&#45;&gt;Node1 -->
<g id="edge1" class="edge">
<title>Node2&#45;&gt;Node1</title>
<path fill="none" stroke="#9a32cd" stroke-dasharray="5,2" d="M15.45,-123.31C12.16,-99.69 10.79,-59.54 34,-38 59.41,-14.42 291.57,-11.26 386.16,-10.96"/>
<polygon fill="#9a32cd" stroke="#9a32cd" points="12.03,-124.12 17.12,-133.42 18.94,-122.98 12.03,-124.12"/>
<text text-anchor="middle" x="106.5" y="-107" font-family="Helvetica,sans-Serif" font-size="10.00"> m_cache_abm_time_budget</text>
<text text-anchor="middle" x="106.5" y="-96" font-family="Helvetica,sans-Serif" font-size="10.00">m_cache_abm_interval</text>
<text text-anchor="middle" x="106.5" y="-85" font-family="Helvetica,sans-Serif" font-size="10.00">m_time_conversion_skew</text>
<text text-anchor="middle" x="106.5" y="-74" font-family="Helvetica,sans-Serif" font-size="10.00">m_time_of_day_f</text>
<text text-anchor="middle" x="106.5" y="-63" font-family="Helvetica,sans-Serif" font-size="10.00">m_cache_nodetimer_interval</text>
<text text-anchor="start" x="34" y="-52" font-family="Helvetica,sans-Serif" font-size="10.00">m_cache_active_block_mgmt</text>
<text text-anchor="middle" x="106.5" y="-41" font-family="Helvetica,sans-Serif" font-size="10.00">_interval</text>
</g>
<!-- Node3 -->
<g id="node3" class="node">
<title>Node3</title>
<g id="a_node3"><a xlink:title=" ">
<polygon fill="white" stroke="#bfbfbf" points="163,-133.5 163,-152.5 211,-152.5 211,-133.5 163,-133.5"/>
<text text-anchor="middle" x="187" y="-140.5" font-family="Helvetica,sans-Serif" font-size="10.00">mutex</text>
</a>
</g>
</g>
<!-- Node3&#45;&gt;Node1 -->
<g id="edge2" class="edge">
<title>Node3&#45;&gt;Node1</title>
<path fill="none" stroke="#9a32cd" stroke-dasharray="5,2" d="M184.03,-123.45C181.43,-99.98 181.09,-59.99 204,-38 229.28,-13.74 329.28,-10.27 386.06,-10.33"/>
<polygon fill="#9a32cd" stroke="#9a32cd" points="180.58,-124.05 185.39,-133.49 187.51,-123.11 180.58,-124.05"/>
<text text-anchor="middle" x="237.5" y="-74" font-family="Helvetica,sans-Serif" font-size="10.00"> m_time_lock</text>
</g>
<!-- Node4 -->
<g id="node4" class="node">
<title>Node4</title>
<g id="a_node4"><a xlink:href="classbool.html" target="_top" xlink:title=" ">
<polygon fill="white" stroke="black" points="258,-133.5 258,-152.5 296,-152.5 296,-133.5 258,-133.5"/>
<text text-anchor="middle" x="277" y="-140.5" font-family="Helvetica,sans-Serif" font-size="10.00">bool</text>
</a>
</g>
</g>
<!-- Node4&#45;&gt;Node1 -->
<g id="edge3" class="edge">
<title>Node4&#45;&gt;Node1</title>
<path fill="none" stroke="#9a32cd" stroke-dasharray="5,2" d="M274.69,-123.35C272.94,-100.11 273.85,-60.69 296,-38 308.4,-25.3 352.92,-18.11 386.44,-14.39"/>
<polygon fill="#9a32cd" stroke="#9a32cd" points="271.21,-123.71 275.69,-133.32 278.18,-123.02 271.21,-123.71"/>
<text text-anchor="start" x="296" y="-85" font-family="Helvetica,sans-Serif" font-size="10.00"> m_enable_day_night</text>
<text text-anchor="middle" x="359" y="-74" font-family="Helvetica,sans-Serif" font-size="10.00">_ratio_override</text>
<text text-anchor="middle" x="359" y="-63" font-family="Helvetica,sans-Serif" font-size="10.00">m_cache_enable_shaders</text>
</g>
<!-- Node5 -->
<g id="node5" class="node">
<title>Node5</title>
<g id="a_node5"><a xlink:title=" ">
<polygon fill="white" stroke="#bfbfbf" points="378.5,-133.5 378.5,-152.5 473.5,-152.5 473.5,-133.5 378.5,-133.5"/>
<text text-anchor="middle" x="426" y="-140.5" font-family="Helvetica,sans-Serif" font-size="10.00">atomic&lt; float &gt;</text>
</a>
</g>
</g>
<!-- Node5&#45;&gt;Node1 -->
<g id="edge4" class="edge">
<title>Node5&#45;&gt;Node1</title>
<path fill="none" stroke="#9a32cd" stroke-dasharray="5,2" d="M426,-123.09C426,-94.36 426,-40.82 426,-19.8"/>
<polygon fill="#9a32cd" stroke="#9a32cd" points="422.5,-123.4 426,-133.4 429.5,-123.4 422.5,-123.4"/>
<text text-anchor="middle" x="483" y="-74" font-family="Helvetica,sans-Serif" font-size="10.00"> m_time_of_day_speed</text>
</g>
<!-- Node6 -->
<g id="node6" class="node">
<title>Node6</title>
<g id="a_node6"><a xlink:href="classIGameDef.html" target="_top" xlink:title=" ">
<polygon fill="white" stroke="black" points="530,-133.5 530,-152.5 596,-152.5 596,-133.5 530,-133.5"/>
<text text-anchor="middle" x="563" y="-140.5" font-family="Helvetica,sans-Serif" font-size="10.00">IGameDef</text>
</a>
</g>
</g>
<!-- Node6&#45;&gt;Node1 -->
<g id="edge5" class="edge">
<title>Node6&#45;&gt;Node1</title>
<path fill="none" stroke="#9a32cd" stroke-dasharray="5,2" d="M561.42,-123.19C558.79,-96.6 552.63,-49.89 541,-38 530.53,-27.3 494.6,-20.02 465.65,-15.74"/>
<polygon fill="#9a32cd" stroke="#9a32cd" points="557.94,-123.56 562.33,-133.2 564.91,-122.93 557.94,-123.56"/>
<text text-anchor="middle" x="591" y="-74" font-family="Helvetica,sans-Serif" font-size="10.00"> m_gamedef</text>
</g>
<!-- Node7 -->
<g id="node7" class="node">
<title>Node7</title>
<g id="a_node7"><a xlink:title=" ">
<polygon fill="white" stroke="#bfbfbf" points="630.5,-133.5 630.5,-152.5 665.5,-152.5 665.5,-133.5 630.5,-133.5"/>
<text text-anchor="middle" x="648" y="-140.5" font-family="Helvetica,sans-Serif" font-size="10.00">u32</text>
</a>
</g>
</g>
<!-- Node7&#45;&gt;Node1 -->
<g id="edge6" class="edge">
<title>Node7&#45;&gt;Node1</title>
<path fill="none" stroke="#9a32cd" stroke-dasharray="5,2" d="M646.6,-123.43C644.18,-96.71 638.25,-49.37 626,-38 603.4,-17.02 517.35,-12.13 465.77,-11.12"/>
<polygon fill="#9a32cd" stroke="#9a32cd" points="643.12,-123.78 647.43,-133.46 650.09,-123.2 643.12,-123.78"/>
<text text-anchor="middle" x="715" y="-85" font-family="Helvetica,sans-Serif" font-size="10.00"> m_day_night_ratio_override</text>
<text text-anchor="middle" x="715" y="-74" font-family="Helvetica,sans-Serif" font-size="10.00">m_time_of_day</text>
<text text-anchor="middle" x="715" y="-63" font-family="Helvetica,sans-Serif" font-size="10.00">m_added_objects</text>
</g>
<!-- Node8 -->
<g id="node8" class="node">
<title>Node8</title>
<g id="a_node8"><a xlink:title=" ">
<polygon fill="white" stroke="#bfbfbf" points="765.5,-133.5 765.5,-152.5 856.5,-152.5 856.5,-133.5 765.5,-133.5"/>
<text text-anchor="middle" x="811" y="-140.5" font-family="Helvetica,sans-Serif" font-size="10.00">atomic&lt; u32 &gt;</text>
</a>
</g>
</g>
<!-- Node8&#45;&gt;Node1 -->
<g id="edge7" class="edge">
<title>Node8&#45;&gt;Node1</title>
<path fill="none" stroke="#9a32cd" stroke-dasharray="5,2" d="M813.13,-123.16C814.65,-99.39 813.12,-59.08 789,-38 765.09,-17.1 554.95,-12.38 465.76,-11.31"/>
<polygon fill="#9a32cd" stroke="#9a32cd" points="809.62,-123.07 812.22,-133.34 816.59,-123.69 809.62,-123.07"/>
<text text-anchor="middle" x="847.5" y="-74" font-family="Helvetica,sans-Serif" font-size="10.00"> m_day_count</text>
</g>
</g>
</svg>
