<?xml version="1.0" encoding="UTF-8" standalone="no"?>
<!DOCTYPE svg PUBLIC "-//W3C//DTD SVG 1.1//EN"
 "http://www.w3.org/Graphics/SVG/1.1/DTD/svg11.dtd">
<!-- Generated by graphviz version 2.43.0 (0)
 -->
<!-- Title: Catch::ReusableStringStream Pages: 1 -->
<svg width="271pt" height="95pt"
 viewBox="0.00 0.00 271.00 95.00" xmlns="http://www.w3.org/2000/svg" xmlns:xlink="http://www.w3.org/1999/xlink">
<g id="graph0" class="graph" transform="scale(1 1) rotate(0) translate(4 91)">
<title>Catch::ReusableStringStream</title>
<polygon fill="white" stroke="transparent" points="-4,4 -4,-91 267,-91 267,4 -4,4"/>
<!-- Node1 -->
<g id="node1" class="node">
<title>Node1</title>
<g id="a_node1"><a xlink:title=" ">
<polygon fill="#bfbfbf" stroke="black" points="87.5,-0.5 87.5,-19.5 246.5,-19.5 246.5,-0.5 87.5,-0.5"/>
<text text-anchor="middle" x="167" y="-7.5" font-family="Helvetica,sans-Serif" font-size="10.00">Catch::ReusableStringStream</text>
</a>
</g>
</g>
<!-- Node2 -->
<g id="node2" class="node">
<title>Node2</title>
<g id="a_node2"><a xlink:href="classCatch_1_1NonCopyable.html" target="_top" xlink:title=" ">
<polygon fill="white" stroke="black" points="0,-67.5 0,-86.5 116,-86.5 116,-67.5 0,-67.5"/>
<text text-anchor="middle" x="58" y="-74.5" font-family="Helvetica,sans-Serif" font-size="10.00">Catch::NonCopyable</text>
</a>
</g>
</g>
<!-- Node2&#45;&gt;Node1 -->
<g id="edge1" class="edge">
<title>Node2&#45;&gt;Node1</title>
<path fill="none" stroke="#8b1a1a" d="M81.57,-61.94C103.16,-49.07 134.42,-30.43 152.53,-19.63"/>
<polygon fill="#8b1a1a" stroke="#8b1a1a" points="79.5,-59.11 72.7,-67.23 83.08,-65.12 79.5,-59.11"/>
</g>
<!-- Node3 -->
<g id="node3" class="node">
<title>Node3</title>
<g id="a_node3"><a xlink:title=" ">
<polygon fill="white" stroke="#bfbfbf" points="134.5,-67.5 134.5,-86.5 199.5,-86.5 199.5,-67.5 134.5,-67.5"/>
<text text-anchor="middle" x="167" y="-74.5" font-family="Helvetica,sans-Serif" font-size="10.00">ostream *</text>
</a>
</g>
</g>
<!-- Node3&#45;&gt;Node1 -->
<g id="edge2" class="edge">
<title>Node3&#45;&gt;Node1</title>
<path fill="none" stroke="#9a32cd" stroke-dasharray="5,2" d="M167,-57.04C167,-44.67 167,-29.12 167,-19.63"/>
<polygon fill="#9a32cd" stroke="#9a32cd" points="163.5,-57.23 167,-67.23 170.5,-57.23 163.5,-57.23"/>
<text text-anchor="middle" x="184.5" y="-41" font-family="Helvetica,sans-Serif" font-size="10.00"> m_oss</text>
</g>
<!-- Node4 -->
<g id="node4" class="node">
<title>Node4</title>
<g id="a_node4"><a xlink:title=" ">
<polygon fill="white" stroke="#bfbfbf" points="217.5,-67.5 217.5,-86.5 262.5,-86.5 262.5,-67.5 217.5,-67.5"/>
<text text-anchor="middle" x="240" y="-74.5" font-family="Helvetica,sans-Serif" font-size="10.00">size_t</text>
</a>
</g>
</g>
<!-- Node4&#45;&gt;Node1 -->
<g id="edge3" class="edge">
<title>Node4&#45;&gt;Node1</title>
<path fill="none" stroke="#9a32cd" stroke-dasharray="5,2" d="M226.51,-59.25C220.56,-52.32 213.28,-44.43 206,-38 198.22,-31.13 188.65,-24.48 180.94,-19.5"/>
<polygon fill="#9a32cd" stroke="#9a32cd" points="224.14,-61.87 233.23,-67.32 229.52,-57.39 224.14,-61.87"/>
<text text-anchor="middle" x="240" y="-41" font-family="Helvetica,sans-Serif" font-size="10.00"> m_index</text>
</g>
</g>
</svg>
