<?xml version="1.0" encoding="UTF-8" standalone="no"?>
<!DOCTYPE svg PUBLIC "-//W3C//DTD SVG 1.1//EN"
 "http://www.w3.org/Graphics/SVG/1.1/DTD/svg11.dtd">
<!-- Generated by graphviz version 2.43.0 (0)
 -->
<!-- Title: GUIScrollContainer Pages: 1 -->
<!--zoomable 780 -->
<svg id="main" version="1.1" xmlns="http://www.w3.org/2000/svg" xmlns:xlink="http://www.w3.org/1999/xlink" xml:space="preserve" onload="init(evt)">
<style type="text/css"><![CDATA[
.edge:hover path { stroke: red; }
.edge:hover polygon { stroke: red; fill: red; }
]]></style>
<script type="text/javascript"><![CDATA[
var edges = document.getElementsByTagName('g');
if (edges && edges.length) {
  for (var i=0;i<edges.length;i++) {
    if (edges[i].id.substr(0,4)=='edge') {
      edges[i].setAttribute('class','edge');
    }
  }
}
]]></script>
        <defs>
                <circle id="rim" cx="0" cy="0" r="7"/>
                <circle id="rim2" cx="0" cy="0" r="3.5"/>
                <g id="zoomPlus">
                        <use xlink:href="#rim" fill="#404040">
                                <set attributeName="fill" to="#808080" begin="zoomplus.mouseover" end="zoomplus.mouseout"/>
                        </use>
                        <path d="M-4,0h8M0,-4v8" fill="none" stroke="white" stroke-width="1.5" pointer-events="none"/>
                </g>
                <g id="zoomMin">
                        <use xlink:href="#rim" fill="#404040">
                                <set attributeName="fill" to="#808080" begin="zoomminus.mouseover" end="zoomminus.mouseout"/>
                        </use>
                        <path d="M-4,0h8" fill="none" stroke="white" stroke-width="1.5" pointer-events="none"/>
                </g>
                <g id="dirArrow">
                        <path fill="none" stroke="white" stroke-width="1.5" d="M0,-3.0v7 M-2.5,-0.5L0,-3.0L2.5,-0.5"/>
                </g>
               <g id="resetDef">
                       <use xlink:href="#rim2" fill="#404040">
                               <set attributeName="fill" to="#808080" begin="reset.mouseover" end="reset.mouseout"/>
                       </use>
               </g>
        </defs>

<script type="text/javascript">
var viewWidth = 1596;
var viewHeight = 780;
var sectionId = 'dynsection-1';
</script>
<script xlink:href="svgpan.js"/>
<svg id="graph" class="graph">
<g id="viewport">
<title>GUIScrollContainer</title>
<polygon fill="white" stroke="transparent" points="-4,4 -4,-776.18 1592,-776.18 1592,4 -4,4"/>
<!-- Node1 -->
<g id="node1" class="node">
<title>Node1</title>
<g id="a_node1"><a xlink:title=" ">
<polygon fill="#bfbfbf" stroke="black" points="1479,-255.68 1479,-274.68 1588,-274.68 1588,-255.68 1479,-255.68"/>
<text text-anchor="middle" x="1533.5" y="-262.68" font-family="Helvetica,sans-Serif" font-size="10.00">GUIScrollContainer</text>
</a>
</g>
</g>
<!-- Node2 -->
<g id="node2" class="node">
<title>Node2</title>
<g id="a_node2"><a xlink:href="classirr_1_1gui_1_1IGUIElement.html" target="_top" xlink:title="Base class of all GUI elements.">
<polygon fill="white" stroke="black" points="804,-405.68 804,-424.68 920,-424.68 920,-405.68 804,-405.68"/>
<text text-anchor="middle" x="862" y="-412.68" font-family="Helvetica,sans-Serif" font-size="10.00">irr::gui::IGUIElement</text>
</a>
</g>
</g>
<!-- Node2&#45;&gt;Node1 -->
<g id="edge1" class="edge">
<title>Node2&#45;&gt;Node1</title>
<path fill="none" stroke="midnightblue" d="M921.06,-426.25C926.77,-427.04 932.49,-427.7 938,-428.18 979.18,-431.72 989.68,-429.33 1031,-428.18 1130.3,-425.4 1158.85,-433.86 1253,-402.18 1358.51,-366.67 1475.2,-299.6 1516.75,-274.75"/>
<polygon fill="midnightblue" stroke="midnightblue" points="921.26,-422.74 910.85,-424.73 920.23,-429.67 921.26,-422.74"/>
</g>
<!-- Node2&#45;&gt;Node2 -->
<g id="edge6" class="edge">
<title>Node2&#45;&gt;Node2</title>
<path fill="none" stroke="#9a32cd" stroke-dasharray="5,2" d="M839.31,-434.21C840.54,-439.3 848.11,-443.18 862,-443.18 883.68,-443.18 889.95,-433.74 880.8,-424.93"/>
<polygon fill="#9a32cd" stroke="#9a32cd" points="842.56,-435.51 843.2,-424.93 836.1,-432.8 842.56,-435.51"/>
<text text-anchor="middle" x="862" y="-446.18" font-family="Helvetica,sans-Serif" font-size="10.00"> Parent</text>
</g>
<!-- Node26 -->
<g id="node26" class="node">
<title>Node26</title>
<g id="a_node26"><a xlink:href="classGUIScrollBar.html" target="_top" xlink:title=" ">
<polygon fill="white" stroke="black" points="1281.5,-274.68 1281.5,-293.68 1359.5,-293.68 1359.5,-274.68 1281.5,-274.68"/>
<text text-anchor="middle" x="1320.5" y="-281.68" font-family="Helvetica,sans-Serif" font-size="10.00">GUIScrollBar</text>
</a>
</g>
</g>
<!-- Node2&#45;&gt;Node26 -->
<g id="edge31" class="edge">
<title>Node2&#45;&gt;Node26</title>
<path fill="none" stroke="midnightblue" d="M930.63,-415.45C1027.47,-414.72 1199.83,-408.96 1253,-378.18 1287.08,-358.44 1308.09,-313.42 1315.96,-293.71"/>
<polygon fill="midnightblue" stroke="midnightblue" points="930.33,-411.95 920.35,-415.51 930.37,-418.95 930.33,-411.95"/>
</g>
<!-- Node27 -->
<g id="node27" class="node">
<title>Node27</title>
<g id="a_node27"><a xlink:href="classirr_1_1gui_1_1IGUIButton.html" target="_top" xlink:title="GUI Button interface.">
<polygon fill="white" stroke="black" points="1049,-346.68 1049,-365.68 1156,-365.68 1156,-346.68 1049,-346.68"/>
<text text-anchor="middle" x="1102.5" y="-353.68" font-family="Helvetica,sans-Serif" font-size="10.00">irr::gui::IGUIButton</text>
</a>
</g>
</g>
<!-- Node2&#45;&gt;Node27 -->
<g id="edge33" class="edge">
<title>Node2&#45;&gt;Node27</title>
<path fill="none" stroke="midnightblue" d="M888.82,-400.85C902.95,-393.6 921,-385.27 938,-380.18 974.14,-369.35 1016.29,-363.31 1048.74,-360"/>
<polygon fill="midnightblue" stroke="midnightblue" points="886.93,-397.89 879.72,-405.65 890.2,-404.08 886.93,-397.89"/>
</g>
<!-- Node3 -->
<g id="node3" class="node">
<title>Node3</title>
<g id="a_node3"><a xlink:href="classirr_1_1IReferenceCounted.html" target="_top" xlink:title="Base class of most objects of the Irrlicht Engine.">
<polygon fill="white" stroke="black" points="236,-702.68 236,-721.68 362,-721.68 362,-702.68 236,-702.68"/>
<text text-anchor="middle" x="299" y="-709.68" font-family="Helvetica,sans-Serif" font-size="10.00">irr::IReferenceCounted</text>
</a>
</g>
</g>
<!-- Node3&#45;&gt;Node2 -->
<g id="edge2" class="edge">
<title>Node3&#45;&gt;Node2</title>
<path fill="none" stroke="midnightblue" d="M372.29,-722C493.35,-736.64 729.42,-756.92 786,-701.18 822.99,-664.73 781.44,-514.95 804,-468.18 813.04,-449.43 831.83,-434.06 845.37,-424.79"/>
<polygon fill="midnightblue" stroke="midnightblue" points="372.71,-718.52 362.36,-720.78 371.86,-725.47 372.71,-718.52"/>
</g>
<!-- Node17 -->
<g id="node17" class="node">
<title>Node17</title>
<g id="a_node17"><a xlink:href="classirr_1_1gui_1_1IGUIEnvironment.html" target="_top" xlink:title="GUI Environment. Used as factory and manager of all other GUI elements.">
<polygon fill="white" stroke="black" points="511,-575.68 511,-594.68 648,-594.68 648,-575.68 511,-575.68"/>
<text text-anchor="middle" x="579.5" y="-582.68" font-family="Helvetica,sans-Serif" font-size="10.00">irr::gui::IGUIEnvironment</text>
</a>
</g>
</g>
<!-- Node3&#45;&gt;Node17 -->
<g id="edge18" class="edge">
<title>Node3&#45;&gt;Node17</title>
<path fill="none" stroke="midnightblue" d="M372.3,-715.25C415.55,-715.48 465.12,-712.37 481,-698.18 512.71,-669.83 469.61,-634.93 499,-604.18 502.63,-600.38 506.87,-597.29 511.47,-594.77"/>
<polygon fill="midnightblue" stroke="midnightblue" points="372.07,-711.75 362.03,-715.14 371.99,-718.75 372.07,-711.75"/>
</g>
<!-- Node4 -->
<g id="node4" class="node">
<title>Node4</title>
<g id="a_node4"><a xlink:title=" ">
<polygon fill="white" stroke="#bfbfbf" points="29,-702.68 29,-721.68 67,-721.68 67,-702.68 29,-702.68"/>
<text text-anchor="middle" x="48" y="-709.68" font-family="Helvetica,sans-Serif" font-size="10.00">char</text>
</a>
</g>
</g>
<!-- Node4&#45;&gt;Node3 -->
<g id="edge3" class="edge">
<title>Node4&#45;&gt;Node3</title>
<path fill="none" stroke="#9a32cd" stroke-dasharray="5,2" d="M77.75,-712.18C116.19,-712.18 185.34,-712.18 235.94,-712.18"/>
<polygon fill="#9a32cd" stroke="#9a32cd" points="77.31,-708.68 67.31,-712.18 77.31,-715.68 77.31,-708.68"/>
<text text-anchor="middle" x="159.5" y="-715.18" font-family="Helvetica,sans-Serif" font-size="10.00"> DebugName</text>
</g>
<!-- Node5 -->
<g id="node5" class="node">
<title>Node5</title>
<g id="a_node5"><a xlink:title=" ">
<polygon fill="white" stroke="#bfbfbf" points="23,-578.68 23,-597.68 73,-597.68 73,-578.68 23,-578.68"/>
<text text-anchor="middle" x="48" y="-585.68" font-family="Helvetica,sans-Serif" font-size="10.00">int32_t</text>
</a>
</g>
</g>
<!-- Node5&#45;&gt;Node2 -->
<g id="edge19" class="edge">
<title>Node5&#45;&gt;Node2</title>
<path fill="none" stroke="#9a32cd" stroke-dasharray="5,2" d="M83.11,-583.57C144.84,-575.34 279.23,-558 393,-547.18 511.43,-535.91 541.71,-540.82 660,-528.18 716.25,-522.17 736.97,-538.39 786,-510.18 821.88,-489.53 846.95,-444.4 856.6,-424.7"/>
<polygon fill="#9a32cd" stroke="#9a32cd" points="82.6,-580.1 73.15,-584.9 83.52,-587.04 82.6,-580.1"/>
<text text-anchor="middle" x="437" y="-561.18" font-family="Helvetica,sans-Serif" font-size="10.00"> TabOrder</text>
<text text-anchor="middle" x="437" y="-550.18" font-family="Helvetica,sans-Serif" font-size="10.00">ID</text>
</g>
<!-- Node5&#45;&gt;Node3 -->
<g id="edge4" class="edge">
<title>Node5&#45;&gt;Node3</title>
<path fill="none" stroke="#9a32cd" stroke-dasharray="5,2" d="M77.3,-602.27C128.49,-627.76 235.2,-680.9 278.81,-702.62"/>
<polygon fill="#9a32cd" stroke="#9a32cd" points="78.64,-599.03 68.13,-597.7 75.52,-605.29 78.64,-599.03"/>
<text text-anchor="middle" x="159.5" y="-667.18" font-family="Helvetica,sans-Serif" font-size="10.00"> ReferenceCounter</text>
</g>
<!-- Node6 -->
<g id="node6" class="node">
<title>Node6</title>
<g id="a_node6"><a xlink:href="classirr_1_1IEventReceiver.html" target="_top" xlink:title="Interface of an object which can receive events.">
<polygon fill="white" stroke="black" points="526,-499.68 526,-518.68 633,-518.68 633,-499.68 526,-499.68"/>
<text text-anchor="middle" x="579.5" y="-506.68" font-family="Helvetica,sans-Serif" font-size="10.00">irr::IEventReceiver</text>
</a>
</g>
</g>
<!-- Node6&#45;&gt;Node2 -->
<g id="edge5" class="edge">
<title>Node6&#45;&gt;Node2</title>
<path fill="none" stroke="midnightblue" d="M643.28,-511.37C685.43,-510.53 741.23,-504.84 786,-484.18 787.96,-483.27 830.45,-443.71 850.59,-424.91"/>
<polygon fill="midnightblue" stroke="midnightblue" points="643.1,-507.87 633.14,-511.49 643.18,-514.87 643.1,-507.87"/>
</g>
<!-- Node7 -->
<g id="node7" class="node">
<title>Node7</title>
<g id="a_node7"><a xlink:title=" ">
<polygon fill="white" stroke="#bfbfbf" points="527,-423.68 527,-442.68 632,-442.68 632,-423.68 527,-423.68"/>
<text text-anchor="middle" x="579.5" y="-430.68" font-family="Helvetica,sans-Serif" font-size="10.00">string&lt; wchar_t &gt;</text>
</a>
</g>
</g>
<!-- Node7&#45;&gt;Node2 -->
<g id="edge7" class="edge">
<title>Node7&#45;&gt;Node2</title>
<path fill="none" stroke="#9a32cd" stroke-dasharray="5,2" d="M642.26,-429.21C690.41,-426.12 756.77,-421.87 803.73,-418.85"/>
<polygon fill="#9a32cd" stroke="#9a32cd" points="642.03,-425.72 632.27,-429.85 642.48,-432.71 642.03,-425.72"/>
<text text-anchor="middle" x="732" y="-440.18" font-family="Helvetica,sans-Serif" font-size="10.00"> ToolTipText</text>
<text text-anchor="middle" x="732" y="-429.18" font-family="Helvetica,sans-Serif" font-size="10.00">Text</text>
</g>
<!-- Node8 -->
<g id="node8" class="node">
<title>Node8</title>
<g id="a_node8"><a xlink:title=" ">
<polygon fill="white" stroke="#bfbfbf" points="277,-442.68 277,-461.68 321,-461.68 321,-442.68 277,-442.68"/>
<text text-anchor="middle" x="299" y="-449.68" font-family="Helvetica,sans-Serif" font-size="10.00">string</text>
</a>
</g>
</g>
<!-- Node8&#45;&gt;Node7 -->
<g id="edge8" class="edge">
<title>Node8&#45;&gt;Node7</title>
<path fill="none" stroke="orange" stroke-dasharray="5,2" d="M331.26,-446.03C349.24,-442.77 372.31,-439.06 393,-437.18 438.07,-433.08 489.55,-432.27 526.82,-432.38"/>
<polygon fill="orange" stroke="orange" points="330.51,-442.61 321.32,-447.88 331.79,-449.49 330.51,-442.61"/>
<text text-anchor="middle" x="437" y="-440.18" font-family="Helvetica,sans-Serif" font-size="10.00"> &lt; wchar_t &gt;</text>
</g>
<!-- Node18 -->
<g id="node18" class="node">
<title>Node18</title>
<g id="a_node18"><a xlink:title=" ">
<polygon fill="white" stroke="#bfbfbf" points="540.5,-461.68 540.5,-480.68 618.5,-480.68 618.5,-461.68 540.5,-461.68"/>
<text text-anchor="middle" x="579.5" y="-468.68" font-family="Helvetica,sans-Serif" font-size="10.00">string&lt; c8 &gt;</text>
</a>
</g>
</g>
<!-- Node8&#45;&gt;Node18 -->
<g id="edge21" class="edge">
<title>Node8&#45;&gt;Node18</title>
<path fill="none" stroke="orange" stroke-dasharray="5,2" d="M331.56,-454.33C382.95,-457.84 484.53,-464.77 540.05,-468.55"/>
<polygon fill="orange" stroke="orange" points="331.61,-450.82 321.39,-453.64 331.13,-457.81 331.61,-450.82"/>
<text text-anchor="middle" x="437" y="-467.18" font-family="Helvetica,sans-Serif" font-size="10.00"> &lt; c8 &gt;</text>
</g>
<!-- Node9 -->
<g id="node9" class="node">
<title>Node9</title>
<g id="a_node9"><a xlink:href="classirr_1_1core_1_1dimension2d.html" target="_top" xlink:title=" ">
<polygon fill="white" stroke="black" points="518,-374.18 518,-404.18 641,-404.18 641,-374.18 518,-374.18"/>
<text text-anchor="start" x="526" y="-392.18" font-family="Helvetica,sans-Serif" font-size="10.00">irr::core::dimension2d</text>
<text text-anchor="middle" x="579.5" y="-381.18" font-family="Helvetica,sans-Serif" font-size="10.00">&lt; u32 &gt;</text>
</a>
</g>
</g>
<!-- Node9&#45;&gt;Node2 -->
<g id="edge9" class="edge">
<title>Node9&#45;&gt;Node2</title>
<path fill="none" stroke="#9a32cd" stroke-dasharray="5,2" d="M651.25,-385.94C691.06,-385.28 741.55,-386.35 786,-393.18 802.5,-395.71 820.46,-400.89 834.66,-405.58"/>
<polygon fill="#9a32cd" stroke="#9a32cd" points="651.03,-382.45 641.11,-386.16 651.18,-389.45 651.03,-382.45"/>
<text text-anchor="middle" x="732" y="-407.18" font-family="Helvetica,sans-Serif" font-size="10.00"> MinSize</text>
<text text-anchor="middle" x="732" y="-396.18" font-family="Helvetica,sans-Serif" font-size="10.00">MaxSize</text>
</g>
<!-- Node10 -->
<g id="node10" class="node">
<title>Node10</title>
<g id="a_node10"><a xlink:title=" ">
<polygon fill="white" stroke="#bfbfbf" points="271,-635.68 271,-654.68 327,-654.68 327,-635.68 271,-635.68"/>
<text text-anchor="middle" x="299" y="-642.68" font-family="Helvetica,sans-Serif" font-size="10.00">uint32_t</text>
</a>
</g>
</g>
<!-- Node10&#45;&gt;Node9 -->
<g id="edge10" class="edge">
<title>Node10&#45;&gt;Node9</title>
<path fill="none" stroke="#9a32cd" stroke-dasharray="5,2" d="M337.4,-641.48C379.51,-635.18 446.55,-618.26 481,-573.18 524.18,-516.67 453.76,-469.05 499,-414.18 504.06,-408.04 510.62,-403.38 517.79,-399.85"/>
<polygon fill="#9a32cd" stroke="#9a32cd" points="336.69,-638.04 327.26,-642.87 337.64,-644.98 336.69,-638.04"/>
<text text-anchor="middle" x="437" y="-642.18" font-family="Helvetica,sans-Serif" font-size="10.00"> Width</text>
<text text-anchor="middle" x="437" y="-631.18" font-family="Helvetica,sans-Serif" font-size="10.00">Height</text>
</g>
<!-- Node28 -->
<g id="node28" class="node">
<title>Node28</title>
<g id="a_node28"><a xlink:href="classirr_1_1video_1_1SColor.html" target="_top" xlink:title="Class representing a 32 bit ARGB color.">
<polygon fill="white" stroke="black" points="683,-752.68 683,-771.68 781,-771.68 781,-752.68 683,-752.68"/>
<text text-anchor="middle" x="732" y="-759.68" font-family="Helvetica,sans-Serif" font-size="10.00">irr::video::SColor</text>
</a>
</g>
</g>
<!-- Node10&#45;&gt;Node28 -->
<g id="edge35" class="edge">
<title>Node10&#45;&gt;Node28</title>
<path fill="none" stroke="#9a32cd" stroke-dasharray="5,2" d="M336.94,-655.21C419.02,-677.49 615.6,-730.85 695.91,-752.65"/>
<polygon fill="#9a32cd" stroke="#9a32cd" points="337.86,-651.83 327.29,-652.58 336.02,-658.58 337.86,-651.83"/>
<text text-anchor="middle" x="437" y="-696.18" font-family="Helvetica,sans-Serif" font-size="10.00"> color</text>
</g>
<!-- Node11 -->
<g id="node11" class="node">
<title>Node11</title>
<g id="a_node11"><a xlink:href="classirr_1_1core_1_1dimension2d.html" target="_top" xlink:title="Specifies a 2 dimensional size.">
<polygon fill="white" stroke="black" points="223,-380.68 223,-399.68 375,-399.68 375,-380.68 223,-380.68"/>
<text text-anchor="middle" x="299" y="-387.68" font-family="Helvetica,sans-Serif" font-size="10.00">irr::core::dimension2d&lt; T &gt;</text>
</a>
</g>
</g>
<!-- Node11&#45;&gt;Node9 -->
<g id="edge11" class="edge">
<title>Node11&#45;&gt;Node9</title>
<path fill="none" stroke="orange" stroke-dasharray="5,2" d="M385.48,-389.87C428.19,-389.72 478.89,-389.53 517.6,-389.4"/>
<polygon fill="orange" stroke="orange" points="385.35,-386.37 375.37,-389.91 385.38,-393.37 385.35,-386.37"/>
<text text-anchor="middle" x="437" y="-392.18" font-family="Helvetica,sans-Serif" font-size="10.00"> &lt; u32 &gt;</text>
</g>
<!-- Node12 -->
<g id="node12" class="node">
<title>Node12</title>
<g id="a_node12"><a xlink:title=" ">
<polygon fill="white" stroke="#bfbfbf" points="33.5,-380.68 33.5,-399.68 62.5,-399.68 62.5,-380.68 33.5,-380.68"/>
<text text-anchor="middle" x="48" y="-387.68" font-family="Helvetica,sans-Serif" font-size="10.00">T</text>
</a>
</g>
</g>
<!-- Node12&#45;&gt;Node11 -->
<g id="edge12" class="edge">
<title>Node12&#45;&gt;Node11</title>
<path fill="none" stroke="#9a32cd" stroke-dasharray="5,2" d="M73.17,-390.18C107.49,-390.18 171.86,-390.18 222.96,-390.18"/>
<polygon fill="#9a32cd" stroke="#9a32cd" points="72.74,-386.68 62.74,-390.18 72.74,-393.68 72.74,-386.68"/>
<text text-anchor="middle" x="159.5" y="-404.18" font-family="Helvetica,sans-Serif" font-size="10.00"> Width</text>
<text text-anchor="middle" x="159.5" y="-393.18" font-family="Helvetica,sans-Serif" font-size="10.00">Height</text>
</g>
<!-- Node13 -->
<g id="node13" class="node">
<title>Node13</title>
<g id="a_node13"><a xlink:href="classirr_1_1core_1_1rect.html" target="_top" xlink:title=" ">
<polygon fill="white" stroke="black" points="520,-239.68 520,-258.68 639,-258.68 639,-239.68 520,-239.68"/>
<text text-anchor="middle" x="579.5" y="-246.68" font-family="Helvetica,sans-Serif" font-size="10.00">irr::core::rect&lt; s32 &gt;</text>
</a>
</g>
</g>
<!-- Node13&#45;&gt;Node2 -->
<g id="edge13" class="edge">
<title>Node13&#45;&gt;Node2</title>
<path fill="none" stroke="#9a32cd" stroke-dasharray="5,2" d="M649.36,-240.15C700.18,-234.96 764.13,-231.95 786,-246.18 843.32,-283.45 857.18,-375.69 860.21,-405.63"/>
<polygon fill="#9a32cd" stroke="#9a32cd" points="648.96,-236.68 639.39,-241.22 649.71,-243.64 648.96,-236.68"/>
<text text-anchor="middle" x="732" y="-293.18" font-family="Helvetica,sans-Serif" font-size="10.00"> AbsoluteClippingRect</text>
<text text-anchor="middle" x="732" y="-282.18" font-family="Helvetica,sans-Serif" font-size="10.00">LastParentRect</text>
<text text-anchor="middle" x="732" y="-271.18" font-family="Helvetica,sans-Serif" font-size="10.00">RelativeRect</text>
<text text-anchor="middle" x="732" y="-260.18" font-family="Helvetica,sans-Serif" font-size="10.00">DesiredRect</text>
<text text-anchor="middle" x="732" y="-249.18" font-family="Helvetica,sans-Serif" font-size="10.00">AbsoluteRect</text>
</g>
<!-- Node13&#45;&gt;Node26 -->
<g id="edge36" class="edge">
<title>Node13&#45;&gt;Node26</title>
<path fill="none" stroke="#9a32cd" stroke-dasharray="5,2" d="M648.45,-239.35C652.73,-236.87 656.65,-233.85 660,-230.18 697.83,-188.71 635.58,-141.93 678,-105.18 714.28,-73.75 738.19,-100.91 786,-105.18 891.03,-114.55 1176.43,-116.68 1253,-189.18 1278.21,-213.04 1248.24,-238.97 1271,-265.18 1274.32,-269 1278.51,-272.06 1283.03,-274.51"/>
<polygon fill="#9a32cd" stroke="#9a32cd" points="646.78,-236.27 639.25,-243.73 649.79,-242.6 646.78,-236.27"/>
<text text-anchor="middle" x="984.5" y="-127.18" font-family="Helvetica,sans-Serif" font-size="10.00"> slider_rect</text>
</g>
<!-- Node14 -->
<g id="node14" class="node">
<title>Node14</title>
<g id="a_node14"><a xlink:title=" ">
<polygon fill="white" stroke="#bfbfbf" points="245.5,-222.68 245.5,-241.68 352.5,-241.68 352.5,-222.68 245.5,-222.68"/>
<text text-anchor="middle" x="299" y="-229.68" font-family="Helvetica,sans-Serif" font-size="10.00">position2d&lt; s32 &gt;</text>
</a>
</g>
</g>
<!-- Node14&#45;&gt;Node13 -->
<g id="edge14" class="edge">
<title>Node14&#45;&gt;Node13</title>
<path fill="none" stroke="#9a32cd" stroke-dasharray="5,2" d="M362.81,-230.1C397.68,-229.56 441.81,-229.87 481,-233.18 496.9,-234.52 514.11,-236.99 529.59,-239.61"/>
<polygon fill="#9a32cd" stroke="#9a32cd" points="362.7,-226.61 352.77,-230.29 362.83,-233.6 362.7,-226.61"/>
<text text-anchor="middle" x="437" y="-247.18" font-family="Helvetica,sans-Serif" font-size="10.00"> UpperLeftCorner</text>
<text text-anchor="middle" x="437" y="-236.18" font-family="Helvetica,sans-Serif" font-size="10.00">LowerRightCorner</text>
</g>
<!-- Node15 -->
<g id="node15" class="node">
<title>Node15</title>
<g id="a_node15"><a xlink:href="classirr_1_1core_1_1rect.html" target="_top" xlink:title="Rectangle template.">
<polygon fill="white" stroke="black" points="245.5,-282.68 245.5,-301.68 352.5,-301.68 352.5,-282.68 245.5,-282.68"/>
<text text-anchor="middle" x="299" y="-289.68" font-family="Helvetica,sans-Serif" font-size="10.00">irr::core::rect&lt; T &gt;</text>
</a>
</g>
</g>
<!-- Node15&#45;&gt;Node13 -->
<g id="edge15" class="edge">
<title>Node15&#45;&gt;Node13</title>
<path fill="none" stroke="orange" stroke-dasharray="5,2" d="M362.78,-282.48C409.81,-275.22 473.71,-265.36 519.74,-258.25"/>
<polygon fill="orange" stroke="orange" points="362.06,-279.05 352.71,-284.04 363.13,-285.97 362.06,-279.05"/>
<text text-anchor="middle" x="437" y="-279.18" font-family="Helvetica,sans-Serif" font-size="10.00"> &lt; s32 &gt;</text>
</g>
<!-- Node19 -->
<g id="node19" class="node">
<title>Node19</title>
<g id="a_node19"><a xlink:href="classirr_1_1core_1_1rect.html" target="_top" xlink:title=" ">
<polygon fill="white" stroke="black" points="521,-335.68 521,-354.68 638,-354.68 638,-335.68 521,-335.68"/>
<text text-anchor="middle" x="579.5" y="-342.68" font-family="Helvetica,sans-Serif" font-size="10.00">irr::core::rect&lt; f32 &gt;</text>
</a>
</g>
</g>
<!-- Node15&#45;&gt;Node19 -->
<g id="edge24" class="edge">
<title>Node15&#45;&gt;Node19</title>
<path fill="none" stroke="orange" stroke-dasharray="5,2" d="M360.18,-303.63C410.4,-313.19 481.12,-326.65 528.32,-335.63"/>
<polygon fill="orange" stroke="orange" points="360.59,-300.14 350.11,-301.71 359.28,-307.02 360.59,-300.14"/>
<text text-anchor="middle" x="437" y="-329.18" font-family="Helvetica,sans-Serif" font-size="10.00"> &lt; f32 &gt;</text>
</g>
<!-- Node16 -->
<g id="node16" class="node">
<title>Node16</title>
<g id="a_node16"><a xlink:title=" ">
<polygon fill="white" stroke="#bfbfbf" points="0,-282.68 0,-301.68 96,-301.68 96,-282.68 0,-282.68"/>
<text text-anchor="middle" x="48" y="-289.68" font-family="Helvetica,sans-Serif" font-size="10.00">position2d&lt; T &gt;</text>
</a>
</g>
</g>
<!-- Node16&#45;&gt;Node15 -->
<g id="edge16" class="edge">
<title>Node16&#45;&gt;Node15</title>
<path fill="none" stroke="#9a32cd" stroke-dasharray="5,2" d="M106.19,-292.18C148.13,-292.18 204.66,-292.18 245.47,-292.18"/>
<polygon fill="#9a32cd" stroke="#9a32cd" points="106.13,-288.68 96.13,-292.18 106.13,-295.68 106.13,-288.68"/>
<text text-anchor="middle" x="159.5" y="-306.18" font-family="Helvetica,sans-Serif" font-size="10.00"> UpperLeftCorner</text>
<text text-anchor="middle" x="159.5" y="-295.18" font-family="Helvetica,sans-Serif" font-size="10.00">LowerRightCorner</text>
</g>
<!-- Node17&#45;&gt;Node2 -->
<g id="edge17" class="edge">
<title>Node17&#45;&gt;Node2</title>
<path fill="none" stroke="#9a32cd" stroke-dasharray="5,2" d="M658.08,-579.33C712.25,-574.51 776.51,-567.06 786,-558.18 815.79,-530.31 784.1,-503.79 804,-468.18 814.28,-449.78 833.2,-434.12 846.41,-424.7"/>
<polygon fill="#9a32cd" stroke="#9a32cd" points="657.76,-575.84 648.1,-580.19 658.37,-582.82 657.76,-575.84"/>
<text text-anchor="middle" x="732" y="-579.18" font-family="Helvetica,sans-Serif" font-size="10.00"> Environment</text>
</g>
<!-- Node18&#45;&gt;Node2 -->
<g id="edge20" class="edge">
<title>Node18&#45;&gt;Node2</title>
<path fill="none" stroke="#9a32cd" stroke-dasharray="5,2" d="M628.77,-471.65C670.99,-470.9 733.6,-466.98 786,-452.18 807.94,-445.98 831.18,-433.47 845.87,-424.72"/>
<polygon fill="#9a32cd" stroke="#9a32cd" points="628.71,-468.15 618.75,-471.77 628.8,-475.15 628.71,-468.15"/>
<text text-anchor="middle" x="732" y="-472.18" font-family="Helvetica,sans-Serif" font-size="10.00"> Name</text>
</g>
<!-- Node19&#45;&gt;Node2 -->
<g id="edge22" class="edge">
<title>Node19&#45;&gt;Node2</title>
<path fill="none" stroke="#9a32cd" stroke-dasharray="5,2" d="M648.31,-346.33C689.15,-348.75 741.66,-354.95 786,-370.18 809.98,-378.41 834.59,-395.05 848.8,-405.63"/>
<polygon fill="#9a32cd" stroke="#9a32cd" points="648.36,-342.83 638.19,-345.8 647.99,-349.82 648.36,-342.83"/>
<text text-anchor="middle" x="732" y="-373.18" font-family="Helvetica,sans-Serif" font-size="10.00"> ScaleRect</text>
</g>
<!-- Node20 -->
<g id="node20" class="node">
<title>Node20</title>
<g id="a_node20"><a xlink:title=" ">
<polygon fill="white" stroke="#bfbfbf" points="246,-335.68 246,-354.68 352,-354.68 352,-335.68 246,-335.68"/>
<text text-anchor="middle" x="299" y="-342.68" font-family="Helvetica,sans-Serif" font-size="10.00">position2d&lt; f32 &gt;</text>
</a>
</g>
</g>
<!-- Node20&#45;&gt;Node19 -->
<g id="edge23" class="edge">
<title>Node20&#45;&gt;Node19</title>
<path fill="none" stroke="#9a32cd" stroke-dasharray="5,2" d="M362.21,-345.18C409.7,-345.18 474.64,-345.18 520.94,-345.18"/>
<polygon fill="#9a32cd" stroke="#9a32cd" points="362.06,-341.68 352.06,-345.18 362.06,-348.68 362.06,-341.68"/>
<text text-anchor="middle" x="437" y="-359.18" font-family="Helvetica,sans-Serif" font-size="10.00"> UpperLeftCorner</text>
<text text-anchor="middle" x="437" y="-348.18" font-family="Helvetica,sans-Serif" font-size="10.00">LowerRightCorner</text>
</g>
<!-- Node21 -->
<g id="node21" class="node">
<title>Node21</title>
<g id="a_node21"><a xlink:href="classbool.html" target="_top" xlink:title=" ">
<polygon fill="white" stroke="black" points="560.5,-85.68 560.5,-104.68 598.5,-104.68 598.5,-85.68 560.5,-85.68"/>
<text text-anchor="middle" x="579.5" y="-92.68" font-family="Helvetica,sans-Serif" font-size="10.00">bool</text>
</a>
</g>
</g>
<!-- Node21&#45;&gt;Node2 -->
<g id="edge25" class="edge">
<title>Node21&#45;&gt;Node2</title>
<path fill="none" stroke="#9a32cd" stroke-dasharray="5,2" d="M608.52,-90.43C652.21,-84.75 736.67,-80.91 786,-125.18 829.64,-164.34 854.59,-359.52 859.92,-405.48"/>
<polygon fill="#9a32cd" stroke="#9a32cd" points="607.99,-86.97 598.58,-91.85 608.98,-93.9 607.99,-86.97"/>
<text text-anchor="middle" x="732" y="-183.18" font-family="Helvetica,sans-Serif" font-size="10.00"> IsTabStop</text>
<text text-anchor="middle" x="732" y="-172.18" font-family="Helvetica,sans-Serif" font-size="10.00">IsSubElement</text>
<text text-anchor="middle" x="732" y="-161.18" font-family="Helvetica,sans-Serif" font-size="10.00">IsTabGroup</text>
<text text-anchor="middle" x="732" y="-150.18" font-family="Helvetica,sans-Serif" font-size="10.00">IsEnabled</text>
<text text-anchor="middle" x="732" y="-139.18" font-family="Helvetica,sans-Serif" font-size="10.00">NoClip</text>
<text text-anchor="middle" x="732" y="-128.18" font-family="Helvetica,sans-Serif" font-size="10.00">IsVisible</text>
</g>
<!-- Node21&#45;&gt;Node26 -->
<g id="edge38" class="edge">
<title>Node21&#45;&gt;Node26</title>
<path fill="none" stroke="#9a32cd" stroke-dasharray="5,2" d="M608.73,-87.45C680.13,-69.07 873.45,-26.46 1031,-57.18 1135.5,-77.55 1187.01,-63.63 1253,-147.18 1285.88,-188.81 1237.87,-223.74 1271,-265.18 1274.05,-268.99 1277.97,-272.04 1282.26,-274.48"/>
<polygon fill="#9a32cd" stroke="#9a32cd" points="607.5,-84.16 598.72,-90.08 609.28,-90.93 607.5,-84.16"/>
<text text-anchor="middle" x="984.5" y="-104.18" font-family="Helvetica,sans-Serif" font-size="10.00"> is_horizontal</text>
<text text-anchor="middle" x="984.5" y="-93.18" font-family="Helvetica,sans-Serif" font-size="10.00">is_auto_scaling</text>
<text text-anchor="middle" x="984.5" y="-82.18" font-family="Helvetica,sans-Serif" font-size="10.00">dragged_by_slider</text>
<text text-anchor="middle" x="984.5" y="-71.18" font-family="Helvetica,sans-Serif" font-size="10.00">is_dragging</text>
<text text-anchor="middle" x="984.5" y="-60.18" font-family="Helvetica,sans-Serif" font-size="10.00">tray_clicked</text>
</g>
<!-- Node22 -->
<g id="node22" class="node">
<title>Node22</title>
<g id="a_node22"><a xlink:title=" ">
<polygon fill="white" stroke="#bfbfbf" points="499,-297.68 499,-316.68 660,-316.68 660,-297.68 499,-297.68"/>
<text text-anchor="middle" x="579.5" y="-304.68" font-family="Helvetica,sans-Serif" font-size="10.00">list&lt; irr::gui::IGUIElement * &gt;</text>
</a>
</g>
</g>
<!-- Node22&#45;&gt;Node2 -->
<g id="edge26" class="edge">
<title>Node22&#45;&gt;Node2</title>
<path fill="none" stroke="#9a32cd" stroke-dasharray="5,2" d="M670.83,-305.17C708.24,-307.67 750.97,-315.04 786,-333.18 818.89,-350.21 844.63,-387.82 855.45,-405.56"/>
<polygon fill="#9a32cd" stroke="#9a32cd" points="670.61,-301.65 660.43,-304.59 670.22,-308.64 670.61,-301.65"/>
<text text-anchor="middle" x="732" y="-336.18" font-family="Helvetica,sans-Serif" font-size="10.00"> Children</text>
</g>
<!-- Node23 -->
<g id="node23" class="node">
<title>Node23</title>
<g id="a_node23"><a xlink:title=" ">
<polygon fill="white" stroke="#bfbfbf" points="553,-201.68 553,-220.68 606,-220.68 606,-201.68 553,-201.68"/>
<text text-anchor="middle" x="579.5" y="-208.68" font-family="Helvetica,sans-Serif" font-size="10.00">iterator</text>
</a>
</g>
</g>
<!-- Node23&#45;&gt;Node2 -->
<g id="edge27" class="edge">
<title>Node23&#45;&gt;Node2</title>
<path fill="none" stroke="#9a32cd" stroke-dasharray="5,2" d="M616.12,-202.12C660.37,-193.08 736.13,-185.18 786,-221.18 848.95,-266.62 859.06,-372.57 860.69,-405.34"/>
<polygon fill="#9a32cd" stroke="#9a32cd" points="615.14,-198.75 606.11,-204.29 616.62,-205.59 615.14,-198.75"/>
<text text-anchor="middle" x="732" y="-224.18" font-family="Helvetica,sans-Serif" font-size="10.00"> ParentPos</text>
</g>
<!-- Node24 -->
<g id="node24" class="node">
<title>Node24</title>
<g id="a_node24"><a xlink:title=" ">
<polygon fill="white" stroke="#bfbfbf" points="519,-651.68 519,-670.68 640,-670.68 640,-651.68 519,-651.68"/>
<text text-anchor="middle" x="579.5" y="-658.68" font-family="Helvetica,sans-Serif" font-size="10.00">EGUI_ELEMENT_TYPE</text>
</a>
</g>
</g>
<!-- Node24&#45;&gt;Node2 -->
<g id="edge28" class="edge">
<title>Node24&#45;&gt;Node2</title>
<path fill="none" stroke="#9a32cd" stroke-dasharray="5,2" d="M616.66,-673.77C662.34,-687.11 740.45,-701.04 786,-659.18 817.39,-630.33 785.16,-506.42 804,-468.18 813.2,-449.51 831.96,-434.12 845.44,-424.82"/>
<polygon fill="#9a32cd" stroke="#9a32cd" points="617.47,-670.35 606.88,-670.77 615.42,-677.05 617.47,-670.35"/>
<text text-anchor="middle" x="732" y="-689.18" font-family="Helvetica,sans-Serif" font-size="10.00"> Type</text>
</g>
<!-- Node25 -->
<g id="node25" class="node">
<title>Node25</title>
<g id="a_node25"><a xlink:title=" ">
<polygon fill="white" stroke="#bfbfbf" points="527.5,-613.68 527.5,-632.68 631.5,-632.68 631.5,-613.68 527.5,-613.68"/>
<text text-anchor="middle" x="579.5" y="-620.68" font-family="Helvetica,sans-Serif" font-size="10.00">EGUI_ALIGNMENT</text>
</a>
</g>
</g>
<!-- Node25&#45;&gt;Node2 -->
<g id="edge29" class="edge">
<title>Node25&#45;&gt;Node2</title>
<path fill="none" stroke="#9a32cd" stroke-dasharray="5,2" d="M641.59,-617.34C698.43,-611.33 775.86,-601.41 786,-591.18 824.89,-551.93 778.31,-517.09 804,-468.18 813.74,-449.63 832.58,-434.12 845.93,-424.76"/>
<polygon fill="#9a32cd" stroke="#9a32cd" points="641.18,-613.87 631.6,-618.38 641.9,-620.83 641.18,-613.87"/>
<text text-anchor="middle" x="732" y="-648.18" font-family="Helvetica,sans-Serif" font-size="10.00"> AlignRight</text>
<text text-anchor="middle" x="732" y="-637.18" font-family="Helvetica,sans-Serif" font-size="10.00">AlignBottom</text>
<text text-anchor="middle" x="732" y="-626.18" font-family="Helvetica,sans-Serif" font-size="10.00">AlignLeft</text>
<text text-anchor="middle" x="732" y="-615.18" font-family="Helvetica,sans-Serif" font-size="10.00">AlignTop</text>
</g>
<!-- Node26&#45;&gt;Node1 -->
<g id="edge30" class="edge">
<title>Node26&#45;&gt;Node1</title>
<path fill="none" stroke="#9a32cd" stroke-dasharray="5,2" d="M1369.87,-279.82C1402.34,-276.9 1445.15,-273.04 1478.7,-270.02"/>
<polygon fill="#9a32cd" stroke="#9a32cd" points="1369.36,-276.35 1359.71,-280.74 1369.98,-283.32 1369.36,-276.35"/>
<text text-anchor="middle" x="1424.5" y="-280.18" font-family="Helvetica,sans-Serif" font-size="10.00"> m_scrollbar</text>
</g>
<!-- Node27&#45;&gt;Node26 -->
<g id="edge32" class="edge">
<title>Node27&#45;&gt;Node26</title>
<path fill="none" stroke="#9a32cd" stroke-dasharray="5,2" d="M1166.33,-353.88C1193.78,-351.14 1225.84,-345.51 1253,-334.18 1275.93,-324.61 1298.07,-305.33 1310.12,-293.7"/>
<polygon fill="#9a32cd" stroke="#9a32cd" points="1165.7,-350.42 1156.05,-354.8 1166.32,-357.39 1165.7,-350.42"/>
<text text-anchor="middle" x="1213.5" y="-366.18" font-family="Helvetica,sans-Serif" font-size="10.00"> down_button</text>
<text text-anchor="middle" x="1213.5" y="-355.18" font-family="Helvetica,sans-Serif" font-size="10.00">up_button</text>
</g>
<!-- Node28&#45;&gt;Node26 -->
<g id="edge34" class="edge">
<title>Node28&#45;&gt;Node26</title>
<path fill="none" stroke="#9a32cd" stroke-dasharray="5,2" d="M762.17,-748.14C847.15,-706.08 1098.24,-573.33 1253,-402.18 1284.38,-367.47 1307.16,-315.42 1315.75,-293.96"/>
<polygon fill="#9a32cd" stroke="#9a32cd" points="760.53,-745.05 753.1,-752.6 763.62,-751.33 760.53,-745.05"/>
<text text-anchor="middle" x="984.5" y="-652.18" font-family="Helvetica,sans-Serif" font-size="10.00"> current_icon_color</text>
</g>
<!-- Node29 -->
<g id="node29" class="node">
<title>Node29</title>
<g id="a_node29"><a xlink:title=" ">
<polygon fill="white" stroke="#bfbfbf" points="1058.5,-2.68 1058.5,-21.68 1146.5,-21.68 1146.5,-2.68 1058.5,-2.68"/>
<text text-anchor="middle" x="1102.5" y="-9.68" font-family="Helvetica,sans-Serif" font-size="10.00">ArrowVisibility</text>
</a>
</g>
</g>
<!-- Node29&#45;&gt;Node26 -->
<g id="edge37" class="edge">
<title>Node29&#45;&gt;Node26</title>
<path fill="none" stroke="#9a32cd" stroke-dasharray="5,2" d="M1155.63,-1.37C1188.11,2.08 1228.3,-0.18 1253,-25.18 1290.59,-63.22 1239.23,-222.16 1271,-265.18 1273.79,-268.96 1277.45,-271.99 1281.51,-274.42"/>
<polygon fill="#9a32cd" stroke="#9a32cd" points="1154.86,2.06 1145.38,-2.67 1155.74,-4.88 1154.86,2.06"/>
<text text-anchor="middle" x="1213.5" y="-28.18" font-family="Helvetica,sans-Serif" font-size="10.00"> arrow_visibility</text>
</g>
<!-- Node30 -->
<g id="node30" class="node">
<title>Node30</title>
<g id="a_node30"><a xlink:title=" ">
<polygon fill="white" stroke="#bfbfbf" points="1085.5,-202.68 1085.5,-221.68 1119.5,-221.68 1119.5,-202.68 1085.5,-202.68"/>
<text text-anchor="middle" x="1102.5" y="-209.68" font-family="Helvetica,sans-Serif" font-size="10.00">s32</text>
</a>
</g>
</g>
<!-- Node30&#45;&gt;Node26 -->
<g id="edge39" class="edge">
<title>Node30&#45;&gt;Node26</title>
<path fill="none" stroke="#9a32cd" stroke-dasharray="5,2" d="M1129.38,-202.98C1161.61,-193.31 1216.84,-182.82 1253,-209.18 1274.13,-224.58 1253.1,-246.12 1271,-265.18 1274.59,-269 1279.04,-272.07 1283.79,-274.52"/>
<polygon fill="#9a32cd" stroke="#9a32cd" points="1128.23,-199.67 1119.77,-206.05 1130.36,-206.34 1128.23,-199.67"/>
<text text-anchor="middle" x="1213.5" y="-322.18" font-family="Helvetica,sans-Serif" font-size="10.00"> thumb_size</text>
<text text-anchor="middle" x="1213.5" y="-311.18" font-family="Helvetica,sans-Serif" font-size="10.00">drag_offset</text>
<text text-anchor="middle" x="1213.5" y="-300.18" font-family="Helvetica,sans-Serif" font-size="10.00">small_step</text>
<text text-anchor="middle" x="1213.5" y="-289.18" font-family="Helvetica,sans-Serif" font-size="10.00">large_step</text>
<text text-anchor="middle" x="1213.5" y="-278.18" font-family="Helvetica,sans-Serif" font-size="10.00">min_pos</text>
<text text-anchor="middle" x="1213.5" y="-267.18" font-family="Helvetica,sans-Serif" font-size="10.00">max_pos</text>
<text text-anchor="middle" x="1213.5" y="-256.18" font-family="Helvetica,sans-Serif" font-size="10.00">border_size</text>
<text text-anchor="middle" x="1213.5" y="-245.18" font-family="Helvetica,sans-Serif" font-size="10.00">scroll_pos</text>
<text text-anchor="middle" x="1213.5" y="-234.18" font-family="Helvetica,sans-Serif" font-size="10.00">page_size</text>
<text text-anchor="middle" x="1213.5" y="-223.18" font-family="Helvetica,sans-Serif" font-size="10.00">draw_center</text>
<text text-anchor="middle" x="1213.5" y="-212.18" font-family="Helvetica,sans-Serif" font-size="10.00">...</text>
</g>
<!-- Node31 -->
<g id="node31" class="node">
<title>Node31</title>
<g id="a_node31"><a xlink:title=" ">
<polygon fill="white" stroke="#bfbfbf" points="1271,-236.68 1271,-255.68 1370,-255.68 1370,-236.68 1271,-236.68"/>
<text text-anchor="middle" x="1320.5" y="-243.68" font-family="Helvetica,sans-Serif" font-size="10.00">OrientationEnum</text>
</a>
</g>
</g>
<!-- Node31&#45;&gt;Node1 -->
<g id="edge40" class="edge">
<title>Node31&#45;&gt;Node1</title>
<path fill="none" stroke="#9a32cd" stroke-dasharray="5,2" d="M1380.32,-249.69C1405.24,-251.36 1434.56,-253.57 1461,-256.18 1466.73,-256.74 1472.7,-257.39 1478.66,-258.09"/>
<polygon fill="#9a32cd" stroke="#9a32cd" points="1380.5,-246.2 1370.3,-249.03 1380.05,-253.18 1380.5,-246.2"/>
<text text-anchor="middle" x="1424.5" y="-259.18" font-family="Helvetica,sans-Serif" font-size="10.00"> m_orientation</text>
</g>
<!-- Node32 -->
<g id="node32" class="node">
<title>Node32</title>
<g id="a_node32"><a xlink:title=" ">
<polygon fill="white" stroke="#bfbfbf" points="1304.5,-198.68 1304.5,-217.68 1336.5,-217.68 1336.5,-198.68 1304.5,-198.68"/>
<text text-anchor="middle" x="1320.5" y="-205.68" font-family="Helvetica,sans-Serif" font-size="10.00">f32</text>
</a>
</g>
</g>
<!-- Node32&#45;&gt;Node1 -->
<g id="edge41" class="edge">
<title>Node32&#45;&gt;Node1</title>
<path fill="none" stroke="#9a32cd" stroke-dasharray="5,2" d="M1347.04,-211.51C1375.31,-215.56 1422.03,-223.37 1461,-235.18 1479.04,-240.64 1498.73,-249.1 1512.87,-255.65"/>
<polygon fill="#9a32cd" stroke="#9a32cd" points="1347.2,-207.99 1336.82,-210.09 1346.24,-214.93 1347.2,-207.99"/>
<text text-anchor="middle" x="1424.5" y="-238.18" font-family="Helvetica,sans-Serif" font-size="10.00"> m_scrollfactor</text>
</g>
</g>
</svg>
        <g id="navigator" transform="translate(0 0)" fill="#404254">
                <rect fill="#f2f5e9" fill-opacity="0.5" stroke="#606060" stroke-width=".5" x="0" y="0" width="60" height="60"/>
                <use id="zoomplus" xlink:href="#zoomPlus" x="17" y="9" onmousedown="handleZoom(evt,'in')"/>
                <use id="zoomminus" xlink:href="#zoomMin" x="42" y="9" onmousedown="handleZoom(evt,'out')"/>
                <use id="reset" xlink:href="#resetDef" x="30" y="36" onmousedown="handleReset()"/>
                <g id="arrowUp" xlink:href="#dirArrow" transform="translate(30 24)" onmousedown="handlePan(0,-1)">
                  <use xlink:href="#rim" fill="#404040">
                        <set attributeName="fill" to="#808080" begin="arrowUp.mouseover" end="arrowUp.mouseout"/>
                  </use>
                  <path fill="none" stroke="white" stroke-width="1.5" d="M0,-3.0v7 M-2.5,-0.5L0,-3.0L2.5,-0.5"/>
                </g>
                <g id="arrowRight" xlink:href="#dirArrow" transform="rotate(90) translate(36 -43)" onmousedown="handlePan(1,0)">
                  <use xlink:href="#rim" fill="#404040">
                        <set attributeName="fill" to="#808080" begin="arrowRight.mouseover" end="arrowRight.mouseout"/>
                  </use>
                  <path fill="none" stroke="white" stroke-width="1.5" d="M0,-3.0v7 M-2.5,-0.5L0,-3.0L2.5,-0.5"/>
                </g>
                <g id="arrowDown" xlink:href="#dirArrow" transform="rotate(180) translate(-30 -48)" onmousedown="handlePan(0,1)">
                  <use xlink:href="#rim" fill="#404040">
                        <set attributeName="fill" to="#808080" begin="arrowDown.mouseover" end="arrowDown.mouseout"/>
                  </use>
                  <path fill="none" stroke="white" stroke-width="1.5" d="M0,-3.0v7 M-2.5,-0.5L0,-3.0L2.5,-0.5"/>
                </g>
                <g id="arrowLeft" xlink:href="#dirArrow" transform="rotate(270) translate(-36 17)" onmousedown="handlePan(-1,0)">
                  <use xlink:href="#rim" fill="#404040">
                        <set attributeName="fill" to="#808080" begin="arrowLeft.mouseover" end="arrowLeft.mouseout"/>
                  </use>
                  <path fill="none" stroke="white" stroke-width="1.5" d="M0,-3.0v7 M-2.5,-0.5L0,-3.0L2.5,-0.5"/>
                </g>
        </g>
        <svg viewBox="0 0 15 15" width="100%" height="30px" preserveAspectRatio="xMaxYMin meet">
         <g id="arrow_out" transform="scale(0.3 0.3)">
          <a xlink:href="classGUIScrollContainer__coll__graph_org.svg" target="_base">
           <rect id="button" ry="5" rx="5" y="6" x="6" height="38" width="38"
                fill="#f2f5e9" fill-opacity="0.5" stroke="#606060" stroke-width="1.0"/>
           <path id="arrow"
             d="M 11.500037,31.436501 C 11.940474,20.09759 22.043105,11.32322 32.158766,21.979434 L 37.068811,17.246167 C 37.068811,17.246167 37.088388,32 37.088388,32 L 22.160133,31.978069 C 22.160133,31.978069 26.997745,27.140456 26.997745,27.140456 C 18.528582,18.264221 13.291696,25.230495 11.500037,31.436501 z"
             style="fill:#404040;"/>
          </a>
         </g>
        </svg>
</svg>
