<?xml version="1.0" encoding="UTF-8" standalone="no"?>
<!DOCTYPE svg PUBLIC "-//W3C//DTD SVG 1.1//EN"
 "http://www.w3.org/Graphics/SVG/1.1/DTD/svg11.dtd">
<!-- Generated by graphviz version 2.43.0 (0)
 -->
<!-- Title: UnitSAO Pages: 1 -->
<svg width="178pt" height="196pt"
 viewBox="0.00 0.00 177.50 196.00" xmlns="http://www.w3.org/2000/svg" xmlns:xlink="http://www.w3.org/1999/xlink">
<g id="graph0" class="graph" transform="scale(1 1) rotate(0) translate(4 192)">
<title>UnitSAO</title>
<polygon fill="white" stroke="transparent" points="-4,4 -4,-192 173.5,-192 173.5,4 -4,4"/>
<!-- Node1 -->
<g id="node1" class="node">
<title>Node1</title>
<g id="a_node1"><a xlink:title=" ">
<polygon fill="#bfbfbf" stroke="black" points="59.5,-56.5 59.5,-75.5 117.5,-75.5 117.5,-56.5 59.5,-56.5"/>
<text text-anchor="middle" x="88.5" y="-63.5" font-family="Helvetica,sans-Serif" font-size="10.00">UnitSAO</text>
</a>
</g>
</g>
<!-- Node4 -->
<g id="node4" class="node">
<title>Node4</title>
<g id="a_node4"><a xlink:href="classLuaEntitySAO.html" target="_top" xlink:title=" ">
<polygon fill="white" stroke="black" points="0,-0.5 0,-19.5 83,-19.5 83,-0.5 0,-0.5"/>
<text text-anchor="middle" x="41.5" y="-7.5" font-family="Helvetica,sans-Serif" font-size="10.00">LuaEntitySAO</text>
</a>
</g>
</g>
<!-- Node1&#45;&gt;Node4 -->
<g id="edge3" class="edge">
<title>Node1&#45;&gt;Node4</title>
<path fill="none" stroke="midnightblue" d="M74.08,-48.43C65.84,-38.97 55.85,-27.48 49.12,-19.75"/>
<polygon fill="midnightblue" stroke="midnightblue" points="71.53,-50.84 80.74,-56.08 76.81,-46.24 71.53,-50.84"/>
</g>
<!-- Node5 -->
<g id="node5" class="node">
<title>Node5</title>
<g id="a_node5"><a xlink:href="classPlayerSAO.html" target="_top" xlink:title=" ">
<polygon fill="white" stroke="black" points="101.5,-0.5 101.5,-19.5 169.5,-19.5 169.5,-0.5 101.5,-0.5"/>
<text text-anchor="middle" x="135.5" y="-7.5" font-family="Helvetica,sans-Serif" font-size="10.00">PlayerSAO</text>
</a>
</g>
</g>
<!-- Node1&#45;&gt;Node5 -->
<g id="edge4" class="edge">
<title>Node1&#45;&gt;Node5</title>
<path fill="none" stroke="midnightblue" d="M102.92,-48.43C111.16,-38.97 121.15,-27.48 127.88,-19.75"/>
<polygon fill="midnightblue" stroke="midnightblue" points="100.19,-46.24 96.26,-56.08 105.47,-50.84 100.19,-46.24"/>
</g>
<!-- Node2 -->
<g id="node2" class="node">
<title>Node2</title>
<g id="a_node2"><a xlink:href="classServerActiveObject.html" target="_top" xlink:title=" ">
<polygon fill="white" stroke="black" points="33.5,-112.5 33.5,-131.5 143.5,-131.5 143.5,-112.5 33.5,-112.5"/>
<text text-anchor="middle" x="88.5" y="-119.5" font-family="Helvetica,sans-Serif" font-size="10.00">ServerActiveObject</text>
</a>
</g>
</g>
<!-- Node2&#45;&gt;Node1 -->
<g id="edge1" class="edge">
<title>Node2&#45;&gt;Node1</title>
<path fill="none" stroke="midnightblue" d="M88.5,-101.8C88.5,-92.91 88.5,-82.78 88.5,-75.75"/>
<polygon fill="midnightblue" stroke="midnightblue" points="85,-102.08 88.5,-112.08 92,-102.08 85,-102.08"/>
</g>
<!-- Node3 -->
<g id="node3" class="node">
<title>Node3</title>
<g id="a_node3"><a xlink:href="classActiveObject.html" target="_top" xlink:title=" ">
<polygon fill="white" stroke="black" points="49,-168.5 49,-187.5 128,-187.5 128,-168.5 49,-168.5"/>
<text text-anchor="middle" x="88.5" y="-175.5" font-family="Helvetica,sans-Serif" font-size="10.00">ActiveObject</text>
</a>
</g>
</g>
<!-- Node3&#45;&gt;Node2 -->
<g id="edge2" class="edge">
<title>Node3&#45;&gt;Node2</title>
<path fill="none" stroke="midnightblue" d="M88.5,-157.8C88.5,-148.91 88.5,-138.78 88.5,-131.75"/>
<polygon fill="midnightblue" stroke="midnightblue" points="85,-158.08 88.5,-168.08 92,-158.08 85,-158.08"/>
</g>
</g>
</svg>
