<?xml version="1.0" encoding="UTF-8" standalone="no"?>
<!DOCTYPE svg PUBLIC "-//W3C//DTD SVG 1.1//EN"
 "http://www.w3.org/Graphics/SVG/1.1/DTD/svg11.dtd">
<!-- Generated by graphviz version 2.43.0 (0)
 -->
<!-- Title: MapDatabaseSQLite3 Pages: 1 -->
<svg width="216pt" height="140pt"
 viewBox="0.00 0.00 216.00 140.00" xmlns="http://www.w3.org/2000/svg" xmlns:xlink="http://www.w3.org/1999/xlink">
<g id="graph0" class="graph" transform="scale(1 1) rotate(0) translate(4 136)">
<title>MapDatabaseSQLite3</title>
<polygon fill="white" stroke="transparent" points="-4,4 -4,-136 212,-136 212,4 -4,4"/>
<!-- Node1 -->
<g id="node1" class="node">
<title>Node1</title>
<g id="a_node1"><a xlink:title=" ">
<polygon fill="#bfbfbf" stroke="black" points="48,-0.5 48,-19.5 170,-19.5 170,-0.5 48,-0.5"/>
<text text-anchor="middle" x="109" y="-7.5" font-family="Helvetica,sans-Serif" font-size="10.00">MapDatabaseSQLite3</text>
</a>
</g>
</g>
<!-- Node2 -->
<g id="node2" class="node">
<title>Node2</title>
<g id="a_node2"><a xlink:href="classDatabase__SQLite3.html" target="_top" xlink:title=" ">
<polygon fill="white" stroke="black" points="0,-56.5 0,-75.5 106,-75.5 106,-56.5 0,-56.5"/>
<text text-anchor="middle" x="53" y="-63.5" font-family="Helvetica,sans-Serif" font-size="10.00">Database_SQLite3</text>
</a>
</g>
</g>
<!-- Node2&#45;&gt;Node1 -->
<g id="edge1" class="edge">
<title>Node2&#45;&gt;Node1</title>
<path fill="none" stroke="#8b1a1a" d="M69.33,-49.25C79.26,-39.67 91.59,-27.79 99.84,-19.83"/>
<polygon fill="#8b1a1a" stroke="#8b1a1a" points="66.77,-46.86 62,-56.32 71.63,-51.9 66.77,-46.86"/>
</g>
<!-- Node3 -->
<g id="node3" class="node">
<title>Node3</title>
<g id="a_node3"><a xlink:href="classDatabase.html" target="_top" xlink:title=" ">
<polygon fill="white" stroke="black" points="77.5,-112.5 77.5,-131.5 140.5,-131.5 140.5,-112.5 77.5,-112.5"/>
<text text-anchor="middle" x="109" y="-119.5" font-family="Helvetica,sans-Serif" font-size="10.00">Database</text>
</a>
</g>
</g>
<!-- Node3&#45;&gt;Node2 -->
<g id="edge2" class="edge">
<title>Node3&#45;&gt;Node2</title>
<path fill="none" stroke="midnightblue" d="M92.67,-105.25C82.74,-95.67 70.41,-83.79 62.16,-75.83"/>
<polygon fill="midnightblue" stroke="midnightblue" points="90.37,-107.9 100,-112.32 95.23,-102.86 90.37,-107.9"/>
</g>
<!-- Node4 -->
<g id="node4" class="node">
<title>Node4</title>
<g id="a_node4"><a xlink:href="classMapDatabase.html" target="_top" xlink:title=" ">
<polygon fill="white" stroke="black" points="124,-56.5 124,-75.5 208,-75.5 208,-56.5 124,-56.5"/>
<text text-anchor="middle" x="166" y="-63.5" font-family="Helvetica,sans-Serif" font-size="10.00">MapDatabase</text>
</a>
</g>
</g>
<!-- Node3&#45;&gt;Node4 -->
<g id="edge4" class="edge">
<title>Node3&#45;&gt;Node4</title>
<path fill="none" stroke="midnightblue" d="M125.62,-105.25C135.73,-95.67 148.28,-83.79 156.68,-75.83"/>
<polygon fill="midnightblue" stroke="midnightblue" points="123.01,-102.91 118.16,-112.32 127.82,-107.99 123.01,-102.91"/>
</g>
<!-- Node4&#45;&gt;Node1 -->
<g id="edge3" class="edge">
<title>Node4&#45;&gt;Node1</title>
<path fill="none" stroke="midnightblue" d="M149.38,-49.25C139.27,-39.67 126.72,-27.79 118.32,-19.83"/>
<polygon fill="midnightblue" stroke="midnightblue" points="147.18,-51.99 156.84,-56.32 151.99,-46.91 147.18,-51.99"/>
</g>
</g>
</svg>
