<?xml version="1.0" encoding="UTF-8" standalone="no"?>
<!DOCTYPE svg PUBLIC "-//W3C//DTD SVG 1.1//EN"
 "http://www.w3.org/Graphics/SVG/1.1/DTD/svg11.dtd">
<!-- Generated by graphviz version 2.43.0 (0)
 -->
<!-- Title: irr::scene::COBJMeshFileLoader Pages: 1 -->
<svg width="911pt" height="206pt"
 viewBox="0.00 0.00 911.00 206.00" xmlns="http://www.w3.org/2000/svg" xmlns:xlink="http://www.w3.org/1999/xlink">
<g id="graph0" class="graph" transform="scale(1 1) rotate(0) translate(4 202)">
<title>irr::scene::COBJMeshFileLoader</title>
<polygon fill="white" stroke="transparent" points="-4,4 -4,-202 907,-202 907,4 -4,4"/>
<!-- Node1 -->
<g id="node1" class="node">
<title>Node1</title>
<g id="a_node1"><a xlink:title="Meshloader capable of loading obj meshes.">
<polygon fill="#bfbfbf" stroke="black" points="768,-117 768,-147 903,-147 903,-117 768,-117"/>
<text text-anchor="start" x="776" y="-135" font-family="Helvetica,sans-Serif" font-size="10.00">irr::scene::COBJMeshFile</text>
<text text-anchor="middle" x="835.5" y="-124" font-family="Helvetica,sans-Serif" font-size="10.00">Loader</text>
</a>
</g>
</g>
<!-- Node2 -->
<g id="node2" class="node">
<title>Node2</title>
<g id="a_node2"><a xlink:href="classirr_1_1scene_1_1IMeshLoader.html" target="_top" xlink:title="Class which is able to load an animated mesh from a file.">
<polygon fill="white" stroke="black" points="512,-160.5 512,-179.5 642,-179.5 642,-160.5 512,-160.5"/>
<text text-anchor="middle" x="577" y="-167.5" font-family="Helvetica,sans-Serif" font-size="10.00">irr::scene::IMeshLoader</text>
</a>
</g>
</g>
<!-- Node2&#45;&gt;Node1 -->
<g id="edge1" class="edge">
<title>Node2&#45;&gt;Node1</title>
<path fill="none" stroke="midnightblue" d="M652.29,-160.77C682.63,-156.82 718.04,-151.97 750,-147 755.74,-146.11 761.7,-145.14 767.66,-144.14"/>
<polygon fill="midnightblue" stroke="midnightblue" points="651.68,-157.32 642.21,-162.08 652.58,-164.26 651.68,-157.32"/>
</g>
<!-- Node3 -->
<g id="node3" class="node">
<title>Node3</title>
<g id="a_node3"><a xlink:href="classirr_1_1IReferenceCounted.html" target="_top" xlink:title="Base class of most objects of the Irrlicht Engine.">
<polygon fill="white" stroke="black" points="203,-159.5 203,-178.5 329,-178.5 329,-159.5 203,-159.5"/>
<text text-anchor="middle" x="266" y="-166.5" font-family="Helvetica,sans-Serif" font-size="10.00">irr::IReferenceCounted</text>
</a>
</g>
</g>
<!-- Node3&#45;&gt;Node2 -->
<g id="edge2" class="edge">
<title>Node3&#45;&gt;Node2</title>
<path fill="none" stroke="midnightblue" d="M339.36,-169.23C391.62,-169.4 461.54,-169.63 511.81,-169.79"/>
<polygon fill="midnightblue" stroke="midnightblue" points="339.17,-165.73 329.16,-169.2 339.15,-172.73 339.17,-165.73"/>
</g>
<!-- Node11 -->
<g id="node11" class="node">
<title>Node11</title>
<g id="a_node11"><a xlink:href="classirr_1_1scene_1_1ISceneManager.html" target="_top" xlink:title="The Scene Manager manages scene nodes, mesh resources, cameras and all the other stuff.">
<polygon fill="white" stroke="black" points="505.5,-122.5 505.5,-141.5 648.5,-141.5 648.5,-122.5 505.5,-122.5"/>
<text text-anchor="middle" x="577" y="-129.5" font-family="Helvetica,sans-Serif" font-size="10.00">irr::scene::ISceneManager</text>
</a>
</g>
</g>
<!-- Node3&#45;&gt;Node11 -->
<g id="edge12" class="edge">
<title>Node3&#45;&gt;Node11</title>
<path fill="none" stroke="midnightblue" d="M339.26,-160.35C389.3,-154.36 455.6,-146.42 505.3,-140.47"/>
<polygon fill="midnightblue" stroke="midnightblue" points="338.67,-156.89 329.16,-161.56 339.5,-163.84 338.67,-156.89"/>
</g>
<!-- Node4 -->
<g id="node4" class="node">
<title>Node4</title>
<g id="a_node4"><a xlink:title=" ">
<polygon fill="white" stroke="#bfbfbf" points="19,-178.5 19,-197.5 57,-197.5 57,-178.5 19,-178.5"/>
<text text-anchor="middle" x="38" y="-185.5" font-family="Helvetica,sans-Serif" font-size="10.00">char</text>
</a>
</g>
</g>
<!-- Node4&#45;&gt;Node3 -->
<g id="edge3" class="edge">
<title>Node4&#45;&gt;Node3</title>
<path fill="none" stroke="#9a32cd" stroke-dasharray="5,2" d="M67.19,-185.63C100.93,-182.79 158.43,-177.96 202.77,-174.23"/>
<polygon fill="#9a32cd" stroke="#9a32cd" points="66.78,-182.15 57.11,-186.48 67.37,-189.13 66.78,-182.15"/>
<text text-anchor="middle" x="139.5" y="-185" font-family="Helvetica,sans-Serif" font-size="10.00"> DebugName</text>
</g>
<!-- Node5 -->
<g id="node5" class="node">
<title>Node5</title>
<g id="a_node5"><a xlink:title=" ">
<polygon fill="white" stroke="#bfbfbf" points="13,-140.5 13,-159.5 63,-159.5 63,-140.5 13,-140.5"/>
<text text-anchor="middle" x="38" y="-147.5" font-family="Helvetica,sans-Serif" font-size="10.00">int32_t</text>
</a>
</g>
</g>
<!-- Node5&#45;&gt;Node3 -->
<g id="edge4" class="edge">
<title>Node5&#45;&gt;Node3</title>
<path fill="none" stroke="#9a32cd" stroke-dasharray="5,2" d="M73.26,-152.34C102.86,-154.43 146.77,-157.65 185,-161 190.84,-161.51 196.92,-162.07 203,-162.65"/>
<polygon fill="#9a32cd" stroke="#9a32cd" points="73.26,-148.84 63.04,-151.63 72.77,-155.82 73.26,-148.84"/>
<text text-anchor="middle" x="139.5" y="-164" font-family="Helvetica,sans-Serif" font-size="10.00"> ReferenceCounter</text>
</g>
<!-- Node6 -->
<g id="node6" class="node">
<title>Node6</title>
<g id="a_node6"><a xlink:href="classirr_1_1core_1_1array.html" target="_top" xlink:title=" ">
<polygon fill="white" stroke="black" points="498,-56.5 498,-97.5 656,-97.5 656,-56.5 498,-56.5"/>
<text text-anchor="start" x="506" y="-85.5" font-family="Helvetica,sans-Serif" font-size="10.00">irr::core::array&lt; irr</text>
<text text-anchor="start" x="506" y="-74.5" font-family="Helvetica,sans-Serif" font-size="10.00">::scene::COBJMeshFileLoader</text>
<text text-anchor="middle" x="577" y="-63.5" font-family="Helvetica,sans-Serif" font-size="10.00">::SObjMtl * &gt;</text>
</a>
</g>
</g>
<!-- Node6&#45;&gt;Node1 -->
<g id="edge5" class="edge">
<title>Node6&#45;&gt;Node1</title>
<path fill="none" stroke="#9a32cd" stroke-dasharray="5,2" d="M666.19,-95.91C699.45,-103.04 736.7,-111.03 767.69,-117.68"/>
<polygon fill="#9a32cd" stroke="#9a32cd" points="666.51,-92.4 656,-93.73 665.05,-99.24 666.51,-92.4"/>
<text text-anchor="middle" x="712" y="-115" font-family="Helvetica,sans-Serif" font-size="10.00"> Materials</text>
</g>
<!-- Node7 -->
<g id="node7" class="node">
<title>Node7</title>
<g id="a_node7"><a xlink:title=" ">
<polygon fill="white" stroke="#bfbfbf" points="204.5,-99.5 204.5,-140.5 327.5,-140.5 327.5,-99.5 204.5,-99.5"/>
<text text-anchor="start" x="212.5" y="-128.5" font-family="Helvetica,sans-Serif" font-size="10.00">vector&lt; irr::scene</text>
<text text-anchor="start" x="212.5" y="-117.5" font-family="Helvetica,sans-Serif" font-size="10.00">::COBJMeshFileLoader</text>
<text text-anchor="middle" x="266" y="-106.5" font-family="Helvetica,sans-Serif" font-size="10.00">::SObjMtl * &gt;</text>
</a>
</g>
</g>
<!-- Node7&#45;&gt;Node6 -->
<g id="edge6" class="edge">
<title>Node7&#45;&gt;Node6</title>
<path fill="none" stroke="#9a32cd" stroke-dasharray="5,2" d="M337.63,-110.17C385.42,-103.52 448.56,-94.73 497.85,-87.87"/>
<polygon fill="#9a32cd" stroke="#9a32cd" points="337.1,-106.71 327.68,-111.56 338.07,-113.64 337.1,-106.71"/>
<text text-anchor="middle" x="413.5" y="-111" font-family="Helvetica,sans-Serif" font-size="10.00"> m_data</text>
</g>
<!-- Node8 -->
<g id="node8" class="node">
<title>Node8</title>
<g id="a_node8"><a xlink:href="classbool.html" target="_top" xlink:title=" ">
<polygon fill="white" stroke="black" points="19,-49.5 19,-68.5 57,-68.5 57,-49.5 19,-49.5"/>
<text text-anchor="middle" x="38" y="-56.5" font-family="Helvetica,sans-Serif" font-size="10.00">bool</text>
</a>
</g>
</g>
<!-- Node8&#45;&gt;Node6 -->
<g id="edge7" class="edge">
<title>Node8&#45;&gt;Node6</title>
<path fill="none" stroke="#9a32cd" stroke-dasharray="5,2" d="M67.44,-59.95C147.42,-62.63 376.34,-70.31 497.92,-74.38"/>
<polygon fill="#9a32cd" stroke="#9a32cd" points="67.29,-56.45 57.17,-59.61 67.05,-63.44 67.29,-56.45"/>
<text text-anchor="middle" x="266" y="-71" font-family="Helvetica,sans-Serif" font-size="10.00"> is_sorted</text>
</g>
<!-- Node9 -->
<g id="node9" class="node">
<title>Node9</title>
<g id="a_node9"><a xlink:href="classirr_1_1core_1_1array.html" target="_top" xlink:title="Self reallocating template array (like stl vector) with additional features.">
<polygon fill="white" stroke="black" points="209,-14.5 209,-33.5 323,-33.5 323,-14.5 209,-14.5"/>
<text text-anchor="middle" x="266" y="-21.5" font-family="Helvetica,sans-Serif" font-size="10.00">irr::core::array&lt; T &gt;</text>
</a>
</g>
</g>
<!-- Node8&#45;&gt;Node9 -->
<g id="edge9" class="edge">
<title>Node8&#45;&gt;Node9</title>
<path fill="none" stroke="#9a32cd" stroke-dasharray="5,2" d="M67.11,-51.11C75.69,-48.9 85.19,-46.66 94,-45 132.07,-37.85 175.38,-32.56 208.89,-29.08"/>
<polygon fill="#9a32cd" stroke="#9a32cd" points="65.97,-47.79 57.2,-53.75 67.77,-54.56 65.97,-47.79"/>
<text text-anchor="middle" x="139.5" y="-48" font-family="Helvetica,sans-Serif" font-size="10.00"> is_sorted</text>
</g>
<!-- Node9&#45;&gt;Node6 -->
<g id="edge8" class="edge">
<title>Node9&#45;&gt;Node6</title>
<path fill="none" stroke="orange" stroke-dasharray="5,2" d="M333.62,-20.81C376.07,-20.31 431.93,-22.54 480,-34 500.25,-38.83 521.5,-47.88 538.85,-56.44"/>
<polygon fill="orange" stroke="orange" points="333.35,-17.31 323.41,-20.98 333.47,-24.31 333.35,-17.31"/>
<text text-anchor="start" x="347" y="-48" font-family="Helvetica,sans-Serif" font-size="10.00"> &lt; irr::scene::COBJMeshFile</text>
<text text-anchor="middle" x="413.5" y="-37" font-family="Helvetica,sans-Serif" font-size="10.00">Loader::SObjMtl * &gt;</text>
</g>
<!-- Node10 -->
<g id="node10" class="node">
<title>Node10</title>
<g id="a_node10"><a xlink:title=" ">
<polygon fill="white" stroke="#bfbfbf" points="0,-0.5 0,-19.5 76,-19.5 76,-0.5 0,-0.5"/>
<text text-anchor="middle" x="38" y="-7.5" font-family="Helvetica,sans-Serif" font-size="10.00">vector&lt; T &gt;</text>
</a>
</g>
</g>
<!-- Node10&#45;&gt;Node9 -->
<g id="edge10" class="edge">
<title>Node10&#45;&gt;Node9</title>
<path fill="none" stroke="#9a32cd" stroke-dasharray="5,2" d="M86.41,-8.48C115.01,-8.02 152.16,-8.24 185,-11 194.39,-11.79 204.35,-13.06 213.93,-14.5"/>
<polygon fill="#9a32cd" stroke="#9a32cd" points="86.21,-4.98 76.28,-8.68 86.34,-11.98 86.21,-4.98"/>
<text text-anchor="middle" x="139.5" y="-14" font-family="Helvetica,sans-Serif" font-size="10.00"> m_data</text>
</g>
<!-- Node11&#45;&gt;Node1 -->
<g id="edge11" class="edge">
<title>Node11&#45;&gt;Node1</title>
<path fill="none" stroke="#9a32cd" stroke-dasharray="5,2" d="M658.99,-132C694.07,-132 734.64,-132 767.93,-132"/>
<polygon fill="#9a32cd" stroke="#9a32cd" points="658.77,-128.5 648.77,-132 658.77,-135.5 658.77,-128.5"/>
<text text-anchor="middle" x="712" y="-135" font-family="Helvetica,sans-Serif" font-size="10.00"> SceneManager</text>
</g>
</g>
</svg>
