<?xml version="1.0" encoding="UTF-8" standalone="no"?>
<!DOCTYPE svg PUBLIC "-//W3C//DTD SVG 1.1//EN"
 "http://www.w3.org/Graphics/SVG/1.1/DTD/svg11.dtd">
<!-- Generated by graphviz version 2.43.0 (0)
 -->
<!-- Title: TestServerModManager Pages: 1 -->
<svg width="186pt" height="163pt"
 viewBox="0.00 0.00 185.50 163.00" xmlns="http://www.w3.org/2000/svg" xmlns:xlink="http://www.w3.org/1999/xlink">
<g id="graph0" class="graph" transform="scale(1 1) rotate(0) translate(4 159)">
<title>TestServerModManager</title>
<polygon fill="white" stroke="transparent" points="-4,4 -4,-159 181.5,-159 181.5,4 -4,4"/>
<!-- Node1 -->
<g id="node1" class="node">
<title>Node1</title>
<g id="a_node1"><a xlink:title=" ">
<polygon fill="#bfbfbf" stroke="black" points="0,-0.5 0,-19.5 131,-19.5 131,-0.5 0,-0.5"/>
<text text-anchor="middle" x="65.5" y="-7.5" font-family="Helvetica,sans-Serif" font-size="10.00">TestServerModManager</text>
</a>
</g>
</g>
<!-- Node2 -->
<g id="node2" class="node">
<title>Node2</title>
<g id="a_node2"><a xlink:href="classTestBase.html" target="_top" xlink:title=" ">
<polygon fill="white" stroke="black" points="35.5,-57.5 35.5,-76.5 95.5,-76.5 95.5,-57.5 35.5,-57.5"/>
<text text-anchor="middle" x="65.5" y="-64.5" font-family="Helvetica,sans-Serif" font-size="10.00">TestBase</text>
</a>
</g>
</g>
<!-- Node2&#45;&gt;Node1 -->
<g id="edge1" class="edge">
<title>Node2&#45;&gt;Node1</title>
<path fill="none" stroke="midnightblue" d="M65.5,-47.12C65.5,-37.82 65.5,-27.06 65.5,-19.71"/>
<polygon fill="midnightblue" stroke="midnightblue" points="62,-47.41 65.5,-57.41 69,-47.41 62,-47.41"/>
</g>
<!-- Node3 -->
<g id="node3" class="node">
<title>Node3</title>
<g id="a_node3"><a xlink:title=" ">
<polygon fill="white" stroke="#bfbfbf" points="4.5,-135.5 4.5,-154.5 48.5,-154.5 48.5,-135.5 4.5,-135.5"/>
<text text-anchor="middle" x="26.5" y="-142.5" font-family="Helvetica,sans-Serif" font-size="10.00">string</text>
</a>
</g>
</g>
<!-- Node3&#45;&gt;Node2 -->
<g id="edge2" class="edge">
<title>Node3&#45;&gt;Node2</title>
<path fill="none" stroke="#9a32cd" stroke-dasharray="5,2" d="M23.05,-125.36C22.19,-115.77 22.64,-104.19 27.5,-95 31.66,-87.13 39.27,-81.04 46.58,-76.65"/>
<polygon fill="#9a32cd" stroke="#9a32cd" points="19.61,-126.04 24.47,-135.45 26.54,-125.06 19.61,-126.04"/>
<text text-anchor="middle" x="55" y="-103.5" font-family="Helvetica,sans-Serif" font-size="10.00"> m_test_dir</text>
</g>
<!-- Node4 -->
<g id="node4" class="node">
<title>Node4</title>
<g id="a_node4"><a xlink:title=" ">
<polygon fill="white" stroke="#bfbfbf" points="87,-135.5 87,-154.5 122,-154.5 122,-135.5 87,-135.5"/>
<text text-anchor="middle" x="104.5" y="-142.5" font-family="Helvetica,sans-Serif" font-size="10.00">u32</text>
</a>
</g>
</g>
<!-- Node4&#45;&gt;Node2 -->
<g id="edge3" class="edge">
<title>Node4&#45;&gt;Node2</title>
<path fill="none" stroke="#9a32cd" stroke-dasharray="5,2" d="M97.01,-125.7C93,-116.36 87.81,-104.91 82.5,-95 79.15,-88.75 74.9,-82 71.49,-76.81"/>
<polygon fill="#9a32cd" stroke="#9a32cd" points="93.87,-127.28 100.97,-135.15 100.33,-124.57 93.87,-127.28"/>
<text text-anchor="middle" x="135" y="-109" font-family="Helvetica,sans-Serif" font-size="10.00"> num_tests_run</text>
<text text-anchor="middle" x="135" y="-98" font-family="Helvetica,sans-Serif" font-size="10.00">num_tests_failed</text>
</g>
</g>
</svg>
