<?xml version="1.0" encoding="UTF-8" standalone="no"?>
<!DOCTYPE svg PUBLIC "-//W3C//DTD SVG 1.1//EN"
 "http://www.w3.org/Graphics/SVG/1.1/DTD/svg11.dtd">
<!-- Generated by graphviz version 2.43.0 (0)
 -->
<!-- Title: irr::video::CImage::copyTo Pages: 1 -->
<svg width="584pt" height="439pt"
 viewBox="0.00 0.00 584.00 439.00" xmlns="http://www.w3.org/2000/svg" xmlns:xlink="http://www.w3.org/1999/xlink">
<g id="graph0" class="graph" transform="scale(1 1) rotate(0) translate(4 435)">
<title>irr::video::CImage::copyTo</title>
<polygon fill="white" stroke="transparent" points="-4,4 -4,-435 580,-435 580,4 -4,4"/>
<!-- Node1 -->
<g id="node1" class="node">
<title>Node1</title>
<g id="a_node1"><a xlink:title="copies this surface into another">
<polygon fill="#bfbfbf" stroke="black" points="0,-175.5 0,-205.5 104,-205.5 104,-175.5 0,-175.5"/>
<text text-anchor="start" x="8" y="-193.5" font-family="Helvetica,sans-Serif" font-size="10.00">irr::video::CImage</text>
<text text-anchor="middle" x="52" y="-182.5" font-family="Helvetica,sans-Serif" font-size="10.00">::copyTo</text>
</a>
</g>
</g>
<!-- Node2 -->
<g id="node2" class="node">
<title>Node2</title>
<g id="a_node2"><a xlink:href="namespaceirr.html#a7cf0b599e3afb1a657cf6a9757e9e163" target="_top" xlink:title=" ">
<polygon fill="white" stroke="black" points="167,-313 167,-332 217,-332 217,-313 167,-313"/>
<text text-anchor="middle" x="192" y="-320" font-family="Helvetica,sans-Serif" font-size="10.00">irr::Blit</text>
</a>
</g>
</g>
<!-- Node1&#45;&gt;Node2 -->
<g id="edge1" class="edge">
<title>Node1&#45;&gt;Node2</title>
<path fill="none" stroke="midnightblue" d="M68.83,-205.64C94.86,-230.54 146.51,-279.95 173.56,-305.82"/>
<polygon fill="midnightblue" stroke="midnightblue" points="171.16,-308.36 180.8,-312.75 176,-303.31 171.16,-308.36"/>
</g>
<!-- Node4 -->
<g id="node4" class="node">
<title>Node4</title>
<g id="a_node4"><a xlink:href="classirr_1_1video_1_1IImage.html#a226cba5c336847caae221a19a0ba932d" target="_top" xlink:title="Use this to get a pointer to the image data.">
<polygon fill="white" stroke="black" points="282.5,-400.5 282.5,-430.5 382.5,-430.5 382.5,-400.5 282.5,-400.5"/>
<text text-anchor="start" x="290.5" y="-418.5" font-family="Helvetica,sans-Serif" font-size="10.00">irr::video::IImage</text>
<text text-anchor="middle" x="332.5" y="-407.5" font-family="Helvetica,sans-Serif" font-size="10.00">::getData</text>
</a>
</g>
</g>
<!-- Node1&#45;&gt;Node4 -->
<g id="edge13" class="edge">
<title>Node1&#45;&gt;Node4</title>
<path fill="none" stroke="midnightblue" d="M57.83,-205.6C68.17,-235.59 95.2,-303.11 140,-341.5 177.88,-373.96 231.58,-393.04 272.48,-403.68"/>
<polygon fill="midnightblue" stroke="midnightblue" points="271.77,-407.11 282.32,-406.14 273.47,-400.32 271.77,-407.11"/>
</g>
<!-- Node5 -->
<g id="node5" class="node">
<title>Node5</title>
<g id="a_node5"><a xlink:href="classirr_1_1video_1_1IImage.html#adc7e2f7b2f592e8dbac545a8932d2645" target="_top" xlink:title="Returns pitch of image.">
<polygon fill="white" stroke="black" points="282.5,-263.5 282.5,-293.5 382.5,-293.5 382.5,-263.5 282.5,-263.5"/>
<text text-anchor="start" x="290.5" y="-281.5" font-family="Helvetica,sans-Serif" font-size="10.00">irr::video::IImage</text>
<text text-anchor="middle" x="332.5" y="-270.5" font-family="Helvetica,sans-Serif" font-size="10.00">::getPitch</text>
</a>
</g>
</g>
<!-- Node1&#45;&gt;Node5 -->
<g id="edge15" class="edge">
<title>Node1&#45;&gt;Node5</title>
<path fill="none" stroke="midnightblue" d="M100.56,-205.53C148.58,-220.7 222.78,-244.15 274.06,-260.35"/>
<polygon fill="midnightblue" stroke="midnightblue" points="273.08,-263.71 283.67,-263.39 275.19,-257.04 273.08,-263.71"/>
</g>
<!-- Node7 -->
<g id="node7" class="node">
<title>Node7</title>
<g id="a_node7"><a xlink:href="classirr_1_1video_1_1CImage.html#a044d114e37a8ed8b72e6a21415a38c42" target="_top" xlink:title="copies this surface into another, scaling it to fit.">
<polygon fill="white" stroke="black" points="140,-175.5 140,-205.5 244,-205.5 244,-175.5 140,-175.5"/>
<text text-anchor="start" x="148" y="-193.5" font-family="Helvetica,sans-Serif" font-size="10.00">irr::video::CImage</text>
<text text-anchor="middle" x="192" y="-182.5" font-family="Helvetica,sans-Serif" font-size="10.00">::copyToScaling</text>
</a>
</g>
</g>
<!-- Node1&#45;&gt;Node7 -->
<g id="edge6" class="edge">
<title>Node1&#45;&gt;Node7</title>
<path fill="none" stroke="midnightblue" d="M104.39,-190.5C112.56,-190.5 121.08,-190.5 129.46,-190.5"/>
<polygon fill="midnightblue" stroke="midnightblue" points="129.57,-194 139.57,-190.5 129.57,-187 129.57,-194"/>
</g>
<!-- Node10 -->
<g id="node10" class="node">
<title>Node10</title>
<g id="a_node10"><a xlink:href="classirr_1_1video_1_1IImage.html#a2e54dd41abc9f56e81f72de5e8538aee" target="_top" xlink:title="check if this is compressed color format">
<polygon fill="white" stroke="black" points="435.5,-131.5 435.5,-161.5 561.5,-161.5 561.5,-131.5 435.5,-131.5"/>
<text text-anchor="start" x="443.5" y="-149.5" font-family="Helvetica,sans-Serif" font-size="10.00">irr::video::IImage</text>
<text text-anchor="middle" x="498.5" y="-138.5" font-family="Helvetica,sans-Serif" font-size="10.00">::isCompressedFormat</text>
</a>
</g>
</g>
<!-- Node1&#45;&gt;Node10 -->
<g id="edge16" class="edge">
<title>Node1&#45;&gt;Node10</title>
<path fill="none" stroke="midnightblue" d="M100.06,-175.43C112.91,-171.75 126.9,-168.11 140,-165.5 237.31,-146.1 352.29,-143.51 425.05,-144.3"/>
<polygon fill="midnightblue" stroke="midnightblue" points="425.42,-147.81 435.47,-144.44 425.52,-140.81 425.42,-147.81"/>
</g>
<!-- Node11 -->
<g id="node11" class="node">
<title>Node11</title>
<g id="a_node11"><a xlink:href="classirr_1_1video_1_1IImage.html#a3b2b2fbd31bb015c974ac327f38bac23" target="_top" xlink:title="Returns the color format.">
<polygon fill="white" stroke="black" points="142,-49.5 142,-79.5 242,-79.5 242,-49.5 142,-49.5"/>
<text text-anchor="start" x="150" y="-67.5" font-family="Helvetica,sans-Serif" font-size="10.00">irr::video::IImage</text>
<text text-anchor="middle" x="192" y="-56.5" font-family="Helvetica,sans-Serif" font-size="10.00">::getColorFormat</text>
</a>
</g>
</g>
<!-- Node1&#45;&gt;Node11 -->
<g id="edge12" class="edge">
<title>Node1&#45;&gt;Node11</title>
<path fill="none" stroke="midnightblue" d="M64.45,-175.21C80.03,-155.08 109.47,-119.35 140,-94.5 144.08,-91.18 148.56,-87.99 153.13,-85.01"/>
<polygon fill="midnightblue" stroke="midnightblue" points="155.28,-87.8 161.93,-79.55 151.59,-81.85 155.28,-87.8"/>
</g>
<!-- Node12 -->
<g id="node12" class="node">
<title>Node12</title>
<g id="a_node12"><a xlink:href="classirr_1_1video_1_1IImage.html#a5cba4942759d65f6132b707e3b4c3ed4" target="_top" xlink:title="Returns width and height of image data.">
<polygon fill="white" stroke="black" points="142,-0.5 142,-30.5 242,-30.5 242,-0.5 142,-0.5"/>
<text text-anchor="start" x="150" y="-18.5" font-family="Helvetica,sans-Serif" font-size="10.00">irr::video::IImage</text>
<text text-anchor="middle" x="192" y="-7.5" font-family="Helvetica,sans-Serif" font-size="10.00">::getDimension</text>
</a>
</g>
</g>
<!-- Node1&#45;&gt;Node12 -->
<g id="edge14" class="edge">
<title>Node1&#45;&gt;Node12</title>
<path fill="none" stroke="midnightblue" d="M58.24,-175.21C69.12,-145.47 96.81,-79.25 140,-39.5 141.26,-38.34 142.59,-37.22 143.97,-36.15"/>
<polygon fill="midnightblue" stroke="midnightblue" points="145.99,-39.01 152.33,-30.52 142.08,-33.21 145.99,-39.01"/>
</g>
<!-- Node3 -->
<g id="node3" class="node">
<title>Node3</title>
<g id="a_node3"><a xlink:href="classirr_1_1video_1_1IImage.html#a5cf67b7209a93d12a02b30d3994af414" target="_top" xlink:title="Returns bytes per pixel.">
<polygon fill="white" stroke="black" points="280,-351.5 280,-381.5 385,-381.5 385,-351.5 280,-351.5"/>
<text text-anchor="start" x="288" y="-369.5" font-family="Helvetica,sans-Serif" font-size="10.00">irr::video::IImage</text>
<text text-anchor="middle" x="332.5" y="-358.5" font-family="Helvetica,sans-Serif" font-size="10.00">::getBytesPerPixel</text>
</a>
</g>
</g>
<!-- Node2&#45;&gt;Node3 -->
<g id="edge2" class="edge">
<title>Node2&#45;&gt;Node3</title>
<path fill="none" stroke="midnightblue" d="M217.12,-330.16C232.98,-335.2 254.42,-342.01 274.45,-348.38"/>
<polygon fill="midnightblue" stroke="midnightblue" points="273.55,-351.76 284.14,-351.45 275.67,-345.09 273.55,-351.76"/>
</g>
<!-- Node2&#45;&gt;Node4 -->
<g id="edge3" class="edge">
<title>Node2&#45;&gt;Node4</title>
<path fill="none" stroke="midnightblue" d="M203.38,-332.08C219.11,-346.26 250.31,-373.16 280,-391.5 282.32,-392.93 284.74,-394.34 287.21,-395.7"/>
<polygon fill="midnightblue" stroke="midnightblue" points="285.81,-398.91 296.29,-400.44 289.05,-392.71 285.81,-398.91"/>
</g>
<!-- Node2&#45;&gt;Node5 -->
<g id="edge4" class="edge">
<title>Node2&#45;&gt;Node5</title>
<path fill="none" stroke="midnightblue" d="M217.12,-314.84C232.98,-309.8 254.42,-302.99 274.45,-296.62"/>
<polygon fill="midnightblue" stroke="midnightblue" points="275.67,-299.91 284.14,-293.55 273.55,-293.24 275.67,-299.91"/>
</g>
<!-- Node6 -->
<g id="node6" class="node">
<title>Node6</title>
<g id="a_node6"><a xlink:href="namespaceirr.html#af037e002b14219cdcb337a6868e5258e" target="_top" xlink:title="2D Intersection test">
<polygon fill="white" stroke="black" points="294.5,-313 294.5,-332 370.5,-332 370.5,-313 294.5,-313"/>
<text text-anchor="middle" x="332.5" y="-320" font-family="Helvetica,sans-Serif" font-size="10.00">irr::intersect</text>
</a>
</g>
</g>
<!-- Node2&#45;&gt;Node6 -->
<g id="edge5" class="edge">
<title>Node2&#45;&gt;Node6</title>
<path fill="none" stroke="midnightblue" d="M217.12,-322.5C235.61,-322.5 261.69,-322.5 284.27,-322.5"/>
<polygon fill="midnightblue" stroke="midnightblue" points="284.37,-326 294.37,-322.5 284.37,-319 284.37,-326"/>
</g>
<!-- Node8 -->
<g id="node8" class="node">
<title>Node8</title>
<g id="a_node8"><a xlink:href="classirr_1_1video_1_1CImage.html#ac206a05ef5a89bd9f085a37f643d996e" target="_top" xlink:title="copies this surface into another, if it has the exact same size and format.">
<polygon fill="white" stroke="black" points="280,-175.5 280,-205.5 385,-205.5 385,-175.5 280,-175.5"/>
<text text-anchor="start" x="288" y="-193.5" font-family="Helvetica,sans-Serif" font-size="10.00">irr::video::CImage</text>
<text text-anchor="middle" x="332.5" y="-182.5" font-family="Helvetica,sans-Serif" font-size="10.00">::copyToNoScaling</text>
</a>
</g>
</g>
<!-- Node7&#45;&gt;Node8 -->
<g id="edge7" class="edge">
<title>Node7&#45;&gt;Node8</title>
<path fill="none" stroke="midnightblue" d="M244.18,-190.5C252.4,-190.5 260.98,-190.5 269.42,-190.5"/>
<polygon fill="midnightblue" stroke="midnightblue" points="269.61,-194 279.61,-190.5 269.61,-187 269.61,-194"/>
</g>
<!-- Node9 -->
<g id="node9" class="node">
<title>Node9</title>
<g id="a_node9"><a xlink:href="classirr_1_1video_1_1IImage.html#a70b50ef1bbb6f90ec4c43a91f521c2b6" target="_top" xlink:title="get the amount of Bits per Pixel of the given color format">
<polygon fill="white" stroke="black" points="421,-199.5 421,-229.5 576,-229.5 576,-199.5 421,-199.5"/>
<text text-anchor="start" x="429" y="-217.5" font-family="Helvetica,sans-Serif" font-size="10.00">irr::video::IImage</text>
<text text-anchor="middle" x="498.5" y="-206.5" font-family="Helvetica,sans-Serif" font-size="10.00">::getBitsPerPixelFromFormat</text>
</a>
</g>
</g>
<!-- Node7&#45;&gt;Node9 -->
<g id="edge10" class="edge">
<title>Node7&#45;&gt;Node9</title>
<path fill="none" stroke="midnightblue" d="M236.3,-205.52C250.09,-209.61 265.53,-213.46 280,-215.5 322.83,-221.53 370.88,-221.97 410.89,-220.6"/>
<polygon fill="midnightblue" stroke="midnightblue" points="411.03,-224.1 420.89,-220.22 410.76,-217.11 411.03,-224.1"/>
</g>
<!-- Node7&#45;&gt;Node10 -->
<g id="edge11" class="edge">
<title>Node7&#45;&gt;Node10</title>
<path fill="none" stroke="midnightblue" d="M239.11,-175.46C252.2,-171.68 266.56,-167.99 280,-165.5 327.96,-156.6 382.66,-151.85 425.21,-149.32"/>
<polygon fill="midnightblue" stroke="midnightblue" points="425.41,-152.81 435.2,-148.75 425.01,-145.83 425.41,-152.81"/>
</g>
<!-- Node8&#45;&gt;Node9 -->
<g id="edge8" class="edge">
<title>Node8&#45;&gt;Node9</title>
<path fill="none" stroke="midnightblue" d="M385.39,-198.09C393.48,-199.28 402.03,-200.53 410.65,-201.79"/>
<polygon fill="midnightblue" stroke="midnightblue" points="410.38,-205.29 420.78,-203.27 411.39,-198.36 410.38,-205.29"/>
</g>
<!-- Node8&#45;&gt;Node10 -->
<g id="edge9" class="edge">
<title>Node8&#45;&gt;Node10</title>
<path fill="none" stroke="midnightblue" d="M385.39,-176.58C400.02,-172.65 416.13,-168.33 431.46,-164.22"/>
<polygon fill="midnightblue" stroke="midnightblue" points="432.65,-167.52 441.4,-161.55 430.84,-160.76 432.65,-167.52"/>
</g>
</g>
</svg>
