<?xml version="1.0" encoding="UTF-8" standalone="no"?>
<!DOCTYPE svg PUBLIC "-//W3C//DTD SVG 1.1//EN"
 "http://www.w3.org/Graphics/SVG/1.1/DTD/svg11.dtd">
<!-- Generated by graphviz version 2.43.0 (0)
 -->
<!-- Title: irr::video::COpenGLCoreTexture&lt; TOpenGLDriver &gt; Pages: 1 -->
<svg width="1461pt" height="949pt"
 viewBox="0.00 0.00 1461.00 949.00" xmlns="http://www.w3.org/2000/svg" xmlns:xlink="http://www.w3.org/1999/xlink">
<g id="graph0" class="graph" transform="scale(1 1) rotate(0) translate(4 945)">
<title>irr::video::COpenGLCoreTexture&lt; TOpenGLDriver &gt;</title>
<polygon fill="white" stroke="transparent" points="-4,4 -4,-945 1457,-945 1457,4 -4,4"/>
<!-- Node1 -->
<g id="node1" class="node">
<title>Node1</title>
<g id="a_node1"><a xlink:title=" ">
<polygon fill="#bfbfbf" stroke="black" points="1283,-280 1283,-310 1453,-310 1453,-280 1283,-280"/>
<text text-anchor="start" x="1291" y="-298" font-family="Helvetica,sans-Serif" font-size="10.00">irr::video::COpenGLCoreTexture</text>
<text text-anchor="middle" x="1368" y="-287" font-family="Helvetica,sans-Serif" font-size="10.00">&lt; TOpenGLDriver &gt;</text>
</a>
</g>
</g>
<!-- Node2 -->
<g id="node2" class="node">
<title>Node2</title>
<g id="a_node2"><a xlink:href="classirr_1_1video_1_1ITexture.html" target="_top" xlink:title="Interface of a Video Driver dependent Texture.">
<polygon fill="white" stroke="black" points="1025.5,-737.5 1025.5,-756.5 1130.5,-756.5 1130.5,-737.5 1025.5,-737.5"/>
<text text-anchor="middle" x="1078" y="-744.5" font-family="Helvetica,sans-Serif" font-size="10.00">irr::video::ITexture</text>
</a>
</g>
</g>
<!-- Node2&#45;&gt;Node1 -->
<g id="edge1" class="edge">
<title>Node2&#45;&gt;Node1</title>
<path fill="none" stroke="midnightblue" d="M1095.56,-729.83C1130.25,-693.21 1211.76,-603.77 1265,-518 1310.69,-444.39 1348.2,-346.9 1361.66,-310"/>
<polygon fill="midnightblue" stroke="midnightblue" points="1092.89,-727.55 1088.52,-737.21 1097.95,-732.38 1092.89,-727.55"/>
</g>
<!-- Node3 -->
<g id="node3" class="node">
<title>Node3</title>
<g id="a_node3"><a xlink:href="classirr_1_1IReferenceCounted.html" target="_top" xlink:title="Base class of most objects of the Irrlicht Engine.">
<polygon fill="white" stroke="black" points="702,-763.5 702,-782.5 828,-782.5 828,-763.5 702,-763.5"/>
<text text-anchor="middle" x="765" y="-770.5" font-family="Helvetica,sans-Serif" font-size="10.00">irr::IReferenceCounted</text>
</a>
</g>
</g>
<!-- Node3&#45;&gt;Node2 -->
<g id="edge2" class="edge">
<title>Node3&#45;&gt;Node2</title>
<path fill="none" stroke="midnightblue" d="M838.19,-771.66C876.53,-770.48 924.4,-768.23 967,-764 986.13,-762.1 1007.01,-759.11 1025.39,-756.16"/>
<polygon fill="midnightblue" stroke="midnightblue" points="838.04,-768.17 828.15,-771.96 838.25,-775.16 838.04,-768.17"/>
</g>
<!-- Node22 -->
<g id="node22" class="node">
<title>Node22</title>
<g id="a_node22"><a xlink:href="classirr_1_1video_1_1IImage.html" target="_top" xlink:title="Interface for software image data.">
<polygon fill="white" stroke="black" points="1028,-510.5 1028,-529.5 1128,-529.5 1128,-510.5 1028,-510.5"/>
<text text-anchor="middle" x="1078" y="-517.5" font-family="Helvetica,sans-Serif" font-size="10.00">irr::video::IImage</text>
</a>
</g>
</g>
<!-- Node3&#45;&gt;Node22 -->
<g id="edge24" class="edge">
<title>Node3&#45;&gt;Node22</title>
<path fill="none" stroke="midnightblue" d="M838.09,-767.66C887.18,-762.76 946.8,-753.93 967,-739 1041.25,-684.13 1068.66,-564.92 1075.29,-529.88"/>
<polygon fill="midnightblue" stroke="midnightblue" points="837.73,-764.18 828.11,-768.62 838.39,-771.15 837.73,-764.18"/>
</g>
<!-- Node4 -->
<g id="node4" class="node">
<title>Node4</title>
<g id="a_node4"><a xlink:title=" ">
<polygon fill="white" stroke="#bfbfbf" points="480,-812.5 480,-831.5 518,-831.5 518,-812.5 480,-812.5"/>
<text text-anchor="middle" x="499" y="-819.5" font-family="Helvetica,sans-Serif" font-size="10.00">char</text>
</a>
</g>
</g>
<!-- Node4&#45;&gt;Node3 -->
<g id="edge3" class="edge">
<title>Node4&#45;&gt;Node3</title>
<path fill="none" stroke="#9a32cd" stroke-dasharray="5,2" d="M528.45,-818.62C564.74,-814.09 629.37,-805.29 684,-794 699.47,-790.8 716.41,-786.48 730.71,-782.58"/>
<polygon fill="#9a32cd" stroke="#9a32cd" points="527.63,-815.19 518.13,-819.89 528.49,-822.14 527.63,-815.19"/>
<text text-anchor="middle" x="638.5" y="-812" font-family="Helvetica,sans-Serif" font-size="10.00"> DebugName</text>
</g>
<!-- Node5 -->
<g id="node5" class="node">
<title>Node5</title>
<g id="a_node5"><a xlink:title=" ">
<polygon fill="white" stroke="#bfbfbf" points="474,-774.5 474,-793.5 524,-793.5 524,-774.5 474,-774.5"/>
<text text-anchor="middle" x="499" y="-781.5" font-family="Helvetica,sans-Serif" font-size="10.00">int32_t</text>
</a>
</g>
</g>
<!-- Node5&#45;&gt;Node3 -->
<g id="edge4" class="edge">
<title>Node5&#45;&gt;Node3</title>
<path fill="none" stroke="#9a32cd" stroke-dasharray="5,2" d="M534.46,-782.56C576.87,-780.8 649.66,-777.76 701.92,-775.59"/>
<polygon fill="#9a32cd" stroke="#9a32cd" points="534.21,-779.07 524.36,-782.98 534.5,-786.07 534.21,-779.07"/>
<text text-anchor="middle" x="638.5" y="-782" font-family="Helvetica,sans-Serif" font-size="10.00"> ReferenceCounter</text>
</g>
<!-- Node6 -->
<g id="node6" class="node">
<title>Node6</title>
<g id="a_node6"><a xlink:href="classirr_1_1core_1_1dimension2d.html" target="_top" xlink:title=" ">
<polygon fill="white" stroke="black" points="703.5,-713 703.5,-743 826.5,-743 826.5,-713 703.5,-713"/>
<text text-anchor="start" x="711.5" y="-731" font-family="Helvetica,sans-Serif" font-size="10.00">irr::core::dimension2d</text>
<text text-anchor="middle" x="765" y="-720" font-family="Helvetica,sans-Serif" font-size="10.00">&lt; u32 &gt;</text>
</a>
</g>
</g>
<!-- Node6&#45;&gt;Node2 -->
<g id="edge5" class="edge">
<title>Node6&#45;&gt;Node2</title>
<path fill="none" stroke="#9a32cd" stroke-dasharray="5,2" d="M836.8,-732.33C894.26,-735.84 973.93,-740.7 1025.47,-743.85"/>
<polygon fill="#9a32cd" stroke="#9a32cd" points="836.9,-728.82 826.7,-731.71 836.47,-735.81 836.9,-728.82"/>
<text text-anchor="middle" x="906.5" y="-753" font-family="Helvetica,sans-Serif" font-size="10.00"> Size</text>
<text text-anchor="middle" x="906.5" y="-742" font-family="Helvetica,sans-Serif" font-size="10.00">OriginalSize</text>
</g>
<!-- Node6&#45;&gt;Node22 -->
<g id="edge25" class="edge">
<title>Node6&#45;&gt;Node22</title>
<path fill="none" stroke="#9a32cd" stroke-dasharray="5,2" d="M807.96,-708.5C814.73,-705.13 821.61,-701.56 828,-698 891.9,-662.46 907.71,-652.78 967,-610 1004.82,-582.71 1046.75,-546.66 1066.11,-529.66"/>
<polygon fill="#9a32cd" stroke="#9a32cd" points="806.3,-705.42 798.86,-712.96 809.38,-711.7 806.3,-705.42"/>
<text text-anchor="middle" x="906.5" y="-689" font-family="Helvetica,sans-Serif" font-size="10.00"> Size</text>
</g>
<!-- Node7 -->
<g id="node7" class="node">
<title>Node7</title>
<g id="a_node7"><a xlink:title=" ">
<polygon fill="white" stroke="#bfbfbf" points="471,-623.5 471,-642.5 527,-642.5 527,-623.5 471,-623.5"/>
<text text-anchor="middle" x="499" y="-630.5" font-family="Helvetica,sans-Serif" font-size="10.00">uint32_t</text>
</a>
</g>
</g>
<!-- Node7&#45;&gt;Node1 -->
<g id="edge33" class="edge">
<title>Node7&#45;&gt;Node1</title>
<path fill="none" stroke="#9a32cd" stroke-dasharray="5,2" d="M511.63,-614.59C538.86,-573.44 611.39,-474.83 702,-439 726.23,-429.42 1145.1,-436.86 1171,-434 1213.45,-429.3 1228.28,-435.81 1265,-414 1308.98,-387.88 1343.38,-335.95 1358.54,-310.2"/>
<polygon fill="#9a32cd" stroke="#9a32cd" points="508.61,-612.81 506.1,-623.1 514.48,-616.62 508.61,-612.81"/>
<text text-anchor="middle" x="906.5" y="-437" font-family="Helvetica,sans-Serif" font-size="10.00"> LockLayer</text>
</g>
<!-- Node7&#45;&gt;Node2 -->
<g id="edge12" class="edge">
<title>Node7&#45;&gt;Node2</title>
<path fill="none" stroke="#9a32cd" stroke-dasharray="5,2" d="M537.18,-639.39C598.08,-649.96 722.82,-671.98 828,-693 900.87,-707.56 985.34,-726.27 1034.79,-737.41"/>
<polygon fill="#9a32cd" stroke="#9a32cd" points="537.72,-635.94 527.27,-637.68 536.53,-642.83 537.72,-635.94"/>
<text text-anchor="middle" x="765" y="-696" font-family="Helvetica,sans-Serif" font-size="10.00"> Pitch</text>
</g>
<!-- Node7&#45;&gt;Node6 -->
<g id="edge6" class="edge">
<title>Node7&#45;&gt;Node6</title>
<path fill="none" stroke="#9a32cd" stroke-dasharray="5,2" d="M523.83,-647.84C542.19,-658.77 568.49,-673.34 593,-683 593.7,-683.27 657.04,-699.92 706.43,-712.89"/>
<polygon fill="#9a32cd" stroke="#9a32cd" points="525.62,-644.84 515.26,-642.66 522,-650.83 525.62,-644.84"/>
<text text-anchor="middle" x="638.5" y="-719" font-family="Helvetica,sans-Serif" font-size="10.00"> Width</text>
<text text-anchor="middle" x="638.5" y="-708" font-family="Helvetica,sans-Serif" font-size="10.00">Height</text>
</g>
<!-- Node7&#45;&gt;Node22 -->
<g id="edge27" class="edge">
<title>Node7&#45;&gt;Node22</title>
<path fill="none" stroke="#9a32cd" stroke-dasharray="5,2" d="M523.87,-617.95C560.53,-595.75 633.64,-555 702,-538 816.01,-509.64 955.38,-512.29 1027.88,-516.35"/>
<polygon fill="#9a32cd" stroke="#9a32cd" points="521.63,-615.22 514.94,-623.43 525.29,-621.18 521.63,-615.22"/>
<text text-anchor="middle" x="765" y="-552" font-family="Helvetica,sans-Serif" font-size="10.00"> BytesPerPixel</text>
<text text-anchor="middle" x="765" y="-541" font-family="Helvetica,sans-Serif" font-size="10.00">Pitch</text>
</g>
<!-- Node8 -->
<g id="node8" class="node">
<title>Node8</title>
<g id="a_node8"><a xlink:href="classirr_1_1core_1_1dimension2d.html" target="_top" xlink:title="Specifies a 2 dimensional size.">
<polygon fill="white" stroke="black" points="423,-736.5 423,-755.5 575,-755.5 575,-736.5 423,-736.5"/>
<text text-anchor="middle" x="499" y="-743.5" font-family="Helvetica,sans-Serif" font-size="10.00">irr::core::dimension2d&lt; T &gt;</text>
</a>
</g>
</g>
<!-- Node8&#45;&gt;Node6 -->
<g id="edge7" class="edge">
<title>Node8&#45;&gt;Node6</title>
<path fill="none" stroke="orange" stroke-dasharray="5,2" d="M585.44,-740.17C623.86,-737.56 668.31,-734.52 703.25,-732.14"/>
<polygon fill="orange" stroke="orange" points="585.04,-736.69 575.3,-740.87 585.51,-743.68 585.04,-736.69"/>
<text text-anchor="middle" x="638.5" y="-742" font-family="Helvetica,sans-Serif" font-size="10.00"> &lt; u32 &gt;</text>
</g>
<!-- Node9 -->
<g id="node9" class="node">
<title>Node9</title>
<g id="a_node9"><a xlink:title=" ">
<polygon fill="white" stroke="#bfbfbf" points="239,-736.5 239,-755.5 268,-755.5 268,-736.5 239,-736.5"/>
<text text-anchor="middle" x="253.5" y="-743.5" font-family="Helvetica,sans-Serif" font-size="10.00">T</text>
</a>
</g>
</g>
<!-- Node9&#45;&gt;Node8 -->
<g id="edge8" class="edge">
<title>Node9&#45;&gt;Node8</title>
<path fill="none" stroke="#9a32cd" stroke-dasharray="5,2" d="M278.42,-746C311.67,-746 373.37,-746 422.92,-746"/>
<polygon fill="#9a32cd" stroke="#9a32cd" points="278.29,-742.5 268.29,-746 278.29,-749.5 278.29,-742.5"/>
<text text-anchor="middle" x="372.5" y="-760" font-family="Helvetica,sans-Serif" font-size="10.00"> Width</text>
<text text-anchor="middle" x="372.5" y="-749" font-family="Helvetica,sans-Serif" font-size="10.00">Height</text>
</g>
<!-- Node10 -->
<g id="node10" class="node">
<title>Node10</title>
<g id="a_node10"><a xlink:title=" ">
<polygon fill="white" stroke="#bfbfbf" points="705.5,-915.5 705.5,-934.5 824.5,-934.5 824.5,-915.5 705.5,-915.5"/>
<text text-anchor="middle" x="765" y="-922.5" font-family="Helvetica,sans-Serif" font-size="10.00">E_TEXTURE_SOURCE</text>
</a>
</g>
</g>
<!-- Node10&#45;&gt;Node2 -->
<g id="edge9" class="edge">
<title>Node10&#45;&gt;Node2</title>
<path fill="none" stroke="#9a32cd" stroke-dasharray="5,2" d="M834.72,-930.2C875.76,-930.19 927.42,-924.44 967,-901 1026.37,-865.84 1062.36,-784.74 1073.37,-756.72"/>
<polygon fill="#9a32cd" stroke="#9a32cd" points="834.57,-926.7 824.53,-930.09 834.49,-933.7 834.57,-926.7"/>
<text text-anchor="middle" x="906.5" y="-933" font-family="Helvetica,sans-Serif" font-size="10.00"> Source</text>
</g>
<!-- Node11 -->
<g id="node11" class="node">
<title>Node11</title>
<g id="a_node11"><a xlink:title=" ">
<polygon fill="white" stroke="#bfbfbf" points="713.5,-569.5 713.5,-588.5 816.5,-588.5 816.5,-569.5 713.5,-569.5"/>
<text text-anchor="middle" x="765" y="-576.5" font-family="Helvetica,sans-Serif" font-size="10.00">ECOLOR_FORMAT</text>
</a>
</g>
</g>
<!-- Node11&#45;&gt;Node2 -->
<g id="edge10" class="edge">
<title>Node11&#45;&gt;Node2</title>
<path fill="none" stroke="#9a32cd" stroke-dasharray="5,2" d="M826.08,-568.29C868.14,-563.86 924.22,-564.34 967,-588 1028.98,-622.28 1063.52,-708.06 1073.74,-737.17"/>
<polygon fill="#9a32cd" stroke="#9a32cd" points="825.51,-564.83 815.98,-569.47 826.32,-571.78 825.51,-564.83"/>
<text text-anchor="middle" x="906.5" y="-602" font-family="Helvetica,sans-Serif" font-size="10.00"> ColorFormat</text>
<text text-anchor="middle" x="906.5" y="-591" font-family="Helvetica,sans-Serif" font-size="10.00">OriginalColorFormat</text>
</g>
<!-- Node11&#45;&gt;Node22 -->
<g id="edge26" class="edge">
<title>Node11&#45;&gt;Node22</title>
<path fill="none" stroke="#9a32cd" stroke-dasharray="5,2" d="M802.63,-566.23C816.14,-561.87 831.64,-557.28 846,-554 908.04,-539.83 980.87,-530.25 1027.92,-524.96"/>
<polygon fill="#9a32cd" stroke="#9a32cd" points="801.15,-563.03 792.74,-569.49 803.34,-569.68 801.15,-563.03"/>
<text text-anchor="middle" x="906.5" y="-557" font-family="Helvetica,sans-Serif" font-size="10.00"> Format</text>
</g>
<!-- Node12 -->
<g id="node12" class="node">
<title>Node12</title>
<g id="a_node12"><a xlink:title=" ">
<polygon fill="white" stroke="#bfbfbf" points="718,-839.5 718,-858.5 812,-858.5 812,-839.5 718,-839.5"/>
<text text-anchor="middle" x="765" y="-846.5" font-family="Helvetica,sans-Serif" font-size="10.00">E_DRIVER_TYPE</text>
</a>
</g>
</g>
<!-- Node12&#45;&gt;Node2 -->
<g id="edge11" class="edge">
<title>Node12&#45;&gt;Node2</title>
<path fill="none" stroke="#9a32cd" stroke-dasharray="5,2" d="M822.16,-845.76C863.35,-841.97 920.04,-833.76 967,-816 1006.01,-801.25 1046.08,-771.78 1065.31,-756.57"/>
<polygon fill="#9a32cd" stroke="#9a32cd" points="821.7,-842.29 812.04,-846.63 822.3,-849.26 821.7,-842.29"/>
<text text-anchor="middle" x="906.5" y="-845" font-family="Helvetica,sans-Serif" font-size="10.00"> DriverType</text>
</g>
<!-- Node13 -->
<g id="node13" class="node">
<title>Node13</title>
<g id="a_node13"><a xlink:href="structirr_1_1io_1_1SNamedPath.html" target="_top" xlink:title="Used in places where we identify objects by a filename, but don&#39;t actually work with the real filenam...">
<polygon fill="white" stroke="black" points="710,-877.5 710,-896.5 820,-896.5 820,-877.5 710,-877.5"/>
<text text-anchor="middle" x="765" y="-884.5" font-family="Helvetica,sans-Serif" font-size="10.00">irr::io::SNamedPath</text>
</a>
</g>
</g>
<!-- Node13&#45;&gt;Node2 -->
<g id="edge13" class="edge">
<title>Node13&#45;&gt;Node2</title>
<path fill="none" stroke="#9a32cd" stroke-dasharray="5,2" d="M830.55,-887.56C871.58,-885.51 924.74,-878.3 967,-857 1015.48,-832.57 1055.64,-778.69 1070.66,-756.67"/>
<polygon fill="#9a32cd" stroke="#9a32cd" points="830.24,-884.07 820.39,-887.97 830.53,-891.06 830.24,-884.07"/>
<text text-anchor="middle" x="906.5" y="-889" font-family="Helvetica,sans-Serif" font-size="10.00"> NamedPath</text>
</g>
<!-- Node14 -->
<g id="node14" class="node">
<title>Node14</title>
<g id="a_node14"><a xlink:href="classirr_1_1core_1_1string.html" target="_top" xlink:title=" ">
<polygon fill="white" stroke="black" points="451,-872 451,-902 547,-902 547,-872 451,-872"/>
<text text-anchor="start" x="459" y="-890" font-family="Helvetica,sans-Serif" font-size="10.00">irr::core::string&lt;</text>
<text text-anchor="middle" x="499" y="-879" font-family="Helvetica,sans-Serif" font-size="10.00"> fschar_t &gt;</text>
</a>
</g>
</g>
<!-- Node14&#45;&gt;Node13 -->
<g id="edge14" class="edge">
<title>Node14&#45;&gt;Node13</title>
<path fill="none" stroke="#9a32cd" stroke-dasharray="5,2" d="M557.45,-887C602.77,-887 665.51,-887 709.93,-887"/>
<polygon fill="#9a32cd" stroke="#9a32cd" points="557.2,-883.5 547.2,-887 557.2,-890.5 557.2,-883.5"/>
<text text-anchor="middle" x="638.5" y="-901" font-family="Helvetica,sans-Serif" font-size="10.00"> Path</text>
<text text-anchor="middle" x="638.5" y="-890" font-family="Helvetica,sans-Serif" font-size="10.00">InternalName</text>
</g>
<!-- Node15 -->
<g id="node15" class="node">
<title>Node15</title>
<g id="a_node15"><a xlink:title=" ">
<polygon fill="white" stroke="#bfbfbf" points="185,-839.5 185,-858.5 322,-858.5 322,-839.5 185,-839.5"/>
<text text-anchor="middle" x="253.5" y="-846.5" font-family="Helvetica,sans-Serif" font-size="10.00">basic_string&lt; fschar_t &gt;</text>
</a>
</g>
</g>
<!-- Node15&#45;&gt;Node14 -->
<g id="edge15" class="edge">
<title>Node15&#45;&gt;Node14</title>
<path fill="none" stroke="#9a32cd" stroke-dasharray="5,2" d="M327.49,-860.03C352.11,-863.78 379.76,-868.04 405,-872 419.86,-874.33 436.06,-876.93 450.7,-879.29"/>
<polygon fill="#9a32cd" stroke="#9a32cd" points="327.9,-856.55 317.49,-858.51 326.85,-863.47 327.9,-856.55"/>
<text text-anchor="middle" x="372.5" y="-875" font-family="Helvetica,sans-Serif" font-size="10.00"> str</text>
</g>
<!-- Node16 -->
<g id="node16" class="node">
<title>Node16</title>
<g id="a_node16"><a xlink:title=" ">
<polygon fill="white" stroke="#bfbfbf" points="0,-912.5 0,-931.5 122,-931.5 122,-912.5 0,-912.5"/>
<text text-anchor="middle" x="61" y="-919.5" font-family="Helvetica,sans-Serif" font-size="10.00">static const size_type</text>
</a>
</g>
</g>
<!-- Node16&#45;&gt;Node14 -->
<g id="edge16" class="edge">
<title>Node16&#45;&gt;Node14</title>
<path fill="none" stroke="#9a32cd" stroke-dasharray="5,2" d="M132.67,-920.25C202.16,-917.97 311.16,-912.9 405,-902 419.95,-900.26 436.16,-897.84 450.8,-895.44"/>
<polygon fill="#9a32cd" stroke="#9a32cd" points="132.17,-916.76 122.28,-920.58 132.39,-923.76 132.17,-916.76"/>
<text text-anchor="middle" x="253.5" y="-921" font-family="Helvetica,sans-Serif" font-size="10.00"> npos</text>
</g>
<!-- Node17 -->
<g id="node17" class="node">
<title>Node17</title>
<g id="a_node17"><a xlink:href="classirr_1_1core_1_1string.html" target="_top" xlink:title="Very simple string class with some useful features.">
<polygon fill="white" stroke="black" points="195.5,-877.5 195.5,-896.5 311.5,-896.5 311.5,-877.5 195.5,-877.5"/>
<text text-anchor="middle" x="253.5" y="-884.5" font-family="Helvetica,sans-Serif" font-size="10.00">irr::core::string&lt; T &gt;</text>
</a>
</g>
</g>
<!-- Node16&#45;&gt;Node17 -->
<g id="edge19" class="edge">
<title>Node16&#45;&gt;Node17</title>
<path fill="none" stroke="#9a32cd" stroke-dasharray="5,2" d="M123.85,-910.64C148.68,-906.07 176.98,-900.87 200.71,-896.52"/>
<polygon fill="#9a32cd" stroke="#9a32cd" points="123.01,-907.23 113.8,-912.48 124.27,-914.12 123.01,-907.23"/>
<text text-anchor="middle" x="153.5" y="-910" font-family="Helvetica,sans-Serif" font-size="10.00"> npos</text>
</g>
<!-- Node17&#45;&gt;Node14 -->
<g id="edge17" class="edge">
<title>Node17&#45;&gt;Node14</title>
<path fill="none" stroke="orange" stroke-dasharray="5,2" d="M321.76,-887C362.7,-887 414,-887 450.68,-887"/>
<polygon fill="orange" stroke="orange" points="321.59,-883.5 311.59,-887 321.59,-890.5 321.59,-883.5"/>
<text text-anchor="middle" x="372.5" y="-890" font-family="Helvetica,sans-Serif" font-size="10.00"> &lt; fschar_t &gt;</text>
</g>
<!-- Node18 -->
<g id="node18" class="node">
<title>Node18</title>
<g id="a_node18"><a xlink:title=" ">
<polygon fill="white" stroke="#bfbfbf" points="9,-863.5 9,-882.5 113,-882.5 113,-863.5 9,-863.5"/>
<text text-anchor="middle" x="61" y="-870.5" font-family="Helvetica,sans-Serif" font-size="10.00">basic_string&lt; T &gt;</text>
</a>
</g>
</g>
<!-- Node18&#45;&gt;Node17 -->
<g id="edge18" class="edge">
<title>Node18&#45;&gt;Node17</title>
<path fill="none" stroke="#9a32cd" stroke-dasharray="5,2" d="M123.33,-872.13C137.68,-872.33 152.89,-872.87 167,-874 176.88,-874.79 187.35,-876.04 197.44,-877.46"/>
<polygon fill="#9a32cd" stroke="#9a32cd" points="123.1,-868.63 113.07,-872.04 123.04,-875.63 123.1,-868.63"/>
<text text-anchor="middle" x="153.5" y="-877" font-family="Helvetica,sans-Serif" font-size="10.00"> str</text>
</g>
<!-- Node19 -->
<g id="node19" class="node">
<title>Node19</title>
<g id="a_node19"><a xlink:href="classbool.html" target="_top" xlink:title=" ">
<polygon fill="white" stroke="black" points="480,-176.5 480,-195.5 518,-195.5 518,-176.5 480,-176.5"/>
<text text-anchor="middle" x="499" y="-183.5" font-family="Helvetica,sans-Serif" font-size="10.00">bool</text>
</a>
</g>
</g>
<!-- Node19&#45;&gt;Node1 -->
<g id="edge39" class="edge">
<title>Node19&#45;&gt;Node1</title>
<path fill="none" stroke="#9a32cd" stroke-dasharray="5,2" d="M528.19,-181.82C546.6,-179.22 571.18,-176.01 593,-174 848.81,-150.45 915.69,-144.56 1171,-173 1213.05,-177.68 1227.55,-168.32 1265,-188 1307.03,-210.08 1341.58,-256.13 1357.51,-279.97"/>
<polygon fill="#9a32cd" stroke="#9a32cd" points="527.53,-178.38 518.13,-183.26 528.53,-185.31 527.53,-178.38"/>
<text text-anchor="middle" x="906.5" y="-192" font-family="Helvetica,sans-Serif" font-size="10.00"> KeepImage</text>
<text text-anchor="start" x="846" y="-181" font-family="Helvetica,sans-Serif" font-size="10.00">LegacyAutoGenerateMip</text>
<text text-anchor="middle" x="906.5" y="-170" font-family="Helvetica,sans-Serif" font-size="10.00">Maps</text>
<text text-anchor="middle" x="906.5" y="-159" font-family="Helvetica,sans-Serif" font-size="10.00">LockReadOnly</text>
</g>
<!-- Node19&#45;&gt;Node2 -->
<g id="edge20" class="edge">
<title>Node19&#45;&gt;Node2</title>
<path fill="none" stroke="#9a32cd" stroke-dasharray="5,2" d="M504.03,-205.5C518.53,-270.79 574.1,-484.02 702,-598 703.46,-599.3 965.2,-691.24 967,-692 1000.4,-706.21 1037.95,-725.8 1059.41,-737.36"/>
<polygon fill="#9a32cd" stroke="#9a32cd" points="507.45,-204.74 501.92,-195.7 500.61,-206.21 507.45,-204.74"/>
<text text-anchor="middle" x="765" y="-656" font-family="Helvetica,sans-Serif" font-size="10.00"> IsRenderTarget</text>
<text text-anchor="middle" x="765" y="-645" font-family="Helvetica,sans-Serif" font-size="10.00">HasMipMaps</text>
</g>
<!-- Node19&#45;&gt;Node22 -->
<g id="edge28" class="edge">
<title>Node19&#45;&gt;Node22</title>
<path fill="none" stroke="#9a32cd" stroke-dasharray="5,2" d="M514.54,-203.87C545.74,-241.38 622.75,-329.52 702,-386 804.89,-459.33 951.98,-496.25 1027.73,-511.38"/>
<polygon fill="#9a32cd" stroke="#9a32cd" points="517,-201.36 507.94,-195.87 511.6,-205.81 517,-201.36"/>
<text text-anchor="middle" x="765" y="-465" font-family="Helvetica,sans-Serif" font-size="10.00"> DeleteMemory</text>
<text text-anchor="middle" x="765" y="-454" font-family="Helvetica,sans-Serif" font-size="10.00">DeleteMipMapsMemory</text>
</g>
<!-- Node27 -->
<g id="node27" class="node">
<title>Node27</title>
<g id="a_node27"><a xlink:href="structirr_1_1video_1_1COpenGLCoreTexture_1_1SStatesCache.html" target="_top" xlink:title=" ">
<polygon fill="white" stroke="black" points="985,-297 985,-327 1171,-327 1171,-297 985,-297"/>
<text text-anchor="start" x="993" y="-315" font-family="Helvetica,sans-Serif" font-size="10.00">irr::video::COpenGLCoreTexture</text>
<text text-anchor="middle" x="1078" y="-304" font-family="Helvetica,sans-Serif" font-size="10.00">&lt; TOpenGLDriver &gt;::SStatesCache</text>
</a>
</g>
</g>
<!-- Node19&#45;&gt;Node27 -->
<g id="edge36" class="edge">
<title>Node19&#45;&gt;Node27</title>
<path fill="none" stroke="#9a32cd" stroke-dasharray="5,2" d="M528.06,-182.84C605.63,-175.63 826.48,-165.4 967,-263 977.95,-270.61 973.97,-279.51 985,-287 990.75,-290.9 997.09,-294.2 1003.67,-296.98"/>
<polygon fill="#9a32cd" stroke="#9a32cd" points="527.7,-179.36 518.09,-183.83 528.39,-186.33 527.7,-179.36"/>
<text text-anchor="middle" x="765" y="-237" font-family="Helvetica,sans-Serif" font-size="10.00"> IsCached</text>
<text text-anchor="middle" x="765" y="-226" font-family="Helvetica,sans-Serif" font-size="10.00">TrilinearFilter</text>
<text text-anchor="middle" x="765" y="-215" font-family="Helvetica,sans-Serif" font-size="10.00">MipMapStatus</text>
<text text-anchor="middle" x="765" y="-204" font-family="Helvetica,sans-Serif" font-size="10.00">BilinearFilter</text>
</g>
<!-- Node29 -->
<g id="node29" class="node">
<title>Node29</title>
<g id="a_node29"><a xlink:href="classirr_1_1core_1_1array.html" target="_top" xlink:title=" ">
<polygon fill="white" stroke="black" points="1023.5,-95 1023.5,-125 1132.5,-125 1132.5,-95 1023.5,-95"/>
<text text-anchor="start" x="1031.5" y="-113" font-family="Helvetica,sans-Serif" font-size="10.00">irr::core::array&lt; irr</text>
<text text-anchor="middle" x="1078" y="-102" font-family="Helvetica,sans-Serif" font-size="10.00">::video::IImage * &gt;</text>
</a>
</g>
</g>
<!-- Node19&#45;&gt;Node29 -->
<g id="edge41" class="edge">
<title>Node19&#45;&gt;Node29</title>
<path fill="none" stroke="#9a32cd" stroke-dasharray="5,2" d="M521.31,-170.14C556.64,-144.92 630.58,-96.75 702,-79 814.21,-51.12 950.52,-76.61 1023.97,-95"/>
<polygon fill="#9a32cd" stroke="#9a32cd" points="518.83,-167.61 512.79,-176.31 522.94,-173.27 518.83,-167.61"/>
<text text-anchor="middle" x="765" y="-82" font-family="Helvetica,sans-Serif" font-size="10.00"> is_sorted</text>
</g>
<!-- Node31 -->
<g id="node31" class="node">
<title>Node31</title>
<g id="a_node31"><a xlink:href="classirr_1_1core_1_1array.html" target="_top" xlink:title="Self reallocating template array (like stl vector) with additional features.">
<polygon fill="white" stroke="black" points="708,-14.5 708,-33.5 822,-33.5 822,-14.5 708,-14.5"/>
<text text-anchor="middle" x="765" y="-21.5" font-family="Helvetica,sans-Serif" font-size="10.00">irr::core::array&lt; T &gt;</text>
</a>
</g>
</g>
<!-- Node19&#45;&gt;Node31 -->
<g id="edge44" class="edge">
<title>Node19&#45;&gt;Node31</title>
<path fill="none" stroke="#9a32cd" stroke-dasharray="5,2" d="M506.65,-166.62C518.54,-135.19 546.63,-73.75 593,-45 611.75,-33.38 665.66,-28.18 707.99,-25.86"/>
<polygon fill="#9a32cd" stroke="#9a32cd" points="503.23,-165.78 503.11,-176.38 509.81,-168.17 503.23,-165.78"/>
<text text-anchor="middle" x="638.5" y="-48" font-family="Helvetica,sans-Serif" font-size="10.00"> is_sorted</text>
</g>
<!-- Node20 -->
<g id="node20" class="node">
<title>Node20</title>
<g id="a_node20"><a xlink:title=" ">
<polygon fill="white" stroke="#bfbfbf" points="714,-801.5 714,-820.5 816,-820.5 816,-801.5 714,-801.5"/>
<text text-anchor="middle" x="765" y="-808.5" font-family="Helvetica,sans-Serif" font-size="10.00">E_TEXTURE_TYPE</text>
</a>
</g>
</g>
<!-- Node20&#45;&gt;Node2 -->
<g id="edge21" class="edge">
<title>Node20&#45;&gt;Node2</title>
<path fill="none" stroke="#9a32cd" stroke-dasharray="5,2" d="M826.53,-804.4C866.66,-799.42 920.32,-791.63 967,-781 995.84,-774.43 1028.1,-764.09 1050.19,-756.54"/>
<polygon fill="#9a32cd" stroke="#9a32cd" points="825.87,-800.95 816.37,-805.63 826.72,-807.9 825.87,-800.95"/>
<text text-anchor="middle" x="906.5" y="-804" font-family="Helvetica,sans-Serif" font-size="10.00"> Type</text>
</g>
<!-- Node21 -->
<g id="node21" class="node">
<title>Node21</title>
<g id="a_node21"><a xlink:title=" ">
<polygon fill="white" stroke="#bfbfbf" points="1026,-394 1026,-424 1130,-424 1130,-394 1026,-394"/>
<text text-anchor="start" x="1034" y="-412" font-family="Helvetica,sans-Serif" font-size="10.00">void(*)(const void</text>
<text text-anchor="middle" x="1078" y="-401" font-family="Helvetica,sans-Serif" font-size="10.00"> *, s32, void *)</text>
</a>
</g>
</g>
<!-- Node21&#45;&gt;Node1 -->
<g id="edge22" class="edge">
<title>Node21&#45;&gt;Node1</title>
<path fill="none" stroke="#9a32cd" stroke-dasharray="5,2" d="M1140.63,-406.68C1178,-403.37 1225.86,-395.67 1265,-378 1301.21,-361.65 1335.32,-329.18 1353.45,-310.06"/>
<polygon fill="#9a32cd" stroke="#9a32cd" points="1140.07,-403.21 1130.38,-407.5 1140.63,-410.19 1140.07,-403.21"/>
<text text-anchor="middle" x="1227" y="-402" font-family="Helvetica,sans-Serif" font-size="10.00"> Converter</text>
</g>
<!-- Node22&#45;&gt;Node1 -->
<g id="edge23" class="edge">
<title>Node22&#45;&gt;Node1</title>
<path fill="none" stroke="#9a32cd" stroke-dasharray="5,2" d="M1138.13,-514.56C1177.46,-508.38 1228.42,-495.19 1265,-467 1320,-424.62 1351.32,-343.48 1362.39,-310.01"/>
<polygon fill="#9a32cd" stroke="#9a32cd" points="1137.53,-511.11 1128.14,-516.02 1138.55,-518.04 1137.53,-511.11"/>
<text text-anchor="middle" x="1227" y="-506" font-family="Helvetica,sans-Serif" font-size="10.00"> LockImage</text>
</g>
<!-- Node23 -->
<g id="node23" class="node">
<title>Node23</title>
<g id="a_node23"><a xlink:title=" ">
<polygon fill="white" stroke="#bfbfbf" points="740,-357.5 740,-376.5 790,-376.5 790,-357.5 740,-357.5"/>
<text text-anchor="middle" x="765" y="-364.5" font-family="Helvetica,sans-Serif" font-size="10.00">uint8_t</text>
</a>
</g>
</g>
<!-- Node23&#45;&gt;Node1 -->
<g id="edge38" class="edge">
<title>Node23&#45;&gt;Node1</title>
<path fill="none" stroke="#9a32cd" stroke-dasharray="5,2" d="M800.16,-364.71C840.15,-362.01 908.4,-357.34 967,-353 1099.89,-343.16 1134.66,-347.73 1265,-320 1279.09,-317 1294.19,-313.47 1308.35,-310.03"/>
<polygon fill="#9a32cd" stroke="#9a32cd" points="799.88,-361.22 790.14,-365.39 800.35,-368.21 799.88,-361.22"/>
<text text-anchor="middle" x="1078" y="-354" font-family="Helvetica,sans-Serif" font-size="10.00"> MipLevelStored</text>
</g>
<!-- Node23&#45;&gt;Node22 -->
<g id="edge29" class="edge">
<title>Node23&#45;&gt;Node22</title>
<path fill="none" stroke="#9a32cd" stroke-dasharray="5,2" d="M800.09,-371.98C855.65,-380.2 960.25,-396.19 967,-401 980.6,-410.7 974.77,-420.79 985,-434 1009.37,-465.45 1045.59,-495.65 1064.49,-510.48"/>
<polygon fill="#9a32cd" stroke="#9a32cd" points="800.4,-368.48 790,-370.49 799.38,-375.41 800.4,-368.48"/>
<text text-anchor="middle" x="906.5" y="-415" font-family="Helvetica,sans-Serif" font-size="10.00"> MipMapsData</text>
<text text-anchor="middle" x="906.5" y="-404" font-family="Helvetica,sans-Serif" font-size="10.00">Data</text>
</g>
<!-- Node23&#45;&gt;Node27 -->
<g id="edge37" class="edge">
<title>Node23&#45;&gt;Node27</title>
<path fill="none" stroke="#9a32cd" stroke-dasharray="5,2" d="M782.64,-350.01C797.68,-335.95 821.22,-317.04 846,-309 890.16,-294.68 941.61,-293.92 984.73,-297.39"/>
<polygon fill="#9a32cd" stroke="#9a32cd" points="779.94,-347.75 775.2,-357.22 784.82,-352.77 779.94,-347.75"/>
<text text-anchor="middle" x="906.5" y="-345" font-family="Helvetica,sans-Serif" font-size="10.00"> AnisotropicFilter</text>
<text text-anchor="middle" x="906.5" y="-334" font-family="Helvetica,sans-Serif" font-size="10.00">WrapU</text>
<text text-anchor="middle" x="906.5" y="-323" font-family="Helvetica,sans-Serif" font-size="10.00">WrapV</text>
<text text-anchor="middle" x="906.5" y="-312" font-family="Helvetica,sans-Serif" font-size="10.00">WrapW</text>
</g>
<!-- Node24 -->
<g id="node24" class="node">
<title>Node24</title>
<g id="a_node24"><a xlink:title=" ">
<polygon fill="white" stroke="#bfbfbf" points="1057,-258.5 1057,-277.5 1099,-277.5 1099,-258.5 1057,-258.5"/>
<text text-anchor="middle" x="1078" y="-265.5" font-family="Helvetica,sans-Serif" font-size="10.00">GLint</text>
</a>
</g>
</g>
<!-- Node24&#45;&gt;Node1 -->
<g id="edge30" class="edge">
<title>Node24&#45;&gt;Node1</title>
<path fill="none" stroke="#9a32cd" stroke-dasharray="5,2" d="M1109.37,-270.85C1150.23,-274.68 1224.52,-281.64 1282.86,-287.11"/>
<polygon fill="#9a32cd" stroke="#9a32cd" points="1109.53,-267.35 1099.25,-269.9 1108.88,-274.32 1109.53,-267.35"/>
<text text-anchor="middle" x="1227" y="-287" font-family="Helvetica,sans-Serif" font-size="10.00"> InternalFormat</text>
</g>
<!-- Node25 -->
<g id="node25" class="node">
<title>Node25</title>
<g id="a_node25"><a xlink:title=" ">
<polygon fill="white" stroke="#bfbfbf" points="1028.5,-220.5 1028.5,-239.5 1127.5,-239.5 1127.5,-220.5 1028.5,-220.5"/>
<text text-anchor="middle" x="1078" y="-227.5" font-family="Helvetica,sans-Serif" font-size="10.00">TOpenGLDriver *</text>
</a>
</g>
</g>
<!-- Node25&#45;&gt;Node1 -->
<g id="edge31" class="edge">
<title>Node25&#45;&gt;Node1</title>
<path fill="none" stroke="#9a32cd" stroke-dasharray="5,2" d="M1137.93,-239C1174.69,-245.06 1222.86,-253.78 1265,-264 1283.71,-268.54 1304.05,-274.5 1321.61,-279.99"/>
<polygon fill="#9a32cd" stroke="#9a32cd" points="1138.31,-235.52 1127.88,-237.37 1137.19,-242.43 1138.31,-235.52"/>
<text text-anchor="middle" x="1227" y="-267" font-family="Helvetica,sans-Serif" font-size="10.00"> Driver</text>
</g>
<!-- Node26 -->
<g id="node26" class="node">
<title>Node26</title>
<g id="a_node26"><a xlink:title=" ">
<polygon fill="white" stroke="#bfbfbf" points="1049.5,-182.5 1049.5,-201.5 1106.5,-201.5 1106.5,-182.5 1049.5,-182.5"/>
<text text-anchor="middle" x="1078" y="-189.5" font-family="Helvetica,sans-Serif" font-size="10.00">GLenum</text>
</a>
</g>
</g>
<!-- Node26&#45;&gt;Node1 -->
<g id="edge32" class="edge">
<title>Node26&#45;&gt;Node1</title>
<path fill="none" stroke="#9a32cd" stroke-dasharray="5,2" d="M1117,-189.59C1155.73,-188.55 1216.81,-190.89 1265,-211 1302.05,-226.46 1336.11,-260.04 1353.95,-279.74"/>
<polygon fill="#9a32cd" stroke="#9a32cd" points="1116.56,-186.1 1106.69,-189.96 1116.81,-193.1 1116.56,-186.1"/>
<text text-anchor="middle" x="1227" y="-236" font-family="Helvetica,sans-Serif" font-size="10.00"> PixelType</text>
<text text-anchor="middle" x="1227" y="-225" font-family="Helvetica,sans-Serif" font-size="10.00">PixelFormat</text>
<text text-anchor="middle" x="1227" y="-214" font-family="Helvetica,sans-Serif" font-size="10.00">TextureType</text>
</g>
<!-- Node27&#45;&gt;Node1 -->
<g id="edge34" class="edge">
<title>Node27&#45;&gt;Node1</title>
<path fill="none" stroke="#9a32cd" stroke-dasharray="5,2" d="M1181.47,-305.95C1214.58,-304 1250.88,-301.85 1282.53,-299.99"/>
<polygon fill="#9a32cd" stroke="#9a32cd" points="1181.09,-302.47 1171.31,-306.55 1181.5,-309.46 1181.09,-302.47"/>
<text text-anchor="middle" x="1227" y="-308" font-family="Helvetica,sans-Serif" font-size="10.00"> StatesCache</text>
</g>
<!-- Node28 -->
<g id="node28" class="node">
<title>Node28</title>
<g id="a_node28"><a xlink:title=" ">
<polygon fill="white" stroke="#bfbfbf" points="743,-275.5 743,-294.5 787,-294.5 787,-275.5 743,-275.5"/>
<text text-anchor="middle" x="765" y="-282.5" font-family="Helvetica,sans-Serif" font-size="10.00">int8_t</text>
</a>
</g>
</g>
<!-- Node28&#45;&gt;Node27 -->
<g id="edge35" class="edge">
<title>Node28&#45;&gt;Node27</title>
<path fill="none" stroke="#9a32cd" stroke-dasharray="5,2" d="M797.43,-280.15C812.14,-278.12 829.92,-276 846,-275 899.67,-271.66 915.53,-259.42 967,-275 976.2,-277.79 976.25,-283.02 985,-287 993.29,-290.77 1002.26,-294.07 1011.24,-296.93"/>
<polygon fill="#9a32cd" stroke="#9a32cd" points="796.73,-276.72 787.32,-281.6 797.72,-283.65 796.73,-276.72"/>
<text text-anchor="middle" x="906.5" y="-278" font-family="Helvetica,sans-Serif" font-size="10.00"> LODBias</text>
</g>
<!-- Node29&#45;&gt;Node1 -->
<g id="edge40" class="edge">
<title>Node29&#45;&gt;Node1</title>
<path fill="none" stroke="#9a32cd" stroke-dasharray="5,2" d="M1143.23,-102.98C1181.34,-101.96 1229.07,-106.43 1265,-129 1322.29,-164.98 1352.32,-246.06 1362.72,-279.81"/>
<polygon fill="#9a32cd" stroke="#9a32cd" points="1142.6,-99.51 1132.75,-103.41 1142.88,-106.5 1142.6,-99.51"/>
<text text-anchor="middle" x="1227" y="-132" font-family="Helvetica,sans-Serif" font-size="10.00"> Images</text>
</g>
<!-- Node30 -->
<g id="node30" class="node">
<title>Node30</title>
<g id="a_node30"><a xlink:title=" ">
<polygon fill="white" stroke="#bfbfbf" points="714,-100 714,-130 816,-130 816,-100 714,-100"/>
<text text-anchor="start" x="722" y="-118" font-family="Helvetica,sans-Serif" font-size="10.00">vector&lt; irr::video</text>
<text text-anchor="middle" x="765" y="-107" font-family="Helvetica,sans-Serif" font-size="10.00">::IImage * &gt;</text>
</a>
</g>
</g>
<!-- Node30&#45;&gt;Node29 -->
<g id="edge42" class="edge">
<title>Node30&#45;&gt;Node29</title>
<path fill="none" stroke="#9a32cd" stroke-dasharray="5,2" d="M826.65,-114.02C883.81,-113.11 968.63,-111.74 1023.37,-110.86"/>
<polygon fill="#9a32cd" stroke="#9a32cd" points="826.26,-110.53 816.31,-114.19 826.37,-117.53 826.26,-110.53"/>
<text text-anchor="middle" x="906.5" y="-117" font-family="Helvetica,sans-Serif" font-size="10.00"> m_data</text>
</g>
<!-- Node31&#45;&gt;Node29 -->
<g id="edge43" class="edge">
<title>Node31&#45;&gt;Node29</title>
<path fill="none" stroke="orange" stroke-dasharray="5,2" d="M832.22,-15.06C874.55,-12.9 928.52,-17.18 967,-45 982.8,-56.42 970.17,-72.34 985,-85 995.83,-94.24 1009.76,-100.1 1023.49,-103.8"/>
<polygon fill="orange" stroke="orange" points="831.76,-11.58 822,-15.71 832.2,-18.56 831.76,-11.58"/>
<text text-anchor="middle" x="906.5" y="-48" font-family="Helvetica,sans-Serif" font-size="10.00"> &lt; irr::video::IImage * &gt;</text>
</g>
<!-- Node32 -->
<g id="node32" class="node">
<title>Node32</title>
<g id="a_node32"><a xlink:title=" ">
<polygon fill="white" stroke="#bfbfbf" points="461,-0.5 461,-19.5 537,-19.5 537,-0.5 461,-0.5"/>
<text text-anchor="middle" x="499" y="-7.5" font-family="Helvetica,sans-Serif" font-size="10.00">vector&lt; T &gt;</text>
</a>
</g>
</g>
<!-- Node32&#45;&gt;Node31 -->
<g id="edge45" class="edge">
<title>Node32&#45;&gt;Node31</title>
<path fill="none" stroke="#9a32cd" stroke-dasharray="5,2" d="M547.14,-8.24C584.36,-7.34 637.59,-7.13 684,-11 693.39,-11.78 703.35,-13.05 712.93,-14.49"/>
<polygon fill="#9a32cd" stroke="#9a32cd" points="546.98,-4.75 537.08,-8.51 547.17,-11.74 546.98,-4.75"/>
<text text-anchor="middle" x="638.5" y="-14" font-family="Helvetica,sans-Serif" font-size="10.00"> m_data</text>
</g>
<!-- Node33 -->
<g id="node33" class="node">
<title>Node33</title>
<g id="a_node33"><a xlink:title=" ">
<polygon fill="white" stroke="#bfbfbf" points="1054,-56.5 1054,-75.5 1102,-75.5 1102,-56.5 1054,-56.5"/>
<text text-anchor="middle" x="1078" y="-63.5" font-family="Helvetica,sans-Serif" font-size="10.00">GLuint</text>
</a>
</g>
</g>
<!-- Node33&#45;&gt;Node1 -->
<g id="edge46" class="edge">
<title>Node33&#45;&gt;Node1</title>
<path fill="none" stroke="#9a32cd" stroke-dasharray="5,2" d="M1112.09,-61.71C1152.11,-58.34 1219.74,-58.66 1265,-91 1331.21,-138.3 1356.85,-241.12 1364.39,-279.84"/>
<polygon fill="#9a32cd" stroke="#9a32cd" points="1111.67,-58.23 1102.05,-62.68 1112.35,-65.2 1111.67,-58.23"/>
<text text-anchor="middle" x="1227" y="-94" font-family="Helvetica,sans-Serif" font-size="10.00"> TextureName</text>
</g>
</g>
</svg>
