<?xml version="1.0" encoding="UTF-8" standalone="no"?>
<!DOCTYPE svg PUBLIC "-//W3C//DTD SVG 1.1//EN"
 "http://www.w3.org/Graphics/SVG/1.1/DTD/svg11.dtd">
<!-- Generated by graphviz version 2.43.0 (0)
 -->
<!-- Title: Logger Pages: 1 -->
<svg width="319pt" height="230pt"
 viewBox="0.00 0.00 319.00 230.00" xmlns="http://www.w3.org/2000/svg" xmlns:xlink="http://www.w3.org/1999/xlink">
<g id="graph0" class="graph" transform="scale(1 1) rotate(0) translate(4 226)">
<title>Logger</title>
<polygon fill="white" stroke="transparent" points="-4,4 -4,-226 315,-226 315,4 -4,4"/>
<!-- Node1 -->
<g id="node1" class="node">
<title>Node1</title>
<g id="a_node1"><a xlink:title=" ">
<polygon fill="#bfbfbf" stroke="black" points="261,-95.5 261,-114.5 311,-114.5 311,-95.5 261,-95.5"/>
<text text-anchor="middle" x="286" y="-102.5" font-family="Helvetica,sans-Serif" font-size="10.00">Logger</text>
</a>
</g>
</g>
<!-- Node2 -->
<g id="node2" class="node">
<title>Node2</title>
<g id="a_node2"><a xlink:title=" ">
<polygon fill="white" stroke="#bfbfbf" points="41.5,-202.5 41.5,-221.5 89.5,-221.5 89.5,-202.5 41.5,-202.5"/>
<text text-anchor="middle" x="65.5" y="-209.5" font-family="Helvetica,sans-Serif" font-size="10.00">mutex</text>
</a>
</g>
</g>
<!-- Node2&#45;&gt;Node1 -->
<g id="edge1" class="edge">
<title>Node2&#45;&gt;Node1</title>
<path fill="none" stroke="#9a32cd" stroke-dasharray="5,2" d="M99.62,-211.61C137.54,-209.63 199.94,-201.49 243,-171 263.17,-156.72 275.89,-129.38 281.56,-114.78"/>
<polygon fill="#9a32cd" stroke="#9a32cd" points="99.46,-208.12 89.61,-212.02 99.75,-215.11 99.46,-208.12"/>
<text text-anchor="middle" x="196" y="-208" font-family="Helvetica,sans-Serif" font-size="10.00"> m_mutex</text>
</g>
<!-- Node3 -->
<g id="node3" class="node">
<title>Node3</title>
<g id="a_node3"><a xlink:title=" ">
<polygon fill="white" stroke="#bfbfbf" points="5.5,-153 5.5,-183 125.5,-183 125.5,-153 5.5,-153"/>
<text text-anchor="start" x="13.5" y="-171" font-family="Helvetica,sans-Serif" font-size="10.00">map&lt; std::thread::id,</text>
<text text-anchor="middle" x="65.5" y="-160" font-family="Helvetica,sans-Serif" font-size="10.00"> std::string &gt;</text>
</a>
</g>
</g>
<!-- Node3&#45;&gt;Node1 -->
<g id="edge2" class="edge">
<title>Node3&#45;&gt;Node1</title>
<path fill="none" stroke="#9a32cd" stroke-dasharray="5,2" d="M135.71,-159.2C168.95,-153.56 208.88,-144.65 243,-131 253.35,-126.86 264.02,-120.22 272.01,-114.69"/>
<polygon fill="#9a32cd" stroke="#9a32cd" points="134.93,-155.79 125.62,-160.85 136.06,-162.69 134.93,-155.79"/>
<text text-anchor="middle" x="196" y="-159" font-family="Helvetica,sans-Serif" font-size="10.00"> m_thread_names</text>
</g>
<!-- Node4 -->
<g id="node4" class="node">
<title>Node4</title>
<g id="a_node4"><a xlink:title=" ">
<polygon fill="white" stroke="#bfbfbf" points="0,-114.5 0,-133.5 131,-133.5 131,-114.5 0,-114.5"/>
<text text-anchor="middle" x="65.5" y="-121.5" font-family="Helvetica,sans-Serif" font-size="10.00">vector&lt; ILogOutput * &gt;</text>
</a>
</g>
</g>
<!-- Node4&#45;&gt;Node1 -->
<g id="edge3" class="edge">
<title>Node4&#45;&gt;Node1</title>
<path fill="none" stroke="#9a32cd" stroke-dasharray="5,2" d="M141.33,-117.49C183.1,-113.86 232.33,-109.58 260.97,-107.09"/>
<polygon fill="#9a32cd" stroke="#9a32cd" points="140.83,-114.02 131.17,-118.38 141.44,-121 140.83,-114.02"/>
<text text-anchor="middle" x="196" y="-119" font-family="Helvetica,sans-Serif" font-size="10.00"> m_outputs</text>
</g>
<!-- Node5 -->
<g id="node5" class="node">
<title>Node5</title>
<g id="a_node5"><a xlink:href="classbool.html" target="_top" xlink:title=" ">
<polygon fill="white" stroke="black" points="46.5,-76.5 46.5,-95.5 84.5,-95.5 84.5,-76.5 46.5,-76.5"/>
<text text-anchor="middle" x="65.5" y="-83.5" font-family="Helvetica,sans-Serif" font-size="10.00">bool</text>
</a>
</g>
</g>
<!-- Node5&#45;&gt;Node1 -->
<g id="edge4" class="edge">
<title>Node5&#45;&gt;Node1</title>
<path fill="none" stroke="#9a32cd" stroke-dasharray="5,2" d="M95.08,-85.45C130.14,-85.21 191.28,-86.15 243,-94 248.81,-94.88 254.98,-96.25 260.75,-97.72"/>
<polygon fill="#9a32cd" stroke="#9a32cd" points="94.62,-81.96 84.66,-85.57 94.7,-88.96 94.62,-81.96"/>
<text text-anchor="middle" x="196" y="-97" font-family="Helvetica,sans-Serif" font-size="10.00"> m_silenced_levels</text>
</g>
<!-- Node6 -->
<g id="node6" class="node">
<title>Node6</title>
<g id="a_node6"><a xlink:title=" ">
<polygon fill="white" stroke="#bfbfbf" points="21,-38.5 21,-57.5 110,-57.5 110,-38.5 21,-38.5"/>
<text text-anchor="middle" x="65.5" y="-45.5" font-family="Helvetica,sans-Serif" font-size="10.00">static LogColor</text>
</a>
</g>
</g>
<!-- Node6&#45;&gt;Node1 -->
<g id="edge5" class="edge">
<title>Node6&#45;&gt;Node1</title>
<path fill="none" stroke="#9a32cd" stroke-dasharray="5,2" d="M120.61,-47.49C156.61,-48.94 204.23,-54.38 243,-71 255.93,-76.55 268.13,-87.27 276.01,-95.19"/>
<polygon fill="#9a32cd" stroke="#9a32cd" points="120.41,-43.98 110.31,-47.17 120.2,-50.98 120.41,-43.98"/>
<text text-anchor="middle" x="196" y="-74" font-family="Helvetica,sans-Serif" font-size="10.00"> color_mode</text>
</g>
<!-- Node7 -->
<g id="node7" class="node">
<title>Node7</title>
<g id="a_node7"><a xlink:title=" ">
<polygon fill="white" stroke="#bfbfbf" points="18.5,-0.5 18.5,-19.5 112.5,-19.5 112.5,-0.5 18.5,-0.5"/>
<text text-anchor="middle" x="65.5" y="-7.5" font-family="Helvetica,sans-Serif" font-size="10.00">atomic&lt; bool &gt;</text>
</a>
</g>
</g>
<!-- Node7&#45;&gt;Node1 -->
<g id="edge6" class="edge">
<title>Node7&#45;&gt;Node1</title>
<path fill="none" stroke="#9a32cd" stroke-dasharray="5,2" d="M122.86,-5.55C159.88,-5.37 207.79,-10.63 243,-34 265.2,-48.73 277.31,-79.54 282.28,-95.28"/>
<polygon fill="#9a32cd" stroke="#9a32cd" points="122.66,-2.05 112.72,-5.73 122.79,-9.05 122.66,-2.05"/>
<text text-anchor="middle" x="196" y="-37" font-family="Helvetica,sans-Serif" font-size="10.00"> m_has_outputs</text>
</g>
</g>
</svg>
