<?xml version="1.0" encoding="UTF-8" standalone="no"?>
<!DOCTYPE svg PUBLIC "-//W3C//DTD SVG 1.1//EN"
 "http://www.w3.org/Graphics/SVG/1.1/DTD/svg11.dtd">
<!-- Generated by graphviz version 2.43.0 (0)
 -->
<!-- Title: irr::video::COpenGLCoreRenderTarget&lt; TOpenGLDriver, TOpenGLTexture &gt; Pages: 1 -->
<svg width="237pt" height="151pt"
 viewBox="0.00 0.00 237.00 151.00" xmlns="http://www.w3.org/2000/svg" xmlns:xlink="http://www.w3.org/1999/xlink">
<g id="graph0" class="graph" transform="scale(1 1) rotate(0) translate(4 147)">
<title>irr::video::COpenGLCoreRenderTarget&lt; TOpenGLDriver, TOpenGLTexture &gt;</title>
<polygon fill="white" stroke="transparent" points="-4,4 -4,-147 233,-147 233,4 -4,4"/>
<!-- Node1 -->
<g id="node1" class="node">
<title>Node1</title>
<g id="a_node1"><a xlink:title=" ">
<polygon fill="#bfbfbf" stroke="black" points="0,-0.5 0,-30.5 229,-30.5 229,-0.5 0,-0.5"/>
<text text-anchor="start" x="8" y="-18.5" font-family="Helvetica,sans-Serif" font-size="10.00">irr::video::COpenGLCoreRender</text>
<text text-anchor="middle" x="114.5" y="-7.5" font-family="Helvetica,sans-Serif" font-size="10.00">Target&lt; TOpenGLDriver, TOpenGLTexture &gt;</text>
</a>
</g>
</g>
<!-- Node2 -->
<g id="node2" class="node">
<title>Node2</title>
<g id="a_node2"><a xlink:href="classirr_1_1video_1_1IRenderTarget.html" target="_top" xlink:title="Interface of a Render Target.">
<polygon fill="white" stroke="black" points="47.5,-67.5 47.5,-86.5 181.5,-86.5 181.5,-67.5 47.5,-67.5"/>
<text text-anchor="middle" x="114.5" y="-74.5" font-family="Helvetica,sans-Serif" font-size="10.00">irr::video::IRenderTarget</text>
</a>
</g>
</g>
<!-- Node2&#45;&gt;Node1 -->
<g id="edge1" class="edge">
<title>Node2&#45;&gt;Node1</title>
<path fill="none" stroke="midnightblue" d="M114.5,-57.23C114.5,-48.59 114.5,-38.5 114.5,-30.52"/>
<polygon fill="midnightblue" stroke="midnightblue" points="111,-57.48 114.5,-67.48 118,-57.48 111,-57.48"/>
</g>
<!-- Node3 -->
<g id="node3" class="node">
<title>Node3</title>
<g id="a_node3"><a xlink:href="classirr_1_1IReferenceCounted.html" target="_top" xlink:title="Base class of most objects of the Irrlicht Engine.">
<polygon fill="white" stroke="black" points="51.5,-123.5 51.5,-142.5 177.5,-142.5 177.5,-123.5 51.5,-123.5"/>
<text text-anchor="middle" x="114.5" y="-130.5" font-family="Helvetica,sans-Serif" font-size="10.00">irr::IReferenceCounted</text>
</a>
</g>
</g>
<!-- Node3&#45;&gt;Node2 -->
<g id="edge2" class="edge">
<title>Node3&#45;&gt;Node2</title>
<path fill="none" stroke="midnightblue" d="M114.5,-112.8C114.5,-103.91 114.5,-93.78 114.5,-86.75"/>
<polygon fill="midnightblue" stroke="midnightblue" points="111,-113.08 114.5,-123.08 118,-113.08 111,-113.08"/>
</g>
</g>
</svg>
