<?xml version="1.0" encoding="UTF-8" standalone="no"?>
<!DOCTYPE svg PUBLIC "-//W3C//DTD SVG 1.1//EN"
 "http://www.w3.org/Graphics/SVG/1.1/DTD/svg11.dtd">
<!-- Generated by graphviz version 2.43.0 (0)
 -->
<!-- Title: irr::scene::ISkinnedMesh Pages: 1 -->
<svg width="199pt" height="266pt"
 viewBox="0.00 0.00 199.00 266.00" xmlns="http://www.w3.org/2000/svg" xmlns:xlink="http://www.w3.org/1999/xlink">
<g id="graph0" class="graph" transform="scale(1 1) rotate(0) translate(4 262)">
<title>irr::scene::ISkinnedMesh</title>
<polygon fill="white" stroke="transparent" points="-4,4 -4,-262 195,-262 195,4 -4,4"/>
<!-- Node1 -->
<g id="node1" class="node">
<title>Node1</title>
<g id="a_node1"><a xlink:title="Interface for using some special functions of Skinned meshes.">
<polygon fill="#bfbfbf" stroke="black" points="4,-0.5 4,-19.5 140,-19.5 140,-0.5 4,-0.5"/>
<text text-anchor="middle" x="72" y="-7.5" font-family="Helvetica,sans-Serif" font-size="10.00">irr::scene::ISkinnedMesh</text>
</a>
</g>
</g>
<!-- Node2 -->
<g id="node2" class="node">
<title>Node2</title>
<g id="a_node2"><a xlink:href="classirr_1_1scene_1_1IAnimatedMesh.html" target="_top" xlink:title="Interface for an animated mesh.">
<polygon fill="white" stroke="black" points="0,-57.5 0,-76.5 144,-76.5 144,-57.5 0,-57.5"/>
<text text-anchor="middle" x="72" y="-64.5" font-family="Helvetica,sans-Serif" font-size="10.00">irr::scene::IAnimatedMesh</text>
</a>
</g>
</g>
<!-- Node2&#45;&gt;Node1 -->
<g id="edge1" class="edge">
<title>Node2&#45;&gt;Node1</title>
<path fill="none" stroke="midnightblue" d="M72,-47.12C72,-37.82 72,-27.06 72,-19.71"/>
<polygon fill="midnightblue" stroke="midnightblue" points="68.5,-47.41 72,-57.41 75.5,-47.41 68.5,-47.41"/>
</g>
<!-- Node3 -->
<g id="node3" class="node">
<title>Node3</title>
<g id="a_node3"><a xlink:href="classirr_1_1scene_1_1IMesh.html" target="_top" xlink:title="Class which holds the geometry of an object.">
<polygon fill="white" stroke="black" points="23.5,-114.5 23.5,-133.5 120.5,-133.5 120.5,-114.5 23.5,-114.5"/>
<text text-anchor="middle" x="72" y="-121.5" font-family="Helvetica,sans-Serif" font-size="10.00">irr::scene::IMesh</text>
</a>
</g>
</g>
<!-- Node3&#45;&gt;Node2 -->
<g id="edge2" class="edge">
<title>Node3&#45;&gt;Node2</title>
<path fill="none" stroke="midnightblue" d="M72,-104.12C72,-94.82 72,-84.06 72,-76.71"/>
<polygon fill="midnightblue" stroke="midnightblue" points="68.5,-104.41 72,-114.41 75.5,-104.41 68.5,-104.41"/>
</g>
<!-- Node4 -->
<g id="node4" class="node">
<title>Node4</title>
<g id="a_node4"><a xlink:href="classirr_1_1IReferenceCounted.html" target="_top" xlink:title="Base class of most objects of the Irrlicht Engine.">
<polygon fill="white" stroke="black" points="9,-171.5 9,-190.5 135,-190.5 135,-171.5 9,-171.5"/>
<text text-anchor="middle" x="72" y="-178.5" font-family="Helvetica,sans-Serif" font-size="10.00">irr::IReferenceCounted</text>
</a>
</g>
</g>
<!-- Node4&#45;&gt;Node3 -->
<g id="edge3" class="edge">
<title>Node4&#45;&gt;Node3</title>
<path fill="none" stroke="midnightblue" d="M72,-161.12C72,-151.82 72,-141.06 72,-133.71"/>
<polygon fill="midnightblue" stroke="midnightblue" points="68.5,-161.41 72,-171.41 75.5,-161.41 68.5,-161.41"/>
</g>
<!-- Node5 -->
<g id="node5" class="node">
<title>Node5</title>
<g id="a_node5"><a xlink:title=" ">
<polygon fill="white" stroke="#bfbfbf" points="10,-238.5 10,-257.5 48,-257.5 48,-238.5 10,-238.5"/>
<text text-anchor="middle" x="29" y="-245.5" font-family="Helvetica,sans-Serif" font-size="10.00">char</text>
</a>
</g>
</g>
<!-- Node5&#45;&gt;Node4 -->
<g id="edge4" class="edge">
<title>Node5&#45;&gt;Node4</title>
<path fill="none" stroke="#9a32cd" stroke-dasharray="5,2" d="M26.05,-228.26C25.9,-221.8 26.76,-214.75 30,-209 34.51,-200.99 42.48,-194.99 50.28,-190.7"/>
<polygon fill="#9a32cd" stroke="#9a32cd" points="22.57,-228.63 27.03,-238.24 29.54,-227.95 22.57,-228.63"/>
<text text-anchor="middle" x="62" y="-212" font-family="Helvetica,sans-Serif" font-size="10.00"> DebugName</text>
</g>
<!-- Node6 -->
<g id="node6" class="node">
<title>Node6</title>
<g id="a_node6"><a xlink:title=" ">
<polygon fill="white" stroke="#bfbfbf" points="91,-238.5 91,-257.5 141,-257.5 141,-238.5 91,-238.5"/>
<text text-anchor="middle" x="116" y="-245.5" font-family="Helvetica,sans-Serif" font-size="10.00">int32_t</text>
</a>
</g>
</g>
<!-- Node6&#45;&gt;Node4 -->
<g id="edge5" class="edge">
<title>Node6&#45;&gt;Node4</title>
<path fill="none" stroke="#9a32cd" stroke-dasharray="5,2" d="M106.65,-229.52C102.93,-222.94 98.48,-215.49 94,-209 89.6,-202.63 84.1,-195.88 79.7,-190.72"/>
<polygon fill="#9a32cd" stroke="#9a32cd" points="103.6,-231.23 111.48,-238.31 109.73,-227.86 103.6,-231.23"/>
<text text-anchor="middle" x="145.5" y="-212" font-family="Helvetica,sans-Serif" font-size="10.00"> ReferenceCounter</text>
</g>
</g>
</svg>
