<?xml version="1.0" encoding="UTF-8" standalone="no"?>
<!DOCTYPE svg PUBLIC "-//W3C//DTD SVG 1.1//EN"
 "http://www.w3.org/Graphics/SVG/1.1/DTD/svg11.dtd">
<!-- Generated by graphviz version 2.43.0 (0)
 -->
<!-- Title: irr::video::SColorf::getInterpolated Pages: 1 -->
<svg width="369pt" height="97pt"
 viewBox="0.00 0.00 369.00 96.50" xmlns="http://www.w3.org/2000/svg" xmlns:xlink="http://www.w3.org/1999/xlink">
<g id="graph0" class="graph" transform="scale(1 1) rotate(0) translate(4 92.5)">
<title>irr::video::SColorf::getInterpolated</title>
<polygon fill="white" stroke="transparent" points="-4,4 -4,-92.5 365,-92.5 365,4 -4,4"/>
<!-- Node1 -->
<g id="node1" class="node">
<title>Node1</title>
<g id="a_node1"><a xlink:title="Interpolates the color with a f32 value to another color.">
<polygon fill="#bfbfbf" stroke="black" points="0,-22.5 0,-52.5 101,-52.5 101,-22.5 0,-22.5"/>
<text text-anchor="start" x="8" y="-40.5" font-family="Helvetica,sans-Serif" font-size="10.00">irr::video::SColorf</text>
<text text-anchor="middle" x="50.5" y="-29.5" font-family="Helvetica,sans-Serif" font-size="10.00">::getInterpolated</text>
</a>
</g>
</g>
<!-- Node2 -->
<g id="node2" class="node">
<title>Node2</title>
<g id="a_node2"><a xlink:href="namespaceirr_1_1core.html#a6162f685b68f629e77336081d3316969" target="_top" xlink:title="clamps a value between low and high">
<polygon fill="white" stroke="black" points="142.5,-50 142.5,-69 232.5,-69 232.5,-50 142.5,-50"/>
<text text-anchor="middle" x="187.5" y="-57" font-family="Helvetica,sans-Serif" font-size="10.00">irr::core::clamp</text>
</a>
</g>
</g>
<!-- Node1&#45;&gt;Node2 -->
<g id="edge1" class="edge">
<title>Node1&#45;&gt;Node2</title>
<path fill="none" stroke="midnightblue" d="M101,-45.57C111.16,-47.22 121.91,-48.97 132.22,-50.66"/>
<polygon fill="midnightblue" stroke="midnightblue" points="131.93,-54.15 142.36,-52.31 133.05,-47.24 131.93,-54.15"/>
</g>
<!-- Node5 -->
<g id="node5" class="node">
<title>Node5</title>
<g id="a_node5"><a xlink:href="classirr_1_1video_1_1SColorf.html#a701ea1b449c2aae4a3dd44a13055ac3e" target="_top" xlink:title="Default constructor for SColorf.">
<polygon fill="white" stroke="black" points="137,-0.5 137,-30.5 238,-30.5 238,-0.5 137,-0.5"/>
<text text-anchor="start" x="145" y="-18.5" font-family="Helvetica,sans-Serif" font-size="10.00">irr::video::SColorf</text>
<text text-anchor="middle" x="187.5" y="-7.5" font-family="Helvetica,sans-Serif" font-size="10.00">::SColorf</text>
</a>
</g>
</g>
<!-- Node1&#45;&gt;Node5 -->
<g id="edge4" class="edge">
<title>Node1&#45;&gt;Node5</title>
<path fill="none" stroke="midnightblue" d="M101,-29.43C109.33,-28.08 118.06,-26.65 126.61,-25.26"/>
<polygon fill="midnightblue" stroke="midnightblue" points="127.24,-28.7 136.55,-23.64 126.12,-21.79 127.24,-28.7"/>
</g>
<!-- Node3 -->
<g id="node3" class="node">
<title>Node3</title>
<g id="a_node3"><a xlink:href="namespaceirr_1_1core.html#afca1ce7ac54e0c31a9047947f4c7319b" target="_top" xlink:title="returns maximum of two values. Own implementation to get rid of the STL (VS6 problems)">
<polygon fill="white" stroke="black" points="274,-69 274,-88 361,-88 361,-69 274,-69"/>
<text text-anchor="middle" x="317.5" y="-76" font-family="Helvetica,sans-Serif" font-size="10.00">irr::core::max_</text>
</a>
</g>
</g>
<!-- Node2&#45;&gt;Node3 -->
<g id="edge2" class="edge">
<title>Node2&#45;&gt;Node3</title>
<path fill="none" stroke="midnightblue" d="M232.55,-66.04C242.53,-67.52 253.23,-69.11 263.53,-70.64"/>
<polygon fill="midnightblue" stroke="midnightblue" points="263.26,-74.14 273.67,-72.14 264.29,-67.21 263.26,-74.14"/>
</g>
<!-- Node4 -->
<g id="node4" class="node">
<title>Node4</title>
<g id="a_node4"><a xlink:href="namespaceirr_1_1core.html#a9d34bfdbbe9c136b01ae04974572bc11" target="_top" xlink:title="returns minimum of two values. Own implementation to get rid of the STL (VS6 problems)">
<polygon fill="white" stroke="black" points="275.5,-31 275.5,-50 359.5,-50 359.5,-31 275.5,-31"/>
<text text-anchor="middle" x="317.5" y="-38" font-family="Helvetica,sans-Serif" font-size="10.00">irr::core::min_</text>
</a>
</g>
</g>
<!-- Node2&#45;&gt;Node4 -->
<g id="edge3" class="edge">
<title>Node2&#45;&gt;Node4</title>
<path fill="none" stroke="midnightblue" d="M232.55,-52.96C243.07,-51.4 254.39,-49.72 265.21,-48.11"/>
<polygon fill="midnightblue" stroke="midnightblue" points="266.01,-51.53 275.38,-46.6 264.98,-44.61 266.01,-51.53"/>
</g>
</g>
</svg>
