<?xml version="1.0" encoding="UTF-8" standalone="no"?>
<!DOCTYPE svg PUBLIC "-//W3C//DTD SVG 1.1//EN"
 "http://www.w3.org/Graphics/SVG/1.1/DTD/svg11.dtd">
<!-- Generated by graphviz version 2.43.0 (0)
 -->
<!-- Title: GUIEngine::~GUIEngine Pages: 1 -->
<svg width="304pt" height="127pt"
 viewBox="0.00 0.00 304.00 127.00" xmlns="http://www.w3.org/2000/svg" xmlns:xlink="http://www.w3.org/1999/xlink">
<g id="graph0" class="graph" transform="scale(1 1) rotate(0) translate(4 123)">
<title>GUIEngine::~GUIEngine</title>
<polygon fill="white" stroke="transparent" points="-4,4 -4,-123 300,-123 300,4 -4,4"/>
<!-- Node1 -->
<g id="node1" class="node">
<title>Node1</title>
<g id="a_node1"><a xlink:title=" ">
<polygon fill="#bfbfbf" stroke="black" points="0,-50 0,-69 133,-69 133,-50 0,-50"/>
<text text-anchor="middle" x="66.5" y="-57" font-family="Helvetica,sans-Serif" font-size="10.00">GUIEngine::~GUIEngine</text>
</a>
</g>
</g>
<!-- Node2 -->
<g id="node2" class="node">
<title>Node2</title>
<g id="a_node2"><a xlink:href="classirr_1_1video_1_1IVideoDriver.html#ac88319ec41daa23fef2ae935285afcc9" target="_top" xlink:title="Removes a texture from the texture cache and deletes it.">
<polygon fill="white" stroke="black" points="169,-88.5 169,-118.5 296,-118.5 296,-88.5 169,-88.5"/>
<text text-anchor="start" x="177" y="-106.5" font-family="Helvetica,sans-Serif" font-size="10.00">irr::video::IVideoDriver</text>
<text text-anchor="middle" x="232.5" y="-95.5" font-family="Helvetica,sans-Serif" font-size="10.00">::removeTexture</text>
</a>
</g>
</g>
<!-- Node1&#45;&gt;Node2 -->
<g id="edge1" class="edge">
<title>Node1&#45;&gt;Node2</title>
<path fill="none" stroke="midnightblue" d="M103.09,-69.05C121.39,-73.96 144.28,-80.1 165.66,-85.83"/>
<polygon fill="midnightblue" stroke="midnightblue" points="164.78,-89.22 175.35,-88.43 166.6,-82.46 164.78,-89.22"/>
</g>
<!-- Node3 -->
<g id="node3" class="node">
<title>Node3</title>
<g id="a_node3"><a xlink:href="classirr__ptr.html#a3b76ecadfd92afd990b84fdc53adef42" target="_top" xlink:title=" ">
<polygon fill="white" stroke="black" points="194,-50 194,-69 271,-69 271,-50 194,-50"/>
<text text-anchor="middle" x="232.5" y="-57" font-family="Helvetica,sans-Serif" font-size="10.00">irr_ptr::reset</text>
</a>
</g>
</g>
<!-- Node1&#45;&gt;Node3 -->
<g id="edge2" class="edge">
<title>Node1&#45;&gt;Node3</title>
<path fill="none" stroke="midnightblue" d="M133.26,-59.5C150.07,-59.5 167.84,-59.5 183.56,-59.5"/>
<polygon fill="midnightblue" stroke="midnightblue" points="183.58,-63 193.58,-59.5 183.58,-56 183.58,-63"/>
</g>
<!-- Node4 -->
<g id="node4" class="node">
<title>Node4</title>
<g id="a_node4"><a xlink:href="classirr_1_1gui_1_1IGUIElement.html#a8f864c26d4b2ee3551c53d3ebf870656" target="_top" xlink:title="Sets the new caption of this element.">
<polygon fill="white" stroke="black" points="174.5,-0.5 174.5,-30.5 290.5,-30.5 290.5,-0.5 174.5,-0.5"/>
<text text-anchor="start" x="182.5" y="-18.5" font-family="Helvetica,sans-Serif" font-size="10.00">irr::gui::IGUIElement</text>
<text text-anchor="middle" x="232.5" y="-7.5" font-family="Helvetica,sans-Serif" font-size="10.00">::setText</text>
</a>
</g>
</g>
<!-- Node1&#45;&gt;Node4 -->
<g id="edge3" class="edge">
<title>Node1&#45;&gt;Node4</title>
<path fill="none" stroke="midnightblue" d="M103.09,-49.95C121.39,-45.04 144.28,-38.9 165.66,-33.17"/>
<polygon fill="midnightblue" stroke="midnightblue" points="166.6,-36.54 175.35,-30.57 164.78,-29.78 166.6,-36.54"/>
</g>
</g>
</svg>
