<?xml version="1.0" encoding="UTF-8" standalone="no"?>
<!DOCTYPE svg PUBLIC "-//W3C//DTD SVG 1.1//EN"
 "http://www.w3.org/Graphics/SVG/1.1/DTD/svg11.dtd">
<!-- Generated by graphviz version 2.43.0 (0)
 -->
<!-- Title: AuthDatabasePostgreSQL Pages: 1 -->
<svg width="236pt" height="140pt"
 viewBox="0.00 0.00 236.00 140.00" xmlns="http://www.w3.org/2000/svg" xmlns:xlink="http://www.w3.org/1999/xlink">
<g id="graph0" class="graph" transform="scale(1 1) rotate(0) translate(4 136)">
<title>AuthDatabasePostgreSQL</title>
<polygon fill="white" stroke="transparent" points="-4,4 -4,-136 232,-136 232,4 -4,4"/>
<!-- Node1 -->
<g id="node1" class="node">
<title>Node1</title>
<g id="a_node1"><a xlink:title=" ">
<polygon fill="#bfbfbf" stroke="black" points="52.5,-0.5 52.5,-19.5 193.5,-19.5 193.5,-0.5 52.5,-0.5"/>
<text text-anchor="middle" x="123" y="-7.5" font-family="Helvetica,sans-Serif" font-size="10.00">AuthDatabasePostgreSQL</text>
</a>
</g>
</g>
<!-- Node2 -->
<g id="node2" class="node">
<title>Node2</title>
<g id="a_node2"><a xlink:href="classDatabase__PostgreSQL.html" target="_top" xlink:title=" ">
<polygon fill="white" stroke="black" points="0,-56.5 0,-75.5 124,-75.5 124,-56.5 0,-56.5"/>
<text text-anchor="middle" x="62" y="-63.5" font-family="Helvetica,sans-Serif" font-size="10.00">Database_PostgreSQL</text>
</a>
</g>
</g>
<!-- Node2&#45;&gt;Node1 -->
<g id="edge1" class="edge">
<title>Node2&#45;&gt;Node1</title>
<path fill="none" stroke="#8b1a1a" d="M79.47,-49.54C90.34,-39.91 103.94,-27.87 113.02,-19.83"/>
<polygon fill="#8b1a1a" stroke="#8b1a1a" points="76.97,-47.07 71.8,-56.32 81.61,-52.32 76.97,-47.07"/>
</g>
<!-- Node3 -->
<g id="node3" class="node">
<title>Node3</title>
<g id="a_node3"><a xlink:href="classDatabase.html" target="_top" xlink:title=" ">
<polygon fill="white" stroke="black" points="30.5,-112.5 30.5,-131.5 93.5,-131.5 93.5,-112.5 30.5,-112.5"/>
<text text-anchor="middle" x="62" y="-119.5" font-family="Helvetica,sans-Serif" font-size="10.00">Database</text>
</a>
</g>
</g>
<!-- Node3&#45;&gt;Node2 -->
<g id="edge2" class="edge">
<title>Node3&#45;&gt;Node2</title>
<path fill="none" stroke="midnightblue" d="M62,-101.8C62,-92.91 62,-82.78 62,-75.75"/>
<polygon fill="midnightblue" stroke="midnightblue" points="58.5,-102.08 62,-112.08 65.5,-102.08 58.5,-102.08"/>
</g>
<!-- Node4 -->
<g id="node4" class="node">
<title>Node4</title>
<g id="a_node4"><a xlink:href="classAuthDatabase.html" target="_top" xlink:title=" ">
<polygon fill="white" stroke="black" points="142,-56.5 142,-75.5 228,-75.5 228,-56.5 142,-56.5"/>
<text text-anchor="middle" x="185" y="-63.5" font-family="Helvetica,sans-Serif" font-size="10.00">AuthDatabase</text>
</a>
</g>
</g>
<!-- Node4&#45;&gt;Node1 -->
<g id="edge3" class="edge">
<title>Node4&#45;&gt;Node1</title>
<path fill="none" stroke="midnightblue" d="M167.25,-49.54C156.19,-39.91 142.37,-27.87 133.14,-19.83"/>
<polygon fill="midnightblue" stroke="midnightblue" points="165.2,-52.4 175.04,-56.32 169.8,-47.12 165.2,-52.4"/>
</g>
</g>
</svg>
