<?xml version="1.0" encoding="UTF-8" standalone="no"?>
<!DOCTYPE svg PUBLIC "-//W3C//DTD SVG 1.1//EN"
 "http://www.w3.org/Graphics/SVG/1.1/DTD/svg11.dtd">
<!-- Generated by graphviz version 2.43.0 (0)
 -->
<!-- Title: net.minetest.minetest.GameActivity Pages: 1 -->
<svg width="357pt" height="106pt"
 viewBox="0.00 0.00 357.00 106.00" xmlns="http://www.w3.org/2000/svg" xmlns:xlink="http://www.w3.org/1999/xlink">
<g id="graph0" class="graph" transform="scale(1 1) rotate(0) translate(4 102)">
<title>net.minetest.minetest.GameActivity</title>
<polygon fill="white" stroke="transparent" points="-4,4 -4,-102 353,-102 353,4 -4,4"/>
<!-- Node1 -->
<g id="node1" class="node">
<title>Node1</title>
<g id="a_node1"><a xlink:title=" ">
<polygon fill="#bfbfbf" stroke="black" points="48,-0.5 48,-30.5 206,-30.5 206,-0.5 48,-0.5"/>
<text text-anchor="start" x="56" y="-18.5" font-family="Helvetica,sans-Serif" font-size="10.00">net.minetest.minetest.Game</text>
<text text-anchor="middle" x="127" y="-7.5" font-family="Helvetica,sans-Serif" font-size="10.00">Activity</text>
</a>
</g>
</g>
<!-- Node2 -->
<g id="node2" class="node">
<title>Node2</title>
<g id="a_node2"><a xlink:title=" ">
<polygon fill="white" stroke="#bfbfbf" points="0,-78.5 0,-97.5 86,-97.5 86,-78.5 0,-78.5"/>
<text text-anchor="middle" x="43" y="-85.5" font-family="Helvetica,sans-Serif" font-size="10.00">NativeActivity</text>
</a>
</g>
</g>
<!-- Node2&#45;&gt;Node1 -->
<g id="edge1" class="edge">
<title>Node2&#45;&gt;Node1</title>
<path fill="none" stroke="midnightblue" d="M61.13,-71.78C75.71,-59.55 96.02,-42.5 110.23,-30.58"/>
<polygon fill="midnightblue" stroke="midnightblue" points="58.71,-69.25 53.3,-78.36 63.21,-74.61 58.71,-69.25"/>
</g>
<!-- Node3 -->
<g id="node3" class="node">
<title>Node3</title>
<g id="a_node3"><a xlink:title=" ">
<polygon fill="white" stroke="#bfbfbf" points="104.5,-78.5 104.5,-97.5 149.5,-97.5 149.5,-78.5 104.5,-78.5"/>
<text text-anchor="middle" x="127" y="-85.5" font-family="Helvetica,sans-Serif" font-size="10.00">String</text>
</a>
</g>
</g>
<!-- Node3&#45;&gt;Node1 -->
<g id="edge2" class="edge">
<title>Node3&#45;&gt;Node1</title>
<path fill="none" stroke="#9a32cd" stroke-dasharray="5,2" d="M127,-68.24C127,-56.41 127,-41.38 127,-30.58"/>
<polygon fill="#9a32cd" stroke="#9a32cd" points="123.5,-68.36 127,-78.36 130.5,-68.36 123.5,-68.36"/>
<text text-anchor="middle" x="180.5" y="-52" font-family="Helvetica,sans-Serif" font-size="10.00"> messageReturnValue</text>
</g>
<!-- Node4 -->
<g id="node4" class="node">
<title>Node4</title>
<g id="a_node4"><a xlink:title=" ">
<polygon fill="white" stroke="#bfbfbf" points="242.5,-78.5 242.5,-97.5 271.5,-97.5 271.5,-78.5 242.5,-78.5"/>
<text text-anchor="middle" x="257" y="-85.5" font-family="Helvetica,sans-Serif" font-size="10.00">int</text>
</a>
</g>
</g>
<!-- Node4&#45;&gt;Node1 -->
<g id="edge3" class="edge">
<title>Node4&#45;&gt;Node1</title>
<path fill="none" stroke="#9a32cd" stroke-dasharray="5,2" d="M250,-68.87C246.46,-61.79 241.51,-54.15 235,-49 225.02,-41.1 213.14,-35.12 200.98,-30.59"/>
<polygon fill="#9a32cd" stroke="#9a32cd" points="246.99,-70.72 254.2,-78.49 253.41,-67.93 246.99,-70.72"/>
<text text-anchor="middle" x="296.5" y="-52" font-family="Helvetica,sans-Serif" font-size="10.00"> messageReturnCode</text>
</g>
</g>
</svg>
