<?xml version="1.0" encoding="UTF-8" standalone="no"?>
<!DOCTYPE svg PUBLIC "-//W3C//DTD SVG 1.1//EN"
 "http://www.w3.org/Graphics/SVG/1.1/DTD/svg11.dtd">
<!-- Generated by graphviz version 2.43.0 (0)
 -->
<!-- Title: StorageRef Pages: 1 -->
<svg width="538pt" height="219pt"
 viewBox="0.00 0.00 537.50 219.00" xmlns="http://www.w3.org/2000/svg" xmlns:xlink="http://www.w3.org/1999/xlink">
<g id="graph0" class="graph" transform="scale(1 1) rotate(0) translate(4 215)">
<title>StorageRef</title>
<polygon fill="white" stroke="transparent" points="-4,4 -4,-215 533.5,-215 533.5,4 -4,4"/>
<!-- Node1 -->
<g id="node1" class="node">
<title>Node1</title>
<g id="a_node1"><a xlink:title=" ">
<polygon fill="#bfbfbf" stroke="black" points="117,-0.5 117,-19.5 188,-19.5 188,-0.5 117,-0.5"/>
<text text-anchor="middle" x="152.5" y="-7.5" font-family="Helvetica,sans-Serif" font-size="10.00">StorageRef</text>
</a>
</g>
</g>
<!-- Node2 -->
<g id="node2" class="node">
<title>Node2</title>
<g id="a_node2"><a xlink:href="classMetaDataRef.html" target="_top" xlink:title=" ">
<polygon fill="white" stroke="black" points="0,-67.5 0,-86.5 81,-86.5 81,-67.5 0,-67.5"/>
<text text-anchor="middle" x="40.5" y="-74.5" font-family="Helvetica,sans-Serif" font-size="10.00">MetaDataRef</text>
</a>
</g>
</g>
<!-- Node2&#45;&gt;Node1 -->
<g id="edge1" class="edge">
<title>Node2&#45;&gt;Node1</title>
<path fill="none" stroke="midnightblue" d="M63.26,-61.98C75.18,-54.71 90.05,-45.76 103.5,-38 114.44,-31.69 126.9,-24.83 136.52,-19.6"/>
<polygon fill="midnightblue" stroke="midnightblue" points="61.12,-59.18 54.42,-67.39 64.78,-65.15 61.12,-59.18"/>
</g>
<!-- Node3 -->
<g id="node3" class="node">
<title>Node3</title>
<g id="a_node3"><a xlink:href="classModApiBase.html" target="_top" xlink:title=" ">
<polygon fill="white" stroke="black" points="2,-134.5 2,-153.5 79,-153.5 79,-134.5 2,-134.5"/>
<text text-anchor="middle" x="40.5" y="-141.5" font-family="Helvetica,sans-Serif" font-size="10.00">ModApiBase</text>
</a>
</g>
</g>
<!-- Node3&#45;&gt;Node2 -->
<g id="edge2" class="edge">
<title>Node3&#45;&gt;Node2</title>
<path fill="none" stroke="midnightblue" d="M40.5,-124.04C40.5,-111.67 40.5,-96.12 40.5,-86.63"/>
<polygon fill="midnightblue" stroke="midnightblue" points="37,-124.23 40.5,-134.23 44,-124.23 37,-124.23"/>
</g>
<!-- Node4 -->
<g id="node4" class="node">
<title>Node4</title>
<g id="a_node4"><a xlink:href="classLuaHelper.html" target="_top" xlink:title=" ">
<polygon fill="white" stroke="black" points="7.5,-191.5 7.5,-210.5 73.5,-210.5 73.5,-191.5 7.5,-191.5"/>
<text text-anchor="middle" x="40.5" y="-198.5" font-family="Helvetica,sans-Serif" font-size="10.00">LuaHelper</text>
</a>
</g>
</g>
<!-- Node4&#45;&gt;Node3 -->
<g id="edge3" class="edge">
<title>Node4&#45;&gt;Node3</title>
<path fill="none" stroke="darkgreen" d="M40.5,-181.12C40.5,-171.82 40.5,-161.06 40.5,-153.71"/>
<polygon fill="darkgreen" stroke="darkgreen" points="37,-181.41 40.5,-191.41 44,-181.41 37,-181.41"/>
</g>
<!-- Node5 -->
<g id="node5" class="node">
<title>Node5</title>
<g id="a_node5"><a xlink:href="structluaL__Reg.html" target="_top" xlink:title=" ">
<polygon fill="white" stroke="black" points="194,-67.5 194,-86.5 255,-86.5 255,-67.5 194,-67.5"/>
<text text-anchor="middle" x="224.5" y="-74.5" font-family="Helvetica,sans-Serif" font-size="10.00">luaL_Reg</text>
</a>
</g>
</g>
<!-- Node5&#45;&gt;Node1 -->
<g id="edge4" class="edge">
<title>Node5&#45;&gt;Node1</title>
<path fill="none" stroke="#9a32cd" stroke-dasharray="5,2" d="M207.17,-60.36C193.02,-47.58 173.54,-29.99 162.06,-19.63"/>
<polygon fill="#9a32cd" stroke="#9a32cd" points="205.02,-63.13 214.79,-67.23 209.71,-57.93 205.02,-63.13"/>
<text text-anchor="middle" x="216.5" y="-41" font-family="Helvetica,sans-Serif" font-size="10.00"> methods</text>
</g>
<!-- Node6 -->
<g id="node6" class="node">
<title>Node6</title>
<g id="a_node6"><a xlink:title=" ">
<polygon fill="white" stroke="#bfbfbf" points="116.5,-134.5 116.5,-153.5 154.5,-153.5 154.5,-134.5 116.5,-134.5"/>
<text text-anchor="middle" x="135.5" y="-141.5" font-family="Helvetica,sans-Serif" font-size="10.00">char</text>
</a>
</g>
</g>
<!-- Node6&#45;&gt;Node1 -->
<g id="edge7" class="edge">
<title>Node6&#45;&gt;Node1</title>
<path fill="none" stroke="#9a32cd" stroke-dasharray="5,2" d="M129.91,-124.61C126.01,-109.11 122.21,-86.42 126.5,-67 130.43,-49.21 140.61,-30.35 147,-19.69"/>
<polygon fill="#9a32cd" stroke="#9a32cd" points="126.6,-125.78 132.65,-134.47 133.35,-123.9 126.6,-125.78"/>
<text text-anchor="middle" x="155.5" y="-74.5" font-family="Helvetica,sans-Serif" font-size="10.00"> className</text>
</g>
<!-- Node6&#45;&gt;Node5 -->
<g id="edge5" class="edge">
<title>Node6&#45;&gt;Node5</title>
<path fill="none" stroke="#9a32cd" stroke-dasharray="5,2" d="M152.77,-127.83C161.22,-120.64 171.68,-112.1 181.5,-105 190.65,-98.39 201.4,-91.64 209.86,-86.54"/>
<polygon fill="#9a32cd" stroke="#9a32cd" points="150.36,-125.29 145.08,-134.47 154.94,-130.59 150.36,-125.29"/>
<text text-anchor="middle" x="197" y="-108" font-family="Helvetica,sans-Serif" font-size="10.00"> name</text>
</g>
<!-- Node7 -->
<g id="node7" class="node">
<title>Node7</title>
<g id="a_node7"><a xlink:title=" ">
<polygon fill="white" stroke="#bfbfbf" points="195,-134.5 195,-153.5 224,-153.5 224,-134.5 195,-134.5"/>
<text text-anchor="middle" x="209.5" y="-141.5" font-family="Helvetica,sans-Serif" font-size="10.00">int</text>
</a>
</g>
</g>
<!-- Node7&#45;&gt;Node5 -->
<g id="edge6" class="edge">
<title>Node7&#45;&gt;Node5</title>
<path fill="none" stroke="#9a32cd" stroke-dasharray="5,2" d="M213.79,-124.41C216.66,-111.99 220.3,-96.22 222.51,-86.63"/>
<polygon fill="#9a32cd" stroke="#9a32cd" points="210.36,-123.7 211.52,-134.23 217.18,-125.28 210.36,-123.7"/>
<text text-anchor="middle" x="231" y="-108" font-family="Helvetica,sans-Serif" font-size="10.00"> func</text>
</g>
<!-- Node8 -->
<g id="node8" class="node">
<title>Node8</title>
<g id="a_node8"><a xlink:href="classModStorage.html" target="_top" xlink:title=" ">
<polygon fill="white" stroke="black" points="311,-67.5 311,-86.5 386,-86.5 386,-67.5 311,-67.5"/>
<text text-anchor="middle" x="348.5" y="-74.5" font-family="Helvetica,sans-Serif" font-size="10.00">ModStorage</text>
</a>
</g>
</g>
<!-- Node8&#45;&gt;Node1 -->
<g id="edge8" class="edge">
<title>Node8&#45;&gt;Node1</title>
<path fill="none" stroke="#9a32cd" stroke-dasharray="5,2" d="M316.53,-63.88C295.81,-56.16 268.19,-46.12 243.5,-38 223.46,-31.41 200.71,-24.66 182.97,-19.56"/>
<polygon fill="#9a32cd" stroke="#9a32cd" points="315.51,-67.23 326.1,-67.46 317.96,-60.68 315.51,-67.23"/>
<text text-anchor="middle" x="300" y="-41" font-family="Helvetica,sans-Serif" font-size="10.00"> m_object</text>
</g>
<!-- Node9 -->
<g id="node9" class="node">
<title>Node9</title>
<g id="a_node9"><a xlink:href="classIMetadata.html" target="_top" xlink:title=" ">
<polygon fill="white" stroke="black" points="242.5,-134.5 242.5,-153.5 308.5,-153.5 308.5,-134.5 242.5,-134.5"/>
<text text-anchor="middle" x="275.5" y="-141.5" font-family="Helvetica,sans-Serif" font-size="10.00">IMetadata</text>
</a>
</g>
</g>
<!-- Node9&#45;&gt;Node8 -->
<g id="edge9" class="edge">
<title>Node9&#45;&gt;Node8</title>
<path fill="none" stroke="midnightblue" d="M293.07,-127.36C307.42,-114.58 327.17,-96.99 338.81,-86.63"/>
<polygon fill="midnightblue" stroke="midnightblue" points="290.49,-124.97 285.35,-134.23 295.14,-130.2 290.49,-124.97"/>
</g>
<!-- Node10 -->
<g id="node10" class="node">
<title>Node10</title>
<g id="a_node10"><a xlink:href="classModStorageDatabase.html" target="_top" xlink:title=" ">
<polygon fill="white" stroke="black" points="326.5,-134.5 326.5,-153.5 448.5,-153.5 448.5,-134.5 326.5,-134.5"/>
<text text-anchor="middle" x="387.5" y="-141.5" font-family="Helvetica,sans-Serif" font-size="10.00">ModStorageDatabase</text>
</a>
</g>
</g>
<!-- Node10&#45;&gt;Node8 -->
<g id="edge10" class="edge">
<title>Node10&#45;&gt;Node8</title>
<path fill="none" stroke="#9a32cd" stroke-dasharray="5,2" d="M377.02,-125.53C369.47,-112.95 359.6,-96.51 353.68,-86.63"/>
<polygon fill="#9a32cd" stroke="#9a32cd" points="374.09,-127.46 382.24,-134.23 380.1,-123.86 374.09,-127.46"/>
<text text-anchor="middle" x="402.5" y="-108" font-family="Helvetica,sans-Serif" font-size="10.00"> m_database</text>
</g>
<!-- Node11 -->
<g id="node11" class="node">
<title>Node11</title>
<g id="a_node11"><a xlink:href="classDatabase.html" target="_top" xlink:title=" ">
<polygon fill="white" stroke="black" points="356,-191.5 356,-210.5 419,-210.5 419,-191.5 356,-191.5"/>
<text text-anchor="middle" x="387.5" y="-198.5" font-family="Helvetica,sans-Serif" font-size="10.00">Database</text>
</a>
</g>
</g>
<!-- Node11&#45;&gt;Node10 -->
<g id="edge11" class="edge">
<title>Node11&#45;&gt;Node10</title>
<path fill="none" stroke="midnightblue" d="M387.5,-181.12C387.5,-171.82 387.5,-161.06 387.5,-153.71"/>
<polygon fill="midnightblue" stroke="midnightblue" points="384,-181.41 387.5,-191.41 391,-181.41 384,-181.41"/>
</g>
<!-- Node12 -->
<g id="node12" class="node">
<title>Node12</title>
<g id="a_node12"><a xlink:title=" ">
<polygon fill="white" stroke="#bfbfbf" points="466.5,-134.5 466.5,-153.5 510.5,-153.5 510.5,-134.5 466.5,-134.5"/>
<text text-anchor="middle" x="488.5" y="-141.5" font-family="Helvetica,sans-Serif" font-size="10.00">string</text>
</a>
</g>
</g>
<!-- Node12&#45;&gt;Node8 -->
<g id="edge12" class="edge">
<title>Node12&#45;&gt;Node8</title>
<path fill="none" stroke="#9a32cd" stroke-dasharray="5,2" d="M471.6,-127.72C462.36,-120.02 450.4,-111.06 438.5,-105 422.22,-96.71 402.95,-90.51 386.44,-86.15"/>
<polygon fill="#9a32cd" stroke="#9a32cd" points="469.38,-130.43 479.24,-134.31 473.96,-125.13 469.38,-130.43"/>
<text text-anchor="middle" x="493" y="-108" font-family="Helvetica,sans-Serif" font-size="10.00"> m_mod_name</text>
</g>
</g>
</svg>
