<?xml version="1.0" encoding="UTF-8" standalone="no"?>
<!DOCTYPE svg PUBLIC "-//W3C//DTD SVG 1.1//EN"
 "http://www.w3.org/Graphics/SVG/1.1/DTD/svg11.dtd">
<!-- Generated by graphviz version 2.43.0 (0)
 -->
<!-- Title: irr::core::string&lt; T &gt; Pages: 1 -->
<svg width="252pt" height="95pt"
 viewBox="0.00 0.00 252.00 95.00" xmlns="http://www.w3.org/2000/svg" xmlns:xlink="http://www.w3.org/1999/xlink">
<g id="graph0" class="graph" transform="scale(1 1) rotate(0) translate(4 91)">
<title>irr::core::string&lt; T &gt;</title>
<polygon fill="white" stroke="transparent" points="-4,4 -4,-91 248,-91 248,4 -4,4"/>
<!-- Node1 -->
<g id="node1" class="node">
<title>Node1</title>
<g id="a_node1"><a xlink:title="Very simple string class with some useful features.">
<polygon fill="#bfbfbf" stroke="black" points="59,-0.5 59,-19.5 175,-19.5 175,-0.5 59,-0.5"/>
<text text-anchor="middle" x="117" y="-7.5" font-family="Helvetica,sans-Serif" font-size="10.00">irr::core::string&lt; T &gt;</text>
</a>
</g>
</g>
<!-- Node2 -->
<g id="node2" class="node">
<title>Node2</title>
<g id="a_node2"><a xlink:title=" ">
<polygon fill="white" stroke="#bfbfbf" points="0,-67.5 0,-86.5 104,-86.5 104,-67.5 0,-67.5"/>
<text text-anchor="middle" x="52" y="-74.5" font-family="Helvetica,sans-Serif" font-size="10.00">basic_string&lt; T &gt;</text>
</a>
</g>
</g>
<!-- Node2&#45;&gt;Node1 -->
<g id="edge1" class="edge">
<title>Node2&#45;&gt;Node1</title>
<path fill="none" stroke="#9a32cd" stroke-dasharray="5,2" d="M68,-60C80.75,-47.25 98.11,-29.89 108.37,-19.63"/>
<polygon fill="#9a32cd" stroke="#9a32cd" points="65.36,-57.69 60.77,-67.23 70.31,-62.64 65.36,-57.69"/>
<text text-anchor="middle" x="97" y="-41" font-family="Helvetica,sans-Serif" font-size="10.00"> str</text>
</g>
<!-- Node3 -->
<g id="node3" class="node">
<title>Node3</title>
<g id="a_node3"><a xlink:title=" ">
<polygon fill="white" stroke="#bfbfbf" points="122,-67.5 122,-86.5 244,-86.5 244,-67.5 122,-67.5"/>
<text text-anchor="middle" x="183" y="-74.5" font-family="Helvetica,sans-Serif" font-size="10.00">static const size_type</text>
</a>
</g>
</g>
<!-- Node3&#45;&gt;Node1 -->
<g id="edge2" class="edge">
<title>Node3&#45;&gt;Node1</title>
<path fill="none" stroke="#9a32cd" stroke-dasharray="5,2" d="M166.75,-60C153.81,-47.25 136.19,-29.89 125.76,-19.63"/>
<polygon fill="#9a32cd" stroke="#9a32cd" points="164.52,-62.71 174.1,-67.23 169.43,-57.72 164.52,-62.71"/>
<text text-anchor="middle" x="166.5" y="-41" font-family="Helvetica,sans-Serif" font-size="10.00"> npos</text>
</g>
</g>
</svg>
