<?xml version="1.0" encoding="UTF-8" standalone="no"?>
<!DOCTYPE svg PUBLIC "-//W3C//DTD SVG 1.1//EN"
 "http://www.w3.org/Graphics/SVG/1.1/DTD/svg11.dtd">
<!-- Generated by graphviz version 2.43.0 (0)
 -->
<!-- Title: GUIModalMenu Pages: 1 -->
<!--zoomable 884 -->
<svg id="main" version="1.1" xmlns="http://www.w3.org/2000/svg" xmlns:xlink="http://www.w3.org/1999/xlink" xml:space="preserve" onload="init(evt)">
<style type="text/css"><![CDATA[
.edge:hover path { stroke: red; }
.edge:hover polygon { stroke: red; fill: red; }
]]></style>
<script type="text/javascript"><![CDATA[
var edges = document.getElementsByTagName('g');
if (edges && edges.length) {
  for (var i=0;i<edges.length;i++) {
    if (edges[i].id.substr(0,4)=='edge') {
      edges[i].setAttribute('class','edge');
    }
  }
}
]]></script>
        <defs>
                <circle id="rim" cx="0" cy="0" r="7"/>
                <circle id="rim2" cx="0" cy="0" r="3.5"/>
                <g id="zoomPlus">
                        <use xlink:href="#rim" fill="#404040">
                                <set attributeName="fill" to="#808080" begin="zoomplus.mouseover" end="zoomplus.mouseout"/>
                        </use>
                        <path d="M-4,0h8M0,-4v8" fill="none" stroke="white" stroke-width="1.5" pointer-events="none"/>
                </g>
                <g id="zoomMin">
                        <use xlink:href="#rim" fill="#404040">
                                <set attributeName="fill" to="#808080" begin="zoomminus.mouseover" end="zoomminus.mouseout"/>
                        </use>
                        <path d="M-4,0h8" fill="none" stroke="white" stroke-width="1.5" pointer-events="none"/>
                </g>
                <g id="dirArrow">
                        <path fill="none" stroke="white" stroke-width="1.5" d="M0,-3.0v7 M-2.5,-0.5L0,-3.0L2.5,-0.5"/>
                </g>
               <g id="resetDef">
                       <use xlink:href="#rim2" fill="#404040">
                               <set attributeName="fill" to="#808080" begin="reset.mouseover" end="reset.mouseout"/>
                       </use>
               </g>
        </defs>

<script type="text/javascript">
var viewWidth = 1182;
var viewHeight = 884;
var sectionId = 'dynsection-1';
</script>
<script xlink:href="svgpan.js"/>
<svg id="graph" class="graph">
<g id="viewport">
<title>GUIModalMenu</title>
<polygon fill="white" stroke="transparent" points="-4,4 -4,-880 1178,-880 1178,4 -4,4"/>
<!-- Node1 -->
<g id="node1" class="node">
<title>Node1</title>
<g id="a_node1"><a xlink:title=" ">
<polygon fill="#bfbfbf" stroke="black" points="1082,-127.5 1082,-146.5 1174,-146.5 1174,-127.5 1082,-127.5"/>
<text text-anchor="middle" x="1128" y="-134.5" font-family="Helvetica,sans-Serif" font-size="10.00">GUIModalMenu</text>
</a>
</g>
</g>
<!-- Node2 -->
<g id="node2" class="node">
<title>Node2</title>
<g id="a_node2"><a xlink:href="classirr_1_1gui_1_1IGUIElement.html" target="_top" xlink:title="Base class of all GUI elements.">
<polygon fill="white" stroke="black" points="814.5,-570.5 814.5,-589.5 930.5,-589.5 930.5,-570.5 814.5,-570.5"/>
<text text-anchor="middle" x="872.5" y="-577.5" font-family="Helvetica,sans-Serif" font-size="10.00">irr::gui::IGUIElement</text>
</a>
</g>
</g>
<!-- Node2&#45;&gt;Node1 -->
<g id="edge1" class="edge">
<title>Node2&#45;&gt;Node1</title>
<path fill="none" stroke="midnightblue" d="M884.12,-561.45C927.39,-485.83 1089.66,-202.26 1121.54,-146.54"/>
<polygon fill="midnightblue" stroke="midnightblue" points="880.96,-559.92 879.03,-570.34 887.03,-563.39 880.96,-559.92"/>
</g>
<!-- Node2&#45;&gt;Node2 -->
<g id="edge6" class="edge">
<title>Node2&#45;&gt;Node2</title>
<path fill="none" stroke="#9a32cd" stroke-dasharray="5,2" d="M846.83,-599.03C848.23,-604.13 856.79,-608 872.5,-608 897.03,-608 904.12,-598.57 893.77,-589.76"/>
<polygon fill="#9a32cd" stroke="#9a32cd" points="850.11,-600.29 851.23,-589.76 843.78,-597.29 850.11,-600.29"/>
<text text-anchor="middle" x="872.5" y="-611" font-family="Helvetica,sans-Serif" font-size="10.00"> Parent</text>
</g>
<!-- Node3 -->
<g id="node3" class="node">
<title>Node3</title>
<g id="a_node3"><a xlink:href="classirr_1_1IReferenceCounted.html" target="_top" xlink:title="Base class of most objects of the Irrlicht Engine.">
<polygon fill="white" stroke="black" points="236,-654.5 236,-673.5 362,-673.5 362,-654.5 236,-654.5"/>
<text text-anchor="middle" x="299" y="-661.5" font-family="Helvetica,sans-Serif" font-size="10.00">irr::IReferenceCounted</text>
</a>
</g>
</g>
<!-- Node3&#45;&gt;Node2 -->
<g id="edge2" class="edge">
<title>Node3&#45;&gt;Node2</title>
<path fill="none" stroke="midnightblue" d="M372.25,-667.15C468.62,-669.34 643.63,-666.29 786,-625 813.07,-617.15 841.43,-600.22 857.73,-589.51"/>
<polygon fill="midnightblue" stroke="midnightblue" points="372.12,-663.64 362.03,-666.89 371.94,-670.64 372.12,-663.64"/>
</g>
<!-- Node17 -->
<g id="node17" class="node">
<title>Node17</title>
<g id="a_node17"><a xlink:href="classirr_1_1gui_1_1IGUIEnvironment.html" target="_top" xlink:title="GUI Environment. Used as factory and manager of all other GUI elements.">
<polygon fill="white" stroke="black" points="511,-677.5 511,-696.5 648,-696.5 648,-677.5 511,-677.5"/>
<text text-anchor="middle" x="579.5" y="-684.5" font-family="Helvetica,sans-Serif" font-size="10.00">irr::gui::IGUIEnvironment</text>
</a>
</g>
</g>
<!-- Node3&#45;&gt;Node17 -->
<g id="edge18" class="edge">
<title>Node3&#45;&gt;Node17</title>
<path fill="none" stroke="midnightblue" d="M372.21,-669.96C414.94,-673.49 468.74,-677.94 510.69,-681.4"/>
<polygon fill="midnightblue" stroke="midnightblue" points="372.41,-666.47 362.15,-669.13 371.83,-673.44 372.41,-666.47"/>
</g>
<!-- Node4 -->
<g id="node4" class="node">
<title>Node4</title>
<g id="a_node4"><a xlink:title=" ">
<polygon fill="white" stroke="#bfbfbf" points="29,-668.5 29,-687.5 67,-687.5 67,-668.5 29,-668.5"/>
<text text-anchor="middle" x="48" y="-675.5" font-family="Helvetica,sans-Serif" font-size="10.00">char</text>
</a>
</g>
</g>
<!-- Node4&#45;&gt;Node3 -->
<g id="edge3" class="edge">
<title>Node4&#45;&gt;Node3</title>
<path fill="none" stroke="#9a32cd" stroke-dasharray="5,2" d="M77.75,-676.38C116.19,-674.22 185.34,-670.33 235.94,-667.49"/>
<polygon fill="#9a32cd" stroke="#9a32cd" points="77.1,-672.91 67.31,-676.97 77.49,-679.9 77.1,-672.91"/>
<text text-anchor="middle" x="159.5" y="-677" font-family="Helvetica,sans-Serif" font-size="10.00"> DebugName</text>
</g>
<!-- Node5 -->
<g id="node5" class="node">
<title>Node5</title>
<g id="a_node5"><a xlink:title=" ">
<polygon fill="white" stroke="#bfbfbf" points="23,-615.5 23,-634.5 73,-634.5 73,-615.5 23,-615.5"/>
<text text-anchor="middle" x="48" y="-622.5" font-family="Helvetica,sans-Serif" font-size="10.00">int32_t</text>
</a>
</g>
</g>
<!-- Node5&#45;&gt;Node2 -->
<g id="edge19" class="edge">
<title>Node5&#45;&gt;Node2</title>
<path fill="none" stroke="#9a32cd" stroke-dasharray="5,2" d="M83.25,-624.21C188.38,-621.62 515.7,-612.2 786,-590 795.09,-589.25 804.7,-588.3 814.07,-587.27"/>
<polygon fill="#9a32cd" stroke="#9a32cd" points="83.13,-620.72 73.21,-624.46 83.3,-627.71 83.13,-620.72"/>
<text text-anchor="middle" x="437" y="-627" font-family="Helvetica,sans-Serif" font-size="10.00"> TabOrder</text>
<text text-anchor="middle" x="437" y="-616" font-family="Helvetica,sans-Serif" font-size="10.00">ID</text>
</g>
<!-- Node5&#45;&gt;Node3 -->
<g id="edge4" class="edge">
<title>Node5&#45;&gt;Node3</title>
<path fill="none" stroke="#9a32cd" stroke-dasharray="5,2" d="M83.28,-630.37C122.87,-636.57 188.75,-646.89 237.11,-654.46"/>
<polygon fill="#9a32cd" stroke="#9a32cd" points="83.75,-626.9 73.33,-628.81 82.67,-633.82 83.75,-626.9"/>
<text text-anchor="middle" x="159.5" y="-652" font-family="Helvetica,sans-Serif" font-size="10.00"> ReferenceCounter</text>
</g>
<!-- Node6 -->
<g id="node6" class="node">
<title>Node6</title>
<g id="a_node6"><a xlink:href="classirr_1_1IEventReceiver.html" target="_top" xlink:title="Interface of an object which can receive events.">
<polygon fill="white" stroke="black" points="526,-563.5 526,-582.5 633,-582.5 633,-563.5 526,-563.5"/>
<text text-anchor="middle" x="579.5" y="-570.5" font-family="Helvetica,sans-Serif" font-size="10.00">irr::IEventReceiver</text>
</a>
</g>
</g>
<!-- Node6&#45;&gt;Node2 -->
<g id="edge5" class="edge">
<title>Node6&#45;&gt;Node2</title>
<path fill="none" stroke="midnightblue" d="M643.41,-574.51C694.26,-575.74 765.25,-577.44 814.47,-578.63"/>
<polygon fill="midnightblue" stroke="midnightblue" points="643.28,-571.01 633.2,-574.27 643.11,-578.01 643.28,-571.01"/>
</g>
<!-- Node7 -->
<g id="node7" class="node">
<title>Node7</title>
<g id="a_node7"><a xlink:title=" ">
<polygon fill="white" stroke="#bfbfbf" points="527,-487.5 527,-506.5 632,-506.5 632,-487.5 527,-487.5"/>
<text text-anchor="middle" x="579.5" y="-494.5" font-family="Helvetica,sans-Serif" font-size="10.00">string&lt; wchar_t &gt;</text>
</a>
</g>
</g>
<!-- Node7&#45;&gt;Node2 -->
<g id="edge7" class="edge">
<title>Node7&#45;&gt;Node2</title>
<path fill="none" stroke="#9a32cd" stroke-dasharray="5,2" d="M642.08,-495.03C683.94,-495.65 739.88,-500.4 786,-518 817.18,-529.9 847.24,-556.22 862.01,-570.44"/>
<polygon fill="#9a32cd" stroke="#9a32cd" points="642.05,-491.53 632.03,-494.95 642,-498.53 642.05,-491.53"/>
<text text-anchor="middle" x="732" y="-532" font-family="Helvetica,sans-Serif" font-size="10.00"> ToolTipText</text>
<text text-anchor="middle" x="732" y="-521" font-family="Helvetica,sans-Serif" font-size="10.00">Text</text>
</g>
<!-- Node8 -->
<g id="node8" class="node">
<title>Node8</title>
<g id="a_node8"><a xlink:title=" ">
<polygon fill="white" stroke="#bfbfbf" points="277,-518.5 277,-537.5 321,-537.5 321,-518.5 277,-518.5"/>
<text text-anchor="middle" x="299" y="-525.5" font-family="Helvetica,sans-Serif" font-size="10.00">string</text>
</a>
</g>
</g>
<!-- Node8&#45;&gt;Node7 -->
<g id="edge8" class="edge">
<title>Node8&#45;&gt;Node7</title>
<path fill="none" stroke="orange" stroke-dasharray="5,2" d="M331,-523.33C349.06,-520.7 372.29,-517.45 393,-515 438.15,-509.66 489.61,-504.76 526.86,-501.42"/>
<polygon fill="orange" stroke="orange" points="330.4,-519.88 321.02,-524.8 331.42,-526.81 330.4,-519.88"/>
<text text-anchor="middle" x="437" y="-518" font-family="Helvetica,sans-Serif" font-size="10.00"> &lt; wchar_t &gt;</text>
</g>
<!-- Node18 -->
<g id="node18" class="node">
<title>Node18</title>
<g id="a_node18"><a xlink:title=" ">
<polygon fill="white" stroke="#bfbfbf" points="540.5,-525.5 540.5,-544.5 618.5,-544.5 618.5,-525.5 540.5,-525.5"/>
<text text-anchor="middle" x="579.5" y="-532.5" font-family="Helvetica,sans-Serif" font-size="10.00">string&lt; c8 &gt;</text>
</a>
</g>
</g>
<!-- Node8&#45;&gt;Node18 -->
<g id="edge21" class="edge">
<title>Node8&#45;&gt;Node18</title>
<path fill="none" stroke="orange" stroke-dasharray="5,2" d="M331.56,-528.79C382.95,-530.08 484.53,-532.64 540.05,-534.03"/>
<polygon fill="orange" stroke="orange" points="331.48,-525.29 321.39,-528.54 331.3,-532.29 331.48,-525.29"/>
<text text-anchor="middle" x="437" y="-535" font-family="Helvetica,sans-Serif" font-size="10.00"> &lt; c8 &gt;</text>
</g>
<!-- Node9 -->
<g id="node9" class="node">
<title>Node9</title>
<g id="a_node9"><a xlink:href="classirr_1_1core_1_1dimension2d.html" target="_top" xlink:title=" ">
<polygon fill="white" stroke="black" points="518,-438 518,-468 641,-468 641,-438 518,-438"/>
<text text-anchor="start" x="526" y="-456" font-family="Helvetica,sans-Serif" font-size="10.00">irr::core::dimension2d</text>
<text text-anchor="middle" x="579.5" y="-445" font-family="Helvetica,sans-Serif" font-size="10.00">&lt; u32 &gt;</text>
</a>
</g>
</g>
<!-- Node9&#45;&gt;Node2 -->
<g id="edge9" class="edge">
<title>Node9&#45;&gt;Node2</title>
<path fill="none" stroke="#9a32cd" stroke-dasharray="5,2" d="M651.3,-445.19C692.89,-443.81 745.14,-447.87 786,-470 828.96,-493.27 857.36,-548.3 867.43,-570.49"/>
<polygon fill="#9a32cd" stroke="#9a32cd" points="651.07,-441.7 641.24,-445.63 651.38,-448.69 651.07,-441.7"/>
<text text-anchor="middle" x="732" y="-484" font-family="Helvetica,sans-Serif" font-size="10.00"> MinSize</text>
<text text-anchor="middle" x="732" y="-473" font-family="Helvetica,sans-Serif" font-size="10.00">MaxSize</text>
</g>
<!-- Node10 -->
<g id="node10" class="node">
<title>Node10</title>
<g id="a_node10"><a xlink:title=" ">
<polygon fill="white" stroke="#bfbfbf" points="271,-420.5 271,-439.5 327,-439.5 327,-420.5 271,-420.5"/>
<text text-anchor="middle" x="299" y="-427.5" font-family="Helvetica,sans-Serif" font-size="10.00">uint32_t</text>
</a>
</g>
</g>
<!-- Node10&#45;&gt;Node9 -->
<g id="edge10" class="edge">
<title>Node10&#45;&gt;Node9</title>
<path fill="none" stroke="#9a32cd" stroke-dasharray="5,2" d="M337.31,-428.6C374,-427.71 431.53,-427.56 481,-433 493.02,-434.32 505.76,-436.42 517.92,-438.76"/>
<polygon fill="#9a32cd" stroke="#9a32cd" points="336.98,-425.11 327.08,-428.89 337.18,-432.11 336.98,-425.11"/>
<text text-anchor="middle" x="437" y="-447" font-family="Helvetica,sans-Serif" font-size="10.00"> Width</text>
<text text-anchor="middle" x="437" y="-436" font-family="Helvetica,sans-Serif" font-size="10.00">Height</text>
</g>
<!-- Node11 -->
<g id="node11" class="node">
<title>Node11</title>
<g id="a_node11"><a xlink:href="classirr_1_1core_1_1dimension2d.html" target="_top" xlink:title="Specifies a 2 dimensional size.">
<polygon fill="white" stroke="black" points="223,-462.5 223,-481.5 375,-481.5 375,-462.5 223,-462.5"/>
<text text-anchor="middle" x="299" y="-469.5" font-family="Helvetica,sans-Serif" font-size="10.00">irr::core::dimension2d&lt; T &gt;</text>
</a>
</g>
</g>
<!-- Node11&#45;&gt;Node9 -->
<g id="edge11" class="edge">
<title>Node11&#45;&gt;Node9</title>
<path fill="none" stroke="orange" stroke-dasharray="5,2" d="M385.48,-466.17C428.19,-463.25 478.89,-459.8 517.6,-457.15"/>
<polygon fill="orange" stroke="orange" points="385.1,-462.69 375.37,-466.86 385.58,-469.67 385.1,-462.69"/>
<text text-anchor="middle" x="437" y="-468" font-family="Helvetica,sans-Serif" font-size="10.00"> &lt; u32 &gt;</text>
</g>
<!-- Node12 -->
<g id="node12" class="node">
<title>Node12</title>
<g id="a_node12"><a xlink:title=" ">
<polygon fill="white" stroke="#bfbfbf" points="33.5,-416.5 33.5,-435.5 62.5,-435.5 62.5,-416.5 33.5,-416.5"/>
<text text-anchor="middle" x="48" y="-423.5" font-family="Helvetica,sans-Serif" font-size="10.00">T</text>
</a>
</g>
</g>
<!-- Node12&#45;&gt;Node11 -->
<g id="edge12" class="edge">
<title>Node12&#45;&gt;Node11</title>
<path fill="none" stroke="#9a32cd" stroke-dasharray="5,2" d="M72.8,-430.4C112.51,-437.73 193.15,-452.63 246.38,-462.46"/>
<polygon fill="#9a32cd" stroke="#9a32cd" points="73.21,-426.91 62.74,-428.54 71.94,-433.8 73.21,-426.91"/>
<text text-anchor="middle" x="159.5" y="-468" font-family="Helvetica,sans-Serif" font-size="10.00"> Width</text>
<text text-anchor="middle" x="159.5" y="-457" font-family="Helvetica,sans-Serif" font-size="10.00">Height</text>
</g>
<!-- Node28 -->
<g id="node28" class="node">
<title>Node28</title>
<g id="a_node28"><a xlink:href="classirr_1_1core_1_1vector2d.html" target="_top" xlink:title="2d vector template class with lots of operators and methods.">
<polygon fill="white" stroke="black" points="233.5,-179.5 233.5,-198.5 364.5,-198.5 364.5,-179.5 233.5,-179.5"/>
<text text-anchor="middle" x="299" y="-186.5" font-family="Helvetica,sans-Serif" font-size="10.00">irr::core::vector2d&lt; T &gt;</text>
</a>
</g>
</g>
<!-- Node12&#45;&gt;Node28 -->
<g id="edge33" class="edge">
<title>Node12&#45;&gt;Node28</title>
<path fill="none" stroke="#9a32cd" stroke-dasharray="5,2" d="M72.26,-419C111.54,-406.69 188.37,-380.36 205,-358 245.08,-304.13 178.67,-258.43 223,-208 226.37,-204.17 230.39,-201.05 234.8,-198.53"/>
<polygon fill="#9a32cd" stroke="#9a32cd" points="71.22,-415.66 62.7,-421.95 73.29,-422.34 71.22,-415.66"/>
<text text-anchor="middle" x="159.5" y="-418" font-family="Helvetica,sans-Serif" font-size="10.00"> X</text>
<text text-anchor="middle" x="159.5" y="-407" font-family="Helvetica,sans-Serif" font-size="10.00">Y</text>
</g>
<!-- Node13 -->
<g id="node13" class="node">
<title>Node13</title>
<g id="a_node13"><a xlink:href="classirr_1_1core_1_1rect.html" target="_top" xlink:title=" ">
<polygon fill="white" stroke="black" points="520,-307.5 520,-326.5 639,-326.5 639,-307.5 520,-307.5"/>
<text text-anchor="middle" x="579.5" y="-314.5" font-family="Helvetica,sans-Serif" font-size="10.00">irr::core::rect&lt; s32 &gt;</text>
</a>
</g>
</g>
<!-- Node13&#45;&gt;Node2 -->
<g id="edge13" class="edge">
<title>Node13&#45;&gt;Node2</title>
<path fill="none" stroke="#9a32cd" stroke-dasharray="5,2" d="M649.12,-326.86C707.81,-335.41 783.28,-346.78 786,-349 858.17,-408.01 869.43,-534.03 871.18,-570.14"/>
<polygon fill="#9a32cd" stroke="#9a32cd" points="649.52,-323.38 639.12,-325.4 648.51,-330.3 649.52,-323.38"/>
<text text-anchor="middle" x="732" y="-396" font-family="Helvetica,sans-Serif" font-size="10.00"> AbsoluteClippingRect</text>
<text text-anchor="middle" x="732" y="-385" font-family="Helvetica,sans-Serif" font-size="10.00">LastParentRect</text>
<text text-anchor="middle" x="732" y="-374" font-family="Helvetica,sans-Serif" font-size="10.00">RelativeRect</text>
<text text-anchor="middle" x="732" y="-363" font-family="Helvetica,sans-Serif" font-size="10.00">DesiredRect</text>
<text text-anchor="middle" x="732" y="-352" font-family="Helvetica,sans-Serif" font-size="10.00">AbsoluteRect</text>
</g>
<!-- Node14 -->
<g id="node14" class="node">
<title>Node14</title>
<g id="a_node14"><a xlink:title=" ">
<polygon fill="white" stroke="#bfbfbf" points="245.5,-262.5 245.5,-281.5 352.5,-281.5 352.5,-262.5 245.5,-262.5"/>
<text text-anchor="middle" x="299" y="-269.5" font-family="Helvetica,sans-Serif" font-size="10.00">position2d&lt; s32 &gt;</text>
</a>
</g>
</g>
<!-- Node14&#45;&gt;Node13 -->
<g id="edge14" class="edge">
<title>Node14&#45;&gt;Node13</title>
<path fill="none" stroke="#9a32cd" stroke-dasharray="5,2" d="M362.75,-274.44C397.78,-276.58 442.08,-280.57 481,-288 505.29,-292.64 532.17,-300.87 551.54,-307.39"/>
<polygon fill="#9a32cd" stroke="#9a32cd" points="362.84,-270.94 352.66,-273.86 362.44,-277.93 362.84,-270.94"/>
<text text-anchor="middle" x="437" y="-302" font-family="Helvetica,sans-Serif" font-size="10.00"> UpperLeftCorner</text>
<text text-anchor="middle" x="437" y="-291" font-family="Helvetica,sans-Serif" font-size="10.00">LowerRightCorner</text>
</g>
<!-- Node15 -->
<g id="node15" class="node">
<title>Node15</title>
<g id="a_node15"><a xlink:href="classirr_1_1core_1_1rect.html" target="_top" xlink:title="Rectangle template.">
<polygon fill="white" stroke="black" points="245.5,-322.5 245.5,-341.5 352.5,-341.5 352.5,-322.5 245.5,-322.5"/>
<text text-anchor="middle" x="299" y="-329.5" font-family="Helvetica,sans-Serif" font-size="10.00">irr::core::rect&lt; T &gt;</text>
</a>
</g>
</g>
<!-- Node15&#45;&gt;Node13 -->
<g id="edge15" class="edge">
<title>Node15&#45;&gt;Node13</title>
<path fill="none" stroke="orange" stroke-dasharray="5,2" d="M362.89,-321.28C372.94,-319.93 383.23,-318.76 393,-318 435.38,-314.71 483.38,-314.55 519.93,-315.16"/>
<polygon fill="orange" stroke="orange" points="362.38,-317.82 352.96,-322.68 363.35,-324.75 362.38,-317.82"/>
<text text-anchor="middle" x="437" y="-321" font-family="Helvetica,sans-Serif" font-size="10.00"> &lt; s32 &gt;</text>
</g>
<!-- Node19 -->
<g id="node19" class="node">
<title>Node19</title>
<g id="a_node19"><a xlink:href="classirr_1_1core_1_1rect.html" target="_top" xlink:title=" ">
<polygon fill="white" stroke="black" points="521,-375.5 521,-394.5 638,-394.5 638,-375.5 521,-375.5"/>
<text text-anchor="middle" x="579.5" y="-382.5" font-family="Helvetica,sans-Serif" font-size="10.00">irr::core::rect&lt; f32 &gt;</text>
</a>
</g>
</g>
<!-- Node15&#45;&gt;Node19 -->
<g id="edge24" class="edge">
<title>Node15&#45;&gt;Node19</title>
<path fill="none" stroke="orange" stroke-dasharray="5,2" d="M360.18,-343.45C410.4,-353.01 481.12,-366.47 528.32,-375.45"/>
<polygon fill="orange" stroke="orange" points="360.59,-339.97 350.11,-341.54 359.28,-346.84 360.59,-339.97"/>
<text text-anchor="middle" x="437" y="-369" font-family="Helvetica,sans-Serif" font-size="10.00"> &lt; f32 &gt;</text>
</g>
<!-- Node16 -->
<g id="node16" class="node">
<title>Node16</title>
<g id="a_node16"><a xlink:title=" ">
<polygon fill="white" stroke="#bfbfbf" points="0,-322.5 0,-341.5 96,-341.5 96,-322.5 0,-322.5"/>
<text text-anchor="middle" x="48" y="-329.5" font-family="Helvetica,sans-Serif" font-size="10.00">position2d&lt; T &gt;</text>
</a>
</g>
</g>
<!-- Node16&#45;&gt;Node15 -->
<g id="edge16" class="edge">
<title>Node16&#45;&gt;Node15</title>
<path fill="none" stroke="#9a32cd" stroke-dasharray="5,2" d="M106.19,-332C148.13,-332 204.66,-332 245.47,-332"/>
<polygon fill="#9a32cd" stroke="#9a32cd" points="106.13,-328.5 96.13,-332 106.13,-335.5 106.13,-328.5"/>
<text text-anchor="middle" x="159.5" y="-346" font-family="Helvetica,sans-Serif" font-size="10.00"> UpperLeftCorner</text>
<text text-anchor="middle" x="159.5" y="-335" font-family="Helvetica,sans-Serif" font-size="10.00">LowerRightCorner</text>
</g>
<!-- Node17&#45;&gt;Node2 -->
<g id="edge17" class="edge">
<title>Node17&#45;&gt;Node2</title>
<path fill="none" stroke="#9a32cd" stroke-dasharray="5,2" d="M658.23,-681.73C706.62,-677.5 763.75,-670.51 786,-660 821.11,-643.41 851.42,-607.04 864.55,-589.65"/>
<polygon fill="#9a32cd" stroke="#9a32cd" points="657.72,-678.26 648.05,-682.59 658.31,-685.23 657.72,-678.26"/>
<text text-anchor="middle" x="732" y="-682" font-family="Helvetica,sans-Serif" font-size="10.00"> Environment</text>
</g>
<!-- Node18&#45;&gt;Node2 -->
<g id="edge20" class="edge">
<title>Node18&#45;&gt;Node2</title>
<path fill="none" stroke="#9a32cd" stroke-dasharray="5,2" d="M628.73,-539.37C670.51,-543.52 732.5,-550.52 786,-560 802.06,-562.85 819.63,-566.81 834.65,-570.45"/>
<polygon fill="#9a32cd" stroke="#9a32cd" points="628.85,-535.87 618.56,-538.38 628.17,-542.83 628.85,-535.87"/>
<text text-anchor="middle" x="732" y="-563" font-family="Helvetica,sans-Serif" font-size="10.00"> Name</text>
</g>
<!-- Node19&#45;&gt;Node2 -->
<g id="edge22" class="edge">
<title>Node19&#45;&gt;Node2</title>
<path fill="none" stroke="#9a32cd" stroke-dasharray="5,2" d="M629.69,-396.91C645.13,-400.57 662.25,-404.54 678,-408 725.84,-418.51 746.33,-401.27 786,-430 836.74,-466.75 861.62,-543.47 869.04,-570.4"/>
<polygon fill="#9a32cd" stroke="#9a32cd" points="630.35,-393.47 619.81,-394.56 628.73,-400.28 630.35,-393.47"/>
<text text-anchor="middle" x="732" y="-433" font-family="Helvetica,sans-Serif" font-size="10.00"> ScaleRect</text>
</g>
<!-- Node20 -->
<g id="node20" class="node">
<title>Node20</title>
<g id="a_node20"><a xlink:title=" ">
<polygon fill="white" stroke="#bfbfbf" points="246,-375.5 246,-394.5 352,-394.5 352,-375.5 246,-375.5"/>
<text text-anchor="middle" x="299" y="-382.5" font-family="Helvetica,sans-Serif" font-size="10.00">position2d&lt; f32 &gt;</text>
</a>
</g>
</g>
<!-- Node20&#45;&gt;Node19 -->
<g id="edge23" class="edge">
<title>Node20&#45;&gt;Node19</title>
<path fill="none" stroke="#9a32cd" stroke-dasharray="5,2" d="M362.21,-385C409.7,-385 474.64,-385 520.94,-385"/>
<polygon fill="#9a32cd" stroke="#9a32cd" points="362.06,-381.5 352.06,-385 362.06,-388.5 362.06,-381.5"/>
<text text-anchor="middle" x="437" y="-399" font-family="Helvetica,sans-Serif" font-size="10.00"> UpperLeftCorner</text>
<text text-anchor="middle" x="437" y="-388" font-family="Helvetica,sans-Serif" font-size="10.00">LowerRightCorner</text>
</g>
<!-- Node21 -->
<g id="node21" class="node">
<title>Node21</title>
<g id="a_node21"><a xlink:href="classbool.html" target="_top" xlink:title=" ">
<polygon fill="white" stroke="black" points="560.5,-251.5 560.5,-270.5 598.5,-270.5 598.5,-251.5 560.5,-251.5"/>
<text text-anchor="middle" x="579.5" y="-258.5" font-family="Helvetica,sans-Serif" font-size="10.00">bool</text>
</a>
</g>
</g>
<!-- Node21&#45;&gt;Node1 -->
<g id="edge40" class="edge">
<title>Node21&#45;&gt;Node1</title>
<path fill="none" stroke="#9a32cd" stroke-dasharray="5,2" d="M608.84,-255.97C628.29,-252.55 654.7,-247.93 678,-244 849.4,-215.07 902.95,-246.4 1064,-181 1084.27,-172.77 1104.43,-157.03 1116.29,-146.77"/>
<polygon fill="#9a32cd" stroke="#9a32cd" points="608.06,-252.56 598.82,-257.74 609.28,-259.45 608.06,-252.56"/>
<text text-anchor="middle" x="872.5" y="-243" font-family="Helvetica,sans-Serif" font-size="10.00"> m_allow_focus_removal</text>
<text text-anchor="middle" x="872.5" y="-232" font-family="Helvetica,sans-Serif" font-size="10.00">m_remap_dbl_click</text>
</g>
<!-- Node21&#45;&gt;Node2 -->
<g id="edge25" class="edge">
<title>Node21&#45;&gt;Node2</title>
<path fill="none" stroke="#9a32cd" stroke-dasharray="5,2" d="M608.66,-256.94C658.39,-250.42 759.04,-240.31 786,-261 837.74,-300.7 865.04,-521.77 870.48,-570.5"/>
<polygon fill="#9a32cd" stroke="#9a32cd" points="608.03,-253.49 598.59,-258.3 608.97,-260.43 608.03,-253.49"/>
<text text-anchor="middle" x="732" y="-319" font-family="Helvetica,sans-Serif" font-size="10.00"> IsTabStop</text>
<text text-anchor="middle" x="732" y="-308" font-family="Helvetica,sans-Serif" font-size="10.00">IsSubElement</text>
<text text-anchor="middle" x="732" y="-297" font-family="Helvetica,sans-Serif" font-size="10.00">IsTabGroup</text>
<text text-anchor="middle" x="732" y="-286" font-family="Helvetica,sans-Serif" font-size="10.00">IsEnabled</text>
<text text-anchor="middle" x="732" y="-275" font-family="Helvetica,sans-Serif" font-size="10.00">NoClip</text>
<text text-anchor="middle" x="732" y="-264" font-family="Helvetica,sans-Serif" font-size="10.00">IsVisible</text>
</g>
<!-- Node22 -->
<g id="node22" class="node">
<title>Node22</title>
<g id="a_node22"><a xlink:title=" ">
<polygon fill="white" stroke="#bfbfbf" points="499,-847.5 499,-866.5 660,-866.5 660,-847.5 499,-847.5"/>
<text text-anchor="middle" x="579.5" y="-854.5" font-family="Helvetica,sans-Serif" font-size="10.00">list&lt; irr::gui::IGUIElement * &gt;</text>
</a>
</g>
</g>
<!-- Node22&#45;&gt;Node2 -->
<g id="edge26" class="edge">
<title>Node22&#45;&gt;Node2</title>
<path fill="none" stroke="#9a32cd" stroke-dasharray="5,2" d="M670.41,-865.8C709.77,-864.94 754.15,-856.98 786,-831 864.48,-766.99 871.22,-627.63 871.56,-589.7"/>
<polygon fill="#9a32cd" stroke="#9a32cd" points="670.23,-862.3 660.25,-865.87 670.27,-869.3 670.23,-862.3"/>
<text text-anchor="middle" x="732" y="-868" font-family="Helvetica,sans-Serif" font-size="10.00"> Children</text>
</g>
<!-- Node23 -->
<g id="node23" class="node">
<title>Node23</title>
<g id="a_node23"><a xlink:title=" ">
<polygon fill="white" stroke="#bfbfbf" points="553,-809.5 553,-828.5 606,-828.5 606,-809.5 553,-809.5"/>
<text text-anchor="middle" x="579.5" y="-816.5" font-family="Helvetica,sans-Serif" font-size="10.00">iterator</text>
</a>
</g>
</g>
<!-- Node23&#45;&gt;Node2 -->
<g id="edge27" class="edge">
<title>Node23&#45;&gt;Node2</title>
<path fill="none" stroke="#9a32cd" stroke-dasharray="5,2" d="M616.41,-819.12C668.13,-818.59 760.2,-814.79 786,-795 855.17,-741.95 868.51,-624.35 870.97,-589.76"/>
<polygon fill="#9a32cd" stroke="#9a32cd" points="616.31,-815.62 606.33,-819.19 616.36,-822.62 616.31,-815.62"/>
<text text-anchor="middle" x="732" y="-819" font-family="Helvetica,sans-Serif" font-size="10.00"> ParentPos</text>
</g>
<!-- Node24 -->
<g id="node24" class="node">
<title>Node24</title>
<g id="a_node24"><a xlink:title=" ">
<polygon fill="white" stroke="#bfbfbf" points="519,-771.5 519,-790.5 640,-790.5 640,-771.5 519,-771.5"/>
<text text-anchor="middle" x="579.5" y="-778.5" font-family="Helvetica,sans-Serif" font-size="10.00">EGUI_ELEMENT_TYPE</text>
</a>
</g>
</g>
<!-- Node24&#45;&gt;Node2 -->
<g id="edge28" class="edge">
<title>Node24&#45;&gt;Node2</title>
<path fill="none" stroke="#9a32cd" stroke-dasharray="5,2" d="M650.41,-781.43C701.23,-780.42 764.68,-776.01 786,-761 846.82,-718.2 865.7,-620.47 870.26,-589.56"/>
<polygon fill="#9a32cd" stroke="#9a32cd" points="650.05,-777.93 640.11,-781.59 650.16,-784.93 650.05,-777.93"/>
<text text-anchor="middle" x="732" y="-783" font-family="Helvetica,sans-Serif" font-size="10.00"> Type</text>
</g>
<!-- Node25 -->
<g id="node25" class="node">
<title>Node25</title>
<g id="a_node25"><a xlink:title=" ">
<polygon fill="white" stroke="#bfbfbf" points="527.5,-715.5 527.5,-734.5 631.5,-734.5 631.5,-715.5 527.5,-715.5"/>
<text text-anchor="middle" x="579.5" y="-722.5" font-family="Helvetica,sans-Serif" font-size="10.00">EGUI_ALIGNMENT</text>
</a>
</g>
</g>
<!-- Node25&#45;&gt;Node2 -->
<g id="edge29" class="edge">
<title>Node25&#45;&gt;Node2</title>
<path fill="none" stroke="#9a32cd" stroke-dasharray="5,2" d="M641.74,-718.14C697.75,-711.48 773.72,-701.34 786,-694 828.9,-668.37 857.33,-612.21 867.42,-589.66"/>
<polygon fill="#9a32cd" stroke="#9a32cd" points="641.06,-714.7 631.54,-719.34 641.88,-721.65 641.06,-714.7"/>
<text text-anchor="middle" x="732" y="-749" font-family="Helvetica,sans-Serif" font-size="10.00"> AlignRight</text>
<text text-anchor="middle" x="732" y="-738" font-family="Helvetica,sans-Serif" font-size="10.00">AlignBottom</text>
<text text-anchor="middle" x="732" y="-727" font-family="Helvetica,sans-Serif" font-size="10.00">AlignLeft</text>
<text text-anchor="middle" x="732" y="-716" font-family="Helvetica,sans-Serif" font-size="10.00">AlignTop</text>
</g>
<!-- Node26 -->
<g id="node26" class="node">
<title>Node26</title>
<g id="a_node26"><a xlink:href="classirr_1_1core_1_1vector2d.html" target="_top" xlink:title=" ">
<polygon fill="white" stroke="black" points="528,-111 528,-141 631,-141 631,-111 528,-111"/>
<text text-anchor="start" x="536" y="-129" font-family="Helvetica,sans-Serif" font-size="10.00">irr::core::vector2d</text>
<text text-anchor="middle" x="579.5" y="-118" font-family="Helvetica,sans-Serif" font-size="10.00">&lt; u32 &gt;</text>
</a>
</g>
</g>
<!-- Node26&#45;&gt;Node1 -->
<g id="edge30" class="edge">
<title>Node26&#45;&gt;Node1</title>
<path fill="none" stroke="#9a32cd" stroke-dasharray="5,2" d="M641.43,-127.23C752.15,-129.45 983.93,-134.12 1081.83,-136.09"/>
<polygon fill="#9a32cd" stroke="#9a32cd" points="641.49,-123.73 631.42,-127.02 641.35,-130.73 641.49,-123.73"/>
<text text-anchor="middle" x="872.5" y="-136" font-family="Helvetica,sans-Serif" font-size="10.00"> m_screensize_old</text>
</g>
<!-- Node27 -->
<g id="node27" class="node">
<title>Node27</title>
<g id="a_node27"><a xlink:title=" ">
<polygon fill="white" stroke="#bfbfbf" points="281.5,-104.5 281.5,-123.5 316.5,-123.5 316.5,-104.5 281.5,-104.5"/>
<text text-anchor="middle" x="299" y="-111.5" font-family="Helvetica,sans-Serif" font-size="10.00">u32</text>
</a>
</g>
</g>
<!-- Node27&#45;&gt;Node26 -->
<g id="edge31" class="edge">
<title>Node27&#45;&gt;Node26</title>
<path fill="none" stroke="#9a32cd" stroke-dasharray="5,2" d="M327.01,-113.25C362.42,-112.47 426.42,-111.78 481,-115 496.3,-115.9 512.9,-117.53 527.98,-119.26"/>
<polygon fill="#9a32cd" stroke="#9a32cd" points="326.9,-109.75 316.99,-113.49 327.07,-116.75 326.9,-109.75"/>
<text text-anchor="middle" x="437" y="-129" font-family="Helvetica,sans-Serif" font-size="10.00"> X</text>
<text text-anchor="middle" x="437" y="-118" font-family="Helvetica,sans-Serif" font-size="10.00">Y</text>
</g>
<!-- Node28&#45;&gt;Node26 -->
<g id="edge32" class="edge">
<title>Node28&#45;&gt;Node26</title>
<path fill="none" stroke="orange" stroke-dasharray="5,2" d="M352.31,-177.17C402.58,-165.8 478.03,-148.73 527.76,-137.48"/>
<polygon fill="orange" stroke="orange" points="351.28,-173.81 342.3,-179.43 352.82,-180.64 351.28,-173.81"/>
<text text-anchor="middle" x="437" y="-169" font-family="Helvetica,sans-Serif" font-size="10.00"> &lt; u32 &gt;</text>
</g>
<!-- Node30 -->
<g id="node30" class="node">
<title>Node30</title>
<g id="a_node30"><a xlink:href="classirr_1_1core_1_1vector2d.html" target="_top" xlink:title=" ">
<polygon fill="white" stroke="black" points="528,-199 528,-229 631,-229 631,-199 528,-199"/>
<text text-anchor="start" x="536" y="-217" font-family="Helvetica,sans-Serif" font-size="10.00">irr::core::vector2d</text>
<text text-anchor="middle" x="579.5" y="-206" font-family="Helvetica,sans-Serif" font-size="10.00">&lt; s32 &gt;</text>
</a>
</g>
</g>
<!-- Node28&#45;&gt;Node30 -->
<g id="edge37" class="edge">
<title>Node28&#45;&gt;Node30</title>
<path fill="none" stroke="orange" stroke-dasharray="5,2" d="M374.91,-194.2C407.53,-196.62 446.18,-199.69 481,-203 496.26,-204.45 512.84,-206.24 527.93,-207.95"/>
<polygon fill="orange" stroke="orange" points="374.78,-190.68 364.55,-193.44 374.27,-197.66 374.78,-190.68"/>
<text text-anchor="middle" x="437" y="-206" font-family="Helvetica,sans-Serif" font-size="10.00"> &lt; s32 &gt;</text>
</g>
<!-- Node29 -->
<g id="node29" class="node">
<title>Node29</title>
<g id="a_node29"><a xlink:href="structGUIModalMenu_1_1clickpos.html" target="_top" xlink:title=" ">
<polygon fill="white" stroke="black" points="804,-166.5 804,-185.5 941,-185.5 941,-166.5 804,-166.5"/>
<text text-anchor="middle" x="872.5" y="-173.5" font-family="Helvetica,sans-Serif" font-size="10.00">GUIModalMenu::clickpos</text>
</a>
</g>
</g>
<!-- Node29&#45;&gt;Node1 -->
<g id="edge34" class="edge">
<title>Node29&#45;&gt;Node1</title>
<path fill="none" stroke="#9a32cd" stroke-dasharray="5,2" d="M951.22,-167.37C985.85,-163.13 1027.08,-157.51 1064,-151 1071.28,-149.72 1079,-148.16 1086.44,-146.57"/>
<polygon fill="#9a32cd" stroke="#9a32cd" points="950.67,-163.91 941.17,-168.59 951.52,-170.86 950.67,-163.91"/>
<text text-anchor="middle" x="1011.5" y="-169" font-family="Helvetica,sans-Serif" font-size="10.00"> m_doubleclickdetect</text>
</g>
<!-- Node30&#45;&gt;Node29 -->
<g id="edge35" class="edge">
<title>Node30&#45;&gt;Node29</title>
<path fill="none" stroke="#9a32cd" stroke-dasharray="5,2" d="M641.33,-206.06C688.83,-199.85 754.8,-191.24 803.94,-184.82"/>
<polygon fill="#9a32cd" stroke="#9a32cd" points="640.65,-202.62 631.19,-207.38 641.56,-209.56 640.65,-202.62"/>
<text text-anchor="middle" x="732" y="-203" font-family="Helvetica,sans-Serif" font-size="10.00"> pos</text>
</g>
<!-- Node31 -->
<g id="node31" class="node">
<title>Node31</title>
<g id="a_node31"><a xlink:title=" ">
<polygon fill="white" stroke="#bfbfbf" points="282,-217.5 282,-236.5 316,-236.5 316,-217.5 282,-217.5"/>
<text text-anchor="middle" x="299" y="-224.5" font-family="Helvetica,sans-Serif" font-size="10.00">s32</text>
</a>
</g>
</g>
<!-- Node31&#45;&gt;Node30 -->
<g id="edge36" class="edge">
<title>Node31&#45;&gt;Node30</title>
<path fill="none" stroke="#9a32cd" stroke-dasharray="5,2" d="M326.25,-225.77C372.36,-223.62 468.62,-219.13 527.99,-216.36"/>
<polygon fill="#9a32cd" stroke="#9a32cd" points="326,-222.28 316.18,-226.24 326.33,-229.27 326,-222.28"/>
<text text-anchor="middle" x="437" y="-236" font-family="Helvetica,sans-Serif" font-size="10.00"> X</text>
<text text-anchor="middle" x="437" y="-225" font-family="Helvetica,sans-Serif" font-size="10.00">Y</text>
</g>
<!-- Node32 -->
<g id="node32" class="node">
<title>Node32</title>
<g id="a_node32"><a xlink:title=" ">
<polygon fill="white" stroke="#bfbfbf" points="562.5,-160.5 562.5,-179.5 596.5,-179.5 596.5,-160.5 562.5,-160.5"/>
<text text-anchor="middle" x="579.5" y="-167.5" font-family="Helvetica,sans-Serif" font-size="10.00">s64</text>
</a>
</g>
</g>
<!-- Node32&#45;&gt;Node29 -->
<g id="edge38" class="edge">
<title>Node32&#45;&gt;Node29</title>
<path fill="none" stroke="#9a32cd" stroke-dasharray="5,2" d="M606.77,-169.68C645.85,-169.3 721.62,-168.96 786,-171 791.8,-171.18 797.81,-171.43 803.84,-171.71"/>
<polygon fill="#9a32cd" stroke="#9a32cd" points="606.72,-166.18 596.76,-169.78 606.79,-173.18 606.72,-166.18"/>
<text text-anchor="middle" x="732" y="-174" font-family="Helvetica,sans-Serif" font-size="10.00"> time</text>
</g>
<!-- Node33 -->
<g id="node33" class="node">
<title>Node33</title>
<g id="a_node33"><a xlink:title=" ">
<polygon fill="white" stroke="#bfbfbf" points="853.5,-81.5 853.5,-100.5 891.5,-100.5 891.5,-81.5 853.5,-81.5"/>
<text text-anchor="middle" x="872.5" y="-88.5" font-family="Helvetica,sans-Serif" font-size="10.00">float</text>
</a>
</g>
</g>
<!-- Node33&#45;&gt;Node1 -->
<g id="edge39" class="edge">
<title>Node33&#45;&gt;Node1</title>
<path fill="none" stroke="#9a32cd" stroke-dasharray="5,2" d="M901.84,-91.76C939.42,-93.31 1007.57,-97.97 1064,-112 1078.85,-115.69 1094.86,-122.08 1107.03,-127.48"/>
<polygon fill="#9a32cd" stroke="#9a32cd" points="901.76,-88.26 891.64,-91.39 901.51,-95.25 901.76,-88.26"/>
<text text-anchor="middle" x="1011.5" y="-115" font-family="Helvetica,sans-Serif" font-size="10.00"> m_gui_scale</text>
</g>
<!-- Node34 -->
<g id="node34" class="node">
<title>Node34</title>
<g id="a_node34"><a xlink:href="classIMenuManager.html" target="_top" xlink:title=" ">
<polygon fill="white" stroke="black" points="828,-43.5 828,-62.5 917,-62.5 917,-43.5 828,-43.5"/>
<text text-anchor="middle" x="872.5" y="-50.5" font-family="Helvetica,sans-Serif" font-size="10.00">IMenuManager</text>
</a>
</g>
</g>
<!-- Node34&#45;&gt;Node1 -->
<g id="edge41" class="edge">
<title>Node34&#45;&gt;Node1</title>
<path fill="none" stroke="#9a32cd" stroke-dasharray="5,2" d="M927.39,-52.31C966.92,-53.75 1020.96,-59.84 1064,-80 1087.77,-91.14 1108.95,-114.34 1119.64,-127.45"/>
<polygon fill="#9a32cd" stroke="#9a32cd" points="927.26,-48.81 917.17,-52.04 927.07,-55.81 927.26,-48.81"/>
<text text-anchor="middle" x="1011.5" y="-83" font-family="Helvetica,sans-Serif" font-size="10.00"> m_menumgr</text>
</g>
<!-- Node35 -->
<g id="node35" class="node">
<title>Node35</title>
<g id="a_node35"><a xlink:title=" ">
<polygon fill="white" stroke="#bfbfbf" points="823,-0.5 823,-19.5 922,-19.5 922,-0.5 823,-0.5"/>
<text text-anchor="middle" x="872.5" y="-7.5" font-family="Helvetica,sans-Serif" font-size="10.00">vector2d&lt; s32 &gt;</text>
</a>
</g>
</g>
<!-- Node35&#45;&gt;Node1 -->
<g id="edge42" class="edge">
<title>Node35&#45;&gt;Node1</title>
<path fill="none" stroke="#9a32cd" stroke-dasharray="5,2" d="M932.23,-2.21C972.38,0.1 1025.16,-3.08 1064,-28 1100.98,-51.72 1118.73,-105.39 1124.65,-127.35"/>
<polygon fill="#9a32cd" stroke="#9a32cd" points="931.78,1.26 922.05,-2.93 932.27,-5.72 931.78,1.26"/>
<text text-anchor="middle" x="1011.5" y="-42" font-family="Helvetica,sans-Serif" font-size="10.00"> m_pointer</text>
<text text-anchor="middle" x="1011.5" y="-31" font-family="Helvetica,sans-Serif" font-size="10.00">m_old_pointer</text>
</g>
</g>
</svg>
        <g id="navigator" transform="translate(0 0)" fill="#404254">
                <rect fill="#f2f5e9" fill-opacity="0.5" stroke="#606060" stroke-width=".5" x="0" y="0" width="60" height="60"/>
                <use id="zoomplus" xlink:href="#zoomPlus" x="17" y="9" onmousedown="handleZoom(evt,'in')"/>
                <use id="zoomminus" xlink:href="#zoomMin" x="42" y="9" onmousedown="handleZoom(evt,'out')"/>
                <use id="reset" xlink:href="#resetDef" x="30" y="36" onmousedown="handleReset()"/>
                <g id="arrowUp" xlink:href="#dirArrow" transform="translate(30 24)" onmousedown="handlePan(0,-1)">
                  <use xlink:href="#rim" fill="#404040">
                        <set attributeName="fill" to="#808080" begin="arrowUp.mouseover" end="arrowUp.mouseout"/>
                  </use>
                  <path fill="none" stroke="white" stroke-width="1.5" d="M0,-3.0v7 M-2.5,-0.5L0,-3.0L2.5,-0.5"/>
                </g>
                <g id="arrowRight" xlink:href="#dirArrow" transform="rotate(90) translate(36 -43)" onmousedown="handlePan(1,0)">
                  <use xlink:href="#rim" fill="#404040">
                        <set attributeName="fill" to="#808080" begin="arrowRight.mouseover" end="arrowRight.mouseout"/>
                  </use>
                  <path fill="none" stroke="white" stroke-width="1.5" d="M0,-3.0v7 M-2.5,-0.5L0,-3.0L2.5,-0.5"/>
                </g>
                <g id="arrowDown" xlink:href="#dirArrow" transform="rotate(180) translate(-30 -48)" onmousedown="handlePan(0,1)">
                  <use xlink:href="#rim" fill="#404040">
                        <set attributeName="fill" to="#808080" begin="arrowDown.mouseover" end="arrowDown.mouseout"/>
                  </use>
                  <path fill="none" stroke="white" stroke-width="1.5" d="M0,-3.0v7 M-2.5,-0.5L0,-3.0L2.5,-0.5"/>
                </g>
                <g id="arrowLeft" xlink:href="#dirArrow" transform="rotate(270) translate(-36 17)" onmousedown="handlePan(-1,0)">
                  <use xlink:href="#rim" fill="#404040">
                        <set attributeName="fill" to="#808080" begin="arrowLeft.mouseover" end="arrowLeft.mouseout"/>
                  </use>
                  <path fill="none" stroke="white" stroke-width="1.5" d="M0,-3.0v7 M-2.5,-0.5L0,-3.0L2.5,-0.5"/>
                </g>
        </g>
        <svg viewBox="0 0 15 15" width="100%" height="30px" preserveAspectRatio="xMaxYMin meet">
         <g id="arrow_out" transform="scale(0.3 0.3)">
          <a xlink:href="classGUIModalMenu__coll__graph_org.svg" target="_base">
           <rect id="button" ry="5" rx="5" y="6" x="6" height="38" width="38"
                fill="#f2f5e9" fill-opacity="0.5" stroke="#606060" stroke-width="1.0"/>
           <path id="arrow"
             d="M 11.500037,31.436501 C 11.940474,20.09759 22.043105,11.32322 32.158766,21.979434 L 37.068811,17.246167 C 37.068811,17.246167 37.088388,32 37.088388,32 L 22.160133,31.978069 C 22.160133,31.978069 26.997745,27.140456 26.997745,27.140456 C 18.528582,18.264221 13.291696,25.230495 11.500037,31.436501 z"
             style="fill:#404040;"/>
          </a>
         </g>
        </svg>
</svg>
