<?xml version="1.0" encoding="UTF-8" standalone="no"?>
<!DOCTYPE svg PUBLIC "-//W3C//DTD SVG 1.1//EN"
 "http://www.w3.org/Graphics/SVG/1.1/DTD/svg11.dtd">
<!-- Generated by graphviz version 2.43.0 (0)
 -->
<!-- Title: irr::video::CImageLoaderJPG Pages: 1 -->
<svg width="204pt" height="209pt"
 viewBox="0.00 0.00 203.50 209.00" xmlns="http://www.w3.org/2000/svg" xmlns:xlink="http://www.w3.org/1999/xlink">
<g id="graph0" class="graph" transform="scale(1 1) rotate(0) translate(4 205)">
<title>irr::video::CImageLoaderJPG</title>
<polygon fill="white" stroke="transparent" points="-4,4 -4,-205 199.5,-205 199.5,4 -4,4"/>
<!-- Node1 -->
<g id="node1" class="node">
<title>Node1</title>
<g id="a_node1"><a xlink:title="Surface Loader for JPG images.">
<polygon fill="#bfbfbf" stroke="black" points="0,-0.5 0,-19.5 153,-19.5 153,-0.5 0,-0.5"/>
<text text-anchor="middle" x="76.5" y="-7.5" font-family="Helvetica,sans-Serif" font-size="10.00">irr::video::CImageLoaderJPG</text>
</a>
</g>
</g>
<!-- Node2 -->
<g id="node2" class="node">
<title>Node2</title>
<g id="a_node2"><a xlink:href="classirr_1_1video_1_1IImageLoader.html" target="_top" xlink:title="Class which is able to create a image from a file.">
<polygon fill="white" stroke="black" points="10,-57.5 10,-76.5 143,-76.5 143,-57.5 10,-57.5"/>
<text text-anchor="middle" x="76.5" y="-64.5" font-family="Helvetica,sans-Serif" font-size="10.00">irr::video::IImageLoader</text>
</a>
</g>
</g>
<!-- Node2&#45;&gt;Node1 -->
<g id="edge1" class="edge">
<title>Node2&#45;&gt;Node1</title>
<path fill="none" stroke="midnightblue" d="M76.5,-47.12C76.5,-37.82 76.5,-27.06 76.5,-19.71"/>
<polygon fill="midnightblue" stroke="midnightblue" points="73,-47.41 76.5,-57.41 80,-47.41 73,-47.41"/>
</g>
<!-- Node3 -->
<g id="node3" class="node">
<title>Node3</title>
<g id="a_node3"><a xlink:href="classirr_1_1IReferenceCounted.html" target="_top" xlink:title="Base class of most objects of the Irrlicht Engine.">
<polygon fill="white" stroke="black" points="13.5,-114.5 13.5,-133.5 139.5,-133.5 139.5,-114.5 13.5,-114.5"/>
<text text-anchor="middle" x="76.5" y="-121.5" font-family="Helvetica,sans-Serif" font-size="10.00">irr::IReferenceCounted</text>
</a>
</g>
</g>
<!-- Node3&#45;&gt;Node2 -->
<g id="edge2" class="edge">
<title>Node3&#45;&gt;Node2</title>
<path fill="none" stroke="midnightblue" d="M76.5,-104.12C76.5,-94.82 76.5,-84.06 76.5,-76.71"/>
<polygon fill="midnightblue" stroke="midnightblue" points="73,-104.41 76.5,-114.41 80,-104.41 73,-104.41"/>
</g>
<!-- Node4 -->
<g id="node4" class="node">
<title>Node4</title>
<g id="a_node4"><a xlink:title=" ">
<polygon fill="white" stroke="#bfbfbf" points="14.5,-181.5 14.5,-200.5 52.5,-200.5 52.5,-181.5 14.5,-181.5"/>
<text text-anchor="middle" x="33.5" y="-188.5" font-family="Helvetica,sans-Serif" font-size="10.00">char</text>
</a>
</g>
</g>
<!-- Node4&#45;&gt;Node3 -->
<g id="edge3" class="edge">
<title>Node4&#45;&gt;Node3</title>
<path fill="none" stroke="#9a32cd" stroke-dasharray="5,2" d="M30.55,-171.26C30.4,-164.8 31.26,-157.75 34.5,-152 39.01,-143.99 46.98,-137.99 54.78,-133.7"/>
<polygon fill="#9a32cd" stroke="#9a32cd" points="27.07,-171.63 31.53,-181.24 34.04,-170.95 27.07,-171.63"/>
<text text-anchor="middle" x="66.5" y="-155" font-family="Helvetica,sans-Serif" font-size="10.00"> DebugName</text>
</g>
<!-- Node5 -->
<g id="node5" class="node">
<title>Node5</title>
<g id="a_node5"><a xlink:title=" ">
<polygon fill="white" stroke="#bfbfbf" points="95.5,-181.5 95.5,-200.5 145.5,-200.5 145.5,-181.5 95.5,-181.5"/>
<text text-anchor="middle" x="120.5" y="-188.5" font-family="Helvetica,sans-Serif" font-size="10.00">int32_t</text>
</a>
</g>
</g>
<!-- Node5&#45;&gt;Node3 -->
<g id="edge4" class="edge">
<title>Node5&#45;&gt;Node3</title>
<path fill="none" stroke="#9a32cd" stroke-dasharray="5,2" d="M111.15,-172.52C107.43,-165.94 102.98,-158.49 98.5,-152 94.1,-145.63 88.6,-138.88 84.2,-133.72"/>
<polygon fill="#9a32cd" stroke="#9a32cd" points="108.1,-174.23 115.98,-181.31 114.23,-170.86 108.1,-174.23"/>
<text text-anchor="middle" x="150" y="-155" font-family="Helvetica,sans-Serif" font-size="10.00"> ReferenceCounter</text>
</g>
</g>
</svg>
