<?xml version="1.0" encoding="UTF-8" standalone="no"?>
<!DOCTYPE svg PUBLIC "-//W3C//DTD SVG 1.1//EN"
 "http://www.w3.org/Graphics/SVG/1.1/DTD/svg11.dtd">
<!-- Generated by graphviz version 2.43.0 (0)
 -->
<!-- Title: irr::gui::CGUIFont Pages: 1 -->
<!--zoomable 425 -->
<svg id="main" version="1.1" xmlns="http://www.w3.org/2000/svg" xmlns:xlink="http://www.w3.org/1999/xlink" xml:space="preserve" onload="init(evt)">
<style type="text/css"><![CDATA[
.edge:hover path { stroke: red; }
.edge:hover polygon { stroke: red; fill: red; }
]]></style>
<script type="text/javascript"><![CDATA[
var edges = document.getElementsByTagName('g');
if (edges && edges.length) {
  for (var i=0;i<edges.length;i++) {
    if (edges[i].id.substr(0,4)=='edge') {
      edges[i].setAttribute('class','edge');
    }
  }
}
]]></script>
        <defs>
                <circle id="rim" cx="0" cy="0" r="7"/>
                <circle id="rim2" cx="0" cy="0" r="3.5"/>
                <g id="zoomPlus">
                        <use xlink:href="#rim" fill="#404040">
                                <set attributeName="fill" to="#808080" begin="zoomplus.mouseover" end="zoomplus.mouseout"/>
                        </use>
                        <path d="M-4,0h8M0,-4v8" fill="none" stroke="white" stroke-width="1.5" pointer-events="none"/>
                </g>
                <g id="zoomMin">
                        <use xlink:href="#rim" fill="#404040">
                                <set attributeName="fill" to="#808080" begin="zoomminus.mouseover" end="zoomminus.mouseout"/>
                        </use>
                        <path d="M-4,0h8" fill="none" stroke="white" stroke-width="1.5" pointer-events="none"/>
                </g>
                <g id="dirArrow">
                        <path fill="none" stroke="white" stroke-width="1.5" d="M0,-3.0v7 M-2.5,-0.5L0,-3.0L2.5,-0.5"/>
                </g>
               <g id="resetDef">
                       <use xlink:href="#rim2" fill="#404040">
                               <set attributeName="fill" to="#808080" begin="reset.mouseover" end="reset.mouseout"/>
                       </use>
               </g>
        </defs>

<script type="text/javascript">
var viewWidth = 1084;
var viewHeight = 425;
var sectionId = 'dynsection-1';
</script>
<script xlink:href="svgpan.js"/>
<svg id="graph" class="graph">
<g id="viewport">
<title>irr::gui::CGUIFont</title>
<polygon fill="white" stroke="transparent" points="-4,4 -4,-421 1080,-421 1080,4 -4,4"/>
<!-- Node1 -->
<g id="node1" class="node">
<title>Node1</title>
<g id="a_node1"><a xlink:title=" ">
<polygon fill="#bfbfbf" stroke="black" points="976,-218.5 976,-237.5 1076,-237.5 1076,-218.5 976,-218.5"/>
<text text-anchor="middle" x="1026" y="-225.5" font-family="Helvetica,sans-Serif" font-size="10.00">irr::gui::CGUIFont</text>
</a>
</g>
</g>
<!-- Node2 -->
<g id="node2" class="node">
<title>Node2</title>
<g id="a_node2"><a xlink:href="classirr_1_1gui_1_1IGUIFontBitmap.html" target="_top" xlink:title="Font interface.">
<polygon fill="white" stroke="black" points="714.5,-397.5 714.5,-416.5 845.5,-416.5 845.5,-397.5 714.5,-397.5"/>
<text text-anchor="middle" x="780" y="-404.5" font-family="Helvetica,sans-Serif" font-size="10.00">irr::gui::IGUIFontBitmap</text>
</a>
</g>
</g>
<!-- Node2&#45;&gt;Node1 -->
<g id="edge1" class="edge">
<title>Node2&#45;&gt;Node1</title>
<path fill="none" stroke="midnightblue" d="M856.2,-412.3C890.32,-410.97 929.35,-403.8 958,-382 1006.73,-344.93 1020.6,-265.05 1024.01,-237.54"/>
<polygon fill="midnightblue" stroke="midnightblue" points="855.71,-408.81 845.79,-412.54 855.87,-415.81 855.71,-408.81"/>
</g>
<!-- Node3 -->
<g id="node3" class="node">
<title>Node3</title>
<g id="a_node3"><a xlink:href="classirr_1_1gui_1_1IGUIFont.html" target="_top" xlink:title="Font interface.">
<polygon fill="white" stroke="black" points="410,-395.5 410,-414.5 506,-414.5 506,-395.5 410,-395.5"/>
<text text-anchor="middle" x="458" y="-402.5" font-family="Helvetica,sans-Serif" font-size="10.00">irr::gui::IGUIFont</text>
</a>
</g>
</g>
<!-- Node3&#45;&gt;Node2 -->
<g id="edge2" class="edge">
<title>Node3&#45;&gt;Node2</title>
<path fill="none" stroke="midnightblue" d="M516.27,-405.36C571.94,-405.71 656.38,-406.23 714.42,-406.6"/>
<polygon fill="midnightblue" stroke="midnightblue" points="516.24,-401.86 506.22,-405.3 516.19,-408.86 516.24,-401.86"/>
</g>
<!-- Node4 -->
<g id="node4" class="node">
<title>Node4</title>
<g id="a_node4"><a xlink:href="classirr_1_1IReferenceCounted.html" target="_top" xlink:title="Base class of most objects of the Irrlicht Engine.">
<polygon fill="white" stroke="black" points="177,-317.5 177,-336.5 303,-336.5 303,-317.5 177,-317.5"/>
<text text-anchor="middle" x="240" y="-324.5" font-family="Helvetica,sans-Serif" font-size="10.00">irr::IReferenceCounted</text>
</a>
</g>
</g>
<!-- Node4&#45;&gt;Node3 -->
<g id="edge3" class="edge">
<title>Node4&#45;&gt;Node3</title>
<path fill="none" stroke="midnightblue" d="M260.57,-343.25C276.03,-355.24 298.66,-370.99 321,-380 349.27,-391.41 382.97,-397.65 409.74,-401.04"/>
<polygon fill="midnightblue" stroke="midnightblue" points="262.35,-340.19 252.35,-336.7 257.99,-345.67 262.35,-340.19"/>
</g>
<!-- Node9 -->
<g id="node9" class="node">
<title>Node9</title>
<g id="a_node9"><a xlink:href="classirr_1_1gui_1_1IGUIEnvironment.html" target="_top" xlink:title="GUI Environment. Used as factory and manager of all other GUI elements.">
<polygon fill="white" stroke="black" points="547,-357.5 547,-376.5 684,-376.5 684,-357.5 547,-357.5"/>
<text text-anchor="middle" x="615.5" y="-364.5" font-family="Helvetica,sans-Serif" font-size="10.00">irr::gui::IGUIEnvironment</text>
</a>
</g>
</g>
<!-- Node4&#45;&gt;Node9 -->
<g id="edge9" class="edge">
<title>Node4&#45;&gt;Node9</title>
<path fill="none" stroke="midnightblue" d="M306.5,-338.02C311.4,-338.73 316.28,-339.4 321,-340 398.16,-349.81 487.16,-357.49 546.74,-362.11"/>
<polygon fill="midnightblue" stroke="midnightblue" points="306.85,-334.54 296.44,-336.52 305.82,-341.46 306.85,-334.54"/>
</g>
<!-- Node17 -->
<g id="node17" class="node">
<title>Node17</title>
<g id="a_node17"><a xlink:href="classirr_1_1video_1_1IVideoDriver.html" target="_top" xlink:title="Interface to driver which is able to perform 2d and 3d graphics functions.">
<polygon fill="white" stroke="black" points="552,-314.5 552,-333.5 679,-333.5 679,-314.5 552,-314.5"/>
<text text-anchor="middle" x="615.5" y="-321.5" font-family="Helvetica,sans-Serif" font-size="10.00">irr::video::IVideoDriver</text>
</a>
</g>
</g>
<!-- Node4&#45;&gt;Node17 -->
<g id="edge20" class="edge">
<title>Node4&#45;&gt;Node17</title>
<path fill="none" stroke="midnightblue" d="M313.49,-326.42C382.78,-325.86 486.16,-325.03 551.94,-324.5"/>
<polygon fill="midnightblue" stroke="midnightblue" points="313.07,-322.92 303.1,-326.5 313.12,-329.92 313.07,-322.92"/>
</g>
<!-- Node18 -->
<g id="node18" class="node">
<title>Node18</title>
<g id="a_node18"><a xlink:href="classirr_1_1gui_1_1IGUISpriteBank.html" target="_top" xlink:title="Sprite bank interface.">
<polygon fill="white" stroke="black" points="551.5,-271.5 551.5,-290.5 679.5,-290.5 679.5,-271.5 551.5,-271.5"/>
<text text-anchor="middle" x="615.5" y="-278.5" font-family="Helvetica,sans-Serif" font-size="10.00">irr::gui::IGUISpriteBank</text>
</a>
</g>
</g>
<!-- Node4&#45;&gt;Node18 -->
<g id="edge22" class="edge">
<title>Node4&#45;&gt;Node18</title>
<path fill="none" stroke="midnightblue" d="M313.03,-318.13C382.11,-309.62 485.37,-296.9 551.32,-288.78"/>
<polygon fill="midnightblue" stroke="midnightblue" points="312.59,-314.66 303.1,-319.35 313.45,-321.6 312.59,-314.66"/>
</g>
<!-- Node5 -->
<g id="node5" class="node">
<title>Node5</title>
<g id="a_node5"><a xlink:title=" ">
<polygon fill="white" stroke="#bfbfbf" points="6,-317.5 6,-336.5 44,-336.5 44,-317.5 6,-317.5"/>
<text text-anchor="middle" x="25" y="-324.5" font-family="Helvetica,sans-Serif" font-size="10.00">char</text>
</a>
</g>
</g>
<!-- Node5&#45;&gt;Node4 -->
<g id="edge4" class="edge">
<title>Node5&#45;&gt;Node4</title>
<path fill="none" stroke="#9a32cd" stroke-dasharray="5,2" d="M54.29,-327C85.39,-327 136.34,-327 176.86,-327"/>
<polygon fill="#9a32cd" stroke="#9a32cd" points="54.16,-323.5 44.16,-327 54.16,-330.5 54.16,-323.5"/>
<text text-anchor="middle" x="113.5" y="-330" font-family="Helvetica,sans-Serif" font-size="10.00"> DebugName</text>
</g>
<!-- Node6 -->
<g id="node6" class="node">
<title>Node6</title>
<g id="a_node6"><a xlink:title=" ">
<polygon fill="white" stroke="#bfbfbf" points="0,-249.5 0,-268.5 50,-268.5 50,-249.5 0,-249.5"/>
<text text-anchor="middle" x="25" y="-256.5" font-family="Helvetica,sans-Serif" font-size="10.00">int32_t</text>
</a>
</g>
</g>
<!-- Node6&#45;&gt;Node1 -->
<g id="edge11" class="edge">
<title>Node6&#45;&gt;Node1</title>
<path fill="none" stroke="#9a32cd" stroke-dasharray="5,2" d="M60.05,-250.94C101.92,-241.76 175.27,-228 239,-228 239,-228 239,-228 781,-228 848.57,-228 926.66,-228 975.93,-228"/>
<polygon fill="#9a32cd" stroke="#9a32cd" points="59.1,-247.57 50.11,-253.17 60.63,-254.4 59.1,-247.57"/>
<text text-anchor="middle" x="458" y="-253" font-family="Helvetica,sans-Serif" font-size="10.00"> GlobalKerningHeight</text>
<text text-anchor="middle" x="458" y="-242" font-family="Helvetica,sans-Serif" font-size="10.00">MaxHeight</text>
<text text-anchor="middle" x="458" y="-231" font-family="Helvetica,sans-Serif" font-size="10.00">GlobalKerningWidth</text>
</g>
<!-- Node6&#45;&gt;Node4 -->
<g id="edge5" class="edge">
<title>Node6&#45;&gt;Node4</title>
<path fill="none" stroke="#9a32cd" stroke-dasharray="5,2" d="M59.58,-269.72C100.64,-282.83 169.52,-304.82 208.92,-317.4"/>
<polygon fill="#9a32cd" stroke="#9a32cd" points="60.61,-266.38 50.02,-266.67 58.48,-273.04 60.61,-266.38"/>
<text text-anchor="middle" x="113.5" y="-304" font-family="Helvetica,sans-Serif" font-size="10.00"> ReferenceCounter</text>
</g>
<!-- Node7 -->
<g id="node7" class="node">
<title>Node7</title>
<g id="a_node7"><a xlink:title=" ">
<polygon fill="white" stroke="#bfbfbf" points="727.5,-180.5 727.5,-199.5 832.5,-199.5 832.5,-180.5 727.5,-180.5"/>
<text text-anchor="middle" x="780" y="-187.5" font-family="Helvetica,sans-Serif" font-size="10.00">string&lt; wchar_t &gt;</text>
</a>
</g>
</g>
<!-- Node7&#45;&gt;Node1 -->
<g id="edge6" class="edge">
<title>Node7&#45;&gt;Node1</title>
<path fill="none" stroke="#9a32cd" stroke-dasharray="5,2" d="M843,-190.26C877.25,-191.48 920.35,-194.77 958,-203 973.89,-206.47 991.06,-212.94 1004.04,-218.42"/>
<polygon fill="#9a32cd" stroke="#9a32cd" points="842.77,-186.76 832.67,-189.95 842.56,-193.75 842.77,-186.76"/>
<text text-anchor="middle" x="917" y="-206" font-family="Helvetica,sans-Serif" font-size="10.00"> Invisible</text>
</g>
<!-- Node8 -->
<g id="node8" class="node">
<title>Node8</title>
<g id="a_node8"><a xlink:title=" ">
<polygon fill="white" stroke="#bfbfbf" points="436,-172.5 436,-191.5 480,-191.5 480,-172.5 436,-172.5"/>
<text text-anchor="middle" x="458" y="-179.5" font-family="Helvetica,sans-Serif" font-size="10.00">string</text>
</a>
</g>
</g>
<!-- Node8&#45;&gt;Node7 -->
<g id="edge7" class="edge">
<title>Node8&#45;&gt;Node7</title>
<path fill="none" stroke="orange" stroke-dasharray="5,2" d="M490.46,-182.79C545.67,-184.17 660.48,-187.04 727.44,-188.71"/>
<polygon fill="orange" stroke="orange" points="490.33,-179.28 480.24,-182.53 490.15,-186.28 490.33,-179.28"/>
<text text-anchor="middle" x="615.5" y="-190" font-family="Helvetica,sans-Serif" font-size="10.00"> &lt; wchar_t &gt;</text>
</g>
<!-- Node9&#45;&gt;Node1 -->
<g id="edge8" class="edge">
<title>Node9&#45;&gt;Node1</title>
<path fill="none" stroke="#9a32cd" stroke-dasharray="5,2" d="M694.24,-363.43C767.42,-356.85 877.49,-338.41 958,-287 980.73,-272.49 1003.51,-250.45 1015.78,-237.82"/>
<polygon fill="#9a32cd" stroke="#9a32cd" points="693.84,-359.95 684.17,-364.28 694.43,-366.92 693.84,-359.95"/>
<text text-anchor="middle" x="780" y="-365" font-family="Helvetica,sans-Serif" font-size="10.00"> Environment</text>
</g>
<!-- Node10 -->
<g id="node10" class="node">
<title>Node10</title>
<g id="a_node10"><a xlink:title=" ">
<polygon fill="white" stroke="#bfbfbf" points="719,-142.5 719,-161.5 841,-161.5 841,-142.5 719,-142.5"/>
<text text-anchor="middle" x="780" y="-149.5" font-family="Helvetica,sans-Serif" font-size="10.00">map&lt; wchar_t, s32 &gt;</text>
</a>
</g>
</g>
<!-- Node10&#45;&gt;Node1 -->
<g id="edge10" class="edge">
<title>Node10&#45;&gt;Node1</title>
<path fill="none" stroke="#9a32cd" stroke-dasharray="5,2" d="M851.32,-153.74C884.71,-156.6 924.52,-163.02 958,-177 981.2,-186.69 1003.47,-206.38 1015.59,-218.26"/>
<polygon fill="#9a32cd" stroke="#9a32cd" points="851.42,-150.24 841.19,-152.97 850.89,-157.22 851.42,-150.24"/>
<text text-anchor="middle" x="917" y="-180" font-family="Helvetica,sans-Serif" font-size="10.00"> CharacterMap</text>
</g>
<!-- Node11 -->
<g id="node11" class="node">
<title>Node11</title>
<g id="a_node11"><a xlink:title=" ">
<polygon fill="white" stroke="#bfbfbf" points="752,-104.5 752,-123.5 808,-123.5 808,-104.5 752,-104.5"/>
<text text-anchor="middle" x="780" y="-111.5" font-family="Helvetica,sans-Serif" font-size="10.00">uint32_t</text>
</a>
</g>
</g>
<!-- Node11&#45;&gt;Node1 -->
<g id="edge12" class="edge">
<title>Node11&#45;&gt;Node1</title>
<path fill="none" stroke="#9a32cd" stroke-dasharray="5,2" d="M818.31,-111.89C856.09,-111.46 914.93,-115.59 958,-141 989.85,-159.79 1011.91,-200.06 1020.72,-218.47"/>
<polygon fill="#9a32cd" stroke="#9a32cd" points="818.16,-108.39 808.25,-112.12 818.32,-115.39 818.16,-108.39"/>
<text text-anchor="middle" x="917" y="-144" font-family="Helvetica,sans-Serif" font-size="10.00"> WrongCharacter</text>
</g>
<!-- Node12 -->
<g id="node12" class="node">
<title>Node12</title>
<g id="a_node12"><a xlink:href="classirr_1_1core_1_1array.html" target="_top" xlink:title=" ">
<polygon fill="white" stroke="black" points="702,-55 702,-85 858,-85 858,-55 702,-55"/>
<text text-anchor="start" x="710" y="-73" font-family="Helvetica,sans-Serif" font-size="10.00">irr::core::array&lt; irr</text>
<text text-anchor="middle" x="780" y="-62" font-family="Helvetica,sans-Serif" font-size="10.00">::gui::CGUIFont::SFontArea &gt;</text>
</a>
</g>
</g>
<!-- Node12&#45;&gt;Node1 -->
<g id="edge13" class="edge">
<title>Node12&#45;&gt;Node1</title>
<path fill="none" stroke="#9a32cd" stroke-dasharray="5,2" d="M868.6,-69.27C899.27,-72.84 932.4,-81.4 958,-100 999.6,-130.22 1017.54,-194.12 1023.04,-218.38"/>
<polygon fill="#9a32cd" stroke="#9a32cd" points="868.61,-65.76 858.31,-68.25 867.92,-72.72 868.61,-65.76"/>
<text text-anchor="middle" x="917" y="-103" font-family="Helvetica,sans-Serif" font-size="10.00"> Areas</text>
</g>
<!-- Node13 -->
<g id="node13" class="node">
<title>Node13</title>
<g id="a_node13"><a xlink:title=" ">
<polygon fill="white" stroke="#bfbfbf" points="387,-100 387,-130 529,-130 529,-100 387,-100"/>
<text text-anchor="start" x="395" y="-118" font-family="Helvetica,sans-Serif" font-size="10.00">vector&lt; irr::gui::CGUIFont</text>
<text text-anchor="middle" x="458" y="-107" font-family="Helvetica,sans-Serif" font-size="10.00">::SFontArea &gt;</text>
</a>
</g>
</g>
<!-- Node13&#45;&gt;Node12 -->
<g id="edge14" class="edge">
<title>Node13&#45;&gt;Node12</title>
<path fill="none" stroke="#9a32cd" stroke-dasharray="5,2" d="M539.32,-104.12C582.26,-98.26 636.02,-90.84 684,-84 689.78,-83.18 695.75,-82.32 701.76,-81.45"/>
<polygon fill="#9a32cd" stroke="#9a32cd" points="538.64,-100.68 529.21,-105.5 539.59,-107.62 538.64,-100.68"/>
<text text-anchor="middle" x="615.5" y="-105" font-family="Helvetica,sans-Serif" font-size="10.00"> m_data</text>
</g>
<!-- Node14 -->
<g id="node14" class="node">
<title>Node14</title>
<g id="a_node14"><a xlink:href="classbool.html" target="_top" xlink:title=" ">
<polygon fill="white" stroke="black" points="221,-49.5 221,-68.5 259,-68.5 259,-49.5 221,-49.5"/>
<text text-anchor="middle" x="240" y="-56.5" font-family="Helvetica,sans-Serif" font-size="10.00">bool</text>
</a>
</g>
</g>
<!-- Node14&#45;&gt;Node12 -->
<g id="edge15" class="edge">
<title>Node14&#45;&gt;Node12</title>
<path fill="none" stroke="#9a32cd" stroke-dasharray="5,2" d="M269.53,-59.58C349.91,-61.23 580.27,-65.94 701.8,-68.42"/>
<polygon fill="#9a32cd" stroke="#9a32cd" points="269.28,-56.08 259.21,-59.37 269.13,-63.08 269.28,-56.08"/>
<text text-anchor="middle" x="458" y="-67" font-family="Helvetica,sans-Serif" font-size="10.00"> is_sorted</text>
</g>
<!-- Node15 -->
<g id="node15" class="node">
<title>Node15</title>
<g id="a_node15"><a xlink:href="classirr_1_1core_1_1array.html" target="_top" xlink:title="Self reallocating template array (like stl vector) with additional features.">
<polygon fill="white" stroke="black" points="401,-14.5 401,-33.5 515,-33.5 515,-14.5 401,-14.5"/>
<text text-anchor="middle" x="458" y="-21.5" font-family="Helvetica,sans-Serif" font-size="10.00">irr::core::array&lt; T &gt;</text>
</a>
</g>
</g>
<!-- Node14&#45;&gt;Node15 -->
<g id="edge17" class="edge">
<title>Node14&#45;&gt;Node15</title>
<path fill="none" stroke="#9a32cd" stroke-dasharray="5,2" d="M269,-53.96C284.34,-51.23 303.7,-47.85 321,-45 347.17,-40.69 376.21,-36.17 400.72,-32.43"/>
<polygon fill="#9a32cd" stroke="#9a32cd" points="268.32,-50.52 259.09,-55.73 269.55,-57.42 268.32,-50.52"/>
<text text-anchor="middle" x="345" y="-48" font-family="Helvetica,sans-Serif" font-size="10.00"> is_sorted</text>
</g>
<!-- Node15&#45;&gt;Node12 -->
<g id="edge16" class="edge">
<title>Node15&#45;&gt;Node12</title>
<path fill="none" stroke="orange" stroke-dasharray="5,2" d="M525.34,-21.46C570.52,-21.07 631.42,-23.16 684,-34 705.59,-38.45 728.75,-47.14 746.79,-54.86"/>
<polygon fill="orange" stroke="orange" points="525.04,-17.97 515.09,-21.6 525.13,-24.97 525.04,-17.97"/>
<text text-anchor="start" x="566.5" y="-48" font-family="Helvetica,sans-Serif" font-size="10.00"> &lt; irr::gui::CGUIFont</text>
<text text-anchor="middle" x="615.5" y="-37" font-family="Helvetica,sans-Serif" font-size="10.00">::SFontArea &gt;</text>
</g>
<!-- Node16 -->
<g id="node16" class="node">
<title>Node16</title>
<g id="a_node16"><a xlink:title=" ">
<polygon fill="white" stroke="#bfbfbf" points="202,-0.5 202,-19.5 278,-19.5 278,-0.5 202,-0.5"/>
<text text-anchor="middle" x="240" y="-7.5" font-family="Helvetica,sans-Serif" font-size="10.00">vector&lt; T &gt;</text>
</a>
</g>
</g>
<!-- Node16&#45;&gt;Node15 -->
<g id="edge18" class="edge">
<title>Node16&#45;&gt;Node15</title>
<path fill="none" stroke="#9a32cd" stroke-dasharray="5,2" d="M288.03,-8.81C312.25,-8.59 342.25,-8.93 369,-11 379.32,-11.8 390.26,-13.07 400.8,-14.51"/>
<polygon fill="#9a32cd" stroke="#9a32cd" points="287.98,-5.31 278.03,-8.93 288.07,-12.31 287.98,-5.31"/>
<text text-anchor="middle" x="345" y="-14" font-family="Helvetica,sans-Serif" font-size="10.00"> m_data</text>
</g>
<!-- Node17&#45;&gt;Node1 -->
<g id="edge19" class="edge">
<title>Node17&#45;&gt;Node1</title>
<path fill="none" stroke="#9a32cd" stroke-dasharray="5,2" d="M689.16,-318.15C759.7,-310.73 868.88,-294.61 958,-261 975.47,-254.41 994.49,-244.79 1007.78,-237.64"/>
<polygon fill="#9a32cd" stroke="#9a32cd" points="688.64,-314.68 679.04,-319.18 689.35,-321.65 688.64,-314.68"/>
<text text-anchor="middle" x="780" y="-319" font-family="Helvetica,sans-Serif" font-size="10.00"> Driver</text>
</g>
<!-- Node18&#45;&gt;Node1 -->
<g id="edge21" class="edge">
<title>Node18&#45;&gt;Node1</title>
<path fill="none" stroke="#9a32cd" stroke-dasharray="5,2" d="M690.06,-274.58C759.4,-268.06 866.1,-256.82 958,-242 965.86,-240.73 974.2,-239.17 982.22,-237.55"/>
<polygon fill="#9a32cd" stroke="#9a32cd" points="689.31,-271.13 679.68,-275.55 689.96,-278.1 689.31,-271.13"/>
<text text-anchor="middle" x="780" y="-276" font-family="Helvetica,sans-Serif" font-size="10.00"> SpriteBank</text>
</g>
</g>
</svg>
        <g id="navigator" transform="translate(0 0)" fill="#404254">
                <rect fill="#f2f5e9" fill-opacity="0.5" stroke="#606060" stroke-width=".5" x="0" y="0" width="60" height="60"/>
                <use id="zoomplus" xlink:href="#zoomPlus" x="17" y="9" onmousedown="handleZoom(evt,'in')"/>
                <use id="zoomminus" xlink:href="#zoomMin" x="42" y="9" onmousedown="handleZoom(evt,'out')"/>
                <use id="reset" xlink:href="#resetDef" x="30" y="36" onmousedown="handleReset()"/>
                <g id="arrowUp" xlink:href="#dirArrow" transform="translate(30 24)" onmousedown="handlePan(0,-1)">
                  <use xlink:href="#rim" fill="#404040">
                        <set attributeName="fill" to="#808080" begin="arrowUp.mouseover" end="arrowUp.mouseout"/>
                  </use>
                  <path fill="none" stroke="white" stroke-width="1.5" d="M0,-3.0v7 M-2.5,-0.5L0,-3.0L2.5,-0.5"/>
                </g>
                <g id="arrowRight" xlink:href="#dirArrow" transform="rotate(90) translate(36 -43)" onmousedown="handlePan(1,0)">
                  <use xlink:href="#rim" fill="#404040">
                        <set attributeName="fill" to="#808080" begin="arrowRight.mouseover" end="arrowRight.mouseout"/>
                  </use>
                  <path fill="none" stroke="white" stroke-width="1.5" d="M0,-3.0v7 M-2.5,-0.5L0,-3.0L2.5,-0.5"/>
                </g>
                <g id="arrowDown" xlink:href="#dirArrow" transform="rotate(180) translate(-30 -48)" onmousedown="handlePan(0,1)">
                  <use xlink:href="#rim" fill="#404040">
                        <set attributeName="fill" to="#808080" begin="arrowDown.mouseover" end="arrowDown.mouseout"/>
                  </use>
                  <path fill="none" stroke="white" stroke-width="1.5" d="M0,-3.0v7 M-2.5,-0.5L0,-3.0L2.5,-0.5"/>
                </g>
                <g id="arrowLeft" xlink:href="#dirArrow" transform="rotate(270) translate(-36 17)" onmousedown="handlePan(-1,0)">
                  <use xlink:href="#rim" fill="#404040">
                        <set attributeName="fill" to="#808080" begin="arrowLeft.mouseover" end="arrowLeft.mouseout"/>
                  </use>
                  <path fill="none" stroke="white" stroke-width="1.5" d="M0,-3.0v7 M-2.5,-0.5L0,-3.0L2.5,-0.5"/>
                </g>
        </g>
        <svg viewBox="0 0 15 15" width="100%" height="30px" preserveAspectRatio="xMaxYMin meet">
         <g id="arrow_out" transform="scale(0.3 0.3)">
          <a xlink:href="classirr_1_1gui_1_1CGUIFont__coll__graph_org.svg" target="_base">
           <rect id="button" ry="5" rx="5" y="6" x="6" height="38" width="38"
                fill="#f2f5e9" fill-opacity="0.5" stroke="#606060" stroke-width="1.0"/>
           <path id="arrow"
             d="M 11.500037,31.436501 C 11.940474,20.09759 22.043105,11.32322 32.158766,21.979434 L 37.068811,17.246167 C 37.068811,17.246167 37.088388,32 37.088388,32 L 22.160133,31.978069 C 22.160133,31.978069 26.997745,27.140456 26.997745,27.140456 C 18.528582,18.264221 13.291696,25.230495 11.500037,31.436501 z"
             style="fill:#404040;"/>
          </a>
         </g>
        </svg>
</svg>
