<?xml version="1.0" encoding="UTF-8" standalone="no"?>
<!DOCTYPE svg PUBLIC "-//W3C//DTD SVG 1.1//EN"
 "http://www.w3.org/Graphics/SVG/1.1/DTD/svg11.dtd">
<!-- Generated by graphviz version 2.43.0 (0)
 -->
<!-- Title: ConfigureOverrideMaterialTarget Pages: 1 -->
<svg width="201pt" height="173pt"
 viewBox="0.00 0.00 201.00 173.00" xmlns="http://www.w3.org/2000/svg" xmlns:xlink="http://www.w3.org/1999/xlink">
<g id="graph0" class="graph" transform="scale(1 1) rotate(0) translate(4 169)">
<title>ConfigureOverrideMaterialTarget</title>
<polygon fill="white" stroke="transparent" points="-4,4 -4,-169 197,-169 197,4 -4,4"/>
<!-- Node1 -->
<g id="node1" class="node">
<title>Node1</title>
<g id="a_node1"><a xlink:title=" ">
<polygon fill="#bfbfbf" stroke="black" points="21,-0.5 21,-30.5 167,-30.5 167,-0.5 21,-0.5"/>
<text text-anchor="start" x="29" y="-18.5" font-family="Helvetica,sans-Serif" font-size="10.00">ConfigureOverrideMaterial</text>
<text text-anchor="middle" x="94" y="-7.5" font-family="Helvetica,sans-Serif" font-size="10.00">Target</text>
</a>
</g>
</g>
<!-- Node2 -->
<g id="node2" class="node">
<title>Node2</title>
<g id="a_node2"><a xlink:href="classRenderTarget.html" target="_top" xlink:title=" ">
<polygon fill="white" stroke="black" points="30.5,-78.5 30.5,-97.5 111.5,-97.5 111.5,-78.5 30.5,-78.5"/>
<text text-anchor="middle" x="71" y="-85.5" font-family="Helvetica,sans-Serif" font-size="10.00">RenderTarget</text>
</a>
</g>
</g>
<!-- Node2&#45;&gt;Node1 -->
<g id="edge1" class="edge">
<title>Node2&#45;&gt;Node1</title>
<path fill="none" stroke="midnightblue" d="M71.4,-68.16C71.95,-61.94 73.01,-55.07 75,-49 77.08,-42.67 80.52,-36.22 83.9,-30.76"/>
<polygon fill="midnightblue" stroke="midnightblue" points="67.9,-68.17 70.88,-78.33 74.89,-68.52 67.9,-68.17"/>
</g>
<!-- Node2&#45;&gt;Node1 -->
<g id="edge4" class="edge">
<title>Node2&#45;&gt;Node1</title>
<path fill="none" stroke="#9a32cd" stroke-dasharray="5,2" d="M77,-68.6C80.88,-56.72 85.85,-41.49 89.41,-30.58"/>
<polygon fill="#9a32cd" stroke="#9a32cd" points="73.59,-67.76 73.82,-78.36 80.25,-69.93 73.59,-67.76"/>
<text text-anchor="middle" x="109" y="-52" font-family="Helvetica,sans-Serif" font-size="10.00"> upstream</text>
</g>
<!-- Node3 -->
<g id="node3" class="node">
<title>Node3</title>
<g id="a_node3"><a xlink:href="classRenderPipelineObject.html" target="_top" xlink:title=" ">
<polygon fill="white" stroke="black" points="0,-145.5 0,-164.5 122,-164.5 122,-145.5 0,-145.5"/>
<text text-anchor="middle" x="61" y="-152.5" font-family="Helvetica,sans-Serif" font-size="10.00">RenderPipelineObject</text>
</a>
</g>
</g>
<!-- Node3&#45;&gt;Node2 -->
<g id="edge2" class="edge">
<title>Node3&#45;&gt;Node2</title>
<path fill="none" stroke="midnightblue" d="M63.92,-135.04C65.82,-122.67 68.21,-107.12 69.67,-97.63"/>
<polygon fill="midnightblue" stroke="midnightblue" points="60.41,-134.82 62.35,-145.23 67.33,-135.88 60.41,-134.82"/>
</g>
<!-- Node4 -->
<g id="node4" class="node">
<title>Node4</title>
<g id="a_node4"><a xlink:href="classbool.html" target="_top" xlink:title=" ">
<polygon fill="white" stroke="black" points="140,-145.5 140,-164.5 178,-164.5 178,-145.5 140,-145.5"/>
<text text-anchor="middle" x="159" y="-152.5" font-family="Helvetica,sans-Serif" font-size="10.00">bool</text>
</a>
</g>
</g>
<!-- Node4&#45;&gt;Node1 -->
<g id="edge5" class="edge">
<title>Node4&#45;&gt;Node1</title>
<path fill="none" stroke="#9a32cd" stroke-dasharray="5,2" d="M159.21,-135.23C158.62,-112.99 154.89,-75.59 138,-49 133.42,-41.79 126.62,-35.63 119.73,-30.67"/>
<polygon fill="#9a32cd" stroke="#9a32cd" points="155.72,-135.37 159.29,-145.35 162.72,-135.32 155.72,-135.37"/>
<text text-anchor="middle" x="174.5" y="-85.5" font-family="Helvetica,sans-Serif" font-size="10.00"> enable</text>
</g>
<!-- Node4&#45;&gt;Node2 -->
<g id="edge3" class="edge">
<title>Node4&#45;&gt;Node2</title>
<path fill="none" stroke="#9a32cd" stroke-dasharray="5,2" d="M130.61,-143.53C120.99,-139.24 110.53,-133.68 102,-127 91.41,-118.71 82.08,-106.17 76.49,-97.8"/>
<polygon fill="#9a32cd" stroke="#9a32cd" points="129.27,-146.77 139.84,-147.41 131.98,-140.31 129.27,-146.77"/>
<text text-anchor="middle" x="123.5" y="-119" font-family="Helvetica,sans-Serif" font-size="10.00"> m_clear</text>
</g>
</g>
</svg>
