<?xml version="1.0" encoding="UTF-8" standalone="no"?>
<!DOCTYPE svg PUBLIC "-//W3C//DTD SVG 1.1//EN"
 "http://www.w3.org/Graphics/SVG/1.1/DTD/svg11.dtd">
<!-- Generated by graphviz version 2.43.0 (0)
 -->
<!-- Title: irr::gui::CGUITTFont::createTTFont Pages: 1 -->
<svg width="455pt" height="186pt"
 viewBox="0.00 0.00 455.00 186.00" xmlns="http://www.w3.org/2000/svg" xmlns:xlink="http://www.w3.org/1999/xlink">
<g id="graph0" class="graph" transform="scale(1 1) rotate(0) translate(4 182)">
<title>irr::gui::CGUITTFont::createTTFont</title>
<polygon fill="white" stroke="transparent" points="-4,4 -4,-182 451,-182 451,4 -4,4"/>
<!-- Node1 -->
<g id="node1" class="node">
<title>Node1</title>
<g id="a_node1"><a xlink:title=" ">
<polygon fill="#bfbfbf" stroke="black" points="0,-48.5 0,-78.5 112,-78.5 112,-48.5 0,-48.5"/>
<text text-anchor="start" x="8" y="-66.5" font-family="Helvetica,sans-Serif" font-size="10.00">irr::gui::CGUITTFont</text>
<text text-anchor="middle" x="56" y="-55.5" font-family="Helvetica,sans-Serif" font-size="10.00">::createTTFont</text>
</a>
</g>
</g>
<!-- Node2 -->
<g id="node2" class="node">
<title>Node2</title>
<g id="a_node2"><a xlink:href="classirr_1_1gui_1_1CGUITTFont.html#a80c163b7dc92a0578cd66c6aba72da56" target="_top" xlink:title="Constructor.">
<polygon fill="white" stroke="black" points="155,-73.5 155,-103.5 267,-103.5 267,-73.5 155,-73.5"/>
<text text-anchor="start" x="163" y="-91.5" font-family="Helvetica,sans-Serif" font-size="10.00">irr::gui::CGUITTFont</text>
<text text-anchor="middle" x="211" y="-80.5" font-family="Helvetica,sans-Serif" font-size="10.00">::CGUITTFont</text>
</a>
</g>
</g>
<!-- Node1&#45;&gt;Node2 -->
<g id="edge1" class="edge">
<title>Node1&#45;&gt;Node2</title>
<path fill="none" stroke="midnightblue" d="M112.24,-72.53C122.85,-74.26 134.06,-76.09 144.96,-77.87"/>
<polygon fill="midnightblue" stroke="midnightblue" points="144.41,-81.33 154.84,-79.49 145.54,-74.42 144.41,-81.33"/>
</g>
<!-- Node7 -->
<g id="node7" class="node">
<title>Node7</title>
<g id="a_node7"><a xlink:href="classirr_1_1IReferenceCounted.html#a03856a09355b89d178090c4a5f738543" target="_top" xlink:title="Drops the object. Decrements the reference counter by one.">
<polygon fill="white" stroke="black" points="148,-24.5 148,-54.5 274,-54.5 274,-24.5 148,-24.5"/>
<text text-anchor="start" x="156" y="-42.5" font-family="Helvetica,sans-Serif" font-size="10.00">irr::IReferenceCounted</text>
<text text-anchor="middle" x="211" y="-31.5" font-family="Helvetica,sans-Serif" font-size="10.00">::drop</text>
</a>
</g>
</g>
<!-- Node1&#45;&gt;Node7 -->
<g id="edge6" class="edge">
<title>Node1&#45;&gt;Node7</title>
<path fill="none" stroke="midnightblue" d="M112.24,-54.84C120.54,-53.53 129.21,-52.17 137.81,-50.82"/>
<polygon fill="midnightblue" stroke="midnightblue" points="138.5,-54.26 147.84,-49.25 137.42,-47.34 138.5,-54.26"/>
</g>
<!-- Node3 -->
<g id="node3" class="node">
<title>Node3</title>
<g id="a_node3"><a xlink:href="classirr_1_1gui_1_1IGUIEnvironment.html#a48f5e442f0a2074a531234ab83148fe2" target="_top" xlink:title="Returns the current video driver.">
<polygon fill="white" stroke="black" points="310,-147.5 310,-177.5 447,-177.5 447,-147.5 310,-147.5"/>
<text text-anchor="start" x="318" y="-165.5" font-family="Helvetica,sans-Serif" font-size="10.00">irr::gui::IGUIEnvironment</text>
<text text-anchor="middle" x="378.5" y="-154.5" font-family="Helvetica,sans-Serif" font-size="10.00">::getVideoDriver</text>
</a>
</g>
</g>
<!-- Node2&#45;&gt;Node3 -->
<g id="edge2" class="edge">
<title>Node2&#45;&gt;Node3</title>
<path fill="none" stroke="midnightblue" d="M239.42,-103.7C258.82,-114.16 285.62,-128 310,-138.5 314.16,-140.29 318.5,-142.06 322.89,-143.77"/>
<polygon fill="midnightblue" stroke="midnightblue" points="321.93,-147.15 332.52,-147.43 324.42,-140.61 321.93,-147.15"/>
</g>
<!-- Node4 -->
<g id="node4" class="node">
<title>Node4</title>
<g id="a_node4"><a xlink:href="classirr_1_1IReferenceCounted.html#a396f9cdbe311ada278626477b3c6f0f5" target="_top" xlink:title="Grabs the object. Increments the reference counter by one.">
<polygon fill="white" stroke="black" points="315.5,-98.5 315.5,-128.5 441.5,-128.5 441.5,-98.5 315.5,-98.5"/>
<text text-anchor="start" x="323.5" y="-116.5" font-family="Helvetica,sans-Serif" font-size="10.00">irr::IReferenceCounted</text>
<text text-anchor="middle" x="378.5" y="-105.5" font-family="Helvetica,sans-Serif" font-size="10.00">::grab</text>
</a>
</g>
</g>
<!-- Node2&#45;&gt;Node4 -->
<g id="edge3" class="edge">
<title>Node2&#45;&gt;Node4</title>
<path fill="none" stroke="midnightblue" d="M267.11,-96.82C279.35,-98.67 292.51,-100.66 305.32,-102.6"/>
<polygon fill="midnightblue" stroke="midnightblue" points="305.08,-106.1 315.49,-104.13 306.13,-99.18 305.08,-106.1"/>
</g>
<!-- Node5 -->
<g id="node5" class="node">
<title>Node5</title>
<g id="a_node5"><a xlink:href="classirr_1_1IReferenceCounted.html#a704c5042d399fe8cd3bdd65a0559002a" target="_top" xlink:title="Sets the debug name of the object.">
<polygon fill="white" stroke="black" points="315.5,-49.5 315.5,-79.5 441.5,-79.5 441.5,-49.5 315.5,-49.5"/>
<text text-anchor="start" x="323.5" y="-67.5" font-family="Helvetica,sans-Serif" font-size="10.00">irr::IReferenceCounted</text>
<text text-anchor="middle" x="378.5" y="-56.5" font-family="Helvetica,sans-Serif" font-size="10.00">::setDebugName</text>
</a>
</g>
</g>
<!-- Node2&#45;&gt;Node5 -->
<g id="edge4" class="edge">
<title>Node2&#45;&gt;Node5</title>
<path fill="none" stroke="midnightblue" d="M267.11,-80.51C279.35,-78.73 292.51,-76.83 305.32,-74.97"/>
<polygon fill="midnightblue" stroke="midnightblue" points="306.1,-78.39 315.49,-73.49 305.09,-71.46 306.1,-78.39"/>
</g>
<!-- Node6 -->
<g id="node6" class="node">
<title>Node6</title>
<g id="a_node6"><a xlink:href="classirr_1_1gui_1_1CGUITTFont.html#a6819f16f391e022f7b71765391f4232c" target="_top" xlink:title="Define which characters should not be drawn by the font.">
<polygon fill="white" stroke="black" points="313,-0.5 313,-30.5 444,-30.5 444,-0.5 313,-0.5"/>
<text text-anchor="start" x="321" y="-18.5" font-family="Helvetica,sans-Serif" font-size="10.00">irr::gui::CGUITTFont</text>
<text text-anchor="middle" x="378.5" y="-7.5" font-family="Helvetica,sans-Serif" font-size="10.00">::setInvisibleCharacters</text>
</a>
</g>
</g>
<!-- Node2&#45;&gt;Node6 -->
<g id="edge5" class="edge">
<title>Node2&#45;&gt;Node6</title>
<path fill="none" stroke="midnightblue" d="M254.57,-73.45C261.18,-70.7 267.85,-67.69 274,-64.5 291.07,-55.64 292.87,-49.23 310,-40.5 314.06,-38.43 318.32,-36.45 322.66,-34.56"/>
<polygon fill="midnightblue" stroke="midnightblue" points="324.31,-37.67 332.21,-30.61 321.63,-31.2 324.31,-37.67"/>
</g>
</g>
</svg>
