<?xml version="1.0" encoding="UTF-8" standalone="no"?>
<!DOCTYPE svg PUBLIC "-//W3C//DTD SVG 1.1//EN"
 "http://www.w3.org/Graphics/SVG/1.1/DTD/svg11.dtd">
<!-- Generated by graphviz version 2.43.0 (0)
 -->
<!-- Title: irr::scene::CSkinnedMesh::getMesh Pages: 1 -->
<!--zoomable 125 -->
<svg id="main" version="1.1" xmlns="http://www.w3.org/2000/svg" xmlns:xlink="http://www.w3.org/1999/xlink" xml:space="preserve" onload="init(evt)">
<style type="text/css"><![CDATA[
.edge:hover path { stroke: red; }
.edge:hover polygon { stroke: red; fill: red; }
]]></style>
<script type="text/javascript"><![CDATA[
var edges = document.getElementsByTagName('g');
if (edges && edges.length) {
  for (var i=0;i<edges.length;i++) {
    if (edges[i].id.substr(0,4)=='edge') {
      edges[i].setAttribute('class','edge');
    }
  }
}
]]></script>
        <defs>
                <circle id="rim" cx="0" cy="0" r="7"/>
                <circle id="rim2" cx="0" cy="0" r="3.5"/>
                <g id="zoomPlus">
                        <use xlink:href="#rim" fill="#404040">
                                <set attributeName="fill" to="#808080" begin="zoomplus.mouseover" end="zoomplus.mouseout"/>
                        </use>
                        <path d="M-4,0h8M0,-4v8" fill="none" stroke="white" stroke-width="1.5" pointer-events="none"/>
                </g>
                <g id="zoomMin">
                        <use xlink:href="#rim" fill="#404040">
                                <set attributeName="fill" to="#808080" begin="zoomminus.mouseover" end="zoomminus.mouseout"/>
                        </use>
                        <path d="M-4,0h8" fill="none" stroke="white" stroke-width="1.5" pointer-events="none"/>
                </g>
                <g id="dirArrow">
                        <path fill="none" stroke="white" stroke-width="1.5" d="M0,-3.0v7 M-2.5,-0.5L0,-3.0L2.5,-0.5"/>
                </g>
               <g id="resetDef">
                       <use xlink:href="#rim2" fill="#404040">
                               <set attributeName="fill" to="#808080" begin="reset.mouseover" end="reset.mouseout"/>
                       </use>
               </g>
        </defs>

<script type="text/javascript">
var viewWidth = 771;
var viewHeight = 125;
var sectionId = 'dynsection-4';
</script>
<script xlink:href="svgpan.js"/>
<svg id="graph" class="graph">
<g id="viewport">
<title>irr::scene::CSkinnedMesh::getMesh</title>
<polygon fill="white" stroke="transparent" points="-4,4 -4,-120.5 767,-120.5 767,4 -4,4"/>
<!-- Node1 -->
<g id="node1" class="node">
<title>Node1</title>
<g id="a_node1"><a xlink:title="returns the animated mesh based on a detail level (which is ignored)">
<polygon fill="#bfbfbf" stroke="black" points="0,-24.5 0,-54.5 140,-54.5 140,-24.5 0,-24.5"/>
<text text-anchor="start" x="8" y="-42.5" font-family="Helvetica,sans-Serif" font-size="10.00">irr::scene::CSkinnedMesh</text>
<text text-anchor="middle" x="70" y="-31.5" font-family="Helvetica,sans-Serif" font-size="10.00">::getMesh</text>
</a>
</g>
</g>
<!-- Node2 -->
<g id="node2" class="node">
<title>Node2</title>
<g id="a_node2"><a xlink:href="classirr_1_1scene_1_1CSkinnedMesh.html#a7fc6789fd7bd0d02fa86c6f961564e37" target="_top" xlink:title=" ">
<polygon fill="white" stroke="black" points="176,-49.5 176,-79.5 316,-79.5 316,-49.5 176,-49.5"/>
<text text-anchor="start" x="184" y="-67.5" font-family="Helvetica,sans-Serif" font-size="10.00">irr::scene::CSkinnedMesh</text>
<text text-anchor="middle" x="246" y="-56.5" font-family="Helvetica,sans-Serif" font-size="10.00">::animateMesh</text>
</a>
</g>
</g>
<!-- Node1&#45;&gt;Node2 -->
<g id="edge1" class="edge">
<title>Node1&#45;&gt;Node2</title>
<path fill="none" stroke="midnightblue" d="M140.02,-49.42C148.48,-50.63 157.17,-51.88 165.76,-53.12"/>
<polygon fill="midnightblue" stroke="midnightblue" points="165.38,-56.6 175.78,-54.55 166.38,-49.67 165.38,-56.6"/>
</g>
<!-- Node9 -->
<g id="node9" class="node">
<title>Node9</title>
<g id="a_node9"><a xlink:href="classirr_1_1scene_1_1CSkinnedMesh.html#a666e2af7c873ea72f4c8591eb2168f31" target="_top" xlink:title="Preforms a software skin on this mesh based of joint positions.">
<polygon fill="white" stroke="black" points="176,-0.5 176,-30.5 316,-30.5 316,-0.5 176,-0.5"/>
<text text-anchor="start" x="184" y="-18.5" font-family="Helvetica,sans-Serif" font-size="10.00">irr::scene::CSkinnedMesh</text>
<text text-anchor="middle" x="246" y="-7.5" font-family="Helvetica,sans-Serif" font-size="10.00">::skinMesh</text>
</a>
</g>
</g>
<!-- Node1&#45;&gt;Node9 -->
<g id="edge8" class="edge">
<title>Node1&#45;&gt;Node9</title>
<path fill="none" stroke="midnightblue" d="M140.02,-29.98C148.48,-28.81 157.17,-27.61 165.76,-26.43"/>
<polygon fill="midnightblue" stroke="midnightblue" points="166.35,-29.88 175.78,-25.05 165.4,-22.95 166.35,-29.88"/>
</g>
<!-- Node3 -->
<g id="node3" class="node">
<title>Node3</title>
<g id="a_node3"><a xlink:href="namespaceirr_1_1core.html#ae2e6a5729b911d26565b508e8b8dae91" target="_top" xlink:title=" ">
<polygon fill="white" stroke="black" points="369,-97 369,-116 448,-116 448,-97 369,-97"/>
<text text-anchor="middle" x="408.5" y="-104" font-family="Helvetica,sans-Serif" font-size="10.00">irr::core::lerp</text>
</a>
</g>
</g>
<!-- Node2&#45;&gt;Node3 -->
<g id="edge2" class="edge">
<title>Node2&#45;&gt;Node3</title>
<path fill="none" stroke="midnightblue" d="M304.49,-79.54C322.99,-84.38 343.24,-89.69 360.86,-94.3"/>
<polygon fill="midnightblue" stroke="midnightblue" points="360.34,-97.78 370.9,-96.92 362.11,-91 360.34,-97.78"/>
</g>
<!-- Node4 -->
<g id="node4" class="node">
<title>Node4</title>
<g id="a_node4"><a xlink:href="classirr_1_1core_1_1array.html#af2a884d7e19d685b58617fed4ea4d4b9" target="_top" xlink:title="Get number of occupied elements of the array.">
<polygon fill="white" stroke="black" points="353.5,-8 353.5,-27 463.5,-27 463.5,-8 353.5,-8"/>
<text text-anchor="middle" x="408.5" y="-15" font-family="Helvetica,sans-Serif" font-size="10.00">irr::core::array::size</text>
</a>
</g>
</g>
<!-- Node2&#45;&gt;Node4 -->
<g id="edge3" class="edge">
<title>Node2&#45;&gt;Node4</title>
<path fill="none" stroke="midnightblue" d="M298.22,-49.5C319.83,-43.17 344.67,-35.9 365.21,-29.88"/>
<polygon fill="midnightblue" stroke="midnightblue" points="366.3,-33.21 374.91,-27.04 364.33,-26.49 366.3,-33.21"/>
</g>
<!-- Node5 -->
<g id="node5" class="node">
<title>Node5</title>
<g id="a_node5"><a xlink:href="classirr_1_1core_1_1quaternion.html#a91335e9fdb50c3cfc2042aa9a4bfdf68" target="_top" xlink:title="Set this quaternion to the result of the spherical interpolation between two quaternions.">
<polygon fill="white" stroke="black" points="352,-47.5 352,-77.5 465,-77.5 465,-47.5 352,-47.5"/>
<text text-anchor="start" x="360" y="-65.5" font-family="Helvetica,sans-Serif" font-size="10.00">irr::core::quaternion</text>
<text text-anchor="middle" x="408.5" y="-54.5" font-family="Helvetica,sans-Serif" font-size="10.00">::slerp</text>
</a>
</g>
</g>
<!-- Node2&#45;&gt;Node5 -->
<g id="edge4" class="edge">
<title>Node2&#45;&gt;Node5</title>
<path fill="none" stroke="midnightblue" d="M316.46,-63.63C324.9,-63.53 333.49,-63.42 341.87,-63.32"/>
<polygon fill="midnightblue" stroke="midnightblue" points="341.99,-66.82 351.95,-63.19 341.9,-59.82 341.99,-66.82"/>
</g>
<!-- Node6 -->
<g id="node6" class="node">
<title>Node6</title>
<g id="a_node6"><a xlink:href="classirr_1_1core_1_1quaternion.html#a1815b23fdca2b759f7dc43e10c26439f" target="_top" xlink:title="Calculates the dot product.">
<polygon fill="white" stroke="black" points="501,-72.5 501,-102.5 614,-102.5 614,-72.5 501,-72.5"/>
<text text-anchor="start" x="509" y="-90.5" font-family="Helvetica,sans-Serif" font-size="10.00">irr::core::quaternion</text>
<text text-anchor="middle" x="557.5" y="-79.5" font-family="Helvetica,sans-Serif" font-size="10.00">::dotProduct</text>
</a>
</g>
</g>
<!-- Node5&#45;&gt;Node6 -->
<g id="edge5" class="edge">
<title>Node5&#45;&gt;Node6</title>
<path fill="none" stroke="midnightblue" d="M465.07,-71.95C473.49,-73.38 482.24,-74.87 490.84,-76.33"/>
<polygon fill="midnightblue" stroke="midnightblue" points="490.4,-79.81 500.85,-78.04 491.58,-72.91 490.4,-79.81"/>
</g>
<!-- Node7 -->
<g id="node7" class="node">
<title>Node7</title>
<g id="a_node7"><a xlink:href="classirr_1_1core_1_1quaternion.html#acdb8b31f25b3b47e640a13f8a25ef1cd" target="_top" xlink:title="Set this quaternion to the linear interpolation between two quaternions and normalize the result.">
<polygon fill="white" stroke="black" points="501,-23.5 501,-53.5 614,-53.5 614,-23.5 501,-23.5"/>
<text text-anchor="start" x="509" y="-41.5" font-family="Helvetica,sans-Serif" font-size="10.00">irr::core::quaternion</text>
<text text-anchor="middle" x="557.5" y="-30.5" font-family="Helvetica,sans-Serif" font-size="10.00">::lerpN</text>
</a>
</g>
</g>
<!-- Node5&#45;&gt;Node7 -->
<g id="edge6" class="edge">
<title>Node5&#45;&gt;Node7</title>
<path fill="none" stroke="midnightblue" d="M465.07,-53.43C473.49,-52.05 482.24,-50.62 490.84,-49.22"/>
<polygon fill="midnightblue" stroke="midnightblue" points="491.54,-52.65 500.85,-47.59 490.41,-45.74 491.54,-52.65"/>
</g>
<!-- Node8 -->
<g id="node8" class="node">
<title>Node8</title>
<g id="a_node8"><a xlink:href="classirr_1_1core_1_1quaternion.html#aac7a34ffd2a14a78de12d994539b94f9" target="_top" xlink:title="Normalizes the quaternion.">
<polygon fill="white" stroke="black" points="650,-23.5 650,-53.5 763,-53.5 763,-23.5 650,-23.5"/>
<text text-anchor="start" x="658" y="-41.5" font-family="Helvetica,sans-Serif" font-size="10.00">irr::core::quaternion</text>
<text text-anchor="middle" x="706.5" y="-30.5" font-family="Helvetica,sans-Serif" font-size="10.00">::normalize</text>
</a>
</g>
</g>
<!-- Node7&#45;&gt;Node8 -->
<g id="edge7" class="edge">
<title>Node7&#45;&gt;Node8</title>
<path fill="none" stroke="midnightblue" d="M614.07,-38.5C622.49,-38.5 631.24,-38.5 639.84,-38.5"/>
<polygon fill="midnightblue" stroke="midnightblue" points="639.85,-42 649.85,-38.5 639.85,-35 639.85,-42"/>
</g>
<!-- Node9&#45;&gt;Node4 -->
<g id="edge9" class="edge">
<title>Node9&#45;&gt;Node4</title>
<path fill="none" stroke="midnightblue" d="M316.46,-16.37C325.35,-16.48 334.42,-16.59 343.23,-16.7"/>
<polygon fill="midnightblue" stroke="midnightblue" points="343.37,-20.2 353.41,-16.83 343.46,-13.2 343.37,-20.2"/>
</g>
</g>
</svg>
        <g id="navigator" transform="translate(0 0)" fill="#404254">
                <rect fill="#f2f5e9" fill-opacity="0.5" stroke="#606060" stroke-width=".5" x="0" y="0" width="60" height="60"/>
                <use id="zoomplus" xlink:href="#zoomPlus" x="17" y="9" onmousedown="handleZoom(evt,'in')"/>
                <use id="zoomminus" xlink:href="#zoomMin" x="42" y="9" onmousedown="handleZoom(evt,'out')"/>
                <use id="reset" xlink:href="#resetDef" x="30" y="36" onmousedown="handleReset()"/>
                <g id="arrowUp" xlink:href="#dirArrow" transform="translate(30 24)" onmousedown="handlePan(0,-1)">
                  <use xlink:href="#rim" fill="#404040">
                        <set attributeName="fill" to="#808080" begin="arrowUp.mouseover" end="arrowUp.mouseout"/>
                  </use>
                  <path fill="none" stroke="white" stroke-width="1.5" d="M0,-3.0v7 M-2.5,-0.5L0,-3.0L2.5,-0.5"/>
                </g>
                <g id="arrowRight" xlink:href="#dirArrow" transform="rotate(90) translate(36 -43)" onmousedown="handlePan(1,0)">
                  <use xlink:href="#rim" fill="#404040">
                        <set attributeName="fill" to="#808080" begin="arrowRight.mouseover" end="arrowRight.mouseout"/>
                  </use>
                  <path fill="none" stroke="white" stroke-width="1.5" d="M0,-3.0v7 M-2.5,-0.5L0,-3.0L2.5,-0.5"/>
                </g>
                <g id="arrowDown" xlink:href="#dirArrow" transform="rotate(180) translate(-30 -48)" onmousedown="handlePan(0,1)">
                  <use xlink:href="#rim" fill="#404040">
                        <set attributeName="fill" to="#808080" begin="arrowDown.mouseover" end="arrowDown.mouseout"/>
                  </use>
                  <path fill="none" stroke="white" stroke-width="1.5" d="M0,-3.0v7 M-2.5,-0.5L0,-3.0L2.5,-0.5"/>
                </g>
                <g id="arrowLeft" xlink:href="#dirArrow" transform="rotate(270) translate(-36 17)" onmousedown="handlePan(-1,0)">
                  <use xlink:href="#rim" fill="#404040">
                        <set attributeName="fill" to="#808080" begin="arrowLeft.mouseover" end="arrowLeft.mouseout"/>
                  </use>
                  <path fill="none" stroke="white" stroke-width="1.5" d="M0,-3.0v7 M-2.5,-0.5L0,-3.0L2.5,-0.5"/>
                </g>
        </g>
        <svg viewBox="0 0 15 15" width="100%" height="30px" preserveAspectRatio="xMaxYMin meet">
         <g id="arrow_out" transform="scale(0.3 0.3)">
          <a xlink:href="classirr_1_1scene_1_1CSkinnedMesh_ae0fbc8d415e0e9ffc44e64149ebbaa8c_cgraph_org.svg" target="_base">
           <rect id="button" ry="5" rx="5" y="6" x="6" height="38" width="38"
                fill="#f2f5e9" fill-opacity="0.5" stroke="#606060" stroke-width="1.0"/>
           <path id="arrow"
             d="M 11.500037,31.436501 C 11.940474,20.09759 22.043105,11.32322 32.158766,21.979434 L 37.068811,17.246167 C 37.068811,17.246167 37.088388,32 37.088388,32 L 22.160133,31.978069 C 22.160133,31.978069 26.997745,27.140456 26.997745,27.140456 C 18.528582,18.264221 13.291696,25.230495 11.500037,31.436501 z"
             style="fill:#404040;"/>
          </a>
         </g>
        </svg>
</svg>
