<?xml version="1.0" encoding="UTF-8" standalone="no"?>
<!DOCTYPE svg PUBLIC "-//W3C//DTD SVG 1.1//EN"
 "http://www.w3.org/Graphics/SVG/1.1/DTD/svg11.dtd">
<!-- Generated by graphviz version 2.43.0 (0)
 -->
<!-- Title: CraftDefinitionShapeless Pages: 1 -->
<svg width="572pt" height="184pt"
 viewBox="0.00 0.00 571.50 184.00" xmlns="http://www.w3.org/2000/svg" xmlns:xlink="http://www.w3.org/1999/xlink">
<g id="graph0" class="graph" transform="scale(1 1) rotate(0) translate(4 180)">
<title>CraftDefinitionShapeless</title>
<polygon fill="white" stroke="transparent" points="-4,4 -4,-180 567.5,-180 567.5,4 -4,4"/>
<!-- Node1 -->
<g id="node1" class="node">
<title>Node1</title>
<g id="a_node1"><a xlink:title=" ">
<polygon fill="#bfbfbf" stroke="black" points="244,-0.5 244,-19.5 381,-19.5 381,-0.5 244,-0.5"/>
<text text-anchor="middle" x="312.5" y="-7.5" font-family="Helvetica,sans-Serif" font-size="10.00">CraftDefinitionShapeless</text>
</a>
</g>
</g>
<!-- Node2 -->
<g id="node2" class="node">
<title>Node2</title>
<g id="a_node2"><a xlink:href="classCraftDefinition.html" target="_top" xlink:title=" ">
<polygon fill="white" stroke="black" points="52,-78.5 52,-97.5 139,-97.5 139,-78.5 52,-78.5"/>
<text text-anchor="middle" x="95.5" y="-85.5" font-family="Helvetica,sans-Serif" font-size="10.00">CraftDefinition</text>
</a>
</g>
</g>
<!-- Node2&#45;&gt;Node1 -->
<g id="edge1" class="edge">
<title>Node2&#45;&gt;Node1</title>
<path fill="none" stroke="midnightblue" d="M124.99,-74.59C150.15,-64.21 187.4,-49.32 220.5,-38 240.35,-31.21 262.94,-24.57 280.77,-19.57"/>
<polygon fill="midnightblue" stroke="midnightblue" points="123.54,-71.4 115.65,-78.47 126.23,-77.87 123.54,-71.4"/>
</g>
<!-- Node3 -->
<g id="node3" class="node">
<title>Node3</title>
<g id="a_node3"><a xlink:title=" ">
<polygon fill="white" stroke="#bfbfbf" points="0,-151 0,-170 87,-170 87,-151 0,-151"/>
<text text-anchor="middle" x="43.5" y="-158" font-family="Helvetica,sans-Serif" font-size="10.00">CraftHashType</text>
</a>
</g>
</g>
<!-- Node3&#45;&gt;Node2 -->
<g id="edge2" class="edge">
<title>Node3&#45;&gt;Node2</title>
<path fill="none" stroke="#9a32cd" stroke-dasharray="5,2" d="M53.75,-142.24C58.81,-134.08 65.18,-124.33 71.5,-116 76.35,-109.61 82.35,-102.86 87.14,-97.7"/>
<polygon fill="#9a32cd" stroke="#9a32cd" points="50.69,-140.54 48.49,-150.9 56.68,-144.17 50.69,-140.54"/>
<text text-anchor="middle" x="98.5" y="-119" font-family="Helvetica,sans-Serif" font-size="10.00"> hash_type</text>
</g>
<!-- Node4 -->
<g id="node4" class="node">
<title>Node4</title>
<g id="a_node4"><a xlink:title=" ">
<polygon fill="white" stroke="#bfbfbf" points="105,-151 105,-170 190,-170 190,-151 105,-151"/>
<text text-anchor="middle" x="147.5" y="-158" font-family="Helvetica,sans-Serif" font-size="10.00">RecipePriority</text>
</a>
</g>
</g>
<!-- Node4&#45;&gt;Node2 -->
<g id="edge3" class="edge">
<title>Node4&#45;&gt;Node2</title>
<path fill="none" stroke="#9a32cd" stroke-dasharray="5,2" d="M140.24,-141.55C136.48,-133.34 131.43,-123.75 125.5,-116 120.22,-109.1 113.02,-102.55 106.99,-97.63"/>
<polygon fill="#9a32cd" stroke="#9a32cd" points="137.12,-143.15 144.29,-150.95 143.55,-140.39 137.12,-143.15"/>
<text text-anchor="middle" x="152" y="-119" font-family="Helvetica,sans-Serif" font-size="10.00"> priority</text>
</g>
<!-- Node5 -->
<g id="node5" class="node">
<title>Node5</title>
<g id="a_node5"><a xlink:title=" ">
<polygon fill="white" stroke="#bfbfbf" points="157,-78.5 157,-97.5 276,-97.5 276,-78.5 157,-78.5"/>
<text text-anchor="middle" x="216.5" y="-85.5" font-family="Helvetica,sans-Serif" font-size="10.00">vector&lt; std::string &gt;</text>
</a>
</g>
</g>
<!-- Node5&#45;&gt;Node1 -->
<g id="edge4" class="edge">
<title>Node5&#45;&gt;Node1</title>
<path fill="none" stroke="#9a32cd" stroke-dasharray="5,2" d="M220.66,-68.19C223.77,-58.05 228.99,-46.02 237.5,-38 246.56,-29.46 258.53,-23.59 270.23,-19.56"/>
<polygon fill="#9a32cd" stroke="#9a32cd" points="217.19,-67.6 218.06,-78.16 223.97,-69.37 217.19,-67.6"/>
<text text-anchor="middle" x="273.5" y="-52" font-family="Helvetica,sans-Serif" font-size="10.00"> recipe_names</text>
<text text-anchor="middle" x="273.5" y="-41" font-family="Helvetica,sans-Serif" font-size="10.00">recipe</text>
</g>
<!-- Node6 -->
<g id="node6" class="node">
<title>Node6</title>
<g id="a_node6"><a xlink:href="classbool.html" target="_top" xlink:title=" ">
<polygon fill="white" stroke="black" points="294.5,-78.5 294.5,-97.5 332.5,-97.5 332.5,-78.5 294.5,-78.5"/>
<text text-anchor="middle" x="313.5" y="-85.5" font-family="Helvetica,sans-Serif" font-size="10.00">bool</text>
</a>
</g>
</g>
<!-- Node6&#45;&gt;Node1 -->
<g id="edge5" class="edge">
<title>Node6&#45;&gt;Node1</title>
<path fill="none" stroke="#9a32cd" stroke-dasharray="5,2" d="M313.25,-68.22C313.05,-52.7 312.77,-31.36 312.61,-19.62"/>
<polygon fill="#9a32cd" stroke="#9a32cd" points="309.75,-68.33 313.39,-78.28 316.75,-68.24 309.75,-68.33"/>
<text text-anchor="middle" x="343.5" y="-46.5" font-family="Helvetica,sans-Serif" font-size="10.00"> hash_inited</text>
</g>
<!-- Node7 -->
<g id="node7" class="node">
<title>Node7</title>
<g id="a_node7"><a xlink:title=" ">
<polygon fill="white" stroke="#bfbfbf" points="373.5,-78.5 373.5,-97.5 417.5,-97.5 417.5,-78.5 373.5,-78.5"/>
<text text-anchor="middle" x="395.5" y="-85.5" font-family="Helvetica,sans-Serif" font-size="10.00">string</text>
</a>
</g>
</g>
<!-- Node7&#45;&gt;Node1 -->
<g id="edge6" class="edge">
<title>Node7&#45;&gt;Node1</title>
<path fill="none" stroke="#9a32cd" stroke-dasharray="5,2" d="M390.71,-68.41C387.32,-58.35 381.85,-46.31 373.5,-38 365.12,-29.67 353.74,-23.69 343.07,-19.51"/>
<polygon fill="#9a32cd" stroke="#9a32cd" points="387.44,-69.69 393.62,-78.29 394.15,-67.71 387.44,-69.69"/>
<text text-anchor="middle" x="405" y="-46.5" font-family="Helvetica,sans-Serif" font-size="10.00"> output</text>
</g>
<!-- Node8 -->
<g id="node8" class="node">
<title>Node8</title>
<g id="a_node8"><a xlink:href="structCraftReplacements.html" target="_top" xlink:title=" ">
<polygon fill="white" stroke="black" points="435.5,-78.5 435.5,-97.5 545.5,-97.5 545.5,-78.5 435.5,-78.5"/>
<text text-anchor="middle" x="490.5" y="-85.5" font-family="Helvetica,sans-Serif" font-size="10.00">CraftReplacements</text>
</a>
</g>
</g>
<!-- Node8&#45;&gt;Node1 -->
<g id="edge7" class="edge">
<title>Node8&#45;&gt;Node1</title>
<path fill="none" stroke="#9a32cd" stroke-dasharray="5,2" d="M474.25,-71.43C462.02,-60.54 444.37,-46.48 426.5,-38 408.68,-29.54 387.99,-23.62 369.17,-19.52"/>
<polygon fill="#9a32cd" stroke="#9a32cd" points="472.05,-74.16 481.78,-78.35 476.79,-69.01 472.05,-74.16"/>
<text text-anchor="middle" x="495.5" y="-46.5" font-family="Helvetica,sans-Serif" font-size="10.00"> replacements</text>
</g>
<!-- Node9 -->
<g id="node9" class="node">
<title>Node9</title>
<g id="a_node9"><a xlink:title=" ">
<polygon fill="white" stroke="#bfbfbf" points="417.5,-145.5 417.5,-175.5 563.5,-175.5 563.5,-145.5 417.5,-145.5"/>
<text text-anchor="start" x="425.5" y="-163.5" font-family="Helvetica,sans-Serif" font-size="10.00">vector&lt; std::pair&lt;</text>
<text text-anchor="middle" x="490.5" y="-152.5" font-family="Helvetica,sans-Serif" font-size="10.00"> std::string, std::string &gt; &gt;</text>
</a>
</g>
</g>
<!-- Node9&#45;&gt;Node8 -->
<g id="edge8" class="edge">
<title>Node9&#45;&gt;Node8</title>
<path fill="none" stroke="#9a32cd" stroke-dasharray="5,2" d="M490.5,-135.09C490.5,-122.21 490.5,-107.2 490.5,-97.89"/>
<polygon fill="#9a32cd" stroke="#9a32cd" points="487,-135.23 490.5,-145.23 494,-135.23 487,-135.23"/>
<text text-anchor="middle" x="504.5" y="-119" font-family="Helvetica,sans-Serif" font-size="10.00"> pairs</text>
</g>
</g>
</svg>
