<?xml version="1.0" encoding="UTF-8" standalone="no"?>
<!DOCTYPE svg PUBLIC "-//W3C//DTD SVG 1.1//EN"
 "http://www.w3.org/Graphics/SVG/1.1/DTD/svg11.dtd">
<!-- Generated by graphviz version 2.43.0 (0)
 -->
<!-- Title: Pathfinder::updateAllCosts Pages: 1 -->
<svg width="344pt" height="142pt"
 viewBox="0.00 0.00 344.00 142.00" xmlns="http://www.w3.org/2000/svg" xmlns:xlink="http://www.w3.org/1999/xlink">
<g id="graph0" class="graph" transform="scale(1 1) rotate(0) translate(4 138)">
<title>Pathfinder::updateAllCosts</title>
<polygon fill="white" stroke="transparent" points="-4,4 -4,-138 340,-138 340,4 -4,4"/>
<!-- Node1 -->
<g id="node1" class="node">
<title>Node1</title>
<g id="a_node1"><a xlink:title=" ">
<polygon fill="#bfbfbf" stroke="black" points="0,-57.5 0,-76.5 145,-76.5 145,-57.5 0,-57.5"/>
<text text-anchor="middle" x="72.5" y="-64.5" font-family="Helvetica,sans-Serif" font-size="10.00">Pathfinder::updateAllCosts</text>
</a>
</g>
</g>
<!-- Node2 -->
<g id="node2" class="node">
<title>Node2</title>
<g id="a_node2"><a xlink:href="classPathGridnode.html#a2988bcc453062702cd1342e431f606b4" target="_top" xlink:title=" ">
<polygon fill="white" stroke="black" points="196,-114.5 196,-133.5 321,-133.5 321,-114.5 196,-114.5"/>
<text text-anchor="middle" x="258.5" y="-121.5" font-family="Helvetica,sans-Serif" font-size="10.00">PathGridnode::getCost</text>
</a>
</g>
</g>
<!-- Node1&#45;&gt;Node2 -->
<g id="edge1" class="edge">
<title>Node1&#45;&gt;Node2</title>
<path fill="none" stroke="midnightblue" d="M98.47,-76.6C120.11,-84.73 152.37,-96.41 181,-105 189.1,-107.43 197.75,-109.8 206.21,-111.99"/>
<polygon fill="midnightblue" stroke="midnightblue" points="205.46,-115.41 216.01,-114.47 207.18,-108.62 205.46,-115.41"/>
</g>
<!-- Node3 -->
<g id="node3" class="node">
<title>Node3</title>
<g id="a_node3"><a xlink:href="classPathfinder.html#a126f2cd92e09f166358eddf20fb0a82a" target="_top" xlink:title=" ">
<polygon fill="white" stroke="black" points="181,-76.5 181,-95.5 336,-95.5 336,-76.5 181,-76.5"/>
<text text-anchor="middle" x="258.5" y="-83.5" font-family="Helvetica,sans-Serif" font-size="10.00">Pathfinder::getIndexElement</text>
</a>
</g>
</g>
<!-- Node1&#45;&gt;Node3 -->
<g id="edge2" class="edge">
<title>Node1&#45;&gt;Node3</title>
<path fill="none" stroke="midnightblue" d="M145.17,-74.4C153.58,-75.27 162.23,-76.16 170.82,-77.05"/>
<polygon fill="midnightblue" stroke="midnightblue" points="170.55,-80.54 180.86,-78.09 171.27,-73.58 170.55,-80.54"/>
</g>
<!-- Node4 -->
<g id="node4" class="node">
<title>Node4</title>
<g id="a_node4"><a xlink:href="classPathfinder.html#aedff5812d509c9ffc3a9a5765e4911e4" target="_top" xlink:title=" ">
<polygon fill="white" stroke="black" points="208.5,-38.5 208.5,-57.5 308.5,-57.5 308.5,-38.5 208.5,-38.5"/>
<text text-anchor="middle" x="258.5" y="-45.5" font-family="Helvetica,sans-Serif" font-size="10.00">Pathfinder::invert</text>
</a>
</g>
</g>
<!-- Node1&#45;&gt;Node4 -->
<g id="edge3" class="edge">
<title>Node1&#45;&gt;Node4</title>
<path fill="none" stroke="midnightblue" d="M145.17,-59.6C162.71,-57.79 181.3,-55.87 198.2,-54.12"/>
<polygon fill="midnightblue" stroke="midnightblue" points="198.89,-57.57 208.47,-53.06 198.17,-50.61 198.89,-57.57"/>
</g>
<!-- Node5 -->
<g id="node5" class="node">
<title>Node5</title>
<g id="a_node5"><a xlink:href="classPathfinder.html#a837fb51dab363fcc007f45f4f4263539" target="_top" xlink:title=" ">
<polygon fill="white" stroke="black" points="193,-0.5 193,-19.5 324,-19.5 324,-0.5 193,-0.5"/>
<text text-anchor="middle" x="258.5" y="-7.5" font-family="Helvetica,sans-Serif" font-size="10.00">Pathfinder::isValidIndex</text>
</a>
</g>
</g>
<!-- Node1&#45;&gt;Node5 -->
<g id="edge4" class="edge">
<title>Node1&#45;&gt;Node5</title>
<path fill="none" stroke="midnightblue" d="M98.47,-57.4C120.11,-49.27 152.37,-37.59 181,-29 189.1,-26.57 197.75,-24.2 206.21,-22.01"/>
<polygon fill="midnightblue" stroke="midnightblue" points="207.18,-25.38 216.01,-19.53 205.46,-18.59 207.18,-25.38"/>
</g>
</g>
</svg>
