<?xml version="1.0" encoding="UTF-8" standalone="no"?>
<!DOCTYPE svg PUBLIC "-//W3C//DTD SVG 1.1//EN"
 "http://www.w3.org/Graphics/SVG/1.1/DTD/svg11.dtd">
<!-- Generated by graphviz version 2.43.0 (0)
 -->
<!-- Title: irr::video::CImage::CImage Pages: 1 -->
<svg width="480pt" height="39pt"
 viewBox="0.00 0.00 480.00 39.00" xmlns="http://www.w3.org/2000/svg" xmlns:xlink="http://www.w3.org/1999/xlink">
<g id="graph0" class="graph" transform="scale(1 1) rotate(0) translate(4 35)">
<title>irr::video::CImage::CImage</title>
<polygon fill="white" stroke="transparent" points="-4,4 -4,-35 476,-35 476,4 -4,4"/>
<!-- Node1 -->
<g id="node1" class="node">
<title>Node1</title>
<g id="a_node1"><a xlink:title="constructor for empty image">
<polygon fill="#bfbfbf" stroke="black" points="0,-0.5 0,-30.5 104,-30.5 104,-0.5 0,-0.5"/>
<text text-anchor="start" x="8" y="-18.5" font-family="Helvetica,sans-Serif" font-size="10.00">irr::video::CImage</text>
<text text-anchor="middle" x="52" y="-7.5" font-family="Helvetica,sans-Serif" font-size="10.00">::CImage</text>
</a>
</g>
</g>
<!-- Node2 -->
<g id="node2" class="node">
<title>Node2</title>
<g id="a_node2"><a xlink:href="classirr_1_1video_1_1IImage.html#a32517f3c1eb9c6da812b76ff89e74132" target="_top" xlink:title="calculate image data size in bytes for selected format, width and height.">
<polygon fill="white" stroke="black" points="140,-0.5 140,-30.5 281,-30.5 281,-0.5 140,-0.5"/>
<text text-anchor="start" x="148" y="-18.5" font-family="Helvetica,sans-Serif" font-size="10.00">irr::video::IImage</text>
<text text-anchor="middle" x="210.5" y="-7.5" font-family="Helvetica,sans-Serif" font-size="10.00">::getDataSizeFromFormat</text>
</a>
</g>
</g>
<!-- Node1&#45;&gt;Node2 -->
<g id="edge1" class="edge">
<title>Node1&#45;&gt;Node2</title>
<path fill="none" stroke="midnightblue" d="M104.24,-15.5C112.45,-15.5 121.1,-15.5 129.77,-15.5"/>
<polygon fill="midnightblue" stroke="midnightblue" points="129.95,-19 139.95,-15.5 129.95,-12 129.95,-19"/>
</g>
<!-- Node3 -->
<g id="node3" class="node">
<title>Node3</title>
<g id="a_node3"><a xlink:href="classirr_1_1video_1_1IImage.html#a70b50ef1bbb6f90ec4c43a91f521c2b6" target="_top" xlink:title="get the amount of Bits per Pixel of the given color format">
<polygon fill="white" stroke="black" points="317,-0.5 317,-30.5 472,-30.5 472,-0.5 317,-0.5"/>
<text text-anchor="start" x="325" y="-18.5" font-family="Helvetica,sans-Serif" font-size="10.00">irr::video::IImage</text>
<text text-anchor="middle" x="394.5" y="-7.5" font-family="Helvetica,sans-Serif" font-size="10.00">::getBitsPerPixelFromFormat</text>
</a>
</g>
</g>
<!-- Node2&#45;&gt;Node3 -->
<g id="edge2" class="edge">
<title>Node2&#45;&gt;Node3</title>
<path fill="none" stroke="midnightblue" d="M281.09,-15.5C289.52,-15.5 298.22,-15.5 306.87,-15.5"/>
<polygon fill="midnightblue" stroke="midnightblue" points="306.98,-19 316.98,-15.5 306.98,-12 306.98,-19"/>
</g>
</g>
</svg>
