<?xml version="1.0" encoding="UTF-8" standalone="no"?>
<!DOCTYPE svg PUBLIC "-//W3C//DTD SVG 1.1//EN"
 "http://www.w3.org/Graphics/SVG/1.1/DTD/svg11.dtd">
<!-- Generated by graphviz version 2.43.0 (0)
 -->
<!-- Title: GetRequest&lt; Key, T, Caller, CallerData &gt; Pages: 1 -->
<svg width="194pt" height="117pt"
 viewBox="0.00 0.00 194.00 117.00" xmlns="http://www.w3.org/2000/svg" xmlns:xlink="http://www.w3.org/1999/xlink">
<g id="graph0" class="graph" transform="scale(1 1) rotate(0) translate(4 113)">
<title>GetRequest&lt; Key, T, Caller, CallerData &gt;</title>
<polygon fill="white" stroke="transparent" points="-4,4 -4,-113 190,-113 190,4 -4,4"/>
<!-- Node1 -->
<g id="node1" class="node">
<title>Node1</title>
<g id="a_node1"><a xlink:title=" ">
<polygon fill="#bfbfbf" stroke="black" points="58.5,-0.5 58.5,-30.5 176.5,-30.5 176.5,-0.5 58.5,-0.5"/>
<text text-anchor="start" x="66.5" y="-18.5" font-family="Helvetica,sans-Serif" font-size="10.00">GetRequest&lt; Key, T,</text>
<text text-anchor="middle" x="117.5" y="-7.5" font-family="Helvetica,sans-Serif" font-size="10.00"> Caller, CallerData &gt;</text>
</a>
</g>
</g>
<!-- Node2 -->
<g id="node2" class="node">
<title>Node2</title>
<g id="a_node2"><a xlink:title=" ">
<polygon fill="white" stroke="#bfbfbf" points="0,-78.5 0,-108.5 133,-108.5 133,-78.5 0,-78.5"/>
<text text-anchor="start" x="8" y="-96.5" font-family="Helvetica,sans-Serif" font-size="10.00">list&lt; CallerInfo&lt; Caller,</text>
<text text-anchor="middle" x="66.5" y="-85.5" font-family="Helvetica,sans-Serif" font-size="10.00"> CallerData, Key, T &gt; &gt;</text>
</a>
</g>
</g>
<!-- Node2&#45;&gt;Node1 -->
<g id="edge1" class="edge">
<title>Node2&#45;&gt;Node1</title>
<path fill="none" stroke="#9a32cd" stroke-dasharray="5,2" d="M81.88,-69.57C90.36,-56.94 100.62,-41.65 107.95,-30.73"/>
<polygon fill="#9a32cd" stroke="#9a32cd" points="78.76,-67.95 76.09,-78.2 84.57,-71.85 78.76,-67.95"/>
<text text-anchor="middle" x="113.5" y="-52" font-family="Helvetica,sans-Serif" font-size="10.00"> callers</text>
</g>
<!-- Node3 -->
<g id="node3" class="node">
<title>Node3</title>
<g id="a_node3"><a xlink:title=" ">
<polygon fill="white" stroke="#bfbfbf" points="151,-84 151,-103 186,-103 186,-84 151,-84"/>
<text text-anchor="middle" x="168.5" y="-91" font-family="Helvetica,sans-Serif" font-size="10.00">Key</text>
</a>
</g>
</g>
<!-- Node3&#45;&gt;Node1 -->
<g id="edge2" class="edge">
<title>Node3&#45;&gt;Node1</title>
<path fill="none" stroke="#9a32cd" stroke-dasharray="5,2" d="M157,-75.37C147.92,-61.83 135.4,-43.17 126.91,-30.52"/>
<polygon fill="#9a32cd" stroke="#9a32cd" points="154.17,-77.43 162.65,-83.78 159.98,-73.53 154.17,-77.43"/>
<text text-anchor="middle" x="156" y="-52" font-family="Helvetica,sans-Serif" font-size="10.00"> key</text>
</g>
</g>
</svg>
