<?xml version="1.0" encoding="UTF-8" standalone="no"?>
<!DOCTYPE svg PUBLIC "-//W3C//DTD SVG 1.1//EN"
 "http://www.w3.org/Graphics/SVG/1.1/DTD/svg11.dtd">
<!-- Generated by graphviz version 2.43.0 (0)
 -->
<!-- Title: irr::core::line2d::getAngleWith Pages: 1 -->
<svg width="243pt" height="88pt"
 viewBox="0.00 0.00 243.00 88.00" xmlns="http://www.w3.org/2000/svg" xmlns:xlink="http://www.w3.org/1999/xlink">
<g id="graph0" class="graph" transform="scale(1 1) rotate(0) translate(4 84)">
<title>irr::core::line2d::getAngleWith</title>
<polygon fill="white" stroke="transparent" points="-4,4 -4,-84 239,-84 239,4 -4,4"/>
<!-- Node1 -->
<g id="node1" class="node">
<title>Node1</title>
<g id="a_node1"><a xlink:title="Get angle between this line and given line.">
<polygon fill="#bfbfbf" stroke="black" points="0,-24.5 0,-54.5 96,-54.5 96,-24.5 0,-24.5"/>
<text text-anchor="start" x="8" y="-42.5" font-family="Helvetica,sans-Serif" font-size="10.00">irr::core::line2d::</text>
<text text-anchor="middle" x="48" y="-31.5" font-family="Helvetica,sans-Serif" font-size="10.00">getAngleWith</text>
</a>
</g>
</g>
<!-- Node2 -->
<g id="node2" class="node">
<title>Node2</title>
<g id="a_node2"><a xlink:href="classirr_1_1core_1_1vector2d.html#a82714b4037cc4985992647ea69974a60" target="_top" xlink:title="Calculates the angle between this vector and another one in degree.">
<polygon fill="white" stroke="black" points="132,-49.5 132,-79.5 235,-79.5 235,-49.5 132,-49.5"/>
<text text-anchor="start" x="140" y="-67.5" font-family="Helvetica,sans-Serif" font-size="10.00">irr::core::vector2d</text>
<text text-anchor="middle" x="183.5" y="-56.5" font-family="Helvetica,sans-Serif" font-size="10.00">::getAngleWith</text>
</a>
</g>
</g>
<!-- Node1&#45;&gt;Node2 -->
<g id="edge1" class="edge">
<title>Node1&#45;&gt;Node2</title>
<path fill="none" stroke="midnightblue" d="M96.07,-48.31C104.38,-49.87 113.13,-51.51 121.75,-53.12"/>
<polygon fill="midnightblue" stroke="midnightblue" points="121.3,-56.6 131.78,-55 122.59,-49.72 121.3,-56.6"/>
</g>
<!-- Node3 -->
<g id="node3" class="node">
<title>Node3</title>
<g id="a_node3"><a xlink:href="classirr_1_1core_1_1line2d.html#aeb0b7bc3987165abc0eaca7f0e506a59" target="_top" xlink:title="Get the vector of the line.">
<polygon fill="white" stroke="black" points="135.5,-0.5 135.5,-30.5 231.5,-30.5 231.5,-0.5 135.5,-0.5"/>
<text text-anchor="start" x="143.5" y="-18.5" font-family="Helvetica,sans-Serif" font-size="10.00">irr::core::line2d::</text>
<text text-anchor="middle" x="183.5" y="-7.5" font-family="Helvetica,sans-Serif" font-size="10.00">getVector</text>
</a>
</g>
</g>
<!-- Node1&#45;&gt;Node3 -->
<g id="edge2" class="edge">
<title>Node1&#45;&gt;Node3</title>
<path fill="none" stroke="midnightblue" d="M96.07,-31.04C105.54,-29.34 115.59,-27.53 125.36,-25.77"/>
<polygon fill="midnightblue" stroke="midnightblue" points="126.19,-29.18 135.41,-23.97 124.95,-22.29 126.19,-29.18"/>
</g>
</g>
</svg>
