<?xml version="1.0" encoding="UTF-8" standalone="no"?>
<!DOCTYPE svg PUBLIC "-//W3C//DTD SVG 1.1//EN"
 "http://www.w3.org/Graphics/SVG/1.1/DTD/svg11.dtd">
<!-- Generated by graphviz version 2.43.0 (0)
 -->
<!-- Title: irr::os::Timer Pages: 1 -->
<svg width="364pt" height="117pt"
 viewBox="0.00 0.00 364.00 117.00" xmlns="http://www.w3.org/2000/svg" xmlns:xlink="http://www.w3.org/1999/xlink">
<g id="graph0" class="graph" transform="scale(1 1) rotate(0) translate(4 113)">
<title>irr::os::Timer</title>
<polygon fill="white" stroke="transparent" points="-4,4 -4,-113 360,-113 360,4 -4,4"/>
<!-- Node1 -->
<g id="node1" class="node">
<title>Node1</title>
<g id="a_node1"><a xlink:title=" ">
<polygon fill="#bfbfbf" stroke="black" points="96.5,-0.5 96.5,-19.5 175.5,-19.5 175.5,-0.5 96.5,-0.5"/>
<text text-anchor="middle" x="136" y="-7.5" font-family="Helvetica,sans-Serif" font-size="10.00">irr::os::Timer</text>
</a>
</g>
</g>
<!-- Node2 -->
<g id="node2" class="node">
<title>Node2</title>
<g id="a_node2"><a xlink:title=" ">
<polygon fill="white" stroke="#bfbfbf" points="0,-89.5 0,-108.5 38,-108.5 38,-89.5 0,-89.5"/>
<text text-anchor="middle" x="19" y="-96.5" font-family="Helvetica,sans-Serif" font-size="10.00">float</text>
</a>
</g>
</g>
<!-- Node2&#45;&gt;Node1 -->
<g id="edge1" class="edge">
<title>Node2&#45;&gt;Node1</title>
<path fill="none" stroke="#9a32cd" stroke-dasharray="5,2" d="M20.29,-79.36C22.19,-66.09 26.81,-48.78 38,-38 53.51,-23.07 76.49,-16.23 96.31,-13.17"/>
<polygon fill="#9a32cd" stroke="#9a32cd" points="16.81,-79.01 19.25,-89.32 23.77,-79.73 16.81,-79.01"/>
<text text-anchor="middle" x="85" y="-52" font-family="Helvetica,sans-Serif" font-size="10.00"> VirtualTimerSpeed</text>
</g>
<!-- Node3 -->
<g id="node3" class="node">
<title>Node3</title>
<g id="a_node3"><a xlink:title=" ">
<polygon fill="white" stroke="#bfbfbf" points="111,-89.5 111,-108.5 161,-108.5 161,-89.5 111,-89.5"/>
<text text-anchor="middle" x="136" y="-96.5" font-family="Helvetica,sans-Serif" font-size="10.00">int32_t</text>
</a>
</g>
</g>
<!-- Node3&#45;&gt;Node1 -->
<g id="edge2" class="edge">
<title>Node3&#45;&gt;Node1</title>
<path fill="none" stroke="#9a32cd" stroke-dasharray="5,2" d="M136,-79.19C136,-60.74 136,-33.41 136,-19.62"/>
<polygon fill="#9a32cd" stroke="#9a32cd" points="132.5,-79.34 136,-89.34 139.5,-79.34 132.5,-79.34"/>
<text text-anchor="middle" x="198" y="-52" font-family="Helvetica,sans-Serif" font-size="10.00"> VirtualTimerStopCounter</text>
</g>
<!-- Node4 -->
<g id="node4" class="node">
<title>Node4</title>
<g id="a_node4"><a xlink:title=" ">
<polygon fill="white" stroke="#bfbfbf" points="255,-89.5 255,-108.5 311,-108.5 311,-89.5 255,-89.5"/>
<text text-anchor="middle" x="283" y="-96.5" font-family="Helvetica,sans-Serif" font-size="10.00">uint32_t</text>
</a>
</g>
</g>
<!-- Node4&#45;&gt;Node1 -->
<g id="edge3" class="edge">
<title>Node4&#45;&gt;Node1</title>
<path fill="none" stroke="#9a32cd" stroke-dasharray="5,2" d="M280.88,-79.11C278.37,-65.72 272.9,-48.36 261,-38 248.4,-27.03 207.41,-19.63 175.77,-15.39"/>
<polygon fill="#9a32cd" stroke="#9a32cd" points="277.44,-79.8 282.37,-89.18 284.37,-78.78 277.44,-79.8"/>
<text text-anchor="middle" x="317" y="-63" font-family="Helvetica,sans-Serif" font-size="10.00"> StaticTime</text>
<text text-anchor="middle" x="317" y="-52" font-family="Helvetica,sans-Serif" font-size="10.00">StartRealTime</text>
<text text-anchor="middle" x="317" y="-41" font-family="Helvetica,sans-Serif" font-size="10.00">LastVirtualTime</text>
</g>
</g>
</svg>
