<?xml version="1.0" encoding="UTF-8" standalone="no"?>
<!DOCTYPE svg PUBLIC "-//W3C//DTD SVG 1.1//EN"
 "http://www.w3.org/Graphics/SVG/1.1/DTD/svg11.dtd">
<!-- Generated by graphviz version 2.43.0 (0)
 -->
<!-- Title: irr::video::COpenGLCoreCacheHandler&lt; TOpenGLDriver, TOpenGLTexture &gt;::STextureCache Pages: 1 -->
<!--zoomable 541 -->
<svg id="main" version="1.1" xmlns="http://www.w3.org/2000/svg" xmlns:xlink="http://www.w3.org/1999/xlink" xml:space="preserve" onload="init(evt)">
<style type="text/css"><![CDATA[
.edge:hover path { stroke: red; }
.edge:hover polygon { stroke: red; fill: red; }
]]></style>
<script type="text/javascript"><![CDATA[
var edges = document.getElementsByTagName('g');
if (edges && edges.length) {
  for (var i=0;i<edges.length;i++) {
    if (edges[i].id.substr(0,4)=='edge') {
      edges[i].setAttribute('class','edge');
    }
  }
}
]]></script>
        <defs>
                <circle id="rim" cx="0" cy="0" r="7"/>
                <circle id="rim2" cx="0" cy="0" r="3.5"/>
                <g id="zoomPlus">
                        <use xlink:href="#rim" fill="#404040">
                                <set attributeName="fill" to="#808080" begin="zoomplus.mouseover" end="zoomplus.mouseout"/>
                        </use>
                        <path d="M-4,0h8M0,-4v8" fill="none" stroke="white" stroke-width="1.5" pointer-events="none"/>
                </g>
                <g id="zoomMin">
                        <use xlink:href="#rim" fill="#404040">
                                <set attributeName="fill" to="#808080" begin="zoomminus.mouseover" end="zoomminus.mouseout"/>
                        </use>
                        <path d="M-4,0h8" fill="none" stroke="white" stroke-width="1.5" pointer-events="none"/>
                </g>
                <g id="dirArrow">
                        <path fill="none" stroke="white" stroke-width="1.5" d="M0,-3.0v7 M-2.5,-0.5L0,-3.0L2.5,-0.5"/>
                </g>
               <g id="resetDef">
                       <use xlink:href="#rim2" fill="#404040">
                               <set attributeName="fill" to="#808080" begin="reset.mouseover" end="reset.mouseout"/>
                       </use>
               </g>
        </defs>

<script type="text/javascript">
var viewWidth = 749;
var viewHeight = 541;
var sectionId = 'dynsection-0';
</script>
<script xlink:href="svgpan.js"/>
<svg id="graph" class="graph">
<g id="viewport">
<title>irr::video::COpenGLCoreCacheHandler&lt; TOpenGLDriver, TOpenGLTexture &gt;::STextureCache</title>
<polygon fill="white" stroke="transparent" points="-4,4 -4,-537 745,-537 745,4 -4,4"/>
<!-- Node1 -->
<g id="node1" class="node">
<title>Node1</title>
<g id="a_node1"><a xlink:title=" ">
<polygon fill="#bfbfbf" stroke="black" points="238,-27.5 238,-68.5 426,-68.5 426,-27.5 238,-27.5"/>
<text text-anchor="start" x="246" y="-56.5" font-family="Helvetica,sans-Serif" font-size="10.00">irr::video::COpenGLCoreCache</text>
<text text-anchor="start" x="246" y="-45.5" font-family="Helvetica,sans-Serif" font-size="10.00">Handler&lt; TOpenGLDriver,</text>
<text text-anchor="middle" x="332" y="-34.5" font-family="Helvetica,sans-Serif" font-size="10.00"> TOpenGLTexture &gt;::STextureCache</text>
</a>
</g>
</g>
<!-- Node2 -->
<g id="node2" class="node">
<title>Node2</title>
<g id="a_node2"><a xlink:href="classirr_1_1video_1_1COpenGLCoreCacheHandler.html" target="_top" xlink:title=" ">
<polygon fill="white" stroke="black" points="577,-186.5 577,-227.5 741,-227.5 741,-186.5 577,-186.5"/>
<text text-anchor="start" x="585" y="-215.5" font-family="Helvetica,sans-Serif" font-size="10.00">irr::video::COpenGLCoreCache</text>
<text text-anchor="start" x="585" y="-204.5" font-family="Helvetica,sans-Serif" font-size="10.00">Handler&lt; TOpenGLDriver,</text>
<text text-anchor="middle" x="659" y="-193.5" font-family="Helvetica,sans-Serif" font-size="10.00"> TOpenGLTexture &gt;</text>
</a>
</g>
</g>
<!-- Node1&#45;&gt;Node2 -->
<g id="edge4" class="edge">
<title>Node1&#45;&gt;Node2</title>
<path fill="none" stroke="#9a32cd" stroke-dasharray="5,2" d="M436.36,-52.37C476.78,-57.76 522.17,-68.61 559,-90 599.27,-113.38 630.74,-159.47 646.63,-186.3"/>
<polygon fill="#9a32cd" stroke="#9a32cd" points="436.56,-48.87 426.2,-51.12 435.7,-55.82 436.56,-48.87"/>
<text text-anchor="middle" x="501.5" y="-93" font-family="Helvetica,sans-Serif" font-size="10.00"> TextureCache</text>
</g>
<!-- Node2&#45;&gt;Node1 -->
<g id="edge1" class="edge">
<title>Node2&#45;&gt;Node1</title>
<path fill="none" stroke="#9a32cd" stroke-dasharray="5,2" d="M650.13,-176.5C638.03,-136.65 610.65,-68.51 559,-39 511.01,-11.58 447.48,-17.03 399.99,-27.5"/>
<polygon fill="#9a32cd" stroke="#9a32cd" points="646.81,-177.58 652.95,-186.21 653.53,-175.63 646.81,-177.58"/>
<text text-anchor="middle" x="501.5" y="-42" font-family="Helvetica,sans-Serif" font-size="10.00"> CacheHandler</text>
</g>
<!-- Node3 -->
<g id="node3" class="node">
<title>Node3</title>
<g id="a_node3"><a xlink:title=" ">
<polygon fill="white" stroke="#bfbfbf" points="313.5,-500.5 313.5,-519.5 350.5,-519.5 350.5,-500.5 313.5,-500.5"/>
<text text-anchor="middle" x="332" y="-507.5" font-family="Helvetica,sans-Serif" font-size="10.00">u8 *</text>
</a>
</g>
</g>
<!-- Node3&#45;&gt;Node2 -->
<g id="edge2" class="edge">
<title>Node3&#45;&gt;Node2</title>
<path fill="none" stroke="#9a32cd" stroke-dasharray="5,2" d="M360.46,-515.92C406.72,-524.21 500.84,-533.56 559,-488 642.67,-422.45 655.81,-281.07 657.73,-227.84"/>
<polygon fill="#9a32cd" stroke="#9a32cd" points="361.04,-512.47 350.56,-514.03 359.72,-519.34 361.04,-512.47"/>
<text text-anchor="middle" x="501.5" y="-525" font-family="Helvetica,sans-Serif" font-size="10.00"> ColorMask</text>
</g>
<!-- Node4 -->
<g id="node4" class="node">
<title>Node4</title>
<g id="a_node4"><a xlink:title=" ">
<polygon fill="white" stroke="#bfbfbf" points="311,-456.5 311,-475.5 353,-475.5 353,-456.5 311,-456.5"/>
<text text-anchor="middle" x="332" y="-463.5" font-family="Helvetica,sans-Serif" font-size="10.00">GLint</text>
</a>
</g>
</g>
<!-- Node4&#45;&gt;Node2 -->
<g id="edge3" class="edge">
<title>Node4&#45;&gt;Node2</title>
<path fill="none" stroke="#9a32cd" stroke-dasharray="5,2" d="M363.25,-466.34C417.55,-466.36 528.73,-463.55 559,-441 629.92,-388.16 650.48,-274.55 656.06,-227.77"/>
<polygon fill="#9a32cd" stroke="#9a32cd" points="363.2,-462.84 353.19,-466.3 363.18,-469.84 363.2,-462.84"/>
<text text-anchor="middle" x="501.5" y="-477" font-family="Helvetica,sans-Serif" font-size="10.00"> ViewportX</text>
<text text-anchor="middle" x="501.5" y="-466" font-family="Helvetica,sans-Serif" font-size="10.00">ViewportY</text>
</g>
<!-- Node5 -->
<g id="node5" class="node">
<title>Node5</title>
<g id="a_node5"><a xlink:title=" ">
<polygon fill="white" stroke="#bfbfbf" points="282.5,-418.5 282.5,-437.5 381.5,-437.5 381.5,-418.5 282.5,-418.5"/>
<text text-anchor="middle" x="332" y="-425.5" font-family="Helvetica,sans-Serif" font-size="10.00">TOpenGLDriver *</text>
</a>
</g>
</g>
<!-- Node5&#45;&gt;Node2 -->
<g id="edge5" class="edge">
<title>Node5&#45;&gt;Node2</title>
<path fill="none" stroke="#9a32cd" stroke-dasharray="5,2" d="M391.63,-428.31C449.41,-427.53 532.75,-423.13 559,-405 620.83,-362.31 645.96,-269.35 654.39,-227.8"/>
<polygon fill="#9a32cd" stroke="#9a32cd" points="391.48,-424.81 381.52,-428.42 391.55,-431.81 391.48,-424.81"/>
<text text-anchor="middle" x="501.5" y="-429" font-family="Helvetica,sans-Serif" font-size="10.00"> Driver</text>
</g>
<!-- Node6 -->
<g id="node6" class="node">
<title>Node6</title>
<g id="a_node6"><a xlink:title=" ">
<polygon fill="white" stroke="#bfbfbf" points="303.5,-308.5 303.5,-327.5 360.5,-327.5 360.5,-308.5 303.5,-308.5"/>
<text text-anchor="middle" x="332" y="-315.5" font-family="Helvetica,sans-Serif" font-size="10.00">GLenum</text>
</a>
</g>
</g>
<!-- Node6&#45;&gt;Node2 -->
<g id="edge6" class="edge">
<title>Node6&#45;&gt;Node2</title>
<path fill="none" stroke="#9a32cd" stroke-dasharray="5,2" d="M370.7,-317.16C426.03,-315.46 526.21,-310.44 559,-296 593.48,-280.82 624.19,-248.89 641.95,-227.69"/>
<polygon fill="#9a32cd" stroke="#9a32cd" points="370.49,-313.67 360.59,-317.45 370.69,-320.67 370.49,-313.67"/>
<text text-anchor="middle" x="501.5" y="-393" font-family="Helvetica,sans-Serif" font-size="10.00"> BlendDestinationAlpha</text>
<text text-anchor="middle" x="501.5" y="-382" font-family="Helvetica,sans-Serif" font-size="10.00">BlendEquation</text>
<text text-anchor="middle" x="501.5" y="-371" font-family="Helvetica,sans-Serif" font-size="10.00">CullFaceMode</text>
<text text-anchor="middle" x="501.5" y="-360" font-family="Helvetica,sans-Serif" font-size="10.00">BlendSourceRGB</text>
<text text-anchor="middle" x="501.5" y="-349" font-family="Helvetica,sans-Serif" font-size="10.00">BlendSourceAlpha</text>
<text text-anchor="middle" x="501.5" y="-338" font-family="Helvetica,sans-Serif" font-size="10.00">BlendDestinationRGB</text>
<text text-anchor="middle" x="501.5" y="-327" font-family="Helvetica,sans-Serif" font-size="10.00">DepthFunc</text>
<text text-anchor="middle" x="501.5" y="-316" font-family="Helvetica,sans-Serif" font-size="10.00">ActiveTexture</text>
</g>
<!-- Node7 -->
<g id="node7" class="node">
<title>Node7</title>
<g id="a_node7"><a xlink:href="classbool.html" target="_top" xlink:title=" ">
<polygon fill="white" stroke="black" points="313,-197.5 313,-216.5 351,-216.5 351,-197.5 313,-197.5"/>
<text text-anchor="middle" x="332" y="-204.5" font-family="Helvetica,sans-Serif" font-size="10.00">bool</text>
</a>
</g>
</g>
<!-- Node7&#45;&gt;Node2 -->
<g id="edge7" class="edge">
<title>Node7&#45;&gt;Node2</title>
<path fill="none" stroke="#9a32cd" stroke-dasharray="5,2" d="M361.61,-207C409.33,-207 506.82,-207 576.98,-207"/>
<polygon fill="#9a32cd" stroke="#9a32cd" points="361.4,-203.5 351.4,-207 361.4,-210.5 361.4,-203.5"/>
<text text-anchor="middle" x="501.5" y="-287" font-family="Helvetica,sans-Serif" font-size="10.00"> DepthTest</text>
<text text-anchor="middle" x="501.5" y="-276" font-family="Helvetica,sans-Serif" font-size="10.00">CullFace</text>
<text text-anchor="middle" x="501.5" y="-265" font-family="Helvetica,sans-Serif" font-size="10.00">BlendFuncInvalid</text>
<text text-anchor="middle" x="501.5" y="-254" font-family="Helvetica,sans-Serif" font-size="10.00">BlendInvalid</text>
<text text-anchor="middle" x="501.5" y="-243" font-family="Helvetica,sans-Serif" font-size="10.00">ColorMaskInvalid</text>
<text text-anchor="middle" x="501.5" y="-232" font-family="Helvetica,sans-Serif" font-size="10.00">DepthMask</text>
<text text-anchor="middle" x="501.5" y="-221" font-family="Helvetica,sans-Serif" font-size="10.00">BlendEquationInvalid</text>
<text text-anchor="middle" x="501.5" y="-210" font-family="Helvetica,sans-Serif" font-size="10.00">Blend</text>
</g>
<!-- Node8 -->
<g id="node8" class="node">
<title>Node8</title>
<g id="a_node8"><a xlink:title=" ">
<polygon fill="white" stroke="#bfbfbf" points="306,-152.5 306,-171.5 358,-171.5 358,-152.5 306,-152.5"/>
<text text-anchor="middle" x="332" y="-159.5" font-family="Helvetica,sans-Serif" font-size="10.00">GLsizei</text>
</a>
</g>
</g>
<!-- Node8&#45;&gt;Node2 -->
<g id="edge8" class="edge">
<title>Node8&#45;&gt;Node2</title>
<path fill="none" stroke="#9a32cd" stroke-dasharray="5,2" d="M368.32,-163.08C413,-164.88 492.18,-169.51 559,-181 567.67,-182.49 576.69,-184.38 585.59,-186.45"/>
<polygon fill="#9a32cd" stroke="#9a32cd" points="368.39,-159.58 358.26,-162.7 368.12,-166.58 368.39,-159.58"/>
<text text-anchor="middle" x="501.5" y="-195" font-family="Helvetica,sans-Serif" font-size="10.00"> ViewportHeight</text>
<text text-anchor="middle" x="501.5" y="-184" font-family="Helvetica,sans-Serif" font-size="10.00">ViewportWidth</text>
</g>
<!-- Node9 -->
<g id="node9" class="node">
<title>Node9</title>
<g id="a_node9"><a xlink:title=" ">
<polygon fill="white" stroke="#bfbfbf" points="308,-96.5 308,-115.5 356,-115.5 356,-96.5 308,-96.5"/>
<text text-anchor="middle" x="332" y="-103.5" font-family="Helvetica,sans-Serif" font-size="10.00">GLuint</text>
</a>
</g>
</g>
<!-- Node9&#45;&gt;Node2 -->
<g id="edge9" class="edge">
<title>Node9&#45;&gt;Node2</title>
<path fill="none" stroke="#9a32cd" stroke-dasharray="5,2" d="M366.27,-103.96C411.59,-102.41 494.47,-103.97 559,-130 590.3,-142.63 619.99,-168.19 638.55,-186.4"/>
<polygon fill="#9a32cd" stroke="#9a32cd" points="365.97,-100.47 356.12,-104.39 366.26,-107.47 365.97,-100.47"/>
<text text-anchor="middle" x="501.5" y="-155" font-family="Helvetica,sans-Serif" font-size="10.00"> ProgramID</text>
<text text-anchor="middle" x="501.5" y="-144" font-family="Helvetica,sans-Serif" font-size="10.00">FrameBufferCount</text>
<text text-anchor="middle" x="501.5" y="-133" font-family="Helvetica,sans-Serif" font-size="10.00">FrameBufferID</text>
</g>
<!-- Node10 -->
<g id="node10" class="node">
<title>Node10</title>
<g id="a_node10"><a xlink:title=" ">
<polygon fill="white" stroke="#bfbfbf" points="0,-76.5 0,-95.5 134,-95.5 134,-76.5 0,-76.5"/>
<text text-anchor="middle" x="67" y="-83.5" font-family="Helvetica,sans-Serif" font-size="10.00">const TOpenGLTexture *</text>
</a>
</g>
</g>
<!-- Node10&#45;&gt;Node1 -->
<g id="edge10" class="edge">
<title>Node10&#45;&gt;Node1</title>
<path fill="none" stroke="#9a32cd" stroke-dasharray="5,2" d="M144.15,-75C173.35,-70.78 206.99,-65.92 237.62,-61.49"/>
<polygon fill="#9a32cd" stroke="#9a32cd" points="143.42,-71.57 134.03,-76.46 144.42,-78.49 143.42,-71.57"/>
<text text-anchor="middle" x="186" y="-76" font-family="Helvetica,sans-Serif" font-size="10.00"> Texture</text>
</g>
<!-- Node11 -->
<g id="node11" class="node">
<title>Node11</title>
<g id="a_node11"><a xlink:title=" ">
<polygon fill="white" stroke="#bfbfbf" points="20,-38.5 20,-57.5 114,-57.5 114,-38.5 20,-38.5"/>
<text text-anchor="middle" x="67" y="-45.5" font-family="Helvetica,sans-Serif" font-size="10.00">E_DRIVER_TYPE</text>
</a>
</g>
</g>
<!-- Node11&#45;&gt;Node1 -->
<g id="edge11" class="edge">
<title>Node11&#45;&gt;Node1</title>
<path fill="none" stroke="#9a32cd" stroke-dasharray="5,2" d="M124.47,-48C157.46,-48 199.91,-48 237.74,-48"/>
<polygon fill="#9a32cd" stroke="#9a32cd" points="124.11,-44.5 114.11,-48 124.11,-51.5 124.11,-44.5"/>
<text text-anchor="middle" x="186" y="-51" font-family="Helvetica,sans-Serif" font-size="10.00"> DriverType</text>
</g>
<!-- Node12 -->
<g id="node12" class="node">
<title>Node12</title>
<g id="a_node12"><a xlink:title=" ">
<polygon fill="white" stroke="#bfbfbf" points="39,-0.5 39,-19.5 95,-19.5 95,-0.5 39,-0.5"/>
<text text-anchor="middle" x="67" y="-7.5" font-family="Helvetica,sans-Serif" font-size="10.00">uint32_t</text>
</a>
</g>
</g>
<!-- Node12&#45;&gt;Node1 -->
<g id="edge12" class="edge">
<title>Node12&#45;&gt;Node1</title>
<path fill="none" stroke="#9a32cd" stroke-dasharray="5,2" d="M105.22,-15.38C139.64,-20.35 192.22,-27.95 237.98,-34.56"/>
<polygon fill="#9a32cd" stroke="#9a32cd" points="105.55,-11.89 95.16,-13.92 104.55,-18.82 105.55,-11.89"/>
<text text-anchor="middle" x="186" y="-34" font-family="Helvetica,sans-Serif" font-size="10.00"> TextureCount</text>
</g>
</g>
</svg>
        <g id="navigator" transform="translate(0 0)" fill="#404254">
                <rect fill="#f2f5e9" fill-opacity="0.5" stroke="#606060" stroke-width=".5" x="0" y="0" width="60" height="60"/>
                <use id="zoomplus" xlink:href="#zoomPlus" x="17" y="9" onmousedown="handleZoom(evt,'in')"/>
                <use id="zoomminus" xlink:href="#zoomMin" x="42" y="9" onmousedown="handleZoom(evt,'out')"/>
                <use id="reset" xlink:href="#resetDef" x="30" y="36" onmousedown="handleReset()"/>
                <g id="arrowUp" xlink:href="#dirArrow" transform="translate(30 24)" onmousedown="handlePan(0,-1)">
                  <use xlink:href="#rim" fill="#404040">
                        <set attributeName="fill" to="#808080" begin="arrowUp.mouseover" end="arrowUp.mouseout"/>
                  </use>
                  <path fill="none" stroke="white" stroke-width="1.5" d="M0,-3.0v7 M-2.5,-0.5L0,-3.0L2.5,-0.5"/>
                </g>
                <g id="arrowRight" xlink:href="#dirArrow" transform="rotate(90) translate(36 -43)" onmousedown="handlePan(1,0)">
                  <use xlink:href="#rim" fill="#404040">
                        <set attributeName="fill" to="#808080" begin="arrowRight.mouseover" end="arrowRight.mouseout"/>
                  </use>
                  <path fill="none" stroke="white" stroke-width="1.5" d="M0,-3.0v7 M-2.5,-0.5L0,-3.0L2.5,-0.5"/>
                </g>
                <g id="arrowDown" xlink:href="#dirArrow" transform="rotate(180) translate(-30 -48)" onmousedown="handlePan(0,1)">
                  <use xlink:href="#rim" fill="#404040">
                        <set attributeName="fill" to="#808080" begin="arrowDown.mouseover" end="arrowDown.mouseout"/>
                  </use>
                  <path fill="none" stroke="white" stroke-width="1.5" d="M0,-3.0v7 M-2.5,-0.5L0,-3.0L2.5,-0.5"/>
                </g>
                <g id="arrowLeft" xlink:href="#dirArrow" transform="rotate(270) translate(-36 17)" onmousedown="handlePan(-1,0)">
                  <use xlink:href="#rim" fill="#404040">
                        <set attributeName="fill" to="#808080" begin="arrowLeft.mouseover" end="arrowLeft.mouseout"/>
                  </use>
                  <path fill="none" stroke="white" stroke-width="1.5" d="M0,-3.0v7 M-2.5,-0.5L0,-3.0L2.5,-0.5"/>
                </g>
        </g>
        <svg viewBox="0 0 15 15" width="100%" height="30px" preserveAspectRatio="xMaxYMin meet">
         <g id="arrow_out" transform="scale(0.3 0.3)">
          <a xlink:href="classirr_1_1video_1_1COpenGLCoreCacheHandler_1_1STextureCache__coll__graph_org.svg" target="_base">
           <rect id="button" ry="5" rx="5" y="6" x="6" height="38" width="38"
                fill="#f2f5e9" fill-opacity="0.5" stroke="#606060" stroke-width="1.0"/>
           <path id="arrow"
             d="M 11.500037,31.436501 C 11.940474,20.09759 22.043105,11.32322 32.158766,21.979434 L 37.068811,17.246167 C 37.068811,17.246167 37.088388,32 37.088388,32 L 22.160133,31.978069 C 22.160133,31.978069 26.997745,27.140456 26.997745,27.140456 C 18.528582,18.264221 13.291696,25.230495 11.500037,31.436501 z"
             style="fill:#404040;"/>
          </a>
         </g>
        </svg>
</svg>
