<?xml version="1.0" encoding="UTF-8" standalone="no"?>
<!DOCTYPE svg PUBLIC "-//W3C//DTD SVG 1.1//EN"
 "http://www.w3.org/Graphics/SVG/1.1/DTD/svg11.dtd">
<!-- Generated by graphviz version 2.43.0 (0)
 -->
<!-- Title: InventoryManager Pages: 1 -->
<svg width="359pt" height="84pt"
 viewBox="0.00 0.00 359.00 84.00" xmlns="http://www.w3.org/2000/svg" xmlns:xlink="http://www.w3.org/1999/xlink">
<g id="graph0" class="graph" transform="scale(1 1) rotate(0) translate(4 80)">
<title>InventoryManager</title>
<polygon fill="white" stroke="transparent" points="-4,4 -4,-80 355,-80 355,4 -4,4"/>
<!-- Node1 -->
<g id="node1" class="node">
<title>Node1</title>
<g id="a_node1"><a xlink:title=" ">
<polygon fill="#bfbfbf" stroke="black" points="76.5,-56.5 76.5,-75.5 182.5,-75.5 182.5,-56.5 76.5,-56.5"/>
<text text-anchor="middle" x="129.5" y="-63.5" font-family="Helvetica,sans-Serif" font-size="10.00">InventoryManager</text>
</a>
</g>
</g>
<!-- Node2 -->
<g id="node2" class="node">
<title>Node2</title>
<g id="a_node2"><a xlink:href="classClient.html" target="_top" xlink:title=" ">
<polygon fill="white" stroke="black" points="0,-0.5 0,-19.5 45,-19.5 45,-0.5 0,-0.5"/>
<text text-anchor="middle" x="22.5" y="-7.5" font-family="Helvetica,sans-Serif" font-size="10.00">Client</text>
</a>
</g>
</g>
<!-- Node1&#45;&gt;Node2 -->
<g id="edge1" class="edge">
<title>Node1&#45;&gt;Node2</title>
<path fill="none" stroke="midnightblue" d="M103.2,-51.73C83.39,-41.73 56.79,-28.31 39.65,-19.65"/>
<polygon fill="midnightblue" stroke="midnightblue" points="101.8,-54.94 112.31,-56.32 104.96,-48.69 101.8,-54.94"/>
</g>
<!-- Node3 -->
<g id="node3" class="node">
<title>Node3</title>
<g id="a_node3"><a xlink:href="classMockInventoryManager.html" target="_top" xlink:title=" ">
<polygon fill="white" stroke="black" points="63.5,-0.5 63.5,-19.5 195.5,-19.5 195.5,-0.5 63.5,-0.5"/>
<text text-anchor="middle" x="129.5" y="-7.5" font-family="Helvetica,sans-Serif" font-size="10.00">MockInventoryManager</text>
</a>
</g>
</g>
<!-- Node1&#45;&gt;Node3 -->
<g id="edge2" class="edge">
<title>Node1&#45;&gt;Node3</title>
<path fill="none" stroke="midnightblue" d="M129.5,-45.8C129.5,-36.91 129.5,-26.78 129.5,-19.75"/>
<polygon fill="midnightblue" stroke="midnightblue" points="126,-46.08 129.5,-56.08 133,-46.08 126,-46.08"/>
</g>
<!-- Node4 -->
<g id="node4" class="node">
<title>Node4</title>
<g id="a_node4"><a xlink:href="classServerInventoryManager.html" target="_top" xlink:title=" ">
<polygon fill="white" stroke="black" points="214,-0.5 214,-19.5 351,-19.5 351,-0.5 214,-0.5"/>
<text text-anchor="middle" x="282.5" y="-7.5" font-family="Helvetica,sans-Serif" font-size="10.00">ServerInventoryManager</text>
</a>
</g>
</g>
<!-- Node1&#45;&gt;Node4 -->
<g id="edge3" class="edge">
<title>Node1&#45;&gt;Node4</title>
<path fill="none" stroke="midnightblue" d="M163.39,-53.04C192.18,-42.88 232.79,-28.55 258.37,-19.52"/>
<polygon fill="midnightblue" stroke="midnightblue" points="162.01,-49.81 153.74,-56.44 164.34,-56.42 162.01,-49.81"/>
</g>
</g>
</svg>
