<?xml version="1.0" encoding="UTF-8" standalone="no"?>
<!DOCTYPE svg PUBLIC "-//W3C//DTD SVG 1.1//EN"
 "http://www.w3.org/Graphics/SVG/1.1/DTD/svg11.dtd">
<!-- Generated by graphviz version 2.43.0 (0)
 -->
<!-- Title: irr::io::CMemoryWriteFile Pages: 1 -->
<!--zoomable 230 -->
<svg id="main" version="1.1" xmlns="http://www.w3.org/2000/svg" xmlns:xlink="http://www.w3.org/1999/xlink" xml:space="preserve" onload="init(evt)">
<style type="text/css"><![CDATA[
.edge:hover path { stroke: red; }
.edge:hover polygon { stroke: red; fill: red; }
]]></style>
<script type="text/javascript"><![CDATA[
var edges = document.getElementsByTagName('g');
if (edges && edges.length) {
  for (var i=0;i<edges.length;i++) {
    if (edges[i].id.substr(0,4)=='edge') {
      edges[i].setAttribute('class','edge');
    }
  }
}
]]></script>
        <defs>
                <circle id="rim" cx="0" cy="0" r="7"/>
                <circle id="rim2" cx="0" cy="0" r="3.5"/>
                <g id="zoomPlus">
                        <use xlink:href="#rim" fill="#404040">
                                <set attributeName="fill" to="#808080" begin="zoomplus.mouseover" end="zoomplus.mouseout"/>
                        </use>
                        <path d="M-4,0h8M0,-4v8" fill="none" stroke="white" stroke-width="1.5" pointer-events="none"/>
                </g>
                <g id="zoomMin">
                        <use xlink:href="#rim" fill="#404040">
                                <set attributeName="fill" to="#808080" begin="zoomminus.mouseover" end="zoomminus.mouseout"/>
                        </use>
                        <path d="M-4,0h8" fill="none" stroke="white" stroke-width="1.5" pointer-events="none"/>
                </g>
                <g id="dirArrow">
                        <path fill="none" stroke="white" stroke-width="1.5" d="M0,-3.0v7 M-2.5,-0.5L0,-3.0L2.5,-0.5"/>
                </g>
               <g id="resetDef">
                       <use xlink:href="#rim2" fill="#404040">
                               <set attributeName="fill" to="#808080" begin="reset.mouseover" end="reset.mouseout"/>
                       </use>
               </g>
        </defs>

<script type="text/javascript">
var viewWidth = 910;
var viewHeight = 230;
var sectionId = 'dynsection-1';
</script>
<script xlink:href="svgpan.js"/>
<svg id="graph" class="graph">
<g id="viewport">
<title>irr::io::CMemoryWriteFile</title>
<polygon fill="white" stroke="transparent" points="-4,4 -4,-226 906,-226 906,4 -4,4"/>
<!-- Node1 -->
<g id="node1" class="node">
<title>Node1</title>
<g id="a_node1"><a xlink:title=" ">
<polygon fill="#bfbfbf" stroke="black" points="763,-100.5 763,-119.5 902,-119.5 902,-100.5 763,-100.5"/>
<text text-anchor="middle" x="832.5" y="-107.5" font-family="Helvetica,sans-Serif" font-size="10.00">irr::io::CMemoryWriteFile</text>
</a>
</g>
</g>
<!-- Node2 -->
<g id="node2" class="node">
<title>Node2</title>
<g id="a_node2"><a xlink:href="classirr_1_1io_1_1IWriteFile.html" target="_top" xlink:title="Interface providing write access to a file.">
<polygon fill="white" stroke="black" points="487.5,-183.5 487.5,-202.5 582.5,-202.5 582.5,-183.5 487.5,-183.5"/>
<text text-anchor="middle" x="535" y="-190.5" font-family="Helvetica,sans-Serif" font-size="10.00">irr::io::IWriteFile</text>
</a>
</g>
</g>
<!-- Node2&#45;&gt;Node1 -->
<g id="edge1" class="edge">
<title>Node2&#45;&gt;Node1</title>
<path fill="none" stroke="midnightblue" d="M592.61,-191.98C635.57,-189.66 695.49,-183.06 745,-165 774.42,-154.27 804.28,-132.3 820.06,-119.61"/>
<polygon fill="midnightblue" stroke="midnightblue" points="592.44,-188.49 582.61,-192.46 592.77,-195.48 592.44,-188.49"/>
</g>
<!-- Node3 -->
<g id="node3" class="node">
<title>Node3</title>
<g id="a_node3"><a xlink:href="classirr_1_1IReferenceCounted.html" target="_top" xlink:title="Base class of most objects of the Irrlicht Engine.">
<polygon fill="white" stroke="black" points="254.5,-183.5 254.5,-202.5 380.5,-202.5 380.5,-183.5 254.5,-183.5"/>
<text text-anchor="middle" x="317.5" y="-190.5" font-family="Helvetica,sans-Serif" font-size="10.00">irr::IReferenceCounted</text>
</a>
</g>
</g>
<!-- Node3&#45;&gt;Node2 -->
<g id="edge2" class="edge">
<title>Node3&#45;&gt;Node2</title>
<path fill="none" stroke="midnightblue" d="M390.72,-193C422.63,-193 459.22,-193 487.44,-193"/>
<polygon fill="midnightblue" stroke="midnightblue" points="390.54,-189.5 380.54,-193 390.54,-196.5 390.54,-189.5"/>
</g>
<!-- Node4 -->
<g id="node4" class="node">
<title>Node4</title>
<g id="a_node4"><a xlink:title=" ">
<polygon fill="white" stroke="#bfbfbf" points="42,-202.5 42,-221.5 80,-221.5 80,-202.5 42,-202.5"/>
<text text-anchor="middle" x="61" y="-209.5" font-family="Helvetica,sans-Serif" font-size="10.00">char</text>
</a>
</g>
</g>
<!-- Node4&#45;&gt;Node3 -->
<g id="edge3" class="edge">
<title>Node4&#45;&gt;Node3</title>
<path fill="none" stroke="#9a32cd" stroke-dasharray="5,2" d="M90.52,-209.87C129.97,-206.93 202.24,-201.53 254.45,-197.63"/>
<polygon fill="#9a32cd" stroke="#9a32cd" points="90.01,-206.4 80.3,-210.63 90.54,-213.38 90.01,-206.4"/>
<text text-anchor="middle" x="185.5" y="-208" font-family="Helvetica,sans-Serif" font-size="10.00"> DebugName</text>
</g>
<!-- Node5 -->
<g id="node5" class="node">
<title>Node5</title>
<g id="a_node5"><a xlink:title=" ">
<polygon fill="white" stroke="#bfbfbf" points="36,-164.5 36,-183.5 86,-183.5 86,-164.5 36,-164.5"/>
<text text-anchor="middle" x="61" y="-171.5" font-family="Helvetica,sans-Serif" font-size="10.00">int32_t</text>
</a>
</g>
</g>
<!-- Node5&#45;&gt;Node3 -->
<g id="edge4" class="edge">
<title>Node5&#45;&gt;Node3</title>
<path fill="none" stroke="#9a32cd" stroke-dasharray="5,2" d="M96.46,-175.58C130.64,-177.25 184.48,-180.18 231,-184 238.59,-184.62 246.54,-185.36 254.42,-186.13"/>
<polygon fill="#9a32cd" stroke="#9a32cd" points="96.25,-172.06 86.09,-175.08 95.91,-179.05 96.25,-172.06"/>
<text text-anchor="middle" x="185.5" y="-187" font-family="Helvetica,sans-Serif" font-size="10.00"> ReferenceCounter</text>
</g>
<!-- Node6 -->
<g id="node6" class="node">
<title>Node6</title>
<g id="a_node6"><a xlink:href="classbool.html" target="_top" xlink:title=" ">
<polygon fill="white" stroke="black" points="516,-145.5 516,-164.5 554,-164.5 554,-145.5 516,-145.5"/>
<text text-anchor="middle" x="535" y="-152.5" font-family="Helvetica,sans-Serif" font-size="10.00">bool</text>
</a>
</g>
</g>
<!-- Node6&#45;&gt;Node1 -->
<g id="edge5" class="edge">
<title>Node6&#45;&gt;Node1</title>
<path fill="none" stroke="#9a32cd" stroke-dasharray="5,2" d="M564.17,-153.42C604.51,-150.86 680.91,-144.82 745,-133 763.49,-129.59 783.83,-124.27 800.13,-119.6"/>
<polygon fill="#9a32cd" stroke="#9a32cd" points="563.79,-149.94 554.03,-154.05 564.22,-156.93 563.79,-149.94"/>
<text text-anchor="middle" x="673" y="-153" font-family="Helvetica,sans-Serif" font-size="10.00"> deleteMemoryWhenDropped</text>
</g>
<!-- Node7 -->
<g id="node7" class="node">
<title>Node7</title>
<g id="a_node7"><a xlink:title=" ">
<polygon fill="white" stroke="#bfbfbf" points="516,-104.5 516,-123.5 554,-123.5 554,-104.5 516,-104.5"/>
<text text-anchor="middle" x="535" y="-111.5" font-family="Helvetica,sans-Serif" font-size="10.00">long</text>
</a>
</g>
</g>
<!-- Node7&#45;&gt;Node1 -->
<g id="edge6" class="edge">
<title>Node7&#45;&gt;Node1</title>
<path fill="none" stroke="#9a32cd" stroke-dasharray="5,2" d="M564.44,-112.43C575.8,-111.87 589.02,-111.3 601,-111 655.41,-109.63 717.06,-109.43 762.9,-109.55"/>
<polygon fill="#9a32cd" stroke="#9a32cd" points="564.01,-108.95 554.2,-112.96 564.37,-115.94 564.01,-108.95"/>
<text text-anchor="middle" x="673" y="-125" font-family="Helvetica,sans-Serif" font-size="10.00"> Len</text>
<text text-anchor="middle" x="673" y="-114" font-family="Helvetica,sans-Serif" font-size="10.00">Pos</text>
</g>
<!-- Node8 -->
<g id="node8" class="node">
<title>Node8</title>
<g id="a_node8"><a xlink:href="classirr_1_1core_1_1string.html" target="_top" xlink:title=" ">
<polygon fill="white" stroke="black" points="487,-55 487,-85 583,-85 583,-55 487,-55"/>
<text text-anchor="start" x="495" y="-73" font-family="Helvetica,sans-Serif" font-size="10.00">irr::core::string&lt;</text>
<text text-anchor="middle" x="535" y="-62" font-family="Helvetica,sans-Serif" font-size="10.00"> fschar_t &gt;</text>
</a>
</g>
</g>
<!-- Node8&#45;&gt;Node1 -->
<g id="edge7" class="edge">
<title>Node8&#45;&gt;Node1</title>
<path fill="none" stroke="#9a32cd" stroke-dasharray="5,2" d="M593.08,-75.49C635.17,-79.79 693.78,-86.33 745,-94 757.39,-95.85 770.71,-98.16 783.1,-100.44"/>
<polygon fill="#9a32cd" stroke="#9a32cd" points="593.32,-71.99 583.02,-74.47 592.62,-78.96 593.32,-71.99"/>
<text text-anchor="middle" x="673" y="-97" font-family="Helvetica,sans-Serif" font-size="10.00"> Filename</text>
</g>
<!-- Node9 -->
<g id="node9" class="node">
<title>Node9</title>
<g id="a_node9"><a xlink:title=" ">
<polygon fill="white" stroke="#bfbfbf" points="249,-99.5 249,-118.5 386,-118.5 386,-99.5 249,-99.5"/>
<text text-anchor="middle" x="317.5" y="-106.5" font-family="Helvetica,sans-Serif" font-size="10.00">basic_string&lt; fschar_t &gt;</text>
</a>
</g>
</g>
<!-- Node9&#45;&gt;Node8 -->
<g id="edge8" class="edge">
<title>Node9&#45;&gt;Node8</title>
<path fill="none" stroke="#9a32cd" stroke-dasharray="5,2" d="M390.25,-97.8C415.22,-93.71 443.39,-88.88 469,-84 474.78,-82.9 480.84,-81.68 486.84,-80.43"/>
<polygon fill="#9a32cd" stroke="#9a32cd" points="389.43,-94.38 380.13,-99.44 390.56,-101.29 389.43,-94.38"/>
<text text-anchor="middle" x="436.5" y="-97" font-family="Helvetica,sans-Serif" font-size="10.00"> str</text>
</g>
<!-- Node10 -->
<g id="node10" class="node">
<title>Node10</title>
<g id="a_node10"><a xlink:title=" ">
<polygon fill="white" stroke="#bfbfbf" points="0,-49.5 0,-68.5 122,-68.5 122,-49.5 0,-49.5"/>
<text text-anchor="middle" x="61" y="-56.5" font-family="Helvetica,sans-Serif" font-size="10.00">static const size_type</text>
</a>
</g>
</g>
<!-- Node10&#45;&gt;Node8 -->
<g id="edge9" class="edge">
<title>Node10&#45;&gt;Node8</title>
<path fill="none" stroke="#9a32cd" stroke-dasharray="5,2" d="M132.32,-60.64C229.85,-62.91 403.57,-66.96 486.89,-68.9"/>
<polygon fill="#9a32cd" stroke="#9a32cd" points="132.34,-57.14 122.26,-60.4 132.17,-64.14 132.34,-57.14"/>
<text text-anchor="middle" x="317.5" y="-69" font-family="Helvetica,sans-Serif" font-size="10.00"> npos</text>
</g>
<!-- Node11 -->
<g id="node11" class="node">
<title>Node11</title>
<g id="a_node11"><a xlink:href="classirr_1_1core_1_1string.html" target="_top" xlink:title="Very simple string class with some useful features.">
<polygon fill="white" stroke="black" points="259.5,-14.5 259.5,-33.5 375.5,-33.5 375.5,-14.5 259.5,-14.5"/>
<text text-anchor="middle" x="317.5" y="-21.5" font-family="Helvetica,sans-Serif" font-size="10.00">irr::core::string&lt; T &gt;</text>
</a>
</g>
</g>
<!-- Node10&#45;&gt;Node11 -->
<g id="edge12" class="edge">
<title>Node10&#45;&gt;Node11</title>
<path fill="none" stroke="#9a32cd" stroke-dasharray="5,2" d="M122.56,-47.77C128.45,-46.79 134.33,-45.84 140,-45 179.68,-39.08 224.57,-33.76 259.15,-29.95"/>
<polygon fill="#9a32cd" stroke="#9a32cd" points="121.97,-44.32 112.7,-49.45 123.14,-51.22 121.97,-44.32"/>
<text text-anchor="middle" x="185.5" y="-48" font-family="Helvetica,sans-Serif" font-size="10.00"> npos</text>
</g>
<!-- Node11&#45;&gt;Node8 -->
<g id="edge10" class="edge">
<title>Node11&#45;&gt;Node8</title>
<path fill="none" stroke="orange" stroke-dasharray="5,2" d="M385.78,-30.06C412.01,-33.29 442.17,-38.07 469,-45 478.95,-47.57 489.46,-51.19 499.06,-54.88"/>
<polygon fill="orange" stroke="orange" points="385.9,-26.55 375.56,-28.86 385.08,-33.5 385.9,-26.55"/>
<text text-anchor="middle" x="436.5" y="-48" font-family="Helvetica,sans-Serif" font-size="10.00"> &lt; fschar_t &gt;</text>
</g>
<!-- Node12 -->
<g id="node12" class="node">
<title>Node12</title>
<g id="a_node12"><a xlink:title=" ">
<polygon fill="white" stroke="#bfbfbf" points="9,-0.5 9,-19.5 113,-19.5 113,-0.5 9,-0.5"/>
<text text-anchor="middle" x="61" y="-7.5" font-family="Helvetica,sans-Serif" font-size="10.00">basic_string&lt; T &gt;</text>
</a>
</g>
</g>
<!-- Node12&#45;&gt;Node11 -->
<g id="edge11" class="edge">
<title>Node12&#45;&gt;Node11</title>
<path fill="none" stroke="#9a32cd" stroke-dasharray="5,2" d="M123.25,-8.23C155.38,-7.84 195.37,-8.2 231,-11 241.03,-11.79 251.66,-13.05 261.9,-14.49"/>
<polygon fill="#9a32cd" stroke="#9a32cd" points="123.06,-4.73 113.11,-8.38 123.16,-11.73 123.06,-4.73"/>
<text text-anchor="middle" x="185.5" y="-14" font-family="Helvetica,sans-Serif" font-size="10.00"> str</text>
</g>
<!-- Node13 -->
<g id="node13" class="node">
<title>Node13</title>
<g id="a_node13"><a xlink:title=" ">
<polygon fill="white" stroke="#bfbfbf" points="512,-16.5 512,-35.5 558,-35.5 558,-16.5 512,-16.5"/>
<text text-anchor="middle" x="535" y="-23.5" font-family="Helvetica,sans-Serif" font-size="10.00">void *</text>
</a>
</g>
</g>
<!-- Node13&#45;&gt;Node1 -->
<g id="edge13" class="edge">
<title>Node13&#45;&gt;Node1</title>
<path fill="none" stroke="#9a32cd" stroke-dasharray="5,2" d="M568.45,-27.92C610.31,-31.19 684.87,-39.69 745,-61 772.65,-70.8 801.73,-89.19 818.14,-100.44"/>
<polygon fill="#9a32cd" stroke="#9a32cd" points="568.52,-24.42 558.3,-27.18 568.02,-31.4 568.52,-24.42"/>
<text text-anchor="middle" x="673" y="-64" font-family="Helvetica,sans-Serif" font-size="10.00"> Buffer</text>
</g>
</g>
</svg>
        <g id="navigator" transform="translate(0 0)" fill="#404254">
                <rect fill="#f2f5e9" fill-opacity="0.5" stroke="#606060" stroke-width=".5" x="0" y="0" width="60" height="60"/>
                <use id="zoomplus" xlink:href="#zoomPlus" x="17" y="9" onmousedown="handleZoom(evt,'in')"/>
                <use id="zoomminus" xlink:href="#zoomMin" x="42" y="9" onmousedown="handleZoom(evt,'out')"/>
                <use id="reset" xlink:href="#resetDef" x="30" y="36" onmousedown="handleReset()"/>
                <g id="arrowUp" xlink:href="#dirArrow" transform="translate(30 24)" onmousedown="handlePan(0,-1)">
                  <use xlink:href="#rim" fill="#404040">
                        <set attributeName="fill" to="#808080" begin="arrowUp.mouseover" end="arrowUp.mouseout"/>
                  </use>
                  <path fill="none" stroke="white" stroke-width="1.5" d="M0,-3.0v7 M-2.5,-0.5L0,-3.0L2.5,-0.5"/>
                </g>
                <g id="arrowRight" xlink:href="#dirArrow" transform="rotate(90) translate(36 -43)" onmousedown="handlePan(1,0)">
                  <use xlink:href="#rim" fill="#404040">
                        <set attributeName="fill" to="#808080" begin="arrowRight.mouseover" end="arrowRight.mouseout"/>
                  </use>
                  <path fill="none" stroke="white" stroke-width="1.5" d="M0,-3.0v7 M-2.5,-0.5L0,-3.0L2.5,-0.5"/>
                </g>
                <g id="arrowDown" xlink:href="#dirArrow" transform="rotate(180) translate(-30 -48)" onmousedown="handlePan(0,1)">
                  <use xlink:href="#rim" fill="#404040">
                        <set attributeName="fill" to="#808080" begin="arrowDown.mouseover" end="arrowDown.mouseout"/>
                  </use>
                  <path fill="none" stroke="white" stroke-width="1.5" d="M0,-3.0v7 M-2.5,-0.5L0,-3.0L2.5,-0.5"/>
                </g>
                <g id="arrowLeft" xlink:href="#dirArrow" transform="rotate(270) translate(-36 17)" onmousedown="handlePan(-1,0)">
                  <use xlink:href="#rim" fill="#404040">
                        <set attributeName="fill" to="#808080" begin="arrowLeft.mouseover" end="arrowLeft.mouseout"/>
                  </use>
                  <path fill="none" stroke="white" stroke-width="1.5" d="M0,-3.0v7 M-2.5,-0.5L0,-3.0L2.5,-0.5"/>
                </g>
        </g>
        <svg viewBox="0 0 15 15" width="100%" height="30px" preserveAspectRatio="xMaxYMin meet">
         <g id="arrow_out" transform="scale(0.3 0.3)">
          <a xlink:href="classirr_1_1io_1_1CMemoryWriteFile__coll__graph_org.svg" target="_base">
           <rect id="button" ry="5" rx="5" y="6" x="6" height="38" width="38"
                fill="#f2f5e9" fill-opacity="0.5" stroke="#606060" stroke-width="1.0"/>
           <path id="arrow"
             d="M 11.500037,31.436501 C 11.940474,20.09759 22.043105,11.32322 32.158766,21.979434 L 37.068811,17.246167 C 37.068811,17.246167 37.088388,32 37.088388,32 L 22.160133,31.978069 C 22.160133,31.978069 26.997745,27.140456 26.997745,27.140456 C 18.528582,18.264221 13.291696,25.230495 11.500037,31.436501 z"
             style="fill:#404040;"/>
          </a>
         </g>
        </svg>
</svg>
