<?xml version="1.0" encoding="UTF-8" standalone="no"?>
<!DOCTYPE svg PUBLIC "-//W3C//DTD SVG 1.1//EN"
 "http://www.w3.org/Graphics/SVG/1.1/DTD/svg11.dtd">
<!-- Generated by graphviz version 2.43.0 (0)
 -->
<!-- Title: NodeDefManager::deSerialize Pages: 1 -->
<svg width="765pt" height="214pt"
 viewBox="0.00 0.00 765.00 213.50" xmlns="http://www.w3.org/2000/svg" xmlns:xlink="http://www.w3.org/1999/xlink">
<g id="graph0" class="graph" transform="scale(1 1) rotate(0) translate(4 209.5)">
<title>NodeDefManager::deSerialize</title>
<polygon fill="white" stroke="transparent" points="-4,4 -4,-209.5 761,-209.5 761,4 -4,4"/>
<!-- Node1 -->
<g id="node1" class="node">
<title>Node1</title>
<g id="a_node1"><a xlink:title=" ">
<polygon fill="#bfbfbf" stroke="black" points="0,-109.5 0,-128.5 162,-128.5 162,-109.5 0,-109.5"/>
<text text-anchor="middle" x="81" y="-116.5" font-family="Helvetica,sans-Serif" font-size="10.00">NodeDefManager::deSerialize</text>
</a>
</g>
</g>
<!-- Node2 -->
<g id="node2" class="node">
<title>Node2</title>
<g id="a_node2"><a xlink:href="classNodeDefManager.html#ad1f9bef6e98730cdc704dbd14d4430a0" target="_top" xlink:title=" ">
<polygon fill="white" stroke="black" points="424,-175 424,-205 588,-205 588,-175 424,-175"/>
<text text-anchor="start" x="432" y="-193" font-family="Helvetica,sans-Serif" font-size="10.00">NodeDefManager::addNameId</text>
<text text-anchor="middle" x="506" y="-182" font-family="Helvetica,sans-Serif" font-size="10.00">Mapping</text>
</a>
</g>
</g>
<!-- Node1&#45;&gt;Node2 -->
<g id="edge1" class="edge">
<title>Node1&#45;&gt;Node2</title>
<path fill="none" stroke="midnightblue" d="M104.2,-128.67C127.2,-138.25 164.43,-152.54 198,-160 269.43,-175.87 352.08,-183.34 413.61,-186.86"/>
<polygon fill="midnightblue" stroke="midnightblue" points="413.51,-190.36 423.68,-187.42 413.89,-183.37 413.51,-190.36"/>
</g>
<!-- Node3 -->
<g id="node3" class="node">
<title>Node3</title>
<g id="a_node3"><a xlink:href="classNodeDefManager.html#ab5b0304e389dc56d1c7c75157611885a" target="_top" xlink:title=" ">
<polygon fill="white" stroke="black" points="227,-131.5 227,-150.5 359,-150.5 359,-131.5 227,-131.5"/>
<text text-anchor="middle" x="293" y="-138.5" font-family="Helvetica,sans-Serif" font-size="10.00">NodeDefManager::clear</text>
</a>
</g>
</g>
<!-- Node1&#45;&gt;Node3 -->
<g id="edge2" class="edge">
<title>Node1&#45;&gt;Node3</title>
<path fill="none" stroke="midnightblue" d="M162.29,-127.41C180.1,-129.28 198.92,-131.25 216.53,-133.09"/>
<polygon fill="midnightblue" stroke="midnightblue" points="216.43,-136.6 226.74,-134.16 217.16,-129.64 216.43,-136.6"/>
</g>
<!-- Node6 -->
<g id="node6" class="node">
<title>Node6</title>
<g id="a_node6"><a xlink:href="classNodeDefManager.html#a971115ca5fade38411b285dc93f98d4f" target="_top" xlink:title=" ">
<polygon fill="white" stroke="black" points="210.5,-82 210.5,-112 375.5,-112 375.5,-82 210.5,-82"/>
<text text-anchor="start" x="218.5" y="-100" font-family="Helvetica,sans-Serif" font-size="10.00">NodeDefManager::fixSelection</text>
<text text-anchor="middle" x="293" y="-89" font-family="Helvetica,sans-Serif" font-size="10.00">BoxIntUnion</text>
</a>
</g>
</g>
<!-- Node1&#45;&gt;Node6 -->
<g id="edge6" class="edge">
<title>Node1&#45;&gt;Node6</title>
<path fill="none" stroke="midnightblue" d="M162.29,-110.59C174.72,-109.29 187.63,-107.93 200.28,-106.61"/>
<polygon fill="midnightblue" stroke="midnightblue" points="200.78,-110.08 210.36,-105.55 200.05,-103.11 200.78,-110.08"/>
</g>
<!-- Node7 -->
<g id="node7" class="node">
<title>Node7</title>
<g id="a_node7"><a xlink:href="classNodeDefManager.html#a32ec9927c1c12e2670d3c47a6bd884d0" target="_top" xlink:title=" ">
<polygon fill="white" stroke="black" points="198,-38.5 198,-57.5 388,-57.5 388,-38.5 198,-38.5"/>
<text text-anchor="middle" x="293" y="-45.5" font-family="Helvetica,sans-Serif" font-size="10.00">NodeDefManager::resolveCrossrefs</text>
</a>
</g>
</g>
<!-- Node1&#45;&gt;Node7 -->
<g id="edge7" class="edge">
<title>Node1&#45;&gt;Node7</title>
<path fill="none" stroke="midnightblue" d="M103.06,-109.46C126.06,-99.28 164.14,-83.12 198,-72 211.39,-67.6 226.07,-63.51 239.77,-60"/>
<polygon fill="midnightblue" stroke="midnightblue" points="240.69,-63.38 249.54,-57.55 238.99,-56.59 240.69,-63.38"/>
</g>
<!-- Node3&#45;&gt;Node2 -->
<g id="edge3" class="edge">
<title>Node3&#45;&gt;Node2</title>
<path fill="none" stroke="midnightblue" d="M334.93,-150.51C361.98,-156.79 398.22,-165.2 430.29,-172.65"/>
<polygon fill="midnightblue" stroke="midnightblue" points="429.57,-176.08 440.1,-174.93 431.15,-169.26 429.57,-176.08"/>
</g>
<!-- Node4 -->
<g id="node4" class="node">
<title>Node4</title>
<g id="a_node4"><a xlink:href="classirr_1_1core_1_1aabbox3d.html#afc718e96ed11aa71a30311d32bfc885a" target="_top" xlink:title="Resets the bounding box to a one&#45;point box.">
<polygon fill="white" stroke="black" points="452,-126 452,-156 560,-156 560,-126 452,-126"/>
<text text-anchor="start" x="460" y="-144" font-family="Helvetica,sans-Serif" font-size="10.00">irr::core::aabbox3d</text>
<text text-anchor="middle" x="506" y="-133" font-family="Helvetica,sans-Serif" font-size="10.00">::reset</text>
</a>
</g>
</g>
<!-- Node3&#45;&gt;Node4 -->
<g id="edge4" class="edge">
<title>Node3&#45;&gt;Node4</title>
<path fill="none" stroke="midnightblue" d="M359.03,-141C385.33,-141 415.58,-141 441.7,-141"/>
<polygon fill="midnightblue" stroke="midnightblue" points="441.86,-144.5 451.86,-141 441.86,-137.5 441.86,-144.5"/>
</g>
<!-- Node5 -->
<g id="node5" class="node">
<title>Node5</title>
<g id="a_node5"><a xlink:href="classNodeDefManager.html#a7db46de26e3291e8d4c2ed745af5565e" target="_top" xlink:title=" ">
<polygon fill="white" stroke="black" points="427,-77 427,-107 585,-107 585,-77 427,-77"/>
<text text-anchor="start" x="435" y="-95" font-family="Helvetica,sans-Serif" font-size="10.00">NodeDefManager::resetNode</text>
<text text-anchor="middle" x="506" y="-84" font-family="Helvetica,sans-Serif" font-size="10.00">ResolveState</text>
</a>
</g>
</g>
<!-- Node3&#45;&gt;Node5 -->
<g id="edge5" class="edge">
<title>Node3&#45;&gt;Node5</title>
<path fill="none" stroke="midnightblue" d="M343.86,-131.42C358.15,-128.54 373.72,-125.27 388,-122 404.5,-118.22 422.24,-113.84 438.78,-109.61"/>
<polygon fill="midnightblue" stroke="midnightblue" points="440.09,-112.89 448.91,-107.01 438.35,-106.11 440.09,-112.89"/>
</g>
<!-- Node8 -->
<g id="node8" class="node">
<title>Node8</title>
<g id="a_node8"><a xlink:href="classNodeDefManager.html#af0899fce864212f711ce750042583e01" target="_top" xlink:title=" ">
<polygon fill="white" stroke="black" points="624,-19.5 624,-38.5 757,-38.5 757,-19.5 624,-19.5"/>
<text text-anchor="middle" x="690.5" y="-26.5" font-family="Helvetica,sans-Serif" font-size="10.00">NodeDefManager::getId</text>
</a>
</g>
</g>
<!-- Node7&#45;&gt;Node8 -->
<g id="edge8" class="edge">
<title>Node7&#45;&gt;Node8</title>
<path fill="none" stroke="midnightblue" d="M388.23,-43.47C457.2,-40.16 549.56,-35.72 613.76,-32.64"/>
<polygon fill="midnightblue" stroke="midnightblue" points="613.99,-36.13 623.81,-32.16 613.66,-29.14 613.99,-36.13"/>
</g>
<!-- Node9 -->
<g id="node9" class="node">
<title>Node9</title>
<g id="a_node9"><a xlink:href="classNodeDefManager.html#aaee0b217d4ce6e5a337f864a2adae9bb" target="_top" xlink:title=" ">
<polygon fill="white" stroke="black" points="437,-0.5 437,-19.5 575,-19.5 575,-0.5 437,-0.5"/>
<text text-anchor="middle" x="506" y="-7.5" font-family="Helvetica,sans-Serif" font-size="10.00">NodeDefManager::getIds</text>
</a>
</g>
</g>
<!-- Node7&#45;&gt;Node9 -->
<g id="edge9" class="edge">
<title>Node7&#45;&gt;Node9</title>
<path fill="none" stroke="midnightblue" d="M346.97,-38.46C375.82,-33.27 411.7,-26.8 441.97,-21.35"/>
<polygon fill="midnightblue" stroke="midnightblue" points="442.79,-24.76 452.01,-19.54 441.54,-17.87 442.79,-24.76"/>
</g>
<!-- Node9&#45;&gt;Node8 -->
<g id="edge10" class="edge">
<title>Node9&#45;&gt;Node8</title>
<path fill="none" stroke="midnightblue" d="M575.22,-17.1C587.76,-18.41 600.92,-19.78 613.67,-21.11"/>
<polygon fill="midnightblue" stroke="midnightblue" points="613.48,-24.6 623.79,-22.16 614.2,-17.64 613.48,-24.6"/>
</g>
</g>
</svg>
