<?xml version="1.0" encoding="UTF-8" standalone="no"?>
<!DOCTYPE svg PUBLIC "-//W3C//DTD SVG 1.1//EN"
 "http://www.w3.org/Graphics/SVG/1.1/DTD/svg11.dtd">
<!-- Generated by graphviz version 2.43.0 (0)
 -->
<!-- Title: PseudoRandom Pages: 1 -->
<svg width="159pt" height="95pt"
 viewBox="0.00 0.00 159.00 95.00" xmlns="http://www.w3.org/2000/svg" xmlns:xlink="http://www.w3.org/1999/xlink">
<g id="graph0" class="graph" transform="scale(1 1) rotate(0) translate(4 91)">
<title>PseudoRandom</title>
<polygon fill="white" stroke="transparent" points="-4,4 -4,-91 155,-91 155,4 -4,4"/>
<!-- Node1 -->
<g id="node1" class="node">
<title>Node1</title>
<g id="a_node1"><a xlink:title=" ">
<polygon fill="#bfbfbf" stroke="black" points="0,-0.5 0,-19.5 92,-19.5 92,-0.5 0,-0.5"/>
<text text-anchor="middle" x="46" y="-7.5" font-family="Helvetica,sans-Serif" font-size="10.00">PseudoRandom</text>
</a>
</g>
</g>
<!-- Node2 -->
<g id="node2" class="node">
<title>Node2</title>
<g id="a_node2"><a xlink:title=" ">
<polygon fill="white" stroke="#bfbfbf" points="0.5,-67.5 0.5,-86.5 29.5,-86.5 29.5,-67.5 0.5,-67.5"/>
<text text-anchor="middle" x="15" y="-74.5" font-family="Helvetica,sans-Serif" font-size="10.00">int</text>
</a>
</g>
</g>
<!-- Node2&#45;&gt;Node1 -->
<g id="edge1" class="edge">
<title>Node2&#45;&gt;Node1</title>
<path fill="none" stroke="#9a32cd" stroke-dasharray="5,2" d="M12.58,-57.06C12.52,-50.75 13.31,-43.84 16,-38 19.46,-30.49 26.11,-24.17 32.26,-19.53"/>
<polygon fill="#9a32cd" stroke="#9a32cd" points="9.12,-57.71 13.36,-67.41 16.1,-57.18 9.12,-57.71"/>
<text text-anchor="middle" x="36" y="-41" font-family="Helvetica,sans-Serif" font-size="10.00"> m_next</text>
</g>
<!-- Node3 -->
<g id="node3" class="node">
<title>Node3</title>
<g id="a_node3"><a xlink:title=" ">
<polygon fill="white" stroke="#bfbfbf" points="60.5,-67.5 60.5,-86.5 95.5,-86.5 95.5,-67.5 60.5,-67.5"/>
<text text-anchor="middle" x="78" y="-74.5" font-family="Helvetica,sans-Serif" font-size="10.00">u32</text>
</a>
</g>
</g>
<!-- Node3&#45;&gt;Node1 -->
<g id="edge2" class="edge">
<title>Node3&#45;&gt;Node1</title>
<path fill="none" stroke="#9a32cd" stroke-dasharray="5,2" d="M69.22,-58.16C63.05,-45.63 55.06,-29.41 50.25,-19.63"/>
<polygon fill="#9a32cd" stroke="#9a32cd" points="66.13,-59.81 73.68,-67.23 72.41,-56.72 66.13,-59.81"/>
<text text-anchor="middle" x="107" y="-41" font-family="Helvetica,sans-Serif" font-size="10.00"> RANDOM_RANGE</text>
</g>
</g>
</svg>
