<?xml version="1.0" encoding="UTF-8" standalone="no"?>
<!DOCTYPE svg PUBLIC "-//W3C//DTD SVG 1.1//EN"
 "http://www.w3.org/Graphics/SVG/1.1/DTD/svg11.dtd">
<!-- Generated by graphviz version 2.43.0 (0)
 -->
<!-- Title: GUIEngine::setTopleftText Pages: 1 -->
<svg width="822pt" height="88pt"
 viewBox="0.00 0.00 822.00 88.00" xmlns="http://www.w3.org/2000/svg" xmlns:xlink="http://www.w3.org/1999/xlink">
<g id="graph0" class="graph" transform="scale(1 1) rotate(0) translate(4 84)">
<title>GUIEngine::setTopleftText</title>
<polygon fill="white" stroke="transparent" points="-4,4 -4,-84 818,-84 818,4 -4,4"/>
<!-- Node1 -->
<g id="node1" class="node">
<title>Node1</title>
<g id="a_node1"><a xlink:title=" ">
<polygon fill="#bfbfbf" stroke="black" points="0,-30 0,-49 141,-49 141,-30 0,-30"/>
<text text-anchor="middle" x="70.5" y="-37" font-family="Helvetica,sans-Serif" font-size="10.00">GUIEngine::setTopleftText</text>
</a>
</g>
</g>
<!-- Node2 -->
<g id="node2" class="node">
<title>Node2</title>
<g id="a_node2"><a xlink:href="classGUIEngine.html#a406ce771bfd055744a85238c3616a018" target="_top" xlink:title=" ">
<polygon fill="white" stroke="black" points="177,-24.5 177,-54.5 319,-54.5 319,-24.5 177,-24.5"/>
<text text-anchor="start" x="185" y="-42.5" font-family="Helvetica,sans-Serif" font-size="10.00">GUIEngine::updateTopLeft</text>
<text text-anchor="middle" x="248" y="-31.5" font-family="Helvetica,sans-Serif" font-size="10.00">TextSize</text>
</a>
</g>
</g>
<!-- Node1&#45;&gt;Node2 -->
<g id="edge1" class="edge">
<title>Node1&#45;&gt;Node2</title>
<path fill="none" stroke="midnightblue" d="M141.11,-39.5C149.57,-39.5 158.27,-39.5 166.87,-39.5"/>
<polygon fill="midnightblue" stroke="midnightblue" points="166.9,-43 176.9,-39.5 166.9,-36 166.9,-43"/>
</g>
<!-- Node3 -->
<g id="node3" class="node">
<title>Node3</title>
<g id="a_node3"><a xlink:href="classFontEngine.html#a2f730dd25243d78870d2b55e31a591dc" target="_top" xlink:title=" ">
<polygon fill="white" stroke="black" points="355,-53 355,-72 500,-72 500,-53 355,-53"/>
<text text-anchor="middle" x="427.5" y="-60" font-family="Helvetica,sans-Serif" font-size="10.00">FontEngine::getTextHeight</text>
</a>
</g>
</g>
<!-- Node2&#45;&gt;Node3 -->
<g id="edge2" class="edge">
<title>Node2&#45;&gt;Node3</title>
<path fill="none" stroke="midnightblue" d="M319.15,-48.59C327.58,-49.68 336.24,-50.8 344.82,-51.92"/>
<polygon fill="midnightblue" stroke="midnightblue" points="344.45,-55.4 354.82,-53.21 345.35,-48.46 344.45,-55.4"/>
</g>
<!-- Node5 -->
<g id="node5" class="node">
<title>Node5</title>
<g id="a_node5"><a xlink:href="classirr_1_1gui_1_1IGUIElement.html#af8fb8c63d48ec6ceeeedc8a83c02a9d0" target="_top" xlink:title="Removes this element from its parent.">
<polygon fill="white" stroke="black" points="369.5,-2.5 369.5,-32.5 485.5,-32.5 485.5,-2.5 369.5,-2.5"/>
<text text-anchor="start" x="377.5" y="-20.5" font-family="Helvetica,sans-Serif" font-size="10.00">irr::gui::IGUIElement</text>
<text text-anchor="middle" x="427.5" y="-9.5" font-family="Helvetica,sans-Serif" font-size="10.00">::remove</text>
</a>
</g>
</g>
<!-- Node2&#45;&gt;Node5 -->
<g id="edge4" class="edge">
<title>Node2&#45;&gt;Node5</title>
<path fill="none" stroke="midnightblue" d="M319.15,-30.81C332.43,-29.16 346.3,-27.44 359.48,-25.81"/>
<polygon fill="midnightblue" stroke="midnightblue" points="359.91,-29.28 369.41,-24.58 359.05,-22.33 359.91,-29.28"/>
</g>
<!-- Node4 -->
<g id="node4" class="node">
<title>Node4</title>
<g id="a_node4"><a xlink:href="classirr_1_1gui_1_1IGUIFont.html#aa7612db0c9dc2837b44a1a2fa5668797" target="_top" xlink:title="Calculates the width and height of a given string of text.">
<polygon fill="white" stroke="black" points="546,-49.5 546,-79.5 642,-79.5 642,-49.5 546,-49.5"/>
<text text-anchor="start" x="554" y="-67.5" font-family="Helvetica,sans-Serif" font-size="10.00">irr::gui::IGUIFont</text>
<text text-anchor="middle" x="594" y="-56.5" font-family="Helvetica,sans-Serif" font-size="10.00">::getDimension</text>
</a>
</g>
</g>
<!-- Node3&#45;&gt;Node4 -->
<g id="edge3" class="edge">
<title>Node3&#45;&gt;Node4</title>
<path fill="none" stroke="midnightblue" d="M500.17,-63.37C511.97,-63.51 524.07,-63.66 535.46,-63.8"/>
<polygon fill="midnightblue" stroke="midnightblue" points="535.66,-67.3 545.71,-63.92 535.75,-60.3 535.66,-67.3"/>
</g>
<!-- Node6 -->
<g id="node6" class="node">
<title>Node6</title>
<g id="a_node6"><a xlink:href="classirr_1_1gui_1_1IGUIElement.html#a3171cafaa9d2f3b67c886c60bdd61b32" target="_top" xlink:title="Removes a child.">
<polygon fill="white" stroke="black" points="536,-0.5 536,-30.5 652,-30.5 652,-0.5 536,-0.5"/>
<text text-anchor="start" x="544" y="-18.5" font-family="Helvetica,sans-Serif" font-size="10.00">irr::gui::IGUIElement</text>
<text text-anchor="middle" x="594" y="-7.5" font-family="Helvetica,sans-Serif" font-size="10.00">::removeChild</text>
</a>
</g>
</g>
<!-- Node5&#45;&gt;Node6 -->
<g id="edge5" class="edge">
<title>Node5&#45;&gt;Node6</title>
<path fill="none" stroke="midnightblue" d="M485.57,-16.81C498.51,-16.65 512.37,-16.48 525.69,-16.32"/>
<polygon fill="midnightblue" stroke="midnightblue" points="525.79,-19.82 535.75,-16.2 525.71,-12.82 525.79,-19.82"/>
</g>
<!-- Node7 -->
<g id="node7" class="node">
<title>Node7</title>
<g id="a_node7"><a xlink:href="classirr_1_1IReferenceCounted.html#a03856a09355b89d178090c4a5f738543" target="_top" xlink:title="Drops the object. Decrements the reference counter by one.">
<polygon fill="white" stroke="black" points="688,-0.5 688,-30.5 814,-30.5 814,-0.5 688,-0.5"/>
<text text-anchor="start" x="696" y="-18.5" font-family="Helvetica,sans-Serif" font-size="10.00">irr::IReferenceCounted</text>
<text text-anchor="middle" x="751" y="-7.5" font-family="Helvetica,sans-Serif" font-size="10.00">::drop</text>
</a>
</g>
</g>
<!-- Node6&#45;&gt;Node7 -->
<g id="edge6" class="edge">
<title>Node6&#45;&gt;Node7</title>
<path fill="none" stroke="midnightblue" d="M652.28,-15.5C660.49,-15.5 669.03,-15.5 677.49,-15.5"/>
<polygon fill="midnightblue" stroke="midnightblue" points="677.75,-19 687.75,-15.5 677.75,-12 677.75,-19"/>
</g>
</g>
</svg>
