<?xml version="1.0" encoding="UTF-8" standalone="no"?>
<!DOCTYPE svg PUBLIC "-//W3C//DTD SVG 1.1//EN"
 "http://www.w3.org/Graphics/SVG/1.1/DTD/svg11.dtd">
<!-- Generated by graphviz version 2.43.0 (0)
 -->
<!-- Title: irr::scene::CMeshManipulator::createMeshCopy Pages: 1 -->
<!--zoomable 606 -->
<svg id="main" version="1.1" xmlns="http://www.w3.org/2000/svg" xmlns:xlink="http://www.w3.org/1999/xlink" xml:space="preserve" onload="init(evt)">
<style type="text/css"><![CDATA[
.edge:hover path { stroke: red; }
.edge:hover polygon { stroke: red; fill: red; }
]]></style>
<script type="text/javascript"><![CDATA[
var edges = document.getElementsByTagName('g');
if (edges && edges.length) {
  for (var i=0;i<edges.length;i++) {
    if (edges[i].id.substr(0,4)=='edge') {
      edges[i].setAttribute('class','edge');
    }
  }
}
]]></script>
        <defs>
                <circle id="rim" cx="0" cy="0" r="7"/>
                <circle id="rim2" cx="0" cy="0" r="3.5"/>
                <g id="zoomPlus">
                        <use xlink:href="#rim" fill="#404040">
                                <set attributeName="fill" to="#808080" begin="zoomplus.mouseover" end="zoomplus.mouseout"/>
                        </use>
                        <path d="M-4,0h8M0,-4v8" fill="none" stroke="white" stroke-width="1.5" pointer-events="none"/>
                </g>
                <g id="zoomMin">
                        <use xlink:href="#rim" fill="#404040">
                                <set attributeName="fill" to="#808080" begin="zoomminus.mouseover" end="zoomminus.mouseout"/>
                        </use>
                        <path d="M-4,0h8" fill="none" stroke="white" stroke-width="1.5" pointer-events="none"/>
                </g>
                <g id="dirArrow">
                        <path fill="none" stroke="white" stroke-width="1.5" d="M0,-3.0v7 M-2.5,-0.5L0,-3.0L2.5,-0.5"/>
                </g>
               <g id="resetDef">
                       <use xlink:href="#rim2" fill="#404040">
                               <set attributeName="fill" to="#808080" begin="reset.mouseover" end="reset.mouseout"/>
                       </use>
               </g>
        </defs>

<script type="text/javascript">
var viewWidth = 508;
var viewHeight = 606;
var sectionId = 'dynsection-2';
</script>
<script xlink:href="svgpan.js"/>
<svg id="graph" class="graph">
<g id="viewport">
<title>irr::scene::CMeshManipulator::createMeshCopy</title>
<polygon fill="white" stroke="transparent" points="-4,4 -4,-601.5 504,-601.5 504,4 -4,4"/>
<!-- Node1 -->
<g id="node1" class="node">
<title>Node1</title>
<g id="a_node1"><a xlink:title="Clones a static IMesh into a modifiable SMesh.">
<polygon fill="#bfbfbf" stroke="black" points="0,-273 0,-303 159,-303 159,-273 0,-273"/>
<text text-anchor="start" x="8" y="-291" font-family="Helvetica,sans-Serif" font-size="10.00">irr::scene::CMeshManipulator</text>
<text text-anchor="middle" x="79.5" y="-280" font-family="Helvetica,sans-Serif" font-size="10.00">::createMeshCopy</text>
</a>
</g>
</g>
<!-- Node2 -->
<g id="node2" class="node">
<title>Node2</title>
<g id="a_node2"><a xlink:href="structirr_1_1scene_1_1SMesh.html#a890e7506262b2ebaf45ff95c681452bd" target="_top" xlink:title="adds a MeshBuffer">
<polygon fill="white" stroke="black" points="213.5,-567 213.5,-597 319.5,-597 319.5,-567 213.5,-567"/>
<text text-anchor="start" x="221.5" y="-585" font-family="Helvetica,sans-Serif" font-size="10.00">irr::scene::SMesh::</text>
<text text-anchor="middle" x="266.5" y="-574" font-family="Helvetica,sans-Serif" font-size="10.00">addMeshBuffer</text>
</a>
</g>
</g>
<!-- Node1&#45;&gt;Node2 -->
<g id="edge1" class="edge">
<title>Node1&#45;&gt;Node2</title>
<path fill="none" stroke="midnightblue" d="M82.58,-303.31C89.55,-348.86 116.31,-484.86 195,-558 197.9,-560.7 201.12,-563.09 204.53,-565.22"/>
<polygon fill="midnightblue" stroke="midnightblue" points="202.89,-568.31 213.35,-569.97 206.21,-562.15 202.89,-568.31"/>
</g>
<!-- Node4 -->
<g id="node4" class="node">
<title>Node4</title>
<g id="a_node4"><a xlink:href="classirr_1_1IReferenceCounted.html#a03856a09355b89d178090c4a5f738543" target="_top" xlink:title="Drops the object. Decrements the reference counter by one.">
<polygon fill="white" stroke="black" points="203.5,-518 203.5,-548 329.5,-548 329.5,-518 203.5,-518"/>
<text text-anchor="start" x="211.5" y="-536" font-family="Helvetica,sans-Serif" font-size="10.00">irr::IReferenceCounted</text>
<text text-anchor="middle" x="266.5" y="-525" font-family="Helvetica,sans-Serif" font-size="10.00">::drop</text>
</a>
</g>
</g>
<!-- Node1&#45;&gt;Node4 -->
<g id="edge3" class="edge">
<title>Node1&#45;&gt;Node4</title>
<path fill="none" stroke="midnightblue" d="M84.1,-303.07C94.34,-342.7 127.36,-450.81 195,-509 196.51,-510.3 198.09,-511.52 199.73,-512.69"/>
<polygon fill="midnightblue" stroke="midnightblue" points="197.99,-515.73 208.35,-517.97 201.65,-509.76 197.99,-515.73"/>
</g>
<!-- Node5 -->
<g id="node5" class="node">
<title>Node5</title>
<g id="a_node5"><a xlink:href="classirr_1_1scene_1_1IMesh.html#ada6ecee9cbebed8bb67fd92872552ea0" target="_top" xlink:title="Get an axis aligned bounding box of the mesh.">
<polygon fill="white" stroke="black" points="215,-469 215,-499 318,-499 318,-469 215,-469"/>
<text text-anchor="start" x="223" y="-487" font-family="Helvetica,sans-Serif" font-size="10.00">irr::scene::IMesh::</text>
<text text-anchor="middle" x="266.5" y="-476" font-family="Helvetica,sans-Serif" font-size="10.00">getBoundingBox</text>
</a>
</g>
</g>
<!-- Node1&#45;&gt;Node5 -->
<g id="edge4" class="edge">
<title>Node1&#45;&gt;Node5</title>
<path fill="none" stroke="midnightblue" d="M86.48,-303.06C100.43,-336.28 138.28,-416.36 195,-460 198.34,-462.57 201.98,-464.88 205.78,-466.95"/>
<polygon fill="midnightblue" stroke="midnightblue" points="204.36,-470.14 214.88,-471.34 207.4,-463.84 204.36,-470.14"/>
</g>
<!-- Node6 -->
<g id="node6" class="node">
<title>Node6</title>
<g id="a_node6"><a xlink:href="classirr_1_1scene_1_1IMeshBuffer.html#a96e08662e15b1205516b87ada3301551" target="_top" xlink:title="Get amount of indices in this meshbuffer.">
<polygon fill="white" stroke="black" points="203.5,-420 203.5,-450 329.5,-450 329.5,-420 203.5,-420"/>
<text text-anchor="start" x="211.5" y="-438" font-family="Helvetica,sans-Serif" font-size="10.00">irr::scene::IMeshBuffer</text>
<text text-anchor="middle" x="266.5" y="-427" font-family="Helvetica,sans-Serif" font-size="10.00">::getIndexCount</text>
</a>
</g>
</g>
<!-- Node1&#45;&gt;Node6 -->
<g id="edge5" class="edge">
<title>Node1&#45;&gt;Node6</title>
<path fill="none" stroke="midnightblue" d="M90.7,-303.11C108.79,-328.83 148.96,-381.19 195,-411 197.44,-412.58 200,-414.07 202.63,-415.47"/>
<polygon fill="midnightblue" stroke="midnightblue" points="201.29,-418.71 211.82,-419.9 204.33,-412.4 201.29,-418.71"/>
</g>
<!-- Node7 -->
<g id="node7" class="node">
<title>Node7</title>
<g id="a_node7"><a xlink:href="classirr_1_1scene_1_1IMeshBuffer.html#a76c0013378012af7aeb6cb8f4ea8f9a1" target="_top" xlink:title="Get access to indices.">
<polygon fill="white" stroke="black" points="203.5,-371 203.5,-401 329.5,-401 329.5,-371 203.5,-371"/>
<text text-anchor="start" x="211.5" y="-389" font-family="Helvetica,sans-Serif" font-size="10.00">irr::scene::IMeshBuffer</text>
<text text-anchor="middle" x="266.5" y="-378" font-family="Helvetica,sans-Serif" font-size="10.00">::getIndices</text>
</a>
</g>
</g>
<!-- Node1&#45;&gt;Node7 -->
<g id="edge6" class="edge">
<title>Node1&#45;&gt;Node7</title>
<path fill="none" stroke="midnightblue" d="M100.7,-303.25C122.9,-319.47 160.06,-345.08 195,-362 198.73,-363.81 202.63,-365.54 206.61,-367.18"/>
<polygon fill="midnightblue" stroke="midnightblue" points="205.37,-370.46 215.95,-370.86 207.93,-363.94 205.37,-370.46"/>
</g>
<!-- Node8 -->
<g id="node8" class="node">
<title>Node8</title>
<g id="a_node8"><a xlink:href="classirr_1_1scene_1_1IMeshBuffer.html#a26fd922f00fde56abbbbbe40b485238b" target="_top" xlink:title="Get the material of this meshbuffer.">
<polygon fill="white" stroke="black" points="203.5,-322 203.5,-352 329.5,-352 329.5,-322 203.5,-322"/>
<text text-anchor="start" x="211.5" y="-340" font-family="Helvetica,sans-Serif" font-size="10.00">irr::scene::IMeshBuffer</text>
<text text-anchor="middle" x="266.5" y="-329" font-family="Helvetica,sans-Serif" font-size="10.00">::getMaterial</text>
</a>
</g>
</g>
<!-- Node1&#45;&gt;Node8 -->
<g id="edge7" class="edge">
<title>Node1&#45;&gt;Node8</title>
<path fill="none" stroke="midnightblue" d="M137.26,-303.03C156.8,-308.21 178.84,-314.05 199.08,-319.41"/>
<polygon fill="midnightblue" stroke="midnightblue" points="198.28,-322.82 208.84,-321.99 200.07,-316.05 198.28,-322.82"/>
</g>
<!-- Node9 -->
<g id="node9" class="node">
<title>Node9</title>
<g id="a_node9"><a xlink:href="classirr_1_1scene_1_1IMesh.html#a2cd1a04b396235101f426befba0c5b82" target="_top" xlink:title="Get pointer to a mesh buffer.">
<polygon fill="white" stroke="black" points="215,-273 215,-303 318,-303 318,-273 215,-273"/>
<text text-anchor="start" x="223" y="-291" font-family="Helvetica,sans-Serif" font-size="10.00">irr::scene::IMesh::</text>
<text text-anchor="middle" x="266.5" y="-280" font-family="Helvetica,sans-Serif" font-size="10.00">getMeshBuffer</text>
</a>
</g>
</g>
<!-- Node1&#45;&gt;Node9 -->
<g id="edge8" class="edge">
<title>Node1&#45;&gt;Node9</title>
<path fill="none" stroke="midnightblue" d="M159.22,-288C174.42,-288 190.12,-288 204.64,-288"/>
<polygon fill="midnightblue" stroke="midnightblue" points="204.98,-291.5 214.98,-288 204.98,-284.5 204.98,-291.5"/>
</g>
<!-- Node10 -->
<g id="node10" class="node">
<title>Node10</title>
<g id="a_node10"><a xlink:href="classirr_1_1scene_1_1IMesh.html#a2ebed0bdae2d6537c36b0b7ac831edb8" target="_top" xlink:title="Get the amount of mesh buffers.">
<polygon fill="white" stroke="black" points="208.5,-224 208.5,-254 324.5,-254 324.5,-224 208.5,-224"/>
<text text-anchor="start" x="216.5" y="-242" font-family="Helvetica,sans-Serif" font-size="10.00">irr::scene::IMesh::</text>
<text text-anchor="middle" x="266.5" y="-231" font-family="Helvetica,sans-Serif" font-size="10.00">getMeshBufferCount</text>
</a>
</g>
</g>
<!-- Node1&#45;&gt;Node10 -->
<g id="edge9" class="edge">
<title>Node1&#45;&gt;Node10</title>
<path fill="none" stroke="midnightblue" d="M137.26,-272.97C156.8,-267.79 178.84,-261.95 199.08,-256.59"/>
<polygon fill="midnightblue" stroke="midnightblue" points="200.07,-259.95 208.84,-254.01 198.28,-253.18 200.07,-259.95"/>
</g>
<!-- Node11 -->
<g id="node11" class="node">
<title>Node11</title>
<g id="a_node11"><a xlink:href="classirr_1_1scene_1_1IMeshBuffer.html#a77ab285c8c886af8ddeb0371db7bde96" target="_top" xlink:title="Get amount of vertices in meshbuffer.">
<polygon fill="white" stroke="black" points="203.5,-175 203.5,-205 329.5,-205 329.5,-175 203.5,-175"/>
<text text-anchor="start" x="211.5" y="-193" font-family="Helvetica,sans-Serif" font-size="10.00">irr::scene::IMeshBuffer</text>
<text text-anchor="middle" x="266.5" y="-182" font-family="Helvetica,sans-Serif" font-size="10.00">::getVertexCount</text>
</a>
</g>
</g>
<!-- Node1&#45;&gt;Node11 -->
<g id="edge10" class="edge">
<title>Node1&#45;&gt;Node11</title>
<path fill="none" stroke="midnightblue" d="M101.18,-272.77C123.49,-256.84 160.47,-231.86 195,-215 199.37,-212.87 203.96,-210.83 208.62,-208.89"/>
<polygon fill="midnightblue" stroke="midnightblue" points="210.24,-212.02 218.24,-205.08 207.66,-205.51 210.24,-212.02"/>
</g>
<!-- Node12 -->
<g id="node12" class="node">
<title>Node12</title>
<g id="a_node12"><a xlink:href="classirr_1_1scene_1_1IMeshBuffer.html#a4d7a84ae4416487736f0ed0f519bb4f0" target="_top" xlink:title="Get type of vertex data which is stored in this meshbuffer.">
<polygon fill="white" stroke="black" points="203.5,-126 203.5,-156 329.5,-156 329.5,-126 203.5,-126"/>
<text text-anchor="start" x="211.5" y="-144" font-family="Helvetica,sans-Serif" font-size="10.00">irr::scene::IMeshBuffer</text>
<text text-anchor="middle" x="266.5" y="-133" font-family="Helvetica,sans-Serif" font-size="10.00">::getVertexType</text>
</a>
</g>
</g>
<!-- Node1&#45;&gt;Node12 -->
<g id="edge11" class="edge">
<title>Node1&#45;&gt;Node12</title>
<path fill="none" stroke="midnightblue" d="M91.06,-272.67C109.39,-247.12 149.53,-195.72 195,-166 198.06,-164 201.3,-162.14 204.64,-160.41"/>
<polygon fill="midnightblue" stroke="midnightblue" points="206.14,-163.57 213.68,-156.13 203.15,-157.24 206.14,-163.57"/>
</g>
<!-- Node13 -->
<g id="node13" class="node">
<title>Node13</title>
<g id="a_node13"><a xlink:href="classirr_1_1scene_1_1IMeshBuffer.html#a99891e516246b2cff13b362a435c8028" target="_top" xlink:title="Get access to vertex data. The data is an array of vertices.">
<polygon fill="white" stroke="black" points="203.5,-77 203.5,-107 329.5,-107 329.5,-77 203.5,-77"/>
<text text-anchor="start" x="211.5" y="-95" font-family="Helvetica,sans-Serif" font-size="10.00">irr::scene::IMeshBuffer</text>
<text text-anchor="middle" x="266.5" y="-84" font-family="Helvetica,sans-Serif" font-size="10.00">::getVertices</text>
</a>
</g>
</g>
<!-- Node1&#45;&gt;Node13 -->
<g id="edge12" class="edge">
<title>Node1&#45;&gt;Node13</title>
<path fill="none" stroke="midnightblue" d="M86.65,-272.83C100.81,-239.76 138.87,-160.64 195,-117 197.31,-115.21 199.75,-113.54 202.3,-111.98"/>
<polygon fill="midnightblue" stroke="midnightblue" points="204.13,-114.96 211.25,-107.12 200.79,-108.81 204.13,-114.96"/>
</g>
<!-- Node14 -->
<g id="node14" class="node">
<title>Node14</title>
<g id="a_node14"><a xlink:href="classirr_1_1core_1_1array.html#a95afc36513d08abb51bd399755730877" target="_top" xlink:title="Adds an element at back of array.">
<polygon fill="white" stroke="black" points="195,-38.5 195,-57.5 338,-57.5 338,-38.5 195,-38.5"/>
<text text-anchor="middle" x="266.5" y="-45.5" font-family="Helvetica,sans-Serif" font-size="10.00">irr::core::array::push_back</text>
</a>
</g>
</g>
<!-- Node1&#45;&gt;Node14 -->
<g id="edge13" class="edge">
<title>Node1&#45;&gt;Node14</title>
<path fill="none" stroke="midnightblue" d="M83.96,-272.8C93.84,-232.87 126.07,-124.16 195,-68 197.75,-65.76 200.73,-63.78 203.86,-62.01"/>
<polygon fill="midnightblue" stroke="midnightblue" points="205.54,-65.09 213.04,-57.6 202.51,-58.78 205.54,-65.09"/>
</g>
<!-- Node15 -->
<g id="node15" class="node">
<title>Node15</title>
<g id="a_node15"><a xlink:href="classirr_1_1core_1_1array.html#aa591c18145f3368828122173318786c4" target="_top" xlink:title="Reallocates the array, make it bigger or smaller.">
<polygon fill="white" stroke="black" points="196.5,-0.5 196.5,-19.5 336.5,-19.5 336.5,-0.5 196.5,-0.5"/>
<text text-anchor="middle" x="266.5" y="-7.5" font-family="Helvetica,sans-Serif" font-size="10.00">irr::core::array::reallocate</text>
</a>
</g>
</g>
<!-- Node1&#45;&gt;Node15 -->
<g id="edge14" class="edge">
<title>Node1&#45;&gt;Node15</title>
<path fill="none" stroke="midnightblue" d="M82.62,-272.75C89.66,-228.06 116.44,-96.37 195,-29 196.98,-27.3 199.09,-25.76 201.31,-24.35"/>
<polygon fill="midnightblue" stroke="midnightblue" points="203.12,-27.35 210.3,-19.56 199.83,-21.17 203.12,-27.35"/>
</g>
<!-- Node3 -->
<g id="node3" class="node">
<title>Node3</title>
<g id="a_node3"><a xlink:href="classirr_1_1IReferenceCounted.html#a396f9cdbe311ada278626477b3c6f0f5" target="_top" xlink:title="Grabs the object. Increments the reference counter by one.">
<polygon fill="white" stroke="black" points="374,-567 374,-597 500,-597 500,-567 374,-567"/>
<text text-anchor="start" x="382" y="-585" font-family="Helvetica,sans-Serif" font-size="10.00">irr::IReferenceCounted</text>
<text text-anchor="middle" x="437" y="-574" font-family="Helvetica,sans-Serif" font-size="10.00">::grab</text>
</a>
</g>
</g>
<!-- Node2&#45;&gt;Node3 -->
<g id="edge2" class="edge">
<title>Node2&#45;&gt;Node3</title>
<path fill="none" stroke="midnightblue" d="M319.89,-582C333.78,-582 349.03,-582 363.78,-582"/>
<polygon fill="midnightblue" stroke="midnightblue" points="363.89,-585.5 373.89,-582 363.89,-578.5 363.89,-585.5"/>
</g>
</g>
</svg>
        <g id="navigator" transform="translate(0 0)" fill="#404254">
                <rect fill="#f2f5e9" fill-opacity="0.5" stroke="#606060" stroke-width=".5" x="0" y="0" width="60" height="60"/>
                <use id="zoomplus" xlink:href="#zoomPlus" x="17" y="9" onmousedown="handleZoom(evt,'in')"/>
                <use id="zoomminus" xlink:href="#zoomMin" x="42" y="9" onmousedown="handleZoom(evt,'out')"/>
                <use id="reset" xlink:href="#resetDef" x="30" y="36" onmousedown="handleReset()"/>
                <g id="arrowUp" xlink:href="#dirArrow" transform="translate(30 24)" onmousedown="handlePan(0,-1)">
                  <use xlink:href="#rim" fill="#404040">
                        <set attributeName="fill" to="#808080" begin="arrowUp.mouseover" end="arrowUp.mouseout"/>
                  </use>
                  <path fill="none" stroke="white" stroke-width="1.5" d="M0,-3.0v7 M-2.5,-0.5L0,-3.0L2.5,-0.5"/>
                </g>
                <g id="arrowRight" xlink:href="#dirArrow" transform="rotate(90) translate(36 -43)" onmousedown="handlePan(1,0)">
                  <use xlink:href="#rim" fill="#404040">
                        <set attributeName="fill" to="#808080" begin="arrowRight.mouseover" end="arrowRight.mouseout"/>
                  </use>
                  <path fill="none" stroke="white" stroke-width="1.5" d="M0,-3.0v7 M-2.5,-0.5L0,-3.0L2.5,-0.5"/>
                </g>
                <g id="arrowDown" xlink:href="#dirArrow" transform="rotate(180) translate(-30 -48)" onmousedown="handlePan(0,1)">
                  <use xlink:href="#rim" fill="#404040">
                        <set attributeName="fill" to="#808080" begin="arrowDown.mouseover" end="arrowDown.mouseout"/>
                  </use>
                  <path fill="none" stroke="white" stroke-width="1.5" d="M0,-3.0v7 M-2.5,-0.5L0,-3.0L2.5,-0.5"/>
                </g>
                <g id="arrowLeft" xlink:href="#dirArrow" transform="rotate(270) translate(-36 17)" onmousedown="handlePan(-1,0)">
                  <use xlink:href="#rim" fill="#404040">
                        <set attributeName="fill" to="#808080" begin="arrowLeft.mouseover" end="arrowLeft.mouseout"/>
                  </use>
                  <path fill="none" stroke="white" stroke-width="1.5" d="M0,-3.0v7 M-2.5,-0.5L0,-3.0L2.5,-0.5"/>
                </g>
        </g>
        <svg viewBox="0 0 15 15" width="100%" height="30px" preserveAspectRatio="xMaxYMin meet">
         <g id="arrow_out" transform="scale(0.3 0.3)">
          <a xlink:href="classirr_1_1scene_1_1CMeshManipulator_a69ff7e353346813782a0ccea4bfa81fd_cgraph_org.svg" target="_base">
           <rect id="button" ry="5" rx="5" y="6" x="6" height="38" width="38"
                fill="#f2f5e9" fill-opacity="0.5" stroke="#606060" stroke-width="1.0"/>
           <path id="arrow"
             d="M 11.500037,31.436501 C 11.940474,20.09759 22.043105,11.32322 32.158766,21.979434 L 37.068811,17.246167 C 37.068811,17.246167 37.088388,32 37.088388,32 L 22.160133,31.978069 C 22.160133,31.978069 26.997745,27.140456 26.997745,27.140456 C 18.528582,18.264221 13.291696,25.230495 11.500037,31.436501 z"
             style="fill:#404040;"/>
          </a>
         </g>
        </svg>
</svg>
