<?xml version="1.0" encoding="UTF-8" standalone="no"?>
<!DOCTYPE svg PUBLIC "-//W3C//DTD SVG 1.1//EN"
 "http://www.w3.org/Graphics/SVG/1.1/DTD/svg11.dtd">
<!-- Generated by graphviz version 2.43.0 (0)
 -->
<!-- Title: ScriptApiBase Pages: 1 -->
<svg width="505pt" height="551pt"
 viewBox="0.00 0.00 505.00 550.90" xmlns="http://www.w3.org/2000/svg" xmlns:xlink="http://www.w3.org/1999/xlink">
<g id="graph0" class="graph" transform="scale(1 1) rotate(0) translate(4 546.9)">
<title>ScriptApiBase</title>
<polygon fill="white" stroke="transparent" points="-4,4 -4,-546.9 501,-546.9 501,4 -4,4"/>
<!-- Node1 -->
<g id="node1" class="node">
<title>Node1</title>
<g id="a_node1"><a xlink:title=" ">
<polygon fill="#bfbfbf" stroke="black" points="102,-263.11 102,-282.11 186,-282.11 186,-263.11 102,-263.11"/>
<text text-anchor="middle" x="144" y="-270.11" font-family="Helvetica,sans-Serif" font-size="10.00">ScriptApiBase</text>
</a>
</g>
</g>
<!-- Node3 -->
<g id="node3" class="node">
<title>Node3</title>
<g id="a_node3"><a xlink:href="classAsyncWorkerThread.html" target="_top" xlink:title=" ">
<polygon fill="white" stroke="black" points="384,-500.11 384,-519.11 497,-519.11 497,-500.11 384,-500.11"/>
<text text-anchor="middle" x="440.5" y="-507.11" font-family="Helvetica,sans-Serif" font-size="10.00">AsyncWorkerThread</text>
</a>
</g>
</g>
<!-- Node1&#45;&gt;Node3 -->
<g id="edge2" class="edge">
<title>Node1&#45;&gt;Node3</title>
<path fill="none" stroke="midnightblue" d="M144.11,-292.22C143.11,-340.53 148.14,-465.27 222,-519.61 280.61,-562.73 374.06,-535.35 416.81,-519.11"/>
<polygon fill="midnightblue" stroke="midnightblue" points="147.61,-292.26 144.43,-282.15 140.61,-292.04 147.61,-292.26"/>
</g>
<!-- Node4 -->
<g id="node4" class="node">
<title>Node4</title>
<g id="a_node4"><a xlink:href="classClientScripting.html" target="_top" xlink:title=" ">
<polygon fill="white" stroke="black" points="396.5,-443.11 396.5,-462.11 484.5,-462.11 484.5,-443.11 396.5,-443.11"/>
<text text-anchor="middle" x="440.5" y="-450.11" font-family="Helvetica,sans-Serif" font-size="10.00">ClientScripting</text>
</a>
</g>
</g>
<!-- Node1&#45;&gt;Node4 -->
<g id="edge3" class="edge">
<title>Node1&#45;&gt;Node4</title>
<path fill="none" stroke="midnightblue" d="M147.23,-292.17C152.61,-329.07 169.94,-408.4 222,-443.61 275.69,-479.91 355.06,-471.61 401.6,-462.18"/>
<polygon fill="midnightblue" stroke="midnightblue" points="150.69,-291.63 145.92,-282.17 143.75,-292.54 150.69,-291.63"/>
</g>
<!-- Node5 -->
<g id="node5" class="node">
<title>Node5</title>
<g id="a_node5"><a xlink:href="classMainMenuScripting.html" target="_top" xlink:title=" ">
<polygon fill="white" stroke="black" points="385.5,-92.11 385.5,-111.11 495.5,-111.11 495.5,-92.11 385.5,-92.11"/>
<text text-anchor="middle" x="440.5" y="-99.11" font-family="Helvetica,sans-Serif" font-size="10.00">MainMenuScripting</text>
</a>
</g>
</g>
<!-- Node1&#45;&gt;Node5 -->
<g id="edge4" class="edge">
<title>Node1&#45;&gt;Node5</title>
<path fill="none" stroke="midnightblue" d="M147.1,-252.85C152.26,-215.61 169.22,-135.73 222,-101.61 279.4,-64.5 364.36,-79.87 409.21,-92.05"/>
<polygon fill="midnightblue" stroke="midnightblue" points="143.61,-252.59 145.86,-262.94 150.56,-253.45 143.61,-252.59"/>
</g>
<!-- Node6 -->
<g id="node6" class="node">
<title>Node6</title>
<g id="a_node6"><a xlink:href="classScriptApiClient.html" target="_top" xlink:title=" ">
<polygon fill="white" stroke="black" points="240.5,-415.11 240.5,-434.11 329.5,-434.11 329.5,-415.11 240.5,-415.11"/>
<text text-anchor="middle" x="285" y="-422.11" font-family="Helvetica,sans-Serif" font-size="10.00">ScriptApiClient</text>
</a>
</g>
</g>
<!-- Node1&#45;&gt;Node6 -->
<g id="edge5" class="edge">
<title>Node1&#45;&gt;Node6</title>
<path fill="none" stroke="midnightblue" d="M151.09,-292.05C161.16,-321.05 184.04,-375.43 222,-405.61 227.38,-409.88 233.71,-413.2 240.24,-415.77"/>
<polygon fill="midnightblue" stroke="midnightblue" points="154.32,-290.68 147.85,-282.29 147.68,-292.88 154.32,-290.68"/>
</g>
<!-- Node7 -->
<g id="node7" class="node">
<title>Node7</title>
<g id="a_node7"><a xlink:href="classScriptApiDetached.html" target="_top" xlink:title=" ">
<polygon fill="white" stroke="black" points="231.5,-187.11 231.5,-206.11 338.5,-206.11 338.5,-187.11 231.5,-187.11"/>
<text text-anchor="middle" x="285" y="-194.11" font-family="Helvetica,sans-Serif" font-size="10.00">ScriptApiDetached</text>
</a>
</g>
</g>
<!-- Node1&#45;&gt;Node7 -->
<g id="edge7" class="edge">
<title>Node1&#45;&gt;Node7</title>
<path fill="none" stroke="midnightblue" d="M165.36,-257C180.45,-245.91 201.8,-231.16 222,-220.61 232.54,-215.1 244.63,-210.14 255.32,-206.18"/>
<polygon fill="midnightblue" stroke="midnightblue" points="163.18,-254.26 157.26,-263.05 167.37,-259.87 163.18,-254.26"/>
</g>
<!-- Node8 -->
<g id="node8" class="node">
<title>Node8</title>
<g id="a_node8"><a xlink:href="classServerScripting.html" target="_top" xlink:title=" ">
<polygon fill="white" stroke="black" points="395,-282.11 395,-301.11 486,-301.11 486,-282.11 395,-282.11"/>
<text text-anchor="middle" x="440.5" y="-289.11" font-family="Helvetica,sans-Serif" font-size="10.00">ServerScripting</text>
</a>
</g>
</g>
<!-- Node1&#45;&gt;Node8 -->
<g id="edge29" class="edge">
<title>Node1&#45;&gt;Node8</title>
<path fill="none" stroke="midnightblue" d="M185.97,-260.55C197.52,-257.69 210.16,-255.05 222,-253.61 277.59,-246.85 293.08,-242.66 348,-253.61 375.16,-259.02 404.35,-272.66 422.27,-282.03"/>
<polygon fill="midnightblue" stroke="midnightblue" points="184.95,-257.2 176.15,-263.1 186.71,-263.98 184.95,-257.2"/>
</g>
<!-- Node9 -->
<g id="node9" class="node">
<title>Node9</title>
<g id="a_node9"><a xlink:href="classScriptApiEntity.html" target="_top" xlink:title=" ">
<polygon fill="white" stroke="black" points="240.5,-149.11 240.5,-168.11 329.5,-168.11 329.5,-149.11 240.5,-149.11"/>
<text text-anchor="middle" x="285" y="-156.11" font-family="Helvetica,sans-Serif" font-size="10.00">ScriptApiEntity</text>
</a>
</g>
</g>
<!-- Node1&#45;&gt;Node9 -->
<g id="edge9" class="edge">
<title>Node1&#45;&gt;Node9</title>
<path fill="none" stroke="midnightblue" d="M155.31,-254.14C168.2,-232.69 192.24,-197.69 222,-177.61 227.69,-173.77 234.19,-170.68 240.79,-168.2"/>
<polygon fill="midnightblue" stroke="midnightblue" points="152.19,-252.54 150.19,-262.94 158.24,-256.06 152.19,-252.54"/>
</g>
<!-- Node10 -->
<g id="node10" class="node">
<title>Node10</title>
<g id="a_node10"><a xlink:href="classScriptApiEnv.html" target="_top" xlink:title=" ">
<polygon fill="white" stroke="black" points="246,-339.11 246,-358.11 324,-358.11 324,-339.11 246,-339.11"/>
<text text-anchor="middle" x="285" y="-346.11" font-family="Helvetica,sans-Serif" font-size="10.00">ScriptApiEnv</text>
</a>
</g>
</g>
<!-- Node1&#45;&gt;Node10 -->
<g id="edge11" class="edge">
<title>Node1&#45;&gt;Node10</title>
<path fill="none" stroke="midnightblue" d="M163.59,-289.22C178.49,-301.79 200.4,-318.71 222,-329.61 229.44,-333.36 237.76,-336.53 245.82,-339.14"/>
<polygon fill="midnightblue" stroke="midnightblue" points="165.54,-286.28 155.69,-282.39 160.97,-291.58 165.54,-286.28"/>
</g>
<!-- Node11 -->
<g id="node11" class="node">
<title>Node11</title>
<g id="a_node11"><a xlink:href="classScriptApiItem.html" target="_top" xlink:title=" ">
<polygon fill="white" stroke="black" points="243.5,-35.11 243.5,-54.11 326.5,-54.11 326.5,-35.11 243.5,-35.11"/>
<text text-anchor="middle" x="285" y="-42.11" font-family="Helvetica,sans-Serif" font-size="10.00">ScriptApiItem</text>
</a>
</g>
</g>
<!-- Node1&#45;&gt;Node11 -->
<g id="edge13" class="edge">
<title>Node1&#45;&gt;Node11</title>
<path fill="none" stroke="midnightblue" d="M147.09,-252.99C152.36,-212.98 169.73,-121.32 222,-68.61 228.26,-62.3 236.36,-57.61 244.63,-54.14"/>
<polygon fill="midnightblue" stroke="midnightblue" points="143.6,-252.69 145.88,-263.03 150.55,-253.52 143.6,-252.69"/>
</g>
<!-- Node12 -->
<g id="node12" class="node">
<title>Node12</title>
<g id="a_node12"><a xlink:href="classScriptApiNodemeta.html" target="_top" xlink:title=" ">
<polygon fill="white" stroke="black" points="385,-16.11 385,-35.11 496,-35.11 496,-16.11 385,-16.11"/>
<text text-anchor="middle" x="440.5" y="-23.11" font-family="Helvetica,sans-Serif" font-size="10.00">ScriptApiNodemeta</text>
</a>
</g>
</g>
<!-- Node1&#45;&gt;Node12 -->
<g id="edge20" class="edge">
<title>Node1&#45;&gt;Node12</title>
<path fill="none" stroke="midnightblue" d="M144.11,-252.99C143.11,-204.68 148.14,-79.95 222,-25.61 278.27,15.79 366.8,-2.64 411.57,-16.05"/>
<polygon fill="midnightblue" stroke="midnightblue" points="140.61,-253.18 144.43,-263.06 147.61,-252.95 140.61,-253.18"/>
</g>
<!-- Node13 -->
<g id="node13" class="node">
<title>Node13</title>
<g id="a_node13"><a xlink:href="classScriptApiMainMenu.html" target="_top" xlink:title=" ">
<polygon fill="white" stroke="black" points="229.5,-111.11 229.5,-130.11 340.5,-130.11 340.5,-111.11 229.5,-111.11"/>
<text text-anchor="middle" x="285" y="-118.11" font-family="Helvetica,sans-Serif" font-size="10.00">ScriptApiMainMenu</text>
</a>
</g>
</g>
<!-- Node1&#45;&gt;Node13 -->
<g id="edge15" class="edge">
<title>Node1&#45;&gt;Node13</title>
<path fill="none" stroke="midnightblue" d="M151.09,-253.16C161.16,-224.17 184.04,-169.79 222,-139.61 226.85,-135.75 232.47,-132.68 238.32,-130.23"/>
<polygon fill="midnightblue" stroke="midnightblue" points="147.68,-252.33 147.85,-262.93 154.32,-254.54 147.68,-252.33"/>
</g>
<!-- Node14 -->
<g id="node14" class="node">
<title>Node14</title>
<g id="a_node14"><a xlink:href="classScriptApiModChannels.html" target="_top" xlink:title=" ">
<polygon fill="white" stroke="black" points="222,-377.11 222,-396.11 348,-396.11 348,-377.11 222,-377.11"/>
<text text-anchor="middle" x="285" y="-384.11" font-family="Helvetica,sans-Serif" font-size="10.00">ScriptApiModChannels</text>
</a>
</g>
</g>
<!-- Node1&#45;&gt;Node14 -->
<g id="edge17" class="edge">
<title>Node1&#45;&gt;Node14</title>
<path fill="none" stroke="midnightblue" d="M155.31,-291.07C168.2,-312.52 192.24,-347.53 222,-367.61 227.69,-371.45 234.19,-374.54 240.79,-377.01"/>
<polygon fill="midnightblue" stroke="midnightblue" points="158.24,-289.16 150.19,-282.27 152.19,-292.68 158.24,-289.16"/>
</g>
<!-- Node15 -->
<g id="node15" class="node">
<title>Node15</title>
<g id="a_node15"><a xlink:href="classScriptApiPlayer.html" target="_top" xlink:title=" ">
<polygon fill="white" stroke="black" points="239.5,-301.11 239.5,-320.11 330.5,-320.11 330.5,-301.11 239.5,-301.11"/>
<text text-anchor="middle" x="285" y="-308.11" font-family="Helvetica,sans-Serif" font-size="10.00">ScriptApiPlayer</text>
</a>
</g>
</g>
<!-- Node1&#45;&gt;Node15 -->
<g id="edge21" class="edge">
<title>Node1&#45;&gt;Node15</title>
<path fill="none" stroke="midnightblue" d="M189.8,-284.85C208.95,-290.09 230.99,-296.12 248.94,-301.02"/>
<polygon fill="midnightblue" stroke="midnightblue" points="190.64,-281.46 180.08,-282.2 188.8,-288.21 190.64,-281.46"/>
</g>
<!-- Node16 -->
<g id="node16" class="node">
<title>Node16</title>
<g id="a_node16"><a xlink:href="classScriptApiSecurity.html" target="_top" xlink:title=" ">
<polygon fill="white" stroke="black" points="235,-491.11 235,-510.11 335,-510.11 335,-491.11 235,-491.11"/>
<text text-anchor="middle" x="285" y="-498.11" font-family="Helvetica,sans-Serif" font-size="10.00">ScriptApiSecurity</text>
</a>
</g>
</g>
<!-- Node1&#45;&gt;Node16 -->
<g id="edge23" class="edge">
<title>Node1&#45;&gt;Node16</title>
<path fill="none" stroke="midnightblue" d="M147.09,-292.23C152.36,-332.23 169.73,-423.89 222,-476.61 228.26,-482.92 236.36,-487.6 244.63,-491.07"/>
<polygon fill="midnightblue" stroke="midnightblue" points="150.55,-291.69 145.88,-282.18 143.6,-292.53 150.55,-291.69"/>
</g>
<!-- Node17 -->
<g id="node17" class="node">
<title>Node17</title>
<g id="a_node17"><a xlink:href="classScriptApiServer.html" target="_top" xlink:title=" ">
<polygon fill="white" stroke="black" points="239,-263.11 239,-282.11 331,-282.11 331,-263.11 239,-263.11"/>
<text text-anchor="middle" x="285" y="-270.11" font-family="Helvetica,sans-Serif" font-size="10.00">ScriptApiServer</text>
</a>
</g>
</g>
<!-- Node1&#45;&gt;Node17 -->
<g id="edge27" class="edge">
<title>Node1&#45;&gt;Node17</title>
<path fill="none" stroke="midnightblue" d="M196.65,-272.61C210.46,-272.61 225.27,-272.61 238.7,-272.61"/>
<polygon fill="midnightblue" stroke="midnightblue" points="196.33,-269.11 186.33,-272.61 196.33,-276.11 196.33,-269.11"/>
</g>
<!-- Node2 -->
<g id="node2" class="node">
<title>Node2</title>
<g id="a_node2"><a xlink:href="classLuaHelper.html" target="_top" xlink:title=" ">
<polygon fill="white" stroke="black" points="0,-263.11 0,-282.11 66,-282.11 66,-263.11 0,-263.11"/>
<text text-anchor="middle" x="33" y="-270.11" font-family="Helvetica,sans-Serif" font-size="10.00">LuaHelper</text>
</a>
</g>
</g>
<!-- Node2&#45;&gt;Node1 -->
<g id="edge1" class="edge">
<title>Node2&#45;&gt;Node1</title>
<path fill="none" stroke="darkgreen" d="M76.13,-272.61C84.56,-272.61 93.4,-272.61 101.8,-272.61"/>
<polygon fill="darkgreen" stroke="darkgreen" points="76.11,-269.11 66.11,-272.61 76.11,-276.11 76.11,-269.11"/>
</g>
<!-- Node6&#45;&gt;Node4 -->
<g id="edge6" class="edge">
<title>Node6&#45;&gt;Node4</title>
<path fill="none" stroke="midnightblue" d="M339.65,-434.39C358.2,-437.78 378.74,-441.52 396.35,-444.74"/>
<polygon fill="midnightblue" stroke="midnightblue" points="340.04,-430.91 329.58,-432.56 338.79,-437.79 340.04,-430.91"/>
</g>
<!-- Node7&#45;&gt;Node8 -->
<g id="edge8" class="edge">
<title>Node7&#45;&gt;Node8</title>
<path fill="none" stroke="midnightblue" d="M325.39,-209.87C333.07,-213 340.94,-216.61 348,-220.61 380.03,-238.72 413.02,-267.22 429.24,-282"/>
<polygon fill="midnightblue" stroke="midnightblue" points="326.41,-206.51 315.82,-206.15 323.87,-213.03 326.41,-206.51"/>
</g>
<!-- Node9&#45;&gt;Node8 -->
<g id="edge10" class="edge">
<title>Node9&#45;&gt;Node8</title>
<path fill="none" stroke="midnightblue" d="M338.66,-172.23C341.92,-173.83 345.07,-175.62 348,-177.61 390.22,-206.24 422.55,-260.19 434.49,-282.05"/>
<polygon fill="midnightblue" stroke="midnightblue" points="339.79,-168.91 329.22,-168.18 337.03,-175.34 339.79,-168.91"/>
</g>
<!-- Node10&#45;&gt;Node8 -->
<g id="edge12" class="edge">
<title>Node10&#45;&gt;Node8</title>
<path fill="none" stroke="midnightblue" d="M329.17,-335.96C335.52,-333.93 341.95,-331.78 348,-329.61 372.28,-320.87 399.52,-309.32 417.92,-301.26"/>
<polygon fill="midnightblue" stroke="midnightblue" points="327.84,-332.71 319.34,-339.04 329.93,-339.39 327.84,-332.71"/>
</g>
<!-- Node11&#45;&gt;Node12 -->
<g id="edge14" class="edge">
<title>Node11&#45;&gt;Node12</title>
<path fill="none" stroke="midnightblue" d="M337.09,-38.28C352.47,-36.38 369.4,-34.28 384.99,-32.35"/>
<polygon fill="midnightblue" stroke="midnightblue" points="336.23,-34.86 326.73,-39.57 337.09,-41.81 336.23,-34.86"/>
</g>
<!-- Node13&#45;&gt;Node5 -->
<g id="edge16" class="edge">
<title>Node13&#45;&gt;Node5</title>
<path fill="none" stroke="midnightblue" d="M350.6,-112.61C362.18,-111.18 374.14,-109.7 385.38,-108.31"/>
<polygon fill="midnightblue" stroke="midnightblue" points="350.04,-109.15 340.55,-113.85 350.9,-116.1 350.04,-109.15"/>
</g>
<!-- Node14&#45;&gt;Node4 -->
<g id="edge18" class="edge">
<title>Node14&#45;&gt;Node4</title>
<path fill="none" stroke="midnightblue" d="M330.86,-399.32C336.68,-401.27 342.52,-403.38 348,-405.61 375.13,-416.63 405.05,-432.82 423.05,-443.03"/>
<polygon fill="midnightblue" stroke="midnightblue" points="331.73,-395.92 321.14,-396.19 329.59,-402.58 331.73,-395.92"/>
</g>
<!-- Node14&#45;&gt;Node8 -->
<g id="edge19" class="edge">
<title>Node14&#45;&gt;Node8</title>
<path fill="none" stroke="midnightblue" d="M335.32,-373.49C339.7,-371.73 343.99,-369.77 348,-367.61 381.98,-349.25 415.14,-317.16 430.55,-301.19"/>
<polygon fill="midnightblue" stroke="midnightblue" points="333.84,-370.3 325.65,-377.02 336.24,-376.87 333.84,-370.3"/>
</g>
<!-- Node15&#45;&gt;Node8 -->
<g id="edge22" class="edge">
<title>Node15&#45;&gt;Node8</title>
<path fill="none" stroke="midnightblue" d="M341,-303.8C358.69,-301.61 378.05,-299.21 394.9,-297.13"/>
<polygon fill="midnightblue" stroke="midnightblue" points="340.31,-300.36 330.81,-305.06 341.17,-307.31 340.31,-300.36"/>
</g>
<!-- Node16&#45;&gt;Node3 -->
<g id="edge24" class="edge">
<title>Node16&#45;&gt;Node3</title>
<path fill="none" stroke="midnightblue" d="M345.75,-504.11C358.27,-504.84 371.42,-505.62 383.78,-506.34"/>
<polygon fill="midnightblue" stroke="midnightblue" points="345.6,-500.6 335.41,-503.5 345.19,-507.58 345.6,-500.6"/>
</g>
<!-- Node16&#45;&gt;Node4 -->
<g id="edge25" class="edge">
<title>Node16&#45;&gt;Node4</title>
<path fill="none" stroke="midnightblue" d="M326.56,-487.92C352.36,-479.86 385.24,-469.58 408.86,-462.19"/>
<polygon fill="midnightblue" stroke="midnightblue" points="325.19,-484.68 316.69,-491.01 327.28,-491.36 325.19,-484.68"/>
</g>
<!-- Node16&#45;&gt;Node8 -->
<g id="edge26" class="edge">
<title>Node16&#45;&gt;Node8</title>
<path fill="none" stroke="midnightblue" d="M306.23,-484.58C319.07,-473.81 335.56,-458.84 348,-443.61 388.13,-394.45 422.92,-325.98 434.98,-301.11"/>
<polygon fill="midnightblue" stroke="midnightblue" points="303.9,-481.96 298.39,-491.01 308.34,-487.37 303.9,-481.96"/>
</g>
<!-- Node17&#45;&gt;Node8 -->
<g id="edge28" class="edge">
<title>Node17&#45;&gt;Node8</title>
<path fill="none" stroke="midnightblue" d="M341.36,-279.46C358.93,-281.63 378.14,-284.01 394.86,-286.08"/>
<polygon fill="midnightblue" stroke="midnightblue" points="341.58,-275.96 331.22,-278.21 340.72,-282.91 341.58,-275.96"/>
</g>
</g>
</svg>
