<?xml version="1.0" encoding="UTF-8" standalone="no"?>
<!DOCTYPE svg PUBLIC "-//W3C//DTD SVG 1.1//EN"
 "http://www.w3.org/Graphics/SVG/1.1/DTD/svg11.dtd">
<!-- Generated by graphviz version 2.43.0 (0)
 -->
<!-- Title: irr::video::COpenGL3DriverBase::OnResize Pages: 1 -->
<svg width="482pt" height="66pt"
 viewBox="0.00 0.00 482.00 66.00" xmlns="http://www.w3.org/2000/svg" xmlns:xlink="http://www.w3.org/1999/xlink">
<g id="graph0" class="graph" transform="scale(1 1) rotate(0) translate(4 62)">
<title>irr::video::COpenGL3DriverBase::OnResize</title>
<polygon fill="white" stroke="transparent" points="-4,4 -4,-62 478,-62 478,4 -4,4"/>
<!-- Node1 -->
<g id="node1" class="node">
<title>Node1</title>
<g id="a_node1"><a xlink:title="Only used internally by the engine.">
<polygon fill="#bfbfbf" stroke="black" points="0,-14 0,-44 147,-44 147,-14 0,-14"/>
<text text-anchor="start" x="8" y="-32" font-family="Helvetica,sans-Serif" font-size="10.00">irr::video::COpenGL3Driver</text>
<text text-anchor="middle" x="73.5" y="-21" font-family="Helvetica,sans-Serif" font-size="10.00">Base::OnResize</text>
</a>
</g>
</g>
<!-- Node2 -->
<g id="node2" class="node">
<title>Node2</title>
<g id="a_node2"><a xlink:href="classirr_1_1video_1_1CNullDriver.html#aad2c19bc69cad316c97a96409cc0b75e" target="_top" xlink:title="Only used by the engine internally.">
<polygon fill="white" stroke="black" points="183,-14 183,-44 305,-44 305,-14 183,-14"/>
<text text-anchor="start" x="191" y="-32" font-family="Helvetica,sans-Serif" font-size="10.00">irr::video::CNullDriver</text>
<text text-anchor="middle" x="244" y="-21" font-family="Helvetica,sans-Serif" font-size="10.00">::OnResize</text>
</a>
</g>
</g>
<!-- Node1&#45;&gt;Node2 -->
<g id="edge1" class="edge">
<title>Node1&#45;&gt;Node2</title>
<path fill="none" stroke="midnightblue" d="M147.43,-29C155.84,-29 164.4,-29 172.77,-29"/>
<polygon fill="midnightblue" stroke="midnightblue" points="172.87,-32.5 182.87,-29 172.87,-25.5 172.87,-32.5"/>
</g>
<!-- Node3 -->
<g id="node3" class="node">
<title>Node3</title>
<g id="a_node3"><a xlink:href="classirr_1_1core_1_1rect.html#ad43b325eeb165c553a58f34efb2ee961" target="_top" xlink:title="Get height of rectangle.">
<polygon fill="white" stroke="black" points="341,-38.5 341,-57.5 474,-57.5 474,-38.5 341,-38.5"/>
<text text-anchor="middle" x="407.5" y="-45.5" font-family="Helvetica,sans-Serif" font-size="10.00">irr::core::rect::getHeight</text>
</a>
</g>
</g>
<!-- Node2&#45;&gt;Node3 -->
<g id="edge2" class="edge">
<title>Node2&#45;&gt;Node3</title>
<path fill="none" stroke="midnightblue" d="M305.14,-36.07C313.52,-37.06 322.21,-38.08 330.83,-39.1"/>
<polygon fill="midnightblue" stroke="midnightblue" points="330.55,-42.59 340.89,-40.28 331.37,-35.64 330.55,-42.59"/>
</g>
<!-- Node4 -->
<g id="node4" class="node">
<title>Node4</title>
<g id="a_node4"><a xlink:href="classirr_1_1core_1_1rect.html#ad5dcae186b85b938d42b59c91bfeb9a5" target="_top" xlink:title="Get width of rectangle.">
<polygon fill="white" stroke="black" points="343,-0.5 343,-19.5 472,-19.5 472,-0.5 343,-0.5"/>
<text text-anchor="middle" x="407.5" y="-7.5" font-family="Helvetica,sans-Serif" font-size="10.00">irr::core::rect::getWidth</text>
</a>
</g>
</g>
<!-- Node2&#45;&gt;Node4 -->
<g id="edge3" class="edge">
<title>Node2&#45;&gt;Node4</title>
<path fill="none" stroke="midnightblue" d="M305.14,-21.93C314.16,-20.86 323.55,-19.76 332.82,-18.67"/>
<polygon fill="midnightblue" stroke="midnightblue" points="333.28,-22.14 342.8,-17.49 332.46,-15.19 333.28,-22.14"/>
</g>
</g>
</svg>
