<?xml version="1.0" encoding="UTF-8" standalone="no"?>
<!DOCTYPE svg PUBLIC "-//W3C//DTD SVG 1.1//EN"
 "http://www.w3.org/Graphics/SVG/1.1/DTD/svg11.dtd">
<!-- Generated by graphviz version 2.43.0 (0)
 -->
<!-- Title: client::ActiveObjectMgr Pages: 1 -->
<svg width="209pt" height="163pt"
 viewBox="0.00 0.00 209.00 163.00" xmlns="http://www.w3.org/2000/svg" xmlns:xlink="http://www.w3.org/1999/xlink">
<g id="graph0" class="graph" transform="scale(1 1) rotate(0) translate(4 159)">
<title>client::ActiveObjectMgr</title>
<polygon fill="white" stroke="transparent" points="-4,4 -4,-159 205,-159 205,4 -4,4"/>
<!-- Node1 -->
<g id="node1" class="node">
<title>Node1</title>
<g id="a_node1"><a xlink:title=" ">
<polygon fill="#bfbfbf" stroke="black" points="18.5,-0.5 18.5,-19.5 149.5,-19.5 149.5,-0.5 18.5,-0.5"/>
<text text-anchor="middle" x="84" y="-7.5" font-family="Helvetica,sans-Serif" font-size="10.00">client::ActiveObjectMgr</text>
</a>
</g>
</g>
<!-- Node2 -->
<g id="node2" class="node">
<title>Node2</title>
<g id="a_node2"><a xlink:href="classActiveObjectMgr.html" target="_top" xlink:title=" ">
<polygon fill="white" stroke="black" points="0,-57.5 0,-87.5 168,-87.5 168,-57.5 0,-57.5"/>
<text text-anchor="start" x="8" y="-75.5" font-family="Helvetica,sans-Serif" font-size="10.00">ActiveObjectMgr&lt; ClientActive</text>
<text text-anchor="middle" x="84" y="-64.5" font-family="Helvetica,sans-Serif" font-size="10.00">Object &gt;</text>
</a>
</g>
</g>
<!-- Node2&#45;&gt;Node1 -->
<g id="edge1" class="edge">
<title>Node2&#45;&gt;Node1</title>
<path fill="none" stroke="midnightblue" d="M84,-47.35C84,-37.51 84,-26.78 84,-19.54"/>
<polygon fill="midnightblue" stroke="midnightblue" points="80.5,-47.47 84,-57.47 87.5,-47.47 80.5,-47.47"/>
</g>
<!-- Node3 -->
<g id="node3" class="node">
<title>Node3</title>
<g id="a_node3"><a xlink:href="classActiveObjectMgr.html" target="_top" xlink:title=" ">
<polygon fill="white" stroke="black" points="21,-135.5 21,-154.5 147,-154.5 147,-135.5 21,-135.5"/>
<text text-anchor="middle" x="84" y="-142.5" font-family="Helvetica,sans-Serif" font-size="10.00">ActiveObjectMgr&lt; T &gt;</text>
</a>
</g>
</g>
<!-- Node3&#45;&gt;Node2 -->
<g id="edge2" class="edge">
<title>Node3&#45;&gt;Node2</title>
<path fill="none" stroke="orange" stroke-dasharray="5,2" d="M84,-125.24C84,-113.41 84,-98.38 84,-87.58"/>
<polygon fill="orange" stroke="orange" points="80.5,-125.36 84,-135.36 87.5,-125.36 80.5,-125.36"/>
<text text-anchor="middle" x="142.5" y="-109" font-family="Helvetica,sans-Serif" font-size="10.00"> &lt; ClientActiveObject &gt;</text>
</g>
</g>
</svg>
