<?xml version="1.0" encoding="UTF-8" standalone="no"?>
<!DOCTYPE svg PUBLIC "-//W3C//DTD SVG 1.1//EN"
 "http://www.w3.org/Graphics/SVG/1.1/DTD/svg11.dtd">
<!-- Generated by graphviz version 2.43.0 (0)
 -->
<!-- Title: Environment::line_of_sight Pages: 1 -->
<svg width="306pt" height="39pt"
 viewBox="0.00 0.00 306.00 39.00" xmlns="http://www.w3.org/2000/svg" xmlns:xlink="http://www.w3.org/1999/xlink">
<g id="graph0" class="graph" transform="scale(1 1) rotate(0) translate(4 35)">
<title>Environment::line_of_sight</title>
<polygon fill="white" stroke="transparent" points="-4,4 -4,-35 302,-35 302,4 -4,4"/>
<!-- Node1 -->
<g id="node1" class="node">
<title>Node1</title>
<g id="a_node1"><a xlink:title=" ">
<polygon fill="#bfbfbf" stroke="black" points="0,-0.5 0,-30.5 118,-30.5 118,-0.5 0,-0.5"/>
<text text-anchor="start" x="8" y="-18.5" font-family="Helvetica,sans-Serif" font-size="10.00">Environment::line_of</text>
<text text-anchor="middle" x="59" y="-7.5" font-family="Helvetica,sans-Serif" font-size="10.00">_sight</text>
</a>
</g>
</g>
<!-- Node2 -->
<g id="node2" class="node">
<title>Node2</title>
<g id="a_node2"><a xlink:href="structvoxalgo_1_1VoxelLineIterator.html#aac1cf0e3eb1b62607c6ecb8ef15d5bde" target="_top" xlink:title=" ">
<polygon fill="white" stroke="black" points="154,-0.5 154,-30.5 298,-30.5 298,-0.5 154,-0.5"/>
<text text-anchor="start" x="162" y="-18.5" font-family="Helvetica,sans-Serif" font-size="10.00">voxalgo::VoxelLineIterator</text>
<text text-anchor="middle" x="226" y="-7.5" font-family="Helvetica,sans-Serif" font-size="10.00">::next</text>
</a>
</g>
</g>
<!-- Node1&#45;&gt;Node2 -->
<g id="edge1" class="edge">
<title>Node1&#45;&gt;Node2</title>
<path fill="none" stroke="midnightblue" d="M118.17,-15.5C126.44,-15.5 135.07,-15.5 143.68,-15.5"/>
<polygon fill="midnightblue" stroke="midnightblue" points="143.76,-19 153.76,-15.5 143.76,-12 143.76,-19"/>
</g>
</g>
</svg>
