<?xml version="1.0" encoding="UTF-8" standalone="no"?>
<!DOCTYPE svg PUBLIC "-//W3C//DTD SVG 1.1//EN"
 "http://www.w3.org/Graphics/SVG/1.1/DTD/svg11.dtd">
<!-- Generated by graphviz version 2.43.0 (0)
 -->
<!-- Title: Pathfinder::walkDownwards Pages: 1 -->
<svg width="327pt" height="104pt"
 viewBox="0.00 0.00 327.00 104.00" xmlns="http://www.w3.org/2000/svg" xmlns:xlink="http://www.w3.org/1999/xlink">
<g id="graph0" class="graph" transform="scale(1 1) rotate(0) translate(4 100)">
<title>Pathfinder::walkDownwards</title>
<polygon fill="white" stroke="transparent" points="-4,4 -4,-100 323,-100 323,4 -4,4"/>
<!-- Node1 -->
<g id="node1" class="node">
<title>Node1</title>
<g id="a_node1"><a xlink:title=" ">
<polygon fill="#bfbfbf" stroke="black" points="0,-38.5 0,-57.5 152,-57.5 152,-38.5 0,-38.5"/>
<text text-anchor="middle" x="76" y="-45.5" font-family="Helvetica,sans-Serif" font-size="10.00">Pathfinder::walkDownwards</text>
</a>
</g>
</g>
<!-- Node2 -->
<g id="node2" class="node">
<title>Node2</title>
<g id="a_node2"><a xlink:href="classNodeDefManager.html#a1454fd287c77a8d41c4a67bc474114b4" target="_top" xlink:title=" ">
<polygon fill="white" stroke="black" points="191.5,-76.5 191.5,-95.5 315.5,-95.5 315.5,-76.5 191.5,-76.5"/>
<text text-anchor="middle" x="253.5" y="-83.5" font-family="Helvetica,sans-Serif" font-size="10.00">NodeDefManager::get</text>
</a>
</g>
</g>
<!-- Node1&#45;&gt;Node2 -->
<g id="edge1" class="edge">
<title>Node1&#45;&gt;Node2</title>
<path fill="none" stroke="midnightblue" d="M121.29,-57.59C144.76,-62.67 173.78,-68.96 198.56,-74.32"/>
<polygon fill="midnightblue" stroke="midnightblue" points="198.02,-77.78 208.53,-76.48 199.5,-70.94 198.02,-77.78"/>
</g>
<!-- Node3 -->
<g id="node3" class="node">
<title>Node3</title>
<g id="a_node3"><a xlink:href="classPathfinder.html#a059050a4c983c46ba61646b60a854cf6" target="_top" xlink:title=" ">
<polygon fill="white" stroke="black" points="188,-38.5 188,-57.5 319,-57.5 319,-38.5 188,-38.5"/>
<text text-anchor="middle" x="253.5" y="-45.5" font-family="Helvetica,sans-Serif" font-size="10.00">Pathfinder::getIndexPos</text>
</a>
</g>
</g>
<!-- Node1&#45;&gt;Node3 -->
<g id="edge2" class="edge">
<title>Node1&#45;&gt;Node3</title>
<path fill="none" stroke="midnightblue" d="M152.19,-48C160.66,-48 169.28,-48 177.74,-48"/>
<polygon fill="midnightblue" stroke="midnightblue" points="177.96,-51.5 187.96,-48 177.96,-44.5 177.96,-51.5"/>
</g>
<!-- Node4 -->
<g id="node4" class="node">
<title>Node4</title>
<g id="a_node4"><a xlink:href="classPathfinder.html#adc0f51f150a797d710d258e0dcaef221" target="_top" xlink:title=" ">
<polygon fill="white" stroke="black" points="190.5,-0.5 190.5,-19.5 316.5,-19.5 316.5,-0.5 190.5,-0.5"/>
<text text-anchor="middle" x="253.5" y="-7.5" font-family="Helvetica,sans-Serif" font-size="10.00">Pathfinder::getRealPos</text>
</a>
</g>
</g>
<!-- Node1&#45;&gt;Node4 -->
<g id="edge3" class="edge">
<title>Node1&#45;&gt;Node4</title>
<path fill="none" stroke="midnightblue" d="M121.29,-38.41C144.76,-33.33 173.78,-27.04 198.56,-21.68"/>
<polygon fill="midnightblue" stroke="midnightblue" points="199.5,-25.06 208.53,-19.52 198.02,-18.22 199.5,-25.06"/>
</g>
</g>
</svg>
