<?xml version="1.0" encoding="UTF-8" standalone="no"?>
<!DOCTYPE svg PUBLIC "-//W3C//DTD SVG 1.1//EN"
 "http://www.w3.org/Graphics/SVG/1.1/DTD/svg11.dtd">
<!-- Generated by graphviz version 2.43.0 (0)
 -->
<!-- Title: irr::scene::ISceneNode::setMaterialTexture Pages: 1 -->
<svg width="294pt" height="137pt"
 viewBox="0.00 0.00 294.00 137.00" xmlns="http://www.w3.org/2000/svg" xmlns:xlink="http://www.w3.org/1999/xlink">
<g id="graph0" class="graph" transform="scale(1 1) rotate(0) translate(4 133)">
<title>irr::scene::ISceneNode::setMaterialTexture</title>
<polygon fill="white" stroke="transparent" points="-4,4 -4,-133 290,-133 290,4 -4,4"/>
<!-- Node1 -->
<g id="node1" class="node">
<title>Node1</title>
<g id="a_node1"><a xlink:title="Sets the texture of the specified layer in all materials of this scene node to the new texture.">
<polygon fill="#bfbfbf" stroke="black" points="0,-49.5 0,-79.5 125,-79.5 125,-49.5 0,-49.5"/>
<text text-anchor="start" x="8" y="-67.5" font-family="Helvetica,sans-Serif" font-size="10.00">irr::scene::ISceneNode</text>
<text text-anchor="middle" x="62.5" y="-56.5" font-family="Helvetica,sans-Serif" font-size="10.00">::setMaterialTexture</text>
</a>
</g>
</g>
<!-- Node2 -->
<g id="node2" class="node">
<title>Node2</title>
<g id="a_node2"><a xlink:href="classirr_1_1scene_1_1ISceneNode.html#a1f44d8cf753b2e4c17c90d4fc2ed05b2" target="_top" xlink:title="Returns the material based on the zero based index i.">
<polygon fill="white" stroke="black" points="161,-98.5 161,-128.5 286,-128.5 286,-98.5 161,-98.5"/>
<text text-anchor="start" x="169" y="-116.5" font-family="Helvetica,sans-Serif" font-size="10.00">irr::scene::ISceneNode</text>
<text text-anchor="middle" x="223.5" y="-105.5" font-family="Helvetica,sans-Serif" font-size="10.00">::getMaterial</text>
</a>
</g>
</g>
<!-- Node1&#45;&gt;Node2 -->
<g id="edge1" class="edge">
<title>Node1&#45;&gt;Node2</title>
<path fill="none" stroke="midnightblue" d="M112.5,-79.6C128.75,-84.61 147,-90.23 163.89,-95.44"/>
<polygon fill="midnightblue" stroke="midnightblue" points="163.07,-98.85 173.66,-98.45 165.13,-92.16 163.07,-98.85"/>
</g>
<!-- Node3 -->
<g id="node3" class="node">
<title>Node3</title>
<g id="a_node3"><a xlink:href="classirr_1_1scene_1_1ISceneNode.html#a8e75e9baede63e31e6aa6e42e6c8ddfe" target="_top" xlink:title="Get amount of materials used by this scene node.">
<polygon fill="white" stroke="black" points="161,-49.5 161,-79.5 286,-79.5 286,-49.5 161,-49.5"/>
<text text-anchor="start" x="169" y="-67.5" font-family="Helvetica,sans-Serif" font-size="10.00">irr::scene::ISceneNode</text>
<text text-anchor="middle" x="223.5" y="-56.5" font-family="Helvetica,sans-Serif" font-size="10.00">::getMaterialCount</text>
</a>
</g>
</g>
<!-- Node1&#45;&gt;Node3 -->
<g id="edge2" class="edge">
<title>Node1&#45;&gt;Node3</title>
<path fill="none" stroke="midnightblue" d="M125.43,-64.5C133.67,-64.5 142.18,-64.5 150.58,-64.5"/>
<polygon fill="midnightblue" stroke="midnightblue" points="150.74,-68 160.74,-64.5 150.74,-61 150.74,-68"/>
</g>
<!-- Node4 -->
<g id="node4" class="node">
<title>Node4</title>
<g id="a_node4"><a xlink:href="classirr_1_1video_1_1SMaterial.html#a44dc38e7d4a78434d12ffd02e88e3d60" target="_top" xlink:title="Sets the i&#45;th texture.">
<polygon fill="white" stroke="black" points="167,-0.5 167,-30.5 280,-30.5 280,-0.5 167,-0.5"/>
<text text-anchor="start" x="175" y="-18.5" font-family="Helvetica,sans-Serif" font-size="10.00">irr::video::SMaterial</text>
<text text-anchor="middle" x="223.5" y="-7.5" font-family="Helvetica,sans-Serif" font-size="10.00">::setTexture</text>
</a>
</g>
</g>
<!-- Node1&#45;&gt;Node4 -->
<g id="edge3" class="edge">
<title>Node1&#45;&gt;Node4</title>
<path fill="none" stroke="midnightblue" d="M112.5,-49.4C128.75,-44.39 147,-38.77 163.89,-33.56"/>
<polygon fill="midnightblue" stroke="midnightblue" points="165.13,-36.84 173.66,-30.55 163.07,-30.15 165.13,-36.84"/>
</g>
</g>
</svg>
