<?xml version="1.0" encoding="UTF-8" standalone="no"?>
<!DOCTYPE svg PUBLIC "-//W3C//DTD SVG 1.1//EN"
 "http://www.w3.org/Graphics/SVG/1.1/DTD/svg11.dtd">
<!-- Generated by graphviz version 2.43.0 (0)
 -->
<!-- Title: AutoHideButtonBar Pages: 1 -->
<svg width="1684pt" height="937pt"
 viewBox="0.00 0.00 1684.00 937.30" xmlns="http://www.w3.org/2000/svg" xmlns:xlink="http://www.w3.org/1999/xlink">
<g id="graph0" class="graph" transform="scale(1 1) rotate(0) translate(4 933.3)">
<title>AutoHideButtonBar</title>
<polygon fill="white" stroke="transparent" points="-4,4 -4,-933.3 1680,-933.3 1680,4 -4,4"/>
<!-- Node1 -->
<g id="node1" class="node">
<title>Node1</title>
<g id="a_node1"><a xlink:title=" ">
<polygon fill="#bfbfbf" stroke="black" points="1566,-373.8 1566,-392.8 1676,-392.8 1676,-373.8 1566,-373.8"/>
<text text-anchor="middle" x="1621" y="-380.8" font-family="Helvetica,sans-Serif" font-size="10.00">AutoHideButtonBar</text>
</a>
</g>
</g>
<!-- Node2 -->
<g id="node2" class="node">
<title>Node2</title>
<g id="a_node2"><a xlink:href="classISimpleTextureSource.html" target="_top" xlink:title=" ">
<polygon fill="white" stroke="black" points="1315.5,-901.8 1315.5,-920.8 1437.5,-920.8 1437.5,-901.8 1315.5,-901.8"/>
<text text-anchor="middle" x="1376.5" y="-908.8" font-family="Helvetica,sans-Serif" font-size="10.00">ISimpleTextureSource</text>
</a>
</g>
</g>
<!-- Node2&#45;&gt;Node1 -->
<g id="edge1" class="edge">
<title>Node2&#45;&gt;Node1</title>
<path fill="none" stroke="#9a32cd" stroke-dasharray="5,2" d="M1447.94,-919.64C1482.58,-919.67 1522.29,-912.96 1548,-887.3 1620.89,-814.57 1620.74,-456.73 1620.13,-393.02"/>
<polygon fill="#9a32cd" stroke="#9a32cd" points="1447.92,-916.14 1437.85,-919.44 1447.79,-923.13 1447.92,-916.14"/>
<text text-anchor="middle" x="1505" y="-921.3" font-family="Helvetica,sans-Serif" font-size="10.00"> m_texturesource</text>
</g>
<!-- Node3 -->
<g id="node3" class="node">
<title>Node3</title>
<g id="a_node3"><a xlink:href="classirr_1_1core_1_1vector2d.html" target="_top" xlink:title=" ">
<polygon fill="white" stroke="black" points="528,-833.3 528,-863.3 631,-863.3 631,-833.3 528,-833.3"/>
<text text-anchor="start" x="536" y="-851.3" font-family="Helvetica,sans-Serif" font-size="10.00">irr::core::vector2d</text>
<text text-anchor="middle" x="579.5" y="-840.3" font-family="Helvetica,sans-Serif" font-size="10.00">&lt; s32 &gt;</text>
</a>
</g>
</g>
<!-- Node3&#45;&gt;Node1 -->
<g id="edge2" class="edge">
<title>Node3&#45;&gt;Node1</title>
<path fill="none" stroke="#9a32cd" stroke-dasharray="5,2" d="M641.12,-856.35C701.54,-863.65 797.01,-873.3 880,-873.3 880,-873.3 880,-873.3 1377.5,-873.3 1600.08,-873.3 1618.36,-462.15 1619.87,-393.09"/>
<polygon fill="#9a32cd" stroke="#9a32cd" points="641.35,-852.85 631,-855.1 640.5,-859.8 641.35,-852.85"/>
<text text-anchor="middle" x="1137" y="-887.3" font-family="Helvetica,sans-Serif" font-size="10.00"> m_upper_left</text>
<text text-anchor="middle" x="1137" y="-876.3" font-family="Helvetica,sans-Serif" font-size="10.00">m_lower_right</text>
</g>
<!-- Node4 -->
<g id="node4" class="node">
<title>Node4</title>
<g id="a_node4"><a xlink:title=" ">
<polygon fill="white" stroke="#bfbfbf" points="282,-838.8 282,-857.8 316,-857.8 316,-838.8 282,-838.8"/>
<text text-anchor="middle" x="299" y="-845.8" font-family="Helvetica,sans-Serif" font-size="10.00">s32</text>
</a>
</g>
</g>
<!-- Node4&#45;&gt;Node3 -->
<g id="edge3" class="edge">
<title>Node4&#45;&gt;Node3</title>
<path fill="none" stroke="#9a32cd" stroke-dasharray="5,2" d="M326.25,-848.3C372.36,-848.3 468.62,-848.3 527.99,-848.3"/>
<polygon fill="#9a32cd" stroke="#9a32cd" points="326.18,-844.8 316.18,-848.3 326.18,-851.8 326.18,-844.8"/>
<text text-anchor="middle" x="437" y="-862.3" font-family="Helvetica,sans-Serif" font-size="10.00"> X</text>
<text text-anchor="middle" x="437" y="-851.3" font-family="Helvetica,sans-Serif" font-size="10.00">Y</text>
</g>
<!-- Node5 -->
<g id="node5" class="node">
<title>Node5</title>
<g id="a_node5"><a xlink:href="classirr_1_1core_1_1vector2d.html" target="_top" xlink:title="2d vector template class with lots of operators and methods.">
<polygon fill="white" stroke="black" points="233.5,-741.8 233.5,-760.8 364.5,-760.8 364.5,-741.8 233.5,-741.8"/>
<text text-anchor="middle" x="299" y="-748.8" font-family="Helvetica,sans-Serif" font-size="10.00">irr::core::vector2d&lt; T &gt;</text>
</a>
</g>
</g>
<!-- Node5&#45;&gt;Node3 -->
<g id="edge4" class="edge">
<title>Node5&#45;&gt;Node3</title>
<path fill="none" stroke="orange" stroke-dasharray="5,2" d="M337.17,-764.25C388.55,-782.15 481.08,-814.37 535.42,-833.3"/>
<polygon fill="orange" stroke="orange" points="338.06,-760.85 327.47,-760.87 335.76,-767.47 338.06,-760.85"/>
<text text-anchor="middle" x="437" y="-816.3" font-family="Helvetica,sans-Serif" font-size="10.00"> &lt; s32 &gt;</text>
</g>
<!-- Node6 -->
<g id="node6" class="node">
<title>Node6</title>
<g id="a_node6"><a xlink:title=" ">
<polygon fill="white" stroke="#bfbfbf" points="33.5,-471.8 33.5,-490.8 62.5,-490.8 62.5,-471.8 33.5,-471.8"/>
<text text-anchor="middle" x="48" y="-478.8" font-family="Helvetica,sans-Serif" font-size="10.00">T</text>
</a>
</g>
</g>
<!-- Node6&#45;&gt;Node5 -->
<g id="edge5" class="edge">
<title>Node6&#45;&gt;Node5</title>
<path fill="none" stroke="#9a32cd" stroke-dasharray="5,2" d="M69.87,-497.33C78.83,-505.03 88.85,-514.85 96,-525.3 108.15,-543.09 102.07,-552.37 114,-570.3 164.88,-646.78 252.26,-716.84 285.06,-741.72"/>
<polygon fill="#9a32cd" stroke="#9a32cd" points="72,-494.55 62.05,-490.9 67.55,-499.95 72,-494.55"/>
<text text-anchor="middle" x="159.5" y="-684.3" font-family="Helvetica,sans-Serif" font-size="10.00"> X</text>
<text text-anchor="middle" x="159.5" y="-673.3" font-family="Helvetica,sans-Serif" font-size="10.00">Y</text>
</g>
<!-- Node24 -->
<g id="node24" class="node">
<title>Node24</title>
<g id="a_node24"><a xlink:href="classirr_1_1core_1_1dimension2d.html" target="_top" xlink:title="Specifies a 2 dimensional size.">
<polygon fill="white" stroke="black" points="223,-438.8 223,-457.8 375,-457.8 375,-438.8 223,-438.8"/>
<text text-anchor="middle" x="299" y="-445.8" font-family="Helvetica,sans-Serif" font-size="10.00">irr::core::dimension2d&lt; T &gt;</text>
</a>
</g>
</g>
<!-- Node6&#45;&gt;Node24 -->
<g id="edge28" class="edge">
<title>Node6&#45;&gt;Node24</title>
<path fill="none" stroke="#9a32cd" stroke-dasharray="5,2" d="M72.93,-478.13C107.9,-473.5 174.44,-464.68 226.13,-457.83"/>
<polygon fill="#9a32cd" stroke="#9a32cd" points="72.2,-474.7 62.74,-479.48 73.12,-481.64 72.2,-474.7"/>
<text text-anchor="middle" x="159.5" y="-486.3" font-family="Helvetica,sans-Serif" font-size="10.00"> Width</text>
<text text-anchor="middle" x="159.5" y="-475.3" font-family="Helvetica,sans-Serif" font-size="10.00">Height</text>
</g>
<!-- Node7 -->
<g id="node7" class="node">
<title>Node7</title>
<g id="a_node7"><a xlink:title=" ">
<polygon fill="white" stroke="#bfbfbf" points="1118,-733.8 1118,-752.8 1156,-752.8 1156,-733.8 1118,-733.8"/>
<text text-anchor="middle" x="1137" y="-740.8" font-family="Helvetica,sans-Serif" font-size="10.00">float</text>
</a>
</g>
</g>
<!-- Node7&#45;&gt;Node1 -->
<g id="edge6" class="edge">
<title>Node7&#45;&gt;Node1</title>
<path fill="none" stroke="#9a32cd" stroke-dasharray="5,2" d="M1166.34,-748.03C1197.81,-752.08 1249.63,-755.18 1291,-740.3 1428.23,-690.95 1457.46,-650.62 1548,-536.3 1585.55,-488.9 1609.29,-418.72 1617.13,-393.11"/>
<polygon fill="#9a32cd" stroke="#9a32cd" points="1166.5,-744.51 1156.11,-746.58 1165.52,-751.44 1166.5,-744.51"/>
<text text-anchor="middle" x="1376.5" y="-745.3" font-family="Helvetica,sans-Serif" font-size="10.00"> m_timeout</text>
<text text-anchor="middle" x="1376.5" y="-734.3" font-family="Helvetica,sans-Serif" font-size="10.00">m_timeout_value</text>
</g>
<!-- Node17 -->
<g id="node17" class="node">
<title>Node17</title>
<g id="a_node17"><a xlink:href="structbutton__info.html" target="_top" xlink:title=" ">
<polygon fill="white" stroke="black" points="1340.5,-587.8 1340.5,-606.8 1412.5,-606.8 1412.5,-587.8 1340.5,-587.8"/>
<text text-anchor="middle" x="1376.5" y="-594.8" font-family="Helvetica,sans-Serif" font-size="10.00">button_info</text>
</a>
</g>
</g>
<!-- Node7&#45;&gt;Node17 -->
<g id="edge45" class="edge">
<title>Node7&#45;&gt;Node17</title>
<path fill="none" stroke="#9a32cd" stroke-dasharray="5,2" d="M1165.94,-734.85C1207.09,-722.27 1280.33,-699.34 1291,-692.3 1326.94,-668.62 1357.15,-625.89 1369.51,-606.88"/>
<polygon fill="#9a32cd" stroke="#9a32cd" points="1164.77,-731.55 1156.22,-737.81 1166.81,-738.25 1164.77,-731.55"/>
<text text-anchor="middle" x="1255" y="-731.3" font-family="Helvetica,sans-Serif" font-size="10.00"> repeatcounter</text>
<text text-anchor="middle" x="1255" y="-720.3" font-family="Helvetica,sans-Serif" font-size="10.00">repeatdelay</text>
</g>
<!-- Node8 -->
<g id="node8" class="node">
<title>Node8</title>
<g id="a_node8"><a xlink:href="classirr_1_1gui_1_1IGUIEnvironment.html" target="_top" xlink:title="GUI Environment. Used as factory and manager of all other GUI elements.">
<polygon fill="white" stroke="black" points="511,-132.8 511,-151.8 648,-151.8 648,-132.8 511,-132.8"/>
<text text-anchor="middle" x="579.5" y="-139.8" font-family="Helvetica,sans-Serif" font-size="10.00">irr::gui::IGUIEnvironment</text>
</a>
</g>
</g>
<!-- Node8&#45;&gt;Node1 -->
<g id="edge7" class="edge">
<title>Node8&#45;&gt;Node1</title>
<path fill="none" stroke="#9a32cd" stroke-dasharray="5,2" d="M658.46,-136.51C811.05,-127.02 1159.11,-114.44 1444,-171.3 1491.69,-180.82 1512.46,-172.11 1548,-205.3 1599.65,-253.54 1615.13,-343.96 1618.93,-373.61"/>
<polygon fill="#9a32cd" stroke="#9a32cd" points="658.02,-133.03 648.26,-137.16 658.46,-140.02 658.02,-133.03"/>
<text text-anchor="middle" x="1137" y="-140.3" font-family="Helvetica,sans-Serif" font-size="10.00"> m_guienv</text>
</g>
<!-- Node19 -->
<g id="node19" class="node">
<title>Node19</title>
<g id="a_node19"><a xlink:href="classirr_1_1gui_1_1IGUIElement.html" target="_top" xlink:title="Base class of all GUI elements.">
<polygon fill="white" stroke="black" points="823,-396.8 823,-415.8 939,-415.8 939,-396.8 823,-396.8"/>
<text text-anchor="middle" x="881" y="-403.8" font-family="Helvetica,sans-Serif" font-size="10.00">irr::gui::IGUIElement</text>
</a>
</g>
</g>
<!-- Node8&#45;&gt;Node19 -->
<g id="edge33" class="edge">
<title>Node8&#45;&gt;Node19</title>
<path fill="none" stroke="#9a32cd" stroke-dasharray="5,2" d="M658.33,-137.3C705.9,-138.42 765.07,-147.84 805,-182.3 872.37,-240.45 879.42,-360.97 880,-396.34"/>
<polygon fill="#9a32cd" stroke="#9a32cd" points="658.1,-133.8 648.06,-137.18 658.02,-140.8 658.1,-133.8"/>
<text text-anchor="middle" x="741.5" y="-185.3" font-family="Helvetica,sans-Serif" font-size="10.00"> Environment</text>
</g>
<!-- Node9 -->
<g id="node9" class="node">
<title>Node9</title>
<g id="a_node9"><a xlink:href="classirr_1_1IReferenceCounted.html" target="_top" xlink:title="Base class of most objects of the Irrlicht Engine.">
<polygon fill="white" stroke="black" points="236,-189.8 236,-208.8 362,-208.8 362,-189.8 236,-189.8"/>
<text text-anchor="middle" x="299" y="-196.8" font-family="Helvetica,sans-Serif" font-size="10.00">irr::IReferenceCounted</text>
</a>
</g>
</g>
<!-- Node9&#45;&gt;Node8 -->
<g id="edge8" class="edge">
<title>Node9&#45;&gt;Node8</title>
<path fill="none" stroke="midnightblue" d="M356.6,-187.72C408.18,-177.16 483.48,-161.75 531.73,-151.88"/>
<polygon fill="midnightblue" stroke="midnightblue" points="355.71,-184.33 346.61,-189.76 357.11,-191.19 355.71,-184.33"/>
</g>
<!-- Node15 -->
<g id="node15" class="node">
<title>Node15</title>
<g id="a_node15"><a xlink:href="classirr_1_1video_1_1IVideoDriver.html" target="_top" xlink:title="Interface to driver which is able to perform 2d and 3d graphics functions.">
<polygon fill="white" stroke="black" points="678,-86.8 678,-105.8 805,-105.8 805,-86.8 678,-86.8"/>
<text text-anchor="middle" x="741.5" y="-93.8" font-family="Helvetica,sans-Serif" font-size="10.00">irr::video::IVideoDriver</text>
</a>
</g>
</g>
<!-- Node9&#45;&gt;Node15 -->
<g id="edge15" class="edge">
<title>Node9&#45;&gt;Node15</title>
<path fill="none" stroke="midnightblue" d="M329.52,-185.42C347.66,-177.11 371.46,-166.59 393,-158.3 439.31,-140.5 450.53,-133.9 499,-123.3 558.97,-110.2 628.78,-103.27 677.88,-99.73"/>
<polygon fill="midnightblue" stroke="midnightblue" points="327.69,-182.41 320.08,-189.78 330.63,-188.76 327.69,-182.41"/>
</g>
<!-- Node9&#45;&gt;Node19 -->
<g id="edge20" class="edge">
<title>Node9&#45;&gt;Node19</title>
<path fill="none" stroke="midnightblue" d="M356.98,-210.8C396.71,-218.67 451,-229.12 499,-237.3 532.89,-243.09 776.36,-264.28 805,-283.3 847.5,-311.53 869.89,-372.88 877.23,-396.64"/>
<polygon fill="midnightblue" stroke="midnightblue" points="357.44,-207.33 346.95,-208.81 356.07,-214.19 357.44,-207.33"/>
</g>
<!-- Node10 -->
<g id="node10" class="node">
<title>Node10</title>
<g id="a_node10"><a xlink:title=" ">
<polygon fill="white" stroke="#bfbfbf" points="29,-189.8 29,-208.8 67,-208.8 67,-189.8 29,-189.8"/>
<text text-anchor="middle" x="48" y="-196.8" font-family="Helvetica,sans-Serif" font-size="10.00">char</text>
</a>
</g>
</g>
<!-- Node10&#45;&gt;Node9 -->
<g id="edge9" class="edge">
<title>Node10&#45;&gt;Node9</title>
<path fill="none" stroke="#9a32cd" stroke-dasharray="5,2" d="M77.75,-199.3C116.19,-199.3 185.34,-199.3 235.94,-199.3"/>
<polygon fill="#9a32cd" stroke="#9a32cd" points="77.31,-195.8 67.31,-199.3 77.31,-202.8 77.31,-195.8"/>
<text text-anchor="middle" x="159.5" y="-202.3" font-family="Helvetica,sans-Serif" font-size="10.00"> DebugName</text>
</g>
<!-- Node11 -->
<g id="node11" class="node">
<title>Node11</title>
<g id="a_node11"><a xlink:title=" ">
<polygon fill="white" stroke="#bfbfbf" points="23,-264.8 23,-283.8 73,-283.8 73,-264.8 23,-264.8"/>
<text text-anchor="middle" x="48" y="-271.8" font-family="Helvetica,sans-Serif" font-size="10.00">int32_t</text>
</a>
</g>
</g>
<!-- Node11&#45;&gt;Node9 -->
<g id="edge10" class="edge">
<title>Node11&#45;&gt;Node9</title>
<path fill="none" stroke="#9a32cd" stroke-dasharray="5,2" d="M83.01,-264.06C131.31,-249.51 219.12,-223.06 266.19,-208.89"/>
<polygon fill="#9a32cd" stroke="#9a32cd" points="81.89,-260.74 73.33,-266.98 83.91,-267.44 81.89,-260.74"/>
<text text-anchor="middle" x="159.5" y="-256.3" font-family="Helvetica,sans-Serif" font-size="10.00"> ReferenceCounter</text>
</g>
<!-- Node11&#45;&gt;Node19 -->
<g id="edge34" class="edge">
<title>Node11&#45;&gt;Node19</title>
<path fill="none" stroke="#9a32cd" stroke-dasharray="5,2" d="M83.52,-273.22C213.86,-269.63 675.22,-261.71 805,-324.3 838.54,-340.48 864.13,-378.87 874.7,-396.79"/>
<polygon fill="#9a32cd" stroke="#9a32cd" points="83.22,-269.73 73.33,-273.51 83.42,-276.72 83.22,-269.73"/>
<text text-anchor="middle" x="437" y="-288.3" font-family="Helvetica,sans-Serif" font-size="10.00"> TabOrder</text>
<text text-anchor="middle" x="437" y="-277.3" font-family="Helvetica,sans-Serif" font-size="10.00">ID</text>
</g>
<!-- Node12 -->
<g id="node12" class="node">
<title>Node12</title>
<g id="a_node12"><a xlink:title=" ">
<polygon fill="white" stroke="#bfbfbf" points="1309,-43.8 1309,-62.8 1444,-62.8 1444,-43.8 1309,-43.8"/>
<text text-anchor="middle" x="1376.5" y="-50.8" font-family="Helvetica,sans-Serif" font-size="10.00">autohide_button_bar_dir</text>
</a>
</g>
</g>
<!-- Node12&#45;&gt;Node1 -->
<g id="edge11" class="edge">
<title>Node12&#45;&gt;Node1</title>
<path fill="none" stroke="#9a32cd" stroke-dasharray="5,2" d="M1429.72,-42.37C1467.02,-37.78 1516.05,-38.74 1548,-66.3 1596.5,-108.14 1615.6,-325.03 1619.3,-373.63"/>
<polygon fill="#9a32cd" stroke="#9a32cd" points="1428.96,-38.95 1419.54,-43.8 1429.93,-45.88 1428.96,-38.95"/>
<text text-anchor="middle" x="1505" y="-69.3" font-family="Helvetica,sans-Serif" font-size="10.00"> m_dir</text>
</g>
<!-- Node13 -->
<g id="node13" class="node">
<title>Node13</title>
<g id="a_node13"><a xlink:href="classirr_1_1IEventReceiver.html" target="_top" xlink:title="Interface of an object which can receive events.">
<polygon fill="white" stroke="black" points="526,-170.8 526,-189.8 633,-189.8 633,-170.8 526,-170.8"/>
<text text-anchor="middle" x="579.5" y="-177.8" font-family="Helvetica,sans-Serif" font-size="10.00">irr::IEventReceiver</text>
</a>
</g>
</g>
<!-- Node13&#45;&gt;Node1 -->
<g id="edge12" class="edge">
<title>Node13&#45;&gt;Node1</title>
<path fill="none" stroke="#9a32cd" stroke-dasharray="5,2" d="M643.42,-181.97C704.02,-183.42 798.27,-185.3 880,-185.3 880,-185.3 880,-185.3 1377.5,-185.3 1498.16,-185.3 1591.91,-334.2 1614.69,-373.75"/>
<polygon fill="#9a32cd" stroke="#9a32cd" points="643.33,-178.46 633.24,-181.72 643.16,-185.46 643.33,-178.46"/>
<text text-anchor="middle" x="1137" y="-188.3" font-family="Helvetica,sans-Serif" font-size="10.00"> m_receiver</text>
</g>
<!-- Node13&#45;&gt;Node19 -->
<g id="edge21" class="edge">
<title>Node13&#45;&gt;Node19</title>
<path fill="none" stroke="midnightblue" d="M643.12,-191.08C707.32,-202.35 798.67,-219.11 805,-224.3 861.29,-270.46 875.83,-365.8 879.13,-396.53"/>
<polygon fill="midnightblue" stroke="midnightblue" points="643.52,-187.59 633.07,-189.32 642.31,-194.49 643.52,-187.59"/>
</g>
<!-- Node14 -->
<g id="node14" class="node">
<title>Node14</title>
<g id="a_node14"><a xlink:href="classbool.html" target="_top" xlink:title=" ">
<polygon fill="white" stroke="black" points="560.5,-769.8 560.5,-788.8 598.5,-788.8 598.5,-769.8 560.5,-769.8"/>
<text text-anchor="middle" x="579.5" y="-776.8" font-family="Helvetica,sans-Serif" font-size="10.00">bool</text>
</a>
</g>
</g>
<!-- Node14&#45;&gt;Node1 -->
<g id="edge13" class="edge">
<title>Node14&#45;&gt;Node1</title>
<path fill="none" stroke="#9a32cd" stroke-dasharray="5,2" d="M608.69,-783.23C661.7,-790.27 779.93,-804.3 880,-804.3 880,-804.3 880,-804.3 1377.5,-804.3 1574.03,-804.3 1613.7,-455.55 1619.24,-392.89"/>
<polygon fill="#9a32cd" stroke="#9a32cd" points="609.07,-779.75 598.69,-781.89 608.13,-786.69 609.07,-779.75"/>
<text text-anchor="middle" x="1137" y="-829.3" font-family="Helvetica,sans-Serif" font-size="10.00"> m_initialized</text>
<text text-anchor="middle" x="1137" y="-818.3" font-family="Helvetica,sans-Serif" font-size="10.00">m_visible</text>
<text text-anchor="middle" x="1137" y="-807.3" font-family="Helvetica,sans-Serif" font-size="10.00">m_active</text>
</g>
<!-- Node14&#45;&gt;Node17 -->
<g id="edge49" class="edge">
<title>Node14&#45;&gt;Node17</title>
<path fill="none" stroke="#9a32cd" stroke-dasharray="5,2" d="M608.86,-782.67C652.54,-786.74 738.23,-790.26 805,-765.3 945.47,-712.81 930.96,-608.4 1073,-560.3 1172.98,-526.45 1300.84,-567.83 1352.41,-587.75"/>
<polygon fill="#9a32cd" stroke="#9a32cd" points="609,-779.17 598.7,-781.64 608.29,-786.13 609,-779.17"/>
<text text-anchor="middle" x="1006" y="-640.3" font-family="Helvetica,sans-Serif" font-size="10.00"> immediate_release</text>
</g>
<!-- Node14&#45;&gt;Node19 -->
<g id="edge40" class="edge">
<title>Node14&#45;&gt;Node19</title>
<path fill="none" stroke="#9a32cd" stroke-dasharray="5,2" d="M596.13,-762.13C614.03,-743.58 645.17,-714.64 678,-699.3 730.05,-675 762.69,-714.16 805,-675.3 825.13,-656.82 867.99,-462.18 877.92,-416.06"/>
<polygon fill="#9a32cd" stroke="#9a32cd" points="593.4,-759.93 589.08,-769.6 598.49,-764.73 593.4,-759.93"/>
<text text-anchor="middle" x="741.5" y="-757.3" font-family="Helvetica,sans-Serif" font-size="10.00"> IsTabStop</text>
<text text-anchor="middle" x="741.5" y="-746.3" font-family="Helvetica,sans-Serif" font-size="10.00">IsSubElement</text>
<text text-anchor="middle" x="741.5" y="-735.3" font-family="Helvetica,sans-Serif" font-size="10.00">IsTabGroup</text>
<text text-anchor="middle" x="741.5" y="-724.3" font-family="Helvetica,sans-Serif" font-size="10.00">IsEnabled</text>
<text text-anchor="middle" x="741.5" y="-713.3" font-family="Helvetica,sans-Serif" font-size="10.00">NoClip</text>
<text text-anchor="middle" x="741.5" y="-702.3" font-family="Helvetica,sans-Serif" font-size="10.00">IsVisible</text>
</g>
<!-- Node15&#45;&gt;Node1 -->
<g id="edge14" class="edge">
<title>Node15&#45;&gt;Node1</title>
<path fill="none" stroke="#9a32cd" stroke-dasharray="5,2" d="M815.34,-94.17C868.01,-92.81 940.9,-91.3 1005,-91.3 1005,-91.3 1005,-91.3 1377.5,-91.3 1454.68,-91.3 1491.28,-71.95 1548,-124.3 1586.32,-159.68 1612.61,-330.7 1618.67,-373.55"/>
<polygon fill="#9a32cd" stroke="#9a32cd" points="814.98,-90.68 805.08,-94.44 815.17,-97.68 814.98,-90.68"/>
<text text-anchor="middle" x="1137" y="-94.3" font-family="Helvetica,sans-Serif" font-size="10.00"> m_driver</text>
</g>
<!-- Node16 -->
<g id="node16" class="node">
<title>Node16</title>
<g id="a_node16"><a xlink:title=" ">
<polygon fill="white" stroke="#bfbfbf" points="1309.5,-5.8 1309.5,-24.8 1443.5,-24.8 1443.5,-5.8 1309.5,-5.8"/>
<text text-anchor="middle" x="1376.5" y="-12.8" font-family="Helvetica,sans-Serif" font-size="10.00">vector&lt; button_info * &gt;</text>
</a>
</g>
</g>
<!-- Node16&#45;&gt;Node1 -->
<g id="edge16" class="edge">
<title>Node16&#45;&gt;Node1</title>
<path fill="none" stroke="#9a32cd" stroke-dasharray="5,2" d="M1424.49,-3.9C1462.37,2.31 1514.65,3.67 1548,-25.3 1602.79,-72.92 1617.17,-321.82 1619.59,-373.79"/>
<polygon fill="#9a32cd" stroke="#9a32cd" points="1423.43,-0.53 1414.21,-5.75 1424.68,-7.42 1423.43,-0.53"/>
<text text-anchor="middle" x="1505" y="-28.3" font-family="Helvetica,sans-Serif" font-size="10.00"> m_buttons</text>
</g>
<!-- Node17&#45;&gt;Node1 -->
<g id="edge17" class="edge">
<title>Node17&#45;&gt;Node1</title>
<path fill="none" stroke="#9a32cd" stroke-dasharray="5,2" d="M1396.05,-580.93C1444.05,-538.57 1571.22,-426.35 1609.16,-392.87"/>
<polygon fill="#9a32cd" stroke="#9a32cd" points="1393.73,-578.31 1388.55,-587.55 1398.36,-583.56 1393.73,-578.31"/>
<text text-anchor="middle" x="1505" y="-524.3" font-family="Helvetica,sans-Serif" font-size="10.00"> m_starter</text>
</g>
<!-- Node18 -->
<g id="node18" class="node">
<title>Node18</title>
<g id="a_node18"><a xlink:href="classirr_1_1gui_1_1IGUIButton.html" target="_top" xlink:title="GUI Button interface.">
<polygon fill="white" stroke="black" points="1083.5,-445.8 1083.5,-464.8 1190.5,-464.8 1190.5,-445.8 1083.5,-445.8"/>
<text text-anchor="middle" x="1137" y="-452.8" font-family="Helvetica,sans-Serif" font-size="10.00">irr::gui::IGUIButton</text>
</a>
</g>
</g>
<!-- Node18&#45;&gt;Node17 -->
<g id="edge18" class="edge">
<title>Node18&#45;&gt;Node17</title>
<path fill="none" stroke="#9a32cd" stroke-dasharray="5,2" d="M1182.21,-467.92C1213.99,-478.15 1257.04,-494.45 1291,-516.3 1323.13,-536.98 1353.64,-570.97 1367.58,-587.57"/>
<polygon fill="#9a32cd" stroke="#9a32cd" points="1182.91,-464.47 1172.32,-464.81 1180.81,-471.15 1182.91,-464.47"/>
<text text-anchor="middle" x="1255" y="-519.3" font-family="Helvetica,sans-Serif" font-size="10.00"> guibutton</text>
</g>
<!-- Node19&#45;&gt;Node18 -->
<g id="edge19" class="edge">
<title>Node19&#45;&gt;Node18</title>
<path fill="none" stroke="midnightblue" d="M941.28,-417.74C985.37,-426.25 1044.85,-437.72 1086.43,-445.74"/>
<polygon fill="midnightblue" stroke="midnightblue" points="941.76,-414.27 931.27,-415.81 940.43,-421.14 941.76,-414.27"/>
</g>
<!-- Node19&#45;&gt;Node19 -->
<g id="edge22" class="edge">
<title>Node19&#45;&gt;Node19</title>
<path fill="none" stroke="#9a32cd" stroke-dasharray="5,2" d="M857.93,-425.33C859.19,-430.43 866.88,-434.3 881,-434.3 903.04,-434.3 909.41,-424.87 900.11,-416.06"/>
<polygon fill="#9a32cd" stroke="#9a32cd" points="861.19,-426.63 861.89,-416.06 854.75,-423.89 861.19,-426.63"/>
<text text-anchor="middle" x="881" y="-437.3" font-family="Helvetica,sans-Serif" font-size="10.00"> Parent</text>
</g>
<!-- Node20 -->
<g id="node20" class="node">
<title>Node20</title>
<g id="a_node20"><a xlink:title=" ">
<polygon fill="white" stroke="#bfbfbf" points="527,-323.8 527,-342.8 632,-342.8 632,-323.8 527,-323.8"/>
<text text-anchor="middle" x="579.5" y="-330.8" font-family="Helvetica,sans-Serif" font-size="10.00">string&lt; wchar_t &gt;</text>
</a>
</g>
</g>
<!-- Node20&#45;&gt;Node19 -->
<g id="edge23" class="edge">
<title>Node20&#45;&gt;Node19</title>
<path fill="none" stroke="#9a32cd" stroke-dasharray="5,2" d="M642.35,-328.86C688.59,-327.68 752.6,-330.67 805,-350.3 832.09,-360.45 857.77,-383.56 870.9,-396.7"/>
<polygon fill="#9a32cd" stroke="#9a32cd" points="642.05,-325.37 632.17,-329.19 642.28,-332.36 642.05,-325.37"/>
<text text-anchor="middle" x="741.5" y="-364.3" font-family="Helvetica,sans-Serif" font-size="10.00"> ToolTipText</text>
<text text-anchor="middle" x="741.5" y="-353.3" font-family="Helvetica,sans-Serif" font-size="10.00">Text</text>
</g>
<!-- Node21 -->
<g id="node21" class="node">
<title>Node21</title>
<g id="a_node21"><a xlink:title=" ">
<polygon fill="white" stroke="#bfbfbf" points="277,-342.8 277,-361.8 321,-361.8 321,-342.8 277,-342.8"/>
<text text-anchor="middle" x="299" y="-349.8" font-family="Helvetica,sans-Serif" font-size="10.00">string</text>
</a>
</g>
</g>
<!-- Node21&#45;&gt;Node20 -->
<g id="edge24" class="edge">
<title>Node21&#45;&gt;Node20</title>
<path fill="none" stroke="orange" stroke-dasharray="5,2" d="M331.28,-346.62C349.27,-343.59 372.33,-340.13 393,-338.3 438.09,-334.32 489.56,-333.2 526.83,-333.01"/>
<polygon fill="orange" stroke="orange" points="330.6,-343.19 321.33,-348.33 331.78,-350.08 330.6,-343.19"/>
<text text-anchor="middle" x="437" y="-341.3" font-family="Helvetica,sans-Serif" font-size="10.00"> &lt; wchar_t &gt;</text>
</g>
<!-- Node29 -->
<g id="node29" class="node">
<title>Node29</title>
<g id="a_node29"><a xlink:title=" ">
<polygon fill="white" stroke="#bfbfbf" points="540.5,-361.8 540.5,-380.8 618.5,-380.8 618.5,-361.8 540.5,-361.8"/>
<text text-anchor="middle" x="579.5" y="-368.8" font-family="Helvetica,sans-Serif" font-size="10.00">string&lt; c8 &gt;</text>
</a>
</g>
</g>
<!-- Node21&#45;&gt;Node29 -->
<g id="edge36" class="edge">
<title>Node21&#45;&gt;Node29</title>
<path fill="none" stroke="orange" stroke-dasharray="5,2" d="M331.56,-354.46C382.95,-357.96 484.53,-364.89 540.05,-368.68"/>
<polygon fill="orange" stroke="orange" points="331.61,-350.95 321.39,-353.76 331.13,-357.94 331.61,-350.95"/>
<text text-anchor="middle" x="437" y="-367.3" font-family="Helvetica,sans-Serif" font-size="10.00"> &lt; c8 &gt;</text>
</g>
<!-- Node22 -->
<g id="node22" class="node">
<title>Node22</title>
<g id="a_node22"><a xlink:href="classirr_1_1core_1_1dimension2d.html" target="_top" xlink:title=" ">
<polygon fill="white" stroke="black" points="518,-400.3 518,-430.3 641,-430.3 641,-400.3 518,-400.3"/>
<text text-anchor="start" x="526" y="-418.3" font-family="Helvetica,sans-Serif" font-size="10.00">irr::core::dimension2d</text>
<text text-anchor="middle" x="579.5" y="-407.3" font-family="Helvetica,sans-Serif" font-size="10.00">&lt; u32 &gt;</text>
</a>
</g>
</g>
<!-- Node22&#45;&gt;Node19 -->
<g id="edge25" class="edge">
<title>Node22&#45;&gt;Node19</title>
<path fill="none" stroke="#9a32cd" stroke-dasharray="5,2" d="M651.17,-408.86C660.19,-408.23 669.31,-407.68 678,-407.3 726.88,-405.18 782.47,-405.08 822.94,-405.42"/>
<polygon fill="#9a32cd" stroke="#9a32cd" points="650.76,-405.38 641.05,-409.61 651.28,-412.36 650.76,-405.38"/>
<text text-anchor="middle" x="741.5" y="-421.3" font-family="Helvetica,sans-Serif" font-size="10.00"> MinSize</text>
<text text-anchor="middle" x="741.5" y="-410.3" font-family="Helvetica,sans-Serif" font-size="10.00">MaxSize</text>
</g>
<!-- Node23 -->
<g id="node23" class="node">
<title>Node23</title>
<g id="a_node23"><a xlink:title=" ">
<polygon fill="white" stroke="#bfbfbf" points="271,-395.8 271,-414.8 327,-414.8 327,-395.8 271,-395.8"/>
<text text-anchor="middle" x="299" y="-402.8" font-family="Helvetica,sans-Serif" font-size="10.00">uint32_t</text>
</a>
</g>
</g>
<!-- Node23&#45;&gt;Node22 -->
<g id="edge26" class="edge">
<title>Node23&#45;&gt;Node22</title>
<path fill="none" stroke="#9a32cd" stroke-dasharray="5,2" d="M337.21,-404.57C373.82,-404.07 431.29,-403.88 481,-406.3 492.97,-406.89 505.74,-407.83 517.97,-408.9"/>
<polygon fill="#9a32cd" stroke="#9a32cd" points="336.95,-401.07 327.01,-404.73 337.06,-408.07 336.95,-401.07"/>
<text text-anchor="middle" x="437" y="-420.3" font-family="Helvetica,sans-Serif" font-size="10.00"> Width</text>
<text text-anchor="middle" x="437" y="-409.3" font-family="Helvetica,sans-Serif" font-size="10.00">Height</text>
</g>
<!-- Node24&#45;&gt;Node22 -->
<g id="edge27" class="edge">
<title>Node24&#45;&gt;Node22</title>
<path fill="none" stroke="orange" stroke-dasharray="5,2" d="M385.42,-439.27C415.63,-435.96 449.84,-432.1 481,-428.3 492.95,-426.85 505.71,-425.21 517.94,-423.6"/>
<polygon fill="orange" stroke="orange" points="384.9,-435.8 375.34,-440.36 385.66,-442.76 384.9,-435.8"/>
<text text-anchor="middle" x="437" y="-440.3" font-family="Helvetica,sans-Serif" font-size="10.00"> &lt; u32 &gt;</text>
</g>
<!-- Node25 -->
<g id="node25" class="node">
<title>Node25</title>
<g id="a_node25"><a xlink:href="classirr_1_1core_1_1rect.html" target="_top" xlink:title=" ">
<polygon fill="white" stroke="black" points="520,-515.8 520,-534.8 639,-534.8 639,-515.8 520,-515.8"/>
<text text-anchor="middle" x="579.5" y="-522.8" font-family="Helvetica,sans-Serif" font-size="10.00">irr::core::rect&lt; s32 &gt;</text>
</a>
</g>
</g>
<!-- Node25&#45;&gt;Node19 -->
<g id="edge29" class="edge">
<title>Node25&#45;&gt;Node19</title>
<path fill="none" stroke="#9a32cd" stroke-dasharray="5,2" d="M639.32,-512.56C646.5,-509.99 653.57,-506.93 660,-503.3 669.59,-497.9 668.18,-491.27 678,-486.3 729.19,-460.43 752.5,-486.41 805,-463.3 831.35,-451.71 856.92,-429.12 870.32,-416.13"/>
<polygon fill="#9a32cd" stroke="#9a32cd" points="637.91,-509.34 629.5,-515.77 640.09,-515.99 637.91,-509.34"/>
<text text-anchor="middle" x="741.5" y="-533.3" font-family="Helvetica,sans-Serif" font-size="10.00"> AbsoluteClippingRect</text>
<text text-anchor="middle" x="741.5" y="-522.3" font-family="Helvetica,sans-Serif" font-size="10.00">LastParentRect</text>
<text text-anchor="middle" x="741.5" y="-511.3" font-family="Helvetica,sans-Serif" font-size="10.00">RelativeRect</text>
<text text-anchor="middle" x="741.5" y="-500.3" font-family="Helvetica,sans-Serif" font-size="10.00">DesiredRect</text>
<text text-anchor="middle" x="741.5" y="-489.3" font-family="Helvetica,sans-Serif" font-size="10.00">AbsoluteRect</text>
</g>
<!-- Node26 -->
<g id="node26" class="node">
<title>Node26</title>
<g id="a_node26"><a xlink:title=" ">
<polygon fill="white" stroke="#bfbfbf" points="245.5,-587.8 245.5,-606.8 352.5,-606.8 352.5,-587.8 245.5,-587.8"/>
<text text-anchor="middle" x="299" y="-594.8" font-family="Helvetica,sans-Serif" font-size="10.00">position2d&lt; s32 &gt;</text>
</a>
</g>
</g>
<!-- Node26&#45;&gt;Node25 -->
<g id="edge30" class="edge">
<title>Node26&#45;&gt;Node25</title>
<path fill="none" stroke="#9a32cd" stroke-dasharray="5,2" d="M362.61,-592.63C398.74,-587.99 444.17,-578.74 481,-560.3 490.57,-555.51 489.51,-549.25 499,-544.3 506.42,-540.43 514.65,-537.34 522.91,-534.87"/>
<polygon fill="#9a32cd" stroke="#9a32cd" points="362.19,-589.16 352.68,-593.82 363.02,-596.11 362.19,-589.16"/>
<text text-anchor="middle" x="437" y="-601.3" font-family="Helvetica,sans-Serif" font-size="10.00"> UpperLeftCorner</text>
<text text-anchor="middle" x="437" y="-590.3" font-family="Helvetica,sans-Serif" font-size="10.00">LowerRightCorner</text>
</g>
<!-- Node27 -->
<g id="node27" class="node">
<title>Node27</title>
<g id="a_node27"><a xlink:href="classirr_1_1core_1_1rect.html" target="_top" xlink:title="Rectangle template.">
<polygon fill="white" stroke="black" points="245.5,-534.8 245.5,-553.8 352.5,-553.8 352.5,-534.8 245.5,-534.8"/>
<text text-anchor="middle" x="299" y="-541.8" font-family="Helvetica,sans-Serif" font-size="10.00">irr::core::rect&lt; T &gt;</text>
</a>
</g>
</g>
<!-- Node27&#45;&gt;Node25 -->
<g id="edge31" class="edge">
<title>Node27&#45;&gt;Node25</title>
<path fill="none" stroke="orange" stroke-dasharray="5,2" d="M362.82,-545.51C397.7,-545.62 441.83,-544.82 481,-541.3 496.72,-539.89 513.73,-537.43 529.08,-534.85"/>
<polygon fill="orange" stroke="orange" points="362.8,-542.01 352.78,-545.46 362.76,-549.01 362.8,-542.01"/>
<text text-anchor="middle" x="437" y="-548.3" font-family="Helvetica,sans-Serif" font-size="10.00"> &lt; s32 &gt;</text>
</g>
<!-- Node30 -->
<g id="node30" class="node">
<title>Node30</title>
<g id="a_node30"><a xlink:href="classirr_1_1core_1_1rect.html" target="_top" xlink:title=" ">
<polygon fill="white" stroke="black" points="521,-474.8 521,-493.8 638,-493.8 638,-474.8 521,-474.8"/>
<text text-anchor="middle" x="579.5" y="-481.8" font-family="Helvetica,sans-Serif" font-size="10.00">irr::core::rect&lt; f32 &gt;</text>
</a>
</g>
</g>
<!-- Node27&#45;&gt;Node30 -->
<g id="edge39" class="edge">
<title>Node27&#45;&gt;Node30</title>
<path fill="none" stroke="orange" stroke-dasharray="5,2" d="M358.66,-532.78C394.13,-525.69 440.23,-516.28 481,-507.3 500.19,-503.08 521.44,-498.1 539.19,-493.86"/>
<polygon fill="orange" stroke="orange" points="357.61,-529.42 348.48,-534.8 358.97,-536.28 357.61,-529.42"/>
<text text-anchor="middle" x="437" y="-527.3" font-family="Helvetica,sans-Serif" font-size="10.00"> &lt; f32 &gt;</text>
</g>
<!-- Node28 -->
<g id="node28" class="node">
<title>Node28</title>
<g id="a_node28"><a xlink:title=" ">
<polygon fill="white" stroke="#bfbfbf" points="0,-534.8 0,-553.8 96,-553.8 96,-534.8 0,-534.8"/>
<text text-anchor="middle" x="48" y="-541.8" font-family="Helvetica,sans-Serif" font-size="10.00">position2d&lt; T &gt;</text>
</a>
</g>
</g>
<!-- Node28&#45;&gt;Node27 -->
<g id="edge32" class="edge">
<title>Node28&#45;&gt;Node27</title>
<path fill="none" stroke="#9a32cd" stroke-dasharray="5,2" d="M106.19,-544.3C148.13,-544.3 204.66,-544.3 245.47,-544.3"/>
<polygon fill="#9a32cd" stroke="#9a32cd" points="106.13,-540.8 96.13,-544.3 106.13,-547.8 106.13,-540.8"/>
<text text-anchor="middle" x="159.5" y="-558.3" font-family="Helvetica,sans-Serif" font-size="10.00"> UpperLeftCorner</text>
<text text-anchor="middle" x="159.5" y="-547.3" font-family="Helvetica,sans-Serif" font-size="10.00">LowerRightCorner</text>
</g>
<!-- Node29&#45;&gt;Node19 -->
<g id="edge35" class="edge">
<title>Node29&#45;&gt;Node19</title>
<path fill="none" stroke="#9a32cd" stroke-dasharray="5,2" d="M629.03,-373.19C674.65,-375.44 744.76,-380.11 805,-389.3 817.41,-391.2 830.81,-393.99 842.81,-396.77"/>
<polygon fill="#9a32cd" stroke="#9a32cd" points="628.98,-369.69 618.83,-372.71 628.65,-376.68 628.98,-369.69"/>
<text text-anchor="middle" x="741.5" y="-392.3" font-family="Helvetica,sans-Serif" font-size="10.00"> Name</text>
</g>
<!-- Node30&#45;&gt;Node19 -->
<g id="edge37" class="edge">
<title>Node30&#45;&gt;Node19</title>
<path fill="none" stroke="#9a32cd" stroke-dasharray="5,2" d="M615.97,-471.36C634.31,-465 657.16,-457.58 678,-452.3 733.61,-438.22 749.26,-442.85 805,-429.3 820.62,-425.51 837.77,-420.33 851.73,-415.84"/>
<polygon fill="#9a32cd" stroke="#9a32cd" points="614.56,-468.14 606.28,-474.76 616.88,-474.75 614.56,-468.14"/>
<text text-anchor="middle" x="741.5" y="-455.3" font-family="Helvetica,sans-Serif" font-size="10.00"> ScaleRect</text>
</g>
<!-- Node31 -->
<g id="node31" class="node">
<title>Node31</title>
<g id="a_node31"><a xlink:title=" ">
<polygon fill="white" stroke="#bfbfbf" points="246,-476.8 246,-495.8 352,-495.8 352,-476.8 246,-476.8"/>
<text text-anchor="middle" x="299" y="-483.8" font-family="Helvetica,sans-Serif" font-size="10.00">position2d&lt; f32 &gt;</text>
</a>
</g>
</g>
<!-- Node31&#45;&gt;Node30 -->
<g id="edge38" class="edge">
<title>Node31&#45;&gt;Node30</title>
<path fill="none" stroke="#9a32cd" stroke-dasharray="5,2" d="M362.28,-485.59C372.54,-485.48 383.07,-485.38 393,-485.3 435.83,-484.96 484.23,-484.7 520.84,-484.54"/>
<polygon fill="#9a32cd" stroke="#9a32cd" points="362.1,-482.09 352.14,-485.69 362.17,-489.09 362.1,-482.09"/>
<text text-anchor="middle" x="437" y="-499.3" font-family="Helvetica,sans-Serif" font-size="10.00"> UpperLeftCorner</text>
<text text-anchor="middle" x="437" y="-488.3" font-family="Helvetica,sans-Serif" font-size="10.00">LowerRightCorner</text>
</g>
<!-- Node32 -->
<g id="node32" class="node">
<title>Node32</title>
<g id="a_node32"><a xlink:title=" ">
<polygon fill="white" stroke="#bfbfbf" points="499,-208.8 499,-227.8 660,-227.8 660,-208.8 499,-208.8"/>
<text text-anchor="middle" x="579.5" y="-215.8" font-family="Helvetica,sans-Serif" font-size="10.00">list&lt; irr::gui::IGUIElement * &gt;</text>
</a>
</g>
</g>
<!-- Node32&#45;&gt;Node19 -->
<g id="edge41" class="edge">
<title>Node32&#45;&gt;Node19</title>
<path fill="none" stroke="#9a32cd" stroke-dasharray="5,2" d="M670.34,-224.54C727.91,-229.25 793.89,-236.26 805,-244.3 857.98,-282.63 874.58,-367.83 878.77,-396.6"/>
<polygon fill="#9a32cd" stroke="#9a32cd" points="670.32,-221.03 660.07,-223.72 669.76,-228 670.32,-221.03"/>
<text text-anchor="middle" x="741.5" y="-247.3" font-family="Helvetica,sans-Serif" font-size="10.00"> Children</text>
</g>
<!-- Node33 -->
<g id="node33" class="node">
<title>Node33</title>
<g id="a_node33"><a xlink:title=" ">
<polygon fill="white" stroke="#bfbfbf" points="553,-656.8 553,-675.8 606,-675.8 606,-656.8 553,-656.8"/>
<text text-anchor="middle" x="579.5" y="-663.8" font-family="Helvetica,sans-Serif" font-size="10.00">iterator</text>
</a>
</g>
</g>
<!-- Node33&#45;&gt;Node19 -->
<g id="edge42" class="edge">
<title>Node33&#45;&gt;Node19</title>
<path fill="none" stroke="#9a32cd" stroke-dasharray="5,2" d="M616.39,-664.6C676.1,-661.45 790.72,-653.97 805,-642.3 877.92,-582.75 880.97,-452.38 880.32,-415.94"/>
<polygon fill="#9a32cd" stroke="#9a32cd" points="616.07,-661.11 606.27,-665.12 616.43,-668.1 616.07,-661.11"/>
<text text-anchor="middle" x="741.5" y="-663.3" font-family="Helvetica,sans-Serif" font-size="10.00"> ParentPos</text>
</g>
<!-- Node34 -->
<g id="node34" class="node">
<title>Node34</title>
<g id="a_node34"><a xlink:title=" ">
<polygon fill="white" stroke="#bfbfbf" points="519,-618.8 519,-637.8 640,-637.8 640,-618.8 519,-618.8"/>
<text text-anchor="middle" x="579.5" y="-625.8" font-family="Helvetica,sans-Serif" font-size="10.00">EGUI_ELEMENT_TYPE</text>
</a>
</g>
</g>
<!-- Node34&#45;&gt;Node19 -->
<g id="edge43" class="edge">
<title>Node34&#45;&gt;Node19</title>
<path fill="none" stroke="#9a32cd" stroke-dasharray="5,2" d="M650.24,-630.02C707,-630 781.42,-626.31 805,-608.3 869.22,-559.27 878.46,-449.17 879.78,-415.97"/>
<polygon fill="#9a32cd" stroke="#9a32cd" points="650.24,-626.52 640.23,-629.99 650.22,-633.52 650.24,-626.52"/>
<text text-anchor="middle" x="741.5" y="-632.3" font-family="Helvetica,sans-Serif" font-size="10.00"> Type</text>
</g>
<!-- Node35 -->
<g id="node35" class="node">
<title>Node35</title>
<g id="a_node35"><a xlink:title=" ">
<polygon fill="white" stroke="#bfbfbf" points="527.5,-553.8 527.5,-572.8 631.5,-572.8 631.5,-553.8 527.5,-553.8"/>
<text text-anchor="middle" x="579.5" y="-560.8" font-family="Helvetica,sans-Serif" font-size="10.00">EGUI_ALIGNMENT</text>
</a>
</g>
</g>
<!-- Node35&#45;&gt;Node19 -->
<g id="edge44" class="edge">
<title>Node35&#45;&gt;Node19</title>
<path fill="none" stroke="#9a32cd" stroke-dasharray="5,2" d="M641.6,-563.58C698.72,-562.73 778.98,-558.38 805,-541.3 851.4,-510.86 871.8,-441.38 877.91,-415.9"/>
<polygon fill="#9a32cd" stroke="#9a32cd" points="641.54,-560.08 631.58,-563.69 641.62,-567.08 641.54,-560.08"/>
<text text-anchor="middle" x="741.5" y="-598.3" font-family="Helvetica,sans-Serif" font-size="10.00"> AlignRight</text>
<text text-anchor="middle" x="741.5" y="-587.3" font-family="Helvetica,sans-Serif" font-size="10.00">AlignBottom</text>
<text text-anchor="middle" x="741.5" y="-576.3" font-family="Helvetica,sans-Serif" font-size="10.00">AlignLeft</text>
<text text-anchor="middle" x="741.5" y="-565.3" font-family="Helvetica,sans-Serif" font-size="10.00">AlignTop</text>
</g>
<!-- Node36 -->
<g id="node36" class="node">
<title>Node36</title>
<g id="a_node36"><a xlink:title=" ">
<polygon fill="white" stroke="#bfbfbf" points="1100,-645.8 1100,-664.8 1174,-664.8 1174,-645.8 1100,-645.8"/>
<text text-anchor="middle" x="1137" y="-652.8" font-family="Helvetica,sans-Serif" font-size="10.00">EKEY_CODE</text>
</a>
</g>
</g>
<!-- Node36&#45;&gt;Node17 -->
<g id="edge46" class="edge">
<title>Node36&#45;&gt;Node17</title>
<path fill="none" stroke="#9a32cd" stroke-dasharray="5,2" d="M1184.05,-647.33C1214.58,-641.72 1255.42,-633.56 1291,-624.3 1310.38,-619.26 1331.86,-612.38 1348.32,-606.82"/>
<polygon fill="#9a32cd" stroke="#9a32cd" points="1183.33,-643.91 1174.11,-649.14 1184.58,-650.79 1183.33,-643.91"/>
<text text-anchor="middle" x="1255" y="-643.3" font-family="Helvetica,sans-Serif" font-size="10.00"> keycode</text>
</g>
<!-- Node37 -->
<g id="node37" class="node">
<title>Node37</title>
<g id="a_node37"><a xlink:title=" ">
<polygon fill="white" stroke="#bfbfbf" points="1088,-607.8 1088,-626.8 1186,-626.8 1186,-607.8 1088,-607.8"/>
<text text-anchor="middle" x="1137" y="-614.8" font-family="Helvetica,sans-Serif" font-size="10.00">vector&lt; size_t &gt;</text>
</a>
</g>
</g>
<!-- Node37&#45;&gt;Node17 -->
<g id="edge47" class="edge">
<title>Node37&#45;&gt;Node17</title>
<path fill="none" stroke="#9a32cd" stroke-dasharray="5,2" d="M1196.29,-612.4C1241.37,-608.6 1302.31,-603.47 1340.24,-600.27"/>
<polygon fill="#9a32cd" stroke="#9a32cd" points="1195.73,-608.93 1186.06,-613.26 1196.32,-615.91 1195.73,-608.93"/>
<text text-anchor="middle" x="1255" y="-612.3" font-family="Helvetica,sans-Serif" font-size="10.00"> ids</text>
</g>
<!-- Node38 -->
<g id="node38" class="node">
<title>Node38</title>
<g id="a_node38"><a xlink:title=" ">
<polygon fill="white" stroke="#bfbfbf" points="1122.5,-569.8 1122.5,-588.8 1151.5,-588.8 1151.5,-569.8 1122.5,-569.8"/>
<text text-anchor="middle" x="1137" y="-576.8" font-family="Helvetica,sans-Serif" font-size="10.00">int</text>
</a>
</g>
</g>
<!-- Node38&#45;&gt;Node17 -->
<g id="edge48" class="edge">
<title>Node38&#45;&gt;Node17</title>
<path fill="none" stroke="#9a32cd" stroke-dasharray="5,2" d="M1161.91,-578.62C1192.07,-578.03 1245.52,-577.85 1291,-582.3 1307.31,-583.9 1325.21,-586.9 1340.31,-589.79"/>
<polygon fill="#9a32cd" stroke="#9a32cd" points="1161.47,-575.13 1151.55,-578.86 1161.63,-582.13 1161.47,-575.13"/>
<text text-anchor="middle" x="1255" y="-585.3" font-family="Helvetica,sans-Serif" font-size="10.00"> togglable</text>
</g>
<!-- Node39 -->
<g id="node39" class="node">
<title>Node39</title>
<g id="a_node39"><a xlink:title=" ">
<polygon fill="white" stroke="#bfbfbf" points="1073,-683.8 1073,-702.8 1201,-702.8 1201,-683.8 1073,-683.8"/>
<text text-anchor="middle" x="1137" y="-690.8" font-family="Helvetica,sans-Serif" font-size="10.00">vector&lt; const char * &gt;</text>
</a>
</g>
</g>
<!-- Node39&#45;&gt;Node17 -->
<g id="edge50" class="edge">
<title>Node39&#45;&gt;Node17</title>
<path fill="none" stroke="#9a32cd" stroke-dasharray="5,2" d="M1207.14,-681.63C1234.04,-675.68 1264.66,-667.15 1291,-655.3 1319.56,-642.46 1348.79,-619.87 1364.27,-606.99"/>
<polygon fill="#9a32cd" stroke="#9a32cd" points="1206.08,-678.27 1197.03,-683.78 1207.54,-685.12 1206.08,-678.27"/>
<text text-anchor="middle" x="1255" y="-680.3" font-family="Helvetica,sans-Serif" font-size="10.00"> textures</text>
</g>
</g>
</svg>
