<?xml version="1.0" encoding="UTF-8" standalone="no"?>
<!DOCTYPE svg PUBLIC "-//W3C//DTD SVG 1.1//EN"
 "http://www.w3.org/Graphics/SVG/1.1/DTD/svg11.dtd">
<!-- Generated by graphviz version 2.43.0 (0)
 -->
<!-- Title: irr::core::ustring16::replace Pages: 1 -->
<!--zoomable 301 -->
<svg id="main" version="1.1" xmlns="http://www.w3.org/2000/svg" xmlns:xlink="http://www.w3.org/1999/xlink" xml:space="preserve" onload="init(evt)">
<style type="text/css"><![CDATA[
.edge:hover path { stroke: red; }
.edge:hover polygon { stroke: red; fill: red; }
]]></style>
<script type="text/javascript"><![CDATA[
var edges = document.getElementsByTagName('g');
if (edges && edges.length) {
  for (var i=0;i<edges.length;i++) {
    if (edges[i].id.substr(0,4)=='edge') {
      edges[i].setAttribute('class','edge');
    }
  }
}
]]></script>
        <defs>
                <circle id="rim" cx="0" cy="0" r="7"/>
                <circle id="rim2" cx="0" cy="0" r="3.5"/>
                <g id="zoomPlus">
                        <use xlink:href="#rim" fill="#404040">
                                <set attributeName="fill" to="#808080" begin="zoomplus.mouseover" end="zoomplus.mouseout"/>
                        </use>
                        <path d="M-4,0h8M0,-4v8" fill="none" stroke="white" stroke-width="1.5" pointer-events="none"/>
                </g>
                <g id="zoomMin">
                        <use xlink:href="#rim" fill="#404040">
                                <set attributeName="fill" to="#808080" begin="zoomminus.mouseover" end="zoomminus.mouseout"/>
                        </use>
                        <path d="M-4,0h8" fill="none" stroke="white" stroke-width="1.5" pointer-events="none"/>
                </g>
                <g id="dirArrow">
                        <path fill="none" stroke="white" stroke-width="1.5" d="M0,-3.0v7 M-2.5,-0.5L0,-3.0L2.5,-0.5"/>
                </g>
               <g id="resetDef">
                       <use xlink:href="#rim2" fill="#404040">
                               <set attributeName="fill" to="#808080" begin="reset.mouseover" end="reset.mouseout"/>
                       </use>
               </g>
        </defs>

<script type="text/javascript">
var viewWidth = 604;
var viewHeight = 301;
var sectionId = 'dynsection-39';
</script>
<script xlink:href="svgpan.js"/>
<svg id="graph" class="graph">
<g id="viewport">
<title>irr::core::ustring16::replace</title>
<polygon fill="white" stroke="transparent" points="-4,4 -4,-296.88 600,-296.88 600,4 -4,4"/>
<!-- Node1 -->
<g id="node1" class="node">
<title>Node1</title>
<g id="a_node1"><a xlink:title=" ">
<polygon fill="#bfbfbf" stroke="black" points="0,-137.5 0,-167.5 106,-167.5 106,-137.5 0,-137.5"/>
<text text-anchor="start" x="8" y="-155.5" font-family="Helvetica,sans-Serif" font-size="10.00">irr::core::ustring16</text>
<text text-anchor="middle" x="53" y="-144.5" font-family="Helvetica,sans-Serif" font-size="10.00">::replace</text>
</a>
</g>
</g>
<!-- Node2 -->
<g id="node2" class="node">
<title>Node2</title>
<g id="a_node2"><a xlink:href="classirr_1_1core_1_1ustring16.html#a13d082695b759bb889795470890ab5be" target="_top" xlink:title=" ">
<polygon fill="white" stroke="black" points="490,-44.5 490,-74.5 596,-74.5 596,-44.5 490,-44.5"/>
<text text-anchor="start" x="498" y="-62.5" font-family="Helvetica,sans-Serif" font-size="10.00">irr::core::ustring16</text>
<text text-anchor="middle" x="543" y="-51.5" font-family="Helvetica,sans-Serif" font-size="10.00">::c_str</text>
</a>
</g>
</g>
<!-- Node1&#45;&gt;Node2 -->
<g id="edge1" class="edge">
<title>Node1&#45;&gt;Node2</title>
<path fill="none" stroke="midnightblue" d="M66.42,-137.25C81.96,-119.45 110.4,-90.88 142,-78.5 254.67,-34.37 399.04,-41.46 479.92,-50.53"/>
<polygon fill="midnightblue" stroke="midnightblue" points="479.6,-54.01 489.94,-51.7 480.41,-47.06 479.6,-54.01"/>
</g>
<!-- Node3 -->
<g id="node3" class="node">
<title>Node3</title>
<g id="a_node3"><a xlink:href="classirr_1_1core_1_1ustring16.html#a4e84291ab0924dc6b4e007bfb6dad84e" target="_top" xlink:title=" ">
<polygon fill="white" stroke="black" points="142,-236 142,-255 272,-255 272,-236 142,-236"/>
<text text-anchor="middle" x="207" y="-243" font-family="Helvetica,sans-Serif" font-size="10.00">irr::core::ustring16::end</text>
</a>
</g>
</g>
<!-- Node1&#45;&gt;Node3 -->
<g id="edge2" class="edge">
<title>Node1&#45;&gt;Node3</title>
<path fill="none" stroke="midnightblue" d="M68.16,-167.68C84.48,-184.34 112.82,-210.79 142,-226.5 146.18,-228.75 150.66,-230.77 155.24,-232.57"/>
<polygon fill="midnightblue" stroke="midnightblue" points="154.12,-235.88 164.71,-235.97 156.48,-229.3 154.12,-235.88"/>
</g>
<!-- Node5 -->
<g id="node5" class="node">
<title>Node5</title>
<g id="a_node5"><a xlink:href="classirr_1_1core_1_1ustring16.html#a6ccdb1699994dcf50ff8f3db0cfb2686" target="_top" xlink:title=" ">
<polygon fill="white" stroke="black" points="490,-219.5 490,-249.5 596,-249.5 596,-219.5 490,-219.5"/>
<text text-anchor="start" x="498" y="-237.5" font-family="Helvetica,sans-Serif" font-size="10.00">irr::core::ustring16</text>
<text text-anchor="middle" x="543" y="-226.5" font-family="Helvetica,sans-Serif" font-size="10.00">::size_raw</text>
</a>
</g>
</g>
<!-- Node1&#45;&gt;Node5 -->
<g id="edge14" class="edge">
<title>Node1&#45;&gt;Node5</title>
<path fill="none" stroke="midnightblue" d="M60.48,-167.71C72.33,-193.3 100.19,-244.18 142,-264.5 258.22,-320.99 416.12,-279.82 494.22,-252.89"/>
<polygon fill="midnightblue" stroke="midnightblue" points="495.52,-256.15 503.79,-249.52 493.19,-249.54 495.52,-256.15"/>
</g>
<!-- Node6 -->
<g id="node6" class="node">
<title>Node6</title>
<g id="a_node6"><a xlink:href="classirr_1_1core_1_1ustring16.html#aa260f60d27f7eef1481f4c885a7a467d" target="_top" xlink:title=" ">
<polygon fill="white" stroke="black" points="328,-0.5 328,-30.5 434,-30.5 434,-0.5 328,-0.5"/>
<text text-anchor="start" x="336" y="-18.5" font-family="Helvetica,sans-Serif" font-size="10.00">irr::core::ustring16</text>
<text text-anchor="middle" x="381" y="-7.5" font-family="Helvetica,sans-Serif" font-size="10.00">::find_raw</text>
</a>
</g>
</g>
<!-- Node1&#45;&gt;Node6 -->
<g id="edge5" class="edge">
<title>Node1&#45;&gt;Node6</title>
<path fill="none" stroke="midnightblue" d="M61.56,-137.33C74.43,-113.3 103.04,-66.99 142,-45.5 196.08,-15.68 267.36,-10.34 317.77,-11.13"/>
<polygon fill="midnightblue" stroke="midnightblue" points="317.8,-14.63 327.88,-11.37 317.97,-7.63 317.8,-14.63"/>
</g>
<!-- Node7 -->
<g id="node7" class="node">
<title>Node7</title>
<g id="a_node7"><a xlink:href="classirr_1_1core_1_1ustring16.html#aed4535dda4bb841389071c473db1ebe9" target="_top" xlink:title=" ">
<polygon fill="white" stroke="black" points="154,-88.5 154,-118.5 260,-118.5 260,-88.5 154,-88.5"/>
<text text-anchor="start" x="162" y="-106.5" font-family="Helvetica,sans-Serif" font-size="10.00">irr::core::ustring16</text>
<text text-anchor="middle" x="207" y="-95.5" font-family="Helvetica,sans-Serif" font-size="10.00">::reallocate</text>
</a>
</g>
</g>
<!-- Node1&#45;&gt;Node7 -->
<g id="edge7" class="edge">
<title>Node1&#45;&gt;Node7</title>
<path fill="none" stroke="midnightblue" d="M100.85,-137.4C116.23,-132.44 133.5,-126.87 149.52,-121.71"/>
<polygon fill="midnightblue" stroke="midnightblue" points="150.87,-124.95 159.31,-118.55 148.72,-118.29 150.87,-124.95"/>
</g>
<!-- Node8 -->
<g id="node8" class="node">
<title>Node8</title>
<g id="a_node8"><a xlink:href="classirr_1_1core_1_1ustring16.html#afeb6ddecc4dcad1399fd63921c333c80" target="_top" xlink:title=" ">
<polygon fill="white" stroke="black" points="154,-137.5 154,-167.5 260,-167.5 260,-137.5 154,-137.5"/>
<text text-anchor="start" x="162" y="-155.5" font-family="Helvetica,sans-Serif" font-size="10.00">irr::core::ustring16</text>
<text text-anchor="middle" x="207" y="-144.5" font-family="Helvetica,sans-Serif" font-size="10.00">::replace</text>
</a>
</g>
</g>
<!-- Node1&#45;&gt;Node8 -->
<g id="edge8" class="edge">
<title>Node1&#45;&gt;Node8</title>
<path fill="none" stroke="midnightblue" d="M106.31,-152.5C118.32,-152.5 131.2,-152.5 143.59,-152.5"/>
<polygon fill="midnightblue" stroke="midnightblue" points="143.85,-156 153.85,-152.5 143.85,-149 143.85,-156"/>
</g>
<!-- Node10 -->
<g id="node10" class="node">
<title>Node10</title>
<g id="a_node10"><a xlink:href="classirr_1_1core_1_1ustring16.html#aa8379341f14aaeef408d969620f87852" target="_top" xlink:title=" ">
<polygon fill="white" stroke="black" points="154,-186.5 154,-216.5 260,-216.5 260,-186.5 154,-186.5"/>
<text text-anchor="start" x="162" y="-204.5" font-family="Helvetica,sans-Serif" font-size="10.00">irr::core::ustring16</text>
<text text-anchor="middle" x="207" y="-193.5" font-family="Helvetica,sans-Serif" font-size="10.00">::size</text>
</a>
</g>
</g>
<!-- Node1&#45;&gt;Node10 -->
<g id="edge12" class="edge">
<title>Node1&#45;&gt;Node10</title>
<path fill="none" stroke="midnightblue" d="M100.85,-167.6C116.23,-172.56 133.5,-178.13 149.52,-183.29"/>
<polygon fill="midnightblue" stroke="midnightblue" points="148.72,-186.71 159.31,-186.45 150.87,-180.05 148.72,-186.71"/>
</g>
<!-- Node4 -->
<g id="node4" class="node">
<title>Node4</title>
<g id="a_node4"><a xlink:href="classirr_1_1core_1_1ustring16_1_1__ustring16__const__iterator.html#a981163b41ee4bd0f594118d90ffffe1c" target="_top" xlink:title="Moves the iterator to the end of the string.">
<polygon fill="white" stroke="black" points="308,-214 308,-255 454,-255 454,-214 308,-214"/>
<text text-anchor="start" x="316" y="-243" font-family="Helvetica,sans-Serif" font-size="10.00">irr::core::ustring16</text>
<text text-anchor="start" x="316" y="-232" font-family="Helvetica,sans-Serif" font-size="10.00">::_ustring16_const_iterator</text>
<text text-anchor="middle" x="381" y="-221" font-family="Helvetica,sans-Serif" font-size="10.00">::toEnd</text>
</a>
</g>
</g>
<!-- Node3&#45;&gt;Node4 -->
<g id="edge3" class="edge">
<title>Node3&#45;&gt;Node4</title>
<path fill="none" stroke="midnightblue" d="M272.05,-241.4C280.42,-240.87 289.09,-240.31 297.72,-239.76"/>
<polygon fill="midnightblue" stroke="midnightblue" points="298.04,-243.25 307.8,-239.12 297.59,-236.26 298.04,-243.25"/>
</g>
<!-- Node4&#45;&gt;Node5 -->
<g id="edge4" class="edge">
<title>Node4&#45;&gt;Node5</title>
<path fill="none" stroke="midnightblue" d="M454.04,-234.5C462.65,-234.5 471.39,-234.5 479.84,-234.5"/>
<polygon fill="midnightblue" stroke="midnightblue" points="479.99,-238 489.99,-234.5 479.99,-231 479.99,-238"/>
</g>
<!-- Node6&#45;&gt;Node2 -->
<g id="edge6" class="edge">
<title>Node6&#45;&gt;Node2</title>
<path fill="none" stroke="midnightblue" d="M434.39,-29.91C448.97,-33.92 464.94,-38.31 480.01,-42.45"/>
<polygon fill="midnightblue" stroke="midnightblue" points="479.2,-45.86 489.77,-45.14 481.05,-39.11 479.2,-45.86"/>
</g>
<!-- Node9 -->
<g id="node9" class="node">
<title>Node9</title>
<g id="a_node9"><a xlink:href="classirr_1_1core_1_1ustring16_1_1__ustring16__const__iterator.html#ada60fedde4f9b8b92e318794b4d9140a" target="_top" xlink:title="Is the iterator at the end of the string?">
<polygon fill="white" stroke="black" points="308,-143 308,-184 454,-184 454,-143 308,-143"/>
<text text-anchor="start" x="316" y="-172" font-family="Helvetica,sans-Serif" font-size="10.00">irr::core::ustring16</text>
<text text-anchor="start" x="316" y="-161" font-family="Helvetica,sans-Serif" font-size="10.00">::_ustring16_const_iterator</text>
<text text-anchor="middle" x="381" y="-150" font-family="Helvetica,sans-Serif" font-size="10.00">::atEnd</text>
</a>
</g>
</g>
<!-- Node8&#45;&gt;Node9 -->
<g id="edge9" class="edge">
<title>Node8&#45;&gt;Node9</title>
<path fill="none" stroke="midnightblue" d="M260.07,-155.83C271.93,-156.59 284.82,-157.41 297.59,-158.23"/>
<polygon fill="midnightblue" stroke="midnightblue" points="297.59,-161.74 307.8,-158.88 298.04,-154.75 297.59,-161.74"/>
</g>
<!-- Node9&#45;&gt;Node2 -->
<g id="edge10" class="edge">
<title>Node9&#45;&gt;Node2</title>
<path fill="none" stroke="midnightblue" d="M413.61,-142.95C441.55,-124.79 482.11,-98.43 510.13,-80.22"/>
<polygon fill="midnightblue" stroke="midnightblue" points="512.27,-83 518.75,-74.61 508.46,-77.13 512.27,-83"/>
</g>
<!-- Node9&#45;&gt;Node5 -->
<g id="edge11" class="edge">
<title>Node9&#45;&gt;Node5</title>
<path fill="none" stroke="midnightblue" d="M428.28,-184.04C450.47,-193.88 476.89,-205.61 498.68,-215.28"/>
<polygon fill="midnightblue" stroke="midnightblue" points="497.47,-218.57 508.03,-219.42 500.3,-212.17 497.47,-218.57"/>
</g>
<!-- Node10&#45;&gt;Node9 -->
<g id="edge13" class="edge">
<title>Node10&#45;&gt;Node9</title>
<path fill="none" stroke="midnightblue" d="M260.07,-190C272.05,-187.35 285.07,-184.47 297.97,-181.62"/>
<polygon fill="midnightblue" stroke="midnightblue" points="298.79,-185.03 307.8,-179.45 297.28,-178.19 298.79,-185.03"/>
</g>
</g>
</svg>
        <g id="navigator" transform="translate(0 0)" fill="#404254">
                <rect fill="#f2f5e9" fill-opacity="0.5" stroke="#606060" stroke-width=".5" x="0" y="0" width="60" height="60"/>
                <use id="zoomplus" xlink:href="#zoomPlus" x="17" y="9" onmousedown="handleZoom(evt,'in')"/>
                <use id="zoomminus" xlink:href="#zoomMin" x="42" y="9" onmousedown="handleZoom(evt,'out')"/>
                <use id="reset" xlink:href="#resetDef" x="30" y="36" onmousedown="handleReset()"/>
                <g id="arrowUp" xlink:href="#dirArrow" transform="translate(30 24)" onmousedown="handlePan(0,-1)">
                  <use xlink:href="#rim" fill="#404040">
                        <set attributeName="fill" to="#808080" begin="arrowUp.mouseover" end="arrowUp.mouseout"/>
                  </use>
                  <path fill="none" stroke="white" stroke-width="1.5" d="M0,-3.0v7 M-2.5,-0.5L0,-3.0L2.5,-0.5"/>
                </g>
                <g id="arrowRight" xlink:href="#dirArrow" transform="rotate(90) translate(36 -43)" onmousedown="handlePan(1,0)">
                  <use xlink:href="#rim" fill="#404040">
                        <set attributeName="fill" to="#808080" begin="arrowRight.mouseover" end="arrowRight.mouseout"/>
                  </use>
                  <path fill="none" stroke="white" stroke-width="1.5" d="M0,-3.0v7 M-2.5,-0.5L0,-3.0L2.5,-0.5"/>
                </g>
                <g id="arrowDown" xlink:href="#dirArrow" transform="rotate(180) translate(-30 -48)" onmousedown="handlePan(0,1)">
                  <use xlink:href="#rim" fill="#404040">
                        <set attributeName="fill" to="#808080" begin="arrowDown.mouseover" end="arrowDown.mouseout"/>
                  </use>
                  <path fill="none" stroke="white" stroke-width="1.5" d="M0,-3.0v7 M-2.5,-0.5L0,-3.0L2.5,-0.5"/>
                </g>
                <g id="arrowLeft" xlink:href="#dirArrow" transform="rotate(270) translate(-36 17)" onmousedown="handlePan(-1,0)">
                  <use xlink:href="#rim" fill="#404040">
                        <set attributeName="fill" to="#808080" begin="arrowLeft.mouseover" end="arrowLeft.mouseout"/>
                  </use>
                  <path fill="none" stroke="white" stroke-width="1.5" d="M0,-3.0v7 M-2.5,-0.5L0,-3.0L2.5,-0.5"/>
                </g>
        </g>
        <svg viewBox="0 0 15 15" width="100%" height="30px" preserveAspectRatio="xMaxYMin meet">
         <g id="arrow_out" transform="scale(0.3 0.3)">
          <a xlink:href="classirr_1_1core_1_1ustring16_ae4158d6af952af5963164e817c5de5f4_cgraph_org.svg" target="_base">
           <rect id="button" ry="5" rx="5" y="6" x="6" height="38" width="38"
                fill="#f2f5e9" fill-opacity="0.5" stroke="#606060" stroke-width="1.0"/>
           <path id="arrow"
             d="M 11.500037,31.436501 C 11.940474,20.09759 22.043105,11.32322 32.158766,21.979434 L 37.068811,17.246167 C 37.068811,17.246167 37.088388,32 37.088388,32 L 22.160133,31.978069 C 22.160133,31.978069 26.997745,27.140456 26.997745,27.140456 C 18.528582,18.264221 13.291696,25.230495 11.500037,31.436501 z"
             style="fill:#404040;"/>
          </a>
         </g>
        </svg>
</svg>
