<?xml version="1.0" encoding="UTF-8" standalone="no"?>
<!DOCTYPE svg PUBLIC "-//W3C//DTD SVG 1.1//EN"
 "http://www.w3.org/Graphics/SVG/1.1/DTD/svg11.dtd">
<!-- Generated by graphviz version 2.43.0 (0)
 -->
<!-- Title: SimpleTestThread Pages: 1 -->
<!--zoomable 173 -->
<svg id="main" version="1.1" xmlns="http://www.w3.org/2000/svg" xmlns:xlink="http://www.w3.org/1999/xlink" xml:space="preserve" onload="init(evt)">
<style type="text/css"><![CDATA[
.edge:hover path { stroke: red; }
.edge:hover polygon { stroke: red; fill: red; }
]]></style>
<script type="text/javascript"><![CDATA[
var edges = document.getElementsByTagName('g');
if (edges && edges.length) {
  for (var i=0;i<edges.length;i++) {
    if (edges[i].id.substr(0,4)=='edge') {
      edges[i].setAttribute('class','edge');
    }
  }
}
]]></script>
        <defs>
                <circle id="rim" cx="0" cy="0" r="7"/>
                <circle id="rim2" cx="0" cy="0" r="3.5"/>
                <g id="zoomPlus">
                        <use xlink:href="#rim" fill="#404040">
                                <set attributeName="fill" to="#808080" begin="zoomplus.mouseover" end="zoomplus.mouseout"/>
                        </use>
                        <path d="M-4,0h8M0,-4v8" fill="none" stroke="white" stroke-width="1.5" pointer-events="none"/>
                </g>
                <g id="zoomMin">
                        <use xlink:href="#rim" fill="#404040">
                                <set attributeName="fill" to="#808080" begin="zoomminus.mouseover" end="zoomminus.mouseout"/>
                        </use>
                        <path d="M-4,0h8" fill="none" stroke="white" stroke-width="1.5" pointer-events="none"/>
                </g>
                <g id="dirArrow">
                        <path fill="none" stroke="white" stroke-width="1.5" d="M0,-3.0v7 M-2.5,-0.5L0,-3.0L2.5,-0.5"/>
                </g>
               <g id="resetDef">
                       <use xlink:href="#rim2" fill="#404040">
                               <set attributeName="fill" to="#808080" begin="reset.mouseover" end="reset.mouseout"/>
                       </use>
               </g>
        </defs>

<script type="text/javascript">
var viewWidth = 562;
var viewHeight = 173;
var sectionId = 'dynsection-1';
</script>
<script xlink:href="svgpan.js"/>
<svg id="graph" class="graph">
<g id="viewport">
<title>SimpleTestThread</title>
<polygon fill="white" stroke="transparent" points="-4,4 -4,-169 558,-169 558,4 -4,4"/>
<!-- Node1 -->
<g id="node1" class="node">
<title>Node1</title>
<g id="a_node1"><a xlink:title=" ">
<polygon fill="#bfbfbf" stroke="black" points="286,-0.5 286,-19.5 390,-19.5 390,-0.5 286,-0.5"/>
<text text-anchor="middle" x="338" y="-7.5" font-family="Helvetica,sans-Serif" font-size="10.00">SimpleTestThread</text>
</a>
</g>
</g>
<!-- Node2 -->
<g id="node2" class="node">
<title>Node2</title>
<g id="a_node2"><a xlink:href="classThread.html" target="_top" xlink:title=" ">
<polygon fill="white" stroke="black" points="276,-67.5 276,-86.5 326,-86.5 326,-67.5 276,-67.5"/>
<text text-anchor="middle" x="301" y="-74.5" font-family="Helvetica,sans-Serif" font-size="10.00">Thread</text>
</a>
</g>
</g>
<!-- Node2&#45;&gt;Node1 -->
<g id="edge1" class="edge">
<title>Node2&#45;&gt;Node1</title>
<path fill="none" stroke="midnightblue" d="M310.94,-58.53C318.11,-45.95 327.47,-29.51 333.09,-19.63"/>
<polygon fill="midnightblue" stroke="midnightblue" points="307.9,-56.81 305.99,-67.23 313.98,-60.27 307.9,-56.81"/>
</g>
<!-- Node3 -->
<g id="node3" class="node">
<title>Node3</title>
<g id="a_node3"><a xlink:title=" ">
<polygon fill="white" stroke="#bfbfbf" points="0,-145.5 0,-164.5 48,-164.5 48,-145.5 0,-145.5"/>
<text text-anchor="middle" x="24" y="-152.5" font-family="Helvetica,sans-Serif" font-size="10.00">mutex</text>
</a>
</g>
</g>
<!-- Node3&#45;&gt;Node2 -->
<g id="edge2" class="edge">
<title>Node3&#45;&gt;Node2</title>
<path fill="none" stroke="#9a32cd" stroke-dasharray="5,2" d="M27.18,-135.42C30,-124.79 35.27,-112.18 45,-105 81.15,-78.34 218.35,-76.9 275.63,-77.51"/>
<polygon fill="#9a32cd" stroke="#9a32cd" points="23.7,-134.96 25.03,-145.47 30.54,-136.42 23.7,-134.96"/>
<text text-anchor="middle" x="105.5" y="-119" font-family="Helvetica,sans-Serif" font-size="10.00"> m_start_finished_mutex</text>
<text text-anchor="middle" x="105.5" y="-108" font-family="Helvetica,sans-Serif" font-size="10.00">m_mutex</text>
</g>
<!-- Node4 -->
<g id="node4" class="node">
<title>Node4</title>
<g id="a_node4"><a xlink:title=" ">
<polygon fill="white" stroke="#bfbfbf" points="140,-145.5 140,-164.5 196,-164.5 196,-145.5 140,-145.5"/>
<text text-anchor="middle" x="168" y="-152.5" font-family="Helvetica,sans-Serif" font-size="10.00">thread *</text>
</a>
</g>
</g>
<!-- Node4&#45;&gt;Node2 -->
<g id="edge3" class="edge">
<title>Node4&#45;&gt;Node2</title>
<path fill="none" stroke="#9a32cd" stroke-dasharray="5,2" d="M168,-135.33C169,-125.05 172.01,-112.83 180,-105 193.38,-91.9 244.47,-84.13 275.83,-80.5"/>
<polygon fill="#9a32cd" stroke="#9a32cd" points="164.5,-135.28 167.55,-145.42 171.49,-135.58 164.5,-135.28"/>
<text text-anchor="middle" x="215" y="-113.5" font-family="Helvetica,sans-Serif" font-size="10.00"> m_thread_obj</text>
</g>
<!-- Node5 -->
<g id="node5" class="node">
<title>Node5</title>
<g id="a_node5"><a xlink:href="classbool.html" target="_top" xlink:title=" ">
<polygon fill="white" stroke="black" points="242,-145.5 242,-164.5 280,-164.5 280,-145.5 242,-145.5"/>
<text text-anchor="middle" x="261" y="-152.5" font-family="Helvetica,sans-Serif" font-size="10.00">bool</text>
</a>
</g>
</g>
<!-- Node5&#45;&gt;Node2 -->
<g id="edge4" class="edge">
<title>Node5&#45;&gt;Node2</title>
<path fill="none" stroke="#9a32cd" stroke-dasharray="5,2" d="M255.33,-135.62C253.43,-125.94 252.91,-114.21 258,-105 262.52,-96.82 270.67,-90.79 278.67,-86.52"/>
<polygon fill="#9a32cd" stroke="#9a32cd" points="251.97,-136.6 257.84,-145.42 258.75,-134.86 251.97,-136.6"/>
<text text-anchor="middle" x="287" y="-113.5" font-family="Helvetica,sans-Serif" font-size="10.00"> m_joinable</text>
</g>
<!-- Node6 -->
<g id="node6" class="node">
<title>Node6</title>
<g id="a_node6"><a xlink:title=" ">
<polygon fill="white" stroke="#bfbfbf" points="315,-145.5 315,-164.5 359,-164.5 359,-145.5 315,-145.5"/>
<text text-anchor="middle" x="337" y="-152.5" font-family="Helvetica,sans-Serif" font-size="10.00">string</text>
</a>
</g>
</g>
<!-- Node6&#45;&gt;Node2 -->
<g id="edge5" class="edge">
<title>Node6&#45;&gt;Node2</title>
<path fill="none" stroke="#9a32cd" stroke-dasharray="5,2" d="M331.93,-135.52C329.02,-126.13 324.96,-114.68 320,-105 316.65,-98.47 311.9,-91.72 307.99,-86.6"/>
<polygon fill="#9a32cd" stroke="#9a32cd" points="328.65,-136.76 334.8,-145.38 335.37,-134.8 328.65,-136.76"/>
<text text-anchor="middle" x="352" y="-113.5" font-family="Helvetica,sans-Serif" font-size="10.00"> m_name</text>
</g>
<!-- Node7 -->
<g id="node7" class="node">
<title>Node7</title>
<g id="a_node7"><a xlink:title=" ">
<polygon fill="white" stroke="#bfbfbf" points="377,-145.5 377,-164.5 471,-164.5 471,-145.5 377,-145.5"/>
<text text-anchor="middle" x="424" y="-152.5" font-family="Helvetica,sans-Serif" font-size="10.00">atomic&lt; bool &gt;</text>
</a>
</g>
</g>
<!-- Node7&#45;&gt;Node2 -->
<g id="edge6" class="edge">
<title>Node7&#45;&gt;Node2</title>
<path fill="none" stroke="#9a32cd" stroke-dasharray="5,2" d="M411.97,-137.09C403.73,-126.59 391.98,-113.51 379,-105 370.13,-99.18 345.45,-91.07 326.2,-85.26"/>
<polygon fill="#9a32cd" stroke="#9a32cd" points="409.21,-139.25 418.01,-145.15 414.81,-135.05 409.21,-139.25"/>
<text text-anchor="middle" x="442.5" y="-119" font-family="Helvetica,sans-Serif" font-size="10.00"> m_running</text>
<text text-anchor="middle" x="442.5" y="-108" font-family="Helvetica,sans-Serif" font-size="10.00">m_request_stop</text>
</g>
<!-- Node8 -->
<g id="node8" class="node">
<title>Node8</title>
<g id="a_node8"><a xlink:title=" ">
<polygon fill="white" stroke="#bfbfbf" points="499,-145.5 499,-164.5 545,-164.5 545,-145.5 499,-145.5"/>
<text text-anchor="middle" x="522" y="-152.5" font-family="Helvetica,sans-Serif" font-size="10.00">void *</text>
</a>
</g>
</g>
<!-- Node8&#45;&gt;Node2 -->
<g id="edge7" class="edge">
<title>Node8&#45;&gt;Node2</title>
<path fill="none" stroke="#9a32cd" stroke-dasharray="5,2" d="M513.69,-136.26C507.61,-125.36 498.29,-112.17 486,-105 427.61,-70.96 401.39,-99.68 335,-87 332.12,-86.45 329.13,-85.79 326.16,-85.08"/>
<polygon fill="#9a32cd" stroke="#9a32cd" points="510.68,-138.07 518.35,-145.38 516.92,-134.88 510.68,-138.07"/>
<text text-anchor="middle" x="530.5" y="-113.5" font-family="Helvetica,sans-Serif" font-size="10.00"> m_retval</text>
</g>
<!-- Node9 -->
<g id="node9" class="node">
<title>Node9</title>
<g id="a_node9"><a xlink:title=" ">
<polygon fill="white" stroke="#bfbfbf" points="344.5,-67.5 344.5,-86.5 405.5,-86.5 405.5,-67.5 344.5,-67.5"/>
<text text-anchor="middle" x="375" y="-74.5" font-family="Helvetica,sans-Serif" font-size="10.00">unsigned</text>
</a>
</g>
</g>
<!-- Node9&#45;&gt;Node1 -->
<g id="edge8" class="edge">
<title>Node9&#45;&gt;Node1</title>
<path fill="none" stroke="#9a32cd" stroke-dasharray="5,2" d="M365.06,-58.53C357.89,-45.95 348.53,-29.51 342.91,-19.63"/>
<polygon fill="#9a32cd" stroke="#9a32cd" points="362.02,-60.27 370.01,-67.23 368.1,-56.81 362.02,-60.27"/>
<text text-anchor="middle" x="386" y="-41" font-family="Helvetica,sans-Serif" font-size="10.00"> m_interval</text>
</g>
</g>
</svg>
        <g id="navigator" transform="translate(0 0)" fill="#404254">
                <rect fill="#f2f5e9" fill-opacity="0.5" stroke="#606060" stroke-width=".5" x="0" y="0" width="60" height="60"/>
                <use id="zoomplus" xlink:href="#zoomPlus" x="17" y="9" onmousedown="handleZoom(evt,'in')"/>
                <use id="zoomminus" xlink:href="#zoomMin" x="42" y="9" onmousedown="handleZoom(evt,'out')"/>
                <use id="reset" xlink:href="#resetDef" x="30" y="36" onmousedown="handleReset()"/>
                <g id="arrowUp" xlink:href="#dirArrow" transform="translate(30 24)" onmousedown="handlePan(0,-1)">
                  <use xlink:href="#rim" fill="#404040">
                        <set attributeName="fill" to="#808080" begin="arrowUp.mouseover" end="arrowUp.mouseout"/>
                  </use>
                  <path fill="none" stroke="white" stroke-width="1.5" d="M0,-3.0v7 M-2.5,-0.5L0,-3.0L2.5,-0.5"/>
                </g>
                <g id="arrowRight" xlink:href="#dirArrow" transform="rotate(90) translate(36 -43)" onmousedown="handlePan(1,0)">
                  <use xlink:href="#rim" fill="#404040">
                        <set attributeName="fill" to="#808080" begin="arrowRight.mouseover" end="arrowRight.mouseout"/>
                  </use>
                  <path fill="none" stroke="white" stroke-width="1.5" d="M0,-3.0v7 M-2.5,-0.5L0,-3.0L2.5,-0.5"/>
                </g>
                <g id="arrowDown" xlink:href="#dirArrow" transform="rotate(180) translate(-30 -48)" onmousedown="handlePan(0,1)">
                  <use xlink:href="#rim" fill="#404040">
                        <set attributeName="fill" to="#808080" begin="arrowDown.mouseover" end="arrowDown.mouseout"/>
                  </use>
                  <path fill="none" stroke="white" stroke-width="1.5" d="M0,-3.0v7 M-2.5,-0.5L0,-3.0L2.5,-0.5"/>
                </g>
                <g id="arrowLeft" xlink:href="#dirArrow" transform="rotate(270) translate(-36 17)" onmousedown="handlePan(-1,0)">
                  <use xlink:href="#rim" fill="#404040">
                        <set attributeName="fill" to="#808080" begin="arrowLeft.mouseover" end="arrowLeft.mouseout"/>
                  </use>
                  <path fill="none" stroke="white" stroke-width="1.5" d="M0,-3.0v7 M-2.5,-0.5L0,-3.0L2.5,-0.5"/>
                </g>
        </g>
        <svg viewBox="0 0 15 15" width="100%" height="30px" preserveAspectRatio="xMaxYMin meet">
         <g id="arrow_out" transform="scale(0.3 0.3)">
          <a xlink:href="classSimpleTestThread__coll__graph_org.svg" target="_base">
           <rect id="button" ry="5" rx="5" y="6" x="6" height="38" width="38"
                fill="#f2f5e9" fill-opacity="0.5" stroke="#606060" stroke-width="1.0"/>
           <path id="arrow"
             d="M 11.500037,31.436501 C 11.940474,20.09759 22.043105,11.32322 32.158766,21.979434 L 37.068811,17.246167 C 37.068811,17.246167 37.088388,32 37.088388,32 L 22.160133,31.978069 C 22.160133,31.978069 26.997745,27.140456 26.997745,27.140456 C 18.528582,18.264221 13.291696,25.230495 11.500037,31.436501 z"
             style="fill:#404040;"/>
          </a>
         </g>
        </svg>
</svg>
