<?xml version="1.0" encoding="UTF-8" standalone="no"?>
<!DOCTYPE svg PUBLIC "-//W3C//DTD SVG 1.1//EN"
 "http://www.w3.org/Graphics/SVG/1.1/DTD/svg11.dtd">
<!-- Generated by graphviz version 2.43.0 (0)
 -->
<!-- Title: server::ActiveObjectMgr Pages: 1 -->
<svg width="366pt" height="230pt"
 viewBox="0.00 0.00 365.50 230.00" xmlns="http://www.w3.org/2000/svg" xmlns:xlink="http://www.w3.org/1999/xlink">
<g id="graph0" class="graph" transform="scale(1 1) rotate(0) translate(4 226)">
<title>server::ActiveObjectMgr</title>
<polygon fill="white" stroke="transparent" points="-4,4 -4,-226 361.5,-226 361.5,4 -4,4"/>
<!-- Node1 -->
<g id="node1" class="node">
<title>Node1</title>
<g id="a_node1"><a xlink:title=" ">
<polygon fill="#bfbfbf" stroke="black" points="82.5,-0.5 82.5,-19.5 216.5,-19.5 216.5,-0.5 82.5,-0.5"/>
<text text-anchor="middle" x="149.5" y="-7.5" font-family="Helvetica,sans-Serif" font-size="10.00">server::ActiveObjectMgr</text>
</a>
</g>
</g>
<!-- Node2 -->
<g id="node2" class="node">
<title>Node2</title>
<g id="a_node2"><a xlink:href="classActiveObjectMgr.html" target="_top" xlink:title=" ">
<polygon fill="white" stroke="black" points="64,-57.5 64,-87.5 235,-87.5 235,-57.5 64,-57.5"/>
<text text-anchor="start" x="72" y="-75.5" font-family="Helvetica,sans-Serif" font-size="10.00">ActiveObjectMgr&lt; ServerActive</text>
<text text-anchor="middle" x="149.5" y="-64.5" font-family="Helvetica,sans-Serif" font-size="10.00">Object &gt;</text>
</a>
</g>
</g>
<!-- Node2&#45;&gt;Node1 -->
<g id="edge1" class="edge">
<title>Node2&#45;&gt;Node1</title>
<path fill="none" stroke="midnightblue" d="M149.5,-47.35C149.5,-37.51 149.5,-26.78 149.5,-19.54"/>
<polygon fill="midnightblue" stroke="midnightblue" points="146,-47.47 149.5,-57.47 153,-47.47 146,-47.47"/>
</g>
<!-- Node3 -->
<g id="node3" class="node">
<title>Node3</title>
<g id="a_node3"><a xlink:href="classstd_1_1map_3_01u16_00_01ServerActiveObject_01_5_01_4.html" target="_top" xlink:title=" ">
<polygon fill="white" stroke="black" points="0,-135.5 0,-154.5 187,-154.5 187,-135.5 0,-135.5"/>
<text text-anchor="middle" x="93.5" y="-142.5" font-family="Helvetica,sans-Serif" font-size="10.00">map&lt; u16, ServerActiveObject * &gt;</text>
</a>
</g>
</g>
<!-- Node3&#45;&gt;Node2 -->
<g id="edge2" class="edge">
<title>Node3&#45;&gt;Node2</title>
<path fill="none" stroke="#9a32cd" stroke-dasharray="5,2" d="M106.69,-127.39C116.31,-115.28 129.2,-99.05 138.32,-87.58"/>
<polygon fill="#9a32cd" stroke="#9a32cd" points="103.85,-125.35 100.37,-135.36 109.33,-129.7 103.85,-125.35"/>
<text text-anchor="middle" x="168" y="-109" font-family="Helvetica,sans-Serif" font-size="10.00"> m_active_objects</text>
</g>
<!-- Node4 -->
<g id="node4" class="node">
<title>Node4</title>
<g id="a_node4"><a xlink:href="classActiveObjectMgr.html" target="_top" xlink:title=" ">
<polygon fill="white" stroke="black" points="205.5,-135.5 205.5,-154.5 331.5,-154.5 331.5,-135.5 205.5,-135.5"/>
<text text-anchor="middle" x="268.5" y="-142.5" font-family="Helvetica,sans-Serif" font-size="10.00">ActiveObjectMgr&lt; T &gt;</text>
</a>
</g>
</g>
<!-- Node4&#45;&gt;Node2 -->
<g id="edge3" class="edge">
<title>Node4&#45;&gt;Node2</title>
<path fill="none" stroke="orange" stroke-dasharray="5,2" d="M249.14,-129.31C239.05,-121.94 226.37,-113.09 214.5,-106 203.56,-99.47 191.13,-93.03 180.1,-87.63"/>
<polygon fill="orange" stroke="orange" points="247.13,-132.18 257.25,-135.33 251.3,-126.56 247.13,-132.18"/>
<text text-anchor="middle" x="290.5" y="-109" font-family="Helvetica,sans-Serif" font-size="10.00"> &lt; ServerActiveObject &gt;</text>
</g>
<!-- Node5 -->
<g id="node5" class="node">
<title>Node5</title>
<g id="a_node5"><a xlink:title=" ">
<polygon fill="white" stroke="#bfbfbf" points="219,-202.5 219,-221.5 318,-221.5 318,-202.5 219,-202.5"/>
<text text-anchor="middle" x="268.5" y="-209.5" font-family="Helvetica,sans-Serif" font-size="10.00">map&lt; u16, T * &gt;</text>
</a>
</g>
</g>
<!-- Node5&#45;&gt;Node4 -->
<g id="edge4" class="edge">
<title>Node5&#45;&gt;Node4</title>
<path fill="none" stroke="#9a32cd" stroke-dasharray="5,2" d="M268.5,-192.04C268.5,-179.67 268.5,-164.12 268.5,-154.63"/>
<polygon fill="#9a32cd" stroke="#9a32cd" points="265,-192.23 268.5,-202.23 272,-192.23 265,-192.23"/>
<text text-anchor="middle" x="313" y="-176" font-family="Helvetica,sans-Serif" font-size="10.00"> m_active_objects</text>
</g>
</g>
</svg>
