<?xml version="1.0" encoding="UTF-8" standalone="no"?>
<!DOCTYPE svg PUBLIC "-//W3C//DTD SVG 1.1//EN"
 "http://www.w3.org/Graphics/SVG/1.1/DTD/svg11.dtd">
<!-- Generated by graphviz version 2.43.0 (0)
 -->
<!-- Title: ModChannelMgr Pages: 1 -->
<svg width="190pt" height="117pt"
 viewBox="0.00 0.00 190.00 117.00" xmlns="http://www.w3.org/2000/svg" xmlns:xlink="http://www.w3.org/1999/xlink">
<g id="graph0" class="graph" transform="scale(1 1) rotate(0) translate(4 113)">
<title>ModChannelMgr</title>
<polygon fill="white" stroke="transparent" points="-4,4 -4,-113 186,-113 186,4 -4,4"/>
<!-- Node1 -->
<g id="node1" class="node">
<title>Node1</title>
<g id="a_node1"><a xlink:title=" ">
<polygon fill="#bfbfbf" stroke="black" points="17,-0.5 17,-19.5 113,-19.5 113,-0.5 17,-0.5"/>
<text text-anchor="middle" x="65" y="-7.5" font-family="Helvetica,sans-Serif" font-size="10.00">ModChannelMgr</text>
</a>
</g>
</g>
<!-- Node2 -->
<g id="node2" class="node">
<title>Node2</title>
<g id="a_node2"><a xlink:title=" ">
<polygon fill="white" stroke="#bfbfbf" points="0,-67.5 0,-108.5 130,-108.5 130,-67.5 0,-67.5"/>
<text text-anchor="start" x="8" y="-96.5" font-family="Helvetica,sans-Serif" font-size="10.00">unordered_map&lt; std</text>
<text text-anchor="start" x="8" y="-85.5" font-family="Helvetica,sans-Serif" font-size="10.00">::string, std::unique</text>
<text text-anchor="middle" x="65" y="-74.5" font-family="Helvetica,sans-Serif" font-size="10.00">_ptr&lt; ModChannel &gt; &gt;</text>
</a>
</g>
</g>
<!-- Node2&#45;&gt;Node1 -->
<g id="edge1" class="edge">
<title>Node2&#45;&gt;Node1</title>
<path fill="none" stroke="#9a32cd" stroke-dasharray="5,2" d="M65,-57.05C65,-43.56 65,-28.65 65,-19.55"/>
<polygon fill="#9a32cd" stroke="#9a32cd" points="61.5,-57.43 65,-67.43 68.5,-57.43 61.5,-57.43"/>
<text text-anchor="middle" x="123.5" y="-41" font-family="Helvetica,sans-Serif" font-size="10.00"> m_registered_channels</text>
</g>
</g>
</svg>
