<?xml version="1.0" encoding="UTF-8" standalone="no"?>
<!DOCTYPE svg PUBLIC "-//W3C//DTD SVG 1.1//EN"
 "http://www.w3.org/Graphics/SVG/1.1/DTD/svg11.dtd">
<!-- Generated by graphviz version 2.43.0 (0)
 -->
<!-- Title: OreVein Pages: 1 -->
<svg width="162pt" height="140pt"
 viewBox="0.00 0.00 161.50 140.00" xmlns="http://www.w3.org/2000/svg" xmlns:xlink="http://www.w3.org/1999/xlink">
<g id="graph0" class="graph" transform="scale(1 1) rotate(0) translate(4 136)">
<title>OreVein</title>
<polygon fill="white" stroke="transparent" points="-4,4 -4,-136 157.5,-136 157.5,4 -4,4"/>
<!-- Node1 -->
<g id="node1" class="node">
<title>Node1</title>
<g id="a_node1"><a xlink:title=" ">
<polygon fill="#bfbfbf" stroke="black" points="40.5,-0.5 40.5,-19.5 95.5,-19.5 95.5,-0.5 40.5,-0.5"/>
<text text-anchor="middle" x="68" y="-7.5" font-family="Helvetica,sans-Serif" font-size="10.00">OreVein</text>
</a>
</g>
</g>
<!-- Node2 -->
<g id="node2" class="node">
<title>Node2</title>
<g id="a_node2"><a xlink:href="classOre.html" target="_top" xlink:title=" ">
<polygon fill="white" stroke="black" points="51,-56.5 51,-75.5 85,-75.5 85,-56.5 51,-56.5"/>
<text text-anchor="middle" x="68" y="-63.5" font-family="Helvetica,sans-Serif" font-size="10.00">Ore</text>
</a>
</g>
</g>
<!-- Node2&#45;&gt;Node1 -->
<g id="edge1" class="edge">
<title>Node2&#45;&gt;Node1</title>
<path fill="none" stroke="midnightblue" d="M68,-45.8C68,-36.91 68,-26.78 68,-19.75"/>
<polygon fill="midnightblue" stroke="midnightblue" points="64.5,-46.08 68,-56.08 71.5,-46.08 64.5,-46.08"/>
</g>
<!-- Node3 -->
<g id="node3" class="node">
<title>Node3</title>
<g id="a_node3"><a xlink:href="classObjDef.html" target="_top" xlink:title=" ">
<polygon fill="white" stroke="black" points="0,-112.5 0,-131.5 50,-131.5 50,-112.5 0,-112.5"/>
<text text-anchor="middle" x="25" y="-119.5" font-family="Helvetica,sans-Serif" font-size="10.00">ObjDef</text>
</a>
</g>
</g>
<!-- Node3&#45;&gt;Node2 -->
<g id="edge2" class="edge">
<title>Node3&#45;&gt;Node2</title>
<path fill="none" stroke="midnightblue" d="M38.42,-104.14C45.91,-94.74 54.94,-83.4 61.03,-75.75"/>
<polygon fill="midnightblue" stroke="midnightblue" points="35.59,-102.08 32.1,-112.08 41.07,-106.44 35.59,-102.08"/>
</g>
<!-- Node4 -->
<g id="node4" class="node">
<title>Node4</title>
<g id="a_node4"><a xlink:href="classNodeResolver.html" target="_top" xlink:title=" ">
<polygon fill="white" stroke="black" points="68.5,-112.5 68.5,-131.5 153.5,-131.5 153.5,-112.5 68.5,-112.5"/>
<text text-anchor="middle" x="111" y="-119.5" font-family="Helvetica,sans-Serif" font-size="10.00">NodeResolver</text>
</a>
</g>
</g>
<!-- Node4&#45;&gt;Node2 -->
<g id="edge3" class="edge">
<title>Node4&#45;&gt;Node2</title>
<path fill="none" stroke="midnightblue" d="M97.58,-104.14C90.09,-94.74 81.06,-83.4 74.97,-75.75"/>
<polygon fill="midnightblue" stroke="midnightblue" points="94.93,-106.44 103.9,-112.08 100.41,-102.08 94.93,-106.44"/>
</g>
</g>
</svg>
