<?xml version="1.0" encoding="UTF-8" standalone="no"?>
<!DOCTYPE svg PUBLIC "-//W3C//DTD SVG 1.1//EN"
 "http://www.w3.org/Graphics/SVG/1.1/DTD/svg11.dtd">
<!-- Generated by graphviz version 2.43.0 (0)
 -->
<!-- Title: ServerModManager Pages: 1 -->
<svg width="279pt" height="184pt"
 viewBox="0.00 0.00 279.00 184.00" xmlns="http://www.w3.org/2000/svg" xmlns:xlink="http://www.w3.org/1999/xlink">
<g id="graph0" class="graph" transform="scale(1 1) rotate(0) translate(4 180)">
<title>ServerModManager</title>
<polygon fill="white" stroke="transparent" points="-4,4 -4,-180 275,-180 275,4 -4,4"/>
<!-- Node1 -->
<g id="node1" class="node">
<title>Node1</title>
<g id="a_node1"><a xlink:title=" ">
<polygon fill="#bfbfbf" stroke="black" points="67,-0.5 67,-19.5 179,-19.5 179,-0.5 67,-0.5"/>
<text text-anchor="middle" x="123" y="-7.5" font-family="Helvetica,sans-Serif" font-size="10.00">ServerModManager</text>
</a>
</g>
</g>
<!-- Node2 -->
<g id="node2" class="node">
<title>Node2</title>
<g id="a_node2"><a xlink:href="classModConfiguration.html" target="_top" xlink:title=" ">
<polygon fill="white" stroke="black" points="71.5,-67.5 71.5,-86.5 174.5,-86.5 174.5,-67.5 71.5,-67.5"/>
<text text-anchor="middle" x="123" y="-74.5" font-family="Helvetica,sans-Serif" font-size="10.00">ModConfiguration</text>
</a>
</g>
</g>
<!-- Node2&#45;&gt;Node1 -->
<g id="edge1" class="edge">
<title>Node2&#45;&gt;Node1</title>
<path fill="none" stroke="#9a32cd" stroke-dasharray="5,2" d="M123,-57.04C123,-44.67 123,-29.12 123,-19.63"/>
<polygon fill="#9a32cd" stroke="#9a32cd" points="119.5,-57.23 123,-67.23 126.5,-57.23 119.5,-57.23"/>
<text text-anchor="middle" x="156.5" y="-41" font-family="Helvetica,sans-Serif" font-size="10.00"> configuration</text>
</g>
<!-- Node3 -->
<g id="node3" class="node">
<title>Node3</title>
<g id="a_node3"><a xlink:title=" ">
<polygon fill="white" stroke="#bfbfbf" points="0,-151 0,-170 114,-170 114,-151 0,-151"/>
<text text-anchor="middle" x="57" y="-158" font-family="Helvetica,sans-Serif" font-size="10.00">vector&lt; ModSpec &gt;</text>
</a>
</g>
</g>
<!-- Node3&#45;&gt;Node2 -->
<g id="edge2" class="edge">
<title>Node3&#45;&gt;Node2</title>
<path fill="none" stroke="#9a32cd" stroke-dasharray="5,2" d="M55.93,-140.64C56.22,-129.28 58.38,-115.11 66,-105 72.33,-96.61 81.93,-90.71 91.45,-86.62"/>
<polygon fill="#9a32cd" stroke="#9a32cd" points="52.43,-140.87 56.11,-150.81 59.43,-140.75 52.43,-140.87"/>
<text text-anchor="middle" x="116.5" y="-119" font-family="Helvetica,sans-Serif" font-size="10.00"> m_sorted_mods</text>
<text text-anchor="middle" x="116.5" y="-108" font-family="Helvetica,sans-Serif" font-size="10.00">m_unsatisfied_mods</text>
</g>
<!-- Node4 -->
<g id="node4" class="node">
<title>Node4</title>
<g id="a_node4"><a xlink:title=" ">
<polygon fill="white" stroke="#bfbfbf" points="132.5,-145.5 132.5,-175.5 245.5,-175.5 245.5,-145.5 132.5,-145.5"/>
<text text-anchor="start" x="140.5" y="-163.5" font-family="Helvetica,sans-Serif" font-size="10.00">unordered_set&lt; std</text>
<text text-anchor="middle" x="189" y="-152.5" font-family="Helvetica,sans-Serif" font-size="10.00">::string &gt;</text>
</a>
</g>
</g>
<!-- Node4&#45;&gt;Node2 -->
<g id="edge3" class="edge">
<title>Node4&#45;&gt;Node2</title>
<path fill="none" stroke="#9a32cd" stroke-dasharray="5,2" d="M183,-135.59C179.56,-125.35 174.41,-113.76 167,-105 160.4,-97.2 150.96,-90.99 142.5,-86.51"/>
<polygon fill="#9a32cd" stroke="#9a32cd" points="179.66,-136.65 185.89,-145.22 186.37,-134.63 179.66,-136.65"/>
<text text-anchor="middle" x="225" y="-113.5" font-family="Helvetica,sans-Serif" font-size="10.00"> m_name_conflicts</text>
</g>
</g>
</svg>
