<?xml version="1.0" encoding="UTF-8" standalone="no"?>
<!DOCTYPE svg PUBLIC "-//W3C//DTD SVG 1.1//EN"
 "http://www.w3.org/Graphics/SVG/1.1/DTD/svg11.dtd">
<!-- Generated by graphviz version 2.43.0 (0)
 -->
<!-- Title: irr::io::CArchiveLoaderZIP::isALoadableFileFormat Pages: 1 -->
<svg width="696pt" height="88pt"
 viewBox="0.00 0.00 696.00 88.00" xmlns="http://www.w3.org/2000/svg" xmlns:xlink="http://www.w3.org/1999/xlink">
<g id="graph0" class="graph" transform="scale(1 1) rotate(0) translate(4 84)">
<title>irr::io::CArchiveLoaderZIP::isALoadableFileFormat</title>
<polygon fill="white" stroke="transparent" points="-4,4 -4,-84 692,-84 692,4 -4,4"/>
<!-- Node1 -->
<g id="node1" class="node">
<title>Node1</title>
<g id="a_node1"><a xlink:title="returns true if the file maybe is able to be loaded by this class">
<polygon fill="#bfbfbf" stroke="black" points="0,-24.5 0,-54.5 140,-54.5 140,-24.5 0,-24.5"/>
<text text-anchor="start" x="8" y="-42.5" font-family="Helvetica,sans-Serif" font-size="10.00">irr::io::CArchiveLoaderZIP</text>
<text text-anchor="middle" x="70" y="-31.5" font-family="Helvetica,sans-Serif" font-size="10.00">::isALoadableFileFormat</text>
</a>
</g>
</g>
<!-- Node2 -->
<g id="node2" class="node">
<title>Node2</title>
<g id="a_node2"><a xlink:href="namespaceirr_1_1core.html#a7a0c7be24d78c02b334c3ae5a18005a1" target="_top" xlink:title="search if a filename has a proper extension">
<polygon fill="white" stroke="black" points="176,-30 176,-49 319,-49 319,-30 176,-30"/>
<text text-anchor="middle" x="247.5" y="-37" font-family="Helvetica,sans-Serif" font-size="10.00">irr::core::hasFileExtension</text>
</a>
</g>
</g>
<!-- Node1&#45;&gt;Node2 -->
<g id="edge1" class="edge">
<title>Node1&#45;&gt;Node2</title>
<path fill="none" stroke="midnightblue" d="M140.11,-39.5C148.43,-39.5 156.98,-39.5 165.45,-39.5"/>
<polygon fill="midnightblue" stroke="midnightblue" points="165.72,-43 175.72,-39.5 165.72,-36 165.72,-43"/>
</g>
<!-- Node3 -->
<g id="node3" class="node">
<title>Node3</title>
<g id="a_node3"><a xlink:href="namespaceirr_1_1core.html#ab214253f8925de2ed42a7d671d02cf7f" target="_top" xlink:title="search if a filename has a proper extension">
<polygon fill="white" stroke="black" points="355,-30 355,-49 489,-49 489,-30 355,-30"/>
<text text-anchor="middle" x="422" y="-37" font-family="Helvetica,sans-Serif" font-size="10.00">irr::core::isFileExtension</text>
</a>
</g>
</g>
<!-- Node2&#45;&gt;Node3 -->
<g id="edge2" class="edge">
<title>Node2&#45;&gt;Node3</title>
<path fill="none" stroke="midnightblue" d="M319.16,-39.5C327.56,-39.5 336.17,-39.5 344.64,-39.5"/>
<polygon fill="midnightblue" stroke="midnightblue" points="344.89,-43 354.89,-39.5 344.89,-36 344.89,-43"/>
</g>
<!-- Node4 -->
<g id="node4" class="node">
<title>Node4</title>
<g id="a_node4"><a xlink:href="classirr_1_1core_1_1string.html#a384fda94b2dd511721231d9585017109" target="_top" xlink:title="Compares the strings ignoring case.">
<polygon fill="white" stroke="black" points="525,-49.5 525,-79.5 688,-79.5 688,-49.5 525,-49.5"/>
<text text-anchor="start" x="533" y="-67.5" font-family="Helvetica,sans-Serif" font-size="10.00">irr::core::string::</text>
<text text-anchor="middle" x="606.5" y="-56.5" font-family="Helvetica,sans-Serif" font-size="10.00">equals_substring_ignore_case</text>
</a>
</g>
</g>
<!-- Node3&#45;&gt;Node4 -->
<g id="edge3" class="edge">
<title>Node3&#45;&gt;Node4</title>
<path fill="none" stroke="midnightblue" d="M489.14,-48.56C497.5,-49.71 506.17,-50.89 514.82,-52.08"/>
<polygon fill="midnightblue" stroke="midnightblue" points="514.58,-55.58 524.96,-53.47 515.53,-48.64 514.58,-55.58"/>
</g>
<!-- Node5 -->
<g id="node5" class="node">
<title>Node5</title>
<g id="a_node5"><a xlink:href="classirr_1_1core_1_1string.html#af9f62c87ac856a30080fad2fc32a3f45" target="_top" xlink:title="finds last occurrence of character in string">
<polygon fill="white" stroke="black" points="559.5,-0.5 559.5,-30.5 653.5,-30.5 653.5,-0.5 559.5,-0.5"/>
<text text-anchor="start" x="567.5" y="-18.5" font-family="Helvetica,sans-Serif" font-size="10.00">irr::core::string::</text>
<text text-anchor="middle" x="606.5" y="-7.5" font-family="Helvetica,sans-Serif" font-size="10.00">findLast</text>
</a>
</g>
</g>
<!-- Node3&#45;&gt;Node5 -->
<g id="edge4" class="edge">
<title>Node3&#45;&gt;Node5</title>
<path fill="none" stroke="midnightblue" d="M489.14,-30.8C508.86,-28.21 530.27,-25.39 549.29,-22.89"/>
<polygon fill="midnightblue" stroke="midnightblue" points="549.83,-26.35 559.28,-21.58 548.91,-19.41 549.83,-26.35"/>
</g>
</g>
</svg>
