<?xml version="1.0" encoding="UTF-8" standalone="no"?>
<!DOCTYPE svg PUBLIC "-//W3C//DTD SVG 1.1//EN"
 "http://www.w3.org/Graphics/SVG/1.1/DTD/svg11.dtd">
<!-- Generated by graphviz version 2.43.0 (0)
 -->
<!-- Title: LuaSettings Pages: 1 -->
<svg width="759pt" height="464pt"
 viewBox="0.00 0.00 759.00 464.28" xmlns="http://www.w3.org/2000/svg" xmlns:xlink="http://www.w3.org/1999/xlink">
<g id="graph0" class="graph" transform="scale(1 1) rotate(0) translate(4 460.28)">
<title>LuaSettings</title>
<polygon fill="white" stroke="transparent" points="-4,4 -4,-460.28 755,-460.28 755,4 -4,4"/>
<!-- Node1 -->
<g id="node1" class="node">
<title>Node1</title>
<g id="a_node1"><a xlink:title=" ">
<polygon fill="#bfbfbf" stroke="black" points="677,-290.78 677,-309.78 751,-309.78 751,-290.78 677,-290.78"/>
<text text-anchor="middle" x="714" y="-297.78" font-family="Helvetica,sans-Serif" font-size="10.00">LuaSettings</text>
</a>
</g>
</g>
<!-- Node2 -->
<g id="node2" class="node">
<title>Node2</title>
<g id="a_node2"><a xlink:href="classModApiBase.html" target="_top" xlink:title=" ">
<polygon fill="white" stroke="black" points="467,-436.78 467,-455.78 544,-455.78 544,-436.78 467,-436.78"/>
<text text-anchor="middle" x="505.5" y="-443.78" font-family="Helvetica,sans-Serif" font-size="10.00">ModApiBase</text>
</a>
</g>
</g>
<!-- Node2&#45;&gt;Node1 -->
<g id="edge1" class="edge">
<title>Node2&#45;&gt;Node1</title>
<path fill="none" stroke="midnightblue" d="M554.47,-449.66C587.07,-449.46 629.47,-444.04 659,-421.28 695.98,-392.77 708.27,-333.39 711.77,-310.03"/>
<polygon fill="midnightblue" stroke="midnightblue" points="554.29,-446.15 544.25,-449.55 554.22,-453.15 554.29,-446.15"/>
</g>
<!-- Node3 -->
<g id="node3" class="node">
<title>Node3</title>
<g id="a_node3"><a xlink:href="classLuaHelper.html" target="_top" xlink:title=" ">
<polygon fill="white" stroke="black" points="230,-436.78 230,-455.78 296,-455.78 296,-436.78 230,-436.78"/>
<text text-anchor="middle" x="263" y="-443.78" font-family="Helvetica,sans-Serif" font-size="10.00">LuaHelper</text>
</a>
</g>
</g>
<!-- Node3&#45;&gt;Node2 -->
<g id="edge2" class="edge">
<title>Node3&#45;&gt;Node2</title>
<path fill="none" stroke="darkgreen" d="M306.55,-446.28C351.93,-446.28 423.15,-446.28 466.65,-446.28"/>
<polygon fill="darkgreen" stroke="darkgreen" points="306.43,-442.78 296.43,-446.28 306.43,-449.78 306.43,-442.78"/>
</g>
<!-- Node4 -->
<g id="node4" class="node">
<title>Node4</title>
<g id="a_node4"><a xlink:href="structluaL__Reg.html" target="_top" xlink:title=" ">
<polygon fill="white" stroke="black" points="475,-337.78 475,-356.78 536,-356.78 536,-337.78 475,-337.78"/>
<text text-anchor="middle" x="505.5" y="-344.78" font-family="Helvetica,sans-Serif" font-size="10.00">luaL_Reg</text>
</a>
</g>
</g>
<!-- Node4&#45;&gt;Node1 -->
<g id="edge3" class="edge">
<title>Node4&#45;&gt;Node1</title>
<path fill="none" stroke="#9a32cd" stroke-dasharray="5,2" d="M546.22,-338.24C583.99,-329.64 640.32,-316.82 676.87,-308.51"/>
<polygon fill="#9a32cd" stroke="#9a32cd" points="545.06,-334.91 536.09,-340.55 546.61,-341.74 545.06,-334.91"/>
<text text-anchor="middle" x="610.5" y="-336.28" font-family="Helvetica,sans-Serif" font-size="10.00"> methods</text>
</g>
<!-- Node5 -->
<g id="node5" class="node">
<title>Node5</title>
<g id="a_node5"><a xlink:title=" ">
<polygon fill="white" stroke="#bfbfbf" points="244,-374.78 244,-393.78 282,-393.78 282,-374.78 244,-374.78"/>
<text text-anchor="middle" x="263" y="-381.78" font-family="Helvetica,sans-Serif" font-size="10.00">char</text>
</a>
</g>
</g>
<!-- Node5&#45;&gt;Node1 -->
<g id="edge6" class="edge">
<title>Node5&#45;&gt;Node1</title>
<path fill="none" stroke="#9a32cd" stroke-dasharray="5,2" d="M292.39,-388.28C359.94,-396.46 533.91,-409.5 659,-348.28 677.93,-339.02 695.27,-321.24 704.95,-310.11"/>
<polygon fill="#9a32cd" stroke="#9a32cd" points="292.49,-384.77 282.13,-386.98 291.6,-391.71 292.49,-384.77"/>
<text text-anchor="middle" x="505.5" y="-396.28" font-family="Helvetica,sans-Serif" font-size="10.00"> className</text>
</g>
<!-- Node5&#45;&gt;Node4 -->
<g id="edge4" class="edge">
<title>Node5&#45;&gt;Node4</title>
<path fill="none" stroke="#9a32cd" stroke-dasharray="5,2" d="M292.54,-381.13C328.97,-376.95 393.89,-368.95 449,-359.28 457.45,-357.8 466.56,-355.94 474.92,-354.13"/>
<polygon fill="#9a32cd" stroke="#9a32cd" points="291.73,-377.7 282.19,-382.3 292.52,-384.65 291.73,-377.7"/>
<text text-anchor="middle" x="402.5" y="-375.28" font-family="Helvetica,sans-Serif" font-size="10.00"> name</text>
</g>
<!-- Node6 -->
<g id="node6" class="node">
<title>Node6</title>
<g id="a_node6"><a xlink:title=" ">
<polygon fill="white" stroke="#bfbfbf" points="248.5,-333.78 248.5,-352.78 277.5,-352.78 277.5,-333.78 248.5,-333.78"/>
<text text-anchor="middle" x="263" y="-340.78" font-family="Helvetica,sans-Serif" font-size="10.00">int</text>
</a>
</g>
</g>
<!-- Node6&#45;&gt;Node4 -->
<g id="edge5" class="edge">
<title>Node6&#45;&gt;Node4</title>
<path fill="none" stroke="#9a32cd" stroke-dasharray="5,2" d="M287.7,-343.68C331.89,-344.41 426.72,-345.99 474.98,-346.79"/>
<polygon fill="#9a32cd" stroke="#9a32cd" points="287.68,-340.17 277.62,-343.51 287.56,-347.17 287.68,-340.17"/>
<text text-anchor="middle" x="402.5" y="-349.28" font-family="Helvetica,sans-Serif" font-size="10.00"> func</text>
</g>
<!-- Node7 -->
<g id="node7" class="node">
<title>Node7</title>
<g id="a_node7"><a xlink:href="classSettings.html" target="_top" xlink:title=" ">
<polygon fill="white" stroke="black" points="477.5,-199.78 477.5,-218.78 533.5,-218.78 533.5,-199.78 477.5,-199.78"/>
<text text-anchor="middle" x="505.5" y="-206.78" font-family="Helvetica,sans-Serif" font-size="10.00">Settings</text>
</a>
</g>
</g>
<!-- Node6&#45;&gt;Node7 -->
<g id="edge13" class="edge">
<title>Node6&#45;&gt;Node7</title>
<path fill="none" stroke="#9a32cd" stroke-dasharray="5,2" d="M287.57,-338.61C331.29,-329.61 422.89,-309.1 449,-290.28 475.27,-271.34 493.12,-235.9 500.57,-218.88"/>
<polygon fill="#9a32cd" stroke="#9a32cd" points="286.66,-335.22 277.55,-340.64 288.05,-342.08 286.66,-335.22"/>
<text text-anchor="middle" x="402.5" y="-325.28" font-family="Helvetica,sans-Serif" font-size="10.00"> m_settingslayer</text>
</g>
<!-- Node7&#45;&gt;Node1 -->
<g id="edge7" class="edge">
<title>Node7&#45;&gt;Node1</title>
<path fill="none" stroke="#9a32cd" stroke-dasharray="5,2" d="M537.46,-222.93C579.74,-241.56 654.47,-274.49 691.27,-290.71"/>
<polygon fill="#9a32cd" stroke="#9a32cd" points="538.77,-219.68 528.21,-218.85 535.95,-226.08 538.77,-219.68"/>
<text text-anchor="middle" x="610.5" y="-278.28" font-family="Helvetica,sans-Serif" font-size="10.00"> m_settings</text>
</g>
<!-- Node8 -->
<g id="node8" class="node">
<title>Node8</title>
<g id="a_node8"><a xlink:title=" ">
<polygon fill="white" stroke="#bfbfbf" points="194,-85.78 194,-126.78 332,-126.78 332,-85.78 194,-85.78"/>
<text text-anchor="start" x="202" y="-114.78" font-family="Helvetica,sans-Serif" font-size="10.00">unordered_map&lt; std</text>
<text text-anchor="start" x="202" y="-103.78" font-family="Helvetica,sans-Serif" font-size="10.00">::string, SettingsCallback</text>
<text text-anchor="middle" x="263" y="-92.78" font-family="Helvetica,sans-Serif" font-size="10.00">List &gt;</text>
</a>
</g>
</g>
<!-- Node8&#45;&gt;Node7 -->
<g id="edge8" class="edge">
<title>Node8&#45;&gt;Node7</title>
<path fill="none" stroke="#9a32cd" stroke-dasharray="5,2" d="M342.04,-115.82C376.5,-122.45 416.48,-133.61 449,-152.28 470.08,-164.39 488.41,-186.79 497.8,-199.61"/>
<polygon fill="#9a32cd" stroke="#9a32cd" points="342.47,-112.34 332.01,-113.98 341.21,-119.23 342.47,-112.34"/>
<text text-anchor="middle" x="402.5" y="-155.28" font-family="Helvetica,sans-Serif" font-size="10.00"> m_callbacks</text>
</g>
<!-- Node9 -->
<g id="node9" class="node">
<title>Node9</title>
<g id="a_node9"><a xlink:title=" ">
<polygon fill="white" stroke="#bfbfbf" points="188,-272.28 188,-302.28 338,-302.28 338,-272.28 188,-272.28"/>
<text text-anchor="start" x="196" y="-290.28" font-family="Helvetica,sans-Serif" font-size="10.00">unordered_map&lt; std</text>
<text text-anchor="middle" x="263" y="-279.28" font-family="Helvetica,sans-Serif" font-size="10.00">::string, const FlagDesc * &gt;</text>
</a>
</g>
</g>
<!-- Node9&#45;&gt;Node7 -->
<g id="edge9" class="edge">
<title>Node9&#45;&gt;Node7</title>
<path fill="none" stroke="#9a32cd" stroke-dasharray="5,2" d="M348.46,-276.95C388.3,-271.22 430.99,-263.58 449,-255.28 467.87,-246.59 485.6,-229.83 495.74,-219.12"/>
<polygon fill="#9a32cd" stroke="#9a32cd" points="347.83,-273.51 338.41,-278.37 348.8,-280.44 347.83,-273.51"/>
<text text-anchor="middle" x="402.5" y="-278.28" font-family="Helvetica,sans-Serif" font-size="10.00"> s_flags</text>
</g>
<!-- Node10 -->
<g id="node10" class="node">
<title>Node10</title>
<g id="a_node10"><a xlink:title=" ">
<polygon fill="white" stroke="#bfbfbf" points="239,-233.78 239,-252.78 287,-252.78 287,-233.78 239,-233.78"/>
<text text-anchor="middle" x="263" y="-240.78" font-family="Helvetica,sans-Serif" font-size="10.00">mutex</text>
</a>
</g>
</g>
<!-- Node10&#45;&gt;Node7 -->
<g id="edge10" class="edge">
<title>Node10&#45;&gt;Node7</title>
<path fill="none" stroke="#9a32cd" stroke-dasharray="5,2" d="M297.21,-238.59C345.12,-231.81 432.71,-219.43 477.13,-213.15"/>
<polygon fill="#9a32cd" stroke="#9a32cd" points="296.47,-235.16 287.06,-240.02 297.45,-242.09 296.47,-235.16"/>
<text text-anchor="middle" x="402.5" y="-243.28" font-family="Helvetica,sans-Serif" font-size="10.00"> m_mutex</text>
<text text-anchor="middle" x="402.5" y="-232.28" font-family="Helvetica,sans-Serif" font-size="10.00">m_callback_mutex</text>
</g>
<!-- Node11 -->
<g id="node11" class="node">
<title>Node11</title>
<g id="a_node11"><a xlink:href="classSettingsHierarchy.html" target="_top" xlink:title=" ">
<polygon fill="white" stroke="black" points="211,-195.78 211,-214.78 315,-214.78 315,-195.78 211,-195.78"/>
<text text-anchor="middle" x="263" y="-202.78" font-family="Helvetica,sans-Serif" font-size="10.00">SettingsHierarchy</text>
</a>
</g>
</g>
<!-- Node11&#45;&gt;Node7 -->
<g id="edge11" class="edge">
<title>Node11&#45;&gt;Node7</title>
<path fill="none" stroke="#9a32cd" stroke-dasharray="5,2" d="M325.46,-201.09C361.49,-199.35 407.88,-198.33 449,-201.28 458.32,-201.95 468.46,-203.24 477.48,-204.6"/>
<polygon fill="#9a32cd" stroke="#9a32cd" points="324.91,-197.61 315.1,-201.62 325.27,-204.6 324.91,-197.61"/>
<text text-anchor="middle" x="402.5" y="-204.28" font-family="Helvetica,sans-Serif" font-size="10.00"> m_hierarchy</text>
</g>
<!-- Node12 -->
<g id="node12" class="node">
<title>Node12</title>
<g id="a_node12"><a xlink:title=" ">
<polygon fill="white" stroke="#bfbfbf" points="0,-195.78 0,-214.78 118,-214.78 118,-195.78 0,-195.78"/>
<text text-anchor="middle" x="59" y="-202.78" font-family="Helvetica,sans-Serif" font-size="10.00">vector&lt; Settings * &gt;</text>
</a>
</g>
</g>
<!-- Node12&#45;&gt;Node11 -->
<g id="edge12" class="edge">
<title>Node12&#45;&gt;Node11</title>
<path fill="none" stroke="#9a32cd" stroke-dasharray="5,2" d="M128.31,-205.28C155.28,-205.28 185.75,-205.28 210.78,-205.28"/>
<polygon fill="#9a32cd" stroke="#9a32cd" points="128.16,-201.78 118.16,-205.28 128.16,-208.78 128.16,-201.78"/>
<text text-anchor="middle" x="153" y="-208.28" font-family="Helvetica,sans-Serif" font-size="10.00"> layers</text>
</g>
<!-- Node13 -->
<g id="node13" class="node">
<title>Node13</title>
<g id="a_node13"><a xlink:title=" ">
<polygon fill="white" stroke="#bfbfbf" points="241,-47.78 241,-66.78 285,-66.78 285,-47.78 241,-47.78"/>
<text text-anchor="middle" x="263" y="-54.78" font-family="Helvetica,sans-Serif" font-size="10.00">string</text>
</a>
</g>
</g>
<!-- Node13&#45;&gt;Node1 -->
<g id="edge17" class="edge">
<title>Node13&#45;&gt;Node1</title>
<path fill="none" stroke="#9a32cd" stroke-dasharray="5,2" d="M295.45,-54.84C333.23,-53.06 397.9,-53.71 449,-73.28 558.08,-115.04 575.63,-149.48 659,-231.28 678.54,-250.46 697.3,-276.78 706.72,-290.72"/>
<polygon fill="#9a32cd" stroke="#9a32cd" points="294.87,-51.37 285.09,-55.43 295.27,-58.36 294.87,-51.37"/>
<text text-anchor="middle" x="505.5" y="-125.28" font-family="Helvetica,sans-Serif" font-size="10.00"> m_filename</text>
</g>
<!-- Node13&#45;&gt;Node7 -->
<g id="edge14" class="edge">
<title>Node13&#45;&gt;Node7</title>
<path fill="none" stroke="#9a32cd" stroke-dasharray="5,2" d="M295.27,-62.08C341.52,-69.69 425.26,-85.6 449,-104.28 481.25,-129.65 496.9,-179.03 502.27,-199.76"/>
<polygon fill="#9a32cd" stroke="#9a32cd" points="295.62,-58.59 285.19,-60.45 294.5,-65.5 295.62,-58.59"/>
<text text-anchor="middle" x="402.5" y="-107.28" font-family="Helvetica,sans-Serif" font-size="10.00"> m_end_tag</text>
</g>
<!-- Node14 -->
<g id="node14" class="node">
<title>Node14</title>
<g id="a_node14"><a xlink:title=" ">
<polygon fill="white" stroke="#bfbfbf" points="196.5,-146.28 196.5,-176.28 329.5,-176.28 329.5,-146.28 196.5,-146.28"/>
<text text-anchor="start" x="204.5" y="-164.28" font-family="Helvetica,sans-Serif" font-size="10.00">unordered_map&lt; std</text>
<text text-anchor="middle" x="263" y="-153.28" font-family="Helvetica,sans-Serif" font-size="10.00">::string, SettingsEntry &gt;</text>
</a>
</g>
</g>
<!-- Node14&#45;&gt;Node7 -->
<g id="edge15" class="edge">
<title>Node14&#45;&gt;Node7</title>
<path fill="none" stroke="#9a32cd" stroke-dasharray="5,2" d="M339.88,-165.56C373.74,-168.78 413.84,-174.42 449,-184.28 462.23,-187.99 476.33,-194.38 487.01,-199.77"/>
<polygon fill="#9a32cd" stroke="#9a32cd" points="339.85,-162.05 329.58,-164.64 339.23,-169.02 339.85,-162.05"/>
<text text-anchor="middle" x="402.5" y="-187.28" font-family="Helvetica,sans-Serif" font-size="10.00"> m_settings</text>
</g>
<!-- Node15 -->
<g id="node15" class="node">
<title>Node15</title>
<g id="a_node15"><a xlink:href="classbool.html" target="_top" xlink:title=" ">
<polygon fill="white" stroke="black" points="486.5,-3.78 486.5,-22.78 524.5,-22.78 524.5,-3.78 486.5,-3.78"/>
<text text-anchor="middle" x="505.5" y="-10.78" font-family="Helvetica,sans-Serif" font-size="10.00">bool</text>
</a>
</g>
</g>
<!-- Node15&#45;&gt;Node1 -->
<g id="edge16" class="edge">
<title>Node15&#45;&gt;Node1</title>
<path fill="none" stroke="#9a32cd" stroke-dasharray="5,2" d="M534.78,-5.88C568.65,1.12 625.04,6.62 659,-23.28 700.37,-59.7 710.73,-246.08 712.64,-290.68"/>
<polygon fill="#9a32cd" stroke="#9a32cd" points="533.62,-2.56 524.64,-8.17 535.16,-9.39 533.62,-2.56"/>
<text text-anchor="middle" x="610.5" y="-37.28" font-family="Helvetica,sans-Serif" font-size="10.00"> m_is_own_settings</text>
<text text-anchor="middle" x="610.5" y="-26.28" font-family="Helvetica,sans-Serif" font-size="10.00">m_write_allowed</text>
</g>
</g>
</svg>
