<?xml version="1.0" encoding="UTF-8" standalone="no"?>
<!DOCTYPE svg PUBLIC "-//W3C//DTD SVG 1.1//EN"
 "http://www.w3.org/Graphics/SVG/1.1/DTD/svg11.dtd">
<!-- Generated by graphviz version 2.43.0 (0)
 -->
<!-- Title: irr::scene::CB3DMeshWriter Pages: 1 -->
<svg width="203pt" height="209pt"
 viewBox="0.00 0.00 202.50 209.00" xmlns="http://www.w3.org/2000/svg" xmlns:xlink="http://www.w3.org/1999/xlink">
<g id="graph0" class="graph" transform="scale(1 1) rotate(0) translate(4 205)">
<title>irr::scene::CB3DMeshWriter</title>
<polygon fill="white" stroke="transparent" points="-4,4 -4,-205 198.5,-205 198.5,4 -4,4"/>
<!-- Node1 -->
<g id="node1" class="node">
<title>Node1</title>
<g id="a_node1"><a xlink:title="class to write B3D mesh files">
<polygon fill="#bfbfbf" stroke="black" points="0,-0.5 0,-19.5 151,-19.5 151,-0.5 0,-0.5"/>
<text text-anchor="middle" x="75.5" y="-7.5" font-family="Helvetica,sans-Serif" font-size="10.00">irr::scene::CB3DMeshWriter</text>
</a>
</g>
</g>
<!-- Node2 -->
<g id="node2" class="node">
<title>Node2</title>
<g id="a_node2"><a xlink:href="classirr_1_1scene_1_1IMeshWriter.html" target="_top" xlink:title="Interface for writing meshes.">
<polygon fill="white" stroke="black" points="12,-57.5 12,-76.5 139,-76.5 139,-57.5 12,-57.5"/>
<text text-anchor="middle" x="75.5" y="-64.5" font-family="Helvetica,sans-Serif" font-size="10.00">irr::scene::IMeshWriter</text>
</a>
</g>
</g>
<!-- Node2&#45;&gt;Node1 -->
<g id="edge1" class="edge">
<title>Node2&#45;&gt;Node1</title>
<path fill="none" stroke="midnightblue" d="M75.5,-47.12C75.5,-37.82 75.5,-27.06 75.5,-19.71"/>
<polygon fill="midnightblue" stroke="midnightblue" points="72,-47.41 75.5,-57.41 79,-47.41 72,-47.41"/>
</g>
<!-- Node3 -->
<g id="node3" class="node">
<title>Node3</title>
<g id="a_node3"><a xlink:href="classirr_1_1IReferenceCounted.html" target="_top" xlink:title="Base class of most objects of the Irrlicht Engine.">
<polygon fill="white" stroke="black" points="12.5,-114.5 12.5,-133.5 138.5,-133.5 138.5,-114.5 12.5,-114.5"/>
<text text-anchor="middle" x="75.5" y="-121.5" font-family="Helvetica,sans-Serif" font-size="10.00">irr::IReferenceCounted</text>
</a>
</g>
</g>
<!-- Node3&#45;&gt;Node2 -->
<g id="edge2" class="edge">
<title>Node3&#45;&gt;Node2</title>
<path fill="none" stroke="midnightblue" d="M75.5,-104.12C75.5,-94.82 75.5,-84.06 75.5,-76.71"/>
<polygon fill="midnightblue" stroke="midnightblue" points="72,-104.41 75.5,-114.41 79,-104.41 72,-104.41"/>
</g>
<!-- Node4 -->
<g id="node4" class="node">
<title>Node4</title>
<g id="a_node4"><a xlink:title=" ">
<polygon fill="white" stroke="#bfbfbf" points="13.5,-181.5 13.5,-200.5 51.5,-200.5 51.5,-181.5 13.5,-181.5"/>
<text text-anchor="middle" x="32.5" y="-188.5" font-family="Helvetica,sans-Serif" font-size="10.00">char</text>
</a>
</g>
</g>
<!-- Node4&#45;&gt;Node3 -->
<g id="edge3" class="edge">
<title>Node4&#45;&gt;Node3</title>
<path fill="none" stroke="#9a32cd" stroke-dasharray="5,2" d="M29.55,-171.26C29.4,-164.8 30.26,-157.75 33.5,-152 38.01,-143.99 45.98,-137.99 53.78,-133.7"/>
<polygon fill="#9a32cd" stroke="#9a32cd" points="26.07,-171.63 30.53,-181.24 33.04,-170.95 26.07,-171.63"/>
<text text-anchor="middle" x="65.5" y="-155" font-family="Helvetica,sans-Serif" font-size="10.00"> DebugName</text>
</g>
<!-- Node5 -->
<g id="node5" class="node">
<title>Node5</title>
<g id="a_node5"><a xlink:title=" ">
<polygon fill="white" stroke="#bfbfbf" points="94.5,-181.5 94.5,-200.5 144.5,-200.5 144.5,-181.5 94.5,-181.5"/>
<text text-anchor="middle" x="119.5" y="-188.5" font-family="Helvetica,sans-Serif" font-size="10.00">int32_t</text>
</a>
</g>
</g>
<!-- Node5&#45;&gt;Node3 -->
<g id="edge4" class="edge">
<title>Node5&#45;&gt;Node3</title>
<path fill="none" stroke="#9a32cd" stroke-dasharray="5,2" d="M110.15,-172.52C106.43,-165.94 101.98,-158.49 97.5,-152 93.1,-145.63 87.6,-138.88 83.2,-133.72"/>
<polygon fill="#9a32cd" stroke="#9a32cd" points="107.1,-174.23 114.98,-181.31 113.23,-170.86 107.1,-174.23"/>
<text text-anchor="middle" x="149" y="-155" font-family="Helvetica,sans-Serif" font-size="10.00"> ReferenceCounter</text>
</g>
</g>
</svg>
