<?xml version="1.0" encoding="UTF-8" standalone="no"?>
<!DOCTYPE svg PUBLIC "-//W3C//DTD SVG 1.1//EN"
 "http://www.w3.org/Graphics/SVG/1.1/DTD/svg11.dtd">
<!-- Generated by graphviz version 2.43.0 (0)
 -->
<!-- Title: irr::video::SColor::getData Pages: 1 -->
<svg width="309pt" height="225pt"
 viewBox="0.00 0.00 309.00 225.00" xmlns="http://www.w3.org/2000/svg" xmlns:xlink="http://www.w3.org/1999/xlink">
<g id="graph0" class="graph" transform="scale(1 1) rotate(0) translate(4 221)">
<title>irr::video::SColor::getData</title>
<polygon fill="white" stroke="transparent" points="-4,4 -4,-221 305,-221 305,4 -4,4"/>
<!-- Node1 -->
<g id="node1" class="node">
<title>Node1</title>
<g id="a_node1"><a xlink:title="Write the color to data in the defined format.">
<polygon fill="#bfbfbf" stroke="black" points="0,-98.5 0,-128.5 98,-128.5 98,-98.5 0,-98.5"/>
<text text-anchor="start" x="8" y="-116.5" font-family="Helvetica,sans-Serif" font-size="10.00">irr::video::SColor</text>
<text text-anchor="middle" x="49" y="-105.5" font-family="Helvetica,sans-Serif" font-size="10.00">::getData</text>
</a>
</g>
</g>
<!-- Node2 -->
<g id="node2" class="node">
<title>Node2</title>
<g id="a_node2"><a xlink:href="namespaceirr_1_1video.html#a929c6758a0edc772cf69b2c674e4f5cd" target="_top" xlink:title="Converts a 32bit (A8R8G8B8) color to a 16bit A1R5G5B5 color.">
<polygon fill="white" stroke="black" points="147.5,-186.5 147.5,-216.5 287.5,-216.5 287.5,-186.5 147.5,-186.5"/>
<text text-anchor="start" x="155.5" y="-204.5" font-family="Helvetica,sans-Serif" font-size="10.00">irr::video::A8R8G8B8toA1</text>
<text text-anchor="middle" x="217.5" y="-193.5" font-family="Helvetica,sans-Serif" font-size="10.00">R5G5B5</text>
</a>
</g>
</g>
<!-- Node1&#45;&gt;Node2 -->
<g id="edge1" class="edge">
<title>Node1&#45;&gt;Node2</title>
<path fill="none" stroke="midnightblue" d="M66.52,-128.68C82.66,-142.8 108.47,-163.57 134,-176.5 138.47,-178.77 143.19,-180.87 148.01,-182.81"/>
<polygon fill="midnightblue" stroke="midnightblue" points="146.78,-186.08 157.37,-186.34 149.25,-179.54 146.78,-186.08"/>
</g>
<!-- Node3 -->
<g id="node3" class="node">
<title>Node3</title>
<g id="a_node3"><a xlink:href="namespaceirr_1_1video.html#a10636302b225d7f525fa46bbd3f747a4" target="_top" xlink:title="Converts a 32bit (A8R8G8B8) color to a 16bit R5G6B5 color.">
<polygon fill="white" stroke="black" points="134,-148 134,-167 301,-167 301,-148 134,-148"/>
<text text-anchor="middle" x="217.5" y="-155" font-family="Helvetica,sans-Serif" font-size="10.00">irr::video::A8R8G8B8toR5G6B5</text>
</a>
</g>
</g>
<!-- Node1&#45;&gt;Node3 -->
<g id="edge2" class="edge">
<title>Node1&#45;&gt;Node3</title>
<path fill="none" stroke="midnightblue" d="M98.27,-128.43C109.93,-131.88 122.38,-135.44 134,-138.5 143.28,-140.95 153.2,-143.38 162.82,-145.65"/>
<polygon fill="midnightblue" stroke="midnightblue" points="162.17,-149.09 172.7,-147.95 163.76,-142.28 162.17,-149.09"/>
</g>
<!-- Node4 -->
<g id="node4" class="node">
<title>Node4</title>
<g id="a_node4"><a xlink:href="classirr_1_1video_1_1SColor.html#afb60ac456b2efc2f2a4f04a643293d26" target="_top" xlink:title="Returns the blue component of the color.">
<polygon fill="white" stroke="black" points="168.5,-98.5 168.5,-128.5 266.5,-128.5 266.5,-98.5 168.5,-98.5"/>
<text text-anchor="start" x="176.5" y="-116.5" font-family="Helvetica,sans-Serif" font-size="10.00">irr::video::SColor</text>
<text text-anchor="middle" x="217.5" y="-105.5" font-family="Helvetica,sans-Serif" font-size="10.00">::getBlue</text>
</a>
</g>
</g>
<!-- Node1&#45;&gt;Node4 -->
<g id="edge3" class="edge">
<title>Node1&#45;&gt;Node4</title>
<path fill="none" stroke="midnightblue" d="M98.16,-113.5C116.97,-113.5 138.71,-113.5 158.38,-113.5"/>
<polygon fill="midnightblue" stroke="midnightblue" points="158.45,-117 168.45,-113.5 158.45,-110 158.45,-117"/>
</g>
<!-- Node5 -->
<g id="node5" class="node">
<title>Node5</title>
<g id="a_node5"><a xlink:href="classirr_1_1video_1_1SColor.html#a198773366f2a5436c1ca4adc9037bb8d" target="_top" xlink:title="Returns the green component of the color.">
<polygon fill="white" stroke="black" points="168.5,-49.5 168.5,-79.5 266.5,-79.5 266.5,-49.5 168.5,-49.5"/>
<text text-anchor="start" x="176.5" y="-67.5" font-family="Helvetica,sans-Serif" font-size="10.00">irr::video::SColor</text>
<text text-anchor="middle" x="217.5" y="-56.5" font-family="Helvetica,sans-Serif" font-size="10.00">::getGreen</text>
</a>
</g>
</g>
<!-- Node1&#45;&gt;Node5 -->
<g id="edge4" class="edge">
<title>Node1&#45;&gt;Node5</title>
<path fill="none" stroke="midnightblue" d="M98.16,-99.33C117.06,-93.77 138.91,-87.34 158.65,-81.53"/>
<polygon fill="midnightblue" stroke="midnightblue" points="159.84,-84.82 168.45,-78.64 157.87,-78.11 159.84,-84.82"/>
</g>
<!-- Node6 -->
<g id="node6" class="node">
<title>Node6</title>
<g id="a_node6"><a xlink:href="classirr_1_1video_1_1SColor.html#a70d11ec2247581c79ee11e0e1b511978" target="_top" xlink:title="Returns the red component of the color.">
<polygon fill="white" stroke="black" points="168.5,-0.5 168.5,-30.5 266.5,-30.5 266.5,-0.5 168.5,-0.5"/>
<text text-anchor="start" x="176.5" y="-18.5" font-family="Helvetica,sans-Serif" font-size="10.00">irr::video::SColor</text>
<text text-anchor="middle" x="217.5" y="-7.5" font-family="Helvetica,sans-Serif" font-size="10.00">::getRed</text>
</a>
</g>
</g>
<!-- Node1&#45;&gt;Node6 -->
<g id="edge5" class="edge">
<title>Node1&#45;&gt;Node6</title>
<path fill="none" stroke="midnightblue" d="M63.72,-98.23C79.27,-81.79 106.1,-55.92 134,-40.5 141.71,-36.24 150.23,-32.62 158.79,-29.56"/>
<polygon fill="midnightblue" stroke="midnightblue" points="160.04,-32.84 168.43,-26.36 157.83,-26.19 160.04,-32.84"/>
</g>
</g>
</svg>
