<?xml version="1.0" encoding="UTF-8" standalone="no"?>
<!DOCTYPE svg PUBLIC "-//W3C//DTD SVG 1.1//EN"
 "http://www.w3.org/Graphics/SVG/1.1/DTD/svg11.dtd">
<!-- Generated by graphviz version 2.43.0 (0)
 -->
<!-- Title: irr::scene::IMeshManipulator Pages: 1 -->
<svg width="205pt" height="152pt"
 viewBox="0.00 0.00 204.50 152.00" xmlns="http://www.w3.org/2000/svg" xmlns:xlink="http://www.w3.org/1999/xlink">
<g id="graph0" class="graph" transform="scale(1 1) rotate(0) translate(4 148)">
<title>irr::scene::IMeshManipulator</title>
<polygon fill="white" stroke="transparent" points="-4,4 -4,-148 200.5,-148 200.5,4 -4,4"/>
<!-- Node1 -->
<g id="node1" class="node">
<title>Node1</title>
<g id="a_node1"><a xlink:title="An interface for easy manipulation of meshes.">
<polygon fill="#bfbfbf" stroke="black" points="0,-0.5 0,-19.5 155,-19.5 155,-0.5 0,-0.5"/>
<text text-anchor="middle" x="77.5" y="-7.5" font-family="Helvetica,sans-Serif" font-size="10.00">irr::scene::IMeshManipulator</text>
</a>
</g>
</g>
<!-- Node2 -->
<g id="node2" class="node">
<title>Node2</title>
<g id="a_node2"><a xlink:href="classirr_1_1IReferenceCounted.html" target="_top" xlink:title="Base class of most objects of the Irrlicht Engine.">
<polygon fill="white" stroke="black" points="14.5,-57.5 14.5,-76.5 140.5,-76.5 140.5,-57.5 14.5,-57.5"/>
<text text-anchor="middle" x="77.5" y="-64.5" font-family="Helvetica,sans-Serif" font-size="10.00">irr::IReferenceCounted</text>
</a>
</g>
</g>
<!-- Node2&#45;&gt;Node1 -->
<g id="edge1" class="edge">
<title>Node2&#45;&gt;Node1</title>
<path fill="none" stroke="midnightblue" d="M77.5,-47.12C77.5,-37.82 77.5,-27.06 77.5,-19.71"/>
<polygon fill="midnightblue" stroke="midnightblue" points="74,-47.41 77.5,-57.41 81,-47.41 74,-47.41"/>
</g>
<!-- Node3 -->
<g id="node3" class="node">
<title>Node3</title>
<g id="a_node3"><a xlink:title=" ">
<polygon fill="white" stroke="#bfbfbf" points="15.5,-124.5 15.5,-143.5 53.5,-143.5 53.5,-124.5 15.5,-124.5"/>
<text text-anchor="middle" x="34.5" y="-131.5" font-family="Helvetica,sans-Serif" font-size="10.00">char</text>
</a>
</g>
</g>
<!-- Node3&#45;&gt;Node2 -->
<g id="edge2" class="edge">
<title>Node3&#45;&gt;Node2</title>
<path fill="none" stroke="#9a32cd" stroke-dasharray="5,2" d="M31.55,-114.26C31.4,-107.8 32.26,-100.75 35.5,-95 40.01,-86.99 47.98,-80.99 55.78,-76.7"/>
<polygon fill="#9a32cd" stroke="#9a32cd" points="28.07,-114.63 32.53,-124.24 35.04,-113.95 28.07,-114.63"/>
<text text-anchor="middle" x="67.5" y="-98" font-family="Helvetica,sans-Serif" font-size="10.00"> DebugName</text>
</g>
<!-- Node4 -->
<g id="node4" class="node">
<title>Node4</title>
<g id="a_node4"><a xlink:title=" ">
<polygon fill="white" stroke="#bfbfbf" points="96.5,-124.5 96.5,-143.5 146.5,-143.5 146.5,-124.5 96.5,-124.5"/>
<text text-anchor="middle" x="121.5" y="-131.5" font-family="Helvetica,sans-Serif" font-size="10.00">int32_t</text>
</a>
</g>
</g>
<!-- Node4&#45;&gt;Node2 -->
<g id="edge3" class="edge">
<title>Node4&#45;&gt;Node2</title>
<path fill="none" stroke="#9a32cd" stroke-dasharray="5,2" d="M112.15,-115.52C108.43,-108.94 103.98,-101.49 99.5,-95 95.1,-88.63 89.6,-81.88 85.2,-76.72"/>
<polygon fill="#9a32cd" stroke="#9a32cd" points="109.1,-117.23 116.98,-124.31 115.23,-113.86 109.1,-117.23"/>
<text text-anchor="middle" x="151" y="-98" font-family="Helvetica,sans-Serif" font-size="10.00"> ReferenceCounter</text>
</g>
</g>
</svg>
