<?xml version="1.0" encoding="UTF-8" standalone="no"?>
<!DOCTYPE svg PUBLIC "-//W3C//DTD SVG 1.1//EN"
 "http://www.w3.org/Graphics/SVG/1.1/DTD/svg11.dtd">
<!-- Generated by graphviz version 2.43.0 (0)
 -->
<!-- Title: con::IncomingSplitBuffer Pages: 1 -->
<svg width="238pt" height="106pt"
 viewBox="0.00 0.00 238.00 106.00" xmlns="http://www.w3.org/2000/svg" xmlns:xlink="http://www.w3.org/1999/xlink">
<g id="graph0" class="graph" transform="scale(1 1) rotate(0) translate(4 102)">
<title>con::IncomingSplitBuffer</title>
<polygon fill="white" stroke="transparent" points="-4,4 -4,-102 234,-102 234,4 -4,4"/>
<!-- Node1 -->
<g id="node1" class="node">
<title>Node1</title>
<g id="a_node1"><a xlink:title=" ">
<polygon fill="#bfbfbf" stroke="black" points="18,-0.5 18,-19.5 154,-19.5 154,-0.5 18,-0.5"/>
<text text-anchor="middle" x="86" y="-7.5" font-family="Helvetica,sans-Serif" font-size="10.00">con::IncomingSplitBuffer</text>
</a>
</g>
</g>
<!-- Node2 -->
<g id="node2" class="node">
<title>Node2</title>
<g id="a_node2"><a xlink:title=" ">
<polygon fill="white" stroke="#bfbfbf" points="0,-73 0,-92 48,-92 48,-73 0,-73"/>
<text text-anchor="middle" x="24" y="-80" font-family="Helvetica,sans-Serif" font-size="10.00">mutex</text>
</a>
</g>
</g>
<!-- Node2&#45;&gt;Node1 -->
<g id="edge1" class="edge">
<title>Node2&#45;&gt;Node1</title>
<path fill="none" stroke="#9a32cd" stroke-dasharray="5,2" d="M32.13,-63.58C36.43,-55.26 42.22,-45.56 49,-38 55.48,-30.78 64.18,-24.31 71.52,-19.51"/>
<polygon fill="#9a32cd" stroke="#9a32cd" points="28.87,-62.28 27.67,-72.8 35.18,-65.33 28.87,-62.28"/>
<text text-anchor="middle" x="87.5" y="-41" font-family="Helvetica,sans-Serif" font-size="10.00"> m_map_mutex</text>
</g>
<!-- Node3 -->
<g id="node3" class="node">
<title>Node3</title>
<g id="a_node3"><a xlink:title=" ">
<polygon fill="white" stroke="#bfbfbf" points="66,-67.5 66,-97.5 230,-97.5 230,-67.5 66,-67.5"/>
<text text-anchor="start" x="74" y="-85.5" font-family="Helvetica,sans-Serif" font-size="10.00">map&lt; u16, con::IncomingSplit</text>
<text text-anchor="middle" x="148" y="-74.5" font-family="Helvetica,sans-Serif" font-size="10.00">Packet * &gt;</text>
</a>
</g>
</g>
<!-- Node3&#45;&gt;Node1 -->
<g id="edge2" class="edge">
<title>Node3&#45;&gt;Node1</title>
<path fill="none" stroke="#9a32cd" stroke-dasharray="5,2" d="M138.75,-57.87C135.38,-51 131.11,-43.8 126,-38 119.46,-30.58 110.45,-24.27 102.64,-19.61"/>
<polygon fill="#9a32cd" stroke="#9a32cd" points="135.77,-59.78 143.05,-67.48 142.16,-56.92 135.77,-59.78"/>
<text text-anchor="middle" x="150" y="-41" font-family="Helvetica,sans-Serif" font-size="10.00"> m_buf</text>
</g>
</g>
</svg>
