<?xml version="1.0" encoding="UTF-8" standalone="no"?>
<!DOCTYPE svg PUBLIC "-//W3C//DTD SVG 1.1//EN"
 "http://www.w3.org/Graphics/SVG/1.1/DTD/svg11.dtd">
<!-- Generated by graphviz version 2.43.0 (0)
 -->
<!-- Title: Database_PostgreSQL Pages: 1 -->
<svg width="338pt" height="95pt"
 viewBox="0.00 0.00 337.50 95.00" xmlns="http://www.w3.org/2000/svg" xmlns:xlink="http://www.w3.org/1999/xlink">
<g id="graph0" class="graph" transform="scale(1 1) rotate(0) translate(4 91)">
<title>Database_PostgreSQL</title>
<polygon fill="white" stroke="transparent" points="-4,4 -4,-91 333.5,-91 333.5,4 -4,4"/>
<!-- Node1 -->
<g id="node1" class="node">
<title>Node1</title>
<g id="a_node1"><a xlink:title=" ">
<polygon fill="#bfbfbf" stroke="black" points="78.5,-0.5 78.5,-19.5 202.5,-19.5 202.5,-0.5 78.5,-0.5"/>
<text text-anchor="middle" x="140.5" y="-7.5" font-family="Helvetica,sans-Serif" font-size="10.00">Database_PostgreSQL</text>
</a>
</g>
</g>
<!-- Node2 -->
<g id="node2" class="node">
<title>Node2</title>
<g id="a_node2"><a xlink:href="classDatabase.html" target="_top" xlink:title=" ">
<polygon fill="white" stroke="black" points="0,-67.5 0,-86.5 63,-86.5 63,-67.5 0,-67.5"/>
<text text-anchor="middle" x="31.5" y="-74.5" font-family="Helvetica,sans-Serif" font-size="10.00">Database</text>
</a>
</g>
</g>
<!-- Node2&#45;&gt;Node1 -->
<g id="edge1" class="edge">
<title>Node2&#45;&gt;Node1</title>
<path fill="none" stroke="midnightblue" d="M52.6,-61.5C63.47,-54.2 77.03,-45.36 89.5,-38 100.54,-31.48 113.29,-24.73 123.28,-19.61"/>
<polygon fill="midnightblue" stroke="midnightblue" points="50.5,-58.69 44.18,-67.2 54.43,-64.49 50.5,-58.69"/>
</g>
<!-- Node3 -->
<g id="node3" class="node">
<title>Node3</title>
<g id="a_node3"><a xlink:title=" ">
<polygon fill="white" stroke="#bfbfbf" points="81,-67.5 81,-86.5 110,-86.5 110,-67.5 81,-67.5"/>
<text text-anchor="middle" x="95.5" y="-74.5" font-family="Helvetica,sans-Serif" font-size="10.00">int</text>
</a>
</g>
</g>
<!-- Node3&#45;&gt;Node1 -->
<g id="edge2" class="edge">
<title>Node3&#45;&gt;Node1</title>
<path fill="none" stroke="#9a32cd" stroke-dasharray="5,2" d="M92.49,-57.22C92.33,-50.76 93.2,-43.71 96.5,-38 101.16,-29.93 109.29,-23.96 117.31,-19.71"/>
<polygon fill="#9a32cd" stroke="#9a32cd" points="89.01,-57.61 93.48,-67.22 95.97,-56.92 89.01,-57.61"/>
<text text-anchor="middle" x="130" y="-41" font-family="Helvetica,sans-Serif" font-size="10.00"> m_pgversion</text>
</g>
<!-- Node4 -->
<g id="node4" class="node">
<title>Node4</title>
<g id="a_node4"><a xlink:title=" ">
<polygon fill="white" stroke="#bfbfbf" points="163.5,-67.5 163.5,-86.5 207.5,-86.5 207.5,-67.5 163.5,-67.5"/>
<text text-anchor="middle" x="185.5" y="-74.5" font-family="Helvetica,sans-Serif" font-size="10.00">string</text>
</a>
</g>
</g>
<!-- Node4&#45;&gt;Node1 -->
<g id="edge3" class="edge">
<title>Node4&#45;&gt;Node1</title>
<path fill="none" stroke="#9a32cd" stroke-dasharray="5,2" d="M176.22,-58.47C172.52,-51.88 168.05,-44.44 163.5,-38 158.95,-31.56 153.2,-24.81 148.59,-19.67"/>
<polygon fill="#9a32cd" stroke="#9a32cd" points="173.17,-60.17 181.03,-67.28 179.31,-56.82 173.17,-60.17"/>
<text text-anchor="middle" x="214.5" y="-41" font-family="Helvetica,sans-Serif" font-size="10.00"> m_connect_string</text>
</g>
<!-- Node5 -->
<g id="node5" class="node">
<title>Node5</title>
<g id="a_node5"><a xlink:title=" ">
<polygon fill="white" stroke="#bfbfbf" points="267.5,-67.5 267.5,-86.5 329.5,-86.5 329.5,-67.5 267.5,-67.5"/>
<text text-anchor="middle" x="298.5" y="-74.5" font-family="Helvetica,sans-Serif" font-size="10.00">PGconn *</text>
</a>
</g>
</g>
<!-- Node5&#45;&gt;Node1 -->
<g id="edge4" class="edge">
<title>Node5&#45;&gt;Node1</title>
<path fill="none" stroke="#9a32cd" stroke-dasharray="5,2" d="M286.71,-59.07C280.62,-51.53 272.56,-43.2 263.5,-38 245.11,-27.44 223,-21.01 202.62,-17.09"/>
<polygon fill="#9a32cd" stroke="#9a32cd" points="284.1,-61.42 292.91,-67.32 289.7,-57.22 284.1,-61.42"/>
<text text-anchor="middle" x="297.5" y="-41" font-family="Helvetica,sans-Serif" font-size="10.00"> m_conn</text>
</g>
</g>
</svg>
