<?xml version="1.0" encoding="UTF-8" standalone="no"?>
<!DOCTYPE svg PUBLIC "-//W3C//DTD SVG 1.1//EN"
 "http://www.w3.org/Graphics/SVG/1.1/DTD/svg11.dtd">
<!-- Generated by graphviz version 2.43.0 (0)
 -->
<!-- Title: irr::gui::GUISkin::drawColored3DButtonPanePressed Pages: 1 -->
<!--zoomable 293 -->
<svg id="main" version="1.1" xmlns="http://www.w3.org/2000/svg" xmlns:xlink="http://www.w3.org/1999/xlink" xml:space="preserve" onload="init(evt)">
<style type="text/css"><![CDATA[
.edge:hover path { stroke: red; }
.edge:hover polygon { stroke: red; fill: red; }
]]></style>
<script type="text/javascript"><![CDATA[
var edges = document.getElementsByTagName('g');
if (edges && edges.length) {
  for (var i=0;i<edges.length;i++) {
    if (edges[i].id.substr(0,4)=='edge') {
      edges[i].setAttribute('class','edge');
    }
  }
}
]]></script>
        <defs>
                <circle id="rim" cx="0" cy="0" r="7"/>
                <circle id="rim2" cx="0" cy="0" r="3.5"/>
                <g id="zoomPlus">
                        <use xlink:href="#rim" fill="#404040">
                                <set attributeName="fill" to="#808080" begin="zoomplus.mouseover" end="zoomplus.mouseout"/>
                        </use>
                        <path d="M-4,0h8M0,-4v8" fill="none" stroke="white" stroke-width="1.5" pointer-events="none"/>
                </g>
                <g id="zoomMin">
                        <use xlink:href="#rim" fill="#404040">
                                <set attributeName="fill" to="#808080" begin="zoomminus.mouseover" end="zoomminus.mouseout"/>
                        </use>
                        <path d="M-4,0h8" fill="none" stroke="white" stroke-width="1.5" pointer-events="none"/>
                </g>
                <g id="dirArrow">
                        <path fill="none" stroke="white" stroke-width="1.5" d="M0,-3.0v7 M-2.5,-0.5L0,-3.0L2.5,-0.5"/>
                </g>
               <g id="resetDef">
                       <use xlink:href="#rim2" fill="#404040">
                               <set attributeName="fill" to="#808080" begin="reset.mouseover" end="reset.mouseout"/>
                       </use>
               </g>
        </defs>

<script type="text/javascript">
var viewWidth = 584;
var viewHeight = 293;
var sectionId = 'dynsection-10';
</script>
<script xlink:href="svgpan.js"/>
<svg id="graph" class="graph">
<g id="viewport">
<title>irr::gui::GUISkin::drawColored3DButtonPanePressed</title>
<polygon fill="white" stroke="transparent" points="-4,4 -4,-288.5 580,-288.5 580,4 -4,4"/>
<!-- Node1 -->
<g id="node1" class="node">
<title>Node1</title>
<g id="a_node1"><a xlink:title="draws a pressed 3d button pane">
<polygon fill="#bfbfbf" stroke="black" points="0,-122.5 0,-152.5 185,-152.5 185,-122.5 0,-122.5"/>
<text text-anchor="start" x="8" y="-140.5" font-family="Helvetica,sans-Serif" font-size="10.00">irr::gui::GUISkin::</text>
<text text-anchor="middle" x="92.5" y="-129.5" font-family="Helvetica,sans-Serif" font-size="10.00">drawColored3DButtonPanePressed</text>
</a>
</g>
</g>
<!-- Node2 -->
<g id="node2" class="node">
<title>Node2</title>
<g id="a_node2"><a xlink:href="classirr_1_1video_1_1SColor.html#a20bfa471b5cf672db83355c181a3cae6" target="_top" xlink:title="Interpolates the color with a f32 value to another color.">
<polygon fill="white" stroke="black" points="221,-122.5 221,-152.5 319,-152.5 319,-122.5 221,-122.5"/>
<text text-anchor="start" x="229" y="-140.5" font-family="Helvetica,sans-Serif" font-size="10.00">irr::video::SColor</text>
<text text-anchor="middle" x="270" y="-129.5" font-family="Helvetica,sans-Serif" font-size="10.00">::getInterpolated</text>
</a>
</g>
</g>
<!-- Node1&#45;&gt;Node2 -->
<g id="edge1" class="edge">
<title>Node1&#45;&gt;Node2</title>
<path fill="none" stroke="midnightblue" d="M185.11,-137.5C193.75,-137.5 202.35,-137.5 210.56,-137.5"/>
<polygon fill="midnightblue" stroke="midnightblue" points="210.73,-141 220.73,-137.5 210.73,-134 210.73,-141"/>
</g>
<!-- Node3 -->
<g id="node3" class="node">
<title>Node3</title>
<g id="a_node3"><a xlink:href="namespaceirr_1_1core.html#a6162f685b68f629e77336081d3316969" target="_top" xlink:title="clamps a value between low and high">
<polygon fill="white" stroke="black" points="359,-246 359,-265 449,-265 449,-246 359,-246"/>
<text text-anchor="middle" x="404" y="-253" font-family="Helvetica,sans-Serif" font-size="10.00">irr::core::clamp</text>
</a>
</g>
</g>
<!-- Node2&#45;&gt;Node3 -->
<g id="edge2" class="edge">
<title>Node2&#45;&gt;Node3</title>
<path fill="none" stroke="midnightblue" d="M280.66,-152.72C294.73,-173.83 322.73,-212.05 355,-235.5 358.03,-237.7 361.33,-239.71 364.74,-241.54"/>
<polygon fill="midnightblue" stroke="midnightblue" points="363.38,-244.77 373.91,-245.94 366.42,-238.46 363.38,-244.77"/>
</g>
<!-- Node6 -->
<g id="node6" class="node">
<title>Node6</title>
<g id="a_node6"><a xlink:href="classirr_1_1video_1_1SColor.html#a8b0bcff9036b06e3483978a84a924b91" target="_top" xlink:title="Returns the alpha component of the color.">
<polygon fill="white" stroke="black" points="355,-196.5 355,-226.5 453,-226.5 453,-196.5 355,-196.5"/>
<text text-anchor="start" x="363" y="-214.5" font-family="Helvetica,sans-Serif" font-size="10.00">irr::video::SColor</text>
<text text-anchor="middle" x="404" y="-203.5" font-family="Helvetica,sans-Serif" font-size="10.00">::getAlpha</text>
</a>
</g>
</g>
<!-- Node2&#45;&gt;Node6 -->
<g id="edge5" class="edge">
<title>Node2&#45;&gt;Node6</title>
<path fill="none" stroke="midnightblue" d="M296.18,-152.61C312.77,-162.47 335.04,-175.49 355,-186.5 358.05,-188.18 361.23,-189.91 364.43,-191.62"/>
<polygon fill="midnightblue" stroke="midnightblue" points="362.96,-194.8 373.44,-196.38 366.23,-188.61 362.96,-194.8"/>
</g>
<!-- Node7 -->
<g id="node7" class="node">
<title>Node7</title>
<g id="a_node7"><a xlink:href="classirr_1_1video_1_1SColor.html#afb60ac456b2efc2f2a4f04a643293d26" target="_top" xlink:title="Returns the blue component of the color.">
<polygon fill="white" stroke="black" points="355,-147.5 355,-177.5 453,-177.5 453,-147.5 355,-147.5"/>
<text text-anchor="start" x="363" y="-165.5" font-family="Helvetica,sans-Serif" font-size="10.00">irr::video::SColor</text>
<text text-anchor="middle" x="404" y="-154.5" font-family="Helvetica,sans-Serif" font-size="10.00">::getBlue</text>
</a>
</g>
</g>
<!-- Node2&#45;&gt;Node7 -->
<g id="edge6" class="edge">
<title>Node2&#45;&gt;Node7</title>
<path fill="none" stroke="midnightblue" d="M319.03,-146.6C327.4,-148.18 336.19,-149.85 344.8,-151.48"/>
<polygon fill="midnightblue" stroke="midnightblue" points="344.31,-154.95 354.79,-153.37 345.61,-148.07 344.31,-154.95"/>
</g>
<!-- Node8 -->
<g id="node8" class="node">
<title>Node8</title>
<g id="a_node8"><a xlink:href="classirr_1_1video_1_1SColor.html#a198773366f2a5436c1ca4adc9037bb8d" target="_top" xlink:title="Returns the green component of the color.">
<polygon fill="white" stroke="black" points="355,-98.5 355,-128.5 453,-128.5 453,-98.5 355,-98.5"/>
<text text-anchor="start" x="363" y="-116.5" font-family="Helvetica,sans-Serif" font-size="10.00">irr::video::SColor</text>
<text text-anchor="middle" x="404" y="-105.5" font-family="Helvetica,sans-Serif" font-size="10.00">::getGreen</text>
</a>
</g>
</g>
<!-- Node2&#45;&gt;Node8 -->
<g id="edge7" class="edge">
<title>Node2&#45;&gt;Node8</title>
<path fill="none" stroke="midnightblue" d="M319.03,-128.77C327.4,-127.25 336.19,-125.65 344.8,-124.08"/>
<polygon fill="midnightblue" stroke="midnightblue" points="345.57,-127.5 354.79,-122.27 344.32,-120.61 345.57,-127.5"/>
</g>
<!-- Node9 -->
<g id="node9" class="node">
<title>Node9</title>
<g id="a_node9"><a xlink:href="classirr_1_1video_1_1SColor.html#a70d11ec2247581c79ee11e0e1b511978" target="_top" xlink:title="Returns the red component of the color.">
<polygon fill="white" stroke="black" points="355,-49.5 355,-79.5 453,-79.5 453,-49.5 355,-49.5"/>
<text text-anchor="start" x="363" y="-67.5" font-family="Helvetica,sans-Serif" font-size="10.00">irr::video::SColor</text>
<text text-anchor="middle" x="404" y="-56.5" font-family="Helvetica,sans-Serif" font-size="10.00">::getRed</text>
</a>
</g>
</g>
<!-- Node2&#45;&gt;Node9 -->
<g id="edge8" class="edge">
<title>Node2&#45;&gt;Node9</title>
<path fill="none" stroke="midnightblue" d="M295.76,-122.5C312.36,-112.57 334.8,-99.42 355,-88.5 357.66,-87.06 360.42,-85.6 363.2,-84.15"/>
<polygon fill="midnightblue" stroke="midnightblue" points="364.82,-87.25 372.12,-79.57 361.63,-81.02 364.82,-87.25"/>
</g>
<!-- Node10 -->
<g id="node10" class="node">
<title>Node10</title>
<g id="a_node10"><a xlink:href="classirr_1_1video_1_1SColor.html#ab001c0c2515ff5f8a0b324d1345485f4" target="_top" xlink:title="Constructor of the Color. Does nothing.">
<polygon fill="white" stroke="black" points="355,-0.5 355,-30.5 453,-30.5 453,-0.5 355,-0.5"/>
<text text-anchor="start" x="363" y="-18.5" font-family="Helvetica,sans-Serif" font-size="10.00">irr::video::SColor</text>
<text text-anchor="middle" x="404" y="-7.5" font-family="Helvetica,sans-Serif" font-size="10.00">::SColor</text>
</a>
</g>
</g>
<!-- Node2&#45;&gt;Node10 -->
<g id="edge9" class="edge">
<title>Node2&#45;&gt;Node10</title>
<path fill="none" stroke="midnightblue" d="M281.13,-122.24C295.55,-101.41 323.74,-63.91 355,-39.5 356.57,-38.27 358.21,-37.09 359.9,-35.94"/>
<polygon fill="midnightblue" stroke="midnightblue" points="361.99,-38.76 368.67,-30.54 358.32,-32.8 361.99,-38.76"/>
</g>
<!-- Node4 -->
<g id="node4" class="node">
<title>Node4</title>
<g id="a_node4"><a xlink:href="namespaceirr_1_1core.html#afca1ce7ac54e0c31a9047947f4c7319b" target="_top" xlink:title="returns maximum of two values. Own implementation to get rid of the STL (VS6 problems)">
<polygon fill="white" stroke="black" points="489,-265 489,-284 576,-284 576,-265 489,-265"/>
<text text-anchor="middle" x="532.5" y="-272" font-family="Helvetica,sans-Serif" font-size="10.00">irr::core::max_</text>
</a>
</g>
</g>
<!-- Node3&#45;&gt;Node4 -->
<g id="edge3" class="edge">
<title>Node3&#45;&gt;Node4</title>
<path fill="none" stroke="midnightblue" d="M449.24,-262.15C458.76,-263.57 468.91,-265.1 478.72,-266.57"/>
<polygon fill="midnightblue" stroke="midnightblue" points="478.36,-270.06 488.77,-268.08 479.4,-263.14 478.36,-270.06"/>
</g>
<!-- Node5 -->
<g id="node5" class="node">
<title>Node5</title>
<g id="a_node5"><a xlink:href="namespaceirr_1_1core.html#a9d34bfdbbe9c136b01ae04974572bc11" target="_top" xlink:title="returns minimum of two values. Own implementation to get rid of the STL (VS6 problems)">
<polygon fill="white" stroke="black" points="490.5,-227 490.5,-246 574.5,-246 574.5,-227 490.5,-227"/>
<text text-anchor="middle" x="532.5" y="-234" font-family="Helvetica,sans-Serif" font-size="10.00">irr::core::min_</text>
</a>
</g>
</g>
<!-- Node3&#45;&gt;Node5 -->
<g id="edge4" class="edge">
<title>Node3&#45;&gt;Node5</title>
<path fill="none" stroke="midnightblue" d="M449.24,-248.85C459.29,-247.35 470.04,-245.73 480.35,-244.18"/>
<polygon fill="midnightblue" stroke="midnightblue" points="481.09,-247.61 490.46,-242.66 480.05,-240.69 481.09,-247.61"/>
</g>
</g>
</svg>
        <g id="navigator" transform="translate(0 0)" fill="#404254">
                <rect fill="#f2f5e9" fill-opacity="0.5" stroke="#606060" stroke-width=".5" x="0" y="0" width="60" height="60"/>
                <use id="zoomplus" xlink:href="#zoomPlus" x="17" y="9" onmousedown="handleZoom(evt,'in')"/>
                <use id="zoomminus" xlink:href="#zoomMin" x="42" y="9" onmousedown="handleZoom(evt,'out')"/>
                <use id="reset" xlink:href="#resetDef" x="30" y="36" onmousedown="handleReset()"/>
                <g id="arrowUp" xlink:href="#dirArrow" transform="translate(30 24)" onmousedown="handlePan(0,-1)">
                  <use xlink:href="#rim" fill="#404040">
                        <set attributeName="fill" to="#808080" begin="arrowUp.mouseover" end="arrowUp.mouseout"/>
                  </use>
                  <path fill="none" stroke="white" stroke-width="1.5" d="M0,-3.0v7 M-2.5,-0.5L0,-3.0L2.5,-0.5"/>
                </g>
                <g id="arrowRight" xlink:href="#dirArrow" transform="rotate(90) translate(36 -43)" onmousedown="handlePan(1,0)">
                  <use xlink:href="#rim" fill="#404040">
                        <set attributeName="fill" to="#808080" begin="arrowRight.mouseover" end="arrowRight.mouseout"/>
                  </use>
                  <path fill="none" stroke="white" stroke-width="1.5" d="M0,-3.0v7 M-2.5,-0.5L0,-3.0L2.5,-0.5"/>
                </g>
                <g id="arrowDown" xlink:href="#dirArrow" transform="rotate(180) translate(-30 -48)" onmousedown="handlePan(0,1)">
                  <use xlink:href="#rim" fill="#404040">
                        <set attributeName="fill" to="#808080" begin="arrowDown.mouseover" end="arrowDown.mouseout"/>
                  </use>
                  <path fill="none" stroke="white" stroke-width="1.5" d="M0,-3.0v7 M-2.5,-0.5L0,-3.0L2.5,-0.5"/>
                </g>
                <g id="arrowLeft" xlink:href="#dirArrow" transform="rotate(270) translate(-36 17)" onmousedown="handlePan(-1,0)">
                  <use xlink:href="#rim" fill="#404040">
                        <set attributeName="fill" to="#808080" begin="arrowLeft.mouseover" end="arrowLeft.mouseout"/>
                  </use>
                  <path fill="none" stroke="white" stroke-width="1.5" d="M0,-3.0v7 M-2.5,-0.5L0,-3.0L2.5,-0.5"/>
                </g>
        </g>
        <svg viewBox="0 0 15 15" width="100%" height="30px" preserveAspectRatio="xMaxYMin meet">
         <g id="arrow_out" transform="scale(0.3 0.3)">
          <a xlink:href="classirr_1_1gui_1_1GUISkin_adce8b03cbb9dc4da4a2d8af781f87491_cgraph_org.svg" target="_base">
           <rect id="button" ry="5" rx="5" y="6" x="6" height="38" width="38"
                fill="#f2f5e9" fill-opacity="0.5" stroke="#606060" stroke-width="1.0"/>
           <path id="arrow"
             d="M 11.500037,31.436501 C 11.940474,20.09759 22.043105,11.32322 32.158766,21.979434 L 37.068811,17.246167 C 37.068811,17.246167 37.088388,32 37.088388,32 L 22.160133,31.978069 C 22.160133,31.978069 26.997745,27.140456 26.997745,27.140456 C 18.528582,18.264221 13.291696,25.230495 11.500037,31.436501 z"
             style="fill:#404040;"/>
          </a>
         </g>
        </svg>
</svg>
