<?xml version="1.0" encoding="UTF-8" standalone="no"?>
<!DOCTYPE svg PUBLIC "-//W3C//DTD SVG 1.1//EN"
 "http://www.w3.org/Graphics/SVG/1.1/DTD/svg11.dtd">
<!-- Generated by graphviz version 2.43.0 (0)
 -->
<!-- Title: irr::scene::CSceneManager::addCameraSceneNode Pages: 1 -->
<svg width="498pt" height="88pt"
 viewBox="0.00 0.00 498.00 88.00" xmlns="http://www.w3.org/2000/svg" xmlns:xlink="http://www.w3.org/1999/xlink">
<g id="graph0" class="graph" transform="scale(1 1) rotate(0) translate(4 84)">
<title>irr::scene::CSceneManager::addCameraSceneNode</title>
<polygon fill="white" stroke="transparent" points="-4,4 -4,-84 494,-84 494,4 -4,4"/>
<!-- Node1 -->
<g id="node1" class="node">
<title>Node1</title>
<g id="a_node1"><a xlink:title=" ">
<polygon fill="#bfbfbf" stroke="black" points="0,-27.5 0,-57.5 146,-57.5 146,-27.5 0,-27.5"/>
<text text-anchor="start" x="8" y="-45.5" font-family="Helvetica,sans-Serif" font-size="10.00">irr::scene::CSceneManager</text>
<text text-anchor="middle" x="73" y="-34.5" font-family="Helvetica,sans-Serif" font-size="10.00">::addCameraSceneNode</text>
</a>
</g>
</g>
<!-- Node2 -->
<g id="node2" class="node">
<title>Node2</title>
<g id="a_node2"><a xlink:href="classirr_1_1IReferenceCounted.html#a03856a09355b89d178090c4a5f738543" target="_top" xlink:title="Drops the object. Decrements the reference counter by one.">
<polygon fill="white" stroke="black" points="364,-49.5 364,-79.5 490,-79.5 490,-49.5 364,-49.5"/>
<text text-anchor="start" x="372" y="-67.5" font-family="Helvetica,sans-Serif" font-size="10.00">irr::IReferenceCounted</text>
<text text-anchor="middle" x="427" y="-56.5" font-family="Helvetica,sans-Serif" font-size="10.00">::drop</text>
</a>
</g>
</g>
<!-- Node1&#45;&gt;Node2 -->
<g id="edge1" class="edge">
<title>Node1&#45;&gt;Node2</title>
<path fill="none" stroke="midnightblue" d="M146.08,-47.01C206.64,-50.79 292.77,-56.17 353.46,-59.97"/>
<polygon fill="midnightblue" stroke="midnightblue" points="353.53,-63.48 363.73,-60.61 353.97,-56.49 353.53,-63.48"/>
</g>
<!-- Node3 -->
<g id="node3" class="node">
<title>Node3</title>
<g id="a_node3"><a xlink:href="classirr_1_1scene_1_1CSceneManager.html#ab51eada7234e5e5b3a2cd504126d7817" target="_top" xlink:title=" ">
<polygon fill="white" stroke="black" points="182,-5.5 182,-35.5 328,-35.5 328,-5.5 182,-5.5"/>
<text text-anchor="start" x="190" y="-23.5" font-family="Helvetica,sans-Serif" font-size="10.00">irr::scene::CSceneManager</text>
<text text-anchor="middle" x="255" y="-12.5" font-family="Helvetica,sans-Serif" font-size="10.00">::setActiveCamera</text>
</a>
</g>
</g>
<!-- Node1&#45;&gt;Node3 -->
<g id="edge2" class="edge">
<title>Node1&#45;&gt;Node3</title>
<path fill="none" stroke="midnightblue" d="M146.18,-33.68C154.61,-32.65 163.27,-31.59 171.82,-30.54"/>
<polygon fill="midnightblue" stroke="midnightblue" points="172.31,-34.01 181.81,-29.32 171.46,-27.06 172.31,-34.01"/>
</g>
<!-- Node3&#45;&gt;Node2 -->
<g id="edge3" class="edge">
<title>Node3&#45;&gt;Node2</title>
<path fill="none" stroke="midnightblue" d="M314.03,-35.52C328.17,-39.18 343.43,-43.13 357.99,-46.9"/>
<polygon fill="midnightblue" stroke="midnightblue" points="357.39,-50.36 367.94,-49.47 359.14,-43.58 357.39,-50.36"/>
</g>
<!-- Node4 -->
<g id="node4" class="node">
<title>Node4</title>
<g id="a_node4"><a xlink:href="classirr_1_1IReferenceCounted.html#a396f9cdbe311ada278626477b3c6f0f5" target="_top" xlink:title="Grabs the object. Increments the reference counter by one.">
<polygon fill="white" stroke="black" points="364,-0.5 364,-30.5 490,-30.5 490,-0.5 364,-0.5"/>
<text text-anchor="start" x="372" y="-18.5" font-family="Helvetica,sans-Serif" font-size="10.00">irr::IReferenceCounted</text>
<text text-anchor="middle" x="427" y="-7.5" font-family="Helvetica,sans-Serif" font-size="10.00">::grab</text>
</a>
</g>
</g>
<!-- Node3&#45;&gt;Node4 -->
<g id="edge4" class="edge">
<title>Node3&#45;&gt;Node4</title>
<path fill="none" stroke="midnightblue" d="M328.1,-18.38C336.52,-18.13 345.12,-17.88 353.56,-17.63"/>
<polygon fill="midnightblue" stroke="midnightblue" points="353.84,-21.12 363.74,-17.33 353.64,-14.13 353.84,-21.12"/>
</g>
</g>
</svg>
