<?xml version="1.0" encoding="UTF-8" standalone="no"?>
<!DOCTYPE svg PUBLIC "-//W3C//DTD SVG 1.1//EN"
 "http://www.w3.org/Graphics/SVG/1.1/DTD/svg11.dtd">
<!-- Generated by graphviz version 2.43.0 (0)
 -->
<!-- Title: irr::io::CFileList Pages: 1 -->
<svg width="820pt" height="373pt"
 viewBox="0.00 0.00 820.00 373.00" xmlns="http://www.w3.org/2000/svg" xmlns:xlink="http://www.w3.org/1999/xlink">
<g id="graph0" class="graph" transform="scale(1 1) rotate(0) translate(4 369)">
<title>irr::io::CFileList</title>
<polygon fill="white" stroke="transparent" points="-4,4 -4,-369 816,-369 816,4 -4,4"/>
<!-- Node1 -->
<g id="node1" class="node">
<title>Node1</title>
<g id="a_node1"><a xlink:title="Implementation of a file list.">
<polygon fill="#bfbfbf" stroke="black" points="723,-261.5 723,-280.5 812,-280.5 812,-261.5 723,-261.5"/>
<text text-anchor="middle" x="767.5" y="-268.5" font-family="Helvetica,sans-Serif" font-size="10.00">irr::io::CFileList</text>
</a>
</g>
</g>
<!-- Node2 -->
<g id="node2" class="node">
<title>Node2</title>
<g id="a_node2"><a xlink:href="classirr_1_1io_1_1IFileList.html" target="_top" xlink:title="Provides a list of files and folders.">
<polygon fill="white" stroke="black" points="560.5,-310.5 560.5,-329.5 646.5,-329.5 646.5,-310.5 560.5,-310.5"/>
<text text-anchor="middle" x="603.5" y="-317.5" font-family="Helvetica,sans-Serif" font-size="10.00">irr::io::IFileList</text>
</a>
</g>
</g>
<!-- Node2&#45;&gt;Node1 -->
<g id="edge1" class="edge">
<title>Node2&#45;&gt;Node1</title>
<path fill="none" stroke="midnightblue" d="M656.96,-309.06C672.55,-305.38 689.59,-300.94 705,-296 718.61,-291.64 733.46,-285.63 745.16,-280.61"/>
<polygon fill="midnightblue" stroke="midnightblue" points="655.9,-305.71 646.94,-311.36 657.48,-312.53 655.9,-305.71"/>
</g>
<!-- Node3 -->
<g id="node3" class="node">
<title>Node3</title>
<g id="a_node3"><a xlink:href="classirr_1_1IReferenceCounted.html" target="_top" xlink:title="Base class of most objects of the Irrlicht Engine.">
<polygon fill="white" stroke="black" points="254.5,-310.5 254.5,-329.5 380.5,-329.5 380.5,-310.5 254.5,-310.5"/>
<text text-anchor="middle" x="317.5" y="-317.5" font-family="Helvetica,sans-Serif" font-size="10.00">irr::IReferenceCounted</text>
</a>
</g>
</g>
<!-- Node3&#45;&gt;Node2 -->
<g id="edge2" class="edge">
<title>Node3&#45;&gt;Node2</title>
<path fill="none" stroke="midnightblue" d="M390.94,-320C444.46,-320 515.49,-320 560.1,-320"/>
<polygon fill="midnightblue" stroke="midnightblue" points="390.83,-316.5 380.83,-320 390.82,-323.5 390.83,-316.5"/>
</g>
<!-- Node4 -->
<g id="node4" class="node">
<title>Node4</title>
<g id="a_node4"><a xlink:title=" ">
<polygon fill="white" stroke="#bfbfbf" points="42,-345.5 42,-364.5 80,-364.5 80,-345.5 42,-345.5"/>
<text text-anchor="middle" x="61" y="-352.5" font-family="Helvetica,sans-Serif" font-size="10.00">char</text>
</a>
</g>
</g>
<!-- Node4&#45;&gt;Node3 -->
<g id="edge3" class="edge">
<title>Node4&#45;&gt;Node3</title>
<path fill="none" stroke="#9a32cd" stroke-dasharray="5,2" d="M90.02,-351.54C123.57,-347.35 181.43,-339.99 231,-333 238.73,-331.91 246.85,-330.73 254.88,-329.53"/>
<polygon fill="#9a32cd" stroke="#9a32cd" points="89.52,-348.07 80.03,-352.78 90.38,-355.02 89.52,-348.07"/>
<text text-anchor="middle" x="185.5" y="-347" font-family="Helvetica,sans-Serif" font-size="10.00"> DebugName</text>
</g>
<!-- Node5 -->
<g id="node5" class="node">
<title>Node5</title>
<g id="a_node5"><a xlink:title=" ">
<polygon fill="white" stroke="#bfbfbf" points="36,-307.5 36,-326.5 86,-326.5 86,-307.5 36,-307.5"/>
<text text-anchor="middle" x="61" y="-314.5" font-family="Helvetica,sans-Serif" font-size="10.00">int32_t</text>
</a>
</g>
</g>
<!-- Node5&#45;&gt;Node3 -->
<g id="edge4" class="edge">
<title>Node5&#45;&gt;Node3</title>
<path fill="none" stroke="#9a32cd" stroke-dasharray="5,2" d="M96.55,-317.41C136.96,-317.88 204.64,-318.68 254.27,-319.27"/>
<polygon fill="#9a32cd" stroke="#9a32cd" points="96.44,-313.91 86.4,-317.29 96.36,-320.91 96.44,-313.91"/>
<text text-anchor="middle" x="185.5" y="-321" font-family="Helvetica,sans-Serif" font-size="10.00"> ReferenceCounter</text>
</g>
<!-- Node6 -->
<g id="node6" class="node">
<title>Node6</title>
<g id="a_node6"><a xlink:href="classbool.html" target="_top" xlink:title=" ">
<polygon fill="white" stroke="black" points="42,-233.5 42,-252.5 80,-252.5 80,-233.5 42,-233.5"/>
<text text-anchor="middle" x="61" y="-240.5" font-family="Helvetica,sans-Serif" font-size="10.00">bool</text>
</a>
</g>
</g>
<!-- Node6&#45;&gt;Node1 -->
<g id="edge5" class="edge">
<title>Node6&#45;&gt;Node1</title>
<path fill="none" stroke="#9a32cd" stroke-dasharray="5,2" d="M90.23,-248.23C105.01,-250.74 123.42,-253.52 140,-255 358.1,-274.48 620.47,-273.22 722.72,-271.79"/>
<polygon fill="#9a32cd" stroke="#9a32cd" points="90.66,-244.75 80.2,-246.47 89.45,-251.65 90.66,-244.75"/>
<text text-anchor="middle" x="466" y="-285" font-family="Helvetica,sans-Serif" font-size="10.00"> IgnoreCase</text>
<text text-anchor="middle" x="466" y="-274" font-family="Helvetica,sans-Serif" font-size="10.00">IgnorePaths</text>
</g>
<!-- Node7 -->
<g id="node7" class="node">
<title>Node7</title>
<g id="a_node7"><a xlink:href="classirr_1_1core_1_1array.html" target="_top" xlink:title=" ">
<polygon fill="white" stroke="black" points="546,-203 546,-233 661,-233 661,-203 546,-203"/>
<text text-anchor="start" x="554" y="-221" font-family="Helvetica,sans-Serif" font-size="10.00">irr::core::array&lt; irr</text>
<text text-anchor="middle" x="603.5" y="-210" font-family="Helvetica,sans-Serif" font-size="10.00">::io::SFileListEntry &gt;</text>
</a>
</g>
</g>
<!-- Node6&#45;&gt;Node7 -->
<g id="edge8" class="edge">
<title>Node6&#45;&gt;Node7</title>
<path fill="none" stroke="#9a32cd" stroke-dasharray="5,2" d="M90.44,-242.87C163.3,-242.36 362.56,-239.81 528,-227 533.72,-226.56 539.67,-226 545.6,-225.38"/>
<polygon fill="#9a32cd" stroke="#9a32cd" points="90.22,-239.37 80.24,-242.94 90.26,-246.37 90.22,-239.37"/>
<text text-anchor="middle" x="317.5" y="-243" font-family="Helvetica,sans-Serif" font-size="10.00"> is_sorted</text>
</g>
<!-- Node9 -->
<g id="node9" class="node">
<title>Node9</title>
<g id="a_node9"><a xlink:href="classirr_1_1core_1_1array.html" target="_top" xlink:title="Self reallocating template array (like stl vector) with additional features.">
<polygon fill="white" stroke="black" points="260.5,-187.5 260.5,-206.5 374.5,-206.5 374.5,-187.5 260.5,-187.5"/>
<text text-anchor="middle" x="317.5" y="-194.5" font-family="Helvetica,sans-Serif" font-size="10.00">irr::core::array&lt; T &gt;</text>
</a>
</g>
</g>
<!-- Node6&#45;&gt;Node9 -->
<g id="edge10" class="edge">
<title>Node6&#45;&gt;Node9</title>
<path fill="none" stroke="#9a32cd" stroke-dasharray="5,2" d="M89.56,-232.74C104.33,-227.61 122.95,-221.71 140,-218 179.8,-209.34 225.48,-204.03 260.4,-200.91"/>
<polygon fill="#9a32cd" stroke="#9a32cd" points="88.26,-229.49 80.01,-236.14 90.61,-236.08 88.26,-229.49"/>
<text text-anchor="middle" x="185.5" y="-221" font-family="Helvetica,sans-Serif" font-size="10.00"> is_sorted</text>
</g>
<!-- Node7&#45;&gt;Node1 -->
<g id="edge6" class="edge">
<title>Node7&#45;&gt;Node1</title>
<path fill="none" stroke="#9a32cd" stroke-dasharray="5,2" d="M660.2,-236.22C686.1,-244.7 715.83,-254.42 737.25,-261.43"/>
<polygon fill="#9a32cd" stroke="#9a32cd" points="661.08,-232.83 650.49,-233.05 658.91,-239.48 661.08,-232.83"/>
<text text-anchor="middle" x="692" y="-253" font-family="Helvetica,sans-Serif" font-size="10.00"> Files</text>
</g>
<!-- Node8 -->
<g id="node8" class="node">
<title>Node8</title>
<g id="a_node8"><a xlink:title=" ">
<polygon fill="white" stroke="#bfbfbf" points="252,-138 252,-168 383,-168 383,-138 252,-138"/>
<text text-anchor="start" x="260" y="-156" font-family="Helvetica,sans-Serif" font-size="10.00">vector&lt; irr::io::SFileList</text>
<text text-anchor="middle" x="317.5" y="-145" font-family="Helvetica,sans-Serif" font-size="10.00">Entry &gt;</text>
</a>
</g>
</g>
<!-- Node8&#45;&gt;Node7 -->
<g id="edge7" class="edge">
<title>Node8&#45;&gt;Node7</title>
<path fill="none" stroke="#9a32cd" stroke-dasharray="5,2" d="M393.06,-161.45C433.46,-167.02 483.98,-175.62 528,-188 541.96,-191.93 556.87,-197.61 569.66,-202.98"/>
<polygon fill="#9a32cd" stroke="#9a32cd" points="393.39,-157.96 383.01,-160.09 392.46,-164.9 393.39,-157.96"/>
<text text-anchor="middle" x="466" y="-191" font-family="Helvetica,sans-Serif" font-size="10.00"> m_data</text>
</g>
<!-- Node9&#45;&gt;Node7 -->
<g id="edge9" class="edge">
<title>Node9&#45;&gt;Node7</title>
<path fill="none" stroke="orange" stroke-dasharray="5,2" d="M384.75,-201.9C433.51,-205.5 499.12,-210.36 545.54,-213.79"/>
<polygon fill="orange" stroke="orange" points="384.84,-198.4 374.61,-201.15 384.32,-205.38 384.84,-198.4"/>
<text text-anchor="middle" x="466" y="-215" font-family="Helvetica,sans-Serif" font-size="10.00"> &lt; irr::io::SFileListEntry &gt;</text>
</g>
<!-- Node10 -->
<g id="node10" class="node">
<title>Node10</title>
<g id="a_node10"><a xlink:title=" ">
<polygon fill="white" stroke="#bfbfbf" points="23,-173.5 23,-192.5 99,-192.5 99,-173.5 23,-173.5"/>
<text text-anchor="middle" x="61" y="-180.5" font-family="Helvetica,sans-Serif" font-size="10.00">vector&lt; T &gt;</text>
</a>
</g>
</g>
<!-- Node10&#45;&gt;Node9 -->
<g id="edge11" class="edge">
<title>Node10&#45;&gt;Node9</title>
<path fill="none" stroke="#9a32cd" stroke-dasharray="5,2" d="M109.42,-181.45C143.33,-180.79 190.04,-180.78 231,-184 241.03,-184.79 251.66,-186.05 261.9,-187.49"/>
<polygon fill="#9a32cd" stroke="#9a32cd" points="109.24,-177.95 99.32,-181.67 109.4,-184.95 109.24,-177.95"/>
<text text-anchor="middle" x="185.5" y="-187" font-family="Helvetica,sans-Serif" font-size="10.00"> m_data</text>
</g>
<!-- Node11 -->
<g id="node11" class="node">
<title>Node11</title>
<g id="a_node11"><a xlink:href="classirr_1_1core_1_1string.html" target="_top" xlink:title=" ">
<polygon fill="white" stroke="black" points="555.5,-75 555.5,-105 651.5,-105 651.5,-75 555.5,-75"/>
<text text-anchor="start" x="563.5" y="-93" font-family="Helvetica,sans-Serif" font-size="10.00">irr::core::string&lt;</text>
<text text-anchor="middle" x="603.5" y="-82" font-family="Helvetica,sans-Serif" font-size="10.00"> fschar_t &gt;</text>
</a>
</g>
</g>
<!-- Node11&#45;&gt;Node1 -->
<g id="edge12" class="edge">
<title>Node11&#45;&gt;Node1</title>
<path fill="none" stroke="#9a32cd" stroke-dasharray="5,2" d="M624.84,-112.73C660.45,-152.51 732.66,-233.19 757.71,-261.18"/>
<polygon fill="#9a32cd" stroke="#9a32cd" points="627.31,-110.24 618.03,-105.12 622.09,-114.91 627.31,-110.24"/>
<text text-anchor="middle" x="692" y="-205" font-family="Helvetica,sans-Serif" font-size="10.00"> Path</text>
</g>
<!-- Node12 -->
<g id="node12" class="node">
<title>Node12</title>
<g id="a_node12"><a xlink:title=" ">
<polygon fill="white" stroke="#bfbfbf" points="249,-99.5 249,-118.5 386,-118.5 386,-99.5 249,-99.5"/>
<text text-anchor="middle" x="317.5" y="-106.5" font-family="Helvetica,sans-Serif" font-size="10.00">basic_string&lt; fschar_t &gt;</text>
</a>
</g>
</g>
<!-- Node12&#45;&gt;Node11 -->
<g id="edge13" class="edge">
<title>Node12&#45;&gt;Node11</title>
<path fill="none" stroke="#9a32cd" stroke-dasharray="5,2" d="M396.15,-103.8C447.09,-100.4 512.04,-96.05 555.33,-93.16"/>
<polygon fill="#9a32cd" stroke="#9a32cd" points="395.91,-100.31 386.16,-104.47 396.38,-107.3 395.91,-100.31"/>
<text text-anchor="middle" x="466" y="-105" font-family="Helvetica,sans-Serif" font-size="10.00"> str</text>
</g>
<!-- Node13 -->
<g id="node13" class="node">
<title>Node13</title>
<g id="a_node13"><a xlink:title=" ">
<polygon fill="white" stroke="#bfbfbf" points="0,-49.5 0,-68.5 122,-68.5 122,-49.5 0,-49.5"/>
<text text-anchor="middle" x="61" y="-56.5" font-family="Helvetica,sans-Serif" font-size="10.00">static const size_type</text>
</a>
</g>
</g>
<!-- Node13&#45;&gt;Node11 -->
<g id="edge14" class="edge">
<title>Node13&#45;&gt;Node11</title>
<path fill="none" stroke="#9a32cd" stroke-dasharray="5,2" d="M132.34,-63.03C244.31,-69.46 460.13,-81.83 555.37,-87.3"/>
<polygon fill="#9a32cd" stroke="#9a32cd" points="132.35,-59.53 122.17,-62.45 131.95,-66.52 132.35,-59.53"/>
<text text-anchor="middle" x="317.5" y="-80" font-family="Helvetica,sans-Serif" font-size="10.00"> npos</text>
</g>
<!-- Node14 -->
<g id="node14" class="node">
<title>Node14</title>
<g id="a_node14"><a xlink:href="classirr_1_1core_1_1string.html" target="_top" xlink:title="Very simple string class with some useful features.">
<polygon fill="white" stroke="black" points="259.5,-14.5 259.5,-33.5 375.5,-33.5 375.5,-14.5 259.5,-14.5"/>
<text text-anchor="middle" x="317.5" y="-21.5" font-family="Helvetica,sans-Serif" font-size="10.00">irr::core::string&lt; T &gt;</text>
</a>
</g>
</g>
<!-- Node13&#45;&gt;Node14 -->
<g id="edge17" class="edge">
<title>Node13&#45;&gt;Node14</title>
<path fill="none" stroke="#9a32cd" stroke-dasharray="5,2" d="M122.56,-47.77C128.45,-46.79 134.33,-45.84 140,-45 179.68,-39.08 224.57,-33.76 259.15,-29.95"/>
<polygon fill="#9a32cd" stroke="#9a32cd" points="121.97,-44.32 112.7,-49.45 123.14,-51.22 121.97,-44.32"/>
<text text-anchor="middle" x="185.5" y="-48" font-family="Helvetica,sans-Serif" font-size="10.00"> npos</text>
</g>
<!-- Node14&#45;&gt;Node11 -->
<g id="edge15" class="edge">
<title>Node14&#45;&gt;Node11</title>
<path fill="none" stroke="orange" stroke-dasharray="5,2" d="M386.02,-23.27C427.87,-24.63 482.19,-29.73 528,-45 548.21,-51.74 568.76,-64.7 583.14,-74.99"/>
<polygon fill="orange" stroke="orange" points="386.02,-19.77 375.93,-23 385.84,-26.77 386.02,-19.77"/>
<text text-anchor="middle" x="466" y="-48" font-family="Helvetica,sans-Serif" font-size="10.00"> &lt; fschar_t &gt;</text>
</g>
<!-- Node15 -->
<g id="node15" class="node">
<title>Node15</title>
<g id="a_node15"><a xlink:title=" ">
<polygon fill="white" stroke="#bfbfbf" points="9,-0.5 9,-19.5 113,-19.5 113,-0.5 9,-0.5"/>
<text text-anchor="middle" x="61" y="-7.5" font-family="Helvetica,sans-Serif" font-size="10.00">basic_string&lt; T &gt;</text>
</a>
</g>
</g>
<!-- Node15&#45;&gt;Node14 -->
<g id="edge16" class="edge">
<title>Node15&#45;&gt;Node14</title>
<path fill="none" stroke="#9a32cd" stroke-dasharray="5,2" d="M123.25,-8.23C155.38,-7.84 195.37,-8.2 231,-11 241.03,-11.79 251.66,-13.05 261.9,-14.49"/>
<polygon fill="#9a32cd" stroke="#9a32cd" points="123.06,-4.73 113.11,-8.38 123.16,-11.73 123.06,-4.73"/>
<text text-anchor="middle" x="185.5" y="-14" font-family="Helvetica,sans-Serif" font-size="10.00"> str</text>
</g>
</g>
</svg>
