<?xml version="1.0" encoding="UTF-8" standalone="no"?>
<!DOCTYPE svg PUBLIC "-//W3C//DTD SVG 1.1//EN"
 "http://www.w3.org/Graphics/SVG/1.1/DTD/svg11.dtd">
<!-- Generated by graphviz version 2.43.0 (0)
 -->
<!-- Title: lib/irrlichtmt Pages: 1 -->
<svg width="490pt" height="183pt"
 viewBox="0.00 0.00 490.00 183.00" xmlns="http://www.w3.org/2000/svg" xmlns:xlink="http://www.w3.org/1999/xlink">
<g id="graph0" class="graph" transform="scale(1 1) rotate(0) translate(4 179)">
<title>lib/irrlichtmt</title>
<polygon fill="white" stroke="transparent" points="-4,4 -4,-179 486,-179 486,4 -4,4"/>
<g id="clust1" class="cluster">
<title>clusterdir_97aefd0d527b934f1d99a682da8fe6a9</title>
<g id="a_clust1"><a xlink:href="dir_97aefd0d527b934f1d99a682da8fe6a9.html" target="_top" xlink:title="lib">
<polygon fill="#ddddee" stroke="black" points="8,-8 8,-167 474,-167 474,-8 8,-8"/>
<text text-anchor="middle" x="241" y="-155" font-family="Helvetica,sans-Serif" font-size="10.00">lib</text>
</a>
</g>
</g>
<g id="clust2" class="cluster">
<title>clusterdir_6c4894f1478df0f290d7f6188ab60168</title>
<g id="a_clust2"><a xlink:href="dir_6c4894f1478df0f290d7f6188ab60168.html" target="_top">
<polygon fill="#eeeeff" stroke="black" points="16,-16 16,-140 466,-140 466,-16 16,-16"/>
</a>
</g>
</g>
<!-- dir_6c4894f1478df0f290d7f6188ab60168 -->
<g id="node1" class="node">
<title>dir_6c4894f1478df0f290d7f6188ab60168</title>
<text text-anchor="middle" x="427" y="-111.5" font-family="Helvetica,sans-Serif" font-size="10.00">irrlichtmt</text>
</g>
<!-- dir_7f11e2e450571ae64855af99c5763739 -->
<g id="node2" class="node">
<title>dir_7f11e2e450571ae64855af99c5763739</title>
<g id="a_node2"><a xlink:href="dir_7f11e2e450571ae64855af99c5763739.html" target="_top" xlink:title="bin">
<polygon fill="white" stroke="red" points="378,-132 324,-132 324,-96 378,-96 378,-132"/>
<text text-anchor="middle" x="351" y="-111.5" font-family="Helvetica,sans-Serif" font-size="10.00">bin</text>
</a>
</g>
</g>
<!-- dir_15190ee721578b4e4725eec2173004a5 -->
<g id="node3" class="node">
<title>dir_15190ee721578b4e4725eec2173004a5</title>
<g id="a_node3"><a xlink:href="dir_15190ee721578b4e4725eec2173004a5.html" target="_top" xlink:title="doc">
<polygon fill="white" stroke="black" points="306,-132 252,-132 252,-96 306,-96 306,-132"/>
<text text-anchor="middle" x="279" y="-111.5" font-family="Helvetica,sans-Serif" font-size="10.00">doc</text>
</a>
</g>
</g>
<!-- dir_d5dc0fa4a3be236708bb04c3bf791938 -->
<g id="node4" class="node">
<title>dir_d5dc0fa4a3be236708bb04c3bf791938</title>
<g id="a_node4"><a xlink:href="dir_d5dc0fa4a3be236708bb04c3bf791938.html" target="_top" xlink:title="examples">
<polygon fill="white" stroke="red" points="233.5,-132 168.5,-132 168.5,-96 233.5,-96 233.5,-132"/>
<text text-anchor="middle" x="201" y="-111.5" font-family="Helvetica,sans-Serif" font-size="10.00">examples</text>
</a>
</g>
</g>
<!-- dir_bf4654a746b76b49c61dabc24cd1d669 -->
<g id="node5" class="node">
<title>dir_bf4654a746b76b49c61dabc24cd1d669</title>
<g id="a_node5"><a xlink:href="dir_bf4654a746b76b49c61dabc24cd1d669.html" target="_top" xlink:title="include">
<polygon fill="white" stroke="black" points="153,-60 99,-60 99,-24 153,-24 153,-60"/>
<text text-anchor="middle" x="126" y="-39.5" font-family="Helvetica,sans-Serif" font-size="10.00">include</text>
</a>
</g>
</g>
<!-- dir_d5dc0fa4a3be236708bb04c3bf791938&#45;&gt;dir_bf4654a746b76b49c61dabc24cd1d669 -->
<g id="edge2" class="edge">
<title>dir_d5dc0fa4a3be236708bb04c3bf791938&#45;&gt;dir_bf4654a746b76b49c61dabc24cd1d669</title>
<path fill="none" stroke="black" d="M182.46,-95.7C173.2,-87.05 161.84,-76.45 151.74,-67.03"/>
<polygon fill="black" stroke="black" points="154.02,-64.37 144.33,-60.1 149.25,-69.49 154.02,-64.37"/>
<g id="a_edge2&#45;headlabel"><a xlink:href="dir_000025_000061.html" target="_top" xlink:title="1">
<text text-anchor="middle" x="158.59" y="-62.25" font-family="Helvetica,sans-Serif" font-size="10.00">1</text>
</a>
</g>
</g>
<!-- dir_4bfbe59dc600fe0a1d82c522fe796d1b -->
<g id="node6" class="node">
<title>dir_4bfbe59dc600fe0a1d82c522fe796d1b</title>
<g id="a_node6"><a xlink:href="dir_4bfbe59dc600fe0a1d82c522fe796d1b.html" target="_top" xlink:title="lib">
<polygon fill="white" stroke="red" points="150,-132 96,-132 96,-96 150,-96 150,-132"/>
<text text-anchor="middle" x="123" y="-111.5" font-family="Helvetica,sans-Serif" font-size="10.00">lib</text>
</a>
</g>
</g>
<!-- dir_71307d54ba907d7373aae84e9d802a64 -->
<g id="node7" class="node">
<title>dir_71307d54ba907d7373aae84e9d802a64</title>
<g id="a_node7"><a xlink:href="dir_71307d54ba907d7373aae84e9d802a64.html" target="_top" xlink:title="source">
<polygon fill="white" stroke="red" points="78,-132 24,-132 24,-96 78,-96 78,-132"/>
<text text-anchor="middle" x="51" y="-111.5" font-family="Helvetica,sans-Serif" font-size="10.00">source</text>
</a>
</g>
</g>
<!-- dir_71307d54ba907d7373aae84e9d802a64&#45;&gt;dir_bf4654a746b76b49c61dabc24cd1d669 -->
<g id="edge1" class="edge">
<title>dir_71307d54ba907d7373aae84e9d802a64&#45;&gt;dir_bf4654a746b76b49c61dabc24cd1d669</title>
<path fill="none" stroke="black" d="M69.54,-95.7C78.8,-87.05 90.16,-76.45 100.26,-67.03"/>
<polygon fill="black" stroke="black" points="102.75,-69.49 107.67,-60.1 97.98,-64.37 102.75,-69.49"/>
<g id="a_edge1&#45;headlabel"><a xlink:href="dir_000026_000061.html" target="_top" xlink:title="6">
<text text-anchor="middle" x="102.06" y="-71.51" font-family="Helvetica,sans-Serif" font-size="10.00">6</text>
</a>
</g>
</g>
</g>
</svg>
