<?xml version="1.0" encoding="UTF-8" standalone="no"?>
<!DOCTYPE svg PUBLIC "-//W3C//DTD SVG 1.1//EN"
 "http://www.w3.org/Graphics/SVG/1.1/DTD/svg11.dtd">
<!-- Generated by graphviz version 2.43.0 (0)
 -->
<!-- Title: lib Pages: 1 -->
<svg width="534pt" height="76pt"
 viewBox="0.00 0.00 534.00 76.00" xmlns="http://www.w3.org/2000/svg" xmlns:xlink="http://www.w3.org/1999/xlink">
<g id="graph0" class="graph" transform="scale(1 1) rotate(0) translate(4 72)">
<title>lib</title>
<polygon fill="white" stroke="transparent" points="-4,4 -4,-72 530,-72 530,4 -4,4"/>
<g id="clust1" class="cluster">
<title>clusterdir_97aefd0d527b934f1d99a682da8fe6a9</title>
<g id="a_clust1"><a xlink:href="dir_97aefd0d527b934f1d99a682da8fe6a9.html" target="_top">
<polygon fill="#eeeeff" stroke="black" points="8,-8 8,-60 518,-60 518,-8 8,-8"/>
</a>
</g>
</g>
<!-- dir_97aefd0d527b934f1d99a682da8fe6a9 -->
<g id="node1" class="node">
<title>dir_97aefd0d527b934f1d99a682da8fe6a9</title>
<text text-anchor="middle" x="483" y="-31.5" font-family="Helvetica,sans-Serif" font-size="10.00">lib</text>
</g>
<!-- dir_42e797414106e79dff5303720b3f86cb -->
<g id="node2" class="node">
<title>dir_42e797414106e79dff5303720b3f86cb</title>
<g id="a_node2"><a xlink:href="dir_42e797414106e79dff5303720b3f86cb.html" target="_top" xlink:title="bitop">
<polygon fill="white" stroke="black" points="438,-52 384,-52 384,-16 438,-16 438,-52"/>
<text text-anchor="middle" x="411" y="-31.5" font-family="Helvetica,sans-Serif" font-size="10.00">bitop</text>
</a>
</g>
</g>
<!-- dir_2c04156e159eaea7eaaa6796d525a3cf -->
<g id="node3" class="node">
<title>dir_2c04156e159eaea7eaaa6796d525a3cf</title>
<g id="a_node3"><a xlink:href="dir_2c04156e159eaea7eaaa6796d525a3cf.html" target="_top" xlink:title="catch2">
<polygon fill="white" stroke="black" points="366,-52 312,-52 312,-16 366,-16 366,-52"/>
<text text-anchor="middle" x="339" y="-31.5" font-family="Helvetica,sans-Serif" font-size="10.00">catch2</text>
</a>
</g>
</g>
<!-- dir_0493b67bf325a42c841428e7643d6e09 -->
<g id="node4" class="node">
<title>dir_0493b67bf325a42c841428e7643d6e09</title>
<g id="a_node4"><a xlink:href="dir_0493b67bf325a42c841428e7643d6e09.html" target="_top" xlink:title="gmp">
<polygon fill="white" stroke="black" points="294,-52 240,-52 240,-16 294,-16 294,-52"/>
<text text-anchor="middle" x="267" y="-31.5" font-family="Helvetica,sans-Serif" font-size="10.00">gmp</text>
</a>
</g>
</g>
<!-- dir_6c4894f1478df0f290d7f6188ab60168 -->
<g id="node5" class="node">
<title>dir_6c4894f1478df0f290d7f6188ab60168</title>
<g id="a_node5"><a xlink:href="dir_6c4894f1478df0f290d7f6188ab60168.html" target="_top" xlink:title="irrlichtmt">
<polygon fill="white" stroke="red" points="222,-52 160,-52 160,-16 222,-16 222,-52"/>
<text text-anchor="middle" x="191" y="-31.5" font-family="Helvetica,sans-Serif" font-size="10.00">irrlichtmt</text>
</a>
</g>
</g>
<!-- dir_91d4b604045bf233cb010fd5abe576fd -->
<g id="node6" class="node">
<title>dir_91d4b604045bf233cb010fd5abe576fd</title>
<g id="a_node6"><a xlink:href="dir_91d4b604045bf233cb010fd5abe576fd.html" target="_top" xlink:title="jsoncpp">
<polygon fill="white" stroke="red" points="142,-52 88,-52 88,-16 142,-16 142,-52"/>
<text text-anchor="middle" x="115" y="-31.5" font-family="Helvetica,sans-Serif" font-size="10.00">jsoncpp</text>
</a>
</g>
</g>
<!-- dir_e3d6da42301ca0e60a340946f071e963 -->
<g id="node7" class="node">
<title>dir_e3d6da42301ca0e60a340946f071e963</title>
<g id="a_node7"><a xlink:href="dir_e3d6da42301ca0e60a340946f071e963.html" target="_top" xlink:title="lua">
<polygon fill="white" stroke="red" points="70,-52 16,-52 16,-16 70,-16 70,-52"/>
<text text-anchor="middle" x="43" y="-31.5" font-family="Helvetica,sans-Serif" font-size="10.00">lua</text>
</a>
</g>
</g>
</g>
</svg>
