<?xml version="1.0" encoding="UTF-8" standalone="no"?>
<!DOCTYPE svg PUBLIC "-//W3C//DTD SVG 1.1//EN"
 "http://www.w3.org/Graphics/SVG/1.1/DTD/svg11.dtd">
<!-- Generated by graphviz version 2.43.0 (0)
 -->
<!-- Title: Graphical Class Hierarchy Pages: 1 -->
<svg width="494pt" height="627pt"
 viewBox="0.00 0.00 494.00 627.00" xmlns="http://www.w3.org/2000/svg" xmlns:xlink="http://www.w3.org/1999/xlink">
<g id="graph0" class="graph" transform="scale(1 1) rotate(0) translate(4 623)">
<title>Graphical Class Hierarchy</title>
<polygon fill="white" stroke="transparent" points="-4,4 -4,-623 490,-623 490,4 -4,4"/>
<!-- Node0 -->
<g id="node1" class="node">
<title>Node0</title>
<g id="a_node1"><a xlink:href="classCatch_1_1Generators_1_1GeneratorUntypedBase.html" target="_top" xlink:title=" ">
<polygon fill="white" stroke="black" points="0,-91 0,-121 131,-121 131,-91 0,-91"/>
<text text-anchor="start" x="8" y="-109" font-family="Helvetica,sans-Serif" font-size="10.00">Catch::Generators::</text>
<text text-anchor="middle" x="65.5" y="-98" font-family="Helvetica,sans-Serif" font-size="10.00">GeneratorUntypedBase</text>
</a>
</g>
</g>
<!-- Node1 -->
<g id="node2" class="node">
<title>Node1</title>
<g id="a_node2"><a xlink:href="structCatch_1_1Generators_1_1IGenerator.html" target="_top" xlink:title=" ">
<polygon fill="white" stroke="black" points="177.5,-347 177.5,-377 287.5,-377 287.5,-347 177.5,-347"/>
<text text-anchor="start" x="185.5" y="-365" font-family="Helvetica,sans-Serif" font-size="10.00">Catch::Generators::</text>
<text text-anchor="middle" x="232.5" y="-354" font-family="Helvetica,sans-Serif" font-size="10.00">IGenerator&lt; T &gt;</text>
</a>
</g>
</g>
<!-- Node0&#45;&gt;Node1 -->
<g id="edge1" class="edge">
<title>Node0&#45;&gt;Node1</title>
<path fill="none" stroke="midnightblue" d="M81.85,-129.81C115.32,-181.74 194.1,-303.98 221.72,-346.83"/>
<polygon fill="midnightblue" stroke="midnightblue" points="84.69,-127.76 76.33,-121.25 78.8,-131.55 84.69,-127.76"/>
</g>
<!-- Node11 -->
<g id="node12" class="node">
<title>Node11</title>
<g id="a_node12"><a xlink:href="structCatch_1_1Generators_1_1IGenerator.html" target="_top" xlink:title=" ">
<polygon fill="white" stroke="black" points="174.5,-113 174.5,-143 290.5,-143 290.5,-113 174.5,-113"/>
<text text-anchor="start" x="182.5" y="-131" font-family="Helvetica,sans-Serif" font-size="10.00">Catch::Generators::</text>
<text text-anchor="middle" x="232.5" y="-120" font-family="Helvetica,sans-Serif" font-size="10.00">IGenerator&lt; Float &gt;</text>
</a>
</g>
</g>
<!-- Node0&#45;&gt;Node11 -->
<g id="edge11" class="edge">
<title>Node0&#45;&gt;Node11</title>
<path fill="none" stroke="midnightblue" d="M141.37,-115.98C152.48,-117.46 163.78,-118.97 174.45,-120.39"/>
<polygon fill="midnightblue" stroke="midnightblue" points="141.61,-112.48 131.24,-114.63 140.69,-119.42 141.61,-112.48"/>
</g>
<!-- Node13 -->
<g id="node14" class="node">
<title>Node13</title>
<g id="a_node14"><a xlink:href="structCatch_1_1Generators_1_1IGenerator.html" target="_top" xlink:title=" ">
<polygon fill="white" stroke="black" points="170,-61 170,-91 295,-91 295,-61 170,-61"/>
<text text-anchor="start" x="178" y="-79" font-family="Helvetica,sans-Serif" font-size="10.00">Catch::Generators::</text>
<text text-anchor="middle" x="232.5" y="-68" font-family="Helvetica,sans-Serif" font-size="10.00">IGenerator&lt; Integer &gt;</text>
</a>
</g>
</g>
<!-- Node0&#45;&gt;Node13 -->
<g id="edge13" class="edge">
<title>Node0&#45;&gt;Node13</title>
<path fill="none" stroke="midnightblue" d="M141.18,-92.42C150.79,-90.67 160.55,-88.9 169.91,-87.2"/>
<polygon fill="midnightblue" stroke="midnightblue" points="140.45,-89 131.24,-94.23 141.7,-95.88 140.45,-89"/>
</g>
<!-- Node15 -->
<g id="node16" class="node">
<title>Node15</title>
<g id="a_node16"><a xlink:href="structCatch_1_1Generators_1_1IGenerator.html" target="_top" xlink:title=" ">
<polygon fill="white" stroke="black" points="167,-0.5 167,-41.5 298,-41.5 298,-0.5 167,-0.5"/>
<text text-anchor="start" x="175" y="-29.5" font-family="Helvetica,sans-Serif" font-size="10.00">Catch::Generators::</text>
<text text-anchor="start" x="175" y="-18.5" font-family="Helvetica,sans-Serif" font-size="10.00">IGenerator&lt; std::vector</text>
<text text-anchor="middle" x="232.5" y="-7.5" font-family="Helvetica,sans-Serif" font-size="10.00">&lt; T &gt; &gt;</text>
</a>
</g>
</g>
<!-- Node0&#45;&gt;Node15 -->
<g id="edge15" class="edge">
<title>Node0&#45;&gt;Node15</title>
<path fill="none" stroke="midnightblue" d="M102.06,-85.8C121.16,-75.14 145.19,-62.03 167,-51 173.17,-47.88 179.73,-44.69 186.21,-41.61"/>
<polygon fill="midnightblue" stroke="midnightblue" points="100.13,-82.87 93.12,-90.81 103.55,-88.98 100.13,-82.87"/>
</g>
<!-- Node2 -->
<g id="node3" class="node">
<title>Node2</title>
<g id="a_node3"><a xlink:href="classCatch_1_1Generators_1_1FilterGenerator.html" target="_top" xlink:title=" ">
<polygon fill="white" stroke="black" points="355,-577.5 355,-618.5 465,-618.5 465,-577.5 355,-577.5"/>
<text text-anchor="start" x="363" y="-606.5" font-family="Helvetica,sans-Serif" font-size="10.00">Catch::Generators::</text>
<text text-anchor="start" x="363" y="-595.5" font-family="Helvetica,sans-Serif" font-size="10.00">FilterGenerator&lt; T,</text>
<text text-anchor="middle" x="410" y="-584.5" font-family="Helvetica,sans-Serif" font-size="10.00"> Predicate &gt;</text>
</a>
</g>
</g>
<!-- Node1&#45;&gt;Node2 -->
<g id="edge2" class="edge">
<title>Node1&#45;&gt;Node2</title>
<path fill="none" stroke="midnightblue" d="M239.39,-387.06C250.67,-429.79 279.18,-517.06 334,-568 340.06,-573.63 347.31,-578.26 354.88,-582.05"/>
<polygon fill="midnightblue" stroke="midnightblue" points="242.75,-386.04 236.89,-377.21 235.96,-387.76 242.75,-386.04"/>
</g>
<!-- Node3 -->
<g id="node4" class="node">
<title>Node3</title>
<g id="a_node4"><a xlink:href="classCatch_1_1Generators_1_1FixedValuesGenerator.html" target="_top" xlink:title=" ">
<polygon fill="white" stroke="black" points="334,-528 334,-558 486,-558 486,-528 334,-528"/>
<text text-anchor="start" x="342" y="-546" font-family="Helvetica,sans-Serif" font-size="10.00">Catch::Generators::</text>
<text text-anchor="middle" x="410" y="-535" font-family="Helvetica,sans-Serif" font-size="10.00">FixedValuesGenerator&lt; T &gt;</text>
</a>
</g>
</g>
<!-- Node1&#45;&gt;Node3 -->
<g id="edge3" class="edge">
<title>Node1&#45;&gt;Node3</title>
<path fill="none" stroke="midnightblue" d="M242.99,-386.84C257.45,-421.42 288.23,-483.81 334,-519 338.44,-522.42 343.39,-525.35 348.56,-527.88"/>
<polygon fill="midnightblue" stroke="midnightblue" points="246.19,-385.41 239.19,-377.46 239.7,-388.04 246.19,-385.41"/>
</g>
<!-- Node4 -->
<g id="node5" class="node">
<title>Node4</title>
<g id="a_node5"><a xlink:href="classCatch_1_1Generators_1_1Generators.html" target="_top" xlink:title=" ">
<polygon fill="white" stroke="black" points="355,-479 355,-509 465,-509 465,-479 355,-479"/>
<text text-anchor="start" x="363" y="-497" font-family="Helvetica,sans-Serif" font-size="10.00">Catch::Generators::</text>
<text text-anchor="middle" x="410" y="-486" font-family="Helvetica,sans-Serif" font-size="10.00">Generators&lt; T &gt;</text>
</a>
</g>
</g>
<!-- Node1&#45;&gt;Node4 -->
<g id="edge4" class="edge">
<title>Node1&#45;&gt;Node4</title>
<path fill="none" stroke="midnightblue" d="M249.7,-385.55C267.65,-409.97 298.76,-447.63 334,-470 340.35,-474.03 347.43,-477.43 354.64,-480.3"/>
<polygon fill="midnightblue" stroke="midnightblue" points="252.38,-383.28 243.7,-377.21 246.7,-387.37 252.38,-383.28"/>
</g>
<!-- Node5 -->
<g id="node6" class="node">
<title>Node5</title>
<g id="a_node6"><a xlink:href="classCatch_1_1Generators_1_1IteratorGenerator.html" target="_top" xlink:title=" ">
<polygon fill="white" stroke="black" points="345,-430 345,-460 475,-460 475,-430 345,-430"/>
<text text-anchor="start" x="353" y="-448" font-family="Helvetica,sans-Serif" font-size="10.00">Catch::Generators::</text>
<text text-anchor="middle" x="410" y="-437" font-family="Helvetica,sans-Serif" font-size="10.00">IteratorGenerator&lt; T &gt;</text>
</a>
</g>
</g>
<!-- Node1&#45;&gt;Node5 -->
<g id="edge5" class="edge">
<title>Node1&#45;&gt;Node5</title>
<path fill="none" stroke="midnightblue" d="M265.44,-382.66C284.77,-394.59 310.21,-409.3 334,-420 342.01,-423.6 350.7,-426.97 359.24,-429.99"/>
<polygon fill="midnightblue" stroke="midnightblue" points="267.08,-379.55 256.75,-377.22 263.37,-385.49 267.08,-379.55"/>
</g>
<!-- Node6 -->
<g id="node7" class="node">
<title>Node6</title>
<g id="a_node7"><a xlink:href="classCatch_1_1Generators_1_1MapGenerator.html" target="_top" xlink:title=" ">
<polygon fill="white" stroke="black" points="350,-369.5 350,-410.5 470,-410.5 470,-369.5 350,-369.5"/>
<text text-anchor="start" x="358" y="-398.5" font-family="Helvetica,sans-Serif" font-size="10.00">Catch::Generators::</text>
<text text-anchor="start" x="358" y="-387.5" font-family="Helvetica,sans-Serif" font-size="10.00">MapGenerator&lt; T, U,</text>
<text text-anchor="middle" x="410" y="-376.5" font-family="Helvetica,sans-Serif" font-size="10.00"> Func &gt;</text>
</a>
</g>
</g>
<!-- Node1&#45;&gt;Node6 -->
<g id="edge6" class="edge">
<title>Node1&#45;&gt;Node6</title>
<path fill="none" stroke="midnightblue" d="M297.5,-372.21C314.62,-374.94 333.05,-377.88 349.9,-380.57"/>
<polygon fill="midnightblue" stroke="midnightblue" points="298.01,-368.75 287.59,-370.63 296.91,-375.66 298.01,-368.75"/>
</g>
<!-- Node7 -->
<g id="node8" class="node">
<title>Node7</title>
<g id="a_node8"><a xlink:href="classCatch_1_1Generators_1_1RangeGenerator.html" target="_top" xlink:title=" ">
<polygon fill="white" stroke="black" points="347.5,-320 347.5,-350 472.5,-350 472.5,-320 347.5,-320"/>
<text text-anchor="start" x="355.5" y="-338" font-family="Helvetica,sans-Serif" font-size="10.00">Catch::Generators::</text>
<text text-anchor="middle" x="410" y="-327" font-family="Helvetica,sans-Serif" font-size="10.00">RangeGenerator&lt; T &gt;</text>
</a>
</g>
</g>
<!-- Node1&#45;&gt;Node7 -->
<g id="edge7" class="edge">
<title>Node1&#45;&gt;Node7</title>
<path fill="none" stroke="midnightblue" d="M297.55,-352.15C313.82,-349.64 331.27,-346.96 347.42,-344.47"/>
<polygon fill="midnightblue" stroke="midnightblue" points="296.94,-348.7 287.59,-353.68 298,-355.62 296.94,-348.7"/>
</g>
<!-- Node8 -->
<g id="node9" class="node">
<title>Node8</title>
<g id="a_node9"><a xlink:href="classCatch_1_1Generators_1_1RepeatGenerator.html" target="_top" xlink:title=" ">
<polygon fill="white" stroke="black" points="346,-271 346,-301 474,-301 474,-271 346,-271"/>
<text text-anchor="start" x="354" y="-289" font-family="Helvetica,sans-Serif" font-size="10.00">Catch::Generators::</text>
<text text-anchor="middle" x="410" y="-278" font-family="Helvetica,sans-Serif" font-size="10.00">RepeatGenerator&lt; T &gt;</text>
</a>
</g>
</g>
<!-- Node1&#45;&gt;Node8 -->
<g id="edge8" class="edge">
<title>Node1&#45;&gt;Node8</title>
<path fill="none" stroke="midnightblue" d="M269.56,-342.07C288.44,-332.05 312.12,-320.14 334,-311 342.36,-307.51 351.39,-304.16 360.2,-301.1"/>
<polygon fill="midnightblue" stroke="midnightblue" points="267.87,-339 260.71,-346.81 271.18,-345.17 267.87,-339"/>
</g>
<!-- Node9 -->
<g id="node10" class="node">
<title>Node9</title>
<g id="a_node10"><a xlink:href="classCatch_1_1Generators_1_1SingleValueGenerator.html" target="_top" xlink:title=" ">
<polygon fill="white" stroke="black" points="334.5,-222 334.5,-252 485.5,-252 485.5,-222 334.5,-222"/>
<text text-anchor="start" x="342.5" y="-240" font-family="Helvetica,sans-Serif" font-size="10.00">Catch::Generators::</text>
<text text-anchor="middle" x="410" y="-229" font-family="Helvetica,sans-Serif" font-size="10.00">SingleValueGenerator&lt; T &gt;</text>
</a>
</g>
</g>
<!-- Node1&#45;&gt;Node9 -->
<g id="edge9" class="edge">
<title>Node1&#45;&gt;Node9</title>
<path fill="none" stroke="midnightblue" d="M251.29,-338.91C269.75,-316.39 300.56,-282.61 334,-262 340.19,-258.18 347.04,-254.88 353.99,-252.03"/>
<polygon fill="midnightblue" stroke="midnightblue" points="248.38,-336.95 244.84,-346.94 253.83,-341.34 248.38,-336.95"/>
</g>
<!-- Node10 -->
<g id="node11" class="node">
<title>Node10</title>
<g id="a_node11"><a xlink:href="classCatch_1_1Generators_1_1TakeGenerator.html" target="_top" xlink:title=" ">
<polygon fill="white" stroke="black" points="352,-173 352,-203 468,-203 468,-173 352,-173"/>
<text text-anchor="start" x="360" y="-191" font-family="Helvetica,sans-Serif" font-size="10.00">Catch::Generators::</text>
<text text-anchor="middle" x="410" y="-180" font-family="Helvetica,sans-Serif" font-size="10.00">TakeGenerator&lt; T &gt;</text>
</a>
</g>
</g>
<!-- Node1&#45;&gt;Node10 -->
<g id="edge10" class="edge">
<title>Node1&#45;&gt;Node10</title>
<path fill="none" stroke="midnightblue" d="M243.81,-337.58C258.91,-304.66 290.09,-246.35 334,-213 339.36,-208.93 345.41,-205.51 351.7,-202.62"/>
<polygon fill="midnightblue" stroke="midnightblue" points="240.52,-336.36 239.65,-346.92 246.91,-339.21 240.52,-336.36"/>
</g>
<!-- Node12 -->
<g id="node13" class="node">
<title>Node12</title>
<g id="a_node13"><a xlink:href="classCatch_1_1Generators_1_1RandomFloatingGenerator.html" target="_top" xlink:title=" ">
<polygon fill="white" stroke="black" points="337,-112.5 337,-153.5 483,-153.5 483,-112.5 337,-112.5"/>
<text text-anchor="start" x="345" y="-141.5" font-family="Helvetica,sans-Serif" font-size="10.00">Catch::Generators::</text>
<text text-anchor="start" x="345" y="-130.5" font-family="Helvetica,sans-Serif" font-size="10.00">RandomFloatingGenerator</text>
<text text-anchor="middle" x="410" y="-119.5" font-family="Helvetica,sans-Serif" font-size="10.00">&lt; Float &gt;</text>
</a>
</g>
</g>
<!-- Node11&#45;&gt;Node12 -->
<g id="edge12" class="edge">
<title>Node11&#45;&gt;Node12</title>
<path fill="none" stroke="midnightblue" d="M301.13,-129.93C312.87,-130.26 325.12,-130.61 336.97,-130.95"/>
<polygon fill="midnightblue" stroke="midnightblue" points="301.06,-126.42 290.97,-129.64 300.86,-133.42 301.06,-126.42"/>
</g>
<!-- Node14 -->
<g id="node15" class="node">
<title>Node14</title>
<g id="a_node15"><a xlink:href="classCatch_1_1Generators_1_1RandomIntegerGenerator.html" target="_top" xlink:title=" ">
<polygon fill="white" stroke="black" points="340,-52.5 340,-93.5 480,-93.5 480,-52.5 340,-52.5"/>
<text text-anchor="start" x="348" y="-81.5" font-family="Helvetica,sans-Serif" font-size="10.00">Catch::Generators::</text>
<text text-anchor="start" x="348" y="-70.5" font-family="Helvetica,sans-Serif" font-size="10.00">RandomIntegerGenerator</text>
<text text-anchor="middle" x="410" y="-59.5" font-family="Helvetica,sans-Serif" font-size="10.00">&lt; Integer &gt;</text>
</a>
</g>
</g>
<!-- Node13&#45;&gt;Node14 -->
<g id="edge14" class="edge">
<title>Node13&#45;&gt;Node14</title>
<path fill="none" stroke="midnightblue" d="M305.65,-74.77C316.98,-74.57 328.66,-74.37 339.91,-74.18"/>
<polygon fill="midnightblue" stroke="midnightblue" points="305.31,-71.27 295.37,-74.94 305.43,-78.27 305.31,-71.27"/>
</g>
<!-- Node16 -->
<g id="node17" class="node">
<title>Node16</title>
<g id="a_node17"><a xlink:href="classCatch_1_1Generators_1_1ChunkGenerator.html" target="_top" xlink:title=" ">
<polygon fill="white" stroke="black" points="347.5,-3 347.5,-33 472.5,-33 472.5,-3 347.5,-3"/>
<text text-anchor="start" x="355.5" y="-21" font-family="Helvetica,sans-Serif" font-size="10.00">Catch::Generators::</text>
<text text-anchor="middle" x="410" y="-10" font-family="Helvetica,sans-Serif" font-size="10.00">ChunkGenerator&lt; T &gt;</text>
</a>
</g>
</g>
<!-- Node15&#45;&gt;Node16 -->
<g id="edge16" class="edge">
<title>Node15&#45;&gt;Node16</title>
<path fill="none" stroke="midnightblue" d="M308.61,-19.72C321.53,-19.5 334.82,-19.27 347.33,-19.05"/>
<polygon fill="midnightblue" stroke="midnightblue" points="308.29,-16.22 298.35,-19.89 308.41,-23.22 308.29,-16.22"/>
</g>
</g>
</svg>
