<?xml version="1.0" encoding="UTF-8" standalone="no"?>
<!DOCTYPE svg PUBLIC "-//W3C//DTD SVG 1.1//EN"
 "http://www.w3.org/Graphics/SVG/1.1/DTD/svg11.dtd">
<!-- Generated by graphviz version 2.43.0 (0)
 -->
<!-- Title: Graphical Class Hierarchy Pages: 1 -->
<svg width="444pt" height="332pt"
 viewBox="0.00 0.00 444.00 332.00" xmlns="http://www.w3.org/2000/svg" xmlns:xlink="http://www.w3.org/1999/xlink">
<g id="graph0" class="graph" transform="scale(1 1) rotate(0) translate(4 328)">
<title>Graphical Class Hierarchy</title>
<polygon fill="white" stroke="transparent" points="-4,4 -4,-328 440,-328 440,4 -4,4"/>
<!-- Node1352 -->
<g id="node1" class="node">
<title>Node1352</title>
<g id="a_node1"><a xlink:href="classAuthDatabase.html" target="_top" xlink:title=" ">
<polygon fill="white" stroke="black" points="118,-285.5 118,-304.5 204,-304.5 204,-285.5 118,-285.5"/>
<text text-anchor="middle" x="161" y="-292.5" font-family="Helvetica,sans-Serif" font-size="10.00">AuthDatabase</text>
</a>
</g>
</g>
<!-- Node1197 -->
<g id="node2" class="node">
<title>Node1197</title>
<g id="a_node2"><a xlink:href="classAuthDatabasePostgreSQL.html" target="_top" xlink:title=" ">
<polygon fill="white" stroke="black" points="277,-304.5 277,-323.5 418,-323.5 418,-304.5 277,-304.5"/>
<text text-anchor="middle" x="347.5" y="-311.5" font-family="Helvetica,sans-Serif" font-size="10.00">AuthDatabasePostgreSQL</text>
</a>
</g>
</g>
<!-- Node1352&#45;&gt;Node1197 -->
<g id="edge1" class="edge">
<title>Node1352&#45;&gt;Node1197</title>
<path fill="none" stroke="midnightblue" d="M214.48,-300.4C233.89,-302.4 256.2,-304.7 276.89,-306.83"/>
<polygon fill="midnightblue" stroke="midnightblue" points="214.63,-296.9 204.33,-299.36 213.92,-303.87 214.63,-296.9"/>
</g>
<!-- Node1201 -->
<g id="node3" class="node">
<title>Node1201</title>
<g id="a_node3"><a xlink:href="classAuthDatabaseSQLite3.html" target="_top" xlink:title=" ">
<polygon fill="white" stroke="black" points="286,-266.5 286,-285.5 409,-285.5 409,-266.5 286,-266.5"/>
<text text-anchor="middle" x="347.5" y="-273.5" font-family="Helvetica,sans-Serif" font-size="10.00">AuthDatabaseSQLite3</text>
</a>
</g>
</g>
<!-- Node1352&#45;&gt;Node1201 -->
<g id="edge2" class="edge">
<title>Node1352&#45;&gt;Node1201</title>
<path fill="none" stroke="midnightblue" d="M214.57,-289.59C236.79,-287.3 262.81,-284.62 285.84,-282.25"/>
<polygon fill="midnightblue" stroke="midnightblue" points="213.92,-286.13 204.33,-290.64 214.63,-293.1 213.92,-286.13"/>
</g>
<!-- Node1195 -->
<g id="node4" class="node">
<title>Node1195</title>
<g id="a_node4"><a xlink:href="classDatabase.html" target="_top" xlink:title=" ">
<polygon fill="white" stroke="black" points="0,-133.5 0,-152.5 63,-152.5 63,-133.5 0,-133.5"/>
<text text-anchor="middle" x="31.5" y="-140.5" font-family="Helvetica,sans-Serif" font-size="10.00">Database</text>
</a>
</g>
</g>
<!-- Node1196 -->
<g id="node5" class="node">
<title>Node1196</title>
<g id="a_node5"><a xlink:href="classDatabase__PostgreSQL.html" target="_top" xlink:title=" ">
<polygon fill="white" stroke="black" points="99,-190.5 99,-209.5 223,-209.5 223,-190.5 99,-190.5"/>
<text text-anchor="middle" x="161" y="-197.5" font-family="Helvetica,sans-Serif" font-size="10.00">Database_PostgreSQL</text>
</a>
</g>
</g>
<!-- Node1195&#45;&gt;Node1196 -->
<g id="edge3" class="edge">
<title>Node1195&#45;&gt;Node1196</title>
<path fill="none" stroke="midnightblue" d="M55.88,-158.03C68.35,-165.6 84.14,-174.53 99,-181 107.14,-184.54 116.14,-187.73 124.68,-190.43"/>
<polygon fill="midnightblue" stroke="midnightblue" points="57.42,-154.86 47.07,-152.56 53.73,-160.81 57.42,-154.86"/>
</g>
<!-- Node1200 -->
<g id="node9" class="node">
<title>Node1200</title>
<g id="a_node9"><a xlink:href="classDatabase__SQLite3.html" target="_top" xlink:title=" ">
<polygon fill="white" stroke="black" points="108,-114.5 108,-133.5 214,-133.5 214,-114.5 108,-114.5"/>
<text text-anchor="middle" x="161" y="-121.5" font-family="Helvetica,sans-Serif" font-size="10.00">Database_SQLite3</text>
</a>
</g>
</g>
<!-- Node1195&#45;&gt;Node1200 -->
<g id="edge8" class="edge">
<title>Node1195&#45;&gt;Node1200</title>
<path fill="none" stroke="midnightblue" d="M73.21,-136.93C84.21,-135.29 96.26,-133.5 107.79,-131.78"/>
<polygon fill="midnightblue" stroke="midnightblue" points="72.41,-133.51 63.04,-138.45 73.45,-140.44 72.41,-133.51"/>
</g>
<!-- Node1204 -->
<g id="node13" class="node">
<title>Node1204</title>
<g id="a_node13"><a xlink:href="classMapDatabase.html" target="_top" xlink:title=" ">
<polygon fill="white" stroke="black" points="119,-152.5 119,-171.5 203,-171.5 203,-152.5 119,-152.5"/>
<text text-anchor="middle" x="161" y="-159.5" font-family="Helvetica,sans-Serif" font-size="10.00">MapDatabase</text>
</a>
</g>
</g>
<!-- Node1195&#45;&gt;Node1204 -->
<g id="edge13" class="edge">
<title>Node1195&#45;&gt;Node1204</title>
<path fill="none" stroke="midnightblue" d="M73.22,-149.07C87.73,-151.23 104.07,-153.66 118.62,-155.83"/>
<polygon fill="midnightblue" stroke="midnightblue" points="73.45,-145.56 63.04,-147.55 72.41,-152.49 73.45,-145.56"/>
</g>
<!-- Node1205 -->
<g id="node15" class="node">
<title>Node1205</title>
<g id="a_node15"><a xlink:href="classModStorageDatabase.html" target="_top" xlink:title=" ">
<polygon fill="white" stroke="black" points="100,-76.5 100,-95.5 222,-95.5 222,-76.5 100,-76.5"/>
<text text-anchor="middle" x="161" y="-83.5" font-family="Helvetica,sans-Serif" font-size="10.00">ModStorageDatabase</text>
</a>
</g>
</g>
<!-- Node1195&#45;&gt;Node1205 -->
<g id="edge17" class="edge">
<title>Node1195&#45;&gt;Node1205</title>
<path fill="none" stroke="midnightblue" d="M55.88,-127.97C68.35,-120.4 84.14,-111.47 99,-105 107.14,-101.46 116.14,-98.27 124.68,-95.57"/>
<polygon fill="midnightblue" stroke="midnightblue" points="53.73,-125.19 47.07,-133.44 57.42,-131.14 53.73,-125.19"/>
</g>
<!-- Node1196&#45;&gt;Node1197 -->
<g id="edge4" class="edge">
<title>Node1196&#45;&gt;Node1197</title>
<path fill="none" stroke="#8b1a1a" d="M174.87,-217.66C191.7,-239.38 223.26,-275.73 259,-295 266.25,-298.91 274.25,-302.01 282.38,-304.48"/>
<polygon fill="#8b1a1a" stroke="#8b1a1a" points="177.6,-215.47 168.79,-209.6 172.02,-219.69 177.6,-215.47"/>
</g>
<!-- Node1198 -->
<g id="node6" class="node">
<title>Node1198</title>
<g id="a_node6"><a xlink:href="classMapDatabasePostgreSQL.html" target="_top" xlink:title=" ">
<polygon fill="white" stroke="black" points="277.5,-228.5 277.5,-247.5 417.5,-247.5 417.5,-228.5 277.5,-228.5"/>
<text text-anchor="middle" x="347.5" y="-235.5" font-family="Helvetica,sans-Serif" font-size="10.00">MapDatabasePostgreSQL</text>
</a>
</g>
</g>
<!-- Node1196&#45;&gt;Node1198 -->
<g id="edge5" class="edge">
<title>Node1196&#45;&gt;Node1198</title>
<path fill="none" stroke="#8b1a1a" d="M218.37,-211.61C244.61,-217.01 275.44,-223.36 300.28,-228.48"/>
<polygon fill="#8b1a1a" stroke="#8b1a1a" points="219.06,-208.18 208.56,-209.59 217.65,-215.03 219.06,-208.18"/>
</g>
<!-- Node1199 -->
<g id="node7" class="node">
<title>Node1199</title>
<g id="a_node7"><a xlink:href="classModStorageDatabasePostgreSQL.html" target="_top" xlink:title=" ">
<polygon fill="white" stroke="black" points="259,-190.5 259,-209.5 436,-209.5 436,-190.5 259,-190.5"/>
<text text-anchor="middle" x="347.5" y="-197.5" font-family="Helvetica,sans-Serif" font-size="10.00">ModStorageDatabasePostgreSQL</text>
</a>
</g>
</g>
<!-- Node1196&#45;&gt;Node1199 -->
<g id="edge6" class="edge">
<title>Node1196&#45;&gt;Node1199</title>
<path fill="none" stroke="#8b1a1a" d="M233.26,-200C241.63,-200 250.25,-200 258.82,-200"/>
<polygon fill="#8b1a1a" stroke="#8b1a1a" points="233.18,-196.5 223.18,-200 233.18,-203.5 233.18,-196.5"/>
</g>
<!-- Node2 -->
<g id="node8" class="node">
<title>Node2</title>
<g id="a_node8"><a xlink:href="classPlayerDatabasePostgreSQL.html" target="_top" xlink:title=" ">
<polygon fill="white" stroke="black" points="273,-152.5 273,-171.5 422,-171.5 422,-152.5 273,-152.5"/>
<text text-anchor="middle" x="347.5" y="-159.5" font-family="Helvetica,sans-Serif" font-size="10.00">PlayerDatabasePostgreSQL</text>
</a>
</g>
</g>
<!-- Node1196&#45;&gt;Node2 -->
<g id="edge7" class="edge">
<title>Node1196&#45;&gt;Node2</title>
<path fill="none" stroke="#8b1a1a" d="M218.37,-188.39C244.61,-182.99 275.44,-176.64 300.28,-171.52"/>
<polygon fill="#8b1a1a" stroke="#8b1a1a" points="217.65,-184.97 208.56,-190.41 219.06,-191.82 217.65,-184.97"/>
</g>
<!-- Node1200&#45;&gt;Node1201 -->
<g id="edge9" class="edge">
<title>Node1200&#45;&gt;Node1201</title>
<path fill="none" stroke="#8b1a1a" d="M218.27,-138.93C219.94,-140.18 221.53,-141.53 223,-143 260.64,-180.5 219.74,-221.2 259,-257 266.58,-263.91 276.07,-268.52 285.98,-271.56"/>
<polygon fill="#8b1a1a" stroke="#8b1a1a" points="219.66,-135.68 209.3,-133.51 216.04,-141.67 219.66,-135.68"/>
</g>
<!-- Node1202 -->
<g id="node10" class="node">
<title>Node1202</title>
<g id="a_node10"><a xlink:href="classMapDatabaseSQLite3.html" target="_top" xlink:title=" ">
<polygon fill="white" stroke="black" points="286.5,-114.5 286.5,-133.5 408.5,-133.5 408.5,-114.5 286.5,-114.5"/>
<text text-anchor="middle" x="347.5" y="-121.5" font-family="Helvetica,sans-Serif" font-size="10.00">MapDatabaseSQLite3</text>
</a>
</g>
</g>
<!-- Node1200&#45;&gt;Node1202 -->
<g id="edge10" class="edge">
<title>Node1200&#45;&gt;Node1202</title>
<path fill="none" stroke="#8b1a1a" d="M224.57,-124C244.47,-124 266.44,-124 286.18,-124"/>
<polygon fill="#8b1a1a" stroke="#8b1a1a" points="224.38,-120.5 214.38,-124 224.38,-127.5 224.38,-120.5"/>
</g>
<!-- Node1203 -->
<g id="node11" class="node">
<title>Node1203</title>
<g id="a_node11"><a xlink:href="classModStorageDatabaseSQLite3.html" target="_top" xlink:title=" ">
<polygon fill="white" stroke="black" points="268,-76.5 268,-95.5 427,-95.5 427,-76.5 268,-76.5"/>
<text text-anchor="middle" x="347.5" y="-83.5" font-family="Helvetica,sans-Serif" font-size="10.00">ModStorageDatabaseSQLite3</text>
</a>
</g>
</g>
<!-- Node1200&#45;&gt;Node1203 -->
<g id="edge11" class="edge">
<title>Node1200&#45;&gt;Node1203</title>
<path fill="none" stroke="#8b1a1a" d="M218.37,-112.39C244.61,-106.99 275.44,-100.64 300.28,-95.52"/>
<polygon fill="#8b1a1a" stroke="#8b1a1a" points="217.65,-108.97 208.56,-114.41 219.06,-115.82 217.65,-108.97"/>
</g>
<!-- Node3 -->
<g id="node12" class="node">
<title>Node3</title>
<g id="a_node12"><a xlink:href="classPlayerDatabaseSQLite3.html" target="_top" xlink:title=" ">
<polygon fill="white" stroke="black" points="282,-0.5 282,-19.5 413,-19.5 413,-0.5 282,-0.5"/>
<text text-anchor="middle" x="347.5" y="-7.5" font-family="Helvetica,sans-Serif" font-size="10.00">PlayerDatabaseSQLite3</text>
</a>
</g>
</g>
<!-- Node1200&#45;&gt;Node3 -->
<g id="edge12" class="edge">
<title>Node1200&#45;&gt;Node3</title>
<path fill="none" stroke="#8b1a1a" d="M216.77,-109.62C218.97,-108.22 221.06,-106.69 223,-105 251.22,-80.49 229.73,-52.24 259,-29 265.7,-23.68 273.55,-19.77 281.76,-16.91"/>
<polygon fill="#8b1a1a" stroke="#8b1a1a" points="215.04,-106.58 207.87,-114.38 218.34,-112.76 215.04,-106.58"/>
</g>
<!-- Node1204&#45;&gt;Node1198 -->
<g id="edge15" class="edge">
<title>Node1204&#45;&gt;Node1198</title>
<path fill="none" stroke="midnightblue" d="M212.35,-175.36C216.06,-177.04 219.65,-178.92 223,-181 242.75,-193.3 238.73,-207.58 259,-219 265.91,-222.89 273.53,-225.99 281.32,-228.45"/>
<polygon fill="midnightblue" stroke="midnightblue" points="213.56,-172.08 202.98,-171.58 210.94,-178.57 213.56,-172.08"/>
</g>
<!-- Node1204&#45;&gt;Node1202 -->
<g id="edge16" class="edge">
<title>Node1204&#45;&gt;Node1202</title>
<path fill="none" stroke="midnightblue" d="M213.53,-151.39C240.79,-145.77 273.97,-138.94 300.37,-133.5"/>
<polygon fill="midnightblue" stroke="midnightblue" points="212.49,-148.03 203.41,-153.47 213.91,-154.88 212.49,-148.03"/>
</g>
<!-- Node1 -->
<g id="node14" class="node">
<title>Node1</title>
<g id="a_node14"><a xlink:href="classDatabase__Dummy.html" target="_top" xlink:title=" ">
<polygon fill="white" stroke="black" points="294,-38.5 294,-57.5 401,-57.5 401,-38.5 294,-38.5"/>
<text text-anchor="middle" x="347.5" y="-45.5" font-family="Helvetica,sans-Serif" font-size="10.00">Database_Dummy</text>
</a>
</g>
</g>
<!-- Node1204&#45;&gt;Node1 -->
<g id="edge14" class="edge">
<title>Node1204&#45;&gt;Node1</title>
<path fill="none" stroke="midnightblue" d="M212.37,-150.18C216.19,-148.16 219.8,-145.78 223,-143 251.22,-118.49 229.73,-90.24 259,-67 268.86,-59.17 281.24,-54.39 293.56,-51.52"/>
<polygon fill="midnightblue" stroke="midnightblue" points="210.85,-147.03 203.16,-154.31 213.72,-153.42 210.85,-147.03"/>
</g>
<!-- Node1205&#45;&gt;Node1199 -->
<g id="edge19" class="edge">
<title>Node1205&#45;&gt;Node1199</title>
<path fill="none" stroke="midnightblue" d="M216.77,-100.38C218.97,-101.78 221.06,-103.31 223,-105 251.22,-129.51 229.73,-157.76 259,-181 263.75,-184.77 269.08,-187.83 274.71,-190.32"/>
<polygon fill="midnightblue" stroke="midnightblue" points="218.34,-97.24 207.87,-95.62 215.04,-103.42 218.34,-97.24"/>
</g>
<!-- Node1205&#45;&gt;Node1203 -->
<g id="edge20" class="edge">
<title>Node1205&#45;&gt;Node1203</title>
<path fill="none" stroke="midnightblue" d="M232.26,-86C243.93,-86 256.09,-86 267.95,-86"/>
<polygon fill="midnightblue" stroke="midnightblue" points="232.16,-82.5 222.16,-86 232.16,-89.5 232.16,-82.5"/>
</g>
<!-- Node1205&#45;&gt;Node1 -->
<g id="edge18" class="edge">
<title>Node1205&#45;&gt;Node1</title>
<path fill="none" stroke="midnightblue" d="M218.37,-74.39C244.61,-68.99 275.44,-62.64 300.28,-57.52"/>
<polygon fill="midnightblue" stroke="midnightblue" points="217.65,-70.97 208.56,-76.41 219.06,-77.82 217.65,-70.97"/>
</g>
<!-- Node0 -->
<g id="node16" class="node">
<title>Node0</title>
<g id="a_node16"><a xlink:href="classPlayerDatabase.html" target="_top" xlink:title=" ">
<polygon fill="white" stroke="black" points="114,-38.5 114,-57.5 208,-57.5 208,-38.5 114,-38.5"/>
<text text-anchor="middle" x="161" y="-45.5" font-family="Helvetica,sans-Serif" font-size="10.00">PlayerDatabase</text>
</a>
</g>
</g>
<!-- Node0&#45;&gt;Node2 -->
<g id="edge22" class="edge">
<title>Node0&#45;&gt;Node2</title>
<path fill="none" stroke="midnightblue" d="M216.77,-62.38C218.97,-63.78 221.06,-65.31 223,-67 251.22,-91.51 229.73,-119.76 259,-143 263.75,-146.77 269.08,-149.83 274.71,-152.32"/>
<polygon fill="midnightblue" stroke="midnightblue" points="218.34,-59.24 207.87,-57.62 215.04,-65.42 218.34,-59.24"/>
</g>
<!-- Node0&#45;&gt;Node3 -->
<g id="edge23" class="edge">
<title>Node0&#45;&gt;Node3</title>
<path fill="none" stroke="midnightblue" d="M217.93,-36.48C244.3,-31.05 275.37,-24.65 300.37,-19.5"/>
<polygon fill="midnightblue" stroke="midnightblue" points="217.17,-33.06 208.08,-38.51 218.58,-39.92 217.17,-33.06"/>
</g>
<!-- Node0&#45;&gt;Node1 -->
<g id="edge21" class="edge">
<title>Node0&#45;&gt;Node1</title>
<path fill="none" stroke="midnightblue" d="M218.13,-48C242.2,-48 270.16,-48 293.83,-48"/>
<polygon fill="midnightblue" stroke="midnightblue" points="218.08,-44.5 208.08,-48 218.08,-51.5 218.08,-44.5"/>
</g>
</g>
</svg>
