<?xml version="1.0" encoding="UTF-8" standalone="no"?>
<!DOCTYPE svg PUBLIC "-//W3C//DTD SVG 1.1//EN"
 "http://www.w3.org/Graphics/SVG/1.1/DTD/svg11.dtd">
<!-- Generated by graphviz version 2.43.0 (0)
 -->
<!-- Title: Graphical Class Hierarchy Pages: 1 -->
<svg width="323pt" height="66pt"
 viewBox="0.00 0.00 323.00 66.00" xmlns="http://www.w3.org/2000/svg" xmlns:xlink="http://www.w3.org/1999/xlink">
<g id="graph0" class="graph" transform="scale(1 1) rotate(0) translate(4 62)">
<title>Graphical Class Hierarchy</title>
<polygon fill="white" stroke="transparent" points="-4,4 -4,-62 319,-62 319,4 -4,4"/>
<!-- Node0 -->
<g id="node1" class="node">
<title>Node0</title>
<g id="a_node1"><a xlink:href="structirr_1_1video_1_1S3DVertex.html" target="_top" xlink:title="standard vertex used by the Irrlicht engine.">
<polygon fill="white" stroke="black" points="0,-19.5 0,-38.5 117,-38.5 117,-19.5 0,-19.5"/>
<text text-anchor="middle" x="58.5" y="-26.5" font-family="Helvetica,sans-Serif" font-size="10.00">irr::video::S3DVertex</text>
</a>
</g>
</g>
<!-- Node1 -->
<g id="node2" class="node">
<title>Node1</title>
<g id="a_node2"><a xlink:href="structirr_1_1video_1_1S3DVertex2TCoords.html" target="_top" xlink:title="Vertex with two texture coordinates.">
<polygon fill="white" stroke="black" points="153,-38.5 153,-57.5 315,-57.5 315,-38.5 153,-38.5"/>
<text text-anchor="middle" x="234" y="-45.5" font-family="Helvetica,sans-Serif" font-size="10.00">irr::video::S3DVertex2TCoords</text>
</a>
</g>
</g>
<!-- Node0&#45;&gt;Node1 -->
<g id="edge1" class="edge">
<title>Node0&#45;&gt;Node1</title>
<path fill="none" stroke="midnightblue" d="M127.36,-36.43C135.74,-37.35 144.38,-38.29 152.92,-39.23"/>
<polygon fill="midnightblue" stroke="midnightblue" points="127.59,-32.94 117.27,-35.33 126.83,-39.89 127.59,-32.94"/>
</g>
<!-- Node2 -->
<g id="node3" class="node">
<title>Node2</title>
<g id="a_node3"><a xlink:href="structirr_1_1video_1_1S3DVertexTangents.html" target="_top" xlink:title="Vertex with a tangent and binormal vector.">
<polygon fill="white" stroke="black" points="153.5,-0.5 153.5,-19.5 314.5,-19.5 314.5,-0.5 153.5,-0.5"/>
<text text-anchor="middle" x="234" y="-7.5" font-family="Helvetica,sans-Serif" font-size="10.00">irr::video::S3DVertexTangents</text>
</a>
</g>
</g>
<!-- Node0&#45;&gt;Node2 -->
<g id="edge2" class="edge">
<title>Node0&#45;&gt;Node2</title>
<path fill="none" stroke="midnightblue" d="M127.45,-21.56C135.91,-20.63 144.62,-19.68 153.23,-18.74"/>
<polygon fill="midnightblue" stroke="midnightblue" points="126.83,-18.11 117.27,-22.67 127.59,-25.06 126.83,-18.11"/>
</g>
</g>
</svg>
