<?xml version="1.0" encoding="UTF-8" standalone="no"?>
<!DOCTYPE svg PUBLIC "-//W3C//DTD SVG 1.1//EN"
 "http://www.w3.org/Graphics/SVG/1.1/DTD/svg11.dtd">
<!-- Generated by graphviz version 2.43.0 (0)
 -->
<!-- Title: Graphical Class Hierarchy Pages: 1 -->
<svg width="282pt" height="294pt"
 viewBox="0.00 0.00 282.00 294.00" xmlns="http://www.w3.org/2000/svg" xmlns:xlink="http://www.w3.org/1999/xlink">
<g id="graph0" class="graph" transform="scale(1 1) rotate(0) translate(4 290)">
<title>Graphical Class Hierarchy</title>
<polygon fill="white" stroke="transparent" points="-4,4 -4,-290 278,-290 278,4 -4,4"/>
<!-- Node0 -->
<g id="node1" class="node">
<title>Node0</title>
<g id="a_node1"><a xlink:href="structMapgenParams.html" target="_top" xlink:title=" ">
<polygon fill="white" stroke="black" points="0,-133.5 0,-152.5 92,-152.5 92,-133.5 0,-133.5"/>
<text text-anchor="middle" x="46" y="-140.5" font-family="Helvetica,sans-Serif" font-size="10.00">MapgenParams</text>
</a>
</g>
</g>
<!-- Node1 -->
<g id="node2" class="node">
<title>Node1</title>
<g id="a_node2"><a xlink:href="structMapgenCarpathianParams.html" target="_top" xlink:title=" ">
<polygon fill="white" stroke="black" points="128.5,-266.5 128.5,-285.5 273.5,-285.5 273.5,-266.5 128.5,-266.5"/>
<text text-anchor="middle" x="201" y="-273.5" font-family="Helvetica,sans-Serif" font-size="10.00">MapgenCarpathianParams</text>
</a>
</g>
</g>
<!-- Node0&#45;&gt;Node1 -->
<g id="edge1" class="edge">
<title>Node0&#45;&gt;Node1</title>
<path fill="none" stroke="midnightblue" d="M55.36,-162.03C67.57,-187.58 92.73,-232.59 128,-257 133.63,-260.9 140.02,-264 146.61,-266.46"/>
<polygon fill="midnightblue" stroke="midnightblue" points="58.41,-160.3 51.05,-152.68 52.05,-163.23 58.41,-160.3"/>
</g>
<!-- Node2 -->
<g id="node3" class="node">
<title>Node2</title>
<g id="a_node3"><a xlink:href="structMapgenFlatParams.html" target="_top" xlink:title=" ">
<polygon fill="white" stroke="black" points="146,-228.5 146,-247.5 256,-247.5 256,-228.5 146,-228.5"/>
<text text-anchor="middle" x="201" y="-235.5" font-family="Helvetica,sans-Serif" font-size="10.00">MapgenFlatParams</text>
</a>
</g>
</g>
<!-- Node0&#45;&gt;Node2 -->
<g id="edge2" class="edge">
<title>Node0&#45;&gt;Node2</title>
<path fill="none" stroke="midnightblue" d="M60.81,-160.23C75.63,-177.59 100.75,-203.91 128,-219 135.01,-222.88 142.85,-226 150.7,-228.49"/>
<polygon fill="midnightblue" stroke="midnightblue" points="63.48,-157.97 54.4,-152.52 58.1,-162.45 63.48,-157.97"/>
</g>
<!-- Node3 -->
<g id="node4" class="node">
<title>Node3</title>
<g id="a_node4"><a xlink:href="structMapgenFractalParams.html" target="_top" xlink:title=" ">
<polygon fill="white" stroke="black" points="138.5,-190.5 138.5,-209.5 263.5,-209.5 263.5,-190.5 138.5,-190.5"/>
<text text-anchor="middle" x="201" y="-197.5" font-family="Helvetica,sans-Serif" font-size="10.00">MapgenFractalParams</text>
</a>
</g>
</g>
<!-- Node0&#45;&gt;Node3 -->
<g id="edge3" class="edge">
<title>Node0&#45;&gt;Node3</title>
<path fill="none" stroke="midnightblue" d="M73.96,-157.15C89.47,-164.91 109.5,-174.28 128,-181 137.72,-184.53 148.4,-187.71 158.48,-190.41"/>
<polygon fill="midnightblue" stroke="midnightblue" points="75.44,-153.97 64.94,-152.56 72.27,-160.21 75.44,-153.97"/>
</g>
<!-- Node4 -->
<g id="node5" class="node">
<title>Node4</title>
<g id="a_node5"><a xlink:href="structMapgenSinglenodeParams.html" target="_top" xlink:title=" ">
<polygon fill="white" stroke="black" points="128,-152.5 128,-171.5 274,-171.5 274,-152.5 128,-152.5"/>
<text text-anchor="middle" x="201" y="-159.5" font-family="Helvetica,sans-Serif" font-size="10.00">MapgenSinglenodeParams</text>
</a>
</g>
</g>
<!-- Node0&#45;&gt;Node4 -->
<g id="edge4" class="edge">
<title>Node0&#45;&gt;Node4</title>
<path fill="none" stroke="midnightblue" d="M102.11,-149.84C110.51,-150.89 119.28,-151.98 127.98,-153.06"/>
<polygon fill="midnightblue" stroke="midnightblue" points="102.43,-146.36 92.08,-148.6 101.57,-153.3 102.43,-146.36"/>
</g>
<!-- Node5 -->
<g id="node6" class="node">
<title>Node5</title>
<g id="a_node6"><a xlink:href="structMapgenV5Params.html" target="_top" xlink:title=" ">
<polygon fill="white" stroke="black" points="149,-114.5 149,-133.5 253,-133.5 253,-114.5 149,-114.5"/>
<text text-anchor="middle" x="201" y="-121.5" font-family="Helvetica,sans-Serif" font-size="10.00">MapgenV5Params</text>
</a>
</g>
</g>
<!-- Node0&#45;&gt;Node5 -->
<g id="edge5" class="edge">
<title>Node0&#45;&gt;Node5</title>
<path fill="none" stroke="midnightblue" d="M102.35,-136.13C117.51,-134.24 133.88,-132.21 148.8,-130.36"/>
<polygon fill="midnightblue" stroke="midnightblue" points="101.57,-132.7 92.08,-137.4 102.43,-139.64 101.57,-132.7"/>
</g>
<!-- Node6 -->
<g id="node7" class="node">
<title>Node6</title>
<g id="a_node7"><a xlink:href="structMapgenV6Params.html" target="_top" xlink:title=" ">
<polygon fill="white" stroke="black" points="149,-76.5 149,-95.5 253,-95.5 253,-76.5 149,-76.5"/>
<text text-anchor="middle" x="201" y="-83.5" font-family="Helvetica,sans-Serif" font-size="10.00">MapgenV6Params</text>
</a>
</g>
</g>
<!-- Node0&#45;&gt;Node6 -->
<g id="edge6" class="edge">
<title>Node0&#45;&gt;Node6</title>
<path fill="none" stroke="midnightblue" d="M73.96,-128.85C89.47,-121.09 109.5,-111.72 128,-105 137.72,-101.47 148.4,-98.29 158.48,-95.59"/>
<polygon fill="midnightblue" stroke="midnightblue" points="72.27,-125.79 64.94,-133.44 75.44,-132.03 72.27,-125.79"/>
</g>
<!-- Node7 -->
<g id="node8" class="node">
<title>Node7</title>
<g id="a_node8"><a xlink:href="structMapgenV7Params.html" target="_top" xlink:title=" ">
<polygon fill="white" stroke="black" points="149,-38.5 149,-57.5 253,-57.5 253,-38.5 149,-38.5"/>
<text text-anchor="middle" x="201" y="-45.5" font-family="Helvetica,sans-Serif" font-size="10.00">MapgenV7Params</text>
</a>
</g>
</g>
<!-- Node0&#45;&gt;Node7 -->
<g id="edge7" class="edge">
<title>Node0&#45;&gt;Node7</title>
<path fill="none" stroke="midnightblue" d="M60.81,-125.77C75.63,-108.41 100.75,-82.09 128,-67 135.01,-63.12 142.85,-60 150.7,-57.51"/>
<polygon fill="midnightblue" stroke="midnightblue" points="58.1,-123.55 54.4,-133.48 63.48,-128.03 58.1,-123.55"/>
</g>
<!-- Node8 -->
<g id="node9" class="node">
<title>Node8</title>
<g id="a_node9"><a xlink:href="structMapgenValleysParams.html" target="_top" xlink:title=" ">
<polygon fill="white" stroke="black" points="137.5,-0.5 137.5,-19.5 264.5,-19.5 264.5,-0.5 137.5,-0.5"/>
<text text-anchor="middle" x="201" y="-7.5" font-family="Helvetica,sans-Serif" font-size="10.00">MapgenValleysParams</text>
</a>
</g>
</g>
<!-- Node0&#45;&gt;Node8 -->
<g id="edge8" class="edge">
<title>Node0&#45;&gt;Node8</title>
<path fill="none" stroke="midnightblue" d="M55.36,-123.97C67.57,-98.42 92.73,-53.41 128,-29 133.63,-25.1 140.02,-22 146.61,-19.54"/>
<polygon fill="midnightblue" stroke="midnightblue" points="52.05,-122.77 51.05,-133.32 58.41,-125.7 52.05,-122.77"/>
</g>
</g>
</svg>
