<?xml version="1.0" encoding="UTF-8" standalone="no"?>
<!DOCTYPE svg PUBLIC "-//W3C//DTD SVG 1.1//EN"
 "http://www.w3.org/Graphics/SVG/1.1/DTD/svg11.dtd">
<!-- Generated by graphviz version 2.43.0 (0)
 -->
<!-- Title: Graphical Class Hierarchy Pages: 1 -->
<svg width="317pt" height="284pt"
 viewBox="0.00 0.00 317.00 284.00" xmlns="http://www.w3.org/2000/svg" xmlns:xlink="http://www.w3.org/1999/xlink">
<g id="graph0" class="graph" transform="scale(1 1) rotate(0) translate(4 280)">
<title>Graphical Class Hierarchy</title>
<polygon fill="white" stroke="transparent" points="-4,4 -4,-280 313,-280 313,4 -4,4"/>
<!-- Node0 -->
<g id="node1" class="node">
<title>Node0</title>
<g id="a_node1"><a xlink:href="classCachedShaderSetting.html" target="_top" xlink:title=" ">
<polygon fill="white" stroke="black" points="0,-122.5 0,-152.5 121,-152.5 121,-122.5 0,-122.5"/>
<text text-anchor="start" x="8" y="-140.5" font-family="Helvetica,sans-Serif" font-size="10.00">CachedShaderSetting</text>
<text text-anchor="middle" x="60.5" y="-129.5" font-family="Helvetica,sans-Serif" font-size="10.00">&lt; float, count, true &gt;</text>
</a>
</g>
</g>
<!-- Node1 -->
<g id="node2" class="node">
<title>Node1</title>
<g id="a_node2"><a xlink:href="classCachedPixelShaderSetting.html" target="_top" xlink:title=" ">
<polygon fill="white" stroke="black" points="161,-245.5 161,-275.5 305,-275.5 305,-245.5 161,-245.5"/>
<text text-anchor="start" x="169" y="-263.5" font-family="Helvetica,sans-Serif" font-size="10.00">CachedPixelShaderSetting</text>
<text text-anchor="middle" x="233" y="-252.5" font-family="Helvetica,sans-Serif" font-size="10.00">&lt; float, 2 &gt;</text>
</a>
</g>
</g>
<!-- Node0&#45;&gt;Node1 -->
<g id="edge1" class="edge">
<title>Node0&#45;&gt;Node1</title>
<path fill="none" stroke="midnightblue" d="M78.45,-160.85C95.83,-183.23 124.82,-216.48 157,-236.5 162.46,-239.89 168.44,-242.85 174.56,-245.42"/>
<polygon fill="midnightblue" stroke="midnightblue" points="81.21,-158.7 72.37,-152.85 75.64,-162.93 81.21,-158.7"/>
</g>
<!-- Node2 -->
<g id="node3" class="node">
<title>Node2</title>
<g id="a_node3"><a xlink:href="classCachedPixelShaderSetting.html" target="_top" xlink:title=" ">
<polygon fill="white" stroke="black" points="161,-196.5 161,-226.5 305,-226.5 305,-196.5 161,-196.5"/>
<text text-anchor="start" x="169" y="-214.5" font-family="Helvetica,sans-Serif" font-size="10.00">CachedPixelShaderSetting</text>
<text text-anchor="middle" x="233" y="-203.5" font-family="Helvetica,sans-Serif" font-size="10.00">&lt; float, 3 &gt;</text>
</a>
</g>
</g>
<!-- Node0&#45;&gt;Node2 -->
<g id="edge2" class="edge">
<title>Node0&#45;&gt;Node2</title>
<path fill="none" stroke="midnightblue" d="M96.15,-157.49C113.98,-167.3 136.27,-178.83 157,-187.5 164.57,-190.66 172.71,-193.66 180.74,-196.4"/>
<polygon fill="midnightblue" stroke="midnightblue" points="97.7,-154.35 87.26,-152.54 94.3,-160.46 97.7,-154.35"/>
</g>
<!-- Node3 -->
<g id="node4" class="node">
<title>Node3</title>
<g id="a_node4"><a xlink:href="classCachedPixelShaderSetting.html" target="_top" xlink:title=" ">
<polygon fill="white" stroke="black" points="161,-147.5 161,-177.5 305,-177.5 305,-147.5 161,-147.5"/>
<text text-anchor="start" x="169" y="-165.5" font-family="Helvetica,sans-Serif" font-size="10.00">CachedPixelShaderSetting</text>
<text text-anchor="middle" x="233" y="-154.5" font-family="Helvetica,sans-Serif" font-size="10.00">&lt; float, 4 &gt;</text>
</a>
</g>
</g>
<!-- Node0&#45;&gt;Node3 -->
<g id="edge3" class="edge">
<title>Node0&#45;&gt;Node3</title>
<path fill="none" stroke="midnightblue" d="M131.23,-147.72C141.05,-149.16 151.14,-150.64 160.98,-152.09"/>
<polygon fill="midnightblue" stroke="midnightblue" points="131.53,-144.23 121.13,-146.24 130.52,-151.16 131.53,-144.23"/>
</g>
<!-- Node4 -->
<g id="node5" class="node">
<title>Node4</title>
<g id="a_node5"><a xlink:href="classCachedVertexShaderSetting.html" target="_top" xlink:title=" ">
<polygon fill="white" stroke="black" points="157,-98.5 157,-128.5 309,-128.5 309,-98.5 157,-98.5"/>
<text text-anchor="start" x="165" y="-116.5" font-family="Helvetica,sans-Serif" font-size="10.00">CachedVertexShaderSetting</text>
<text text-anchor="middle" x="233" y="-105.5" font-family="Helvetica,sans-Serif" font-size="10.00">&lt; float, 16 &gt;</text>
</a>
</g>
</g>
<!-- Node0&#45;&gt;Node4 -->
<g id="edge4" class="edge">
<title>Node0&#45;&gt;Node4</title>
<path fill="none" stroke="midnightblue" d="M131.28,-127.68C139.69,-126.49 148.32,-125.28 156.81,-124.08"/>
<polygon fill="midnightblue" stroke="midnightblue" points="130.55,-124.25 121.13,-129.11 131.52,-131.18 130.55,-124.25"/>
</g>
<!-- Node5 -->
<g id="node6" class="node">
<title>Node5</title>
<g id="a_node6"><a xlink:href="classCachedVertexShaderSetting.html" target="_top" xlink:title=" ">
<polygon fill="white" stroke="black" points="157,-49.5 157,-79.5 309,-79.5 309,-49.5 157,-49.5"/>
<text text-anchor="start" x="165" y="-67.5" font-family="Helvetica,sans-Serif" font-size="10.00">CachedVertexShaderSetting</text>
<text text-anchor="middle" x="233" y="-56.5" font-family="Helvetica,sans-Serif" font-size="10.00">&lt; float, 3 &gt;</text>
</a>
</g>
</g>
<!-- Node0&#45;&gt;Node5 -->
<g id="edge5" class="edge">
<title>Node0&#45;&gt;Node5</title>
<path fill="none" stroke="midnightblue" d="M98.29,-117.45C115.8,-108.31 137.19,-97.73 157,-89.5 165.37,-86.02 174.4,-82.68 183.21,-79.63"/>
<polygon fill="midnightblue" stroke="midnightblue" points="96.22,-114.59 89,-122.35 99.48,-120.78 96.22,-114.59"/>
</g>
<!-- Node6 -->
<g id="node7" class="node">
<title>Node6</title>
<g id="a_node7"><a xlink:href="classCachedVertexShaderSetting.html" target="_top" xlink:title=" ">
<polygon fill="white" stroke="black" points="157,-0.5 157,-30.5 309,-30.5 309,-0.5 157,-0.5"/>
<text text-anchor="start" x="165" y="-18.5" font-family="Helvetica,sans-Serif" font-size="10.00">CachedVertexShaderSetting</text>
<text text-anchor="middle" x="233" y="-7.5" font-family="Helvetica,sans-Serif" font-size="10.00">&lt; float, 9 &gt;</text>
</a>
</g>
</g>
<!-- Node0&#45;&gt;Node6 -->
<g id="edge6" class="edge">
<title>Node0&#45;&gt;Node6</title>
<path fill="none" stroke="midnightblue" d="M79.13,-114.07C96.68,-92.22 125.49,-60.15 157,-40.5 163.06,-36.72 169.75,-33.45 176.56,-30.63"/>
<polygon fill="midnightblue" stroke="midnightblue" points="76.18,-112.15 72.75,-122.17 81.69,-116.47 76.18,-112.15"/>
</g>
</g>
</svg>
