<?xml version="1.0" encoding="UTF-8" standalone="no"?>
<!DOCTYPE svg PUBLIC "-//W3C//DTD SVG 1.1//EN"
 "http://www.w3.org/Graphics/SVG/1.1/DTD/svg11.dtd">
<!-- Generated by graphviz version 2.43.0 (0)
 -->
<!-- Title: Graphical Class Hierarchy Pages: 1 -->
<svg width="308pt" height="66pt"
 viewBox="0.00 0.00 308.00 66.00" xmlns="http://www.w3.org/2000/svg" xmlns:xlink="http://www.w3.org/1999/xlink">
<g id="graph0" class="graph" transform="scale(1 1) rotate(0) translate(4 62)">
<title>Graphical Class Hierarchy</title>
<polygon fill="white" stroke="transparent" points="-4,4 -4,-62 304,-62 304,4 -4,4"/>
<!-- Node0 -->
<g id="node1" class="node">
<title>Node0</title>
<g id="a_node1"><a xlink:href="classJson_1_1ValueIteratorBase.html" target="_top" xlink:title="base class for Value iterators.">
<polygon fill="white" stroke="black" points="0,-19.5 0,-38.5 130,-38.5 130,-19.5 0,-19.5"/>
<text text-anchor="middle" x="65" y="-26.5" font-family="Helvetica,sans-Serif" font-size="10.00">Json::ValueIteratorBase</text>
</a>
</g>
</g>
<!-- Node1 -->
<g id="node2" class="node">
<title>Node1</title>
<g id="a_node2"><a xlink:href="classJson_1_1ValueConstIterator.html" target="_top" xlink:title="const iterator for object and array value.">
<polygon fill="white" stroke="black" points="166,-38.5 166,-57.5 300,-57.5 300,-38.5 166,-38.5"/>
<text text-anchor="middle" x="233" y="-45.5" font-family="Helvetica,sans-Serif" font-size="10.00">Json::ValueConstIterator</text>
</a>
</g>
</g>
<!-- Node0&#45;&gt;Node1 -->
<g id="edge1" class="edge">
<title>Node0&#45;&gt;Node1</title>
<path fill="none" stroke="midnightblue" d="M140.14,-37.49C148.69,-38.46 157.36,-39.46 165.8,-40.42"/>
<polygon fill="midnightblue" stroke="midnightblue" points="140.51,-34.01 130.18,-36.35 139.72,-40.96 140.51,-34.01"/>
</g>
<!-- Node2 -->
<g id="node3" class="node">
<title>Node2</title>
<g id="a_node3"><a xlink:href="classJson_1_1ValueIterator.html" target="_top" xlink:title="Iterator for object and array value.">
<polygon fill="white" stroke="black" points="180,-0.5 180,-19.5 286,-19.5 286,-0.5 180,-0.5"/>
<text text-anchor="middle" x="233" y="-7.5" font-family="Helvetica,sans-Serif" font-size="10.00">Json::ValueIterator</text>
</a>
</g>
</g>
<!-- Node0&#45;&gt;Node2 -->
<g id="edge2" class="edge">
<title>Node0&#45;&gt;Node2</title>
<path fill="none" stroke="midnightblue" d="M140.29,-20.5C153.62,-18.97 167.26,-17.41 179.8,-15.97"/>
<polygon fill="midnightblue" stroke="midnightblue" points="139.72,-17.04 130.18,-21.65 140.51,-23.99 139.72,-17.04"/>
</g>
</g>
</svg>
