<?xml version="1.0" encoding="UTF-8" standalone="no"?>
<!DOCTYPE svg PUBLIC "-//W3C//DTD SVG 1.1//EN"
 "http://www.w3.org/Graphics/SVG/1.1/DTD/svg11.dtd">
<!-- Generated by graphviz version 2.43.0 (0)
 -->
<!-- Title: Graphical Class Hierarchy Pages: 1 -->
<svg width="394pt" height="39pt"
 viewBox="0.00 0.00 394.00 39.00" xmlns="http://www.w3.org/2000/svg" xmlns:xlink="http://www.w3.org/1999/xlink">
<g id="graph0" class="graph" transform="scale(1 1) rotate(0) translate(4 35)">
<title>Graphical Class Hierarchy</title>
<polygon fill="white" stroke="transparent" points="-4,4 -4,-35 390,-35 390,4 -4,4"/>
<!-- Node770 -->
<g id="node1" class="node">
<title>Node770</title>
<g id="a_node1"><a xlink:title=" ">
<polygon fill="white" stroke="#bfbfbf" points="0,-6 0,-25 53,-25 53,-6 0,-6"/>
<text text-anchor="middle" x="26.5" y="-13" font-family="Helvetica,sans-Serif" font-size="10.00">iterator</text>
</a>
</g>
</g>
<!-- Node0 -->
<g id="node2" class="node">
<title>Node0</title>
<g id="a_node2"><a xlink:href="classirr_1_1core_1_1ustring16_1_1__ustring16__const__iterator.html" target="_top" xlink:title="Iterator to iterate through a UTF&#45;16 string.">
<polygon fill="white" stroke="black" points="89,-0.5 89,-30.5 235,-30.5 235,-0.5 89,-0.5"/>
<text text-anchor="start" x="97" y="-18.5" font-family="Helvetica,sans-Serif" font-size="10.00">irr::core::ustring16</text>
<text text-anchor="middle" x="162" y="-7.5" font-family="Helvetica,sans-Serif" font-size="10.00">::_ustring16_const_iterator</text>
</a>
</g>
</g>
<!-- Node770&#45;&gt;Node0 -->
<g id="edge1" class="edge">
<title>Node770&#45;&gt;Node0</title>
<path fill="none" stroke="midnightblue" d="M63.28,-15.5C71.29,-15.5 80.06,-15.5 88.96,-15.5"/>
<polygon fill="midnightblue" stroke="midnightblue" points="63.24,-12 53.24,-15.5 63.24,-19 63.24,-12"/>
</g>
<!-- Node1 -->
<g id="node3" class="node">
<title>Node1</title>
<g id="a_node3"><a xlink:href="classirr_1_1core_1_1ustring16_1_1__ustring16__iterator.html" target="_top" xlink:title="Iterator to iterate through a UTF&#45;16 string.">
<polygon fill="white" stroke="black" points="271,-0.5 271,-30.5 386,-30.5 386,-0.5 271,-0.5"/>
<text text-anchor="start" x="279" y="-18.5" font-family="Helvetica,sans-Serif" font-size="10.00">irr::core::ustring16</text>
<text text-anchor="middle" x="328.5" y="-7.5" font-family="Helvetica,sans-Serif" font-size="10.00">::_ustring16_iterator</text>
</a>
</g>
</g>
<!-- Node0&#45;&gt;Node1 -->
<g id="edge2" class="edge">
<title>Node0&#45;&gt;Node1</title>
<path fill="none" stroke="midnightblue" d="M245.25,-15.5C253.87,-15.5 262.49,-15.5 270.73,-15.5"/>
<polygon fill="midnightblue" stroke="midnightblue" points="245.15,-12 235.15,-15.5 245.15,-19 245.15,-12"/>
</g>
</g>
</svg>
