<?xml version="1.0" encoding="UTF-8" standalone="no"?>
<!DOCTYPE svg PUBLIC "-//W3C//DTD SVG 1.1//EN"
 "http://www.w3.org/Graphics/SVG/1.1/DTD/svg11.dtd">
<!-- Generated by graphviz version 2.43.0 (0)
 -->
<!-- Title: irr::core::fast_atof_move Pages: 1 -->
<svg width="419pt" height="66pt"
 viewBox="0.00 0.00 419.00 66.00" xmlns="http://www.w3.org/2000/svg" xmlns:xlink="http://www.w3.org/1999/xlink">
<g id="graph0" class="graph" transform="scale(1 1) rotate(0) translate(4 62)">
<title>irr::core::fast_atof_move</title>
<polygon fill="white" stroke="transparent" points="-4,4 -4,-62 415,-62 415,4 -4,4"/>
<!-- Node1 -->
<g id="node1" class="node">
<title>Node1</title>
<g id="a_node1"><a xlink:title="Provides a fast function for converting a string into a float.">
<polygon fill="#bfbfbf" stroke="black" points="0,-19.5 0,-38.5 137,-38.5 137,-19.5 0,-19.5"/>
<text text-anchor="middle" x="68.5" y="-26.5" font-family="Helvetica,sans-Serif" font-size="10.00">irr::core::fast_atof_move</text>
</a>
</g>
</g>
<!-- Node2 -->
<g id="node2" class="node">
<title>Node2</title>
<g id="a_node2"><a xlink:href="namespaceirr_1_1core.html#a032ec5ae63987749c7b30c18ea4ccd92" target="_top" xlink:title="Converts a sequence of digits into a whole positive floating point value.">
<polygon fill="white" stroke="black" points="173,-38.5 173,-57.5 271,-57.5 271,-38.5 173,-38.5"/>
<text text-anchor="middle" x="222" y="-45.5" font-family="Helvetica,sans-Serif" font-size="10.00">irr::core::strtof10</text>
</a>
</g>
</g>
<!-- Node1&#45;&gt;Node2 -->
<g id="edge1" class="edge">
<title>Node1&#45;&gt;Node2</title>
<path fill="none" stroke="midnightblue" d="M137.27,-37.5C145.79,-38.57 154.44,-39.65 162.79,-40.7"/>
<polygon fill="midnightblue" stroke="midnightblue" points="162.43,-44.18 172.79,-41.95 163.3,-37.24 162.43,-44.18"/>
</g>
<!-- Node3 -->
<g id="node3" class="node">
<title>Node3</title>
<g id="a_node3"><a xlink:href="namespaceirr_1_1core.html#a6ff97e442233218d18acd56add48766f" target="_top" xlink:title="Convert a simple string of base 10 digits into a signed 32 bit integer.">
<polygon fill="white" stroke="black" points="173,-0.5 173,-19.5 271,-19.5 271,-0.5 173,-0.5"/>
<text text-anchor="middle" x="222" y="-7.5" font-family="Helvetica,sans-Serif" font-size="10.00">irr::core::strtol10</text>
</a>
</g>
</g>
<!-- Node1&#45;&gt;Node3 -->
<g id="edge2" class="edge">
<title>Node1&#45;&gt;Node3</title>
<path fill="none" stroke="midnightblue" d="M137.27,-20.5C145.79,-19.43 154.44,-18.35 162.79,-17.3"/>
<polygon fill="midnightblue" stroke="midnightblue" points="163.3,-20.76 172.79,-16.05 162.43,-13.82 163.3,-20.76"/>
</g>
<!-- Node4 -->
<g id="node4" class="node">
<title>Node4</title>
<g id="a_node4"><a xlink:href="namespaceirr_1_1core.html#ae7f759b603f4caaa8471cb9bc2e23648" target="_top" xlink:title="Convert a simple string of base 10 digits into an unsigned 32 bit integer.">
<polygon fill="white" stroke="black" points="307,-0.5 307,-19.5 411,-19.5 411,-0.5 307,-0.5"/>
<text text-anchor="middle" x="359" y="-7.5" font-family="Helvetica,sans-Serif" font-size="10.00">irr::core::strtoul10</text>
</a>
</g>
</g>
<!-- Node3&#45;&gt;Node4 -->
<g id="edge3" class="edge">
<title>Node3&#45;&gt;Node4</title>
<path fill="none" stroke="midnightblue" d="M271.36,-10C279.53,-10 288.12,-10 296.57,-10"/>
<polygon fill="midnightblue" stroke="midnightblue" points="296.79,-13.5 306.79,-10 296.79,-6.5 296.79,-13.5"/>
</g>
</g>
</svg>
