<?xml version="1.0" encoding="UTF-8" standalone="no"?>
<!DOCTYPE svg PUBLIC "-//W3C//DTD SVG 1.1//EN"
 "http://www.w3.org/Graphics/SVG/1.1/DTD/svg11.dtd">
<!-- Generated by graphviz version 2.43.0 (0)
 -->
<!-- Title: Json::operator&gt;&gt; Pages: 1 -->
<svg width="457pt" height="90pt"
 viewBox="0.00 0.00 457.00 89.50" xmlns="http://www.w3.org/2000/svg" xmlns:xlink="http://www.w3.org/1999/xlink">
<g id="graph0" class="graph" transform="scale(1 1) rotate(0) translate(4 85.5)">
<title>Json::operator&gt;&gt;</title>
<polygon fill="white" stroke="transparent" points="-4,4 -4,-85.5 453,-85.5 453,4 -4,4"/>
<!-- Node1 -->
<g id="node1" class="node">
<title>Node1</title>
<g id="a_node1"><a xlink:title="Read from &#39;sin&#39; into &#39;root&#39;.">
<polygon fill="#bfbfbf" stroke="black" points="0,-28.5 0,-47.5 101,-47.5 101,-28.5 0,-28.5"/>
<text text-anchor="middle" x="50.5" y="-35.5" font-family="Helvetica,sans-Serif" font-size="10.00">Json::operator&gt;&gt;</text>
</a>
</g>
</g>
<!-- Node2 -->
<g id="node2" class="node">
<title>Node2</title>
<g id="a_node2"><a xlink:href="namespaceJson.html#ad0e6a29ad2eac4ae58cd5b96d19bb01e" target="_top" xlink:title=" ">
<polygon fill="white" stroke="black" points="139.5,-56.5 139.5,-75.5 269.5,-75.5 269.5,-56.5 139.5,-56.5"/>
<text text-anchor="middle" x="204.5" y="-63.5" font-family="Helvetica,sans-Serif" font-size="10.00">Json::parseFromStream</text>
</a>
</g>
</g>
<!-- Node1&#45;&gt;Node2 -->
<g id="edge1" class="edge">
<title>Node1&#45;&gt;Node2</title>
<path fill="none" stroke="midnightblue" d="M101.27,-47.17C114.17,-49.54 128.22,-52.13 141.66,-54.61"/>
<polygon fill="midnightblue" stroke="midnightblue" points="141.32,-58.11 151.79,-56.47 142.59,-51.22 141.32,-58.11"/>
</g>
<!-- Node4 -->
<g id="node4" class="node">
<title>Node4</title>
<g id="a_node4"><a xlink:href="namespaceJson.html#a7062be11352221ab5886f13609f70b7e" target="_top" xlink:title="used internally">
<polygon fill="white" stroke="black" points="137,-0.5 137,-19.5 272,-19.5 272,-0.5 137,-0.5"/>
<text text-anchor="middle" x="204.5" y="-7.5" font-family="Helvetica,sans-Serif" font-size="10.00">Json::throwRuntimeError</text>
</a>
</g>
</g>
<!-- Node1&#45;&gt;Node4 -->
<g id="edge3" class="edge">
<title>Node1&#45;&gt;Node4</title>
<path fill="none" stroke="midnightblue" d="M101.27,-28.83C114.17,-26.46 128.22,-23.87 141.66,-21.39"/>
<polygon fill="midnightblue" stroke="midnightblue" points="142.59,-24.78 151.79,-19.53 141.32,-17.89 142.59,-24.78"/>
</g>
<!-- Node3 -->
<g id="node3" class="node">
<title>Node3</title>
<g id="a_node3"><a xlink:href="classJson_1_1CharReader_1_1Factory.html#a4c5862a1ffd432372dbe65cf59de98c4" target="_top" xlink:title="Allocate a CharReader via operator new().">
<polygon fill="white" stroke="black" points="308,-51 308,-81 449,-81 449,-51 308,-51"/>
<text text-anchor="start" x="316" y="-69" font-family="Helvetica,sans-Serif" font-size="10.00">Json::CharReader::Factory</text>
<text text-anchor="middle" x="378.5" y="-58" font-family="Helvetica,sans-Serif" font-size="10.00">::newCharReader</text>
</a>
</g>
</g>
<!-- Node2&#45;&gt;Node3 -->
<g id="edge2" class="edge">
<title>Node2&#45;&gt;Node3</title>
<path fill="none" stroke="midnightblue" d="M269.55,-66C278.73,-66 288.28,-66 297.73,-66"/>
<polygon fill="midnightblue" stroke="midnightblue" points="297.92,-69.5 307.92,-66 297.92,-62.5 297.92,-69.5"/>
</g>
<!-- Node4&#45;&gt;Node4 -->
<g id="edge4" class="edge">
<title>Node4&#45;&gt;Node4</title>
<path fill="none" stroke="midnightblue" d="M180.76,-19.76C169.22,-28.57 177.13,-38 204.5,-38 222.46,-38 232.04,-33.94 233.25,-28.65"/>
<polygon fill="midnightblue" stroke="midnightblue" points="236.19,-26.75 228.24,-19.76 230.09,-30.19 236.19,-26.75"/>
</g>
</g>
</svg>
