<?xml version="1.0" encoding="UTF-8" standalone="no"?>
<!DOCTYPE svg PUBLIC "-//W3C//DTD SVG 1.1//EN"
 "http://www.w3.org/Graphics/SVG/1.1/DTD/svg11.dtd">
<!-- Generated by graphviz version 2.43.0 (0)
 -->
<!-- Title: irr::core::fast_atof Pages: 1 -->
<svg width="559pt" height="66pt"
 viewBox="0.00 0.00 559.00 66.00" xmlns="http://www.w3.org/2000/svg" xmlns:xlink="http://www.w3.org/1999/xlink">
<g id="graph0" class="graph" transform="scale(1 1) rotate(0) translate(4 62)">
<title>irr::core::fast_atof</title>
<polygon fill="white" stroke="transparent" points="-4,4 -4,-62 555,-62 555,4 -4,4"/>
<!-- Node1 -->
<g id="node1" class="node">
<title>Node1</title>
<g id="a_node1"><a xlink:title="Convert a string to a floating point number.">
<polygon fill="#bfbfbf" stroke="black" points="0,-19.5 0,-38.5 104,-38.5 104,-19.5 0,-19.5"/>
<text text-anchor="middle" x="52" y="-26.5" font-family="Helvetica,sans-Serif" font-size="10.00">irr::core::fast_atof</text>
</a>
</g>
</g>
<!-- Node2 -->
<g id="node2" class="node">
<title>Node2</title>
<g id="a_node2"><a xlink:href="namespaceirr_1_1core.html#ae5806ec05e45a700461890ec5e6f602a" target="_top" xlink:title="Provides a fast function for converting a string into a float.">
<polygon fill="white" stroke="black" points="140,-19.5 140,-38.5 277,-38.5 277,-19.5 140,-19.5"/>
<text text-anchor="middle" x="208.5" y="-26.5" font-family="Helvetica,sans-Serif" font-size="10.00">irr::core::fast_atof_move</text>
</a>
</g>
</g>
<!-- Node1&#45;&gt;Node2 -->
<g id="edge1" class="edge">
<title>Node1&#45;&gt;Node2</title>
<path fill="none" stroke="midnightblue" d="M104.02,-29C112.23,-29 120.89,-29 129.56,-29"/>
<polygon fill="midnightblue" stroke="midnightblue" points="129.73,-32.5 139.73,-29 129.73,-25.5 129.73,-32.5"/>
</g>
<!-- Node3 -->
<g id="node3" class="node">
<title>Node3</title>
<g id="a_node3"><a xlink:href="namespaceirr_1_1core.html#a032ec5ae63987749c7b30c18ea4ccd92" target="_top" xlink:title="Converts a sequence of digits into a whole positive floating point value.">
<polygon fill="white" stroke="black" points="313,-38.5 313,-57.5 411,-57.5 411,-38.5 313,-38.5"/>
<text text-anchor="middle" x="362" y="-45.5" font-family="Helvetica,sans-Serif" font-size="10.00">irr::core::strtof10</text>
</a>
</g>
</g>
<!-- Node2&#45;&gt;Node3 -->
<g id="edge2" class="edge">
<title>Node2&#45;&gt;Node3</title>
<path fill="none" stroke="midnightblue" d="M277.27,-37.5C285.79,-38.57 294.44,-39.65 302.79,-40.7"/>
<polygon fill="midnightblue" stroke="midnightblue" points="302.43,-44.18 312.79,-41.95 303.3,-37.24 302.43,-44.18"/>
</g>
<!-- Node4 -->
<g id="node4" class="node">
<title>Node4</title>
<g id="a_node4"><a xlink:href="namespaceirr_1_1core.html#a6ff97e442233218d18acd56add48766f" target="_top" xlink:title="Convert a simple string of base 10 digits into a signed 32 bit integer.">
<polygon fill="white" stroke="black" points="313,-0.5 313,-19.5 411,-19.5 411,-0.5 313,-0.5"/>
<text text-anchor="middle" x="362" y="-7.5" font-family="Helvetica,sans-Serif" font-size="10.00">irr::core::strtol10</text>
</a>
</g>
</g>
<!-- Node2&#45;&gt;Node4 -->
<g id="edge3" class="edge">
<title>Node2&#45;&gt;Node4</title>
<path fill="none" stroke="midnightblue" d="M277.27,-20.5C285.79,-19.43 294.44,-18.35 302.79,-17.3"/>
<polygon fill="midnightblue" stroke="midnightblue" points="303.3,-20.76 312.79,-16.05 302.43,-13.82 303.3,-20.76"/>
</g>
<!-- Node5 -->
<g id="node5" class="node">
<title>Node5</title>
<g id="a_node5"><a xlink:href="namespaceirr_1_1core.html#ae7f759b603f4caaa8471cb9bc2e23648" target="_top" xlink:title="Convert a simple string of base 10 digits into an unsigned 32 bit integer.">
<polygon fill="white" stroke="black" points="447,-0.5 447,-19.5 551,-19.5 551,-0.5 447,-0.5"/>
<text text-anchor="middle" x="499" y="-7.5" font-family="Helvetica,sans-Serif" font-size="10.00">irr::core::strtoul10</text>
</a>
</g>
</g>
<!-- Node4&#45;&gt;Node5 -->
<g id="edge4" class="edge">
<title>Node4&#45;&gt;Node5</title>
<path fill="none" stroke="midnightblue" d="M411.36,-10C419.53,-10 428.12,-10 436.57,-10"/>
<polygon fill="midnightblue" stroke="midnightblue" points="436.79,-13.5 446.79,-10 436.79,-6.5 436.79,-13.5"/>
</g>
</g>
</svg>
