<?xml version="1.0" encoding="UTF-8" standalone="no"?>
<!DOCTYPE svg PUBLIC "-//W3C//DTD SVG 1.1//EN"
 "http://www.w3.org/Graphics/SVG/1.1/DTD/svg11.dtd">
<!-- Generated by graphviz version 2.43.0 (0)
 -->
<!-- Title: PlayerSettings Pages: 1 -->
<svg width="223pt" height="172pt"
 viewBox="0.00 0.00 223.00 172.00" xmlns="http://www.w3.org/2000/svg" xmlns:xlink="http://www.w3.org/1999/xlink">
<g id="graph0" class="graph" transform="scale(1 1) rotate(0) translate(4 168)">
<title>PlayerSettings</title>
<polygon fill="white" stroke="transparent" points="-4,4 -4,-168 219,-168 219,4 -4,4"/>
<!-- Node1 -->
<g id="node1" class="node">
<title>Node1</title>
<g id="a_node1"><a xlink:title=" ">
<polygon fill="#bfbfbf" stroke="black" points="35.5,-0.5 35.5,-19.5 122.5,-19.5 122.5,-0.5 35.5,-0.5"/>
<text text-anchor="middle" x="79" y="-7.5" font-family="Helvetica,sans-Serif" font-size="10.00">PlayerSettings</text>
</a>
</g>
</g>
<!-- Node2 -->
<g id="node2" class="node">
<title>Node2</title>
<g id="a_node2"><a xlink:href="classbool.html" target="_top" xlink:title=" ">
<polygon fill="white" stroke="black" points="0,-144.5 0,-163.5 38,-163.5 38,-144.5 0,-144.5"/>
<text text-anchor="middle" x="19" y="-151.5" font-family="Helvetica,sans-Serif" font-size="10.00">bool</text>
</a>
</g>
</g>
<!-- Node2&#45;&gt;Node1 -->
<g id="edge1" class="edge">
<title>Node2&#45;&gt;Node1</title>
<path fill="none" stroke="#9a32cd" stroke-dasharray="5,2" d="M13.55,-134.62C7.52,-110.38 0.97,-67.35 20,-38 25.51,-29.49 34.44,-23.63 43.71,-19.6"/>
<polygon fill="#9a32cd" stroke="#9a32cd" points="10.18,-135.6 16.19,-144.33 16.94,-133.76 10.18,-135.6"/>
<text text-anchor="middle" x="68.5" y="-118" font-family="Helvetica,sans-Serif" font-size="10.00"> noclip</text>
<text text-anchor="middle" x="68.5" y="-107" font-family="Helvetica,sans-Serif" font-size="10.00">aux1_descends</text>
<text text-anchor="middle" x="68.5" y="-96" font-family="Helvetica,sans-Serif" font-size="10.00">continuous_forward</text>
<text text-anchor="middle" x="68.5" y="-85" font-family="Helvetica,sans-Serif" font-size="10.00">autojump</text>
<text text-anchor="middle" x="68.5" y="-74" font-family="Helvetica,sans-Serif" font-size="10.00">always_fly_fast</text>
<text text-anchor="middle" x="68.5" y="-63" font-family="Helvetica,sans-Serif" font-size="10.00">fast_move</text>
<text text-anchor="middle" x="68.5" y="-52" font-family="Helvetica,sans-Serif" font-size="10.00">free_move</text>
<text text-anchor="middle" x="68.5" y="-41" font-family="Helvetica,sans-Serif" font-size="10.00">pitch_move</text>
</g>
<!-- Node3 -->
<g id="node3" class="node">
<title>Node3</title>
<g id="a_node3"><a xlink:title=" ">
<polygon fill="white" stroke="#bfbfbf" points="117,-144.5 117,-163.5 161,-163.5 161,-144.5 117,-144.5"/>
<text text-anchor="middle" x="139" y="-151.5" font-family="Helvetica,sans-Serif" font-size="10.00">string</text>
</a>
</g>
</g>
<!-- Node3&#45;&gt;Node1 -->
<g id="edge2" class="edge">
<title>Node3&#45;&gt;Node1</title>
<path fill="none" stroke="#9a32cd" stroke-dasharray="5,2" d="M139.56,-134.15C139.39,-109.99 136.07,-67.69 117,-38 112.01,-30.24 103.93,-24.03 96.5,-19.54"/>
<polygon fill="#9a32cd" stroke="#9a32cd" points="136.05,-134.38 139.44,-144.42 143.05,-134.46 136.05,-134.38"/>
<text text-anchor="middle" x="177" y="-79.5" font-family="Helvetica,sans-Serif" font-size="10.00"> setting_names</text>
</g>
</g>
</svg>
