<?xml version="1.0" encoding="UTF-8" standalone="no"?>
<!DOCTYPE svg PUBLIC "-//W3C//DTD SVG 1.1//EN"
 "http://www.w3.org/Graphics/SVG/1.1/DTD/svg11.dtd">
<!-- Generated by graphviz version 2.43.0 (0)
 -->
<!-- Title: KeyCache Pages: 1 -->
<svg width="749pt" height="340pt"
 viewBox="0.00 0.00 749.00 340.00" xmlns="http://www.w3.org/2000/svg" xmlns:xlink="http://www.w3.org/1999/xlink">
<g id="graph0" class="graph" transform="scale(1 1) rotate(0) translate(4 336)">
<title>KeyCache</title>
<polygon fill="white" stroke="transparent" points="-4,4 -4,-336 745,-336 745,4 -4,4"/>
<!-- Node1 -->
<g id="node1" class="node">
<title>Node1</title>
<g id="a_node1"><a xlink:title=" ">
<polygon fill="#bfbfbf" stroke="black" points="553.5,-67.5 553.5,-86.5 618.5,-86.5 618.5,-67.5 553.5,-67.5"/>
<text text-anchor="middle" x="586" y="-74.5" font-family="Helvetica,sans-Serif" font-size="10.00">KeyCache</text>
</a>
</g>
</g>
<!-- Node2 -->
<g id="node2" class="node">
<title>Node2</title>
<g id="a_node2"><a xlink:href="classInputHandler.html" target="_top" xlink:title=" ">
<polygon fill="white" stroke="black" points="474,-0.5 474,-19.5 554,-19.5 554,-0.5 474,-0.5"/>
<text text-anchor="middle" x="514" y="-7.5" font-family="Helvetica,sans-Serif" font-size="10.00">InputHandler</text>
</a>
</g>
</g>
<!-- Node1&#45;&gt;Node2 -->
<g id="edge2" class="edge">
<title>Node1&#45;&gt;Node2</title>
<path fill="none" stroke="#9a32cd" stroke-dasharray="5,2" d="M543.48,-70.22C530.96,-66.31 518.6,-59.81 511,-49 504.99,-40.45 507.54,-27.98 510.37,-19.68"/>
<polygon fill="#9a32cd" stroke="#9a32cd" points="542.9,-73.68 553.46,-72.82 544.67,-66.91 542.9,-73.68"/>
<text text-anchor="middle" x="535.5" y="-41" font-family="Helvetica,sans-Serif" font-size="10.00"> keycache</text>
</g>
<!-- Node2&#45;&gt;Node1 -->
<g id="edge1" class="edge">
<title>Node2&#45;&gt;Node1</title>
<path fill="none" stroke="#9a32cd" stroke-dasharray="5,2" d="M545.16,-24.38C551.85,-28.16 558.55,-32.71 564,-38 572.64,-46.39 579,-58.9 582.6,-67.25"/>
<polygon fill="#9a32cd" stroke="#9a32cd" points="546.63,-21.2 536.14,-19.71 543.41,-27.42 546.63,-21.2"/>
<text text-anchor="middle" x="593" y="-41" font-family="Helvetica,sans-Serif" font-size="10.00"> handler</text>
</g>
<!-- Node3 -->
<g id="node3" class="node">
<title>Node3</title>
<g id="a_node3"><a xlink:href="classJoystickController.html" target="_top" xlink:title=" ">
<polygon fill="white" stroke="black" points="231.5,-67.5 231.5,-86.5 334.5,-86.5 334.5,-67.5 231.5,-67.5"/>
<text text-anchor="middle" x="283" y="-74.5" font-family="Helvetica,sans-Serif" font-size="10.00">JoystickController</text>
</a>
</g>
</g>
<!-- Node3&#45;&gt;Node2 -->
<g id="edge3" class="edge">
<title>Node3&#45;&gt;Node2</title>
<path fill="none" stroke="#9a32cd" stroke-dasharray="5,2" d="M323.55,-64.59C369.24,-51.73 442.5,-31.12 483.57,-19.56"/>
<polygon fill="#9a32cd" stroke="#9a32cd" points="322.35,-61.29 313.68,-67.37 324.25,-68.03 322.35,-61.29"/>
<text text-anchor="middle" x="434" y="-41" font-family="Helvetica,sans-Serif" font-size="10.00"> joystick</text>
</g>
<!-- Node4 -->
<g id="node4" class="node">
<title>Node4</title>
<g id="a_node4"><a xlink:title=" ">
<polygon fill="white" stroke="#bfbfbf" points="0,-245.5 0,-264.5 34,-264.5 34,-245.5 0,-245.5"/>
<text text-anchor="middle" x="17" y="-252.5" font-family="Helvetica,sans-Serif" font-size="10.00">s16</text>
</a>
</g>
</g>
<!-- Node4&#45;&gt;Node3 -->
<g id="edge4" class="edge">
<title>Node4&#45;&gt;Node3</title>
<path fill="none" stroke="#9a32cd" stroke-dasharray="5,2" d="M18.65,-235.18C21.2,-216.09 27.67,-186.62 44,-167 90.66,-110.93 176.25,-90.16 231.33,-82.49"/>
<polygon fill="#9a32cd" stroke="#9a32cd" points="15.15,-234.99 17.53,-245.31 22.11,-235.76 15.15,-234.99"/>
<text text-anchor="middle" x="77.5" y="-180" font-family="Helvetica,sans-Serif" font-size="10.00"> m_axes_vals</text>
</g>
<!-- Node7 -->
<g id="node7" class="node">
<title>Node7</title>
<g id="a_node7"><a xlink:href="structJoystickLayout.html" target="_top" xlink:title=" ">
<polygon fill="white" stroke="black" points="120,-173 120,-192 208,-192 208,-173 120,-173"/>
<text text-anchor="middle" x="164" y="-180" font-family="Helvetica,sans-Serif" font-size="10.00">JoystickLayout</text>
</a>
</g>
</g>
<!-- Node4&#45;&gt;Node7 -->
<g id="edge8" class="edge">
<title>Node4&#45;&gt;Node7</title>
<path fill="none" stroke="#9a32cd" stroke-dasharray="5,2" d="M33.06,-238.54C41.68,-230.91 52.82,-222.07 64,-216 83.74,-205.29 107.59,-197.37 127.05,-192.03"/>
<polygon fill="#9a32cd" stroke="#9a32cd" points="30.64,-236.01 25.65,-245.35 35.38,-241.17 30.64,-236.01"/>
<text text-anchor="middle" x="103.5" y="-219" font-family="Helvetica,sans-Serif" font-size="10.00"> axes_deadzone</text>
</g>
<!-- Node5 -->
<g id="node5" class="node">
<title>Node5</title>
<g id="a_node5"><a xlink:title=" ">
<polygon fill="white" stroke="#bfbfbf" points="225.5,-173 225.5,-192 254.5,-192 254.5,-173 225.5,-173"/>
<text text-anchor="middle" x="240" y="-180" font-family="Helvetica,sans-Serif" font-size="10.00">u8</text>
</a>
</g>
</g>
<!-- Node5&#45;&gt;Node3 -->
<g id="edge5" class="edge">
<title>Node5&#45;&gt;Node3</title>
<path fill="none" stroke="#9a32cd" stroke-dasharray="5,2" d="M237.98,-162.43C237.15,-146.15 238.16,-122.64 248,-105 252.26,-97.36 259.67,-91.17 266.58,-86.65"/>
<polygon fill="#9a32cd" stroke="#9a32cd" points="234.52,-163.12 238.8,-172.82 241.5,-162.57 234.52,-163.12"/>
<text text-anchor="middle" x="283.5" y="-124.5" font-family="Helvetica,sans-Serif" font-size="10.00"> m_joystick_id</text>
</g>
<!-- Node6 -->
<g id="node6" class="node">
<title>Node6</title>
<g id="a_node6"><a xlink:title=" ">
<polygon fill="white" stroke="#bfbfbf" points="272.5,-167.5 272.5,-197.5 423.5,-197.5 423.5,-167.5 272.5,-167.5"/>
<text text-anchor="start" x="280.5" y="-185.5" font-family="Helvetica,sans-Serif" font-size="10.00">bitset&lt; KeyType::INTERNAL</text>
<text text-anchor="middle" x="348" y="-174.5" font-family="Helvetica,sans-Serif" font-size="10.00">_ENUM_COUNT &gt;</text>
</a>
</g>
</g>
<!-- Node6&#45;&gt;Node3 -->
<g id="edge6" class="edge">
<title>Node6&#45;&gt;Node3</title>
<path fill="none" stroke="#9a32cd" stroke-dasharray="5,2" d="M342.69,-157.64C338.27,-141.61 330.77,-120.64 319,-105 313.46,-97.63 305.38,-91.32 298.27,-86.66"/>
<polygon fill="#9a32cd" stroke="#9a32cd" points="339.3,-158.53 345.16,-167.36 346.08,-156.8 339.3,-158.53"/>
<text text-anchor="middle" x="395.5" y="-141" font-family="Helvetica,sans-Serif" font-size="10.00"> m_past_keys_pressed</text>
<text text-anchor="middle" x="395.5" y="-130" font-family="Helvetica,sans-Serif" font-size="10.00">m_keys_released</text>
<text text-anchor="middle" x="395.5" y="-119" font-family="Helvetica,sans-Serif" font-size="10.00">m_keys_pressed</text>
<text text-anchor="middle" x="395.5" y="-108" font-family="Helvetica,sans-Serif" font-size="10.00">m_keys_down</text>
</g>
<!-- Node7&#45;&gt;Node3 -->
<g id="edge7" class="edge">
<title>Node7&#45;&gt;Node3</title>
<path fill="none" stroke="#9a32cd" stroke-dasharray="5,2" d="M164.14,-162.78C165.3,-145.5 169.75,-120.27 185,-105 197.29,-92.7 214.63,-85.87 231.31,-82.12"/>
<polygon fill="#9a32cd" stroke="#9a32cd" points="160.64,-162.69 163.78,-172.81 167.64,-162.94 160.64,-162.69"/>
<text text-anchor="middle" x="209.5" y="-124.5" font-family="Helvetica,sans-Serif" font-size="10.00"> m_layout</text>
</g>
<!-- Node8 -->
<g id="node8" class="node">
<title>Node8</title>
<g id="a_node8"><a xlink:title=" ">
<polygon fill="white" stroke="#bfbfbf" points="52.5,-245.5 52.5,-264.5 215.5,-264.5 215.5,-245.5 52.5,-245.5"/>
<text text-anchor="middle" x="134" y="-252.5" font-family="Helvetica,sans-Serif" font-size="10.00">vector&lt; JoystickButtonCmb &gt;</text>
</a>
</g>
</g>
<!-- Node8&#45;&gt;Node7 -->
<g id="edge9" class="edge">
<title>Node8&#45;&gt;Node7</title>
<path fill="none" stroke="#9a32cd" stroke-dasharray="5,2" d="M141.76,-235.77C147.72,-221.76 155.69,-203.03 160.29,-192.22"/>
<polygon fill="#9a32cd" stroke="#9a32cd" points="138.37,-234.78 137.68,-245.36 144.81,-237.52 138.37,-234.78"/>
<text text-anchor="middle" x="181.5" y="-219" font-family="Helvetica,sans-Serif" font-size="10.00"> button_keys</text>
</g>
<!-- Node9 -->
<g id="node9" class="node">
<title>Node9</title>
<g id="a_node9"><a xlink:href="structJoystickAxisLayout.html" target="_top" xlink:title=" ">
<polygon fill="white" stroke="black" points="233.5,-245.5 233.5,-264.5 342.5,-264.5 342.5,-245.5 233.5,-245.5"/>
<text text-anchor="middle" x="288" y="-252.5" font-family="Helvetica,sans-Serif" font-size="10.00">JoystickAxisLayout</text>
</a>
</g>
</g>
<!-- Node9&#45;&gt;Node7 -->
<g id="edge10" class="edge">
<title>Node9&#45;&gt;Node7</title>
<path fill="none" stroke="#9a32cd" stroke-dasharray="5,2" d="M263.92,-240.31C238.9,-226.09 200.5,-204.25 179.33,-192.22"/>
<polygon fill="#9a32cd" stroke="#9a32cd" points="262.37,-243.46 272.8,-245.36 265.83,-237.37 262.37,-243.46"/>
<text text-anchor="middle" x="251" y="-219" font-family="Helvetica,sans-Serif" font-size="10.00"> axes</text>
</g>
<!-- Node10 -->
<g id="node10" class="node">
<title>Node10</title>
<g id="a_node10"><a xlink:title=" ">
<polygon fill="white" stroke="#bfbfbf" points="239.5,-312.5 239.5,-331.5 274.5,-331.5 274.5,-312.5 239.5,-312.5"/>
<text text-anchor="middle" x="257" y="-319.5" font-family="Helvetica,sans-Serif" font-size="10.00">u16</text>
</a>
</g>
</g>
<!-- Node10&#45;&gt;Node9 -->
<g id="edge11" class="edge">
<title>Node10&#45;&gt;Node9</title>
<path fill="none" stroke="#9a32cd" stroke-dasharray="5,2" d="M255.86,-302.05C256.15,-295.74 257.24,-288.83 260,-283 263.46,-275.67 269.83,-269.28 275.62,-264.56"/>
<polygon fill="#9a32cd" stroke="#9a32cd" points="252.36,-302.46 256,-312.41 259.36,-302.36 252.36,-302.46"/>
<text text-anchor="middle" x="279" y="-286" font-family="Helvetica,sans-Serif" font-size="10.00"> axis_id</text>
</g>
<!-- Node11 -->
<g id="node11" class="node">
<title>Node11</title>
<g id="a_node11"><a xlink:title=" ">
<polygon fill="white" stroke="#bfbfbf" points="303.5,-312.5 303.5,-331.5 332.5,-331.5 332.5,-312.5 303.5,-312.5"/>
<text text-anchor="middle" x="318" y="-319.5" font-family="Helvetica,sans-Serif" font-size="10.00">int</text>
</a>
</g>
</g>
<!-- Node11&#45;&gt;Node9 -->
<g id="edge12" class="edge">
<title>Node11&#45;&gt;Node9</title>
<path fill="none" stroke="#9a32cd" stroke-dasharray="5,2" d="M309.6,-302.79C303.83,-290.31 296.45,-274.31 291.98,-264.63"/>
<polygon fill="#9a32cd" stroke="#9a32cd" points="306.59,-304.62 313.95,-312.23 312.94,-301.69 306.59,-304.62"/>
<text text-anchor="middle" x="321" y="-286" font-family="Helvetica,sans-Serif" font-size="10.00"> invert</text>
</g>
<!-- Node12 -->
<g id="node12" class="node">
<title>Node12</title>
<g id="a_node12"><a xlink:title=" ">
<polygon fill="white" stroke="#bfbfbf" points="361,-245.5 361,-264.5 513,-264.5 513,-245.5 361,-245.5"/>
<text text-anchor="middle" x="437" y="-252.5" font-family="Helvetica,sans-Serif" font-size="10.00">vector&lt; JoystickAxisCmb &gt;</text>
</a>
</g>
</g>
<!-- Node12&#45;&gt;Node7 -->
<g id="edge13" class="edge">
<title>Node12&#45;&gt;Node7</title>
<path fill="none" stroke="#9a32cd" stroke-dasharray="5,2" d="M392.14,-242.97C347.43,-231.89 276.86,-214.19 216,-198 208.94,-196.12 201.35,-194.04 194.21,-192.06"/>
<polygon fill="#9a32cd" stroke="#9a32cd" points="391.55,-246.42 402.1,-245.43 393.23,-239.63 391.55,-246.42"/>
<text text-anchor="middle" x="351" y="-219" font-family="Helvetica,sans-Serif" font-size="10.00"> axis_keys</text>
</g>
<!-- Node13 -->
<g id="node13" class="node">
<title>Node13</title>
<g id="a_node13"><a xlink:title=" ">
<polygon fill="white" stroke="#bfbfbf" points="459,-173 459,-192 491,-192 491,-173 459,-173"/>
<text text-anchor="middle" x="475" y="-180" font-family="Helvetica,sans-Serif" font-size="10.00">f32</text>
</a>
</g>
</g>
<!-- Node13&#45;&gt;Node3 -->
<g id="edge14" class="edge">
<title>Node13&#45;&gt;Node3</title>
<path fill="none" stroke="#9a32cd" stroke-dasharray="5,2" d="M474.98,-162.64C473.87,-145.05 469.3,-119.42 453,-105 435.82,-89.81 378.12,-83.12 334.67,-80.21"/>
<polygon fill="#9a32cd" stroke="#9a32cd" points="471.48,-162.95 475.29,-172.84 478.48,-162.74 471.48,-162.95"/>
<text text-anchor="middle" x="528" y="-135.5" font-family="Helvetica,sans-Serif" font-size="10.00"> m_internal_time</text>
<text text-anchor="middle" x="528" y="-124.5" font-family="Helvetica,sans-Serif" font-size="10.00">doubling_dtime</text>
<text text-anchor="middle" x="528" y="-113.5" font-family="Helvetica,sans-Serif" font-size="10.00">m_past_pressed_time</text>
</g>
<!-- Node14 -->
<g id="node14" class="node">
<title>Node14</title>
<g id="a_node14"><a xlink:href="classKeyPress.html" target="_top" xlink:title=" ">
<polygon fill="white" stroke="black" points="605.5,-173 605.5,-192 666.5,-192 666.5,-173 605.5,-173"/>
<text text-anchor="middle" x="636" y="-180" font-family="Helvetica,sans-Serif" font-size="10.00">KeyPress</text>
</a>
</g>
</g>
<!-- Node14&#45;&gt;Node1 -->
<g id="edge15" class="edge">
<title>Node14&#45;&gt;Node1</title>
<path fill="none" stroke="#9a32cd" stroke-dasharray="5,2" d="M627.31,-163.52C616.43,-140.99 598.22,-103.3 590.11,-86.51"/>
<polygon fill="#9a32cd" stroke="#9a32cd" points="624.24,-165.19 631.74,-172.68 630.54,-162.15 624.24,-165.19"/>
<text text-anchor="middle" x="630.5" y="-124.5" font-family="Helvetica,sans-Serif" font-size="10.00"> key</text>
</g>
<!-- Node15 -->
<g id="node15" class="node">
<title>Node15</title>
<g id="a_node15"><a xlink:title=" ">
<polygon fill="white" stroke="#bfbfbf" points="531.5,-245.5 531.5,-264.5 586.5,-264.5 586.5,-245.5 531.5,-245.5"/>
<text text-anchor="middle" x="559" y="-252.5" font-family="Helvetica,sans-Serif" font-size="10.00">wchar_t</text>
</a>
</g>
</g>
<!-- Node15&#45;&gt;Node14 -->
<g id="edge16" class="edge">
<title>Node15&#45;&gt;Node14</title>
<path fill="none" stroke="#9a32cd" stroke-dasharray="5,2" d="M575.84,-238.58C591.36,-224.37 613.86,-203.77 626.48,-192.22"/>
<polygon fill="#9a32cd" stroke="#9a32cd" points="573.45,-236.02 568.44,-245.36 578.18,-241.18 573.45,-236.02"/>
<text text-anchor="middle" x="613" y="-219" font-family="Helvetica,sans-Serif" font-size="10.00"> Char</text>
</g>
<!-- Node16 -->
<g id="node16" class="node">
<title>Node16</title>
<g id="a_node16"><a xlink:title=" ">
<polygon fill="white" stroke="#bfbfbf" points="605,-245.5 605,-264.5 679,-264.5 679,-245.5 605,-245.5"/>
<text text-anchor="middle" x="642" y="-252.5" font-family="Helvetica,sans-Serif" font-size="10.00">EKEY_CODE</text>
</a>
</g>
</g>
<!-- Node16&#45;&gt;Node14 -->
<g id="edge17" class="edge">
<title>Node16&#45;&gt;Node14</title>
<path fill="none" stroke="#9a32cd" stroke-dasharray="5,2" d="M640.41,-235.36C639.23,-221.4 637.65,-202.93 636.74,-192.22"/>
<polygon fill="#9a32cd" stroke="#9a32cd" points="636.93,-235.69 641.26,-245.36 643.9,-235.09 636.93,-235.69"/>
<text text-anchor="middle" x="651" y="-219" font-family="Helvetica,sans-Serif" font-size="10.00"> Key</text>
</g>
<!-- Node17 -->
<g id="node17" class="node">
<title>Node17</title>
<g id="a_node17"><a xlink:title=" ">
<polygon fill="white" stroke="#bfbfbf" points="697,-245.5 697,-264.5 741,-264.5 741,-245.5 697,-245.5"/>
<text text-anchor="middle" x="719" y="-252.5" font-family="Helvetica,sans-Serif" font-size="10.00">string</text>
</a>
</g>
</g>
<!-- Node17&#45;&gt;Node14 -->
<g id="edge18" class="edge">
<title>Node17&#45;&gt;Node14</title>
<path fill="none" stroke="#9a32cd" stroke-dasharray="5,2" d="M700.85,-238.58C684.12,-224.37 659.87,-203.77 646.26,-192.22"/>
<polygon fill="#9a32cd" stroke="#9a32cd" points="698.94,-241.55 708.82,-245.36 703.47,-236.21 698.94,-241.55"/>
<text text-anchor="middle" x="708" y="-219" font-family="Helvetica,sans-Serif" font-size="10.00"> m_name</text>
</g>
</g>
</svg>
