<?xml version="1.0" encoding="UTF-8" standalone="no"?>
<!DOCTYPE svg PUBLIC "-//W3C//DTD SVG 1.1//EN"
 "http://www.w3.org/Graphics/SVG/1.1/DTD/svg11.dtd">
<!-- Generated by graphviz version 2.43.0 (0)
 -->
<!-- Title: irr::video::VertexAttribute Pages: 1 -->
<svg width="284pt" height="117pt"
 viewBox="0.00 0.00 284.00 117.00" xmlns="http://www.w3.org/2000/svg" xmlns:xlink="http://www.w3.org/1999/xlink">
<g id="graph0" class="graph" transform="scale(1 1) rotate(0) translate(4 113)">
<title>irr::video::VertexAttribute</title>
<polygon fill="white" stroke="transparent" points="-4,4 -4,-113 280,-113 280,4 -4,4"/>
<!-- Node1 -->
<g id="node1" class="node">
<title>Node1</title>
<g id="a_node1"><a xlink:title=" ">
<polygon fill="#bfbfbf" stroke="black" points="21,-0.5 21,-19.5 161,-19.5 161,-0.5 21,-0.5"/>
<text text-anchor="middle" x="91" y="-7.5" font-family="Helvetica,sans-Serif" font-size="10.00">irr::video::VertexAttribute</text>
</a>
</g>
</g>
<!-- Node2 -->
<g id="node2" class="node">
<title>Node2</title>
<g id="a_node2"><a xlink:title=" ">
<polygon fill="white" stroke="#bfbfbf" points="0,-89.5 0,-108.5 44,-108.5 44,-89.5 0,-89.5"/>
<text text-anchor="middle" x="22" y="-96.5" font-family="Helvetica,sans-Serif" font-size="10.00">Mode</text>
</a>
</g>
</g>
<!-- Node2&#45;&gt;Node1 -->
<g id="edge1" class="edge">
<title>Node2&#45;&gt;Node1</title>
<path fill="none" stroke="#9a32cd" stroke-dasharray="5,2" d="M29.97,-79.75C36,-67.19 45.09,-50.58 56,-38 62.14,-30.93 70.37,-24.46 77.31,-19.64"/>
<polygon fill="#9a32cd" stroke="#9a32cd" points="26.64,-78.62 25.66,-89.17 33,-81.53 26.64,-78.62"/>
<text text-anchor="middle" x="71.5" y="-52" font-family="Helvetica,sans-Serif" font-size="10.00"> mode</text>
</g>
<!-- Node3 -->
<g id="node3" class="node">
<title>Node3</title>
<g id="a_node3"><a xlink:title=" ">
<polygon fill="white" stroke="#bfbfbf" points="62.5,-89.5 62.5,-108.5 119.5,-108.5 119.5,-89.5 62.5,-89.5"/>
<text text-anchor="middle" x="91" y="-96.5" font-family="Helvetica,sans-Serif" font-size="10.00">GLenum</text>
</a>
</g>
</g>
<!-- Node3&#45;&gt;Node1 -->
<g id="edge2" class="edge">
<title>Node3&#45;&gt;Node1</title>
<path fill="none" stroke="#9a32cd" stroke-dasharray="5,2" d="M91,-79.19C91,-60.74 91,-33.41 91,-19.62"/>
<polygon fill="#9a32cd" stroke="#9a32cd" points="87.5,-79.34 91,-89.34 94.5,-79.34 87.5,-79.34"/>
<text text-anchor="middle" x="132" y="-52" font-family="Helvetica,sans-Serif" font-size="10.00"> ComponentType</text>
</g>
<!-- Node4 -->
<g id="node4" class="node">
<title>Node4</title>
<g id="a_node4"><a xlink:title=" ">
<polygon fill="white" stroke="#bfbfbf" points="181.5,-89.5 181.5,-108.5 210.5,-108.5 210.5,-89.5 181.5,-89.5"/>
<text text-anchor="middle" x="196" y="-96.5" font-family="Helvetica,sans-Serif" font-size="10.00">int</text>
</a>
</g>
</g>
<!-- Node4&#45;&gt;Node1 -->
<g id="edge3" class="edge">
<title>Node4&#45;&gt;Node1</title>
<path fill="none" stroke="#9a32cd" stroke-dasharray="5,2" d="M193.56,-79.46C190.89,-66.24 185.36,-48.95 174,-38 165.05,-29.38 153.32,-23.51 141.51,-19.51"/>
<polygon fill="#9a32cd" stroke="#9a32cd" points="190.11,-80.07 195.19,-89.37 197.02,-78.93 190.11,-80.07"/>
<text text-anchor="middle" x="233.5" y="-63" font-family="Helvetica,sans-Serif" font-size="10.00"> Offset</text>
<text text-anchor="middle" x="233.5" y="-52" font-family="Helvetica,sans-Serif" font-size="10.00">Index</text>
<text text-anchor="middle" x="233.5" y="-41" font-family="Helvetica,sans-Serif" font-size="10.00">ComponentCount</text>
</g>
</g>
</svg>
