<?xml version="1.0" encoding="UTF-8" standalone="no"?>
<!DOCTYPE svg PUBLIC "-//W3C//DTD SVG 1.1//EN"
 "http://www.w3.org/Graphics/SVG/1.1/DTD/svg11.dtd">
<!-- Generated by graphviz version 2.43.0 (0)
 -->
<!-- Title: GUIFormSpecMenu::fs_key_pending Pages: 1 -->
<svg width="133pt" height="139pt"
 viewBox="0.00 0.00 133.00 139.00" xmlns="http://www.w3.org/2000/svg" xmlns:xlink="http://www.w3.org/1999/xlink">
<g id="graph0" class="graph" transform="scale(1 1) rotate(0) translate(4 135)">
<title>GUIFormSpecMenu::fs_key_pending</title>
<polygon fill="white" stroke="transparent" points="-4,4 -4,-135 129,-135 129,4 -4,4"/>
<!-- Node1 -->
<g id="node1" class="node">
<title>Node1</title>
<g id="a_node1"><a xlink:title=" ">
<polygon fill="#bfbfbf" stroke="black" points="0,-0.5 0,-30.5 125,-30.5 125,-0.5 0,-0.5"/>
<text text-anchor="start" x="8" y="-18.5" font-family="Helvetica,sans-Serif" font-size="10.00">GUIFormSpecMenu::fs</text>
<text text-anchor="middle" x="62.5" y="-7.5" font-family="Helvetica,sans-Serif" font-size="10.00">_key_pending</text>
</a>
</g>
</g>
<!-- Node2 -->
<g id="node2" class="node">
<title>Node2</title>
<g id="a_node2"><a xlink:href="classbool.html" target="_top" xlink:title=" ">
<polygon fill="white" stroke="black" points="43.5,-111.5 43.5,-130.5 81.5,-130.5 81.5,-111.5 43.5,-111.5"/>
<text text-anchor="middle" x="62.5" y="-118.5" font-family="Helvetica,sans-Serif" font-size="10.00">bool</text>
</a>
</g>
</g>
<!-- Node2&#45;&gt;Node1 -->
<g id="edge1" class="edge">
<title>Node2&#45;&gt;Node1</title>
<path fill="none" stroke="#9a32cd" stroke-dasharray="5,2" d="M62.5,-101C62.5,-80.74 62.5,-49.11 62.5,-30.84"/>
<polygon fill="#9a32cd" stroke="#9a32cd" points="59,-101.18 62.5,-111.18 66,-101.18 59,-101.18"/>
<text text-anchor="middle" x="91.5" y="-85" font-family="Helvetica,sans-Serif" font-size="10.00"> key_down</text>
<text text-anchor="middle" x="91.5" y="-74" font-family="Helvetica,sans-Serif" font-size="10.00">key_up</text>
<text text-anchor="middle" x="91.5" y="-63" font-family="Helvetica,sans-Serif" font-size="10.00">key_escape</text>
<text text-anchor="middle" x="91.5" y="-52" font-family="Helvetica,sans-Serif" font-size="10.00">key_enter</text>
</g>
</g>
</svg>
