<?xml version="1.0" encoding="UTF-8" standalone="no"?>
<!DOCTYPE svg PUBLIC "-//W3C//DTD SVG 1.1//EN"
 "http://www.w3.org/Graphics/SVG/1.1/DTD/svg11.dtd">
<!-- Generated by graphviz version 2.43.0 (0)
 -->
<!-- Title: Catch::Matchers::Vector::ApproxMatcher&lt; T, AllocComp, AllocMatch &gt; Pages: 1 -->
<svg width="949pt" height="178pt"
 viewBox="0.00 0.00 949.00 178.00" xmlns="http://www.w3.org/2000/svg" xmlns:xlink="http://www.w3.org/1999/xlink">
<g id="graph0" class="graph" transform="scale(1 1) rotate(0) translate(4 174)">
<title>Catch::Matchers::Vector::ApproxMatcher&lt; T, AllocComp, AllocMatch &gt;</title>
<polygon fill="white" stroke="transparent" points="-4,4 -4,-174 945,-174 945,4 -4,4"/>
<!-- Node1 -->
<g id="node1" class="node">
<title>Node1</title>
<g id="a_node1"><a xlink:title=" ">
<polygon fill="#bfbfbf" stroke="black" points="765,-39 765,-80 941,-80 941,-39 765,-39"/>
<text text-anchor="start" x="773" y="-68" font-family="Helvetica,sans-Serif" font-size="10.00">Catch::Matchers::Vector</text>
<text text-anchor="start" x="773" y="-57" font-family="Helvetica,sans-Serif" font-size="10.00">::ApproxMatcher&lt; T, AllocComp,</text>
<text text-anchor="middle" x="853" y="-46" font-family="Helvetica,sans-Serif" font-size="10.00"> AllocMatch &gt;</text>
</a>
</g>
</g>
<!-- Node2 -->
<g id="node2" class="node">
<title>Node2</title>
<g id="a_node2"><a xlink:href="structCatch_1_1Matchers_1_1Impl_1_1MatcherBase.html" target="_top" xlink:title=" ">
<polygon fill="white" stroke="black" points="505,-93 505,-134 654,-134 654,-93 505,-93"/>
<text text-anchor="start" x="513" y="-122" font-family="Helvetica,sans-Serif" font-size="10.00">Catch::Matchers::Impl</text>
<text text-anchor="start" x="513" y="-111" font-family="Helvetica,sans-Serif" font-size="10.00">::MatcherBase&lt; std::vector</text>
<text text-anchor="middle" x="579.5" y="-100" font-family="Helvetica,sans-Serif" font-size="10.00">&lt; T, AllocMatch &gt; &gt;</text>
</a>
</g>
</g>
<!-- Node2&#45;&gt;Node1 -->
<g id="edge1" class="edge">
<title>Node2&#45;&gt;Node1</title>
<path fill="none" stroke="midnightblue" d="M664.49,-96.79C696.3,-90.47 732.58,-83.25 764.69,-76.87"/>
<polygon fill="midnightblue" stroke="midnightblue" points="663.46,-93.43 654.33,-98.82 664.82,-100.3 663.46,-93.43"/>
</g>
<!-- Node3 -->
<g id="node3" class="node">
<title>Node3</title>
<g id="a_node3"><a xlink:href="classCatch_1_1Matchers_1_1Impl_1_1MatcherUntypedBase.html" target="_top" xlink:title=" ">
<polygon fill="white" stroke="black" points="287,-139.5 287,-169.5 415,-169.5 415,-139.5 287,-139.5"/>
<text text-anchor="start" x="295" y="-157.5" font-family="Helvetica,sans-Serif" font-size="10.00">Catch::Matchers::Impl</text>
<text text-anchor="middle" x="351" y="-146.5" font-family="Helvetica,sans-Serif" font-size="10.00">::MatcherUntypedBase</text>
</a>
</g>
</g>
<!-- Node3&#45;&gt;Node2 -->
<g id="edge2" class="edge">
<title>Node3&#45;&gt;Node2</title>
<path fill="none" stroke="midnightblue" d="M425.09,-141.27C450.65,-136.64 479.34,-131.45 504.93,-126.82"/>
<polygon fill="midnightblue" stroke="midnightblue" points="424.31,-137.85 415.09,-143.08 425.56,-144.74 424.31,-137.85"/>
</g>
<!-- Node4 -->
<g id="node4" class="node">
<title>Node4</title>
<g id="a_node4"><a xlink:title=" ">
<polygon fill="white" stroke="#bfbfbf" points="57.5,-145 57.5,-164 101.5,-164 101.5,-145 57.5,-145"/>
<text text-anchor="middle" x="79.5" y="-152" font-family="Helvetica,sans-Serif" font-size="10.00">string</text>
</a>
</g>
</g>
<!-- Node4&#45;&gt;Node3 -->
<g id="edge3" class="edge">
<title>Node4&#45;&gt;Node3</title>
<path fill="none" stroke="#9a32cd" stroke-dasharray="5,2" d="M111.7,-154.5C154.33,-154.5 231.75,-154.5 286.77,-154.5"/>
<polygon fill="#9a32cd" stroke="#9a32cd" points="111.65,-151 101.65,-154.5 111.65,-158 111.65,-151"/>
<text text-anchor="middle" x="223" y="-157.5" font-family="Helvetica,sans-Serif" font-size="10.00"> m_cachedToString</text>
</g>
<!-- Node5 -->
<g id="node5" class="node">
<title>Node5</title>
<g id="a_node5"><a xlink:href="structCatch_1_1Matchers_1_1Impl_1_1MatcherMethod.html" target="_top" xlink:title=" ">
<polygon fill="white" stroke="black" points="287,-90.5 287,-120.5 415,-120.5 415,-90.5 287,-90.5"/>
<text text-anchor="start" x="295" y="-108.5" font-family="Helvetica,sans-Serif" font-size="10.00">Catch::Matchers::Impl</text>
<text text-anchor="middle" x="351" y="-97.5" font-family="Helvetica,sans-Serif" font-size="10.00">::MatcherMethod&lt; T &gt;</text>
</a>
</g>
</g>
<!-- Node5&#45;&gt;Node2 -->
<g id="edge4" class="edge">
<title>Node5&#45;&gt;Node2</title>
<path fill="none" stroke="midnightblue" d="M425.09,-108.08C450.65,-108.98 479.34,-110 504.93,-110.9"/>
<polygon fill="midnightblue" stroke="midnightblue" points="425.21,-104.58 415.09,-107.73 424.96,-111.58 425.21,-104.58"/>
</g>
<!-- Node6 -->
<g id="node6" class="node">
<title>Node6</title>
<g id="a_node6"><a xlink:href="structCatch_1_1Matchers_1_1Impl_1_1MatcherMethod.html" target="_top" xlink:title=" ">
<polygon fill="white" stroke="black" points="0,-90.5 0,-120.5 159,-120.5 159,-90.5 0,-90.5"/>
<text text-anchor="start" x="8" y="-108.5" font-family="Helvetica,sans-Serif" font-size="10.00">Catch::Matchers::Impl</text>
<text text-anchor="middle" x="79.5" y="-97.5" font-family="Helvetica,sans-Serif" font-size="10.00">::MatcherMethod&lt; ObjectT &gt;</text>
</a>
</g>
</g>
<!-- Node6&#45;&gt;Node5 -->
<g id="edge5" class="edge">
<title>Node6&#45;&gt;Node5</title>
<path fill="none" stroke="orange" stroke-dasharray="5,2" d="M169.31,-105.5C207.66,-105.5 251.65,-105.5 286.62,-105.5"/>
<polygon fill="orange" stroke="orange" points="169.18,-102 159.18,-105.5 169.17,-109 169.18,-102"/>
<text text-anchor="middle" x="223" y="-108.5" font-family="Helvetica,sans-Serif" font-size="10.00"> &lt; T &gt;</text>
</g>
<!-- Node7 -->
<g id="node7" class="node">
<title>Node7</title>
<g id="a_node7"><a xlink:href="classCatch_1_1Detail_1_1Approx.html" target="_top" xlink:title=" ">
<polygon fill="white" stroke="black" points="519.5,-50 519.5,-69 639.5,-69 639.5,-50 519.5,-50"/>
<text text-anchor="middle" x="579.5" y="-57" font-family="Helvetica,sans-Serif" font-size="10.00">Catch::Detail::Approx</text>
</a>
</g>
</g>
<!-- Node7&#45;&gt;Node1 -->
<g id="edge6" class="edge">
<title>Node7&#45;&gt;Node1</title>
<path fill="none" stroke="#9a32cd" stroke-dasharray="5,2" d="M649.86,-59.5C684.83,-59.5 727.6,-59.5 764.78,-59.5"/>
<polygon fill="#9a32cd" stroke="#9a32cd" points="649.75,-56 639.75,-59.5 649.75,-63 649.75,-56"/>
<text text-anchor="middle" x="709.5" y="-62.5" font-family="Helvetica,sans-Serif" font-size="10.00"> approx</text>
</g>
<!-- Node8 -->
<g id="node8" class="node">
<title>Node8</title>
<g id="a_node8"><a xlink:title=" ">
<polygon fill="white" stroke="#bfbfbf" points="326,-45 326,-64 376,-64 376,-45 326,-45"/>
<text text-anchor="middle" x="351" y="-52" font-family="Helvetica,sans-Serif" font-size="10.00">double</text>
</a>
</g>
</g>
<!-- Node8&#45;&gt;Node7 -->
<g id="edge7" class="edge">
<title>Node8&#45;&gt;Node7</title>
<path fill="none" stroke="#9a32cd" stroke-dasharray="5,2" d="M386.6,-54.41C413.87,-54.42 452.87,-54.63 487,-55.5 497.49,-55.77 508.65,-56.16 519.45,-56.6"/>
<polygon fill="#9a32cd" stroke="#9a32cd" points="386.39,-50.91 376.39,-54.41 386.39,-57.91 386.39,-50.91"/>
<text text-anchor="middle" x="460" y="-91.5" font-family="Helvetica,sans-Serif" font-size="10.00"> m_epsilon</text>
<text text-anchor="middle" x="460" y="-80.5" font-family="Helvetica,sans-Serif" font-size="10.00">m_scale</text>
<text text-anchor="middle" x="460" y="-69.5" font-family="Helvetica,sans-Serif" font-size="10.00">m_value</text>
<text text-anchor="middle" x="460" y="-58.5" font-family="Helvetica,sans-Serif" font-size="10.00">m_margin</text>
</g>
<!-- Node9 -->
<g id="node9" class="node">
<title>Node9</title>
<g id="a_node9"><a xlink:title=" ">
<polygon fill="white" stroke="#bfbfbf" points="518,-0.5 518,-30.5 641,-30.5 641,-0.5 518,-0.5"/>
<text text-anchor="start" x="526" y="-18.5" font-family="Helvetica,sans-Serif" font-size="10.00">vector&lt; T, AllocComp</text>
<text text-anchor="middle" x="579.5" y="-7.5" font-family="Helvetica,sans-Serif" font-size="10.00"> &gt; const &amp;</text>
</a>
</g>
</g>
<!-- Node9&#45;&gt;Node1 -->
<g id="edge8" class="edge">
<title>Node9&#45;&gt;Node1</title>
<path fill="none" stroke="#9a32cd" stroke-dasharray="5,2" d="M651.15,-26.95C685.89,-32.58 728.08,-39.42 764.81,-45.37"/>
<polygon fill="#9a32cd" stroke="#9a32cd" points="651.52,-23.46 641.09,-25.32 650.4,-30.37 651.52,-23.46"/>
<text text-anchor="middle" x="709.5" y="-44.5" font-family="Helvetica,sans-Serif" font-size="10.00"> m_comparator</text>
</g>
</g>
</svg>
