<?xml version="1.0" encoding="UTF-8" standalone="no"?>
<!DOCTYPE svg PUBLIC "-//W3C//DTD SVG 1.1//EN"
 "http://www.w3.org/Graphics/SVG/1.1/DTD/svg11.dtd">
<!-- Generated by graphviz version 2.43.0 (0)
 -->
<!-- Title: irr::SEvent::SAccelerometerEvent Pages: 1 -->
<svg width="159pt" height="128pt"
 viewBox="0.00 0.00 159.00 128.00" xmlns="http://www.w3.org/2000/svg" xmlns:xlink="http://www.w3.org/1999/xlink">
<g id="graph0" class="graph" transform="scale(1 1) rotate(0) translate(4 124)">
<title>irr::SEvent::SAccelerometerEvent</title>
<polygon fill="white" stroke="transparent" points="-4,4 -4,-124 155,-124 155,4 -4,4"/>
<!-- Node1 -->
<g id="node1" class="node">
<title>Node1</title>
<g id="a_node1"><a xlink:title="Any kind of accelerometer event.">
<polygon fill="#bfbfbf" stroke="black" points="0,-0.5 0,-30.5 151,-30.5 151,-0.5 0,-0.5"/>
<text text-anchor="start" x="8" y="-18.5" font-family="Helvetica,sans-Serif" font-size="10.00">irr::SEvent::SAccelerometer</text>
<text text-anchor="middle" x="75.5" y="-7.5" font-family="Helvetica,sans-Serif" font-size="10.00">Event</text>
</a>
</g>
</g>
<!-- Node2 -->
<g id="node2" class="node">
<title>Node2</title>
<g id="a_node2"><a xlink:title=" ">
<polygon fill="white" stroke="#bfbfbf" points="50.5,-100.5 50.5,-119.5 100.5,-119.5 100.5,-100.5 50.5,-100.5"/>
<text text-anchor="middle" x="75.5" y="-107.5" font-family="Helvetica,sans-Serif" font-size="10.00">double</text>
</a>
</g>
</g>
<!-- Node2&#45;&gt;Node1 -->
<g id="edge1" class="edge">
<title>Node2&#45;&gt;Node1</title>
<path fill="none" stroke="#9a32cd" stroke-dasharray="5,2" d="M75.5,-90.29C75.5,-72.67 75.5,-46.67 75.5,-30.7"/>
<polygon fill="#9a32cd" stroke="#9a32cd" points="72,-90.46 75.5,-100.46 79,-90.46 72,-90.46"/>
<text text-anchor="middle" x="80.5" y="-74" font-family="Helvetica,sans-Serif" font-size="10.00"> X</text>
<text text-anchor="middle" x="80.5" y="-63" font-family="Helvetica,sans-Serif" font-size="10.00">Y</text>
<text text-anchor="middle" x="80.5" y="-52" font-family="Helvetica,sans-Serif" font-size="10.00">Z</text>
</g>
</g>
</svg>
