<?xml version="1.0" encoding="UTF-8" standalone="no"?>
<!DOCTYPE svg PUBLIC "-//W3C//DTD SVG 1.1//EN"
 "http://www.w3.org/Graphics/SVG/1.1/DTD/svg11.dtd">
<!-- Generated by graphviz version 2.43.0 (0)
 -->
<!-- Title: ShaderInfo Pages: 1 -->
<svg width="384pt" height="106pt"
 viewBox="0.00 0.00 384.00 106.00" xmlns="http://www.w3.org/2000/svg" xmlns:xlink="http://www.w3.org/1999/xlink">
<g id="graph0" class="graph" transform="scale(1 1) rotate(0) translate(4 102)">
<title>ShaderInfo</title>
<polygon fill="white" stroke="transparent" points="-4,4 -4,-102 380,-102 380,4 -4,4"/>
<!-- Node1 -->
<g id="node1" class="node">
<title>Node1</title>
<g id="a_node1"><a xlink:title=" ">
<polygon fill="#bfbfbf" stroke="black" points="176.5,-0.5 176.5,-19.5 245.5,-19.5 245.5,-0.5 176.5,-0.5"/>
<text text-anchor="middle" x="211" y="-7.5" font-family="Helvetica,sans-Serif" font-size="10.00">ShaderInfo</text>
</a>
</g>
</g>
<!-- Node2 -->
<g id="node2" class="node">
<title>Node2</title>
<g id="a_node2"><a xlink:title=" ">
<polygon fill="white" stroke="#bfbfbf" points="0,-78.5 0,-97.5 106,-97.5 106,-78.5 0,-78.5"/>
<text text-anchor="middle" x="53" y="-85.5" font-family="Helvetica,sans-Serif" font-size="10.00">E_MATERIAL_TYPE</text>
</a>
</g>
</g>
<!-- Node2&#45;&gt;Node1 -->
<g id="edge1" class="edge">
<title>Node2&#45;&gt;Node1</title>
<path fill="none" stroke="#9a32cd" stroke-dasharray="5,2" d="M65.15,-70.05C73.72,-59.32 86.11,-46 100,-38 123.46,-24.49 153.46,-17.71 176.36,-14.33"/>
<polygon fill="#9a32cd" stroke="#9a32cd" points="62.16,-68.21 58.91,-78.29 67.74,-72.44 62.16,-68.21"/>
<text text-anchor="middle" x="135" y="-52" font-family="Helvetica,sans-Serif" font-size="10.00"> material</text>
<text text-anchor="middle" x="135" y="-41" font-family="Helvetica,sans-Serif" font-size="10.00">base_material</text>
</g>
<!-- Node3 -->
<g id="node3" class="node">
<title>Node3</title>
<g id="a_node3"><a xlink:title=" ">
<polygon fill="white" stroke="#bfbfbf" points="124,-78.5 124,-97.5 214,-97.5 214,-78.5 124,-78.5"/>
<text text-anchor="middle" x="169" y="-85.5" font-family="Helvetica,sans-Serif" font-size="10.00">NodeDrawType</text>
</a>
</g>
</g>
<!-- Node3&#45;&gt;Node1 -->
<g id="edge2" class="edge">
<title>Node3&#45;&gt;Node1</title>
<path fill="none" stroke="#9a32cd" stroke-dasharray="5,2" d="M171.91,-68.43C173.99,-58.85 177.43,-47.27 183,-38 187.24,-30.94 193.8,-24.47 199.5,-19.64"/>
<polygon fill="#9a32cd" stroke="#9a32cd" points="168.43,-68.02 170.06,-78.49 175.31,-69.29 168.43,-68.02"/>
<text text-anchor="middle" x="207.5" y="-46.5" font-family="Helvetica,sans-Serif" font-size="10.00"> drawtype</text>
</g>
<!-- Node4 -->
<g id="node4" class="node">
<title>Node4</title>
<g id="a_node4"><a xlink:title=" ">
<polygon fill="white" stroke="#bfbfbf" points="232,-78.5 232,-97.5 276,-97.5 276,-78.5 232,-78.5"/>
<text text-anchor="middle" x="254" y="-85.5" font-family="Helvetica,sans-Serif" font-size="10.00">string</text>
</a>
</g>
</g>
<!-- Node4&#45;&gt;Node1 -->
<g id="edge3" class="edge">
<title>Node4&#45;&gt;Node1</title>
<path fill="none" stroke="#9a32cd" stroke-dasharray="5,2" d="M247.05,-68.81C243.14,-59.35 237.87,-47.75 232,-38 228.08,-31.49 222.83,-24.74 218.56,-19.61"/>
<polygon fill="#9a32cd" stroke="#9a32cd" points="243.91,-70.37 250.85,-78.37 250.41,-67.78 243.91,-70.37"/>
<text text-anchor="middle" x="257.5" y="-46.5" font-family="Helvetica,sans-Serif" font-size="10.00"> name</text>
</g>
<!-- Node5 -->
<g id="node5" class="node">
<title>Node5</title>
<g id="a_node5"><a xlink:title=" ">
<polygon fill="white" stroke="#bfbfbf" points="294,-78.5 294,-97.5 374,-97.5 374,-78.5 294,-78.5"/>
<text text-anchor="middle" x="334" y="-85.5" font-family="Helvetica,sans-Serif" font-size="10.00">MaterialType</text>
</a>
</g>
</g>
<!-- Node5&#45;&gt;Node1 -->
<g id="edge4" class="edge">
<title>Node5&#45;&gt;Node1</title>
<path fill="none" stroke="#9a32cd" stroke-dasharray="5,2" d="M318.4,-71.14C307.52,-60.72 292.26,-47.34 277,-38 264.65,-30.44 249.8,-24.15 237.32,-19.55"/>
<polygon fill="#9a32cd" stroke="#9a32cd" points="316.22,-73.9 325.8,-78.42 321.12,-68.91 316.22,-73.9"/>
<text text-anchor="middle" x="340" y="-46.5" font-family="Helvetica,sans-Serif" font-size="10.00"> material_type</text>
</g>
</g>
</svg>
