<?xml version="1.0" encoding="UTF-8" standalone="no"?>
<!DOCTYPE svg PUBLIC "-//W3C//DTD SVG 1.1//EN"
 "http://www.w3.org/Graphics/SVG/1.1/DTD/svg11.dtd">
<!-- Generated by graphviz version 2.43.0 (0)
 -->
<!-- Title: ActionRow Pages: 1 -->
<!--zoomable 506 -->
<svg id="main" version="1.1" xmlns="http://www.w3.org/2000/svg" xmlns:xlink="http://www.w3.org/1999/xlink" xml:space="preserve" onload="init(evt)">
<style type="text/css"><![CDATA[
.edge:hover path { stroke: red; }
.edge:hover polygon { stroke: red; fill: red; }
]]></style>
<script type="text/javascript"><![CDATA[
var edges = document.getElementsByTagName('g');
if (edges && edges.length) {
  for (var i=0;i<edges.length;i++) {
    if (edges[i].id.substr(0,4)=='edge') {
      edges[i].setAttribute('class','edge');
    }
  }
}
]]></script>
        <defs>
                <circle id="rim" cx="0" cy="0" r="7"/>
                <circle id="rim2" cx="0" cy="0" r="3.5"/>
                <g id="zoomPlus">
                        <use xlink:href="#rim" fill="#404040">
                                <set attributeName="fill" to="#808080" begin="zoomplus.mouseover" end="zoomplus.mouseout"/>
                        </use>
                        <path d="M-4,0h8M0,-4v8" fill="none" stroke="white" stroke-width="1.5" pointer-events="none"/>
                </g>
                <g id="zoomMin">
                        <use xlink:href="#rim" fill="#404040">
                                <set attributeName="fill" to="#808080" begin="zoomminus.mouseover" end="zoomminus.mouseout"/>
                        </use>
                        <path d="M-4,0h8" fill="none" stroke="white" stroke-width="1.5" pointer-events="none"/>
                </g>
                <g id="dirArrow">
                        <path fill="none" stroke="white" stroke-width="1.5" d="M0,-3.0v7 M-2.5,-0.5L0,-3.0L2.5,-0.5"/>
                </g>
               <g id="resetDef">
                       <use xlink:href="#rim2" fill="#404040">
                               <set attributeName="fill" to="#808080" begin="reset.mouseover" end="reset.mouseout"/>
                       </use>
               </g>
        </defs>

<script type="text/javascript">
var viewWidth = 1113;
var viewHeight = 506;
var sectionId = 'dynsection-0';
</script>
<script xlink:href="svgpan.js"/>
<svg id="graph" class="graph">
<g id="viewport">
<title>ActionRow</title>
<polygon fill="white" stroke="transparent" points="-4,4 -4,-501.5 1109,-501.5 1109,4 -4,4"/>
<!-- Node1 -->
<g id="node1" class="node">
<title>Node1</title>
<g id="a_node1"><a xlink:title=" ">
<polygon fill="#bfbfbf" stroke="black" points="1037,-106.5 1037,-125.5 1105,-125.5 1105,-106.5 1037,-106.5"/>
<text text-anchor="middle" x="1071" y="-113.5" font-family="Helvetica,sans-Serif" font-size="10.00">ActionRow</text>
</a>
</g>
</g>
<!-- Node2 -->
<g id="node2" class="node">
<title>Node2</title>
<g id="a_node2"><a xlink:href="classItemStackRow.html" target="_top" xlink:title=" ">
<polygon fill="white" stroke="black" points="857,-174.5 857,-193.5 944,-193.5 944,-174.5 857,-174.5"/>
<text text-anchor="middle" x="900.5" y="-181.5" font-family="Helvetica,sans-Serif" font-size="10.00">ItemStackRow</text>
</a>
</g>
</g>
<!-- Node2&#45;&gt;Node1 -->
<g id="edge1" class="edge">
<title>Node2&#45;&gt;Node1</title>
<path fill="none" stroke="#9a32cd" stroke-dasharray="5,2" d="M934.93,-170.51C967.85,-157.23 1017.29,-137.27 1046.34,-125.55"/>
<polygon fill="#9a32cd" stroke="#9a32cd" points="933.25,-167.41 925.28,-174.4 935.87,-173.9 933.25,-167.41"/>
<text text-anchor="middle" x="990.5" y="-161" font-family="Helvetica,sans-Serif" font-size="10.00"> stack</text>
</g>
<!-- Node3 -->
<g id="node3" class="node">
<title>Node3</title>
<g id="a_node3"><a xlink:href="structItemStack.html" target="_top" xlink:title=" ">
<polygon fill="white" stroke="black" points="706,-286.5 706,-305.5 772,-305.5 772,-286.5 706,-286.5"/>
<text text-anchor="middle" x="739" y="-293.5" font-family="Helvetica,sans-Serif" font-size="10.00">ItemStack</text>
</a>
</g>
</g>
<!-- Node3&#45;&gt;Node2 -->
<g id="edge2" class="edge">
<title>Node3&#45;&gt;Node2</title>
<path fill="none" stroke="midnightblue" d="M761.82,-280.68C795.28,-257.18 858.3,-212.93 885.94,-193.52"/>
<polygon fill="midnightblue" stroke="midnightblue" points="759.77,-277.84 753.6,-286.45 763.79,-283.57 759.77,-277.84"/>
</g>
<!-- Node4 -->
<g id="node4" class="node">
<title>Node4</title>
<g id="a_node4"><a xlink:title=" ">
<polygon fill="white" stroke="#bfbfbf" points="538,-307.5 538,-326.5 573,-326.5 573,-307.5 538,-307.5"/>
<text text-anchor="middle" x="555.5" y="-314.5" font-family="Helvetica,sans-Serif" font-size="10.00">u16</text>
</a>
</g>
</g>
<!-- Node4&#45;&gt;Node3 -->
<g id="edge3" class="edge">
<title>Node4&#45;&gt;Node3</title>
<path fill="none" stroke="#9a32cd" stroke-dasharray="5,2" d="M583.4,-313.89C616.03,-310.11 671,-303.75 705.84,-299.72"/>
<polygon fill="#9a32cd" stroke="#9a32cd" points="582.78,-310.44 573.25,-315.06 583.59,-317.39 582.78,-310.44"/>
<text text-anchor="middle" x="659" y="-322" font-family="Helvetica,sans-Serif" font-size="10.00"> count</text>
<text text-anchor="middle" x="659" y="-311" font-family="Helvetica,sans-Serif" font-size="10.00">wear</text>
</g>
<!-- Node5 -->
<g id="node5" class="node">
<title>Node5</title>
<g id="a_node5"><a xlink:title=" ">
<polygon fill="white" stroke="#bfbfbf" points="533.5,-361.5 533.5,-380.5 577.5,-380.5 577.5,-361.5 533.5,-361.5"/>
<text text-anchor="middle" x="555.5" y="-368.5" font-family="Helvetica,sans-Serif" font-size="10.00">string</text>
</a>
</g>
</g>
<!-- Node5&#45;&gt;Node1 -->
<g id="edge18" class="edge">
<title>Node5&#45;&gt;Node1</title>
<path fill="none" stroke="#9a32cd" stroke-dasharray="5,2" d="M587.99,-374.99C615.05,-377.37 654.83,-378.36 688,-369 852.55,-322.59 886.9,-281.53 1019,-173 1036.65,-158.5 1053.6,-137.75 1062.83,-125.7"/>
<polygon fill="#9a32cd" stroke="#9a32cd" points="588.23,-371.5 577.94,-373.99 587.54,-378.46 588.23,-371.5"/>
<text text-anchor="middle" x="814.5" y="-369" font-family="Helvetica,sans-Serif" font-size="10.00"> newMeta</text>
<text text-anchor="middle" x="814.5" y="-358" font-family="Helvetica,sans-Serif" font-size="10.00">oldMeta</text>
<text text-anchor="middle" x="814.5" y="-347" font-family="Helvetica,sans-Serif" font-size="10.00">location</text>
<text text-anchor="middle" x="814.5" y="-336" font-family="Helvetica,sans-Serif" font-size="10.00">list</text>
</g>
<!-- Node5&#45;&gt;Node3 -->
<g id="edge4" class="edge">
<title>Node5&#45;&gt;Node3</title>
<path fill="none" stroke="#9a32cd" stroke-dasharray="5,2" d="M587.72,-365.65C615.15,-360.17 655.62,-350.13 688,-334 703.03,-326.51 718.07,-314.28 727.67,-305.73"/>
<polygon fill="#9a32cd" stroke="#9a32cd" points="587.05,-362.22 577.89,-367.54 588.37,-369.09 587.05,-362.22"/>
<text text-anchor="middle" x="659" y="-357" font-family="Helvetica,sans-Serif" font-size="10.00"> name</text>
</g>
<!-- Node6 -->
<g id="node6" class="node">
<title>Node6</title>
<g id="a_node6"><a xlink:href="classItemStackMetadata.html" target="_top" xlink:title=" ">
<polygon fill="white" stroke="black" points="499,-269.5 499,-288.5 612,-288.5 612,-269.5 499,-269.5"/>
<text text-anchor="middle" x="555.5" y="-276.5" font-family="Helvetica,sans-Serif" font-size="10.00">ItemStackMetadata</text>
</a>
</g>
</g>
<!-- Node6&#45;&gt;Node3 -->
<g id="edge5" class="edge">
<title>Node6&#45;&gt;Node3</title>
<path fill="none" stroke="#9a32cd" stroke-dasharray="5,2" d="M622.3,-275.62C643.4,-275.57 666.79,-276.61 688,-280 696.37,-281.34 705.26,-283.82 713.18,-286.43"/>
<polygon fill="#9a32cd" stroke="#9a32cd" points="622.12,-272.12 612.15,-275.73 622.19,-279.12 622.12,-272.12"/>
<text text-anchor="middle" x="659" y="-283" font-family="Helvetica,sans-Serif" font-size="10.00"> metadata</text>
</g>
<!-- Node7 -->
<g id="node7" class="node">
<title>Node7</title>
<g id="a_node7"><a xlink:href="classSimpleMetadata.html" target="_top" xlink:title=" ">
<polygon fill="white" stroke="black" points="272,-417.5 272,-436.5 369,-436.5 369,-417.5 272,-417.5"/>
<text text-anchor="middle" x="320.5" y="-424.5" font-family="Helvetica,sans-Serif" font-size="10.00">SimpleMetadata</text>
</a>
</g>
</g>
<!-- Node7&#45;&gt;Node6 -->
<g id="edge6" class="edge">
<title>Node7&#45;&gt;Node6</title>
<path fill="none" stroke="midnightblue" d="M379.6,-429.17C413.68,-427.2 455.01,-418.69 481,-392 510.67,-361.52 471.11,-330.12 499,-298 502.34,-294.16 506.49,-291.09 511.01,-288.64"/>
<polygon fill="midnightblue" stroke="midnightblue" points="379.14,-425.68 369.28,-429.58 379.41,-432.68 379.14,-425.68"/>
</g>
<!-- Node8 -->
<g id="node8" class="node">
<title>Node8</title>
<g id="a_node8"><a xlink:href="classIMetadata.html" target="_top" xlink:title=" ">
<polygon fill="white" stroke="black" points="35,-428.5 35,-447.5 101,-447.5 101,-428.5 35,-428.5"/>
<text text-anchor="middle" x="68" y="-435.5" font-family="Helvetica,sans-Serif" font-size="10.00">IMetadata</text>
</a>
</g>
</g>
<!-- Node8&#45;&gt;Node7 -->
<g id="edge7" class="edge">
<title>Node8&#45;&gt;Node7</title>
<path fill="none" stroke="midnightblue" d="M111.42,-436.14C155.91,-434.18 225.68,-431.12 271.99,-429.09"/>
<polygon fill="midnightblue" stroke="midnightblue" points="111.07,-432.65 101.24,-436.58 111.38,-439.64 111.07,-432.65"/>
</g>
<!-- Node9 -->
<g id="node9" class="node">
<title>Node9</title>
<g id="a_node9"><a xlink:title=" ">
<polygon fill="white" stroke="#bfbfbf" points="8.5,-467 8.5,-497 127.5,-497 127.5,-467 8.5,-467"/>
<text text-anchor="start" x="16.5" y="-485" font-family="Helvetica,sans-Serif" font-size="10.00">unordered_map&lt; std</text>
<text text-anchor="middle" x="68" y="-474" font-family="Helvetica,sans-Serif" font-size="10.00">::string, std::string &gt;</text>
</a>
</g>
</g>
<!-- Node9&#45;&gt;Node7 -->
<g id="edge8" class="edge">
<title>Node9&#45;&gt;Node7</title>
<path fill="none" stroke="#9a32cd" stroke-dasharray="5,2" d="M137.73,-469.67C171.92,-463.22 213.78,-454.83 251,-446 262.77,-443.21 275.56,-439.77 286.88,-436.59"/>
<polygon fill="#9a32cd" stroke="#9a32cd" points="137.03,-466.24 127.85,-471.52 138.32,-473.12 137.03,-466.24"/>
<text text-anchor="middle" x="202.5" y="-468" font-family="Helvetica,sans-Serif" font-size="10.00"> m_stringvars</text>
</g>
<!-- Node10 -->
<g id="node10" class="node">
<title>Node10</title>
<g id="a_node10"><a xlink:href="classbool.html" target="_top" xlink:title=" ">
<polygon fill="white" stroke="black" points="49,-390.5 49,-409.5 87,-409.5 87,-390.5 49,-390.5"/>
<text text-anchor="middle" x="68" y="-397.5" font-family="Helvetica,sans-Serif" font-size="10.00">bool</text>
</a>
</g>
</g>
<!-- Node10&#45;&gt;Node6 -->
<g id="edge15" class="edge">
<title>Node10&#45;&gt;Node6</title>
<path fill="none" stroke="#9a32cd" stroke-dasharray="5,2" d="M97.05,-393.01C179.57,-372.44 421.61,-312.12 516.1,-288.57"/>
<polygon fill="#9a32cd" stroke="#9a32cd" points="96,-389.66 87.15,-395.48 97.7,-396.46 96,-389.66"/>
<text text-anchor="middle" x="320.5" y="-352" font-family="Helvetica,sans-Serif" font-size="10.00"> toolcaps_overridden</text>
</g>
<!-- Node10&#45;&gt;Node7 -->
<g id="edge9" class="edge">
<title>Node10&#45;&gt;Node7</title>
<path fill="none" stroke="#9a32cd" stroke-dasharray="5,2" d="M97.34,-401.53C133.21,-403.66 196.85,-408.04 251,-415 257.71,-415.86 264.76,-416.92 271.68,-418.05"/>
<polygon fill="#9a32cd" stroke="#9a32cd" points="97.32,-398.03 87.14,-400.95 96.92,-405.01 97.32,-398.03"/>
<text text-anchor="middle" x="202.5" y="-418" font-family="Helvetica,sans-Serif" font-size="10.00"> m_modified</text>
</g>
<!-- Node11 -->
<g id="node11" class="node">
<title>Node11</title>
<g id="a_node11"><a xlink:href="structToolCapabilities.html" target="_top" xlink:title=" ">
<polygon fill="white" stroke="black" points="273.5,-269.5 273.5,-288.5 367.5,-288.5 367.5,-269.5 273.5,-269.5"/>
<text text-anchor="middle" x="320.5" y="-276.5" font-family="Helvetica,sans-Serif" font-size="10.00">ToolCapabilities</text>
</a>
</g>
</g>
<!-- Node11&#45;&gt;Node6 -->
<g id="edge10" class="edge">
<title>Node11&#45;&gt;Node6</title>
<path fill="none" stroke="#9a32cd" stroke-dasharray="5,2" d="M377.57,-279C414.28,-279 462.05,-279 498.7,-279"/>
<polygon fill="#9a32cd" stroke="#9a32cd" points="377.53,-275.5 367.53,-279 377.53,-282.5 377.53,-275.5"/>
<text text-anchor="middle" x="435.5" y="-282" font-family="Helvetica,sans-Serif" font-size="10.00"> toolcaps_override</text>
</g>
<!-- Node12 -->
<g id="node12" class="node">
<title>Node12</title>
<g id="a_node12"><a xlink:title=" ">
<polygon fill="white" stroke="#bfbfbf" points="49,-242.5 49,-261.5 87,-261.5 87,-242.5 49,-242.5"/>
<text text-anchor="middle" x="68" y="-249.5" font-family="Helvetica,sans-Serif" font-size="10.00">float</text>
</a>
</g>
</g>
<!-- Node12&#45;&gt;Node11 -->
<g id="edge11" class="edge">
<title>Node12&#45;&gt;Node11</title>
<path fill="none" stroke="#9a32cd" stroke-dasharray="5,2" d="M97.3,-254.19C133.14,-257.06 196.74,-262.51 251,-269 258.28,-269.87 265.98,-270.89 273.49,-271.95"/>
<polygon fill="#9a32cd" stroke="#9a32cd" points="97.36,-250.68 87.12,-253.38 96.81,-257.66 97.36,-250.68"/>
<text text-anchor="middle" x="202.5" y="-272" font-family="Helvetica,sans-Serif" font-size="10.00"> full_punch_interval</text>
</g>
<!-- Node13 -->
<g id="node13" class="node">
<title>Node13</title>
<g id="a_node13"><a xlink:title=" ">
<polygon fill="white" stroke="#bfbfbf" points="0,-330.5 0,-371.5 136,-371.5 136,-330.5 0,-330.5"/>
<text text-anchor="start" x="8" y="-359.5" font-family="Helvetica,sans-Serif" font-size="10.00">unordered_map&lt; std</text>
<text text-anchor="start" x="8" y="-348.5" font-family="Helvetica,sans-Serif" font-size="10.00">::string, struct ToolGroup</text>
<text text-anchor="middle" x="68" y="-337.5" font-family="Helvetica,sans-Serif" font-size="10.00">Cap &gt;</text>
</a>
</g>
</g>
<!-- Node13&#45;&gt;Node11 -->
<g id="edge12" class="edge">
<title>Node13&#45;&gt;Node11</title>
<path fill="none" stroke="#9a32cd" stroke-dasharray="5,2" d="M146.01,-333.62C178.64,-325.72 216.91,-315.74 251,-305 266.29,-300.18 283.12,-293.81 296.27,-288.58"/>
<polygon fill="#9a32cd" stroke="#9a32cd" points="144.99,-330.26 136.08,-336 146.62,-337.07 144.99,-330.26"/>
<text text-anchor="middle" x="202.5" y="-333" font-family="Helvetica,sans-Serif" font-size="10.00"> groupcaps</text>
</g>
<!-- Node14 -->
<g id="node14" class="node">
<title>Node14</title>
<g id="a_node14"><a xlink:title=" ">
<polygon fill="white" stroke="#bfbfbf" points="53.5,-174.5 53.5,-193.5 82.5,-193.5 82.5,-174.5 53.5,-174.5"/>
<text text-anchor="middle" x="68" y="-181.5" font-family="Helvetica,sans-Serif" font-size="10.00">int</text>
</a>
</g>
</g>
<!-- Node14&#45;&gt;Node1 -->
<g id="edge17" class="edge">
<title>Node14&#45;&gt;Node1</title>
<path fill="none" stroke="#9a32cd" stroke-dasharray="5,2" d="M85.63,-167.21C123.51,-130.83 220.63,-48 319.5,-48 319.5,-48 319.5,-48 901.5,-48 963.01,-48 1028.58,-87.45 1056.34,-106.26"/>
<polygon fill="#9a32cd" stroke="#9a32cd" points="83.16,-164.72 78.46,-174.22 88.06,-169.73 83.16,-164.72"/>
<text text-anchor="middle" x="659" y="-161" font-family="Helvetica,sans-Serif" font-size="10.00"> x</text>
<text text-anchor="middle" x="659" y="-150" font-family="Helvetica,sans-Serif" font-size="10.00">y</text>
<text text-anchor="middle" x="659" y="-139" font-family="Helvetica,sans-Serif" font-size="10.00">z</text>
<text text-anchor="middle" x="659" y="-128" font-family="Helvetica,sans-Serif" font-size="10.00">guessed</text>
<text text-anchor="middle" x="659" y="-117" font-family="Helvetica,sans-Serif" font-size="10.00">oldNode</text>
<text text-anchor="middle" x="659" y="-106" font-family="Helvetica,sans-Serif" font-size="10.00">newParam1</text>
<text text-anchor="middle" x="659" y="-95" font-family="Helvetica,sans-Serif" font-size="10.00">newParam2</text>
<text text-anchor="middle" x="659" y="-84" font-family="Helvetica,sans-Serif" font-size="10.00">type</text>
<text text-anchor="middle" x="659" y="-73" font-family="Helvetica,sans-Serif" font-size="10.00">add</text>
<text text-anchor="middle" x="659" y="-62" font-family="Helvetica,sans-Serif" font-size="10.00">index</text>
<text text-anchor="middle" x="659" y="-51" font-family="Helvetica,sans-Serif" font-size="10.00">...</text>
</g>
<!-- Node14&#45;&gt;Node2 -->
<g id="edge16" class="edge">
<title>Node14&#45;&gt;Node2</title>
<path fill="none" stroke="#9a32cd" stroke-dasharray="5,2" d="M92.66,-184C137.1,-184 236.11,-184 319.5,-184 319.5,-184 319.5,-184 740,-184 779.6,-184 824.73,-184 856.85,-184"/>
<polygon fill="#9a32cd" stroke="#9a32cd" points="92.58,-180.5 82.58,-184 92.58,-187.5 92.58,-180.5"/>
<text text-anchor="middle" x="555.5" y="-187" font-family="Helvetica,sans-Serif" font-size="10.00"> id</text>
</g>
<!-- Node14&#45;&gt;Node11 -->
<g id="edge13" class="edge">
<title>Node14&#45;&gt;Node11</title>
<path fill="none" stroke="#9a32cd" stroke-dasharray="5,2" d="M92.68,-187.81C128.24,-194.09 197.02,-208.43 251,-233 272.38,-242.73 294.48,-258.87 307.6,-269.22"/>
<polygon fill="#9a32cd" stroke="#9a32cd" points="93.21,-184.35 82.77,-186.12 92.03,-191.25 93.21,-184.35"/>
<text text-anchor="middle" x="202.5" y="-247" font-family="Helvetica,sans-Serif" font-size="10.00"> max_drop_level</text>
<text text-anchor="middle" x="202.5" y="-236" font-family="Helvetica,sans-Serif" font-size="10.00">punch_attack_uses</text>
</g>
<!-- Node15 -->
<g id="node15" class="node">
<title>Node15</title>
<g id="a_node15"><a xlink:title=" ">
<polygon fill="white" stroke="#bfbfbf" points="8.5,-281 8.5,-311 127.5,-311 127.5,-281 8.5,-281"/>
<text text-anchor="start" x="16.5" y="-299" font-family="Helvetica,sans-Serif" font-size="10.00">unordered_map&lt; std</text>
<text text-anchor="middle" x="68" y="-288" font-family="Helvetica,sans-Serif" font-size="10.00">::string, s16 &gt;</text>
</a>
</g>
</g>
<!-- Node15&#45;&gt;Node11 -->
<g id="edge14" class="edge">
<title>Node15&#45;&gt;Node11</title>
<path fill="none" stroke="#9a32cd" stroke-dasharray="5,2" d="M137.86,-291.33C180.94,-288.4 235.27,-284.72 273.24,-282.14"/>
<polygon fill="#9a32cd" stroke="#9a32cd" points="137.47,-287.85 127.73,-292.01 137.95,-294.83 137.47,-287.85"/>
<text text-anchor="middle" x="202.5" y="-293" font-family="Helvetica,sans-Serif" font-size="10.00"> damageGroups</text>
</g>
<!-- Node16 -->
<g id="node16" class="node">
<title>Node16</title>
<g id="a_node16"><a xlink:title=" ">
<polygon fill="white" stroke="#bfbfbf" points="876.5,-0.5 876.5,-19.5 924.5,-19.5 924.5,-0.5 876.5,-0.5"/>
<text text-anchor="middle" x="900.5" y="-7.5" font-family="Helvetica,sans-Serif" font-size="10.00">time_t</text>
</a>
</g>
</g>
<!-- Node16&#45;&gt;Node1 -->
<g id="edge19" class="edge">
<title>Node16&#45;&gt;Node1</title>
<path fill="none" stroke="#9a32cd" stroke-dasharray="5,2" d="M934.99,-5.86C960.15,-4.5 994.37,-6.52 1019,-23 1049,-43.07 1062.96,-86.92 1067.85,-106.38"/>
<polygon fill="#9a32cd" stroke="#9a32cd" points="934.53,-2.39 924.82,-6.62 935.05,-9.37 934.53,-2.39"/>
<text text-anchor="middle" x="990.5" y="-26" font-family="Helvetica,sans-Serif" font-size="10.00"> timestamp</text>
</g>
</g>
</svg>
        <g id="navigator" transform="translate(0 0)" fill="#404254">
                <rect fill="#f2f5e9" fill-opacity="0.5" stroke="#606060" stroke-width=".5" x="0" y="0" width="60" height="60"/>
                <use id="zoomplus" xlink:href="#zoomPlus" x="17" y="9" onmousedown="handleZoom(evt,'in')"/>
                <use id="zoomminus" xlink:href="#zoomMin" x="42" y="9" onmousedown="handleZoom(evt,'out')"/>
                <use id="reset" xlink:href="#resetDef" x="30" y="36" onmousedown="handleReset()"/>
                <g id="arrowUp" xlink:href="#dirArrow" transform="translate(30 24)" onmousedown="handlePan(0,-1)">
                  <use xlink:href="#rim" fill="#404040">
                        <set attributeName="fill" to="#808080" begin="arrowUp.mouseover" end="arrowUp.mouseout"/>
                  </use>
                  <path fill="none" stroke="white" stroke-width="1.5" d="M0,-3.0v7 M-2.5,-0.5L0,-3.0L2.5,-0.5"/>
                </g>
                <g id="arrowRight" xlink:href="#dirArrow" transform="rotate(90) translate(36 -43)" onmousedown="handlePan(1,0)">
                  <use xlink:href="#rim" fill="#404040">
                        <set attributeName="fill" to="#808080" begin="arrowRight.mouseover" end="arrowRight.mouseout"/>
                  </use>
                  <path fill="none" stroke="white" stroke-width="1.5" d="M0,-3.0v7 M-2.5,-0.5L0,-3.0L2.5,-0.5"/>
                </g>
                <g id="arrowDown" xlink:href="#dirArrow" transform="rotate(180) translate(-30 -48)" onmousedown="handlePan(0,1)">
                  <use xlink:href="#rim" fill="#404040">
                        <set attributeName="fill" to="#808080" begin="arrowDown.mouseover" end="arrowDown.mouseout"/>
                  </use>
                  <path fill="none" stroke="white" stroke-width="1.5" d="M0,-3.0v7 M-2.5,-0.5L0,-3.0L2.5,-0.5"/>
                </g>
                <g id="arrowLeft" xlink:href="#dirArrow" transform="rotate(270) translate(-36 17)" onmousedown="handlePan(-1,0)">
                  <use xlink:href="#rim" fill="#404040">
                        <set attributeName="fill" to="#808080" begin="arrowLeft.mouseover" end="arrowLeft.mouseout"/>
                  </use>
                  <path fill="none" stroke="white" stroke-width="1.5" d="M0,-3.0v7 M-2.5,-0.5L0,-3.0L2.5,-0.5"/>
                </g>
        </g>
        <svg viewBox="0 0 15 15" width="100%" height="30px" preserveAspectRatio="xMaxYMin meet">
         <g id="arrow_out" transform="scale(0.3 0.3)">
          <a xlink:href="structActionRow__coll__graph_org.svg" target="_base">
           <rect id="button" ry="5" rx="5" y="6" x="6" height="38" width="38"
                fill="#f2f5e9" fill-opacity="0.5" stroke="#606060" stroke-width="1.0"/>
           <path id="arrow"
             d="M 11.500037,31.436501 C 11.940474,20.09759 22.043105,11.32322 32.158766,21.979434 L 37.068811,17.246167 C 37.068811,17.246167 37.088388,32 37.088388,32 L 22.160133,31.978069 C 22.160133,31.978069 26.997745,27.140456 26.997745,27.140456 C 18.528582,18.264221 13.291696,25.230495 11.500037,31.436501 z"
             style="fill:#404040;"/>
          </a>
         </g>
        </svg>
</svg>
