<?xml version="1.0" encoding="UTF-8" standalone="no"?>
<!DOCTYPE svg PUBLIC "-//W3C//DTD SVG 1.1//EN"
 "http://www.w3.org/Graphics/SVG/1.1/DTD/svg11.dtd">
<!-- Generated by graphviz version 2.43.0 (0)
 -->
<!-- Title: TextureUpdateArgs Pages: 1 -->
<svg width="461pt" height="219pt"
 viewBox="0.00 0.00 460.50 219.00" xmlns="http://www.w3.org/2000/svg" xmlns:xlink="http://www.w3.org/1999/xlink">
<g id="graph0" class="graph" transform="scale(1 1) rotate(0) translate(4 215)">
<title>TextureUpdateArgs</title>
<polygon fill="white" stroke="transparent" points="-4,4 -4,-215 456.5,-215 456.5,4 -4,4"/>
<!-- Node1 -->
<g id="node1" class="node">
<title>Node1</title>
<g id="a_node1"><a xlink:title=" ">
<polygon fill="#bfbfbf" stroke="black" points="190,-0.5 190,-19.5 300,-19.5 300,-0.5 190,-0.5"/>
<text text-anchor="middle" x="245" y="-7.5" font-family="Helvetica,sans-Serif" font-size="10.00">TextureUpdateArgs</text>
</a>
</g>
</g>
<!-- Node2 -->
<g id="node2" class="node">
<title>Node2</title>
<g id="a_node2"><a xlink:href="classITextureSource.html" target="_top" xlink:title=" ">
<polygon fill="white" stroke="black" points="16.5,-67.5 16.5,-86.5 105.5,-86.5 105.5,-67.5 16.5,-67.5"/>
<text text-anchor="middle" x="61" y="-74.5" font-family="Helvetica,sans-Serif" font-size="10.00">ITextureSource</text>
</a>
</g>
</g>
<!-- Node2&#45;&gt;Node1 -->
<g id="edge1" class="edge">
<title>Node2&#45;&gt;Node1</title>
<path fill="none" stroke="#9a32cd" stroke-dasharray="5,2" d="M84.95,-62.54C99.87,-54.58 119.64,-44.76 138,-38 158.86,-30.32 182.78,-24.06 202.71,-19.5"/>
<polygon fill="#9a32cd" stroke="#9a32cd" points="83.03,-59.6 75.92,-67.45 86.38,-65.75 83.03,-59.6"/>
<text text-anchor="middle" x="149" y="-41" font-family="Helvetica,sans-Serif" font-size="10.00"> tsrc</text>
</g>
<!-- Node3 -->
<g id="node3" class="node">
<title>Node3</title>
<g id="a_node3"><a xlink:href="classISimpleTextureSource.html" target="_top" xlink:title=" ">
<polygon fill="white" stroke="black" points="0,-124.5 0,-143.5 122,-143.5 122,-124.5 0,-124.5"/>
<text text-anchor="middle" x="61" y="-131.5" font-family="Helvetica,sans-Serif" font-size="10.00">ISimpleTextureSource</text>
</a>
</g>
</g>
<!-- Node3&#45;&gt;Node2 -->
<g id="edge2" class="edge">
<title>Node3&#45;&gt;Node2</title>
<path fill="none" stroke="midnightblue" d="M61,-114.12C61,-104.82 61,-94.06 61,-86.71"/>
<polygon fill="midnightblue" stroke="midnightblue" points="57.5,-114.41 61,-124.41 64.5,-114.41 57.5,-114.41"/>
</g>
<!-- Node4 -->
<g id="node4" class="node">
<title>Node4</title>
<g id="a_node4"><a xlink:title=" ">
<polygon fill="white" stroke="#bfbfbf" points="123.5,-67.5 123.5,-86.5 158.5,-86.5 158.5,-67.5 123.5,-67.5"/>
<text text-anchor="middle" x="141" y="-74.5" font-family="Helvetica,sans-Serif" font-size="10.00">u16</text>
</a>
</g>
</g>
<!-- Node4&#45;&gt;Node1 -->
<g id="edge3" class="edge">
<title>Node4&#45;&gt;Node1</title>
<path fill="none" stroke="#9a32cd" stroke-dasharray="5,2" d="M153.86,-59.45C160.2,-52.12 168.35,-43.86 177,-38 188.67,-30.09 203.01,-23.97 215.5,-19.57"/>
<polygon fill="#9a32cd" stroke="#9a32cd" points="150.95,-57.47 147.31,-67.42 156.36,-61.91 150.95,-57.47"/>
<text text-anchor="middle" x="209" y="-41" font-family="Helvetica,sans-Serif" font-size="10.00"> last_percent</text>
</g>
<!-- Node5 -->
<g id="node5" class="node">
<title>Node5</title>
<g id="a_node5"><a xlink:href="classirr_1_1gui_1_1IGUIEnvironment.html" target="_top" xlink:title="GUI Environment. Used as factory and manager of all other GUI elements.">
<polygon fill="white" stroke="black" points="176.5,-67.5 176.5,-86.5 313.5,-86.5 313.5,-67.5 176.5,-67.5"/>
<text text-anchor="middle" x="245" y="-74.5" font-family="Helvetica,sans-Serif" font-size="10.00">irr::gui::IGUIEnvironment</text>
</a>
</g>
</g>
<!-- Node5&#45;&gt;Node1 -->
<g id="edge4" class="edge">
<title>Node5&#45;&gt;Node1</title>
<path fill="none" stroke="#9a32cd" stroke-dasharray="5,2" d="M245,-57.04C245,-44.67 245,-29.12 245,-19.63"/>
<polygon fill="#9a32cd" stroke="#9a32cd" points="241.5,-57.23 245,-67.23 248.5,-57.23 241.5,-57.23"/>
<text text-anchor="middle" x="263.5" y="-41" font-family="Helvetica,sans-Serif" font-size="10.00"> guienv</text>
</g>
<!-- Node6 -->
<g id="node6" class="node">
<title>Node6</title>
<g id="a_node6"><a xlink:href="classirr_1_1IReferenceCounted.html" target="_top" xlink:title="Base class of most objects of the Irrlicht Engine.">
<polygon fill="white" stroke="black" points="182,-124.5 182,-143.5 308,-143.5 308,-124.5 182,-124.5"/>
<text text-anchor="middle" x="245" y="-131.5" font-family="Helvetica,sans-Serif" font-size="10.00">irr::IReferenceCounted</text>
</a>
</g>
</g>
<!-- Node6&#45;&gt;Node5 -->
<g id="edge5" class="edge">
<title>Node6&#45;&gt;Node5</title>
<path fill="none" stroke="midnightblue" d="M245,-114.12C245,-104.82 245,-94.06 245,-86.71"/>
<polygon fill="midnightblue" stroke="midnightblue" points="241.5,-114.41 245,-124.41 248.5,-114.41 241.5,-114.41"/>
</g>
<!-- Node7 -->
<g id="node7" class="node">
<title>Node7</title>
<g id="a_node7"><a xlink:title=" ">
<polygon fill="white" stroke="#bfbfbf" points="182,-191.5 182,-210.5 220,-210.5 220,-191.5 182,-191.5"/>
<text text-anchor="middle" x="201" y="-198.5" font-family="Helvetica,sans-Serif" font-size="10.00">char</text>
</a>
</g>
</g>
<!-- Node7&#45;&gt;Node6 -->
<g id="edge6" class="edge">
<title>Node7&#45;&gt;Node6</title>
<path fill="none" stroke="#9a32cd" stroke-dasharray="5,2" d="M195.32,-181.23C194.42,-174.77 194.69,-167.72 198,-162 202.81,-153.69 211.25,-147.72 219.66,-143.54"/>
<polygon fill="#9a32cd" stroke="#9a32cd" points="191.97,-182.26 197.62,-191.23 198.79,-180.7 191.97,-182.26"/>
<text text-anchor="middle" x="230" y="-165" font-family="Helvetica,sans-Serif" font-size="10.00"> DebugName</text>
</g>
<!-- Node8 -->
<g id="node8" class="node">
<title>Node8</title>
<g id="a_node8"><a xlink:title=" ">
<polygon fill="white" stroke="#bfbfbf" points="263,-191.5 263,-210.5 313,-210.5 313,-191.5 263,-191.5"/>
<text text-anchor="middle" x="288" y="-198.5" font-family="Helvetica,sans-Serif" font-size="10.00">int32_t</text>
</a>
</g>
</g>
<!-- Node8&#45;&gt;Node6 -->
<g id="edge7" class="edge">
<title>Node8&#45;&gt;Node6</title>
<path fill="none" stroke="#9a32cd" stroke-dasharray="5,2" d="M278.57,-182.57C274.85,-176 270.41,-168.54 266,-162 261.75,-155.7 256.5,-148.95 252.31,-143.77"/>
<polygon fill="#9a32cd" stroke="#9a32cd" points="275.52,-184.29 283.43,-191.35 281.65,-180.9 275.52,-184.29"/>
<text text-anchor="middle" x="317.5" y="-165" font-family="Helvetica,sans-Serif" font-size="10.00"> ReferenceCounter</text>
</g>
<!-- Node9 -->
<g id="node9" class="node">
<title>Node9</title>
<g id="a_node9"><a xlink:title=" ">
<polygon fill="white" stroke="#bfbfbf" points="331.5,-67.5 331.5,-86.5 366.5,-86.5 366.5,-67.5 331.5,-67.5"/>
<text text-anchor="middle" x="349" y="-74.5" font-family="Helvetica,sans-Serif" font-size="10.00">u64</text>
</a>
</g>
</g>
<!-- Node9&#45;&gt;Node1 -->
<g id="edge8" class="edge">
<title>Node9&#45;&gt;Node1</title>
<path fill="none" stroke="#9a32cd" stroke-dasharray="5,2" d="M326.23,-61.77C305.64,-48.9 276.01,-30.38 258.8,-19.63"/>
<polygon fill="#9a32cd" stroke="#9a32cd" points="324.64,-64.9 334.97,-67.23 328.35,-58.97 324.64,-64.9"/>
<text text-anchor="middle" x="338" y="-41" font-family="Helvetica,sans-Serif" font-size="10.00"> last_time_ms</text>
</g>
<!-- Node10 -->
<g id="node10" class="node">
<title>Node10</title>
<g id="a_node10"><a xlink:title=" ">
<polygon fill="white" stroke="#bfbfbf" points="399.5,-67.5 399.5,-86.5 452.5,-86.5 452.5,-67.5 399.5,-67.5"/>
<text text-anchor="middle" x="426" y="-74.5" font-family="Helvetica,sans-Serif" font-size="10.00">wstring</text>
</a>
</g>
</g>
<!-- Node10&#45;&gt;Node1 -->
<g id="edge9" class="edge">
<title>Node10&#45;&gt;Node1</title>
<path fill="none" stroke="#9a32cd" stroke-dasharray="5,2" d="M410.03,-60.56C401.01,-52.67 389.13,-43.57 377,-38 352.98,-26.96 324.45,-20.41 300.07,-16.53"/>
<polygon fill="#9a32cd" stroke="#9a32cd" points="407.7,-63.17 417.44,-67.34 412.43,-58.01 407.7,-63.17"/>
<text text-anchor="middle" x="420" y="-41" font-family="Helvetica,sans-Serif" font-size="10.00"> text_base</text>
</g>
</g>
</svg>
