<?xml version="1.0" encoding="UTF-8" standalone="no"?>
<!DOCTYPE svg PUBLIC "-//W3C//DTD SVG 1.1//EN"
 "http://www.w3.org/Graphics/SVG/1.1/DTD/svg11.dtd">
<!-- Generated by graphviz version 2.43.0 (0)
 -->
<!-- Title: irr::io::SZIPFileCentralDirFileHeader Pages: 1 -->
<svg width="274pt" height="216pt"
 viewBox="0.00 0.00 274.00 216.00" xmlns="http://www.w3.org/2000/svg" xmlns:xlink="http://www.w3.org/1999/xlink">
<g id="graph0" class="graph" transform="scale(1 1) rotate(0) translate(4 212)">
<title>irr::io::SZIPFileCentralDirFileHeader</title>
<polygon fill="white" stroke="transparent" points="-4,4 -4,-212 270,-212 270,4 -4,4"/>
<!-- Node1 -->
<g id="node1" class="node">
<title>Node1</title>
<g id="a_node1"><a xlink:title=" ">
<polygon fill="#bfbfbf" stroke="black" points="31,-0.5 31,-30.5 153,-30.5 153,-0.5 31,-0.5"/>
<text text-anchor="start" x="39" y="-18.5" font-family="Helvetica,sans-Serif" font-size="10.00">irr::io::SZIPFileCentral</text>
<text text-anchor="middle" x="92" y="-7.5" font-family="Helvetica,sans-Serif" font-size="10.00">DirFileHeader</text>
</a>
</g>
</g>
<!-- Node2 -->
<g id="node2" class="node">
<title>Node2</title>
<g id="a_node2"><a xlink:title=" ">
<polygon fill="white" stroke="#bfbfbf" points="0,-188.5 0,-207.5 56,-207.5 56,-188.5 0,-188.5"/>
<text text-anchor="middle" x="28" y="-195.5" font-family="Helvetica,sans-Serif" font-size="10.00">uint16_t</text>
</a>
</g>
</g>
<!-- Node2&#45;&gt;Node1 -->
<g id="edge1" class="edge">
<title>Node2&#45;&gt;Node1</title>
<path fill="none" stroke="#9a32cd" stroke-dasharray="5,2" d="M22.49,-178.67C14.72,-148.97 4.08,-89.58 29,-49 33.77,-41.24 41.04,-35.25 48.97,-30.66"/>
<polygon fill="#9a32cd" stroke="#9a32cd" points="19.18,-179.81 25.25,-188.49 25.92,-177.92 19.18,-179.81"/>
<text text-anchor="middle" x="82" y="-162" font-family="Helvetica,sans-Serif" font-size="10.00"> InternalFileAttributes</text>
<text text-anchor="middle" x="82" y="-151" font-family="Helvetica,sans-Serif" font-size="10.00">LastModFileTime</text>
<text text-anchor="middle" x="82" y="-140" font-family="Helvetica,sans-Serif" font-size="10.00">GeneralBitFlag</text>
<text text-anchor="middle" x="82" y="-129" font-family="Helvetica,sans-Serif" font-size="10.00">DiskNumberStart</text>
<text text-anchor="middle" x="82" y="-118" font-family="Helvetica,sans-Serif" font-size="10.00">FileCommentLength</text>
<text text-anchor="middle" x="82" y="-107" font-family="Helvetica,sans-Serif" font-size="10.00">ExtraFieldLength</text>
<text text-anchor="middle" x="82" y="-96" font-family="Helvetica,sans-Serif" font-size="10.00">VersionMadeBy</text>
<text text-anchor="middle" x="82" y="-85" font-family="Helvetica,sans-Serif" font-size="10.00">LastModFileDate</text>
<text text-anchor="middle" x="82" y="-74" font-family="Helvetica,sans-Serif" font-size="10.00">CompressionMethod</text>
<text text-anchor="middle" x="82" y="-63" font-family="Helvetica,sans-Serif" font-size="10.00">FilenameLength</text>
<text text-anchor="middle" x="82" y="-52" font-family="Helvetica,sans-Serif" font-size="10.00">...</text>
</g>
<!-- Node3 -->
<g id="node3" class="node">
<title>Node3</title>
<g id="a_node3"><a xlink:title=" ">
<polygon fill="white" stroke="#bfbfbf" points="129,-188.5 129,-207.5 185,-207.5 185,-188.5 129,-188.5"/>
<text text-anchor="middle" x="157" y="-195.5" font-family="Helvetica,sans-Serif" font-size="10.00">uint32_t</text>
</a>
</g>
</g>
<!-- Node3&#45;&gt;Node1 -->
<g id="edge2" class="edge">
<title>Node3&#45;&gt;Node1</title>
<path fill="none" stroke="#9a32cd" stroke-dasharray="5,2" d="M158.56,-178.04C160.08,-148.34 159.34,-90.02 135,-49 130.7,-41.76 124.11,-35.59 117.37,-30.64"/>
<polygon fill="#9a32cd" stroke="#9a32cd" points="155.05,-178.03 157.88,-188.24 162.03,-178.5 155.05,-178.03"/>
<text text-anchor="middle" x="212.5" y="-140" font-family="Helvetica,sans-Serif" font-size="10.00"> CRC32</text>
<text text-anchor="start" x="159" y="-129" font-family="Helvetica,sans-Serif" font-size="10.00">RelativeOffsetOfLocal</text>
<text text-anchor="middle" x="212.5" y="-118" font-family="Helvetica,sans-Serif" font-size="10.00">Header</text>
<text text-anchor="middle" x="212.5" y="-107" font-family="Helvetica,sans-Serif" font-size="10.00">CompressedSize</text>
<text text-anchor="middle" x="212.5" y="-96" font-family="Helvetica,sans-Serif" font-size="10.00">UncompressedSize</text>
<text text-anchor="middle" x="212.5" y="-85" font-family="Helvetica,sans-Serif" font-size="10.00">Sig</text>
<text text-anchor="middle" x="212.5" y="-74" font-family="Helvetica,sans-Serif" font-size="10.00">ExternalFileAttributes</text>
</g>
</g>
</svg>
