<?xml version="1.0" encoding="UTF-8" standalone="no"?>
<!DOCTYPE svg PUBLIC "-//W3C//DTD SVG 1.1//EN"
 "http://www.w3.org/Graphics/SVG/1.1/DTD/svg11.dtd">
<!-- Generated by graphviz version 2.43.0 (0)
 -->
<!-- Title: irr::gui::SGUITTGlyph::preload Pages: 1 -->
<svg width="650pt" height="514pt"
 viewBox="0.00 0.00 650.00 513.50" xmlns="http://www.w3.org/2000/svg" xmlns:xlink="http://www.w3.org/1999/xlink">
<g id="graph0" class="graph" transform="scale(1 1) rotate(0) translate(4 509.5)">
<title>irr::gui::SGUITTGlyph::preload</title>
<polygon fill="white" stroke="transparent" points="-4,4 -4,-509.5 646,-509.5 646,4 -4,4"/>
<!-- Node1 -->
<g id="node1" class="node">
<title>Node1</title>
<g id="a_node1"><a xlink:title=" ">
<polygon fill="#bfbfbf" stroke="black" points="0,-88.5 0,-118.5 119,-118.5 119,-88.5 0,-88.5"/>
<text text-anchor="start" x="8" y="-106.5" font-family="Helvetica,sans-Serif" font-size="10.00">irr::gui::SGUITTGlyph</text>
<text text-anchor="middle" x="59.5" y="-95.5" font-family="Helvetica,sans-Serif" font-size="10.00">::preload</text>
</a>
</g>
</g>
<!-- Node2 -->
<g id="node2" class="node">
<title>Node2</title>
<g id="a_node2"><a xlink:href="structirr_1_1gui_1_1SGUITTGlyph.html#a8eef5bec7bc7d098bd0d57b61943338d" target="_top" xlink:title="Creates the IImage object from the FT_Bitmap.">
<polygon fill="white" stroke="black" points="155,-313.5 155,-343.5 274,-343.5 274,-313.5 155,-313.5"/>
<text text-anchor="start" x="163" y="-331.5" font-family="Helvetica,sans-Serif" font-size="10.00">irr::gui::SGUITTGlyph</text>
<text text-anchor="middle" x="214.5" y="-320.5" font-family="Helvetica,sans-Serif" font-size="10.00">::createGlyphImage</text>
</a>
</g>
</g>
<!-- Node1&#45;&gt;Node2 -->
<g id="edge1" class="edge">
<title>Node1&#45;&gt;Node2</title>
<path fill="none" stroke="midnightblue" d="M70.78,-118.61C96.91,-157.04 166.04,-258.71 197.5,-304.97"/>
<polygon fill="midnightblue" stroke="midnightblue" points="194.75,-307.15 203.27,-313.45 200.54,-303.22 194.75,-307.15"/>
</g>
<!-- Node10 -->
<g id="node10" class="node">
<title>Node10</title>
<g id="a_node10"><a xlink:href="classirr_1_1gui_1_1CGUITTFont.html#a775457d5f5466301b19f24f8acd8e10e" target="_top" xlink:title=" ">
<polygon fill="white" stroke="black" points="158.5,-137.5 158.5,-167.5 270.5,-167.5 270.5,-137.5 158.5,-137.5"/>
<text text-anchor="start" x="166.5" y="-155.5" font-family="Helvetica,sans-Serif" font-size="10.00">irr::gui::CGUITTFont</text>
<text text-anchor="middle" x="214.5" y="-144.5" font-family="Helvetica,sans-Serif" font-size="10.00">::createGlyphPage</text>
</a>
</g>
</g>
<!-- Node1&#45;&gt;Node10 -->
<g id="edge9" class="edge">
<title>Node1&#45;&gt;Node10</title>
<path fill="none" stroke="midnightblue" d="M107.65,-118.6C123.14,-123.56 140.52,-129.13 156.65,-134.29"/>
<polygon fill="midnightblue" stroke="midnightblue" points="155.91,-137.73 166.5,-137.45 158.05,-131.07 155.91,-137.73"/>
</g>
<!-- Node16 -->
<g id="node16" class="node">
<title>Node16</title>
<g id="a_node16"><a xlink:href="classirr_1_1gui_1_1CGUITTFont.html#aa230d88d6a3eee601e99d5e754b33da8" target="_top" xlink:title=" ">
<polygon fill="white" stroke="black" points="158.5,-88.5 158.5,-118.5 270.5,-118.5 270.5,-88.5 158.5,-88.5"/>
<text text-anchor="start" x="166.5" y="-106.5" font-family="Helvetica,sans-Serif" font-size="10.00">irr::gui::CGUITTFont</text>
<text text-anchor="middle" x="214.5" y="-95.5" font-family="Helvetica,sans-Serif" font-size="10.00">::getLastGlyphPage</text>
</a>
</g>
</g>
<!-- Node1&#45;&gt;Node16 -->
<g id="edge15" class="edge">
<title>Node1&#45;&gt;Node16</title>
<path fill="none" stroke="midnightblue" d="M119.22,-103.5C128.62,-103.5 138.41,-103.5 147.96,-103.5"/>
<polygon fill="midnightblue" stroke="midnightblue" points="148.21,-107 158.21,-103.5 148.21,-100 148.21,-107"/>
</g>
<!-- Node17 -->
<g id="node17" class="node">
<title>Node17</title>
<g id="a_node17"><a xlink:href="classirr_1_1gui_1_1CGUITTFont.html#a9a4d6d97f3e9bf169a31c0a28fe71a5f" target="_top" xlink:title="Get the last glyph page&#39;s index.">
<polygon fill="white" stroke="black" points="321,-44.5 321,-74.5 458,-74.5 458,-44.5 321,-44.5"/>
<text text-anchor="start" x="329" y="-62.5" font-family="Helvetica,sans-Serif" font-size="10.00">irr::gui::CGUITTFont</text>
<text text-anchor="middle" x="389.5" y="-51.5" font-family="Helvetica,sans-Serif" font-size="10.00">::getLastGlyphPageIndex</text>
</a>
</g>
</g>
<!-- Node1&#45;&gt;Node17 -->
<g id="edge17" class="edge">
<title>Node1&#45;&gt;Node17</title>
<path fill="none" stroke="midnightblue" d="M113.65,-88.38C127.05,-85.02 141.48,-81.78 155,-79.5 206.57,-70.8 265.21,-65.8 310.83,-62.97"/>
<polygon fill="midnightblue" stroke="midnightblue" points="311.17,-66.46 320.95,-62.36 310.76,-59.47 311.17,-66.46"/>
</g>
<!-- Node18 -->
<g id="node18" class="node">
<title>Node18</title>
<g id="a_node18"><a xlink:href="classirr_1_1video_1_1ITexture.html#a570e1eec61d7c71be2d7c2d570c05d76" target="_top" xlink:title="Get original size of the texture.">
<polygon fill="white" stroke="black" points="162,-0.5 162,-30.5 267,-30.5 267,-0.5 162,-0.5"/>
<text text-anchor="start" x="170" y="-18.5" font-family="Helvetica,sans-Serif" font-size="10.00">irr::video::ITexture</text>
<text text-anchor="middle" x="214.5" y="-7.5" font-family="Helvetica,sans-Serif" font-size="10.00">::getOriginalSize</text>
</a>
</g>
</g>
<!-- Node1&#45;&gt;Node18 -->
<g id="edge18" class="edge">
<title>Node1&#45;&gt;Node18</title>
<path fill="none" stroke="midnightblue" d="M83.89,-88.45C102.84,-76.43 130.33,-59.37 155,-45.5 161.02,-42.12 167.45,-38.66 173.78,-35.35"/>
<polygon fill="midnightblue" stroke="midnightblue" points="175.63,-38.33 182.9,-30.63 172.41,-32.12 175.63,-38.33"/>
</g>
<!-- Node3 -->
<g id="node3" class="node">
<title>Node3</title>
<g id="a_node3"><a xlink:href="namespaceirr_1_1gui.html#a777d30f948cacafa5a03de0acdb8f0b6" target="_top" xlink:title=" ">
<polygon fill="white" stroke="black" points="310,-486 310,-505 469,-505 469,-486 310,-486"/>
<text text-anchor="middle" x="389.5" y="-493" font-family="Helvetica,sans-Serif" font-size="10.00">irr::gui::checkFontBitmapSize</text>
</a>
</g>
</g>
<!-- Node2&#45;&gt;Node3 -->
<g id="edge2" class="edge">
<title>Node2&#45;&gt;Node3</title>
<path fill="none" stroke="midnightblue" d="M220.8,-343.82C232.11,-374.17 261.62,-441.96 310,-476.5 312.74,-478.46 315.65,-480.21 318.69,-481.79"/>
<polygon fill="midnightblue" stroke="midnightblue" points="317.54,-485.11 328.09,-486 320.4,-478.72 317.54,-485.11"/>
</g>
<!-- Node4 -->
<g id="node4" class="node">
<title>Node4</title>
<g id="a_node4"><a xlink:href="classirr_1_1video_1_1IVideoDriver.html#aee1578fdd92118665755f31c0dd1dbb5" target="_top" xlink:title="Creates an empty software image.">
<polygon fill="white" stroke="black" points="326,-436.5 326,-466.5 453,-466.5 453,-436.5 326,-436.5"/>
<text text-anchor="start" x="334" y="-454.5" font-family="Helvetica,sans-Serif" font-size="10.00">irr::video::IVideoDriver</text>
<text text-anchor="middle" x="389.5" y="-443.5" font-family="Helvetica,sans-Serif" font-size="10.00">::createImage</text>
</a>
</g>
</g>
<!-- Node2&#45;&gt;Node4 -->
<g id="edge3" class="edge">
<title>Node2&#45;&gt;Node4</title>
<path fill="none" stroke="midnightblue" d="M225.92,-343.56C241.67,-365.22 273.6,-405.05 310,-427.5 312.79,-429.22 315.71,-430.83 318.72,-432.32"/>
<polygon fill="midnightblue" stroke="midnightblue" points="317.4,-435.57 327.96,-436.49 320.28,-429.19 317.4,-435.57"/>
</g>
<!-- Node5 -->
<g id="node5" class="node">
<title>Node5</title>
<g id="a_node5"><a xlink:href="classirr_1_1video_1_1IImage.html#a04973e101790130f611c4c6790e5b352" target="_top" xlink:title="fills the surface with given color">
<polygon fill="white" stroke="black" points="339.5,-387.5 339.5,-417.5 439.5,-417.5 439.5,-387.5 339.5,-387.5"/>
<text text-anchor="start" x="347.5" y="-405.5" font-family="Helvetica,sans-Serif" font-size="10.00">irr::video::IImage</text>
<text text-anchor="middle" x="389.5" y="-394.5" font-family="Helvetica,sans-Serif" font-size="10.00">::fill</text>
</a>
</g>
</g>
<!-- Node2&#45;&gt;Node5 -->
<g id="edge4" class="edge">
<title>Node2&#45;&gt;Node5</title>
<path fill="none" stroke="midnightblue" d="M240.93,-343.66C259.6,-354.36 285.81,-368.51 310,-378.5 316.28,-381.1 322.95,-383.56 329.64,-385.84"/>
<polygon fill="midnightblue" stroke="midnightblue" points="328.82,-389.26 339.42,-389.07 331.02,-382.61 328.82,-389.26"/>
</g>
<!-- Node6 -->
<g id="node6" class="node">
<title>Node6</title>
<g id="a_node6"><a xlink:href="classirr_1_1video_1_1IImage.html#a226cba5c336847caae221a19a0ba932d" target="_top" xlink:title="Use this to get a pointer to the image data.">
<polygon fill="white" stroke="black" points="339.5,-338.5 339.5,-368.5 439.5,-368.5 439.5,-338.5 339.5,-338.5"/>
<text text-anchor="start" x="347.5" y="-356.5" font-family="Helvetica,sans-Serif" font-size="10.00">irr::video::IImage</text>
<text text-anchor="middle" x="389.5" y="-345.5" font-family="Helvetica,sans-Serif" font-size="10.00">::getData</text>
</a>
</g>
</g>
<!-- Node2&#45;&gt;Node6 -->
<g id="edge5" class="edge">
<title>Node2&#45;&gt;Node6</title>
<path fill="none" stroke="midnightblue" d="M274.07,-336.96C291.93,-339.55 311.58,-342.38 329.47,-344.97"/>
<polygon fill="midnightblue" stroke="midnightblue" points="329.1,-348.45 339.5,-346.42 330.1,-341.52 329.1,-348.45"/>
</g>
<!-- Node7 -->
<g id="node7" class="node">
<title>Node7</title>
<g id="a_node7"><a xlink:href="classirr_1_1core_1_1dimension2d.html#a5861f95f79fe5a23a0f2d867b6ca70fc" target="_top" xlink:title="Get the optimal size according to some properties.">
<polygon fill="white" stroke="black" points="328,-289.5 328,-319.5 451,-319.5 451,-289.5 328,-289.5"/>
<text text-anchor="start" x="336" y="-307.5" font-family="Helvetica,sans-Serif" font-size="10.00">irr::core::dimension2d</text>
<text text-anchor="middle" x="389.5" y="-296.5" font-family="Helvetica,sans-Serif" font-size="10.00">::getOptimalSize</text>
</a>
</g>
</g>
<!-- Node2&#45;&gt;Node7 -->
<g id="edge6" class="edge">
<title>Node2&#45;&gt;Node7</title>
<path fill="none" stroke="midnightblue" d="M274.07,-320.37C288.17,-318.42 303.37,-316.31 317.95,-314.29"/>
<polygon fill="midnightblue" stroke="midnightblue" points="318.5,-317.74 327.92,-312.9 317.54,-310.81 318.5,-317.74"/>
</g>
<!-- Node8 -->
<g id="node8" class="node">
<title>Node8</title>
<g id="a_node8"><a xlink:href="classirr_1_1video_1_1IImage.html#adc7e2f7b2f592e8dbac545a8932d2645" target="_top" xlink:title="Returns pitch of image.">
<polygon fill="white" stroke="black" points="339.5,-240.5 339.5,-270.5 439.5,-270.5 439.5,-240.5 339.5,-240.5"/>
<text text-anchor="start" x="347.5" y="-258.5" font-family="Helvetica,sans-Serif" font-size="10.00">irr::video::IImage</text>
<text text-anchor="middle" x="389.5" y="-247.5" font-family="Helvetica,sans-Serif" font-size="10.00">::getPitch</text>
</a>
</g>
</g>
<!-- Node2&#45;&gt;Node8 -->
<g id="edge7" class="edge">
<title>Node2&#45;&gt;Node8</title>
<path fill="none" stroke="midnightblue" d="M242.25,-313.45C260.88,-303.33 286.5,-290.13 310,-280.5 316.31,-277.91 323,-275.42 329.7,-273.08"/>
<polygon fill="midnightblue" stroke="midnightblue" points="331.14,-276.29 339.49,-269.76 328.89,-269.66 331.14,-276.29"/>
</g>
<!-- Node9 -->
<g id="node9" class="node">
<title>Node9</title>
<g id="a_node9"><a xlink:href="classirr_1_1video_1_1IVideoDriver.html#adde468368b77441ada246e1603da4f47" target="_top" xlink:title="Queries the features of the driver.">
<polygon fill="white" stroke="black" points="326,-191.5 326,-221.5 453,-221.5 453,-191.5 326,-191.5"/>
<text text-anchor="start" x="334" y="-209.5" font-family="Helvetica,sans-Serif" font-size="10.00">irr::video::IVideoDriver</text>
<text text-anchor="middle" x="389.5" y="-198.5" font-family="Helvetica,sans-Serif" font-size="10.00">::queryFeature</text>
</a>
</g>
</g>
<!-- Node2&#45;&gt;Node9 -->
<g id="edge8" class="edge">
<title>Node2&#45;&gt;Node9</title>
<path fill="none" stroke="midnightblue" d="M226.29,-313.46C242.26,-292.23 274.2,-253.62 310,-231.5 313.39,-229.4 316.98,-227.47 320.68,-225.68"/>
<polygon fill="midnightblue" stroke="midnightblue" points="322.31,-228.79 330.04,-221.54 319.48,-222.38 322.31,-228.79"/>
</g>
<!-- Node11 -->
<g id="node11" class="node">
<title>Node11</title>
<g id="a_node11"><a xlink:href="classirr_1_1gui_1_1CGUITTGlyphPage.html#a5dbfa44c82c04958d2b810fb04d81012" target="_top" xlink:title="Create the actual page texture,.">
<polygon fill="white" stroke="black" points="318,-142.5 318,-172.5 461,-172.5 461,-142.5 318,-142.5"/>
<text text-anchor="start" x="326" y="-160.5" font-family="Helvetica,sans-Serif" font-size="10.00">irr::gui::CGUITTGlyphPage</text>
<text text-anchor="middle" x="389.5" y="-149.5" font-family="Helvetica,sans-Serif" font-size="10.00">::createPageTexture</text>
</a>
</g>
</g>
<!-- Node10&#45;&gt;Node11 -->
<g id="edge10" class="edge">
<title>Node10&#45;&gt;Node11</title>
<path fill="none" stroke="midnightblue" d="M270.71,-154.1C282.57,-154.44 295.34,-154.81 307.94,-155.17"/>
<polygon fill="midnightblue" stroke="midnightblue" points="307.89,-158.67 317.99,-155.46 308.09,-151.67 307.89,-158.67"/>
</g>
<!-- Node15 -->
<g id="node15" class="node">
<title>Node15</title>
<g id="a_node15"><a xlink:href="classirr_1_1video_1_1IVideoDriver.html#a9bc9632861757d167c035bb5ecfa6854" target="_top" xlink:title="Get the maximum texture size supported.">
<polygon fill="white" stroke="black" points="326,-93.5 326,-123.5 453,-123.5 453,-93.5 326,-93.5"/>
<text text-anchor="start" x="334" y="-111.5" font-family="Helvetica,sans-Serif" font-size="10.00">irr::video::IVideoDriver</text>
<text text-anchor="middle" x="389.5" y="-100.5" font-family="Helvetica,sans-Serif" font-size="10.00">::getMaxTextureSize</text>
</a>
</g>
</g>
<!-- Node10&#45;&gt;Node15 -->
<g id="edge14" class="edge">
<title>Node10&#45;&gt;Node15</title>
<path fill="none" stroke="midnightblue" d="M270.71,-138.46C286.19,-134.52 303.21,-130.19 319.39,-126.08"/>
<polygon fill="midnightblue" stroke="midnightblue" points="320.5,-129.41 329.33,-123.55 318.77,-122.62 320.5,-129.41"/>
</g>
<!-- Node12 -->
<g id="node12" class="node">
<title>Node12</title>
<g id="a_node12"><a xlink:href="classirr_1_1video_1_1IVideoDriver.html#a8c02ee280bb738cdf38b77e7a798244e" target="_top" xlink:title="Creates an empty texture of specified size.">
<polygon fill="white" stroke="black" points="510,-191.5 510,-221.5 637,-221.5 637,-191.5 510,-191.5"/>
<text text-anchor="start" x="518" y="-209.5" font-family="Helvetica,sans-Serif" font-size="10.00">irr::video::IVideoDriver</text>
<text text-anchor="middle" x="573.5" y="-198.5" font-family="Helvetica,sans-Serif" font-size="10.00">::addTexture</text>
</a>
</g>
</g>
<!-- Node11&#45;&gt;Node12 -->
<g id="edge11" class="edge">
<title>Node11&#45;&gt;Node12</title>
<path fill="none" stroke="midnightblue" d="M446.59,-172.6C465.62,-177.73 487.06,-183.5 506.77,-188.8"/>
<polygon fill="midnightblue" stroke="midnightblue" points="506.03,-192.23 516.59,-191.45 507.85,-185.47 506.03,-192.23"/>
</g>
<!-- Node13 -->
<g id="node13" class="node">
<title>Node13</title>
<g id="a_node13"><a xlink:href="classirr_1_1video_1_1IVideoDriver.html#ae64d474cbca38f64f2dbb8fcacb1a035" target="_top" xlink:title="Returns if a texture creation flag is enabled or disabled.">
<polygon fill="white" stroke="black" points="505,-142.5 505,-172.5 642,-172.5 642,-142.5 505,-142.5"/>
<text text-anchor="start" x="513" y="-160.5" font-family="Helvetica,sans-Serif" font-size="10.00">irr::video::IVideoDriver</text>
<text text-anchor="middle" x="573.5" y="-149.5" font-family="Helvetica,sans-Serif" font-size="10.00">::getTextureCreationFlag</text>
</a>
</g>
</g>
<!-- Node11&#45;&gt;Node13 -->
<g id="edge12" class="edge">
<title>Node11&#45;&gt;Node13</title>
<path fill="none" stroke="midnightblue" d="M461.13,-157.5C472.14,-157.5 483.58,-157.5 494.74,-157.5"/>
<polygon fill="midnightblue" stroke="midnightblue" points="494.9,-161 504.9,-157.5 494.9,-154 494.9,-161"/>
</g>
<!-- Node14 -->
<g id="node14" class="node">
<title>Node14</title>
<g id="a_node14"><a xlink:href="classirr_1_1video_1_1IVideoDriver.html#a868b58a6b86b9e4841ca3879ce246c4e" target="_top" xlink:title="Enables or disables a texture creation flag.">
<polygon fill="white" stroke="black" points="505.5,-93.5 505.5,-123.5 641.5,-123.5 641.5,-93.5 505.5,-93.5"/>
<text text-anchor="start" x="513.5" y="-111.5" font-family="Helvetica,sans-Serif" font-size="10.00">irr::video::IVideoDriver</text>
<text text-anchor="middle" x="573.5" y="-100.5" font-family="Helvetica,sans-Serif" font-size="10.00">::setTextureCreationFlag</text>
</a>
</g>
</g>
<!-- Node11&#45;&gt;Node14 -->
<g id="edge13" class="edge">
<title>Node11&#45;&gt;Node14</title>
<path fill="none" stroke="midnightblue" d="M446.59,-142.4C465.62,-137.27 487.06,-131.5 506.77,-126.2"/>
<polygon fill="midnightblue" stroke="midnightblue" points="507.85,-129.53 516.59,-123.55 506.03,-122.77 507.85,-129.53"/>
</g>
<!-- Node16&#45;&gt;Node17 -->
<g id="edge16" class="edge">
<title>Node16&#45;&gt;Node17</title>
<path fill="none" stroke="midnightblue" d="M270.71,-89.46C286.19,-85.52 303.21,-81.19 319.39,-77.08"/>
<polygon fill="midnightblue" stroke="midnightblue" points="320.5,-80.41 329.33,-74.55 318.77,-73.62 320.5,-80.41"/>
</g>
</g>
</svg>
