<?xml version="1.0" encoding="UTF-8" standalone="no"?>
<!DOCTYPE svg PUBLIC "-//W3C//DTD SVG 1.1//EN"
 "http://www.w3.org/Graphics/SVG/1.1/DTD/svg11.dtd">
<!-- Generated by graphviz version 2.43.0 (0)
 -->
<!-- Title: UpVal Pages: 1 -->
<svg width="278pt" height="108pt"
 viewBox="0.00 0.00 278.00 108.00" xmlns="http://www.w3.org/2000/svg" xmlns:xlink="http://www.w3.org/1999/xlink">
<g id="graph0" class="graph" transform="scale(1 1) rotate(0) translate(4 104)">
<title>UpVal</title>
<polygon fill="white" stroke="transparent" points="-4,4 -4,-104 274,-104 274,4 -4,4"/>
<!-- Node1 -->
<g id="node1" class="node">
<title>Node1</title>
<g id="a_node1"><a xlink:title=" ">
<polygon fill="#bfbfbf" stroke="black" points="107.5,-1.5 107.5,-20.5 152.5,-20.5 152.5,-1.5 107.5,-1.5"/>
<text text-anchor="middle" x="130" y="-8.5" font-family="Helvetica,sans-Serif" font-size="10.00">UpVal</text>
</a>
</g>
</g>
<!-- Node1&#45;&gt;Node1 -->
<g id="edge1" class="edge">
<title>Node1&#45;&gt;Node1</title>
<path fill="none" stroke="#9a32cd" stroke-dasharray="5,2" d="M163,-17.67C167.5,-16.55 170.5,-14.33 170.5,-11 170.5,-5.53 162.43,-3.05 152.9,-3.57"/>
<polygon fill="#9a32cd" stroke="#9a32cd" points="162.6,-14.19 152.9,-18.43 163.14,-21.17 162.6,-14.19"/>
<text text-anchor="middle" x="183" y="-14" font-family="Helvetica,sans-Serif" font-size="10.00"> prev</text>
<text text-anchor="middle" x="183" y="-3" font-family="Helvetica,sans-Serif" font-size="10.00">next</text>
</g>
<!-- Node2 -->
<g id="node2" class="node">
<title>Node2</title>
<g id="a_node2"><a xlink:href="structlua__TValue.html" target="_top" xlink:title=" ">
<polygon fill="white" stroke="black" points="0,-80.5 0,-99.5 70,-99.5 70,-80.5 0,-80.5"/>
<text text-anchor="middle" x="35" y="-87.5" font-family="Helvetica,sans-Serif" font-size="10.00">lua_TValue</text>
</a>
</g>
</g>
<!-- Node2&#45;&gt;Node1 -->
<g id="edge2" class="edge">
<title>Node2&#45;&gt;Node1</title>
<path fill="none" stroke="#9a32cd" stroke-dasharray="5,2" d="M53.45,-73.85C65.3,-64.14 81.03,-51.29 95,-40 103.11,-33.45 112.32,-26.08 119.25,-20.55"/>
<polygon fill="#9a32cd" stroke="#9a32cd" points="51.11,-71.25 45.6,-80.29 55.55,-76.66 51.11,-71.25"/>
<text text-anchor="middle" x="110.5" y="-54" font-family="Helvetica,sans-Serif" font-size="10.00"> value</text>
<text text-anchor="middle" x="110.5" y="-43" font-family="Helvetica,sans-Serif" font-size="10.00">v</text>
</g>
<!-- Node3 -->
<g id="node3" class="node">
<title>Node3</title>
<g id="a_node3"><a xlink:title=" ">
<polygon fill="white" stroke="#bfbfbf" points="88.5,-80.5 88.5,-99.5 171.5,-99.5 171.5,-80.5 88.5,-80.5"/>
<text text-anchor="middle" x="130" y="-87.5" font-family="Helvetica,sans-Serif" font-size="10.00">anonymous:u</text>
</a>
</g>
</g>
<!-- Node3&#45;&gt;Node1 -->
<g id="edge3" class="edge">
<title>Node3&#45;&gt;Node1</title>
<path fill="none" stroke="#9a32cd" stroke-dasharray="5,2" d="M130,-70.31C130,-54.59 130,-32.81 130,-20.81"/>
<polygon fill="#9a32cd" stroke="#9a32cd" points="126.5,-70.47 130,-80.47 133.5,-70.47 126.5,-70.47"/>
<text text-anchor="middle" x="135" y="-48.5" font-family="Helvetica,sans-Serif" font-size="10.00"> u</text>
</g>
<!-- Node4 -->
<g id="node4" class="node">
<title>Node4</title>
<g id="a_node4"><a xlink:title=" ">
<polygon fill="white" stroke="#bfbfbf" points="190,-80.5 190,-99.5 270,-99.5 270,-80.5 190,-80.5"/>
<text text-anchor="middle" x="230" y="-87.5" font-family="Helvetica,sans-Serif" font-size="10.00">anonymous:l</text>
</a>
</g>
</g>
<!-- Node4&#45;&gt;Node1 -->
<g id="edge4" class="edge">
<title>Node4&#45;&gt;Node1</title>
<path fill="none" stroke="#9a32cd" stroke-dasharray="5,2" d="M210.84,-74.25C190.18,-58.34 157.98,-33.55 141.13,-20.57"/>
<polygon fill="#9a32cd" stroke="#9a32cd" points="208.86,-77.14 218.92,-80.47 213.13,-71.59 208.86,-77.14"/>
<text text-anchor="middle" x="197.5" y="-48.5" font-family="Helvetica,sans-Serif" font-size="10.00"> l</text>
</g>
</g>
</svg>
