<?xml version="1.0" encoding="UTF-8" standalone="no"?>
<!DOCTYPE svg PUBLIC "-//W3C//DTD SVG 1.1//EN"
 "http://www.w3.org/Graphics/SVG/1.1/DTD/svg11.dtd">
<!-- Generated by graphviz version 2.43.0 (0)
 -->
<!-- Title: PackedInstr Pages: 1 -->
<svg width="557pt" height="117pt"
 viewBox="0.00 0.00 556.50 117.00" xmlns="http://www.w3.org/2000/svg" xmlns:xlink="http://www.w3.org/1999/xlink">
<g id="graph0" class="graph" transform="scale(1 1) rotate(0) translate(4 113)">
<title>PackedInstr</title>
<polygon fill="white" stroke="transparent" points="-4,4 -4,-113 552.5,-113 552.5,4 -4,4"/>
<!-- Node1 -->
<g id="node1" class="node">
<title>Node1</title>
<g id="a_node1"><a xlink:title=" ">
<polygon fill="#bfbfbf" stroke="black" points="227.5,-0.5 227.5,-19.5 299.5,-19.5 299.5,-0.5 227.5,-0.5"/>
<text text-anchor="middle" x="263.5" y="-7.5" font-family="Helvetica,sans-Serif" font-size="10.00">PackedInstr</text>
</a>
</g>
</g>
<!-- Node2 -->
<g id="node2" class="node">
<title>Node2</title>
<g id="a_node2"><a xlink:title=" ">
<polygon fill="white" stroke="#bfbfbf" points="0,-89.5 0,-108.5 85,-108.5 85,-89.5 0,-89.5"/>
<text text-anchor="middle" x="42.5" y="-96.5" font-family="Helvetica,sans-Serif" font-size="10.00">LUA_NUMBER</text>
</a>
</g>
</g>
<!-- Node2&#45;&gt;Node1 -->
<g id="edge1" class="edge">
<title>Node2&#45;&gt;Node1</title>
<path fill="none" stroke="#9a32cd" stroke-dasharray="5,2" d="M51.79,-80.28C60.03,-66.42 73.41,-47.91 90.5,-38 113.12,-24.89 183.44,-17.21 227.15,-13.58"/>
<polygon fill="#9a32cd" stroke="#9a32cd" points="48.54,-78.92 46.72,-89.35 54.65,-82.33 48.54,-78.92"/>
<text text-anchor="middle" x="106" y="-52" font-family="Helvetica,sans-Serif" font-size="10.00"> ndata</text>
</g>
<!-- Node3 -->
<g id="node3" class="node">
<title>Node3</title>
<g id="a_node3"><a xlink:title=" ">
<polygon fill="white" stroke="#bfbfbf" points="103.5,-89.5 103.5,-108.5 137.5,-108.5 137.5,-89.5 103.5,-89.5"/>
<text text-anchor="middle" x="120.5" y="-96.5" font-family="Helvetica,sans-Serif" font-size="10.00">s16</text>
</a>
</g>
</g>
<!-- Node3&#45;&gt;Node1 -->
<g id="edge2" class="edge">
<title>Node3&#45;&gt;Node1</title>
<path fill="none" stroke="#9a32cd" stroke-dasharray="5,2" d="M122.64,-79.13C125.16,-65.75 130.63,-48.4 142.5,-38 155.01,-27.04 196.49,-19.48 227.42,-15.2"/>
<polygon fill="#9a32cd" stroke="#9a32cd" points="119.16,-78.79 121.14,-89.19 126.08,-79.82 119.16,-78.79"/>
<text text-anchor="middle" x="155" y="-52" font-family="Helvetica,sans-Serif" font-size="10.00"> type</text>
</g>
<!-- Node4 -->
<g id="node4" class="node">
<title>Node4</title>
<g id="a_node4"><a xlink:title=" ">
<polygon fill="white" stroke="#bfbfbf" points="156,-89.5 156,-108.5 191,-108.5 191,-89.5 156,-89.5"/>
<text text-anchor="middle" x="173.5" y="-96.5" font-family="Helvetica,sans-Serif" font-size="10.00">u16</text>
</a>
</g>
</g>
<!-- Node4&#45;&gt;Node1 -->
<g id="edge3" class="edge">
<title>Node4&#45;&gt;Node1</title>
<path fill="none" stroke="#9a32cd" stroke-dasharray="5,2" d="M171.89,-78.92C171.85,-65.96 173.97,-49.2 183.5,-38 194.43,-25.16 211.68,-18.41 227.37,-14.87"/>
<polygon fill="#9a32cd" stroke="#9a32cd" points="168.41,-79.27 172.36,-89.1 175.4,-78.95 168.41,-79.27"/>
<text text-anchor="middle" x="205" y="-63" font-family="Helvetica,sans-Serif" font-size="10.00"> set_into</text>
<text text-anchor="middle" x="205" y="-52" font-family="Helvetica,sans-Serif" font-size="10.00">uidata1</text>
<text text-anchor="middle" x="205" y="-41" font-family="Helvetica,sans-Serif" font-size="10.00">uidata2</text>
</g>
<!-- Node5 -->
<g id="node5" class="node">
<title>Node5</title>
<g id="a_node5"><a xlink:title=" ">
<polygon fill="white" stroke="#bfbfbf" points="210.5,-89.5 210.5,-108.5 254.5,-108.5 254.5,-89.5 210.5,-89.5"/>
<text text-anchor="middle" x="232.5" y="-96.5" font-family="Helvetica,sans-Serif" font-size="10.00">string</text>
</a>
</g>
</g>
<!-- Node5&#45;&gt;Node1 -->
<g id="edge4" class="edge">
<title>Node5&#45;&gt;Node1</title>
<path fill="none" stroke="#9a32cd" stroke-dasharray="5,2" d="M230.9,-79.05C230.61,-66.81 231.69,-50.85 237.5,-38 240.77,-30.77 246.83,-24.3 252.28,-19.5"/>
<polygon fill="#9a32cd" stroke="#9a32cd" points="227.42,-79.62 231.47,-89.41 234.41,-79.23 227.42,-79.62"/>
<text text-anchor="middle" x="253" y="-52" font-family="Helvetica,sans-Serif" font-size="10.00"> sdata</text>
</g>
<!-- Node6 -->
<g id="node6" class="node">
<title>Node6</title>
<g id="a_node6"><a xlink:href="classbool.html" target="_top" xlink:title=" ">
<polygon fill="white" stroke="black" points="272.5,-89.5 272.5,-108.5 310.5,-108.5 310.5,-89.5 272.5,-89.5"/>
<text text-anchor="middle" x="291.5" y="-96.5" font-family="Helvetica,sans-Serif" font-size="10.00">bool</text>
</a>
</g>
</g>
<!-- Node6&#45;&gt;Node1 -->
<g id="edge5" class="edge">
<title>Node6&#45;&gt;Node1</title>
<path fill="none" stroke="#9a32cd" stroke-dasharray="5,2" d="M285.62,-79.71C279.67,-61.25 270.75,-33.54 266.28,-19.62"/>
<polygon fill="#9a32cd" stroke="#9a32cd" points="282.32,-80.89 288.71,-89.34 288.98,-78.75 282.32,-80.89"/>
<text text-anchor="middle" x="303" y="-63" font-family="Helvetica,sans-Serif" font-size="10.00"> bdata</text>
<text text-anchor="middle" x="303" y="-52" font-family="Helvetica,sans-Serif" font-size="10.00">keep_ref</text>
<text text-anchor="middle" x="303" y="-41" font-family="Helvetica,sans-Serif" font-size="10.00">pop</text>
</g>
<!-- Node7 -->
<g id="node7" class="node">
<title>Node7</title>
<g id="a_node7"><a xlink:title=" ">
<polygon fill="white" stroke="#bfbfbf" points="334.5,-89.5 334.5,-108.5 368.5,-108.5 368.5,-89.5 334.5,-89.5"/>
<text text-anchor="middle" x="351.5" y="-96.5" font-family="Helvetica,sans-Serif" font-size="10.00">s32</text>
</a>
</g>
</g>
<!-- Node7&#45;&gt;Node1 -->
<g id="edge6" class="edge">
<title>Node7&#45;&gt;Node1</title>
<path fill="none" stroke="#9a32cd" stroke-dasharray="5,2" d="M348.27,-78.88C345.18,-65.9 339.33,-49.13 328.5,-38 320.32,-29.59 309.14,-23.69 298.35,-19.6"/>
<polygon fill="#9a32cd" stroke="#9a32cd" points="344.92,-79.97 350.32,-89.08 351.78,-78.59 344.92,-79.97"/>
<text text-anchor="middle" x="365.5" y="-63" font-family="Helvetica,sans-Serif" font-size="10.00"> sidata1</text>
<text text-anchor="middle" x="365.5" y="-52" font-family="Helvetica,sans-Serif" font-size="10.00">sidata2</text>
<text text-anchor="middle" x="365.5" y="-41" font-family="Helvetica,sans-Serif" font-size="10.00">ref</text>
</g>
<!-- Node8 -->
<g id="node8" class="node">
<title>Node8</title>
<g id="a_node8"><a xlink:title=" ">
<polygon fill="white" stroke="#bfbfbf" points="386.5,-89.5 386.5,-108.5 484.5,-108.5 484.5,-89.5 386.5,-89.5"/>
<text text-anchor="middle" x="435.5" y="-96.5" font-family="Helvetica,sans-Serif" font-size="10.00">anonymous:@45</text>
</a>
</g>
</g>
<!-- Node8&#45;&gt;Node1 -->
<g id="edge7" class="edge">
<title>Node8&#45;&gt;Node1</title>
<path fill="none" stroke="#9a32cd" stroke-dasharray="5,2" d="M426.62,-80.54C418.74,-66.83 405.93,-48.39 389.5,-38 362.46,-20.9 326.31,-14.48 299.67,-12.14"/>
<polygon fill="#9a32cd" stroke="#9a32cd" points="423.64,-82.37 431.47,-89.49 429.79,-79.03 423.64,-82.37"/>
<text text-anchor="middle" x="432" y="-52" font-family="Helvetica,sans-Serif" font-size="10.00"> @45</text>
</g>
<!-- Node9 -->
<g id="node9" class="node">
<title>Node9</title>
<g id="a_node9"><a xlink:title=" ">
<polygon fill="white" stroke="#bfbfbf" points="502.5,-89.5 502.5,-108.5 548.5,-108.5 548.5,-89.5 502.5,-89.5"/>
<text text-anchor="middle" x="525.5" y="-96.5" font-family="Helvetica,sans-Serif" font-size="10.00">void *</text>
</a>
</g>
</g>
<!-- Node9&#45;&gt;Node1 -->
<g id="edge8" class="edge">
<title>Node9&#45;&gt;Node1</title>
<path fill="none" stroke="#9a32cd" stroke-dasharray="5,2" d="M510.35,-82.23C495.87,-68.2 472.7,-48.33 448.5,-38 399.84,-17.23 338.14,-11.96 299.74,-10.88"/>
<polygon fill="#9a32cd" stroke="#9a32cd" points="507.91,-84.74 517.46,-89.34 512.86,-79.79 507.91,-84.74"/>
<text text-anchor="middle" x="516" y="-52" font-family="Helvetica,sans-Serif" font-size="10.00"> ptrdata</text>
</g>
</g>
</svg>
