<?xml version="1.0" encoding="UTF-8" standalone="no"?>
<!DOCTYPE svg PUBLIC "-//W3C//DTD SVG 1.1//EN"
 "http://www.w3.org/Graphics/SVG/1.1/DTD/svg11.dtd">
<!-- Generated by graphviz version 2.43.0 (0)
 -->
<!-- Title: irr::video::OpenGLVersion Pages: 1 -->
<svg width="158pt" height="117pt"
 viewBox="0.00 0.00 158.00 117.00" xmlns="http://www.w3.org/2000/svg" xmlns:xlink="http://www.w3.org/1999/xlink">
<g id="graph0" class="graph" transform="scale(1 1) rotate(0) translate(4 113)">
<title>irr::video::OpenGLVersion</title>
<polygon fill="white" stroke="transparent" points="-4,4 -4,-113 154,-113 154,4 -4,4"/>
<!-- Node1 -->
<g id="node1" class="node">
<title>Node1</title>
<g id="a_node1"><a xlink:title=" ">
<polygon fill="#bfbfbf" stroke="black" points="0,-0.5 0,-19.5 140,-19.5 140,-0.5 0,-0.5"/>
<text text-anchor="middle" x="70" y="-7.5" font-family="Helvetica,sans-Serif" font-size="10.00">irr::video::OpenGLVersion</text>
</a>
</g>
</g>
<!-- Node2 -->
<g id="node2" class="node">
<title>Node2</title>
<g id="a_node2"><a xlink:title=" ">
<polygon fill="white" stroke="#bfbfbf" points="4,-89.5 4,-108.5 54,-108.5 54,-89.5 4,-89.5"/>
<text text-anchor="middle" x="29" y="-96.5" font-family="Helvetica,sans-Serif" font-size="10.00">uint8_t</text>
</a>
</g>
</g>
<!-- Node2&#45;&gt;Node1 -->
<g id="edge1" class="edge">
<title>Node2&#45;&gt;Node1</title>
<path fill="none" stroke="#9a32cd" stroke-dasharray="5,2" d="M33.4,-79.56C36.73,-67.34 41.94,-51.19 49,-38 52.47,-31.51 57.51,-24.97 61.78,-19.95"/>
<polygon fill="#9a32cd" stroke="#9a32cd" points="29.95,-78.93 30.87,-89.48 36.73,-80.66 29.95,-78.93"/>
<text text-anchor="middle" x="69" y="-63" font-family="Helvetica,sans-Serif" font-size="10.00"> Minor</text>
<text text-anchor="middle" x="69" y="-52" font-family="Helvetica,sans-Serif" font-size="10.00">Major</text>
<text text-anchor="middle" x="69" y="-41" font-family="Helvetica,sans-Serif" font-size="10.00">Release</text>
</g>
<!-- Node3 -->
<g id="node3" class="node">
<title>Node3</title>
<g id="a_node3"><a xlink:title=" ">
<polygon fill="white" stroke="#bfbfbf" points="72,-89.5 72,-108.5 150,-108.5 150,-89.5 72,-89.5"/>
<text text-anchor="middle" x="111" y="-96.5" font-family="Helvetica,sans-Serif" font-size="10.00">OpenGLSpec</text>
</a>
</g>
</g>
<!-- Node3&#45;&gt;Node1 -->
<g id="edge2" class="edge">
<title>Node3&#45;&gt;Node1</title>
<path fill="none" stroke="#9a32cd" stroke-dasharray="5,2" d="M105.54,-79.28C101.66,-67.17 95.93,-51.24 89,-38 85.6,-31.5 80.85,-24.75 76.95,-19.63"/>
<polygon fill="#9a32cd" stroke="#9a32cd" points="102.28,-80.61 108.55,-89.15 108.98,-78.57 102.28,-80.61"/>
<text text-anchor="middle" x="115.5" y="-52" font-family="Helvetica,sans-Serif" font-size="10.00"> Spec</text>
</g>
</g>
</svg>
