<?xml version="1.0" encoding="UTF-8" standalone="no"?>
<!DOCTYPE svg PUBLIC "-//W3C//DTD SVG 1.1//EN"
 "http://www.w3.org/Graphics/SVG/1.1/DTD/svg11.dtd">
<!-- Generated by graphviz version 2.43.0 (0)
 -->
<!-- Title: Catch::Matchers::StdString::RegexMatcher Pages: 1 -->
<svg width="938pt" height="114pt"
 viewBox="0.00 0.00 938.00 113.50" xmlns="http://www.w3.org/2000/svg" xmlns:xlink="http://www.w3.org/1999/xlink">
<g id="graph0" class="graph" transform="scale(1 1) rotate(0) translate(4 109.5)">
<title>Catch::Matchers::StdString::RegexMatcher</title>
<polygon fill="white" stroke="transparent" points="-4,4 -4,-109.5 934,-109.5 934,4 -4,4"/>
<!-- Node1 -->
<g id="node1" class="node">
<title>Node1</title>
<g id="a_node1"><a xlink:title=" ">
<polygon fill="#bfbfbf" stroke="black" points="784,-49.5 784,-79.5 930,-79.5 930,-49.5 784,-49.5"/>
<text text-anchor="start" x="792" y="-67.5" font-family="Helvetica,sans-Serif" font-size="10.00">Catch::Matchers::StdString</text>
<text text-anchor="middle" x="857" y="-56.5" font-family="Helvetica,sans-Serif" font-size="10.00">::RegexMatcher</text>
</a>
</g>
</g>
<!-- Node2 -->
<g id="node2" class="node">
<title>Node2</title>
<g id="a_node2"><a xlink:href="structCatch_1_1Matchers_1_1Impl_1_1MatcherBase.html" target="_top" xlink:title=" ">
<polygon fill="white" stroke="black" points="497,-49.5 497,-79.5 655,-79.5 655,-49.5 497,-49.5"/>
<text text-anchor="start" x="505" y="-67.5" font-family="Helvetica,sans-Serif" font-size="10.00">Catch::Matchers::Impl</text>
<text text-anchor="middle" x="576" y="-56.5" font-family="Helvetica,sans-Serif" font-size="10.00">::MatcherBase&lt; std::string &gt;</text>
</a>
</g>
</g>
<!-- Node2&#45;&gt;Node1 -->
<g id="edge1" class="edge">
<title>Node2&#45;&gt;Node1</title>
<path fill="none" stroke="midnightblue" d="M665.17,-64.5C703.34,-64.5 747.47,-64.5 783.67,-64.5"/>
<polygon fill="midnightblue" stroke="midnightblue" points="665.09,-61 655.09,-64.5 665.09,-68 665.09,-61"/>
</g>
<!-- Node3 -->
<g id="node3" class="node">
<title>Node3</title>
<g id="a_node3"><a xlink:href="classCatch_1_1Matchers_1_1Impl_1_1MatcherUntypedBase.html" target="_top" xlink:title=" ">
<polygon fill="white" stroke="black" points="287,-49.5 287,-79.5 415,-79.5 415,-49.5 287,-49.5"/>
<text text-anchor="start" x="295" y="-67.5" font-family="Helvetica,sans-Serif" font-size="10.00">Catch::Matchers::Impl</text>
<text text-anchor="middle" x="351" y="-56.5" font-family="Helvetica,sans-Serif" font-size="10.00">::MatcherUntypedBase</text>
</a>
</g>
</g>
<!-- Node3&#45;&gt;Node2 -->
<g id="edge2" class="edge">
<title>Node3&#45;&gt;Node2</title>
<path fill="none" stroke="midnightblue" d="M425.01,-64.5C447.95,-64.5 473.36,-64.5 496.65,-64.5"/>
<polygon fill="midnightblue" stroke="midnightblue" points="425.01,-61 415.01,-64.5 425.01,-68 425.01,-61"/>
</g>
<!-- Node4 -->
<g id="node4" class="node">
<title>Node4</title>
<g id="a_node4"><a xlink:title=" ">
<polygon fill="white" stroke="#bfbfbf" points="57.5,-86 57.5,-105 101.5,-105 101.5,-86 57.5,-86"/>
<text text-anchor="middle" x="79.5" y="-93" font-family="Helvetica,sans-Serif" font-size="10.00">string</text>
</a>
</g>
</g>
<!-- Node4&#45;&gt;Node1 -->
<g id="edge7" class="edge">
<title>Node4&#45;&gt;Node1</title>
<path fill="none" stroke="#9a32cd" stroke-dasharray="5,2" d="M111.96,-95.41C149.39,-95.28 213.75,-95 269,-94.5 440.56,-92.93 483.7,-99.08 655,-89.5 704.5,-86.73 716.82,-84.76 766,-78.5 771.8,-77.76 777.81,-76.94 783.84,-76.09"/>
<polygon fill="#9a32cd" stroke="#9a32cd" points="111.69,-91.91 101.7,-95.44 111.71,-98.91 111.69,-91.91"/>
<text text-anchor="middle" x="456" y="-97.5" font-family="Helvetica,sans-Serif" font-size="10.00"> m_regex</text>
</g>
<!-- Node4&#45;&gt;Node3 -->
<g id="edge3" class="edge">
<title>Node4&#45;&gt;Node3</title>
<path fill="none" stroke="#9a32cd" stroke-dasharray="5,2" d="M111.7,-91.51C130.59,-89.12 155.17,-86.06 177,-83.5 213.31,-79.25 253.95,-74.77 286.71,-71.23"/>
<polygon fill="#9a32cd" stroke="#9a32cd" points="111.05,-88.06 101.57,-92.79 111.93,-95 111.05,-88.06"/>
<text text-anchor="middle" x="223" y="-86.5" font-family="Helvetica,sans-Serif" font-size="10.00"> m_cachedToString</text>
</g>
<!-- Node5 -->
<g id="node5" class="node">
<title>Node5</title>
<g id="a_node5"><a xlink:href="structCatch_1_1Matchers_1_1Impl_1_1MatcherMethod.html" target="_top" xlink:title=" ">
<polygon fill="white" stroke="black" points="287,-0.5 287,-30.5 415,-30.5 415,-0.5 287,-0.5"/>
<text text-anchor="start" x="295" y="-18.5" font-family="Helvetica,sans-Serif" font-size="10.00">Catch::Matchers::Impl</text>
<text text-anchor="middle" x="351" y="-7.5" font-family="Helvetica,sans-Serif" font-size="10.00">::MatcherMethod&lt; T &gt;</text>
</a>
</g>
</g>
<!-- Node5&#45;&gt;Node2 -->
<g id="edge4" class="edge">
<title>Node5&#45;&gt;Node2</title>
<path fill="none" stroke="midnightblue" d="M424.91,-31.52C451.22,-37.3 480.79,-43.8 506.68,-49.49"/>
<polygon fill="midnightblue" stroke="midnightblue" points="425.53,-28.07 415.01,-29.34 424.02,-34.91 425.53,-28.07"/>
</g>
<!-- Node6 -->
<g id="node6" class="node">
<title>Node6</title>
<g id="a_node6"><a xlink:href="structCatch_1_1Matchers_1_1Impl_1_1MatcherMethod.html" target="_top" xlink:title=" ">
<polygon fill="white" stroke="black" points="0,-0.5 0,-30.5 159,-30.5 159,-0.5 0,-0.5"/>
<text text-anchor="start" x="8" y="-18.5" font-family="Helvetica,sans-Serif" font-size="10.00">Catch::Matchers::Impl</text>
<text text-anchor="middle" x="79.5" y="-7.5" font-family="Helvetica,sans-Serif" font-size="10.00">::MatcherMethod&lt; ObjectT &gt;</text>
</a>
</g>
</g>
<!-- Node6&#45;&gt;Node5 -->
<g id="edge5" class="edge">
<title>Node6&#45;&gt;Node5</title>
<path fill="none" stroke="orange" stroke-dasharray="5,2" d="M169.31,-15.5C207.66,-15.5 251.65,-15.5 286.62,-15.5"/>
<polygon fill="orange" stroke="orange" points="169.18,-12 159.18,-15.5 169.17,-19 169.18,-12"/>
<text text-anchor="middle" x="223" y="-18.5" font-family="Helvetica,sans-Serif" font-size="10.00"> &lt; T &gt;</text>
</g>
<!-- Node7 -->
<g id="node7" class="node">
<title>Node7</title>
<g id="a_node7"><a xlink:title=" ">
<polygon fill="white" stroke="#bfbfbf" points="551,-11 551,-30 601,-30 601,-11 551,-11"/>
<text text-anchor="middle" x="576" y="-18" font-family="Helvetica,sans-Serif" font-size="10.00">Choice</text>
</a>
</g>
</g>
<!-- Node7&#45;&gt;Node1 -->
<g id="edge6" class="edge">
<title>Node7&#45;&gt;Node1</title>
<path fill="none" stroke="#9a32cd" stroke-dasharray="5,2" d="M611.17,-25.61C649.04,-31.3 711.92,-40.84 766,-49.5 771.79,-50.43 777.78,-51.4 783.8,-52.38"/>
<polygon fill="#9a32cd" stroke="#9a32cd" points="611.59,-22.13 601.18,-24.11 610.55,-29.05 611.59,-22.13"/>
<text text-anchor="middle" x="719.5" y="-52.5" font-family="Helvetica,sans-Serif" font-size="10.00"> m_caseSensitivity</text>
</g>
</g>
</svg>
