<?xml version="1.0" encoding="UTF-8" standalone="no"?>
<!DOCTYPE svg PUBLIC "-//W3C//DTD SVG 1.1//EN"
 "http://www.w3.org/Graphics/SVG/1.1/DTD/svg11.dtd">
<!-- Generated by graphviz version 2.43.0 (0)
 -->
<!-- Title: image_definition Pages: 1 -->
<!--zoomable 431 -->
<svg id="main" version="1.1" xmlns="http://www.w3.org/2000/svg" xmlns:xlink="http://www.w3.org/1999/xlink" xml:space="preserve" onload="init(evt)">
<style type="text/css"><![CDATA[
.edge:hover path { stroke: red; }
.edge:hover polygon { stroke: red; fill: red; }
]]></style>
<script type="text/javascript"><![CDATA[
var edges = document.getElementsByTagName('g');
if (edges && edges.length) {
  for (var i=0;i<edges.length;i++) {
    if (edges[i].id.substr(0,4)=='edge') {
      edges[i].setAttribute('class','edge');
    }
  }
}
]]></script>
        <defs>
                <circle id="rim" cx="0" cy="0" r="7"/>
                <circle id="rim2" cx="0" cy="0" r="3.5"/>
                <g id="zoomPlus">
                        <use xlink:href="#rim" fill="#404040">
                                <set attributeName="fill" to="#808080" begin="zoomplus.mouseover" end="zoomplus.mouseout"/>
                        </use>
                        <path d="M-4,0h8M0,-4v8" fill="none" stroke="white" stroke-width="1.5" pointer-events="none"/>
                </g>
                <g id="zoomMin">
                        <use xlink:href="#rim" fill="#404040">
                                <set attributeName="fill" to="#808080" begin="zoomminus.mouseover" end="zoomminus.mouseout"/>
                        </use>
                        <path d="M-4,0h8" fill="none" stroke="white" stroke-width="1.5" pointer-events="none"/>
                </g>
                <g id="dirArrow">
                        <path fill="none" stroke="white" stroke-width="1.5" d="M0,-3.0v7 M-2.5,-0.5L0,-3.0L2.5,-0.5"/>
                </g>
               <g id="resetDef">
                       <use xlink:href="#rim2" fill="#404040">
                               <set attributeName="fill" to="#808080" begin="reset.mouseover" end="reset.mouseout"/>
                       </use>
               </g>
        </defs>

<script type="text/javascript">
var viewWidth = 1252;
var viewHeight = 431;
var sectionId = 'dynsection-0';
</script>
<script xlink:href="svgpan.js"/>
<svg id="graph" class="graph">
<g id="viewport">
<title>image_definition</title>
<polygon fill="white" stroke="transparent" points="-4,4 -4,-427 1248,-427 1248,4 -4,4"/>
<!-- Node1 -->
<g id="node1" class="node">
<title>Node1</title>
<g id="a_node1"><a xlink:title=" ">
<polygon fill="#bfbfbf" stroke="black" points="1146,-46.5 1146,-65.5 1244,-65.5 1244,-46.5 1146,-46.5"/>
<text text-anchor="middle" x="1195" y="-53.5" font-family="Helvetica,sans-Serif" font-size="10.00">image_definition</text>
</a>
</g>
</g>
<!-- Node2 -->
<g id="node2" class="node">
<title>Node2</title>
<g id="a_node2"><a xlink:href="classirr_1_1video_1_1ITexture.html" target="_top" xlink:title="Interface of a Video Driver dependent Texture.">
<polygon fill="white" stroke="black" points="963,-214.5 963,-233.5 1068,-233.5 1068,-214.5 963,-214.5"/>
<text text-anchor="middle" x="1015.5" y="-221.5" font-family="Helvetica,sans-Serif" font-size="10.00">irr::video::ITexture</text>
</a>
</g>
</g>
<!-- Node2&#45;&gt;Node1 -->
<g id="edge1" class="edge">
<title>Node2&#45;&gt;Node1</title>
<path fill="none" stroke="#9a32cd" stroke-dasharray="5,2" d="M1034.01,-207.43C1070.62,-172.78 1154.29,-93.58 1183.62,-65.83"/>
<polygon fill="#9a32cd" stroke="#9a32cd" points="1031.41,-205.07 1026.55,-214.49 1036.22,-210.15 1031.41,-205.07"/>
<text text-anchor="middle" x="1107" y="-159" font-family="Helvetica,sans-Serif" font-size="10.00"> texture</text>
</g>
<!-- Node3 -->
<g id="node3" class="node">
<title>Node3</title>
<g id="a_node3"><a xlink:href="classirr_1_1IReferenceCounted.html" target="_top" xlink:title="Base class of most objects of the Irrlicht Engine.">
<polygon fill="white" stroke="black" points="702,-365.5 702,-384.5 828,-384.5 828,-365.5 702,-365.5"/>
<text text-anchor="middle" x="765" y="-372.5" font-family="Helvetica,sans-Serif" font-size="10.00">irr::IReferenceCounted</text>
</a>
</g>
</g>
<!-- Node3&#45;&gt;Node2 -->
<g id="edge2" class="edge">
<title>Node3&#45;&gt;Node2</title>
<path fill="none" stroke="midnightblue" d="M838.29,-379.38C873.24,-378.09 914.18,-371.21 945,-350 987.19,-320.97 1006.38,-257.63 1012.35,-233.55"/>
<polygon fill="midnightblue" stroke="midnightblue" points="838.05,-375.88 828.13,-379.61 838.21,-382.88 838.05,-375.88"/>
</g>
<!-- Node4 -->
<g id="node4" class="node">
<title>Node4</title>
<g id="a_node4"><a xlink:title=" ">
<polygon fill="white" stroke="#bfbfbf" points="480,-399.5 480,-418.5 518,-418.5 518,-399.5 480,-399.5"/>
<text text-anchor="middle" x="499" y="-406.5" font-family="Helvetica,sans-Serif" font-size="10.00">char</text>
</a>
</g>
</g>
<!-- Node4&#45;&gt;Node3 -->
<g id="edge3" class="edge">
<title>Node4&#45;&gt;Node3</title>
<path fill="none" stroke="#9a32cd" stroke-dasharray="5,2" d="M528.31,-405.88C564.47,-401.84 628.96,-394.42 684,-387 689.71,-386.23 695.64,-385.4 701.57,-384.55"/>
<polygon fill="#9a32cd" stroke="#9a32cd" points="527.6,-402.44 518.04,-407.02 528.37,-409.4 527.6,-402.44"/>
<text text-anchor="middle" x="638.5" y="-401" font-family="Helvetica,sans-Serif" font-size="10.00"> DebugName</text>
</g>
<!-- Node5 -->
<g id="node5" class="node">
<title>Node5</title>
<g id="a_node5"><a xlink:title=" ">
<polygon fill="white" stroke="#bfbfbf" points="474,-361.5 474,-380.5 524,-380.5 524,-361.5 474,-361.5"/>
<text text-anchor="middle" x="499" y="-368.5" font-family="Helvetica,sans-Serif" font-size="10.00">int32_t</text>
</a>
</g>
</g>
<!-- Node5&#45;&gt;Node3 -->
<g id="edge4" class="edge">
<title>Node5&#45;&gt;Node3</title>
<path fill="none" stroke="#9a32cd" stroke-dasharray="5,2" d="M534.46,-371.52C576.87,-372.16 649.66,-373.27 701.92,-374.06"/>
<polygon fill="#9a32cd" stroke="#9a32cd" points="534.42,-368.02 524.36,-371.37 534.31,-375.02 534.42,-368.02"/>
<text text-anchor="middle" x="638.5" y="-376" font-family="Helvetica,sans-Serif" font-size="10.00"> ReferenceCounter</text>
</g>
<!-- Node6 -->
<g id="node6" class="node">
<title>Node6</title>
<g id="a_node6"><a xlink:href="classirr_1_1core_1_1dimension2d.html" target="_top" xlink:title=" ">
<polygon fill="white" stroke="black" points="703.5,-269 703.5,-299 826.5,-299 826.5,-269 703.5,-269"/>
<text text-anchor="start" x="711.5" y="-287" font-family="Helvetica,sans-Serif" font-size="10.00">irr::core::dimension2d</text>
<text text-anchor="middle" x="765" y="-276" font-family="Helvetica,sans-Serif" font-size="10.00">&lt; u32 &gt;</text>
</a>
</g>
</g>
<!-- Node6&#45;&gt;Node2 -->
<g id="edge5" class="edge">
<title>Node6&#45;&gt;Node2</title>
<path fill="none" stroke="#9a32cd" stroke-dasharray="5,2" d="M836.74,-273.42C869.91,-267.73 909.8,-259.85 945,-250 961,-245.52 978.53,-238.95 991.97,-233.54"/>
<polygon fill="#9a32cd" stroke="#9a32cd" points="835.95,-270 826.67,-275.12 837.11,-276.91 835.95,-270"/>
<text text-anchor="middle" x="895.5" y="-286" font-family="Helvetica,sans-Serif" font-size="10.00"> Size</text>
<text text-anchor="middle" x="895.5" y="-275" font-family="Helvetica,sans-Serif" font-size="10.00">OriginalSize</text>
</g>
<!-- Node7 -->
<g id="node7" class="node">
<title>Node7</title>
<g id="a_node7"><a xlink:title=" ">
<polygon fill="white" stroke="#bfbfbf" points="471,-308.5 471,-327.5 527,-327.5 527,-308.5 471,-308.5"/>
<text text-anchor="middle" x="499" y="-315.5" font-family="Helvetica,sans-Serif" font-size="10.00">uint32_t</text>
</a>
</g>
</g>
<!-- Node7&#45;&gt;Node2 -->
<g id="edge12" class="edge">
<title>Node7&#45;&gt;Node2</title>
<path fill="none" stroke="#9a32cd" stroke-dasharray="5,2" d="M537.15,-325.76C616.71,-340.44 807.5,-365.14 945,-298 974.93,-283.38 998.55,-250.02 1008.86,-233.55"/>
<polygon fill="#9a32cd" stroke="#9a32cd" points="537.6,-322.28 527.12,-323.85 536.29,-329.16 537.6,-322.28"/>
<text text-anchor="middle" x="765" y="-345" font-family="Helvetica,sans-Serif" font-size="10.00"> Pitch</text>
</g>
<!-- Node7&#45;&gt;Node6 -->
<g id="edge6" class="edge">
<title>Node7&#45;&gt;Node6</title>
<path fill="none" stroke="#9a32cd" stroke-dasharray="5,2" d="M537.21,-309.93C554.17,-306.48 574.53,-302.64 593,-300 629.45,-294.78 670.53,-290.87 703.29,-288.23"/>
<polygon fill="#9a32cd" stroke="#9a32cd" points="536.23,-306.56 527.15,-312.02 537.65,-313.42 536.23,-306.56"/>
<text text-anchor="middle" x="638.5" y="-314" font-family="Helvetica,sans-Serif" font-size="10.00"> Width</text>
<text text-anchor="middle" x="638.5" y="-303" font-family="Helvetica,sans-Serif" font-size="10.00">Height</text>
</g>
<!-- Node8 -->
<g id="node8" class="node">
<title>Node8</title>
<g id="a_node8"><a xlink:href="classirr_1_1core_1_1dimension2d.html" target="_top" xlink:title="Specifies a 2 dimensional size.">
<polygon fill="white" stroke="black" points="423,-255.5 423,-274.5 575,-274.5 575,-255.5 423,-255.5"/>
<text text-anchor="middle" x="499" y="-262.5" font-family="Helvetica,sans-Serif" font-size="10.00">irr::core::dimension2d&lt; T &gt;</text>
</a>
</g>
</g>
<!-- Node8&#45;&gt;Node6 -->
<g id="edge7" class="edge">
<title>Node8&#45;&gt;Node6</title>
<path fill="none" stroke="orange" stroke-dasharray="5,2" d="M585.77,-261.64C616.8,-261.43 652.06,-262.36 684,-266 690.37,-266.72 696.96,-267.75 703.52,-268.95"/>
<polygon fill="orange" stroke="orange" points="585.38,-258.14 575.42,-261.75 585.45,-265.14 585.38,-258.14"/>
<text text-anchor="middle" x="638.5" y="-269" font-family="Helvetica,sans-Serif" font-size="10.00"> &lt; u32 &gt;</text>
</g>
<!-- Node9 -->
<g id="node9" class="node">
<title>Node9</title>
<g id="a_node9"><a xlink:title=" ">
<polygon fill="white" stroke="#bfbfbf" points="239,-255.5 239,-274.5 268,-274.5 268,-255.5 239,-255.5"/>
<text text-anchor="middle" x="253.5" y="-262.5" font-family="Helvetica,sans-Serif" font-size="10.00">T</text>
</a>
</g>
</g>
<!-- Node9&#45;&gt;Node8 -->
<g id="edge8" class="edge">
<title>Node9&#45;&gt;Node8</title>
<path fill="none" stroke="#9a32cd" stroke-dasharray="5,2" d="M278.42,-265C311.67,-265 373.37,-265 422.92,-265"/>
<polygon fill="#9a32cd" stroke="#9a32cd" points="278.29,-261.5 268.29,-265 278.29,-268.5 278.29,-261.5"/>
<text text-anchor="middle" x="372.5" y="-279" font-family="Helvetica,sans-Serif" font-size="10.00"> Width</text>
<text text-anchor="middle" x="372.5" y="-268" font-family="Helvetica,sans-Serif" font-size="10.00">Height</text>
</g>
<!-- Node10 -->
<g id="node10" class="node">
<title>Node10</title>
<g id="a_node10"><a xlink:title=" ">
<polygon fill="white" stroke="#bfbfbf" points="705.5,-230.5 705.5,-249.5 824.5,-249.5 824.5,-230.5 705.5,-230.5"/>
<text text-anchor="middle" x="765" y="-237.5" font-family="Helvetica,sans-Serif" font-size="10.00">E_TEXTURE_SOURCE</text>
</a>
</g>
</g>
<!-- Node10&#45;&gt;Node2 -->
<g id="edge9" class="edge">
<title>Node10&#45;&gt;Node2</title>
<path fill="none" stroke="#9a32cd" stroke-dasharray="5,2" d="M834.64,-235.58C875.11,-232.97 925.5,-229.73 962.64,-227.34"/>
<polygon fill="#9a32cd" stroke="#9a32cd" points="834.33,-232.09 824.58,-236.23 834.78,-239.08 834.33,-232.09"/>
<text text-anchor="middle" x="895.5" y="-238" font-family="Helvetica,sans-Serif" font-size="10.00"> Source</text>
</g>
<!-- Node11 -->
<g id="node11" class="node">
<title>Node11</title>
<g id="a_node11"><a xlink:title=" ">
<polygon fill="white" stroke="#bfbfbf" points="713.5,-192.5 713.5,-211.5 816.5,-211.5 816.5,-192.5 713.5,-192.5"/>
<text text-anchor="middle" x="765" y="-199.5" font-family="Helvetica,sans-Serif" font-size="10.00">ECOLOR_FORMAT</text>
</a>
</g>
</g>
<!-- Node11&#45;&gt;Node2 -->
<g id="edge10" class="edge">
<title>Node11&#45;&gt;Node2</title>
<path fill="none" stroke="#9a32cd" stroke-dasharray="5,2" d="M826.85,-198.03C861.64,-196.83 905.98,-197.12 945,-203 959.96,-205.25 976.16,-210.01 989.16,-214.42"/>
<polygon fill="#9a32cd" stroke="#9a32cd" points="826.69,-194.53 816.84,-198.42 826.97,-201.52 826.69,-194.53"/>
<text text-anchor="middle" x="895.5" y="-217" font-family="Helvetica,sans-Serif" font-size="10.00"> ColorFormat</text>
<text text-anchor="middle" x="895.5" y="-206" font-family="Helvetica,sans-Serif" font-size="10.00">OriginalColorFormat</text>
</g>
<!-- Node12 -->
<g id="node12" class="node">
<title>Node12</title>
<g id="a_node12"><a xlink:title=" ">
<polygon fill="white" stroke="#bfbfbf" points="718,-154.5 718,-173.5 812,-173.5 812,-154.5 718,-154.5"/>
<text text-anchor="middle" x="765" y="-161.5" font-family="Helvetica,sans-Serif" font-size="10.00">E_DRIVER_TYPE</text>
</a>
</g>
</g>
<!-- Node12&#45;&gt;Node2 -->
<g id="edge11" class="edge">
<title>Node12&#45;&gt;Node2</title>
<path fill="none" stroke="#9a32cd" stroke-dasharray="5,2" d="M822.66,-163.9C858.53,-165.31 905.44,-169.92 945,-183 966.55,-190.13 988.66,-204.65 1001.99,-214.36"/>
<polygon fill="#9a32cd" stroke="#9a32cd" points="822.48,-160.39 812.37,-163.57 822.26,-167.38 822.48,-160.39"/>
<text text-anchor="middle" x="895.5" y="-186" font-family="Helvetica,sans-Serif" font-size="10.00"> DriverType</text>
</g>
<!-- Node13 -->
<g id="node13" class="node">
<title>Node13</title>
<g id="a_node13"><a xlink:href="structirr_1_1io_1_1SNamedPath.html" target="_top" xlink:title="Used in places where we identify objects by a filename, but don&#39;t actually work with the real filenam...">
<polygon fill="white" stroke="black" points="710,-116.5 710,-135.5 820,-135.5 820,-116.5 710,-116.5"/>
<text text-anchor="middle" x="765" y="-123.5" font-family="Helvetica,sans-Serif" font-size="10.00">irr::io::SNamedPath</text>
</a>
</g>
</g>
<!-- Node13&#45;&gt;Node2 -->
<g id="edge13" class="edge">
<title>Node13&#45;&gt;Node2</title>
<path fill="none" stroke="#9a32cd" stroke-dasharray="5,2" d="M830.34,-124.82C865.88,-126.6 909.81,-132.93 945,-151 974.27,-166.03 998.03,-198.35 1008.59,-214.47"/>
<polygon fill="#9a32cd" stroke="#9a32cd" points="830.21,-121.31 820.08,-124.42 829.93,-128.31 830.21,-121.31"/>
<text text-anchor="middle" x="895.5" y="-154" font-family="Helvetica,sans-Serif" font-size="10.00"> NamedPath</text>
</g>
<!-- Node14 -->
<g id="node14" class="node">
<title>Node14</title>
<g id="a_node14"><a xlink:href="classirr_1_1core_1_1string.html" target="_top" xlink:title=" ">
<polygon fill="white" stroke="black" points="451,-111 451,-141 547,-141 547,-111 451,-111"/>
<text text-anchor="start" x="459" y="-129" font-family="Helvetica,sans-Serif" font-size="10.00">irr::core::string&lt;</text>
<text text-anchor="middle" x="499" y="-118" font-family="Helvetica,sans-Serif" font-size="10.00"> fschar_t &gt;</text>
</a>
</g>
</g>
<!-- Node14&#45;&gt;Node13 -->
<g id="edge14" class="edge">
<title>Node14&#45;&gt;Node13</title>
<path fill="none" stroke="#9a32cd" stroke-dasharray="5,2" d="M557.45,-126C602.77,-126 665.51,-126 709.93,-126"/>
<polygon fill="#9a32cd" stroke="#9a32cd" points="557.2,-122.5 547.2,-126 557.2,-129.5 557.2,-122.5"/>
<text text-anchor="middle" x="638.5" y="-140" font-family="Helvetica,sans-Serif" font-size="10.00"> Path</text>
<text text-anchor="middle" x="638.5" y="-129" font-family="Helvetica,sans-Serif" font-size="10.00">InternalName</text>
</g>
<!-- Node15 -->
<g id="node15" class="node">
<title>Node15</title>
<g id="a_node15"><a xlink:title=" ">
<polygon fill="white" stroke="#bfbfbf" points="185,-116.5 185,-135.5 322,-135.5 322,-116.5 185,-116.5"/>
<text text-anchor="middle" x="253.5" y="-123.5" font-family="Helvetica,sans-Serif" font-size="10.00">basic_string&lt; fschar_t &gt;</text>
</a>
</g>
</g>
<!-- Node15&#45;&gt;Node14 -->
<g id="edge15" class="edge">
<title>Node15&#45;&gt;Node14</title>
<path fill="none" stroke="#9a32cd" stroke-dasharray="5,2" d="M332.28,-126C371.27,-126 417.22,-126 450.83,-126"/>
<polygon fill="#9a32cd" stroke="#9a32cd" points="332,-122.5 322,-126 332,-129.5 332,-122.5"/>
<text text-anchor="middle" x="372.5" y="-129" font-family="Helvetica,sans-Serif" font-size="10.00"> str</text>
</g>
<!-- Node16 -->
<g id="node16" class="node">
<title>Node16</title>
<g id="a_node16"><a xlink:title=" ">
<polygon fill="white" stroke="#bfbfbf" points="0,-97.5 0,-116.5 122,-116.5 122,-97.5 0,-97.5"/>
<text text-anchor="middle" x="61" y="-104.5" font-family="Helvetica,sans-Serif" font-size="10.00">static const size_type</text>
</a>
</g>
</g>
<!-- Node16&#45;&gt;Node14 -->
<g id="edge16" class="edge">
<title>Node16&#45;&gt;Node14</title>
<path fill="none" stroke="#9a32cd" stroke-dasharray="5,2" d="M132.28,-99.63C149.51,-98.12 167.9,-96.76 185,-96 245.83,-93.29 261.33,-90.87 322,-96 366.01,-99.72 415.56,-108.6 450.84,-115.73"/>
<polygon fill="#9a32cd" stroke="#9a32cd" points="131.94,-96.14 122.3,-100.53 132.57,-103.11 131.94,-96.14"/>
<text text-anchor="middle" x="253.5" y="-99" font-family="Helvetica,sans-Serif" font-size="10.00"> npos</text>
</g>
<!-- Node17 -->
<g id="node17" class="node">
<title>Node17</title>
<g id="a_node17"><a xlink:href="classirr_1_1core_1_1string.html" target="_top" xlink:title="Very simple string class with some useful features.">
<polygon fill="white" stroke="black" points="195.5,-154.5 195.5,-173.5 311.5,-173.5 311.5,-154.5 195.5,-154.5"/>
<text text-anchor="middle" x="253.5" y="-161.5" font-family="Helvetica,sans-Serif" font-size="10.00">irr::core::string&lt; T &gt;</text>
</a>
</g>
</g>
<!-- Node16&#45;&gt;Node17 -->
<g id="edge19" class="edge">
<title>Node16&#45;&gt;Node17</title>
<path fill="none" stroke="#9a32cd" stroke-dasharray="5,2" d="M102.08,-119.66C126.09,-127.18 157.24,-136.81 185,-145 195.63,-148.14 207.23,-151.44 217.77,-154.4"/>
<polygon fill="#9a32cd" stroke="#9a32cd" points="102.85,-116.24 92.26,-116.58 100.76,-122.92 102.85,-116.24"/>
<text text-anchor="middle" x="153.5" y="-142" font-family="Helvetica,sans-Serif" font-size="10.00"> npos</text>
</g>
<!-- Node17&#45;&gt;Node14 -->
<g id="edge17" class="edge">
<title>Node17&#45;&gt;Node14</title>
<path fill="none" stroke="orange" stroke-dasharray="5,2" d="M321.5,-153.54C362.48,-147.15 413.92,-139.12 450.68,-133.39"/>
<polygon fill="orange" stroke="orange" points="320.93,-150.09 311.59,-155.09 322.01,-157.01 320.93,-150.09"/>
<text text-anchor="middle" x="372.5" y="-154" font-family="Helvetica,sans-Serif" font-size="10.00"> &lt; fschar_t &gt;</text>
</g>
<!-- Node18 -->
<g id="node18" class="node">
<title>Node18</title>
<g id="a_node18"><a xlink:title=" ">
<polygon fill="white" stroke="#bfbfbf" points="9,-154.5 9,-173.5 113,-173.5 113,-154.5 9,-154.5"/>
<text text-anchor="middle" x="61" y="-161.5" font-family="Helvetica,sans-Serif" font-size="10.00">basic_string&lt; T &gt;</text>
</a>
</g>
</g>
<!-- Node18&#45;&gt;Node17 -->
<g id="edge18" class="edge">
<title>Node18&#45;&gt;Node17</title>
<path fill="none" stroke="#9a32cd" stroke-dasharray="5,2" d="M123.1,-164C146.24,-164 172.48,-164 195.26,-164"/>
<polygon fill="#9a32cd" stroke="#9a32cd" points="123.05,-160.5 113.05,-164 123.05,-167.5 123.05,-160.5"/>
<text text-anchor="middle" x="153.5" y="-167" font-family="Helvetica,sans-Serif" font-size="10.00"> str</text>
</g>
<!-- Node19 -->
<g id="node19" class="node">
<title>Node19</title>
<g id="a_node19"><a xlink:href="classbool.html" target="_top" xlink:title=" ">
<polygon fill="white" stroke="black" points="746,-62.5 746,-81.5 784,-81.5 784,-62.5 746,-62.5"/>
<text text-anchor="middle" x="765" y="-69.5" font-family="Helvetica,sans-Serif" font-size="10.00">bool</text>
</a>
</g>
</g>
<!-- Node19&#45;&gt;Node1 -->
<g id="edge22" class="edge">
<title>Node19&#45;&gt;Node1</title>
<path fill="none" stroke="#9a32cd" stroke-dasharray="5,2" d="M794.2,-70.95C865.96,-68.26 1056.12,-61.15 1145.84,-57.8"/>
<polygon fill="#9a32cd" stroke="#9a32cd" points="793.98,-67.45 784.12,-71.32 794.24,-74.45 793.98,-67.45"/>
<text text-anchor="middle" x="1015.5" y="-68" font-family="Helvetica,sans-Serif" font-size="10.00"> tile</text>
</g>
<!-- Node19&#45;&gt;Node2 -->
<g id="edge20" class="edge">
<title>Node19&#45;&gt;Node2</title>
<path fill="none" stroke="#9a32cd" stroke-dasharray="5,2" d="M794.42,-69.22C832.25,-67.02 899.63,-68.46 945,-100 986.34,-128.74 1005.93,-190.42 1012.18,-214.29"/>
<polygon fill="#9a32cd" stroke="#9a32cd" points="793.86,-65.75 784.13,-69.96 794.35,-72.74 793.86,-65.75"/>
<text text-anchor="middle" x="895.5" y="-114" font-family="Helvetica,sans-Serif" font-size="10.00"> IsRenderTarget</text>
<text text-anchor="middle" x="895.5" y="-103" font-family="Helvetica,sans-Serif" font-size="10.00">HasMipMaps</text>
</g>
<!-- Node20 -->
<g id="node20" class="node">
<title>Node20</title>
<g id="a_node20"><a xlink:title=" ">
<polygon fill="white" stroke="#bfbfbf" points="714,-403.5 714,-422.5 816,-422.5 816,-403.5 714,-403.5"/>
<text text-anchor="middle" x="765" y="-410.5" font-family="Helvetica,sans-Serif" font-size="10.00">E_TEXTURE_TYPE</text>
</a>
</g>
</g>
<!-- Node20&#45;&gt;Node2 -->
<g id="edge21" class="edge">
<title>Node20&#45;&gt;Node2</title>
<path fill="none" stroke="#9a32cd" stroke-dasharray="5,2" d="M826.63,-414.68C864.32,-412.69 911.76,-404.33 945,-378 993.05,-339.93 1008.97,-261.38 1013.19,-233.82"/>
<polygon fill="#9a32cd" stroke="#9a32cd" points="826.13,-411.19 816.27,-415.08 826.4,-418.19 826.13,-411.19"/>
<text text-anchor="middle" x="895.5" y="-415" font-family="Helvetica,sans-Serif" font-size="10.00"> Type</text>
</g>
<!-- Node21 -->
<g id="node21" class="node">
<title>Node21</title>
<g id="a_node21"><a xlink:title=" ">
<polygon fill="white" stroke="#bfbfbf" points="985,-0.5 985,-19.5 1046,-19.5 1046,-0.5 985,-0.5"/>
<text text-anchor="middle" x="1015.5" y="-7.5" font-family="Helvetica,sans-Serif" font-size="10.00">unsigned</text>
</a>
</g>
</g>
<!-- Node21&#45;&gt;Node1 -->
<g id="edge23" class="edge">
<title>Node21&#45;&gt;Node1</title>
<path fill="none" stroke="#9a32cd" stroke-dasharray="5,2" d="M1056.24,-15.74C1077.7,-19.28 1104.53,-24.4 1128,-31 1142.86,-35.18 1159.08,-41.3 1171.72,-46.44"/>
<polygon fill="#9a32cd" stroke="#9a32cd" points="1056.6,-12.25 1046.17,-14.13 1055.49,-19.17 1056.6,-12.25"/>
<text text-anchor="middle" x="1107" y="-34" font-family="Helvetica,sans-Serif" font-size="10.00"> minsize</text>
</g>
</g>
</svg>
        <g id="navigator" transform="translate(0 0)" fill="#404254">
                <rect fill="#f2f5e9" fill-opacity="0.5" stroke="#606060" stroke-width=".5" x="0" y="0" width="60" height="60"/>
                <use id="zoomplus" xlink:href="#zoomPlus" x="17" y="9" onmousedown="handleZoom(evt,'in')"/>
                <use id="zoomminus" xlink:href="#zoomMin" x="42" y="9" onmousedown="handleZoom(evt,'out')"/>
                <use id="reset" xlink:href="#resetDef" x="30" y="36" onmousedown="handleReset()"/>
                <g id="arrowUp" xlink:href="#dirArrow" transform="translate(30 24)" onmousedown="handlePan(0,-1)">
                  <use xlink:href="#rim" fill="#404040">
                        <set attributeName="fill" to="#808080" begin="arrowUp.mouseover" end="arrowUp.mouseout"/>
                  </use>
                  <path fill="none" stroke="white" stroke-width="1.5" d="M0,-3.0v7 M-2.5,-0.5L0,-3.0L2.5,-0.5"/>
                </g>
                <g id="arrowRight" xlink:href="#dirArrow" transform="rotate(90) translate(36 -43)" onmousedown="handlePan(1,0)">
                  <use xlink:href="#rim" fill="#404040">
                        <set attributeName="fill" to="#808080" begin="arrowRight.mouseover" end="arrowRight.mouseout"/>
                  </use>
                  <path fill="none" stroke="white" stroke-width="1.5" d="M0,-3.0v7 M-2.5,-0.5L0,-3.0L2.5,-0.5"/>
                </g>
                <g id="arrowDown" xlink:href="#dirArrow" transform="rotate(180) translate(-30 -48)" onmousedown="handlePan(0,1)">
                  <use xlink:href="#rim" fill="#404040">
                        <set attributeName="fill" to="#808080" begin="arrowDown.mouseover" end="arrowDown.mouseout"/>
                  </use>
                  <path fill="none" stroke="white" stroke-width="1.5" d="M0,-3.0v7 M-2.5,-0.5L0,-3.0L2.5,-0.5"/>
                </g>
                <g id="arrowLeft" xlink:href="#dirArrow" transform="rotate(270) translate(-36 17)" onmousedown="handlePan(-1,0)">
                  <use xlink:href="#rim" fill="#404040">
                        <set attributeName="fill" to="#808080" begin="arrowLeft.mouseover" end="arrowLeft.mouseout"/>
                  </use>
                  <path fill="none" stroke="white" stroke-width="1.5" d="M0,-3.0v7 M-2.5,-0.5L0,-3.0L2.5,-0.5"/>
                </g>
        </g>
        <svg viewBox="0 0 15 15" width="100%" height="30px" preserveAspectRatio="xMaxYMin meet">
         <g id="arrow_out" transform="scale(0.3 0.3)">
          <a xlink:href="structimage__definition__coll__graph_org.svg" target="_base">
           <rect id="button" ry="5" rx="5" y="6" x="6" height="38" width="38"
                fill="#f2f5e9" fill-opacity="0.5" stroke="#606060" stroke-width="1.0"/>
           <path id="arrow"
             d="M 11.500037,31.436501 C 11.940474,20.09759 22.043105,11.32322 32.158766,21.979434 L 37.068811,17.246167 C 37.068811,17.246167 37.088388,32 37.088388,32 L 22.160133,31.978069 C 22.160133,31.978069 26.997745,27.140456 26.997745,27.140456 C 18.528582,18.264221 13.291696,25.230495 11.500037,31.436501 z"
             style="fill:#404040;"/>
          </a>
         </g>
        </svg>
</svg>
