<?xml version="1.0" encoding="UTF-8" standalone="no"?>
<!DOCTYPE svg PUBLIC "-//W3C//DTD SVG 1.1//EN"
 "http://www.w3.org/Graphics/SVG/1.1/DTD/svg11.dtd">
<!-- Generated by graphviz version 2.43.0 (0)
 -->
<!-- Title: HTTPFetchRequest Pages: 1 -->
<svg width="353pt" height="290pt"
 viewBox="0.00 0.00 353.00 290.00" xmlns="http://www.w3.org/2000/svg" xmlns:xlink="http://www.w3.org/1999/xlink">
<g id="graph0" class="graph" transform="scale(1 1) rotate(0) translate(4 286)">
<title>HTTPFetchRequest</title>
<polygon fill="white" stroke="transparent" points="-4,4 -4,-286 349,-286 349,4 -4,4"/>
<!-- Node1 -->
<g id="node1" class="node">
<title>Node1</title>
<g id="a_node1"><a xlink:title=" ">
<polygon fill="#bfbfbf" stroke="black" points="237,-146.5 237,-165.5 345,-165.5 345,-146.5 237,-146.5"/>
<text text-anchor="middle" x="291" y="-153.5" font-family="Helvetica,sans-Serif" font-size="10.00">HTTPFetchRequest</text>
</a>
</g>
</g>
<!-- Node2 -->
<g id="node2" class="node">
<title>Node2</title>
<g id="a_node2"><a xlink:title=" ">
<polygon fill="white" stroke="#bfbfbf" points="22.5,-262.5 22.5,-281.5 96.5,-281.5 96.5,-262.5 22.5,-262.5"/>
<text text-anchor="middle" x="59.5" y="-269.5" font-family="Helvetica,sans-Serif" font-size="10.00">HttpMethod</text>
</a>
</g>
</g>
<!-- Node2&#45;&gt;Node1 -->
<g id="edge1" class="edge">
<title>Node2&#45;&gt;Node1</title>
<path fill="none" stroke="#9a32cd" stroke-dasharray="5,2" d="M107.02,-267.33C140.11,-262.38 184.6,-252.31 219,-232 248.23,-214.74 272.82,-181.84 283.82,-165.59"/>
<polygon fill="#9a32cd" stroke="#9a32cd" points="106.13,-263.92 96.71,-268.76 107.1,-270.85 106.13,-263.92"/>
<text text-anchor="middle" x="178" y="-264" font-family="Helvetica,sans-Serif" font-size="10.00"> method</text>
</g>
<!-- Node3 -->
<g id="node3" class="node">
<title>Node3</title>
<g id="a_node3"><a xlink:title=" ">
<polygon fill="white" stroke="#bfbfbf" points="0,-224.5 0,-243.5 119,-243.5 119,-224.5 0,-224.5"/>
<text text-anchor="middle" x="59.5" y="-231.5" font-family="Helvetica,sans-Serif" font-size="10.00">vector&lt; std::string &gt;</text>
</a>
</g>
</g>
<!-- Node3&#45;&gt;Node1 -->
<g id="edge2" class="edge">
<title>Node3&#45;&gt;Node1</title>
<path fill="none" stroke="#9a32cd" stroke-dasharray="5,2" d="M118.91,-222.24C149.28,-215.29 186.7,-205.41 219,-193 238.72,-185.42 260.05,-173.8 274.13,-165.61"/>
<polygon fill="#9a32cd" stroke="#9a32cd" points="117.89,-218.88 108.9,-224.48 119.42,-225.71 117.89,-218.88"/>
<text text-anchor="middle" x="178" y="-220" font-family="Helvetica,sans-Serif" font-size="10.00"> extra_headers</text>
</g>
<!-- Node4 -->
<g id="node4" class="node">
<title>Node4</title>
<g id="a_node4"><a xlink:title=" ">
<polygon fill="white" stroke="#bfbfbf" points="0,-175 0,-205 119,-205 119,-175 0,-175"/>
<text text-anchor="start" x="8" y="-193" font-family="Helvetica,sans-Serif" font-size="10.00">unordered_map&lt; std</text>
<text text-anchor="middle" x="59.5" y="-182" font-family="Helvetica,sans-Serif" font-size="10.00">::string, std::string &gt;</text>
</a>
</g>
</g>
<!-- Node4&#45;&gt;Node1 -->
<g id="edge3" class="edge">
<title>Node4&#45;&gt;Node1</title>
<path fill="none" stroke="#9a32cd" stroke-dasharray="5,2" d="M129.27,-180.17C157.14,-176.15 189.61,-171.41 219,-167 224.8,-166.13 230.86,-165.21 236.89,-164.28"/>
<polygon fill="#9a32cd" stroke="#9a32cd" points="128.63,-176.72 119.23,-181.61 129.63,-183.65 128.63,-176.72"/>
<text text-anchor="middle" x="178" y="-181" font-family="Helvetica,sans-Serif" font-size="10.00"> fields</text>
</g>
<!-- Node5 -->
<g id="node5" class="node">
<title>Node5</title>
<g id="a_node5"><a xlink:href="classbool.html" target="_top" xlink:title=" ">
<polygon fill="white" stroke="black" points="40.5,-136.5 40.5,-155.5 78.5,-155.5 78.5,-136.5 40.5,-136.5"/>
<text text-anchor="middle" x="59.5" y="-143.5" font-family="Helvetica,sans-Serif" font-size="10.00">bool</text>
</a>
</g>
</g>
<!-- Node5&#45;&gt;Node1 -->
<g id="edge4" class="edge">
<title>Node5&#45;&gt;Node1</title>
<path fill="none" stroke="#9a32cd" stroke-dasharray="5,2" d="M88.52,-147.22C125.29,-148.82 190.59,-151.67 236.87,-153.68"/>
<polygon fill="#9a32cd" stroke="#9a32cd" points="88.65,-143.72 78.51,-146.78 88.35,-150.72 88.65,-143.72"/>
<text text-anchor="middle" x="178" y="-155" font-family="Helvetica,sans-Serif" font-size="10.00"> multipart</text>
</g>
<!-- Node6 -->
<g id="node6" class="node">
<title>Node6</title>
<g id="a_node6"><a xlink:title=" ">
<polygon fill="white" stroke="#bfbfbf" points="37.5,-90.5 37.5,-109.5 81.5,-109.5 81.5,-90.5 37.5,-90.5"/>
<text text-anchor="middle" x="59.5" y="-97.5" font-family="Helvetica,sans-Serif" font-size="10.00">string</text>
</a>
</g>
</g>
<!-- Node6&#45;&gt;Node1 -->
<g id="edge5" class="edge">
<title>Node6&#45;&gt;Node1</title>
<path fill="none" stroke="#9a32cd" stroke-dasharray="5,2" d="M91.89,-98.05C124.5,-97.02 176.57,-98.17 219,-112 241.89,-119.46 264.95,-135.75 278.33,-146.28"/>
<polygon fill="#9a32cd" stroke="#9a32cd" points="91.48,-94.57 81.63,-98.47 91.76,-101.56 91.48,-94.57"/>
<text text-anchor="middle" x="178" y="-137" font-family="Helvetica,sans-Serif" font-size="10.00"> useragent</text>
<text text-anchor="middle" x="178" y="-126" font-family="Helvetica,sans-Serif" font-size="10.00">raw_data</text>
<text text-anchor="middle" x="178" y="-115" font-family="Helvetica,sans-Serif" font-size="10.00">url</text>
</g>
<!-- Node7 -->
<g id="node7" class="node">
<title>Node7</title>
<g id="a_node7"><a xlink:title=" ">
<polygon fill="white" stroke="#bfbfbf" points="40.5,-45.5 40.5,-64.5 78.5,-64.5 78.5,-45.5 40.5,-45.5"/>
<text text-anchor="middle" x="59.5" y="-52.5" font-family="Helvetica,sans-Serif" font-size="10.00">long</text>
</a>
</g>
</g>
<!-- Node7&#45;&gt;Node1 -->
<g id="edge6" class="edge">
<title>Node7&#45;&gt;Node1</title>
<path fill="none" stroke="#9a32cd" stroke-dasharray="5,2" d="M89.25,-51.92C122.5,-49.69 177.93,-50.2 219,-72 251.55,-89.28 275.38,-128.25 285.13,-146.38"/>
<polygon fill="#9a32cd" stroke="#9a32cd" points="88.56,-48.46 78.87,-52.75 89.12,-55.44 88.56,-48.46"/>
<text text-anchor="middle" x="178" y="-86" font-family="Helvetica,sans-Serif" font-size="10.00"> timeout</text>
<text text-anchor="middle" x="178" y="-75" font-family="Helvetica,sans-Serif" font-size="10.00">connect_timeout</text>
</g>
<!-- Node8 -->
<g id="node8" class="node">
<title>Node8</title>
<g id="a_node8"><a xlink:title=" ">
<polygon fill="white" stroke="#bfbfbf" points="42,-0.5 42,-19.5 77,-19.5 77,-0.5 42,-0.5"/>
<text text-anchor="middle" x="59.5" y="-7.5" font-family="Helvetica,sans-Serif" font-size="10.00">u64</text>
</a>
</g>
</g>
<!-- Node8&#45;&gt;Node1 -->
<g id="edge7" class="edge">
<title>Node8&#45;&gt;Node1</title>
<path fill="none" stroke="#9a32cd" stroke-dasharray="5,2" d="M87.48,-5.34C121.19,-1.03 179.26,1.28 219,-25 263.45,-54.39 282.34,-121.31 288.02,-146.32"/>
<polygon fill="#9a32cd" stroke="#9a32cd" points="86.85,-1.9 77.45,-6.78 87.84,-8.83 86.85,-1.9"/>
<text text-anchor="middle" x="178" y="-39" font-family="Helvetica,sans-Serif" font-size="10.00"> caller</text>
<text text-anchor="middle" x="178" y="-28" font-family="Helvetica,sans-Serif" font-size="10.00">request_id</text>
</g>
</g>
</svg>
