<?xml version="1.0" encoding="UTF-8" standalone="no"?>
<!DOCTYPE svg PUBLIC "-//W3C//DTD SVG 1.1//EN"
 "http://www.w3.org/Graphics/SVG/1.1/DTD/svg11.dtd">
<!-- Generated by graphviz version 2.43.0 (0)
 -->
<!-- Title: irr::blitterTable Pages: 1 -->
<svg width="625pt" height="317pt"
 viewBox="0.00 0.00 624.50 317.00" xmlns="http://www.w3.org/2000/svg" xmlns:xlink="http://www.w3.org/1999/xlink">
<g id="graph0" class="graph" transform="scale(1 1) rotate(0) translate(4 313)">
<title>irr::blitterTable</title>
<polygon fill="white" stroke="transparent" points="-4,4 -4,-313 620.5,-313 620.5,4 -4,4"/>
<!-- Node1 -->
<g id="node1" class="node">
<title>Node1</title>
<g id="a_node1"><a xlink:title=" ">
<polygon fill="#bfbfbf" stroke="black" points="47.5,-0.5 47.5,-19.5 135.5,-19.5 135.5,-0.5 47.5,-0.5"/>
<text text-anchor="middle" x="91.5" y="-7.5" font-family="Helvetica,sans-Serif" font-size="10.00">irr::blitterTable</text>
</a>
</g>
</g>
<!-- Node2 -->
<g id="node2" class="node">
<title>Node2</title>
<g id="a_node2"><a xlink:title=" ">
<polygon fill="white" stroke="#bfbfbf" points="0,-67.5 0,-86.5 53,-86.5 53,-67.5 0,-67.5"/>
<text text-anchor="middle" x="26.5" y="-74.5" font-family="Helvetica,sans-Serif" font-size="10.00">eBlitter</text>
</a>
</g>
</g>
<!-- Node2&#45;&gt;Node1 -->
<g id="edge1" class="edge">
<title>Node2&#45;&gt;Node1</title>
<path fill="none" stroke="#9a32cd" stroke-dasharray="5,2" d="M23.02,-57.17C22.79,-50.61 23.73,-43.52 27.5,-38 33.35,-29.43 42.49,-23.58 52.05,-19.57"/>
<polygon fill="#9a32cd" stroke="#9a32cd" points="19.58,-57.83 24.24,-67.34 26.53,-57 19.58,-57.83"/>
<text text-anchor="middle" x="52.5" y="-41" font-family="Helvetica,sans-Serif" font-size="10.00"> operation</text>
</g>
<!-- Node3 -->
<g id="node3" class="node">
<title>Node3</title>
<g id="a_node3"><a xlink:title=" ">
<polygon fill="white" stroke="#bfbfbf" points="82.5,-289.5 82.5,-308.5 132.5,-308.5 132.5,-289.5 82.5,-289.5"/>
<text text-anchor="middle" x="107.5" y="-296.5" font-family="Helvetica,sans-Serif" font-size="10.00">int32_t</text>
</a>
</g>
</g>
<!-- Node3&#45;&gt;Node1 -->
<g id="edge2" class="edge">
<title>Node3&#45;&gt;Node1</title>
<path fill="none" stroke="#9a32cd" stroke-dasharray="5,2" d="M106.45,-279.18C103.33,-223.16 94.17,-58.93 91.98,-19.56"/>
<polygon fill="#9a32cd" stroke="#9a32cd" points="102.97,-279.62 107.02,-289.41 109.96,-279.23 102.97,-279.62"/>
<text text-anchor="middle" x="134" y="-141" font-family="Helvetica,sans-Serif" font-size="10.00"> destFormat</text>
<text text-anchor="middle" x="134" y="-130" font-family="Helvetica,sans-Serif" font-size="10.00">sourceFormat</text>
</g>
<!-- Node7 -->
<g id="node7" class="node">
<title>Node7</title>
<g id="a_node7"><a xlink:href="structirr_1_1AbsRectangle.html" target="_top" xlink:title=" ">
<polygon fill="white" stroke="black" points="119.5,-189.5 119.5,-208.5 219.5,-208.5 219.5,-189.5 119.5,-189.5"/>
<text text-anchor="middle" x="169.5" y="-196.5" font-family="Helvetica,sans-Serif" font-size="10.00">irr::AbsRectangle</text>
</a>
</g>
</g>
<!-- Node3&#45;&gt;Node7 -->
<g id="edge7" class="edge">
<title>Node3&#45;&gt;Node7</title>
<path fill="none" stroke="#9a32cd" stroke-dasharray="5,2" d="M118.46,-280.67C131.85,-259.52 153.95,-224.58 164.1,-208.54"/>
<polygon fill="#9a32cd" stroke="#9a32cd" points="115.39,-278.98 113,-289.3 121.31,-282.72 115.39,-278.98"/>
<text text-anchor="middle" x="159.5" y="-263" font-family="Helvetica,sans-Serif" font-size="10.00"> y0</text>
<text text-anchor="middle" x="159.5" y="-252" font-family="Helvetica,sans-Serif" font-size="10.00">y1</text>
<text text-anchor="middle" x="159.5" y="-241" font-family="Helvetica,sans-Serif" font-size="10.00">x0</text>
<text text-anchor="middle" x="159.5" y="-230" font-family="Helvetica,sans-Serif" font-size="10.00">x1</text>
</g>
<!-- Node4 -->
<g id="node4" class="node">
<title>Node4</title>
<g id="a_node4"><a xlink:href="structirr_1_1SBlitJob.html" target="_top" xlink:title=" ">
<polygon fill="white" stroke="black" points="324,-67.5 324,-86.5 395,-86.5 395,-67.5 324,-67.5"/>
<text text-anchor="middle" x="359.5" y="-74.5" font-family="Helvetica,sans-Serif" font-size="10.00">irr::SBlitJob</text>
</a>
</g>
</g>
<!-- Node4&#45;&gt;Node1 -->
<g id="edge3" class="edge">
<title>Node4&#45;&gt;Node1</title>
<path fill="none" stroke="#9a32cd" stroke-dasharray="5,2" d="M314.41,-65.06C261.58,-52.25 175.14,-31.28 126.89,-19.58"/>
<polygon fill="#9a32cd" stroke="#9a32cd" points="313.64,-68.48 324.19,-67.44 315.29,-61.68 313.64,-68.48"/>
<text text-anchor="middle" x="255" y="-41" font-family="Helvetica,sans-Serif" font-size="10.00"> func</text>
</g>
<!-- Node5 -->
<g id="node5" class="node">
<title>Node5</title>
<g id="a_node5"><a xlink:title=" ">
<polygon fill="white" stroke="#bfbfbf" points="237.5,-189.5 237.5,-208.5 275.5,-208.5 275.5,-189.5 237.5,-189.5"/>
<text text-anchor="middle" x="256.5" y="-196.5" font-family="Helvetica,sans-Serif" font-size="10.00">float</text>
</a>
</g>
</g>
<!-- Node5&#45;&gt;Node4 -->
<g id="edge4" class="edge">
<title>Node5&#45;&gt;Node4</title>
<path fill="none" stroke="#9a32cd" stroke-dasharray="5,2" d="M256.58,-179.21C257.67,-158.47 262.56,-125.33 281.5,-105 292.44,-93.26 308.74,-86.62 323.61,-82.87"/>
<polygon fill="#9a32cd" stroke="#9a32cd" points="253.08,-179.2 256.29,-189.3 260.07,-179.4 253.08,-179.2"/>
<text text-anchor="middle" x="306" y="-141" font-family="Helvetica,sans-Serif" font-size="10.00"> x_stretch</text>
<text text-anchor="middle" x="306" y="-130" font-family="Helvetica,sans-Serif" font-size="10.00">y_stretch</text>
</g>
<!-- Node6 -->
<g id="node6" class="node">
<title>Node6</title>
<g id="a_node6"><a xlink:title=" ">
<polygon fill="white" stroke="#bfbfbf" points="294,-189.5 294,-208.5 369,-208.5 369,-189.5 294,-189.5"/>
<text text-anchor="middle" x="331.5" y="-196.5" font-family="Helvetica,sans-Serif" font-size="10.00">const void *</text>
</a>
</g>
</g>
<!-- Node6&#45;&gt;Node4 -->
<g id="edge5" class="edge">
<title>Node6&#45;&gt;Node4</title>
<path fill="none" stroke="#9a32cd" stroke-dasharray="5,2" d="M333.75,-179.42C336.31,-160.45 341.12,-130.3 348.5,-105 350.31,-98.78 353.06,-92.03 355.36,-86.84"/>
<polygon fill="#9a32cd" stroke="#9a32cd" points="330.27,-179.04 332.47,-189.4 337.21,-179.93 330.27,-179.04"/>
<text text-anchor="middle" x="357.5" y="-135.5" font-family="Helvetica,sans-Serif" font-size="10.00"> src</text>
</g>
<!-- Node7&#45;&gt;Node4 -->
<g id="edge6" class="edge">
<title>Node7&#45;&gt;Node4</title>
<path fill="none" stroke="#9a32cd" stroke-dasharray="5,2" d="M174.2,-179.61C180.67,-158.19 194.47,-123.4 219.5,-105 235.75,-93.05 288.07,-85.37 323.93,-81.37"/>
<polygon fill="#9a32cd" stroke="#9a32cd" points="170.77,-178.86 171.46,-189.44 177.52,-180.74 170.77,-178.86"/>
<text text-anchor="middle" x="236.5" y="-141" font-family="Helvetica,sans-Serif" font-size="10.00"> Dest</text>
<text text-anchor="middle" x="236.5" y="-130" font-family="Helvetica,sans-Serif" font-size="10.00">Source</text>
</g>
<!-- Node8 -->
<g id="node8" class="node">
<title>Node8</title>
<g id="a_node8"><a xlink:title=" ">
<polygon fill="white" stroke="#bfbfbf" points="386.5,-189.5 386.5,-208.5 442.5,-208.5 442.5,-189.5 386.5,-189.5"/>
<text text-anchor="middle" x="414.5" y="-196.5" font-family="Helvetica,sans-Serif" font-size="10.00">uint32_t</text>
</a>
</g>
</g>
<!-- Node8&#45;&gt;Node4 -->
<g id="edge8" class="edge">
<title>Node8&#45;&gt;Node4</title>
<path fill="none" stroke="#9a32cd" stroke-dasharray="5,2" d="M397.63,-182.03C394.63,-178.6 391.75,-174.85 389.5,-171 380.85,-156.21 367.17,-106.86 361.79,-86.69"/>
<polygon fill="#9a32cd" stroke="#9a32cd" points="395.16,-184.51 404.61,-189.32 400.22,-179.67 395.16,-184.51"/>
<text text-anchor="middle" x="418" y="-163" font-family="Helvetica,sans-Serif" font-size="10.00"> width</text>
<text text-anchor="middle" x="418" y="-152" font-family="Helvetica,sans-Serif" font-size="10.00">height</text>
<text text-anchor="middle" x="418" y="-141" font-family="Helvetica,sans-Serif" font-size="10.00">dstPitch</text>
<text text-anchor="middle" x="418" y="-130" font-family="Helvetica,sans-Serif" font-size="10.00">dstPixelMul</text>
<text text-anchor="middle" x="418" y="-119" font-family="Helvetica,sans-Serif" font-size="10.00">argb</text>
<text text-anchor="middle" x="418" y="-108" font-family="Helvetica,sans-Serif" font-size="10.00">srcPixelMul</text>
</g>
<!-- Node9 -->
<g id="node9" class="node">
<title>Node9</title>
<g id="a_node9"><a xlink:title=" ">
<polygon fill="white" stroke="#bfbfbf" points="461,-189.5 461,-208.5 490,-208.5 490,-189.5 461,-189.5"/>
<text text-anchor="middle" x="475.5" y="-196.5" font-family="Helvetica,sans-Serif" font-size="10.00">int</text>
</a>
</g>
</g>
<!-- Node9&#45;&gt;Node4 -->
<g id="edge9" class="edge">
<title>Node9&#45;&gt;Node4</title>
<path fill="none" stroke="#9a32cd" stroke-dasharray="5,2" d="M470.71,-179.46C463.96,-153.9 451.87,-110.36 446.5,-105 432.96,-91.48 412.78,-84.71 395.27,-81.33"/>
<polygon fill="#9a32cd" stroke="#9a32cd" points="467.41,-180.66 473.32,-189.45 474.18,-178.89 467.41,-180.66"/>
<text text-anchor="middle" x="488.5" y="-135.5" font-family="Helvetica,sans-Serif" font-size="10.00"> srcPitch</text>
</g>
<!-- Node10 -->
<g id="node10" class="node">
<title>Node10</title>
<g id="a_node10"><a xlink:href="classbool.html" target="_top" xlink:title=" ">
<polygon fill="white" stroke="black" points="514.5,-189.5 514.5,-208.5 552.5,-208.5 552.5,-189.5 514.5,-189.5"/>
<text text-anchor="middle" x="533.5" y="-196.5" font-family="Helvetica,sans-Serif" font-size="10.00">bool</text>
</a>
</g>
</g>
<!-- Node10&#45;&gt;Node4 -->
<g id="edge10" class="edge">
<title>Node10&#45;&gt;Node4</title>
<path fill="none" stroke="#9a32cd" stroke-dasharray="5,2" d="M531.51,-179.41C528.54,-155.27 522.12,-115.03 511.5,-105 495.14,-89.54 434.79,-82.74 395.23,-79.9"/>
<polygon fill="#9a32cd" stroke="#9a32cd" points="528.05,-179.95 532.67,-189.49 535,-179.15 528.05,-179.95"/>
<text text-anchor="middle" x="548" y="-135.5" font-family="Helvetica,sans-Serif" font-size="10.00"> stretch</text>
</g>
<!-- Node11 -->
<g id="node11" class="node">
<title>Node11</title>
<g id="a_node11"><a xlink:title=" ">
<polygon fill="white" stroke="#bfbfbf" points="570.5,-189.5 570.5,-208.5 616.5,-208.5 616.5,-189.5 570.5,-189.5"/>
<text text-anchor="middle" x="593.5" y="-196.5" font-family="Helvetica,sans-Serif" font-size="10.00">void *</text>
</a>
</g>
</g>
<!-- Node11&#45;&gt;Node4 -->
<g id="edge11" class="edge">
<title>Node11&#45;&gt;Node4</title>
<path fill="none" stroke="#9a32cd" stroke-dasharray="5,2" d="M594.61,-179.44C594.78,-158.11 591.45,-123.66 570.5,-105 545.27,-82.52 448.29,-78.38 395.03,-77.85"/>
<polygon fill="#9a32cd" stroke="#9a32cd" points="591.11,-179.38 594.26,-189.5 598.1,-179.62 591.11,-179.38"/>
<text text-anchor="middle" x="603" y="-135.5" font-family="Helvetica,sans-Serif" font-size="10.00"> dst</text>
</g>
</g>
</svg>
