<?xml version="1.0" encoding="UTF-8" standalone="no"?>
<!DOCTYPE svg PUBLIC "-//W3C//DTD SVG 1.1//EN"
 "http://www.w3.org/Graphics/SVG/1.1/DTD/svg11.dtd">
<!-- Generated by graphviz version 2.43.0 (0)
 -->
<!-- Title: irr::scene::ISkinnedMesh::SScaleKey Pages: 1 -->
<svg width="211pt" height="295pt"
 viewBox="0.00 0.00 210.50 295.00" xmlns="http://www.w3.org/2000/svg" xmlns:xlink="http://www.w3.org/1999/xlink">
<g id="graph0" class="graph" transform="scale(1 1) rotate(0) translate(4 291)">
<title>irr::scene::ISkinnedMesh::SScaleKey</title>
<polygon fill="white" stroke="transparent" points="-4,4 -4,-291 206.5,-291 206.5,4 -4,4"/>
<!-- Node1 -->
<g id="node1" class="node">
<title>Node1</title>
<g id="a_node1"><a xlink:title="Animation keyframe which describes a new scale.">
<polygon fill="#bfbfbf" stroke="black" points="0,-0.5 0,-30.5 136,-30.5 136,-0.5 0,-0.5"/>
<text text-anchor="start" x="8" y="-18.5" font-family="Helvetica,sans-Serif" font-size="10.00">irr::scene::ISkinnedMesh</text>
<text text-anchor="middle" x="68" y="-7.5" font-family="Helvetica,sans-Serif" font-size="10.00">::SScaleKey</text>
</a>
</g>
</g>
<!-- Node2 -->
<g id="node2" class="node">
<title>Node2</title>
<g id="a_node2"><a xlink:href="classirr_1_1core_1_1vector3d.html" target="_top" xlink:title=" ">
<polygon fill="white" stroke="black" points="85.5,-78.5 85.5,-108.5 188.5,-108.5 188.5,-78.5 85.5,-78.5"/>
<text text-anchor="start" x="93.5" y="-96.5" font-family="Helvetica,sans-Serif" font-size="10.00">irr::core::vector3d</text>
<text text-anchor="middle" x="137" y="-85.5" font-family="Helvetica,sans-Serif" font-size="10.00">&lt; f32 &gt;</text>
</a>
</g>
</g>
<!-- Node2&#45;&gt;Node1 -->
<g id="edge1" class="edge">
<title>Node2&#45;&gt;Node1</title>
<path fill="none" stroke="#9a32cd" stroke-dasharray="5,2" d="M117.18,-70.67C105.52,-57.83 91.12,-41.97 80.92,-30.73"/>
<polygon fill="#9a32cd" stroke="#9a32cd" points="114.71,-73.15 124.02,-78.2 119.89,-68.45 114.71,-73.15"/>
<text text-anchor="middle" x="120.5" y="-52" font-family="Helvetica,sans-Serif" font-size="10.00"> scale</text>
</g>
<!-- Node3 -->
<g id="node3" class="node">
<title>Node3</title>
<g id="a_node3"><a xlink:title=" ">
<polygon fill="white" stroke="#bfbfbf" points="15,-178.5 15,-197.5 53,-197.5 53,-178.5 15,-178.5"/>
<text text-anchor="middle" x="34" y="-185.5" font-family="Helvetica,sans-Serif" font-size="10.00">float</text>
</a>
</g>
</g>
<!-- Node3&#45;&gt;Node1 -->
<g id="edge5" class="edge">
<title>Node3&#45;&gt;Node1</title>
<path fill="none" stroke="#9a32cd" stroke-dasharray="5,2" d="M33.84,-168.15C34.04,-146.2 35.6,-109 43,-78 47.01,-61.18 54.91,-42.96 60.75,-30.75"/>
<polygon fill="#9a32cd" stroke="#9a32cd" points="30.34,-168.38 33.83,-178.38 37.34,-168.38 30.34,-168.38"/>
<text text-anchor="middle" x="59.5" y="-91" font-family="Helvetica,sans-Serif" font-size="10.00"> frame</text>
</g>
<!-- Node3&#45;&gt;Node2 -->
<g id="edge2" class="edge">
<title>Node3&#45;&gt;Node2</title>
<path fill="none" stroke="#9a32cd" stroke-dasharray="5,2" d="M51.04,-171.69C70.54,-154.18 102.22,-125.73 121.19,-108.7"/>
<polygon fill="#9a32cd" stroke="#9a32cd" points="48.61,-169.18 43.51,-178.46 53.28,-174.39 48.61,-169.18"/>
<text text-anchor="middle" x="105" y="-152" font-family="Helvetica,sans-Serif" font-size="10.00"> X</text>
<text text-anchor="middle" x="105" y="-141" font-family="Helvetica,sans-Serif" font-size="10.00">Y</text>
<text text-anchor="middle" x="105" y="-130" font-family="Helvetica,sans-Serif" font-size="10.00">Z</text>
</g>
<!-- Node4 -->
<g id="node4" class="node">
<title>Node4</title>
<g id="a_node4"><a xlink:href="classirr_1_1core_1_1vector3d.html" target="_top" xlink:title="3d vector template class with lots of operators and methods.">
<polygon fill="white" stroke="black" points="71.5,-178.5 71.5,-197.5 202.5,-197.5 202.5,-178.5 71.5,-178.5"/>
<text text-anchor="middle" x="137" y="-185.5" font-family="Helvetica,sans-Serif" font-size="10.00">irr::core::vector3d&lt; T &gt;</text>
</a>
</g>
</g>
<!-- Node4&#45;&gt;Node2 -->
<g id="edge3" class="edge">
<title>Node4&#45;&gt;Node2</title>
<path fill="none" stroke="orange" stroke-dasharray="5,2" d="M137,-168.29C137,-150.67 137,-124.67 137,-108.7"/>
<polygon fill="orange" stroke="orange" points="133.5,-168.46 137,-178.46 140.5,-168.46 133.5,-168.46"/>
<text text-anchor="middle" x="158" y="-141" font-family="Helvetica,sans-Serif" font-size="10.00"> &lt; f32 &gt;</text>
</g>
<!-- Node5 -->
<g id="node5" class="node">
<title>Node5</title>
<g id="a_node5"><a xlink:title=" ">
<polygon fill="white" stroke="#bfbfbf" points="122.5,-267.5 122.5,-286.5 151.5,-286.5 151.5,-267.5 122.5,-267.5"/>
<text text-anchor="middle" x="137" y="-274.5" font-family="Helvetica,sans-Serif" font-size="10.00">T</text>
</a>
</g>
</g>
<!-- Node5&#45;&gt;Node4 -->
<g id="edge4" class="edge">
<title>Node5&#45;&gt;Node4</title>
<path fill="none" stroke="#9a32cd" stroke-dasharray="5,2" d="M137,-257.19C137,-238.74 137,-211.41 137,-197.62"/>
<polygon fill="#9a32cd" stroke="#9a32cd" points="133.5,-257.34 137,-267.34 140.5,-257.34 133.5,-257.34"/>
<text text-anchor="middle" x="142" y="-241" font-family="Helvetica,sans-Serif" font-size="10.00"> X</text>
<text text-anchor="middle" x="142" y="-230" font-family="Helvetica,sans-Serif" font-size="10.00">Y</text>
<text text-anchor="middle" x="142" y="-219" font-family="Helvetica,sans-Serif" font-size="10.00">Z</text>
</g>
</g>
</svg>
