<?xml version="1.0" encoding="UTF-8" standalone="no"?>
<!DOCTYPE svg PUBLIC "-//W3C//DTD SVG 1.1//EN"
 "http://www.w3.org/Graphics/SVG/1.1/DTD/svg11.dtd">
<!-- Generated by graphviz version 2.43.0 (0)
 -->
<!-- Title: ClientEnvEvent Pages: 1 -->
<svg width="524pt" height="95pt"
 viewBox="0.00 0.00 524.00 95.00" xmlns="http://www.w3.org/2000/svg" xmlns:xlink="http://www.w3.org/1999/xlink">
<g id="graph0" class="graph" transform="scale(1 1) rotate(0) translate(4 91)">
<title>ClientEnvEvent</title>
<polygon fill="white" stroke="transparent" points="-4,4 -4,-91 520,-91 520,4 -4,4"/>
<!-- Node1 -->
<g id="node1" class="node">
<title>Node1</title>
<g id="a_node1"><a xlink:title=" ">
<polygon fill="#bfbfbf" stroke="black" points="234.5,-0.5 234.5,-19.5 325.5,-19.5 325.5,-0.5 234.5,-0.5"/>
<text text-anchor="middle" x="280" y="-7.5" font-family="Helvetica,sans-Serif" font-size="10.00">ClientEnvEvent</text>
</a>
</g>
</g>
<!-- Node2 -->
<g id="node2" class="node">
<title>Node2</title>
<g id="a_node2"><a xlink:title=" ">
<polygon fill="white" stroke="#bfbfbf" points="0,-67.5 0,-86.5 152,-86.5 152,-67.5 0,-67.5"/>
<text text-anchor="middle" x="76" y="-74.5" font-family="Helvetica,sans-Serif" font-size="10.00">anonymous:player_damage</text>
</a>
</g>
</g>
<!-- Node2&#45;&gt;Node1 -->
<g id="edge1" class="edge">
<title>Node2&#45;&gt;Node1</title>
<path fill="none" stroke="#9a32cd" stroke-dasharray="5,2" d="M95.39,-61.32C106.91,-53.28 122.14,-43.8 137,-38 168.31,-25.79 205.68,-18.98 234.37,-15.25"/>
<polygon fill="#9a32cd" stroke="#9a32cd" points="93.08,-58.67 87.02,-67.36 97.17,-64.35 93.08,-58.67"/>
<text text-anchor="middle" x="176.5" y="-41" font-family="Helvetica,sans-Serif" font-size="10.00"> player_damage</text>
</g>
<!-- Node3 -->
<g id="node3" class="node">
<title>Node3</title>
<g id="a_node3"><a xlink:title=" ">
<polygon fill="white" stroke="#bfbfbf" points="170.5,-67.5 170.5,-86.5 205.5,-86.5 205.5,-67.5 170.5,-67.5"/>
<text text-anchor="middle" x="188" y="-74.5" font-family="Helvetica,sans-Serif" font-size="10.00">u16</text>
</a>
</g>
</g>
<!-- Node3&#45;&gt;Node1 -->
<g id="edge2" class="edge">
<title>Node3&#45;&gt;Node1</title>
<path fill="none" stroke="#9a32cd" stroke-dasharray="5,2" d="M205.62,-60.78C214.26,-53.58 224.94,-45.03 235,-38 244.41,-31.42 255.46,-24.78 264.25,-19.73"/>
<polygon fill="#9a32cd" stroke="#9a32cd" points="203.14,-58.29 197.77,-67.43 207.66,-63.64 203.14,-58.29"/>
<text text-anchor="middle" x="255.5" y="-41" font-family="Helvetica,sans-Serif" font-size="10.00"> amount</text>
</g>
<!-- Node4 -->
<g id="node4" class="node">
<title>Node4</title>
<g id="a_node4"><a xlink:title=" ">
<polygon fill="white" stroke="#bfbfbf" points="223.5,-67.5 223.5,-86.5 336.5,-86.5 336.5,-67.5 223.5,-67.5"/>
<text text-anchor="middle" x="280" y="-74.5" font-family="Helvetica,sans-Serif" font-size="10.00">ClientEnvEventType</text>
</a>
</g>
</g>
<!-- Node4&#45;&gt;Node1 -->
<g id="edge3" class="edge">
<title>Node4&#45;&gt;Node1</title>
<path fill="none" stroke="#9a32cd" stroke-dasharray="5,2" d="M280,-57.04C280,-44.67 280,-29.12 280,-19.63"/>
<polygon fill="#9a32cd" stroke="#9a32cd" points="276.5,-57.23 280,-67.23 283.5,-57.23 276.5,-57.23"/>
<text text-anchor="middle" x="292.5" y="-41" font-family="Helvetica,sans-Serif" font-size="10.00"> type</text>
</g>
<!-- Node5 -->
<g id="node5" class="node">
<title>Node5</title>
<g id="a_node5"><a xlink:href="classbool.html" target="_top" xlink:title=" ">
<polygon fill="white" stroke="black" points="355,-67.5 355,-86.5 393,-86.5 393,-67.5 355,-67.5"/>
<text text-anchor="middle" x="374" y="-74.5" font-family="Helvetica,sans-Serif" font-size="10.00">bool</text>
</a>
</g>
</g>
<!-- Node5&#45;&gt;Node1 -->
<g id="edge4" class="edge">
<title>Node5&#45;&gt;Node1</title>
<path fill="none" stroke="#9a32cd" stroke-dasharray="5,2" d="M352.91,-61.42C334.33,-48.57 307.88,-30.28 292.48,-19.63"/>
<polygon fill="#9a32cd" stroke="#9a32cd" points="351.11,-64.43 361.32,-67.23 355.09,-58.67 351.11,-64.43"/>
<text text-anchor="middle" x="371" y="-41" font-family="Helvetica,sans-Serif" font-size="10.00"> send_to_server</text>
</g>
<!-- Node6 -->
<g id="node6" class="node">
<title>Node6</title>
<g id="a_node6"><a xlink:title=" ">
<polygon fill="white" stroke="#bfbfbf" points="418,-67.5 418,-86.5 516,-86.5 516,-67.5 418,-67.5"/>
<text text-anchor="middle" x="467" y="-74.5" font-family="Helvetica,sans-Serif" font-size="10.00">anonymous:@24</text>
</a>
</g>
</g>
<!-- Node6&#45;&gt;Node1 -->
<g id="edge5" class="edge">
<title>Node6&#45;&gt;Node1</title>
<path fill="none" stroke="#9a32cd" stroke-dasharray="5,2" d="M449.83,-60.82C439.98,-52.88 427.01,-43.66 414,-38 386.04,-25.83 352.38,-19.08 325.8,-15.37"/>
<polygon fill="#9a32cd" stroke="#9a32cd" points="447.7,-63.61 457.61,-67.35 452.2,-58.24 447.7,-63.61"/>
<text text-anchor="middle" x="444.5" y="-41" font-family="Helvetica,sans-Serif" font-size="10.00"> @24</text>
</g>
</g>
</svg>
