<?xml version="1.0" encoding="UTF-8" standalone="no"?>
<!DOCTYPE svg PUBLIC "-//W3C//DTD SVG 1.1//EN"
 "http://www.w3.org/Graphics/SVG/1.1/DTD/svg11.dtd">
<!-- Generated by graphviz version 2.43.0 (0)
 -->
<!-- Title: SettingsEntry Pages: 1 -->
<!--zoomable 370 -->
<svg id="main" version="1.1" xmlns="http://www.w3.org/2000/svg" xmlns:xlink="http://www.w3.org/1999/xlink" xml:space="preserve" onload="init(evt)">
<style type="text/css"><![CDATA[
.edge:hover path { stroke: red; }
.edge:hover polygon { stroke: red; fill: red; }
]]></style>
<script type="text/javascript"><![CDATA[
var edges = document.getElementsByTagName('g');
if (edges && edges.length) {
  for (var i=0;i<edges.length;i++) {
    if (edges[i].id.substr(0,4)=='edge') {
      edges[i].setAttribute('class','edge');
    }
  }
}
]]></script>
        <defs>
                <circle id="rim" cx="0" cy="0" r="7"/>
                <circle id="rim2" cx="0" cy="0" r="3.5"/>
                <g id="zoomPlus">
                        <use xlink:href="#rim" fill="#404040">
                                <set attributeName="fill" to="#808080" begin="zoomplus.mouseover" end="zoomplus.mouseout"/>
                        </use>
                        <path d="M-4,0h8M0,-4v8" fill="none" stroke="white" stroke-width="1.5" pointer-events="none"/>
                </g>
                <g id="zoomMin">
                        <use xlink:href="#rim" fill="#404040">
                                <set attributeName="fill" to="#808080" begin="zoomminus.mouseover" end="zoomminus.mouseout"/>
                        </use>
                        <path d="M-4,0h8" fill="none" stroke="white" stroke-width="1.5" pointer-events="none"/>
                </g>
                <g id="dirArrow">
                        <path fill="none" stroke="white" stroke-width="1.5" d="M0,-3.0v7 M-2.5,-0.5L0,-3.0L2.5,-0.5"/>
                </g>
               <g id="resetDef">
                       <use xlink:href="#rim2" fill="#404040">
                               <set attributeName="fill" to="#808080" begin="reset.mouseover" end="reset.mouseout"/>
                       </use>
               </g>
        </defs>

<script type="text/javascript">
var viewWidth = 694;
var viewHeight = 370;
var sectionId = 'dynsection-0';
</script>
<script xlink:href="svgpan.js"/>
<svg id="graph" class="graph">
<g id="viewport">
<title>SettingsEntry</title>
<polygon fill="white" stroke="transparent" points="-4,4 -4,-365.5 690,-365.5 690,4 -4,4"/>
<!-- Node1 -->
<g id="node1" class="node">
<title>Node1</title>
<g id="a_node1"><a xlink:title=" ">
<polygon fill="#bfbfbf" stroke="black" points="604,-46.5 604,-65.5 686,-65.5 686,-46.5 604,-46.5"/>
<text text-anchor="middle" x="645" y="-53.5" font-family="Helvetica,sans-Serif" font-size="10.00">SettingsEntry</text>
</a>
</g>
</g>
<!-- Node2 -->
<g id="node2" class="node">
<title>Node2</title>
<g id="a_node2"><a xlink:href="classSettings.html" target="_top" xlink:title=" ">
<polygon fill="white" stroke="black" points="467,-164.5 467,-183.5 523,-183.5 523,-164.5 467,-164.5"/>
<text text-anchor="middle" x="495" y="-171.5" font-family="Helvetica,sans-Serif" font-size="10.00">Settings</text>
</a>
</g>
</g>
<!-- Node2&#45;&gt;Node1 -->
<g id="edge1" class="edge">
<title>Node2&#45;&gt;Node1</title>
<path fill="none" stroke="#9a32cd" stroke-dasharray="5,2" d="M516.11,-157.97C547.25,-133.14 606.21,-86.13 631.72,-65.79"/>
<polygon fill="#9a32cd" stroke="#9a32cd" points="513.75,-155.37 508.11,-164.34 518.11,-160.85 513.75,-155.37"/>
<text text-anchor="middle" x="563.5" y="-139" font-family="Helvetica,sans-Serif" font-size="10.00"> group</text>
</g>
<!-- Node3 -->
<g id="node3" class="node">
<title>Node3</title>
<g id="a_node3"><a xlink:title=" ">
<polygon fill="white" stroke="#bfbfbf" points="194,-270.5 194,-311.5 332,-311.5 332,-270.5 194,-270.5"/>
<text text-anchor="start" x="202" y="-299.5" font-family="Helvetica,sans-Serif" font-size="10.00">unordered_map&lt; std</text>
<text text-anchor="start" x="202" y="-288.5" font-family="Helvetica,sans-Serif" font-size="10.00">::string, SettingsCallback</text>
<text text-anchor="middle" x="263" y="-277.5" font-family="Helvetica,sans-Serif" font-size="10.00">List &gt;</text>
</a>
</g>
</g>
<!-- Node3&#45;&gt;Node2 -->
<g id="edge2" class="edge">
<title>Node3&#45;&gt;Node2</title>
<path fill="none" stroke="#9a32cd" stroke-dasharray="5,2" d="M342.5,-287.05C377.78,-281.97 418.29,-271.24 449,-249 472.12,-232.26 485.55,-199.66 491.06,-183.52"/>
<polygon fill="#9a32cd" stroke="#9a32cd" points="341.68,-283.63 332.22,-288.39 342.59,-290.57 341.68,-283.63"/>
<text text-anchor="middle" x="402.5" y="-287" font-family="Helvetica,sans-Serif" font-size="10.00"> m_callbacks</text>
</g>
<!-- Node4 -->
<g id="node4" class="node">
<title>Node4</title>
<g id="a_node4"><a xlink:title=" ">
<polygon fill="white" stroke="#bfbfbf" points="188,-221 188,-251 338,-251 338,-221 188,-221"/>
<text text-anchor="start" x="196" y="-239" font-family="Helvetica,sans-Serif" font-size="10.00">unordered_map&lt; std</text>
<text text-anchor="middle" x="263" y="-228" font-family="Helvetica,sans-Serif" font-size="10.00">::string, const FlagDesc * &gt;</text>
</a>
</g>
</g>
<!-- Node4&#45;&gt;Node2 -->
<g id="edge3" class="edge">
<title>Node4&#45;&gt;Node2</title>
<path fill="none" stroke="#9a32cd" stroke-dasharray="5,2" d="M348.07,-234.42C380.67,-231.33 417.63,-224.68 449,-211 463.46,-204.69 477.01,-192.33 485.39,-183.64"/>
<polygon fill="#9a32cd" stroke="#9a32cd" points="347.77,-230.93 338.1,-235.27 348.36,-237.9 347.77,-230.93"/>
<text text-anchor="middle" x="402.5" y="-237" font-family="Helvetica,sans-Serif" font-size="10.00"> s_flags</text>
</g>
<!-- Node5 -->
<g id="node5" class="node">
<title>Node5</title>
<g id="a_node5"><a xlink:title=" ">
<polygon fill="white" stroke="#bfbfbf" points="239,-182.5 239,-201.5 287,-201.5 287,-182.5 239,-182.5"/>
<text text-anchor="middle" x="263" y="-189.5" font-family="Helvetica,sans-Serif" font-size="10.00">mutex</text>
</a>
</g>
</g>
<!-- Node5&#45;&gt;Node2 -->
<g id="edge4" class="edge">
<title>Node5&#45;&gt;Node2</title>
<path fill="none" stroke="#9a32cd" stroke-dasharray="5,2" d="M297.32,-189.39C343.06,-185.81 424.41,-179.45 466.72,-176.13"/>
<polygon fill="#9a32cd" stroke="#9a32cd" points="297.02,-185.91 287.32,-190.18 297.56,-192.88 297.02,-185.91"/>
<text text-anchor="middle" x="402.5" y="-199" font-family="Helvetica,sans-Serif" font-size="10.00"> m_mutex</text>
<text text-anchor="middle" x="402.5" y="-188" font-family="Helvetica,sans-Serif" font-size="10.00">m_callback_mutex</text>
</g>
<!-- Node6 -->
<g id="node6" class="node">
<title>Node6</title>
<g id="a_node6"><a xlink:href="classSettingsHierarchy.html" target="_top" xlink:title=" ">
<polygon fill="white" stroke="black" points="211,-144.5 211,-163.5 315,-163.5 315,-144.5 211,-144.5"/>
<text text-anchor="middle" x="263" y="-151.5" font-family="Helvetica,sans-Serif" font-size="10.00">SettingsHierarchy</text>
</a>
</g>
</g>
<!-- Node6&#45;&gt;Node2 -->
<g id="edge5" class="edge">
<title>Node6&#45;&gt;Node2</title>
<path fill="none" stroke="#9a32cd" stroke-dasharray="5,2" d="M325.67,-154.06C361.78,-154.82 408.16,-157.07 449,-163 454.73,-163.83 460.8,-165.07 466.56,-166.41"/>
<polygon fill="#9a32cd" stroke="#9a32cd" points="325.35,-150.55 315.29,-153.87 325.23,-157.55 325.35,-150.55"/>
<text text-anchor="middle" x="402.5" y="-166" font-family="Helvetica,sans-Serif" font-size="10.00"> m_hierarchy</text>
</g>
<!-- Node7 -->
<g id="node7" class="node">
<title>Node7</title>
<g id="a_node7"><a xlink:title=" ">
<polygon fill="white" stroke="#bfbfbf" points="0,-144.5 0,-163.5 118,-163.5 118,-144.5 0,-144.5"/>
<text text-anchor="middle" x="59" y="-151.5" font-family="Helvetica,sans-Serif" font-size="10.00">vector&lt; Settings * &gt;</text>
</a>
</g>
</g>
<!-- Node7&#45;&gt;Node6 -->
<g id="edge6" class="edge">
<title>Node7&#45;&gt;Node6</title>
<path fill="none" stroke="#9a32cd" stroke-dasharray="5,2" d="M128.31,-154C155.28,-154 185.75,-154 210.78,-154"/>
<polygon fill="#9a32cd" stroke="#9a32cd" points="128.16,-150.5 118.16,-154 128.16,-157.5 128.16,-150.5"/>
<text text-anchor="middle" x="153" y="-157" font-family="Helvetica,sans-Serif" font-size="10.00"> layers</text>
</g>
<!-- Node8 -->
<g id="node8" class="node">
<title>Node8</title>
<g id="a_node8"><a xlink:title=" ">
<polygon fill="white" stroke="#bfbfbf" points="248.5,-106.5 248.5,-125.5 277.5,-125.5 277.5,-106.5 248.5,-106.5"/>
<text text-anchor="middle" x="263" y="-113.5" font-family="Helvetica,sans-Serif" font-size="10.00">int</text>
</a>
</g>
</g>
<!-- Node8&#45;&gt;Node2 -->
<g id="edge7" class="edge">
<title>Node8&#45;&gt;Node2</title>
<path fill="none" stroke="#9a32cd" stroke-dasharray="5,2" d="M287.63,-115.53C323.75,-115.6 394.25,-118.91 449,-141 462.3,-146.37 475.26,-156.56 483.83,-164.2"/>
<polygon fill="#9a32cd" stroke="#9a32cd" points="287.56,-112.03 277.58,-115.59 287.61,-119.03 287.56,-112.03"/>
<text text-anchor="middle" x="402.5" y="-144" font-family="Helvetica,sans-Serif" font-size="10.00"> m_settingslayer</text>
</g>
<!-- Node9 -->
<g id="node9" class="node">
<title>Node9</title>
<g id="a_node9"><a xlink:title=" ">
<polygon fill="white" stroke="#bfbfbf" points="241,-57.5 241,-76.5 285,-76.5 285,-57.5 241,-57.5"/>
<text text-anchor="middle" x="263" y="-64.5" font-family="Helvetica,sans-Serif" font-size="10.00">string</text>
</a>
</g>
</g>
<!-- Node9&#45;&gt;Node1 -->
<g id="edge11" class="edge">
<title>Node9&#45;&gt;Node1</title>
<path fill="none" stroke="#9a32cd" stroke-dasharray="5,2" d="M295.44,-66.09C364.2,-64.1 527.88,-59.36 603.91,-57.16"/>
<polygon fill="#9a32cd" stroke="#9a32cd" points="295.14,-62.6 285.24,-66.39 295.34,-69.59 295.14,-62.6"/>
<text text-anchor="middle" x="495" y="-64" font-family="Helvetica,sans-Serif" font-size="10.00"> value</text>
</g>
<!-- Node9&#45;&gt;Node2 -->
<g id="edge8" class="edge">
<title>Node9&#45;&gt;Node2</title>
<path fill="none" stroke="#9a32cd" stroke-dasharray="5,2" d="M295.17,-66.33C334.37,-66.97 402.2,-73.14 449,-105 470.75,-119.81 484.48,-148.98 490.49,-164.21"/>
<polygon fill="#9a32cd" stroke="#9a32cd" points="295.16,-62.83 285.15,-66.28 295.13,-69.83 295.16,-62.83"/>
<text text-anchor="middle" x="402.5" y="-108" font-family="Helvetica,sans-Serif" font-size="10.00"> m_end_tag</text>
</g>
<!-- Node10 -->
<g id="node10" class="node">
<title>Node10</title>
<g id="a_node10"><a xlink:title=" ">
<polygon fill="white" stroke="#bfbfbf" points="196.5,-331 196.5,-361 329.5,-361 329.5,-331 196.5,-331"/>
<text text-anchor="start" x="204.5" y="-349" font-family="Helvetica,sans-Serif" font-size="10.00">unordered_map&lt; std</text>
<text text-anchor="middle" x="263" y="-338" font-family="Helvetica,sans-Serif" font-size="10.00">::string, SettingsEntry &gt;</text>
</a>
</g>
</g>
<!-- Node10&#45;&gt;Node2 -->
<g id="edge9" class="edge">
<title>Node10&#45;&gt;Node2</title>
<path fill="none" stroke="#9a32cd" stroke-dasharray="5,2" d="M340.05,-342.95C376.92,-337.76 419.51,-325.77 449,-299 483.67,-267.53 491.65,-207.37 493.47,-183.81"/>
<polygon fill="#9a32cd" stroke="#9a32cd" points="339.3,-339.52 329.81,-344.24 340.17,-346.47 339.3,-339.52"/>
<text text-anchor="middle" x="402.5" y="-343" font-family="Helvetica,sans-Serif" font-size="10.00"> m_settings</text>
</g>
<!-- Node11 -->
<g id="node11" class="node">
<title>Node11</title>
<g id="a_node11"><a xlink:href="classbool.html" target="_top" xlink:title=" ">
<polygon fill="white" stroke="black" points="476,-0.5 476,-19.5 514,-19.5 514,-0.5 476,-0.5"/>
<text text-anchor="middle" x="495" y="-7.5" font-family="Helvetica,sans-Serif" font-size="10.00">bool</text>
</a>
</g>
</g>
<!-- Node11&#45;&gt;Node1 -->
<g id="edge10" class="edge">
<title>Node11&#45;&gt;Node1</title>
<path fill="none" stroke="#9a32cd" stroke-dasharray="5,2" d="M524.03,-15.2C541.97,-18.86 565.62,-24.29 586,-31 599.02,-35.29 613.15,-41.35 624.21,-46.43"/>
<polygon fill="#9a32cd" stroke="#9a32cd" points="524.68,-11.76 514.19,-13.26 523.32,-18.63 524.68,-11.76"/>
<text text-anchor="middle" x="563.5" y="-34" font-family="Helvetica,sans-Serif" font-size="10.00"> is_group</text>
</g>
</g>
</svg>
        <g id="navigator" transform="translate(0 0)" fill="#404254">
                <rect fill="#f2f5e9" fill-opacity="0.5" stroke="#606060" stroke-width=".5" x="0" y="0" width="60" height="60"/>
                <use id="zoomplus" xlink:href="#zoomPlus" x="17" y="9" onmousedown="handleZoom(evt,'in')"/>
                <use id="zoomminus" xlink:href="#zoomMin" x="42" y="9" onmousedown="handleZoom(evt,'out')"/>
                <use id="reset" xlink:href="#resetDef" x="30" y="36" onmousedown="handleReset()"/>
                <g id="arrowUp" xlink:href="#dirArrow" transform="translate(30 24)" onmousedown="handlePan(0,-1)">
                  <use xlink:href="#rim" fill="#404040">
                        <set attributeName="fill" to="#808080" begin="arrowUp.mouseover" end="arrowUp.mouseout"/>
                  </use>
                  <path fill="none" stroke="white" stroke-width="1.5" d="M0,-3.0v7 M-2.5,-0.5L0,-3.0L2.5,-0.5"/>
                </g>
                <g id="arrowRight" xlink:href="#dirArrow" transform="rotate(90) translate(36 -43)" onmousedown="handlePan(1,0)">
                  <use xlink:href="#rim" fill="#404040">
                        <set attributeName="fill" to="#808080" begin="arrowRight.mouseover" end="arrowRight.mouseout"/>
                  </use>
                  <path fill="none" stroke="white" stroke-width="1.5" d="M0,-3.0v7 M-2.5,-0.5L0,-3.0L2.5,-0.5"/>
                </g>
                <g id="arrowDown" xlink:href="#dirArrow" transform="rotate(180) translate(-30 -48)" onmousedown="handlePan(0,1)">
                  <use xlink:href="#rim" fill="#404040">
                        <set attributeName="fill" to="#808080" begin="arrowDown.mouseover" end="arrowDown.mouseout"/>
                  </use>
                  <path fill="none" stroke="white" stroke-width="1.5" d="M0,-3.0v7 M-2.5,-0.5L0,-3.0L2.5,-0.5"/>
                </g>
                <g id="arrowLeft" xlink:href="#dirArrow" transform="rotate(270) translate(-36 17)" onmousedown="handlePan(-1,0)">
                  <use xlink:href="#rim" fill="#404040">
                        <set attributeName="fill" to="#808080" begin="arrowLeft.mouseover" end="arrowLeft.mouseout"/>
                  </use>
                  <path fill="none" stroke="white" stroke-width="1.5" d="M0,-3.0v7 M-2.5,-0.5L0,-3.0L2.5,-0.5"/>
                </g>
        </g>
        <svg viewBox="0 0 15 15" width="100%" height="30px" preserveAspectRatio="xMaxYMin meet">
         <g id="arrow_out" transform="scale(0.3 0.3)">
          <a xlink:href="structSettingsEntry__coll__graph_org.svg" target="_base">
           <rect id="button" ry="5" rx="5" y="6" x="6" height="38" width="38"
                fill="#f2f5e9" fill-opacity="0.5" stroke="#606060" stroke-width="1.0"/>
           <path id="arrow"
             d="M 11.500037,31.436501 C 11.940474,20.09759 22.043105,11.32322 32.158766,21.979434 L 37.068811,17.246167 C 37.068811,17.246167 37.088388,32 37.088388,32 L 22.160133,31.978069 C 22.160133,31.978069 26.997745,27.140456 26.997745,27.140456 C 18.528582,18.264221 13.291696,25.230495 11.500037,31.436501 z"
             style="fill:#404040;"/>
          </a>
         </g>
        </svg>
</svg>
