<?xml version="1.0" encoding="UTF-8" standalone="no"?>
<!DOCTYPE svg PUBLIC "-//W3C//DTD SVG 1.1//EN"
 "http://www.w3.org/Graphics/SVG/1.1/DTD/svg11.dtd">
<!-- Generated by graphviz version 2.43.0 (0)
 -->
<!-- Title: GameParams Pages: 1 -->
<svg width="664pt" height="228pt"
 viewBox="0.00 0.00 663.50 228.00" xmlns="http://www.w3.org/2000/svg" xmlns:xlink="http://www.w3.org/1999/xlink">
<g id="graph0" class="graph" transform="scale(1 1) rotate(0) translate(4 224)">
<title>GameParams</title>
<polygon fill="white" stroke="transparent" points="-4,4 -4,-224 659.5,-224 659.5,4 -4,4"/>
<!-- Node1 -->
<g id="node1" class="node">
<title>Node1</title>
<g id="a_node1"><a xlink:title=" ">
<polygon fill="#bfbfbf" stroke="black" points="117.5,-0.5 117.5,-19.5 199.5,-19.5 199.5,-0.5 117.5,-0.5"/>
<text text-anchor="middle" x="158.5" y="-7.5" font-family="Helvetica,sans-Serif" font-size="10.00">GameParams</text>
</a>
</g>
</g>
<!-- Node2 -->
<g id="node2" class="node">
<title>Node2</title>
<g id="a_node2"><a xlink:title=" ">
<polygon fill="white" stroke="#bfbfbf" points="0,-67.5 0,-86.5 35,-86.5 35,-67.5 0,-67.5"/>
<text text-anchor="middle" x="17.5" y="-74.5" font-family="Helvetica,sans-Serif" font-size="10.00">u16</text>
</a>
</g>
</g>
<!-- Node2&#45;&gt;Node1 -->
<g id="edge1" class="edge">
<title>Node2&#45;&gt;Node1</title>
<path fill="none" stroke="#9a32cd" stroke-dasharray="5,2" d="M21.84,-57.68C24.41,-50.57 28.39,-42.96 34.5,-38 57.67,-19.18 91.05,-12.71 117.34,-10.8"/>
<polygon fill="#9a32cd" stroke="#9a32cd" points="18.45,-56.8 19.02,-67.38 25.17,-58.76 18.45,-56.8"/>
<text text-anchor="middle" x="64.5" y="-41" font-family="Helvetica,sans-Serif" font-size="10.00"> socket_port</text>
</g>
<!-- Node3 -->
<g id="node3" class="node">
<title>Node3</title>
<g id="a_node3"><a xlink:href="classbool.html" target="_top" xlink:title=" ">
<polygon fill="white" stroke="black" points="81.5,-67.5 81.5,-86.5 119.5,-86.5 119.5,-67.5 81.5,-67.5"/>
<text text-anchor="middle" x="100.5" y="-74.5" font-family="Helvetica,sans-Serif" font-size="10.00">bool</text>
</a>
</g>
</g>
<!-- Node3&#45;&gt;Node1 -->
<g id="edge2" class="edge">
<title>Node3&#45;&gt;Node1</title>
<path fill="none" stroke="#9a32cd" stroke-dasharray="5,2" d="M97.16,-57.26C96.93,-50.71 97.85,-43.6 101.5,-38 107.06,-29.47 116.1,-23.57 125.36,-19.52"/>
<polygon fill="#9a32cd" stroke="#9a32cd" points="93.7,-57.87 98.33,-67.4 100.66,-57.06 93.7,-57.87"/>
<text text-anchor="middle" x="152" y="-41" font-family="Helvetica,sans-Serif" font-size="10.00"> is_dedicated_server</text>
</g>
<!-- Node4 -->
<g id="node4" class="node">
<title>Node4</title>
<g id="a_node4"><a xlink:title=" ">
<polygon fill="white" stroke="#bfbfbf" points="211.5,-195 211.5,-214 255.5,-214 255.5,-195 211.5,-195"/>
<text text-anchor="middle" x="233.5" y="-202" font-family="Helvetica,sans-Serif" font-size="10.00">string</text>
</a>
</g>
</g>
<!-- Node4&#45;&gt;Node1 -->
<g id="edge3" class="edge">
<title>Node4&#45;&gt;Node1</title>
<path fill="none" stroke="#9a32cd" stroke-dasharray="5,2" d="M231.9,-184.76C228.35,-146.64 218.8,-61.68 202.5,-38 197.01,-30.03 188.32,-23.98 180.11,-19.64"/>
<polygon fill="#9a32cd" stroke="#9a32cd" points="228.44,-185.32 232.81,-194.97 235.41,-184.69 228.44,-185.32"/>
<text text-anchor="middle" x="247.5" y="-74.5" font-family="Helvetica,sans-Serif" font-size="10.00"> world_path</text>
</g>
<!-- Node5 -->
<g id="node5" class="node">
<title>Node5</title>
<g id="a_node5"><a xlink:href="structSubgameSpec.html" target="_top" xlink:title=" ">
<polygon fill="white" stroke="black" points="311.5,-67.5 311.5,-86.5 397.5,-86.5 397.5,-67.5 311.5,-67.5"/>
<text text-anchor="middle" x="354.5" y="-74.5" font-family="Helvetica,sans-Serif" font-size="10.00">SubgameSpec</text>
</a>
</g>
</g>
<!-- Node4&#45;&gt;Node5 -->
<g id="edge7" class="edge">
<title>Node4&#45;&gt;Node5</title>
<path fill="none" stroke="#9a32cd" stroke-dasharray="5,2" d="M235.2,-184.66C238.19,-162.59 246.35,-126.34 268.5,-105 279.99,-93.93 295.98,-87.39 311.06,-83.53"/>
<polygon fill="#9a32cd" stroke="#9a32cd" points="231.71,-184.42 234.06,-194.75 238.66,-185.21 231.71,-184.42"/>
<text text-anchor="middle" x="309.5" y="-163" font-family="Helvetica,sans-Serif" font-size="10.00"> title</text>
<text text-anchor="middle" x="309.5" y="-152" font-family="Helvetica,sans-Serif" font-size="10.00">path</text>
<text text-anchor="middle" x="309.5" y="-141" font-family="Helvetica,sans-Serif" font-size="10.00">menuicon_path</text>
<text text-anchor="middle" x="309.5" y="-130" font-family="Helvetica,sans-Serif" font-size="10.00">gamemods_path</text>
<text text-anchor="middle" x="309.5" y="-119" font-family="Helvetica,sans-Serif" font-size="10.00">author</text>
<text text-anchor="middle" x="309.5" y="-108" font-family="Helvetica,sans-Serif" font-size="10.00">id</text>
</g>
<!-- Node5&#45;&gt;Node1 -->
<g id="edge4" class="edge">
<title>Node5&#45;&gt;Node1</title>
<path fill="none" stroke="#9a32cd" stroke-dasharray="5,2" d="M318.62,-64.1C279.76,-51.21 218.73,-30.97 184.32,-19.56"/>
<polygon fill="#9a32cd" stroke="#9a32cd" points="317.88,-67.54 328.47,-67.37 320.08,-60.9 317.88,-67.54"/>
<text text-anchor="middle" x="298" y="-41" font-family="Helvetica,sans-Serif" font-size="10.00"> game_spec</text>
</g>
<!-- Node6 -->
<g id="node6" class="node">
<title>Node6</title>
<g id="a_node6"><a xlink:title=" ">
<polygon fill="white" stroke="#bfbfbf" points="295,-189.5 295,-219.5 414,-219.5 414,-189.5 295,-189.5"/>
<text text-anchor="start" x="303" y="-207.5" font-family="Helvetica,sans-Serif" font-size="10.00">unordered_map&lt; std</text>
<text text-anchor="middle" x="354.5" y="-196.5" font-family="Helvetica,sans-Serif" font-size="10.00">::string, std::string &gt;</text>
</a>
</g>
</g>
<!-- Node6&#45;&gt;Node5 -->
<g id="edge5" class="edge">
<title>Node6&#45;&gt;Node5</title>
<path fill="none" stroke="#9a32cd" stroke-dasharray="5,2" d="M354.5,-178.79C354.5,-150.42 354.5,-105.39 354.5,-86.64"/>
<polygon fill="#9a32cd" stroke="#9a32cd" points="351,-179.1 354.5,-189.1 358,-179.1 351,-179.1"/>
<text text-anchor="middle" x="403.5" y="-135.5" font-family="Helvetica,sans-Serif" font-size="10.00"> addon_mods_paths</text>
</g>
<!-- Node7 -->
<g id="node7" class="node">
<title>Node7</title>
<g id="a_node7"><a xlink:title=" ">
<polygon fill="white" stroke="#bfbfbf" points="461,-195 461,-214 490,-214 490,-195 461,-195"/>
<text text-anchor="middle" x="475.5" y="-202" font-family="Helvetica,sans-Serif" font-size="10.00">int</text>
</a>
</g>
</g>
<!-- Node7&#45;&gt;Node5 -->
<g id="edge6" class="edge">
<title>Node7&#45;&gt;Node5</title>
<path fill="none" stroke="#9a32cd" stroke-dasharray="5,2" d="M476.69,-184.71C477,-162.68 474,-126.48 453.5,-105 439.11,-89.92 417.19,-82.99 397.64,-79.9"/>
<polygon fill="#9a32cd" stroke="#9a32cd" points="473.19,-184.65 476.29,-194.78 480.18,-184.92 473.19,-184.65"/>
<text text-anchor="middle" x="495.5" y="-135.5" font-family="Helvetica,sans-Serif" font-size="10.00"> release</text>
</g>
<!-- Node8 -->
<g id="node8" class="node">
<title>Node8</title>
<g id="a_node8"><a xlink:title=" ">
<polygon fill="white" stroke="#bfbfbf" points="508.5,-195 508.5,-214 636.5,-214 636.5,-195 508.5,-195"/>
<text text-anchor="middle" x="572.5" y="-202" font-family="Helvetica,sans-Serif" font-size="10.00">vector&lt; const char * &gt;</text>
</a>
</g>
</g>
<!-- Node8&#45;&gt;Node5 -->
<g id="edge8" class="edge">
<title>Node8&#45;&gt;Node5</title>
<path fill="none" stroke="#9a32cd" stroke-dasharray="5,2" d="M567.99,-185.2C561.39,-162.52 546.81,-124.48 519.5,-105 500.42,-91.39 439.75,-84.2 397.55,-80.76"/>
<polygon fill="#9a32cd" stroke="#9a32cd" points="564.64,-186.2 570.61,-194.95 571.4,-184.39 564.64,-186.2"/>
<text text-anchor="middle" x="609" y="-135.5" font-family="Helvetica,sans-Serif" font-size="10.00"> deprecation_msgs</text>
</g>
</g>
</svg>
