<?xml version="1.0" encoding="UTF-8" standalone="no"?>
<!DOCTYPE svg PUBLIC "-//W3C//DTD SVG 1.1//EN"
 "http://www.w3.org/Graphics/SVG/1.1/DTD/svg11.dtd">
<!-- Generated by graphviz version 2.43.0 (0)
 -->
<!-- Title: MapgenSinglenodeParams Pages: 1 -->
<svg width="556pt" height="263pt"
 viewBox="0.00 0.00 556.00 263.00" xmlns="http://www.w3.org/2000/svg" xmlns:xlink="http://www.w3.org/1999/xlink">
<g id="graph0" class="graph" transform="scale(1 1) rotate(0) translate(4 259)">
<title>MapgenSinglenodeParams</title>
<polygon fill="white" stroke="transparent" points="-4,4 -4,-259 552,-259 552,4 -4,4"/>
<!-- Node1 -->
<g id="node1" class="node">
<title>Node1</title>
<g id="a_node1"><a xlink:title=" ">
<polygon fill="#bfbfbf" stroke="black" points="270,-0.5 270,-19.5 416,-19.5 416,-0.5 270,-0.5"/>
<text text-anchor="middle" x="343" y="-7.5" font-family="Helvetica,sans-Serif" font-size="10.00">MapgenSinglenodeParams</text>
</a>
</g>
</g>
<!-- Node2 -->
<g id="node2" class="node">
<title>Node2</title>
<g id="a_node2"><a xlink:href="structMapgenParams.html" target="_top" xlink:title=" ">
<polygon fill="white" stroke="black" points="297,-57.5 297,-76.5 389,-76.5 389,-57.5 297,-57.5"/>
<text text-anchor="middle" x="343" y="-64.5" font-family="Helvetica,sans-Serif" font-size="10.00">MapgenParams</text>
</a>
</g>
</g>
<!-- Node2&#45;&gt;Node1 -->
<g id="edge1" class="edge">
<title>Node2&#45;&gt;Node1</title>
<path fill="none" stroke="midnightblue" d="M343,-47.12C343,-37.82 343,-27.06 343,-19.71"/>
<polygon fill="midnightblue" stroke="midnightblue" points="339.5,-47.41 343,-57.41 346.5,-47.41 339.5,-47.41"/>
</g>
<!-- Node3 -->
<g id="node3" class="node">
<title>Node3</title>
<g id="a_node3"><a xlink:title=" ">
<polygon fill="white" stroke="#bfbfbf" points="0,-168.5 0,-187.5 34,-187.5 34,-168.5 0,-168.5"/>
<text text-anchor="middle" x="17" y="-175.5" font-family="Helvetica,sans-Serif" font-size="10.00">s16</text>
</a>
</g>
</g>
<!-- Node3&#45;&gt;Node2 -->
<g id="edge2" class="edge">
<title>Node3&#45;&gt;Node2</title>
<path fill="none" stroke="#9a32cd" stroke-dasharray="5,2" d="M14.04,-158.18C12.25,-139.32 12.97,-110.86 30,-95 49.08,-77.23 214.34,-70.94 296.72,-68.9"/>
<polygon fill="#9a32cd" stroke="#9a32cd" points="10.59,-158.77 15.32,-168.25 17.53,-157.89 10.59,-158.77"/>
<text text-anchor="middle" x="80" y="-142" font-family="Helvetica,sans-Serif" font-size="10.00"> mapgen_edge_max</text>
<text text-anchor="middle" x="80" y="-131" font-family="Helvetica,sans-Serif" font-size="10.00">mapgen_limit</text>
<text text-anchor="middle" x="80" y="-120" font-family="Helvetica,sans-Serif" font-size="10.00">mapgen_edge_min</text>
<text text-anchor="middle" x="80" y="-109" font-family="Helvetica,sans-Serif" font-size="10.00">water_level</text>
<text text-anchor="middle" x="80" y="-98" font-family="Helvetica,sans-Serif" font-size="10.00">chunksize</text>
</g>
<!-- Node4 -->
<g id="node4" class="node">
<title>Node4</title>
<g id="a_node4"><a xlink:href="classbool.html" target="_top" xlink:title=" ">
<polygon fill="white" stroke="black" points="121,-168.5 121,-187.5 159,-187.5 159,-168.5 121,-168.5"/>
<text text-anchor="middle" x="140" y="-175.5" font-family="Helvetica,sans-Serif" font-size="10.00">bool</text>
</a>
</g>
</g>
<!-- Node4&#45;&gt;Node2 -->
<g id="edge3" class="edge">
<title>Node4&#45;&gt;Node2</title>
<path fill="none" stroke="#9a32cd" stroke-dasharray="5,2" d="M135.39,-158.57C131.96,-140.01 130.23,-111.8 146,-95 165.91,-73.8 244.95,-68.81 296.67,-67.87"/>
<polygon fill="#9a32cd" stroke="#9a32cd" points="132,-159.43 137.55,-168.45 138.84,-157.94 132,-159.43"/>
<text text-anchor="middle" x="220" y="-120" font-family="Helvetica,sans-Serif" font-size="10.00"> m_mapgen_edges_calculated</text>
</g>
<!-- Node5 -->
<g id="node5" class="node">
<title>Node5</title>
<g id="a_node5"><a xlink:title=" ">
<polygon fill="white" stroke="#bfbfbf" points="261,-168.5 261,-187.5 339,-187.5 339,-168.5 261,-168.5"/>
<text text-anchor="middle" x="300" y="-175.5" font-family="Helvetica,sans-Serif" font-size="10.00">MapgenType</text>
</a>
</g>
</g>
<!-- Node5&#45;&gt;Node2 -->
<g id="edge4" class="edge">
<title>Node5&#45;&gt;Node2</title>
<path fill="none" stroke="#9a32cd" stroke-dasharray="5,2" d="M297.78,-158.4C296.58,-140.93 297.15,-114.61 308,-95 312.24,-87.35 319.64,-81.15 326.55,-76.64"/>
<polygon fill="#9a32cd" stroke="#9a32cd" points="294.3,-158.82 298.73,-168.45 301.27,-158.16 294.3,-158.82"/>
<text text-anchor="middle" x="328.5" y="-120" font-family="Helvetica,sans-Serif" font-size="10.00"> mgtype</text>
</g>
<!-- Node6 -->
<g id="node6" class="node">
<title>Node6</title>
<g id="a_node6"><a xlink:title=" ">
<polygon fill="white" stroke="#bfbfbf" points="357.5,-168.5 357.5,-187.5 392.5,-187.5 392.5,-168.5 357.5,-168.5"/>
<text text-anchor="middle" x="375" y="-175.5" font-family="Helvetica,sans-Serif" font-size="10.00">u64</text>
</a>
</g>
</g>
<!-- Node6&#45;&gt;Node2 -->
<g id="edge5" class="edge">
<title>Node6&#45;&gt;Node2</title>
<path fill="none" stroke="#9a32cd" stroke-dasharray="5,2" d="M370.49,-158.21C366.35,-141.5 359.83,-116.45 353,-95 351.06,-88.9 348.56,-82.15 346.54,-76.93"/>
<polygon fill="#9a32cd" stroke="#9a32cd" points="367.18,-159.42 372.95,-168.31 373.98,-157.76 367.18,-159.42"/>
<text text-anchor="middle" x="382.5" y="-120" font-family="Helvetica,sans-Serif" font-size="10.00"> seed</text>
</g>
<!-- Node7 -->
<g id="node7" class="node">
<title>Node7</title>
<g id="a_node7"><a xlink:title=" ">
<polygon fill="white" stroke="#bfbfbf" points="410.5,-168.5 410.5,-187.5 445.5,-187.5 445.5,-168.5 410.5,-168.5"/>
<text text-anchor="middle" x="428" y="-175.5" font-family="Helvetica,sans-Serif" font-size="10.00">u32</text>
</a>
</g>
</g>
<!-- Node7&#45;&gt;Node2 -->
<g id="edge6" class="edge">
<title>Node7&#45;&gt;Node2</title>
<path fill="none" stroke="#9a32cd" stroke-dasharray="5,2" d="M425.85,-158.29C422.87,-140.15 415.93,-112.84 400,-95 392.56,-86.67 382,-80.69 371.99,-76.51"/>
<polygon fill="#9a32cd" stroke="#9a32cd" points="422.39,-158.81 427.23,-168.23 429.32,-157.84 422.39,-158.81"/>
<text text-anchor="middle" x="442.5" y="-125.5" font-family="Helvetica,sans-Serif" font-size="10.00"> flags</text>
<text text-anchor="middle" x="442.5" y="-114.5" font-family="Helvetica,sans-Serif" font-size="10.00">spflags</text>
</g>
<!-- Node8 -->
<g id="node8" class="node">
<title>Node8</title>
<g id="a_node8"><a xlink:href="structBiomeParams.html" target="_top" xlink:title=" ">
<polygon fill="white" stroke="black" points="464,-168.5 464,-187.5 548,-187.5 548,-168.5 464,-168.5"/>
<text text-anchor="middle" x="506" y="-175.5" font-family="Helvetica,sans-Serif" font-size="10.00">BiomeParams</text>
</a>
</g>
</g>
<!-- Node8&#45;&gt;Node2 -->
<g id="edge7" class="edge">
<title>Node8&#45;&gt;Node2</title>
<path fill="none" stroke="#9a32cd" stroke-dasharray="5,2" d="M501.48,-158.43C495.89,-139.54 484.52,-110.87 464,-95 442.81,-78.6 413.61,-71.77 389.2,-69.07"/>
<polygon fill="#9a32cd" stroke="#9a32cd" points="498.14,-159.5 504.12,-168.24 504.9,-157.68 498.14,-159.5"/>
<text text-anchor="middle" x="522" y="-120" font-family="Helvetica,sans-Serif" font-size="10.00"> bparams</text>
</g>
<!-- Node9 -->
<g id="node9" class="node">
<title>Node9</title>
<g id="a_node9"><a xlink:title=" ">
<polygon fill="white" stroke="#bfbfbf" points="489,-235.5 489,-254.5 523,-254.5 523,-235.5 489,-235.5"/>
<text text-anchor="middle" x="506" y="-242.5" font-family="Helvetica,sans-Serif" font-size="10.00">s32</text>
</a>
</g>
</g>
<!-- Node9&#45;&gt;Node8 -->
<g id="edge8" class="edge">
<title>Node9&#45;&gt;Node8</title>
<path fill="none" stroke="#9a32cd" stroke-dasharray="5,2" d="M506,-225.04C506,-212.67 506,-197.12 506,-187.63"/>
<polygon fill="#9a32cd" stroke="#9a32cd" points="502.5,-225.23 506,-235.23 509.5,-225.23 502.5,-225.23"/>
<text text-anchor="middle" x="519.5" y="-209" font-family="Helvetica,sans-Serif" font-size="10.00"> seed</text>
</g>
</g>
</svg>
