<?xml version="1.0" encoding="UTF-8" standalone="no"?>
<!DOCTYPE svg PUBLIC "-//W3C//DTD SVG 1.1//EN"
 "http://www.w3.org/Graphics/SVG/1.1/DTD/svg11.dtd">
<!-- Generated by graphviz version 2.43.0 (0)
 -->
<!-- Title: CSMFlagDesc Pages: 1 -->
<svg width="100pt" height="95pt"
 viewBox="0.00 0.00 99.50 95.00" xmlns="http://www.w3.org/2000/svg" xmlns:xlink="http://www.w3.org/1999/xlink">
<g id="graph0" class="graph" transform="scale(1 1) rotate(0) translate(4 91)">
<title>CSMFlagDesc</title>
<polygon fill="white" stroke="transparent" points="-4,4 -4,-91 95.5,-91 95.5,4 -4,4"/>
<!-- Node1 -->
<g id="node1" class="node">
<title>Node1</title>
<g id="a_node1"><a xlink:title=" ">
<polygon fill="#bfbfbf" stroke="black" points="4.5,-0.5 4.5,-19.5 87.5,-19.5 87.5,-0.5 4.5,-0.5"/>
<text text-anchor="middle" x="46" y="-7.5" font-family="Helvetica,sans-Serif" font-size="10.00">CSMFlagDesc</text>
</a>
</g>
</g>
<!-- Node2 -->
<g id="node2" class="node">
<title>Node2</title>
<g id="a_node2"><a xlink:title=" ">
<polygon fill="white" stroke="#bfbfbf" points="0,-67.5 0,-86.5 38,-86.5 38,-67.5 0,-67.5"/>
<text text-anchor="middle" x="19" y="-74.5" font-family="Helvetica,sans-Serif" font-size="10.00">char</text>
</a>
</g>
</g>
<!-- Node2&#45;&gt;Node1 -->
<g id="edge1" class="edge">
<title>Node2&#45;&gt;Node1</title>
<path fill="none" stroke="#9a32cd" stroke-dasharray="5,2" d="M17.47,-57.16C17.61,-50.86 18.49,-43.93 21,-38 24.03,-30.82 29.85,-24.35 35.12,-19.55"/>
<polygon fill="#9a32cd" stroke="#9a32cd" points="13.98,-57.61 17.84,-67.48 20.98,-57.36 13.98,-57.61"/>
<text text-anchor="middle" x="36.5" y="-41" font-family="Helvetica,sans-Serif" font-size="10.00"> name</text>
</g>
<!-- Node3 -->
<g id="node3" class="node">
<title>Node3</title>
<g id="a_node3"><a xlink:title=" ">
<polygon fill="white" stroke="#bfbfbf" points="56.5,-67.5 56.5,-86.5 91.5,-86.5 91.5,-67.5 56.5,-67.5"/>
<text text-anchor="middle" x="74" y="-74.5" font-family="Helvetica,sans-Serif" font-size="10.00">u64</text>
</a>
</g>
</g>
<!-- Node3&#45;&gt;Node1 -->
<g id="edge2" class="edge">
<title>Node3&#45;&gt;Node1</title>
<path fill="none" stroke="#9a32cd" stroke-dasharray="5,2" d="M66.16,-57.79C60.78,-45.31 53.89,-29.31 49.72,-19.63"/>
<polygon fill="#9a32cd" stroke="#9a32cd" points="63.05,-59.43 70.22,-67.23 69.48,-56.66 63.05,-59.43"/>
<text text-anchor="middle" x="72" y="-41" font-family="Helvetica,sans-Serif" font-size="10.00"> flag</text>
</g>
</g>
</svg>
