<?xml version="1.0" encoding="UTF-8" standalone="no"?>
<!DOCTYPE svg PUBLIC "-//W3C//DTD SVG 1.1//EN"
 "http://www.w3.org/Graphics/SVG/1.1/DTD/svg11.dtd">
<!-- Generated by graphviz version 2.43.0 (0)
 -->
<!-- Title: ClientEventHudChange Pages: 1 -->
<svg width="704pt" height="296pt"
 viewBox="0.00 0.00 704.00 296.00" xmlns="http://www.w3.org/2000/svg" xmlns:xlink="http://www.w3.org/1999/xlink">
<g id="graph0" class="graph" transform="scale(1 1) rotate(0) translate(4 292)">
<title>ClientEventHudChange</title>
<polygon fill="white" stroke="transparent" points="-4,4 -4,-292 700,-292 700,4 -4,4"/>
<!-- Node1 -->
<g id="node1" class="node">
<title>Node1</title>
<g id="a_node1"><a xlink:title=" ">
<polygon fill="#bfbfbf" stroke="black" points="567,-104.5 567,-123.5 696,-123.5 696,-104.5 567,-104.5"/>
<text text-anchor="middle" x="631.5" y="-111.5" font-family="Helvetica,sans-Serif" font-size="10.00">ClientEventHudChange</text>
</a>
</g>
</g>
<!-- Node2 -->
<g id="node2" class="node">
<title>Node2</title>
<g id="a_node2"><a xlink:href="classirr_1_1core_1_1vector2d.html" target="_top" xlink:title=" ">
<polygon fill="white" stroke="black" points="373,-225 373,-255 476,-255 476,-225 373,-225"/>
<text text-anchor="start" x="381" y="-243" font-family="Helvetica,sans-Serif" font-size="10.00">irr::core::vector2d</text>
<text text-anchor="middle" x="424.5" y="-232" font-family="Helvetica,sans-Serif" font-size="10.00">&lt; f32 &gt;</text>
</a>
</g>
</g>
<!-- Node2&#45;&gt;Node1 -->
<g id="edge1" class="edge">
<title>Node2&#45;&gt;Node1</title>
<path fill="none" stroke="#9a32cd" stroke-dasharray="5,2" d="M472.42,-220.81C496.11,-210.33 524.86,-196.36 549,-181 576.81,-163.3 605.81,-137.36 620.57,-123.53"/>
<polygon fill="#9a32cd" stroke="#9a32cd" points="470.72,-217.74 462.95,-224.94 473.51,-224.15 470.72,-217.74"/>
<text text-anchor="middle" x="521.5" y="-212" font-family="Helvetica,sans-Serif" font-size="10.00"> v2fdata</text>
</g>
<!-- Node3 -->
<g id="node3" class="node">
<title>Node3</title>
<g id="a_node3"><a xlink:title=" ">
<polygon fill="white" stroke="#bfbfbf" points="124.5,-264.5 124.5,-283.5 156.5,-283.5 156.5,-264.5 124.5,-264.5"/>
<text text-anchor="middle" x="140.5" y="-271.5" font-family="Helvetica,sans-Serif" font-size="10.00">f32</text>
</a>
</g>
</g>
<!-- Node3&#45;&gt;Node2 -->
<g id="edge2" class="edge">
<title>Node3&#45;&gt;Node2</title>
<path fill="none" stroke="#9a32cd" stroke-dasharray="5,2" d="M166.73,-271.98C206.75,-268.65 287.19,-261.42 355,-252 360.74,-251.2 366.74,-250.28 372.69,-249.31"/>
<polygon fill="#9a32cd" stroke="#9a32cd" points="166.24,-268.51 156.56,-272.82 166.81,-275.49 166.24,-268.51"/>
<text text-anchor="middle" x="289.5" y="-280" font-family="Helvetica,sans-Serif" font-size="10.00"> X</text>
<text text-anchor="middle" x="289.5" y="-269" font-family="Helvetica,sans-Serif" font-size="10.00">Y</text>
</g>
<!-- Node4 -->
<g id="node4" class="node">
<title>Node4</title>
<g id="a_node4"><a xlink:href="classirr_1_1core_1_1vector2d.html" target="_top" xlink:title="2d vector template class with lots of operators and methods.">
<polygon fill="white" stroke="black" points="75,-196.5 75,-215.5 206,-215.5 206,-196.5 75,-196.5"/>
<text text-anchor="middle" x="140.5" y="-203.5" font-family="Helvetica,sans-Serif" font-size="10.00">irr::core::vector2d&lt; T &gt;</text>
</a>
</g>
</g>
<!-- Node4&#45;&gt;Node2 -->
<g id="edge3" class="edge">
<title>Node4&#45;&gt;Node2</title>
<path fill="none" stroke="orange" stroke-dasharray="5,2" d="M216.2,-215.01C265.61,-220.96 329.08,-228.62 372.71,-233.88"/>
<polygon fill="orange" stroke="orange" points="216.54,-211.52 206.2,-213.8 215.71,-218.47 216.54,-211.52"/>
<text text-anchor="middle" x="289.5" y="-233" font-family="Helvetica,sans-Serif" font-size="10.00"> &lt; f32 &gt;</text>
</g>
<!-- Node6 -->
<g id="node6" class="node">
<title>Node6</title>
<g id="a_node6"><a xlink:href="classirr_1_1core_1_1vector2d.html" target="_top" xlink:title=" ">
<polygon fill="white" stroke="black" points="373,-167 373,-197 476,-197 476,-167 373,-167"/>
<text text-anchor="start" x="381" y="-185" font-family="Helvetica,sans-Serif" font-size="10.00">irr::core::vector2d</text>
<text text-anchor="middle" x="424.5" y="-174" font-family="Helvetica,sans-Serif" font-size="10.00">&lt; s32 &gt;</text>
</a>
</g>
</g>
<!-- Node4&#45;&gt;Node6 -->
<g id="edge7" class="edge">
<title>Node4&#45;&gt;Node6</title>
<path fill="none" stroke="orange" stroke-dasharray="5,2" d="M216.2,-199.64C265.61,-195.44 329.08,-190.04 372.71,-186.32"/>
<polygon fill="orange" stroke="orange" points="215.86,-196.16 206.2,-200.49 216.46,-203.13 215.86,-196.16"/>
<text text-anchor="middle" x="289.5" y="-201" font-family="Helvetica,sans-Serif" font-size="10.00"> &lt; s32 &gt;</text>
</g>
<!-- Node5 -->
<g id="node5" class="node">
<title>Node5</title>
<g id="a_node5"><a xlink:title=" ">
<polygon fill="white" stroke="#bfbfbf" points="0,-143.5 0,-162.5 29,-162.5 29,-143.5 0,-143.5"/>
<text text-anchor="middle" x="14.5" y="-150.5" font-family="Helvetica,sans-Serif" font-size="10.00">T</text>
</a>
</g>
</g>
<!-- Node5&#45;&gt;Node4 -->
<g id="edge4" class="edge">
<title>Node5&#45;&gt;Node4</title>
<path fill="none" stroke="#9a32cd" stroke-dasharray="5,2" d="M37.99,-164.6C49.02,-170.13 62.58,-176.68 75,-182 86.97,-187.13 100.44,-192.24 111.96,-196.42"/>
<polygon fill="#9a32cd" stroke="#9a32cd" points="39.53,-161.46 29.03,-160.06 36.37,-167.71 39.53,-161.46"/>
<text text-anchor="middle" x="52" y="-187" font-family="Helvetica,sans-Serif" font-size="10.00"> X</text>
<text text-anchor="middle" x="52" y="-176" font-family="Helvetica,sans-Serif" font-size="10.00">Y</text>
</g>
<!-- Node8 -->
<g id="node8" class="node">
<title>Node8</title>
<g id="a_node8"><a xlink:href="classirr_1_1core_1_1vector3d.html" target="_top" xlink:title="3d vector template class with lots of operators and methods.">
<polygon fill="white" stroke="black" points="224,-117.5 224,-136.5 355,-136.5 355,-117.5 224,-117.5"/>
<text text-anchor="middle" x="289.5" y="-124.5" font-family="Helvetica,sans-Serif" font-size="10.00">irr::core::vector3d&lt; T &gt;</text>
</a>
</g>
</g>
<!-- Node5&#45;&gt;Node8 -->
<g id="edge9" class="edge">
<title>Node5&#45;&gt;Node8</title>
<path fill="none" stroke="#9a32cd" stroke-dasharray="5,2" d="M35.21,-137.46C38.95,-135.24 42.95,-133.27 47,-132 104.81,-113.84 174.3,-114.59 223.87,-118.68"/>
<polygon fill="#9a32cd" stroke="#9a32cd" points="32.94,-134.78 26.64,-143.3 36.88,-140.56 32.94,-134.78"/>
<text text-anchor="middle" x="52" y="-157" font-family="Helvetica,sans-Serif" font-size="10.00"> X</text>
<text text-anchor="middle" x="52" y="-146" font-family="Helvetica,sans-Serif" font-size="10.00">Y</text>
<text text-anchor="middle" x="52" y="-135" font-family="Helvetica,sans-Serif" font-size="10.00">Z</text>
</g>
<!-- Node6&#45;&gt;Node1 -->
<g id="edge5" class="edge">
<title>Node6&#45;&gt;Node1</title>
<path fill="none" stroke="#9a32cd" stroke-dasharray="5,2" d="M486.02,-169.11C506.27,-164.19 528.82,-158.05 549,-151 571.3,-143.21 595.85,-131.63 612.12,-123.5"/>
<polygon fill="#9a32cd" stroke="#9a32cd" points="485.2,-165.71 476.28,-171.43 486.82,-172.52 485.2,-165.71"/>
<text text-anchor="middle" x="521.5" y="-169" font-family="Helvetica,sans-Serif" font-size="10.00"> v2s32data</text>
</g>
<!-- Node7 -->
<g id="node7" class="node">
<title>Node7</title>
<g id="a_node7"><a xlink:title=" ">
<polygon fill="white" stroke="#bfbfbf" points="123.5,-153.5 123.5,-172.5 157.5,-172.5 157.5,-153.5 123.5,-153.5"/>
<text text-anchor="middle" x="140.5" y="-160.5" font-family="Helvetica,sans-Serif" font-size="10.00">s32</text>
</a>
</g>
</g>
<!-- Node7&#45;&gt;Node6 -->
<g id="edge6" class="edge">
<title>Node7&#45;&gt;Node6</title>
<path fill="none" stroke="#9a32cd" stroke-dasharray="5,2" d="M167.77,-160.42C208.23,-157 288.11,-152.44 355,-162 362.73,-163.1 370.8,-164.88 378.58,-166.92"/>
<polygon fill="#9a32cd" stroke="#9a32cd" points="167.33,-156.95 157.68,-161.32 167.95,-163.92 167.33,-156.95"/>
<text text-anchor="middle" x="289.5" y="-176" font-family="Helvetica,sans-Serif" font-size="10.00"> X</text>
<text text-anchor="middle" x="289.5" y="-165" font-family="Helvetica,sans-Serif" font-size="10.00">Y</text>
</g>
<!-- Node8&#45;&gt;Node1 -->
<g id="edge8" class="edge">
<title>Node8&#45;&gt;Node1</title>
<path fill="none" stroke="#9a32cd" stroke-dasharray="5,2" d="M365.13,-125.29C416.77,-123.96 487.08,-121.86 549,-119 554.81,-118.73 560.84,-118.42 566.89,-118.09"/>
<polygon fill="#9a32cd" stroke="#9a32cd" points="364.97,-121.79 355.06,-125.55 365.14,-128.79 364.97,-121.79"/>
<text text-anchor="middle" x="424.5" y="-127" font-family="Helvetica,sans-Serif" font-size="10.00"> v3fdata</text>
</g>
<!-- Node9 -->
<g id="node9" class="node">
<title>Node9</title>
<g id="a_node9"><a xlink:title=" ">
<polygon fill="white" stroke="#bfbfbf" points="402.5,-81.5 402.5,-100.5 446.5,-100.5 446.5,-81.5 402.5,-81.5"/>
<text text-anchor="middle" x="424.5" y="-88.5" font-family="Helvetica,sans-Serif" font-size="10.00">string</text>
</a>
</g>
</g>
<!-- Node9&#45;&gt;Node1 -->
<g id="edge10" class="edge">
<title>Node9&#45;&gt;Node1</title>
<path fill="none" stroke="#9a32cd" stroke-dasharray="5,2" d="M456.67,-94.5C485.83,-97.77 530.24,-102.75 566.88,-106.86"/>
<polygon fill="#9a32cd" stroke="#9a32cd" points="456.99,-91.01 446.67,-93.37 456.21,-97.97 456.99,-91.01"/>
<text text-anchor="middle" x="521.5" y="-107" font-family="Helvetica,sans-Serif" font-size="10.00"> sdata</text>
</g>
<!-- Node10 -->
<g id="node10" class="node">
<title>Node10</title>
<g id="a_node10"><a xlink:title=" ">
<polygon fill="white" stroke="#bfbfbf" points="376.5,-43.5 376.5,-62.5 472.5,-62.5 472.5,-43.5 376.5,-43.5"/>
<text text-anchor="middle" x="424.5" y="-50.5" font-family="Helvetica,sans-Serif" font-size="10.00">HudElementStat</text>
</a>
</g>
</g>
<!-- Node10&#45;&gt;Node1 -->
<g id="edge11" class="edge">
<title>Node10&#45;&gt;Node1</title>
<path fill="none" stroke="#9a32cd" stroke-dasharray="5,2" d="M477.96,-64.86C500.04,-70.19 525.92,-76.88 549,-84 568.59,-90.05 590.37,-98.14 606.48,-104.39"/>
<polygon fill="#9a32cd" stroke="#9a32cd" points="478.65,-61.42 468.11,-62.51 477.02,-68.23 478.65,-61.42"/>
<text text-anchor="middle" x="521.5" y="-87" font-family="Helvetica,sans-Serif" font-size="10.00"> stat</text>
</g>
<!-- Node11 -->
<g id="node11" class="node">
<title>Node11</title>
<g id="a_node11"><a xlink:title=" ">
<polygon fill="white" stroke="#bfbfbf" points="407,-0.5 407,-19.5 442,-19.5 442,-0.5 407,-0.5"/>
<text text-anchor="middle" x="424.5" y="-7.5" font-family="Helvetica,sans-Serif" font-size="10.00">u32</text>
</a>
</g>
</g>
<!-- Node11&#45;&gt;Node1 -->
<g id="edge12" class="edge">
<title>Node11&#45;&gt;Node1</title>
<path fill="none" stroke="#9a32cd" stroke-dasharray="5,2" d="M452.57,-13.61C478.51,-17.88 518.14,-26.58 549,-43 579.48,-59.22 608.25,-88.8 622.02,-104.16"/>
<polygon fill="#9a32cd" stroke="#9a32cd" points="452.78,-10.1 442.37,-12.04 451.72,-17.02 452.78,-10.1"/>
<text text-anchor="middle" x="521.5" y="-57" font-family="Helvetica,sans-Serif" font-size="10.00"> data</text>
<text text-anchor="middle" x="521.5" y="-46" font-family="Helvetica,sans-Serif" font-size="10.00">id</text>
</g>
</g>
</svg>
