<?xml version="1.0" encoding="UTF-8" standalone="no"?>
<!DOCTYPE svg PUBLIC "-//W3C//DTD SVG 1.1//EN"
 "http://www.w3.org/Graphics/SVG/1.1/DTD/svg11.dtd">
<!-- Generated by graphviz version 2.43.0 (0)
 -->
<!-- Title: NoiseParams Pages: 1 -->
<svg width="360pt" height="217pt"
 viewBox="0.00 0.00 360.00 217.00" xmlns="http://www.w3.org/2000/svg" xmlns:xlink="http://www.w3.org/1999/xlink">
<g id="graph0" class="graph" transform="scale(1 1) rotate(0) translate(4 213)">
<title>NoiseParams</title>
<polygon fill="white" stroke="transparent" points="-4,4 -4,-213 356,-213 356,4 -4,4"/>
<!-- Node1 -->
<g id="node1" class="node">
<title>Node1</title>
<g id="a_node1"><a xlink:title=" ">
<polygon fill="#bfbfbf" stroke="black" points="140.5,-0.5 140.5,-19.5 220.5,-19.5 220.5,-0.5 140.5,-0.5"/>
<text text-anchor="middle" x="180.5" y="-7.5" font-family="Helvetica,sans-Serif" font-size="10.00">NoiseParams</text>
</a>
</g>
</g>
<!-- Node2 -->
<g id="node2" class="node">
<title>Node2</title>
<g id="a_node2"><a xlink:title=" ">
<polygon fill="white" stroke="#bfbfbf" points="0,-100.5 0,-119.5 35,-119.5 35,-100.5 0,-100.5"/>
<text text-anchor="middle" x="17.5" y="-107.5" font-family="Helvetica,sans-Serif" font-size="10.00">u16</text>
</a>
</g>
</g>
<!-- Node2&#45;&gt;Node1 -->
<g id="edge1" class="edge">
<title>Node2&#45;&gt;Node1</title>
<path fill="none" stroke="#9a32cd" stroke-dasharray="5,2" d="M20.37,-90.5C23.9,-74.2 31.51,-51.08 47.5,-38 61.5,-26.55 106.53,-19.12 140.34,-15.01"/>
<polygon fill="#9a32cd" stroke="#9a32cd" points="16.9,-90.02 18.53,-100.49 23.78,-91.29 16.9,-90.02"/>
<text text-anchor="middle" x="68.5" y="-57.5" font-family="Helvetica,sans-Serif" font-size="10.00"> octaves</text>
</g>
<!-- Node3 -->
<g id="node3" class="node">
<title>Node3</title>
<g id="a_node3"><a xlink:title=" ">
<polygon fill="white" stroke="#bfbfbf" points="58.5,-100.5 58.5,-119.5 96.5,-119.5 96.5,-100.5 58.5,-100.5"/>
<text text-anchor="middle" x="77.5" y="-107.5" font-family="Helvetica,sans-Serif" font-size="10.00">float</text>
</a>
</g>
</g>
<!-- Node3&#45;&gt;Node1 -->
<g id="edge2" class="edge">
<title>Node3&#45;&gt;Node1</title>
<path fill="none" stroke="#9a32cd" stroke-dasharray="5,2" d="M86.88,-90.98C95.69,-75.4 110.12,-53.07 127.5,-38 136.4,-30.29 147.88,-24.09 157.88,-19.59"/>
<polygon fill="#9a32cd" stroke="#9a32cd" points="83.62,-89.64 81.92,-100.1 89.77,-92.98 83.62,-89.64"/>
<text text-anchor="middle" x="152" y="-74" font-family="Helvetica,sans-Serif" font-size="10.00"> persist</text>
<text text-anchor="middle" x="152" y="-63" font-family="Helvetica,sans-Serif" font-size="10.00">offset</text>
<text text-anchor="middle" x="152" y="-52" font-family="Helvetica,sans-Serif" font-size="10.00">scale</text>
<text text-anchor="middle" x="152" y="-41" font-family="Helvetica,sans-Serif" font-size="10.00">lacunarity</text>
</g>
<!-- Node4 -->
<g id="node4" class="node">
<title>Node4</title>
<g id="a_node4"><a xlink:href="classirr_1_1core_1_1vector3d.html" target="_top" xlink:title="3d vector template class with lots of operators and methods.">
<polygon fill="white" stroke="black" points="115,-100.5 115,-119.5 246,-119.5 246,-100.5 115,-100.5"/>
<text text-anchor="middle" x="180.5" y="-107.5" font-family="Helvetica,sans-Serif" font-size="10.00">irr::core::vector3d&lt; T &gt;</text>
</a>
</g>
</g>
<!-- Node4&#45;&gt;Node1 -->
<g id="edge3" class="edge">
<title>Node4&#45;&gt;Node1</title>
<path fill="none" stroke="#9a32cd" stroke-dasharray="5,2" d="M180.5,-90.22C180.5,-68.95 180.5,-35.22 180.5,-19.54"/>
<polygon fill="#9a32cd" stroke="#9a32cd" points="177,-90.3 180.5,-100.3 184,-90.3 177,-90.3"/>
<text text-anchor="middle" x="199" y="-57.5" font-family="Helvetica,sans-Serif" font-size="10.00"> spread</text>
</g>
<!-- Node5 -->
<g id="node5" class="node">
<title>Node5</title>
<g id="a_node5"><a xlink:title=" ">
<polygon fill="white" stroke="#bfbfbf" points="166,-189.5 166,-208.5 195,-208.5 195,-189.5 166,-189.5"/>
<text text-anchor="middle" x="180.5" y="-196.5" font-family="Helvetica,sans-Serif" font-size="10.00">T</text>
</a>
</g>
</g>
<!-- Node5&#45;&gt;Node4 -->
<g id="edge4" class="edge">
<title>Node5&#45;&gt;Node4</title>
<path fill="none" stroke="#9a32cd" stroke-dasharray="5,2" d="M180.5,-179.19C180.5,-160.74 180.5,-133.41 180.5,-119.62"/>
<polygon fill="#9a32cd" stroke="#9a32cd" points="177,-179.34 180.5,-189.34 184,-179.34 177,-179.34"/>
<text text-anchor="middle" x="185.5" y="-163" font-family="Helvetica,sans-Serif" font-size="10.00"> X</text>
<text text-anchor="middle" x="185.5" y="-152" font-family="Helvetica,sans-Serif" font-size="10.00">Y</text>
<text text-anchor="middle" x="185.5" y="-141" font-family="Helvetica,sans-Serif" font-size="10.00">Z</text>
</g>
<!-- Node6 -->
<g id="node6" class="node">
<title>Node6</title>
<g id="a_node6"><a xlink:title=" ">
<polygon fill="white" stroke="#bfbfbf" points="264.5,-100.5 264.5,-119.5 298.5,-119.5 298.5,-100.5 264.5,-100.5"/>
<text text-anchor="middle" x="281.5" y="-107.5" font-family="Helvetica,sans-Serif" font-size="10.00">s32</text>
</a>
</g>
</g>
<!-- Node6&#45;&gt;Node1 -->
<g id="edge5" class="edge">
<title>Node6&#45;&gt;Node1</title>
<path fill="none" stroke="#9a32cd" stroke-dasharray="5,2" d="M269.38,-92.03C258.03,-76.85 240.09,-54.5 221.5,-38 213.59,-30.99 203.73,-24.43 195.66,-19.54"/>
<polygon fill="#9a32cd" stroke="#9a32cd" points="266.8,-94.44 275.53,-100.45 272.45,-90.31 266.8,-94.44"/>
<text text-anchor="middle" x="273" y="-57.5" font-family="Helvetica,sans-Serif" font-size="10.00"> seed</text>
</g>
<!-- Node7 -->
<g id="node7" class="node">
<title>Node7</title>
<g id="a_node7"><a xlink:title=" ">
<polygon fill="white" stroke="#bfbfbf" points="317,-100.5 317,-119.5 352,-119.5 352,-100.5 317,-100.5"/>
<text text-anchor="middle" x="334.5" y="-107.5" font-family="Helvetica,sans-Serif" font-size="10.00">u32</text>
</a>
</g>
</g>
<!-- Node7&#45;&gt;Node1 -->
<g id="edge6" class="edge">
<title>Node7&#45;&gt;Node1</title>
<path fill="none" stroke="#9a32cd" stroke-dasharray="5,2" d="M327.74,-90.49C320.85,-74.22 308.59,-51.15 290.5,-38 270.3,-23.32 243.07,-16.56 220.75,-13.48"/>
<polygon fill="#9a32cd" stroke="#9a32cd" points="324.58,-92.01 331.5,-100.02 331.09,-89.44 324.58,-92.01"/>
<text text-anchor="middle" x="337" y="-57.5" font-family="Helvetica,sans-Serif" font-size="10.00"> flags</text>
</g>
</g>
</svg>
