<?xml version="1.0" encoding="UTF-8" standalone="no"?>
<!DOCTYPE svg PUBLIC "-//W3C//DTD SVG 1.1//EN"
 "http://www.w3.org/Graphics/SVG/1.1/DTD/svg11.dtd">
<!-- Generated by graphviz version 2.43.0 (0)
 -->
<!-- Title: irr::scene::SSkinMeshBuffer Pages: 1 -->
<svg width="158pt" height="140pt"
 viewBox="0.00 0.00 158.00 140.00" xmlns="http://www.w3.org/2000/svg" xmlns:xlink="http://www.w3.org/1999/xlink">
<g id="graph0" class="graph" transform="scale(1 1) rotate(0) translate(4 136)">
<title>irr::scene::SSkinMeshBuffer</title>
<polygon fill="white" stroke="transparent" points="-4,4 -4,-136 154,-136 154,4 -4,4"/>
<!-- Node1 -->
<g id="node1" class="node">
<title>Node1</title>
<g id="a_node1"><a xlink:title="A mesh buffer able to choose between S3DVertex2TCoords, S3DVertex and S3DVertexTangents at runtime.">
<polygon fill="#bfbfbf" stroke="black" points="0,-0.5 0,-19.5 150,-19.5 150,-0.5 0,-0.5"/>
<text text-anchor="middle" x="75" y="-7.5" font-family="Helvetica,sans-Serif" font-size="10.00">irr::scene::SSkinMeshBuffer</text>
</a>
</g>
</g>
<!-- Node2 -->
<g id="node2" class="node">
<title>Node2</title>
<g id="a_node2"><a xlink:href="classirr_1_1scene_1_1IMeshBuffer.html" target="_top" xlink:title="Struct for holding a mesh with a single material.">
<polygon fill="white" stroke="black" points="12,-56.5 12,-75.5 138,-75.5 138,-56.5 12,-56.5"/>
<text text-anchor="middle" x="75" y="-63.5" font-family="Helvetica,sans-Serif" font-size="10.00">irr::scene::IMeshBuffer</text>
</a>
</g>
</g>
<!-- Node2&#45;&gt;Node1 -->
<g id="edge1" class="edge">
<title>Node2&#45;&gt;Node1</title>
<path fill="none" stroke="midnightblue" d="M75,-45.8C75,-36.91 75,-26.78 75,-19.75"/>
<polygon fill="midnightblue" stroke="midnightblue" points="71.5,-46.08 75,-56.08 78.5,-46.08 71.5,-46.08"/>
</g>
<!-- Node3 -->
<g id="node3" class="node">
<title>Node3</title>
<g id="a_node3"><a xlink:href="classirr_1_1IReferenceCounted.html" target="_top" xlink:title="Base class of most objects of the Irrlicht Engine.">
<polygon fill="white" stroke="black" points="12,-112.5 12,-131.5 138,-131.5 138,-112.5 12,-112.5"/>
<text text-anchor="middle" x="75" y="-119.5" font-family="Helvetica,sans-Serif" font-size="10.00">irr::IReferenceCounted</text>
</a>
</g>
</g>
<!-- Node3&#45;&gt;Node2 -->
<g id="edge2" class="edge">
<title>Node3&#45;&gt;Node2</title>
<path fill="none" stroke="midnightblue" d="M75,-101.8C75,-92.91 75,-82.78 75,-75.75"/>
<polygon fill="midnightblue" stroke="midnightblue" points="71.5,-102.08 75,-112.08 78.5,-102.08 71.5,-102.08"/>
</g>
</g>
</svg>
