<?xml version="1.0" encoding="UTF-8" standalone="no"?>
<!DOCTYPE svg PUBLIC "-//W3C//DTD SVG 1.1//EN"
 "http://www.w3.org/Graphics/SVG/1.1/DTD/svg11.dtd">
<!-- Generated by graphviz version 2.43.0 (0)
 -->
<!-- Title: TileLayer Pages: 1 -->
<svg width="1342pt" height="511pt"
 viewBox="0.00 0.00 1342.00 511.17" xmlns="http://www.w3.org/2000/svg" xmlns:xlink="http://www.w3.org/1999/xlink">
<g id="graph0" class="graph" transform="scale(1 1) rotate(0) translate(4 507.17)">
<title>TileLayer</title>
<polygon fill="white" stroke="transparent" points="-4,4 -4,-507.17 1338,-507.17 1338,4 -4,4"/>
<!-- Node1 -->
<g id="node1" class="node">
<title>Node1</title>
<g id="a_node1"><a xlink:title="Defines a layer of a tile.">
<polygon fill="#bfbfbf" stroke="black" points="1272,-186.67 1272,-205.67 1334,-205.67 1334,-186.67 1272,-186.67"/>
<text text-anchor="middle" x="1303" y="-193.67" font-family="Helvetica,sans-Serif" font-size="10.00">TileLayer</text>
</a>
</g>
</g>
<!-- Node2 -->
<g id="node2" class="node">
<title>Node2</title>
<g id="a_node2"><a xlink:href="classirr_1_1video_1_1SColor.html" target="_top" xlink:title="Class representing a 32 bit ARGB color.">
<polygon fill="white" stroke="black" points="846.5,-433.67 846.5,-452.67 944.5,-452.67 944.5,-433.67 846.5,-433.67"/>
<text text-anchor="middle" x="895.5" y="-440.67" font-family="Helvetica,sans-Serif" font-size="10.00">irr::video::SColor</text>
</a>
</g>
</g>
<!-- Node2&#45;&gt;Node1 -->
<g id="edge1" class="edge">
<title>Node2&#45;&gt;Node1</title>
<path fill="none" stroke="#9a32cd" stroke-dasharray="5,2" d="M954.96,-442.78C1033.29,-439.08 1171.9,-420.87 1254,-342.17 1293.87,-303.95 1300.65,-232.08 1301.78,-205.97"/>
<polygon fill="#9a32cd" stroke="#9a32cd" points="954.64,-439.29 944.79,-443.2 954.93,-446.29 954.64,-439.29"/>
<text text-anchor="middle" x="1029" y="-445.17" font-family="Helvetica,sans-Serif" font-size="10.00"> color</text>
</g>
<!-- Node3 -->
<g id="node3" class="node">
<title>Node3</title>
<g id="a_node3"><a xlink:title=" ">
<polygon fill="white" stroke="#bfbfbf" points="471,-329.67 471,-348.67 527,-348.67 527,-329.67 471,-329.67"/>
<text text-anchor="middle" x="499" y="-336.67" font-family="Helvetica,sans-Serif" font-size="10.00">uint32_t</text>
</a>
</g>
</g>
<!-- Node3&#45;&gt;Node2 -->
<g id="edge2" class="edge">
<title>Node3&#45;&gt;Node2</title>
<path fill="none" stroke="#9a32cd" stroke-dasharray="5,2" d="M536.68,-350.25C577.05,-362.3 643.93,-381.91 702,-397.17 753.51,-410.72 813.21,-424.72 852.31,-433.67"/>
<polygon fill="#9a32cd" stroke="#9a32cd" points="537.6,-346.87 527.01,-347.35 535.59,-353.57 537.6,-346.87"/>
<text text-anchor="middle" x="638.5" y="-394.17" font-family="Helvetica,sans-Serif" font-size="10.00"> color</text>
</g>
<!-- Node6 -->
<g id="node6" class="node">
<title>Node6</title>
<g id="a_node6"><a xlink:href="classirr_1_1video_1_1ITexture.html" target="_top" xlink:title="Interface of a Video Driver dependent Texture.">
<polygon fill="white" stroke="black" points="976.5,-204.67 976.5,-223.67 1081.5,-223.67 1081.5,-204.67 976.5,-204.67"/>
<text text-anchor="middle" x="1029" y="-211.67" font-family="Helvetica,sans-Serif" font-size="10.00">irr::video::ITexture</text>
</a>
</g>
</g>
<!-- Node3&#45;&gt;Node6 -->
<g id="edge16" class="edge">
<title>Node3&#45;&gt;Node6</title>
<path fill="none" stroke="#9a32cd" stroke-dasharray="5,2" d="M537.28,-339.15C638.72,-338.75 914.22,-335.25 945,-309.17 971.49,-286.74 939.1,-258.35 963,-233.17 966.8,-229.17 971.4,-225.99 976.38,-223.48"/>
<polygon fill="#9a32cd" stroke="#9a32cd" points="537.17,-335.65 527.18,-339.18 537.19,-342.65 537.17,-335.65"/>
<text text-anchor="middle" x="765" y="-339.17" font-family="Helvetica,sans-Serif" font-size="10.00"> Pitch</text>
</g>
<!-- Node10 -->
<g id="node10" class="node">
<title>Node10</title>
<g id="a_node10"><a xlink:href="classirr_1_1core_1_1dimension2d.html" target="_top" xlink:title=" ">
<polygon fill="white" stroke="black" points="703.5,-196.17 703.5,-226.17 826.5,-226.17 826.5,-196.17 703.5,-196.17"/>
<text text-anchor="start" x="711.5" y="-214.17" font-family="Helvetica,sans-Serif" font-size="10.00">irr::core::dimension2d</text>
<text text-anchor="middle" x="765" y="-203.17" font-family="Helvetica,sans-Serif" font-size="10.00">&lt; u32 &gt;</text>
</a>
</g>
</g>
<!-- Node3&#45;&gt;Node10 -->
<g id="edge10" class="edge">
<title>Node3&#45;&gt;Node10</title>
<path fill="none" stroke="#9a32cd" stroke-dasharray="5,2" d="M526.53,-324.7C564.79,-304.03 637.93,-265.36 702,-236.17 709.39,-232.81 717.38,-229.41 725.08,-226.26"/>
<polygon fill="#9a32cd" stroke="#9a32cd" points="524.7,-321.71 517.58,-329.55 528.04,-327.86 524.7,-321.71"/>
<text text-anchor="middle" x="638.5" y="-301.17" font-family="Helvetica,sans-Serif" font-size="10.00"> Width</text>
<text text-anchor="middle" x="638.5" y="-290.17" font-family="Helvetica,sans-Serif" font-size="10.00">Height</text>
</g>
<!-- Node4 -->
<g id="node4" class="node">
<title>Node4</title>
<g id="a_node4"><a xlink:title=" ">
<polygon fill="white" stroke="#bfbfbf" points="1011.5,-298.67 1011.5,-317.67 1046.5,-317.67 1046.5,-298.67 1011.5,-298.67"/>
<text text-anchor="middle" x="1029" y="-305.67" font-family="Helvetica,sans-Serif" font-size="10.00">u16</text>
</a>
</g>
</g>
<!-- Node4&#45;&gt;Node1 -->
<g id="edge3" class="edge">
<title>Node4&#45;&gt;Node1</title>
<path fill="none" stroke="#9a32cd" stroke-dasharray="5,2" d="M1056.74,-312.73C1101.62,-318.88 1193.16,-324.83 1254,-284.17 1282.07,-265.42 1295.16,-224.55 1299.86,-205.86"/>
<polygon fill="#9a32cd" stroke="#9a32cd" points="1057.04,-309.24 1046.63,-311.23 1056.01,-316.16 1057.04,-309.24"/>
<text text-anchor="middle" x="1183.5" y="-330.17" font-family="Helvetica,sans-Serif" font-size="10.00"> animation_frame_count</text>
<text text-anchor="middle" x="1183.5" y="-319.17" font-family="Helvetica,sans-Serif" font-size="10.00">animation_frame_length_ms</text>
</g>
<!-- Node5 -->
<g id="node5" class="node">
<title>Node5</title>
<g id="a_node5"><a xlink:title=" ">
<polygon fill="white" stroke="#bfbfbf" points="1014.5,-242.67 1014.5,-261.67 1043.5,-261.67 1043.5,-242.67 1014.5,-242.67"/>
<text text-anchor="middle" x="1029" y="-249.67" font-family="Helvetica,sans-Serif" font-size="10.00">u8</text>
</a>
</g>
</g>
<!-- Node5&#45;&gt;Node1 -->
<g id="edge4" class="edge">
<title>Node5&#45;&gt;Node1</title>
<path fill="none" stroke="#9a32cd" stroke-dasharray="5,2" d="M1053.68,-251.38C1103.55,-249.46 1217.75,-243.7 1254,-230.17 1268.54,-224.75 1282.74,-213.78 1291.87,-205.76"/>
<polygon fill="#9a32cd" stroke="#9a32cd" points="1053.4,-247.89 1043.54,-251.75 1053.66,-254.88 1053.4,-247.89"/>
<text text-anchor="middle" x="1183.5" y="-272.17" font-family="Helvetica,sans-Serif" font-size="10.00"> scale</text>
<text text-anchor="middle" x="1183.5" y="-261.17" font-family="Helvetica,sans-Serif" font-size="10.00">material_flags</text>
<text text-anchor="middle" x="1183.5" y="-250.17" font-family="Helvetica,sans-Serif" font-size="10.00">material_type</text>
</g>
<!-- Node6&#45;&gt;Node1 -->
<g id="edge5" class="edge">
<title>Node6&#45;&gt;Node1</title>
<path fill="none" stroke="#9a32cd" stroke-dasharray="5,2" d="M1078.66,-202.54C1089.87,-200.33 1101.8,-198.34 1113,-197.17 1168.81,-191.37 1234.39,-192.87 1271.79,-194.51"/>
<polygon fill="#9a32cd" stroke="#9a32cd" points="1077.69,-199.17 1068.6,-204.63 1079.1,-206.03 1077.69,-199.17"/>
<text text-anchor="middle" x="1183.5" y="-222.17" font-family="Helvetica,sans-Serif" font-size="10.00"> normal_texture</text>
<text text-anchor="middle" x="1183.5" y="-211.17" font-family="Helvetica,sans-Serif" font-size="10.00">texture</text>
<text text-anchor="middle" x="1183.5" y="-200.17" font-family="Helvetica,sans-Serif" font-size="10.00">flags_texture</text>
</g>
<!-- Node7 -->
<g id="node7" class="node">
<title>Node7</title>
<g id="a_node7"><a xlink:href="classirr_1_1IReferenceCounted.html" target="_top" xlink:title="Base class of most objects of the Irrlicht Engine.">
<polygon fill="white" stroke="black" points="702,-157.67 702,-176.67 828,-176.67 828,-157.67 702,-157.67"/>
<text text-anchor="middle" x="765" y="-164.67" font-family="Helvetica,sans-Serif" font-size="10.00">irr::IReferenceCounted</text>
</a>
</g>
</g>
<!-- Node7&#45;&gt;Node6 -->
<g id="edge6" class="edge">
<title>Node7&#45;&gt;Node6</title>
<path fill="none" stroke="midnightblue" d="M828.99,-178.47C874.1,-186.57 934.11,-197.33 976.4,-204.92"/>
<polygon fill="midnightblue" stroke="midnightblue" points="829.48,-175.01 819.02,-176.69 828.24,-181.9 829.48,-175.01"/>
</g>
<!-- Node8 -->
<g id="node8" class="node">
<title>Node8</title>
<g id="a_node8"><a xlink:title=" ">
<polygon fill="white" stroke="#bfbfbf" points="480,-122.67 480,-141.67 518,-141.67 518,-122.67 480,-122.67"/>
<text text-anchor="middle" x="499" y="-129.67" font-family="Helvetica,sans-Serif" font-size="10.00">char</text>
</a>
</g>
</g>
<!-- Node8&#45;&gt;Node7 -->
<g id="edge7" class="edge">
<title>Node8&#45;&gt;Node7</title>
<path fill="none" stroke="#9a32cd" stroke-dasharray="5,2" d="M528.37,-134.57C564.58,-137.79 629.12,-144.06 684,-152.17 694.48,-153.72 705.69,-155.65 716.3,-157.61"/>
<polygon fill="#9a32cd" stroke="#9a32cd" points="528.35,-131.06 518.08,-133.67 527.74,-138.03 528.35,-131.06"/>
<text text-anchor="middle" x="638.5" y="-155.17" font-family="Helvetica,sans-Serif" font-size="10.00"> DebugName</text>
</g>
<!-- Node9 -->
<g id="node9" class="node">
<title>Node9</title>
<g id="a_node9"><a xlink:title=" ">
<polygon fill="white" stroke="#bfbfbf" points="474,-160.67 474,-179.67 524,-179.67 524,-160.67 474,-160.67"/>
<text text-anchor="middle" x="499" y="-167.67" font-family="Helvetica,sans-Serif" font-size="10.00">int32_t</text>
</a>
</g>
</g>
<!-- Node9&#45;&gt;Node7 -->
<g id="edge8" class="edge">
<title>Node9&#45;&gt;Node7</title>
<path fill="none" stroke="#9a32cd" stroke-dasharray="5,2" d="M534.46,-169.78C576.87,-169.3 649.66,-168.47 701.92,-167.88"/>
<polygon fill="#9a32cd" stroke="#9a32cd" points="534.32,-166.28 524.36,-169.9 534.4,-173.28 534.32,-166.28"/>
<text text-anchor="middle" x="638.5" y="-171.17" font-family="Helvetica,sans-Serif" font-size="10.00"> ReferenceCounter</text>
</g>
<!-- Node10&#45;&gt;Node6 -->
<g id="edge9" class="edge">
<title>Node10&#45;&gt;Node6</title>
<path fill="none" stroke="#9a32cd" stroke-dasharray="5,2" d="M836.84,-211.99C880.88,-212.49 936.52,-213.13 976.39,-213.58"/>
<polygon fill="#9a32cd" stroke="#9a32cd" points="836.81,-208.48 826.77,-211.87 836.73,-215.48 836.81,-208.48"/>
<text text-anchor="middle" x="895.5" y="-227.17" font-family="Helvetica,sans-Serif" font-size="10.00"> Size</text>
<text text-anchor="middle" x="895.5" y="-216.17" font-family="Helvetica,sans-Serif" font-size="10.00">OriginalSize</text>
</g>
<!-- Node11 -->
<g id="node11" class="node">
<title>Node11</title>
<g id="a_node11"><a xlink:href="classirr_1_1core_1_1dimension2d.html" target="_top" xlink:title="Specifies a 2 dimensional size.">
<polygon fill="white" stroke="black" points="423,-201.67 423,-220.67 575,-220.67 575,-201.67 423,-201.67"/>
<text text-anchor="middle" x="499" y="-208.67" font-family="Helvetica,sans-Serif" font-size="10.00">irr::core::dimension2d&lt; T &gt;</text>
</a>
</g>
</g>
<!-- Node11&#45;&gt;Node10 -->
<g id="edge11" class="edge">
<title>Node11&#45;&gt;Node10</title>
<path fill="none" stroke="orange" stroke-dasharray="5,2" d="M585.44,-211.17C623.86,-211.17 668.31,-211.17 703.25,-211.17"/>
<polygon fill="orange" stroke="orange" points="585.3,-207.67 575.3,-211.17 585.3,-214.67 585.3,-207.67"/>
<text text-anchor="middle" x="638.5" y="-214.17" font-family="Helvetica,sans-Serif" font-size="10.00"> &lt; u32 &gt;</text>
</g>
<!-- Node12 -->
<g id="node12" class="node">
<title>Node12</title>
<g id="a_node12"><a xlink:title=" ">
<polygon fill="white" stroke="#bfbfbf" points="239,-201.67 239,-220.67 268,-220.67 268,-201.67 239,-201.67"/>
<text text-anchor="middle" x="253.5" y="-208.67" font-family="Helvetica,sans-Serif" font-size="10.00">T</text>
</a>
</g>
</g>
<!-- Node12&#45;&gt;Node11 -->
<g id="edge12" class="edge">
<title>Node12&#45;&gt;Node11</title>
<path fill="none" stroke="#9a32cd" stroke-dasharray="5,2" d="M278.42,-211.17C311.67,-211.17 373.37,-211.17 422.92,-211.17"/>
<polygon fill="#9a32cd" stroke="#9a32cd" points="278.29,-207.67 268.29,-211.17 278.29,-214.67 278.29,-207.67"/>
<text text-anchor="middle" x="372.5" y="-225.17" font-family="Helvetica,sans-Serif" font-size="10.00"> Width</text>
<text text-anchor="middle" x="372.5" y="-214.17" font-family="Helvetica,sans-Serif" font-size="10.00">Height</text>
</g>
<!-- Node13 -->
<g id="node13" class="node">
<title>Node13</title>
<g id="a_node13"><a xlink:title=" ">
<polygon fill="white" stroke="#bfbfbf" points="705.5,-75.67 705.5,-94.67 824.5,-94.67 824.5,-75.67 705.5,-75.67"/>
<text text-anchor="middle" x="765" y="-82.67" font-family="Helvetica,sans-Serif" font-size="10.00">E_TEXTURE_SOURCE</text>
</a>
</g>
</g>
<!-- Node13&#45;&gt;Node6 -->
<g id="edge13" class="edge">
<title>Node13&#45;&gt;Node6</title>
<path fill="none" stroke="#9a32cd" stroke-dasharray="5,2" d="M834.74,-86.61C869.7,-89.94 911.71,-98.12 945,-117.17 982.89,-138.87 1011.62,-184.61 1022.84,-204.55"/>
<polygon fill="#9a32cd" stroke="#9a32cd" points="834.87,-83.11 824.61,-85.76 834.28,-90.08 834.87,-83.11"/>
<text text-anchor="middle" x="895.5" y="-120.17" font-family="Helvetica,sans-Serif" font-size="10.00"> Source</text>
</g>
<!-- Node14 -->
<g id="node14" class="node">
<title>Node14</title>
<g id="a_node14"><a xlink:title=" ">
<polygon fill="white" stroke="#bfbfbf" points="713.5,-368.67 713.5,-387.67 816.5,-387.67 816.5,-368.67 713.5,-368.67"/>
<text text-anchor="middle" x="765" y="-375.67" font-family="Helvetica,sans-Serif" font-size="10.00">ECOLOR_FORMAT</text>
</a>
</g>
</g>
<!-- Node14&#45;&gt;Node6 -->
<g id="edge14" class="edge">
<title>Node14&#45;&gt;Node6</title>
<path fill="none" stroke="#9a32cd" stroke-dasharray="5,2" d="M826.72,-372.22C875.27,-366.89 936.58,-358.62 945,-350.17 982.16,-312.93 928.33,-272.74 963,-233.17 966.72,-228.93 971.33,-225.61 976.36,-223.01"/>
<polygon fill="#9a32cd" stroke="#9a32cd" points="826.15,-368.77 816.58,-373.32 826.9,-375.73 826.15,-368.77"/>
<text text-anchor="middle" x="895.5" y="-383.17" font-family="Helvetica,sans-Serif" font-size="10.00"> ColorFormat</text>
<text text-anchor="middle" x="895.5" y="-372.17" font-family="Helvetica,sans-Serif" font-size="10.00">OriginalColorFormat</text>
</g>
<!-- Node15 -->
<g id="node15" class="node">
<title>Node15</title>
<g id="a_node15"><a xlink:title=" ">
<polygon fill="white" stroke="#bfbfbf" points="718,-283.67 718,-302.67 812,-302.67 812,-283.67 718,-283.67"/>
<text text-anchor="middle" x="765" y="-290.67" font-family="Helvetica,sans-Serif" font-size="10.00">E_DRIVER_TYPE</text>
</a>
</g>
</g>
<!-- Node15&#45;&gt;Node6 -->
<g id="edge15" class="edge">
<title>Node15&#45;&gt;Node6</title>
<path fill="none" stroke="#9a32cd" stroke-dasharray="5,2" d="M822.58,-296.06C860.3,-295.26 909.32,-288.72 945,-264.17 958.13,-255.14 950.46,-243 963,-233.17 968,-229.26 973.78,-226.15 979.79,-223.68"/>
<polygon fill="#9a32cd" stroke="#9a32cd" points="822.23,-292.56 812.26,-296.14 822.28,-299.56 822.23,-292.56"/>
<text text-anchor="middle" x="895.5" y="-297.17" font-family="Helvetica,sans-Serif" font-size="10.00"> DriverType</text>
</g>
<!-- Node16 -->
<g id="node16" class="node">
<title>Node16</title>
<g id="a_node16"><a xlink:href="structirr_1_1io_1_1SNamedPath.html" target="_top" xlink:title="Used in places where we identify objects by a filename, but don&#39;t actually work with the real filenam...">
<polygon fill="white" stroke="black" points="710,-444.67 710,-463.67 820,-463.67 820,-444.67 710,-444.67"/>
<text text-anchor="middle" x="765" y="-451.67" font-family="Helvetica,sans-Serif" font-size="10.00">irr::io::SNamedPath</text>
</a>
</g>
</g>
<!-- Node16&#45;&gt;Node6 -->
<g id="edge17" class="edge">
<title>Node16&#45;&gt;Node6</title>
<path fill="none" stroke="#9a32cd" stroke-dasharray="5,2" d="M791.89,-439.97C807.24,-432.04 827.3,-422.5 846,-416.17 888.61,-401.76 914.8,-428.5 945,-395.17 993.64,-341.49 916.41,-288.65 963,-233.17 966.7,-228.76 971.37,-225.34 976.5,-222.7"/>
<polygon fill="#9a32cd" stroke="#9a32cd" points="790.2,-436.9 782.99,-444.66 793.47,-443.1 790.2,-436.9"/>
<text text-anchor="middle" x="895.5" y="-419.17" font-family="Helvetica,sans-Serif" font-size="10.00"> NamedPath</text>
</g>
<!-- Node17 -->
<g id="node17" class="node">
<title>Node17</title>
<g id="a_node17"><a xlink:href="classirr_1_1core_1_1string.html" target="_top" xlink:title=" ">
<polygon fill="white" stroke="black" points="451,-439.17 451,-469.17 547,-469.17 547,-439.17 451,-439.17"/>
<text text-anchor="start" x="459" y="-457.17" font-family="Helvetica,sans-Serif" font-size="10.00">irr::core::string&lt;</text>
<text text-anchor="middle" x="499" y="-446.17" font-family="Helvetica,sans-Serif" font-size="10.00"> fschar_t &gt;</text>
</a>
</g>
</g>
<!-- Node17&#45;&gt;Node16 -->
<g id="edge18" class="edge">
<title>Node17&#45;&gt;Node16</title>
<path fill="none" stroke="#9a32cd" stroke-dasharray="5,2" d="M557.45,-454.17C602.77,-454.17 665.51,-454.17 709.93,-454.17"/>
<polygon fill="#9a32cd" stroke="#9a32cd" points="557.2,-450.67 547.2,-454.17 557.2,-457.67 557.2,-450.67"/>
<text text-anchor="middle" x="638.5" y="-468.17" font-family="Helvetica,sans-Serif" font-size="10.00"> Path</text>
<text text-anchor="middle" x="638.5" y="-457.17" font-family="Helvetica,sans-Serif" font-size="10.00">InternalName</text>
</g>
<!-- Node18 -->
<g id="node18" class="node">
<title>Node18</title>
<g id="a_node18"><a xlink:title=" ">
<polygon fill="white" stroke="#bfbfbf" points="185,-483.67 185,-502.67 322,-502.67 322,-483.67 185,-483.67"/>
<text text-anchor="middle" x="253.5" y="-490.67" font-family="Helvetica,sans-Serif" font-size="10.00">basic_string&lt; fschar_t &gt;</text>
</a>
</g>
</g>
<!-- Node18&#45;&gt;Node17 -->
<g id="edge19" class="edge">
<title>Node18&#45;&gt;Node17</title>
<path fill="none" stroke="#9a32cd" stroke-dasharray="5,2" d="M324.17,-482.02C364.76,-475.51 414.87,-467.49 450.84,-461.73"/>
<polygon fill="#9a32cd" stroke="#9a32cd" points="323.39,-478.6 314.07,-483.63 324.49,-485.51 323.39,-478.6"/>
<text text-anchor="middle" x="372.5" y="-482.17" font-family="Helvetica,sans-Serif" font-size="10.00"> str</text>
</g>
<!-- Node19 -->
<g id="node19" class="node">
<title>Node19</title>
<g id="a_node19"><a xlink:title=" ">
<polygon fill="white" stroke="#bfbfbf" points="0,-433.67 0,-452.67 122,-452.67 122,-433.67 0,-433.67"/>
<text text-anchor="middle" x="61" y="-440.67" font-family="Helvetica,sans-Serif" font-size="10.00">static const size_type</text>
</a>
</g>
</g>
<!-- Node19&#45;&gt;Node17 -->
<g id="edge20" class="edge">
<title>Node19&#45;&gt;Node17</title>
<path fill="none" stroke="#9a32cd" stroke-dasharray="5,2" d="M132.23,-444.95C221.74,-447.2 374.05,-451.05 450.81,-452.98"/>
<polygon fill="#9a32cd" stroke="#9a32cd" points="132.25,-441.45 122.17,-444.69 132.07,-448.44 132.25,-441.45"/>
<text text-anchor="middle" x="253.5" y="-452.17" font-family="Helvetica,sans-Serif" font-size="10.00"> npos</text>
</g>
<!-- Node20 -->
<g id="node20" class="node">
<title>Node20</title>
<g id="a_node20"><a xlink:href="classirr_1_1core_1_1string.html" target="_top" xlink:title="Very simple string class with some useful features.">
<polygon fill="white" stroke="black" points="195.5,-398.67 195.5,-417.67 311.5,-417.67 311.5,-398.67 195.5,-398.67"/>
<text text-anchor="middle" x="253.5" y="-405.67" font-family="Helvetica,sans-Serif" font-size="10.00">irr::core::string&lt; T &gt;</text>
</a>
</g>
</g>
<!-- Node19&#45;&gt;Node20 -->
<g id="edge23" class="edge">
<title>Node19&#45;&gt;Node20</title>
<path fill="none" stroke="#9a32cd" stroke-dasharray="5,2" d="M123.85,-431.81C148.68,-427.25 176.98,-422.05 200.71,-417.69"/>
<polygon fill="#9a32cd" stroke="#9a32cd" points="123.01,-428.41 113.8,-433.66 124.27,-435.29 123.01,-428.41"/>
<text text-anchor="middle" x="153.5" y="-431.17" font-family="Helvetica,sans-Serif" font-size="10.00"> npos</text>
</g>
<!-- Node20&#45;&gt;Node17 -->
<g id="edge21" class="edge">
<title>Node20&#45;&gt;Node17</title>
<path fill="none" stroke="orange" stroke-dasharray="5,2" d="M321.77,-415.75C347.88,-419.16 377.95,-423.67 405,-429.17 420.07,-432.24 436.32,-436.33 450.96,-440.31"/>
<polygon fill="orange" stroke="orange" points="321.96,-412.25 311.6,-414.45 321.07,-419.19 321.96,-412.25"/>
<text text-anchor="middle" x="372.5" y="-432.17" font-family="Helvetica,sans-Serif" font-size="10.00"> &lt; fschar_t &gt;</text>
</g>
<!-- Node21 -->
<g id="node21" class="node">
<title>Node21</title>
<g id="a_node21"><a xlink:title=" ">
<polygon fill="white" stroke="#bfbfbf" points="9,-384.67 9,-403.67 113,-403.67 113,-384.67 9,-384.67"/>
<text text-anchor="middle" x="61" y="-391.67" font-family="Helvetica,sans-Serif" font-size="10.00">basic_string&lt; T &gt;</text>
</a>
</g>
</g>
<!-- Node21&#45;&gt;Node20 -->
<g id="edge22" class="edge">
<title>Node21&#45;&gt;Node20</title>
<path fill="none" stroke="#9a32cd" stroke-dasharray="5,2" d="M123.33,-393.3C137.68,-393.5 152.89,-394.04 167,-395.17 176.88,-395.97 187.35,-397.22 197.44,-398.63"/>
<polygon fill="#9a32cd" stroke="#9a32cd" points="123.1,-389.8 113.07,-393.21 123.04,-396.8 123.1,-389.8"/>
<text text-anchor="middle" x="153.5" y="-398.17" font-family="Helvetica,sans-Serif" font-size="10.00"> str</text>
</g>
<!-- Node22 -->
<g id="node22" class="node">
<title>Node22</title>
<g id="a_node22"><a xlink:href="classbool.html" target="_top" xlink:title=" ">
<polygon fill="white" stroke="black" points="746,-116.67 746,-135.67 784,-135.67 784,-116.67 746,-116.67"/>
<text text-anchor="middle" x="765" y="-123.67" font-family="Helvetica,sans-Serif" font-size="10.00">bool</text>
</a>
</g>
</g>
<!-- Node22&#45;&gt;Node1 -->
<g id="edge26" class="edge">
<title>Node22&#45;&gt;Node1</title>
<path fill="none" stroke="#9a32cd" stroke-dasharray="5,2" d="M794.15,-124.95C829.48,-123.78 891.89,-122.86 945,-128.17 1067.42,-140.42 1210.48,-173.46 1271.7,-188.52"/>
<polygon fill="#9a32cd" stroke="#9a32cd" points="793.96,-121.46 784.1,-125.32 794.22,-128.45 793.96,-121.46"/>
<text text-anchor="middle" x="1029" y="-152.17" font-family="Helvetica,sans-Serif" font-size="10.00"> has_color</text>
</g>
<!-- Node22&#45;&gt;Node6 -->
<g id="edge24" class="edge">
<title>Node22&#45;&gt;Node6</title>
<path fill="none" stroke="#9a32cd" stroke-dasharray="5,2" d="M794.56,-127.1C830.8,-129.13 894.64,-135.59 945,-156.17 973.97,-168.01 1002.78,-191.43 1017.65,-204.6"/>
<polygon fill="#9a32cd" stroke="#9a32cd" points="794.4,-123.59 784.25,-126.6 794.06,-130.58 794.4,-123.59"/>
<text text-anchor="middle" x="895.5" y="-170.17" font-family="Helvetica,sans-Serif" font-size="10.00"> IsRenderTarget</text>
<text text-anchor="middle" x="895.5" y="-159.17" font-family="Helvetica,sans-Serif" font-size="10.00">HasMipMaps</text>
</g>
<!-- Node23 -->
<g id="node23" class="node">
<title>Node23</title>
<g id="a_node23"><a xlink:title=" ">
<polygon fill="white" stroke="#bfbfbf" points="714,-245.67 714,-264.67 816,-264.67 816,-245.67 714,-245.67"/>
<text text-anchor="middle" x="765" y="-252.67" font-family="Helvetica,sans-Serif" font-size="10.00">E_TEXTURE_TYPE</text>
</a>
</g>
</g>
<!-- Node23&#45;&gt;Node6 -->
<g id="edge25" class="edge">
<title>Node23&#45;&gt;Node6</title>
<path fill="none" stroke="#9a32cd" stroke-dasharray="5,2" d="M826.13,-251.69C861.04,-249.03 905.74,-244.53 945,-237.17 954.77,-235.34 976.79,-229.21 995.7,-223.73"/>
<polygon fill="#9a32cd" stroke="#9a32cd" points="825.81,-248.2 816.09,-252.42 826.32,-255.19 825.81,-248.2"/>
<text text-anchor="middle" x="895.5" y="-252.17" font-family="Helvetica,sans-Serif" font-size="10.00"> Type</text>
</g>
<!-- Node24 -->
<g id="node24" class="node">
<title>Node24</title>
<g id="a_node24"><a xlink:title=" ">
<polygon fill="white" stroke="#bfbfbf" points="963,-55.67 963,-74.67 1095,-74.67 1095,-55.67 963,-55.67"/>
<text text-anchor="middle" x="1029" y="-62.67" font-family="Helvetica,sans-Serif" font-size="10.00">vector&lt; FrameSpec &gt; *</text>
</a>
</g>
</g>
<!-- Node24&#45;&gt;Node1 -->
<g id="edge27" class="edge">
<title>Node24&#45;&gt;Node1</title>
<path fill="none" stroke="#9a32cd" stroke-dasharray="5,2" d="M1095.64,-54.72C1143.88,-50.7 1208.65,-53.36 1254,-86.17 1287.93,-110.73 1298.17,-164.54 1301,-186.52"/>
<polygon fill="#9a32cd" stroke="#9a32cd" points="1095.24,-51.25 1085.61,-55.67 1095.9,-58.21 1095.24,-51.25"/>
<text text-anchor="middle" x="1183.5" y="-89.17" font-family="Helvetica,sans-Serif" font-size="10.00"> frames</text>
</g>
<!-- Node25 -->
<g id="node25" class="node">
<title>Node25</title>
<g id="a_node25"><a xlink:title=" ">
<polygon fill="white" stroke="#bfbfbf" points="1011.5,-14.67 1011.5,-33.67 1046.5,-33.67 1046.5,-14.67 1011.5,-14.67"/>
<text text-anchor="middle" x="1029" y="-21.67" font-family="Helvetica,sans-Serif" font-size="10.00">u32</text>
</a>
</g>
</g>
<!-- Node25&#45;&gt;Node1 -->
<g id="edge28" class="edge">
<title>Node25&#45;&gt;Node1</title>
<path fill="none" stroke="#9a32cd" stroke-dasharray="5,2" d="M1056.5,-15.51C1102.06,-2.41 1195.92,16.46 1254,-28.17 1279.98,-48.14 1296.29,-154.01 1300.75,-186.61"/>
<polygon fill="#9a32cd" stroke="#9a32cd" points="1055.35,-12.2 1046.78,-18.43 1057.36,-18.91 1055.35,-12.2"/>
<text text-anchor="middle" x="1183.5" y="-42.17" font-family="Helvetica,sans-Serif" font-size="10.00"> shader_id</text>
<text text-anchor="middle" x="1183.5" y="-31.17" font-family="Helvetica,sans-Serif" font-size="10.00">texture_id</text>
</g>
</g>
</svg>
