<?xml version="1.0" encoding="UTF-8" standalone="no"?>
<!DOCTYPE svg PUBLIC "-//W3C//DTD SVG 1.1//EN"
 "http://www.w3.org/Graphics/SVG/1.1/DTD/svg11.dtd">
<!-- Generated by graphviz version 2.43.0 (0)
 -->
<!-- Title: irr::scene::SMesh Pages: 1 -->
<svg width="997pt" height="297pt"
 viewBox="0.00 0.00 997.00 297.00" xmlns="http://www.w3.org/2000/svg" xmlns:xlink="http://www.w3.org/1999/xlink">
<g id="graph0" class="graph" transform="scale(1 1) rotate(0) translate(4 293)">
<title>irr::scene::SMesh</title>
<polygon fill="white" stroke="transparent" points="-4,4 -4,-293 993,-293 993,4 -4,4"/>
<!-- Node1 -->
<g id="node1" class="node">
<title>Node1</title>
<g id="a_node1"><a xlink:title="Simple implementation of the IMesh interface.">
<polygon fill="#bfbfbf" stroke="black" points="889,-149.5 889,-168.5 989,-168.5 989,-149.5 889,-149.5"/>
<text text-anchor="middle" x="939" y="-156.5" font-family="Helvetica,sans-Serif" font-size="10.00">irr::scene::SMesh</text>
</a>
</g>
</g>
<!-- Node2 -->
<g id="node2" class="node">
<title>Node2</title>
<g id="a_node2"><a xlink:href="classirr_1_1scene_1_1IMesh.html" target="_top" xlink:title="Class which holds the geometry of an object.">
<polygon fill="white" stroke="black" points="669,-206.5 669,-225.5 766,-225.5 766,-206.5 669,-206.5"/>
<text text-anchor="middle" x="717.5" y="-213.5" font-family="Helvetica,sans-Serif" font-size="10.00">irr::scene::IMesh</text>
</a>
</g>
</g>
<!-- Node2&#45;&gt;Node1 -->
<g id="edge1" class="edge">
<title>Node2&#45;&gt;Node1</title>
<path fill="none" stroke="midnightblue" d="M765.16,-203.88C805.74,-193.35 863.74,-178.28 901.14,-168.57"/>
<polygon fill="midnightblue" stroke="midnightblue" points="764.04,-200.56 755.24,-206.46 765.8,-207.33 764.04,-200.56"/>
</g>
<!-- Node3 -->
<g id="node3" class="node">
<title>Node3</title>
<g id="a_node3"><a xlink:href="classirr_1_1IReferenceCounted.html" target="_top" xlink:title="Base class of most objects of the Irrlicht Engine.">
<polygon fill="white" stroke="black" points="338.5,-234.5 338.5,-253.5 464.5,-253.5 464.5,-234.5 338.5,-234.5"/>
<text text-anchor="middle" x="401.5" y="-241.5" font-family="Helvetica,sans-Serif" font-size="10.00">irr::IReferenceCounted</text>
</a>
</g>
</g>
<!-- Node3&#45;&gt;Node2 -->
<g id="edge2" class="edge">
<title>Node3&#45;&gt;Node2</title>
<path fill="none" stroke="midnightblue" d="M474.64,-237.57C534.3,-232.25 617.32,-224.84 668.94,-220.24"/>
<polygon fill="midnightblue" stroke="midnightblue" points="474.19,-234.09 464.54,-238.47 474.81,-241.07 474.19,-234.09"/>
</g>
<!-- Node4 -->
<g id="node4" class="node">
<title>Node4</title>
<g id="a_node4"><a xlink:title=" ">
<polygon fill="white" stroke="#bfbfbf" points="121.5,-269.5 121.5,-288.5 159.5,-288.5 159.5,-269.5 121.5,-269.5"/>
<text text-anchor="middle" x="140.5" y="-276.5" font-family="Helvetica,sans-Serif" font-size="10.00">char</text>
</a>
</g>
</g>
<!-- Node4&#45;&gt;Node3 -->
<g id="edge3" class="edge">
<title>Node4&#45;&gt;Node3</title>
<path fill="none" stroke="#9a32cd" stroke-dasharray="5,2" d="M170,-275.61C204.39,-271.46 263.99,-264.11 315,-257 322.73,-255.92 330.85,-254.75 338.88,-253.56"/>
<polygon fill="#9a32cd" stroke="#9a32cd" points="169.27,-272.17 159.75,-276.84 170.1,-279.12 169.27,-272.17"/>
<text text-anchor="middle" x="269.5" y="-271" font-family="Helvetica,sans-Serif" font-size="10.00"> DebugName</text>
</g>
<!-- Node5 -->
<g id="node5" class="node">
<title>Node5</title>
<g id="a_node5"><a xlink:title=" ">
<polygon fill="white" stroke="#bfbfbf" points="115.5,-231.5 115.5,-250.5 165.5,-250.5 165.5,-231.5 115.5,-231.5"/>
<text text-anchor="middle" x="140.5" y="-238.5" font-family="Helvetica,sans-Serif" font-size="10.00">int32_t</text>
</a>
</g>
</g>
<!-- Node5&#45;&gt;Node3 -->
<g id="edge4" class="edge">
<title>Node5&#45;&gt;Node3</title>
<path fill="none" stroke="#9a32cd" stroke-dasharray="5,2" d="M175.98,-241.4C217.31,-241.88 287.36,-242.69 338.25,-243.28"/>
<polygon fill="#9a32cd" stroke="#9a32cd" points="175.91,-237.9 165.87,-241.28 175.82,-244.9 175.91,-237.9"/>
<text text-anchor="middle" x="269.5" y="-245" font-family="Helvetica,sans-Serif" font-size="10.00"> ReferenceCounter</text>
</g>
<!-- Node6 -->
<g id="node6" class="node">
<title>Node6</title>
<g id="a_node6"><a xlink:href="classirr_1_1core_1_1array.html" target="_top" xlink:title=" ">
<polygon fill="white" stroke="black" points="650,-144 650,-174 785,-174 785,-144 650,-144"/>
<text text-anchor="start" x="658" y="-162" font-family="Helvetica,sans-Serif" font-size="10.00">irr::core::array&lt; irr</text>
<text text-anchor="middle" x="717.5" y="-151" font-family="Helvetica,sans-Serif" font-size="10.00">::scene::IMeshBuffer * &gt;</text>
</a>
</g>
</g>
<!-- Node6&#45;&gt;Node1 -->
<g id="edge5" class="edge">
<title>Node6&#45;&gt;Node1</title>
<path fill="none" stroke="#9a32cd" stroke-dasharray="5,2" d="M795.61,-159C826.65,-159 861.52,-159 888.99,-159"/>
<polygon fill="#9a32cd" stroke="#9a32cd" points="795.25,-155.5 785.25,-159 795.25,-162.5 795.25,-155.5"/>
<text text-anchor="middle" x="837" y="-162" font-family="Helvetica,sans-Serif" font-size="10.00"> MeshBuffers</text>
</g>
<!-- Node7 -->
<g id="node7" class="node">
<title>Node7</title>
<g id="a_node7"><a xlink:href="classbool.html" target="_top" xlink:title=" ">
<polygon fill="white" stroke="black" points="121.5,-184.5 121.5,-203.5 159.5,-203.5 159.5,-184.5 121.5,-184.5"/>
<text text-anchor="middle" x="140.5" y="-191.5" font-family="Helvetica,sans-Serif" font-size="10.00">bool</text>
</a>
</g>
</g>
<!-- Node7&#45;&gt;Node6 -->
<g id="edge6" class="edge">
<title>Node7&#45;&gt;Node6</title>
<path fill="none" stroke="#9a32cd" stroke-dasharray="5,2" d="M169.98,-194.3C245.54,-194.8 457.29,-194.12 632,-174 637.77,-173.34 643.75,-172.53 649.73,-171.63"/>
<polygon fill="#9a32cd" stroke="#9a32cd" points="169.86,-190.8 159.84,-194.23 169.81,-197.8 169.86,-190.8"/>
<text text-anchor="middle" x="401.5" y="-195" font-family="Helvetica,sans-Serif" font-size="10.00"> is_sorted</text>
</g>
<!-- Node9 -->
<g id="node9" class="node">
<title>Node9</title>
<g id="a_node9"><a xlink:href="classirr_1_1core_1_1array.html" target="_top" xlink:title="Self reallocating template array (like stl vector) with additional features.">
<polygon fill="white" stroke="black" points="344.5,-149.5 344.5,-168.5 458.5,-168.5 458.5,-149.5 344.5,-149.5"/>
<text text-anchor="middle" x="401.5" y="-156.5" font-family="Helvetica,sans-Serif" font-size="10.00">irr::core::array&lt; T &gt;</text>
</a>
</g>
</g>
<!-- Node7&#45;&gt;Node9 -->
<g id="edge9" class="edge">
<title>Node7&#45;&gt;Node9</title>
<path fill="none" stroke="#9a32cd" stroke-dasharray="5,2" d="M170.03,-188.8C185.9,-186 206.01,-182.6 224,-180 264.16,-174.21 309.64,-168.82 344.37,-164.96"/>
<polygon fill="#9a32cd" stroke="#9a32cd" points="169.04,-185.42 159.81,-190.62 170.27,-192.31 169.04,-185.42"/>
<text text-anchor="middle" x="269.5" y="-183" font-family="Helvetica,sans-Serif" font-size="10.00"> is_sorted</text>
</g>
<!-- Node8 -->
<g id="node8" class="node">
<title>Node8</title>
<g id="a_node8"><a xlink:title=" ">
<polygon fill="white" stroke="#bfbfbf" points="349.5,-100 349.5,-130 453.5,-130 453.5,-100 349.5,-100"/>
<text text-anchor="start" x="357.5" y="-118" font-family="Helvetica,sans-Serif" font-size="10.00">vector&lt; irr::scene</text>
<text text-anchor="middle" x="401.5" y="-107" font-family="Helvetica,sans-Serif" font-size="10.00">::IMeshBuffer * &gt;</text>
</a>
</g>
</g>
<!-- Node8&#45;&gt;Node6 -->
<g id="edge7" class="edge">
<title>Node8&#45;&gt;Node6</title>
<path fill="none" stroke="#9a32cd" stroke-dasharray="5,2" d="M463.82,-121.9C510.11,-127.32 575.15,-135.37 632,-144 637.74,-144.87 643.7,-145.83 649.67,-146.82"/>
<polygon fill="#9a32cd" stroke="#9a32cd" points="463.98,-118.4 453.65,-120.72 463.18,-125.35 463.98,-118.4"/>
<text text-anchor="middle" x="560" y="-147" font-family="Helvetica,sans-Serif" font-size="10.00"> m_data</text>
</g>
<!-- Node9&#45;&gt;Node6 -->
<g id="edge8" class="edge">
<title>Node9&#45;&gt;Node6</title>
<path fill="none" stroke="orange" stroke-dasharray="5,2" d="M468.67,-159C521.97,-159 596.56,-159 649.96,-159"/>
<polygon fill="orange" stroke="orange" points="468.64,-155.5 458.64,-159 468.64,-162.5 468.64,-155.5"/>
<text text-anchor="middle" x="560" y="-162" font-family="Helvetica,sans-Serif" font-size="10.00"> &lt; irr::scene::IMeshBuffer * &gt;</text>
</g>
<!-- Node10 -->
<g id="node10" class="node">
<title>Node10</title>
<g id="a_node10"><a xlink:title=" ">
<polygon fill="white" stroke="#bfbfbf" points="102.5,-135.5 102.5,-154.5 178.5,-154.5 178.5,-135.5 102.5,-135.5"/>
<text text-anchor="middle" x="140.5" y="-142.5" font-family="Helvetica,sans-Serif" font-size="10.00">vector&lt; T &gt;</text>
</a>
</g>
</g>
<!-- Node10&#45;&gt;Node9 -->
<g id="edge10" class="edge">
<title>Node10&#45;&gt;Node9</title>
<path fill="none" stroke="#9a32cd" stroke-dasharray="5,2" d="M189.17,-143.42C224.07,-142.71 272.55,-142.67 315,-146 325.03,-146.79 335.66,-148.05 345.9,-149.49"/>
<polygon fill="#9a32cd" stroke="#9a32cd" points="188.71,-139.93 178.79,-143.66 188.87,-146.93 188.71,-139.93"/>
<text text-anchor="middle" x="269.5" y="-149" font-family="Helvetica,sans-Serif" font-size="10.00"> m_data</text>
</g>
<!-- Node11 -->
<g id="node11" class="node">
<title>Node11</title>
<g id="a_node11"><a xlink:href="classirr_1_1core_1_1aabbox3d.html" target="_top" xlink:title=" ">
<polygon fill="white" stroke="black" points="663.5,-48 663.5,-78 771.5,-78 771.5,-48 663.5,-48"/>
<text text-anchor="start" x="671.5" y="-66" font-family="Helvetica,sans-Serif" font-size="10.00">irr::core::aabbox3d</text>
<text text-anchor="middle" x="717.5" y="-55" font-family="Helvetica,sans-Serif" font-size="10.00">&lt; f32 &gt;</text>
</a>
</g>
</g>
<!-- Node11&#45;&gt;Node1 -->
<g id="edge11" class="edge">
<title>Node11&#45;&gt;Node1</title>
<path fill="none" stroke="#9a32cd" stroke-dasharray="5,2" d="M762.51,-82.25C808.98,-102.57 880.34,-133.78 916.05,-149.4"/>
<polygon fill="#9a32cd" stroke="#9a32cd" points="763.84,-79.01 753.28,-78.21 761.04,-85.43 763.84,-79.01"/>
<text text-anchor="middle" x="837" y="-130" font-family="Helvetica,sans-Serif" font-size="10.00"> BoundingBox</text>
</g>
<!-- Node12 -->
<g id="node12" class="node">
<title>Node12</title>
<g id="a_node12"><a xlink:href="classirr_1_1core_1_1vector3d.html" target="_top" xlink:title=" ">
<polygon fill="white" stroke="black" points="350,-48 350,-78 453,-78 453,-48 350,-48"/>
<text text-anchor="start" x="358" y="-66" font-family="Helvetica,sans-Serif" font-size="10.00">irr::core::vector3d</text>
<text text-anchor="middle" x="401.5" y="-55" font-family="Helvetica,sans-Serif" font-size="10.00">&lt; f32 &gt;</text>
</a>
</g>
</g>
<!-- Node12&#45;&gt;Node11 -->
<g id="edge12" class="edge">
<title>Node12&#45;&gt;Node11</title>
<path fill="none" stroke="#9a32cd" stroke-dasharray="5,2" d="M463.44,-63C521.52,-63 608.09,-63 663.41,-63"/>
<polygon fill="#9a32cd" stroke="#9a32cd" points="463.3,-59.5 453.3,-63 463.3,-66.5 463.3,-59.5"/>
<text text-anchor="middle" x="560" y="-77" font-family="Helvetica,sans-Serif" font-size="10.00"> MinEdge</text>
<text text-anchor="middle" x="560" y="-66" font-family="Helvetica,sans-Serif" font-size="10.00">MaxEdge</text>
</g>
<!-- Node13 -->
<g id="node13" class="node">
<title>Node13</title>
<g id="a_node13"><a xlink:title=" ">
<polygon fill="white" stroke="#bfbfbf" points="121.5,-79.5 121.5,-98.5 159.5,-98.5 159.5,-79.5 121.5,-79.5"/>
<text text-anchor="middle" x="140.5" y="-86.5" font-family="Helvetica,sans-Serif" font-size="10.00">float</text>
</a>
</g>
</g>
<!-- Node13&#45;&gt;Node12 -->
<g id="edge13" class="edge">
<title>Node13&#45;&gt;Node12</title>
<path fill="none" stroke="#9a32cd" stroke-dasharray="5,2" d="M169.81,-86.16C213.05,-81.82 296.21,-73.47 349.98,-68.07"/>
<polygon fill="#9a32cd" stroke="#9a32cd" points="169.31,-82.69 159.71,-87.17 170.01,-89.66 169.31,-82.69"/>
<text text-anchor="middle" x="269.5" y="-105" font-family="Helvetica,sans-Serif" font-size="10.00"> X</text>
<text text-anchor="middle" x="269.5" y="-94" font-family="Helvetica,sans-Serif" font-size="10.00">Y</text>
<text text-anchor="middle" x="269.5" y="-83" font-family="Helvetica,sans-Serif" font-size="10.00">Z</text>
</g>
<!-- Node14 -->
<g id="node14" class="node">
<title>Node14</title>
<g id="a_node14"><a xlink:href="classirr_1_1core_1_1vector3d.html" target="_top" xlink:title="3d vector template class with lots of operators and methods.">
<polygon fill="white" stroke="black" points="75,-41.5 75,-60.5 206,-60.5 206,-41.5 75,-41.5"/>
<text text-anchor="middle" x="140.5" y="-48.5" font-family="Helvetica,sans-Serif" font-size="10.00">irr::core::vector3d&lt; T &gt;</text>
</a>
</g>
</g>
<!-- Node14&#45;&gt;Node12 -->
<g id="edge14" class="edge">
<title>Node14&#45;&gt;Node12</title>
<path fill="none" stroke="orange" stroke-dasharray="5,2" d="M216.38,-52.29C246.97,-53.05 282.7,-54.21 315,-56 326.3,-56.63 338.43,-57.5 349.89,-58.41"/>
<polygon fill="orange" stroke="orange" points="216.29,-48.79 206.21,-52.05 216.13,-55.79 216.29,-48.79"/>
<text text-anchor="middle" x="269.5" y="-59" font-family="Helvetica,sans-Serif" font-size="10.00"> &lt; f32 &gt;</text>
</g>
<!-- Node15 -->
<g id="node15" class="node">
<title>Node15</title>
<g id="a_node15"><a xlink:title=" ">
<polygon fill="white" stroke="#bfbfbf" points="0,-41.5 0,-60.5 29,-60.5 29,-41.5 0,-41.5"/>
<text text-anchor="middle" x="14.5" y="-48.5" font-family="Helvetica,sans-Serif" font-size="10.00">T</text>
</a>
</g>
</g>
<!-- Node15&#45;&gt;Node14 -->
<g id="edge15" class="edge">
<title>Node15&#45;&gt;Node14</title>
<path fill="none" stroke="#9a32cd" stroke-dasharray="5,2" d="M39.38,-51C49.64,-51 62.18,-51 74.86,-51"/>
<polygon fill="#9a32cd" stroke="#9a32cd" points="39.24,-47.5 29.24,-51 39.24,-54.5 39.24,-47.5"/>
<text text-anchor="middle" x="52" y="-76" font-family="Helvetica,sans-Serif" font-size="10.00"> X</text>
<text text-anchor="middle" x="52" y="-65" font-family="Helvetica,sans-Serif" font-size="10.00">Y</text>
<text text-anchor="middle" x="52" y="-54" font-family="Helvetica,sans-Serif" font-size="10.00">Z</text>
</g>
<!-- Node16 -->
<g id="node16" class="node">
<title>Node16</title>
<g id="a_node16"><a xlink:href="classirr_1_1core_1_1aabbox3d.html" target="_top" xlink:title="Axis aligned bounding box in 3d dimensional space.">
<polygon fill="white" stroke="black" points="333,-3.5 333,-22.5 470,-22.5 470,-3.5 333,-3.5"/>
<text text-anchor="middle" x="401.5" y="-10.5" font-family="Helvetica,sans-Serif" font-size="10.00">irr::core::aabbox3d&lt; T &gt;</text>
</a>
</g>
</g>
<!-- Node16&#45;&gt;Node11 -->
<g id="edge16" class="edge">
<title>Node16&#45;&gt;Node11</title>
<path fill="none" stroke="orange" stroke-dasharray="5,2" d="M477.79,-24.01C522.62,-30.68 580.61,-39.52 632,-48 642.14,-49.67 652.96,-51.53 663.34,-53.36"/>
<polygon fill="orange" stroke="orange" points="478.26,-20.54 467.86,-22.53 477.23,-27.47 478.26,-20.54"/>
<text text-anchor="middle" x="560" y="-51" font-family="Helvetica,sans-Serif" font-size="10.00"> &lt; f32 &gt;</text>
</g>
<!-- Node17 -->
<g id="node17" class="node">
<title>Node17</title>
<g id="a_node17"><a xlink:title=" ">
<polygon fill="white" stroke="#bfbfbf" points="96.5,-0.5 96.5,-19.5 184.5,-19.5 184.5,-0.5 96.5,-0.5"/>
<text text-anchor="middle" x="140.5" y="-7.5" font-family="Helvetica,sans-Serif" font-size="10.00">vector3d&lt; T &gt;</text>
</a>
</g>
</g>
<!-- Node17&#45;&gt;Node16 -->
<g id="edge17" class="edge">
<title>Node17&#45;&gt;Node16</title>
<path fill="none" stroke="#9a32cd" stroke-dasharray="5,2" d="M194.91,-10.06C229.22,-10.17 274.74,-10.41 315,-11 320.79,-11.08 326.8,-11.19 332.83,-11.31"/>
<polygon fill="#9a32cd" stroke="#9a32cd" points="194.65,-6.56 184.64,-10.04 194.63,-13.56 194.65,-6.56"/>
<text text-anchor="middle" x="269.5" y="-25" font-family="Helvetica,sans-Serif" font-size="10.00"> MinEdge</text>
<text text-anchor="middle" x="269.5" y="-14" font-family="Helvetica,sans-Serif" font-size="10.00">MaxEdge</text>
</g>
</g>
</svg>
