<?xml version="1.0" encoding="UTF-8" standalone="no"?>
<!DOCTYPE svg PUBLIC "-//W3C//DTD SVG 1.1//EN"
 "http://www.w3.org/Graphics/SVG/1.1/DTD/svg11.dtd">
<!-- Generated by graphviz version 2.43.0 (0)
 -->
<!-- Title: GUIFormSpecMenu::TooltipSpec Pages: 1 -->
<svg width="190pt" height="173pt"
 viewBox="0.00 0.00 189.50 173.00" xmlns="http://www.w3.org/2000/svg" xmlns:xlink="http://www.w3.org/1999/xlink">
<g id="graph0" class="graph" transform="scale(1 1) rotate(0) translate(4 169)">
<title>GUIFormSpecMenu::TooltipSpec</title>
<polygon fill="white" stroke="transparent" points="-4,4 -4,-169 185.5,-169 185.5,4 -4,4"/>
<!-- Node1 -->
<g id="node1" class="node">
<title>Node1</title>
<g id="a_node1"><a xlink:title=" ">
<polygon fill="#bfbfbf" stroke="black" points="10.5,-0.5 10.5,-19.5 181.5,-19.5 181.5,-0.5 10.5,-0.5"/>
<text text-anchor="middle" x="96" y="-7.5" font-family="Helvetica,sans-Serif" font-size="10.00">GUIFormSpecMenu::TooltipSpec</text>
</a>
</g>
</g>
<!-- Node2 -->
<g id="node2" class="node">
<title>Node2</title>
<g id="a_node2"><a xlink:href="classirr_1_1video_1_1SColor.html" target="_top" xlink:title="Class representing a 32 bit ARGB color.">
<polygon fill="white" stroke="black" points="0,-78.5 0,-97.5 98,-97.5 98,-78.5 0,-78.5"/>
<text text-anchor="middle" x="49" y="-85.5" font-family="Helvetica,sans-Serif" font-size="10.00">irr::video::SColor</text>
</a>
</g>
</g>
<!-- Node2&#45;&gt;Node1 -->
<g id="edge1" class="edge">
<title>Node2&#45;&gt;Node1</title>
<path fill="none" stroke="#9a32cd" stroke-dasharray="5,2" d="M59.78,-69.57C69.44,-53.95 83.2,-31.7 90.67,-19.62"/>
<polygon fill="#9a32cd" stroke="#9a32cd" points="56.67,-67.94 54.39,-78.28 62.63,-71.62 56.67,-67.94"/>
<text text-anchor="middle" x="99" y="-52" font-family="Helvetica,sans-Serif" font-size="10.00"> bgcolor</text>
<text text-anchor="middle" x="99" y="-41" font-family="Helvetica,sans-Serif" font-size="10.00">color</text>
</g>
<!-- Node3 -->
<g id="node3" class="node">
<title>Node3</title>
<g id="a_node3"><a xlink:title=" ">
<polygon fill="white" stroke="#bfbfbf" points="21,-145.5 21,-164.5 77,-164.5 77,-145.5 21,-145.5"/>
<text text-anchor="middle" x="49" y="-152.5" font-family="Helvetica,sans-Serif" font-size="10.00">uint32_t</text>
</a>
</g>
</g>
<!-- Node3&#45;&gt;Node2 -->
<g id="edge2" class="edge">
<title>Node3&#45;&gt;Node2</title>
<path fill="none" stroke="#9a32cd" stroke-dasharray="5,2" d="M49,-135.04C49,-122.67 49,-107.12 49,-97.63"/>
<polygon fill="#9a32cd" stroke="#9a32cd" points="45.5,-135.23 49,-145.23 52.5,-135.23 45.5,-135.23"/>
<text text-anchor="middle" x="63" y="-119" font-family="Helvetica,sans-Serif" font-size="10.00"> color</text>
</g>
<!-- Node4 -->
<g id="node4" class="node">
<title>Node4</title>
<g id="a_node4"><a xlink:title=" ">
<polygon fill="white" stroke="#bfbfbf" points="116.5,-78.5 116.5,-97.5 169.5,-97.5 169.5,-78.5 116.5,-78.5"/>
<text text-anchor="middle" x="143" y="-85.5" font-family="Helvetica,sans-Serif" font-size="10.00">wstring</text>
</a>
</g>
</g>
<!-- Node4&#45;&gt;Node1 -->
<g id="edge3" class="edge">
<title>Node4&#45;&gt;Node1</title>
<path fill="none" stroke="#9a32cd" stroke-dasharray="5,2" d="M136.39,-68.59C132.57,-59.07 127.28,-47.49 121,-38 116.63,-31.39 110.63,-24.85 105.6,-19.86"/>
<polygon fill="#9a32cd" stroke="#9a32cd" points="133.23,-70.13 140.05,-78.24 139.78,-67.65 133.23,-70.13"/>
<text text-anchor="middle" x="149.5" y="-46.5" font-family="Helvetica,sans-Serif" font-size="10.00"> tooltip</text>
</g>
</g>
</svg>
