<?xml version="1.0" encoding="UTF-8" standalone="no"?>
<!DOCTYPE svg PUBLIC "-//W3C//DTD SVG 1.1//EN"
 "http://www.w3.org/Graphics/SVG/1.1/DTD/svg11.dtd">
<!-- Generated by graphviz version 2.43.0 (0)
 -->
<!-- Title: ChatLine Pages: 1 -->
<svg width="531pt" height="251pt"
 viewBox="0.00 0.00 530.50 251.00" xmlns="http://www.w3.org/2000/svg" xmlns:xlink="http://www.w3.org/1999/xlink">
<g id="graph0" class="graph" transform="scale(1 1) rotate(0) translate(4 247)">
<title>ChatLine</title>
<polygon fill="white" stroke="transparent" points="-4,4 -4,-247 526.5,-247 526.5,4 -4,4"/>
<!-- Node1 -->
<g id="node1" class="node">
<title>Node1</title>
<g id="a_node1"><a xlink:title=" ">
<polygon fill="#bfbfbf" stroke="black" points="272.5,-0.5 272.5,-19.5 331.5,-19.5 331.5,-0.5 272.5,-0.5"/>
<text text-anchor="middle" x="302" y="-7.5" font-family="Helvetica,sans-Serif" font-size="10.00">ChatLine</text>
</a>
</g>
</g>
<!-- Node2 -->
<g id="node2" class="node">
<title>Node2</title>
<g id="a_node2"><a xlink:href="classEnrichedString.html" target="_top" xlink:title=" ">
<polygon fill="white" stroke="black" points="219.5,-78.5 219.5,-97.5 306.5,-97.5 306.5,-78.5 219.5,-78.5"/>
<text text-anchor="middle" x="263" y="-85.5" font-family="Helvetica,sans-Serif" font-size="10.00">EnrichedString</text>
</a>
</g>
</g>
<!-- Node2&#45;&gt;Node1 -->
<g id="edge1" class="edge">
<title>Node2&#45;&gt;Node1</title>
<path fill="none" stroke="#9a32cd" stroke-dasharray="5,2" d="M272.01,-69.27C276.75,-59.96 282.67,-48.35 288,-38 291.19,-31.8 294.81,-24.82 297.57,-19.5"/>
<polygon fill="#9a32cd" stroke="#9a32cd" points="268.82,-67.82 267.41,-78.32 275.06,-70.99 268.82,-67.82"/>
<text text-anchor="middle" x="303.5" y="-52" font-family="Helvetica,sans-Serif" font-size="10.00"> name</text>
<text text-anchor="middle" x="303.5" y="-41" font-family="Helvetica,sans-Serif" font-size="10.00">text</text>
</g>
<!-- Node3 -->
<g id="node3" class="node">
<title>Node3</title>
<g id="a_node3"><a xlink:href="classirr_1_1video_1_1SColor.html" target="_top" xlink:title="Class representing a 32 bit ARGB color.">
<polygon fill="white" stroke="black" points="0,-156.5 0,-175.5 98,-175.5 98,-156.5 0,-156.5"/>
<text text-anchor="middle" x="49" y="-163.5" font-family="Helvetica,sans-Serif" font-size="10.00">irr::video::SColor</text>
</a>
</g>
</g>
<!-- Node3&#45;&gt;Node2 -->
<g id="edge2" class="edge">
<title>Node3&#45;&gt;Node2</title>
<path fill="none" stroke="#9a32cd" stroke-dasharray="5,2" d="M53.7,-146.81C57.42,-136.13 63.74,-123.33 74,-116 96.65,-99.81 170.97,-93.24 219.39,-90.64"/>
<polygon fill="#9a32cd" stroke="#9a32cd" points="50.31,-145.91 50.79,-156.5 57.01,-147.92 50.31,-145.91"/>
<text text-anchor="middle" x="113.5" y="-130" font-family="Helvetica,sans-Serif" font-size="10.00"> m_background</text>
<text text-anchor="middle" x="113.5" y="-119" font-family="Helvetica,sans-Serif" font-size="10.00">m_default_color</text>
</g>
<!-- Node4 -->
<g id="node4" class="node">
<title>Node4</title>
<g id="a_node4"><a xlink:title=" ">
<polygon fill="white" stroke="#bfbfbf" points="21,-223.5 21,-242.5 77,-242.5 77,-223.5 21,-223.5"/>
<text text-anchor="middle" x="49" y="-230.5" font-family="Helvetica,sans-Serif" font-size="10.00">uint32_t</text>
</a>
</g>
</g>
<!-- Node4&#45;&gt;Node3 -->
<g id="edge3" class="edge">
<title>Node4&#45;&gt;Node3</title>
<path fill="none" stroke="#9a32cd" stroke-dasharray="5,2" d="M49,-213.04C49,-200.67 49,-185.12 49,-175.63"/>
<polygon fill="#9a32cd" stroke="#9a32cd" points="45.5,-213.23 49,-223.23 52.5,-213.23 45.5,-213.23"/>
<text text-anchor="middle" x="63" y="-197" font-family="Helvetica,sans-Serif" font-size="10.00"> color</text>
</g>
<!-- Node5 -->
<g id="node5" class="node">
<title>Node5</title>
<g id="a_node5"><a xlink:title=" ">
<polygon fill="white" stroke="#bfbfbf" points="128.5,-156.5 128.5,-175.5 173.5,-175.5 173.5,-156.5 128.5,-156.5"/>
<text text-anchor="middle" x="151" y="-163.5" font-family="Helvetica,sans-Serif" font-size="10.00">size_t</text>
</a>
</g>
</g>
<!-- Node5&#45;&gt;Node2 -->
<g id="edge4" class="edge">
<title>Node5&#45;&gt;Node2</title>
<path fill="none" stroke="#9a32cd" stroke-dasharray="5,2" d="M154.06,-146.36C156.66,-136.1 161.4,-123.88 170,-116 183.39,-103.73 202.03,-97.01 219.11,-93.34"/>
<polygon fill="#9a32cd" stroke="#9a32cd" points="150.57,-145.94 152,-156.44 157.43,-147.34 150.57,-145.94"/>
<text text-anchor="middle" x="214.5" y="-124.5" font-family="Helvetica,sans-Serif" font-size="10.00"> m_default_length</text>
</g>
<!-- Node6 -->
<g id="node6" class="node">
<title>Node6</title>
<g id="a_node6"><a xlink:href="classbool.html" target="_top" xlink:title=" ">
<polygon fill="white" stroke="black" points="244,-156.5 244,-175.5 282,-175.5 282,-156.5 244,-156.5"/>
<text text-anchor="middle" x="263" y="-163.5" font-family="Helvetica,sans-Serif" font-size="10.00">bool</text>
</a>
</g>
</g>
<!-- Node6&#45;&gt;Node2 -->
<g id="edge5" class="edge">
<title>Node6&#45;&gt;Node2</title>
<path fill="none" stroke="#9a32cd" stroke-dasharray="5,2" d="M263,-146.22C263,-130.7 263,-109.36 263,-97.62"/>
<polygon fill="#9a32cd" stroke="#9a32cd" points="259.5,-146.28 263,-156.28 266.5,-146.28 259.5,-146.28"/>
<text text-anchor="middle" x="312" y="-124.5" font-family="Helvetica,sans-Serif" font-size="10.00"> m_has_background</text>
</g>
<!-- Node7 -->
<g id="node7" class="node">
<title>Node7</title>
<g id="a_node7"><a xlink:title=" ">
<polygon fill="white" stroke="#bfbfbf" points="317,-156.5 317,-175.5 451,-175.5 451,-156.5 317,-156.5"/>
<text text-anchor="middle" x="384" y="-163.5" font-family="Helvetica,sans-Serif" font-size="10.00">vector&lt; video::SColor &gt;</text>
</a>
</g>
</g>
<!-- Node7&#45;&gt;Node2 -->
<g id="edge6" class="edge">
<title>Node7&#45;&gt;Node2</title>
<path fill="none" stroke="#9a32cd" stroke-dasharray="5,2" d="M379.89,-146.59C376.67,-136.23 371.15,-123.83 362,-116 353.4,-108.65 328.97,-101.94 306.53,-97.06"/>
<polygon fill="#9a32cd" stroke="#9a32cd" points="376.54,-147.61 382.47,-156.38 383.31,-145.82 376.54,-147.61"/>
<text text-anchor="middle" x="400" y="-124.5" font-family="Helvetica,sans-Serif" font-size="10.00"> m_colors</text>
</g>
<!-- Node8 -->
<g id="node8" class="node">
<title>Node8</title>
<g id="a_node8"><a xlink:title=" ">
<polygon fill="white" stroke="#bfbfbf" points="469.5,-156.5 469.5,-175.5 522.5,-175.5 522.5,-156.5 469.5,-156.5"/>
<text text-anchor="middle" x="496" y="-163.5" font-family="Helvetica,sans-Serif" font-size="10.00">wstring</text>
</a>
</g>
</g>
<!-- Node8&#45;&gt;Node2 -->
<g id="edge7" class="edge">
<title>Node8&#45;&gt;Node2</title>
<path fill="none" stroke="#9a32cd" stroke-dasharray="5,2" d="M479.12,-149.37C466.12,-138.25 447.2,-123.93 428,-116 381.41,-96.74 365.74,-106.22 316,-98 312.96,-97.5 309.83,-96.98 306.67,-96.45"/>
<polygon fill="#9a32cd" stroke="#9a32cd" points="476.93,-152.11 486.74,-156.11 481.57,-146.87 476.93,-152.11"/>
<text text-anchor="middle" x="486" y="-124.5" font-family="Helvetica,sans-Serif" font-size="10.00"> m_string</text>
</g>
<!-- Node9 -->
<g id="node9" class="node">
<title>Node9</title>
<g id="a_node9"><a xlink:title=" ">
<polygon fill="white" stroke="#bfbfbf" points="325,-78.5 325,-97.5 357,-97.5 357,-78.5 325,-78.5"/>
<text text-anchor="middle" x="341" y="-85.5" font-family="Helvetica,sans-Serif" font-size="10.00">f32</text>
</a>
</g>
</g>
<!-- Node9&#45;&gt;Node1 -->
<g id="edge8" class="edge">
<title>Node9&#45;&gt;Node1</title>
<path fill="none" stroke="#9a32cd" stroke-dasharray="5,2" d="M333.51,-68.7C329.5,-59.36 324.31,-47.91 319,-38 315.65,-31.75 311.4,-25 307.99,-19.81"/>
<polygon fill="#9a32cd" stroke="#9a32cd" points="330.37,-70.28 337.47,-78.15 336.83,-67.57 330.37,-70.28"/>
<text text-anchor="middle" x="340" y="-46.5" font-family="Helvetica,sans-Serif" font-size="10.00"> age</text>
</g>
</g>
</svg>
