<?xml version="1.0" encoding="UTF-8" standalone="no"?>
<!DOCTYPE svg PUBLIC "-//W3C//DTD SVG 1.1//EN"
 "http://www.w3.org/Graphics/SVG/1.1/DTD/svg11.dtd">
<!-- Generated by graphviz version 2.43.0 (0)
 -->
<!-- Title: Catch::Totals Pages: 1 -->
<svg width="156pt" height="195pt"
 viewBox="0.00 0.00 155.50 195.00" xmlns="http://www.w3.org/2000/svg" xmlns:xlink="http://www.w3.org/1999/xlink">
<g id="graph0" class="graph" transform="scale(1 1) rotate(0) translate(4 191)">
<title>Catch::Totals</title>
<polygon fill="white" stroke="transparent" points="-4,4 -4,-191 151.5,-191 151.5,4 -4,4"/>
<!-- Node1 -->
<g id="node1" class="node">
<title>Node1</title>
<g id="a_node1"><a xlink:title=" ">
<polygon fill="#bfbfbf" stroke="black" points="0,-0.5 0,-19.5 79,-19.5 79,-0.5 0,-0.5"/>
<text text-anchor="middle" x="39.5" y="-7.5" font-family="Helvetica,sans-Serif" font-size="10.00">Catch::Totals</text>
</a>
</g>
</g>
<!-- Node2 -->
<g id="node2" class="node">
<title>Node2</title>
<g id="a_node2"><a xlink:title=" ">
<polygon fill="white" stroke="#bfbfbf" points="0,-78.5 0,-97.5 29,-97.5 29,-78.5 0,-78.5"/>
<text text-anchor="middle" x="14.5" y="-85.5" font-family="Helvetica,sans-Serif" font-size="10.00">int</text>
</a>
</g>
</g>
<!-- Node2&#45;&gt;Node1 -->
<g id="edge1" class="edge">
<title>Node2&#45;&gt;Node1</title>
<path fill="none" stroke="#9a32cd" stroke-dasharray="5,2" d="M18.75,-68.18C21.02,-58.97 24.05,-47.8 27.5,-38 29.68,-31.81 32.68,-25.06 35.14,-19.86"/>
<polygon fill="#9a32cd" stroke="#9a32cd" points="15.28,-67.66 16.39,-78.2 22.09,-69.27 15.28,-67.66"/>
<text text-anchor="middle" x="41" y="-46.5" font-family="Helvetica,sans-Serif" font-size="10.00"> error</text>
</g>
<!-- Node3 -->
<g id="node3" class="node">
<title>Node3</title>
<g id="a_node3"><a xlink:href="structCatch_1_1Counts.html" target="_top" xlink:title=" ">
<polygon fill="white" stroke="black" points="47.5,-78.5 47.5,-97.5 131.5,-97.5 131.5,-78.5 47.5,-78.5"/>
<text text-anchor="middle" x="89.5" y="-85.5" font-family="Helvetica,sans-Serif" font-size="10.00">Catch::Counts</text>
</a>
</g>
</g>
<!-- Node3&#45;&gt;Node1 -->
<g id="edge2" class="edge">
<title>Node3&#45;&gt;Node1</title>
<path fill="none" stroke="#9a32cd" stroke-dasharray="5,2" d="M78.03,-69.57C67.76,-53.95 53.12,-31.7 45.17,-19.62"/>
<polygon fill="#9a32cd" stroke="#9a32cd" points="75.34,-71.85 83.76,-78.28 81.19,-68 75.34,-71.85"/>
<text text-anchor="middle" x="95.5" y="-52" font-family="Helvetica,sans-Serif" font-size="10.00"> testCases</text>
<text text-anchor="middle" x="95.5" y="-41" font-family="Helvetica,sans-Serif" font-size="10.00">assertions</text>
</g>
<!-- Node4 -->
<g id="node4" class="node">
<title>Node4</title>
<g id="a_node4"><a xlink:title=" ">
<polygon fill="white" stroke="#bfbfbf" points="67,-167.5 67,-186.5 112,-186.5 112,-167.5 67,-167.5"/>
<text text-anchor="middle" x="89.5" y="-174.5" font-family="Helvetica,sans-Serif" font-size="10.00">size_t</text>
</a>
</g>
</g>
<!-- Node4&#45;&gt;Node3 -->
<g id="edge3" class="edge">
<title>Node4&#45;&gt;Node3</title>
<path fill="none" stroke="#9a32cd" stroke-dasharray="5,2" d="M89.5,-157.19C89.5,-138.74 89.5,-111.41 89.5,-97.62"/>
<polygon fill="#9a32cd" stroke="#9a32cd" points="86,-157.34 89.5,-167.34 93,-157.34 86,-157.34"/>
<text text-anchor="middle" x="118.5" y="-141" font-family="Helvetica,sans-Serif" font-size="10.00"> passed</text>
<text text-anchor="middle" x="118.5" y="-130" font-family="Helvetica,sans-Serif" font-size="10.00">failedButOk</text>
<text text-anchor="middle" x="118.5" y="-119" font-family="Helvetica,sans-Serif" font-size="10.00">failed</text>
</g>
</g>
</svg>
