<?xml version="1.0" encoding="UTF-8" standalone="no"?>
<!DOCTYPE svg PUBLIC "-//W3C//DTD SVG 1.1//EN"
 "http://www.w3.org/Graphics/SVG/1.1/DTD/svg11.dtd">
<!-- Generated by graphviz version 2.43.0 (0)
 -->
<!-- Title: Catch::detail::is_range_impl&lt; T, typename &gt; Pages: 1 -->
<svg width="136pt" height="231pt"
 viewBox="0.00 0.00 136.00 231.00" xmlns="http://www.w3.org/2000/svg" xmlns:xlink="http://www.w3.org/1999/xlink">
<g id="graph0" class="graph" transform="scale(1 1) rotate(0) translate(4 227)">
<title>Catch::detail::is_range_impl&lt; T, typename &gt;</title>
<polygon fill="white" stroke="transparent" points="-4,4 -4,-227 132,-227 132,4 -4,4"/>
<!-- Node1 -->
<g id="node1" class="node">
<title>Node1</title>
<g id="a_node1"><a xlink:title=" ">
<polygon fill="#bfbfbf" stroke="black" points="0,-135.5 0,-165.5 128,-165.5 128,-135.5 0,-135.5"/>
<text text-anchor="start" x="8" y="-153.5" font-family="Helvetica,sans-Serif" font-size="10.00">Catch::detail::is_range</text>
<text text-anchor="middle" x="64" y="-142.5" font-family="Helvetica,sans-Serif" font-size="10.00">_impl&lt; T, typename &gt;</text>
</a>
</g>
</g>
<!-- Node3 -->
<g id="node3" class="node">
<title>Node3</title>
<g id="a_node3"><a xlink:href="structCatch_1_1detail_1_1is__range__impl.html" target="_top" xlink:title=" ">
<polygon fill="white" stroke="black" points="1.5,-57.5 1.5,-87.5 126.5,-87.5 126.5,-57.5 1.5,-57.5"/>
<text text-anchor="start" x="9.5" y="-75.5" font-family="Helvetica,sans-Serif" font-size="10.00">Catch::detail::is_range</text>
<text text-anchor="middle" x="64" y="-64.5" font-family="Helvetica,sans-Serif" font-size="10.00">_impl&lt; T &gt;</text>
</a>
</g>
</g>
<!-- Node1&#45;&gt;Node3 -->
<g id="edge2" class="edge">
<title>Node1&#45;&gt;Node3</title>
<path fill="none" stroke="orange" stroke-dasharray="5,2" d="M64,-125.09C64,-112.76 64,-98.22 64,-87.73"/>
<polygon fill="orange" stroke="orange" points="60.5,-125.2 64,-135.2 67.5,-125.21 60.5,-125.2"/>
<text text-anchor="middle" x="80" y="-109" font-family="Helvetica,sans-Serif" font-size="10.00"> &lt; T &gt;</text>
</g>
<!-- Node2 -->
<g id="node2" class="node">
<title>Node2</title>
<g id="a_node2"><a xlink:title=" ">
<polygon fill="white" stroke="#bfbfbf" points="30,-203.5 30,-222.5 98,-222.5 98,-203.5 30,-203.5"/>
<text text-anchor="middle" x="64" y="-210.5" font-family="Helvetica,sans-Serif" font-size="10.00">false_type</text>
</a>
</g>
</g>
<!-- Node2&#45;&gt;Node1 -->
<g id="edge1" class="edge">
<title>Node2&#45;&gt;Node1</title>
<path fill="none" stroke="midnightblue" d="M64,-193.22C64,-184.36 64,-173.96 64,-165.76"/>
<polygon fill="midnightblue" stroke="midnightblue" points="60.5,-193.33 64,-203.33 67.5,-193.33 60.5,-193.33"/>
</g>
<!-- Node4 -->
<g id="node4" class="node">
<title>Node4</title>
<g id="a_node4"><a xlink:href="structCatch_1_1is__range.html" target="_top" xlink:title=" ">
<polygon fill="white" stroke="black" points="4,-0.5 4,-19.5 124,-19.5 124,-0.5 4,-0.5"/>
<text text-anchor="middle" x="64" y="-7.5" font-family="Helvetica,sans-Serif" font-size="10.00">Catch::is_range&lt; T &gt;</text>
</a>
</g>
</g>
<!-- Node3&#45;&gt;Node4 -->
<g id="edge3" class="edge">
<title>Node3&#45;&gt;Node4</title>
<path fill="none" stroke="midnightblue" d="M64,-47.35C64,-37.51 64,-26.78 64,-19.54"/>
<polygon fill="midnightblue" stroke="midnightblue" points="60.5,-47.47 64,-57.47 67.5,-47.47 60.5,-47.47"/>
</g>
</g>
</svg>
