<?xml version="1.0" encoding="UTF-8" standalone="no"?>
<!DOCTYPE svg PUBLIC "-//W3C//DTD SVG 1.1//EN"
 "http://www.w3.org/Graphics/SVG/1.1/DTD/svg11.dtd">
<!-- Generated by graphviz version 2.43.0 (0)
 -->
<!-- Title: irr::video::SExposedVideoData::SD3D9 Pages: 1 -->
<svg width="278pt" height="106pt"
 viewBox="0.00 0.00 277.50 106.00" xmlns="http://www.w3.org/2000/svg" xmlns:xlink="http://www.w3.org/1999/xlink">
<g id="graph0" class="graph" transform="scale(1 1) rotate(0) translate(4 102)">
<title>irr::video::SExposedVideoData::SD3D9</title>
<polygon fill="white" stroke="transparent" points="-4,4 -4,-102 273.5,-102 273.5,4 -4,4"/>
<!-- Node1 -->
<g id="node1" class="node">
<title>Node1</title>
<g id="a_node1"><a xlink:title=" ">
<polygon fill="#bfbfbf" stroke="black" points="48,-0.5 48,-30.5 189,-30.5 189,-0.5 48,-0.5"/>
<text text-anchor="start" x="56" y="-18.5" font-family="Helvetica,sans-Serif" font-size="10.00">irr::video::SExposedVideo</text>
<text text-anchor="middle" x="118.5" y="-7.5" font-family="Helvetica,sans-Serif" font-size="10.00">Data::SD3D9</text>
</a>
</g>
</g>
<!-- Node2 -->
<g id="node2" class="node">
<title>Node2</title>
<g id="a_node2"><a xlink:title=" ">
<polygon fill="white" stroke="#bfbfbf" points="0,-78.5 0,-97.5 77,-97.5 77,-78.5 0,-78.5"/>
<text text-anchor="middle" x="38.5" y="-85.5" font-family="Helvetica,sans-Serif" font-size="10.00">IDirect3D9 *</text>
</a>
</g>
</g>
<!-- Node2&#45;&gt;Node1 -->
<g id="edge1" class="edge">
<title>Node2&#45;&gt;Node1</title>
<path fill="none" stroke="#9a32cd" stroke-dasharray="5,2" d="M56.16,-71.44C70.01,-59.23 89.13,-42.39 102.53,-30.58"/>
<polygon fill="#9a32cd" stroke="#9a32cd" points="53.5,-69.12 48.31,-78.36 58.13,-74.37 53.5,-69.12"/>
<text text-anchor="middle" x="97" y="-52" font-family="Helvetica,sans-Serif" font-size="10.00"> D3D9</text>
</g>
<!-- Node3 -->
<g id="node3" class="node">
<title>Node3</title>
<g id="a_node3"><a xlink:title=" ">
<polygon fill="white" stroke="#bfbfbf" points="95.5,-78.5 95.5,-97.5 141.5,-97.5 141.5,-78.5 95.5,-78.5"/>
<text text-anchor="middle" x="118.5" y="-85.5" font-family="Helvetica,sans-Serif" font-size="10.00">void *</text>
</a>
</g>
</g>
<!-- Node3&#45;&gt;Node1 -->
<g id="edge2" class="edge">
<title>Node3&#45;&gt;Node1</title>
<path fill="none" stroke="#9a32cd" stroke-dasharray="5,2" d="M118.5,-68.24C118.5,-56.41 118.5,-41.38 118.5,-30.58"/>
<polygon fill="#9a32cd" stroke="#9a32cd" points="115,-68.36 118.5,-78.36 122,-68.36 115,-68.36"/>
<text text-anchor="middle" x="135" y="-52" font-family="Helvetica,sans-Serif" font-size="10.00"> HWnd</text>
</g>
<!-- Node4 -->
<g id="node4" class="node">
<title>Node4</title>
<g id="a_node4"><a xlink:title=" ">
<polygon fill="white" stroke="#bfbfbf" points="159.5,-78.5 159.5,-97.5 269.5,-97.5 269.5,-78.5 159.5,-78.5"/>
<text text-anchor="middle" x="214.5" y="-85.5" font-family="Helvetica,sans-Serif" font-size="10.00">IDirect3DDevice9 *</text>
</a>
</g>
</g>
<!-- Node4&#45;&gt;Node1 -->
<g id="edge3" class="edge">
<title>Node4&#45;&gt;Node1</title>
<path fill="none" stroke="#9a32cd" stroke-dasharray="5,2" d="M194.25,-72.13C177.56,-59.87 154.05,-42.61 137.67,-30.58"/>
<polygon fill="#9a32cd" stroke="#9a32cd" points="192.6,-75.26 202.73,-78.36 196.74,-69.62 192.6,-75.26"/>
<text text-anchor="middle" x="199.5" y="-52" font-family="Helvetica,sans-Serif" font-size="10.00"> D3DDev9</text>
</g>
</g>
</svg>
