<?xml version="1.0" encoding="UTF-8" standalone="no"?>
<!DOCTYPE svg PUBLIC "-//W3C//DTD SVG 1.1//EN"
 "http://www.w3.org/Graphics/SVG/1.1/DTD/svg11.dtd">
<!-- Generated by graphviz version 2.43.0 (0)
 -->
<!-- Title: SmoothTranslatorWrappedv3f Pages: 1 -->
<svg width="500pt" height="265pt"
 viewBox="0.00 0.00 499.50 265.00" xmlns="http://www.w3.org/2000/svg" xmlns:xlink="http://www.w3.org/1999/xlink">
<g id="graph0" class="graph" transform="scale(1 1) rotate(0) translate(4 261)">
<title>SmoothTranslatorWrappedv3f</title>
<polygon fill="white" stroke="transparent" points="-4,4 -4,-261 495.5,-261 495.5,4 -4,4"/>
<!-- Node1 -->
<g id="node1" class="node">
<title>Node1</title>
<g id="a_node1"><a xlink:title=" ">
<polygon fill="#bfbfbf" stroke="black" points="207,-0.5 207,-19.5 368,-19.5 368,-0.5 207,-0.5"/>
<text text-anchor="middle" x="287.5" y="-7.5" font-family="Helvetica,sans-Serif" font-size="10.00">SmoothTranslatorWrappedv3f</text>
</a>
</g>
</g>
<!-- Node2 -->
<g id="node2" class="node">
<title>Node2</title>
<g id="a_node2"><a xlink:href="structSmoothTranslator.html" target="_top" xlink:title=" ">
<polygon fill="white" stroke="black" points="217.5,-57.5 217.5,-76.5 357.5,-76.5 357.5,-57.5 217.5,-57.5"/>
<text text-anchor="middle" x="287.5" y="-64.5" font-family="Helvetica,sans-Serif" font-size="10.00">SmoothTranslator&lt; v3f &gt;</text>
</a>
</g>
</g>
<!-- Node2&#45;&gt;Node1 -->
<g id="edge1" class="edge">
<title>Node2&#45;&gt;Node1</title>
<path fill="none" stroke="midnightblue" d="M287.5,-47.12C287.5,-37.82 287.5,-27.06 287.5,-19.71"/>
<polygon fill="midnightblue" stroke="midnightblue" points="284,-47.41 287.5,-57.41 291,-47.41 284,-47.41"/>
</g>
<!-- Node3 -->
<g id="node3" class="node">
<title>Node3</title>
<g id="a_node3"><a xlink:href="classirr_1_1core_1_1vector3d.html" target="_top" xlink:title="3d vector template class with lots of operators and methods.">
<polygon fill="white" stroke="black" points="0,-147.5 0,-166.5 131,-166.5 131,-147.5 0,-147.5"/>
<text text-anchor="middle" x="65.5" y="-154.5" font-family="Helvetica,sans-Serif" font-size="10.00">irr::core::vector3d&lt; T &gt;</text>
</a>
</g>
</g>
<!-- Node3&#45;&gt;Node2 -->
<g id="edge2" class="edge">
<title>Node3&#45;&gt;Node2</title>
<path fill="none" stroke="#9a32cd" stroke-dasharray="5,2" d="M86.37,-141.85C107.5,-128.1 141.54,-107.52 173.5,-95 194.05,-86.95 217.66,-80.87 238.04,-76.54"/>
<polygon fill="#9a32cd" stroke="#9a32cd" points="84.3,-139.02 77.89,-147.45 88.16,-144.86 84.3,-139.02"/>
<text text-anchor="middle" x="202.5" y="-120" font-family="Helvetica,sans-Serif" font-size="10.00"> val_current</text>
<text text-anchor="middle" x="202.5" y="-109" font-family="Helvetica,sans-Serif" font-size="10.00">val_target</text>
<text text-anchor="middle" x="202.5" y="-98" font-family="Helvetica,sans-Serif" font-size="10.00">val_old</text>
</g>
<!-- Node4 -->
<g id="node4" class="node">
<title>Node4</title>
<g id="a_node4"><a xlink:title=" ">
<polygon fill="white" stroke="#bfbfbf" points="86,-237.5 86,-256.5 115,-256.5 115,-237.5 86,-237.5"/>
<text text-anchor="middle" x="100.5" y="-244.5" font-family="Helvetica,sans-Serif" font-size="10.00">T</text>
</a>
</g>
</g>
<!-- Node4&#45;&gt;Node3 -->
<g id="edge3" class="edge">
<title>Node4&#45;&gt;Node3</title>
<path fill="none" stroke="#9a32cd" stroke-dasharray="5,2" d="M89.39,-228.6C87.63,-225.47 85.92,-222.19 84.5,-219 76.48,-200.96 70.43,-178.52 67.48,-166.51"/>
<polygon fill="#9a32cd" stroke="#9a32cd" points="86.47,-230.52 94.63,-237.28 92.46,-226.91 86.47,-230.52"/>
<text text-anchor="middle" x="89.5" y="-211" font-family="Helvetica,sans-Serif" font-size="10.00"> X</text>
<text text-anchor="middle" x="89.5" y="-200" font-family="Helvetica,sans-Serif" font-size="10.00">Y</text>
<text text-anchor="middle" x="89.5" y="-189" font-family="Helvetica,sans-Serif" font-size="10.00">Z</text>
</g>
<!-- Node7 -->
<g id="node7" class="node">
<title>Node7</title>
<g id="a_node7"><a xlink:href="structSmoothTranslator.html" target="_top" xlink:title=" ">
<polygon fill="white" stroke="black" points="149,-147.5 149,-166.5 280,-166.5 280,-147.5 149,-147.5"/>
<text text-anchor="middle" x="214.5" y="-154.5" font-family="Helvetica,sans-Serif" font-size="10.00">SmoothTranslator&lt; T &gt;</text>
</a>
</g>
</g>
<!-- Node4&#45;&gt;Node7 -->
<g id="edge8" class="edge">
<title>Node4&#45;&gt;Node7</title>
<path fill="none" stroke="#9a32cd" stroke-dasharray="5,2" d="M108.08,-227.9C114.45,-214.65 124.73,-197.13 138.5,-186 149.55,-177.07 163.71,-170.83 176.8,-166.55"/>
<polygon fill="#9a32cd" stroke="#9a32cd" points="104.72,-226.84 103.81,-237.39 111.1,-229.7 104.72,-226.84"/>
<text text-anchor="middle" x="167.5" y="-211" font-family="Helvetica,sans-Serif" font-size="10.00"> val_current</text>
<text text-anchor="middle" x="167.5" y="-200" font-family="Helvetica,sans-Serif" font-size="10.00">val_target</text>
<text text-anchor="middle" x="167.5" y="-189" font-family="Helvetica,sans-Serif" font-size="10.00">val_old</text>
</g>
<!-- Node5 -->
<g id="node5" class="node">
<title>Node5</title>
<g id="a_node5"><a xlink:href="classbool.html" target="_top" xlink:title=" ">
<polygon fill="white" stroke="black" points="387.5,-237.5 387.5,-256.5 425.5,-256.5 425.5,-237.5 387.5,-237.5"/>
<text text-anchor="middle" x="406.5" y="-244.5" font-family="Helvetica,sans-Serif" font-size="10.00">bool</text>
</a>
</g>
</g>
<!-- Node5&#45;&gt;Node2 -->
<g id="edge4" class="edge">
<title>Node5&#45;&gt;Node2</title>
<path fill="none" stroke="#9a32cd" stroke-dasharray="5,2" d="M422.9,-229.33C425.19,-226.13 427.21,-222.63 428.5,-219 439.44,-188.25 439.43,-172.58 420.5,-146 394.57,-109.59 345.87,-87.49 315.14,-76.52"/>
<polygon fill="#9a32cd" stroke="#9a32cd" points="420.2,-227.11 416.47,-237.02 425.57,-231.6 420.2,-227.11"/>
<text text-anchor="middle" x="462" y="-154.5" font-family="Helvetica,sans-Serif" font-size="10.00"> aim_is_end</text>
</g>
<!-- Node5&#45;&gt;Node7 -->
<g id="edge7" class="edge">
<title>Node5&#45;&gt;Node7</title>
<path fill="none" stroke="#9a32cd" stroke-dasharray="5,2" d="M385.95,-231.62C366.29,-218.36 335.41,-198.84 306.5,-186 288.34,-177.94 267.19,-171.32 249.74,-166.55"/>
<polygon fill="#9a32cd" stroke="#9a32cd" points="384.17,-234.64 394.4,-237.4 388.13,-228.86 384.17,-234.64"/>
<text text-anchor="middle" x="395" y="-200" font-family="Helvetica,sans-Serif" font-size="10.00"> aim_is_end</text>
</g>
<!-- Node6 -->
<g id="node6" class="node">
<title>Node6</title>
<g id="a_node6"><a xlink:title=" ">
<polygon fill="white" stroke="#bfbfbf" points="243.5,-237.5 243.5,-256.5 275.5,-256.5 275.5,-237.5 243.5,-237.5"/>
<text text-anchor="middle" x="259.5" y="-244.5" font-family="Helvetica,sans-Serif" font-size="10.00">f32</text>
</a>
</g>
</g>
<!-- Node6&#45;&gt;Node2 -->
<g id="edge5" class="edge">
<title>Node6&#45;&gt;Node2</title>
<path fill="none" stroke="#9a32cd" stroke-dasharray="5,2" d="M284.97,-235.71C291.9,-231.6 298.57,-226.11 302.5,-219 329.17,-170.77 316.32,-148.35 302.5,-95 300.78,-88.36 297.03,-81.61 293.71,-76.52"/>
<polygon fill="#9a32cd" stroke="#9a32cd" points="282.91,-232.83 275.6,-240.49 286.09,-239.07 282.91,-232.83"/>
<text text-anchor="middle" x="367.5" y="-160" font-family="Helvetica,sans-Serif" font-size="10.00"> anim_time_counter</text>
<text text-anchor="middle" x="367.5" y="-149" font-family="Helvetica,sans-Serif" font-size="10.00">anim_time</text>
</g>
<!-- Node6&#45;&gt;Node7 -->
<g id="edge9" class="edge">
<title>Node6&#45;&gt;Node7</title>
<path fill="none" stroke="#9a32cd" stroke-dasharray="5,2" d="M233.67,-239.88C222.69,-235.87 210.96,-229.37 204.5,-219 194.28,-202.61 203.38,-179.11 209.68,-166.6"/>
<polygon fill="#9a32cd" stroke="#9a32cd" points="232.77,-243.27 243.36,-242.91 234.86,-236.59 232.77,-243.27"/>
<text text-anchor="middle" x="253.5" y="-205.5" font-family="Helvetica,sans-Serif" font-size="10.00"> anim_time_counter</text>
<text text-anchor="middle" x="253.5" y="-194.5" font-family="Helvetica,sans-Serif" font-size="10.00">anim_time</text>
</g>
<!-- Node7&#45;&gt;Node2 -->
<g id="edge6" class="edge">
<title>Node7&#45;&gt;Node2</title>
<path fill="none" stroke="orange" stroke-dasharray="5,2" d="M226.42,-138.9C235.37,-126.39 248.15,-109.2 260.5,-95 266.07,-88.6 272.82,-81.85 278.18,-76.7"/>
<polygon fill="orange" stroke="orange" points="223.31,-137.24 220.39,-147.42 229.02,-141.28 223.31,-137.24"/>
<text text-anchor="middle" x="281.5" y="-109" font-family="Helvetica,sans-Serif" font-size="10.00"> &lt; v3f &gt;</text>
</g>
</g>
</svg>
