<?xml version="1.0" encoding="UTF-8" standalone="no"?>
<!DOCTYPE svg PUBLIC "-//W3C//DTD SVG 1.1//EN"
 "http://www.w3.org/Graphics/SVG/1.1/DTD/svg11.dtd">
<!-- Generated by graphviz version 2.43.0 (0)
 -->
<!-- Title: Token Pages: 1 -->
<svg width="454pt" height="229pt"
 viewBox="0.00 0.00 454.00 229.00" xmlns="http://www.w3.org/2000/svg" xmlns:xlink="http://www.w3.org/1999/xlink">
<g id="graph0" class="graph" transform="scale(1 1) rotate(0) translate(4 225)">
<title>Token</title>
<polygon fill="white" stroke="transparent" points="-4,4 -4,-225 450,-225 450,4 -4,4"/>
<!-- Node1 -->
<g id="node1" class="node">
<title>Node1</title>
<g id="a_node1"><a xlink:title=" ">
<polygon fill="#bfbfbf" stroke="black" points="356,-0.5 356,-19.5 400,-19.5 400,-0.5 356,-0.5"/>
<text text-anchor="middle" x="378" y="-7.5" font-family="Helvetica,sans-Serif" font-size="10.00">Token</text>
</a>
</g>
</g>
<!-- Node2 -->
<g id="node2" class="node">
<title>Node2</title>
<g id="a_node2"><a xlink:href="unionSemInfo.html" target="_top" xlink:title=" ">
<polygon fill="white" stroke="black" points="298.5,-67.5 298.5,-86.5 355.5,-86.5 355.5,-67.5 298.5,-67.5"/>
<text text-anchor="middle" x="327" y="-74.5" font-family="Helvetica,sans-Serif" font-size="10.00">SemInfo</text>
</a>
</g>
</g>
<!-- Node2&#45;&gt;Node1 -->
<g id="edge1" class="edge">
<title>Node2&#45;&gt;Node1</title>
<path fill="none" stroke="#9a32cd" stroke-dasharray="5,2" d="M339.61,-59.24C344.66,-52.59 350.56,-44.9 356,-38 360.79,-31.92 366.29,-25.17 370.59,-19.94"/>
<polygon fill="#9a32cd" stroke="#9a32cd" points="336.61,-57.4 333.37,-67.49 342.2,-61.62 336.61,-57.4"/>
<text text-anchor="middle" x="377.5" y="-41" font-family="Helvetica,sans-Serif" font-size="10.00"> seminfo</text>
</g>
<!-- Node3 -->
<g id="node3" class="node">
<title>Node3</title>
<g id="a_node3"><a xlink:title=" ">
<polygon fill="white" stroke="#bfbfbf" points="284.5,-134.5 284.5,-153.5 369.5,-153.5 369.5,-134.5 284.5,-134.5"/>
<text text-anchor="middle" x="327" y="-141.5" font-family="Helvetica,sans-Serif" font-size="10.00">LUA_NUMBER</text>
</a>
</g>
</g>
<!-- Node3&#45;&gt;Node2 -->
<g id="edge2" class="edge">
<title>Node3&#45;&gt;Node2</title>
<path fill="none" stroke="#9a32cd" stroke-dasharray="5,2" d="M327,-124.04C327,-111.67 327,-96.12 327,-86.63"/>
<polygon fill="#9a32cd" stroke="#9a32cd" points="323.5,-124.23 327,-134.23 330.5,-124.23 323.5,-124.23"/>
<text text-anchor="middle" x="330.5" y="-108" font-family="Helvetica,sans-Serif" font-size="10.00"> r</text>
</g>
<!-- Node4 -->
<g id="node4" class="node">
<title>Node4</title>
<g id="a_node4"><a xlink:href="unionTString.html" target="_top" xlink:title=" ">
<polygon fill="white" stroke="black" points="186.5,-134.5 186.5,-153.5 237.5,-153.5 237.5,-134.5 186.5,-134.5"/>
<text text-anchor="middle" x="212" y="-141.5" font-family="Helvetica,sans-Serif" font-size="10.00">TString</text>
</a>
</g>
</g>
<!-- Node4&#45;&gt;Node2 -->
<g id="edge3" class="edge">
<title>Node4&#45;&gt;Node2</title>
<path fill="none" stroke="#9a32cd" stroke-dasharray="5,2" d="M236.26,-129.29C259.05,-116.4 292.46,-97.52 311.74,-86.63"/>
<polygon fill="#9a32cd" stroke="#9a32cd" points="234.49,-126.27 227.51,-134.23 237.94,-132.36 234.49,-126.27"/>
<text text-anchor="middle" x="282.5" y="-108" font-family="Helvetica,sans-Serif" font-size="10.00"> ts</text>
</g>
<!-- Node5 -->
<g id="node5" class="node">
<title>Node5</title>
<g id="a_node5"><a xlink:title=" ">
<polygon fill="white" stroke="#bfbfbf" points="124,-201.5 124,-220.5 270,-220.5 270,-201.5 124,-201.5"/>
<text text-anchor="middle" x="197" y="-208.5" font-family="Helvetica,sans-Serif" font-size="10.00">LUAI_USER_ALIGNMENT_T</text>
</a>
</g>
</g>
<!-- Node5&#45;&gt;Node4 -->
<g id="edge4" class="edge">
<title>Node5&#45;&gt;Node4</title>
<path fill="none" stroke="#9a32cd" stroke-dasharray="5,2" d="M201.29,-191.41C204.16,-178.99 207.8,-163.22 210.01,-153.63"/>
<polygon fill="#9a32cd" stroke="#9a32cd" points="197.86,-190.7 199.02,-201.23 204.68,-192.28 197.86,-190.7"/>
<text text-anchor="middle" x="225.5" y="-175" font-family="Helvetica,sans-Serif" font-size="10.00"> dummy</text>
</g>
<!-- Node6 -->
<g id="node6" class="node">
<title>Node6</title>
<g id="a_node6"><a xlink:title=" ">
<polygon fill="white" stroke="#bfbfbf" points="0,-201.5 0,-220.5 38,-220.5 38,-201.5 0,-201.5"/>
<text text-anchor="middle" x="19" y="-208.5" font-family="Helvetica,sans-Serif" font-size="10.00">char</text>
</a>
</g>
</g>
<!-- Node6&#45;&gt;Node4 -->
<g id="edge5" class="edge">
<title>Node6&#45;&gt;Node4</title>
<path fill="none" stroke="#9a32cd" stroke-dasharray="5,2" d="M41.03,-196.18C54.69,-188.13 72.85,-178.35 90,-172 122.14,-160.1 161.08,-152.6 186.18,-148.61"/>
<polygon fill="#9a32cd" stroke="#9a32cd" points="39.11,-193.25 32.35,-201.41 42.73,-199.24 39.11,-193.25"/>
<text text-anchor="middle" x="113" y="-175" font-family="Helvetica,sans-Serif" font-size="10.00"> reserved</text>
</g>
<!-- Node7 -->
<g id="node7" class="node">
<title>Node7</title>
<g id="a_node7"><a xlink:title=" ">
<polygon fill="white" stroke="#bfbfbf" points="60.5,-201.5 60.5,-220.5 105.5,-220.5 105.5,-201.5 60.5,-201.5"/>
<text text-anchor="middle" x="83" y="-208.5" font-family="Helvetica,sans-Serif" font-size="10.00">size_t</text>
</a>
</g>
</g>
<!-- Node7&#45;&gt;Node4 -->
<g id="edge6" class="edge">
<title>Node7&#45;&gt;Node4</title>
<path fill="none" stroke="#9a32cd" stroke-dasharray="5,2" d="M109.25,-196.77C134.8,-183.9 172.89,-164.71 194.8,-153.67"/>
<polygon fill="#9a32cd" stroke="#9a32cd" points="107.49,-193.74 100.13,-201.37 110.64,-199.99 107.49,-193.74"/>
<text text-anchor="middle" x="164.5" y="-175" font-family="Helvetica,sans-Serif" font-size="10.00"> len</text>
</g>
<!-- Node8 -->
<g id="node8" class="node">
<title>Node8</title>
<g id="a_node8"><a xlink:title=" ">
<polygon fill="white" stroke="#bfbfbf" points="398.5,-201.5 398.5,-220.5 427.5,-220.5 427.5,-201.5 398.5,-201.5"/>
<text text-anchor="middle" x="413" y="-208.5" font-family="Helvetica,sans-Serif" font-size="10.00">int</text>
</a>
</g>
</g>
<!-- Node8&#45;&gt;Node1 -->
<g id="edge9" class="edge">
<title>Node8&#45;&gt;Node1</title>
<path fill="none" stroke="#9a32cd" stroke-dasharray="5,2" d="M414.89,-191.11C417.4,-158.59 419.42,-90.47 399,-38 396.33,-31.14 391.32,-24.59 386.86,-19.66"/>
<polygon fill="#9a32cd" stroke="#9a32cd" points="411.37,-191.12 413.98,-201.39 418.35,-191.73 411.37,-191.12"/>
<text text-anchor="middle" x="430.5" y="-108" font-family="Helvetica,sans-Serif" font-size="10.00"> token</text>
</g>
<!-- Node8&#45;&gt;Node4 -->
<g id="edge7" class="edge">
<title>Node8&#45;&gt;Node4</title>
<path fill="none" stroke="#9a32cd" stroke-dasharray="5,2" d="M388.86,-201.02C349.51,-186.97 338.75,-183.33 303,-172 281.01,-165.03 255.85,-157.61 237.57,-152.31"/>
<polygon fill="#9a32cd" stroke="#9a32cd" points="387.71,-204.33 398.31,-204.4 390.07,-197.74 387.71,-204.33"/>
<text text-anchor="middle" x="348.5" y="-175" font-family="Helvetica,sans-Serif" font-size="10.00"> hash</text>
</g>
<!-- Node9 -->
<g id="node9" class="node">
<title>Node9</title>
<g id="a_node9"><a xlink:title=" ">
<polygon fill="white" stroke="#bfbfbf" points="288,-201.5 288,-220.5 380,-220.5 380,-201.5 288,-201.5"/>
<text text-anchor="middle" x="334" y="-208.5" font-family="Helvetica,sans-Serif" font-size="10.00">anonymous:tsv</text>
</a>
</g>
</g>
<!-- Node9&#45;&gt;Node4 -->
<g id="edge8" class="edge">
<title>Node9&#45;&gt;Node4</title>
<path fill="none" stroke="#9a32cd" stroke-dasharray="5,2" d="M308.86,-196.6C284.69,-183.73 248.9,-164.66 228.27,-153.67"/>
<polygon fill="#9a32cd" stroke="#9a32cd" points="307.33,-199.76 317.8,-201.37 310.62,-193.58 307.33,-199.76"/>
<text text-anchor="middle" x="289.5" y="-175" font-family="Helvetica,sans-Serif" font-size="10.00"> tsv</text>
</g>
</g>
</svg>
