<?xml version="1.0" encoding="UTF-8" standalone="no"?>
<!DOCTYPE svg PUBLIC "-//W3C//DTD SVG 1.1//EN"
 "http://www.w3.org/Graphics/SVG/1.1/DTD/svg11.dtd">
<!-- Generated by graphviz version 2.43.0 (0)
 -->
<!-- Title: con::Peer::rttstats Pages: 1 -->
<svg width="114pt" height="150pt"
 viewBox="0.00 0.00 113.50 150.00" xmlns="http://www.w3.org/2000/svg" xmlns:xlink="http://www.w3.org/1999/xlink">
<g id="graph0" class="graph" transform="scale(1 1) rotate(0) translate(4 146)">
<title>con::Peer::rttstats</title>
<polygon fill="white" stroke="transparent" points="-4,4 -4,-146 109.5,-146 109.5,4 -4,4"/>
<!-- Node1 -->
<g id="node1" class="node">
<title>Node1</title>
<g id="a_node1"><a xlink:title=" ">
<polygon fill="#bfbfbf" stroke="black" points="0,-0.5 0,-19.5 103,-19.5 103,-0.5 0,-0.5"/>
<text text-anchor="middle" x="51.5" y="-7.5" font-family="Helvetica,sans-Serif" font-size="10.00">con::Peer::rttstats</text>
</a>
</g>
</g>
<!-- Node2 -->
<g id="node2" class="node">
<title>Node2</title>
<g id="a_node2"><a xlink:title=" ">
<polygon fill="white" stroke="#bfbfbf" points="32.5,-122.5 32.5,-141.5 70.5,-141.5 70.5,-122.5 32.5,-122.5"/>
<text text-anchor="middle" x="51.5" y="-129.5" font-family="Helvetica,sans-Serif" font-size="10.00">float</text>
</a>
</g>
</g>
<!-- Node2&#45;&gt;Node1 -->
<g id="edge1" class="edge">
<title>Node2&#45;&gt;Node1</title>
<path fill="none" stroke="#9a32cd" stroke-dasharray="5,2" d="M51.5,-112.15C51.5,-85.72 51.5,-38.76 51.5,-19.55"/>
<polygon fill="#9a32cd" stroke="#9a32cd" points="48,-112.37 51.5,-122.37 55,-112.37 48,-112.37"/>
<text text-anchor="middle" x="78.5" y="-96" font-family="Helvetica,sans-Serif" font-size="10.00"> jitter_max</text>
<text text-anchor="middle" x="78.5" y="-85" font-family="Helvetica,sans-Serif" font-size="10.00">avg_rtt</text>
<text text-anchor="middle" x="78.5" y="-74" font-family="Helvetica,sans-Serif" font-size="10.00">min_rtt</text>
<text text-anchor="middle" x="78.5" y="-63" font-family="Helvetica,sans-Serif" font-size="10.00">jitter_avg</text>
<text text-anchor="middle" x="78.5" y="-52" font-family="Helvetica,sans-Serif" font-size="10.00">max_rtt</text>
<text text-anchor="middle" x="78.5" y="-41" font-family="Helvetica,sans-Serif" font-size="10.00">jitter_min</text>
</g>
</g>
</svg>
