<?xml version="1.0" encoding="UTF-8" standalone="no"?>
<!DOCTYPE svg PUBLIC "-//W3C//DTD SVG 1.1//EN"
 "http://www.w3.org/Graphics/SVG/1.1/DTD/svg11.dtd">
<!-- Generated by graphviz version 2.43.0 (0)
 -->
<!-- Title: ContentSpec Pages: 1 -->
<svg width="121pt" height="150pt"
 viewBox="0.00 0.00 121.00 150.00" xmlns="http://www.w3.org/2000/svg" xmlns:xlink="http://www.w3.org/1999/xlink">
<g id="graph0" class="graph" transform="scale(1 1) rotate(0) translate(4 146)">
<title>ContentSpec</title>
<polygon fill="white" stroke="transparent" points="-4,4 -4,-146 117,-146 117,4 -4,4"/>
<!-- Node1 -->
<g id="node1" class="node">
<title>Node1</title>
<g id="a_node1"><a xlink:title=" ">
<polygon fill="#bfbfbf" stroke="black" points="12,-0.5 12,-19.5 90,-19.5 90,-0.5 12,-0.5"/>
<text text-anchor="middle" x="51" y="-7.5" font-family="Helvetica,sans-Serif" font-size="10.00">ContentSpec</text>
</a>
</g>
</g>
<!-- Node2 -->
<g id="node2" class="node">
<title>Node2</title>
<g id="a_node2"><a xlink:title=" ">
<polygon fill="white" stroke="#bfbfbf" points="0,-122.5 0,-141.5 44,-141.5 44,-122.5 0,-122.5"/>
<text text-anchor="middle" x="22" y="-129.5" font-family="Helvetica,sans-Serif" font-size="10.00">string</text>
</a>
</g>
</g>
<!-- Node2&#45;&gt;Node1 -->
<g id="edge1" class="edge">
<title>Node2&#45;&gt;Node1</title>
<path fill="none" stroke="#9a32cd" stroke-dasharray="5,2" d="M19.15,-112.43C17,-93.05 15.92,-62.19 26,-38 29,-30.81 34.82,-24.34 40.09,-19.54"/>
<polygon fill="#9a32cd" stroke="#9a32cd" points="15.69,-112.91 20.47,-122.37 22.63,-112 15.69,-112.91"/>
<text text-anchor="middle" x="42" y="-96" font-family="Helvetica,sans-Serif" font-size="10.00"> title</text>
<text text-anchor="middle" x="42" y="-85" font-family="Helvetica,sans-Serif" font-size="10.00">desc</text>
<text text-anchor="middle" x="42" y="-74" font-family="Helvetica,sans-Serif" font-size="10.00">path</text>
<text text-anchor="middle" x="42" y="-63" font-family="Helvetica,sans-Serif" font-size="10.00">author</text>
<text text-anchor="middle" x="42" y="-52" font-family="Helvetica,sans-Serif" font-size="10.00">type</text>
<text text-anchor="middle" x="42" y="-41" font-family="Helvetica,sans-Serif" font-size="10.00">name</text>
</g>
<!-- Node3 -->
<g id="node3" class="node">
<title>Node3</title>
<g id="a_node3"><a xlink:title=" ">
<polygon fill="white" stroke="#bfbfbf" points="62.5,-122.5 62.5,-141.5 97.5,-141.5 97.5,-122.5 62.5,-122.5"/>
<text text-anchor="middle" x="80" y="-129.5" font-family="Helvetica,sans-Serif" font-size="10.00">u32</text>
</a>
</g>
</g>
<!-- Node3&#45;&gt;Node1 -->
<g id="edge2" class="edge">
<title>Node3&#45;&gt;Node1</title>
<path fill="none" stroke="#9a32cd" stroke-dasharray="5,2" d="M75.71,-112.36C71.36,-93.56 64.38,-63.73 58,-38 56.46,-31.8 54.65,-24.81 53.25,-19.5"/>
<polygon fill="#9a32cd" stroke="#9a32cd" points="72.34,-113.31 78,-122.27 79.16,-111.74 72.34,-113.31"/>
<text text-anchor="middle" x="93" y="-68.5" font-family="Helvetica,sans-Serif" font-size="10.00"> release</text>
</g>
</g>
</svg>
