<?xml version="1.0" encoding="UTF-8" standalone="no"?>
<!DOCTYPE svg PUBLIC "-//W3C//DTD SVG 1.1//EN"
 "http://www.w3.org/Graphics/SVG/1.1/DTD/svg11.dtd">
<!-- Generated by graphviz version 2.43.0 (0)
 -->
<!-- Title: Catch::Matchers::StdString::StringMatcherBase Pages: 1 -->
<svg width="884pt" height="150pt"
 viewBox="0.00 0.00 884.00 150.15" xmlns="http://www.w3.org/2000/svg" xmlns:xlink="http://www.w3.org/1999/xlink">
<g id="graph0" class="graph" transform="scale(1 1) rotate(0) translate(4 146.15)">
<title>Catch::Matchers::StdString::StringMatcherBase</title>
<polygon fill="white" stroke="transparent" points="-4,4 -4,-146.15 880,-146.15 880,4 -4,4"/>
<!-- Node1 -->
<g id="node1" class="node">
<title>Node1</title>
<g id="a_node1"><a xlink:title=" ">
<polygon fill="#bfbfbf" stroke="black" points="730,-12.65 730,-42.65 876,-42.65 876,-12.65 730,-12.65"/>
<text text-anchor="start" x="738" y="-30.65" font-family="Helvetica,sans-Serif" font-size="10.00">Catch::Matchers::StdString</text>
<text text-anchor="middle" x="803" y="-19.65" font-family="Helvetica,sans-Serif" font-size="10.00">::StringMatcherBase</text>
</a>
</g>
</g>
<!-- Node2 -->
<g id="node2" class="node">
<title>Node2</title>
<g id="a_node2"><a xlink:href="structCatch_1_1Matchers_1_1Impl_1_1MatcherBase.html" target="_top" xlink:title=" ">
<polygon fill="white" stroke="black" points="535,-60.65 535,-90.65 693,-90.65 693,-60.65 535,-60.65"/>
<text text-anchor="start" x="543" y="-78.65" font-family="Helvetica,sans-Serif" font-size="10.00">Catch::Matchers::Impl</text>
<text text-anchor="middle" x="614" y="-67.65" font-family="Helvetica,sans-Serif" font-size="10.00">::MatcherBase&lt; std::string &gt;</text>
</a>
</g>
</g>
<!-- Node2&#45;&gt;Node1 -->
<g id="edge1" class="edge">
<title>Node2&#45;&gt;Node1</title>
<path fill="none" stroke="midnightblue" d="M683.49,-58.07C703.2,-53.01 724.51,-47.54 743.55,-42.65"/>
<polygon fill="midnightblue" stroke="midnightblue" points="682.47,-54.72 673.65,-60.6 684.21,-61.5 682.47,-54.72"/>
</g>
<!-- Node3 -->
<g id="node3" class="node">
<title>Node3</title>
<g id="a_node3"><a xlink:href="classCatch_1_1Matchers_1_1Impl_1_1MatcherUntypedBase.html" target="_top" xlink:title=" ">
<polygon fill="white" stroke="black" points="297,-60.65 297,-90.65 425,-90.65 425,-60.65 297,-60.65"/>
<text text-anchor="start" x="305" y="-78.65" font-family="Helvetica,sans-Serif" font-size="10.00">Catch::Matchers::Impl</text>
<text text-anchor="middle" x="361" y="-67.65" font-family="Helvetica,sans-Serif" font-size="10.00">::MatcherUntypedBase</text>
</a>
</g>
</g>
<!-- Node3&#45;&gt;Node2 -->
<g id="edge2" class="edge">
<title>Node3&#45;&gt;Node2</title>
<path fill="none" stroke="midnightblue" d="M435.38,-75.65C466.56,-75.65 502.97,-75.65 534.67,-75.65"/>
<polygon fill="midnightblue" stroke="midnightblue" points="435.01,-72.15 425.01,-75.65 435.01,-79.15 435.01,-72.15"/>
</g>
<!-- Node4 -->
<g id="node4" class="node">
<title>Node4</title>
<g id="a_node4"><a xlink:title=" ">
<polygon fill="white" stroke="#bfbfbf" points="57.5,-5.15 57.5,-24.15 101.5,-24.15 101.5,-5.15 57.5,-5.15"/>
<text text-anchor="middle" x="79.5" y="-12.15" font-family="Helvetica,sans-Serif" font-size="10.00">string</text>
</a>
</g>
</g>
<!-- Node4&#45;&gt;Node1 -->
<g id="edge9" class="edge">
<title>Node4&#45;&gt;Node1</title>
<path fill="none" stroke="#9a32cd" stroke-dasharray="5,2" d="M111.76,-12.08C152.35,-8.88 225.41,-3.61 288,-1.65 352.86,0.38 369.15,0.64 434,-1.65 536.89,-5.28 655.67,-14.6 729.81,-21.04"/>
<polygon fill="#9a32cd" stroke="#9a32cd" points="111.38,-8.6 101.69,-12.88 111.93,-15.58 111.38,-8.6"/>
<text text-anchor="middle" x="484.5" y="-8.65" font-family="Helvetica,sans-Serif" font-size="10.00"> m_operation</text>
</g>
<!-- Node4&#45;&gt;Node3 -->
<g id="edge3" class="edge">
<title>Node4&#45;&gt;Node3</title>
<path fill="none" stroke="#9a32cd" stroke-dasharray="5,2" d="M112.08,-18.88C149.91,-24.23 215.05,-34.38 270,-47.65 284.95,-51.26 301.06,-56 315.45,-60.54"/>
<polygon fill="#9a32cd" stroke="#9a32cd" points="112.1,-15.35 101.71,-17.43 111.14,-22.28 112.1,-15.35"/>
<text text-anchor="middle" x="223.5" y="-50.65" font-family="Helvetica,sans-Serif" font-size="10.00"> m_cachedToString</text>
</g>
<!-- Node7 -->
<g id="node7" class="node">
<title>Node7</title>
<g id="a_node7"><a xlink:href="structCatch_1_1Matchers_1_1StdString_1_1CasedString.html" target="_top" xlink:title=" ">
<polygon fill="white" stroke="black" points="288,-11.65 288,-41.65 434,-41.65 434,-11.65 288,-11.65"/>
<text text-anchor="start" x="296" y="-29.65" font-family="Helvetica,sans-Serif" font-size="10.00">Catch::Matchers::StdString</text>
<text text-anchor="middle" x="361" y="-18.65" font-family="Helvetica,sans-Serif" font-size="10.00">::CasedString</text>
</a>
</g>
</g>
<!-- Node4&#45;&gt;Node7 -->
<g id="edge8" class="edge">
<title>Node4&#45;&gt;Node7</title>
<path fill="none" stroke="#9a32cd" stroke-dasharray="5,2" d="M111.86,-13.7C149.48,-12.82 214.42,-12.12 270,-15.65 275.81,-16.02 281.82,-16.51 287.86,-17.09"/>
<polygon fill="#9a32cd" stroke="#9a32cd" points="111.47,-10.21 101.56,-13.96 111.64,-17.21 111.47,-10.21"/>
<text text-anchor="middle" x="223.5" y="-18.65" font-family="Helvetica,sans-Serif" font-size="10.00"> m_str</text>
</g>
<!-- Node5 -->
<g id="node5" class="node">
<title>Node5</title>
<g id="a_node5"><a xlink:href="structCatch_1_1Matchers_1_1Impl_1_1MatcherMethod.html" target="_top" xlink:title=" ">
<polygon fill="white" stroke="black" points="297,-110.65 297,-140.65 425,-140.65 425,-110.65 297,-110.65"/>
<text text-anchor="start" x="305" y="-128.65" font-family="Helvetica,sans-Serif" font-size="10.00">Catch::Matchers::Impl</text>
<text text-anchor="middle" x="361" y="-117.65" font-family="Helvetica,sans-Serif" font-size="10.00">::MatcherMethod&lt; T &gt;</text>
</a>
</g>
</g>
<!-- Node5&#45;&gt;Node2 -->
<g id="edge4" class="edge">
<title>Node5&#45;&gt;Node2</title>
<path fill="none" stroke="midnightblue" d="M435.23,-111.06C467.36,-104.66 505.05,-97.16 537.43,-90.7"/>
<polygon fill="midnightblue" stroke="midnightblue" points="434.14,-107.71 425.01,-113.1 435.51,-114.58 434.14,-107.71"/>
</g>
<!-- Node6 -->
<g id="node6" class="node">
<title>Node6</title>
<g id="a_node6"><a xlink:href="structCatch_1_1Matchers_1_1Impl_1_1MatcherMethod.html" target="_top" xlink:title=" ">
<polygon fill="white" stroke="black" points="0,-111.65 0,-141.65 159,-141.65 159,-111.65 0,-111.65"/>
<text text-anchor="start" x="8" y="-129.65" font-family="Helvetica,sans-Serif" font-size="10.00">Catch::Matchers::Impl</text>
<text text-anchor="middle" x="79.5" y="-118.65" font-family="Helvetica,sans-Serif" font-size="10.00">::MatcherMethod&lt; ObjectT &gt;</text>
</a>
</g>
</g>
<!-- Node6&#45;&gt;Node5 -->
<g id="edge5" class="edge">
<title>Node6&#45;&gt;Node5</title>
<path fill="none" stroke="orange" stroke-dasharray="5,2" d="M169.22,-126.33C210.77,-126.19 259.29,-126.01 297,-125.88"/>
<polygon fill="orange" stroke="orange" points="169.09,-122.83 159.1,-126.37 169.11,-129.83 169.09,-122.83"/>
<text text-anchor="middle" x="223.5" y="-129.65" font-family="Helvetica,sans-Serif" font-size="10.00"> &lt; T &gt;</text>
</g>
<!-- Node7&#45;&gt;Node1 -->
<g id="edge6" class="edge">
<title>Node7&#45;&gt;Node1</title>
<path fill="none" stroke="#9a32cd" stroke-dasharray="5,2" d="M444.21,-26.84C526.35,-27.02 651.38,-27.31 729.8,-27.49"/>
<polygon fill="#9a32cd" stroke="#9a32cd" points="444.17,-23.34 434.16,-26.82 444.16,-30.34 444.17,-23.34"/>
<text text-anchor="middle" x="614" y="-30.65" font-family="Helvetica,sans-Serif" font-size="10.00"> m_comparator</text>
</g>
<!-- Node8 -->
<g id="node8" class="node">
<title>Node8</title>
<g id="a_node8"><a xlink:title=" ">
<polygon fill="white" stroke="#bfbfbf" points="54.5,-73.15 54.5,-92.15 104.5,-92.15 104.5,-73.15 54.5,-73.15"/>
<text text-anchor="middle" x="79.5" y="-80.15" font-family="Helvetica,sans-Serif" font-size="10.00">Choice</text>
</a>
</g>
</g>
<!-- Node8&#45;&gt;Node7 -->
<g id="edge7" class="edge">
<title>Node8&#45;&gt;Node7</title>
<path fill="none" stroke="#9a32cd" stroke-dasharray="5,2" d="M114.96,-82.65C153.6,-81.74 217.69,-77.48 270,-60.65 278.71,-57.85 279.62,-54.34 288,-50.65 295.24,-47.47 303.04,-44.46 310.74,-41.72"/>
<polygon fill="#9a32cd" stroke="#9a32cd" points="114.7,-79.15 104.77,-82.82 114.83,-86.15 114.7,-79.15"/>
<text text-anchor="middle" x="223.5" y="-81.65" font-family="Helvetica,sans-Serif" font-size="10.00"> m_caseSensitivity</text>
</g>
</g>
</svg>
