<?xml version="1.0" encoding="UTF-8" standalone="no"?>
<!DOCTYPE svg PUBLIC "-//W3C//DTD SVG 1.1//EN"
 "http://www.w3.org/Graphics/SVG/1.1/DTD/svg11.dtd">
<!-- Generated by graphviz version 2.43.0 (0)
 -->
<!-- Title: GUIFormSpecMenu::parserData Pages: 1 -->
<svg width="1561pt" height="1267pt"
 viewBox="0.00 0.00 1561.00 1266.80" xmlns="http://www.w3.org/2000/svg" xmlns:xlink="http://www.w3.org/1999/xlink">
<g id="graph0" class="graph" transform="scale(1 1) rotate(0) translate(4 1262.8)">
<title>GUIFormSpecMenu::parserData</title>
<polygon fill="white" stroke="transparent" points="-4,4 -4,-1262.8 1557,-1262.8 1557,4 -4,4"/>
<!-- Node1 -->
<g id="node1" class="node">
<title>Node1</title>
<g id="a_node1"><a xlink:title=" ">
<polygon fill="#bfbfbf" stroke="black" points="1383,-301.5 1383,-320.5 1553,-320.5 1553,-301.5 1383,-301.5"/>
<text text-anchor="middle" x="1468" y="-308.5" font-family="Helvetica,sans-Serif" font-size="10.00">GUIFormSpecMenu::parserData</text>
</a>
</g>
</g>
<!-- Node2 -->
<g id="node2" class="node">
<title>Node2</title>
<g id="a_node2"><a xlink:href="classirr__ptr.html" target="_top" xlink:title=" ">
<polygon fill="white" stroke="black" points="1099,-694.5 1099,-713.5 1250,-713.5 1250,-694.5 1099,-694.5"/>
<text text-anchor="middle" x="1174.5" y="-701.5" font-family="Helvetica,sans-Serif" font-size="10.00">irr_ptr&lt; gui::IGUIElement &gt;</text>
</a>
</g>
</g>
<!-- Node2&#45;&gt;Node1 -->
<g id="edge1" class="edge">
<title>Node2&#45;&gt;Node1</title>
<path fill="none" stroke="#9a32cd" stroke-dasharray="5,2" d="M1205.14,-690.02C1246.3,-669.23 1320.7,-626.47 1365,-570 1430.03,-487.11 1458.27,-357.58 1465.22,-320.95"/>
<polygon fill="#9a32cd" stroke="#9a32cd" points="1203.56,-686.9 1196.16,-694.48 1206.67,-693.17 1203.56,-686.9"/>
<text text-anchor="middle" x="1316.5" y="-655" font-family="Helvetica,sans-Serif" font-size="10.00"> background_parent</text>
</g>
<!-- Node3 -->
<g id="node3" class="node">
<title>Node3</title>
<g id="a_node3"><a xlink:href="classirr_1_1gui_1_1IGUIElement.html" target="_top" xlink:title="Base class of all GUI elements.">
<polygon fill="white" stroke="black" points="821,-894.5 821,-913.5 937,-913.5 937,-894.5 821,-894.5"/>
<text text-anchor="middle" x="879" y="-901.5" font-family="Helvetica,sans-Serif" font-size="10.00">irr::gui::IGUIElement</text>
</a>
</g>
</g>
<!-- Node3&#45;&gt;Node1 -->
<g id="edge40" class="edge">
<title>Node3&#45;&gt;Node1</title>
<path fill="none" stroke="#9a32cd" stroke-dasharray="5,2" d="M947.04,-893.22C987.03,-885.36 1038.19,-872.76 1081,-854 1219.42,-793.34 1275.5,-788.78 1365,-667 1450.47,-550.69 1464.48,-364.6 1466.63,-320.56"/>
<polygon fill="#9a32cd" stroke="#9a32cd" points="946.29,-889.8 937.13,-895.12 947.61,-896.68 946.29,-889.8"/>
<text text-anchor="middle" x="1174.5" y="-847" font-family="Helvetica,sans-Serif" font-size="10.00"> current_parent</text>
</g>
<!-- Node3&#45;&gt;Node2 -->
<g id="edge2" class="edge">
<title>Node3&#45;&gt;Node2</title>
<path fill="none" stroke="#9a32cd" stroke-dasharray="5,2" d="M902.6,-888.6C960.43,-849.19 1112.52,-745.55 1159.49,-713.55"/>
<polygon fill="#9a32cd" stroke="#9a32cd" points="900.45,-885.83 894.16,-894.35 904.39,-891.61 900.45,-885.83"/>
<text text-anchor="middle" x="1026.5" y="-842" font-family="Helvetica,sans-Serif" font-size="10.00"> value</text>
</g>
<!-- Node3&#45;&gt;Node3 -->
<g id="edge7" class="edge">
<title>Node3&#45;&gt;Node3</title>
<path fill="none" stroke="#9a32cd" stroke-dasharray="5,2" d="M851.75,-922.65C852.89,-927.94 861.97,-932 879,-932 904.95,-932 912.45,-922.57 901.5,-913.76"/>
<polygon fill="#9a32cd" stroke="#9a32cd" points="854.88,-924.23 856.5,-913.76 848.7,-920.93 854.88,-924.23"/>
<text text-anchor="middle" x="879" y="-935" font-family="Helvetica,sans-Serif" font-size="10.00"> Parent</text>
</g>
<!-- Node4 -->
<g id="node4" class="node">
<title>Node4</title>
<g id="a_node4"><a xlink:href="classirr_1_1IReferenceCounted.html" target="_top" xlink:title="Base class of most objects of the Irrlicht Engine.">
<polygon fill="white" stroke="black" points="236,-1059.5 236,-1078.5 362,-1078.5 362,-1059.5 236,-1059.5"/>
<text text-anchor="middle" x="299" y="-1066.5" font-family="Helvetica,sans-Serif" font-size="10.00">irr::IReferenceCounted</text>
</a>
</g>
</g>
<!-- Node4&#45;&gt;Node3 -->
<g id="edge3" class="edge">
<title>Node4&#45;&gt;Node3</title>
<path fill="none" stroke="midnightblue" d="M328.84,-1083.02C366.8,-1100.67 436.1,-1130.1 499,-1142 561.67,-1153.86 733.49,-1182.21 786,-1146 867.4,-1089.86 876.84,-951.49 877.88,-913.68"/>
<polygon fill="midnightblue" stroke="midnightblue" points="329.98,-1079.69 319.44,-1078.59 326.99,-1086.02 329.98,-1079.69"/>
</g>
<!-- Node18 -->
<g id="node18" class="node">
<title>Node18</title>
<g id="a_node18"><a xlink:href="classirr_1_1gui_1_1IGUIEnvironment.html" target="_top" xlink:title="GUI Environment. Used as factory and manager of all other GUI elements.">
<polygon fill="white" stroke="black" points="511,-1037.5 511,-1056.5 648,-1056.5 648,-1037.5 511,-1037.5"/>
<text text-anchor="middle" x="579.5" y="-1044.5" font-family="Helvetica,sans-Serif" font-size="10.00">irr::gui::IGUIEnvironment</text>
</a>
</g>
</g>
<!-- Node4&#45;&gt;Node18 -->
<g id="edge19" class="edge">
<title>Node4&#45;&gt;Node18</title>
<path fill="none" stroke="midnightblue" d="M372.21,-1063.3C414.94,-1059.92 468.74,-1055.67 510.69,-1052.36"/>
<polygon fill="midnightblue" stroke="midnightblue" points="371.85,-1059.81 362.15,-1064.09 372.4,-1066.79 371.85,-1059.81"/>
</g>
<!-- Node5 -->
<g id="node5" class="node">
<title>Node5</title>
<g id="a_node5"><a xlink:title=" ">
<polygon fill="white" stroke="#bfbfbf" points="29,-1066.5 29,-1085.5 67,-1085.5 67,-1066.5 29,-1066.5"/>
<text text-anchor="middle" x="48" y="-1073.5" font-family="Helvetica,sans-Serif" font-size="10.00">char</text>
</a>
</g>
</g>
<!-- Node5&#45;&gt;Node4 -->
<g id="edge4" class="edge">
<title>Node5&#45;&gt;Node4</title>
<path fill="none" stroke="#9a32cd" stroke-dasharray="5,2" d="M77.75,-1075.19C116.19,-1074.11 185.34,-1072.17 235.94,-1070.74"/>
<polygon fill="#9a32cd" stroke="#9a32cd" points="77.21,-1071.71 67.31,-1075.49 77.4,-1078.7 77.21,-1071.71"/>
<text text-anchor="middle" x="159.5" y="-1077" font-family="Helvetica,sans-Serif" font-size="10.00"> DebugName</text>
</g>
<!-- Node6 -->
<g id="node6" class="node">
<title>Node6</title>
<g id="a_node6"><a xlink:title=" ">
<polygon fill="white" stroke="#bfbfbf" points="23,-1014.5 23,-1033.5 73,-1033.5 73,-1014.5 23,-1014.5"/>
<text text-anchor="middle" x="48" y="-1021.5" font-family="Helvetica,sans-Serif" font-size="10.00">int32_t</text>
</a>
</g>
</g>
<!-- Node6&#45;&gt;Node3 -->
<g id="edge20" class="edge">
<title>Node6&#45;&gt;Node3</title>
<path fill="none" stroke="#9a32cd" stroke-dasharray="5,2" d="M83.34,-1023.98C220.01,-1023.73 721.05,-1020.88 786,-993 826.03,-975.82 858.69,-932.78 871.8,-913.54"/>
<polygon fill="#9a32cd" stroke="#9a32cd" points="83.05,-1020.48 73.05,-1024 83.06,-1027.48 83.05,-1020.48"/>
<text text-anchor="middle" x="437" y="-1034" font-family="Helvetica,sans-Serif" font-size="10.00"> TabOrder</text>
<text text-anchor="middle" x="437" y="-1023" font-family="Helvetica,sans-Serif" font-size="10.00">ID</text>
</g>
<!-- Node6&#45;&gt;Node4 -->
<g id="edge5" class="edge">
<title>Node6&#45;&gt;Node4</title>
<path fill="none" stroke="#9a32cd" stroke-dasharray="5,2" d="M83.32,-1030.2C125.23,-1037.78 196.56,-1050.67 245.41,-1059.5"/>
<polygon fill="#9a32cd" stroke="#9a32cd" points="83.79,-1026.73 73.33,-1028.4 82.55,-1033.62 83.79,-1026.73"/>
<text text-anchor="middle" x="159.5" y="-1054" font-family="Helvetica,sans-Serif" font-size="10.00"> ReferenceCounter</text>
</g>
<!-- Node7 -->
<g id="node7" class="node">
<title>Node7</title>
<g id="a_node7"><a xlink:href="classirr_1_1IEventReceiver.html" target="_top" xlink:title="Interface of an object which can receive events.">
<polygon fill="white" stroke="black" points="526,-799.5 526,-818.5 633,-818.5 633,-799.5 526,-799.5"/>
<text text-anchor="middle" x="579.5" y="-806.5" font-family="Helvetica,sans-Serif" font-size="10.00">irr::IEventReceiver</text>
</a>
</g>
</g>
<!-- Node7&#45;&gt;Node3 -->
<g id="edge6" class="edge">
<title>Node7&#45;&gt;Node3</title>
<path fill="none" stroke="midnightblue" d="M643.37,-810.59C685.1,-813.45 740.37,-820.78 786,-839 819.24,-852.28 851.97,-879.79 867.93,-894.4"/>
<polygon fill="midnightblue" stroke="midnightblue" points="643.53,-807.09 633.34,-809.97 643.1,-814.08 643.53,-807.09"/>
</g>
<!-- Node8 -->
<g id="node8" class="node">
<title>Node8</title>
<g id="a_node8"><a xlink:title=" ">
<polygon fill="white" stroke="#bfbfbf" points="527,-837.5 527,-856.5 632,-856.5 632,-837.5 527,-837.5"/>
<text text-anchor="middle" x="579.5" y="-844.5" font-family="Helvetica,sans-Serif" font-size="10.00">string&lt; wchar_t &gt;</text>
</a>
</g>
</g>
<!-- Node8&#45;&gt;Node3 -->
<g id="edge8" class="edge">
<title>Node8&#45;&gt;Node3</title>
<path fill="none" stroke="#9a32cd" stroke-dasharray="5,2" d="M642.29,-843.29C683.64,-842.44 738.91,-844.45 786,-857 815.46,-864.85 846.37,-883 863.8,-894.31"/>
<polygon fill="#9a32cd" stroke="#9a32cd" points="641.99,-839.8 632.09,-843.57 642.18,-846.8 641.99,-839.8"/>
<text text-anchor="middle" x="732" y="-871" font-family="Helvetica,sans-Serif" font-size="10.00"> ToolTipText</text>
<text text-anchor="middle" x="732" y="-860" font-family="Helvetica,sans-Serif" font-size="10.00">Text</text>
</g>
<!-- Node9 -->
<g id="node9" class="node">
<title>Node9</title>
<g id="a_node9"><a xlink:title=" ">
<polygon fill="white" stroke="#bfbfbf" points="277,-821.5 277,-840.5 321,-840.5 321,-821.5 277,-821.5"/>
<text text-anchor="middle" x="299" y="-828.5" font-family="Helvetica,sans-Serif" font-size="10.00">string</text>
</a>
</g>
</g>
<!-- Node9&#45;&gt;Node8 -->
<g id="edge9" class="edge">
<title>Node9&#45;&gt;Node8</title>
<path fill="none" stroke="orange" stroke-dasharray="5,2" d="M331.4,-832.8C378.93,-835.53 469.66,-840.75 526.97,-844.04"/>
<polygon fill="orange" stroke="orange" points="331.58,-829.31 321.39,-832.23 331.17,-836.3 331.58,-829.31"/>
<text text-anchor="middle" x="437" y="-844" font-family="Helvetica,sans-Serif" font-size="10.00"> &lt; wchar_t &gt;</text>
</g>
<!-- Node19 -->
<g id="node19" class="node">
<title>Node19</title>
<g id="a_node19"><a xlink:title=" ">
<polygon fill="white" stroke="#bfbfbf" points="540.5,-761.5 540.5,-780.5 618.5,-780.5 618.5,-761.5 540.5,-761.5"/>
<text text-anchor="middle" x="579.5" y="-768.5" font-family="Helvetica,sans-Serif" font-size="10.00">string&lt; c8 &gt;</text>
</a>
</g>
</g>
<!-- Node9&#45;&gt;Node19 -->
<g id="edge22" class="edge">
<title>Node9&#45;&gt;Node19</title>
<path fill="none" stroke="orange" stroke-dasharray="5,2" d="M331.24,-824.27C382.52,-813.22 484.41,-791.27 540.05,-779.28"/>
<polygon fill="orange" stroke="orange" points="330.43,-820.86 321.39,-826.39 331.9,-827.71 330.43,-820.86"/>
<text text-anchor="middle" x="437" y="-812" font-family="Helvetica,sans-Serif" font-size="10.00"> &lt; c8 &gt;</text>
</g>
<!-- Node10 -->
<g id="node10" class="node">
<title>Node10</title>
<g id="a_node10"><a xlink:href="classirr_1_1core_1_1dimension2d.html" target="_top" xlink:title=" ">
<polygon fill="white" stroke="black" points="518,-712 518,-742 641,-742 641,-712 518,-712"/>
<text text-anchor="start" x="526" y="-730" font-family="Helvetica,sans-Serif" font-size="10.00">irr::core::dimension2d</text>
<text text-anchor="middle" x="579.5" y="-719" font-family="Helvetica,sans-Serif" font-size="10.00">&lt; u32 &gt;</text>
</a>
</g>
</g>
<!-- Node10&#45;&gt;Node3 -->
<g id="edge10" class="edge">
<title>Node10&#45;&gt;Node3</title>
<path fill="none" stroke="#9a32cd" stroke-dasharray="5,2" d="M651.59,-717.21C693.75,-715.02 746.49,-718.91 786,-744 843.08,-780.24 868.56,-865.44 875.76,-894.27"/>
<polygon fill="#9a32cd" stroke="#9a32cd" points="651.15,-713.73 641.39,-717.86 651.6,-720.71 651.15,-713.73"/>
<text text-anchor="middle" x="732" y="-758" font-family="Helvetica,sans-Serif" font-size="10.00"> MinSize</text>
<text text-anchor="middle" x="732" y="-747" font-family="Helvetica,sans-Serif" font-size="10.00">MaxSize</text>
</g>
<!-- Node11 -->
<g id="node11" class="node">
<title>Node11</title>
<g id="a_node11"><a xlink:title=" ">
<polygon fill="white" stroke="#bfbfbf" points="271,-608.5 271,-627.5 327,-627.5 327,-608.5 271,-608.5"/>
<text text-anchor="middle" x="299" y="-615.5" font-family="Helvetica,sans-Serif" font-size="10.00">uint32_t</text>
</a>
</g>
</g>
<!-- Node11&#45;&gt;Node10 -->
<g id="edge11" class="edge">
<title>Node11&#45;&gt;Node10</title>
<path fill="none" stroke="#9a32cd" stroke-dasharray="5,2" d="M337.05,-620.79C376.45,-625.46 438.77,-637.9 481,-671 493.54,-680.83 486.56,-692.05 499,-702 504.65,-706.52 511.12,-710.23 517.89,-713.27"/>
<polygon fill="#9a32cd" stroke="#9a32cd" points="337.39,-617.31 327.07,-619.72 336.64,-624.27 337.39,-617.31"/>
<text text-anchor="middle" x="437" y="-685" font-family="Helvetica,sans-Serif" font-size="10.00"> Width</text>
<text text-anchor="middle" x="437" y="-674" font-family="Helvetica,sans-Serif" font-size="10.00">Height</text>
</g>
<!-- Node38 -->
<g id="node38" class="node">
<title>Node38</title>
<g id="a_node38"><a xlink:href="classirr_1_1video_1_1SColor.html" target="_top" xlink:title="Class representing a 32 bit ARGB color.">
<polygon fill="white" stroke="black" points="530.5,-564.5 530.5,-583.5 628.5,-583.5 628.5,-564.5 530.5,-564.5"/>
<text text-anchor="middle" x="579.5" y="-571.5" font-family="Helvetica,sans-Serif" font-size="10.00">irr::video::SColor</text>
</a>
</g>
</g>
<!-- Node11&#45;&gt;Node38 -->
<g id="edge47" class="edge">
<title>Node11&#45;&gt;Node38</title>
<path fill="none" stroke="#9a32cd" stroke-dasharray="5,2" d="M337.23,-612.12C387.04,-604.25 475.45,-590.28 530.3,-581.62"/>
<polygon fill="#9a32cd" stroke="#9a32cd" points="336.54,-608.68 327.21,-613.7 337.63,-615.6 336.54,-608.68"/>
<text text-anchor="middle" x="437" y="-605" font-family="Helvetica,sans-Serif" font-size="10.00"> color</text>
</g>
<!-- Node12 -->
<g id="node12" class="node">
<title>Node12</title>
<g id="a_node12"><a xlink:href="classirr_1_1core_1_1dimension2d.html" target="_top" xlink:title="Specifies a 2 dimensional size.">
<polygon fill="white" stroke="black" points="223,-665.5 223,-684.5 375,-684.5 375,-665.5 223,-665.5"/>
<text text-anchor="middle" x="299" y="-672.5" font-family="Helvetica,sans-Serif" font-size="10.00">irr::core::dimension2d&lt; T &gt;</text>
</a>
</g>
</g>
<!-- Node12&#45;&gt;Node10 -->
<g id="edge12" class="edge">
<title>Node12&#45;&gt;Node10</title>
<path fill="none" stroke="orange" stroke-dasharray="5,2" d="M347.26,-686.87C361.87,-690.36 378.06,-694.03 393,-697 434.44,-705.24 481.42,-712.82 517.73,-718.3"/>
<polygon fill="orange" stroke="orange" points="347.97,-683.44 337.42,-684.5 346.32,-690.25 347.97,-683.44"/>
<text text-anchor="middle" x="437" y="-715" font-family="Helvetica,sans-Serif" font-size="10.00"> &lt; u32 &gt;</text>
</g>
<!-- Node13 -->
<g id="node13" class="node">
<title>Node13</title>
<g id="a_node13"><a xlink:title=" ">
<polygon fill="white" stroke="#bfbfbf" points="33.5,-470.5 33.5,-489.5 62.5,-489.5 62.5,-470.5 33.5,-470.5"/>
<text text-anchor="middle" x="48" y="-477.5" font-family="Helvetica,sans-Serif" font-size="10.00">T</text>
</a>
</g>
</g>
<!-- Node13&#45;&gt;Node12 -->
<g id="edge13" class="edge">
<title>Node13&#45;&gt;Node12</title>
<path fill="none" stroke="#9a32cd" stroke-dasharray="5,2" d="M65.01,-497.19C94.28,-527.95 159.26,-593.25 223,-637 239.61,-648.4 260.1,-658.55 275.47,-665.49"/>
<polygon fill="#9a32cd" stroke="#9a32cd" points="67.46,-494.69 58.05,-489.82 62.37,-499.49 67.46,-494.69"/>
<text text-anchor="middle" x="159.5" y="-636" font-family="Helvetica,sans-Serif" font-size="10.00"> Width</text>
<text text-anchor="middle" x="159.5" y="-625" font-family="Helvetica,sans-Serif" font-size="10.00">Height</text>
</g>
<!-- Node31 -->
<g id="node31" class="node">
<title>Node31</title>
<g id="a_node31"><a xlink:href="classirr_1_1core_1_1vector2d.html" target="_top" xlink:title="2d vector template class with lots of operators and methods.">
<polygon fill="white" stroke="black" points="813.5,-329.5 813.5,-348.5 944.5,-348.5 944.5,-329.5 813.5,-329.5"/>
<text text-anchor="middle" x="879" y="-336.5" font-family="Helvetica,sans-Serif" font-size="10.00">irr::core::vector2d&lt; T &gt;</text>
</a>
</g>
</g>
<!-- Node13&#45;&gt;Node31 -->
<g id="edge36" class="edge">
<title>Node13&#45;&gt;Node31</title>
<path fill="none" stroke="#9a32cd" stroke-dasharray="5,2" d="M72.58,-475.99C183.88,-457.06 657.97,-376.42 821.94,-348.54"/>
<polygon fill="#9a32cd" stroke="#9a32cd" points="71.97,-472.54 62.7,-477.67 73.14,-479.44 71.97,-472.54"/>
<text text-anchor="middle" x="437" y="-434" font-family="Helvetica,sans-Serif" font-size="10.00"> X</text>
<text text-anchor="middle" x="437" y="-423" font-family="Helvetica,sans-Serif" font-size="10.00">Y</text>
</g>
<!-- Node14 -->
<g id="node14" class="node">
<title>Node14</title>
<g id="a_node14"><a xlink:href="classirr_1_1core_1_1rect.html" target="_top" xlink:title=" ">
<polygon fill="white" stroke="black" points="520,-1204.5 520,-1223.5 639,-1223.5 639,-1204.5 520,-1204.5"/>
<text text-anchor="middle" x="579.5" y="-1211.5" font-family="Helvetica,sans-Serif" font-size="10.00">irr::core::rect&lt; s32 &gt;</text>
</a>
</g>
</g>
<!-- Node14&#45;&gt;Node1 -->
<g id="edge49" class="edge">
<title>Node14&#45;&gt;Node1</title>
<path fill="none" stroke="#9a32cd" stroke-dasharray="5,2" d="M608.41,-1227.78C648.7,-1245.71 725.02,-1272.27 786,-1250 1110.9,-1131.36 1204.23,-1036.24 1365,-730 1443.65,-580.19 1462.93,-368.34 1466.37,-320.74"/>
<polygon fill="#9a32cd" stroke="#9a32cd" points="609.76,-1224.55 599.21,-1223.55 606.83,-1230.91 609.76,-1224.55"/>
<text text-anchor="middle" x="1026.5" y="-1174" font-family="Helvetica,sans-Serif" font-size="10.00"> rect</text>
</g>
<!-- Node14&#45;&gt;Node3 -->
<g id="edge14" class="edge">
<title>Node14&#45;&gt;Node3</title>
<path fill="none" stroke="#9a32cd" stroke-dasharray="5,2" d="M638.3,-1202.54C698.59,-1190.54 784.58,-1173.25 786,-1172 867.67,-1100.24 876.9,-952.65 877.89,-913.63"/>
<polygon fill="#9a32cd" stroke="#9a32cd" points="637.62,-1199.11 628.49,-1204.49 638.98,-1205.97 637.62,-1199.11"/>
<text text-anchor="middle" x="732" y="-1240" font-family="Helvetica,sans-Serif" font-size="10.00"> AbsoluteClippingRect</text>
<text text-anchor="middle" x="732" y="-1229" font-family="Helvetica,sans-Serif" font-size="10.00">LastParentRect</text>
<text text-anchor="middle" x="732" y="-1218" font-family="Helvetica,sans-Serif" font-size="10.00">RelativeRect</text>
<text text-anchor="middle" x="732" y="-1207" font-family="Helvetica,sans-Serif" font-size="10.00">DesiredRect</text>
<text text-anchor="middle" x="732" y="-1196" font-family="Helvetica,sans-Serif" font-size="10.00">AbsoluteRect</text>
</g>
<!-- Node15 -->
<g id="node15" class="node">
<title>Node15</title>
<g id="a_node15"><a xlink:title=" ">
<polygon fill="white" stroke="#bfbfbf" points="245.5,-1218.5 245.5,-1237.5 352.5,-1237.5 352.5,-1218.5 245.5,-1218.5"/>
<text text-anchor="middle" x="299" y="-1225.5" font-family="Helvetica,sans-Serif" font-size="10.00">position2d&lt; s32 &gt;</text>
</a>
</g>
</g>
<!-- Node15&#45;&gt;Node14 -->
<g id="edge15" class="edge">
<title>Node15&#45;&gt;Node14</title>
<path fill="none" stroke="#9a32cd" stroke-dasharray="5,2" d="M362.78,-1224.84C409.81,-1222.48 473.71,-1219.27 519.74,-1216.95"/>
<polygon fill="#9a32cd" stroke="#9a32cd" points="362.52,-1221.35 352.71,-1225.35 362.87,-1228.34 362.52,-1221.35"/>
<text text-anchor="middle" x="437" y="-1237" font-family="Helvetica,sans-Serif" font-size="10.00"> UpperLeftCorner</text>
<text text-anchor="middle" x="437" y="-1226" font-family="Helvetica,sans-Serif" font-size="10.00">LowerRightCorner</text>
</g>
<!-- Node16 -->
<g id="node16" class="node">
<title>Node16</title>
<g id="a_node16"><a xlink:href="classirr_1_1core_1_1rect.html" target="_top" xlink:title="Rectangle template.">
<polygon fill="white" stroke="black" points="245.5,-951.5 245.5,-970.5 352.5,-970.5 352.5,-951.5 245.5,-951.5"/>
<text text-anchor="middle" x="299" y="-958.5" font-family="Helvetica,sans-Serif" font-size="10.00">irr::core::rect&lt; T &gt;</text>
</a>
</g>
</g>
<!-- Node16&#45;&gt;Node14 -->
<g id="edge16" class="edge">
<title>Node16&#45;&gt;Node14</title>
<path fill="none" stroke="orange" stroke-dasharray="5,2" d="M318.34,-977.7C353.4,-1009.64 432.41,-1081.56 499,-1142 523.68,-1164.4 552.72,-1190.68 567.95,-1204.46"/>
<polygon fill="orange" stroke="orange" points="320.53,-974.96 310.78,-970.82 315.81,-980.14 320.53,-974.96"/>
<text text-anchor="middle" x="437" y="-1125" font-family="Helvetica,sans-Serif" font-size="10.00"> &lt; s32 &gt;</text>
</g>
<!-- Node20 -->
<g id="node20" class="node">
<title>Node20</title>
<g id="a_node20"><a xlink:href="classirr_1_1core_1_1rect.html" target="_top" xlink:title=" ">
<polygon fill="white" stroke="black" points="521,-876.5 521,-895.5 638,-895.5 638,-876.5 521,-876.5"/>
<text text-anchor="middle" x="579.5" y="-883.5" font-family="Helvetica,sans-Serif" font-size="10.00">irr::core::rect&lt; f32 &gt;</text>
</a>
</g>
</g>
<!-- Node16&#45;&gt;Node20 -->
<g id="edge25" class="edge">
<title>Node16&#45;&gt;Node20</title>
<path fill="none" stroke="orange" stroke-dasharray="5,2" d="M349.83,-949.03C386.43,-939.87 437.18,-926.41 481,-912 489.15,-909.32 490.81,-907.56 499,-905 510.11,-901.53 522.26,-898.33 533.64,-895.59"/>
<polygon fill="orange" stroke="orange" points="348.77,-945.69 339.91,-951.5 350.45,-952.48 348.77,-945.69"/>
<text text-anchor="middle" x="437" y="-939" font-family="Helvetica,sans-Serif" font-size="10.00"> &lt; f32 &gt;</text>
</g>
<!-- Node17 -->
<g id="node17" class="node">
<title>Node17</title>
<g id="a_node17"><a xlink:title=" ">
<polygon fill="white" stroke="#bfbfbf" points="0,-951.5 0,-970.5 96,-970.5 96,-951.5 0,-951.5"/>
<text text-anchor="middle" x="48" y="-958.5" font-family="Helvetica,sans-Serif" font-size="10.00">position2d&lt; T &gt;</text>
</a>
</g>
</g>
<!-- Node17&#45;&gt;Node16 -->
<g id="edge17" class="edge">
<title>Node17&#45;&gt;Node16</title>
<path fill="none" stroke="#9a32cd" stroke-dasharray="5,2" d="M106.19,-961C148.13,-961 204.66,-961 245.47,-961"/>
<polygon fill="#9a32cd" stroke="#9a32cd" points="106.13,-957.5 96.13,-961 106.13,-964.5 106.13,-957.5"/>
<text text-anchor="middle" x="159.5" y="-975" font-family="Helvetica,sans-Serif" font-size="10.00"> UpperLeftCorner</text>
<text text-anchor="middle" x="159.5" y="-964" font-family="Helvetica,sans-Serif" font-size="10.00">LowerRightCorner</text>
</g>
<!-- Node18&#45;&gt;Node3 -->
<g id="edge18" class="edge">
<title>Node18&#45;&gt;Node3</title>
<path fill="none" stroke="#9a32cd" stroke-dasharray="5,2" d="M658.3,-1045C707.05,-1042.55 764.56,-1037.1 786,-1025 832.89,-998.55 863.47,-937.42 873.96,-913.67"/>
<polygon fill="#9a32cd" stroke="#9a32cd" points="657.87,-1041.52 648.05,-1045.48 658.2,-1048.51 657.87,-1041.52"/>
<text text-anchor="middle" x="732" y="-1046" font-family="Helvetica,sans-Serif" font-size="10.00"> Environment</text>
</g>
<!-- Node19&#45;&gt;Node3 -->
<g id="edge21" class="edge">
<title>Node19&#45;&gt;Node3</title>
<path fill="none" stroke="#9a32cd" stroke-dasharray="5,2" d="M628.6,-768.29C672.21,-767.9 736.97,-772.64 786,-799 828.69,-821.96 860.83,-873.13 872.85,-894.42"/>
<polygon fill="#9a32cd" stroke="#9a32cd" points="628.47,-764.79 618.54,-768.47 628.6,-771.79 628.47,-764.79"/>
<text text-anchor="middle" x="732" y="-802" font-family="Helvetica,sans-Serif" font-size="10.00"> Name</text>
</g>
<!-- Node20&#45;&gt;Node3 -->
<g id="edge23" class="edge">
<title>Node20&#45;&gt;Node3</title>
<path fill="none" stroke="#9a32cd" stroke-dasharray="5,2" d="M648.4,-883.9C688.51,-883.35 740.24,-883.83 786,-888 801.01,-889.37 817.26,-891.86 831.86,-894.47"/>
<polygon fill="#9a32cd" stroke="#9a32cd" points="648.14,-880.4 638.2,-884.06 648.26,-887.4 648.14,-880.4"/>
<text text-anchor="middle" x="732" y="-891" font-family="Helvetica,sans-Serif" font-size="10.00"> ScaleRect</text>
</g>
<!-- Node21 -->
<g id="node21" class="node">
<title>Node21</title>
<g id="a_node21"><a xlink:title=" ">
<polygon fill="white" stroke="#bfbfbf" points="246,-876.5 246,-895.5 352,-895.5 352,-876.5 246,-876.5"/>
<text text-anchor="middle" x="299" y="-883.5" font-family="Helvetica,sans-Serif" font-size="10.00">position2d&lt; f32 &gt;</text>
</a>
</g>
</g>
<!-- Node21&#45;&gt;Node20 -->
<g id="edge24" class="edge">
<title>Node21&#45;&gt;Node20</title>
<path fill="none" stroke="#9a32cd" stroke-dasharray="5,2" d="M362.21,-886C409.7,-886 474.64,-886 520.94,-886"/>
<polygon fill="#9a32cd" stroke="#9a32cd" points="362.06,-882.5 352.06,-886 362.06,-889.5 362.06,-882.5"/>
<text text-anchor="middle" x="437" y="-900" font-family="Helvetica,sans-Serif" font-size="10.00"> UpperLeftCorner</text>
<text text-anchor="middle" x="437" y="-889" font-family="Helvetica,sans-Serif" font-size="10.00">LowerRightCorner</text>
</g>
<!-- Node22 -->
<g id="node22" class="node">
<title>Node22</title>
<g id="a_node22"><a xlink:href="classbool.html" target="_top" xlink:title=" ">
<polygon fill="white" stroke="black" points="560.5,-515.5 560.5,-534.5 598.5,-534.5 598.5,-515.5 560.5,-515.5"/>
<text text-anchor="middle" x="579.5" y="-522.5" font-family="Helvetica,sans-Serif" font-size="10.00">bool</text>
</a>
</g>
</g>
<!-- Node22&#45;&gt;Node1 -->
<g id="edge52" class="edge">
<title>Node22&#45;&gt;Node1</title>
<path fill="none" stroke="#9a32cd" stroke-dasharray="5,2" d="M609.02,-524.57C728.86,-522.64 1188.2,-514.04 1250,-495 1351.96,-463.58 1436.35,-354.19 1460.23,-320.77"/>
<polygon fill="#9a32cd" stroke="#9a32cd" points="608.76,-521.07 598.81,-524.73 608.87,-528.07 608.76,-521.07"/>
<text text-anchor="middle" x="1026.5" y="-529" font-family="Helvetica,sans-Serif" font-size="10.00"> real_coordinates</text>
<text text-anchor="middle" x="1026.5" y="-518" font-family="Helvetica,sans-Serif" font-size="10.00">explicit_size</text>
</g>
<!-- Node22&#45;&gt;Node3 -->
<g id="edge26" class="edge">
<title>Node22&#45;&gt;Node3</title>
<path fill="none" stroke="#9a32cd" stroke-dasharray="5,2" d="M608.43,-530.04C625.09,-534.28 645.72,-541.84 660,-555 673.74,-567.66 663.55,-581.15 678,-593 716.26,-624.37 752.47,-583.62 786,-620 819.28,-656.1 790.34,-681.84 804,-729 822.99,-794.59 859.65,-868.53 872.99,-894.43"/>
<polygon fill="#9a32cd" stroke="#9a32cd" points="609.19,-526.62 598.66,-527.81 607.63,-533.45 609.19,-526.62"/>
<text text-anchor="middle" x="732" y="-678" font-family="Helvetica,sans-Serif" font-size="10.00"> IsTabStop</text>
<text text-anchor="middle" x="732" y="-667" font-family="Helvetica,sans-Serif" font-size="10.00">IsSubElement</text>
<text text-anchor="middle" x="732" y="-656" font-family="Helvetica,sans-Serif" font-size="10.00">IsTabGroup</text>
<text text-anchor="middle" x="732" y="-645" font-family="Helvetica,sans-Serif" font-size="10.00">IsEnabled</text>
<text text-anchor="middle" x="732" y="-634" font-family="Helvetica,sans-Serif" font-size="10.00">NoClip</text>
<text text-anchor="middle" x="732" y="-623" font-family="Helvetica,sans-Serif" font-size="10.00">IsVisible</text>
</g>
<!-- Node37 -->
<g id="node37" class="node">
<title>Node37</title>
<g id="a_node37"><a xlink:href="structGUIInventoryList_1_1Options.html" target="_top" xlink:title=" ">
<polygon fill="white" stroke="black" points="808,-546.5 808,-565.5 950,-565.5 950,-546.5 808,-546.5"/>
<text text-anchor="middle" x="879" y="-553.5" font-family="Helvetica,sans-Serif" font-size="10.00">GUIInventoryList::Options</text>
</a>
</g>
</g>
<!-- Node22&#45;&gt;Node37 -->
<g id="edge48" class="edge">
<title>Node22&#45;&gt;Node37</title>
<path fill="none" stroke="#9a32cd" stroke-dasharray="5,2" d="M608.7,-526.17C648.38,-528.02 722.91,-532.23 786,-540 799.84,-541.7 814.76,-544.07 828.48,-546.46"/>
<polygon fill="#9a32cd" stroke="#9a32cd" points="608.85,-522.67 598.7,-525.72 608.53,-529.67 608.85,-522.67"/>
<text text-anchor="middle" x="732" y="-543" font-family="Helvetica,sans-Serif" font-size="10.00"> slotborder</text>
</g>
<!-- Node23 -->
<g id="node23" class="node">
<title>Node23</title>
<g id="a_node23"><a xlink:title=" ">
<polygon fill="white" stroke="#bfbfbf" points="499,-1113.5 499,-1132.5 660,-1132.5 660,-1113.5 499,-1113.5"/>
<text text-anchor="middle" x="579.5" y="-1120.5" font-family="Helvetica,sans-Serif" font-size="10.00">list&lt; irr::gui::IGUIElement * &gt;</text>
</a>
</g>
</g>
<!-- Node23&#45;&gt;Node3 -->
<g id="edge27" class="edge">
<title>Node23&#45;&gt;Node3</title>
<path fill="none" stroke="#9a32cd" stroke-dasharray="5,2" d="M670.44,-1132.13C709.17,-1131.6 753.03,-1124.55 786,-1101 852.04,-1053.83 872.04,-946.94 876.76,-913.91"/>
<polygon fill="#9a32cd" stroke="#9a32cd" points="670.19,-1128.63 660.19,-1132.13 670.19,-1135.63 670.19,-1128.63"/>
<text text-anchor="middle" x="732" y="-1134" font-family="Helvetica,sans-Serif" font-size="10.00"> Children</text>
</g>
<!-- Node24 -->
<g id="node24" class="node">
<title>Node24</title>
<g id="a_node24"><a xlink:title=" ">
<polygon fill="white" stroke="#bfbfbf" points="553,-1075.5 553,-1094.5 606,-1094.5 606,-1075.5 553,-1075.5"/>
<text text-anchor="middle" x="579.5" y="-1082.5" font-family="Helvetica,sans-Serif" font-size="10.00">iterator</text>
</a>
</g>
</g>
<!-- Node24&#45;&gt;Node3 -->
<g id="edge28" class="edge">
<title>Node24&#45;&gt;Node3</title>
<path fill="none" stroke="#9a32cd" stroke-dasharray="5,2" d="M616.49,-1089.23C660.24,-1092.49 734.61,-1091.78 786,-1058 840.65,-1022.08 867.55,-941.46 875.45,-913.65"/>
<polygon fill="#9a32cd" stroke="#9a32cd" points="616.58,-1085.72 606.32,-1088.36 615.98,-1092.7 616.58,-1085.72"/>
<text text-anchor="middle" x="732" y="-1092" font-family="Helvetica,sans-Serif" font-size="10.00"> ParentPos</text>
</g>
<!-- Node25 -->
<g id="node25" class="node">
<title>Node25</title>
<g id="a_node25"><a xlink:title=" ">
<polygon fill="white" stroke="#bfbfbf" points="519,-961.5 519,-980.5 640,-980.5 640,-961.5 519,-961.5"/>
<text text-anchor="middle" x="579.5" y="-968.5" font-family="Helvetica,sans-Serif" font-size="10.00">EGUI_ELEMENT_TYPE</text>
</a>
</g>
</g>
<!-- Node25&#45;&gt;Node3 -->
<g id="edge29" class="edge">
<title>Node25&#45;&gt;Node3</title>
<path fill="none" stroke="#9a32cd" stroke-dasharray="5,2" d="M650.44,-977.82C690.94,-979.52 742.38,-977.78 786,-964 819.09,-953.55 851.63,-927.63 867.68,-913.52"/>
<polygon fill="#9a32cd" stroke="#9a32cd" points="650.55,-974.32 640.39,-977.32 650.2,-981.31 650.55,-974.32"/>
<text text-anchor="middle" x="732" y="-981" font-family="Helvetica,sans-Serif" font-size="10.00"> Type</text>
</g>
<!-- Node26 -->
<g id="node26" class="node">
<title>Node26</title>
<g id="a_node26"><a xlink:title=" ">
<polygon fill="white" stroke="#bfbfbf" points="527.5,-914.5 527.5,-933.5 631.5,-933.5 631.5,-914.5 527.5,-914.5"/>
<text text-anchor="middle" x="579.5" y="-921.5" font-family="Helvetica,sans-Serif" font-size="10.00">EGUI_ALIGNMENT</text>
</a>
</g>
</g>
<!-- Node26&#45;&gt;Node3 -->
<g id="edge30" class="edge">
<title>Node26&#45;&gt;Node3</title>
<path fill="none" stroke="#9a32cd" stroke-dasharray="5,2" d="M641.85,-919.88C694.44,-916.34 769.62,-911.29 820.93,-907.84"/>
<polygon fill="#9a32cd" stroke="#9a32cd" points="641.38,-916.4 631.64,-920.56 641.85,-923.38 641.38,-916.4"/>
<text text-anchor="middle" x="732" y="-952" font-family="Helvetica,sans-Serif" font-size="10.00"> AlignRight</text>
<text text-anchor="middle" x="732" y="-941" font-family="Helvetica,sans-Serif" font-size="10.00">AlignBottom</text>
<text text-anchor="middle" x="732" y="-930" font-family="Helvetica,sans-Serif" font-size="10.00">AlignLeft</text>
<text text-anchor="middle" x="732" y="-919" font-family="Helvetica,sans-Serif" font-size="10.00">AlignTop</text>
</g>
<!-- Node27 -->
<g id="node27" class="node">
<title>Node27</title>
<g id="a_node27"><a xlink:href="classirr__ptr.html" target="_top" xlink:title=" ">
<polygon fill="white" stroke="black" points="804,-689 804,-719 954,-719 954,-689 804,-689"/>
<text text-anchor="start" x="812" y="-707" font-family="Helvetica,sans-Serif" font-size="10.00">irr_ptr&lt; ReferenceCounted,</text>
<text text-anchor="middle" x="879" y="-696" font-family="Helvetica,sans-Serif" font-size="10.00"> class &gt;</text>
</a>
</g>
</g>
<!-- Node27&#45;&gt;Node2 -->
<g id="edge31" class="edge">
<title>Node27&#45;&gt;Node2</title>
<path fill="none" stroke="orange" stroke-dasharray="5,2" d="M964.12,-704C1006.66,-704 1057.84,-704 1098.95,-704"/>
<polygon fill="orange" stroke="orange" points="964.06,-700.5 954.06,-704 964.06,-707.5 964.06,-700.5"/>
<text text-anchor="middle" x="1026.5" y="-707" font-family="Helvetica,sans-Serif" font-size="10.00"> &lt; gui::IGUIElement &gt;</text>
</g>
<!-- Node28 -->
<g id="node28" class="node">
<title>Node28</title>
<g id="a_node28"><a xlink:title=" ">
<polygon fill="white" stroke="#bfbfbf" points="522,-673.5 522,-692.5 637,-692.5 637,-673.5 522,-673.5"/>
<text text-anchor="middle" x="579.5" y="-680.5" font-family="Helvetica,sans-Serif" font-size="10.00">ReferenceCounted *</text>
</a>
</g>
</g>
<!-- Node28&#45;&gt;Node27 -->
<g id="edge32" class="edge">
<title>Node28&#45;&gt;Node27</title>
<path fill="none" stroke="#9a32cd" stroke-dasharray="5,2" d="M647.42,-687.72C693.9,-691 755.84,-695.38 803.82,-698.76"/>
<polygon fill="#9a32cd" stroke="#9a32cd" points="647.38,-684.21 637.16,-687 646.89,-691.19 647.38,-684.21"/>
<text text-anchor="middle" x="732" y="-700" font-family="Helvetica,sans-Serif" font-size="10.00"> value</text>
</g>
<!-- Node29 -->
<g id="node29" class="node">
<title>Node29</title>
<g id="a_node29"><a xlink:href="classirr_1_1core_1_1vector2d.html" target="_top" xlink:title=" ">
<polygon fill="white" stroke="black" points="1123,-213 1123,-243 1226,-243 1226,-213 1123,-213"/>
<text text-anchor="start" x="1131" y="-231" font-family="Helvetica,sans-Serif" font-size="10.00">irr::core::vector2d</text>
<text text-anchor="middle" x="1174.5" y="-220" font-family="Helvetica,sans-Serif" font-size="10.00">&lt; u32 &gt;</text>
</a>
</g>
</g>
<!-- Node29&#45;&gt;Node1 -->
<g id="edge33" class="edge">
<title>Node29&#45;&gt;Node1</title>
<path fill="none" stroke="#9a32cd" stroke-dasharray="5,2" d="M1236.32,-237.78C1273.86,-244.57 1322.76,-254.77 1365,-268 1394.53,-277.25 1427.26,-291.87 1447.48,-301.45"/>
<polygon fill="#9a32cd" stroke="#9a32cd" points="1236.5,-234.26 1226.04,-235.96 1235.28,-241.15 1236.5,-234.26"/>
<text text-anchor="middle" x="1316.5" y="-271" font-family="Helvetica,sans-Serif" font-size="10.00"> screensize</text>
</g>
<!-- Node30 -->
<g id="node30" class="node">
<title>Node30</title>
<g id="a_node30"><a xlink:title=" ">
<polygon fill="white" stroke="#bfbfbf" points="861.5,-188.5 861.5,-207.5 896.5,-207.5 896.5,-188.5 861.5,-188.5"/>
<text text-anchor="middle" x="879" y="-195.5" font-family="Helvetica,sans-Serif" font-size="10.00">u32</text>
</a>
</g>
</g>
<!-- Node30&#45;&gt;Node29 -->
<g id="edge34" class="edge">
<title>Node30&#45;&gt;Node29</title>
<path fill="none" stroke="#9a32cd" stroke-dasharray="5,2" d="M906.96,-195.6C945.73,-192.73 1019.33,-189.4 1081,-199 1090.73,-200.51 1110.89,-206.7 1129.91,-212.97"/>
<polygon fill="#9a32cd" stroke="#9a32cd" points="906.24,-192.15 896.55,-196.43 906.79,-199.13 906.24,-192.15"/>
<text text-anchor="middle" x="1026.5" y="-213" font-family="Helvetica,sans-Serif" font-size="10.00"> X</text>
<text text-anchor="middle" x="1026.5" y="-202" font-family="Helvetica,sans-Serif" font-size="10.00">Y</text>
</g>
<!-- Node31&#45;&gt;Node29 -->
<g id="edge35" class="edge">
<title>Node31&#45;&gt;Node29</title>
<path fill="none" stroke="orange" stroke-dasharray="5,2" d="M912.84,-324.83C926.74,-317.67 942.38,-307.94 954,-296 965.65,-284.03 958.42,-272.73 972,-263 1016.02,-231.46 1079.1,-225.08 1122.91,-225.07"/>
<polygon fill="orange" stroke="orange" points="911,-321.84 903.56,-329.38 914.08,-328.12 911,-321.84"/>
<text text-anchor="middle" x="1026.5" y="-266" font-family="Helvetica,sans-Serif" font-size="10.00"> &lt; u32 &gt;</text>
</g>
<!-- Node32 -->
<g id="node32" class="node">
<title>Node32</title>
<g id="a_node32"><a xlink:href="classirr_1_1core_1_1vector2d.html" target="_top" xlink:title=" ">
<polygon fill="white" stroke="black" points="1123,-311 1123,-341 1226,-341 1226,-311 1123,-311"/>
<text text-anchor="start" x="1131" y="-329" font-family="Helvetica,sans-Serif" font-size="10.00">irr::core::vector2d</text>
<text text-anchor="middle" x="1174.5" y="-318" font-family="Helvetica,sans-Serif" font-size="10.00">&lt; f32 &gt;</text>
</a>
</g>
</g>
<!-- Node31&#45;&gt;Node32 -->
<g id="edge39" class="edge">
<title>Node31&#45;&gt;Node32</title>
<path fill="none" stroke="orange" stroke-dasharray="5,2" d="M935.53,-327.76C947.51,-325.78 960.14,-324.02 972,-323 1023.24,-318.58 1082.07,-320.22 1122.89,-322.43"/>
<polygon fill="orange" stroke="orange" points="934.92,-324.31 925.66,-329.46 936.11,-331.21 934.92,-324.31"/>
<text text-anchor="middle" x="1026.5" y="-326" font-family="Helvetica,sans-Serif" font-size="10.00"> &lt; f32 &gt;</text>
</g>
<!-- Node34 -->
<g id="node34" class="node">
<title>Node34</title>
<g id="a_node34"><a xlink:href="classirr_1_1core_1_1vector2d.html" target="_top" xlink:title=" ">
<polygon fill="white" stroke="black" points="1123,-360 1123,-390 1226,-390 1226,-360 1123,-360"/>
<text text-anchor="start" x="1131" y="-378" font-family="Helvetica,sans-Serif" font-size="10.00">irr::core::vector2d</text>
<text text-anchor="middle" x="1174.5" y="-367" font-family="Helvetica,sans-Serif" font-size="10.00">&lt; s32 &gt;</text>
</a>
</g>
</g>
<!-- Node31&#45;&gt;Node34 -->
<g id="edge43" class="edge">
<title>Node31&#45;&gt;Node34</title>
<path fill="none" stroke="orange" stroke-dasharray="5,2" d="M954.75,-348.17C1007.47,-354.64 1076.67,-363.12 1122.99,-368.8"/>
<polygon fill="orange" stroke="orange" points="955.12,-344.69 944.77,-346.94 954.27,-351.64 955.12,-344.69"/>
<text text-anchor="middle" x="1026.5" y="-366" font-family="Helvetica,sans-Serif" font-size="10.00"> &lt; s32 &gt;</text>
</g>
<!-- Node32&#45;&gt;Node1 -->
<g id="edge37" class="edge">
<title>Node32&#45;&gt;Node1</title>
<path fill="none" stroke="#9a32cd" stroke-dasharray="5,2" d="M1236.23,-315.52C1246.79,-314.07 1257.69,-312.8 1268,-312 1305.55,-309.08 1347.19,-308.47 1382.65,-308.72"/>
<polygon fill="#9a32cd" stroke="#9a32cd" points="1235.64,-312.07 1226.24,-316.97 1236.63,-319 1235.64,-312.07"/>
<text text-anchor="middle" x="1316.5" y="-348" font-family="Helvetica,sans-Serif" font-size="10.00"> padding</text>
<text text-anchor="middle" x="1316.5" y="-337" font-family="Helvetica,sans-Serif" font-size="10.00">offset</text>
<text text-anchor="middle" x="1316.5" y="-326" font-family="Helvetica,sans-Serif" font-size="10.00">anchor</text>
<text text-anchor="middle" x="1316.5" y="-315" font-family="Helvetica,sans-Serif" font-size="10.00">invsize</text>
</g>
<!-- Node33 -->
<g id="node33" class="node">
<title>Node33</title>
<g id="a_node33"><a xlink:title=" ">
<polygon fill="white" stroke="#bfbfbf" points="863,-267.5 863,-286.5 895,-286.5 895,-267.5 863,-267.5"/>
<text text-anchor="middle" x="879" y="-274.5" font-family="Helvetica,sans-Serif" font-size="10.00">f32</text>
</a>
</g>
</g>
<!-- Node33&#45;&gt;Node32 -->
<g id="edge38" class="edge">
<title>Node33&#45;&gt;Node32</title>
<path fill="none" stroke="#9a32cd" stroke-dasharray="5,2" d="M905.47,-276.47C944.07,-276.25 1019.41,-278.19 1081,-294 1089.48,-296.18 1090.82,-298.88 1099,-302 1107.12,-305.1 1115.84,-308.16 1124.35,-310.99"/>
<polygon fill="#9a32cd" stroke="#9a32cd" points="905.12,-272.97 895.16,-276.58 905.2,-279.97 905.12,-272.97"/>
<text text-anchor="middle" x="1026.5" y="-308" font-family="Helvetica,sans-Serif" font-size="10.00"> X</text>
<text text-anchor="middle" x="1026.5" y="-297" font-family="Helvetica,sans-Serif" font-size="10.00">Y</text>
</g>
<!-- Node34&#45;&gt;Node1 -->
<g id="edge41" class="edge">
<title>Node34&#45;&gt;Node1</title>
<path fill="none" stroke="#9a32cd" stroke-dasharray="5,2" d="M1236.43,-373.76C1274.01,-371.8 1322.92,-367.09 1365,-356 1396.26,-347.76 1430.14,-331.12 1449.92,-320.55"/>
<polygon fill="#9a32cd" stroke="#9a32cd" points="1235.96,-370.28 1226.14,-374.24 1236.29,-377.27 1235.96,-370.28"/>
<text text-anchor="middle" x="1316.5" y="-385" font-family="Helvetica,sans-Serif" font-size="10.00"> size</text>
<text text-anchor="middle" x="1316.5" y="-374" font-family="Helvetica,sans-Serif" font-size="10.00">basepos</text>
</g>
<!-- Node35 -->
<g id="node35" class="node">
<title>Node35</title>
<g id="a_node35"><a xlink:title=" ">
<polygon fill="white" stroke="#bfbfbf" points="862,-401.5 862,-420.5 896,-420.5 896,-401.5 862,-401.5"/>
<text text-anchor="middle" x="879" y="-408.5" font-family="Helvetica,sans-Serif" font-size="10.00">s32</text>
</a>
</g>
</g>
<!-- Node35&#45;&gt;Node1 -->
<g id="edge54" class="edge">
<title>Node35&#45;&gt;Node1</title>
<path fill="none" stroke="#9a32cd" stroke-dasharray="5,2" d="M906.27,-416.29C981.22,-430.15 1201.23,-462.1 1365,-397 1406.76,-380.4 1443.8,-339.57 1459.3,-320.77"/>
<polygon fill="#9a32cd" stroke="#9a32cd" points="906.77,-412.82 896.29,-414.39 905.46,-419.7 906.77,-412.82"/>
<text text-anchor="middle" x="1174.5" y="-483" font-family="Helvetica,sans-Serif" font-size="10.00"> thumb_size</text>
<text text-anchor="middle" x="1174.5" y="-472" font-family="Helvetica,sans-Serif" font-size="10.00">small_step</text>
<text text-anchor="middle" x="1174.5" y="-461" font-family="Helvetica,sans-Serif" font-size="10.00">large_step</text>
<text text-anchor="middle" x="1174.5" y="-450" font-family="Helvetica,sans-Serif" font-size="10.00">min</text>
<text text-anchor="middle" x="1174.5" y="-439" font-family="Helvetica,sans-Serif" font-size="10.00">max</text>
</g>
<!-- Node35&#45;&gt;Node34 -->
<g id="edge42" class="edge">
<title>Node35&#45;&gt;Node34</title>
<path fill="none" stroke="#9a32cd" stroke-dasharray="5,2" d="M906.09,-404.34C924.42,-399.91 949.56,-394.31 972,-391 1023.03,-383.46 1081.9,-379.31 1122.77,-377.13"/>
<polygon fill="#9a32cd" stroke="#9a32cd" points="905.04,-401 896.16,-406.79 906.71,-407.8 905.04,-401"/>
<text text-anchor="middle" x="1026.5" y="-405" font-family="Helvetica,sans-Serif" font-size="10.00"> X</text>
<text text-anchor="middle" x="1026.5" y="-394" font-family="Helvetica,sans-Serif" font-size="10.00">Y</text>
</g>
<!-- Node36 -->
<g id="node36" class="node">
<title>Node36</title>
<g id="a_node36"><a xlink:title=" ">
<polygon fill="white" stroke="#bfbfbf" points="1115,-262 1115,-292 1234,-292 1234,-262 1115,-262"/>
<text text-anchor="start" x="1123" y="-280" font-family="Helvetica,sans-Serif" font-size="10.00">anonymous:scrollbar</text>
<text text-anchor="middle" x="1174.5" y="-269" font-family="Helvetica,sans-Serif" font-size="10.00">_options</text>
</a>
</g>
</g>
<!-- Node36&#45;&gt;Node1 -->
<g id="edge44" class="edge">
<title>Node36&#45;&gt;Node1</title>
<path fill="none" stroke="#9a32cd" stroke-dasharray="5,2" d="M1244.51,-281.32C1280.51,-283.95 1325.22,-287.82 1365,-293 1382.47,-295.27 1401.52,-298.45 1418.37,-301.49"/>
<polygon fill="#9a32cd" stroke="#9a32cd" points="1244.35,-277.8 1234.12,-280.58 1243.85,-284.78 1244.35,-277.8"/>
<text text-anchor="middle" x="1316.5" y="-296" font-family="Helvetica,sans-Serif" font-size="10.00"> scrollbar_options</text>
</g>
<!-- Node37&#45;&gt;Node1 -->
<g id="edge45" class="edge">
<title>Node37&#45;&gt;Node1</title>
<path fill="none" stroke="#9a32cd" stroke-dasharray="5,2" d="M928.79,-567.65C1022.41,-587.05 1229.95,-615.41 1365,-524 1438.68,-474.13 1460.74,-355.76 1465.75,-320.85"/>
<polygon fill="#9a32cd" stroke="#9a32cd" points="929.26,-564.17 918.75,-565.51 927.8,-571.02 929.26,-564.17"/>
<text text-anchor="middle" x="1174.5" y="-590" font-family="Helvetica,sans-Serif" font-size="10.00"> inventorylist_options</text>
</g>
<!-- Node38&#45;&gt;Node37 -->
<g id="edge46" class="edge">
<title>Node38&#45;&gt;Node37</title>
<path fill="none" stroke="#9a32cd" stroke-dasharray="5,2" d="M639.06,-564.4C651.86,-562.64 665.36,-561.03 678,-560 720.92,-556.5 769.19,-555.45 807.55,-555.3"/>
<polygon fill="#9a32cd" stroke="#9a32cd" points="638.37,-560.97 628.97,-565.84 639.36,-567.9 638.37,-560.97"/>
<text text-anchor="middle" x="732" y="-585" font-family="Helvetica,sans-Serif" font-size="10.00"> slotbg_h</text>
<text text-anchor="middle" x="732" y="-574" font-family="Helvetica,sans-Serif" font-size="10.00">slotbordercolor</text>
<text text-anchor="middle" x="732" y="-563" font-family="Helvetica,sans-Serif" font-size="10.00">slotbg_n</text>
</g>
<!-- Node39 -->
<g id="node39" class="node">
<title>Node39</title>
<g id="a_node39"><a xlink:title=" ">
<polygon fill="white" stroke="#bfbfbf" points="1160,-174.5 1160,-193.5 1189,-193.5 1189,-174.5 1160,-174.5"/>
<text text-anchor="middle" x="1174.5" y="-181.5" font-family="Helvetica,sans-Serif" font-size="10.00">u8</text>
</a>
</g>
</g>
<!-- Node39&#45;&gt;Node1 -->
<g id="edge50" class="edge">
<title>Node39&#45;&gt;Node1</title>
<path fill="none" stroke="#9a32cd" stroke-dasharray="5,2" d="M1199.34,-186.25C1236.42,-190.48 1309.4,-201.79 1365,-229 1403.78,-247.98 1441.18,-283.95 1457.89,-301.24"/>
<polygon fill="#9a32cd" stroke="#9a32cd" points="1199.36,-182.73 1189.05,-185.15 1198.62,-189.69 1199.36,-182.73"/>
<text text-anchor="middle" x="1316.5" y="-232" font-family="Helvetica,sans-Serif" font-size="10.00"> simple_field_count</text>
</g>
<!-- Node40 -->
<g id="node40" class="node">
<title>Node40</title>
<g id="a_node40"><a xlink:title=" ">
<polygon fill="white" stroke="#bfbfbf" points="1108,-136.5 1108,-155.5 1241,-155.5 1241,-136.5 1108,-136.5"/>
<text text-anchor="middle" x="1174.5" y="-143.5" font-family="Helvetica,sans-Serif" font-size="10.00">vector&lt; TableColumn &gt;</text>
</a>
</g>
</g>
<!-- Node40&#45;&gt;Node1 -->
<g id="edge51" class="edge">
<title>Node40&#45;&gt;Node1</title>
<path fill="none" stroke="#9a32cd" stroke-dasharray="5,2" d="M1251.53,-148.22C1288.03,-152.22 1331.1,-161.46 1365,-182 1415.06,-212.33 1450.35,-276.81 1462.43,-301.29"/>
<polygon fill="#9a32cd" stroke="#9a32cd" points="1251.71,-144.72 1241.42,-147.22 1251.02,-151.68 1251.71,-144.72"/>
<text text-anchor="middle" x="1316.5" y="-185" font-family="Helvetica,sans-Serif" font-size="10.00"> table_columns</text>
</g>
<!-- Node41 -->
<g id="node41" class="node">
<title>Node41</title>
<g id="a_node41"><a xlink:title=" ">
<polygon fill="white" stroke="#bfbfbf" points="1130.5,-98.5 1130.5,-117.5 1218.5,-117.5 1218.5,-98.5 1130.5,-98.5"/>
<text text-anchor="middle" x="1174.5" y="-105.5" font-family="Helvetica,sans-Serif" font-size="10.00">ArrowVisibility</text>
</a>
</g>
</g>
<!-- Node41&#45;&gt;Node1 -->
<g id="edge53" class="edge">
<title>Node41&#45;&gt;Node1</title>
<path fill="none" stroke="#9a32cd" stroke-dasharray="5,2" d="M1229.05,-103.62C1269.65,-102.97 1325.09,-108.07 1365,-135 1427.36,-177.07 1456.56,-270.97 1464.61,-301.33"/>
<polygon fill="#9a32cd" stroke="#9a32cd" points="1228.7,-100.13 1218.8,-103.91 1228.9,-107.13 1228.7,-100.13"/>
<text text-anchor="middle" x="1316.5" y="-138" font-family="Helvetica,sans-Serif" font-size="10.00"> arrow_visiblity</text>
</g>
<!-- Node42 -->
<g id="node42" class="node">
<title>Node42</title>
<g id="a_node42"><a xlink:title=" ">
<polygon fill="white" stroke="#bfbfbf" points="1115,-38.5 1115,-79.5 1234,-79.5 1234,-38.5 1115,-38.5"/>
<text text-anchor="start" x="1123" y="-67.5" font-family="Helvetica,sans-Serif" font-size="10.00">unordered_map&lt; std</text>
<text text-anchor="start" x="1123" y="-56.5" font-family="Helvetica,sans-Serif" font-size="10.00">::string, GUITable::</text>
<text text-anchor="middle" x="1174.5" y="-45.5" font-family="Helvetica,sans-Serif" font-size="10.00">DynamicData &gt;</text>
</a>
</g>
</g>
<!-- Node42&#45;&gt;Node1 -->
<g id="edge55" class="edge">
<title>Node42&#45;&gt;Node1</title>
<path fill="none" stroke="#9a32cd" stroke-dasharray="5,2" d="M1244.31,-55.11C1283.28,-56.35 1330.9,-64.06 1365,-90 1437.98,-145.51 1460.53,-265.71 1465.7,-301.04"/>
<polygon fill="#9a32cd" stroke="#9a32cd" points="1244.15,-51.61 1234.08,-54.92 1244.02,-58.61 1244.15,-51.61"/>
<text text-anchor="middle" x="1316.5" y="-93" font-family="Helvetica,sans-Serif" font-size="10.00"> table_dyndata</text>
</g>
<!-- Node43 -->
<g id="node43" class="node">
<title>Node43</title>
<g id="a_node43"><a xlink:title=" ">
<polygon fill="white" stroke="#bfbfbf" points="1123.5,-0.5 1123.5,-19.5 1225.5,-19.5 1225.5,-0.5 1123.5,-0.5"/>
<text text-anchor="middle" x="1174.5" y="-7.5" font-family="Helvetica,sans-Serif" font-size="10.00">vector&lt; Option &gt;</text>
</a>
</g>
</g>
<!-- Node43&#45;&gt;Node1 -->
<g id="edge56" class="edge">
<title>Node43&#45;&gt;Node1</title>
<path fill="none" stroke="#9a32cd" stroke-dasharray="5,2" d="M1235.82,-5.12C1276.55,-5.06 1329.21,-11.71 1365,-41 1450.89,-111.3 1464.51,-262.08 1466.62,-301.44"/>
<polygon fill="#9a32cd" stroke="#9a32cd" points="1235.69,-1.62 1225.74,-5.27 1235.79,-8.62 1235.69,-1.62"/>
<text text-anchor="middle" x="1316.5" y="-44" font-family="Helvetica,sans-Serif" font-size="10.00"> table_options</text>
</g>
</g>
</svg>
