<?xml version="1.0" encoding="UTF-8" standalone="no"?>
<!DOCTYPE svg PUBLIC "-//W3C//DTD SVG 1.1//EN"
 "http://www.w3.org/Graphics/SVG/1.1/DTD/svg11.dtd">
<!-- Generated by graphviz version 2.43.0 (0)
 -->
<!-- Title: irr::CIrrDeviceStub::SMouseMultiClicks Pages: 1 -->
<svg width="354pt" height="128pt"
 viewBox="0.00 0.00 353.50 128.00" xmlns="http://www.w3.org/2000/svg" xmlns:xlink="http://www.w3.org/1999/xlink">
<g id="graph0" class="graph" transform="scale(1 1) rotate(0) translate(4 124)">
<title>irr::CIrrDeviceStub::SMouseMultiClicks</title>
<polygon fill="white" stroke="transparent" points="-4,4 -4,-124 349.5,-124 349.5,4 -4,4"/>
<!-- Node1 -->
<g id="node1" class="node">
<title>Node1</title>
<g id="a_node1"><a xlink:title=" ">
<polygon fill="#bfbfbf" stroke="black" points="105.5,-0.5 105.5,-30.5 220.5,-30.5 220.5,-0.5 105.5,-0.5"/>
<text text-anchor="start" x="113.5" y="-18.5" font-family="Helvetica,sans-Serif" font-size="10.00">irr::CIrrDeviceStub</text>
<text text-anchor="middle" x="163" y="-7.5" font-family="Helvetica,sans-Serif" font-size="10.00">::SMouseMultiClicks</text>
</a>
</g>
</g>
<!-- Node2 -->
<g id="node2" class="node">
<title>Node2</title>
<g id="a_node2"><a xlink:title=" ">
<polygon fill="white" stroke="#bfbfbf" points="0,-100.5 0,-119.5 56,-119.5 56,-100.5 0,-100.5"/>
<text text-anchor="middle" x="28" y="-107.5" font-family="Helvetica,sans-Serif" font-size="10.00">uint32_t</text>
</a>
</g>
</g>
<!-- Node2&#45;&gt;Node1 -->
<g id="edge1" class="edge">
<title>Node2&#45;&gt;Node1</title>
<path fill="none" stroke="#9a32cd" stroke-dasharray="5,2" d="M29.3,-90.37C31.21,-77.11 35.83,-59.8 47,-49 62.64,-33.88 84.71,-25.68 105.42,-21.28"/>
<polygon fill="#9a32cd" stroke="#9a32cd" points="25.82,-90.01 28.26,-100.32 32.79,-90.74 25.82,-90.01"/>
<text text-anchor="middle" x="103" y="-74" font-family="Helvetica,sans-Serif" font-size="10.00"> LastClickTime</text>
<text text-anchor="middle" x="103" y="-63" font-family="Helvetica,sans-Serif" font-size="10.00">DoubleClickTime</text>
<text text-anchor="middle" x="103" y="-52" font-family="Helvetica,sans-Serif" font-size="10.00">CountSuccessiveClicks</text>
</g>
<!-- Node3 -->
<g id="node3" class="node">
<title>Node3</title>
<g id="a_node3"><a xlink:title=" ">
<polygon fill="white" stroke="#bfbfbf" points="97.5,-100.5 97.5,-119.5 228.5,-119.5 228.5,-100.5 97.5,-100.5"/>
<text text-anchor="middle" x="163" y="-107.5" font-family="Helvetica,sans-Serif" font-size="10.00">EMOUSE_INPUT_EVENT</text>
</a>
</g>
</g>
<!-- Node3&#45;&gt;Node1 -->
<g id="edge2" class="edge">
<title>Node3&#45;&gt;Node1</title>
<path fill="none" stroke="#9a32cd" stroke-dasharray="5,2" d="M163,-90.29C163,-72.67 163,-46.67 163,-30.7"/>
<polygon fill="#9a32cd" stroke="#9a32cd" points="159.5,-90.46 163,-100.46 166.5,-90.46 159.5,-90.46"/>
<text text-anchor="middle" x="217.5" y="-63" font-family="Helvetica,sans-Serif" font-size="10.00"> LastMouseInputEvent</text>
</g>
<!-- Node4 -->
<g id="node4" class="node">
<title>Node4</title>
<g id="a_node4"><a xlink:title=" ">
<polygon fill="white" stroke="#bfbfbf" points="246.5,-100.5 246.5,-119.5 345.5,-119.5 345.5,-100.5 246.5,-100.5"/>
<text text-anchor="middle" x="296" y="-107.5" font-family="Helvetica,sans-Serif" font-size="10.00">vector2d&lt; s32 &gt;</text>
</a>
</g>
</g>
<!-- Node4&#45;&gt;Node1 -->
<g id="edge3" class="edge">
<title>Node4&#45;&gt;Node1</title>
<path fill="none" stroke="#9a32cd" stroke-dasharray="5,2" d="M293.65,-90.36C291.03,-77.09 285.52,-59.78 274,-49 259.48,-35.42 239.59,-27.48 220.66,-22.85"/>
<polygon fill="#9a32cd" stroke="#9a32cd" points="290.21,-90.99 295.24,-100.32 297.12,-89.89 290.21,-90.99"/>
<text text-anchor="middle" x="315" y="-63" font-family="Helvetica,sans-Serif" font-size="10.00"> LastClick</text>
</g>
</g>
</svg>
