<?xml version="1.0" encoding="UTF-8" standalone="no"?>
<!DOCTYPE svg PUBLIC "-//W3C//DTD SVG 1.1//EN"
 "http://www.w3.org/Graphics/SVG/1.1/DTD/svg11.dtd">
<!-- Generated by graphviz version 2.43.0 (0)
 -->
<!-- Title: con::ConnectionEvent Pages: 1 -->
<!--zoomable 229 -->
<svg id="main" version="1.1" xmlns="http://www.w3.org/2000/svg" xmlns:xlink="http://www.w3.org/1999/xlink" xml:space="preserve" onload="init(evt)">
<style type="text/css"><![CDATA[
.edge:hover path { stroke: red; }
.edge:hover polygon { stroke: red; fill: red; }
]]></style>
<script type="text/javascript"><![CDATA[
var edges = document.getElementsByTagName('g');
if (edges && edges.length) {
  for (var i=0;i<edges.length;i++) {
    if (edges[i].id.substr(0,4)=='edge') {
      edges[i].setAttribute('class','edge');
    }
  }
}
]]></script>
        <defs>
                <circle id="rim" cx="0" cy="0" r="7"/>
                <circle id="rim2" cx="0" cy="0" r="3.5"/>
                <g id="zoomPlus">
                        <use xlink:href="#rim" fill="#404040">
                                <set attributeName="fill" to="#808080" begin="zoomplus.mouseover" end="zoomplus.mouseout"/>
                        </use>
                        <path d="M-4,0h8M0,-4v8" fill="none" stroke="white" stroke-width="1.5" pointer-events="none"/>
                </g>
                <g id="zoomMin">
                        <use xlink:href="#rim" fill="#404040">
                                <set attributeName="fill" to="#808080" begin="zoomminus.mouseover" end="zoomminus.mouseout"/>
                        </use>
                        <path d="M-4,0h8" fill="none" stroke="white" stroke-width="1.5" pointer-events="none"/>
                </g>
                <g id="dirArrow">
                        <path fill="none" stroke="white" stroke-width="1.5" d="M0,-3.0v7 M-2.5,-0.5L0,-3.0L2.5,-0.5"/>
                </g>
               <g id="resetDef">
                       <use xlink:href="#rim2" fill="#404040">
                               <set attributeName="fill" to="#808080" begin="reset.mouseover" end="reset.mouseout"/>
                       </use>
               </g>
        </defs>

<script type="text/javascript">
var viewWidth = 727;
var viewHeight = 229;
var sectionId = 'dynsection-0';
</script>
<script xlink:href="svgpan.js"/>
<svg id="graph" class="graph">
<g id="viewport">
<title>con::ConnectionEvent</title>
<polygon fill="white" stroke="transparent" points="-4,4 -4,-225 723,-225 723,4 -4,4"/>
<!-- Node1 -->
<g id="node1" class="node">
<title>Node1</title>
<g id="a_node1"><a xlink:title=" ">
<polygon fill="#bfbfbf" stroke="black" points="392.5,-0.5 392.5,-19.5 514.5,-19.5 514.5,-0.5 392.5,-0.5"/>
<text text-anchor="middle" x="453.5" y="-7.5" font-family="Helvetica,sans-Serif" font-size="10.00">con::ConnectionEvent</text>
</a>
</g>
</g>
<!-- Node2 -->
<g id="node2" class="node">
<title>Node2</title>
<g id="a_node2"><a xlink:href="classAddress.html" target="_top" xlink:title=" ">
<polygon fill="white" stroke="black" points="237.5,-67.5 237.5,-86.5 293.5,-86.5 293.5,-67.5 237.5,-67.5"/>
<text text-anchor="middle" x="265.5" y="-74.5" font-family="Helvetica,sans-Serif" font-size="10.00">Address</text>
</a>
</g>
</g>
<!-- Node2&#45;&gt;Node1 -->
<g id="edge1" class="edge">
<title>Node2&#45;&gt;Node1</title>
<path fill="none" stroke="#9a32cd" stroke-dasharray="5,2" d="M300.39,-63.94C337.69,-51.04 395.87,-30.92 428.73,-19.56"/>
<polygon fill="#9a32cd" stroke="#9a32cd" points="298.77,-60.79 290.46,-67.37 301.06,-67.41 298.77,-60.79"/>
<text text-anchor="middle" x="392.5" y="-41" font-family="Helvetica,sans-Serif" font-size="10.00"> address</text>
</g>
<!-- Node3 -->
<g id="node3" class="node">
<title>Node3</title>
<g id="a_node3"><a xlink:title=" ">
<polygon fill="white" stroke="#bfbfbf" points="309,-134.5 309,-153.5 392,-153.5 392,-134.5 309,-134.5"/>
<text text-anchor="middle" x="350.5" y="-141.5" font-family="Helvetica,sans-Serif" font-size="10.00">struct in_addr</text>
</a>
</g>
</g>
<!-- Node3&#45;&gt;Node2 -->
<g id="edge2" class="edge">
<title>Node3&#45;&gt;Node2</title>
<path fill="none" stroke="#9a32cd" stroke-dasharray="5,2" d="M326.33,-129.34C319.72,-125.3 312.69,-120.69 306.5,-116 294.44,-106.85 281.85,-94.74 273.86,-86.68"/>
<polygon fill="#9a32cd" stroke="#9a32cd" points="324.56,-132.36 334.94,-134.46 328.14,-126.35 324.56,-132.36"/>
<text text-anchor="middle" x="319" y="-108" font-family="Helvetica,sans-Serif" font-size="10.00"> ipv4</text>
</g>
<!-- Node4 -->
<g id="node4" class="node">
<title>Node4</title>
<g id="a_node4"><a xlink:title=" ">
<polygon fill="white" stroke="#bfbfbf" points="107,-134.5 107,-153.5 142,-153.5 142,-134.5 107,-134.5"/>
<text text-anchor="middle" x="124.5" y="-141.5" font-family="Helvetica,sans-Serif" font-size="10.00">u16</text>
</a>
</g>
</g>
<!-- Node4&#45;&gt;Node1 -->
<g id="edge7" class="edge">
<title>Node4&#45;&gt;Node1</title>
<path fill="none" stroke="#9a32cd" stroke-dasharray="5,2" d="M134.35,-125.59C145.27,-107.98 164.53,-81.36 188.5,-67 251.33,-29.37 335.8,-16.8 392.32,-12.73"/>
<polygon fill="#9a32cd" stroke="#9a32cd" points="131.27,-123.93 129.17,-134.32 137.29,-127.5 131.27,-123.93"/>
<text text-anchor="middle" x="208.5" y="-74.5" font-family="Helvetica,sans-Serif" font-size="10.00"> peer_id</text>
</g>
<!-- Node4&#45;&gt;Node2 -->
<g id="edge3" class="edge">
<title>Node4&#45;&gt;Node2</title>
<path fill="none" stroke="#9a32cd" stroke-dasharray="5,2" d="M143.48,-128.41C154.21,-120.67 168.11,-111.46 181.5,-105 199.3,-96.41 220.49,-89.62 237.13,-85"/>
<polygon fill="#9a32cd" stroke="#9a32cd" points="141.26,-125.7 135.3,-134.46 145.42,-131.33 141.26,-125.7"/>
<text text-anchor="middle" x="200.5" y="-108" font-family="Helvetica,sans-Serif" font-size="10.00"> m_port</text>
</g>
<!-- Node5 -->
<g id="node5" class="node">
<title>Node5</title>
<g id="a_node5"><a xlink:title=" ">
<polygon fill="white" stroke="#bfbfbf" points="0,-134.5 0,-153.5 89,-153.5 89,-134.5 0,-134.5"/>
<text text-anchor="middle" x="44.5" y="-141.5" font-family="Helvetica,sans-Serif" font-size="10.00">struct in6_addr</text>
</a>
</g>
</g>
<!-- Node5&#45;&gt;Node2 -->
<g id="edge4" class="edge">
<title>Node5&#45;&gt;Node2</title>
<path fill="none" stroke="#9a32cd" stroke-dasharray="5,2" d="M71.16,-130.11C88.8,-121.99 112.64,-111.8 134.5,-105 169.31,-94.18 210.7,-86.47 237.5,-82.14"/>
<polygon fill="#9a32cd" stroke="#9a32cd" points="69.62,-126.97 62.04,-134.37 72.59,-133.31 69.62,-126.97"/>
<text text-anchor="middle" x="147" y="-108" font-family="Helvetica,sans-Serif" font-size="10.00"> ipv6</text>
</g>
<!-- Node6 -->
<g id="node6" class="node">
<title>Node6</title>
<g id="a_node6"><a xlink:title=" ">
<polygon fill="white" stroke="#bfbfbf" points="160.5,-134.5 160.5,-153.5 290.5,-153.5 290.5,-134.5 160.5,-134.5"/>
<text text-anchor="middle" x="225.5" y="-141.5" font-family="Helvetica,sans-Serif" font-size="10.00">anonymous:m_address</text>
</a>
</g>
</g>
<!-- Node6&#45;&gt;Node2 -->
<g id="edge5" class="edge">
<title>Node6&#45;&gt;Node2</title>
<path fill="none" stroke="#9a32cd" stroke-dasharray="5,2" d="M222.66,-124.32C222.52,-117.86 223.36,-110.8 226.5,-105 230.81,-97.03 238.62,-90.93 246.12,-86.55"/>
<polygon fill="#9a32cd" stroke="#9a32cd" points="219.18,-124.65 223.6,-134.28 226.15,-124 219.18,-124.65"/>
<text text-anchor="middle" x="255" y="-108" font-family="Helvetica,sans-Serif" font-size="10.00"> m_address</text>
</g>
<!-- Node7 -->
<g id="node7" class="node">
<title>Node7</title>
<g id="a_node7"><a xlink:title=" ">
<polygon fill="white" stroke="#bfbfbf" points="416,-134.5 416,-153.5 477,-153.5 477,-134.5 416,-134.5"/>
<text text-anchor="middle" x="446.5" y="-141.5" font-family="Helvetica,sans-Serif" font-size="10.00">unsigned</text>
</a>
</g>
</g>
<!-- Node7&#45;&gt;Node2 -->
<g id="edge6" class="edge">
<title>Node7&#45;&gt;Node2</title>
<path fill="none" stroke="#9a32cd" stroke-dasharray="5,2" d="M412.05,-131.24C398.46,-126.56 382.72,-121.09 368.5,-116 340.86,-106.12 309.2,-94.37 288.36,-86.58"/>
<polygon fill="#9a32cd" stroke="#9a32cd" points="410.92,-134.55 421.51,-134.49 413.19,-127.93 410.92,-134.55"/>
<text text-anchor="middle" x="407" y="-108" font-family="Helvetica,sans-Serif" font-size="10.00"> m_addr_family</text>
</g>
<!-- Node8 -->
<g id="node8" class="node">
<title>Node8</title>
<g id="a_node8"><a xlink:href="classBuffer.html" target="_top" xlink:title=" ">
<polygon fill="white" stroke="black" points="413.5,-67.5 413.5,-86.5 493.5,-86.5 493.5,-67.5 413.5,-67.5"/>
<text text-anchor="middle" x="453.5" y="-74.5" font-family="Helvetica,sans-Serif" font-size="10.00">Buffer&lt; u8 &gt;</text>
</a>
</g>
</g>
<!-- Node7&#45;&gt;Node8 -->
<g id="edge10" class="edge">
<title>Node7&#45;&gt;Node8</title>
<path fill="none" stroke="#9a32cd" stroke-dasharray="5,2" d="M448.54,-124.04C449.87,-111.67 451.55,-96.12 452.57,-86.63"/>
<polygon fill="#9a32cd" stroke="#9a32cd" points="445.03,-123.92 447.44,-134.23 451.99,-124.67 445.03,-123.92"/>
<text text-anchor="middle" x="468.5" y="-108" font-family="Helvetica,sans-Serif" font-size="10.00"> m_size</text>
</g>
<!-- Node8&#45;&gt;Node1 -->
<g id="edge8" class="edge">
<title>Node8&#45;&gt;Node1</title>
<path fill="none" stroke="#9a32cd" stroke-dasharray="5,2" d="M453.5,-57.04C453.5,-44.67 453.5,-29.12 453.5,-19.63"/>
<polygon fill="#9a32cd" stroke="#9a32cd" points="450,-57.23 453.5,-67.23 457,-57.23 450,-57.23"/>
<text text-anchor="middle" x="466" y="-41" font-family="Helvetica,sans-Serif" font-size="10.00"> data</text>
</g>
<!-- Node9 -->
<g id="node9" class="node">
<title>Node9</title>
<g id="a_node9"><a xlink:title=" ">
<polygon fill="white" stroke="#bfbfbf" points="500,-134.5 500,-153.5 529,-153.5 529,-134.5 500,-134.5"/>
<text text-anchor="middle" x="514.5" y="-141.5" font-family="Helvetica,sans-Serif" font-size="10.00">u8</text>
</a>
</g>
</g>
<!-- Node9&#45;&gt;Node8 -->
<g id="edge9" class="edge">
<title>Node9&#45;&gt;Node8</title>
<path fill="none" stroke="#9a32cd" stroke-dasharray="5,2" d="M505.81,-125.35C501.98,-118.55 497.07,-111 491.5,-105 484.78,-97.77 475.83,-91.3 468.31,-86.5"/>
<polygon fill="#9a32cd" stroke="#9a32cd" points="502.86,-127.26 510.61,-134.48 509.06,-124 502.86,-127.26"/>
<text text-anchor="middle" x="512" y="-108" font-family="Helvetica,sans-Serif" font-size="10.00"> data</text>
</g>
<!-- Node10 -->
<g id="node10" class="node">
<title>Node10</title>
<g id="a_node10"><a xlink:href="classBuffer.html" target="_top" xlink:title=" ">
<polygon fill="white" stroke="black" points="547.5,-134.5 547.5,-153.5 621.5,-153.5 621.5,-134.5 547.5,-134.5"/>
<text text-anchor="middle" x="584.5" y="-141.5" font-family="Helvetica,sans-Serif" font-size="10.00">Buffer&lt; T &gt;</text>
</a>
</g>
</g>
<!-- Node10&#45;&gt;Node8 -->
<g id="edge11" class="edge">
<title>Node10&#45;&gt;Node8</title>
<path fill="none" stroke="orange" stroke-dasharray="5,2" d="M565.4,-128.28C554.91,-120.65 541.42,-111.58 528.5,-105 513.82,-97.53 496.59,-91.17 482.34,-86.5"/>
<polygon fill="orange" stroke="orange" points="563.33,-131.1 573.44,-134.26 567.51,-125.48 563.33,-131.1"/>
<text text-anchor="middle" x="564.5" y="-108" font-family="Helvetica,sans-Serif" font-size="10.00"> &lt; u8 &gt;</text>
</g>
<!-- Node11 -->
<g id="node11" class="node">
<title>Node11</title>
<g id="a_node11"><a xlink:title=" ">
<polygon fill="white" stroke="#bfbfbf" points="539,-201.5 539,-220.5 568,-220.5 568,-201.5 539,-201.5"/>
<text text-anchor="middle" x="553.5" y="-208.5" font-family="Helvetica,sans-Serif" font-size="10.00">int</text>
</a>
</g>
</g>
<!-- Node11&#45;&gt;Node10 -->
<g id="edge12" class="edge">
<title>Node11&#45;&gt;Node10</title>
<path fill="none" stroke="#9a32cd" stroke-dasharray="5,2" d="M551.72,-191.05C551.84,-184.74 552.77,-177.84 555.5,-172 558.93,-164.65 565.36,-158.33 571.3,-153.67"/>
<polygon fill="#9a32cd" stroke="#9a32cd" points="548.24,-191.58 552.18,-201.41 555.23,-191.26 548.24,-191.58"/>
<text text-anchor="middle" x="574.5" y="-175" font-family="Helvetica,sans-Serif" font-size="10.00"> m_size</text>
</g>
<!-- Node12 -->
<g id="node12" class="node">
<title>Node12</title>
<g id="a_node12"><a xlink:title=" ">
<polygon fill="white" stroke="#bfbfbf" points="600,-201.5 600,-220.5 629,-220.5 629,-201.5 600,-201.5"/>
<text text-anchor="middle" x="614.5" y="-208.5" font-family="Helvetica,sans-Serif" font-size="10.00">T</text>
</a>
</g>
</g>
<!-- Node12&#45;&gt;Node10 -->
<g id="edge13" class="edge">
<title>Node12&#45;&gt;Node10</title>
<path fill="none" stroke="#9a32cd" stroke-dasharray="5,2" d="M606.1,-191.79C600.33,-179.31 592.95,-163.31 588.48,-153.63"/>
<polygon fill="#9a32cd" stroke="#9a32cd" points="603.09,-193.62 610.45,-201.23 609.44,-190.69 603.09,-193.62"/>
<text text-anchor="middle" x="613" y="-175" font-family="Helvetica,sans-Serif" font-size="10.00"> data</text>
</g>
<!-- Node13 -->
<g id="node13" class="node">
<title>Node13</title>
<g id="a_node13"><a xlink:href="classbool.html" target="_top" xlink:title=" ">
<polygon fill="white" stroke="black" points="511.5,-67.5 511.5,-86.5 549.5,-86.5 549.5,-67.5 511.5,-67.5"/>
<text text-anchor="middle" x="530.5" y="-74.5" font-family="Helvetica,sans-Serif" font-size="10.00">bool</text>
</a>
</g>
</g>
<!-- Node13&#45;&gt;Node1 -->
<g id="edge14" class="edge">
<title>Node13&#45;&gt;Node1</title>
<path fill="none" stroke="#9a32cd" stroke-dasharray="5,2" d="M512.39,-60.71C497.22,-47.91 476.11,-30.09 463.72,-19.63"/>
<polygon fill="#9a32cd" stroke="#9a32cd" points="510.22,-63.46 520.12,-67.23 514.73,-58.11 510.22,-63.46"/>
<text text-anchor="middle" x="517.5" y="-41" font-family="Helvetica,sans-Serif" font-size="10.00"> timeout</text>
</g>
<!-- Node14 -->
<g id="node14" class="node">
<title>Node14</title>
<g id="a_node14"><a xlink:title=" ">
<polygon fill="white" stroke="#bfbfbf" points="568,-67.5 568,-86.5 719,-86.5 719,-67.5 568,-67.5"/>
<text text-anchor="middle" x="643.5" y="-74.5" font-family="Helvetica,sans-Serif" font-size="10.00">const ConnectionEventType</text>
</a>
</g>
</g>
<!-- Node14&#45;&gt;Node1 -->
<g id="edge15" class="edge">
<title>Node14&#45;&gt;Node1</title>
<path fill="none" stroke="#9a32cd" stroke-dasharray="5,2" d="M612.5,-63.74C592.61,-56.02 566.18,-46.04 542.5,-38 522.93,-31.36 500.68,-24.61 483.32,-19.52"/>
<polygon fill="#9a32cd" stroke="#9a32cd" points="611.39,-67.06 621.97,-67.43 613.93,-60.54 611.39,-67.06"/>
<text text-anchor="middle" x="585" y="-41" font-family="Helvetica,sans-Serif" font-size="10.00"> type</text>
</g>
</g>
</svg>
        <g id="navigator" transform="translate(0 0)" fill="#404254">
                <rect fill="#f2f5e9" fill-opacity="0.5" stroke="#606060" stroke-width=".5" x="0" y="0" width="60" height="60"/>
                <use id="zoomplus" xlink:href="#zoomPlus" x="17" y="9" onmousedown="handleZoom(evt,'in')"/>
                <use id="zoomminus" xlink:href="#zoomMin" x="42" y="9" onmousedown="handleZoom(evt,'out')"/>
                <use id="reset" xlink:href="#resetDef" x="30" y="36" onmousedown="handleReset()"/>
                <g id="arrowUp" xlink:href="#dirArrow" transform="translate(30 24)" onmousedown="handlePan(0,-1)">
                  <use xlink:href="#rim" fill="#404040">
                        <set attributeName="fill" to="#808080" begin="arrowUp.mouseover" end="arrowUp.mouseout"/>
                  </use>
                  <path fill="none" stroke="white" stroke-width="1.5" d="M0,-3.0v7 M-2.5,-0.5L0,-3.0L2.5,-0.5"/>
                </g>
                <g id="arrowRight" xlink:href="#dirArrow" transform="rotate(90) translate(36 -43)" onmousedown="handlePan(1,0)">
                  <use xlink:href="#rim" fill="#404040">
                        <set attributeName="fill" to="#808080" begin="arrowRight.mouseover" end="arrowRight.mouseout"/>
                  </use>
                  <path fill="none" stroke="white" stroke-width="1.5" d="M0,-3.0v7 M-2.5,-0.5L0,-3.0L2.5,-0.5"/>
                </g>
                <g id="arrowDown" xlink:href="#dirArrow" transform="rotate(180) translate(-30 -48)" onmousedown="handlePan(0,1)">
                  <use xlink:href="#rim" fill="#404040">
                        <set attributeName="fill" to="#808080" begin="arrowDown.mouseover" end="arrowDown.mouseout"/>
                  </use>
                  <path fill="none" stroke="white" stroke-width="1.5" d="M0,-3.0v7 M-2.5,-0.5L0,-3.0L2.5,-0.5"/>
                </g>
                <g id="arrowLeft" xlink:href="#dirArrow" transform="rotate(270) translate(-36 17)" onmousedown="handlePan(-1,0)">
                  <use xlink:href="#rim" fill="#404040">
                        <set attributeName="fill" to="#808080" begin="arrowLeft.mouseover" end="arrowLeft.mouseout"/>
                  </use>
                  <path fill="none" stroke="white" stroke-width="1.5" d="M0,-3.0v7 M-2.5,-0.5L0,-3.0L2.5,-0.5"/>
                </g>
        </g>
        <svg viewBox="0 0 15 15" width="100%" height="30px" preserveAspectRatio="xMaxYMin meet">
         <g id="arrow_out" transform="scale(0.3 0.3)">
          <a xlink:href="structcon_1_1ConnectionEvent__coll__graph_org.svg" target="_base">
           <rect id="button" ry="5" rx="5" y="6" x="6" height="38" width="38"
                fill="#f2f5e9" fill-opacity="0.5" stroke="#606060" stroke-width="1.0"/>
           <path id="arrow"
             d="M 11.500037,31.436501 C 11.940474,20.09759 22.043105,11.32322 32.158766,21.979434 L 37.068811,17.246167 C 37.068811,17.246167 37.088388,32 37.088388,32 L 22.160133,31.978069 C 22.160133,31.978069 26.997745,27.140456 26.997745,27.140456 C 18.528582,18.264221 13.291696,25.230495 11.500037,31.436501 z"
             style="fill:#404040;"/>
          </a>
         </g>
        </svg>
</svg>
