<?xml version="1.0" encoding="UTF-8" standalone="no"?>
<!DOCTYPE svg PUBLIC "-//W3C//DTD SVG 1.1//EN"
 "http://www.w3.org/Graphics/SVG/1.1/DTD/svg11.dtd">
<!-- Generated by graphviz version 2.43.0 (0)
 -->
<!-- Title: LightingParams Pages: 1 -->
<svg width="100pt" height="161pt"
 viewBox="0.00 0.00 100.00 161.00" xmlns="http://www.w3.org/2000/svg" xmlns:xlink="http://www.w3.org/1999/xlink">
<g id="graph0" class="graph" transform="scale(1 1) rotate(0) translate(4 157)">
<title>LightingParams</title>
<polygon fill="white" stroke="transparent" points="-4,4 -4,-157 96,-157 96,4 -4,4"/>
<!-- Node1 -->
<g id="node1" class="node">
<title>Node1</title>
<g id="a_node1"><a xlink:title=" ">
<polygon fill="#bfbfbf" stroke="black" points="0,-0.5 0,-19.5 92,-19.5 92,-0.5 0,-0.5"/>
<text text-anchor="middle" x="46" y="-7.5" font-family="Helvetica,sans-Serif" font-size="10.00">LightingParams</text>
</a>
</g>
</g>
<!-- Node2 -->
<g id="node2" class="node">
<title>Node2</title>
<g id="a_node2"><a xlink:title=" ">
<polygon fill="white" stroke="#bfbfbf" points="27,-133.5 27,-152.5 65,-152.5 65,-133.5 27,-133.5"/>
<text text-anchor="middle" x="46" y="-140.5" font-family="Helvetica,sans-Serif" font-size="10.00">float</text>
</a>
</g>
</g>
<!-- Node2&#45;&gt;Node1 -->
<g id="edge1" class="edge">
<title>Node2&#45;&gt;Node1</title>
<path fill="none" stroke="#9a32cd" stroke-dasharray="5,2" d="M46,-123.09C46,-94.36 46,-40.82 46,-19.8"/>
<polygon fill="#9a32cd" stroke="#9a32cd" points="42.5,-123.4 46,-133.4 49.5,-123.4 42.5,-123.4"/>
<text text-anchor="middle" x="66.5" y="-107" font-family="Helvetica,sans-Serif" font-size="10.00"> gamma</text>
<text text-anchor="middle" x="66.5" y="-96" font-family="Helvetica,sans-Serif" font-size="10.00">center</text>
<text text-anchor="middle" x="66.5" y="-85" font-family="Helvetica,sans-Serif" font-size="10.00">a</text>
<text text-anchor="middle" x="66.5" y="-74" font-family="Helvetica,sans-Serif" font-size="10.00">b</text>
<text text-anchor="middle" x="66.5" y="-63" font-family="Helvetica,sans-Serif" font-size="10.00">boost</text>
<text text-anchor="middle" x="66.5" y="-52" font-family="Helvetica,sans-Serif" font-size="10.00">c</text>
<text text-anchor="middle" x="66.5" y="-41" font-family="Helvetica,sans-Serif" font-size="10.00">sigma</text>
</g>
</g>
</svg>
