<?xml version="1.0" encoding="UTF-8" standalone="no"?>
<!DOCTYPE svg PUBLIC "-//W3C//DTD SVG 1.1//EN"
 "http://www.w3.org/Graphics/SVG/1.1/DTD/svg11.dtd">
<!-- Generated by graphviz version 2.43.0 (0)
 -->
<!-- Title: Area Pages: 1 -->
<svg width="309pt" height="295pt"
 viewBox="0.00 0.00 308.50 295.00" xmlns="http://www.w3.org/2000/svg" xmlns:xlink="http://www.w3.org/1999/xlink">
<g id="graph0" class="graph" transform="scale(1 1) rotate(0) translate(4 291)">
<title>Area</title>
<polygon fill="white" stroke="transparent" points="-4,4 -4,-291 304.5,-291 304.5,4 -4,4"/>
<!-- Node1 -->
<g id="node1" class="node">
<title>Node1</title>
<g id="a_node1"><a xlink:title=" ">
<polygon fill="#bfbfbf" stroke="black" points="60.5,-0.5 60.5,-19.5 99.5,-19.5 99.5,-0.5 60.5,-0.5"/>
<text text-anchor="middle" x="80" y="-7.5" font-family="Helvetica,sans-Serif" font-size="10.00">Area</text>
</a>
</g>
</g>
<!-- Node2 -->
<g id="node2" class="node">
<title>Node2</title>
<g id="a_node2"><a xlink:title=" ">
<polygon fill="white" stroke="#bfbfbf" points="0,-84 0,-103 44,-103 44,-84 0,-84"/>
<text text-anchor="middle" x="22" y="-91" font-family="Helvetica,sans-Serif" font-size="10.00">string</text>
</a>
</g>
</g>
<!-- Node2&#45;&gt;Node1 -->
<g id="edge1" class="edge">
<title>Node2&#45;&gt;Node1</title>
<path fill="none" stroke="#9a32cd" stroke-dasharray="5,2" d="M29.61,-74.73C34.8,-63.62 42.3,-49.32 51,-38 56.2,-31.24 63.16,-24.69 68.97,-19.74"/>
<polygon fill="#9a32cd" stroke="#9a32cd" points="26.42,-73.3 25.52,-83.86 32.8,-76.16 26.42,-73.3"/>
<text text-anchor="middle" x="63.5" y="-46.5" font-family="Helvetica,sans-Serif" font-size="10.00"> data</text>
</g>
<!-- Node3 -->
<g id="node3" class="node">
<title>Node3</title>
<g id="a_node3"><a xlink:title=" ">
<polygon fill="white" stroke="#bfbfbf" points="62.5,-84 62.5,-103 97.5,-103 97.5,-84 62.5,-84"/>
<text text-anchor="middle" x="80" y="-91" font-family="Helvetica,sans-Serif" font-size="10.00">u32</text>
</a>
</g>
</g>
<!-- Node3&#45;&gt;Node1 -->
<g id="edge2" class="edge">
<title>Node3&#45;&gt;Node1</title>
<path fill="none" stroke="#9a32cd" stroke-dasharray="5,2" d="M80,-73.38C80,-56.4 80,-32.37 80,-19.66"/>
<polygon fill="#9a32cd" stroke="#9a32cd" points="76.5,-73.78 80,-83.78 83.5,-73.78 76.5,-73.78"/>
<text text-anchor="middle" x="86.5" y="-46.5" font-family="Helvetica,sans-Serif" font-size="10.00"> id</text>
</g>
<!-- Node4 -->
<g id="node4" class="node">
<title>Node4</title>
<g id="a_node4"><a xlink:href="classirr_1_1core_1_1vector3d.html" target="_top" xlink:title=" ">
<polygon fill="white" stroke="black" points="115.5,-78.5 115.5,-108.5 218.5,-108.5 218.5,-78.5 115.5,-78.5"/>
<text text-anchor="start" x="123.5" y="-96.5" font-family="Helvetica,sans-Serif" font-size="10.00">irr::core::vector3d</text>
<text text-anchor="middle" x="167" y="-85.5" font-family="Helvetica,sans-Serif" font-size="10.00">&lt; s16 &gt;</text>
</a>
</g>
</g>
<!-- Node4&#45;&gt;Node1 -->
<g id="edge3" class="edge">
<title>Node4&#45;&gt;Node1</title>
<path fill="none" stroke="#9a32cd" stroke-dasharray="5,2" d="M144.08,-71.03C126.1,-54.19 102.04,-31.64 89.12,-19.54"/>
<polygon fill="#9a32cd" stroke="#9a32cd" points="142.15,-74.02 151.85,-78.3 146.94,-68.91 142.15,-74.02"/>
<text text-anchor="middle" x="155" y="-52" font-family="Helvetica,sans-Serif" font-size="10.00"> minedge</text>
<text text-anchor="middle" x="155" y="-41" font-family="Helvetica,sans-Serif" font-size="10.00">maxedge</text>
</g>
<!-- Node5 -->
<g id="node5" class="node">
<title>Node5</title>
<g id="a_node5"><a xlink:title=" ">
<polygon fill="white" stroke="#bfbfbf" points="117,-178.5 117,-197.5 151,-197.5 151,-178.5 117,-178.5"/>
<text text-anchor="middle" x="134" y="-185.5" font-family="Helvetica,sans-Serif" font-size="10.00">s16</text>
</a>
</g>
</g>
<!-- Node5&#45;&gt;Node4 -->
<g id="edge4" class="edge">
<title>Node5&#45;&gt;Node4</title>
<path fill="none" stroke="#9a32cd" stroke-dasharray="5,2" d="M140.5,-168.79C146.78,-151.17 156.18,-124.82 161.93,-108.7"/>
<polygon fill="#9a32cd" stroke="#9a32cd" points="137.11,-167.87 137.05,-178.46 143.7,-170.22 137.11,-167.87"/>
<text text-anchor="middle" x="161" y="-152" font-family="Helvetica,sans-Serif" font-size="10.00"> X</text>
<text text-anchor="middle" x="161" y="-141" font-family="Helvetica,sans-Serif" font-size="10.00">Y</text>
<text text-anchor="middle" x="161" y="-130" font-family="Helvetica,sans-Serif" font-size="10.00">Z</text>
</g>
<!-- Node6 -->
<g id="node6" class="node">
<title>Node6</title>
<g id="a_node6"><a xlink:href="classirr_1_1core_1_1vector3d.html" target="_top" xlink:title="3d vector template class with lots of operators and methods.">
<polygon fill="white" stroke="black" points="169.5,-178.5 169.5,-197.5 300.5,-197.5 300.5,-178.5 169.5,-178.5"/>
<text text-anchor="middle" x="235" y="-185.5" font-family="Helvetica,sans-Serif" font-size="10.00">irr::core::vector3d&lt; T &gt;</text>
</a>
</g>
</g>
<!-- Node6&#45;&gt;Node4 -->
<g id="edge5" class="edge">
<title>Node6&#45;&gt;Node4</title>
<path fill="none" stroke="orange" stroke-dasharray="5,2" d="M222.7,-170.26C209.76,-152.67 189.63,-125.28 177.44,-108.7"/>
<polygon fill="orange" stroke="orange" points="219.98,-172.48 228.72,-178.46 225.62,-168.33 219.98,-172.48"/>
<text text-anchor="middle" x="235.5" y="-141" font-family="Helvetica,sans-Serif" font-size="10.00"> &lt; s16 &gt;</text>
</g>
<!-- Node7 -->
<g id="node7" class="node">
<title>Node7</title>
<g id="a_node7"><a xlink:title=" ">
<polygon fill="white" stroke="#bfbfbf" points="220.5,-267.5 220.5,-286.5 249.5,-286.5 249.5,-267.5 220.5,-267.5"/>
<text text-anchor="middle" x="235" y="-274.5" font-family="Helvetica,sans-Serif" font-size="10.00">T</text>
</a>
</g>
</g>
<!-- Node7&#45;&gt;Node6 -->
<g id="edge6" class="edge">
<title>Node7&#45;&gt;Node6</title>
<path fill="none" stroke="#9a32cd" stroke-dasharray="5,2" d="M235,-257.19C235,-238.74 235,-211.41 235,-197.62"/>
<polygon fill="#9a32cd" stroke="#9a32cd" points="231.5,-257.34 235,-267.34 238.5,-257.34 231.5,-257.34"/>
<text text-anchor="middle" x="240" y="-241" font-family="Helvetica,sans-Serif" font-size="10.00"> X</text>
<text text-anchor="middle" x="240" y="-230" font-family="Helvetica,sans-Serif" font-size="10.00">Y</text>
<text text-anchor="middle" x="240" y="-219" font-family="Helvetica,sans-Serif" font-size="10.00">Z</text>
</g>
</g>
</svg>
