<?xml version="1.0" encoding="UTF-8" standalone="no"?>
<!DOCTYPE svg PUBLIC "-//W3C//DTD SVG 1.1//EN"
 "http://www.w3.org/Graphics/SVG/1.1/DTD/svg11.dtd">
<!-- Generated by graphviz version 2.43.0 (0)
 -->
<!-- Title: ParticleParamTypes::VectorParameter&lt; T, N &gt; Pages: 1 -->
<svg width="154pt" height="185pt"
 viewBox="0.00 0.00 154.00 185.00" xmlns="http://www.w3.org/2000/svg" xmlns:xlink="http://www.w3.org/1999/xlink">
<g id="graph0" class="graph" transform="scale(1 1) rotate(0) translate(4 181)">
<title>ParticleParamTypes::VectorParameter&lt; T, N &gt;</title>
<polygon fill="white" stroke="transparent" points="-4,4 -4,-181 150,-181 150,4 -4,4"/>
<!-- Node1 -->
<g id="node1" class="node">
<title>Node1</title>
<g id="a_node1"><a xlink:title=" ">
<polygon fill="#bfbfbf" stroke="black" points="0,-0.5 0,-30.5 146,-30.5 146,-0.5 0,-0.5"/>
<text text-anchor="start" x="8" y="-18.5" font-family="Helvetica,sans-Serif" font-size="10.00">ParticleParamTypes</text>
<text text-anchor="middle" x="73" y="-7.5" font-family="Helvetica,sans-Serif" font-size="10.00">::VectorParameter&lt; T, N &gt;</text>
</a>
</g>
</g>
<!-- Node2 -->
<g id="node2" class="node">
<title>Node2</title>
<g id="a_node2"><a xlink:href="structParticleParamTypes_1_1Parameter.html" target="_top" xlink:title=" ">
<polygon fill="white" stroke="black" points="15.5,-68.5 15.5,-98.5 130.5,-98.5 130.5,-68.5 15.5,-68.5"/>
<text text-anchor="start" x="23.5" y="-86.5" font-family="Helvetica,sans-Serif" font-size="10.00">ParticleParamTypes</text>
<text text-anchor="middle" x="73" y="-75.5" font-family="Helvetica,sans-Serif" font-size="10.00">::Parameter&lt; T, N &gt;</text>
</a>
</g>
</g>
<!-- Node2&#45;&gt;Node1 -->
<g id="edge1" class="edge">
<title>Node2&#45;&gt;Node1</title>
<path fill="none" stroke="midnightblue" d="M73,-58.03C73,-48.86 73,-38.74 73,-30.79"/>
<polygon fill="midnightblue" stroke="midnightblue" points="69.5,-58.18 73,-68.18 76.5,-58.18 69.5,-58.18"/>
</g>
<!-- Node3 -->
<g id="node3" class="node">
<title>Node3</title>
<g id="a_node3"><a xlink:href="structParticleParamTypes_1_1Parameter.html" target="_top" xlink:title=" ">
<polygon fill="white" stroke="black" points="12.5,-146.5 12.5,-176.5 133.5,-176.5 133.5,-146.5 12.5,-146.5"/>
<text text-anchor="start" x="20.5" y="-164.5" font-family="Helvetica,sans-Serif" font-size="10.00">ParticleParamTypes</text>
<text text-anchor="middle" x="73" y="-153.5" font-family="Helvetica,sans-Serif" font-size="10.00">::Parameter&lt; T, PN &gt;</text>
</a>
</g>
</g>
<!-- Node3&#45;&gt;Node2 -->
<g id="edge2" class="edge">
<title>Node3&#45;&gt;Node2</title>
<path fill="none" stroke="orange" stroke-dasharray="5,2" d="M73,-136.09C73,-123.76 73,-109.22 73,-98.73"/>
<polygon fill="orange" stroke="orange" points="69.5,-136.2 73,-146.2 76.5,-136.21 69.5,-136.2"/>
<text text-anchor="middle" x="96" y="-120" font-family="Helvetica,sans-Serif" font-size="10.00"> &lt; T, N &gt;</text>
</g>
</g>
</svg>
