<?xml version="1.0" encoding="UTF-8" standalone="no"?>
<!DOCTYPE svg PUBLIC "-//W3C//DTD SVG 1.1//EN"
 "http://www.w3.org/Graphics/SVG/1.1/DTD/svg11.dtd">
<!-- Generated by graphviz version 2.43.0 (0)
 -->
<!-- Title: Catch::SectionInfo Pages: 1 -->
<svg width="211pt" height="173pt"
 viewBox="0.00 0.00 211.00 173.00" xmlns="http://www.w3.org/2000/svg" xmlns:xlink="http://www.w3.org/1999/xlink">
<g id="graph0" class="graph" transform="scale(1 1) rotate(0) translate(4 169)">
<title>Catch::SectionInfo</title>
<polygon fill="white" stroke="transparent" points="-4,4 -4,-169 207,-169 207,4 -4,4"/>
<!-- Node1 -->
<g id="node1" class="node">
<title>Node1</title>
<g id="a_node1"><a xlink:title=" ">
<polygon fill="#bfbfbf" stroke="black" points="58.5,-0.5 58.5,-19.5 163.5,-19.5 163.5,-0.5 58.5,-0.5"/>
<text text-anchor="middle" x="111" y="-7.5" font-family="Helvetica,sans-Serif" font-size="10.00">Catch::SectionInfo</text>
</a>
</g>
</g>
<!-- Node2 -->
<g id="node2" class="node">
<title>Node2</title>
<g id="a_node2"><a xlink:href="structCatch_1_1SourceLineInfo.html" target="_top" xlink:title=" ">
<polygon fill="white" stroke="black" points="0,-78.5 0,-97.5 122,-97.5 122,-78.5 0,-78.5"/>
<text text-anchor="middle" x="61" y="-85.5" font-family="Helvetica,sans-Serif" font-size="10.00">Catch::SourceLineInfo</text>
</a>
</g>
</g>
<!-- Node2&#45;&gt;Node1 -->
<g id="edge1" class="edge">
<title>Node2&#45;&gt;Node1</title>
<path fill="none" stroke="#9a32cd" stroke-dasharray="5,2" d="M72.47,-69.57C82.74,-53.95 97.38,-31.7 105.33,-19.62"/>
<polygon fill="#9a32cd" stroke="#9a32cd" points="69.31,-68 66.74,-78.28 75.16,-71.85 69.31,-68"/>
<text text-anchor="middle" x="112" y="-46.5" font-family="Helvetica,sans-Serif" font-size="10.00"> lineInfo</text>
</g>
<!-- Node3 -->
<g id="node3" class="node">
<title>Node3</title>
<g id="a_node3"><a xlink:title=" ">
<polygon fill="white" stroke="#bfbfbf" points="12,-145.5 12,-164.5 50,-164.5 50,-145.5 12,-145.5"/>
<text text-anchor="middle" x="31" y="-152.5" font-family="Helvetica,sans-Serif" font-size="10.00">char</text>
</a>
</g>
</g>
<!-- Node3&#45;&gt;Node2 -->
<g id="edge2" class="edge">
<title>Node3&#45;&gt;Node2</title>
<path fill="none" stroke="#9a32cd" stroke-dasharray="5,2" d="M39.4,-135.79C45.17,-123.31 52.55,-107.31 57.02,-97.63"/>
<polygon fill="#9a32cd" stroke="#9a32cd" points="36.06,-134.69 35.05,-145.23 42.41,-137.62 36.06,-134.69"/>
<text text-anchor="middle" x="57.5" y="-119" font-family="Helvetica,sans-Serif" font-size="10.00"> file</text>
</g>
<!-- Node4 -->
<g id="node4" class="node">
<title>Node4</title>
<g id="a_node4"><a xlink:title=" ">
<polygon fill="white" stroke="#bfbfbf" points="68.5,-145.5 68.5,-164.5 113.5,-164.5 113.5,-145.5 68.5,-145.5"/>
<text text-anchor="middle" x="91" y="-152.5" font-family="Helvetica,sans-Serif" font-size="10.00">size_t</text>
</a>
</g>
</g>
<!-- Node4&#45;&gt;Node2 -->
<g id="edge3" class="edge">
<title>Node4&#45;&gt;Node2</title>
<path fill="none" stroke="#9a32cd" stroke-dasharray="5,2" d="M82.6,-135.79C76.83,-123.31 69.45,-107.31 64.98,-97.63"/>
<polygon fill="#9a32cd" stroke="#9a32cd" points="79.59,-137.62 86.95,-145.23 85.94,-134.69 79.59,-137.62"/>
<text text-anchor="middle" x="89" y="-119" font-family="Helvetica,sans-Serif" font-size="10.00"> line</text>
</g>
<!-- Node5 -->
<g id="node5" class="node">
<title>Node5</title>
<g id="a_node5"><a xlink:title=" ">
<polygon fill="white" stroke="#bfbfbf" points="140,-78.5 140,-97.5 184,-97.5 184,-78.5 140,-78.5"/>
<text text-anchor="middle" x="162" y="-85.5" font-family="Helvetica,sans-Serif" font-size="10.00">string</text>
</a>
</g>
</g>
<!-- Node5&#45;&gt;Node1 -->
<g id="edge4" class="edge">
<title>Node5&#45;&gt;Node1</title>
<path fill="none" stroke="#9a32cd" stroke-dasharray="5,2" d="M153.83,-68.97C149.17,-59.42 142.88,-47.69 136,-38 131.41,-31.54 125.41,-25 120.43,-19.98"/>
<polygon fill="#9a32cd" stroke="#9a32cd" points="150.79,-70.73 158.22,-78.29 157.13,-67.75 150.79,-70.73"/>
<text text-anchor="middle" x="175.5" y="-52" font-family="Helvetica,sans-Serif" font-size="10.00"> name</text>
<text text-anchor="middle" x="175.5" y="-41" font-family="Helvetica,sans-Serif" font-size="10.00">description</text>
</g>
</g>
</svg>
