<?xml version="1.0" encoding="UTF-8" standalone="no"?>
<!DOCTYPE svg PUBLIC "-//W3C//DTD SVG 1.1//EN"
 "http://www.w3.org/Graphics/SVG/1.1/DTD/svg11.dtd">
<!-- Generated by graphviz version 2.43.0 (0)
 -->
<!-- Title: irr::video::CNullDriver::SMaterialRenderer Pages: 1 -->
<svg width="258pt" height="240pt"
 viewBox="0.00 0.00 258.00 240.00" xmlns="http://www.w3.org/2000/svg" xmlns:xlink="http://www.w3.org/1999/xlink">
<g id="graph0" class="graph" transform="scale(1 1) rotate(0) translate(4 236)">
<title>irr::video::CNullDriver::SMaterialRenderer</title>
<polygon fill="white" stroke="transparent" points="-4,4 -4,-236 254,-236 254,4 -4,4"/>
<!-- Node1 -->
<g id="node1" class="node">
<title>Node1</title>
<g id="a_node1"><a xlink:title=" ">
<polygon fill="#bfbfbf" stroke="black" points="82,-0.5 82,-30.5 204,-30.5 204,-0.5 82,-0.5"/>
<text text-anchor="start" x="90" y="-18.5" font-family="Helvetica,sans-Serif" font-size="10.00">irr::video::CNullDriver</text>
<text text-anchor="middle" x="143" y="-7.5" font-family="Helvetica,sans-Serif" font-size="10.00">::SMaterialRenderer</text>
</a>
</g>
</g>
<!-- Node2 -->
<g id="node2" class="node">
<title>Node2</title>
<g id="a_node2"><a xlink:href="classirr_1_1video_1_1IMaterialRenderer.html" target="_top" xlink:title="Interface for material rendering.">
<polygon fill="white" stroke="black" points="0,-78.5 0,-97.5 154,-97.5 154,-78.5 0,-78.5"/>
<text text-anchor="middle" x="77" y="-85.5" font-family="Helvetica,sans-Serif" font-size="10.00">irr::video::IMaterialRenderer</text>
</a>
</g>
</g>
<!-- Node2&#45;&gt;Node1 -->
<g id="edge1" class="edge">
<title>Node2&#45;&gt;Node1</title>
<path fill="none" stroke="#9a32cd" stroke-dasharray="5,2" d="M92.22,-70.74C103.59,-58.6 118.98,-42.16 129.82,-30.58"/>
<polygon fill="#9a32cd" stroke="#9a32cd" points="89.37,-68.66 85.09,-78.36 94.48,-73.45 89.37,-68.66"/>
<text text-anchor="middle" x="136" y="-52" font-family="Helvetica,sans-Serif" font-size="10.00"> Renderer</text>
</g>
<!-- Node3 -->
<g id="node3" class="node">
<title>Node3</title>
<g id="a_node3"><a xlink:href="classirr_1_1IReferenceCounted.html" target="_top" xlink:title="Base class of most objects of the Irrlicht Engine.">
<polygon fill="white" stroke="black" points="14,-145.5 14,-164.5 140,-164.5 140,-145.5 14,-145.5"/>
<text text-anchor="middle" x="77" y="-152.5" font-family="Helvetica,sans-Serif" font-size="10.00">irr::IReferenceCounted</text>
</a>
</g>
</g>
<!-- Node3&#45;&gt;Node2 -->
<g id="edge2" class="edge">
<title>Node3&#45;&gt;Node2</title>
<path fill="none" stroke="midnightblue" d="M77,-135.04C77,-122.67 77,-107.12 77,-97.63"/>
<polygon fill="midnightblue" stroke="midnightblue" points="73.5,-135.23 77,-145.23 80.5,-135.23 73.5,-135.23"/>
</g>
<!-- Node4 -->
<g id="node4" class="node">
<title>Node4</title>
<g id="a_node4"><a xlink:title=" ">
<polygon fill="white" stroke="#bfbfbf" points="15,-212.5 15,-231.5 53,-231.5 53,-212.5 15,-212.5"/>
<text text-anchor="middle" x="34" y="-219.5" font-family="Helvetica,sans-Serif" font-size="10.00">char</text>
</a>
</g>
</g>
<!-- Node4&#45;&gt;Node3 -->
<g id="edge3" class="edge">
<title>Node4&#45;&gt;Node3</title>
<path fill="none" stroke="#9a32cd" stroke-dasharray="5,2" d="M31.05,-202.26C30.9,-195.8 31.76,-188.75 35,-183 39.51,-174.99 47.48,-168.99 55.28,-164.7"/>
<polygon fill="#9a32cd" stroke="#9a32cd" points="27.57,-202.63 32.03,-212.24 34.54,-201.95 27.57,-202.63"/>
<text text-anchor="middle" x="67" y="-186" font-family="Helvetica,sans-Serif" font-size="10.00"> DebugName</text>
</g>
<!-- Node5 -->
<g id="node5" class="node">
<title>Node5</title>
<g id="a_node5"><a xlink:title=" ">
<polygon fill="white" stroke="#bfbfbf" points="96,-212.5 96,-231.5 146,-231.5 146,-212.5 96,-212.5"/>
<text text-anchor="middle" x="121" y="-219.5" font-family="Helvetica,sans-Serif" font-size="10.00">int32_t</text>
</a>
</g>
</g>
<!-- Node5&#45;&gt;Node3 -->
<g id="edge4" class="edge">
<title>Node5&#45;&gt;Node3</title>
<path fill="none" stroke="#9a32cd" stroke-dasharray="5,2" d="M111.65,-203.52C107.93,-196.94 103.48,-189.49 99,-183 94.6,-176.63 89.1,-169.88 84.7,-164.72"/>
<polygon fill="#9a32cd" stroke="#9a32cd" points="108.6,-205.23 116.48,-212.31 114.73,-201.86 108.6,-205.23"/>
<text text-anchor="middle" x="151.5" y="-186" font-family="Helvetica,sans-Serif" font-size="10.00"> ReferenceCounter</text>
</g>
<!-- Node6 -->
<g id="node6" class="node">
<title>Node6</title>
<g id="a_node6"><a xlink:title=" ">
<polygon fill="white" stroke="#bfbfbf" points="172,-78.5 172,-97.5 250,-97.5 250,-78.5 172,-78.5"/>
<text text-anchor="middle" x="211" y="-85.5" font-family="Helvetica,sans-Serif" font-size="10.00">string&lt; c8 &gt;</text>
</a>
</g>
</g>
<!-- Node6&#45;&gt;Node1 -->
<g id="edge5" class="edge">
<title>Node6&#45;&gt;Node1</title>
<path fill="none" stroke="#9a32cd" stroke-dasharray="5,2" d="M195.66,-71.09C183.91,-58.91 167.86,-42.27 156.58,-30.58"/>
<polygon fill="#9a32cd" stroke="#9a32cd" points="193.2,-73.59 202.66,-78.36 198.24,-68.73 193.2,-73.59"/>
<text text-anchor="middle" x="199.5" y="-52" font-family="Helvetica,sans-Serif" font-size="10.00"> Name</text>
</g>
<!-- Node7 -->
<g id="node7" class="node">
<title>Node7</title>
<g id="a_node7"><a xlink:title=" ">
<polygon fill="white" stroke="#bfbfbf" points="189,-145.5 189,-164.5 233,-164.5 233,-145.5 189,-145.5"/>
<text text-anchor="middle" x="211" y="-152.5" font-family="Helvetica,sans-Serif" font-size="10.00">string</text>
</a>
</g>
</g>
<!-- Node7&#45;&gt;Node6 -->
<g id="edge6" class="edge">
<title>Node7&#45;&gt;Node6</title>
<path fill="none" stroke="orange" stroke-dasharray="5,2" d="M211,-135.04C211,-122.67 211,-107.12 211,-97.63"/>
<polygon fill="orange" stroke="orange" points="207.5,-135.23 211,-145.23 214.5,-135.23 207.5,-135.23"/>
<text text-anchor="middle" x="229.5" y="-119" font-family="Helvetica,sans-Serif" font-size="10.00"> &lt; c8 &gt;</text>
</g>
</g>
</svg>
