<?xml version="1.0" encoding="UTF-8" standalone="no"?>
<!DOCTYPE svg PUBLIC "-//W3C//DTD SVG 1.1//EN"
 "http://www.w3.org/Graphics/SVG/1.1/DTD/svg11.dtd">
<!-- Generated by graphviz version 2.43.0 (0)
 -->
<!-- Title: GUIButton::ButtonSprite Pages: 1 -->
<svg width="217pt" height="173pt"
 viewBox="0.00 0.00 217.00 173.00" xmlns="http://www.w3.org/2000/svg" xmlns:xlink="http://www.w3.org/1999/xlink">
<g id="graph0" class="graph" transform="scale(1 1) rotate(0) translate(4 169)">
<title>GUIButton::ButtonSprite</title>
<polygon fill="white" stroke="transparent" points="-4,4 -4,-169 213,-169 213,4 -4,4"/>
<!-- Node1 -->
<g id="node1" class="node">
<title>Node1</title>
<g id="a_node1"><a xlink:title=" ">
<polygon fill="#bfbfbf" stroke="black" points="68,-0.5 68,-19.5 202,-19.5 202,-0.5 68,-0.5"/>
<text text-anchor="middle" x="135" y="-7.5" font-family="Helvetica,sans-Serif" font-size="10.00">GUIButton::ButtonSprite</text>
</a>
</g>
</g>
<!-- Node2 -->
<g id="node2" class="node">
<title>Node2</title>
<g id="a_node2"><a xlink:href="classirr_1_1video_1_1SColor.html" target="_top" xlink:title="Class representing a 32 bit ARGB color.">
<polygon fill="white" stroke="black" points="0,-78.5 0,-97.5 98,-97.5 98,-78.5 0,-78.5"/>
<text text-anchor="middle" x="49" y="-85.5" font-family="Helvetica,sans-Serif" font-size="10.00">irr::video::SColor</text>
</a>
</g>
</g>
<!-- Node2&#45;&gt;Node1 -->
<g id="edge1" class="edge">
<title>Node2&#45;&gt;Node1</title>
<path fill="none" stroke="#9a32cd" stroke-dasharray="5,2" d="M65.71,-71.06C76.03,-61.35 89.62,-48.77 102,-38 109.26,-31.68 117.66,-24.82 124.16,-19.59"/>
<polygon fill="#9a32cd" stroke="#9a32cd" points="63.08,-68.74 58.23,-78.15 67.89,-73.82 63.08,-68.74"/>
<text text-anchor="middle" x="116.5" y="-46.5" font-family="Helvetica,sans-Serif" font-size="10.00"> Color</text>
</g>
<!-- Node3 -->
<g id="node3" class="node">
<title>Node3</title>
<g id="a_node3"><a xlink:title=" ">
<polygon fill="white" stroke="#bfbfbf" points="21,-145.5 21,-164.5 77,-164.5 77,-145.5 21,-145.5"/>
<text text-anchor="middle" x="49" y="-152.5" font-family="Helvetica,sans-Serif" font-size="10.00">uint32_t</text>
</a>
</g>
</g>
<!-- Node3&#45;&gt;Node2 -->
<g id="edge2" class="edge">
<title>Node3&#45;&gt;Node2</title>
<path fill="none" stroke="#9a32cd" stroke-dasharray="5,2" d="M49,-135.04C49,-122.67 49,-107.12 49,-97.63"/>
<polygon fill="#9a32cd" stroke="#9a32cd" points="45.5,-135.23 49,-145.23 52.5,-135.23 45.5,-135.23"/>
<text text-anchor="middle" x="63" y="-119" font-family="Helvetica,sans-Serif" font-size="10.00"> color</text>
</g>
<!-- Node4 -->
<g id="node4" class="node">
<title>Node4</title>
<g id="a_node4"><a xlink:href="classbool.html" target="_top" xlink:title=" ">
<polygon fill="white" stroke="black" points="116,-78.5 116,-97.5 154,-97.5 154,-78.5 116,-78.5"/>
<text text-anchor="middle" x="135" y="-85.5" font-family="Helvetica,sans-Serif" font-size="10.00">bool</text>
</a>
</g>
</g>
<!-- Node4&#45;&gt;Node1 -->
<g id="edge3" class="edge">
<title>Node4&#45;&gt;Node1</title>
<path fill="none" stroke="#9a32cd" stroke-dasharray="5,2" d="M135,-68.22C135,-52.7 135,-31.36 135,-19.62"/>
<polygon fill="#9a32cd" stroke="#9a32cd" points="131.5,-68.28 135,-78.28 138.5,-68.28 131.5,-68.28"/>
<text text-anchor="middle" x="148.5" y="-52" font-family="Helvetica,sans-Serif" font-size="10.00"> Loop</text>
<text text-anchor="middle" x="148.5" y="-41" font-family="Helvetica,sans-Serif" font-size="10.00">Scale</text>
</g>
<!-- Node5 -->
<g id="node5" class="node">
<title>Node5</title>
<g id="a_node5"><a xlink:title=" ">
<polygon fill="white" stroke="#bfbfbf" points="172,-78.5 172,-97.5 206,-97.5 206,-78.5 172,-78.5"/>
<text text-anchor="middle" x="189" y="-85.5" font-family="Helvetica,sans-Serif" font-size="10.00">s32</text>
</a>
</g>
</g>
<!-- Node5&#45;&gt;Node1 -->
<g id="edge4" class="edge">
<title>Node5&#45;&gt;Node1</title>
<path fill="none" stroke="#9a32cd" stroke-dasharray="5,2" d="M182.64,-68.97C178.71,-59.25 173.07,-47.36 166,-38 160.75,-31.05 153.47,-24.59 147.28,-19.74"/>
<polygon fill="#9a32cd" stroke="#9a32cd" points="179.41,-70.32 186.22,-78.44 185.96,-67.85 179.41,-70.32"/>
<text text-anchor="middle" x="193.5" y="-46.5" font-family="Helvetica,sans-Serif" font-size="10.00"> Index</text>
</g>
</g>
</svg>
