<?xml version="1.0" encoding="UTF-8" standalone="no"?>
<!DOCTYPE svg PUBLIC "-//W3C//DTD SVG 1.1//EN"
 "http://www.w3.org/Graphics/SVG/1.1/DTD/svg11.dtd">
<!-- Generated by graphviz version 2.43.0 (0)
 -->
<!-- Title: SmoothTranslatorWrapped Pages: 1 -->
<svg width="395pt" height="276pt"
 viewBox="0.00 0.00 395.13 276.00" xmlns="http://www.w3.org/2000/svg" xmlns:xlink="http://www.w3.org/1999/xlink">
<g id="graph0" class="graph" transform="scale(1 1) rotate(0) translate(4 272)">
<title>SmoothTranslatorWrapped</title>
<polygon fill="white" stroke="transparent" points="-4,4 -4,-272 391.13,-272 391.13,4 -4,4"/>
<!-- Node1 -->
<g id="node1" class="node">
<title>Node1</title>
<g id="a_node1"><a xlink:title=" ">
<polygon fill="#bfbfbf" stroke="black" points="74.13,-0.5 74.13,-19.5 220.13,-19.5 220.13,-0.5 74.13,-0.5"/>
<text text-anchor="middle" x="147.13" y="-7.5" font-family="Helvetica,sans-Serif" font-size="10.00">SmoothTranslatorWrapped</text>
</a>
</g>
</g>
<!-- Node2 -->
<g id="node2" class="node">
<title>Node2</title>
<g id="a_node2"><a xlink:href="structSmoothTranslator.html" target="_top" xlink:title=" ">
<polygon fill="white" stroke="black" points="77.13,-57.5 77.13,-76.5 217.13,-76.5 217.13,-57.5 77.13,-57.5"/>
<text text-anchor="middle" x="147.13" y="-64.5" font-family="Helvetica,sans-Serif" font-size="10.00">SmoothTranslator&lt; f32 &gt;</text>
</a>
</g>
</g>
<!-- Node2&#45;&gt;Node1 -->
<g id="edge1" class="edge">
<title>Node2&#45;&gt;Node1</title>
<path fill="none" stroke="midnightblue" d="M147.13,-47.12C147.13,-37.82 147.13,-27.06 147.13,-19.71"/>
<polygon fill="midnightblue" stroke="midnightblue" points="143.63,-47.41 147.13,-57.41 150.63,-47.41 143.63,-47.41"/>
</g>
<!-- Node3 -->
<g id="node3" class="node">
<title>Node3</title>
<g id="a_node3"><a xlink:href="classbool.html" target="_top" xlink:title=" ">
<polygon fill="white" stroke="black" points="2.13,-248.5 2.13,-267.5 40.13,-267.5 40.13,-248.5 2.13,-248.5"/>
<text text-anchor="middle" x="21.13" y="-255.5" font-family="Helvetica,sans-Serif" font-size="10.00">bool</text>
</a>
</g>
</g>
<!-- Node3&#45;&gt;Node2 -->
<g id="edge2" class="edge">
<title>Node3&#45;&gt;Node2</title>
<path fill="none" stroke="#9a32cd" stroke-dasharray="5,2" d="M13.64,-238.81C3.66,-211.4 -10.19,-159.01 13.13,-124 30.46,-97.98 62.44,-84.02 90.81,-76.56"/>
<polygon fill="#9a32cd" stroke="#9a32cd" points="10.44,-240.24 17.31,-248.3 16.97,-237.71 10.44,-240.24"/>
<text text-anchor="middle" x="42.63" y="-149" font-family="Helvetica,sans-Serif" font-size="10.00"> aim_is_end</text>
</g>
<!-- Node5 -->
<g id="node5" class="node">
<title>Node5</title>
<g id="a_node5"><a xlink:href="structSmoothTranslator.html" target="_top" xlink:title=" ">
<polygon fill="white" stroke="black" points="81.63,-142 81.63,-161 212.63,-161 212.63,-142 81.63,-142"/>
<text text-anchor="middle" x="147.13" y="-149" font-family="Helvetica,sans-Serif" font-size="10.00">SmoothTranslator&lt; T &gt;</text>
</a>
</g>
</g>
<!-- Node3&#45;&gt;Node5 -->
<g id="edge5" class="edge">
<title>Node3&#45;&gt;Node5</title>
<path fill="none" stroke="#9a32cd" stroke-dasharray="5,2" d="M27.63,-238.81C33.04,-225.79 41.86,-208.6 54.13,-197 72.34,-179.79 98.45,-168.09 118.37,-161.03"/>
<polygon fill="#9a32cd" stroke="#9a32cd" points="24.35,-237.57 24.01,-248.16 30.88,-240.1 24.35,-237.57"/>
<text text-anchor="middle" x="83.63" y="-211" font-family="Helvetica,sans-Serif" font-size="10.00"> aim_is_end</text>
</g>
<!-- Node4 -->
<g id="node4" class="node">
<title>Node4</title>
<g id="a_node4"><a xlink:title=" ">
<polygon fill="white" stroke="#bfbfbf" points="240.13,-248.5 240.13,-267.5 272.13,-267.5 272.13,-248.5 240.13,-248.5"/>
<text text-anchor="middle" x="256.13" y="-255.5" font-family="Helvetica,sans-Serif" font-size="10.00">f32</text>
</a>
</g>
</g>
<!-- Node4&#45;&gt;Node2 -->
<g id="edge3" class="edge">
<title>Node4&#45;&gt;Node2</title>
<path fill="none" stroke="#9a32cd" stroke-dasharray="5,2" d="M281.6,-246.71C288.53,-242.6 295.2,-237.11 299.13,-230 306.22,-217.16 304.87,-210.5 299.13,-197 273.04,-135.69 200.24,-93.64 165.73,-76.56"/>
<polygon fill="#9a32cd" stroke="#9a32cd" points="279.54,-243.83 272.22,-251.49 282.72,-250.07 279.54,-243.83"/>
<text text-anchor="middle" x="338.13" y="-171" font-family="Helvetica,sans-Serif" font-size="10.00"> anim_time_counter</text>
<text text-anchor="middle" x="338.13" y="-160" font-family="Helvetica,sans-Serif" font-size="10.00">val_current</text>
<text text-anchor="middle" x="338.13" y="-149" font-family="Helvetica,sans-Serif" font-size="10.00">val_target</text>
<text text-anchor="middle" x="338.13" y="-138" font-family="Helvetica,sans-Serif" font-size="10.00">val_old</text>
<text text-anchor="middle" x="338.13" y="-127" font-family="Helvetica,sans-Serif" font-size="10.00">anim_time</text>
</g>
<!-- Node4&#45;&gt;Node5 -->
<g id="edge7" class="edge">
<title>Node4&#45;&gt;Node5</title>
<path fill="none" stroke="#9a32cd" stroke-dasharray="5,2" d="M230.56,-247.68C220.69,-243.29 209.72,-237.38 201.13,-230 201.03,-229.92 167.13,-181.23 153.1,-161.08"/>
<polygon fill="#9a32cd" stroke="#9a32cd" points="229.36,-250.97 239.94,-251.56 232.04,-244.5 229.36,-250.97"/>
<text text-anchor="middle" x="250.13" y="-216.5" font-family="Helvetica,sans-Serif" font-size="10.00"> anim_time_counter</text>
<text text-anchor="middle" x="250.13" y="-205.5" font-family="Helvetica,sans-Serif" font-size="10.00">anim_time</text>
</g>
<!-- Node5&#45;&gt;Node2 -->
<g id="edge4" class="edge">
<title>Node5&#45;&gt;Node2</title>
<path fill="none" stroke="orange" stroke-dasharray="5,2" d="M147.13,-131.93C147.13,-114.63 147.13,-89.61 147.13,-76.6"/>
<polygon fill="orange" stroke="orange" points="143.63,-131.98 147.13,-141.98 150.63,-131.98 143.63,-131.98"/>
<text text-anchor="middle" x="168.13" y="-98" font-family="Helvetica,sans-Serif" font-size="10.00"> &lt; f32 &gt;</text>
</g>
<!-- Node6 -->
<g id="node6" class="node">
<title>Node6</title>
<g id="a_node6"><a xlink:title=" ">
<polygon fill="white" stroke="#bfbfbf" points="104.63,-248.5 104.63,-267.5 133.63,-267.5 133.63,-248.5 104.63,-248.5"/>
<text text-anchor="middle" x="119.13" y="-255.5" font-family="Helvetica,sans-Serif" font-size="10.00">T</text>
</a>
</g>
</g>
<!-- Node6&#45;&gt;Node5 -->
<g id="edge6" class="edge">
<title>Node6&#45;&gt;Node5</title>
<path fill="none" stroke="#9a32cd" stroke-dasharray="5,2" d="M116.94,-238.08C116.16,-226.08 116.27,-210.35 120.13,-197 124.09,-183.28 133.44,-169.55 140.03,-161.04"/>
<polygon fill="#9a32cd" stroke="#9a32cd" points="113.48,-238.6 117.87,-248.25 120.45,-237.97 113.48,-238.6"/>
<text text-anchor="middle" x="149.13" y="-222" font-family="Helvetica,sans-Serif" font-size="10.00"> val_current</text>
<text text-anchor="middle" x="149.13" y="-211" font-family="Helvetica,sans-Serif" font-size="10.00">val_target</text>
<text text-anchor="middle" x="149.13" y="-200" font-family="Helvetica,sans-Serif" font-size="10.00">val_old</text>
</g>
</g>
</svg>
