<?xml version="1.0" encoding="UTF-8" standalone="no"?>
<!DOCTYPE svg PUBLIC "-//W3C//DTD SVG 1.1//EN"
 "http://www.w3.org/Graphics/SVG/1.1/DTD/svg11.dtd">
<!-- Generated by graphviz version 2.43.0 (0)
 -->
<!-- Title: Catch::NameAndTags Pages: 1 -->
<svg width="128pt" height="184pt"
 viewBox="0.00 0.00 128.00 184.00" xmlns="http://www.w3.org/2000/svg" xmlns:xlink="http://www.w3.org/1999/xlink">
<g id="graph0" class="graph" transform="scale(1 1) rotate(0) translate(4 180)">
<title>Catch::NameAndTags</title>
<polygon fill="white" stroke="transparent" points="-4,4 -4,-180 124,-180 124,4 -4,4"/>
<!-- Node1 -->
<g id="node1" class="node">
<title>Node1</title>
<g id="a_node1"><a xlink:title=" ">
<polygon fill="#bfbfbf" stroke="black" points="0,-0.5 0,-19.5 120,-19.5 120,-0.5 0,-0.5"/>
<text text-anchor="middle" x="60" y="-7.5" font-family="Helvetica,sans-Serif" font-size="10.00">Catch::NameAndTags</text>
</a>
</g>
</g>
<!-- Node2 -->
<g id="node2" class="node">
<title>Node2</title>
<g id="a_node2"><a xlink:href="classCatch_1_1StringRef.html" target="_top" xlink:title=" ">
<polygon fill="white" stroke="black" points="12.5,-78.5 12.5,-97.5 107.5,-97.5 107.5,-78.5 12.5,-78.5"/>
<text text-anchor="middle" x="60" y="-85.5" font-family="Helvetica,sans-Serif" font-size="10.00">Catch::StringRef</text>
</a>
</g>
</g>
<!-- Node2&#45;&gt;Node1 -->
<g id="edge1" class="edge">
<title>Node2&#45;&gt;Node1</title>
<path fill="none" stroke="#9a32cd" stroke-dasharray="5,2" d="M60,-68.22C60,-52.7 60,-31.36 60,-19.62"/>
<polygon fill="#9a32cd" stroke="#9a32cd" points="56.5,-68.28 60,-78.28 63.5,-68.28 56.5,-68.28"/>
<text text-anchor="middle" x="74" y="-52" font-family="Helvetica,sans-Serif" font-size="10.00"> tags</text>
<text text-anchor="middle" x="74" y="-41" font-family="Helvetica,sans-Serif" font-size="10.00">name</text>
</g>
<!-- Node3 -->
<g id="node3" class="node">
<title>Node3</title>
<g id="a_node3"><a xlink:title=" ">
<polygon fill="white" stroke="#bfbfbf" points="8,-156.5 8,-175.5 46,-175.5 46,-156.5 8,-156.5"/>
<text text-anchor="middle" x="27" y="-163.5" font-family="Helvetica,sans-Serif" font-size="10.00">char</text>
</a>
</g>
</g>
<!-- Node3&#45;&gt;Node2 -->
<g id="edge2" class="edge">
<title>Node3&#45;&gt;Node2</title>
<path fill="none" stroke="#9a32cd" stroke-dasharray="5,2" d="M23.84,-146.19C23.1,-136.7 23.58,-125.27 28,-116 31.63,-108.39 38.54,-102.13 45.01,-97.56"/>
<polygon fill="#9a32cd" stroke="#9a32cd" points="20.37,-146.7 25.09,-156.18 27.32,-145.83 20.37,-146.7"/>
<text text-anchor="middle" x="49.5" y="-130" font-family="Helvetica,sans-Serif" font-size="10.00"> m_start</text>
<text text-anchor="middle" x="49.5" y="-119" font-family="Helvetica,sans-Serif" font-size="10.00">s_empty</text>
</g>
<!-- Node4 -->
<g id="node4" class="node">
<title>Node4</title>
<g id="a_node4"><a xlink:title=" ">
<polygon fill="white" stroke="#bfbfbf" points="70.5,-156.5 70.5,-175.5 115.5,-175.5 115.5,-156.5 70.5,-156.5"/>
<text text-anchor="middle" x="93" y="-163.5" font-family="Helvetica,sans-Serif" font-size="10.00">size_t</text>
</a>
</g>
</g>
<!-- Node4&#45;&gt;Node2 -->
<g id="edge3" class="edge">
<title>Node4&#45;&gt;Node2</title>
<path fill="none" stroke="#9a32cd" stroke-dasharray="5,2" d="M85.04,-146.67C78.29,-131.11 68.89,-109.47 63.74,-97.62"/>
<polygon fill="#9a32cd" stroke="#9a32cd" points="82.02,-148.5 89.21,-156.28 88.44,-145.72 82.02,-148.5"/>
<text text-anchor="middle" x="99" y="-124.5" font-family="Helvetica,sans-Serif" font-size="10.00"> m_size</text>
</g>
</g>
</svg>
