<?xml version="1.0" encoding="UTF-8" standalone="no"?>
<!DOCTYPE svg PUBLIC "-//W3C//DTD SVG 1.1//EN"
 "http://www.w3.org/Graphics/SVG/1.1/DTD/svg11.dtd">
<!-- Generated by graphviz version 2.43.0 (0)
 -->
<!-- Title: con::OutgoingPacket Pages: 1 -->
<svg width="363pt" height="253pt"
 viewBox="0.00 0.00 362.50 253.00" xmlns="http://www.w3.org/2000/svg" xmlns:xlink="http://www.w3.org/1999/xlink">
<g id="graph0" class="graph" transform="scale(1 1) rotate(0) translate(4 249)">
<title>con::OutgoingPacket</title>
<polygon fill="white" stroke="transparent" points="-4,4 -4,-249 358.5,-249 358.5,4 -4,4"/>
<!-- Node1 -->
<g id="node1" class="node">
<title>Node1</title>
<g id="a_node1"><a xlink:title=" ">
<polygon fill="#bfbfbf" stroke="black" points="57.5,-0.5 57.5,-19.5 173.5,-19.5 173.5,-0.5 57.5,-0.5"/>
<text text-anchor="middle" x="115.5" y="-7.5" font-family="Helvetica,sans-Serif" font-size="10.00">con::OutgoingPacket</text>
</a>
</g>
</g>
<!-- Node2 -->
<g id="node2" class="node">
<title>Node2</title>
<g id="a_node2"><a xlink:title=" ">
<polygon fill="white" stroke="#bfbfbf" points="0,-78.5 0,-97.5 35,-97.5 35,-78.5 0,-78.5"/>
<text text-anchor="middle" x="17.5" y="-85.5" font-family="Helvetica,sans-Serif" font-size="10.00">u16</text>
</a>
</g>
</g>
<!-- Node2&#45;&gt;Node1 -->
<g id="edge1" class="edge">
<title>Node2&#45;&gt;Node1</title>
<path fill="none" stroke="#9a32cd" stroke-dasharray="5,2" d="M12.94,-68.55C11.58,-58.53 11.91,-46.49 18.5,-38 27.98,-25.78 42.5,-18.78 57.44,-14.85"/>
<polygon fill="#9a32cd" stroke="#9a32cd" points="9.5,-69.23 14.85,-78.37 16.37,-67.88 9.5,-69.23"/>
<text text-anchor="middle" x="38.5" y="-46.5" font-family="Helvetica,sans-Serif" font-size="10.00"> peer_id</text>
</g>
<!-- Node3 -->
<g id="node3" class="node">
<title>Node3</title>
<g id="a_node3"><a xlink:title=" ">
<polygon fill="white" stroke="#bfbfbf" points="102,-146.5 102,-165.5 131,-165.5 131,-146.5 102,-146.5"/>
<text text-anchor="middle" x="116.5" y="-153.5" font-family="Helvetica,sans-Serif" font-size="10.00">u8</text>
</a>
</g>
</g>
<!-- Node3&#45;&gt;Node1 -->
<g id="edge2" class="edge">
<title>Node3&#45;&gt;Node1</title>
<path fill="none" stroke="#9a32cd" stroke-dasharray="5,2" d="M102.9,-138.42C94.96,-127.63 85.69,-112.84 81.5,-98 73.21,-68.66 95.43,-35.49 107.82,-19.94"/>
<polygon fill="#9a32cd" stroke="#9a32cd" points="100.23,-140.69 109.12,-146.46 105.77,-136.41 100.23,-140.69"/>
<text text-anchor="middle" x="113.5" y="-85.5" font-family="Helvetica,sans-Serif" font-size="10.00"> channelnum</text>
</g>
<!-- Node4 -->
<g id="node4" class="node">
<title>Node4</title>
<g id="a_node4"><a xlink:href="classSharedBuffer.html" target="_top" xlink:title=" ">
<polygon fill="white" stroke="black" points="154.5,-78.5 154.5,-97.5 268.5,-97.5 268.5,-78.5 154.5,-78.5"/>
<text text-anchor="middle" x="211.5" y="-85.5" font-family="Helvetica,sans-Serif" font-size="10.00">SharedBuffer&lt; u8 &gt;</text>
</a>
</g>
</g>
<!-- Node3&#45;&gt;Node4 -->
<g id="edge4" class="edge">
<title>Node3&#45;&gt;Node4</title>
<path fill="none" stroke="#9a32cd" stroke-dasharray="5,2" d="M127.97,-137.55C133.49,-130.17 140.62,-121.92 148.5,-116 159.06,-108.07 172.31,-101.94 183.93,-97.54"/>
<polygon fill="#9a32cd" stroke="#9a32cd" points="124.77,-136.01 121.9,-146.21 130.5,-140.03 124.77,-136.01"/>
<text text-anchor="middle" x="161" y="-119" font-family="Helvetica,sans-Serif" font-size="10.00"> data</text>
</g>
<!-- Node4&#45;&gt;Node1 -->
<g id="edge3" class="edge">
<title>Node4&#45;&gt;Node1</title>
<path fill="none" stroke="#9a32cd" stroke-dasharray="5,2" d="M192.48,-71.94C172.7,-56.28 142.44,-32.33 126.38,-19.62"/>
<polygon fill="#9a32cd" stroke="#9a32cd" points="190.47,-74.82 200.49,-78.28 194.82,-69.33 190.47,-74.82"/>
<text text-anchor="middle" x="187" y="-46.5" font-family="Helvetica,sans-Serif" font-size="10.00"> data</text>
</g>
<!-- Node5 -->
<g id="node5" class="node">
<title>Node5</title>
<g id="a_node5"><a xlink:title=" ">
<polygon fill="white" stroke="#bfbfbf" points="190,-225.5 190,-244.5 219,-244.5 219,-225.5 190,-225.5"/>
<text text-anchor="middle" x="204.5" y="-232.5" font-family="Helvetica,sans-Serif" font-size="10.00">int</text>
</a>
</g>
</g>
<!-- Node5&#45;&gt;Node4 -->
<g id="edge5" class="edge">
<title>Node5&#45;&gt;Node4</title>
<path fill="none" stroke="#9a32cd" stroke-dasharray="5,2" d="M200.44,-215.35C197.07,-197.3 193.31,-169.21 196.5,-145 198.76,-127.84 204.75,-108.46 208.44,-97.59"/>
<polygon fill="#9a32cd" stroke="#9a32cd" points="197.05,-216.27 202.47,-225.38 203.92,-214.89 197.05,-216.27"/>
<text text-anchor="middle" x="217" y="-159" font-family="Helvetica,sans-Serif" font-size="10.00"> m_size</text>
<text text-anchor="middle" x="217" y="-148" font-family="Helvetica,sans-Serif" font-size="10.00">refcount</text>
</g>
<!-- Node6 -->
<g id="node6" class="node">
<title>Node6</title>
<g id="a_node6"><a xlink:href="classSharedBuffer.html" target="_top" xlink:title=" ">
<polygon fill="white" stroke="black" points="246.5,-146.5 246.5,-165.5 354.5,-165.5 354.5,-146.5 246.5,-146.5"/>
<text text-anchor="middle" x="300.5" y="-153.5" font-family="Helvetica,sans-Serif" font-size="10.00">SharedBuffer&lt; T &gt;</text>
</a>
</g>
</g>
<!-- Node5&#45;&gt;Node6 -->
<g id="edge7" class="edge">
<title>Node5&#45;&gt;Node6</title>
<path fill="none" stroke="#9a32cd" stroke-dasharray="5,2" d="M219.33,-218.14C229.12,-208.08 242.5,-195.11 255.5,-185 264.8,-177.77 276.05,-170.77 284.97,-165.58"/>
<polygon fill="#9a32cd" stroke="#9a32cd" points="216.7,-215.82 212.32,-225.46 221.76,-220.65 216.7,-215.82"/>
<text text-anchor="middle" x="276" y="-199" font-family="Helvetica,sans-Serif" font-size="10.00"> m_size</text>
<text text-anchor="middle" x="276" y="-188" font-family="Helvetica,sans-Serif" font-size="10.00">refcount</text>
</g>
<!-- Node6&#45;&gt;Node4 -->
<g id="edge6" class="edge">
<title>Node6&#45;&gt;Node4</title>
<path fill="none" stroke="orange" stroke-dasharray="5,2" d="M280.4,-140.1C262.74,-127 237.66,-108.4 223.14,-97.63"/>
<polygon fill="orange" stroke="orange" points="278.75,-143.23 288.86,-146.37 282.92,-137.6 278.75,-143.23"/>
<text text-anchor="middle" x="279.5" y="-119" font-family="Helvetica,sans-Serif" font-size="10.00"> &lt; u8 &gt;</text>
</g>
<!-- Node7 -->
<g id="node7" class="node">
<title>Node7</title>
<g id="a_node7"><a xlink:title=" ">
<polygon fill="white" stroke="#bfbfbf" points="286,-225.5 286,-244.5 315,-244.5 315,-225.5 286,-225.5"/>
<text text-anchor="middle" x="300.5" y="-232.5" font-family="Helvetica,sans-Serif" font-size="10.00">T</text>
</a>
</g>
</g>
<!-- Node7&#45;&gt;Node6 -->
<g id="edge8" class="edge">
<title>Node7&#45;&gt;Node6</title>
<path fill="none" stroke="#9a32cd" stroke-dasharray="5,2" d="M300.5,-215.31C300.5,-199.59 300.5,-177.81 300.5,-165.81"/>
<polygon fill="#9a32cd" stroke="#9a32cd" points="297,-215.47 300.5,-225.47 304,-215.47 297,-215.47"/>
<text text-anchor="middle" x="313" y="-193.5" font-family="Helvetica,sans-Serif" font-size="10.00"> data</text>
</g>
<!-- Node8 -->
<g id="node8" class="node">
<title>Node8</title>
<g id="a_node8"><a xlink:href="classbool.html" target="_top" xlink:title=" ">
<polygon fill="white" stroke="black" points="286.5,-78.5 286.5,-97.5 324.5,-97.5 324.5,-78.5 286.5,-78.5"/>
<text text-anchor="middle" x="305.5" y="-85.5" font-family="Helvetica,sans-Serif" font-size="10.00">bool</text>
</a>
</g>
</g>
<!-- Node8&#45;&gt;Node1 -->
<g id="edge9" class="edge">
<title>Node8&#45;&gt;Node1</title>
<path fill="none" stroke="#9a32cd" stroke-dasharray="5,2" d="M280.66,-73.77C260.29,-63.24 230.51,-48.56 203.5,-38 185.34,-30.9 164.51,-24.43 147.67,-19.61"/>
<polygon fill="#9a32cd" stroke="#9a32cd" points="279.1,-76.9 289.58,-78.43 282.34,-70.7 279.1,-76.9"/>
<text text-anchor="middle" x="270" y="-52" font-family="Helvetica,sans-Serif" font-size="10.00"> ack</text>
<text text-anchor="middle" x="270" y="-41" font-family="Helvetica,sans-Serif" font-size="10.00">reliable</text>
</g>
</g>
</svg>
