<?xml version="1.0" encoding="UTF-8" standalone="no"?>
<!DOCTYPE svg PUBLIC "-//W3C//DTD SVG 1.1//EN"
 "http://www.w3.org/Graphics/SVG/1.1/DTD/svg11.dtd">
<!-- Generated by graphviz version 2.43.0 (0)
 -->
<!-- Title: IMoveAction Pages: 1 -->
<svg width="536pt" height="453pt"
 viewBox="0.00 0.00 536.00 453.00" xmlns="http://www.w3.org/2000/svg" xmlns:xlink="http://www.w3.org/1999/xlink">
<g id="graph0" class="graph" transform="scale(1 1) rotate(0) translate(4 449)">
<title>IMoveAction</title>
<polygon fill="white" stroke="transparent" points="-4,4 -4,-449 532,-449 532,4 -4,4"/>
<!-- Node1 -->
<g id="node1" class="node">
<title>Node1</title>
<g id="a_node1"><a xlink:title=" ">
<polygon fill="#bfbfbf" stroke="black" points="211.5,-0.5 211.5,-19.5 288.5,-19.5 288.5,-0.5 211.5,-0.5"/>
<text text-anchor="middle" x="250" y="-7.5" font-family="Helvetica,sans-Serif" font-size="10.00">IMoveAction</text>
</a>
</g>
</g>
<!-- Node2 -->
<g id="node2" class="node">
<title>Node2</title>
<g id="a_node2"><a xlink:href="structInventoryAction.html" target="_top" xlink:title=" ">
<polygon fill="white" stroke="black" points="28,-78.5 28,-97.5 122,-97.5 122,-78.5 28,-78.5"/>
<text text-anchor="middle" x="75" y="-85.5" font-family="Helvetica,sans-Serif" font-size="10.00">InventoryAction</text>
</a>
</g>
</g>
<!-- Node2&#45;&gt;Node1 -->
<g id="edge1" class="edge">
<title>Node2&#45;&gt;Node1</title>
<path fill="none" stroke="midnightblue" d="M104.14,-74.34C139.91,-58.81 199.58,-32.9 230.34,-19.54"/>
<polygon fill="midnightblue" stroke="midnightblue" points="102.51,-71.24 94.73,-78.43 105.3,-77.66 102.51,-71.24"/>
</g>
<!-- Node3 -->
<g id="node3" class="node">
<title>Node3</title>
<g id="a_node3"><a xlink:href="structMoveAction.html" target="_top" xlink:title=" ">
<polygon fill="white" stroke="black" points="140,-78.5 140,-97.5 214,-97.5 214,-78.5 140,-78.5"/>
<text text-anchor="middle" x="177" y="-85.5" font-family="Helvetica,sans-Serif" font-size="10.00">MoveAction</text>
</a>
</g>
</g>
<!-- Node3&#45;&gt;Node1 -->
<g id="edge2" class="edge">
<title>Node3&#45;&gt;Node1</title>
<path fill="none" stroke="midnightblue" d="M192.49,-70.88C207.53,-55.22 229.79,-32.04 241.72,-19.62"/>
<polygon fill="midnightblue" stroke="midnightblue" points="189.78,-68.65 185.37,-78.28 194.83,-73.49 189.78,-68.65"/>
</g>
<!-- Node4 -->
<g id="node4" class="node">
<title>Node4</title>
<g id="a_node4"><a xlink:title=" ">
<polygon fill="white" stroke="#bfbfbf" points="0,-336.5 0,-355.5 34,-355.5 34,-336.5 0,-336.5"/>
<text text-anchor="middle" x="17" y="-343.5" font-family="Helvetica,sans-Serif" font-size="10.00">s16</text>
</a>
</g>
</g>
<!-- Node4&#45;&gt;Node3 -->
<g id="edge3" class="edge">
<title>Node4&#45;&gt;Node3</title>
<path fill="none" stroke="#9a32cd" stroke-dasharray="5,2" d="M17.01,-326.01C17.74,-303.4 21.3,-265.04 36,-236 68.1,-172.58 136.72,-118.13 164.72,-97.66"/>
<polygon fill="#9a32cd" stroke="#9a32cd" points="13.5,-326.21 16.84,-336.27 20.5,-326.33 13.5,-326.21"/>
<text text-anchor="middle" x="79.5" y="-210" font-family="Helvetica,sans-Serif" font-size="10.00"> from_i</text>
<text text-anchor="middle" x="79.5" y="-199" font-family="Helvetica,sans-Serif" font-size="10.00">to_i</text>
</g>
<!-- Node8 -->
<g id="node8" class="node">
<title>Node8</title>
<g id="a_node8"><a xlink:href="classirr_1_1core_1_1vector3d.html" target="_top" xlink:title=" ">
<polygon fill="white" stroke="black" points="45.5,-236.5 45.5,-266.5 148.5,-266.5 148.5,-236.5 45.5,-236.5"/>
<text text-anchor="start" x="53.5" y="-254.5" font-family="Helvetica,sans-Serif" font-size="10.00">irr::core::vector3d</text>
<text text-anchor="middle" x="97" y="-243.5" font-family="Helvetica,sans-Serif" font-size="10.00">&lt; s16 &gt;</text>
</a>
</g>
</g>
<!-- Node4&#45;&gt;Node8 -->
<g id="edge8" class="edge">
<title>Node4&#45;&gt;Node8</title>
<path fill="none" stroke="#9a32cd" stroke-dasharray="5,2" d="M31.06,-328.74C46.26,-311.17 70.25,-283.43 84.72,-266.7"/>
<polygon fill="#9a32cd" stroke="#9a32cd" points="28.28,-326.61 24.38,-336.46 33.57,-331.19 28.28,-326.61"/>
<text text-anchor="middle" x="74" y="-310" font-family="Helvetica,sans-Serif" font-size="10.00"> X</text>
<text text-anchor="middle" x="74" y="-299" font-family="Helvetica,sans-Serif" font-size="10.00">Y</text>
<text text-anchor="middle" x="74" y="-288" font-family="Helvetica,sans-Serif" font-size="10.00">Z</text>
</g>
<!-- Node5 -->
<g id="node5" class="node">
<title>Node5</title>
<g id="a_node5"><a xlink:href="structInventoryLocation.html" target="_top" xlink:title=" ">
<polygon fill="white" stroke="black" points="125,-157.5 125,-176.5 229,-176.5 229,-157.5 125,-157.5"/>
<text text-anchor="middle" x="177" y="-164.5" font-family="Helvetica,sans-Serif" font-size="10.00">InventoryLocation</text>
</a>
</g>
</g>
<!-- Node5&#45;&gt;Node3 -->
<g id="edge4" class="edge">
<title>Node5&#45;&gt;Node3</title>
<path fill="none" stroke="#9a32cd" stroke-dasharray="5,2" d="M177,-147.31C177,-131.59 177,-109.81 177,-97.81"/>
<polygon fill="#9a32cd" stroke="#9a32cd" points="173.5,-147.47 177,-157.47 180.5,-147.47 173.5,-147.47"/>
<text text-anchor="middle" x="200.5" y="-130" font-family="Helvetica,sans-Serif" font-size="10.00"> from_inv</text>
<text text-anchor="middle" x="200.5" y="-119" font-family="Helvetica,sans-Serif" font-size="10.00">to_inv</text>
</g>
<!-- Node6 -->
<g id="node6" class="node">
<title>Node6</title>
<g id="a_node6"><a xlink:title=" ">
<polygon fill="white" stroke="#bfbfbf" points="166.5,-242 166.5,-261 205.5,-261 205.5,-242 166.5,-242"/>
<text text-anchor="middle" x="186" y="-249" font-family="Helvetica,sans-Serif" font-size="10.00">Type</text>
</a>
</g>
</g>
<!-- Node6&#45;&gt;Node5 -->
<g id="edge5" class="edge">
<title>Node6&#45;&gt;Node5</title>
<path fill="none" stroke="#9a32cd" stroke-dasharray="5,2" d="M180.71,-232.05C179.61,-227.5 178.6,-222.6 178,-218 176.1,-203.54 176.26,-186.52 176.6,-176.54"/>
<polygon fill="#9a32cd" stroke="#9a32cd" points="177.34,-233.01 183.29,-241.77 184.11,-231.21 177.34,-233.01"/>
<text text-anchor="middle" x="190.5" y="-204.5" font-family="Helvetica,sans-Serif" font-size="10.00"> type</text>
</g>
<!-- Node7 -->
<g id="node7" class="node">
<title>Node7</title>
<g id="a_node7"><a xlink:title=" ">
<polygon fill="white" stroke="#bfbfbf" points="241,-242 241,-261 285,-261 285,-242 241,-242"/>
<text text-anchor="middle" x="263" y="-249" font-family="Helvetica,sans-Serif" font-size="10.00">string</text>
</a>
</g>
</g>
<!-- Node7&#45;&gt;Node3 -->
<g id="edge11" class="edge">
<title>Node7&#45;&gt;Node3</title>
<path fill="none" stroke="#9a32cd" stroke-dasharray="5,2" d="M263.14,-231.56C262.35,-203.1 256.81,-149.12 228,-116 220.97,-107.91 210.9,-101.87 201.57,-97.57"/>
<polygon fill="#9a32cd" stroke="#9a32cd" points="259.64,-231.78 263.25,-241.75 266.64,-231.71 259.64,-231.78"/>
<text text-anchor="middle" x="278" y="-170" font-family="Helvetica,sans-Serif" font-size="10.00"> to_list</text>
<text text-anchor="middle" x="278" y="-159" font-family="Helvetica,sans-Serif" font-size="10.00">from_list</text>
</g>
<!-- Node7&#45;&gt;Node5 -->
<g id="edge6" class="edge">
<title>Node7&#45;&gt;Node5</title>
<path fill="none" stroke="#9a32cd" stroke-dasharray="5,2" d="M245,-235.16C238.88,-229.83 232.06,-223.74 226,-218 211.17,-203.96 194.7,-186.81 185.13,-176.69"/>
<polygon fill="#9a32cd" stroke="#9a32cd" points="242.91,-237.99 252.77,-241.87 247.49,-232.69 242.91,-237.99"/>
<text text-anchor="middle" x="241.5" y="-204.5" font-family="Helvetica,sans-Serif" font-size="10.00"> name</text>
</g>
<!-- Node8&#45;&gt;Node5 -->
<g id="edge7" class="edge">
<title>Node8&#45;&gt;Node5</title>
<path fill="none" stroke="#9a32cd" stroke-dasharray="5,2" d="M118.08,-228.76C134.61,-211.72 156.74,-188.9 168.62,-176.64"/>
<polygon fill="#9a32cd" stroke="#9a32cd" points="115.38,-226.51 110.93,-236.13 120.41,-231.39 115.38,-226.51"/>
<text text-anchor="middle" x="154" y="-204.5" font-family="Helvetica,sans-Serif" font-size="10.00"> p</text>
</g>
<!-- Node9 -->
<g id="node9" class="node">
<title>Node9</title>
<g id="a_node9"><a xlink:href="classirr_1_1core_1_1vector3d.html" target="_top" xlink:title="3d vector template class with lots of operators and methods.">
<polygon fill="white" stroke="black" points="52.5,-336.5 52.5,-355.5 183.5,-355.5 183.5,-336.5 52.5,-336.5"/>
<text text-anchor="middle" x="118" y="-343.5" font-family="Helvetica,sans-Serif" font-size="10.00">irr::core::vector3d&lt; T &gt;</text>
</a>
</g>
</g>
<!-- Node9&#45;&gt;Node8 -->
<g id="edge9" class="edge">
<title>Node9&#45;&gt;Node8</title>
<path fill="none" stroke="orange" stroke-dasharray="5,2" d="M113.81,-326.54C109.81,-308.92 103.87,-282.75 100.22,-266.7"/>
<polygon fill="orange" stroke="orange" points="110.43,-327.49 116.06,-336.46 117.26,-325.94 110.43,-327.49"/>
<text text-anchor="middle" x="133.5" y="-299" font-family="Helvetica,sans-Serif" font-size="10.00"> &lt; s16 &gt;</text>
</g>
<!-- Node10 -->
<g id="node10" class="node">
<title>Node10</title>
<g id="a_node10"><a xlink:title=" ">
<polygon fill="white" stroke="#bfbfbf" points="103.5,-425.5 103.5,-444.5 132.5,-444.5 132.5,-425.5 103.5,-425.5"/>
<text text-anchor="middle" x="118" y="-432.5" font-family="Helvetica,sans-Serif" font-size="10.00">T</text>
</a>
</g>
</g>
<!-- Node10&#45;&gt;Node9 -->
<g id="edge10" class="edge">
<title>Node10&#45;&gt;Node9</title>
<path fill="none" stroke="#9a32cd" stroke-dasharray="5,2" d="M118,-415.19C118,-396.74 118,-369.41 118,-355.62"/>
<polygon fill="#9a32cd" stroke="#9a32cd" points="114.5,-415.34 118,-425.34 121.5,-415.34 114.5,-415.34"/>
<text text-anchor="middle" x="123" y="-399" font-family="Helvetica,sans-Serif" font-size="10.00"> X</text>
<text text-anchor="middle" x="123" y="-388" font-family="Helvetica,sans-Serif" font-size="10.00">Y</text>
<text text-anchor="middle" x="123" y="-377" font-family="Helvetica,sans-Serif" font-size="10.00">Z</text>
</g>
<!-- Node11 -->
<g id="node11" class="node">
<title>Node11</title>
<g id="a_node11"><a xlink:title=" ">
<polygon fill="white" stroke="#bfbfbf" points="232.5,-78.5 232.5,-97.5 267.5,-97.5 267.5,-78.5 232.5,-78.5"/>
<text text-anchor="middle" x="250" y="-85.5" font-family="Helvetica,sans-Serif" font-size="10.00">u16</text>
</a>
</g>
</g>
<!-- Node11&#45;&gt;Node1 -->
<g id="edge12" class="edge">
<title>Node11&#45;&gt;Node1</title>
<path fill="none" stroke="#9a32cd" stroke-dasharray="5,2" d="M250,-68.22C250,-52.7 250,-31.36 250,-19.62"/>
<polygon fill="#9a32cd" stroke="#9a32cd" points="246.5,-68.28 250,-78.28 253.5,-68.28 246.5,-68.28"/>
<text text-anchor="middle" x="265.5" y="-46.5" font-family="Helvetica,sans-Serif" font-size="10.00"> count</text>
</g>
<!-- Node12 -->
<g id="node12" class="node">
<title>Node12</title>
<g id="a_node12"><a xlink:href="classbool.html" target="_top" xlink:title=" ">
<polygon fill="white" stroke="black" points="286,-78.5 286,-97.5 324,-97.5 324,-78.5 286,-78.5"/>
<text text-anchor="middle" x="305" y="-85.5" font-family="Helvetica,sans-Serif" font-size="10.00">bool</text>
</a>
</g>
</g>
<!-- Node12&#45;&gt;Node1 -->
<g id="edge13" class="edge">
<title>Node12&#45;&gt;Node1</title>
<path fill="none" stroke="#9a32cd" stroke-dasharray="5,2" d="M298.7,-68.92C294.79,-59.19 289.14,-47.31 282,-38 276.6,-30.96 269.08,-24.5 262.69,-19.67"/>
<polygon fill="#9a32cd" stroke="#9a32cd" points="295.47,-70.28 302.25,-78.42 302.02,-67.82 295.47,-70.28"/>
<text text-anchor="middle" x="368" y="-52" font-family="Helvetica,sans-Serif" font-size="10.00"> move_somewhere</text>
<text text-anchor="middle" x="368" y="-41" font-family="Helvetica,sans-Serif" font-size="10.00">caused_by_move_somewhere</text>
</g>
<!-- Node13 -->
<g id="node13" class="node">
<title>Node13</title>
<g id="a_node13"><a xlink:title=" ">
<polygon fill="white" stroke="#bfbfbf" points="457.5,-78.5 457.5,-97.5 492.5,-97.5 492.5,-78.5 457.5,-78.5"/>
<text text-anchor="middle" x="475" y="-85.5" font-family="Helvetica,sans-Serif" font-size="10.00">u32</text>
</a>
</g>
</g>
<!-- Node13&#45;&gt;Node1 -->
<g id="edge14" class="edge">
<title>Node13&#45;&gt;Node1</title>
<path fill="none" stroke="#9a32cd" stroke-dasharray="5,2" d="M468.97,-69.07C464.39,-58.29 456.98,-45.3 446,-38 420.9,-21.31 338.1,-14.82 288.51,-12.38"/>
<polygon fill="#9a32cd" stroke="#9a32cd" points="465.71,-70.34 472.52,-78.46 472.26,-67.87 465.71,-70.34"/>
<text text-anchor="middle" x="496" y="-46.5" font-family="Helvetica,sans-Serif" font-size="10.00"> move_count</text>
</g>
</g>
</svg>
