<?xml version="1.0" encoding="UTF-8" standalone="no"?>
<!DOCTYPE svg PUBLIC "-//W3C//DTD SVG 1.1//EN"
 "http://www.w3.org/Graphics/SVG/1.1/DTD/svg11.dtd">
<!-- Generated by graphviz version 2.43.0 (0)
 -->
<!-- Title: BlockCnt Pages: 1 -->
<svg width="151pt" height="117pt"
 viewBox="0.00 0.00 150.50 117.00" xmlns="http://www.w3.org/2000/svg" xmlns:xlink="http://www.w3.org/1999/xlink">
<g id="graph0" class="graph" transform="scale(1 1) rotate(0) translate(4 113)">
<title>BlockCnt</title>
<polygon fill="white" stroke="transparent" points="-4,4 -4,-113 146.5,-113 146.5,4 -4,4"/>
<!-- Node1 -->
<g id="node1" class="node">
<title>Node1</title>
<g id="a_node1"><a xlink:title=" ">
<polygon fill="#bfbfbf" stroke="black" points="18.5,-0.5 18.5,-19.5 78.5,-19.5 78.5,-0.5 18.5,-0.5"/>
<text text-anchor="middle" x="48.5" y="-7.5" font-family="Helvetica,sans-Serif" font-size="10.00">BlockCnt</text>
</a>
</g>
</g>
<!-- Node1&#45;&gt;Node1 -->
<g id="edge3" class="edge">
<title>Node1&#45;&gt;Node1</title>
<path fill="none" stroke="#9a32cd" stroke-dasharray="5,2" d="M89.16,-16.93C93.62,-15.61 96.5,-13.3 96.5,-10 96.5,-4.59 88.75,-1.84 78.97,-1.75"/>
<polygon fill="#9a32cd" stroke="#9a32cd" points="88.44,-13.49 78.97,-18.25 89.33,-20.44 88.44,-13.49"/>
<text text-anchor="middle" x="119.5" y="-7.5" font-family="Helvetica,sans-Serif" font-size="10.00"> previous</text>
</g>
<!-- Node2 -->
<g id="node2" class="node">
<title>Node2</title>
<g id="a_node2"><a xlink:title=" ">
<polygon fill="white" stroke="#bfbfbf" points="0,-89.5 0,-108.5 29,-108.5 29,-89.5 0,-89.5"/>
<text text-anchor="middle" x="14.5" y="-96.5" font-family="Helvetica,sans-Serif" font-size="10.00">int</text>
</a>
</g>
</g>
<!-- Node2&#45;&gt;Node1 -->
<g id="edge1" class="edge">
<title>Node2&#45;&gt;Node1</title>
<path fill="none" stroke="#9a32cd" stroke-dasharray="5,2" d="M10.89,-79.29C9.43,-66.96 9.31,-50.78 15.5,-38 19.18,-30.4 26.12,-24.22 32.7,-19.7"/>
<polygon fill="#9a32cd" stroke="#9a32cd" points="7.46,-80 12.47,-89.33 14.38,-78.91 7.46,-80"/>
<text text-anchor="middle" x="38.5" y="-52" font-family="Helvetica,sans-Serif" font-size="10.00"> breaklist</text>
</g>
<!-- Node3 -->
<g id="node3" class="node">
<title>Node3</title>
<g id="a_node3"><a xlink:title=" ">
<polygon fill="white" stroke="#bfbfbf" points="53,-89.5 53,-108.5 114,-108.5 114,-89.5 53,-89.5"/>
<text text-anchor="middle" x="83.5" y="-96.5" font-family="Helvetica,sans-Serif" font-size="10.00">unsigned</text>
</a>
</g>
</g>
<!-- Node3&#45;&gt;Node1 -->
<g id="edge2" class="edge">
<title>Node3&#45;&gt;Node1</title>
<path fill="none" stroke="#9a32cd" stroke-dasharray="5,2" d="M77.29,-79.64C73.11,-67.67 67.32,-51.77 61.5,-38 58.91,-31.87 55.66,-25.12 53.05,-19.9"/>
<polygon fill="#9a32cd" stroke="#9a32cd" points="74.07,-81.03 80.63,-89.35 80.69,-78.76 74.07,-81.03"/>
<text text-anchor="middle" x="103.5" y="-63" font-family="Helvetica,sans-Serif" font-size="10.00"> isbreakable</text>
<text text-anchor="middle" x="103.5" y="-52" font-family="Helvetica,sans-Serif" font-size="10.00">nactvar</text>
<text text-anchor="middle" x="103.5" y="-41" font-family="Helvetica,sans-Serif" font-size="10.00">upval</text>
</g>
</g>
</svg>
