<?xml version="1.0" encoding="UTF-8" standalone="no"?>
<!DOCTYPE svg PUBLIC "-//W3C//DTD SVG 1.1//EN"
 "http://www.w3.org/Graphics/SVG/1.1/DTD/svg11.dtd">
<!-- Generated by graphviz version 2.43.0 (0)
 -->
<!-- Title: CollisionInfo Pages: 1 -->
<svg width="548pt" height="250pt"
 viewBox="0.00 0.00 548.00 250.00" xmlns="http://www.w3.org/2000/svg" xmlns:xlink="http://www.w3.org/1999/xlink">
<g id="graph0" class="graph" transform="scale(1 1) rotate(0) translate(4 246)">
<title>CollisionInfo</title>
<polygon fill="white" stroke="transparent" points="-4,4 -4,-246 544,-246 544,4 -4,4"/>
<!-- Node1 -->
<g id="node1" class="node">
<title>Node1</title>
<g id="a_node1"><a xlink:title=" ">
<polygon fill="#bfbfbf" stroke="black" points="463,-99.5 463,-118.5 540,-118.5 540,-99.5 463,-99.5"/>
<text text-anchor="middle" x="501.5" y="-106.5" font-family="Helvetica,sans-Serif" font-size="10.00">CollisionInfo</text>
</a>
</g>
</g>
<!-- Node2 -->
<g id="node2" class="node">
<title>Node2</title>
<g id="a_node2"><a xlink:title=" ">
<polygon fill="white" stroke="#bfbfbf" points="296,-222.5 296,-241.5 377,-241.5 377,-222.5 296,-222.5"/>
<text text-anchor="middle" x="336.5" y="-229.5" font-family="Helvetica,sans-Serif" font-size="10.00">CollisionType</text>
</a>
</g>
</g>
<!-- Node2&#45;&gt;Node1 -->
<g id="edge1" class="edge">
<title>Node2&#45;&gt;Node1</title>
<path fill="none" stroke="#9a32cd" stroke-dasharray="5,2" d="M375.19,-218.73C379.56,-216.93 383.91,-215 388,-213 414.7,-199.93 422.69,-197.65 445,-178 465.77,-159.71 484.77,-133.03 494.22,-118.8"/>
<polygon fill="#9a32cd" stroke="#9a32cd" points="373.7,-215.56 365.69,-222.48 376.27,-222.07 373.7,-215.56"/>
<text text-anchor="middle" x="425.5" y="-206" font-family="Helvetica,sans-Serif" font-size="10.00"> type</text>
</g>
<!-- Node3 -->
<g id="node3" class="node">
<title>Node3</title>
<g id="a_node3"><a xlink:href="classirr_1_1core_1_1vector3d.html" target="_top" xlink:title="3d vector template class with lots of operators and methods.">
<polygon fill="white" stroke="black" points="75,-137.5 75,-156.5 206,-156.5 206,-137.5 75,-137.5"/>
<text text-anchor="middle" x="140.5" y="-144.5" font-family="Helvetica,sans-Serif" font-size="10.00">irr::core::vector3d&lt; T &gt;</text>
</a>
</g>
</g>
<!-- Node3&#45;&gt;Node1 -->
<g id="edge2" class="edge">
<title>Node3&#45;&gt;Node1</title>
<path fill="none" stroke="#9a32cd" stroke-dasharray="5,2" d="M216.03,-139.2C277.47,-132.75 366.9,-123.34 445,-115 450.78,-114.38 456.9,-113.73 462.89,-113.08"/>
<polygon fill="#9a32cd" stroke="#9a32cd" points="215.62,-135.72 206.04,-140.25 216.35,-142.68 215.62,-135.72"/>
<text text-anchor="middle" x="336.5" y="-145" font-family="Helvetica,sans-Serif" font-size="10.00"> old_speed</text>
<text text-anchor="middle" x="336.5" y="-134" font-family="Helvetica,sans-Serif" font-size="10.00">new_speed</text>
</g>
<!-- Node9 -->
<g id="node9" class="node">
<title>Node9</title>
<g id="a_node9"><a xlink:href="classirr_1_1core_1_1vector3d.html" target="_top" xlink:title=" ">
<polygon fill="white" stroke="black" points="285,-173 285,-203 388,-203 388,-173 285,-173"/>
<text text-anchor="start" x="293" y="-191" font-family="Helvetica,sans-Serif" font-size="10.00">irr::core::vector3d</text>
<text text-anchor="middle" x="336.5" y="-180" font-family="Helvetica,sans-Serif" font-size="10.00">&lt; s16 &gt;</text>
</a>
</g>
</g>
<!-- Node3&#45;&gt;Node9 -->
<g id="edge10" class="edge">
<title>Node3&#45;&gt;Node9</title>
<path fill="none" stroke="orange" stroke-dasharray="5,2" d="M196.46,-158.61C224.26,-164.49 257.78,-171.57 284.94,-177.31"/>
<polygon fill="orange" stroke="orange" points="197,-155.15 186.5,-156.51 195.56,-162 197,-155.15"/>
<text text-anchor="middle" x="245.5" y="-175" font-family="Helvetica,sans-Serif" font-size="10.00"> &lt; s16 &gt;</text>
</g>
<!-- Node4 -->
<g id="node4" class="node">
<title>Node4</title>
<g id="a_node4"><a xlink:title=" ">
<polygon fill="white" stroke="#bfbfbf" points="0,-137.5 0,-156.5 29,-156.5 29,-137.5 0,-137.5"/>
<text text-anchor="middle" x="14.5" y="-144.5" font-family="Helvetica,sans-Serif" font-size="10.00">T</text>
</a>
</g>
</g>
<!-- Node4&#45;&gt;Node3 -->
<g id="edge3" class="edge">
<title>Node4&#45;&gt;Node3</title>
<path fill="none" stroke="#9a32cd" stroke-dasharray="5,2" d="M39.38,-147C49.64,-147 62.18,-147 74.86,-147"/>
<polygon fill="#9a32cd" stroke="#9a32cd" points="39.24,-143.5 29.24,-147 39.24,-150.5 39.24,-143.5"/>
<text text-anchor="middle" x="52" y="-172" font-family="Helvetica,sans-Serif" font-size="10.00"> X</text>
<text text-anchor="middle" x="52" y="-161" font-family="Helvetica,sans-Serif" font-size="10.00">Y</text>
<text text-anchor="middle" x="52" y="-150" font-family="Helvetica,sans-Serif" font-size="10.00">Z</text>
</g>
<!-- Node5 -->
<g id="node5" class="node">
<title>Node5</title>
<g id="a_node5"><a xlink:title=" ">
<polygon fill="white" stroke="#bfbfbf" points="322,-76.5 322,-95.5 351,-95.5 351,-76.5 322,-76.5"/>
<text text-anchor="middle" x="336.5" y="-83.5" font-family="Helvetica,sans-Serif" font-size="10.00">int</text>
</a>
</g>
</g>
<!-- Node5&#45;&gt;Node1 -->
<g id="edge4" class="edge">
<title>Node5&#45;&gt;Node1</title>
<path fill="none" stroke="#9a32cd" stroke-dasharray="5,2" d="M361.08,-89.33C387.74,-93.09 431.51,-99.26 462.89,-103.69"/>
<polygon fill="#9a32cd" stroke="#9a32cd" points="361.51,-85.85 351.12,-87.92 360.53,-92.78 361.51,-85.85"/>
<text text-anchor="middle" x="425.5" y="-103" font-family="Helvetica,sans-Serif" font-size="10.00"> plane</text>
</g>
<!-- Node6 -->
<g id="node6" class="node">
<title>Node6</title>
<g id="a_node6"><a xlink:href="classActiveObject.html" target="_top" xlink:title=" ">
<polygon fill="white" stroke="black" points="297,-38.5 297,-57.5 376,-57.5 376,-38.5 297,-38.5"/>
<text text-anchor="middle" x="336.5" y="-45.5" font-family="Helvetica,sans-Serif" font-size="10.00">ActiveObject</text>
</a>
</g>
</g>
<!-- Node6&#45;&gt;Node1 -->
<g id="edge5" class="edge">
<title>Node6&#45;&gt;Node1</title>
<path fill="none" stroke="#9a32cd" stroke-dasharray="5,2" d="M383.6,-60.29C402.84,-65.89 425.26,-73.06 445,-81 458.22,-86.32 472.56,-93.6 483.35,-99.4"/>
<polygon fill="#9a32cd" stroke="#9a32cd" points="384.44,-56.89 373.86,-57.5 382.51,-63.62 384.44,-56.89"/>
<text text-anchor="middle" x="425.5" y="-84" font-family="Helvetica,sans-Serif" font-size="10.00"> object</text>
</g>
<!-- Node7 -->
<g id="node7" class="node">
<title>Node7</title>
<g id="a_node7"><a xlink:title=" ">
<polygon fill="white" stroke="#bfbfbf" points="123,-38.5 123,-57.5 158,-57.5 158,-38.5 123,-38.5"/>
<text text-anchor="middle" x="140.5" y="-45.5" font-family="Helvetica,sans-Serif" font-size="10.00">u16</text>
</a>
</g>
</g>
<!-- Node7&#45;&gt;Node6 -->
<g id="edge6" class="edge">
<title>Node7&#45;&gt;Node6</title>
<path fill="none" stroke="#9a32cd" stroke-dasharray="5,2" d="M168.37,-48C201.69,-48 258.74,-48 296.78,-48"/>
<polygon fill="#9a32cd" stroke="#9a32cd" points="168.04,-44.5 158.04,-48 168.04,-51.5 168.04,-44.5"/>
<text text-anchor="middle" x="245.5" y="-51" font-family="Helvetica,sans-Serif" font-size="10.00"> m_id</text>
</g>
<!-- Node8 -->
<g id="node8" class="node">
<title>Node8</title>
<g id="a_node8"><a xlink:title=" ">
<polygon fill="white" stroke="#bfbfbf" points="296.5,-0.5 296.5,-19.5 376.5,-19.5 376.5,-0.5 296.5,-0.5"/>
<text text-anchor="middle" x="336.5" y="-7.5" font-family="Helvetica,sans-Serif" font-size="10.00">CollisionAxis</text>
</a>
</g>
</g>
<!-- Node8&#45;&gt;Node1 -->
<g id="edge7" class="edge">
<title>Node8&#45;&gt;Node1</title>
<path fill="none" stroke="#9a32cd" stroke-dasharray="5,2" d="M382.82,-22.78C402.87,-29.64 426.13,-39.33 445,-52 464.95,-65.39 483.42,-86.91 493.21,-99.32"/>
<polygon fill="#9a32cd" stroke="#9a32cd" points="383.87,-19.44 373.27,-19.64 381.68,-26.09 383.87,-19.44"/>
<text text-anchor="middle" x="425.5" y="-55" font-family="Helvetica,sans-Serif" font-size="10.00"> axis</text>
</g>
<!-- Node9&#45;&gt;Node1 -->
<g id="edge8" class="edge">
<title>Node9&#45;&gt;Node1</title>
<path fill="none" stroke="#9a32cd" stroke-dasharray="5,2" d="M391.82,-169.39C409.16,-162.76 428.21,-154.75 445,-146 460.41,-137.98 476.81,-126.65 487.76,-118.65"/>
<polygon fill="#9a32cd" stroke="#9a32cd" points="390.52,-166.14 382.38,-172.92 392.98,-172.69 390.52,-166.14"/>
<text text-anchor="middle" x="425.5" y="-166" font-family="Helvetica,sans-Serif" font-size="10.00"> node_p</text>
</g>
<!-- Node10 -->
<g id="node10" class="node">
<title>Node10</title>
<g id="a_node10"><a xlink:title=" ">
<polygon fill="white" stroke="#bfbfbf" points="123.5,-189.5 123.5,-208.5 157.5,-208.5 157.5,-189.5 123.5,-189.5"/>
<text text-anchor="middle" x="140.5" y="-196.5" font-family="Helvetica,sans-Serif" font-size="10.00">s16</text>
</a>
</g>
</g>
<!-- Node10&#45;&gt;Node9 -->
<g id="edge9" class="edge">
<title>Node10&#45;&gt;Node9</title>
<path fill="none" stroke="#9a32cd" stroke-dasharray="5,2" d="M167.76,-197.51C197.63,-195.82 247.11,-193.01 284.6,-190.89"/>
<polygon fill="#9a32cd" stroke="#9a32cd" points="167.49,-194.02 157.71,-198.08 167.89,-201.01 167.49,-194.02"/>
<text text-anchor="middle" x="245.5" y="-219" font-family="Helvetica,sans-Serif" font-size="10.00"> X</text>
<text text-anchor="middle" x="245.5" y="-208" font-family="Helvetica,sans-Serif" font-size="10.00">Y</text>
<text text-anchor="middle" x="245.5" y="-197" font-family="Helvetica,sans-Serif" font-size="10.00">Z</text>
</g>
</g>
</svg>
