<?xml version="1.0" encoding="UTF-8" standalone="no"?>
<!DOCTYPE svg PUBLIC "-//W3C//DTD SVG 1.1//EN"
 "http://www.w3.org/Graphics/SVG/1.1/DTD/svg11.dtd">
<!-- Generated by graphviz version 2.43.0 (0)
 -->
<!-- Title: ABMWithState Pages: 1 -->
<svg width="178pt" height="95pt"
 viewBox="0.00 0.00 178.00 95.00" xmlns="http://www.w3.org/2000/svg" xmlns:xlink="http://www.w3.org/1999/xlink">
<g id="graph0" class="graph" transform="scale(1 1) rotate(0) translate(4 91)">
<title>ABMWithState</title>
<polygon fill="white" stroke="transparent" points="-4,4 -4,-91 174,-91 174,4 -4,4"/>
<!-- Node1 -->
<g id="node1" class="node">
<title>Node1</title>
<g id="a_node1"><a xlink:title=" ">
<polygon fill="#bfbfbf" stroke="black" points="22.5,-0.5 22.5,-19.5 109.5,-19.5 109.5,-0.5 22.5,-0.5"/>
<text text-anchor="middle" x="66" y="-7.5" font-family="Helvetica,sans-Serif" font-size="10.00">ABMWithState</text>
</a>
</g>
</g>
<!-- Node2 -->
<g id="node2" class="node">
<title>Node2</title>
<g id="a_node2"><a xlink:title=" ">
<polygon fill="white" stroke="#bfbfbf" points="0,-67.5 0,-86.5 38,-86.5 38,-67.5 0,-67.5"/>
<text text-anchor="middle" x="19" y="-74.5" font-family="Helvetica,sans-Serif" font-size="10.00">float</text>
</a>
</g>
</g>
<!-- Node2&#45;&gt;Node1 -->
<g id="edge1" class="edge">
<title>Node2&#45;&gt;Node1</title>
<path fill="none" stroke="#9a32cd" stroke-dasharray="5,2" d="M31.36,-58.9C40.49,-46.27 52.55,-29.6 59.76,-19.63"/>
<polygon fill="#9a32cd" stroke="#9a32cd" points="28.36,-57.08 25.34,-67.23 34.03,-61.18 28.36,-57.08"/>
<text text-anchor="middle" x="61" y="-41" font-family="Helvetica,sans-Serif" font-size="10.00"> timer</text>
</g>
<!-- Node3 -->
<g id="node3" class="node">
<title>Node3</title>
<g id="a_node3"><a xlink:href="classActiveBlockModifier.html" target="_top" xlink:title=" ">
<polygon fill="white" stroke="black" points="56,-67.5 56,-86.5 170,-86.5 170,-67.5 56,-67.5"/>
<text text-anchor="middle" x="113" y="-74.5" font-family="Helvetica,sans-Serif" font-size="10.00">ActiveBlockModifier</text>
</a>
</g>
</g>
<!-- Node3&#45;&gt;Node1 -->
<g id="edge2" class="edge">
<title>Node3&#45;&gt;Node1</title>
<path fill="none" stroke="#9a32cd" stroke-dasharray="5,2" d="M100.64,-58.9C91.51,-46.27 79.45,-29.6 72.24,-19.63"/>
<polygon fill="#9a32cd" stroke="#9a32cd" points="97.97,-61.18 106.66,-67.23 103.64,-57.08 97.97,-61.18"/>
<text text-anchor="middle" x="104.5" y="-41" font-family="Helvetica,sans-Serif" font-size="10.00"> abm</text>
</g>
</g>
</svg>
