<?xml version="1.0" encoding="UTF-8" standalone="no"?>
<!DOCTYPE svg PUBLIC "-//W3C//DTD SVG 1.1//EN"
 "http://www.w3.org/Graphics/SVG/1.1/DTD/svg11.dtd">
<!-- Generated by graphviz version 2.43.0 (0)
 -->
<!-- Title: Catch::Generators::IGenerator&lt; T &gt; Pages: 1 -->
<svg width="763pt" height="596pt"
 viewBox="0.00 0.00 763.00 595.50" xmlns="http://www.w3.org/2000/svg" xmlns:xlink="http://www.w3.org/1999/xlink">
<g id="graph0" class="graph" transform="scale(1 1) rotate(0) translate(4 591.5)">
<title>Catch::Generators::IGenerator&lt; T &gt;</title>
<polygon fill="white" stroke="transparent" points="-4,4 -4,-591.5 759,-591.5 759,4 -4,4"/>
<!-- Node1 -->
<g id="node1" class="node">
<title>Node1</title>
<g id="a_node1"><a xlink:title=" ">
<polygon fill="#bfbfbf" stroke="black" points="168,-287 168,-317 278,-317 278,-287 168,-287"/>
<text text-anchor="start" x="176" y="-305" font-family="Helvetica,sans-Serif" font-size="10.00">Catch::Generators::</text>
<text text-anchor="middle" x="223" y="-294" font-family="Helvetica,sans-Serif" font-size="10.00">IGenerator&lt; T &gt;</text>
</a>
</g>
</g>
<!-- Node3 -->
<g id="node3" class="node">
<title>Node3</title>
<g id="a_node3"><a xlink:href="classCatch_1_1Generators_1_1FilterGenerator.html" target="_top" xlink:title=" ">
<polygon fill="white" stroke="black" points="436.5,-557 436.5,-587 555.5,-587 555.5,-557 436.5,-557"/>
<text text-anchor="start" x="444.5" y="-575" font-family="Helvetica,sans-Serif" font-size="10.00">Catch::Generators::</text>
<text text-anchor="middle" x="496" y="-564" font-family="Helvetica,sans-Serif" font-size="10.00">FilterGenerator&lt; T &gt;</text>
</a>
</g>
</g>
<!-- Node1&#45;&gt;Node3 -->
<g id="edge2" class="edge">
<title>Node1&#45;&gt;Node3</title>
<path fill="none" stroke="midnightblue" d="M228.92,-327.23C237.19,-363.94 256.94,-432.51 296,-477 332.75,-518.86 392.01,-543.82 436.32,-557.58"/>
<polygon fill="midnightblue" stroke="midnightblue" points="232.32,-326.39 226.8,-317.35 225.48,-327.86 232.32,-326.39"/>
</g>
<!-- Node4 -->
<g id="node4" class="node">
<title>Node4</title>
<g id="a_node4"><a xlink:href="classCatch_1_1Generators_1_1FixedValuesGenerator.html" target="_top" xlink:title=" ">
<polygon fill="white" stroke="black" points="420,-508 420,-538 572,-538 572,-508 420,-508"/>
<text text-anchor="start" x="428" y="-526" font-family="Helvetica,sans-Serif" font-size="10.00">Catch::Generators::</text>
<text text-anchor="middle" x="496" y="-515" font-family="Helvetica,sans-Serif" font-size="10.00">FixedValuesGenerator&lt; T &gt;</text>
</a>
</g>
</g>
<!-- Node1&#45;&gt;Node4 -->
<g id="edge3" class="edge">
<title>Node1&#45;&gt;Node4</title>
<path fill="none" stroke="midnightblue" d="M232.95,-326.77C244.11,-354.88 265.52,-400.75 296,-431 335.04,-469.75 393.41,-494.06 436.85,-507.9"/>
<polygon fill="midnightblue" stroke="midnightblue" points="236.15,-325.36 229.3,-317.28 229.62,-327.87 236.15,-325.36"/>
</g>
<!-- Node5 -->
<g id="node5" class="node">
<title>Node5</title>
<g id="a_node5"><a xlink:href="classCatch_1_1Generators_1_1Generators.html" target="_top" xlink:title=" ">
<polygon fill="white" stroke="black" points="441,-459 441,-489 551,-489 551,-459 441,-459"/>
<text text-anchor="start" x="449" y="-477" font-family="Helvetica,sans-Serif" font-size="10.00">Catch::Generators::</text>
<text text-anchor="middle" x="496" y="-466" font-family="Helvetica,sans-Serif" font-size="10.00">Generators&lt; T &gt;</text>
</a>
</g>
</g>
<!-- Node1&#45;&gt;Node5 -->
<g id="edge4" class="edge">
<title>Node1&#45;&gt;Node5</title>
<path fill="none" stroke="midnightblue" d="M239.03,-325.59C252.21,-344.84 272.85,-371.74 296,-390 339.13,-424.02 398.07,-446.62 440.6,-459.72"/>
<polygon fill="midnightblue" stroke="midnightblue" points="241.81,-323.45 233.34,-317.08 235.99,-327.34 241.81,-323.45"/>
</g>
<!-- Node6 -->
<g id="node6" class="node">
<title>Node6</title>
<g id="a_node6"><a xlink:href="classCatch_1_1Generators_1_1IteratorGenerator.html" target="_top" xlink:title=" ">
<polygon fill="white" stroke="black" points="431,-410 431,-440 561,-440 561,-410 431,-410"/>
<text text-anchor="start" x="439" y="-428" font-family="Helvetica,sans-Serif" font-size="10.00">Catch::Generators::</text>
<text text-anchor="middle" x="496" y="-417" font-family="Helvetica,sans-Serif" font-size="10.00">IteratorGenerator&lt; T &gt;</text>
</a>
</g>
</g>
<!-- Node1&#45;&gt;Node6 -->
<g id="edge5" class="edge">
<title>Node1&#45;&gt;Node6</title>
<path fill="none" stroke="midnightblue" d="M249.84,-323.77C263.06,-334.17 279.75,-346.23 296,-355 341.12,-379.35 396.41,-398 437.24,-409.91"/>
<polygon fill="midnightblue" stroke="midnightblue" points="251.69,-320.76 241.7,-317.22 247.3,-326.22 251.69,-320.76"/>
</g>
<!-- Node7 -->
<g id="node7" class="node">
<title>Node7</title>
<g id="a_node7"><a xlink:href="classCatch_1_1Generators_1_1MapGenerator.html" target="_top" xlink:title=" ">
<polygon fill="white" stroke="black" points="438.5,-361 438.5,-391 553.5,-391 553.5,-361 438.5,-361"/>
<text text-anchor="start" x="446.5" y="-379" font-family="Helvetica,sans-Serif" font-size="10.00">Catch::Generators::</text>
<text text-anchor="middle" x="496" y="-368" font-family="Helvetica,sans-Serif" font-size="10.00">MapGenerator&lt; T &gt;</text>
</a>
</g>
</g>
<!-- Node1&#45;&gt;Node7 -->
<g id="edge6" class="edge">
<title>Node1&#45;&gt;Node7</title>
<path fill="none" stroke="midnightblue" d="M272.92,-320.48C280.6,-323.14 288.48,-325.74 296,-328 343.48,-342.25 398.31,-355.23 438.37,-364.08"/>
<polygon fill="midnightblue" stroke="midnightblue" points="273.95,-317.13 263.35,-317.09 271.61,-323.73 273.95,-317.13"/>
</g>
<!-- Node8 -->
<g id="node8" class="node">
<title>Node8</title>
<g id="a_node8"><a xlink:href="classCatch_1_1Generators_1_1RangeGenerator.html" target="_top" xlink:title=" ">
<polygon fill="white" stroke="black" points="433.5,-312 433.5,-342 558.5,-342 558.5,-312 433.5,-312"/>
<text text-anchor="start" x="441.5" y="-330" font-family="Helvetica,sans-Serif" font-size="10.00">Catch::Generators::</text>
<text text-anchor="middle" x="496" y="-319" font-family="Helvetica,sans-Serif" font-size="10.00">RangeGenerator&lt; T &gt;</text>
</a>
</g>
</g>
<!-- Node1&#45;&gt;Node8 -->
<g id="edge7" class="edge">
<title>Node1&#45;&gt;Node8</title>
<path fill="none" stroke="midnightblue" d="M288.18,-307.92C332.09,-311.97 389.97,-317.31 433.33,-321.31"/>
<polygon fill="midnightblue" stroke="midnightblue" points="288.47,-304.43 278.19,-307 287.83,-311.4 288.47,-304.43"/>
</g>
<!-- Node9 -->
<g id="node9" class="node">
<title>Node9</title>
<g id="a_node9"><a xlink:href="classCatch_1_1Generators_1_1RepeatGenerator.html" target="_top" xlink:title=" ">
<polygon fill="white" stroke="black" points="432,-263 432,-293 560,-293 560,-263 432,-263"/>
<text text-anchor="start" x="440" y="-281" font-family="Helvetica,sans-Serif" font-size="10.00">Catch::Generators::</text>
<text text-anchor="middle" x="496" y="-270" font-family="Helvetica,sans-Serif" font-size="10.00">RepeatGenerator&lt; T &gt;</text>
</a>
</g>
</g>
<!-- Node1&#45;&gt;Node9 -->
<g id="edge8" class="edge">
<title>Node1&#45;&gt;Node9</title>
<path fill="none" stroke="midnightblue" d="M288.35,-296.3C331.75,-292.46 388.73,-287.41 431.87,-283.59"/>
<polygon fill="midnightblue" stroke="midnightblue" points="287.84,-292.83 278.19,-297.2 288.46,-299.81 287.84,-292.83"/>
</g>
<!-- Node10 -->
<g id="node10" class="node">
<title>Node10</title>
<g id="a_node10"><a xlink:href="classCatch_1_1Generators_1_1SingleValueGenerator.html" target="_top" xlink:title=" ">
<polygon fill="white" stroke="black" points="420.5,-214 420.5,-244 571.5,-244 571.5,-214 420.5,-214"/>
<text text-anchor="start" x="428.5" y="-232" font-family="Helvetica,sans-Serif" font-size="10.00">Catch::Generators::</text>
<text text-anchor="middle" x="496" y="-221" font-family="Helvetica,sans-Serif" font-size="10.00">SingleValueGenerator&lt; T &gt;</text>
</a>
</g>
</g>
<!-- Node1&#45;&gt;Node10 -->
<g id="edge9" class="edge">
<title>Node1&#45;&gt;Node10</title>
<path fill="none" stroke="midnightblue" d="M288.03,-284.75C333.91,-272.39 395.11,-255.91 439.04,-244.07"/>
<polygon fill="midnightblue" stroke="midnightblue" points="286.94,-281.42 278.19,-287.4 288.76,-288.18 286.94,-281.42"/>
</g>
<!-- Node11 -->
<g id="node11" class="node">
<title>Node11</title>
<g id="a_node11"><a xlink:href="classCatch_1_1Generators_1_1TakeGenerator.html" target="_top" xlink:title=" ">
<polygon fill="white" stroke="black" points="438,-165 438,-195 554,-195 554,-165 438,-165"/>
<text text-anchor="start" x="446" y="-183" font-family="Helvetica,sans-Serif" font-size="10.00">Catch::Generators::</text>
<text text-anchor="middle" x="496" y="-172" font-family="Helvetica,sans-Serif" font-size="10.00">TakeGenerator&lt; T &gt;</text>
</a>
</g>
</g>
<!-- Node1&#45;&gt;Node11 -->
<g id="edge10" class="edge">
<title>Node1&#45;&gt;Node11</title>
<path fill="none" stroke="midnightblue" d="M250.54,-280.75C263.7,-270.86 280.14,-259.45 296,-251 342.14,-226.43 398.57,-207.22 439.54,-195.01"/>
<polygon fill="midnightblue" stroke="midnightblue" points="248.21,-278.12 242.4,-286.98 252.47,-283.68 248.21,-278.12"/>
</g>
<!-- Node12 -->
<g id="node12" class="node">
<title>Node12</title>
<g id="a_node12"><a xlink:href="structCatch_1_1Generators_1_1IGenerator.html" target="_top" xlink:title=" ">
<polygon fill="white" stroke="black" points="438,-116 438,-146 554,-146 554,-116 438,-116"/>
<text text-anchor="start" x="446" y="-134" font-family="Helvetica,sans-Serif" font-size="10.00">Catch::Generators::</text>
<text text-anchor="middle" x="496" y="-123" font-family="Helvetica,sans-Serif" font-size="10.00">IGenerator&lt; Float &gt;</text>
</a>
</g>
</g>
<!-- Node1&#45;&gt;Node12 -->
<g id="edge11" class="edge">
<title>Node1&#45;&gt;Node12</title>
<path fill="none" stroke="orange" stroke-dasharray="5,2" d="M233.94,-277.58C245.34,-252.57 266.36,-214.27 296,-192 337.6,-160.74 395.37,-145.35 437.95,-137.86"/>
<polygon fill="orange" stroke="orange" points="230.72,-276.21 229.91,-286.78 237.13,-279.02 230.72,-276.21"/>
<text text-anchor="middle" x="349" y="-195" font-family="Helvetica,sans-Serif" font-size="10.00"> &lt; Float &gt;</text>
</g>
<!-- Node14 -->
<g id="node14" class="node">
<title>Node14</title>
<g id="a_node14"><a xlink:href="structCatch_1_1Generators_1_1IGenerator.html" target="_top" xlink:title=" ">
<polygon fill="white" stroke="black" points="430.5,-55.5 430.5,-96.5 561.5,-96.5 561.5,-55.5 430.5,-55.5"/>
<text text-anchor="start" x="438.5" y="-84.5" font-family="Helvetica,sans-Serif" font-size="10.00">Catch::Generators::</text>
<text text-anchor="start" x="438.5" y="-73.5" font-family="Helvetica,sans-Serif" font-size="10.00">IGenerator&lt; std::vector</text>
<text text-anchor="middle" x="496" y="-62.5" font-family="Helvetica,sans-Serif" font-size="10.00">&lt; T &gt; &gt;</text>
</a>
</g>
</g>
<!-- Node1&#45;&gt;Node14 -->
<g id="edge13" class="edge">
<title>Node1&#45;&gt;Node14</title>
<path fill="none" stroke="orange" stroke-dasharray="5,2" d="M227.65,-277.01C234.39,-239.89 252.33,-170.47 296,-132 333.03,-99.38 387.69,-85.64 430.36,-79.92"/>
<polygon fill="orange" stroke="orange" points="224.17,-276.55 225.96,-286.99 231.08,-277.71 224.17,-276.55"/>
<text text-anchor="middle" x="349" y="-135" font-family="Helvetica,sans-Serif" font-size="10.00"> &lt; std::vector&lt; T &gt; &gt;</text>
</g>
<!-- Node16 -->
<g id="node16" class="node">
<title>Node16</title>
<g id="a_node16"><a xlink:href="structCatch_1_1Generators_1_1IGenerator.html" target="_top" xlink:title=" ">
<polygon fill="white" stroke="black" points="433.5,-6 433.5,-36 558.5,-36 558.5,-6 433.5,-6"/>
<text text-anchor="start" x="441.5" y="-24" font-family="Helvetica,sans-Serif" font-size="10.00">Catch::Generators::</text>
<text text-anchor="middle" x="496" y="-13" font-family="Helvetica,sans-Serif" font-size="10.00">IGenerator&lt; Integer &gt;</text>
</a>
</g>
</g>
<!-- Node1&#45;&gt;Node16 -->
<g id="edge15" class="edge">
<title>Node1&#45;&gt;Node16</title>
<path fill="none" stroke="orange" stroke-dasharray="5,2" d="M224.17,-276.88C225.92,-229.3 236.77,-125.81 296,-70 332.64,-35.47 389.58,-24.15 433.17,-20.92"/>
<polygon fill="orange" stroke="orange" points="220.67,-276.85 223.91,-286.93 227.67,-277.03 220.67,-276.85"/>
<text text-anchor="middle" x="349" y="-73" font-family="Helvetica,sans-Serif" font-size="10.00"> &lt; Integer &gt;</text>
</g>
<!-- Node2 -->
<g id="node2" class="node">
<title>Node2</title>
<g id="a_node2"><a xlink:href="classCatch_1_1Generators_1_1GeneratorUntypedBase.html" target="_top" xlink:title=" ">
<polygon fill="white" stroke="black" points="0,-287 0,-317 131,-317 131,-287 0,-287"/>
<text text-anchor="start" x="8" y="-305" font-family="Helvetica,sans-Serif" font-size="10.00">Catch::Generators::</text>
<text text-anchor="middle" x="65.5" y="-294" font-family="Helvetica,sans-Serif" font-size="10.00">GeneratorUntypedBase</text>
</a>
</g>
</g>
<!-- Node2&#45;&gt;Node1 -->
<g id="edge1" class="edge">
<title>Node2&#45;&gt;Node1</title>
<path fill="none" stroke="midnightblue" d="M141.16,-302C150.12,-302 159.14,-302 167.73,-302"/>
<polygon fill="midnightblue" stroke="midnightblue" points="141.1,-298.5 131.1,-302 141.1,-305.5 141.1,-298.5"/>
</g>
<!-- Node13 -->
<g id="node13" class="node">
<title>Node13</title>
<g id="a_node13"><a xlink:href="classCatch_1_1Generators_1_1RandomFloatingGenerator.html" target="_top" xlink:title=" ">
<polygon fill="white" stroke="black" points="609,-110.5 609,-151.5 755,-151.5 755,-110.5 609,-110.5"/>
<text text-anchor="start" x="617" y="-139.5" font-family="Helvetica,sans-Serif" font-size="10.00">Catch::Generators::</text>
<text text-anchor="start" x="617" y="-128.5" font-family="Helvetica,sans-Serif" font-size="10.00">RandomFloatingGenerator</text>
<text text-anchor="middle" x="682" y="-117.5" font-family="Helvetica,sans-Serif" font-size="10.00">&lt; Float &gt;</text>
</a>
</g>
</g>
<!-- Node12&#45;&gt;Node13 -->
<g id="edge12" class="edge">
<title>Node12&#45;&gt;Node13</title>
<path fill="none" stroke="midnightblue" d="M564.55,-131C578.98,-131 594.28,-131 608.88,-131"/>
<polygon fill="midnightblue" stroke="midnightblue" points="564.21,-127.5 554.21,-131 564.21,-134.5 564.21,-127.5"/>
</g>
<!-- Node15 -->
<g id="node15" class="node">
<title>Node15</title>
<g id="a_node15"><a xlink:href="classCatch_1_1Generators_1_1ChunkGenerator.html" target="_top" xlink:title=" ">
<polygon fill="white" stroke="black" points="619.5,-61 619.5,-91 744.5,-91 744.5,-61 619.5,-61"/>
<text text-anchor="start" x="627.5" y="-79" font-family="Helvetica,sans-Serif" font-size="10.00">Catch::Generators::</text>
<text text-anchor="middle" x="682" y="-68" font-family="Helvetica,sans-Serif" font-size="10.00">ChunkGenerator&lt; T &gt;</text>
</a>
</g>
</g>
<!-- Node14&#45;&gt;Node15 -->
<g id="edge14" class="edge">
<title>Node14&#45;&gt;Node15</title>
<path fill="none" stroke="midnightblue" d="M571.86,-76C587.63,-76 604.1,-76 619.32,-76"/>
<polygon fill="midnightblue" stroke="midnightblue" points="571.61,-72.5 561.61,-76 571.61,-79.5 571.61,-72.5"/>
</g>
<!-- Node17 -->
<g id="node17" class="node">
<title>Node17</title>
<g id="a_node17"><a xlink:href="classCatch_1_1Generators_1_1RandomIntegerGenerator.html" target="_top" xlink:title=" ">
<polygon fill="white" stroke="black" points="612,-0.5 612,-41.5 752,-41.5 752,-0.5 612,-0.5"/>
<text text-anchor="start" x="620" y="-29.5" font-family="Helvetica,sans-Serif" font-size="10.00">Catch::Generators::</text>
<text text-anchor="start" x="620" y="-18.5" font-family="Helvetica,sans-Serif" font-size="10.00">RandomIntegerGenerator</text>
<text text-anchor="middle" x="682" y="-7.5" font-family="Helvetica,sans-Serif" font-size="10.00">&lt; Integer &gt;</text>
</a>
</g>
</g>
<!-- Node16&#45;&gt;Node17 -->
<g id="edge16" class="edge">
<title>Node16&#45;&gt;Node17</title>
<path fill="none" stroke="midnightblue" d="M568.73,-21C582.93,-21 597.81,-21 611.92,-21"/>
<polygon fill="midnightblue" stroke="midnightblue" points="568.53,-17.5 558.53,-21 568.53,-24.5 568.53,-17.5"/>
</g>
</g>
</svg>
