<?xml version="1.0" encoding="UTF-8" standalone="no"?>
<!DOCTYPE svg PUBLIC "-//W3C//DTD SVG 1.1//EN"
 "http://www.w3.org/Graphics/SVG/1.1/DTD/svg11.dtd">
<!-- Generated by graphviz version 2.43.0 (0)
 -->
<!-- Title: GameStartData Pages: 1 -->
<!--zoomable 317 -->
<svg id="main" version="1.1" xmlns="http://www.w3.org/2000/svg" xmlns:xlink="http://www.w3.org/1999/xlink" xml:space="preserve" onload="init(evt)">
<style type="text/css"><![CDATA[
.edge:hover path { stroke: red; }
.edge:hover polygon { stroke: red; fill: red; }
]]></style>
<script type="text/javascript"><![CDATA[
var edges = document.getElementsByTagName('g');
if (edges && edges.length) {
  for (var i=0;i<edges.length;i++) {
    if (edges[i].id.substr(0,4)=='edge') {
      edges[i].setAttribute('class','edge');
    }
  }
}
]]></script>
        <defs>
                <circle id="rim" cx="0" cy="0" r="7"/>
                <circle id="rim2" cx="0" cy="0" r="3.5"/>
                <g id="zoomPlus">
                        <use xlink:href="#rim" fill="#404040">
                                <set attributeName="fill" to="#808080" begin="zoomplus.mouseover" end="zoomplus.mouseout"/>
                        </use>
                        <path d="M-4,0h8M0,-4v8" fill="none" stroke="white" stroke-width="1.5" pointer-events="none"/>
                </g>
                <g id="zoomMin">
                        <use xlink:href="#rim" fill="#404040">
                                <set attributeName="fill" to="#808080" begin="zoomminus.mouseover" end="zoomminus.mouseout"/>
                        </use>
                        <path d="M-4,0h8" fill="none" stroke="white" stroke-width="1.5" pointer-events="none"/>
                </g>
                <g id="dirArrow">
                        <path fill="none" stroke="white" stroke-width="1.5" d="M0,-3.0v7 M-2.5,-0.5L0,-3.0L2.5,-0.5"/>
                </g>
               <g id="resetDef">
                       <use xlink:href="#rim2" fill="#404040">
                               <set attributeName="fill" to="#808080" begin="reset.mouseover" end="reset.mouseout"/>
                       </use>
               </g>
        </defs>

<script type="text/javascript">
var viewWidth = 933;
var viewHeight = 317;
var sectionId = 'dynsection-1';
</script>
<script xlink:href="svgpan.js"/>
<svg id="graph" class="graph">
<g id="viewport">
<title>GameStartData</title>
<polygon fill="white" stroke="transparent" points="-4,4 -4,-313 929,-313 929,4 -4,4"/>
<!-- Node1 -->
<g id="node1" class="node">
<title>Node1</title>
<g id="a_node1"><a xlink:title=" ">
<polygon fill="#bfbfbf" stroke="black" points="667.5,-0.5 667.5,-19.5 759.5,-19.5 759.5,-0.5 667.5,-0.5"/>
<text text-anchor="middle" x="713.5" y="-7.5" font-family="Helvetica,sans-Serif" font-size="10.00">GameStartData</text>
</a>
</g>
</g>
<!-- Node2 -->
<g id="node2" class="node">
<title>Node2</title>
<g id="a_node2"><a xlink:href="structGameParams.html" target="_top" xlink:title=" ">
<polygon fill="white" stroke="black" points="432.5,-67.5 432.5,-86.5 514.5,-86.5 514.5,-67.5 432.5,-67.5"/>
<text text-anchor="middle" x="473.5" y="-74.5" font-family="Helvetica,sans-Serif" font-size="10.00">GameParams</text>
</a>
</g>
</g>
<!-- Node2&#45;&gt;Node1 -->
<g id="edge1" class="edge">
<title>Node2&#45;&gt;Node1</title>
<path fill="none" stroke="midnightblue" d="M513.01,-64.62C539.89,-56.95 576.29,-46.67 608.5,-38 632.13,-31.64 658.83,-24.77 679.4,-19.56"/>
<polygon fill="midnightblue" stroke="midnightblue" points="511.86,-61.31 503.21,-67.43 513.78,-68.04 511.86,-61.31"/>
</g>
<!-- Node3 -->
<g id="node3" class="node">
<title>Node3</title>
<g id="a_node3"><a xlink:title=" ">
<polygon fill="white" stroke="#bfbfbf" points="381,-156.5 381,-175.5 416,-175.5 416,-156.5 381,-156.5"/>
<text text-anchor="middle" x="398.5" y="-163.5" font-family="Helvetica,sans-Serif" font-size="10.00">u16</text>
</a>
</g>
</g>
<!-- Node3&#45;&gt;Node2 -->
<g id="edge2" class="edge">
<title>Node3&#45;&gt;Node2</title>
<path fill="none" stroke="#9a32cd" stroke-dasharray="5,2" d="M393.68,-146.31C391.53,-133.52 391.09,-116.81 399.5,-105 407.19,-94.19 419.68,-87.7 432.23,-83.8"/>
<polygon fill="#9a32cd" stroke="#9a32cd" points="390.31,-147.28 395.84,-156.31 397.15,-145.8 390.31,-147.28"/>
<text text-anchor="middle" x="429.5" y="-119" font-family="Helvetica,sans-Serif" font-size="10.00"> socket_port</text>
</g>
<!-- Node4 -->
<g id="node4" class="node">
<title>Node4</title>
<g id="a_node4"><a xlink:href="classbool.html" target="_top" xlink:title=" ">
<polygon fill="white" stroke="black" points="576.5,-156.5 576.5,-175.5 614.5,-175.5 614.5,-156.5 576.5,-156.5"/>
<text text-anchor="middle" x="595.5" y="-163.5" font-family="Helvetica,sans-Serif" font-size="10.00">bool</text>
</a>
</g>
</g>
<!-- Node4&#45;&gt;Node1 -->
<g id="edge11" class="edge">
<title>Node4&#45;&gt;Node1</title>
<path fill="none" stroke="#9a32cd" stroke-dasharray="5,2" d="M604.49,-146.78C605.87,-143.86 607.25,-140.86 608.5,-138 622.09,-106.92 615.73,-93.82 636.5,-67 652.89,-45.83 679.37,-29.03 696.61,-19.54"/>
<polygon fill="#9a32cd" stroke="#9a32cd" points="601.2,-145.55 600,-156.08 607.5,-148.6 601.2,-145.55"/>
<text text-anchor="middle" x="668" y="-74.5" font-family="Helvetica,sans-Serif" font-size="10.00"> local_server</text>
</g>
<!-- Node4&#45;&gt;Node2 -->
<g id="edge3" class="edge">
<title>Node4&#45;&gt;Node2</title>
<path fill="none" stroke="#9a32cd" stroke-dasharray="5,2" d="M566.47,-161.67C547.95,-158.3 524.35,-151.53 507.5,-138 498.72,-130.95 484.5,-101.9 477.56,-86.96"/>
<polygon fill="#9a32cd" stroke="#9a32cd" points="566,-165.14 576.43,-163.26 567.1,-158.23 566,-165.14"/>
<text text-anchor="middle" x="558" y="-119" font-family="Helvetica,sans-Serif" font-size="10.00"> is_dedicated_server</text>
</g>
<!-- Node5 -->
<g id="node5" class="node">
<title>Node5</title>
<g id="a_node5"><a xlink:title=" ">
<polygon fill="white" stroke="#bfbfbf" points="571.5,-284 571.5,-303 615.5,-303 615.5,-284 571.5,-284"/>
<text text-anchor="middle" x="593.5" y="-291" font-family="Helvetica,sans-Serif" font-size="10.00">string</text>
</a>
</g>
</g>
<!-- Node5&#45;&gt;Node1 -->
<g id="edge12" class="edge">
<title>Node5&#45;&gt;Node1</title>
<path fill="none" stroke="#9a32cd" stroke-dasharray="5,2" d="M604.76,-275.07C626.5,-240.6 674.34,-160.65 699.5,-87 707.57,-63.39 711.3,-33.97 712.74,-19.64"/>
<polygon fill="#9a32cd" stroke="#9a32cd" points="601.55,-273.59 599.13,-283.9 607.45,-277.35 601.55,-273.59"/>
<text text-anchor="middle" x="718.5" y="-130" font-family="Helvetica,sans-Serif" font-size="10.00"> password</text>
<text text-anchor="middle" x="718.5" y="-119" font-family="Helvetica,sans-Serif" font-size="10.00">address</text>
<text text-anchor="middle" x="718.5" y="-108" font-family="Helvetica,sans-Serif" font-size="10.00">name</text>
</g>
<!-- Node5&#45;&gt;Node2 -->
<g id="edge4" class="edge">
<title>Node5&#45;&gt;Node2</title>
<path fill="none" stroke="#9a32cd" stroke-dasharray="5,2" d="M578.67,-276.34C555.14,-249.71 509.65,-193.95 487.5,-138 480.57,-120.5 476.55,-98.7 474.72,-86.79"/>
<polygon fill="#9a32cd" stroke="#9a32cd" points="576.19,-278.83 585.48,-283.93 581.4,-274.15 576.19,-278.83"/>
<text text-anchor="middle" x="534.5" y="-163.5" font-family="Helvetica,sans-Serif" font-size="10.00"> world_path</text>
</g>
<!-- Node6 -->
<g id="node6" class="node">
<title>Node6</title>
<g id="a_node6"><a xlink:href="structSubgameSpec.html" target="_top" xlink:title=" ">
<polygon fill="white" stroke="black" points="217.5,-156.5 217.5,-175.5 303.5,-175.5 303.5,-156.5 217.5,-156.5"/>
<text text-anchor="middle" x="260.5" y="-163.5" font-family="Helvetica,sans-Serif" font-size="10.00">SubgameSpec</text>
</a>
</g>
</g>
<!-- Node5&#45;&gt;Node6 -->
<g id="edge8" class="edge">
<title>Node5&#45;&gt;Node6</title>
<path fill="none" stroke="#9a32cd" stroke-dasharray="5,2" d="M560.93,-291.63C507.59,-289.55 404.81,-282.65 377.5,-260 353.59,-240.17 377.07,-215.35 354.5,-194 340.81,-181.05 321.32,-174.25 303.63,-170.71"/>
<polygon fill="#9a32cd" stroke="#9a32cd" points="561.09,-295.13 571.2,-291.99 561.33,-288.14 561.09,-295.13"/>
<text text-anchor="middle" x="418.5" y="-252" font-family="Helvetica,sans-Serif" font-size="10.00"> title</text>
<text text-anchor="middle" x="418.5" y="-241" font-family="Helvetica,sans-Serif" font-size="10.00">path</text>
<text text-anchor="middle" x="418.5" y="-230" font-family="Helvetica,sans-Serif" font-size="10.00">menuicon_path</text>
<text text-anchor="middle" x="418.5" y="-219" font-family="Helvetica,sans-Serif" font-size="10.00">gamemods_path</text>
<text text-anchor="middle" x="418.5" y="-208" font-family="Helvetica,sans-Serif" font-size="10.00">author</text>
<text text-anchor="middle" x="418.5" y="-197" font-family="Helvetica,sans-Serif" font-size="10.00">id</text>
</g>
<!-- Node11 -->
<g id="node11" class="node">
<title>Node11</title>
<g id="a_node11"><a xlink:href="structWorldSpec.html" target="_top" xlink:title=" ">
<polygon fill="white" stroke="black" points="768.5,-112 768.5,-131 836.5,-131 836.5,-112 768.5,-112"/>
<text text-anchor="middle" x="802.5" y="-119" font-family="Helvetica,sans-Serif" font-size="10.00">WorldSpec</text>
</a>
</g>
</g>
<!-- Node5&#45;&gt;Node11 -->
<g id="edge14" class="edge">
<title>Node5&#45;&gt;Node11</title>
<path fill="none" stroke="#9a32cd" stroke-dasharray="5,2" d="M625.89,-291.86C655.17,-289.74 698.07,-282.59 727.5,-260 772.58,-225.39 794.04,-155.65 800.4,-131.2"/>
<polygon fill="#9a32cd" stroke="#9a32cd" points="625.55,-288.38 615.77,-292.44 625.95,-295.37 625.55,-288.38"/>
<text text-anchor="middle" x="794" y="-235.5" font-family="Helvetica,sans-Serif" font-size="10.00"> path</text>
<text text-anchor="middle" x="794" y="-224.5" font-family="Helvetica,sans-Serif" font-size="10.00">name</text>
<text text-anchor="middle" x="794" y="-213.5" font-family="Helvetica,sans-Serif" font-size="10.00">gameid</text>
</g>
<!-- Node6&#45;&gt;Node2 -->
<g id="edge5" class="edge">
<title>Node6&#45;&gt;Node2</title>
<path fill="none" stroke="#9a32cd" stroke-dasharray="5,2" d="M274.56,-148.64C287.43,-134.78 307.72,-115.53 329.5,-105 361.9,-89.33 402.48,-82.73 432.29,-79.97"/>
<polygon fill="#9a32cd" stroke="#9a32cd" points="271.63,-146.67 267.56,-156.45 276.84,-151.34 271.63,-146.67"/>
<text text-anchor="middle" x="359" y="-119" font-family="Helvetica,sans-Serif" font-size="10.00"> game_spec</text>
</g>
<!-- Node7 -->
<g id="node7" class="node">
<title>Node7</title>
<g id="a_node7"><a xlink:title=" ">
<polygon fill="white" stroke="#bfbfbf" points="0,-278.5 0,-308.5 119,-308.5 119,-278.5 0,-278.5"/>
<text text-anchor="start" x="8" y="-296.5" font-family="Helvetica,sans-Serif" font-size="10.00">unordered_map&lt; std</text>
<text text-anchor="middle" x="59.5" y="-285.5" font-family="Helvetica,sans-Serif" font-size="10.00">::string, std::string &gt;</text>
</a>
</g>
</g>
<!-- Node7&#45;&gt;Node6 -->
<g id="edge6" class="edge">
<title>Node7&#45;&gt;Node6</title>
<path fill="none" stroke="#9a32cd" stroke-dasharray="5,2" d="M57.25,-268.28C56.6,-245.74 59.6,-212.89 79.5,-194 98.8,-175.68 170.33,-169.78 217.48,-167.88"/>
<polygon fill="#9a32cd" stroke="#9a32cd" points="53.76,-268.61 57.8,-278.4 60.75,-268.23 53.76,-268.61"/>
<text text-anchor="middle" x="128.5" y="-224.5" font-family="Helvetica,sans-Serif" font-size="10.00"> addon_mods_paths</text>
</g>
<!-- Node8 -->
<g id="node8" class="node">
<title>Node8</title>
<g id="a_node8"><a xlink:title=" ">
<polygon fill="white" stroke="#bfbfbf" points="158,-284 158,-303 187,-303 187,-284 158,-284"/>
<text text-anchor="middle" x="172.5" y="-291" font-family="Helvetica,sans-Serif" font-size="10.00">int</text>
</a>
</g>
</g>
<!-- Node8&#45;&gt;Node6 -->
<g id="edge7" class="edge">
<title>Node8&#45;&gt;Node6</title>
<path fill="none" stroke="#9a32cd" stroke-dasharray="5,2" d="M176.85,-274.16C182.67,-252.86 194.73,-217.63 215.5,-194 222.36,-186.2 232.03,-179.99 240.65,-175.5"/>
<polygon fill="#9a32cd" stroke="#9a32cd" points="173.45,-273.34 174.37,-283.9 180.23,-275.07 173.45,-273.34"/>
<text text-anchor="middle" x="235.5" y="-224.5" font-family="Helvetica,sans-Serif" font-size="10.00"> release</text>
</g>
<!-- Node9 -->
<g id="node9" class="node">
<title>Node9</title>
<g id="a_node9"><a xlink:title=" ">
<polygon fill="white" stroke="#bfbfbf" points="205.5,-284 205.5,-303 333.5,-303 333.5,-284 205.5,-284"/>
<text text-anchor="middle" x="269.5" y="-291" font-family="Helvetica,sans-Serif" font-size="10.00">vector&lt; const char * &gt;</text>
</a>
</g>
</g>
<!-- Node9&#45;&gt;Node6 -->
<g id="edge9" class="edge">
<title>Node9&#45;&gt;Node6</title>
<path fill="none" stroke="#9a32cd" stroke-dasharray="5,2" d="M264.18,-274.06C263.08,-269.5 262.08,-264.6 261.5,-260 257.6,-229.24 258.99,-192.31 259.93,-175.76"/>
<polygon fill="#9a32cd" stroke="#9a32cd" points="260.81,-275.01 266.77,-283.78 267.58,-273.21 260.81,-275.01"/>
<text text-anchor="middle" x="308" y="-224.5" font-family="Helvetica,sans-Serif" font-size="10.00"> deprecation_msgs</text>
</g>
<!-- Node10 -->
<g id="node10" class="node">
<title>Node10</title>
<g id="a_node10"><a xlink:title=" ">
<polygon fill="white" stroke="#bfbfbf" points="836,-67.5 836,-86.5 925,-86.5 925,-67.5 836,-67.5"/>
<text text-anchor="middle" x="880.5" y="-74.5" font-family="Helvetica,sans-Serif" font-size="10.00">ELoginRegister</text>
</a>
</g>
</g>
<!-- Node10&#45;&gt;Node1 -->
<g id="edge10" class="edge">
<title>Node10&#45;&gt;Node1</title>
<path fill="none" stroke="#9a32cd" stroke-dasharray="5,2" d="M848.65,-63.6C815.49,-50.7 764.44,-30.83 735.5,-19.56"/>
<polygon fill="#9a32cd" stroke="#9a32cd" points="847.74,-67 858.32,-67.37 850.27,-60.48 847.74,-67"/>
<text text-anchor="middle" x="865" y="-41" font-family="Helvetica,sans-Serif" font-size="10.00"> allow_login_or_register</text>
</g>
<!-- Node11&#45;&gt;Node1 -->
<g id="edge13" class="edge">
<title>Node11&#45;&gt;Node1</title>
<path fill="none" stroke="#9a32cd" stroke-dasharray="5,2" d="M785.8,-104.49C780.43,-99.09 774.56,-92.92 769.5,-87 749.71,-63.81 729.12,-34.2 719.33,-19.74"/>
<polygon fill="#9a32cd" stroke="#9a32cd" points="783.59,-107.22 793.17,-111.73 788.5,-102.23 783.59,-107.22"/>
<text text-anchor="middle" x="798.5" y="-74.5" font-family="Helvetica,sans-Serif" font-size="10.00"> world_spec</text>
</g>
</g>
</svg>
        <g id="navigator" transform="translate(0 0)" fill="#404254">
                <rect fill="#f2f5e9" fill-opacity="0.5" stroke="#606060" stroke-width=".5" x="0" y="0" width="60" height="60"/>
                <use id="zoomplus" xlink:href="#zoomPlus" x="17" y="9" onmousedown="handleZoom(evt,'in')"/>
                <use id="zoomminus" xlink:href="#zoomMin" x="42" y="9" onmousedown="handleZoom(evt,'out')"/>
                <use id="reset" xlink:href="#resetDef" x="30" y="36" onmousedown="handleReset()"/>
                <g id="arrowUp" xlink:href="#dirArrow" transform="translate(30 24)" onmousedown="handlePan(0,-1)">
                  <use xlink:href="#rim" fill="#404040">
                        <set attributeName="fill" to="#808080" begin="arrowUp.mouseover" end="arrowUp.mouseout"/>
                  </use>
                  <path fill="none" stroke="white" stroke-width="1.5" d="M0,-3.0v7 M-2.5,-0.5L0,-3.0L2.5,-0.5"/>
                </g>
                <g id="arrowRight" xlink:href="#dirArrow" transform="rotate(90) translate(36 -43)" onmousedown="handlePan(1,0)">
                  <use xlink:href="#rim" fill="#404040">
                        <set attributeName="fill" to="#808080" begin="arrowRight.mouseover" end="arrowRight.mouseout"/>
                  </use>
                  <path fill="none" stroke="white" stroke-width="1.5" d="M0,-3.0v7 M-2.5,-0.5L0,-3.0L2.5,-0.5"/>
                </g>
                <g id="arrowDown" xlink:href="#dirArrow" transform="rotate(180) translate(-30 -48)" onmousedown="handlePan(0,1)">
                  <use xlink:href="#rim" fill="#404040">
                        <set attributeName="fill" to="#808080" begin="arrowDown.mouseover" end="arrowDown.mouseout"/>
                  </use>
                  <path fill="none" stroke="white" stroke-width="1.5" d="M0,-3.0v7 M-2.5,-0.5L0,-3.0L2.5,-0.5"/>
                </g>
                <g id="arrowLeft" xlink:href="#dirArrow" transform="rotate(270) translate(-36 17)" onmousedown="handlePan(-1,0)">
                  <use xlink:href="#rim" fill="#404040">
                        <set attributeName="fill" to="#808080" begin="arrowLeft.mouseover" end="arrowLeft.mouseout"/>
                  </use>
                  <path fill="none" stroke="white" stroke-width="1.5" d="M0,-3.0v7 M-2.5,-0.5L0,-3.0L2.5,-0.5"/>
                </g>
        </g>
        <svg viewBox="0 0 15 15" width="100%" height="30px" preserveAspectRatio="xMaxYMin meet">
         <g id="arrow_out" transform="scale(0.3 0.3)">
          <a xlink:href="structGameStartData__coll__graph_org.svg" target="_base">
           <rect id="button" ry="5" rx="5" y="6" x="6" height="38" width="38"
                fill="#f2f5e9" fill-opacity="0.5" stroke="#606060" stroke-width="1.0"/>
           <path id="arrow"
             d="M 11.500037,31.436501 C 11.940474,20.09759 22.043105,11.32322 32.158766,21.979434 L 37.068811,17.246167 C 37.068811,17.246167 37.088388,32 37.088388,32 L 22.160133,31.978069 C 22.160133,31.978069 26.997745,27.140456 26.997745,27.140456 C 18.528582,18.264221 13.291696,25.230495 11.500037,31.436501 z"
             style="fill:#404040;"/>
          </a>
         </g>
        </svg>
</svg>
