<?xml version="1.0" encoding="UTF-8" standalone="no"?>
<!DOCTYPE svg PUBLIC "-//W3C//DTD SVG 1.1//EN"
 "http://www.w3.org/Graphics/SVG/1.1/DTD/svg11.dtd">
<!-- Generated by graphviz version 2.43.0 (0)
 -->
<!-- Title: DigParams Pages: 1 -->
<svg width="257pt" height="95pt"
 viewBox="0.00 0.00 256.50 95.00" xmlns="http://www.w3.org/2000/svg" xmlns:xlink="http://www.w3.org/1999/xlink">
<g id="graph0" class="graph" transform="scale(1 1) rotate(0) translate(4 91)">
<title>DigParams</title>
<polygon fill="white" stroke="transparent" points="-4,4 -4,-91 252.5,-91 252.5,4 -4,4"/>
<!-- Node1 -->
<g id="node1" class="node">
<title>Node1</title>
<g id="a_node1"><a xlink:title=" ">
<polygon fill="#bfbfbf" stroke="black" points="85.5,-0.5 85.5,-19.5 154.5,-19.5 154.5,-0.5 85.5,-0.5"/>
<text text-anchor="middle" x="120" y="-7.5" font-family="Helvetica,sans-Serif" font-size="10.00">DigParams</text>
</a>
</g>
</g>
<!-- Node2 -->
<g id="node2" class="node">
<title>Node2</title>
<g id="a_node2"><a xlink:title=" ">
<polygon fill="white" stroke="#bfbfbf" points="0,-67.5 0,-86.5 38,-86.5 38,-67.5 0,-67.5"/>
<text text-anchor="middle" x="19" y="-74.5" font-family="Helvetica,sans-Serif" font-size="10.00">float</text>
</a>
</g>
</g>
<!-- Node2&#45;&gt;Node1 -->
<g id="edge1" class="edge">
<title>Node2&#45;&gt;Node1</title>
<path fill="none" stroke="#9a32cd" stroke-dasharray="5,2" d="M27.94,-58.27C32.26,-51.15 38.04,-43.38 45,-38 56.71,-28.94 71.74,-22.74 85.26,-18.59"/>
<polygon fill="#9a32cd" stroke="#9a32cd" points="24.73,-56.83 22.96,-67.28 30.86,-60.22 24.73,-56.83"/>
<text text-anchor="middle" x="58" y="-41" font-family="Helvetica,sans-Serif" font-size="10.00"> time</text>
</g>
<!-- Node3 -->
<g id="node3" class="node">
<title>Node3</title>
<g id="a_node3"><a xlink:title=" ">
<polygon fill="white" stroke="#bfbfbf" points="56,-67.5 56,-86.5 100,-86.5 100,-67.5 56,-67.5"/>
<text text-anchor="middle" x="78" y="-74.5" font-family="Helvetica,sans-Serif" font-size="10.00">string</text>
</a>
</g>
</g>
<!-- Node3&#45;&gt;Node1 -->
<g id="edge2" class="edge">
<title>Node3&#45;&gt;Node1</title>
<path fill="none" stroke="#9a32cd" stroke-dasharray="5,2" d="M75.09,-57.28C74.94,-50.82 75.8,-43.76 79,-38 83.47,-29.95 91.47,-23.89 99.22,-19.57"/>
<polygon fill="#9a32cd" stroke="#9a32cd" points="71.61,-57.64 76.05,-67.25 78.57,-56.96 71.61,-57.64"/>
<text text-anchor="middle" x="109.5" y="-41" font-family="Helvetica,sans-Serif" font-size="10.00"> main_group</text>
</g>
<!-- Node4 -->
<g id="node4" class="node">
<title>Node4</title>
<g id="a_node4"><a xlink:href="classbool.html" target="_top" xlink:title=" ">
<polygon fill="white" stroke="black" points="143,-67.5 143,-86.5 181,-86.5 181,-67.5 143,-67.5"/>
<text text-anchor="middle" x="162" y="-74.5" font-family="Helvetica,sans-Serif" font-size="10.00">bool</text>
</a>
</g>
</g>
<!-- Node4&#45;&gt;Node1 -->
<g id="edge3" class="edge">
<title>Node4&#45;&gt;Node1</title>
<path fill="none" stroke="#9a32cd" stroke-dasharray="5,2" d="M152.49,-58.63C148.75,-52.06 144.33,-44.59 140,-38 135.9,-31.76 130.9,-25.01 126.93,-19.82"/>
<polygon fill="#9a32cd" stroke="#9a32cd" points="149.45,-60.36 157.37,-67.38 155.56,-56.94 149.45,-60.36"/>
<text text-anchor="middle" x="169" y="-41" font-family="Helvetica,sans-Serif" font-size="10.00"> diggable</text>
</g>
<!-- Node5 -->
<g id="node5" class="node">
<title>Node5</title>
<g id="a_node5"><a xlink:title=" ">
<polygon fill="white" stroke="#bfbfbf" points="213.5,-67.5 213.5,-86.5 248.5,-86.5 248.5,-67.5 213.5,-67.5"/>
<text text-anchor="middle" x="231" y="-74.5" font-family="Helvetica,sans-Serif" font-size="10.00">u32</text>
</a>
</g>
</g>
<!-- Node5&#45;&gt;Node1 -->
<g id="edge4" class="edge">
<title>Node5&#45;&gt;Node1</title>
<path fill="none" stroke="#9a32cd" stroke-dasharray="5,2" d="M218.67,-59.29C212.54,-51.93 204.61,-43.69 196,-38 183.5,-29.74 168.17,-23.67 154.56,-19.4"/>
<polygon fill="#9a32cd" stroke="#9a32cd" points="216.05,-61.61 224.98,-67.31 221.55,-57.29 216.05,-61.61"/>
<text text-anchor="middle" x="223" y="-41" font-family="Helvetica,sans-Serif" font-size="10.00"> wear</text>
</g>
</g>
</svg>
