<?xml version="1.0" encoding="UTF-8" standalone="no"?>
<!DOCTYPE svg PUBLIC "-//W3C//DTD SVG 1.1//EN"
 "http://www.w3.org/Graphics/SVG/1.1/DTD/svg11.dtd">
<!-- Generated by graphviz version 2.43.0 (0)
 -->
<!-- Title: PlayingSound Pages: 1 -->
<svg width="124pt" height="95pt"
 viewBox="0.00 0.00 123.50 95.00" xmlns="http://www.w3.org/2000/svg" xmlns:xlink="http://www.w3.org/1999/xlink">
<g id="graph0" class="graph" transform="scale(1 1) rotate(0) translate(4 91)">
<title>PlayingSound</title>
<polygon fill="white" stroke="transparent" points="-4,4 -4,-91 119.5,-91 119.5,4 -4,4"/>
<!-- Node1 -->
<g id="node1" class="node">
<title>Node1</title>
<g id="a_node1"><a xlink:title=" ">
<polygon fill="#bfbfbf" stroke="black" points="18,-0.5 18,-19.5 101,-19.5 101,-0.5 18,-0.5"/>
<text text-anchor="middle" x="59.5" y="-7.5" font-family="Helvetica,sans-Serif" font-size="10.00">PlayingSound</text>
</a>
</g>
</g>
<!-- Node2 -->
<g id="node2" class="node">
<title>Node2</title>
<g id="a_node2"><a xlink:title=" ">
<polygon fill="white" stroke="#bfbfbf" points="0,-67.5 0,-86.5 47,-86.5 47,-67.5 0,-67.5"/>
<text text-anchor="middle" x="23.5" y="-74.5" font-family="Helvetica,sans-Serif" font-size="10.00">ALuint</text>
</a>
</g>
</g>
<!-- Node2&#45;&gt;Node1 -->
<g id="edge1" class="edge">
<title>Node2&#45;&gt;Node1</title>
<path fill="none" stroke="#9a32cd" stroke-dasharray="5,2" d="M20.82,-56.93C20.75,-50.62 21.59,-43.74 24.5,-38 28.46,-30.2 35.84,-23.99 42.8,-19.51"/>
<polygon fill="#9a32cd" stroke="#9a32cd" points="17.37,-57.67 21.7,-67.34 24.35,-57.08 17.37,-57.67"/>
<text text-anchor="middle" x="49.5" y="-41" font-family="Helvetica,sans-Serif" font-size="10.00"> source_id</text>
</g>
<!-- Node3 -->
<g id="node3" class="node">
<title>Node3</title>
<g id="a_node3"><a xlink:href="classbool.html" target="_top" xlink:title=" ">
<polygon fill="white" stroke="black" points="77.5,-67.5 77.5,-86.5 115.5,-86.5 115.5,-67.5 77.5,-67.5"/>
<text text-anchor="middle" x="96.5" y="-74.5" font-family="Helvetica,sans-Serif" font-size="10.00">bool</text>
</a>
</g>
</g>
<!-- Node3&#45;&gt;Node1 -->
<g id="edge2" class="edge">
<title>Node3&#45;&gt;Node1</title>
<path fill="none" stroke="#9a32cd" stroke-dasharray="5,2" d="M86.56,-58.53C79.39,-45.95 70.03,-29.51 64.41,-19.63"/>
<polygon fill="#9a32cd" stroke="#9a32cd" points="83.52,-60.27 91.51,-67.23 89.6,-56.81 83.52,-60.27"/>
<text text-anchor="middle" x="92" y="-41" font-family="Helvetica,sans-Serif" font-size="10.00"> loop</text>
</g>
</g>
</svg>
