<?xml version="1.0" encoding="UTF-8" standalone="no"?>
<!DOCTYPE svg PUBLIC "-//W3C//DTD SVG 1.1//EN"
 "http://www.w3.org/Graphics/SVG/1.1/DTD/svg11.dtd">
<!-- Generated by graphviz version 2.43.0 (0)
 -->
<!-- Title: MainMenuData Pages: 1 -->
<!--zoomable 208 -->
<svg id="main" version="1.1" xmlns="http://www.w3.org/2000/svg" xmlns:xlink="http://www.w3.org/1999/xlink" xml:space="preserve" onload="init(evt)">
<style type="text/css"><![CDATA[
.edge:hover path { stroke: red; }
.edge:hover polygon { stroke: red; fill: red; }
]]></style>
<script type="text/javascript"><![CDATA[
var edges = document.getElementsByTagName('g');
if (edges && edges.length) {
  for (var i=0;i<edges.length;i++) {
    if (edges[i].id.substr(0,4)=='edge') {
      edges[i].setAttribute('class','edge');
    }
  }
}
]]></script>
        <defs>
                <circle id="rim" cx="0" cy="0" r="7"/>
                <circle id="rim2" cx="0" cy="0" r="3.5"/>
                <g id="zoomPlus">
                        <use xlink:href="#rim" fill="#404040">
                                <set attributeName="fill" to="#808080" begin="zoomplus.mouseover" end="zoomplus.mouseout"/>
                        </use>
                        <path d="M-4,0h8M0,-4v8" fill="none" stroke="white" stroke-width="1.5" pointer-events="none"/>
                </g>
                <g id="zoomMin">
                        <use xlink:href="#rim" fill="#404040">
                                <set attributeName="fill" to="#808080" begin="zoomminus.mouseover" end="zoomminus.mouseout"/>
                        </use>
                        <path d="M-4,0h8" fill="none" stroke="white" stroke-width="1.5" pointer-events="none"/>
                </g>
                <g id="dirArrow">
                        <path fill="none" stroke="white" stroke-width="1.5" d="M0,-3.0v7 M-2.5,-0.5L0,-3.0L2.5,-0.5"/>
                </g>
               <g id="resetDef">
                       <use xlink:href="#rim2" fill="#404040">
                               <set attributeName="fill" to="#808080" begin="reset.mouseover" end="reset.mouseout"/>
                       </use>
               </g>
        </defs>

<script type="text/javascript">
var viewWidth = 637;
var viewHeight = 208;
var sectionId = 'dynsection-0';
</script>
<script xlink:href="svgpan.js"/>
<svg id="graph" class="graph">
<g id="viewport">
<title>MainMenuData</title>
<polygon fill="white" stroke="transparent" points="-4,4 -4,-204 633,-204 633,4 -4,4"/>
<!-- Node1 -->
<g id="node1" class="node">
<title>Node1</title>
<g id="a_node1"><a xlink:title=" ">
<polygon fill="#bfbfbf" stroke="black" points="301,-0.5 301,-19.5 392,-19.5 392,-0.5 301,-0.5"/>
<text text-anchor="middle" x="346.5" y="-7.5" font-family="Helvetica,sans-Serif" font-size="10.00">MainMenuData</text>
</a>
</g>
</g>
<!-- Node2 -->
<g id="node2" class="node">
<title>Node2</title>
<g id="a_node2"><a xlink:title=" ">
<polygon fill="white" stroke="#bfbfbf" points="0,-90.5 0,-109.5 89,-109.5 89,-90.5 0,-90.5"/>
<text text-anchor="middle" x="44.5" y="-97.5" font-family="Helvetica,sans-Serif" font-size="10.00">ELoginRegister</text>
</a>
</g>
</g>
<!-- Node2&#45;&gt;Node1 -->
<g id="edge1" class="edge">
<title>Node2&#45;&gt;Node1</title>
<path fill="none" stroke="#9a32cd" stroke-dasharray="5,2" d="M38.92,-80.49C36.09,-66.98 35.14,-49.14 45.5,-38 62.51,-19.7 220.88,-13.68 300.81,-11.8"/>
<polygon fill="#9a32cd" stroke="#9a32cd" points="35.54,-81.38 41.41,-90.2 42.32,-79.64 35.54,-81.38"/>
<text text-anchor="middle" x="104" y="-41" font-family="Helvetica,sans-Serif" font-size="10.00"> allow_login_or_register</text>
</g>
<!-- Node3 -->
<g id="node3" class="node">
<title>Node3</title>
<g id="a_node3"><a xlink:href="structMainMenuDataForScript.html" target="_top" xlink:title=" ">
<polygon fill="white" stroke="black" points="279.5,-90.5 279.5,-109.5 413.5,-109.5 413.5,-90.5 279.5,-90.5"/>
<text text-anchor="middle" x="346.5" y="-97.5" font-family="Helvetica,sans-Serif" font-size="10.00">MainMenuDataForScript</text>
</a>
</g>
</g>
<!-- Node3&#45;&gt;Node1 -->
<g id="edge2" class="edge">
<title>Node3&#45;&gt;Node1</title>
<path fill="none" stroke="#9a32cd" stroke-dasharray="5,2" d="M346.5,-79.98C346.5,-61.31 346.5,-33.67 346.5,-19.72"/>
<polygon fill="#9a32cd" stroke="#9a32cd" points="343,-80.24 346.5,-90.24 350,-80.24 343,-80.24"/>
<text text-anchor="middle" x="375.5" y="-41" font-family="Helvetica,sans-Serif" font-size="10.00"> script_data</text>
</g>
<!-- Node4 -->
<g id="node4" class="node">
<title>Node4</title>
<g id="a_node4"><a xlink:title=" ">
<polygon fill="white" stroke="#bfbfbf" points="171.5,-180.5 171.5,-199.5 215.5,-199.5 215.5,-180.5 171.5,-180.5"/>
<text text-anchor="middle" x="193.5" y="-187.5" font-family="Helvetica,sans-Serif" font-size="10.00">string</text>
</a>
</g>
</g>
<!-- Node4&#45;&gt;Node1 -->
<g id="edge7" class="edge">
<title>Node4&#45;&gt;Node1</title>
<path fill="none" stroke="#9a32cd" stroke-dasharray="5,2" d="M185.71,-170.72C176.1,-145.01 163.55,-97.88 185.5,-67 211.48,-30.46 263.1,-17.55 300.91,-13.11"/>
<polygon fill="#9a32cd" stroke="#9a32cd" points="182.58,-172.32 189.54,-180.31 189.08,-169.73 182.58,-172.32"/>
<text text-anchor="middle" x="228" y="-125" font-family="Helvetica,sans-Serif" font-size="10.00"> port</text>
<text text-anchor="middle" x="228" y="-114" font-family="Helvetica,sans-Serif" font-size="10.00">password</text>
<text text-anchor="middle" x="228" y="-103" font-family="Helvetica,sans-Serif" font-size="10.00">address</text>
<text text-anchor="middle" x="228" y="-92" font-family="Helvetica,sans-Serif" font-size="10.00">servername</text>
<text text-anchor="middle" x="228" y="-81" font-family="Helvetica,sans-Serif" font-size="10.00">serverdescription</text>
<text text-anchor="middle" x="228" y="-70" font-family="Helvetica,sans-Serif" font-size="10.00">name</text>
</g>
<!-- Node4&#45;&gt;Node3 -->
<g id="edge3" class="edge">
<title>Node4&#45;&gt;Node3</title>
<path fill="none" stroke="#9a32cd" stroke-dasharray="5,2" d="M214.17,-174.77C225.11,-167.41 238.86,-158.45 251.5,-151 278,-135.39 309.8,-119.13 329.07,-109.55"/>
<polygon fill="#9a32cd" stroke="#9a32cd" points="212.04,-171.99 205.73,-180.5 215.97,-177.78 212.04,-171.99"/>
<text text-anchor="middle" x="287" y="-154" font-family="Helvetica,sans-Serif" font-size="10.00"> errormessage</text>
</g>
<!-- Node5 -->
<g id="node5" class="node">
<title>Node5</title>
<g id="a_node5"><a xlink:href="classbool.html" target="_top" xlink:title=" ">
<polygon fill="white" stroke="black" points="369.5,-180.5 369.5,-199.5 407.5,-199.5 407.5,-180.5 369.5,-180.5"/>
<text text-anchor="middle" x="388.5" y="-187.5" font-family="Helvetica,sans-Serif" font-size="10.00">bool</text>
</a>
</g>
</g>
<!-- Node5&#45;&gt;Node1 -->
<g id="edge6" class="edge">
<title>Node5&#45;&gt;Node1</title>
<path fill="none" stroke="#9a32cd" stroke-dasharray="5,2" d="M417.15,-178.72C424.41,-174.67 431.32,-169.22 435.5,-162 444.57,-146.32 474.54,-234.26 422.5,-67 418.25,-53.33 418.82,-47.92 408.5,-38 399.87,-29.7 388.27,-23.73 377.44,-19.55"/>
<polygon fill="#9a32cd" stroke="#9a32cd" points="415.46,-175.65 407.96,-183.12 418.49,-181.96 415.46,-175.65"/>
<text text-anchor="middle" x="507.5" y="-103" font-family="Helvetica,sans-Serif" font-size="10.00"> do_reconnect</text>
<text text-anchor="middle" x="507.5" y="-92" font-family="Helvetica,sans-Serif" font-size="10.00">simple_singleplayer_mode</text>
</g>
<!-- Node5&#45;&gt;Node3 -->
<g id="edge4" class="edge">
<title>Node5&#45;&gt;Node3</title>
<path fill="none" stroke="#9a32cd" stroke-dasharray="5,2" d="M359.54,-182.91C348.16,-178.95 336.23,-172.48 329.5,-162 318.81,-145.35 331.56,-121.96 340.07,-109.53"/>
<polygon fill="#9a32cd" stroke="#9a32cd" points="358.67,-186.3 369.25,-185.79 360.65,-179.59 358.67,-186.3"/>
<text text-anchor="middle" x="382.5" y="-154" font-family="Helvetica,sans-Serif" font-size="10.00"> reconnect_requested</text>
</g>
<!-- Node6 -->
<g id="node6" class="node">
<title>Node6</title>
<g id="a_node6"><a xlink:title=" ">
<polygon fill="white" stroke="#bfbfbf" points="600,-90.5 600,-109.5 629,-109.5 629,-90.5 600,-90.5"/>
<text text-anchor="middle" x="614.5" y="-97.5" font-family="Helvetica,sans-Serif" font-size="10.00">int</text>
</a>
</g>
</g>
<!-- Node6&#45;&gt;Node1 -->
<g id="edge5" class="edge">
<title>Node6&#45;&gt;Node1</title>
<path fill="none" stroke="#9a32cd" stroke-dasharray="5,2" d="M602.47,-82.04C597.76,-76.5 591.94,-70.81 585.5,-67 524.79,-31.1 442.69,-18.22 392.23,-13.59"/>
<polygon fill="#9a32cd" stroke="#9a32cd" points="599.99,-84.56 608.89,-90.32 605.53,-80.27 599.99,-84.56"/>
<text text-anchor="middle" x="582" y="-41" font-family="Helvetica,sans-Serif" font-size="10.00"> selected_world</text>
</g>
</g>
</svg>
        <g id="navigator" transform="translate(0 0)" fill="#404254">
                <rect fill="#f2f5e9" fill-opacity="0.5" stroke="#606060" stroke-width=".5" x="0" y="0" width="60" height="60"/>
                <use id="zoomplus" xlink:href="#zoomPlus" x="17" y="9" onmousedown="handleZoom(evt,'in')"/>
                <use id="zoomminus" xlink:href="#zoomMin" x="42" y="9" onmousedown="handleZoom(evt,'out')"/>
                <use id="reset" xlink:href="#resetDef" x="30" y="36" onmousedown="handleReset()"/>
                <g id="arrowUp" xlink:href="#dirArrow" transform="translate(30 24)" onmousedown="handlePan(0,-1)">
                  <use xlink:href="#rim" fill="#404040">
                        <set attributeName="fill" to="#808080" begin="arrowUp.mouseover" end="arrowUp.mouseout"/>
                  </use>
                  <path fill="none" stroke="white" stroke-width="1.5" d="M0,-3.0v7 M-2.5,-0.5L0,-3.0L2.5,-0.5"/>
                </g>
                <g id="arrowRight" xlink:href="#dirArrow" transform="rotate(90) translate(36 -43)" onmousedown="handlePan(1,0)">
                  <use xlink:href="#rim" fill="#404040">
                        <set attributeName="fill" to="#808080" begin="arrowRight.mouseover" end="arrowRight.mouseout"/>
                  </use>
                  <path fill="none" stroke="white" stroke-width="1.5" d="M0,-3.0v7 M-2.5,-0.5L0,-3.0L2.5,-0.5"/>
                </g>
                <g id="arrowDown" xlink:href="#dirArrow" transform="rotate(180) translate(-30 -48)" onmousedown="handlePan(0,1)">
                  <use xlink:href="#rim" fill="#404040">
                        <set attributeName="fill" to="#808080" begin="arrowDown.mouseover" end="arrowDown.mouseout"/>
                  </use>
                  <path fill="none" stroke="white" stroke-width="1.5" d="M0,-3.0v7 M-2.5,-0.5L0,-3.0L2.5,-0.5"/>
                </g>
                <g id="arrowLeft" xlink:href="#dirArrow" transform="rotate(270) translate(-36 17)" onmousedown="handlePan(-1,0)">
                  <use xlink:href="#rim" fill="#404040">
                        <set attributeName="fill" to="#808080" begin="arrowLeft.mouseover" end="arrowLeft.mouseout"/>
                  </use>
                  <path fill="none" stroke="white" stroke-width="1.5" d="M0,-3.0v7 M-2.5,-0.5L0,-3.0L2.5,-0.5"/>
                </g>
        </g>
        <svg viewBox="0 0 15 15" width="100%" height="30px" preserveAspectRatio="xMaxYMin meet">
         <g id="arrow_out" transform="scale(0.3 0.3)">
          <a xlink:href="structMainMenuData__coll__graph_org.svg" target="_base">
           <rect id="button" ry="5" rx="5" y="6" x="6" height="38" width="38"
                fill="#f2f5e9" fill-opacity="0.5" stroke="#606060" stroke-width="1.0"/>
           <path id="arrow"
             d="M 11.500037,31.436501 C 11.940474,20.09759 22.043105,11.32322 32.158766,21.979434 L 37.068811,17.246167 C 37.068811,17.246167 37.088388,32 37.088388,32 L 22.160133,31.978069 C 22.160133,31.978069 26.997745,27.140456 26.997745,27.140456 C 18.528582,18.264221 13.291696,25.230495 11.500037,31.436501 z"
             style="fill:#404040;"/>
          </a>
         </g>
        </svg>
</svg>
