<?xml version="1.0" encoding="UTF-8" standalone="no"?>
<!DOCTYPE svg PUBLIC "-//W3C//DTD SVG 1.1//EN"
 "http://www.w3.org/Graphics/SVG/1.1/DTD/svg11.dtd">
<!-- Generated by graphviz version 2.43.0 (0)
 -->
<!-- Title: MapBlockMesh::AnimationInfo Pages: 1 -->
<!--zoomable 516 -->
<svg id="main" version="1.1" xmlns="http://www.w3.org/2000/svg" xmlns:xlink="http://www.w3.org/1999/xlink" xml:space="preserve" onload="init(evt)">
<style type="text/css"><![CDATA[
.edge:hover path { stroke: red; }
.edge:hover polygon { stroke: red; fill: red; }
]]></style>
<script type="text/javascript"><![CDATA[
var edges = document.getElementsByTagName('g');
if (edges && edges.length) {
  for (var i=0;i<edges.length;i++) {
    if (edges[i].id.substr(0,4)=='edge') {
      edges[i].setAttribute('class','edge');
    }
  }
}
]]></script>
        <defs>
                <circle id="rim" cx="0" cy="0" r="7"/>
                <circle id="rim2" cx="0" cy="0" r="3.5"/>
                <g id="zoomPlus">
                        <use xlink:href="#rim" fill="#404040">
                                <set attributeName="fill" to="#808080" begin="zoomplus.mouseover" end="zoomplus.mouseout"/>
                        </use>
                        <path d="M-4,0h8M0,-4v8" fill="none" stroke="white" stroke-width="1.5" pointer-events="none"/>
                </g>
                <g id="zoomMin">
                        <use xlink:href="#rim" fill="#404040">
                                <set attributeName="fill" to="#808080" begin="zoomminus.mouseover" end="zoomminus.mouseout"/>
                        </use>
                        <path d="M-4,0h8" fill="none" stroke="white" stroke-width="1.5" pointer-events="none"/>
                </g>
                <g id="dirArrow">
                        <path fill="none" stroke="white" stroke-width="1.5" d="M0,-3.0v7 M-2.5,-0.5L0,-3.0L2.5,-0.5"/>
                </g>
               <g id="resetDef">
                       <use xlink:href="#rim2" fill="#404040">
                               <set attributeName="fill" to="#808080" begin="reset.mouseover" end="reset.mouseout"/>
                       </use>
               </g>
        </defs>

<script type="text/javascript">
var viewWidth = 1610;
var viewHeight = 516;
var sectionId = 'dynsection-0';
</script>
<script xlink:href="svgpan.js"/>
<svg id="graph" class="graph">
<g id="viewport">
<title>MapBlockMesh::AnimationInfo</title>
<polygon fill="white" stroke="transparent" points="-4,4 -4,-512.48 1606,-512.48 1606,4 -4,4"/>
<!-- Node1 -->
<g id="node1" class="node">
<title>Node1</title>
<g id="a_node1"><a xlink:title=" ">
<polygon fill="#bfbfbf" stroke="black" points="1436,-168.98 1436,-187.98 1602,-187.98 1602,-168.98 1436,-168.98"/>
<text text-anchor="middle" x="1519" y="-175.98" font-family="Helvetica,sans-Serif" font-size="10.00">MapBlockMesh::AnimationInfo</text>
</a>
</g>
</g>
<!-- Node2 -->
<g id="node2" class="node">
<title>Node2</title>
<g id="a_node2"><a xlink:href="structTileLayer.html" target="_top" xlink:title="Defines a layer of a tile.">
<polygon fill="white" stroke="black" points="1272,-191.98 1272,-210.98 1334,-210.98 1334,-191.98 1272,-191.98"/>
<text text-anchor="middle" x="1303" y="-198.98" font-family="Helvetica,sans-Serif" font-size="10.00">TileLayer</text>
</a>
</g>
</g>
<!-- Node2&#45;&gt;Node1 -->
<g id="edge1" class="edge">
<title>Node2&#45;&gt;Node1</title>
<path fill="none" stroke="#9a32cd" stroke-dasharray="5,2" d="M1344.34,-197.14C1370.11,-194.37 1404.46,-190.68 1435.8,-187.31"/>
<polygon fill="#9a32cd" stroke="#9a32cd" points="1343.78,-193.68 1334.21,-198.23 1344.52,-200.64 1343.78,-193.68"/>
<text text-anchor="middle" x="1385" y="-198.48" font-family="Helvetica,sans-Serif" font-size="10.00"> tile</text>
</g>
<!-- Node3 -->
<g id="node3" class="node">
<title>Node3</title>
<g id="a_node3"><a xlink:href="classirr_1_1video_1_1SColor.html" target="_top" xlink:title="Class representing a 32 bit ARGB color.">
<polygon fill="white" stroke="black" points="846.5,-438.98 846.5,-457.98 944.5,-457.98 944.5,-438.98 846.5,-438.98"/>
<text text-anchor="middle" x="895.5" y="-445.98" font-family="Helvetica,sans-Serif" font-size="10.00">irr::video::SColor</text>
</a>
</g>
</g>
<!-- Node3&#45;&gt;Node2 -->
<g id="edge2" class="edge">
<title>Node3&#45;&gt;Node2</title>
<path fill="none" stroke="#9a32cd" stroke-dasharray="5,2" d="M954.96,-448.08C1033.29,-444.38 1171.9,-426.17 1254,-347.48 1293.87,-309.26 1300.65,-237.39 1301.78,-211.27"/>
<polygon fill="#9a32cd" stroke="#9a32cd" points="954.64,-444.6 944.79,-448.5 954.93,-451.59 954.64,-444.6"/>
<text text-anchor="middle" x="1029" y="-450.48" font-family="Helvetica,sans-Serif" font-size="10.00"> color</text>
</g>
<!-- Node4 -->
<g id="node4" class="node">
<title>Node4</title>
<g id="a_node4"><a xlink:title=" ">
<polygon fill="white" stroke="#bfbfbf" points="471,-334.98 471,-353.98 527,-353.98 527,-334.98 471,-334.98"/>
<text text-anchor="middle" x="499" y="-341.98" font-family="Helvetica,sans-Serif" font-size="10.00">uint32_t</text>
</a>
</g>
</g>
<!-- Node4&#45;&gt;Node3 -->
<g id="edge3" class="edge">
<title>Node4&#45;&gt;Node3</title>
<path fill="none" stroke="#9a32cd" stroke-dasharray="5,2" d="M536.68,-355.55C577.05,-367.61 643.93,-387.21 702,-402.48 753.51,-416.02 813.21,-430.03 852.31,-438.97"/>
<polygon fill="#9a32cd" stroke="#9a32cd" points="537.6,-352.17 527.01,-352.65 535.59,-358.87 537.6,-352.17"/>
<text text-anchor="middle" x="638.5" y="-399.48" font-family="Helvetica,sans-Serif" font-size="10.00"> color</text>
</g>
<!-- Node7 -->
<g id="node7" class="node">
<title>Node7</title>
<g id="a_node7"><a xlink:href="classirr_1_1video_1_1ITexture.html" target="_top" xlink:title="Interface of a Video Driver dependent Texture.">
<polygon fill="white" stroke="black" points="976.5,-209.98 976.5,-228.98 1081.5,-228.98 1081.5,-209.98 976.5,-209.98"/>
<text text-anchor="middle" x="1029" y="-216.98" font-family="Helvetica,sans-Serif" font-size="10.00">irr::video::ITexture</text>
</a>
</g>
</g>
<!-- Node4&#45;&gt;Node7 -->
<g id="edge17" class="edge">
<title>Node4&#45;&gt;Node7</title>
<path fill="none" stroke="#9a32cd" stroke-dasharray="5,2" d="M537.28,-344.45C638.72,-344.05 914.22,-340.55 945,-314.48 971.49,-292.04 939.1,-263.65 963,-238.48 966.8,-234.47 971.4,-231.29 976.38,-228.78"/>
<polygon fill="#9a32cd" stroke="#9a32cd" points="537.17,-340.96 527.18,-344.49 537.19,-347.96 537.17,-340.96"/>
<text text-anchor="middle" x="765" y="-344.48" font-family="Helvetica,sans-Serif" font-size="10.00"> Pitch</text>
</g>
<!-- Node11 -->
<g id="node11" class="node">
<title>Node11</title>
<g id="a_node11"><a xlink:href="classirr_1_1core_1_1dimension2d.html" target="_top" xlink:title=" ">
<polygon fill="white" stroke="black" points="703.5,-201.48 703.5,-231.48 826.5,-231.48 826.5,-201.48 703.5,-201.48"/>
<text text-anchor="start" x="711.5" y="-219.48" font-family="Helvetica,sans-Serif" font-size="10.00">irr::core::dimension2d</text>
<text text-anchor="middle" x="765" y="-208.48" font-family="Helvetica,sans-Serif" font-size="10.00">&lt; u32 &gt;</text>
</a>
</g>
</g>
<!-- Node4&#45;&gt;Node11 -->
<g id="edge11" class="edge">
<title>Node4&#45;&gt;Node11</title>
<path fill="none" stroke="#9a32cd" stroke-dasharray="5,2" d="M526.53,-330C564.79,-309.34 637.93,-270.66 702,-241.48 709.39,-238.11 717.38,-234.71 725.08,-231.56"/>
<polygon fill="#9a32cd" stroke="#9a32cd" points="524.7,-327.01 517.58,-334.85 528.04,-333.16 524.7,-327.01"/>
<text text-anchor="middle" x="638.5" y="-306.48" font-family="Helvetica,sans-Serif" font-size="10.00"> Width</text>
<text text-anchor="middle" x="638.5" y="-295.48" font-family="Helvetica,sans-Serif" font-size="10.00">Height</text>
</g>
<!-- Node5 -->
<g id="node5" class="node">
<title>Node5</title>
<g id="a_node5"><a xlink:title=" ">
<polygon fill="white" stroke="#bfbfbf" points="1011.5,-303.98 1011.5,-322.98 1046.5,-322.98 1046.5,-303.98 1011.5,-303.98"/>
<text text-anchor="middle" x="1029" y="-310.98" font-family="Helvetica,sans-Serif" font-size="10.00">u16</text>
</a>
</g>
</g>
<!-- Node5&#45;&gt;Node2 -->
<g id="edge4" class="edge">
<title>Node5&#45;&gt;Node2</title>
<path fill="none" stroke="#9a32cd" stroke-dasharray="5,2" d="M1056.74,-318.03C1101.62,-324.18 1193.16,-330.13 1254,-289.48 1282.07,-270.72 1295.16,-229.85 1299.86,-211.16"/>
<polygon fill="#9a32cd" stroke="#9a32cd" points="1057.04,-314.54 1046.63,-316.54 1056.01,-321.46 1057.04,-314.54"/>
<text text-anchor="middle" x="1183.5" y="-335.48" font-family="Helvetica,sans-Serif" font-size="10.00"> animation_frame_count</text>
<text text-anchor="middle" x="1183.5" y="-324.48" font-family="Helvetica,sans-Serif" font-size="10.00">animation_frame_length_ms</text>
</g>
<!-- Node6 -->
<g id="node6" class="node">
<title>Node6</title>
<g id="a_node6"><a xlink:title=" ">
<polygon fill="white" stroke="#bfbfbf" points="1014.5,-247.98 1014.5,-266.98 1043.5,-266.98 1043.5,-247.98 1014.5,-247.98"/>
<text text-anchor="middle" x="1029" y="-254.98" font-family="Helvetica,sans-Serif" font-size="10.00">u8</text>
</a>
</g>
</g>
<!-- Node6&#45;&gt;Node2 -->
<g id="edge5" class="edge">
<title>Node6&#45;&gt;Node2</title>
<path fill="none" stroke="#9a32cd" stroke-dasharray="5,2" d="M1053.68,-256.68C1103.55,-254.77 1217.75,-249 1254,-235.48 1268.54,-230.05 1282.74,-219.08 1291.87,-211.06"/>
<polygon fill="#9a32cd" stroke="#9a32cd" points="1053.4,-253.19 1043.54,-257.05 1053.66,-260.19 1053.4,-253.19"/>
<text text-anchor="middle" x="1183.5" y="-277.48" font-family="Helvetica,sans-Serif" font-size="10.00"> scale</text>
<text text-anchor="middle" x="1183.5" y="-266.48" font-family="Helvetica,sans-Serif" font-size="10.00">material_flags</text>
<text text-anchor="middle" x="1183.5" y="-255.48" font-family="Helvetica,sans-Serif" font-size="10.00">material_type</text>
</g>
<!-- Node7&#45;&gt;Node2 -->
<g id="edge6" class="edge">
<title>Node7&#45;&gt;Node2</title>
<path fill="none" stroke="#9a32cd" stroke-dasharray="5,2" d="M1078.66,-207.85C1089.87,-205.63 1101.8,-203.64 1113,-202.48 1168.81,-196.67 1234.39,-198.17 1271.79,-199.81"/>
<polygon fill="#9a32cd" stroke="#9a32cd" points="1077.69,-204.47 1068.6,-209.93 1079.1,-211.33 1077.69,-204.47"/>
<text text-anchor="middle" x="1183.5" y="-227.48" font-family="Helvetica,sans-Serif" font-size="10.00"> normal_texture</text>
<text text-anchor="middle" x="1183.5" y="-216.48" font-family="Helvetica,sans-Serif" font-size="10.00">texture</text>
<text text-anchor="middle" x="1183.5" y="-205.48" font-family="Helvetica,sans-Serif" font-size="10.00">flags_texture</text>
</g>
<!-- Node8 -->
<g id="node8" class="node">
<title>Node8</title>
<g id="a_node8"><a xlink:href="classirr_1_1IReferenceCounted.html" target="_top" xlink:title="Base class of most objects of the Irrlicht Engine.">
<polygon fill="white" stroke="black" points="702,-162.98 702,-181.98 828,-181.98 828,-162.98 702,-162.98"/>
<text text-anchor="middle" x="765" y="-169.98" font-family="Helvetica,sans-Serif" font-size="10.00">irr::IReferenceCounted</text>
</a>
</g>
</g>
<!-- Node8&#45;&gt;Node7 -->
<g id="edge7" class="edge">
<title>Node8&#45;&gt;Node7</title>
<path fill="none" stroke="midnightblue" d="M828.99,-183.78C874.1,-191.87 934.11,-202.63 976.4,-210.22"/>
<polygon fill="midnightblue" stroke="midnightblue" points="829.48,-180.31 819.02,-181.99 828.24,-187.2 829.48,-180.31"/>
</g>
<!-- Node9 -->
<g id="node9" class="node">
<title>Node9</title>
<g id="a_node9"><a xlink:title=" ">
<polygon fill="white" stroke="#bfbfbf" points="480,-127.98 480,-146.98 518,-146.98 518,-127.98 480,-127.98"/>
<text text-anchor="middle" x="499" y="-134.98" font-family="Helvetica,sans-Serif" font-size="10.00">char</text>
</a>
</g>
</g>
<!-- Node9&#45;&gt;Node8 -->
<g id="edge8" class="edge">
<title>Node9&#45;&gt;Node8</title>
<path fill="none" stroke="#9a32cd" stroke-dasharray="5,2" d="M528.35,-140.18C564.54,-143.76 629.06,-150.54 684,-158.48 693.07,-159.79 702.69,-161.33 712,-162.91"/>
<polygon fill="#9a32cd" stroke="#9a32cd" points="528.36,-136.67 518.07,-139.18 527.68,-143.63 528.36,-136.67"/>
<text text-anchor="middle" x="638.5" y="-161.48" font-family="Helvetica,sans-Serif" font-size="10.00"> DebugName</text>
</g>
<!-- Node10 -->
<g id="node10" class="node">
<title>Node10</title>
<g id="a_node10"><a xlink:title=" ">
<polygon fill="white" stroke="#bfbfbf" points="474,-165.98 474,-184.98 524,-184.98 524,-165.98 474,-165.98"/>
<text text-anchor="middle" x="499" y="-172.98" font-family="Helvetica,sans-Serif" font-size="10.00">int32_t</text>
</a>
</g>
</g>
<!-- Node10&#45;&gt;Node8 -->
<g id="edge9" class="edge">
<title>Node10&#45;&gt;Node8</title>
<path fill="none" stroke="#9a32cd" stroke-dasharray="5,2" d="M534.46,-175.08C576.87,-174.6 649.66,-173.78 701.92,-173.18"/>
<polygon fill="#9a32cd" stroke="#9a32cd" points="534.32,-171.59 524.36,-175.2 534.4,-178.59 534.32,-171.59"/>
<text text-anchor="middle" x="638.5" y="-177.48" font-family="Helvetica,sans-Serif" font-size="10.00"> ReferenceCounter</text>
</g>
<!-- Node11&#45;&gt;Node7 -->
<g id="edge10" class="edge">
<title>Node11&#45;&gt;Node7</title>
<path fill="none" stroke="#9a32cd" stroke-dasharray="5,2" d="M836.84,-217.29C880.88,-217.79 936.52,-218.43 976.39,-218.89"/>
<polygon fill="#9a32cd" stroke="#9a32cd" points="836.81,-213.79 826.77,-217.17 836.73,-220.79 836.81,-213.79"/>
<text text-anchor="middle" x="895.5" y="-232.48" font-family="Helvetica,sans-Serif" font-size="10.00"> Size</text>
<text text-anchor="middle" x="895.5" y="-221.48" font-family="Helvetica,sans-Serif" font-size="10.00">OriginalSize</text>
</g>
<!-- Node12 -->
<g id="node12" class="node">
<title>Node12</title>
<g id="a_node12"><a xlink:href="classirr_1_1core_1_1dimension2d.html" target="_top" xlink:title="Specifies a 2 dimensional size.">
<polygon fill="white" stroke="black" points="423,-206.98 423,-225.98 575,-225.98 575,-206.98 423,-206.98"/>
<text text-anchor="middle" x="499" y="-213.98" font-family="Helvetica,sans-Serif" font-size="10.00">irr::core::dimension2d&lt; T &gt;</text>
</a>
</g>
</g>
<!-- Node12&#45;&gt;Node11 -->
<g id="edge12" class="edge">
<title>Node12&#45;&gt;Node11</title>
<path fill="none" stroke="orange" stroke-dasharray="5,2" d="M585.44,-216.48C623.86,-216.48 668.31,-216.48 703.25,-216.48"/>
<polygon fill="orange" stroke="orange" points="585.3,-212.98 575.3,-216.48 585.3,-219.98 585.3,-212.98"/>
<text text-anchor="middle" x="638.5" y="-219.48" font-family="Helvetica,sans-Serif" font-size="10.00"> &lt; u32 &gt;</text>
</g>
<!-- Node13 -->
<g id="node13" class="node">
<title>Node13</title>
<g id="a_node13"><a xlink:title=" ">
<polygon fill="white" stroke="#bfbfbf" points="239,-206.98 239,-225.98 268,-225.98 268,-206.98 239,-206.98"/>
<text text-anchor="middle" x="253.5" y="-213.98" font-family="Helvetica,sans-Serif" font-size="10.00">T</text>
</a>
</g>
</g>
<!-- Node13&#45;&gt;Node12 -->
<g id="edge13" class="edge">
<title>Node13&#45;&gt;Node12</title>
<path fill="none" stroke="#9a32cd" stroke-dasharray="5,2" d="M278.42,-216.48C311.67,-216.48 373.37,-216.48 422.92,-216.48"/>
<polygon fill="#9a32cd" stroke="#9a32cd" points="278.29,-212.98 268.29,-216.48 278.29,-219.98 278.29,-212.98"/>
<text text-anchor="middle" x="372.5" y="-230.48" font-family="Helvetica,sans-Serif" font-size="10.00"> Width</text>
<text text-anchor="middle" x="372.5" y="-219.48" font-family="Helvetica,sans-Serif" font-size="10.00">Height</text>
</g>
<!-- Node14 -->
<g id="node14" class="node">
<title>Node14</title>
<g id="a_node14"><a xlink:title=" ">
<polygon fill="white" stroke="#bfbfbf" points="705.5,-80.98 705.5,-99.98 824.5,-99.98 824.5,-80.98 705.5,-80.98"/>
<text text-anchor="middle" x="765" y="-87.98" font-family="Helvetica,sans-Serif" font-size="10.00">E_TEXTURE_SOURCE</text>
</a>
</g>
</g>
<!-- Node14&#45;&gt;Node7 -->
<g id="edge14" class="edge">
<title>Node14&#45;&gt;Node7</title>
<path fill="none" stroke="#9a32cd" stroke-dasharray="5,2" d="M834.72,-92.43C869.67,-95.99 911.68,-104.39 945,-123.48 982.66,-145.05 1011.51,-190.27 1022.81,-209.97"/>
<polygon fill="#9a32cd" stroke="#9a32cd" points="834.86,-88.93 824.59,-91.51 834.23,-95.9 834.86,-88.93"/>
<text text-anchor="middle" x="895.5" y="-126.48" font-family="Helvetica,sans-Serif" font-size="10.00"> Source</text>
</g>
<!-- Node15 -->
<g id="node15" class="node">
<title>Node15</title>
<g id="a_node15"><a xlink:title=" ">
<polygon fill="white" stroke="#bfbfbf" points="713.5,-373.98 713.5,-392.98 816.5,-392.98 816.5,-373.98 713.5,-373.98"/>
<text text-anchor="middle" x="765" y="-380.98" font-family="Helvetica,sans-Serif" font-size="10.00">ECOLOR_FORMAT</text>
</a>
</g>
</g>
<!-- Node15&#45;&gt;Node7 -->
<g id="edge15" class="edge">
<title>Node15&#45;&gt;Node7</title>
<path fill="none" stroke="#9a32cd" stroke-dasharray="5,2" d="M826.72,-377.53C875.27,-372.19 936.58,-363.92 945,-355.48 982.16,-318.23 928.33,-278.05 963,-238.48 966.72,-234.23 971.33,-230.91 976.36,-228.32"/>
<polygon fill="#9a32cd" stroke="#9a32cd" points="826.15,-374.07 816.58,-378.62 826.9,-381.03 826.15,-374.07"/>
<text text-anchor="middle" x="895.5" y="-388.48" font-family="Helvetica,sans-Serif" font-size="10.00"> ColorFormat</text>
<text text-anchor="middle" x="895.5" y="-377.48" font-family="Helvetica,sans-Serif" font-size="10.00">OriginalColorFormat</text>
</g>
<!-- Node16 -->
<g id="node16" class="node">
<title>Node16</title>
<g id="a_node16"><a xlink:title=" ">
<polygon fill="white" stroke="#bfbfbf" points="718,-288.98 718,-307.98 812,-307.98 812,-288.98 718,-288.98"/>
<text text-anchor="middle" x="765" y="-295.98" font-family="Helvetica,sans-Serif" font-size="10.00">E_DRIVER_TYPE</text>
</a>
</g>
</g>
<!-- Node16&#45;&gt;Node7 -->
<g id="edge16" class="edge">
<title>Node16&#45;&gt;Node7</title>
<path fill="none" stroke="#9a32cd" stroke-dasharray="5,2" d="M822.58,-301.36C860.3,-300.56 909.32,-294.03 945,-269.48 958.13,-260.45 950.46,-248.3 963,-238.48 968,-234.56 973.78,-231.45 979.79,-228.98"/>
<polygon fill="#9a32cd" stroke="#9a32cd" points="822.23,-297.86 812.26,-301.44 822.28,-304.86 822.23,-297.86"/>
<text text-anchor="middle" x="895.5" y="-302.48" font-family="Helvetica,sans-Serif" font-size="10.00"> DriverType</text>
</g>
<!-- Node17 -->
<g id="node17" class="node">
<title>Node17</title>
<g id="a_node17"><a xlink:href="structirr_1_1io_1_1SNamedPath.html" target="_top" xlink:title="Used in places where we identify objects by a filename, but don&#39;t actually work with the real filenam...">
<polygon fill="white" stroke="black" points="710,-449.98 710,-468.98 820,-468.98 820,-449.98 710,-449.98"/>
<text text-anchor="middle" x="765" y="-456.98" font-family="Helvetica,sans-Serif" font-size="10.00">irr::io::SNamedPath</text>
</a>
</g>
</g>
<!-- Node17&#45;&gt;Node7 -->
<g id="edge18" class="edge">
<title>Node17&#45;&gt;Node7</title>
<path fill="none" stroke="#9a32cd" stroke-dasharray="5,2" d="M791.89,-445.27C807.24,-437.34 827.3,-427.8 846,-421.48 888.61,-407.06 914.8,-433.81 945,-400.48 993.64,-346.8 916.41,-293.95 963,-238.48 966.7,-234.06 971.37,-230.65 976.5,-228"/>
<polygon fill="#9a32cd" stroke="#9a32cd" points="790.2,-442.21 782.99,-449.97 793.47,-448.4 790.2,-442.21"/>
<text text-anchor="middle" x="895.5" y="-424.48" font-family="Helvetica,sans-Serif" font-size="10.00"> NamedPath</text>
</g>
<!-- Node18 -->
<g id="node18" class="node">
<title>Node18</title>
<g id="a_node18"><a xlink:href="classirr_1_1core_1_1string.html" target="_top" xlink:title=" ">
<polygon fill="white" stroke="black" points="451,-444.48 451,-474.48 547,-474.48 547,-444.48 451,-444.48"/>
<text text-anchor="start" x="459" y="-462.48" font-family="Helvetica,sans-Serif" font-size="10.00">irr::core::string&lt;</text>
<text text-anchor="middle" x="499" y="-451.48" font-family="Helvetica,sans-Serif" font-size="10.00"> fschar_t &gt;</text>
</a>
</g>
</g>
<!-- Node18&#45;&gt;Node17 -->
<g id="edge19" class="edge">
<title>Node18&#45;&gt;Node17</title>
<path fill="none" stroke="#9a32cd" stroke-dasharray="5,2" d="M557.45,-459.48C602.77,-459.48 665.51,-459.48 709.93,-459.48"/>
<polygon fill="#9a32cd" stroke="#9a32cd" points="557.2,-455.98 547.2,-459.48 557.2,-462.98 557.2,-455.98"/>
<text text-anchor="middle" x="638.5" y="-473.48" font-family="Helvetica,sans-Serif" font-size="10.00"> Path</text>
<text text-anchor="middle" x="638.5" y="-462.48" font-family="Helvetica,sans-Serif" font-size="10.00">InternalName</text>
</g>
<!-- Node19 -->
<g id="node19" class="node">
<title>Node19</title>
<g id="a_node19"><a xlink:title=" ">
<polygon fill="white" stroke="#bfbfbf" points="185,-488.98 185,-507.98 322,-507.98 322,-488.98 185,-488.98"/>
<text text-anchor="middle" x="253.5" y="-495.98" font-family="Helvetica,sans-Serif" font-size="10.00">basic_string&lt; fschar_t &gt;</text>
</a>
</g>
</g>
<!-- Node19&#45;&gt;Node18 -->
<g id="edge20" class="edge">
<title>Node19&#45;&gt;Node18</title>
<path fill="none" stroke="#9a32cd" stroke-dasharray="5,2" d="M324.17,-487.32C364.76,-480.82 414.87,-472.79 450.84,-467.03"/>
<polygon fill="#9a32cd" stroke="#9a32cd" points="323.39,-483.9 314.07,-488.94 324.49,-490.81 323.39,-483.9"/>
<text text-anchor="middle" x="372.5" y="-487.48" font-family="Helvetica,sans-Serif" font-size="10.00"> str</text>
</g>
<!-- Node20 -->
<g id="node20" class="node">
<title>Node20</title>
<g id="a_node20"><a xlink:title=" ">
<polygon fill="white" stroke="#bfbfbf" points="0,-438.98 0,-457.98 122,-457.98 122,-438.98 0,-438.98"/>
<text text-anchor="middle" x="61" y="-445.98" font-family="Helvetica,sans-Serif" font-size="10.00">static const size_type</text>
</a>
</g>
</g>
<!-- Node20&#45;&gt;Node18 -->
<g id="edge21" class="edge">
<title>Node20&#45;&gt;Node18</title>
<path fill="none" stroke="#9a32cd" stroke-dasharray="5,2" d="M132.23,-450.25C221.74,-452.51 374.05,-456.35 450.81,-458.29"/>
<polygon fill="#9a32cd" stroke="#9a32cd" points="132.25,-446.75 122.17,-449.99 132.07,-453.75 132.25,-446.75"/>
<text text-anchor="middle" x="253.5" y="-457.48" font-family="Helvetica,sans-Serif" font-size="10.00"> npos</text>
</g>
<!-- Node21 -->
<g id="node21" class="node">
<title>Node21</title>
<g id="a_node21"><a xlink:href="classirr_1_1core_1_1string.html" target="_top" xlink:title="Very simple string class with some useful features.">
<polygon fill="white" stroke="black" points="195.5,-403.98 195.5,-422.98 311.5,-422.98 311.5,-403.98 195.5,-403.98"/>
<text text-anchor="middle" x="253.5" y="-410.98" font-family="Helvetica,sans-Serif" font-size="10.00">irr::core::string&lt; T &gt;</text>
</a>
</g>
</g>
<!-- Node20&#45;&gt;Node21 -->
<g id="edge24" class="edge">
<title>Node20&#45;&gt;Node21</title>
<path fill="none" stroke="#9a32cd" stroke-dasharray="5,2" d="M123.85,-437.11C148.68,-432.55 176.98,-427.35 200.71,-422.99"/>
<polygon fill="#9a32cd" stroke="#9a32cd" points="123.01,-433.71 113.8,-438.96 124.27,-440.59 123.01,-433.71"/>
<text text-anchor="middle" x="153.5" y="-436.48" font-family="Helvetica,sans-Serif" font-size="10.00"> npos</text>
</g>
<!-- Node21&#45;&gt;Node18 -->
<g id="edge22" class="edge">
<title>Node21&#45;&gt;Node18</title>
<path fill="none" stroke="orange" stroke-dasharray="5,2" d="M321.77,-421.05C347.88,-424.46 377.95,-428.98 405,-434.48 420.07,-437.54 436.32,-441.63 450.96,-445.62"/>
<polygon fill="orange" stroke="orange" points="321.96,-417.55 311.6,-419.75 321.07,-424.49 321.96,-417.55"/>
<text text-anchor="middle" x="372.5" y="-437.48" font-family="Helvetica,sans-Serif" font-size="10.00"> &lt; fschar_t &gt;</text>
</g>
<!-- Node22 -->
<g id="node22" class="node">
<title>Node22</title>
<g id="a_node22"><a xlink:title=" ">
<polygon fill="white" stroke="#bfbfbf" points="9,-389.98 9,-408.98 113,-408.98 113,-389.98 9,-389.98"/>
<text text-anchor="middle" x="61" y="-396.98" font-family="Helvetica,sans-Serif" font-size="10.00">basic_string&lt; T &gt;</text>
</a>
</g>
</g>
<!-- Node22&#45;&gt;Node21 -->
<g id="edge23" class="edge">
<title>Node22&#45;&gt;Node21</title>
<path fill="none" stroke="#9a32cd" stroke-dasharray="5,2" d="M123.33,-398.6C137.68,-398.8 152.89,-399.34 167,-400.48 176.88,-401.27 187.35,-402.52 197.44,-403.94"/>
<polygon fill="#9a32cd" stroke="#9a32cd" points="123.1,-395.1 113.07,-398.52 123.04,-402.1 123.1,-395.1"/>
<text text-anchor="middle" x="153.5" y="-403.48" font-family="Helvetica,sans-Serif" font-size="10.00"> str</text>
</g>
<!-- Node23 -->
<g id="node23" class="node">
<title>Node23</title>
<g id="a_node23"><a xlink:href="classbool.html" target="_top" xlink:title=" ">
<polygon fill="white" stroke="black" points="746,-121.98 746,-140.98 784,-140.98 784,-121.98 746,-121.98"/>
<text text-anchor="middle" x="765" y="-128.98" font-family="Helvetica,sans-Serif" font-size="10.00">bool</text>
</a>
</g>
</g>
<!-- Node23&#45;&gt;Node2 -->
<g id="edge27" class="edge">
<title>Node23&#45;&gt;Node2</title>
<path fill="none" stroke="#9a32cd" stroke-dasharray="5,2" d="M794.15,-130.49C829.49,-129.58 891.9,-129.09 945,-134.48 1067.34,-146.89 1210.44,-179.27 1271.69,-193.99"/>
<polygon fill="#9a32cd" stroke="#9a32cd" points="793.99,-126.99 784.1,-130.77 794.19,-133.99 793.99,-126.99"/>
<text text-anchor="middle" x="1029" y="-159.48" font-family="Helvetica,sans-Serif" font-size="10.00"> has_color</text>
</g>
<!-- Node23&#45;&gt;Node7 -->
<g id="edge25" class="edge">
<title>Node23&#45;&gt;Node7</title>
<path fill="none" stroke="#9a32cd" stroke-dasharray="5,2" d="M794.54,-132.67C830.75,-135.01 894.57,-141.95 945,-162.48 973.49,-174.08 1002.04,-196.67 1017.1,-209.65"/>
<polygon fill="#9a32cd" stroke="#9a32cd" points="794.41,-129.15 784.23,-132.08 794.01,-136.14 794.41,-129.15"/>
<text text-anchor="middle" x="895.5" y="-176.48" font-family="Helvetica,sans-Serif" font-size="10.00"> IsRenderTarget</text>
<text text-anchor="middle" x="895.5" y="-165.48" font-family="Helvetica,sans-Serif" font-size="10.00">HasMipMaps</text>
</g>
<!-- Node24 -->
<g id="node24" class="node">
<title>Node24</title>
<g id="a_node24"><a xlink:title=" ">
<polygon fill="white" stroke="#bfbfbf" points="714,-250.98 714,-269.98 816,-269.98 816,-250.98 714,-250.98"/>
<text text-anchor="middle" x="765" y="-257.98" font-family="Helvetica,sans-Serif" font-size="10.00">E_TEXTURE_TYPE</text>
</a>
</g>
</g>
<!-- Node24&#45;&gt;Node7 -->
<g id="edge26" class="edge">
<title>Node24&#45;&gt;Node7</title>
<path fill="none" stroke="#9a32cd" stroke-dasharray="5,2" d="M826.13,-256.99C861.04,-254.33 905.74,-249.83 945,-242.48 954.77,-240.64 976.79,-234.51 995.7,-229.03"/>
<polygon fill="#9a32cd" stroke="#9a32cd" points="825.81,-253.51 816.09,-257.73 826.32,-260.49 825.81,-253.51"/>
<text text-anchor="middle" x="895.5" y="-257.48" font-family="Helvetica,sans-Serif" font-size="10.00"> Type</text>
</g>
<!-- Node25 -->
<g id="node25" class="node">
<title>Node25</title>
<g id="a_node25"><a xlink:title=" ">
<polygon fill="white" stroke="#bfbfbf" points="963,-60.98 963,-79.98 1095,-79.98 1095,-60.98 963,-60.98"/>
<text text-anchor="middle" x="1029" y="-67.98" font-family="Helvetica,sans-Serif" font-size="10.00">vector&lt; FrameSpec &gt; *</text>
</a>
</g>
</g>
<!-- Node25&#45;&gt;Node2 -->
<g id="edge28" class="edge">
<title>Node25&#45;&gt;Node2</title>
<path fill="none" stroke="#9a32cd" stroke-dasharray="5,2" d="M1082.96,-59.34C1133.26,-52.09 1207.84,-50.45 1254,-91.48 1282.54,-116.84 1252.57,-142.61 1272,-175.48 1275.79,-181.88 1281.72,-187.51 1287.31,-191.88"/>
<polygon fill="#9a32cd" stroke="#9a32cd" points="1082.27,-55.91 1072.93,-60.91 1083.35,-62.82 1082.27,-55.91"/>
<text text-anchor="middle" x="1183.5" y="-94.48" font-family="Helvetica,sans-Serif" font-size="10.00"> frames</text>
</g>
<!-- Node26 -->
<g id="node26" class="node">
<title>Node26</title>
<g id="a_node26"><a xlink:title=" ">
<polygon fill="white" stroke="#bfbfbf" points="1011.5,-19.98 1011.5,-38.98 1046.5,-38.98 1046.5,-19.98 1011.5,-19.98"/>
<text text-anchor="middle" x="1029" y="-26.98" font-family="Helvetica,sans-Serif" font-size="10.00">u32</text>
</a>
</g>
</g>
<!-- Node26&#45;&gt;Node2 -->
<g id="edge29" class="edge">
<title>Node26&#45;&gt;Node2</title>
<path fill="none" stroke="#9a32cd" stroke-dasharray="5,2" d="M1056.2,-19.63C1102.42,-4.15 1198.75,19.38 1254,-29.48 1278.49,-51.13 1256.62,-146.63 1272,-175.48 1275.44,-181.92 1281.17,-187.49 1286.71,-191.8"/>
<polygon fill="#9a32cd" stroke="#9a32cd" points="1054.91,-16.38 1046.62,-22.97 1057.21,-22.99 1054.91,-16.38"/>
<text text-anchor="middle" x="1183.5" y="-43.48" font-family="Helvetica,sans-Serif" font-size="10.00"> shader_id</text>
<text text-anchor="middle" x="1183.5" y="-32.48" font-family="Helvetica,sans-Serif" font-size="10.00">texture_id</text>
</g>
<!-- Node27 -->
<g id="node27" class="node">
<title>Node27</title>
<g id="a_node27"><a xlink:title=" ">
<polygon fill="white" stroke="#bfbfbf" points="1288.5,-146.98 1288.5,-165.98 1317.5,-165.98 1317.5,-146.98 1288.5,-146.98"/>
<text text-anchor="middle" x="1303" y="-153.98" font-family="Helvetica,sans-Serif" font-size="10.00">int</text>
</a>
</g>
</g>
<!-- Node27&#45;&gt;Node1 -->
<g id="edge30" class="edge">
<title>Node27&#45;&gt;Node1</title>
<path fill="none" stroke="#9a32cd" stroke-dasharray="5,2" d="M1327.98,-155.31C1351.11,-154.51 1387.05,-154.12 1418,-157.48 1439.16,-159.77 1462.46,-164.53 1481.24,-168.93"/>
<polygon fill="#9a32cd" stroke="#9a32cd" points="1327.59,-151.83 1317.74,-155.72 1327.87,-158.82 1327.59,-151.83"/>
<text text-anchor="middle" x="1385" y="-171.48" font-family="Helvetica,sans-Serif" font-size="10.00"> frame_offset</text>
<text text-anchor="middle" x="1385" y="-160.48" font-family="Helvetica,sans-Serif" font-size="10.00">frame</text>
</g>
</g>
</svg>
        <g id="navigator" transform="translate(0 0)" fill="#404254">
                <rect fill="#f2f5e9" fill-opacity="0.5" stroke="#606060" stroke-width=".5" x="0" y="0" width="60" height="60"/>
                <use id="zoomplus" xlink:href="#zoomPlus" x="17" y="9" onmousedown="handleZoom(evt,'in')"/>
                <use id="zoomminus" xlink:href="#zoomMin" x="42" y="9" onmousedown="handleZoom(evt,'out')"/>
                <use id="reset" xlink:href="#resetDef" x="30" y="36" onmousedown="handleReset()"/>
                <g id="arrowUp" xlink:href="#dirArrow" transform="translate(30 24)" onmousedown="handlePan(0,-1)">
                  <use xlink:href="#rim" fill="#404040">
                        <set attributeName="fill" to="#808080" begin="arrowUp.mouseover" end="arrowUp.mouseout"/>
                  </use>
                  <path fill="none" stroke="white" stroke-width="1.5" d="M0,-3.0v7 M-2.5,-0.5L0,-3.0L2.5,-0.5"/>
                </g>
                <g id="arrowRight" xlink:href="#dirArrow" transform="rotate(90) translate(36 -43)" onmousedown="handlePan(1,0)">
                  <use xlink:href="#rim" fill="#404040">
                        <set attributeName="fill" to="#808080" begin="arrowRight.mouseover" end="arrowRight.mouseout"/>
                  </use>
                  <path fill="none" stroke="white" stroke-width="1.5" d="M0,-3.0v7 M-2.5,-0.5L0,-3.0L2.5,-0.5"/>
                </g>
                <g id="arrowDown" xlink:href="#dirArrow" transform="rotate(180) translate(-30 -48)" onmousedown="handlePan(0,1)">
                  <use xlink:href="#rim" fill="#404040">
                        <set attributeName="fill" to="#808080" begin="arrowDown.mouseover" end="arrowDown.mouseout"/>
                  </use>
                  <path fill="none" stroke="white" stroke-width="1.5" d="M0,-3.0v7 M-2.5,-0.5L0,-3.0L2.5,-0.5"/>
                </g>
                <g id="arrowLeft" xlink:href="#dirArrow" transform="rotate(270) translate(-36 17)" onmousedown="handlePan(-1,0)">
                  <use xlink:href="#rim" fill="#404040">
                        <set attributeName="fill" to="#808080" begin="arrowLeft.mouseover" end="arrowLeft.mouseout"/>
                  </use>
                  <path fill="none" stroke="white" stroke-width="1.5" d="M0,-3.0v7 M-2.5,-0.5L0,-3.0L2.5,-0.5"/>
                </g>
        </g>
        <svg viewBox="0 0 15 15" width="100%" height="30px" preserveAspectRatio="xMaxYMin meet">
         <g id="arrow_out" transform="scale(0.3 0.3)">
          <a xlink:href="structMapBlockMesh_1_1AnimationInfo__coll__graph_org.svg" target="_base">
           <rect id="button" ry="5" rx="5" y="6" x="6" height="38" width="38"
                fill="#f2f5e9" fill-opacity="0.5" stroke="#606060" stroke-width="1.0"/>
           <path id="arrow"
             d="M 11.500037,31.436501 C 11.940474,20.09759 22.043105,11.32322 32.158766,21.979434 L 37.068811,17.246167 C 37.068811,17.246167 37.088388,32 37.088388,32 L 22.160133,31.978069 C 22.160133,31.978069 26.997745,27.140456 26.997745,27.140456 C 18.528582,18.264221 13.291696,25.230495 11.500037,31.436501 z"
             style="fill:#404040;"/>
          </a>
         </g>
        </svg>
</svg>
