<?xml version="1.0" encoding="UTF-8" standalone="no"?>
<!DOCTYPE svg PUBLIC "-//W3C//DTD SVG 1.1//EN"
 "http://www.w3.org/Graphics/SVG/1.1/DTD/svg11.dtd">
<!-- Generated by graphviz version 2.43.0 (0)
 -->
<!-- Title: JoystickAxisLayout Pages: 1 -->
<svg width="117pt" height="95pt"
 viewBox="0.00 0.00 117.00 95.00" xmlns="http://www.w3.org/2000/svg" xmlns:xlink="http://www.w3.org/1999/xlink">
<g id="graph0" class="graph" transform="scale(1 1) rotate(0) translate(4 91)">
<title>JoystickAxisLayout</title>
<polygon fill="white" stroke="transparent" points="-4,4 -4,-91 113,-91 113,4 -4,4"/>
<!-- Node1 -->
<g id="node1" class="node">
<title>Node1</title>
<g id="a_node1"><a xlink:title=" ">
<polygon fill="#bfbfbf" stroke="black" points="0,-0.5 0,-19.5 109,-19.5 109,-0.5 0,-0.5"/>
<text text-anchor="middle" x="54.5" y="-7.5" font-family="Helvetica,sans-Serif" font-size="10.00">JoystickAxisLayout</text>
</a>
</g>
</g>
<!-- Node2 -->
<g id="node2" class="node">
<title>Node2</title>
<g id="a_node2"><a xlink:title=" ">
<polygon fill="white" stroke="#bfbfbf" points="7,-67.5 7,-86.5 42,-86.5 42,-67.5 7,-67.5"/>
<text text-anchor="middle" x="24.5" y="-74.5" font-family="Helvetica,sans-Serif" font-size="10.00">u16</text>
</a>
</g>
</g>
<!-- Node2&#45;&gt;Node1 -->
<g id="edge1" class="edge">
<title>Node2&#45;&gt;Node1</title>
<path fill="none" stroke="#9a32cd" stroke-dasharray="5,2" d="M22.13,-57.08C22.08,-50.78 22.85,-43.87 25.5,-38 28.84,-30.6 35.26,-24.29 41.21,-19.63"/>
<polygon fill="#9a32cd" stroke="#9a32cd" points="18.67,-57.72 22.9,-67.43 25.65,-57.2 18.67,-57.72"/>
<text text-anchor="middle" x="44.5" y="-41" font-family="Helvetica,sans-Serif" font-size="10.00"> axis_id</text>
</g>
<!-- Node3 -->
<g id="node3" class="node">
<title>Node3</title>
<g id="a_node3"><a xlink:title=" ">
<polygon fill="white" stroke="#bfbfbf" points="71,-67.5 71,-86.5 100,-86.5 100,-67.5 71,-67.5"/>
<text text-anchor="middle" x="85.5" y="-74.5" font-family="Helvetica,sans-Serif" font-size="10.00">int</text>
</a>
</g>
</g>
<!-- Node3&#45;&gt;Node1 -->
<g id="edge2" class="edge">
<title>Node3&#45;&gt;Node1</title>
<path fill="none" stroke="#9a32cd" stroke-dasharray="5,2" d="M76.99,-58.16C71.01,-45.63 63.28,-29.41 58.61,-19.63"/>
<polygon fill="#9a32cd" stroke="#9a32cd" points="73.86,-59.71 81.32,-67.23 80.17,-56.7 73.86,-59.71"/>
<text text-anchor="middle" x="87.5" y="-41" font-family="Helvetica,sans-Serif" font-size="10.00"> invert</text>
</g>
</g>
</svg>
