<?xml version="1.0" encoding="UTF-8" standalone="no"?>
<!DOCTYPE svg PUBLIC "-//W3C//DTD SVG 1.1//EN"
 "http://www.w3.org/Graphics/SVG/1.1/DTD/svg11.dtd">
<!-- Generated by graphviz version 2.43.0 (0)
 -->
<!-- Title: CItemDefManager::ClientCached Pages: 1 -->
<!--zoomable 468 -->
<svg id="main" version="1.1" xmlns="http://www.w3.org/2000/svg" xmlns:xlink="http://www.w3.org/1999/xlink" xml:space="preserve" onload="init(evt)">
<style type="text/css"><![CDATA[
.edge:hover path { stroke: red; }
.edge:hover polygon { stroke: red; fill: red; }
]]></style>
<script type="text/javascript"><![CDATA[
var edges = document.getElementsByTagName('g');
if (edges && edges.length) {
  for (var i=0;i<edges.length;i++) {
    if (edges[i].id.substr(0,4)=='edge') {
      edges[i].setAttribute('class','edge');
    }
  }
}
]]></script>
        <defs>
                <circle id="rim" cx="0" cy="0" r="7"/>
                <circle id="rim2" cx="0" cy="0" r="3.5"/>
                <g id="zoomPlus">
                        <use xlink:href="#rim" fill="#404040">
                                <set attributeName="fill" to="#808080" begin="zoomplus.mouseover" end="zoomplus.mouseout"/>
                        </use>
                        <path d="M-4,0h8M0,-4v8" fill="none" stroke="white" stroke-width="1.5" pointer-events="none"/>
                </g>
                <g id="zoomMin">
                        <use xlink:href="#rim" fill="#404040">
                                <set attributeName="fill" to="#808080" begin="zoomminus.mouseover" end="zoomminus.mouseout"/>
                        </use>
                        <path d="M-4,0h8" fill="none" stroke="white" stroke-width="1.5" pointer-events="none"/>
                </g>
                <g id="dirArrow">
                        <path fill="none" stroke="white" stroke-width="1.5" d="M0,-3.0v7 M-2.5,-0.5L0,-3.0L2.5,-0.5"/>
                </g>
               <g id="resetDef">
                       <use xlink:href="#rim2" fill="#404040">
                               <set attributeName="fill" to="#808080" begin="reset.mouseover" end="reset.mouseout"/>
                       </use>
               </g>
        </defs>

<script type="text/javascript">
var viewWidth = 1392;
var viewHeight = 468;
var sectionId = 'dynsection-0';
</script>
<script xlink:href="svgpan.js"/>
<svg id="graph" class="graph">
<g id="viewport">
<title>CItemDefManager::ClientCached</title>
<polygon fill="white" stroke="transparent" points="-4,4 -4,-464.39 1388,-464.39 1388,4 -4,4"/>
<!-- Node1 -->
<g id="node1" class="node">
<title>Node1</title>
<g id="a_node1"><a xlink:title=" ">
<polygon fill="#bfbfbf" stroke="black" points="1208,-386.89 1208,-405.89 1384,-405.89 1384,-386.89 1208,-386.89"/>
<text text-anchor="middle" x="1296" y="-393.89" font-family="Helvetica,sans-Serif" font-size="10.00">CItemDefManager::ClientCached</text>
</a>
</g>
</g>
<!-- Node2 -->
<g id="node2" class="node">
<title>Node2</title>
<g id="a_node2"><a xlink:title=" ">
<polygon fill="white" stroke="#bfbfbf" points="999,-424.89 999,-443.89 1058,-443.89 1058,-424.89 999,-424.89"/>
<text text-anchor="middle" x="1028.5" y="-431.89" font-family="Helvetica,sans-Serif" font-size="10.00">Palette *</text>
</a>
</g>
</g>
<!-- Node2&#45;&gt;Node1 -->
<g id="edge1" class="edge">
<title>Node2&#45;&gt;Node1</title>
<path fill="none" stroke="#9a32cd" stroke-dasharray="5,2" d="M1068.26,-428.84C1110.27,-422.83 1178.06,-413.13 1228.59,-405.89"/>
<polygon fill="#9a32cd" stroke="#9a32cd" points="1067.57,-425.41 1058.17,-430.29 1068.56,-432.33 1067.57,-425.41"/>
<text text-anchor="middle" x="1144.5" y="-426.39" font-family="Helvetica,sans-Serif" font-size="10.00"> palette</text>
</g>
<!-- Node3 -->
<g id="node3" class="node">
<title>Node3</title>
<g id="a_node3"><a xlink:href="structItemMesh.html" target="_top" xlink:title=" ">
<polygon fill="white" stroke="black" points="996,-386.89 996,-405.89 1061,-405.89 1061,-386.89 996,-386.89"/>
<text text-anchor="middle" x="1028.5" y="-393.89" font-family="Helvetica,sans-Serif" font-size="10.00">ItemMesh</text>
</a>
</g>
</g>
<!-- Node3&#45;&gt;Node1 -->
<g id="edge2" class="edge">
<title>Node3&#45;&gt;Node1</title>
<path fill="none" stroke="#9a32cd" stroke-dasharray="5,2" d="M1071.52,-396.39C1107.99,-396.39 1161.97,-396.39 1207.74,-396.39"/>
<polygon fill="#9a32cd" stroke="#9a32cd" points="1071.26,-392.89 1061.26,-396.39 1071.26,-399.89 1071.26,-392.89"/>
<text text-anchor="middle" x="1144.5" y="-399.39" font-family="Helvetica,sans-Serif" font-size="10.00"> wield_mesh</text>
</g>
<!-- Node4 -->
<g id="node4" class="node">
<title>Node4</title>
<g id="a_node4"><a xlink:href="classirr_1_1scene_1_1IMesh.html" target="_top" xlink:title="Class which holds the geometry of an object.">
<polygon fill="white" stroke="black" points="724,-440.89 724,-459.89 821,-459.89 821,-440.89 724,-440.89"/>
<text text-anchor="middle" x="772.5" y="-447.89" font-family="Helvetica,sans-Serif" font-size="10.00">irr::scene::IMesh</text>
</a>
</g>
</g>
<!-- Node4&#45;&gt;Node3 -->
<g id="edge3" class="edge">
<title>Node4&#45;&gt;Node3</title>
<path fill="none" stroke="#9a32cd" stroke-dasharray="5,2" d="M831.04,-444.19C867.73,-439.54 916.08,-432.12 958,-421.39 962.47,-420.25 983.9,-412.48 1001.8,-405.9"/>
<polygon fill="#9a32cd" stroke="#9a32cd" points="830.51,-440.73 821.02,-445.43 831.37,-447.68 830.51,-440.73"/>
<text text-anchor="middle" x="908.5" y="-442.39" font-family="Helvetica,sans-Serif" font-size="10.00"> mesh</text>
</g>
<!-- Node5 -->
<g id="node5" class="node">
<title>Node5</title>
<g id="a_node5"><a xlink:href="classirr_1_1IReferenceCounted.html" target="_top" xlink:title="Base class of most objects of the Irrlicht Engine.">
<polygon fill="white" stroke="black" points="462,-289.89 462,-308.89 588,-308.89 588,-289.89 462,-289.89"/>
<text text-anchor="middle" x="525" y="-296.89" font-family="Helvetica,sans-Serif" font-size="10.00">irr::IReferenceCounted</text>
</a>
</g>
</g>
<!-- Node5&#45;&gt;Node4 -->
<g id="edge4" class="edge">
<title>Node5&#45;&gt;Node4</title>
<path fill="none" stroke="midnightblue" d="M544.01,-316.32C574.58,-344.19 639.6,-399.78 704,-431.39 711.65,-435.14 720.16,-438.27 728.5,-440.82"/>
<polygon fill="midnightblue" stroke="midnightblue" points="546.05,-313.44 536.33,-309.24 541.31,-318.59 546.05,-313.44"/>
</g>
<!-- Node10 -->
<g id="node10" class="node">
<title>Node10</title>
<g id="a_node10"><a xlink:href="classirr_1_1video_1_1ITexture.html" target="_top" xlink:title="Interface of a Video Driver dependent Texture.">
<polygon fill="white" stroke="black" points="976,-201.89 976,-220.89 1081,-220.89 1081,-201.89 976,-201.89"/>
<text text-anchor="middle" x="1028.5" y="-208.89" font-family="Helvetica,sans-Serif" font-size="10.00">irr::video::ITexture</text>
</a>
</g>
</g>
<!-- Node5&#45;&gt;Node10 -->
<g id="edge10" class="edge">
<title>Node5&#45;&gt;Node10</title>
<path fill="none" stroke="midnightblue" d="M598.33,-293.8C684.89,-286.02 833.72,-269.16 958,-237.39 974.35,-233.21 992.17,-226.5 1005.67,-220.94"/>
<polygon fill="midnightblue" stroke="midnightblue" points="598,-290.32 588.34,-294.69 598.61,-297.29 598,-290.32"/>
</g>
<!-- Node6 -->
<g id="node6" class="node">
<title>Node6</title>
<g id="a_node6"><a xlink:title=" ">
<polygon fill="white" stroke="#bfbfbf" points="234.5,-308.89 234.5,-327.89 272.5,-327.89 272.5,-308.89 234.5,-308.89"/>
<text text-anchor="middle" x="253.5" y="-315.89" font-family="Helvetica,sans-Serif" font-size="10.00">char</text>
</a>
</g>
</g>
<!-- Node6&#45;&gt;Node5 -->
<g id="edge5" class="edge">
<title>Node6&#45;&gt;Node5</title>
<path fill="none" stroke="#9a32cd" stroke-dasharray="5,2" d="M282.7,-316.4C324.87,-313.43 405.43,-307.75 461.82,-303.77"/>
<polygon fill="#9a32cd" stroke="#9a32cd" points="282.33,-312.92 272.6,-317.11 282.82,-319.9 282.33,-312.92"/>
<text text-anchor="middle" x="385.5" y="-314.39" font-family="Helvetica,sans-Serif" font-size="10.00"> DebugName</text>
</g>
<!-- Node7 -->
<g id="node7" class="node">
<title>Node7</title>
<g id="a_node7"><a xlink:title=" ">
<polygon fill="white" stroke="#bfbfbf" points="228.5,-270.89 228.5,-289.89 278.5,-289.89 278.5,-270.89 228.5,-270.89"/>
<text text-anchor="middle" x="253.5" y="-277.89" font-family="Helvetica,sans-Serif" font-size="10.00">int32_t</text>
</a>
</g>
</g>
<!-- Node7&#45;&gt;Node5 -->
<g id="edge6" class="edge">
<title>Node7&#45;&gt;Node5</title>
<path fill="none" stroke="#9a32cd" stroke-dasharray="5,2" d="M288.82,-281.93C324.4,-283.62 381.64,-286.6 431,-290.39 441.03,-291.16 451.65,-292.08 462,-293.04"/>
<polygon fill="#9a32cd" stroke="#9a32cd" points="288.65,-278.42 278.5,-281.45 288.33,-285.41 288.65,-278.42"/>
<text text-anchor="middle" x="385.5" y="-293.39" font-family="Helvetica,sans-Serif" font-size="10.00"> ReferenceCounter</text>
</g>
<!-- Node8 -->
<g id="node8" class="node">
<title>Node8</title>
<g id="a_node8"><a xlink:href="classbool.html" target="_top" xlink:title=" ">
<polygon fill="white" stroke="black" points="753.5,-348.89 753.5,-367.89 791.5,-367.89 791.5,-348.89 753.5,-348.89"/>
<text text-anchor="middle" x="772.5" y="-355.89" font-family="Helvetica,sans-Serif" font-size="10.00">bool</text>
</a>
</g>
</g>
<!-- Node8&#45;&gt;Node3 -->
<g id="edge7" class="edge">
<title>Node8&#45;&gt;Node3</title>
<path fill="none" stroke="#9a32cd" stroke-dasharray="5,2" d="M801.87,-362.44C838.11,-367.63 902.75,-376.98 958,-385.39 970.32,-387.27 983.85,-389.39 995.68,-391.27"/>
<polygon fill="#9a32cd" stroke="#9a32cd" points="801.98,-358.92 791.58,-360.96 800.98,-365.85 801.98,-358.92"/>
<text text-anchor="middle" x="908.5" y="-388.39" font-family="Helvetica,sans-Serif" font-size="10.00"> needs_shading</text>
</g>
<!-- Node8&#45;&gt;Node10 -->
<g id="edge26" class="edge">
<title>Node8&#45;&gt;Node10</title>
<path fill="none" stroke="#9a32cd" stroke-dasharray="5,2" d="M801.62,-353.89C846.73,-346.25 932.76,-329.89 958,-312.39 992.63,-288.38 1015.27,-241.09 1023.75,-220.9"/>
<polygon fill="#9a32cd" stroke="#9a32cd" points="800.9,-350.46 791.61,-355.55 802.05,-357.36 800.9,-350.46"/>
<text text-anchor="middle" x="908.5" y="-355.39" font-family="Helvetica,sans-Serif" font-size="10.00"> IsRenderTarget</text>
<text text-anchor="middle" x="908.5" y="-344.39" font-family="Helvetica,sans-Serif" font-size="10.00">HasMipMaps</text>
</g>
<!-- Node9 -->
<g id="node9" class="node">
<title>Node9</title>
<g id="a_node9"><a xlink:title=" ">
<polygon fill="white" stroke="#bfbfbf" points="704,-402.89 704,-421.89 841,-421.89 841,-402.89 704,-402.89"/>
<text text-anchor="middle" x="772.5" y="-409.89" font-family="Helvetica,sans-Serif" font-size="10.00">vector&lt; ItemPartColor &gt;</text>
</a>
</g>
</g>
<!-- Node9&#45;&gt;Node3 -->
<g id="edge8" class="edge">
<title>Node9&#45;&gt;Node3</title>
<path fill="none" stroke="#9a32cd" stroke-dasharray="5,2" d="M851.41,-407.48C899.99,-404.42 959.89,-400.65 995.82,-398.39"/>
<polygon fill="#9a32cd" stroke="#9a32cd" points="850.99,-404 841.23,-408.12 851.43,-410.99 850.99,-404"/>
<text text-anchor="middle" x="908.5" y="-409.39" font-family="Helvetica,sans-Serif" font-size="10.00"> buffer_colors</text>
</g>
<!-- Node10&#45;&gt;Node1 -->
<g id="edge9" class="edge">
<title>Node10&#45;&gt;Node1</title>
<path fill="none" stroke="#9a32cd" stroke-dasharray="5,2" d="M1051.8,-226.93C1104.98,-263.98 1238.06,-356.71 1281.24,-386.8"/>
<polygon fill="#9a32cd" stroke="#9a32cd" points="1053.61,-223.92 1043.4,-221.08 1049.6,-229.66 1053.61,-223.92"/>
<text text-anchor="middle" x="1144.5" y="-323.39" font-family="Helvetica,sans-Serif" font-size="10.00"> inventory_texture</text>
</g>
<!-- Node11 -->
<g id="node11" class="node">
<title>Node11</title>
<g id="a_node11"><a xlink:href="classirr_1_1core_1_1dimension2d.html" target="_top" xlink:title=" ">
<polygon fill="white" stroke="black" points="711,-85.39 711,-115.39 834,-115.39 834,-85.39 711,-85.39"/>
<text text-anchor="start" x="719" y="-103.39" font-family="Helvetica,sans-Serif" font-size="10.00">irr::core::dimension2d</text>
<text text-anchor="middle" x="772.5" y="-92.39" font-family="Helvetica,sans-Serif" font-size="10.00">&lt; u32 &gt;</text>
</a>
</g>
</g>
<!-- Node11&#45;&gt;Node10 -->
<g id="edge11" class="edge">
<title>Node11&#45;&gt;Node10</title>
<path fill="none" stroke="#9a32cd" stroke-dasharray="5,2" d="M844.11,-93.13C880.3,-92.61 923.81,-97.14 958,-116.39 993.08,-136.14 1015.33,-181.75 1023.72,-201.73"/>
<polygon fill="#9a32cd" stroke="#9a32cd" points="844.02,-89.63 834.12,-93.41 844.21,-96.63 844.02,-89.63"/>
<text text-anchor="middle" x="908.5" y="-130.39" font-family="Helvetica,sans-Serif" font-size="10.00"> Size</text>
<text text-anchor="middle" x="908.5" y="-119.39" font-family="Helvetica,sans-Serif" font-size="10.00">OriginalSize</text>
</g>
<!-- Node12 -->
<g id="node12" class="node">
<title>Node12</title>
<g id="a_node12"><a xlink:title=" ">
<polygon fill="white" stroke="#bfbfbf" points="497,-123.89 497,-142.89 553,-142.89 553,-123.89 497,-123.89"/>
<text text-anchor="middle" x="525" y="-130.89" font-family="Helvetica,sans-Serif" font-size="10.00">uint32_t</text>
</a>
</g>
</g>
<!-- Node12&#45;&gt;Node10 -->
<g id="edge18" class="edge">
<title>Node12&#45;&gt;Node10</title>
<path fill="none" stroke="#9a32cd" stroke-dasharray="5,2" d="M563.72,-136.01C635.35,-141.1 788.59,-152.62 841,-161.39 893.84,-170.23 906.34,-176.19 958,-190.39 970.88,-193.93 985.01,-198.14 997.15,-201.86"/>
<polygon fill="#9a32cd" stroke="#9a32cd" points="563.58,-132.49 553.36,-135.28 563.09,-139.47 563.58,-132.49"/>
<text text-anchor="middle" x="772.5" y="-164.39" font-family="Helvetica,sans-Serif" font-size="10.00"> Pitch</text>
</g>
<!-- Node12&#45;&gt;Node11 -->
<g id="edge12" class="edge">
<title>Node12&#45;&gt;Node11</title>
<path fill="none" stroke="#9a32cd" stroke-dasharray="5,2" d="M563.25,-125.91C580.21,-122.68 600.57,-119.04 619,-116.39 649.17,-112.06 682.86,-108.4 710.89,-105.68"/>
<polygon fill="#9a32cd" stroke="#9a32cd" points="562.33,-122.52 553.18,-127.86 563.66,-129.4 562.33,-122.52"/>
<text text-anchor="middle" x="652.5" y="-130.39" font-family="Helvetica,sans-Serif" font-size="10.00"> Width</text>
<text text-anchor="middle" x="652.5" y="-119.39" font-family="Helvetica,sans-Serif" font-size="10.00">Height</text>
</g>
<!-- Node13 -->
<g id="node13" class="node">
<title>Node13</title>
<g id="a_node13"><a xlink:href="classirr_1_1core_1_1dimension2d.html" target="_top" xlink:title="Specifies a 2 dimensional size.">
<polygon fill="white" stroke="black" points="449,-71.89 449,-90.89 601,-90.89 601,-71.89 449,-71.89"/>
<text text-anchor="middle" x="525" y="-78.89" font-family="Helvetica,sans-Serif" font-size="10.00">irr::core::dimension2d&lt; T &gt;</text>
</a>
</g>
</g>
<!-- Node13&#45;&gt;Node11 -->
<g id="edge13" class="edge">
<title>Node13&#45;&gt;Node11</title>
<path fill="none" stroke="orange" stroke-dasharray="5,2" d="M611.29,-78.75C635.49,-78.86 661.83,-79.8 686,-82.39 693.99,-83.25 702.34,-84.52 710.56,-86"/>
<polygon fill="orange" stroke="orange" points="611.06,-75.25 601.06,-78.75 611.06,-82.25 611.06,-75.25"/>
<text text-anchor="middle" x="652.5" y="-85.39" font-family="Helvetica,sans-Serif" font-size="10.00"> &lt; u32 &gt;</text>
</g>
<!-- Node14 -->
<g id="node14" class="node">
<title>Node14</title>
<g id="a_node14"><a xlink:title=" ">
<polygon fill="white" stroke="#bfbfbf" points="239,-71.89 239,-90.89 268,-90.89 268,-71.89 239,-71.89"/>
<text text-anchor="middle" x="253.5" y="-78.89" font-family="Helvetica,sans-Serif" font-size="10.00">T</text>
</a>
</g>
</g>
<!-- Node14&#45;&gt;Node13 -->
<g id="edge14" class="edge">
<title>Node14&#45;&gt;Node13</title>
<path fill="none" stroke="#9a32cd" stroke-dasharray="5,2" d="M278.27,-81.39C316.05,-81.39 391.39,-81.39 448.74,-81.39"/>
<polygon fill="#9a32cd" stroke="#9a32cd" points="278.24,-77.89 268.24,-81.39 278.24,-84.89 278.24,-77.89"/>
<text text-anchor="middle" x="385.5" y="-95.39" font-family="Helvetica,sans-Serif" font-size="10.00"> Width</text>
<text text-anchor="middle" x="385.5" y="-84.39" font-family="Helvetica,sans-Serif" font-size="10.00">Height</text>
</g>
<!-- Node15 -->
<g id="node15" class="node">
<title>Node15</title>
<g id="a_node15"><a xlink:title=" ">
<polygon fill="white" stroke="#bfbfbf" points="713,-46.89 713,-65.89 832,-65.89 832,-46.89 713,-46.89"/>
<text text-anchor="middle" x="772.5" y="-53.89" font-family="Helvetica,sans-Serif" font-size="10.00">E_TEXTURE_SOURCE</text>
</a>
</g>
</g>
<!-- Node15&#45;&gt;Node10 -->
<g id="edge15" class="edge">
<title>Node15&#45;&gt;Node10</title>
<path fill="none" stroke="#9a32cd" stroke-dasharray="5,2" d="M842.31,-49.79C879.55,-49.65 924.63,-55.36 958,-78.39 1002.17,-108.87 1020.26,-176.42 1025.64,-201.64"/>
<polygon fill="#9a32cd" stroke="#9a32cd" points="841.97,-46.29 832.03,-49.98 842.09,-53.29 841.97,-46.29"/>
<text text-anchor="middle" x="908.5" y="-81.39" font-family="Helvetica,sans-Serif" font-size="10.00"> Source</text>
</g>
<!-- Node16 -->
<g id="node16" class="node">
<title>Node16</title>
<g id="a_node16"><a xlink:title=" ">
<polygon fill="white" stroke="#bfbfbf" points="721,-5.89 721,-24.89 824,-24.89 824,-5.89 721,-5.89"/>
<text text-anchor="middle" x="772.5" y="-12.89" font-family="Helvetica,sans-Serif" font-size="10.00">ECOLOR_FORMAT</text>
</a>
</g>
</g>
<!-- Node16&#45;&gt;Node10 -->
<g id="edge16" class="edge">
<title>Node16&#45;&gt;Node10</title>
<path fill="none" stroke="#9a32cd" stroke-dasharray="5,2" d="M822.02,-4.16C862.31,2.22 919.11,4.07 958,-24.39 1017.81,-68.17 1026.19,-169.43 1027.33,-201.48"/>
<polygon fill="#9a32cd" stroke="#9a32cd" points="821.41,-0.71 812.16,-5.87 822.61,-7.61 821.41,-0.71"/>
<text text-anchor="middle" x="908.5" y="-38.39" font-family="Helvetica,sans-Serif" font-size="10.00"> ColorFormat</text>
<text text-anchor="middle" x="908.5" y="-27.39" font-family="Helvetica,sans-Serif" font-size="10.00">OriginalColorFormat</text>
</g>
<!-- Node17 -->
<g id="node17" class="node">
<title>Node17</title>
<g id="a_node17"><a xlink:title=" ">
<polygon fill="white" stroke="#bfbfbf" points="725.5,-295.89 725.5,-314.89 819.5,-314.89 819.5,-295.89 725.5,-295.89"/>
<text text-anchor="middle" x="772.5" y="-302.89" font-family="Helvetica,sans-Serif" font-size="10.00">E_DRIVER_TYPE</text>
</a>
</g>
</g>
<!-- Node17&#45;&gt;Node10 -->
<g id="edge17" class="edge">
<title>Node17&#45;&gt;Node10</title>
<path fill="none" stroke="#9a32cd" stroke-dasharray="5,2" d="M830.01,-300.93C875.75,-296.62 936.05,-289.16 958,-278.39 985.68,-264.8 1009.48,-236.14 1020.67,-221.08"/>
<polygon fill="#9a32cd" stroke="#9a32cd" points="829.55,-297.46 819.91,-301.85 830.18,-304.43 829.55,-297.46"/>
<text text-anchor="middle" x="908.5" y="-300.39" font-family="Helvetica,sans-Serif" font-size="10.00"> DriverType</text>
</g>
<!-- Node18 -->
<g id="node18" class="node">
<title>Node18</title>
<g id="a_node18"><a xlink:href="structirr_1_1io_1_1SNamedPath.html" target="_top" xlink:title="Used in places where we identify objects by a filename, but don&#39;t actually work with the real filenam...">
<polygon fill="white" stroke="black" points="717.5,-181.89 717.5,-200.89 827.5,-200.89 827.5,-181.89 717.5,-181.89"/>
<text text-anchor="middle" x="772.5" y="-188.89" font-family="Helvetica,sans-Serif" font-size="10.00">irr::io::SNamedPath</text>
</a>
</g>
</g>
<!-- Node18&#45;&gt;Node10 -->
<g id="edge19" class="edge">
<title>Node18&#45;&gt;Node10</title>
<path fill="none" stroke="#9a32cd" stroke-dasharray="5,2" d="M837.91,-193.48C873.39,-194.98 918.2,-197.46 958,-201.39 963.82,-201.97 969.91,-202.68 975.95,-203.45"/>
<polygon fill="#9a32cd" stroke="#9a32cd" points="837.82,-189.97 827.69,-193.06 837.54,-196.97 837.82,-189.97"/>
<text text-anchor="middle" x="908.5" y="-204.39" font-family="Helvetica,sans-Serif" font-size="10.00"> NamedPath</text>
</g>
<!-- Node19 -->
<g id="node19" class="node">
<title>Node19</title>
<g id="a_node19"><a xlink:href="classirr_1_1core_1_1string.html" target="_top" xlink:title=" ">
<polygon fill="white" stroke="black" points="477,-176.39 477,-206.39 573,-206.39 573,-176.39 477,-176.39"/>
<text text-anchor="start" x="485" y="-194.39" font-family="Helvetica,sans-Serif" font-size="10.00">irr::core::string&lt;</text>
<text text-anchor="middle" x="525" y="-183.39" font-family="Helvetica,sans-Serif" font-size="10.00"> fschar_t &gt;</text>
</a>
</g>
</g>
<!-- Node19&#45;&gt;Node18 -->
<g id="edge20" class="edge">
<title>Node19&#45;&gt;Node18</title>
<path fill="none" stroke="#9a32cd" stroke-dasharray="5,2" d="M583.29,-191.39C623.74,-191.39 677.61,-191.39 717.34,-191.39"/>
<polygon fill="#9a32cd" stroke="#9a32cd" points="583.04,-187.89 573.04,-191.39 583.04,-194.89 583.04,-187.89"/>
<text text-anchor="middle" x="652.5" y="-205.39" font-family="Helvetica,sans-Serif" font-size="10.00"> Path</text>
<text text-anchor="middle" x="652.5" y="-194.39" font-family="Helvetica,sans-Serif" font-size="10.00">InternalName</text>
</g>
<!-- Node20 -->
<g id="node20" class="node">
<title>Node20</title>
<g id="a_node20"><a xlink:title=" ">
<polygon fill="white" stroke="#bfbfbf" points="185,-220.89 185,-239.89 322,-239.89 322,-220.89 185,-220.89"/>
<text text-anchor="middle" x="253.5" y="-227.89" font-family="Helvetica,sans-Serif" font-size="10.00">basic_string&lt; fschar_t &gt;</text>
</a>
</g>
</g>
<!-- Node20&#45;&gt;Node19 -->
<g id="edge21" class="edge">
<title>Node20&#45;&gt;Node19</title>
<path fill="none" stroke="#9a32cd" stroke-dasharray="5,2" d="M332.62,-219.47C363.3,-215.15 398.81,-210.09 431,-205.39 445.86,-203.22 462.06,-200.8 476.7,-198.59"/>
<polygon fill="#9a32cd" stroke="#9a32cd" points="331.82,-216.05 322.41,-220.91 332.8,-222.98 331.82,-216.05"/>
<text text-anchor="middle" x="385.5" y="-220.39" font-family="Helvetica,sans-Serif" font-size="10.00"> str</text>
</g>
<!-- Node21 -->
<g id="node21" class="node">
<title>Node21</title>
<g id="a_node21"><a xlink:title=" ">
<polygon fill="white" stroke="#bfbfbf" points="0,-170.89 0,-189.89 122,-189.89 122,-170.89 0,-170.89"/>
<text text-anchor="middle" x="61" y="-177.89" font-family="Helvetica,sans-Serif" font-size="10.00">static const size_type</text>
</a>
</g>
</g>
<!-- Node21&#45;&gt;Node19 -->
<g id="edge22" class="edge">
<title>Node21&#45;&gt;Node19</title>
<path fill="none" stroke="#9a32cd" stroke-dasharray="5,2" d="M132.53,-182.07C227.91,-184.34 395.44,-188.33 476.88,-190.27"/>
<polygon fill="#9a32cd" stroke="#9a32cd" points="132.48,-178.57 122.4,-181.83 132.31,-185.57 132.48,-178.57"/>
<text text-anchor="middle" x="253.5" y="-189.39" font-family="Helvetica,sans-Serif" font-size="10.00"> npos</text>
</g>
<!-- Node22 -->
<g id="node22" class="node">
<title>Node22</title>
<g id="a_node22"><a xlink:href="classirr_1_1core_1_1string.html" target="_top" xlink:title="Very simple string class with some useful features.">
<polygon fill="white" stroke="black" points="195.5,-135.89 195.5,-154.89 311.5,-154.89 311.5,-135.89 195.5,-135.89"/>
<text text-anchor="middle" x="253.5" y="-142.89" font-family="Helvetica,sans-Serif" font-size="10.00">irr::core::string&lt; T &gt;</text>
</a>
</g>
</g>
<!-- Node21&#45;&gt;Node22 -->
<g id="edge25" class="edge">
<title>Node21&#45;&gt;Node22</title>
<path fill="none" stroke="#9a32cd" stroke-dasharray="5,2" d="M123.85,-169.03C148.68,-164.46 176.98,-159.26 200.71,-154.91"/>
<polygon fill="#9a32cd" stroke="#9a32cd" points="123.01,-165.62 113.8,-170.87 124.27,-172.51 123.01,-165.62"/>
<text text-anchor="middle" x="153.5" y="-168.39" font-family="Helvetica,sans-Serif" font-size="10.00"> npos</text>
</g>
<!-- Node22&#45;&gt;Node19 -->
<g id="edge23" class="edge">
<title>Node22&#45;&gt;Node19</title>
<path fill="none" stroke="orange" stroke-dasharray="5,2" d="M321.68,-151.08C354.77,-154.47 395.17,-159.48 431,-166.39 446.1,-169.3 462.36,-173.35 477,-177.34"/>
<polygon fill="orange" stroke="orange" points="321.95,-147.59 311.66,-150.08 321.26,-154.56 321.95,-147.59"/>
<text text-anchor="middle" x="385.5" y="-169.39" font-family="Helvetica,sans-Serif" font-size="10.00"> &lt; fschar_t &gt;</text>
</g>
<!-- Node23 -->
<g id="node23" class="node">
<title>Node23</title>
<g id="a_node23"><a xlink:title=" ">
<polygon fill="white" stroke="#bfbfbf" points="9,-121.89 9,-140.89 113,-140.89 113,-121.89 9,-121.89"/>
<text text-anchor="middle" x="61" y="-128.89" font-family="Helvetica,sans-Serif" font-size="10.00">basic_string&lt; T &gt;</text>
</a>
</g>
</g>
<!-- Node23&#45;&gt;Node22 -->
<g id="edge24" class="edge">
<title>Node23&#45;&gt;Node22</title>
<path fill="none" stroke="#9a32cd" stroke-dasharray="5,2" d="M123.33,-130.52C137.68,-130.72 152.89,-131.26 167,-132.39 176.88,-133.18 187.35,-134.43 197.44,-135.85"/>
<polygon fill="#9a32cd" stroke="#9a32cd" points="123.1,-127.02 113.07,-130.43 123.04,-134.02 123.1,-127.02"/>
<text text-anchor="middle" x="153.5" y="-135.39" font-family="Helvetica,sans-Serif" font-size="10.00"> str</text>
</g>
<!-- Node24 -->
<g id="node24" class="node">
<title>Node24</title>
<g id="a_node24"><a xlink:title=" ">
<polygon fill="white" stroke="#bfbfbf" points="721.5,-219.89 721.5,-238.89 823.5,-238.89 823.5,-219.89 721.5,-219.89"/>
<text text-anchor="middle" x="772.5" y="-226.89" font-family="Helvetica,sans-Serif" font-size="10.00">E_TEXTURE_TYPE</text>
</a>
</g>
</g>
<!-- Node24&#45;&gt;Node10 -->
<g id="edge27" class="edge">
<title>Node24&#45;&gt;Node10</title>
<path fill="none" stroke="#9a32cd" stroke-dasharray="5,2" d="M833.78,-225.12C876.97,-222.06 934.54,-217.98 975.68,-215.06"/>
<polygon fill="#9a32cd" stroke="#9a32cd" points="833.41,-221.64 823.68,-225.83 833.9,-228.62 833.41,-221.64"/>
<text text-anchor="middle" x="908.5" y="-225.39" font-family="Helvetica,sans-Serif" font-size="10.00"> Type</text>
</g>
</g>
</svg>
        <g id="navigator" transform="translate(0 0)" fill="#404254">
                <rect fill="#f2f5e9" fill-opacity="0.5" stroke="#606060" stroke-width=".5" x="0" y="0" width="60" height="60"/>
                <use id="zoomplus" xlink:href="#zoomPlus" x="17" y="9" onmousedown="handleZoom(evt,'in')"/>
                <use id="zoomminus" xlink:href="#zoomMin" x="42" y="9" onmousedown="handleZoom(evt,'out')"/>
                <use id="reset" xlink:href="#resetDef" x="30" y="36" onmousedown="handleReset()"/>
                <g id="arrowUp" xlink:href="#dirArrow" transform="translate(30 24)" onmousedown="handlePan(0,-1)">
                  <use xlink:href="#rim" fill="#404040">
                        <set attributeName="fill" to="#808080" begin="arrowUp.mouseover" end="arrowUp.mouseout"/>
                  </use>
                  <path fill="none" stroke="white" stroke-width="1.5" d="M0,-3.0v7 M-2.5,-0.5L0,-3.0L2.5,-0.5"/>
                </g>
                <g id="arrowRight" xlink:href="#dirArrow" transform="rotate(90) translate(36 -43)" onmousedown="handlePan(1,0)">
                  <use xlink:href="#rim" fill="#404040">
                        <set attributeName="fill" to="#808080" begin="arrowRight.mouseover" end="arrowRight.mouseout"/>
                  </use>
                  <path fill="none" stroke="white" stroke-width="1.5" d="M0,-3.0v7 M-2.5,-0.5L0,-3.0L2.5,-0.5"/>
                </g>
                <g id="arrowDown" xlink:href="#dirArrow" transform="rotate(180) translate(-30 -48)" onmousedown="handlePan(0,1)">
                  <use xlink:href="#rim" fill="#404040">
                        <set attributeName="fill" to="#808080" begin="arrowDown.mouseover" end="arrowDown.mouseout"/>
                  </use>
                  <path fill="none" stroke="white" stroke-width="1.5" d="M0,-3.0v7 M-2.5,-0.5L0,-3.0L2.5,-0.5"/>
                </g>
                <g id="arrowLeft" xlink:href="#dirArrow" transform="rotate(270) translate(-36 17)" onmousedown="handlePan(-1,0)">
                  <use xlink:href="#rim" fill="#404040">
                        <set attributeName="fill" to="#808080" begin="arrowLeft.mouseover" end="arrowLeft.mouseout"/>
                  </use>
                  <path fill="none" stroke="white" stroke-width="1.5" d="M0,-3.0v7 M-2.5,-0.5L0,-3.0L2.5,-0.5"/>
                </g>
        </g>
        <svg viewBox="0 0 15 15" width="100%" height="30px" preserveAspectRatio="xMaxYMin meet">
         <g id="arrow_out" transform="scale(0.3 0.3)">
          <a xlink:href="structCItemDefManager_1_1ClientCached__coll__graph_org.svg" target="_base">
           <rect id="button" ry="5" rx="5" y="6" x="6" height="38" width="38"
                fill="#f2f5e9" fill-opacity="0.5" stroke="#606060" stroke-width="1.0"/>
           <path id="arrow"
             d="M 11.500037,31.436501 C 11.940474,20.09759 22.043105,11.32322 32.158766,21.979434 L 37.068811,17.246167 C 37.068811,17.246167 37.088388,32 37.088388,32 L 22.160133,31.978069 C 22.160133,31.978069 26.997745,27.140456 26.997745,27.140456 C 18.528582,18.264221 13.291696,25.230495 11.500037,31.436501 z"
             style="fill:#404040;"/>
          </a>
         </g>
        </svg>
</svg>
