<?xml version="1.0" encoding="UTF-8" standalone="no"?>
<!DOCTYPE svg PUBLIC "-//W3C//DTD SVG 1.1//EN"
 "http://www.w3.org/Graphics/SVG/1.1/DTD/svg11.dtd">
<!-- Generated by graphviz version 2.43.0 (0)
 -->
<!-- Title: voxalgo::SunlightPropagationUnit Pages: 1 -->
<svg width="288pt" height="262pt"
 viewBox="0.00 0.00 287.50 262.00" xmlns="http://www.w3.org/2000/svg" xmlns:xlink="http://www.w3.org/1999/xlink">
<g id="graph0" class="graph" transform="scale(1 1) rotate(0) translate(4 258)">
<title>voxalgo::SunlightPropagationUnit</title>
<polygon fill="white" stroke="transparent" points="-4,4 -4,-258 283.5,-258 283.5,4 -4,4"/>
<!-- Node1 -->
<g id="node1" class="node">
<title>Node1</title>
<g id="a_node1"><a xlink:title=" ">
<polygon fill="#bfbfbf" stroke="black" points="0,-0.5 0,-19.5 180,-19.5 180,-0.5 0,-0.5"/>
<text text-anchor="middle" x="90" y="-7.5" font-family="Helvetica,sans-Serif" font-size="10.00">voxalgo::SunlightPropagationUnit</text>
</a>
</g>
</g>
<!-- Node2 -->
<g id="node2" class="node">
<title>Node2</title>
<g id="a_node2"><a xlink:href="classbool.html" target="_top" xlink:title=" ">
<polygon fill="white" stroke="black" points="38,-73 38,-92 76,-92 76,-73 38,-73"/>
<text text-anchor="middle" x="57" y="-80" font-family="Helvetica,sans-Serif" font-size="10.00">bool</text>
</a>
</g>
</g>
<!-- Node2&#45;&gt;Node1 -->
<g id="edge1" class="edge">
<title>Node2&#45;&gt;Node1</title>
<path fill="none" stroke="#9a32cd" stroke-dasharray="5,2" d="M60.42,-63C62.31,-55.04 65.09,-45.8 69,-38 72.3,-31.42 77.33,-24.88 81.64,-19.88"/>
<polygon fill="#9a32cd" stroke="#9a32cd" points="56.99,-62.3 58.36,-72.8 63.84,-63.73 56.99,-62.3"/>
<text text-anchor="middle" x="91" y="-41" font-family="Helvetica,sans-Serif" font-size="10.00"> is_sunlit</text>
</g>
<!-- Node3 -->
<g id="node3" class="node">
<title>Node3</title>
<g id="a_node3"><a xlink:href="classirr_1_1core_1_1vector2d.html" target="_top" xlink:title=" ">
<polygon fill="white" stroke="black" points="94.5,-67.5 94.5,-97.5 197.5,-97.5 197.5,-67.5 94.5,-67.5"/>
<text text-anchor="start" x="102.5" y="-85.5" font-family="Helvetica,sans-Serif" font-size="10.00">irr::core::vector2d</text>
<text text-anchor="middle" x="146" y="-74.5" font-family="Helvetica,sans-Serif" font-size="10.00">&lt; s16 &gt;</text>
</a>
</g>
</g>
<!-- Node3&#45;&gt;Node1 -->
<g id="edge2" class="edge">
<title>Node3&#45;&gt;Node1</title>
<path fill="none" stroke="#9a32cd" stroke-dasharray="5,2" d="M129.35,-59.05C124.19,-52.23 118.43,-44.75 113,-38 108.06,-31.86 102.31,-25.11 97.8,-19.89"/>
<polygon fill="#9a32cd" stroke="#9a32cd" points="126.7,-61.34 135.5,-67.24 132.29,-57.14 126.7,-61.34"/>
<text text-anchor="middle" x="154" y="-41" font-family="Helvetica,sans-Serif" font-size="10.00"> relative_pos</text>
</g>
<!-- Node4 -->
<g id="node4" class="node">
<title>Node4</title>
<g id="a_node4"><a xlink:title=" ">
<polygon fill="white" stroke="#bfbfbf" points="96,-156.5 96,-175.5 130,-175.5 130,-156.5 96,-156.5"/>
<text text-anchor="middle" x="113" y="-163.5" font-family="Helvetica,sans-Serif" font-size="10.00">s16</text>
</a>
</g>
</g>
<!-- Node4&#45;&gt;Node3 -->
<g id="edge3" class="edge">
<title>Node4&#45;&gt;Node3</title>
<path fill="none" stroke="#9a32cd" stroke-dasharray="5,2" d="M120.42,-146.66C126.44,-131.81 134.79,-111.18 140.29,-97.6"/>
<polygon fill="#9a32cd" stroke="#9a32cd" points="117.04,-145.7 116.53,-156.28 123.53,-148.32 117.04,-145.7"/>
<text text-anchor="middle" x="138" y="-130" font-family="Helvetica,sans-Serif" font-size="10.00"> X</text>
<text text-anchor="middle" x="138" y="-119" font-family="Helvetica,sans-Serif" font-size="10.00">Y</text>
</g>
<!-- Node5 -->
<g id="node5" class="node">
<title>Node5</title>
<g id="a_node5"><a xlink:href="classirr_1_1core_1_1vector2d.html" target="_top" xlink:title="2d vector template class with lots of operators and methods.">
<polygon fill="white" stroke="black" points="148.5,-156.5 148.5,-175.5 279.5,-175.5 279.5,-156.5 148.5,-156.5"/>
<text text-anchor="middle" x="214" y="-163.5" font-family="Helvetica,sans-Serif" font-size="10.00">irr::core::vector2d&lt; T &gt;</text>
</a>
</g>
</g>
<!-- Node5&#45;&gt;Node3 -->
<g id="edge4" class="edge">
<title>Node5&#45;&gt;Node3</title>
<path fill="none" stroke="orange" stroke-dasharray="5,2" d="M200.12,-148.37C187.65,-133.42 169.54,-111.71 157.76,-97.6"/>
<polygon fill="orange" stroke="orange" points="197.63,-150.84 206.72,-156.28 203,-146.36 197.63,-150.84"/>
<text text-anchor="middle" x="211.5" y="-124.5" font-family="Helvetica,sans-Serif" font-size="10.00"> &lt; s16 &gt;</text>
</g>
<!-- Node6 -->
<g id="node6" class="node">
<title>Node6</title>
<g id="a_node6"><a xlink:title=" ">
<polygon fill="white" stroke="#bfbfbf" points="199.5,-234.5 199.5,-253.5 228.5,-253.5 228.5,-234.5 199.5,-234.5"/>
<text text-anchor="middle" x="214" y="-241.5" font-family="Helvetica,sans-Serif" font-size="10.00">T</text>
</a>
</g>
</g>
<!-- Node6&#45;&gt;Node5 -->
<g id="edge5" class="edge">
<title>Node6&#45;&gt;Node5</title>
<path fill="none" stroke="#9a32cd" stroke-dasharray="5,2" d="M214,-224.22C214,-208.7 214,-187.36 214,-175.62"/>
<polygon fill="#9a32cd" stroke="#9a32cd" points="210.5,-224.28 214,-234.28 217.5,-224.28 210.5,-224.28"/>
<text text-anchor="middle" x="219" y="-208" font-family="Helvetica,sans-Serif" font-size="10.00"> X</text>
<text text-anchor="middle" x="219" y="-197" font-family="Helvetica,sans-Serif" font-size="10.00">Y</text>
</g>
</g>
</svg>
