<?xml version="1.0" encoding="UTF-8" standalone="no"?>
<!DOCTYPE svg PUBLIC "-//W3C//DTD SVG 1.1//EN"
 "http://www.w3.org/Graphics/SVG/1.1/DTD/svg11.dtd">
<!-- Generated by graphviz version 2.43.0 (0)
 -->
<!-- Title: GameUI::Flags Pages: 1 -->
<svg width="160pt" height="150pt"
 viewBox="0.00 0.00 159.50 150.00" xmlns="http://www.w3.org/2000/svg" xmlns:xlink="http://www.w3.org/1999/xlink">
<g id="graph0" class="graph" transform="scale(1 1) rotate(0) translate(4 146)">
<title>GameUI::Flags</title>
<polygon fill="white" stroke="transparent" points="-4,4 -4,-146 155.5,-146 155.5,4 -4,4"/>
<!-- Node1 -->
<g id="node1" class="node">
<title>Node1</title>
<g id="a_node1"><a xlink:title=" ">
<polygon fill="#bfbfbf" stroke="black" points="0,-0.5 0,-19.5 89,-19.5 89,-0.5 0,-0.5"/>
<text text-anchor="middle" x="44.5" y="-7.5" font-family="Helvetica,sans-Serif" font-size="10.00">GameUI::Flags</text>
</a>
</g>
</g>
<!-- Node2 -->
<g id="node2" class="node">
<title>Node2</title>
<g id="a_node2"><a xlink:href="classbool.html" target="_top" xlink:title=" ">
<polygon fill="white" stroke="black" points="25.5,-122.5 25.5,-141.5 63.5,-141.5 63.5,-122.5 25.5,-122.5"/>
<text text-anchor="middle" x="44.5" y="-129.5" font-family="Helvetica,sans-Serif" font-size="10.00">bool</text>
</a>
</g>
</g>
<!-- Node2&#45;&gt;Node1 -->
<g id="edge1" class="edge">
<title>Node2&#45;&gt;Node1</title>
<path fill="none" stroke="#9a32cd" stroke-dasharray="5,2" d="M44.5,-112.15C44.5,-85.72 44.5,-38.76 44.5,-19.55"/>
<polygon fill="#9a32cd" stroke="#9a32cd" points="41,-112.37 44.5,-122.37 48,-112.37 41,-112.37"/>
<text text-anchor="middle" x="98" y="-96" font-family="Helvetica,sans-Serif" font-size="10.00"> show_basic_debug</text>
<text text-anchor="middle" x="98" y="-85" font-family="Helvetica,sans-Serif" font-size="10.00">show_chat</text>
<text text-anchor="middle" x="98" y="-74" font-family="Helvetica,sans-Serif" font-size="10.00">show_minimal_debug</text>
<text text-anchor="middle" x="98" y="-63" font-family="Helvetica,sans-Serif" font-size="10.00">show_hud</text>
<text text-anchor="middle" x="98" y="-52" font-family="Helvetica,sans-Serif" font-size="10.00">show_profiler_graph</text>
<text text-anchor="middle" x="98" y="-41" font-family="Helvetica,sans-Serif" font-size="10.00">show_minimap</text>
</g>
</g>
</svg>
