<?xml version="1.0" encoding="UTF-8" standalone="no"?>
<!DOCTYPE svg PUBLIC "-//W3C//DTD SVG 1.1//EN"
 "http://www.w3.org/Graphics/SVG/1.1/DTD/svg11.dtd">
<!-- Generated by graphviz version 2.43.0 (0)
 -->
<!-- Title: MapDrawControl Pages: 1 -->
<svg width="197pt" height="117pt"
 viewBox="0.00 0.00 197.00 117.00" xmlns="http://www.w3.org/2000/svg" xmlns:xlink="http://www.w3.org/1999/xlink">
<g id="graph0" class="graph" transform="scale(1 1) rotate(0) translate(4 113)">
<title>MapDrawControl</title>
<polygon fill="white" stroke="transparent" points="-4,4 -4,-113 193,-113 193,4 -4,4"/>
<!-- Node1 -->
<g id="node1" class="node">
<title>Node1</title>
<g id="a_node1"><a xlink:title=" ">
<polygon fill="#bfbfbf" stroke="black" points="18,-0.5 18,-19.5 116,-19.5 116,-0.5 18,-0.5"/>
<text text-anchor="middle" x="67" y="-7.5" font-family="Helvetica,sans-Serif" font-size="10.00">MapDrawControl</text>
</a>
</g>
</g>
<!-- Node2 -->
<g id="node2" class="node">
<title>Node2</title>
<g id="a_node2"><a xlink:title=" ">
<polygon fill="white" stroke="#bfbfbf" points="0,-89.5 0,-108.5 38,-108.5 38,-89.5 0,-89.5"/>
<text text-anchor="middle" x="19" y="-96.5" font-family="Helvetica,sans-Serif" font-size="10.00">float</text>
</a>
</g>
</g>
<!-- Node2&#45;&gt;Node1 -->
<g id="edge1" class="edge">
<title>Node2&#45;&gt;Node1</title>
<path fill="none" stroke="#9a32cd" stroke-dasharray="5,2" d="M14.72,-78.93C12.97,-66.44 12.79,-50.23 20,-38 24.88,-29.73 33.33,-23.77 41.73,-19.58"/>
<polygon fill="#9a32cd" stroke="#9a32cd" points="11.34,-79.93 16.6,-89.13 18.23,-78.66 11.34,-79.93"/>
<text text-anchor="middle" x="56.5" y="-52" font-family="Helvetica,sans-Serif" font-size="10.00"> wanted_range</text>
</g>
<!-- Node3 -->
<g id="node3" class="node">
<title>Node3</title>
<g id="a_node3"><a xlink:href="classbool.html" target="_top" xlink:title=" ">
<polygon fill="white" stroke="black" points="96,-89.5 96,-108.5 134,-108.5 134,-89.5 96,-89.5"/>
<text text-anchor="middle" x="115" y="-96.5" font-family="Helvetica,sans-Serif" font-size="10.00">bool</text>
</a>
</g>
</g>
<!-- Node3&#45;&gt;Node1 -->
<g id="edge2" class="edge">
<title>Node3&#45;&gt;Node1</title>
<path fill="none" stroke="#9a32cd" stroke-dasharray="5,2" d="M110.33,-79.32C106.73,-66.99 101.02,-50.82 93,-38 88.72,-31.16 82.49,-24.61 77.2,-19.68"/>
<polygon fill="#9a32cd" stroke="#9a32cd" points="107.05,-80.6 113.03,-89.35 113.81,-78.78 107.05,-80.6"/>
<text text-anchor="middle" x="148" y="-63" font-family="Helvetica,sans-Serif" font-size="10.00"> range_all</text>
<text text-anchor="middle" x="148" y="-52" font-family="Helvetica,sans-Serif" font-size="10.00">show_wireframe</text>
<text text-anchor="middle" x="148" y="-41" font-family="Helvetica,sans-Serif" font-size="10.00">allow_noclip</text>
</g>
</g>
</svg>
