<?xml version="1.0" encoding="UTF-8" standalone="no"?>
<!DOCTYPE svg PUBLIC "-//W3C//DTD SVG 1.1//EN"
 "http://www.w3.org/Graphics/SVG/1.1/DTD/svg11.dtd">
<!-- Generated by graphviz version 2.43.0 (0)
 -->
<!-- Title: SunParams Pages: 1 -->
<svg width="220pt" height="117pt"
 viewBox="0.00 0.00 220.00 117.00" xmlns="http://www.w3.org/2000/svg" xmlns:xlink="http://www.w3.org/1999/xlink">
<g id="graph0" class="graph" transform="scale(1 1) rotate(0) translate(4 113)">
<title>SunParams</title>
<polygon fill="white" stroke="transparent" points="-4,4 -4,-113 216,-113 216,4 -4,4"/>
<!-- Node1 -->
<g id="node1" class="node">
<title>Node1</title>
<g id="a_node1"><a xlink:title=" ">
<polygon fill="#bfbfbf" stroke="black" points="53.5,-0.5 53.5,-19.5 124.5,-19.5 124.5,-0.5 53.5,-0.5"/>
<text text-anchor="middle" x="89" y="-7.5" font-family="Helvetica,sans-Serif" font-size="10.00">SunParams</text>
</a>
</g>
</g>
<!-- Node2 -->
<g id="node2" class="node">
<title>Node2</title>
<g id="a_node2"><a xlink:title=" ">
<polygon fill="white" stroke="#bfbfbf" points="0,-89.5 0,-108.5 44,-108.5 44,-89.5 0,-89.5"/>
<text text-anchor="middle" x="22" y="-96.5" font-family="Helvetica,sans-Serif" font-size="10.00">string</text>
</a>
</g>
</g>
<!-- Node2&#45;&gt;Node1 -->
<g id="edge1" class="edge">
<title>Node2&#45;&gt;Node1</title>
<path fill="none" stroke="#9a32cd" stroke-dasharray="5,2" d="M24.26,-79.3C26.63,-66.51 31.4,-49.8 41,-38 47.51,-29.99 57.07,-23.93 65.95,-19.6"/>
<polygon fill="#9a32cd" stroke="#9a32cd" points="20.79,-78.9 22.75,-89.31 27.71,-79.95 20.79,-78.9"/>
<text text-anchor="middle" x="63" y="-63" font-family="Helvetica,sans-Serif" font-size="10.00"> sunrise</text>
<text text-anchor="middle" x="63" y="-52" font-family="Helvetica,sans-Serif" font-size="10.00">tonemap</text>
<text text-anchor="middle" x="63" y="-41" font-family="Helvetica,sans-Serif" font-size="10.00">texture</text>
</g>
<!-- Node3 -->
<g id="node3" class="node">
<title>Node3</title>
<g id="a_node3"><a xlink:href="classbool.html" target="_top" xlink:title=" ">
<polygon fill="white" stroke="black" points="70,-89.5 70,-108.5 108,-108.5 108,-89.5 70,-89.5"/>
<text text-anchor="middle" x="89" y="-96.5" font-family="Helvetica,sans-Serif" font-size="10.00">bool</text>
</a>
</g>
</g>
<!-- Node3&#45;&gt;Node1 -->
<g id="edge2" class="edge">
<title>Node3&#45;&gt;Node1</title>
<path fill="none" stroke="#9a32cd" stroke-dasharray="5,2" d="M89,-79.19C89,-60.74 89,-33.41 89,-19.62"/>
<polygon fill="#9a32cd" stroke="#9a32cd" points="85.5,-79.34 89,-89.34 92.5,-79.34 85.5,-79.34"/>
<text text-anchor="middle" x="127" y="-57.5" font-family="Helvetica,sans-Serif" font-size="10.00"> sunrise_visible</text>
<text text-anchor="middle" x="127" y="-46.5" font-family="Helvetica,sans-Serif" font-size="10.00">visible</text>
</g>
<!-- Node4 -->
<g id="node4" class="node">
<title>Node4</title>
<g id="a_node4"><a xlink:title=" ">
<polygon fill="white" stroke="#bfbfbf" points="172,-89.5 172,-108.5 204,-108.5 204,-89.5 172,-89.5"/>
<text text-anchor="middle" x="188" y="-96.5" font-family="Helvetica,sans-Serif" font-size="10.00">f32</text>
</a>
</g>
</g>
<!-- Node4&#45;&gt;Node1 -->
<g id="edge3" class="edge">
<title>Node4&#45;&gt;Node1</title>
<path fill="none" stroke="#9a32cd" stroke-dasharray="5,2" d="M185.48,-79.53C182.78,-66.36 177.23,-49.08 166,-38 154.9,-27.06 139.13,-20.54 124.74,-16.65"/>
<polygon fill="#9a32cd" stroke="#9a32cd" points="182.03,-80.14 187.15,-89.41 188.94,-78.97 182.03,-80.14"/>
<text text-anchor="middle" x="197.5" y="-52" font-family="Helvetica,sans-Serif" font-size="10.00"> scale</text>
</g>
</g>
</svg>
