<?xml version="1.0" encoding="UTF-8" standalone="no"?>
<!DOCTYPE svg PUBLIC "-//W3C//DTD SVG 1.1//EN"
 "http://www.w3.org/Graphics/SVG/1.1/DTD/svg11.dtd">
<!-- Generated by graphviz version 2.43.0 (0)
 -->
<!-- Title: MapgenCarpathianParams Pages: 1 -->
<!--zoomable 462 -->
<svg id="main" version="1.1" xmlns="http://www.w3.org/2000/svg" xmlns:xlink="http://www.w3.org/1999/xlink" xml:space="preserve" onload="init(evt)">
<style type="text/css"><![CDATA[
.edge:hover path { stroke: red; }
.edge:hover polygon { stroke: red; fill: red; }
]]></style>
<script type="text/javascript"><![CDATA[
var edges = document.getElementsByTagName('g');
if (edges && edges.length) {
  for (var i=0;i<edges.length;i++) {
    if (edges[i].id.substr(0,4)=='edge') {
      edges[i].setAttribute('class','edge');
    }
  }
}
]]></script>
        <defs>
                <circle id="rim" cx="0" cy="0" r="7"/>
                <circle id="rim2" cx="0" cy="0" r="3.5"/>
                <g id="zoomPlus">
                        <use xlink:href="#rim" fill="#404040">
                                <set attributeName="fill" to="#808080" begin="zoomplus.mouseover" end="zoomplus.mouseout"/>
                        </use>
                        <path d="M-4,0h8M0,-4v8" fill="none" stroke="white" stroke-width="1.5" pointer-events="none"/>
                </g>
                <g id="zoomMin">
                        <use xlink:href="#rim" fill="#404040">
                                <set attributeName="fill" to="#808080" begin="zoomminus.mouseover" end="zoomminus.mouseout"/>
                        </use>
                        <path d="M-4,0h8" fill="none" stroke="white" stroke-width="1.5" pointer-events="none"/>
                </g>
                <g id="dirArrow">
                        <path fill="none" stroke="white" stroke-width="1.5" d="M0,-3.0v7 M-2.5,-0.5L0,-3.0L2.5,-0.5"/>
                </g>
               <g id="resetDef">
                       <use xlink:href="#rim2" fill="#404040">
                               <set attributeName="fill" to="#808080" begin="reset.mouseover" end="reset.mouseout"/>
                       </use>
               </g>
        </defs>

<script type="text/javascript">
var viewWidth = 1063;
var viewHeight = 462;
var sectionId = 'dynsection-1';
</script>
<script xlink:href="svgpan.js"/>
<svg id="graph" class="graph">
<g id="viewport">
<title>MapgenCarpathianParams</title>
<polygon fill="white" stroke="transparent" points="-4,4 -4,-458 1059,-458 1059,4 -4,4"/>
<!-- Node1 -->
<g id="node1" class="node">
<title>Node1</title>
<g id="a_node1"><a xlink:title=" ">
<polygon fill="#bfbfbf" stroke="black" points="581.5,-0.5 581.5,-19.5 726.5,-19.5 726.5,-0.5 581.5,-0.5"/>
<text text-anchor="middle" x="654" y="-7.5" font-family="Helvetica,sans-Serif" font-size="10.00">MapgenCarpathianParams</text>
</a>
</g>
</g>
<!-- Node2 -->
<g id="node2" class="node">
<title>Node2</title>
<g id="a_node2"><a xlink:href="structMapgenParams.html" target="_top" xlink:title=" ">
<polygon fill="white" stroke="black" points="356,-206 356,-225 448,-225 448,-206 356,-206"/>
<text text-anchor="middle" x="402" y="-213" font-family="Helvetica,sans-Serif" font-size="10.00">MapgenParams</text>
</a>
</g>
</g>
<!-- Node2&#45;&gt;Node1 -->
<g id="edge1" class="edge">
<title>Node2&#45;&gt;Node1</title>
<path fill="none" stroke="midnightblue" d="M420.84,-199.29C470.58,-159.12 604.26,-51.16 643.21,-19.71"/>
<polygon fill="midnightblue" stroke="midnightblue" points="418.41,-196.75 412.83,-205.76 422.81,-202.2 418.41,-196.75"/>
</g>
<!-- Node3 -->
<g id="node3" class="node">
<title>Node3</title>
<g id="a_node3"><a xlink:title=" ">
<polygon fill="white" stroke="#bfbfbf" points="181,-345.5 181,-364.5 215,-364.5 215,-345.5 181,-345.5"/>
<text text-anchor="middle" x="198" y="-352.5" font-family="Helvetica,sans-Serif" font-size="10.00">s16</text>
</a>
</g>
</g>
<!-- Node3&#45;&gt;Node1 -->
<g id="edge9" class="edge">
<title>Node3&#45;&gt;Node1</title>
<path fill="none" stroke="#9a32cd" stroke-dasharray="5,2" d="M195.64,-334.9C194.21,-317.99 193.7,-292.82 200,-272 214.46,-224.2 224.95,-212.57 260,-177 339.34,-96.48 367.33,-78.15 473,-38 507.3,-24.97 547.5,-18.2 581.28,-14.69"/>
<polygon fill="#9a32cd" stroke="#9a32cd" points="192.19,-335.56 196.71,-345.14 199.15,-334.83 192.19,-335.56"/>
<text text-anchor="middle" x="303.5" y="-235" font-family="Helvetica,sans-Serif" font-size="10.00"> dungeon_ymin</text>
<text text-anchor="middle" x="303.5" y="-224" font-family="Helvetica,sans-Serif" font-size="10.00">cavern_limit</text>
<text text-anchor="middle" x="303.5" y="-213" font-family="Helvetica,sans-Serif" font-size="10.00">dungeon_ymax</text>
<text text-anchor="middle" x="303.5" y="-202" font-family="Helvetica,sans-Serif" font-size="10.00">cavern_taper</text>
<text text-anchor="middle" x="303.5" y="-191" font-family="Helvetica,sans-Serif" font-size="10.00">large_cave_depth</text>
</g>
<!-- Node3&#45;&gt;Node2 -->
<g id="edge2" class="edge">
<title>Node3&#45;&gt;Node2</title>
<path fill="none" stroke="#9a32cd" stroke-dasharray="5,2" d="M201.02,-335.61C204.99,-317.08 213.74,-288.9 232,-272 242.45,-262.33 325.27,-238.01 371.33,-225.01"/>
<polygon fill="#9a32cd" stroke="#9a32cd" points="197.57,-335 199.16,-345.47 204.45,-336.3 197.57,-335"/>
<text text-anchor="middle" x="282" y="-319" font-family="Helvetica,sans-Serif" font-size="10.00"> mapgen_edge_max</text>
<text text-anchor="middle" x="282" y="-308" font-family="Helvetica,sans-Serif" font-size="10.00">mapgen_limit</text>
<text text-anchor="middle" x="282" y="-297" font-family="Helvetica,sans-Serif" font-size="10.00">mapgen_edge_min</text>
<text text-anchor="middle" x="282" y="-286" font-family="Helvetica,sans-Serif" font-size="10.00">water_level</text>
<text text-anchor="middle" x="282" y="-275" font-family="Helvetica,sans-Serif" font-size="10.00">chunksize</text>
</g>
<!-- Node4 -->
<g id="node4" class="node">
<title>Node4</title>
<g id="a_node4"><a xlink:href="classbool.html" target="_top" xlink:title=" ">
<polygon fill="white" stroke="black" points="0,-345.5 0,-364.5 38,-364.5 38,-345.5 0,-345.5"/>
<text text-anchor="middle" x="19" y="-352.5" font-family="Helvetica,sans-Serif" font-size="10.00">bool</text>
</a>
</g>
</g>
<!-- Node4&#45;&gt;Node2 -->
<g id="edge3" class="edge">
<title>Node4&#45;&gt;Node2</title>
<path fill="none" stroke="#9a32cd" stroke-dasharray="5,2" d="M20.93,-335.27C23.99,-316.02 31.86,-286.83 52,-272 91.68,-242.78 224.54,-262.92 273,-254 310.39,-247.12 352.46,-233.8 378.1,-225.03"/>
<polygon fill="#9a32cd" stroke="#9a32cd" points="17.44,-334.91 19.62,-345.27 24.39,-335.81 17.44,-334.91"/>
<text text-anchor="middle" x="126" y="-297" font-family="Helvetica,sans-Serif" font-size="10.00"> m_mapgen_edges_calculated</text>
</g>
<!-- Node5 -->
<g id="node5" class="node">
<title>Node5</title>
<g id="a_node5"><a xlink:title=" ">
<polygon fill="white" stroke="#bfbfbf" points="289,-345.5 289,-364.5 367,-364.5 367,-345.5 289,-345.5"/>
<text text-anchor="middle" x="328" y="-352.5" font-family="Helvetica,sans-Serif" font-size="10.00">MapgenType</text>
</a>
</g>
</g>
<!-- Node5&#45;&gt;Node2 -->
<g id="edge4" class="edge">
<title>Node5&#45;&gt;Node2</title>
<path fill="none" stroke="#9a32cd" stroke-dasharray="5,2" d="M332.88,-335.64C337.85,-318.52 346.46,-292.61 358,-272 368.09,-253.98 383.89,-235.71 393.56,-225.28"/>
<polygon fill="#9a32cd" stroke="#9a32cd" points="329.45,-334.9 330.15,-345.47 336.2,-336.77 329.45,-334.9"/>
<text text-anchor="middle" x="378.5" y="-297" font-family="Helvetica,sans-Serif" font-size="10.00"> mgtype</text>
</g>
<!-- Node6 -->
<g id="node6" class="node">
<title>Node6</title>
<g id="a_node6"><a xlink:title=" ">
<polygon fill="white" stroke="#bfbfbf" points="385.5,-345.5 385.5,-364.5 420.5,-364.5 420.5,-345.5 385.5,-345.5"/>
<text text-anchor="middle" x="403" y="-352.5" font-family="Helvetica,sans-Serif" font-size="10.00">u64</text>
</a>
</g>
</g>
<!-- Node6&#45;&gt;Node2 -->
<g id="edge5" class="edge">
<title>Node6&#45;&gt;Node2</title>
<path fill="none" stroke="#9a32cd" stroke-dasharray="5,2" d="M402.86,-335.36C402.65,-305.23 402.22,-246.99 402.06,-225.1"/>
<polygon fill="#9a32cd" stroke="#9a32cd" points="399.36,-335.42 402.94,-345.4 406.36,-335.37 399.36,-335.42"/>
<text text-anchor="middle" x="416.5" y="-297" font-family="Helvetica,sans-Serif" font-size="10.00"> seed</text>
</g>
<!-- Node7 -->
<g id="node7" class="node">
<title>Node7</title>
<g id="a_node7"><a xlink:title=" ">
<polygon fill="white" stroke="#bfbfbf" points="547.5,-345.5 547.5,-364.5 582.5,-364.5 582.5,-345.5 547.5,-345.5"/>
<text text-anchor="middle" x="565" y="-352.5" font-family="Helvetica,sans-Serif" font-size="10.00">u32</text>
</a>
</g>
</g>
<!-- Node7&#45;&gt;Node2 -->
<g id="edge6" class="edge">
<title>Node7&#45;&gt;Node2</title>
<path fill="none" stroke="#9a32cd" stroke-dasharray="5,2" d="M541.19,-339.76C536.11,-336.03 531.06,-331.71 527,-327 509.08,-306.23 517.92,-291.86 499,-272 477.99,-249.94 446.27,-234.06 424.87,-225.08"/>
<polygon fill="#9a32cd" stroke="#9a32cd" points="539.35,-342.74 549.59,-345.46 543.28,-336.95 539.35,-342.74"/>
<text text-anchor="middle" x="544.5" y="-302.5" font-family="Helvetica,sans-Serif" font-size="10.00"> flags</text>
<text text-anchor="middle" x="544.5" y="-291.5" font-family="Helvetica,sans-Serif" font-size="10.00">spflags</text>
</g>
<!-- Node11 -->
<g id="node11" class="node">
<title>Node11</title>
<g id="a_node11"><a xlink:href="structNoiseParams.html" target="_top" xlink:title=" ">
<polygon fill="white" stroke="black" points="614,-206 614,-225 694,-225 694,-206 614,-206"/>
<text text-anchor="middle" x="654" y="-213" font-family="Helvetica,sans-Serif" font-size="10.00">NoiseParams</text>
</a>
</g>
</g>
<!-- Node7&#45;&gt;Node11 -->
<g id="edge17" class="edge">
<title>Node7&#45;&gt;Node11</title>
<path fill="none" stroke="#9a32cd" stroke-dasharray="5,2" d="M564.63,-335.26C565.12,-317.68 568.07,-291.28 580,-272 593.44,-250.29 618.73,-234.14 635.97,-225.01"/>
<polygon fill="#9a32cd" stroke="#9a32cd" points="561.13,-335.36 564.6,-345.37 568.13,-335.38 561.13,-335.36"/>
<text text-anchor="middle" x="593.5" y="-297" font-family="Helvetica,sans-Serif" font-size="10.00"> flags</text>
</g>
<!-- Node8 -->
<g id="node8" class="node">
<title>Node8</title>
<g id="a_node8"><a xlink:href="structBiomeParams.html" target="_top" xlink:title=" ">
<polygon fill="white" stroke="black" points="441,-345.5 441,-364.5 525,-364.5 525,-345.5 441,-345.5"/>
<text text-anchor="middle" x="483" y="-352.5" font-family="Helvetica,sans-Serif" font-size="10.00">BiomeParams</text>
</a>
</g>
</g>
<!-- Node8&#45;&gt;Node2 -->
<g id="edge7" class="edge">
<title>Node8&#45;&gt;Node2</title>
<path fill="none" stroke="#9a32cd" stroke-dasharray="5,2" d="M463.38,-338.65C459.61,-335.1 455.94,-331.14 453,-327 437.67,-305.39 441.09,-296.07 430,-272 422.23,-255.14 412.26,-235.88 406.56,-225.06"/>
<polygon fill="#9a32cd" stroke="#9a32cd" points="461.17,-341.36 471.01,-345.28 465.76,-336.08 461.17,-341.36"/>
<text text-anchor="middle" x="476" y="-297" font-family="Helvetica,sans-Serif" font-size="10.00"> bparams</text>
</g>
<!-- Node9 -->
<g id="node9" class="node">
<title>Node9</title>
<g id="a_node9"><a xlink:title=" ">
<polygon fill="white" stroke="#bfbfbf" points="561,-434.5 561,-453.5 595,-453.5 595,-434.5 561,-434.5"/>
<text text-anchor="middle" x="578" y="-441.5" font-family="Helvetica,sans-Serif" font-size="10.00">s32</text>
</a>
</g>
</g>
<!-- Node9&#45;&gt;Node8 -->
<g id="edge8" class="edge">
<title>Node9&#45;&gt;Node8</title>
<path fill="none" stroke="#9a32cd" stroke-dasharray="5,2" d="M561.06,-427.48C541.03,-409.14 508.4,-379.26 492.42,-364.62"/>
<polygon fill="#9a32cd" stroke="#9a32cd" points="558.81,-430.17 568.54,-434.34 563.53,-425.01 558.81,-430.17"/>
<text text-anchor="middle" x="561.5" y="-397" font-family="Helvetica,sans-Serif" font-size="10.00"> seed</text>
</g>
<!-- Node9&#45;&gt;Node11 -->
<g id="edge16" class="edge">
<title>Node9&#45;&gt;Node11</title>
<path fill="none" stroke="#9a32cd" stroke-dasharray="5,2" d="M584.1,-424.81C599.59,-378.67 639.96,-258.34 651.11,-225.11"/>
<polygon fill="#9a32cd" stroke="#9a32cd" points="580.75,-423.8 580.89,-434.4 587.39,-426.03 580.75,-423.8"/>
<text text-anchor="middle" x="623.5" y="-352.5" font-family="Helvetica,sans-Serif" font-size="10.00"> seed</text>
</g>
<!-- Node10 -->
<g id="node10" class="node">
<title>Node10</title>
<g id="a_node10"><a xlink:title=" ">
<polygon fill="white" stroke="#bfbfbf" points="916.5,-345.5 916.5,-364.5 951.5,-364.5 951.5,-345.5 916.5,-345.5"/>
<text text-anchor="middle" x="934" y="-352.5" font-family="Helvetica,sans-Serif" font-size="10.00">u16</text>
</a>
</g>
</g>
<!-- Node10&#45;&gt;Node1 -->
<g id="edge10" class="edge">
<title>Node10&#45;&gt;Node1</title>
<path fill="none" stroke="#9a32cd" stroke-dasharray="5,2" d="M937.95,-335.22C944.04,-301.74 952.72,-230.25 929,-177 892.54,-95.16 862.32,-79.66 783,-38 765.78,-28.96 745.78,-22.94 726.73,-18.94"/>
<polygon fill="#9a32cd" stroke="#9a32cd" points="934.44,-334.9 935.96,-345.39 941.31,-336.25 934.44,-334.9"/>
<text text-anchor="middle" x="999.5" y="-229.5" font-family="Helvetica,sans-Serif" font-size="10.00"> large_cave_num_max</text>
<text text-anchor="middle" x="999.5" y="-218.5" font-family="Helvetica,sans-Serif" font-size="10.00">small_cave_num_min</text>
<text text-anchor="middle" x="999.5" y="-207.5" font-family="Helvetica,sans-Serif" font-size="10.00">small_cave_num_max</text>
<text text-anchor="middle" x="999.5" y="-196.5" font-family="Helvetica,sans-Serif" font-size="10.00">large_cave_num_min</text>
</g>
<!-- Node10&#45;&gt;Node11 -->
<g id="edge12" class="edge">
<title>Node10&#45;&gt;Node11</title>
<path fill="none" stroke="#9a32cd" stroke-dasharray="5,2" d="M907.42,-340.95C850.69,-313.09 719.04,-248.44 671.51,-225.1"/>
<polygon fill="#9a32cd" stroke="#9a32cd" points="905.97,-344.13 916.48,-345.4 909.05,-337.85 905.97,-344.13"/>
<text text-anchor="middle" x="894" y="-297" font-family="Helvetica,sans-Serif" font-size="10.00"> octaves</text>
</g>
<!-- Node11&#45;&gt;Node1 -->
<g id="edge11" class="edge">
<title>Node11&#45;&gt;Node1</title>
<path fill="none" stroke="#9a32cd" stroke-dasharray="5,2" d="M654,-195.65C654,-153.07 654,-50.77 654,-19.94"/>
<polygon fill="#9a32cd" stroke="#9a32cd" points="650.5,-195.76 654,-205.76 657.5,-195.76 650.5,-195.76"/>
<text text-anchor="middle" x="692" y="-151" font-family="Helvetica,sans-Serif" font-size="10.00"> np_rivers</text>
<text text-anchor="middle" x="692" y="-140" font-family="Helvetica,sans-Serif" font-size="10.00">np_cave1</text>
<text text-anchor="middle" x="692" y="-129" font-family="Helvetica,sans-Serif" font-size="10.00">np_cavern</text>
<text text-anchor="middle" x="692" y="-118" font-family="Helvetica,sans-Serif" font-size="10.00">np_cave2</text>
<text text-anchor="middle" x="692" y="-107" font-family="Helvetica,sans-Serif" font-size="10.00">np_hills</text>
<text text-anchor="middle" x="692" y="-96" font-family="Helvetica,sans-Serif" font-size="10.00">np_ridge_mnt</text>
<text text-anchor="middle" x="692" y="-85" font-family="Helvetica,sans-Serif" font-size="10.00">np_filler_depth</text>
<text text-anchor="middle" x="692" y="-74" font-family="Helvetica,sans-Serif" font-size="10.00">np_hills_terrain</text>
<text text-anchor="middle" x="692" y="-63" font-family="Helvetica,sans-Serif" font-size="10.00">np_step_mnt</text>
<text text-anchor="middle" x="692" y="-52" font-family="Helvetica,sans-Serif" font-size="10.00">np_mnt_var</text>
<text text-anchor="middle" x="692" y="-41" font-family="Helvetica,sans-Serif" font-size="10.00">...</text>
</g>
<!-- Node12 -->
<g id="node12" class="node">
<title>Node12</title>
<g id="a_node12"><a xlink:title=" ">
<polygon fill="white" stroke="#bfbfbf" points="820,-345.5 820,-364.5 858,-364.5 858,-345.5 820,-345.5"/>
<text text-anchor="middle" x="839" y="-352.5" font-family="Helvetica,sans-Serif" font-size="10.00">float</text>
</a>
</g>
</g>
<!-- Node12&#45;&gt;Node1 -->
<g id="edge18" class="edge">
<title>Node12&#45;&gt;Node1</title>
<path fill="none" stroke="#9a32cd" stroke-dasharray="5,2" d="M838.61,-335.19C836.43,-280.68 822.42,-121.26 734,-38 724.93,-29.46 713.06,-23.61 701.26,-19.61"/>
<polygon fill="#9a32cd" stroke="#9a32cd" points="835.12,-335.53 838.93,-345.42 842.12,-335.32 835.12,-335.53"/>
<text text-anchor="middle" x="877.5" y="-246" font-family="Helvetica,sans-Serif" font-size="10.00"> base_level</text>
<text text-anchor="middle" x="877.5" y="-235" font-family="Helvetica,sans-Serif" font-size="10.00">valley_width</text>
<text text-anchor="middle" x="877.5" y="-224" font-family="Helvetica,sans-Serif" font-size="10.00">river_width</text>
<text text-anchor="middle" x="877.5" y="-213" font-family="Helvetica,sans-Serif" font-size="10.00">cavern_threshold</text>
<text text-anchor="middle" x="877.5" y="-202" font-family="Helvetica,sans-Serif" font-size="10.00">river_depth</text>
<text text-anchor="middle" x="877.5" y="-191" font-family="Helvetica,sans-Serif" font-size="10.00">large_cave_flooded</text>
<text text-anchor="middle" x="877.5" y="-180" font-family="Helvetica,sans-Serif" font-size="10.00">cave_width</text>
</g>
<!-- Node12&#45;&gt;Node11 -->
<g id="edge13" class="edge">
<title>Node12&#45;&gt;Node11</title>
<path fill="none" stroke="#9a32cd" stroke-dasharray="5,2" d="M809.76,-345.67C808.83,-345.44 807.91,-345.22 807,-345 766.47,-335.35 747.29,-353.33 715,-327 694.46,-310.26 704.66,-295.27 692,-272 682.51,-254.56 668.87,-235.81 660.77,-225.18"/>
<polygon fill="#9a32cd" stroke="#9a32cd" points="809.21,-349.15 819.78,-348.32 811,-342.38 809.21,-349.15"/>
<text text-anchor="middle" x="739.5" y="-313.5" font-family="Helvetica,sans-Serif" font-size="10.00"> persist</text>
<text text-anchor="middle" x="739.5" y="-302.5" font-family="Helvetica,sans-Serif" font-size="10.00">offset</text>
<text text-anchor="middle" x="739.5" y="-291.5" font-family="Helvetica,sans-Serif" font-size="10.00">scale</text>
<text text-anchor="middle" x="739.5" y="-280.5" font-family="Helvetica,sans-Serif" font-size="10.00">lacunarity</text>
</g>
<!-- Node13 -->
<g id="node13" class="node">
<title>Node13</title>
<g id="a_node13"><a xlink:href="classirr_1_1core_1_1vector3d.html" target="_top" xlink:title="3d vector template class with lots of operators and methods.">
<polygon fill="white" stroke="black" points="666.5,-345.5 666.5,-364.5 797.5,-364.5 797.5,-345.5 666.5,-345.5"/>
<text text-anchor="middle" x="732" y="-352.5" font-family="Helvetica,sans-Serif" font-size="10.00">irr::core::vector3d&lt; T &gt;</text>
</a>
</g>
</g>
<!-- Node13&#45;&gt;Node11 -->
<g id="edge14" class="edge">
<title>Node13&#45;&gt;Node11</title>
<path fill="none" stroke="#9a32cd" stroke-dasharray="5,2" d="M670.57,-340.82C664.51,-337.25 659.1,-332.73 655,-327 632.55,-295.64 644.74,-245.41 651.01,-225.27"/>
<polygon fill="#9a32cd" stroke="#9a32cd" points="669.32,-344.1 679.83,-345.39 672.42,-337.82 669.32,-344.1"/>
<text text-anchor="middle" x="673.5" y="-297" font-family="Helvetica,sans-Serif" font-size="10.00"> spread</text>
</g>
<!-- Node14 -->
<g id="node14" class="node">
<title>Node14</title>
<g id="a_node14"><a xlink:title=" ">
<polygon fill="white" stroke="#bfbfbf" points="717.5,-434.5 717.5,-453.5 746.5,-453.5 746.5,-434.5 717.5,-434.5"/>
<text text-anchor="middle" x="732" y="-441.5" font-family="Helvetica,sans-Serif" font-size="10.00">T</text>
</a>
</g>
</g>
<!-- Node14&#45;&gt;Node13 -->
<g id="edge15" class="edge">
<title>Node14&#45;&gt;Node13</title>
<path fill="none" stroke="#9a32cd" stroke-dasharray="5,2" d="M732,-424.19C732,-405.74 732,-378.41 732,-364.62"/>
<polygon fill="#9a32cd" stroke="#9a32cd" points="728.5,-424.34 732,-434.34 735.5,-424.34 728.5,-424.34"/>
<text text-anchor="middle" x="737" y="-408" font-family="Helvetica,sans-Serif" font-size="10.00"> X</text>
<text text-anchor="middle" x="737" y="-397" font-family="Helvetica,sans-Serif" font-size="10.00">Y</text>
<text text-anchor="middle" x="737" y="-386" font-family="Helvetica,sans-Serif" font-size="10.00">Z</text>
</g>
</g>
</svg>
        <g id="navigator" transform="translate(0 0)" fill="#404254">
                <rect fill="#f2f5e9" fill-opacity="0.5" stroke="#606060" stroke-width=".5" x="0" y="0" width="60" height="60"/>
                <use id="zoomplus" xlink:href="#zoomPlus" x="17" y="9" onmousedown="handleZoom(evt,'in')"/>
                <use id="zoomminus" xlink:href="#zoomMin" x="42" y="9" onmousedown="handleZoom(evt,'out')"/>
                <use id="reset" xlink:href="#resetDef" x="30" y="36" onmousedown="handleReset()"/>
                <g id="arrowUp" xlink:href="#dirArrow" transform="translate(30 24)" onmousedown="handlePan(0,-1)">
                  <use xlink:href="#rim" fill="#404040">
                        <set attributeName="fill" to="#808080" begin="arrowUp.mouseover" end="arrowUp.mouseout"/>
                  </use>
                  <path fill="none" stroke="white" stroke-width="1.5" d="M0,-3.0v7 M-2.5,-0.5L0,-3.0L2.5,-0.5"/>
                </g>
                <g id="arrowRight" xlink:href="#dirArrow" transform="rotate(90) translate(36 -43)" onmousedown="handlePan(1,0)">
                  <use xlink:href="#rim" fill="#404040">
                        <set attributeName="fill" to="#808080" begin="arrowRight.mouseover" end="arrowRight.mouseout"/>
                  </use>
                  <path fill="none" stroke="white" stroke-width="1.5" d="M0,-3.0v7 M-2.5,-0.5L0,-3.0L2.5,-0.5"/>
                </g>
                <g id="arrowDown" xlink:href="#dirArrow" transform="rotate(180) translate(-30 -48)" onmousedown="handlePan(0,1)">
                  <use xlink:href="#rim" fill="#404040">
                        <set attributeName="fill" to="#808080" begin="arrowDown.mouseover" end="arrowDown.mouseout"/>
                  </use>
                  <path fill="none" stroke="white" stroke-width="1.5" d="M0,-3.0v7 M-2.5,-0.5L0,-3.0L2.5,-0.5"/>
                </g>
                <g id="arrowLeft" xlink:href="#dirArrow" transform="rotate(270) translate(-36 17)" onmousedown="handlePan(-1,0)">
                  <use xlink:href="#rim" fill="#404040">
                        <set attributeName="fill" to="#808080" begin="arrowLeft.mouseover" end="arrowLeft.mouseout"/>
                  </use>
                  <path fill="none" stroke="white" stroke-width="1.5" d="M0,-3.0v7 M-2.5,-0.5L0,-3.0L2.5,-0.5"/>
                </g>
        </g>
        <svg viewBox="0 0 15 15" width="100%" height="30px" preserveAspectRatio="xMaxYMin meet">
         <g id="arrow_out" transform="scale(0.3 0.3)">
          <a xlink:href="structMapgenCarpathianParams__coll__graph_org.svg" target="_base">
           <rect id="button" ry="5" rx="5" y="6" x="6" height="38" width="38"
                fill="#f2f5e9" fill-opacity="0.5" stroke="#606060" stroke-width="1.0"/>
           <path id="arrow"
             d="M 11.500037,31.436501 C 11.940474,20.09759 22.043105,11.32322 32.158766,21.979434 L 37.068811,17.246167 C 37.068811,17.246167 37.088388,32 37.088388,32 L 22.160133,31.978069 C 22.160133,31.978069 26.997745,27.140456 26.997745,27.140456 C 18.528582,18.264221 13.291696,25.230495 11.500037,31.436501 z"
             style="fill:#404040;"/>
          </a>
         </g>
        </svg>
</svg>
