<?xml version="1.0" encoding="UTF-8" standalone="no"?>
<!DOCTYPE svg PUBLIC "-//W3C//DTD SVG 1.1//EN"
 "http://www.w3.org/Graphics/SVG/1.1/DTD/svg11.dtd">
<!-- Generated by graphviz version 2.43.0 (0)
 -->
<!-- Title: FpsControl Pages: 1 -->
<svg width="101pt" height="117pt"
 viewBox="0.00 0.00 100.50 117.00" xmlns="http://www.w3.org/2000/svg" xmlns:xlink="http://www.w3.org/1999/xlink">
<g id="graph0" class="graph" transform="scale(1 1) rotate(0) translate(4 113)">
<title>FpsControl</title>
<polygon fill="white" stroke="transparent" points="-4,4 -4,-113 96.5,-113 96.5,4 -4,4"/>
<!-- Node1 -->
<g id="node1" class="node">
<title>Node1</title>
<g id="a_node1"><a xlink:title=" ">
<polygon fill="#bfbfbf" stroke="black" points="0,-0.5 0,-19.5 69,-19.5 69,-0.5 0,-0.5"/>
<text text-anchor="middle" x="34.5" y="-7.5" font-family="Helvetica,sans-Serif" font-size="10.00">FpsControl</text>
</a>
</g>
</g>
<!-- Node2 -->
<g id="node2" class="node">
<title>Node2</title>
<g id="a_node2"><a xlink:title=" ">
<polygon fill="white" stroke="#bfbfbf" points="17,-89.5 17,-108.5 52,-108.5 52,-89.5 17,-89.5"/>
<text text-anchor="middle" x="34.5" y="-96.5" font-family="Helvetica,sans-Serif" font-size="10.00">u64</text>
</a>
</g>
</g>
<!-- Node2&#45;&gt;Node1 -->
<g id="edge1" class="edge">
<title>Node2&#45;&gt;Node1</title>
<path fill="none" stroke="#9a32cd" stroke-dasharray="5,2" d="M34.5,-79.19C34.5,-60.74 34.5,-33.41 34.5,-19.62"/>
<polygon fill="#9a32cd" stroke="#9a32cd" points="31,-79.34 34.5,-89.34 38,-79.34 31,-79.34"/>
<text text-anchor="middle" x="63.5" y="-63" font-family="Helvetica,sans-Serif" font-size="10.00"> sleep_time</text>
<text text-anchor="middle" x="63.5" y="-52" font-family="Helvetica,sans-Serif" font-size="10.00">last_time</text>
<text text-anchor="middle" x="63.5" y="-41" font-family="Helvetica,sans-Serif" font-size="10.00">busy_time</text>
</g>
</g>
</svg>
