<?xml version="1.0" encoding="UTF-8" standalone="no"?>
<!DOCTYPE svg PUBLIC "-//W3C//DTD SVG 1.1//EN"
 "http://www.w3.org/Graphics/SVG/1.1/DTD/svg11.dtd">
<!-- Generated by graphviz version 2.43.0 (0)
 -->
<!-- Title: ModApiCraft Pages: 1 -->
<svg width="199pt" height="162pt"
 viewBox="0.00 0.00 198.50 162.00" xmlns="http://www.w3.org/2000/svg" xmlns:xlink="http://www.w3.org/1999/xlink">
<g id="graph0" class="graph" transform="scale(1 1) rotate(0) translate(4 158)">
<title>ModApiCraft</title>
<polygon fill="white" stroke="transparent" points="-4,4 -4,-158 194.5,-158 194.5,4 -4,4"/>
<!-- Node1 -->
<g id="node1" class="node">
<title>Node1</title>
<g id="a_node1"><a xlink:title=" ">
<polygon fill="#bfbfbf" stroke="black" points="24,-0.5 24,-19.5 101,-19.5 101,-0.5 24,-0.5"/>
<text text-anchor="middle" x="62.5" y="-7.5" font-family="Helvetica,sans-Serif" font-size="10.00">ModApiCraft</text>
</a>
</g>
</g>
<!-- Node2 -->
<g id="node2" class="node">
<title>Node2</title>
<g id="a_node2"><a xlink:href="classes__CraftMethod.html" target="_top" xlink:title=" ">
<polygon fill="white" stroke="black" points="0,-67.5 0,-86.5 93,-86.5 93,-67.5 0,-67.5"/>
<text text-anchor="middle" x="46.5" y="-74.5" font-family="Helvetica,sans-Serif" font-size="10.00">es_CraftMethod</text>
</a>
</g>
</g>
<!-- Node2&#45;&gt;Node1 -->
<g id="edge1" class="edge">
<title>Node2&#45;&gt;Node1</title>
<path fill="none" stroke="midnightblue" d="M51.07,-57.41C54.13,-44.99 58.02,-29.22 60.38,-19.63"/>
<polygon fill="midnightblue" stroke="midnightblue" points="47.65,-56.69 48.66,-67.23 54.45,-58.36 47.65,-56.69"/>
</g>
<!-- Node3 -->
<g id="node3" class="node">
<title>Node3</title>
<g id="a_node3"><a xlink:href="structEnumString.html" target="_top" xlink:title=" ">
<polygon fill="white" stroke="black" points="111,-67.5 111,-86.5 184,-86.5 184,-67.5 111,-67.5"/>
<text text-anchor="middle" x="147.5" y="-74.5" font-family="Helvetica,sans-Serif" font-size="10.00">EnumString</text>
</a>
</g>
</g>
<!-- Node3&#45;&gt;Node1 -->
<g id="edge2" class="edge">
<title>Node3&#45;&gt;Node1</title>
<path fill="none" stroke="#9a32cd" stroke-dasharray="5,2" d="M127.97,-61.07C111.2,-48.24 87.59,-30.19 73.78,-19.63"/>
<polygon fill="#9a32cd" stroke="#9a32cd" points="125.97,-63.94 136.04,-67.23 130.22,-58.38 125.97,-63.94"/>
<text text-anchor="middle" x="150.5" y="-41" font-family="Helvetica,sans-Serif" font-size="10.00"> es_CraftMethod</text>
</g>
<!-- Node4 -->
<g id="node4" class="node">
<title>Node4</title>
<g id="a_node4"><a xlink:title=" ">
<polygon fill="white" stroke="#bfbfbf" points="102.5,-134.5 102.5,-153.5 140.5,-153.5 140.5,-134.5 102.5,-134.5"/>
<text text-anchor="middle" x="121.5" y="-141.5" font-family="Helvetica,sans-Serif" font-size="10.00">char</text>
</a>
</g>
</g>
<!-- Node4&#45;&gt;Node3 -->
<g id="edge3" class="edge">
<title>Node4&#45;&gt;Node3</title>
<path fill="none" stroke="#9a32cd" stroke-dasharray="5,2" d="M127.91,-124.86C130.21,-118.54 132.89,-111.43 135.5,-105 137.97,-98.92 140.97,-92.17 143.35,-86.94"/>
<polygon fill="#9a32cd" stroke="#9a32cd" points="124.54,-123.89 124.46,-134.49 131.13,-126.26 124.54,-123.89"/>
<text text-anchor="middle" x="143.5" y="-108" font-family="Helvetica,sans-Serif" font-size="10.00"> str</text>
</g>
<!-- Node5 -->
<g id="node5" class="node">
<title>Node5</title>
<g id="a_node5"><a xlink:title=" ">
<polygon fill="white" stroke="#bfbfbf" points="159,-134.5 159,-153.5 188,-153.5 188,-134.5 159,-134.5"/>
<text text-anchor="middle" x="173.5" y="-141.5" font-family="Helvetica,sans-Serif" font-size="10.00">int</text>
</a>
</g>
</g>
<!-- Node5&#45;&gt;Node3 -->
<g id="edge4" class="edge">
<title>Node5&#45;&gt;Node3</title>
<path fill="none" stroke="#9a32cd" stroke-dasharray="5,2" d="M166.22,-124.79C161.22,-112.31 154.83,-96.31 150.95,-86.63"/>
<polygon fill="#9a32cd" stroke="#9a32cd" points="163.03,-126.25 169.99,-134.23 169.53,-123.65 163.03,-126.25"/>
<text text-anchor="middle" x="174" y="-108" font-family="Helvetica,sans-Serif" font-size="10.00"> num</text>
</g>
</g>
</svg>
