<?xml version="1.0" encoding="UTF-8" standalone="no"?>
<!DOCTYPE svg PUBLIC "-//W3C//DTD SVG 1.1//EN"
 "http://www.w3.org/Graphics/SVG/1.1/DTD/svg11.dtd">
<!-- Generated by graphviz version 2.43.0 (0)
 -->
<!-- Title: ParsedText::Element Pages: 1 -->
<svg width="761pt" height="519pt"
 viewBox="0.00 0.00 761.00 519.00" xmlns="http://www.w3.org/2000/svg" xmlns:xlink="http://www.w3.org/1999/xlink">
<g id="graph0" class="graph" transform="scale(1 1) rotate(0) translate(4 515)">
<title>ParsedText::Element</title>
<polygon fill="white" stroke="transparent" points="-4,4 -4,-515 757,-515 757,4 -4,4"/>
<!-- Node1 -->
<g id="node1" class="node">
<title>Node1</title>
<g id="a_node1"><a xlink:title=" ">
<polygon fill="#bfbfbf" stroke="black" points="637,-240.5 637,-259.5 753,-259.5 753,-240.5 637,-240.5"/>
<text text-anchor="middle" x="695" y="-247.5" font-family="Helvetica,sans-Serif" font-size="10.00">ParsedText::Element</text>
</a>
</g>
</g>
<!-- Node2 -->
<g id="node2" class="node">
<title>Node2</title>
<g id="a_node2"><a xlink:title=" ">
<polygon fill="white" stroke="#bfbfbf" points="409,-491.5 409,-510.5 546,-510.5 546,-491.5 409,-491.5"/>
<text text-anchor="middle" x="477.5" y="-498.5" font-family="Helvetica,sans-Serif" font-size="10.00">list&lt; ParsedText::Tag * &gt;</text>
</a>
</g>
</g>
<!-- Node2&#45;&gt;Node1 -->
<g id="edge1" class="edge">
<title>Node2&#45;&gt;Node1</title>
<path fill="none" stroke="#9a32cd" stroke-dasharray="5,2" d="M556.27,-498.04C578.74,-493.69 601.81,-485.38 619,-470 684.27,-411.62 692.78,-294.14 693.85,-259.7"/>
<polygon fill="#9a32cd" stroke="#9a32cd" points="555.63,-494.6 546.36,-499.72 556.8,-501.5 555.63,-494.6"/>
<text text-anchor="middle" x="591.5" y="-498" font-family="Helvetica,sans-Serif" font-size="10.00"> tags</text>
</g>
<!-- Node3 -->
<g id="node3" class="node">
<title>Node3</title>
<g id="a_node3"><a xlink:title=" ">
<polygon fill="white" stroke="#bfbfbf" points="437.5,-453.5 437.5,-472.5 517.5,-472.5 517.5,-453.5 437.5,-453.5"/>
<text text-anchor="middle" x="477.5" y="-460.5" font-family="Helvetica,sans-Serif" font-size="10.00">ElementType</text>
</a>
</g>
</g>
<!-- Node3&#45;&gt;Node1 -->
<g id="edge2" class="edge">
<title>Node3&#45;&gt;Node1</title>
<path fill="none" stroke="#9a32cd" stroke-dasharray="5,2" d="M527.74,-462.33C557.24,-459.49 593.79,-451.38 619,-430 674,-383.36 689.4,-289.72 693.02,-259.58"/>
<polygon fill="#9a32cd" stroke="#9a32cd" points="527.33,-458.85 517.63,-463.12 527.88,-465.83 527.33,-458.85"/>
<text text-anchor="middle" x="591.5" y="-458" font-family="Helvetica,sans-Serif" font-size="10.00"> type</text>
</g>
<!-- Node4 -->
<g id="node4" class="node">
<title>Node4</title>
<g id="a_node4"><a xlink:href="classirr_1_1video_1_1SColor.html" target="_top" xlink:title="Class representing a 32 bit ARGB color.">
<polygon fill="white" stroke="black" points="428.5,-415.5 428.5,-434.5 526.5,-434.5 526.5,-415.5 428.5,-415.5"/>
<text text-anchor="middle" x="477.5" y="-422.5" font-family="Helvetica,sans-Serif" font-size="10.00">irr::video::SColor</text>
</a>
</g>
</g>
<!-- Node4&#45;&gt;Node1 -->
<g id="edge3" class="edge">
<title>Node4&#45;&gt;Node1</title>
<path fill="none" stroke="#9a32cd" stroke-dasharray="5,2" d="M536.58,-414.21C564.09,-406.7 595.89,-394.27 619,-374 657.21,-340.49 681.82,-282.66 690.5,-259.75"/>
<polygon fill="#9a32cd" stroke="#9a32cd" points="535.48,-410.87 526.67,-416.75 537.22,-417.65 535.48,-410.87"/>
<text text-anchor="middle" x="591.5" y="-418" font-family="Helvetica,sans-Serif" font-size="10.00"> hovercolor</text>
<text text-anchor="middle" x="591.5" y="-407" font-family="Helvetica,sans-Serif" font-size="10.00">color</text>
</g>
<!-- Node5 -->
<g id="node5" class="node">
<title>Node5</title>
<g id="a_node5"><a xlink:title=" ">
<polygon fill="white" stroke="#bfbfbf" points="225,-422.5 225,-441.5 281,-441.5 281,-422.5 225,-422.5"/>
<text text-anchor="middle" x="253" y="-429.5" font-family="Helvetica,sans-Serif" font-size="10.00">uint32_t</text>
</a>
</g>
</g>
<!-- Node5&#45;&gt;Node4 -->
<g id="edge4" class="edge">
<title>Node5&#45;&gt;Node4</title>
<path fill="none" stroke="#9a32cd" stroke-dasharray="5,2" d="M291.4,-430.97C318.94,-430.19 357.3,-429.08 391,-428 403.02,-427.61 416,-427.17 428.12,-426.75"/>
<polygon fill="#9a32cd" stroke="#9a32cd" points="290.93,-427.48 281.04,-431.26 291.13,-434.48 290.93,-427.48"/>
<text text-anchor="middle" x="369" y="-432" font-family="Helvetica,sans-Serif" font-size="10.00"> color</text>
</g>
<!-- Node8 -->
<g id="node8" class="node">
<title>Node8</title>
<g id="a_node8"><a xlink:href="classirr_1_1core_1_1dimension2d.html" target="_top" xlink:title=" ">
<polygon fill="white" stroke="black" points="416,-366 416,-396 539,-396 539,-366 416,-366"/>
<text text-anchor="start" x="424" y="-384" font-family="Helvetica,sans-Serif" font-size="10.00">irr::core::dimension2d</text>
<text text-anchor="middle" x="477.5" y="-373" font-family="Helvetica,sans-Serif" font-size="10.00">&lt; u32 &gt;</text>
</a>
</g>
</g>
<!-- Node5&#45;&gt;Node8 -->
<g id="edge8" class="edge">
<title>Node5&#45;&gt;Node8</title>
<path fill="none" stroke="#9a32cd" stroke-dasharray="5,2" d="M289.77,-419.06C306.91,-413.22 327.84,-406.62 347,-402 369.25,-396.64 393.99,-392.25 415.84,-388.9"/>
<polygon fill="#9a32cd" stroke="#9a32cd" points="288.46,-415.81 280.15,-422.39 290.75,-422.43 288.46,-415.81"/>
<text text-anchor="middle" x="369" y="-416" font-family="Helvetica,sans-Serif" font-size="10.00"> Width</text>
<text text-anchor="middle" x="369" y="-405" font-family="Helvetica,sans-Serif" font-size="10.00">Height</text>
</g>
<!-- Node6 -->
<g id="node6" class="node">
<title>Node6</title>
<g id="a_node6"><a xlink:title=" ">
<polygon fill="white" stroke="#bfbfbf" points="445.5,-278.5 445.5,-297.5 509.5,-297.5 509.5,-278.5 445.5,-278.5"/>
<text text-anchor="middle" x="477.5" y="-285.5" font-family="Helvetica,sans-Serif" font-size="10.00">FloatType</text>
</a>
</g>
</g>
<!-- Node6&#45;&gt;Node1 -->
<g id="edge5" class="edge">
<title>Node6&#45;&gt;Node1</title>
<path fill="none" stroke="#9a32cd" stroke-dasharray="5,2" d="M519.76,-281.64C547.79,-277.22 585.68,-271.06 619,-265 628.28,-263.31 638.18,-261.41 647.64,-259.54"/>
<polygon fill="#9a32cd" stroke="#9a32cd" points="518.86,-278.23 509.53,-283.24 519.95,-285.15 518.86,-278.23"/>
<text text-anchor="middle" x="591.5" y="-277" font-family="Helvetica,sans-Serif" font-size="10.00"> floating</text>
</g>
<!-- Node7 -->
<g id="node7" class="node">
<title>Node7</title>
<g id="a_node7"><a xlink:title=" ">
<polygon fill="white" stroke="#bfbfbf" points="424,-240.5 424,-259.5 531,-259.5 531,-240.5 424,-240.5"/>
<text text-anchor="middle" x="477.5" y="-247.5" font-family="Helvetica,sans-Serif" font-size="10.00">position2d&lt; s32 &gt;</text>
</a>
</g>
</g>
<!-- Node7&#45;&gt;Node1 -->
<g id="edge6" class="edge">
<title>Node7&#45;&gt;Node1</title>
<path fill="none" stroke="#9a32cd" stroke-dasharray="5,2" d="M541.23,-250C571.46,-250 607.46,-250 636.92,-250"/>
<polygon fill="#9a32cd" stroke="#9a32cd" points="541.22,-246.5 531.22,-250 541.22,-253.5 541.22,-246.5"/>
<text text-anchor="middle" x="591.5" y="-253" font-family="Helvetica,sans-Serif" font-size="10.00"> pos</text>
</g>
<!-- Node8&#45;&gt;Node1 -->
<g id="edge7" class="edge">
<title>Node8&#45;&gt;Node1</title>
<path fill="none" stroke="#9a32cd" stroke-dasharray="5,2" d="M548.89,-364.6C572.37,-357.19 597.91,-346.9 619,-333 649.81,-312.7 676.2,-276.81 687.76,-259.66"/>
<polygon fill="#9a32cd" stroke="#9a32cd" points="547.87,-361.25 539.32,-367.5 549.9,-367.95 547.87,-361.25"/>
<text text-anchor="middle" x="591.5" y="-362" font-family="Helvetica,sans-Serif" font-size="10.00"> dim</text>
</g>
<!-- Node9 -->
<g id="node9" class="node">
<title>Node9</title>
<g id="a_node9"><a xlink:href="classirr_1_1core_1_1dimension2d.html" target="_top" xlink:title="Specifies a 2 dimensional size.">
<polygon fill="white" stroke="black" points="177,-364.5 177,-383.5 329,-383.5 329,-364.5 177,-364.5"/>
<text text-anchor="middle" x="253" y="-371.5" font-family="Helvetica,sans-Serif" font-size="10.00">irr::core::dimension2d&lt; T &gt;</text>
</a>
</g>
</g>
<!-- Node9&#45;&gt;Node8 -->
<g id="edge9" class="edge">
<title>Node9&#45;&gt;Node8</title>
<path fill="none" stroke="orange" stroke-dasharray="5,2" d="M339.07,-370.99C356.27,-370.88 374.22,-371.12 391,-372 399.05,-372.42 407.51,-373.07 415.84,-373.82"/>
<polygon fill="orange" stroke="orange" points="339.01,-367.49 329.05,-371.09 339.08,-374.49 339.01,-367.49"/>
<text text-anchor="middle" x="369" y="-375" font-family="Helvetica,sans-Serif" font-size="10.00"> &lt; u32 &gt;</text>
</g>
<!-- Node10 -->
<g id="node10" class="node">
<title>Node10</title>
<g id="a_node10"><a xlink:title=" ">
<polygon fill="white" stroke="#bfbfbf" points="10.5,-341.5 10.5,-360.5 39.5,-360.5 39.5,-341.5 10.5,-341.5"/>
<text text-anchor="middle" x="25" y="-348.5" font-family="Helvetica,sans-Serif" font-size="10.00">T</text>
</a>
</g>
</g>
<!-- Node10&#45;&gt;Node9 -->
<g id="edge10" class="edge">
<title>Node10&#45;&gt;Node9</title>
<path fill="none" stroke="#9a32cd" stroke-dasharray="5,2" d="M49.68,-354.59C55.65,-355.44 62.06,-356.3 68,-357 103.68,-361.19 143.36,-364.97 176.71,-367.9"/>
<polygon fill="#9a32cd" stroke="#9a32cd" points="50,-351.1 39.6,-353.12 48.98,-358.03 50,-351.1"/>
<text text-anchor="middle" x="113.5" y="-380" font-family="Helvetica,sans-Serif" font-size="10.00"> Width</text>
<text text-anchor="middle" x="113.5" y="-369" font-family="Helvetica,sans-Serif" font-size="10.00">Height</text>
</g>
<!-- Node24 -->
<g id="node24" class="node">
<title>Node24</title>
<g id="a_node24"><a xlink:href="classirr_1_1core_1_1vector3d.html" target="_top" xlink:title="3d vector template class with lots of operators and methods.">
<polygon fill="white" stroke="black" points="187.5,-319.5 187.5,-338.5 318.5,-338.5 318.5,-319.5 187.5,-319.5"/>
<text text-anchor="middle" x="253" y="-326.5" font-family="Helvetica,sans-Serif" font-size="10.00">irr::core::vector3d&lt; T &gt;</text>
</a>
</g>
</g>
<!-- Node10&#45;&gt;Node24 -->
<g id="edge25" class="edge">
<title>Node10&#45;&gt;Node24</title>
<path fill="none" stroke="#9a32cd" stroke-dasharray="5,2" d="M45.3,-335.33C52.07,-330.75 59.99,-326.35 68,-324 112,-311.08 164.49,-314.21 202.12,-319.47"/>
<polygon fill="#9a32cd" stroke="#9a32cd" points="42.88,-332.76 36.88,-341.5 47.02,-338.41 42.88,-332.76"/>
<text text-anchor="middle" x="113.5" y="-349" font-family="Helvetica,sans-Serif" font-size="10.00"> X</text>
<text text-anchor="middle" x="113.5" y="-338" font-family="Helvetica,sans-Serif" font-size="10.00">Y</text>
<text text-anchor="middle" x="113.5" y="-327" font-family="Helvetica,sans-Serif" font-size="10.00">Z</text>
</g>
<!-- Node11 -->
<g id="node11" class="node">
<title>Node11</title>
<g id="a_node11"><a xlink:href="classirr_1_1gui_1_1IGUIFont.html" target="_top" xlink:title="Font interface.">
<polygon fill="white" stroke="black" points="429.5,-202.5 429.5,-221.5 525.5,-221.5 525.5,-202.5 429.5,-202.5"/>
<text text-anchor="middle" x="477.5" y="-209.5" font-family="Helvetica,sans-Serif" font-size="10.00">irr::gui::IGUIFont</text>
</a>
</g>
</g>
<!-- Node11&#45;&gt;Node1 -->
<g id="edge11" class="edge">
<title>Node11&#45;&gt;Node1</title>
<path fill="none" stroke="#9a32cd" stroke-dasharray="5,2" d="M535.62,-220.88C561.16,-224.98 591.63,-230.02 619,-235 628.28,-236.69 638.18,-238.59 647.64,-240.46"/>
<polygon fill="#9a32cd" stroke="#9a32cd" points="536.15,-217.42 525.73,-219.31 535.05,-224.34 536.15,-217.42"/>
<text text-anchor="middle" x="591.5" y="-238" font-family="Helvetica,sans-Serif" font-size="10.00"> font</text>
</g>
<!-- Node12 -->
<g id="node12" class="node">
<title>Node12</title>
<g id="a_node12"><a xlink:href="classirr_1_1IReferenceCounted.html" target="_top" xlink:title="Base class of most objects of the Irrlicht Engine.">
<polygon fill="white" stroke="black" points="190,-202.5 190,-221.5 316,-221.5 316,-202.5 190,-202.5"/>
<text text-anchor="middle" x="253" y="-209.5" font-family="Helvetica,sans-Serif" font-size="10.00">irr::IReferenceCounted</text>
</a>
</g>
</g>
<!-- Node12&#45;&gt;Node11 -->
<g id="edge12" class="edge">
<title>Node12&#45;&gt;Node11</title>
<path fill="none" stroke="midnightblue" d="M326.57,-212C360.36,-212 399.59,-212 429.44,-212"/>
<polygon fill="midnightblue" stroke="midnightblue" points="326.27,-208.5 316.27,-212 326.27,-215.5 326.27,-208.5"/>
</g>
<!-- Node13 -->
<g id="node13" class="node">
<title>Node13</title>
<g id="a_node13"><a xlink:title=" ">
<polygon fill="white" stroke="#bfbfbf" points="6,-221.5 6,-240.5 44,-240.5 44,-221.5 6,-221.5"/>
<text text-anchor="middle" x="25" y="-228.5" font-family="Helvetica,sans-Serif" font-size="10.00">char</text>
</a>
</g>
</g>
<!-- Node13&#45;&gt;Node12 -->
<g id="edge13" class="edge">
<title>Node13&#45;&gt;Node12</title>
<path fill="none" stroke="#9a32cd" stroke-dasharray="5,2" d="M54.19,-228.63C87.93,-225.79 145.43,-220.96 189.77,-217.23"/>
<polygon fill="#9a32cd" stroke="#9a32cd" points="53.78,-225.15 44.11,-229.48 54.37,-232.13 53.78,-225.15"/>
<text text-anchor="middle" x="113.5" y="-230" font-family="Helvetica,sans-Serif" font-size="10.00"> DebugName</text>
</g>
<!-- Node14 -->
<g id="node14" class="node">
<title>Node14</title>
<g id="a_node14"><a xlink:title=" ">
<polygon fill="white" stroke="#bfbfbf" points="0,-183.5 0,-202.5 50,-202.5 50,-183.5 0,-183.5"/>
<text text-anchor="middle" x="25" y="-190.5" font-family="Helvetica,sans-Serif" font-size="10.00">int32_t</text>
</a>
</g>
</g>
<!-- Node14&#45;&gt;Node12 -->
<g id="edge14" class="edge">
<title>Node14&#45;&gt;Node12</title>
<path fill="none" stroke="#9a32cd" stroke-dasharray="5,2" d="M60.16,-195.87C94.4,-198.75 147.89,-203.25 189.7,-206.76"/>
<polygon fill="#9a32cd" stroke="#9a32cd" points="60.44,-192.38 50.19,-195.03 59.86,-199.36 60.44,-192.38"/>
<text text-anchor="middle" x="113.5" y="-206" font-family="Helvetica,sans-Serif" font-size="10.00"> ReferenceCounter</text>
</g>
<!-- Node15 -->
<g id="node15" class="node">
<title>Node15</title>
<g id="a_node15"><a xlink:title=" ">
<polygon fill="white" stroke="#bfbfbf" points="443,-164.5 443,-183.5 512,-183.5 512,-164.5 443,-164.5"/>
<text text-anchor="middle" x="477.5" y="-171.5" font-family="Helvetica,sans-Serif" font-size="10.00">ValignType</text>
</a>
</g>
</g>
<!-- Node15&#45;&gt;Node1 -->
<g id="edge15" class="edge">
<title>Node15&#45;&gt;Node1</title>
<path fill="none" stroke="#9a32cd" stroke-dasharray="5,2" d="M522.08,-182.35C550.26,-188.43 587.43,-197.74 619,-210 640.6,-218.39 663.91,-231.53 678.72,-240.44"/>
<polygon fill="#9a32cd" stroke="#9a32cd" points="522.64,-178.89 512.13,-180.25 521.2,-185.74 522.64,-178.89"/>
<text text-anchor="middle" x="591.5" y="-213" font-family="Helvetica,sans-Serif" font-size="10.00"> valign</text>
</g>
<!-- Node16 -->
<g id="node16" class="node">
<title>Node16</title>
<g id="a_node16"><a xlink:title=" ">
<polygon fill="white" stroke="#bfbfbf" points="455.5,-126.5 455.5,-145.5 499.5,-145.5 499.5,-126.5 455.5,-126.5"/>
<text text-anchor="middle" x="477.5" y="-133.5" font-family="Helvetica,sans-Serif" font-size="10.00">string</text>
</a>
</g>
</g>
<!-- Node16&#45;&gt;Node1 -->
<g id="edge16" class="edge">
<title>Node16&#45;&gt;Node1</title>
<path fill="none" stroke="#9a32cd" stroke-dasharray="5,2" d="M510,-140.59C539.71,-145.95 584.68,-156.79 619,-177 648.12,-194.15 674.52,-224.92 686.78,-240.46"/>
<polygon fill="#9a32cd" stroke="#9a32cd" points="510.24,-137.08 499.8,-138.86 509.07,-143.99 510.24,-137.08"/>
<text text-anchor="middle" x="591.5" y="-180" font-family="Helvetica,sans-Serif" font-size="10.00"> name</text>
</g>
<!-- Node17 -->
<g id="node17" class="node">
<title>Node17</title>
<g id="a_node17"><a xlink:href="classbool.html" target="_top" xlink:title=" ">
<polygon fill="white" stroke="black" points="458.5,-88.5 458.5,-107.5 496.5,-107.5 496.5,-88.5 458.5,-88.5"/>
<text text-anchor="middle" x="477.5" y="-95.5" font-family="Helvetica,sans-Serif" font-size="10.00">bool</text>
</a>
</g>
</g>
<!-- Node17&#45;&gt;Node1 -->
<g id="edge17" class="edge">
<title>Node17&#45;&gt;Node1</title>
<path fill="none" stroke="#9a32cd" stroke-dasharray="5,2" d="M506.96,-100.52C537.29,-104.43 585.47,-114.31 619,-139 656.46,-166.58 681.16,-218.81 690.18,-240.35"/>
<polygon fill="#9a32cd" stroke="#9a32cd" points="506.99,-97 496.66,-99.33 506.19,-103.95 506.99,-97"/>
<text text-anchor="middle" x="591.5" y="-142" font-family="Helvetica,sans-Serif" font-size="10.00"> underline</text>
</g>
<!-- Node18 -->
<g id="node18" class="node">
<title>Node18</title>
<g id="a_node18"><a xlink:href="classirr_1_1core_1_1string.html" target="_top" xlink:title="Very simple string class with some useful features.">
<polygon fill="white" stroke="black" points="419.5,-50.5 419.5,-69.5 535.5,-69.5 535.5,-50.5 419.5,-50.5"/>
<text text-anchor="middle" x="477.5" y="-57.5" font-family="Helvetica,sans-Serif" font-size="10.00">irr::core::string&lt; T &gt;</text>
</a>
</g>
</g>
<!-- Node18&#45;&gt;Node1 -->
<g id="edge18" class="edge">
<title>Node18&#45;&gt;Node1</title>
<path fill="none" stroke="#9a32cd" stroke-dasharray="5,2" d="M545.74,-66.4C570.93,-71.64 598.41,-81.07 619,-98 666.5,-137.07 686.43,-213.66 692.15,-240.46"/>
<polygon fill="#9a32cd" stroke="#9a32cd" points="546.32,-62.95 535.85,-64.53 545.02,-69.83 546.32,-62.95"/>
<text text-anchor="middle" x="591.5" y="-101" font-family="Helvetica,sans-Serif" font-size="10.00"> text</text>
</g>
<!-- Node19 -->
<g id="node19" class="node">
<title>Node19</title>
<g id="a_node19"><a xlink:title=" ">
<polygon fill="white" stroke="#bfbfbf" points="201,-69.5 201,-88.5 305,-88.5 305,-69.5 201,-69.5"/>
<text text-anchor="middle" x="253" y="-76.5" font-family="Helvetica,sans-Serif" font-size="10.00">basic_string&lt; T &gt;</text>
</a>
</g>
</g>
<!-- Node19&#45;&gt;Node18 -->
<g id="edge19" class="edge">
<title>Node19&#45;&gt;Node18</title>
<path fill="none" stroke="#9a32cd" stroke-dasharray="5,2" d="M315.33,-73.76C347.86,-70.98 387.57,-67.59 419.43,-64.87"/>
<polygon fill="#9a32cd" stroke="#9a32cd" points="314.71,-70.3 305.05,-74.64 315.31,-77.28 314.71,-70.3"/>
<text text-anchor="middle" x="369" y="-73" font-family="Helvetica,sans-Serif" font-size="10.00"> str</text>
</g>
<!-- Node20 -->
<g id="node20" class="node">
<title>Node20</title>
<g id="a_node20"><a xlink:title=" ">
<polygon fill="white" stroke="#bfbfbf" points="192,-31.5 192,-50.5 314,-50.5 314,-31.5 192,-31.5"/>
<text text-anchor="middle" x="253" y="-38.5" font-family="Helvetica,sans-Serif" font-size="10.00">static const size_type</text>
</a>
</g>
</g>
<!-- Node20&#45;&gt;Node18 -->
<g id="edge20" class="edge">
<title>Node20&#45;&gt;Node18</title>
<path fill="none" stroke="#9a32cd" stroke-dasharray="5,2" d="M324.06,-46.45C345.54,-48.16 369.25,-50.11 391,-52 400.21,-52.8 409.97,-53.68 419.48,-54.56"/>
<polygon fill="#9a32cd" stroke="#9a32cd" points="324.28,-42.95 314.03,-45.65 323.72,-49.93 324.28,-42.95"/>
<text text-anchor="middle" x="369" y="-55" font-family="Helvetica,sans-Serif" font-size="10.00"> npos</text>
</g>
<!-- Node21 -->
<g id="node21" class="node">
<title>Node21</title>
<g id="a_node21"><a xlink:title=" ">
<polygon fill="white" stroke="#bfbfbf" points="460.5,-0.5 460.5,-19.5 494.5,-19.5 494.5,-0.5 460.5,-0.5"/>
<text text-anchor="middle" x="477.5" y="-7.5" font-family="Helvetica,sans-Serif" font-size="10.00">s32</text>
</a>
</g>
</g>
<!-- Node21&#45;&gt;Node1 -->
<g id="edge21" class="edge">
<title>Node21&#45;&gt;Node1</title>
<path fill="none" stroke="#9a32cd" stroke-dasharray="5,2" d="M504.57,-7.1C535.5,-5.15 586.91,-6.81 619,-34 684.72,-89.68 692.91,-206.17 693.88,-240.37"/>
<polygon fill="#9a32cd" stroke="#9a32cd" points="504.24,-3.61 494.55,-7.9 504.8,-10.59 504.24,-3.61"/>
<text text-anchor="middle" x="591.5" y="-59" font-family="Helvetica,sans-Serif" font-size="10.00"> drawwidth</text>
<text text-anchor="middle" x="591.5" y="-48" font-family="Helvetica,sans-Serif" font-size="10.00">baseline</text>
<text text-anchor="middle" x="591.5" y="-37" font-family="Helvetica,sans-Serif" font-size="10.00">margin</text>
</g>
<!-- Node22 -->
<g id="node22" class="node">
<title>Node22</title>
<g id="a_node22"><a xlink:href="classirr_1_1core_1_1vector3d.html" target="_top" xlink:title=" ">
<polygon fill="white" stroke="black" points="426,-317 426,-347 529,-347 529,-317 426,-317"/>
<text text-anchor="start" x="434" y="-335" font-family="Helvetica,sans-Serif" font-size="10.00">irr::core::vector3d</text>
<text text-anchor="middle" x="477.5" y="-324" font-family="Helvetica,sans-Serif" font-size="10.00">&lt; s16 &gt;</text>
</a>
</g>
</g>
<!-- Node22&#45;&gt;Node1 -->
<g id="edge22" class="edge">
<title>Node22&#45;&gt;Node1</title>
<path fill="none" stroke="#9a32cd" stroke-dasharray="5,2" d="M538.8,-316.17C563.96,-308.89 593.26,-299.53 619,-289 639.92,-280.44 662.81,-268.07 677.73,-259.57"/>
<polygon fill="#9a32cd" stroke="#9a32cd" points="537.68,-312.85 529.02,-318.95 539.6,-319.58 537.68,-312.85"/>
<text text-anchor="middle" x="591.5" y="-321" font-family="Helvetica,sans-Serif" font-size="10.00"> rotation</text>
<text text-anchor="middle" x="591.5" y="-310" font-family="Helvetica,sans-Serif" font-size="10.00">angle</text>
</g>
<!-- Node23 -->
<g id="node23" class="node">
<title>Node23</title>
<g id="a_node23"><a xlink:title=" ">
<polygon fill="white" stroke="#bfbfbf" points="236,-266.5 236,-285.5 270,-285.5 270,-266.5 236,-266.5"/>
<text text-anchor="middle" x="253" y="-273.5" font-family="Helvetica,sans-Serif" font-size="10.00">s16</text>
</a>
</g>
</g>
<!-- Node23&#45;&gt;Node22 -->
<g id="edge23" class="edge">
<title>Node23&#45;&gt;Node22</title>
<path fill="none" stroke="#9a32cd" stroke-dasharray="5,2" d="M280.64,-275.19C309.05,-275.25 354.83,-278.04 391,-293 400.37,-296.87 400.14,-302.07 409,-307 415.55,-310.65 422.74,-313.96 429.91,-316.89"/>
<polygon fill="#9a32cd" stroke="#9a32cd" points="280.28,-271.69 270.31,-275.29 280.35,-278.69 280.28,-271.69"/>
<text text-anchor="middle" x="369" y="-318" font-family="Helvetica,sans-Serif" font-size="10.00"> X</text>
<text text-anchor="middle" x="369" y="-307" font-family="Helvetica,sans-Serif" font-size="10.00">Y</text>
<text text-anchor="middle" x="369" y="-296" font-family="Helvetica,sans-Serif" font-size="10.00">Z</text>
</g>
<!-- Node24&#45;&gt;Node22 -->
<g id="edge24" class="edge">
<title>Node24&#45;&gt;Node22</title>
<path fill="none" stroke="orange" stroke-dasharray="5,2" d="M328.84,-330.01C360.76,-330.44 397.16,-330.93 425.84,-331.32"/>
<polygon fill="orange" stroke="orange" points="328.7,-326.51 318.66,-329.87 328.61,-333.51 328.7,-326.51"/>
<text text-anchor="middle" x="369" y="-333" font-family="Helvetica,sans-Serif" font-size="10.00"> &lt; s16 &gt;</text>
</g>
</g>
</svg>
