<?xml version="1.0" encoding="UTF-8" standalone="no"?>
<!DOCTYPE svg PUBLIC "-//W3C//DTD SVG 1.1//EN"
 "http://www.w3.org/Graphics/SVG/1.1/DTD/svg11.dtd">
<!-- Generated by graphviz version 2.43.0 (0)
 -->
<!-- Title: con::BufferedPacket Pages: 1 -->
<!--zoomable 173 -->
<svg id="main" version="1.1" xmlns="http://www.w3.org/2000/svg" xmlns:xlink="http://www.w3.org/1999/xlink" xml:space="preserve" onload="init(evt)">
<style type="text/css"><![CDATA[
.edge:hover path { stroke: red; }
.edge:hover polygon { stroke: red; fill: red; }
]]></style>
<script type="text/javascript"><![CDATA[
var edges = document.getElementsByTagName('g');
if (edges && edges.length) {
  for (var i=0;i<edges.length;i++) {
    if (edges[i].id.substr(0,4)=='edge') {
      edges[i].setAttribute('class','edge');
    }
  }
}
]]></script>
        <defs>
                <circle id="rim" cx="0" cy="0" r="7"/>
                <circle id="rim2" cx="0" cy="0" r="3.5"/>
                <g id="zoomPlus">
                        <use xlink:href="#rim" fill="#404040">
                                <set attributeName="fill" to="#808080" begin="zoomplus.mouseover" end="zoomplus.mouseout"/>
                        </use>
                        <path d="M-4,0h8M0,-4v8" fill="none" stroke="white" stroke-width="1.5" pointer-events="none"/>
                </g>
                <g id="zoomMin">
                        <use xlink:href="#rim" fill="#404040">
                                <set attributeName="fill" to="#808080" begin="zoomminus.mouseover" end="zoomminus.mouseout"/>
                        </use>
                        <path d="M-4,0h8" fill="none" stroke="white" stroke-width="1.5" pointer-events="none"/>
                </g>
                <g id="dirArrow">
                        <path fill="none" stroke="white" stroke-width="1.5" d="M0,-3.0v7 M-2.5,-0.5L0,-3.0L2.5,-0.5"/>
                </g>
               <g id="resetDef">
                       <use xlink:href="#rim2" fill="#404040">
                               <set attributeName="fill" to="#808080" begin="reset.mouseover" end="reset.mouseout"/>
                       </use>
               </g>
        </defs>

<script type="text/javascript">
var viewWidth = 852;
var viewHeight = 173;
var sectionId = 'dynsection-0';
</script>
<script xlink:href="svgpan.js"/>
<svg id="graph" class="graph">
<g id="viewport">
<title>con::BufferedPacket</title>
<polygon fill="white" stroke="transparent" points="-4,4 -4,-169 847.5,-169 847.5,4 -4,4"/>
<!-- Node1 -->
<g id="node1" class="node">
<title>Node1</title>
<g id="a_node1"><a xlink:title=" ">
<polygon fill="#bfbfbf" stroke="black" points="543,-0.5 543,-19.5 656,-19.5 656,-0.5 543,-0.5"/>
<text text-anchor="middle" x="599.5" y="-7.5" font-family="Helvetica,sans-Serif" font-size="10.00">con::BufferedPacket</text>
</a>
</g>
</g>
<!-- Node2 -->
<g id="node2" class="node">
<title>Node2</title>
<g id="a_node2"><a xlink:href="classAddress.html" target="_top" xlink:title=" ">
<polygon fill="white" stroke="black" points="205.5,-78.5 205.5,-97.5 261.5,-97.5 261.5,-78.5 205.5,-78.5"/>
<text text-anchor="middle" x="233.5" y="-85.5" font-family="Helvetica,sans-Serif" font-size="10.00">Address</text>
</a>
</g>
</g>
<!-- Node2&#45;&gt;Node1 -->
<g id="edge1" class="edge">
<title>Node2&#45;&gt;Node1</title>
<path fill="none" stroke="#9a32cd" stroke-dasharray="5,2" d="M265.22,-74.76C295.45,-63.57 342.45,-47.38 384.5,-38 437.56,-26.17 499.22,-19.09 542.87,-15.17"/>
<polygon fill="#9a32cd" stroke="#9a32cd" points="263.78,-71.57 255.65,-78.35 266.24,-78.12 263.78,-71.57"/>
<text text-anchor="middle" x="405.5" y="-46.5" font-family="Helvetica,sans-Serif" font-size="10.00"> address</text>
</g>
<!-- Node3 -->
<g id="node3" class="node">
<title>Node3</title>
<g id="a_node3"><a xlink:title=" ">
<polygon fill="white" stroke="#bfbfbf" points="0,-145.5 0,-164.5 83,-164.5 83,-145.5 0,-145.5"/>
<text text-anchor="middle" x="41.5" y="-152.5" font-family="Helvetica,sans-Serif" font-size="10.00">struct in_addr</text>
</a>
</g>
</g>
<!-- Node3&#45;&gt;Node2 -->
<g id="edge2" class="edge">
<title>Node3&#45;&gt;Node2</title>
<path fill="none" stroke="#9a32cd" stroke-dasharray="5,2" d="M67.8,-141.01C84.6,-133.06 106.99,-123.09 127.5,-116 153.35,-107.07 183.65,-99.64 205.23,-94.85"/>
<polygon fill="#9a32cd" stroke="#9a32cd" points="66.12,-137.93 58.62,-145.42 69.15,-144.25 66.12,-137.93"/>
<text text-anchor="middle" x="140" y="-119" font-family="Helvetica,sans-Serif" font-size="10.00"> ipv4</text>
</g>
<!-- Node4 -->
<g id="node4" class="node">
<title>Node4</title>
<g id="a_node4"><a xlink:title=" ">
<polygon fill="white" stroke="#bfbfbf" points="101,-145.5 101,-164.5 136,-164.5 136,-145.5 101,-145.5"/>
<text text-anchor="middle" x="118.5" y="-152.5" font-family="Helvetica,sans-Serif" font-size="10.00">u16</text>
</a>
</g>
</g>
<!-- Node4&#45;&gt;Node2 -->
<g id="edge3" class="edge">
<title>Node4&#45;&gt;Node2</title>
<path fill="none" stroke="#9a32cd" stroke-dasharray="5,2" d="M137.34,-139.36C147.45,-131.87 160.31,-122.9 172.5,-116 184.9,-108.98 199.46,-102.48 211.25,-97.61"/>
<polygon fill="#9a32cd" stroke="#9a32cd" points="135.12,-136.66 129.25,-145.48 139.34,-142.24 135.12,-136.66"/>
<text text-anchor="middle" x="191.5" y="-119" font-family="Helvetica,sans-Serif" font-size="10.00"> m_port</text>
</g>
<!-- Node5 -->
<g id="node5" class="node">
<title>Node5</title>
<g id="a_node5"><a xlink:title=" ">
<polygon fill="white" stroke="#bfbfbf" points="154,-145.5 154,-164.5 243,-164.5 243,-145.5 154,-145.5"/>
<text text-anchor="middle" x="198.5" y="-152.5" font-family="Helvetica,sans-Serif" font-size="10.00">struct in6_addr</text>
</a>
</g>
</g>
<!-- Node5&#45;&gt;Node2 -->
<g id="edge4" class="edge">
<title>Node5&#45;&gt;Node2</title>
<path fill="none" stroke="#9a32cd" stroke-dasharray="5,2" d="M208.1,-136.16C214.85,-123.63 223.59,-107.41 228.85,-97.63"/>
<polygon fill="#9a32cd" stroke="#9a32cd" points="204.88,-134.77 203.22,-145.23 211.04,-138.09 204.88,-134.77"/>
<text text-anchor="middle" x="231" y="-119" font-family="Helvetica,sans-Serif" font-size="10.00"> ipv6</text>
</g>
<!-- Node6 -->
<g id="node6" class="node">
<title>Node6</title>
<g id="a_node6"><a xlink:title=" ">
<polygon fill="white" stroke="#bfbfbf" points="261.5,-145.5 261.5,-164.5 391.5,-164.5 391.5,-145.5 261.5,-145.5"/>
<text text-anchor="middle" x="326.5" y="-152.5" font-family="Helvetica,sans-Serif" font-size="10.00">anonymous:m_address</text>
</a>
</g>
</g>
<!-- Node6&#45;&gt;Node2 -->
<g id="edge5" class="edge">
<title>Node6&#45;&gt;Node2</title>
<path fill="none" stroke="#9a32cd" stroke-dasharray="5,2" d="M294.27,-141.27C285.85,-137.28 277.04,-132.46 269.5,-127 257.88,-118.57 246.89,-106.07 240.18,-97.74"/>
<polygon fill="#9a32cd" stroke="#9a32cd" points="292.95,-144.51 303.51,-145.42 295.82,-138.13 292.95,-144.51"/>
<text text-anchor="middle" x="298" y="-119" font-family="Helvetica,sans-Serif" font-size="10.00"> m_address</text>
</g>
<!-- Node7 -->
<g id="node7" class="node">
<title>Node7</title>
<g id="a_node7"><a xlink:title=" ">
<polygon fill="white" stroke="#bfbfbf" points="410,-145.5 410,-164.5 471,-164.5 471,-145.5 410,-145.5"/>
<text text-anchor="middle" x="440.5" y="-152.5" font-family="Helvetica,sans-Serif" font-size="10.00">unsigned</text>
</a>
</g>
</g>
<!-- Node7&#45;&gt;Node1 -->
<g id="edge11" class="edge">
<title>Node7&#45;&gt;Node1</title>
<path fill="none" stroke="#9a32cd" stroke-dasharray="5,2" d="M437.84,-134.86C436.59,-118.24 437.47,-94.35 449.5,-78 473.59,-45.26 517.33,-28.21 551.39,-19.53"/>
<polygon fill="#9a32cd" stroke="#9a32cd" points="434.39,-135.45 438.93,-145.02 441.34,-134.7 434.39,-135.45"/>
<text text-anchor="middle" x="484" y="-85.5" font-family="Helvetica,sans-Serif" font-size="10.00"> resend_count</text>
</g>
<!-- Node7&#45;&gt;Node2 -->
<g id="edge6" class="edge">
<title>Node7&#45;&gt;Node2</title>
<path fill="none" stroke="#9a32cd" stroke-dasharray="5,2" d="M399.72,-143.39C383.86,-138.87 365.65,-133.21 349.5,-127 338.92,-122.93 337.09,-120.04 326.5,-116 305.14,-107.85 280.22,-100.74 261.56,-95.87"/>
<polygon fill="#9a32cd" stroke="#9a32cd" points="399.19,-146.87 409.77,-146.18 401.07,-140.13 399.19,-146.87"/>
<text text-anchor="middle" x="388" y="-119" font-family="Helvetica,sans-Serif" font-size="10.00"> m_addr_family</text>
</g>
<!-- Node8 -->
<g id="node8" class="node">
<title>Node8</title>
<g id="a_node8"><a xlink:title=" ">
<polygon fill="white" stroke="#bfbfbf" points="527.5,-78.5 527.5,-97.5 609.5,-97.5 609.5,-78.5 527.5,-78.5"/>
<text text-anchor="middle" x="568.5" y="-85.5" font-family="Helvetica,sans-Serif" font-size="10.00">vector&lt; u8 &gt;</text>
</a>
</g>
</g>
<!-- Node8&#45;&gt;Node1 -->
<g id="edge7" class="edge">
<title>Node8&#45;&gt;Node1</title>
<path fill="none" stroke="#9a32cd" stroke-dasharray="5,2" d="M565.46,-68.24C564.76,-58.77 565.22,-47.34 569.5,-38 572.94,-30.48 579.58,-24.16 585.75,-19.52"/>
<polygon fill="#9a32cd" stroke="#9a32cd" points="561.99,-68.71 566.66,-78.22 568.94,-67.87 561.99,-68.71"/>
<text text-anchor="middle" x="589.5" y="-46.5" font-family="Helvetica,sans-Serif" font-size="10.00"> m_data</text>
</g>
<!-- Node9 -->
<g id="node9" class="node">
<title>Node9</title>
<g id="a_node9"><a xlink:title=" ">
<polygon fill="white" stroke="#bfbfbf" points="627.5,-78.5 627.5,-97.5 665.5,-97.5 665.5,-78.5 627.5,-78.5"/>
<text text-anchor="middle" x="646.5" y="-85.5" font-family="Helvetica,sans-Serif" font-size="10.00">float</text>
</a>
</g>
</g>
<!-- Node9&#45;&gt;Node1 -->
<g id="edge8" class="edge">
<title>Node9&#45;&gt;Node1</title>
<path fill="none" stroke="#9a32cd" stroke-dasharray="5,2" d="M635.72,-69.57C626.06,-53.95 612.3,-31.7 604.83,-19.62"/>
<polygon fill="#9a32cd" stroke="#9a32cd" points="632.87,-71.62 641.11,-78.28 638.83,-67.94 632.87,-71.62"/>
<text text-anchor="middle" x="653" y="-52" font-family="Helvetica,sans-Serif" font-size="10.00"> totaltime</text>
<text text-anchor="middle" x="653" y="-41" font-family="Helvetica,sans-Serif" font-size="10.00">time</text>
</g>
<!-- Node10 -->
<g id="node10" class="node">
<title>Node10</title>
<g id="a_node10"><a xlink:title=" ">
<polygon fill="white" stroke="#bfbfbf" points="689,-78.5 689,-97.5 718,-97.5 718,-78.5 689,-78.5"/>
<text text-anchor="middle" x="703.5" y="-85.5" font-family="Helvetica,sans-Serif" font-size="10.00">u8</text>
</a>
</g>
</g>
<!-- Node10&#45;&gt;Node1 -->
<g id="edge9" class="edge">
<title>Node10&#45;&gt;Node1</title>
<path fill="none" stroke="#9a32cd" stroke-dasharray="5,2" d="M699.24,-68.77C695.96,-58.46 690.45,-46.06 681.5,-38 672.04,-29.47 659.82,-23.63 647.71,-19.63"/>
<polygon fill="#9a32cd" stroke="#9a32cd" points="695.88,-69.75 701.88,-78.48 702.63,-67.91 695.88,-69.75"/>
<text text-anchor="middle" x="708" y="-46.5" font-family="Helvetica,sans-Serif" font-size="10.00"> data</text>
</g>
<!-- Node11 -->
<g id="node11" class="node">
<title>Node11</title>
<g id="a_node11"><a xlink:title=" ">
<polygon fill="white" stroke="#bfbfbf" points="736,-78.5 736,-97.5 771,-97.5 771,-78.5 736,-78.5"/>
<text text-anchor="middle" x="753.5" y="-85.5" font-family="Helvetica,sans-Serif" font-size="10.00">u64</text>
</a>
</g>
</g>
<!-- Node11&#45;&gt;Node1 -->
<g id="edge10" class="edge">
<title>Node11&#45;&gt;Node1</title>
<path fill="none" stroke="#9a32cd" stroke-dasharray="5,2" d="M746.97,-68.66C742.3,-58.13 734.96,-45.54 724.5,-38 704.78,-23.78 679.06,-16.79 656.08,-13.44"/>
<polygon fill="#9a32cd" stroke="#9a32cd" points="743.83,-70.23 750.77,-78.23 750.34,-67.65 743.83,-70.23"/>
<text text-anchor="middle" x="792.5" y="-46.5" font-family="Helvetica,sans-Serif" font-size="10.00"> absolute_send_time</text>
</g>
</g>
</svg>
        <g id="navigator" transform="translate(0 0)" fill="#404254">
                <rect fill="#f2f5e9" fill-opacity="0.5" stroke="#606060" stroke-width=".5" x="0" y="0" width="60" height="60"/>
                <use id="zoomplus" xlink:href="#zoomPlus" x="17" y="9" onmousedown="handleZoom(evt,'in')"/>
                <use id="zoomminus" xlink:href="#zoomMin" x="42" y="9" onmousedown="handleZoom(evt,'out')"/>
                <use id="reset" xlink:href="#resetDef" x="30" y="36" onmousedown="handleReset()"/>
                <g id="arrowUp" xlink:href="#dirArrow" transform="translate(30 24)" onmousedown="handlePan(0,-1)">
                  <use xlink:href="#rim" fill="#404040">
                        <set attributeName="fill" to="#808080" begin="arrowUp.mouseover" end="arrowUp.mouseout"/>
                  </use>
                  <path fill="none" stroke="white" stroke-width="1.5" d="M0,-3.0v7 M-2.5,-0.5L0,-3.0L2.5,-0.5"/>
                </g>
                <g id="arrowRight" xlink:href="#dirArrow" transform="rotate(90) translate(36 -43)" onmousedown="handlePan(1,0)">
                  <use xlink:href="#rim" fill="#404040">
                        <set attributeName="fill" to="#808080" begin="arrowRight.mouseover" end="arrowRight.mouseout"/>
                  </use>
                  <path fill="none" stroke="white" stroke-width="1.5" d="M0,-3.0v7 M-2.5,-0.5L0,-3.0L2.5,-0.5"/>
                </g>
                <g id="arrowDown" xlink:href="#dirArrow" transform="rotate(180) translate(-30 -48)" onmousedown="handlePan(0,1)">
                  <use xlink:href="#rim" fill="#404040">
                        <set attributeName="fill" to="#808080" begin="arrowDown.mouseover" end="arrowDown.mouseout"/>
                  </use>
                  <path fill="none" stroke="white" stroke-width="1.5" d="M0,-3.0v7 M-2.5,-0.5L0,-3.0L2.5,-0.5"/>
                </g>
                <g id="arrowLeft" xlink:href="#dirArrow" transform="rotate(270) translate(-36 17)" onmousedown="handlePan(-1,0)">
                  <use xlink:href="#rim" fill="#404040">
                        <set attributeName="fill" to="#808080" begin="arrowLeft.mouseover" end="arrowLeft.mouseout"/>
                  </use>
                  <path fill="none" stroke="white" stroke-width="1.5" d="M0,-3.0v7 M-2.5,-0.5L0,-3.0L2.5,-0.5"/>
                </g>
        </g>
        <svg viewBox="0 0 15 15" width="100%" height="30px" preserveAspectRatio="xMaxYMin meet">
         <g id="arrow_out" transform="scale(0.3 0.3)">
          <a xlink:href="structcon_1_1BufferedPacket__coll__graph_org.svg" target="_base">
           <rect id="button" ry="5" rx="5" y="6" x="6" height="38" width="38"
                fill="#f2f5e9" fill-opacity="0.5" stroke="#606060" stroke-width="1.0"/>
           <path id="arrow"
             d="M 11.500037,31.436501 C 11.940474,20.09759 22.043105,11.32322 32.158766,21.979434 L 37.068811,17.246167 C 37.068811,17.246167 37.088388,32 37.088388,32 L 22.160133,31.978069 C 22.160133,31.978069 26.997745,27.140456 26.997745,27.140456 C 18.528582,18.264221 13.291696,25.230495 11.500037,31.436501 z"
             style="fill:#404040;"/>
          </a>
         </g>
        </svg>
</svg>
