<?xml version="1.0" encoding="UTF-8" standalone="no"?>
<!DOCTYPE svg PUBLIC "-//W3C//DTD SVG 1.1//EN"
 "http://www.w3.org/Graphics/SVG/1.1/DTD/svg11.dtd">
<!-- Generated by graphviz version 2.43.0 (0)
 -->
<!-- Title: lua_Debug Pages: 1 -->
<svg width="170pt" height="150pt"
 viewBox="0.00 0.00 170.00 150.00" xmlns="http://www.w3.org/2000/svg" xmlns:xlink="http://www.w3.org/1999/xlink">
<g id="graph0" class="graph" transform="scale(1 1) rotate(0) translate(4 146)">
<title>lua_Debug</title>
<polygon fill="white" stroke="transparent" points="-4,4 -4,-146 166,-146 166,4 -4,4"/>
<!-- Node1 -->
<g id="node1" class="node">
<title>Node1</title>
<g id="a_node1"><a xlink:title=" ">
<polygon fill="#bfbfbf" stroke="black" points="22,-0.5 22,-19.5 90,-19.5 90,-0.5 22,-0.5"/>
<text text-anchor="middle" x="56" y="-7.5" font-family="Helvetica,sans-Serif" font-size="10.00">lua_Debug</text>
</a>
</g>
</g>
<!-- Node2 -->
<g id="node2" class="node">
<title>Node2</title>
<g id="a_node2"><a xlink:title=" ">
<polygon fill="white" stroke="#bfbfbf" points="0,-122.5 0,-141.5 38,-141.5 38,-122.5 0,-122.5"/>
<text text-anchor="middle" x="19" y="-129.5" font-family="Helvetica,sans-Serif" font-size="10.00">char</text>
</a>
</g>
</g>
<!-- Node2&#45;&gt;Node1 -->
<g id="edge1" class="edge">
<title>Node2&#45;&gt;Node1</title>
<path fill="none" stroke="#9a32cd" stroke-dasharray="5,2" d="M14.64,-112.67C10.98,-93.06 8.05,-61.59 20,-38 23.96,-30.19 31.34,-24.05 38.4,-19.61"/>
<polygon fill="#9a32cd" stroke="#9a32cd" points="11.22,-113.4 16.72,-122.46 18.07,-111.95 11.22,-113.4"/>
<text text-anchor="middle" x="46" y="-90.5" font-family="Helvetica,sans-Serif" font-size="10.00"> what</text>
<text text-anchor="middle" x="46" y="-79.5" font-family="Helvetica,sans-Serif" font-size="10.00">short_src</text>
<text text-anchor="middle" x="46" y="-68.5" font-family="Helvetica,sans-Serif" font-size="10.00">namewhat</text>
<text text-anchor="middle" x="46" y="-57.5" font-family="Helvetica,sans-Serif" font-size="10.00">source</text>
<text text-anchor="middle" x="46" y="-46.5" font-family="Helvetica,sans-Serif" font-size="10.00">name</text>
</g>
<!-- Node3 -->
<g id="node3" class="node">
<title>Node3</title>
<g id="a_node3"><a xlink:title=" ">
<polygon fill="white" stroke="#bfbfbf" points="79.5,-122.5 79.5,-141.5 108.5,-141.5 108.5,-122.5 79.5,-122.5"/>
<text text-anchor="middle" x="94" y="-129.5" font-family="Helvetica,sans-Serif" font-size="10.00">int</text>
</a>
</g>
</g>
<!-- Node3&#45;&gt;Node1 -->
<g id="edge2" class="edge">
<title>Node3&#45;&gt;Node1</title>
<path fill="none" stroke="#9a32cd" stroke-dasharray="5,2" d="M91.27,-112.17C88.09,-93.01 81.97,-62.71 72,-38 69.39,-31.53 65.39,-24.78 62.04,-19.65"/>
<polygon fill="#9a32cd" stroke="#9a32cd" points="87.84,-112.93 92.84,-122.27 94.76,-111.85 87.84,-112.93"/>
<text text-anchor="middle" x="125.5" y="-96" font-family="Helvetica,sans-Serif" font-size="10.00"> linedefined</text>
<text text-anchor="middle" x="125.5" y="-85" font-family="Helvetica,sans-Serif" font-size="10.00">lastlinedefined</text>
<text text-anchor="middle" x="125.5" y="-74" font-family="Helvetica,sans-Serif" font-size="10.00">event</text>
<text text-anchor="middle" x="125.5" y="-63" font-family="Helvetica,sans-Serif" font-size="10.00">nups</text>
<text text-anchor="middle" x="125.5" y="-52" font-family="Helvetica,sans-Serif" font-size="10.00">i_ci</text>
<text text-anchor="middle" x="125.5" y="-41" font-family="Helvetica,sans-Serif" font-size="10.00">currentline</text>
</g>
</g>
</svg>
