<?xml version="1.0" encoding="UTF-8" standalone="no"?>
<!DOCTYPE svg PUBLIC "-//W3C//DTD SVG 1.1//EN"
 "http://www.w3.org/Graphics/SVG/1.1/DTD/svg11.dtd">
<!-- Generated by graphviz version 2.43.0 (0)
 -->
<!-- Title: NearbyCollisionInfo Pages: 1 -->
<svg width="565pt" height="384pt"
 viewBox="0.00 0.00 565.00 384.00" xmlns="http://www.w3.org/2000/svg" xmlns:xlink="http://www.w3.org/1999/xlink">
<g id="graph0" class="graph" transform="scale(1 1) rotate(0) translate(4 380)">
<title>NearbyCollisionInfo</title>
<polygon fill="white" stroke="transparent" points="-4,4 -4,-380 561,-380 561,4 -4,4"/>
<!-- Node1 -->
<g id="node1" class="node">
<title>Node1</title>
<g id="a_node1"><a xlink:title=" ">
<polygon fill="#bfbfbf" stroke="black" points="102,-0.5 102,-19.5 215,-19.5 215,-0.5 102,-0.5"/>
<text text-anchor="middle" x="158.5" y="-7.5" font-family="Helvetica,sans-Serif" font-size="10.00">NearbyCollisionInfo</text>
</a>
</g>
</g>
<!-- Node2 -->
<g id="node2" class="node">
<title>Node2</title>
<g id="a_node2"><a xlink:title=" ">
<polygon fill="white" stroke="#bfbfbf" points="0,-84 0,-103 29,-103 29,-84 0,-84"/>
<text text-anchor="middle" x="14.5" y="-91" font-family="Helvetica,sans-Serif" font-size="10.00">int</text>
</a>
</g>
</g>
<!-- Node2&#45;&gt;Node1 -->
<g id="edge1" class="edge">
<title>Node2&#45;&gt;Node1</title>
<path fill="none" stroke="#9a32cd" stroke-dasharray="5,2" d="M18.56,-73.76C22.11,-61.81 28.49,-46.94 39.5,-38 56.93,-23.85 80.33,-16.78 101.77,-13.37"/>
<polygon fill="#9a32cd" stroke="#9a32cd" points="15.12,-73.1 16.04,-83.66 21.9,-74.83 15.12,-73.1"/>
<text text-anchor="middle" x="59" y="-46.5" font-family="Helvetica,sans-Serif" font-size="10.00"> bouncy</text>
</g>
<!-- Node3 -->
<g id="node3" class="node">
<title>Node3</title>
<g id="a_node3"><a xlink:href="classbool.html" target="_top" xlink:title=" ">
<polygon fill="white" stroke="black" points="57.5,-84 57.5,-103 95.5,-103 95.5,-84 57.5,-84"/>
<text text-anchor="middle" x="76.5" y="-91" font-family="Helvetica,sans-Serif" font-size="10.00">bool</text>
</a>
</g>
</g>
<!-- Node3&#45;&gt;Node1 -->
<g id="edge2" class="edge">
<title>Node3&#45;&gt;Node1</title>
<path fill="none" stroke="#9a32cd" stroke-dasharray="5,2" d="M78.33,-73.69C80.35,-62.15 84.59,-47.76 93.5,-38 101.24,-29.52 112.06,-23.62 122.66,-19.56"/>
<polygon fill="#9a32cd" stroke="#9a32cd" points="74.86,-73.26 77,-83.63 81.8,-74.19 74.86,-73.26"/>
<text text-anchor="middle" x="123" y="-52" font-family="Helvetica,sans-Serif" font-size="10.00"> is_step_up</text>
<text text-anchor="middle" x="123" y="-41" font-family="Helvetica,sans-Serif" font-size="10.00">is_unloaded</text>
</g>
<!-- Node4 -->
<g id="node4" class="node">
<title>Node4</title>
<g id="a_node4"><a xlink:href="classActiveObject.html" target="_top" xlink:title=" ">
<polygon fill="white" stroke="black" points="114,-84 114,-103 193,-103 193,-84 114,-84"/>
<text text-anchor="middle" x="153.5" y="-91" font-family="Helvetica,sans-Serif" font-size="10.00">ActiveObject</text>
</a>
</g>
</g>
<!-- Node4&#45;&gt;Node1 -->
<g id="edge3" class="edge">
<title>Node4&#45;&gt;Node1</title>
<path fill="none" stroke="#9a32cd" stroke-dasharray="5,2" d="M154.67,-73.38C155.71,-56.4 157.19,-32.37 157.97,-19.66"/>
<polygon fill="#9a32cd" stroke="#9a32cd" points="151.15,-73.58 154.04,-83.78 158.14,-74.01 151.15,-73.58"/>
<text text-anchor="middle" x="167" y="-46.5" font-family="Helvetica,sans-Serif" font-size="10.00"> obj</text>
</g>
<!-- Node5 -->
<g id="node5" class="node">
<title>Node5</title>
<g id="a_node5"><a xlink:title=" ">
<polygon fill="white" stroke="#bfbfbf" points="125,-173 125,-192 160,-192 160,-173 125,-173"/>
<text text-anchor="middle" x="142.5" y="-180" font-family="Helvetica,sans-Serif" font-size="10.00">u16</text>
</a>
</g>
</g>
<!-- Node5&#45;&gt;Node4 -->
<g id="edge4" class="edge">
<title>Node5&#45;&gt;Node4</title>
<path fill="none" stroke="#9a32cd" stroke-dasharray="5,2" d="M144.88,-162.69C147.21,-144.24 150.67,-116.91 152.41,-103.12"/>
<polygon fill="#9a32cd" stroke="#9a32cd" points="141.38,-162.48 143.59,-172.84 148.32,-163.36 141.38,-162.48"/>
<text text-anchor="middle" x="163.5" y="-135.5" font-family="Helvetica,sans-Serif" font-size="10.00"> m_id</text>
</g>
<!-- Node6 -->
<g id="node6" class="node">
<title>Node6</title>
<g id="a_node6"><a xlink:href="classirr_1_1core_1_1vector3d.html" target="_top" xlink:title=" ">
<polygon fill="white" stroke="black" points="178,-167.5 178,-197.5 281,-197.5 281,-167.5 178,-167.5"/>
<text text-anchor="start" x="186" y="-185.5" font-family="Helvetica,sans-Serif" font-size="10.00">irr::core::vector3d</text>
<text text-anchor="middle" x="229.5" y="-174.5" font-family="Helvetica,sans-Serif" font-size="10.00">&lt; s16 &gt;</text>
</a>
</g>
</g>
<!-- Node6&#45;&gt;Node1 -->
<g id="edge5" class="edge">
<title>Node6&#45;&gt;Node1</title>
<path fill="none" stroke="#9a32cd" stroke-dasharray="5,2" d="M224.61,-157.65C219.88,-136.36 211.91,-104.54 201.5,-78 194.17,-59.31 191.56,-54.76 180.5,-38 176.24,-31.54 170.74,-24.79 166.3,-19.66"/>
<polygon fill="#9a32cd" stroke="#9a32cd" points="221.2,-158.42 226.73,-167.46 228.04,-156.95 221.2,-158.42"/>
<text text-anchor="middle" x="234" y="-91" font-family="Helvetica,sans-Serif" font-size="10.00"> position</text>
</g>
<!-- Node7 -->
<g id="node7" class="node">
<title>Node7</title>
<g id="a_node7"><a xlink:title=" ">
<polygon fill="white" stroke="#bfbfbf" points="182.5,-267.5 182.5,-286.5 216.5,-286.5 216.5,-267.5 182.5,-267.5"/>
<text text-anchor="middle" x="199.5" y="-274.5" font-family="Helvetica,sans-Serif" font-size="10.00">s16</text>
</a>
</g>
</g>
<!-- Node7&#45;&gt;Node6 -->
<g id="edge6" class="edge">
<title>Node7&#45;&gt;Node6</title>
<path fill="none" stroke="#9a32cd" stroke-dasharray="5,2" d="M196.99,-257.21C196.11,-245.05 196.39,-229.1 201.5,-216 204.15,-209.2 208.88,-202.85 213.7,-197.59"/>
<polygon fill="#9a32cd" stroke="#9a32cd" points="193.54,-257.92 198.06,-267.5 200.5,-257.19 193.54,-257.92"/>
<text text-anchor="middle" x="206.5" y="-241" font-family="Helvetica,sans-Serif" font-size="10.00"> X</text>
<text text-anchor="middle" x="206.5" y="-230" font-family="Helvetica,sans-Serif" font-size="10.00">Y</text>
<text text-anchor="middle" x="206.5" y="-219" font-family="Helvetica,sans-Serif" font-size="10.00">Z</text>
</g>
<!-- Node8 -->
<g id="node8" class="node">
<title>Node8</title>
<g id="a_node8"><a xlink:href="classirr_1_1core_1_1vector3d.html" target="_top" xlink:title="3d vector template class with lots of operators and methods.">
<polygon fill="white" stroke="black" points="235,-267.5 235,-286.5 366,-286.5 366,-267.5 235,-267.5"/>
<text text-anchor="middle" x="300.5" y="-274.5" font-family="Helvetica,sans-Serif" font-size="10.00">irr::core::vector3d&lt; T &gt;</text>
</a>
</g>
</g>
<!-- Node8&#45;&gt;Node6 -->
<g id="edge7" class="edge">
<title>Node8&#45;&gt;Node6</title>
<path fill="none" stroke="orange" stroke-dasharray="5,2" d="M280.51,-260.91C276.3,-257.26 272.05,-253.19 268.5,-249 254.89,-232.95 243.14,-211.57 236.19,-197.67"/>
<polygon fill="orange" stroke="orange" points="278.44,-263.74 288.4,-267.35 282.87,-258.31 278.44,-263.74"/>
<text text-anchor="middle" x="290" y="-230" font-family="Helvetica,sans-Serif" font-size="10.00"> &lt; s16 &gt;</text>
</g>
<!-- Node11 -->
<g id="node11" class="node">
<title>Node11</title>
<g id="a_node11"><a xlink:href="classirr_1_1core_1_1vector3d.html" target="_top" xlink:title=" ">
<polygon fill="white" stroke="black" points="299,-167.5 299,-197.5 402,-197.5 402,-167.5 299,-167.5"/>
<text text-anchor="start" x="307" y="-185.5" font-family="Helvetica,sans-Serif" font-size="10.00">irr::core::vector3d</text>
<text text-anchor="middle" x="350.5" y="-174.5" font-family="Helvetica,sans-Serif" font-size="10.00">&lt; f32 &gt;</text>
</a>
</g>
</g>
<!-- Node8&#45;&gt;Node11 -->
<g id="edge12" class="edge">
<title>Node8&#45;&gt;Node11</title>
<path fill="none" stroke="orange" stroke-dasharray="5,2" d="M310.08,-258.28C319.6,-240.66 334.03,-213.97 342.82,-197.7"/>
<polygon fill="orange" stroke="orange" points="306.79,-257 305.11,-267.46 312.95,-260.33 306.79,-257"/>
<text text-anchor="middle" x="354.5" y="-230" font-family="Helvetica,sans-Serif" font-size="10.00"> &lt; f32 &gt;</text>
</g>
<!-- Node9 -->
<g id="node9" class="node">
<title>Node9</title>
<g id="a_node9"><a xlink:title=" ">
<polygon fill="white" stroke="#bfbfbf" points="286,-356.5 286,-375.5 315,-375.5 315,-356.5 286,-356.5"/>
<text text-anchor="middle" x="300.5" y="-363.5" font-family="Helvetica,sans-Serif" font-size="10.00">T</text>
</a>
</g>
</g>
<!-- Node9&#45;&gt;Node8 -->
<g id="edge8" class="edge">
<title>Node9&#45;&gt;Node8</title>
<path fill="none" stroke="#9a32cd" stroke-dasharray="5,2" d="M300.5,-346.19C300.5,-327.74 300.5,-300.41 300.5,-286.62"/>
<polygon fill="#9a32cd" stroke="#9a32cd" points="297,-346.34 300.5,-356.34 304,-346.34 297,-346.34"/>
<text text-anchor="middle" x="305.5" y="-330" font-family="Helvetica,sans-Serif" font-size="10.00"> X</text>
<text text-anchor="middle" x="305.5" y="-319" font-family="Helvetica,sans-Serif" font-size="10.00">Y</text>
<text text-anchor="middle" x="305.5" y="-308" font-family="Helvetica,sans-Serif" font-size="10.00">Z</text>
</g>
<!-- Node10 -->
<g id="node10" class="node">
<title>Node10</title>
<g id="a_node10"><a xlink:href="classirr_1_1core_1_1aabbox3d.html" target="_top" xlink:title=" ">
<polygon fill="white" stroke="black" points="296.5,-78.5 296.5,-108.5 404.5,-108.5 404.5,-78.5 296.5,-78.5"/>
<text text-anchor="start" x="304.5" y="-96.5" font-family="Helvetica,sans-Serif" font-size="10.00">irr::core::aabbox3d</text>
<text text-anchor="middle" x="350.5" y="-85.5" font-family="Helvetica,sans-Serif" font-size="10.00">&lt; f32 &gt;</text>
</a>
</g>
</g>
<!-- Node10&#45;&gt;Node1 -->
<g id="edge9" class="edge">
<title>Node10&#45;&gt;Node1</title>
<path fill="none" stroke="#9a32cd" stroke-dasharray="5,2" d="M316.51,-73.38C295.81,-62.2 268.59,-48.29 243.5,-38 226.02,-30.83 205.9,-24.36 189.62,-19.56"/>
<polygon fill="#9a32cd" stroke="#9a32cd" points="315.08,-76.59 325.54,-78.31 318.44,-70.45 315.08,-76.59"/>
<text text-anchor="middle" x="299.5" y="-46.5" font-family="Helvetica,sans-Serif" font-size="10.00"> box</text>
</g>
<!-- Node11&#45;&gt;Node10 -->
<g id="edge10" class="edge">
<title>Node11&#45;&gt;Node10</title>
<path fill="none" stroke="#9a32cd" stroke-dasharray="5,2" d="M350.5,-157.09C350.5,-141.44 350.5,-121.68 350.5,-108.6"/>
<polygon fill="#9a32cd" stroke="#9a32cd" points="347,-157.13 350.5,-167.13 354,-157.13 347,-157.13"/>
<text text-anchor="middle" x="373.5" y="-141" font-family="Helvetica,sans-Serif" font-size="10.00"> MinEdge</text>
<text text-anchor="middle" x="373.5" y="-130" font-family="Helvetica,sans-Serif" font-size="10.00">MaxEdge</text>
</g>
<!-- Node12 -->
<g id="node12" class="node">
<title>Node12</title>
<g id="a_node12"><a xlink:title=" ">
<polygon fill="white" stroke="#bfbfbf" points="384.5,-267.5 384.5,-286.5 422.5,-286.5 422.5,-267.5 384.5,-267.5"/>
<text text-anchor="middle" x="403.5" y="-274.5" font-family="Helvetica,sans-Serif" font-size="10.00">float</text>
</a>
</g>
</g>
<!-- Node12&#45;&gt;Node11 -->
<g id="edge11" class="edge">
<title>Node12&#45;&gt;Node11</title>
<path fill="none" stroke="#9a32cd" stroke-dasharray="5,2" d="M398.07,-257.81C393.96,-245.49 387.63,-229.13 379.5,-216 375.44,-209.44 370.01,-202.95 364.95,-197.51"/>
<polygon fill="#9a32cd" stroke="#9a32cd" points="394.75,-258.93 401.1,-267.41 401.43,-256.82 394.75,-258.93"/>
<text text-anchor="middle" x="398.5" y="-241" font-family="Helvetica,sans-Serif" font-size="10.00"> X</text>
<text text-anchor="middle" x="398.5" y="-230" font-family="Helvetica,sans-Serif" font-size="10.00">Y</text>
<text text-anchor="middle" x="398.5" y="-219" font-family="Helvetica,sans-Serif" font-size="10.00">Z</text>
</g>
<!-- Node13 -->
<g id="node13" class="node">
<title>Node13</title>
<g id="a_node13"><a xlink:href="classirr_1_1core_1_1aabbox3d.html" target="_top" xlink:title="Axis aligned bounding box in 3d dimensional space.">
<polygon fill="white" stroke="black" points="420,-173 420,-192 557,-192 557,-173 420,-173"/>
<text text-anchor="middle" x="488.5" y="-180" font-family="Helvetica,sans-Serif" font-size="10.00">irr::core::aabbox3d&lt; T &gt;</text>
</a>
</g>
</g>
<!-- Node13&#45;&gt;Node10 -->
<g id="edge13" class="edge">
<title>Node13&#45;&gt;Node10</title>
<path fill="none" stroke="orange" stroke-dasharray="5,2" d="M466.36,-167.55C440.7,-151.37 398.64,-124.85 372.88,-108.61"/>
<polygon fill="orange" stroke="orange" points="464.69,-170.63 475.02,-173 468.42,-164.71 464.69,-170.63"/>
<text text-anchor="middle" x="456.5" y="-135.5" font-family="Helvetica,sans-Serif" font-size="10.00"> &lt; f32 &gt;</text>
</g>
<!-- Node14 -->
<g id="node14" class="node">
<title>Node14</title>
<g id="a_node14"><a xlink:title=" ">
<polygon fill="white" stroke="#bfbfbf" points="444.5,-267.5 444.5,-286.5 532.5,-286.5 532.5,-267.5 444.5,-267.5"/>
<text text-anchor="middle" x="488.5" y="-274.5" font-family="Helvetica,sans-Serif" font-size="10.00">vector3d&lt; T &gt;</text>
</a>
</g>
</g>
<!-- Node14&#45;&gt;Node13 -->
<g id="edge14" class="edge">
<title>Node14&#45;&gt;Node13</title>
<path fill="none" stroke="#9a32cd" stroke-dasharray="5,2" d="M488.5,-257.44C488.5,-237.54 488.5,-206.8 488.5,-192.02"/>
<polygon fill="#9a32cd" stroke="#9a32cd" points="485,-257.46 488.5,-267.46 492,-257.46 485,-257.46"/>
<text text-anchor="middle" x="511.5" y="-235.5" font-family="Helvetica,sans-Serif" font-size="10.00"> MinEdge</text>
<text text-anchor="middle" x="511.5" y="-224.5" font-family="Helvetica,sans-Serif" font-size="10.00">MaxEdge</text>
</g>
</g>
</svg>
