<?xml version="1.0" encoding="UTF-8" standalone="no"?>
<!DOCTYPE svg PUBLIC "-//W3C//DTD SVG 1.1//EN"
 "http://www.w3.org/Graphics/SVG/1.1/DTD/svg11.dtd">
<!-- Generated by graphviz version 2.43.0 (0)
 -->
<!-- Title: irr::video::SOverrideMaterial::SMaterialTypeReplacement Pages: 1 -->
<svg width="175pt" height="106pt"
 viewBox="0.00 0.00 175.00 106.00" xmlns="http://www.w3.org/2000/svg" xmlns:xlink="http://www.w3.org/1999/xlink">
<g id="graph0" class="graph" transform="scale(1 1) rotate(0) translate(4 102)">
<title>irr::video::SOverrideMaterial::SMaterialTypeReplacement</title>
<polygon fill="white" stroke="transparent" points="-4,4 -4,-102 171,-102 171,4 -4,4"/>
<!-- Node1 -->
<g id="node1" class="node">
<title>Node1</title>
<g id="a_node1"><a xlink:title=" ">
<polygon fill="#bfbfbf" stroke="black" points="0,-0.5 0,-30.5 156,-30.5 156,-0.5 0,-0.5"/>
<text text-anchor="start" x="8" y="-18.5" font-family="Helvetica,sans-Serif" font-size="10.00">irr::video::SOverrideMaterial</text>
<text text-anchor="middle" x="78" y="-7.5" font-family="Helvetica,sans-Serif" font-size="10.00">::SMaterialTypeReplacement</text>
</a>
</g>
</g>
<!-- Node2 -->
<g id="node2" class="node">
<title>Node2</title>
<g id="a_node2"><a xlink:title=" ">
<polygon fill="white" stroke="#bfbfbf" points="18,-78.5 18,-97.5 68,-97.5 68,-78.5 18,-78.5"/>
<text text-anchor="middle" x="43" y="-85.5" font-family="Helvetica,sans-Serif" font-size="10.00">int32_t</text>
</a>
</g>
</g>
<!-- Node2&#45;&gt;Node1 -->
<g id="edge1" class="edge">
<title>Node2&#45;&gt;Node1</title>
<path fill="none" stroke="#9a32cd" stroke-dasharray="5,2" d="M44.48,-68.12C45.49,-61.82 47.17,-54.9 50,-49 53.22,-42.28 58.19,-35.85 63.06,-30.51"/>
<polygon fill="#9a32cd" stroke="#9a32cd" points="40.96,-68.12 43.3,-78.46 47.91,-68.92 40.96,-68.12"/>
<text text-anchor="middle" x="71" y="-52" font-family="Helvetica,sans-Serif" font-size="10.00"> Original</text>
</g>
<!-- Node3 -->
<g id="node3" class="node">
<title>Node3</title>
<g id="a_node3"><a xlink:title=" ">
<polygon fill="white" stroke="#bfbfbf" points="86,-78.5 86,-97.5 142,-97.5 142,-78.5 86,-78.5"/>
<text text-anchor="middle" x="114" y="-85.5" font-family="Helvetica,sans-Serif" font-size="10.00">uint32_t</text>
</a>
</g>
</g>
<!-- Node3&#45;&gt;Node1 -->
<g id="edge2" class="edge">
<title>Node3&#45;&gt;Node1</title>
<path fill="none" stroke="#9a32cd" stroke-dasharray="5,2" d="M104.97,-69.32C98.86,-57.34 90.88,-41.72 85.19,-30.58"/>
<polygon fill="#9a32cd" stroke="#9a32cd" points="101.92,-71.04 109.59,-78.36 108.15,-67.86 101.92,-71.04"/>
<text text-anchor="middle" x="133" y="-52" font-family="Helvetica,sans-Serif" font-size="10.00"> Replacement</text>
</g>
</g>
</svg>
