<?xml version="1.0" encoding="UTF-8" standalone="no"?>
<!DOCTYPE svg PUBLIC "-//W3C//DTD SVG 1.1//EN"
 "http://www.w3.org/Graphics/SVG/1.1/DTD/svg11.dtd">
<!-- Generated by graphviz version 2.43.0 (0)
 -->
<!-- Title: irr::scene::ISkinnedMesh::SWeight Pages: 1 -->
<svg width="394pt" height="306pt"
 viewBox="0.00 0.00 394.00 306.00" xmlns="http://www.w3.org/2000/svg" xmlns:xlink="http://www.w3.org/1999/xlink">
<g id="graph0" class="graph" transform="scale(1 1) rotate(0) translate(4 302)">
<title>irr::scene::ISkinnedMesh::SWeight</title>
<polygon fill="white" stroke="transparent" points="-4,4 -4,-302 390,-302 390,4 -4,4"/>
<!-- Node1 -->
<g id="node1" class="node">
<title>Node1</title>
<g id="a_node1"><a xlink:title="A vertex weight.">
<polygon fill="#bfbfbf" stroke="black" points="148,-0.5 148,-30.5 284,-30.5 284,-0.5 148,-0.5"/>
<text text-anchor="start" x="156" y="-18.5" font-family="Helvetica,sans-Serif" font-size="10.00">irr::scene::ISkinnedMesh</text>
<text text-anchor="middle" x="216" y="-7.5" font-family="Helvetica,sans-Serif" font-size="10.00">::SWeight</text>
</a>
</g>
</g>
<!-- Node2 -->
<g id="node2" class="node">
<title>Node2</title>
<g id="a_node2"><a xlink:href="classirr_1_1core_1_1vector3d.html" target="_top" xlink:title=" ">
<polygon fill="white" stroke="black" points="75.5,-89.5 75.5,-119.5 178.5,-119.5 178.5,-89.5 75.5,-89.5"/>
<text text-anchor="start" x="83.5" y="-107.5" font-family="Helvetica,sans-Serif" font-size="10.00">irr::core::vector3d</text>
<text text-anchor="middle" x="127" y="-96.5" font-family="Helvetica,sans-Serif" font-size="10.00">&lt; f32 &gt;</text>
</a>
</g>
</g>
<!-- Node2&#45;&gt;Node1 -->
<g id="edge1" class="edge">
<title>Node2&#45;&gt;Node1</title>
<path fill="none" stroke="#9a32cd" stroke-dasharray="5,2" d="M131.97,-79.63C135.13,-69.22 140.15,-57.49 148,-49 155.11,-41.32 164.41,-35.26 173.85,-30.57"/>
<polygon fill="#9a32cd" stroke="#9a32cd" points="128.55,-78.87 129.4,-89.43 135.32,-80.64 128.55,-78.87"/>
<text text-anchor="middle" x="180" y="-63" font-family="Helvetica,sans-Serif" font-size="10.00"> StaticPos</text>
<text text-anchor="middle" x="180" y="-52" font-family="Helvetica,sans-Serif" font-size="10.00">StaticNormal</text>
</g>
<!-- Node3 -->
<g id="node3" class="node">
<title>Node3</title>
<g id="a_node3"><a xlink:title=" ">
<polygon fill="white" stroke="#bfbfbf" points="0,-189.5 0,-208.5 38,-208.5 38,-189.5 0,-189.5"/>
<text text-anchor="middle" x="19" y="-196.5" font-family="Helvetica,sans-Serif" font-size="10.00">float</text>
</a>
</g>
</g>
<!-- Node3&#45;&gt;Node1 -->
<g id="edge6" class="edge">
<title>Node3&#45;&gt;Node1</title>
<path fill="none" stroke="#9a32cd" stroke-dasharray="5,2" d="M13.79,-179.67C8.32,-156.3 2.9,-115.73 22,-89 50.63,-48.92 104.18,-30.97 147.78,-22.95"/>
<polygon fill="#9a32cd" stroke="#9a32cd" points="10.4,-180.55 16.29,-189.36 17.18,-178.8 10.4,-180.55"/>
<text text-anchor="middle" x="44" y="-102" font-family="Helvetica,sans-Serif" font-size="10.00"> strength</text>
</g>
<!-- Node3&#45;&gt;Node2 -->
<g id="edge2" class="edge">
<title>Node3&#45;&gt;Node2</title>
<path fill="none" stroke="#9a32cd" stroke-dasharray="5,2" d="M36.6,-182.93C57.02,-165.44 90.44,-136.81 110.42,-119.7"/>
<polygon fill="#9a32cd" stroke="#9a32cd" points="34.29,-180.3 28.97,-189.46 38.84,-185.62 34.29,-180.3"/>
<text text-anchor="middle" x="94" y="-163" font-family="Helvetica,sans-Serif" font-size="10.00"> X</text>
<text text-anchor="middle" x="94" y="-152" font-family="Helvetica,sans-Serif" font-size="10.00">Y</text>
<text text-anchor="middle" x="94" y="-141" font-family="Helvetica,sans-Serif" font-size="10.00">Z</text>
</g>
<!-- Node4 -->
<g id="node4" class="node">
<title>Node4</title>
<g id="a_node4"><a xlink:href="classirr_1_1core_1_1vector3d.html" target="_top" xlink:title="3d vector template class with lots of operators and methods.">
<polygon fill="white" stroke="black" points="61.5,-189.5 61.5,-208.5 192.5,-208.5 192.5,-189.5 61.5,-189.5"/>
<text text-anchor="middle" x="127" y="-196.5" font-family="Helvetica,sans-Serif" font-size="10.00">irr::core::vector3d&lt; T &gt;</text>
</a>
</g>
</g>
<!-- Node4&#45;&gt;Node2 -->
<g id="edge3" class="edge">
<title>Node4&#45;&gt;Node2</title>
<path fill="none" stroke="orange" stroke-dasharray="5,2" d="M127,-179.29C127,-161.67 127,-135.67 127,-119.7"/>
<polygon fill="orange" stroke="orange" points="123.5,-179.46 127,-189.46 130.5,-179.46 123.5,-179.46"/>
<text text-anchor="middle" x="148" y="-152" font-family="Helvetica,sans-Serif" font-size="10.00"> &lt; f32 &gt;</text>
</g>
<!-- Node5 -->
<g id="node5" class="node">
<title>Node5</title>
<g id="a_node5"><a xlink:title=" ">
<polygon fill="white" stroke="#bfbfbf" points="112.5,-278.5 112.5,-297.5 141.5,-297.5 141.5,-278.5 112.5,-278.5"/>
<text text-anchor="middle" x="127" y="-285.5" font-family="Helvetica,sans-Serif" font-size="10.00">T</text>
</a>
</g>
</g>
<!-- Node5&#45;&gt;Node4 -->
<g id="edge4" class="edge">
<title>Node5&#45;&gt;Node4</title>
<path fill="none" stroke="#9a32cd" stroke-dasharray="5,2" d="M127,-268.19C127,-249.74 127,-222.41 127,-208.62"/>
<polygon fill="#9a32cd" stroke="#9a32cd" points="123.5,-268.34 127,-278.34 130.5,-268.34 123.5,-268.34"/>
<text text-anchor="middle" x="132" y="-252" font-family="Helvetica,sans-Serif" font-size="10.00"> X</text>
<text text-anchor="middle" x="132" y="-241" font-family="Helvetica,sans-Serif" font-size="10.00">Y</text>
<text text-anchor="middle" x="132" y="-230" font-family="Helvetica,sans-Serif" font-size="10.00">Z</text>
</g>
<!-- Node6 -->
<g id="node6" class="node">
<title>Node6</title>
<g id="a_node6"><a xlink:title=" ">
<polygon fill="white" stroke="#bfbfbf" points="197,-95 197,-114 235,-114 235,-95 197,-95"/>
<text text-anchor="middle" x="216" y="-102" font-family="Helvetica,sans-Serif" font-size="10.00">char</text>
</a>
</g>
</g>
<!-- Node6&#45;&gt;Node1 -->
<g id="edge5" class="edge">
<title>Node6&#45;&gt;Node1</title>
<path fill="none" stroke="#9a32cd" stroke-dasharray="5,2" d="M216,-84.41C216,-68.15 216,-45.16 216,-30.55"/>
<polygon fill="#9a32cd" stroke="#9a32cd" points="212.5,-84.84 216,-94.84 219.5,-84.84 212.5,-84.84"/>
<text text-anchor="middle" x="234.5" y="-57.5" font-family="Helvetica,sans-Serif" font-size="10.00"> Moved</text>
</g>
<!-- Node7 -->
<g id="node7" class="node">
<title>Node7</title>
<g id="a_node7"><a xlink:title=" ">
<polygon fill="white" stroke="#bfbfbf" points="253,-95 253,-114 309,-114 309,-95 253,-95"/>
<text text-anchor="middle" x="281" y="-102" font-family="Helvetica,sans-Serif" font-size="10.00">uint16_t</text>
</a>
</g>
</g>
<!-- Node7&#45;&gt;Node1 -->
<g id="edge7" class="edge">
<title>Node7&#45;&gt;Node1</title>
<path fill="none" stroke="#9a32cd" stroke-dasharray="5,2" d="M275.42,-85.09C271.45,-73.92 265.33,-59.79 257,-49 251.67,-42.1 244.57,-35.8 237.78,-30.63"/>
<polygon fill="#9a32cd" stroke="#9a32cd" points="272.13,-86.28 278.57,-94.69 278.78,-84.1 272.13,-86.28"/>
<text text-anchor="middle" x="292" y="-57.5" font-family="Helvetica,sans-Serif" font-size="10.00"> buffer_id</text>
</g>
<!-- Node8 -->
<g id="node8" class="node">
<title>Node8</title>
<g id="a_node8"><a xlink:title=" ">
<polygon fill="white" stroke="#bfbfbf" points="327,-95 327,-114 383,-114 383,-95 327,-95"/>
<text text-anchor="middle" x="355" y="-102" font-family="Helvetica,sans-Serif" font-size="10.00">uint32_t</text>
</a>
</g>
</g>
<!-- Node8&#45;&gt;Node1 -->
<g id="edge8" class="edge">
<title>Node8&#45;&gt;Node1</title>
<path fill="none" stroke="#9a32cd" stroke-dasharray="5,2" d="M347.21,-85.72C341.12,-73.76 331.59,-58.5 319,-49 308.52,-41.09 296.07,-35.08 283.51,-30.52"/>
<polygon fill="#9a32cd" stroke="#9a32cd" points="344.06,-87.25 351.5,-94.79 350.39,-84.25 344.06,-87.25"/>
<text text-anchor="middle" x="361.5" y="-57.5" font-family="Helvetica,sans-Serif" font-size="10.00"> vertex_id</text>
</g>
</g>
</svg>
