<?xml version="1.0" encoding="UTF-8" standalone="no"?>
<!DOCTYPE svg PUBLIC "-//W3C//DTD SVG 1.1//EN"
 "http://www.w3.org/Graphics/SVG/1.1/DTD/svg11.dtd">
<!-- Generated by graphviz version 2.43.0 (0)
 -->
<!-- Title: Catch::Detail::EnumInfo Pages: 1 -->
<svg width="266pt" height="184pt"
 viewBox="0.00 0.00 266.00 184.00" xmlns="http://www.w3.org/2000/svg" xmlns:xlink="http://www.w3.org/1999/xlink">
<g id="graph0" class="graph" transform="scale(1 1) rotate(0) translate(4 180)">
<title>Catch::Detail::EnumInfo</title>
<polygon fill="white" stroke="transparent" points="-4,4 -4,-180 262,-180 262,4 -4,4"/>
<!-- Node1 -->
<g id="node1" class="node">
<title>Node1</title>
<g id="a_node1"><a xlink:title=" ">
<polygon fill="#bfbfbf" stroke="black" points="54,-0.5 54,-19.5 186,-19.5 186,-0.5 54,-0.5"/>
<text text-anchor="middle" x="120" y="-7.5" font-family="Helvetica,sans-Serif" font-size="10.00">Catch::Detail::EnumInfo</text>
</a>
</g>
</g>
<!-- Node2 -->
<g id="node2" class="node">
<title>Node2</title>
<g id="a_node2"><a xlink:href="classCatch_1_1StringRef.html" target="_top" xlink:title=" ">
<polygon fill="white" stroke="black" points="4.5,-73 4.5,-92 99.5,-92 99.5,-73 4.5,-73"/>
<text text-anchor="middle" x="52" y="-80" font-family="Helvetica,sans-Serif" font-size="10.00">Catch::StringRef</text>
</a>
</g>
</g>
<!-- Node2&#45;&gt;Node1 -->
<g id="edge1" class="edge">
<title>Node2&#45;&gt;Node1</title>
<path fill="none" stroke="#9a32cd" stroke-dasharray="5,2" d="M67.63,-65.3C81.31,-51.12 100.65,-31.06 111.59,-19.72"/>
<polygon fill="#9a32cd" stroke="#9a32cd" points="64.76,-63.23 60.34,-72.86 69.8,-68.09 64.76,-63.23"/>
<text text-anchor="middle" x="116" y="-41" font-family="Helvetica,sans-Serif" font-size="10.00"> m_name</text>
</g>
<!-- Node3 -->
<g id="node3" class="node">
<title>Node3</title>
<g id="a_node3"><a xlink:title=" ">
<polygon fill="white" stroke="#bfbfbf" points="0,-156.5 0,-175.5 38,-175.5 38,-156.5 0,-156.5"/>
<text text-anchor="middle" x="19" y="-163.5" font-family="Helvetica,sans-Serif" font-size="10.00">char</text>
</a>
</g>
</g>
<!-- Node3&#45;&gt;Node2 -->
<g id="edge2" class="edge">
<title>Node3&#45;&gt;Node2</title>
<path fill="none" stroke="#9a32cd" stroke-dasharray="5,2" d="M16.18,-146.04C15.57,-136.66 16.05,-125.36 20,-116 24.06,-106.37 32.44,-98.03 39.61,-92.21"/>
<polygon fill="#9a32cd" stroke="#9a32cd" points="12.73,-146.72 17.3,-156.28 19.69,-145.96 12.73,-146.72"/>
<text text-anchor="middle" x="41.5" y="-130" font-family="Helvetica,sans-Serif" font-size="10.00"> m_start</text>
<text text-anchor="middle" x="41.5" y="-119" font-family="Helvetica,sans-Serif" font-size="10.00">s_empty</text>
</g>
<!-- Node4 -->
<g id="node4" class="node">
<title>Node4</title>
<g id="a_node4"><a xlink:title=" ">
<polygon fill="white" stroke="#bfbfbf" points="62.5,-156.5 62.5,-175.5 107.5,-175.5 107.5,-156.5 62.5,-156.5"/>
<text text-anchor="middle" x="85" y="-163.5" font-family="Helvetica,sans-Serif" font-size="10.00">size_t</text>
</a>
</g>
</g>
<!-- Node4&#45;&gt;Node2 -->
<g id="edge3" class="edge">
<title>Node4&#45;&gt;Node2</title>
<path fill="none" stroke="#9a32cd" stroke-dasharray="5,2" d="M77.65,-146.85C70.76,-129.83 60.75,-105.11 55.51,-92.16"/>
<polygon fill="#9a32cd" stroke="#9a32cd" points="74.47,-148.32 81.47,-156.28 80.96,-145.7 74.47,-148.32"/>
<text text-anchor="middle" x="93" y="-124.5" font-family="Helvetica,sans-Serif" font-size="10.00"> m_size</text>
</g>
<!-- Node5 -->
<g id="node5" class="node">
<title>Node5</title>
<g id="a_node5"><a xlink:title=" ">
<polygon fill="white" stroke="#bfbfbf" points="118,-67.5 118,-97.5 258,-97.5 258,-67.5 118,-67.5"/>
<text text-anchor="start" x="126" y="-85.5" font-family="Helvetica,sans-Serif" font-size="10.00">vector&lt; std::pair&lt;</text>
<text text-anchor="middle" x="188" y="-74.5" font-family="Helvetica,sans-Serif" font-size="10.00"> int, Catch::StringRef &gt; &gt;</text>
</a>
</g>
</g>
<!-- Node5&#45;&gt;Node1 -->
<g id="edge4" class="edge">
<title>Node5&#45;&gt;Node1</title>
<path fill="none" stroke="#9a32cd" stroke-dasharray="5,2" d="M167.03,-59.76C154.09,-46.34 138.18,-29.85 128.58,-19.89"/>
<polygon fill="#9a32cd" stroke="#9a32cd" points="164.78,-62.47 174.24,-67.23 169.82,-57.61 164.78,-62.47"/>
<text text-anchor="middle" x="181.5" y="-41" font-family="Helvetica,sans-Serif" font-size="10.00"> m_values</text>
</g>
</g>
</svg>
