<?xml version="1.0" encoding="UTF-8" standalone="no"?>
<!DOCTYPE svg PUBLIC "-//W3C//DTD SVG 1.1//EN"
 "http://www.w3.org/Graphics/SVG/1.1/DTD/svg11.dtd">
<!-- Generated by graphviz version 2.43.0 (0)
 -->
<!-- Title: irr::video::COpenGLCoreTexture&lt; TOpenGLDriver &gt;::SStatesCache Pages: 1 -->
<svg width="273pt" height="139pt"
 viewBox="0.00 0.00 273.00 139.00" xmlns="http://www.w3.org/2000/svg" xmlns:xlink="http://www.w3.org/1999/xlink">
<g id="graph0" class="graph" transform="scale(1 1) rotate(0) translate(4 135)">
<title>irr::video::COpenGLCoreTexture&lt; TOpenGLDriver &gt;::SStatesCache</title>
<polygon fill="white" stroke="transparent" points="-4,4 -4,-135 269,-135 269,4 -4,4"/>
<!-- Node1 -->
<g id="node1" class="node">
<title>Node1</title>
<g id="a_node1"><a xlink:title=" ">
<polygon fill="#bfbfbf" stroke="black" points="0,-0.5 0,-30.5 186,-30.5 186,-0.5 0,-0.5"/>
<text text-anchor="start" x="8" y="-18.5" font-family="Helvetica,sans-Serif" font-size="10.00">irr::video::COpenGLCoreTexture</text>
<text text-anchor="middle" x="93" y="-7.5" font-family="Helvetica,sans-Serif" font-size="10.00">&lt; TOpenGLDriver &gt;::SStatesCache</text>
</a>
</g>
</g>
<!-- Node2 -->
<g id="node2" class="node">
<title>Node2</title>
<g id="a_node2"><a xlink:title=" ">
<polygon fill="white" stroke="#bfbfbf" points="3,-111.5 3,-130.5 47,-130.5 47,-111.5 3,-111.5"/>
<text text-anchor="middle" x="25" y="-118.5" font-family="Helvetica,sans-Serif" font-size="10.00">int8_t</text>
</a>
</g>
</g>
<!-- Node2&#45;&gt;Node1 -->
<g id="edge1" class="edge">
<title>Node2&#45;&gt;Node1</title>
<path fill="none" stroke="#9a32cd" stroke-dasharray="5,2" d="M26.4,-101.01C28.33,-85.73 32.96,-64.36 44,-49 49.3,-41.62 56.84,-35.45 64.42,-30.53"/>
<polygon fill="#9a32cd" stroke="#9a32cd" points="22.88,-101 25.38,-111.3 29.85,-101.69 22.88,-101"/>
<text text-anchor="middle" x="66.5" y="-68.5" font-family="Helvetica,sans-Serif" font-size="10.00"> LODBias</text>
</g>
<!-- Node3 -->
<g id="node3" class="node">
<title>Node3</title>
<g id="a_node3"><a xlink:href="classbool.html" target="_top" xlink:title=" ">
<polygon fill="white" stroke="black" points="74,-111.5 74,-130.5 112,-130.5 112,-111.5 74,-111.5"/>
<text text-anchor="middle" x="93" y="-118.5" font-family="Helvetica,sans-Serif" font-size="10.00">bool</text>
</a>
</g>
</g>
<!-- Node3&#45;&gt;Node1 -->
<g id="edge2" class="edge">
<title>Node3&#45;&gt;Node1</title>
<path fill="none" stroke="#9a32cd" stroke-dasharray="5,2" d="M93,-101C93,-80.74 93,-49.11 93,-30.84"/>
<polygon fill="#9a32cd" stroke="#9a32cd" points="89.5,-101.18 93,-111.18 96.5,-101.18 89.5,-101.18"/>
<text text-anchor="middle" x="128" y="-85" font-family="Helvetica,sans-Serif" font-size="10.00"> IsCached</text>
<text text-anchor="middle" x="128" y="-74" font-family="Helvetica,sans-Serif" font-size="10.00">TrilinearFilter</text>
<text text-anchor="middle" x="128" y="-63" font-family="Helvetica,sans-Serif" font-size="10.00">MipMapStatus</text>
<text text-anchor="middle" x="128" y="-52" font-family="Helvetica,sans-Serif" font-size="10.00">BilinearFilter</text>
</g>
<!-- Node4 -->
<g id="node4" class="node">
<title>Node4</title>
<g id="a_node4"><a xlink:title=" ">
<polygon fill="white" stroke="#bfbfbf" points="161,-111.5 161,-130.5 211,-130.5 211,-111.5 161,-111.5"/>
<text text-anchor="middle" x="186" y="-118.5" font-family="Helvetica,sans-Serif" font-size="10.00">uint8_t</text>
</a>
</g>
</g>
<!-- Node4&#45;&gt;Node1 -->
<g id="edge3" class="edge">
<title>Node4&#45;&gt;Node1</title>
<path fill="none" stroke="#9a32cd" stroke-dasharray="5,2" d="M184.44,-101.44C182.23,-85.79 176.89,-63.66 164,-49 157.2,-41.26 148.18,-35.25 138.86,-30.63"/>
<polygon fill="#9a32cd" stroke="#9a32cd" points="180.97,-101.94 185.56,-111.49 187.93,-101.16 180.97,-101.94"/>
<text text-anchor="middle" x="223.5" y="-85" font-family="Helvetica,sans-Serif" font-size="10.00"> AnisotropicFilter</text>
<text text-anchor="middle" x="223.5" y="-74" font-family="Helvetica,sans-Serif" font-size="10.00">WrapU</text>
<text text-anchor="middle" x="223.5" y="-63" font-family="Helvetica,sans-Serif" font-size="10.00">WrapV</text>
<text text-anchor="middle" x="223.5" y="-52" font-family="Helvetica,sans-Serif" font-size="10.00">WrapW</text>
</g>
</g>
</svg>
