<?xml version="1.0" encoding="UTF-8" standalone="no"?>
<!DOCTYPE svg PUBLIC "-//W3C//DTD SVG 1.1//EN"
 "http://www.w3.org/Graphics/SVG/1.1/DTD/svg11.dtd">
<!-- Generated by graphviz version 2.43.0 (0)
 -->
<!-- Title: irr::video::COpenGL3DriverBase::SHWBufferLink_opengl Pages: 1 -->
<svg width="450pt" height="322pt"
 viewBox="0.00 0.00 450.00 322.00" xmlns="http://www.w3.org/2000/svg" xmlns:xlink="http://www.w3.org/1999/xlink">
<g id="graph0" class="graph" transform="scale(1 1) rotate(0) translate(4 318)">
<title>irr::video::COpenGL3DriverBase::SHWBufferLink_opengl</title>
<polygon fill="white" stroke="transparent" points="-4,4 -4,-318 446,-318 446,4 -4,4"/>
<!-- Node1 -->
<g id="node1" class="node">
<title>Node1</title>
<g id="a_node1"><a xlink:title=" ">
<polygon fill="#bfbfbf" stroke="black" points="0,-0.5 0,-30.5 158,-30.5 158,-0.5 0,-0.5"/>
<text text-anchor="start" x="8" y="-18.5" font-family="Helvetica,sans-Serif" font-size="10.00">irr::video::COpenGL3Driver</text>
<text text-anchor="middle" x="79" y="-7.5" font-family="Helvetica,sans-Serif" font-size="10.00">Base::SHWBufferLink_opengl</text>
</a>
</g>
</g>
<!-- Node2 -->
<g id="node2" class="node">
<title>Node2</title>
<g id="a_node2"><a xlink:href="structirr_1_1video_1_1CNullDriver_1_1SHWBufferLink.html" target="_top" xlink:title=" ">
<polygon fill="white" stroke="black" points="136,-75 136,-105 258,-105 258,-75 136,-75"/>
<text text-anchor="start" x="144" y="-93" font-family="Helvetica,sans-Serif" font-size="10.00">irr::video::CNullDriver</text>
<text text-anchor="middle" x="197" y="-82" font-family="Helvetica,sans-Serif" font-size="10.00">::SHWBufferLink</text>
</a>
</g>
</g>
<!-- Node2&#45;&gt;Node1 -->
<g id="edge1" class="edge">
<title>Node2&#45;&gt;Node1</title>
<path fill="none" stroke="midnightblue" d="M165.22,-69.47C145.26,-57.21 119.99,-41.68 101.97,-30.62"/>
<polygon fill="midnightblue" stroke="midnightblue" points="163.62,-72.6 173.97,-74.85 167.28,-66.63 163.62,-72.6"/>
</g>
<!-- Node3 -->
<g id="node3" class="node">
<title>Node3</title>
<g id="a_node3"><a xlink:title=" ">
<polygon fill="white" stroke="#bfbfbf" points="306,-170.5 306,-189.5 442,-189.5 442,-170.5 306,-170.5"/>
<text text-anchor="middle" x="374" y="-177.5" font-family="Helvetica,sans-Serif" font-size="10.00">E_HARDWARE_MAPPING</text>
</a>
</g>
</g>
<!-- Node3&#45;&gt;Node2 -->
<g id="edge2" class="edge">
<title>Node3&#45;&gt;Node2</title>
<path fill="none" stroke="#9a32cd" stroke-dasharray="5,2" d="M357.65,-163.19C345.98,-152.61 329.49,-139.02 313,-130 293.99,-119.6 271.71,-111.3 251.79,-105.07"/>
<polygon fill="#9a32cd" stroke="#9a32cd" points="355.53,-166 365.23,-170.26 360.3,-160.88 355.53,-166"/>
<text text-anchor="middle" x="383.5" y="-144" font-family="Helvetica,sans-Serif" font-size="10.00"> Mapped_Vertex</text>
<text text-anchor="middle" x="383.5" y="-133" font-family="Helvetica,sans-Serif" font-size="10.00">Mapped_Index</text>
</g>
<!-- Node4 -->
<g id="node4" class="node">
<title>Node4</title>
<g id="a_node4"><a xlink:title=" ">
<polygon fill="white" stroke="#bfbfbf" points="10,-170.5 10,-189.5 66,-189.5 66,-170.5 10,-170.5"/>
<text text-anchor="middle" x="38" y="-177.5" font-family="Helvetica,sans-Serif" font-size="10.00">uint32_t</text>
</a>
</g>
</g>
<!-- Node4&#45;&gt;Node1 -->
<g id="edge9" class="edge">
<title>Node4&#45;&gt;Node1</title>
<path fill="none" stroke="#9a32cd" stroke-dasharray="5,2" d="M35.19,-160.42C32.52,-137.88 30.32,-99.03 41,-68 45.84,-53.92 56.03,-40.47 64.64,-30.85"/>
<polygon fill="#9a32cd" stroke="#9a32cd" points="31.72,-160.89 36.52,-170.34 38.66,-159.96 31.72,-160.89"/>
<text text-anchor="middle" x="84" y="-104" font-family="Helvetica,sans-Serif" font-size="10.00"> vbo_verticesSize</text>
<text text-anchor="middle" x="84" y="-93" font-family="Helvetica,sans-Serif" font-size="10.00">vbo_indicesSize</text>
<text text-anchor="middle" x="84" y="-82" font-family="Helvetica,sans-Serif" font-size="10.00">vbo_indicesID</text>
<text text-anchor="middle" x="84" y="-71" font-family="Helvetica,sans-Serif" font-size="10.00">vbo_verticesID</text>
</g>
<!-- Node4&#45;&gt;Node2 -->
<g id="edge3" class="edge">
<title>Node4&#45;&gt;Node2</title>
<path fill="none" stroke="#9a32cd" stroke-dasharray="5,2" d="M46.84,-161.32C52.89,-150.85 61.84,-138.09 73,-130 79.37,-125.38 115.62,-114.21 147.29,-105.01"/>
<polygon fill="#9a32cd" stroke="#9a32cd" points="43.59,-159.96 41.94,-170.43 49.76,-163.28 43.59,-159.96"/>
<text text-anchor="middle" x="118.5" y="-144" font-family="Helvetica,sans-Serif" font-size="10.00"> ChangedID_Index</text>
<text text-anchor="middle" x="118.5" y="-133" font-family="Helvetica,sans-Serif" font-size="10.00">ChangedID_Vertex</text>
</g>
<!-- Node5 -->
<g id="node5" class="node">
<title>Node5</title>
<g id="a_node5"><a xlink:href="classirr_1_1scene_1_1IMeshBuffer.html" target="_top" xlink:title="Struct for holding a mesh with a single material.">
<polygon fill="white" stroke="black" points="90,-170.5 90,-189.5 216,-189.5 216,-170.5 90,-170.5"/>
<text text-anchor="middle" x="153" y="-177.5" font-family="Helvetica,sans-Serif" font-size="10.00">irr::scene::IMeshBuffer</text>
</a>
</g>
</g>
<!-- Node5&#45;&gt;Node2 -->
<g id="edge4" class="edge">
<title>Node5&#45;&gt;Node2</title>
<path fill="none" stroke="#9a32cd" stroke-dasharray="5,2" d="M161.95,-161.11C170.2,-144.6 182.29,-120.42 189.9,-105.21"/>
<polygon fill="#9a32cd" stroke="#9a32cd" points="158.72,-159.73 157.38,-170.24 164.98,-162.86 158.72,-159.73"/>
<text text-anchor="middle" x="206.5" y="-138.5" font-family="Helvetica,sans-Serif" font-size="10.00"> MeshBuffer</text>
</g>
<!-- Node6 -->
<g id="node6" class="node">
<title>Node6</title>
<g id="a_node6"><a xlink:href="classirr_1_1IReferenceCounted.html" target="_top" xlink:title="Base class of most objects of the Irrlicht Engine.">
<polygon fill="white" stroke="black" points="90,-227.5 90,-246.5 216,-246.5 216,-227.5 90,-227.5"/>
<text text-anchor="middle" x="153" y="-234.5" font-family="Helvetica,sans-Serif" font-size="10.00">irr::IReferenceCounted</text>
</a>
</g>
</g>
<!-- Node6&#45;&gt;Node5 -->
<g id="edge5" class="edge">
<title>Node6&#45;&gt;Node5</title>
<path fill="none" stroke="midnightblue" d="M153,-217.12C153,-207.82 153,-197.06 153,-189.71"/>
<polygon fill="midnightblue" stroke="midnightblue" points="149.5,-217.41 153,-227.41 156.5,-217.41 149.5,-217.41"/>
</g>
<!-- Node7 -->
<g id="node7" class="node">
<title>Node7</title>
<g id="a_node7"><a xlink:title=" ">
<polygon fill="white" stroke="#bfbfbf" points="91,-294.5 91,-313.5 129,-313.5 129,-294.5 91,-294.5"/>
<text text-anchor="middle" x="110" y="-301.5" font-family="Helvetica,sans-Serif" font-size="10.00">char</text>
</a>
</g>
</g>
<!-- Node7&#45;&gt;Node6 -->
<g id="edge6" class="edge">
<title>Node7&#45;&gt;Node6</title>
<path fill="none" stroke="#9a32cd" stroke-dasharray="5,2" d="M107.05,-284.26C106.9,-277.8 107.76,-270.75 111,-265 115.51,-256.99 123.48,-250.99 131.28,-246.7"/>
<polygon fill="#9a32cd" stroke="#9a32cd" points="103.57,-284.63 108.03,-294.24 110.54,-283.95 103.57,-284.63"/>
<text text-anchor="middle" x="143" y="-268" font-family="Helvetica,sans-Serif" font-size="10.00"> DebugName</text>
</g>
<!-- Node8 -->
<g id="node8" class="node">
<title>Node8</title>
<g id="a_node8"><a xlink:title=" ">
<polygon fill="white" stroke="#bfbfbf" points="172,-294.5 172,-313.5 222,-313.5 222,-294.5 172,-294.5"/>
<text text-anchor="middle" x="197" y="-301.5" font-family="Helvetica,sans-Serif" font-size="10.00">int32_t</text>
</a>
</g>
</g>
<!-- Node8&#45;&gt;Node6 -->
<g id="edge7" class="edge">
<title>Node8&#45;&gt;Node6</title>
<path fill="none" stroke="#9a32cd" stroke-dasharray="5,2" d="M187.65,-285.52C183.93,-278.94 179.48,-271.49 175,-265 170.6,-258.63 165.1,-251.88 160.7,-246.72"/>
<polygon fill="#9a32cd" stroke="#9a32cd" points="184.6,-287.23 192.48,-294.31 190.73,-283.86 184.6,-287.23"/>
<text text-anchor="middle" x="227.5" y="-268" font-family="Helvetica,sans-Serif" font-size="10.00"> ReferenceCounter</text>
</g>
<!-- Node9 -->
<g id="node9" class="node">
<title>Node9</title>
<g id="a_node9"><a xlink:title=" ">
<polygon fill="white" stroke="#bfbfbf" points="234.5,-170.5 234.5,-189.5 287.5,-189.5 287.5,-170.5 234.5,-170.5"/>
<text text-anchor="middle" x="261" y="-177.5" font-family="Helvetica,sans-Serif" font-size="10.00">iterator</text>
</a>
</g>
</g>
<!-- Node9&#45;&gt;Node2 -->
<g id="edge8" class="edge">
<title>Node9&#45;&gt;Node2</title>
<path fill="none" stroke="#9a32cd" stroke-dasharray="5,2" d="M254.94,-161.04C251.18,-151.35 245.79,-139.46 239,-130 232.39,-120.78 223.34,-112.04 215.33,-105.18"/>
<polygon fill="#9a32cd" stroke="#9a32cd" points="251.66,-162.27 258.35,-170.49 258.24,-159.89 251.66,-162.27"/>
<text text-anchor="middle" x="280" y="-138.5" font-family="Helvetica,sans-Serif" font-size="10.00"> listPosition</text>
</g>
</g>
</svg>
