<?xml version="1.0" encoding="UTF-8" standalone="no"?>
<!DOCTYPE svg PUBLIC "-//W3C//DTD SVG 1.1//EN"
 "http://www.w3.org/Graphics/SVG/1.1/DTD/svg11.dtd">
<!-- Generated by graphviz version 2.43.0 (0)
 -->
<!-- Title: MapgenValleysParams Pages: 1 -->
<!--zoomable 484 -->
<svg id="main" version="1.1" xmlns="http://www.w3.org/2000/svg" xmlns:xlink="http://www.w3.org/1999/xlink" xml:space="preserve" onload="init(evt)">
<style type="text/css"><![CDATA[
.edge:hover path { stroke: red; }
.edge:hover polygon { stroke: red; fill: red; }
]]></style>
<script type="text/javascript"><![CDATA[
var edges = document.getElementsByTagName('g');
if (edges && edges.length) {
  for (var i=0;i<edges.length;i++) {
    if (edges[i].id.substr(0,4)=='edge') {
      edges[i].setAttribute('class','edge');
    }
  }
}
]]></script>
        <defs>
                <circle id="rim" cx="0" cy="0" r="7"/>
                <circle id="rim2" cx="0" cy="0" r="3.5"/>
                <g id="zoomPlus">
                        <use xlink:href="#rim" fill="#404040">
                                <set attributeName="fill" to="#808080" begin="zoomplus.mouseover" end="zoomplus.mouseout"/>
                        </use>
                        <path d="M-4,0h8M0,-4v8" fill="none" stroke="white" stroke-width="1.5" pointer-events="none"/>
                </g>
                <g id="zoomMin">
                        <use xlink:href="#rim" fill="#404040">
                                <set attributeName="fill" to="#808080" begin="zoomminus.mouseover" end="zoomminus.mouseout"/>
                        </use>
                        <path d="M-4,0h8" fill="none" stroke="white" stroke-width="1.5" pointer-events="none"/>
                </g>
                <g id="dirArrow">
                        <path fill="none" stroke="white" stroke-width="1.5" d="M0,-3.0v7 M-2.5,-0.5L0,-3.0L2.5,-0.5"/>
                </g>
               <g id="resetDef">
                       <use xlink:href="#rim2" fill="#404040">
                               <set attributeName="fill" to="#808080" begin="reset.mouseover" end="reset.mouseout"/>
                       </use>
               </g>
        </defs>

<script type="text/javascript">
var viewWidth = 1066;
var viewHeight = 484;
var sectionId = 'dynsection-1';
</script>
<script xlink:href="svgpan.js"/>
<svg id="graph" class="graph">
<g id="viewport">
<title>MapgenValleysParams</title>
<polygon fill="white" stroke="transparent" points="-4,4 -4,-480 1062,-480 1062,4 -4,4"/>
<!-- Node1 -->
<g id="node1" class="node">
<title>Node1</title>
<g id="a_node1"><a xlink:title=" ">
<polygon fill="#bfbfbf" stroke="black" points="590.5,-0.5 590.5,-19.5 717.5,-19.5 717.5,-0.5 590.5,-0.5"/>
<text text-anchor="middle" x="654" y="-7.5" font-family="Helvetica,sans-Serif" font-size="10.00">MapgenValleysParams</text>
</a>
</g>
</g>
<!-- Node2 -->
<g id="node2" class="node">
<title>Node2</title>
<g id="a_node2"><a xlink:href="structMapgenParams.html" target="_top" xlink:title=" ">
<polygon fill="white" stroke="black" points="356,-228 356,-247 448,-247 448,-228 356,-228"/>
<text text-anchor="middle" x="402" y="-235" font-family="Helvetica,sans-Serif" font-size="10.00">MapgenParams</text>
</a>
</g>
</g>
<!-- Node2&#45;&gt;Node1 -->
<g id="edge1" class="edge">
<title>Node2&#45;&gt;Node1</title>
<path fill="none" stroke="midnightblue" d="M419.1,-221.2C467.88,-177.54 606.67,-53.35 644.42,-19.57"/>
<polygon fill="midnightblue" stroke="midnightblue" points="416.69,-218.66 411.57,-227.94 421.36,-223.88 416.69,-218.66"/>
</g>
<!-- Node3 -->
<g id="node3" class="node">
<title>Node3</title>
<g id="a_node3"><a xlink:title=" ">
<polygon fill="white" stroke="#bfbfbf" points="181,-367.5 181,-386.5 215,-386.5 215,-367.5 181,-367.5"/>
<text text-anchor="middle" x="198" y="-374.5" font-family="Helvetica,sans-Serif" font-size="10.00">s16</text>
</a>
</g>
</g>
<!-- Node3&#45;&gt;Node1 -->
<g id="edge9" class="edge">
<title>Node3&#45;&gt;Node1</title>
<path fill="none" stroke="#9a32cd" stroke-dasharray="5,2" d="M195.64,-356.9C194.21,-339.99 193.7,-314.82 200,-294 214.46,-246.2 226.5,-236.03 260,-199 337.95,-112.83 359.11,-83.57 466,-38 505.28,-21.25 552.93,-14.54 590.43,-12"/>
<polygon fill="#9a32cd" stroke="#9a32cd" points="192.19,-357.56 196.71,-367.14 199.15,-356.83 192.19,-357.56"/>
<text text-anchor="middle" x="303.5" y="-257" font-family="Helvetica,sans-Serif" font-size="10.00"> dungeon_ymin</text>
<text text-anchor="middle" x="303.5" y="-246" font-family="Helvetica,sans-Serif" font-size="10.00">cavern_limit</text>
<text text-anchor="middle" x="303.5" y="-235" font-family="Helvetica,sans-Serif" font-size="10.00">dungeon_ymax</text>
<text text-anchor="middle" x="303.5" y="-224" font-family="Helvetica,sans-Serif" font-size="10.00">cavern_taper</text>
<text text-anchor="middle" x="303.5" y="-213" font-family="Helvetica,sans-Serif" font-size="10.00">large_cave_depth</text>
</g>
<!-- Node3&#45;&gt;Node2 -->
<g id="edge2" class="edge">
<title>Node3&#45;&gt;Node2</title>
<path fill="none" stroke="#9a32cd" stroke-dasharray="5,2" d="M201.02,-357.61C204.99,-339.08 213.74,-310.9 232,-294 242.45,-284.33 325.27,-260.01 371.33,-247.01"/>
<polygon fill="#9a32cd" stroke="#9a32cd" points="197.57,-357 199.16,-367.47 204.45,-358.3 197.57,-357"/>
<text text-anchor="middle" x="282" y="-341" font-family="Helvetica,sans-Serif" font-size="10.00"> mapgen_edge_max</text>
<text text-anchor="middle" x="282" y="-330" font-family="Helvetica,sans-Serif" font-size="10.00">mapgen_limit</text>
<text text-anchor="middle" x="282" y="-319" font-family="Helvetica,sans-Serif" font-size="10.00">mapgen_edge_min</text>
<text text-anchor="middle" x="282" y="-308" font-family="Helvetica,sans-Serif" font-size="10.00">water_level</text>
<text text-anchor="middle" x="282" y="-297" font-family="Helvetica,sans-Serif" font-size="10.00">chunksize</text>
</g>
<!-- Node4 -->
<g id="node4" class="node">
<title>Node4</title>
<g id="a_node4"><a xlink:href="classbool.html" target="_top" xlink:title=" ">
<polygon fill="white" stroke="black" points="0,-367.5 0,-386.5 38,-386.5 38,-367.5 0,-367.5"/>
<text text-anchor="middle" x="19" y="-374.5" font-family="Helvetica,sans-Serif" font-size="10.00">bool</text>
</a>
</g>
</g>
<!-- Node4&#45;&gt;Node2 -->
<g id="edge3" class="edge">
<title>Node4&#45;&gt;Node2</title>
<path fill="none" stroke="#9a32cd" stroke-dasharray="5,2" d="M20.93,-357.27C23.99,-338.02 31.86,-308.83 52,-294 91.68,-264.78 224.54,-284.92 273,-276 310.39,-269.12 352.46,-255.8 378.1,-247.03"/>
<polygon fill="#9a32cd" stroke="#9a32cd" points="17.44,-356.91 19.62,-367.27 24.39,-357.81 17.44,-356.91"/>
<text text-anchor="middle" x="126" y="-319" font-family="Helvetica,sans-Serif" font-size="10.00"> m_mapgen_edges_calculated</text>
</g>
<!-- Node5 -->
<g id="node5" class="node">
<title>Node5</title>
<g id="a_node5"><a xlink:title=" ">
<polygon fill="white" stroke="#bfbfbf" points="289,-367.5 289,-386.5 367,-386.5 367,-367.5 289,-367.5"/>
<text text-anchor="middle" x="328" y="-374.5" font-family="Helvetica,sans-Serif" font-size="10.00">MapgenType</text>
</a>
</g>
</g>
<!-- Node5&#45;&gt;Node2 -->
<g id="edge4" class="edge">
<title>Node5&#45;&gt;Node2</title>
<path fill="none" stroke="#9a32cd" stroke-dasharray="5,2" d="M332.88,-357.64C337.85,-340.52 346.46,-314.61 358,-294 368.09,-275.98 383.89,-257.71 393.56,-247.28"/>
<polygon fill="#9a32cd" stroke="#9a32cd" points="329.45,-356.9 330.15,-367.47 336.2,-358.77 329.45,-356.9"/>
<text text-anchor="middle" x="378.5" y="-319" font-family="Helvetica,sans-Serif" font-size="10.00"> mgtype</text>
</g>
<!-- Node6 -->
<g id="node6" class="node">
<title>Node6</title>
<g id="a_node6"><a xlink:title=" ">
<polygon fill="white" stroke="#bfbfbf" points="385.5,-367.5 385.5,-386.5 420.5,-386.5 420.5,-367.5 385.5,-367.5"/>
<text text-anchor="middle" x="403" y="-374.5" font-family="Helvetica,sans-Serif" font-size="10.00">u64</text>
</a>
</g>
</g>
<!-- Node6&#45;&gt;Node2 -->
<g id="edge5" class="edge">
<title>Node6&#45;&gt;Node2</title>
<path fill="none" stroke="#9a32cd" stroke-dasharray="5,2" d="M402.86,-357.36C402.65,-327.23 402.22,-268.99 402.06,-247.1"/>
<polygon fill="#9a32cd" stroke="#9a32cd" points="399.36,-357.42 402.94,-367.4 406.36,-357.37 399.36,-357.42"/>
<text text-anchor="middle" x="416.5" y="-319" font-family="Helvetica,sans-Serif" font-size="10.00"> seed</text>
</g>
<!-- Node7 -->
<g id="node7" class="node">
<title>Node7</title>
<g id="a_node7"><a xlink:title=" ">
<polygon fill="white" stroke="#bfbfbf" points="547.5,-367.5 547.5,-386.5 582.5,-386.5 582.5,-367.5 547.5,-367.5"/>
<text text-anchor="middle" x="565" y="-374.5" font-family="Helvetica,sans-Serif" font-size="10.00">u32</text>
</a>
</g>
</g>
<!-- Node7&#45;&gt;Node2 -->
<g id="edge6" class="edge">
<title>Node7&#45;&gt;Node2</title>
<path fill="none" stroke="#9a32cd" stroke-dasharray="5,2" d="M541.19,-361.76C536.11,-358.03 531.06,-353.71 527,-349 509.08,-328.23 517.92,-313.86 499,-294 477.99,-271.94 446.27,-256.06 424.87,-247.08"/>
<polygon fill="#9a32cd" stroke="#9a32cd" points="539.35,-364.74 549.59,-367.46 543.28,-358.95 539.35,-364.74"/>
<text text-anchor="middle" x="544.5" y="-324.5" font-family="Helvetica,sans-Serif" font-size="10.00"> flags</text>
<text text-anchor="middle" x="544.5" y="-313.5" font-family="Helvetica,sans-Serif" font-size="10.00">spflags</text>
</g>
<!-- Node11 -->
<g id="node11" class="node">
<title>Node11</title>
<g id="a_node11"><a xlink:href="structNoiseParams.html" target="_top" xlink:title=" ">
<polygon fill="white" stroke="black" points="614,-228 614,-247 694,-247 694,-228 614,-228"/>
<text text-anchor="middle" x="654" y="-235" font-family="Helvetica,sans-Serif" font-size="10.00">NoiseParams</text>
</a>
</g>
</g>
<!-- Node7&#45;&gt;Node11 -->
<g id="edge17" class="edge">
<title>Node7&#45;&gt;Node11</title>
<path fill="none" stroke="#9a32cd" stroke-dasharray="5,2" d="M564.63,-357.26C565.12,-339.68 568.07,-313.28 580,-294 593.44,-272.29 618.73,-256.14 635.97,-247.01"/>
<polygon fill="#9a32cd" stroke="#9a32cd" points="561.13,-357.36 564.6,-367.37 568.13,-357.38 561.13,-357.36"/>
<text text-anchor="middle" x="593.5" y="-319" font-family="Helvetica,sans-Serif" font-size="10.00"> flags</text>
</g>
<!-- Node8 -->
<g id="node8" class="node">
<title>Node8</title>
<g id="a_node8"><a xlink:href="structBiomeParams.html" target="_top" xlink:title=" ">
<polygon fill="white" stroke="black" points="441,-367.5 441,-386.5 525,-386.5 525,-367.5 441,-367.5"/>
<text text-anchor="middle" x="483" y="-374.5" font-family="Helvetica,sans-Serif" font-size="10.00">BiomeParams</text>
</a>
</g>
</g>
<!-- Node8&#45;&gt;Node2 -->
<g id="edge7" class="edge">
<title>Node8&#45;&gt;Node2</title>
<path fill="none" stroke="#9a32cd" stroke-dasharray="5,2" d="M463.38,-360.65C459.61,-357.1 455.94,-353.14 453,-349 437.67,-327.39 441.09,-318.07 430,-294 422.23,-277.14 412.26,-257.88 406.56,-247.06"/>
<polygon fill="#9a32cd" stroke="#9a32cd" points="461.17,-363.36 471.01,-367.28 465.76,-358.08 461.17,-363.36"/>
<text text-anchor="middle" x="476" y="-319" font-family="Helvetica,sans-Serif" font-size="10.00"> bparams</text>
</g>
<!-- Node9 -->
<g id="node9" class="node">
<title>Node9</title>
<g id="a_node9"><a xlink:title=" ">
<polygon fill="white" stroke="#bfbfbf" points="561,-456.5 561,-475.5 595,-475.5 595,-456.5 561,-456.5"/>
<text text-anchor="middle" x="578" y="-463.5" font-family="Helvetica,sans-Serif" font-size="10.00">s32</text>
</a>
</g>
</g>
<!-- Node9&#45;&gt;Node8 -->
<g id="edge8" class="edge">
<title>Node9&#45;&gt;Node8</title>
<path fill="none" stroke="#9a32cd" stroke-dasharray="5,2" d="M561.06,-449.48C541.03,-431.14 508.4,-401.26 492.42,-386.62"/>
<polygon fill="#9a32cd" stroke="#9a32cd" points="558.81,-452.17 568.54,-456.34 563.53,-447.01 558.81,-452.17"/>
<text text-anchor="middle" x="561.5" y="-419" font-family="Helvetica,sans-Serif" font-size="10.00"> seed</text>
</g>
<!-- Node9&#45;&gt;Node11 -->
<g id="edge16" class="edge">
<title>Node9&#45;&gt;Node11</title>
<path fill="none" stroke="#9a32cd" stroke-dasharray="5,2" d="M584.1,-446.81C599.59,-400.67 639.96,-280.34 651.11,-247.11"/>
<polygon fill="#9a32cd" stroke="#9a32cd" points="580.75,-445.8 580.89,-456.4 587.39,-448.03 580.75,-445.8"/>
<text text-anchor="middle" x="623.5" y="-374.5" font-family="Helvetica,sans-Serif" font-size="10.00"> seed</text>
</g>
<!-- Node10 -->
<g id="node10" class="node">
<title>Node10</title>
<g id="a_node10"><a xlink:title=" ">
<polygon fill="white" stroke="#bfbfbf" points="916.5,-367.5 916.5,-386.5 951.5,-386.5 951.5,-367.5 916.5,-367.5"/>
<text text-anchor="middle" x="934" y="-374.5" font-family="Helvetica,sans-Serif" font-size="10.00">u16</text>
</a>
</g>
</g>
<!-- Node10&#45;&gt;Node1 -->
<g id="edge10" class="edge">
<title>Node10&#45;&gt;Node1</title>
<path fill="none" stroke="#9a32cd" stroke-dasharray="5,2" d="M938.55,-357.02C945.59,-323.76 956.32,-253.33 936,-199 902.78,-110.18 878.22,-85.24 796,-38 772.39,-24.44 743.29,-17.52 717.59,-14.05"/>
<polygon fill="#9a32cd" stroke="#9a32cd" points="935.05,-356.62 936.27,-367.15 941.88,-358.16 935.05,-356.62"/>
<text text-anchor="middle" x="1002.5" y="-268" font-family="Helvetica,sans-Serif" font-size="10.00"> large_cave_num_max</text>
<text text-anchor="middle" x="1002.5" y="-257" font-family="Helvetica,sans-Serif" font-size="10.00">small_cave_num_min</text>
<text text-anchor="middle" x="1002.5" y="-246" font-family="Helvetica,sans-Serif" font-size="10.00">small_cave_num_max</text>
<text text-anchor="middle" x="1002.5" y="-235" font-family="Helvetica,sans-Serif" font-size="10.00">river_depth</text>
<text text-anchor="middle" x="1002.5" y="-224" font-family="Helvetica,sans-Serif" font-size="10.00">large_cave_num_min</text>
<text text-anchor="middle" x="1002.5" y="-213" font-family="Helvetica,sans-Serif" font-size="10.00">river_size</text>
<text text-anchor="middle" x="1002.5" y="-202" font-family="Helvetica,sans-Serif" font-size="10.00">altitude_chill</text>
</g>
<!-- Node10&#45;&gt;Node11 -->
<g id="edge12" class="edge">
<title>Node10&#45;&gt;Node11</title>
<path fill="none" stroke="#9a32cd" stroke-dasharray="5,2" d="M907.42,-362.95C850.69,-335.09 719.04,-270.44 671.51,-247.1"/>
<polygon fill="#9a32cd" stroke="#9a32cd" points="905.97,-366.13 916.48,-367.4 909.05,-359.85 905.97,-366.13"/>
<text text-anchor="middle" x="894" y="-319" font-family="Helvetica,sans-Serif" font-size="10.00"> octaves</text>
</g>
<!-- Node11&#45;&gt;Node1 -->
<g id="edge11" class="edge">
<title>Node11&#45;&gt;Node1</title>
<path fill="none" stroke="#9a32cd" stroke-dasharray="5,2" d="M654,-217.81C654,-171.44 654,-52.52 654,-19.57"/>
<polygon fill="#9a32cd" stroke="#9a32cd" points="650.5,-217.94 654,-227.94 657.5,-217.94 650.5,-217.94"/>
<text text-anchor="middle" x="697.5" y="-173" font-family="Helvetica,sans-Serif" font-size="10.00"> np_valley_profile</text>
<text text-anchor="middle" x="697.5" y="-162" font-family="Helvetica,sans-Serif" font-size="10.00">np_valley_depth</text>
<text text-anchor="middle" x="697.5" y="-151" font-family="Helvetica,sans-Serif" font-size="10.00">np_rivers</text>
<text text-anchor="middle" x="697.5" y="-140" font-family="Helvetica,sans-Serif" font-size="10.00">np_cave1</text>
<text text-anchor="middle" x="697.5" y="-129" font-family="Helvetica,sans-Serif" font-size="10.00">np_cavern</text>
<text text-anchor="middle" x="697.5" y="-118" font-family="Helvetica,sans-Serif" font-size="10.00">np_cave2</text>
<text text-anchor="start" x="654" y="-107" font-family="Helvetica,sans-Serif" font-size="10.00">np_inter_valley</text>
<text text-anchor="middle" x="697.5" y="-96" font-family="Helvetica,sans-Serif" font-size="10.00">_fill</text>
<text text-anchor="middle" x="697.5" y="-85" font-family="Helvetica,sans-Serif" font-size="10.00">np_filler_depth</text>
<text text-anchor="middle" x="697.5" y="-74" font-family="Helvetica,sans-Serif" font-size="10.00">np_terrain_height</text>
<text text-anchor="start" x="654" y="-63" font-family="Helvetica,sans-Serif" font-size="10.00">np_inter_valley</text>
<text text-anchor="middle" x="697.5" y="-52" font-family="Helvetica,sans-Serif" font-size="10.00">_slope</text>
<text text-anchor="middle" x="697.5" y="-41" font-family="Helvetica,sans-Serif" font-size="10.00">...</text>
</g>
<!-- Node12 -->
<g id="node12" class="node">
<title>Node12</title>
<g id="a_node12"><a xlink:title=" ">
<polygon fill="white" stroke="#bfbfbf" points="820,-367.5 820,-386.5 858,-386.5 858,-367.5 820,-367.5"/>
<text text-anchor="middle" x="839" y="-374.5" font-family="Helvetica,sans-Serif" font-size="10.00">float</text>
</a>
</g>
</g>
<!-- Node12&#45;&gt;Node1 -->
<g id="edge18" class="edge">
<title>Node12&#45;&gt;Node1</title>
<path fill="none" stroke="#9a32cd" stroke-dasharray="5,2" d="M839.83,-357.37C841.29,-300.57 837.56,-127.95 745,-38 736.25,-29.5 724.96,-23.66 713.32,-19.65"/>
<polygon fill="#9a32cd" stroke="#9a32cd" points="836.33,-357.28 839.48,-367.4 843.33,-357.53 836.33,-357.28"/>
<text text-anchor="middle" x="884.5" y="-246" font-family="Helvetica,sans-Serif" font-size="10.00"> cavern_threshold</text>
<text text-anchor="middle" x="884.5" y="-235" font-family="Helvetica,sans-Serif" font-size="10.00">large_cave_flooded</text>
<text text-anchor="middle" x="884.5" y="-224" font-family="Helvetica,sans-Serif" font-size="10.00">cave_width</text>
</g>
<!-- Node12&#45;&gt;Node11 -->
<g id="edge13" class="edge">
<title>Node12&#45;&gt;Node11</title>
<path fill="none" stroke="#9a32cd" stroke-dasharray="5,2" d="M809.76,-367.67C808.83,-367.44 807.91,-367.22 807,-367 766.47,-357.35 747.29,-375.33 715,-349 694.46,-332.26 704.66,-317.27 692,-294 682.51,-276.56 668.87,-257.81 660.77,-247.18"/>
<polygon fill="#9a32cd" stroke="#9a32cd" points="809.21,-371.15 819.78,-370.32 811,-364.38 809.21,-371.15"/>
<text text-anchor="middle" x="739.5" y="-335.5" font-family="Helvetica,sans-Serif" font-size="10.00"> persist</text>
<text text-anchor="middle" x="739.5" y="-324.5" font-family="Helvetica,sans-Serif" font-size="10.00">offset</text>
<text text-anchor="middle" x="739.5" y="-313.5" font-family="Helvetica,sans-Serif" font-size="10.00">scale</text>
<text text-anchor="middle" x="739.5" y="-302.5" font-family="Helvetica,sans-Serif" font-size="10.00">lacunarity</text>
</g>
<!-- Node13 -->
<g id="node13" class="node">
<title>Node13</title>
<g id="a_node13"><a xlink:href="classirr_1_1core_1_1vector3d.html" target="_top" xlink:title="3d vector template class with lots of operators and methods.">
<polygon fill="white" stroke="black" points="666.5,-367.5 666.5,-386.5 797.5,-386.5 797.5,-367.5 666.5,-367.5"/>
<text text-anchor="middle" x="732" y="-374.5" font-family="Helvetica,sans-Serif" font-size="10.00">irr::core::vector3d&lt; T &gt;</text>
</a>
</g>
</g>
<!-- Node13&#45;&gt;Node11 -->
<g id="edge14" class="edge">
<title>Node13&#45;&gt;Node11</title>
<path fill="none" stroke="#9a32cd" stroke-dasharray="5,2" d="M670.57,-362.82C664.51,-359.25 659.1,-354.73 655,-349 632.55,-317.64 644.74,-267.41 651.01,-247.27"/>
<polygon fill="#9a32cd" stroke="#9a32cd" points="669.32,-366.1 679.83,-367.39 672.42,-359.82 669.32,-366.1"/>
<text text-anchor="middle" x="673.5" y="-319" font-family="Helvetica,sans-Serif" font-size="10.00"> spread</text>
</g>
<!-- Node14 -->
<g id="node14" class="node">
<title>Node14</title>
<g id="a_node14"><a xlink:title=" ">
<polygon fill="white" stroke="#bfbfbf" points="717.5,-456.5 717.5,-475.5 746.5,-475.5 746.5,-456.5 717.5,-456.5"/>
<text text-anchor="middle" x="732" y="-463.5" font-family="Helvetica,sans-Serif" font-size="10.00">T</text>
</a>
</g>
</g>
<!-- Node14&#45;&gt;Node13 -->
<g id="edge15" class="edge">
<title>Node14&#45;&gt;Node13</title>
<path fill="none" stroke="#9a32cd" stroke-dasharray="5,2" d="M732,-446.19C732,-427.74 732,-400.41 732,-386.62"/>
<polygon fill="#9a32cd" stroke="#9a32cd" points="728.5,-446.34 732,-456.34 735.5,-446.34 728.5,-446.34"/>
<text text-anchor="middle" x="737" y="-430" font-family="Helvetica,sans-Serif" font-size="10.00"> X</text>
<text text-anchor="middle" x="737" y="-419" font-family="Helvetica,sans-Serif" font-size="10.00">Y</text>
<text text-anchor="middle" x="737" y="-408" font-family="Helvetica,sans-Serif" font-size="10.00">Z</text>
</g>
</g>
</svg>
        <g id="navigator" transform="translate(0 0)" fill="#404254">
                <rect fill="#f2f5e9" fill-opacity="0.5" stroke="#606060" stroke-width=".5" x="0" y="0" width="60" height="60"/>
                <use id="zoomplus" xlink:href="#zoomPlus" x="17" y="9" onmousedown="handleZoom(evt,'in')"/>
                <use id="zoomminus" xlink:href="#zoomMin" x="42" y="9" onmousedown="handleZoom(evt,'out')"/>
                <use id="reset" xlink:href="#resetDef" x="30" y="36" onmousedown="handleReset()"/>
                <g id="arrowUp" xlink:href="#dirArrow" transform="translate(30 24)" onmousedown="handlePan(0,-1)">
                  <use xlink:href="#rim" fill="#404040">
                        <set attributeName="fill" to="#808080" begin="arrowUp.mouseover" end="arrowUp.mouseout"/>
                  </use>
                  <path fill="none" stroke="white" stroke-width="1.5" d="M0,-3.0v7 M-2.5,-0.5L0,-3.0L2.5,-0.5"/>
                </g>
                <g id="arrowRight" xlink:href="#dirArrow" transform="rotate(90) translate(36 -43)" onmousedown="handlePan(1,0)">
                  <use xlink:href="#rim" fill="#404040">
                        <set attributeName="fill" to="#808080" begin="arrowRight.mouseover" end="arrowRight.mouseout"/>
                  </use>
                  <path fill="none" stroke="white" stroke-width="1.5" d="M0,-3.0v7 M-2.5,-0.5L0,-3.0L2.5,-0.5"/>
                </g>
                <g id="arrowDown" xlink:href="#dirArrow" transform="rotate(180) translate(-30 -48)" onmousedown="handlePan(0,1)">
                  <use xlink:href="#rim" fill="#404040">
                        <set attributeName="fill" to="#808080" begin="arrowDown.mouseover" end="arrowDown.mouseout"/>
                  </use>
                  <path fill="none" stroke="white" stroke-width="1.5" d="M0,-3.0v7 M-2.5,-0.5L0,-3.0L2.5,-0.5"/>
                </g>
                <g id="arrowLeft" xlink:href="#dirArrow" transform="rotate(270) translate(-36 17)" onmousedown="handlePan(-1,0)">
                  <use xlink:href="#rim" fill="#404040">
                        <set attributeName="fill" to="#808080" begin="arrowLeft.mouseover" end="arrowLeft.mouseout"/>
                  </use>
                  <path fill="none" stroke="white" stroke-width="1.5" d="M0,-3.0v7 M-2.5,-0.5L0,-3.0L2.5,-0.5"/>
                </g>
        </g>
        <svg viewBox="0 0 15 15" width="100%" height="30px" preserveAspectRatio="xMaxYMin meet">
         <g id="arrow_out" transform="scale(0.3 0.3)">
          <a xlink:href="structMapgenValleysParams__coll__graph_org.svg" target="_base">
           <rect id="button" ry="5" rx="5" y="6" x="6" height="38" width="38"
                fill="#f2f5e9" fill-opacity="0.5" stroke="#606060" stroke-width="1.0"/>
           <path id="arrow"
             d="M 11.500037,31.436501 C 11.940474,20.09759 22.043105,11.32322 32.158766,21.979434 L 37.068811,17.246167 C 37.068811,17.246167 37.088388,32 37.088388,32 L 22.160133,31.978069 C 22.160133,31.978069 26.997745,27.140456 26.997745,27.140456 C 18.528582,18.264221 13.291696,25.230495 11.500037,31.436501 z"
             style="fill:#404040;"/>
          </a>
         </g>
        </svg>
</svg>
