<?xml version="1.0" encoding="UTF-8" standalone="no"?>
<!DOCTYPE svg PUBLIC "-//W3C//DTD SVG 1.1//EN"
 "http://www.w3.org/Graphics/SVG/1.1/DTD/svg11.dtd">
<!-- Generated by graphviz version 2.43.0 (0)
 -->
<!-- Title: ParticleParamTypes::VectorParameter&lt; T, N &gt; Pages: 1 -->
<svg width="224pt" height="252pt"
 viewBox="0.00 0.00 223.50 252.00" xmlns="http://www.w3.org/2000/svg" xmlns:xlink="http://www.w3.org/1999/xlink">
<g id="graph0" class="graph" transform="scale(1 1) rotate(0) translate(4 248)">
<title>ParticleParamTypes::VectorParameter&lt; T, N &gt;</title>
<polygon fill="white" stroke="transparent" points="-4,4 -4,-248 219.5,-248 219.5,4 -4,4"/>
<!-- Node1 -->
<g id="node1" class="node">
<title>Node1</title>
<g id="a_node1"><a xlink:title=" ">
<polygon fill="#bfbfbf" stroke="black" points="0,-0.5 0,-30.5 146,-30.5 146,-0.5 0,-0.5"/>
<text text-anchor="start" x="8" y="-18.5" font-family="Helvetica,sans-Serif" font-size="10.00">ParticleParamTypes</text>
<text text-anchor="middle" x="73" y="-7.5" font-family="Helvetica,sans-Serif" font-size="10.00">::VectorParameter&lt; T, N &gt;</text>
</a>
</g>
</g>
<!-- Node2 -->
<g id="node2" class="node">
<title>Node2</title>
<g id="a_node2"><a xlink:href="structParticleParamTypes_1_1Parameter.html" target="_top" xlink:title=" ">
<polygon fill="white" stroke="black" points="15.5,-68.5 15.5,-98.5 130.5,-98.5 130.5,-68.5 15.5,-68.5"/>
<text text-anchor="start" x="23.5" y="-86.5" font-family="Helvetica,sans-Serif" font-size="10.00">ParticleParamTypes</text>
<text text-anchor="middle" x="73" y="-75.5" font-family="Helvetica,sans-Serif" font-size="10.00">::Parameter&lt; T, N &gt;</text>
</a>
</g>
</g>
<!-- Node2&#45;&gt;Node1 -->
<g id="edge1" class="edge">
<title>Node2&#45;&gt;Node1</title>
<path fill="none" stroke="midnightblue" d="M73,-58.03C73,-48.86 73,-38.74 73,-30.79"/>
<polygon fill="midnightblue" stroke="midnightblue" points="69.5,-58.18 73,-68.18 76.5,-58.18 69.5,-58.18"/>
</g>
<!-- Node3 -->
<g id="node3" class="node">
<title>Node3</title>
<g id="a_node3"><a xlink:title=" ">
<polygon fill="white" stroke="#bfbfbf" points="58.5,-224.5 58.5,-243.5 87.5,-243.5 87.5,-224.5 58.5,-224.5"/>
<text text-anchor="middle" x="73" y="-231.5" font-family="Helvetica,sans-Serif" font-size="10.00">T</text>
</a>
</g>
</g>
<!-- Node3&#45;&gt;Node2 -->
<g id="edge2" class="edge">
<title>Node3&#45;&gt;Node2</title>
<path fill="none" stroke="#9a32cd" stroke-dasharray="5,2" d="M70.49,-214.29C69.16,-203.42 67.67,-189.46 67,-177 65.51,-149.2 68.78,-116.73 71.05,-98.6"/>
<polygon fill="#9a32cd" stroke="#9a32cd" points="67.03,-214.82 71.78,-224.29 73.97,-213.93 67.03,-214.82"/>
<text text-anchor="middle" x="76.5" y="-159" font-family="Helvetica,sans-Serif" font-size="10.00"> val</text>
</g>
<!-- Node4 -->
<g id="node4" class="node">
<title>Node4</title>
<g id="a_node4"><a xlink:href="structParticleParamTypes_1_1Parameter.html" target="_top" xlink:title=" ">
<polygon fill="white" stroke="black" points="94.5,-146.5 94.5,-176.5 215.5,-176.5 215.5,-146.5 94.5,-146.5"/>
<text text-anchor="start" x="102.5" y="-164.5" font-family="Helvetica,sans-Serif" font-size="10.00">ParticleParamTypes</text>
<text text-anchor="middle" x="155" y="-153.5" font-family="Helvetica,sans-Serif" font-size="10.00">::Parameter&lt; T, PN &gt;</text>
</a>
</g>
</g>
<!-- Node3&#45;&gt;Node4 -->
<g id="edge4" class="edge">
<title>Node3&#45;&gt;Node4</title>
<path fill="none" stroke="#9a32cd" stroke-dasharray="5,2" d="M90.7,-217.78C104.93,-205.55 124.76,-188.5 138.63,-176.58"/>
<polygon fill="#9a32cd" stroke="#9a32cd" points="88.36,-215.18 83.05,-224.36 92.92,-220.49 88.36,-215.18"/>
<text text-anchor="middle" x="125.5" y="-198" font-family="Helvetica,sans-Serif" font-size="10.00"> val</text>
</g>
<!-- Node4&#45;&gt;Node2 -->
<g id="edge3" class="edge">
<title>Node4&#45;&gt;Node2</title>
<path fill="none" stroke="orange" stroke-dasharray="5,2" d="M132.23,-139.39C118.24,-126.43 100.7,-110.18 88.35,-98.73"/>
<polygon fill="orange" stroke="orange" points="129.86,-141.97 139.58,-146.2 134.62,-136.84 129.86,-141.97"/>
<text text-anchor="middle" x="141" y="-120" font-family="Helvetica,sans-Serif" font-size="10.00"> &lt; T, N &gt;</text>
</g>
</g>
</svg>
