<?xml version="1.0" encoding="UTF-8" standalone="no"?>
<!DOCTYPE svg PUBLIC "-//W3C//DTD SVG 1.1//EN"
 "http://www.w3.org/Graphics/SVG/1.1/DTD/svg11.dtd">
<!-- Generated by graphviz version 2.43.0 (0)
 -->
<!-- Title: CloudParams Pages: 1 -->
<svg width="277pt" height="117pt"
 viewBox="0.00 0.00 277.00 117.00" xmlns="http://www.w3.org/2000/svg" xmlns:xlink="http://www.w3.org/1999/xlink">
<g id="graph0" class="graph" transform="scale(1 1) rotate(0) translate(4 113)">
<title>CloudParams</title>
<polygon fill="white" stroke="transparent" points="-4,4 -4,-113 273,-113 273,4 -4,4"/>
<!-- Node1 -->
<g id="node1" class="node">
<title>Node1</title>
<g id="a_node1"><a xlink:title=" ">
<polygon fill="#bfbfbf" stroke="black" points="95,-0.5 95,-19.5 175,-19.5 175,-0.5 95,-0.5"/>
<text text-anchor="middle" x="135" y="-7.5" font-family="Helvetica,sans-Serif" font-size="10.00">CloudParams</text>
</a>
</g>
</g>
<!-- Node2 -->
<g id="node2" class="node">
<title>Node2</title>
<g id="a_node2"><a xlink:title=" ">
<polygon fill="white" stroke="#bfbfbf" points="0,-89.5 0,-108.5 98,-108.5 98,-89.5 0,-89.5"/>
<text text-anchor="middle" x="49" y="-96.5" font-family="Helvetica,sans-Serif" font-size="10.00">vector2d&lt; f32 &gt;</text>
</a>
</g>
</g>
<!-- Node2&#45;&gt;Node1 -->
<g id="edge1" class="edge">
<title>Node2&#45;&gt;Node1</title>
<path fill="none" stroke="#9a32cd" stroke-dasharray="5,2" d="M61,-81.04C70.34,-68.45 84.01,-51.25 98,-38 105.16,-31.22 114.06,-24.67 121.34,-19.72"/>
<polygon fill="#9a32cd" stroke="#9a32cd" points="58.07,-79.12 55.03,-89.27 63.74,-83.23 58.07,-79.12"/>
<text text-anchor="middle" x="114.5" y="-52" font-family="Helvetica,sans-Serif" font-size="10.00"> speed</text>
</g>
<!-- Node3 -->
<g id="node3" class="node">
<title>Node3</title>
<g id="a_node3"><a xlink:title=" ">
<polygon fill="white" stroke="#bfbfbf" points="116,-89.5 116,-108.5 154,-108.5 154,-89.5 116,-89.5"/>
<text text-anchor="middle" x="135" y="-96.5" font-family="Helvetica,sans-Serif" font-size="10.00">float</text>
</a>
</g>
</g>
<!-- Node3&#45;&gt;Node1 -->
<g id="edge2" class="edge">
<title>Node3&#45;&gt;Node1</title>
<path fill="none" stroke="#9a32cd" stroke-dasharray="5,2" d="M135,-79.19C135,-60.74 135,-33.41 135,-19.62"/>
<polygon fill="#9a32cd" stroke="#9a32cd" points="131.5,-79.34 135,-89.34 138.5,-79.34 131.5,-79.34"/>
<text text-anchor="middle" x="158.5" y="-63" font-family="Helvetica,sans-Serif" font-size="10.00"> density</text>
<text text-anchor="middle" x="158.5" y="-52" font-family="Helvetica,sans-Serif" font-size="10.00">height</text>
<text text-anchor="middle" x="158.5" y="-41" font-family="Helvetica,sans-Serif" font-size="10.00">thickness</text>
</g>
<!-- Node4 -->
<g id="node4" class="node">
<title>Node4</title>
<g id="a_node4"><a xlink:title=" ">
<polygon fill="white" stroke="#bfbfbf" points="181,-89.5 181,-108.5 229,-108.5 229,-89.5 181,-89.5"/>
<text text-anchor="middle" x="205" y="-96.5" font-family="Helvetica,sans-Serif" font-size="10.00">SColor</text>
</a>
</g>
</g>
<!-- Node4&#45;&gt;Node1 -->
<g id="edge3" class="edge">
<title>Node4&#45;&gt;Node1</title>
<path fill="none" stroke="#9a32cd" stroke-dasharray="5,2" d="M201.69,-79.28C198.64,-66.48 193.01,-49.76 183,-38 176.18,-29.99 166.36,-23.88 157.38,-19.51"/>
<polygon fill="#9a32cd" stroke="#9a32cd" points="198.31,-80.21 203.76,-89.3 205.16,-78.8 198.31,-80.21"/>
<text text-anchor="middle" x="234" y="-57.5" font-family="Helvetica,sans-Serif" font-size="10.00"> color_bright</text>
<text text-anchor="middle" x="234" y="-46.5" font-family="Helvetica,sans-Serif" font-size="10.00">color_ambient</text>
</g>
</g>
</svg>
