<?xml version="1.0" encoding="UTF-8" standalone="no"?>
<!DOCTYPE svg PUBLIC "-//W3C//DTD SVG 1.1//EN"
 "http://www.w3.org/Graphics/SVG/1.1/DTD/svg11.dtd">
<!-- Generated by graphviz version 2.43.0 (0)
 -->
<!-- Title: MapgenV7Params Pages: 1 -->
<svg width="1073pt" height="506pt"
 viewBox="0.00 0.00 1073.00 506.00" xmlns="http://www.w3.org/2000/svg" xmlns:xlink="http://www.w3.org/1999/xlink">
<g id="graph0" class="graph" transform="scale(1 1) rotate(0) translate(4 502)">
<title>MapgenV7Params</title>
<polygon fill="white" stroke="transparent" points="-4,4 -4,-502 1069,-502 1069,4 -4,4"/>
<!-- Node1 -->
<g id="node1" class="node">
<title>Node1</title>
<g id="a_node1"><a xlink:title=" ">
<polygon fill="#bfbfbf" stroke="black" points="602,-0.5 602,-19.5 706,-19.5 706,-0.5 602,-0.5"/>
<text text-anchor="middle" x="654" y="-7.5" font-family="Helvetica,sans-Serif" font-size="10.00">MapgenV7Params</text>
</a>
</g>
</g>
<!-- Node2 -->
<g id="node2" class="node">
<title>Node2</title>
<g id="a_node2"><a xlink:href="structMapgenParams.html" target="_top" xlink:title=" ">
<polygon fill="white" stroke="black" points="356,-228 356,-247 448,-247 448,-228 356,-228"/>
<text text-anchor="middle" x="402" y="-235" font-family="Helvetica,sans-Serif" font-size="10.00">MapgenParams</text>
</a>
</g>
</g>
<!-- Node2&#45;&gt;Node1 -->
<g id="edge1" class="edge">
<title>Node2&#45;&gt;Node1</title>
<path fill="none" stroke="midnightblue" d="M419.1,-221.2C467.88,-177.54 606.67,-53.35 644.42,-19.57"/>
<polygon fill="midnightblue" stroke="midnightblue" points="416.69,-218.66 411.57,-227.94 421.36,-223.88 416.69,-218.66"/>
</g>
<!-- Node3 -->
<g id="node3" class="node">
<title>Node3</title>
<g id="a_node3"><a xlink:title=" ">
<polygon fill="white" stroke="#bfbfbf" points="181,-389.5 181,-408.5 215,-408.5 215,-389.5 181,-389.5"/>
<text text-anchor="middle" x="198" y="-396.5" font-family="Helvetica,sans-Serif" font-size="10.00">s16</text>
</a>
</g>
</g>
<!-- Node3&#45;&gt;Node1 -->
<g id="edge9" class="edge">
<title>Node3&#45;&gt;Node1</title>
<path fill="none" stroke="#9a32cd" stroke-dasharray="5,2" d="M196.8,-379.12C196.17,-362.34 196.34,-337.25 201,-316 215.34,-250.61 215.4,-227.8 259,-177 336.3,-86.94 375.67,-79.13 487,-38 524.05,-24.31 568.27,-17.55 601.89,-14.22"/>
<polygon fill="#9a32cd" stroke="#9a32cd" points="193.31,-379.44 197.31,-389.25 200.3,-379.09 193.31,-379.44"/>
<text text-anchor="middle" x="303" y="-290" font-family="Helvetica,sans-Serif" font-size="10.00"> dungeon_ymin</text>
<text text-anchor="middle" x="303" y="-279" font-family="Helvetica,sans-Serif" font-size="10.00">floatland_ymin</text>
<text text-anchor="middle" x="303" y="-268" font-family="Helvetica,sans-Serif" font-size="10.00">floatland_ywater</text>
<text text-anchor="middle" x="303" y="-257" font-family="Helvetica,sans-Serif" font-size="10.00">floatland_taper</text>
<text text-anchor="middle" x="303" y="-246" font-family="Helvetica,sans-Serif" font-size="10.00">cavern_limit</text>
<text text-anchor="middle" x="303" y="-235" font-family="Helvetica,sans-Serif" font-size="10.00">dungeon_ymax</text>
<text text-anchor="middle" x="303" y="-224" font-family="Helvetica,sans-Serif" font-size="10.00">cavern_taper</text>
<text text-anchor="middle" x="303" y="-213" font-family="Helvetica,sans-Serif" font-size="10.00">large_cave_depth</text>
<text text-anchor="middle" x="303" y="-202" font-family="Helvetica,sans-Serif" font-size="10.00">floatland_ymax</text>
<text text-anchor="middle" x="303" y="-191" font-family="Helvetica,sans-Serif" font-size="10.00">mount_zero_level</text>
<text text-anchor="middle" x="303" y="-180" font-family="Helvetica,sans-Serif" font-size="10.00">...</text>
</g>
<!-- Node3&#45;&gt;Node2 -->
<g id="edge2" class="edge">
<title>Node3&#45;&gt;Node2</title>
<path fill="none" stroke="#9a32cd" stroke-dasharray="5,2" d="M201.81,-379.14C206.38,-360.89 215.69,-333.49 233,-316 247,-301.86 255.86,-306.19 274,-298 313.3,-280.24 359.06,-258.78 383.83,-247.1"/>
<polygon fill="#9a32cd" stroke="#9a32cd" points="198.34,-378.62 199.55,-389.15 205.17,-380.16 198.34,-378.62"/>
<text text-anchor="middle" x="283" y="-363" font-family="Helvetica,sans-Serif" font-size="10.00"> mapgen_edge_max</text>
<text text-anchor="middle" x="283" y="-352" font-family="Helvetica,sans-Serif" font-size="10.00">mapgen_limit</text>
<text text-anchor="middle" x="283" y="-341" font-family="Helvetica,sans-Serif" font-size="10.00">mapgen_edge_min</text>
<text text-anchor="middle" x="283" y="-330" font-family="Helvetica,sans-Serif" font-size="10.00">water_level</text>
<text text-anchor="middle" x="283" y="-319" font-family="Helvetica,sans-Serif" font-size="10.00">chunksize</text>
</g>
<!-- Node4 -->
<g id="node4" class="node">
<title>Node4</title>
<g id="a_node4"><a xlink:href="classbool.html" target="_top" xlink:title=" ">
<polygon fill="white" stroke="black" points="0,-389.5 0,-408.5 38,-408.5 38,-389.5 0,-389.5"/>
<text text-anchor="middle" x="19" y="-396.5" font-family="Helvetica,sans-Serif" font-size="10.00">bool</text>
</a>
</g>
</g>
<!-- Node4&#45;&gt;Node2 -->
<g id="edge3" class="edge">
<title>Node4&#45;&gt;Node2</title>
<path fill="none" stroke="#9a32cd" stroke-dasharray="5,2" d="M21.16,-379.26C24.46,-359.99 32.69,-330.79 53,-316 92.83,-286.99 226.36,-310.58 274,-298 317.83,-286.42 365.16,-260.51 388.04,-247.02"/>
<polygon fill="#9a32cd" stroke="#9a32cd" points="17.68,-378.87 19.73,-389.27 24.61,-379.86 17.68,-378.87"/>
<text text-anchor="middle" x="127" y="-341" font-family="Helvetica,sans-Serif" font-size="10.00"> m_mapgen_edges_calculated</text>
</g>
<!-- Node5 -->
<g id="node5" class="node">
<title>Node5</title>
<g id="a_node5"><a xlink:title=" ">
<polygon fill="white" stroke="#bfbfbf" points="289,-389.5 289,-408.5 367,-408.5 367,-389.5 289,-389.5"/>
<text text-anchor="middle" x="328" y="-396.5" font-family="Helvetica,sans-Serif" font-size="10.00">MapgenType</text>
</a>
</g>
</g>
<!-- Node5&#45;&gt;Node2 -->
<g id="edge4" class="edge">
<title>Node5&#45;&gt;Node2</title>
<path fill="none" stroke="#9a32cd" stroke-dasharray="5,2" d="M333.8,-379.48C339.3,-362.63 348.18,-337.22 358,-316 369.96,-290.17 387.46,-261.43 396.35,-247.31"/>
<polygon fill="#9a32cd" stroke="#9a32cd" points="330.41,-378.6 330.69,-389.19 337.07,-380.73 330.41,-378.6"/>
<text text-anchor="middle" x="378.5" y="-341" font-family="Helvetica,sans-Serif" font-size="10.00"> mgtype</text>
</g>
<!-- Node6 -->
<g id="node6" class="node">
<title>Node6</title>
<g id="a_node6"><a xlink:title=" ">
<polygon fill="white" stroke="#bfbfbf" points="385.5,-389.5 385.5,-408.5 420.5,-408.5 420.5,-389.5 385.5,-389.5"/>
<text text-anchor="middle" x="403" y="-396.5" font-family="Helvetica,sans-Serif" font-size="10.00">u64</text>
</a>
</g>
</g>
<!-- Node6&#45;&gt;Node2 -->
<g id="edge5" class="edge">
<title>Node6&#45;&gt;Node2</title>
<path fill="none" stroke="#9a32cd" stroke-dasharray="5,2" d="M402.88,-379.28C402.67,-344.7 402.21,-272.05 402.05,-247.12"/>
<polygon fill="#9a32cd" stroke="#9a32cd" points="399.38,-379.45 402.95,-389.42 406.38,-379.4 399.38,-379.45"/>
<text text-anchor="middle" x="416.5" y="-341" font-family="Helvetica,sans-Serif" font-size="10.00"> seed</text>
</g>
<!-- Node7 -->
<g id="node7" class="node">
<title>Node7</title>
<g id="a_node7"><a xlink:title=" ">
<polygon fill="white" stroke="#bfbfbf" points="547.5,-389.5 547.5,-408.5 582.5,-408.5 582.5,-389.5 547.5,-389.5"/>
<text text-anchor="middle" x="565" y="-396.5" font-family="Helvetica,sans-Serif" font-size="10.00">u32</text>
</a>
</g>
</g>
<!-- Node7&#45;&gt;Node2 -->
<g id="edge6" class="edge">
<title>Node7&#45;&gt;Node2</title>
<path fill="none" stroke="#9a32cd" stroke-dasharray="5,2" d="M541.52,-383.36C536.69,-379.7 531.9,-375.51 528,-371 509.93,-350.09 516.61,-337.3 499,-316 474.27,-286.1 436.36,-259.93 416.03,-247.03"/>
<polygon fill="#9a32cd" stroke="#9a32cd" points="539.85,-386.47 550.05,-389.35 543.87,-380.74 539.85,-386.47"/>
<text text-anchor="middle" x="545.5" y="-346.5" font-family="Helvetica,sans-Serif" font-size="10.00"> flags</text>
<text text-anchor="middle" x="545.5" y="-335.5" font-family="Helvetica,sans-Serif" font-size="10.00">spflags</text>
</g>
<!-- Node11 -->
<g id="node11" class="node">
<title>Node11</title>
<g id="a_node11"><a xlink:href="structNoiseParams.html" target="_top" xlink:title=" ">
<polygon fill="white" stroke="black" points="614,-228 614,-247 694,-247 694,-228 614,-228"/>
<text text-anchor="middle" x="654" y="-235" font-family="Helvetica,sans-Serif" font-size="10.00">NoiseParams</text>
</a>
</g>
</g>
<!-- Node7&#45;&gt;Node11 -->
<g id="edge17" class="edge">
<title>Node7&#45;&gt;Node11</title>
<path fill="none" stroke="#9a32cd" stroke-dasharray="5,2" d="M565.42,-378.9C566.49,-361.62 569.85,-335.9 580,-316 595.21,-286.17 625.62,-259.97 642.33,-247.05"/>
<polygon fill="#9a32cd" stroke="#9a32cd" points="561.9,-379.21 564.99,-389.34 568.89,-379.5 561.9,-379.21"/>
<text text-anchor="middle" x="593.5" y="-341" font-family="Helvetica,sans-Serif" font-size="10.00"> flags</text>
</g>
<!-- Node8 -->
<g id="node8" class="node">
<title>Node8</title>
<g id="a_node8"><a xlink:href="structBiomeParams.html" target="_top" xlink:title=" ">
<polygon fill="white" stroke="black" points="441,-389.5 441,-408.5 525,-408.5 525,-389.5 441,-389.5"/>
<text text-anchor="middle" x="483" y="-396.5" font-family="Helvetica,sans-Serif" font-size="10.00">BiomeParams</text>
</a>
</g>
</g>
<!-- Node8&#45;&gt;Node2 -->
<g id="edge7" class="edge">
<title>Node8&#45;&gt;Node2</title>
<path fill="none" stroke="#9a32cd" stroke-dasharray="5,2" d="M463.28,-382.71C459.53,-379.16 455.88,-375.18 453,-371 445.52,-360.14 414.91,-274.85 405.06,-247.15"/>
<polygon fill="#9a32cd" stroke="#9a32cd" points="461.08,-385.43 470.93,-389.34 465.67,-380.14 461.08,-385.43"/>
<text text-anchor="middle" x="476" y="-341" font-family="Helvetica,sans-Serif" font-size="10.00"> bparams</text>
</g>
<!-- Node9 -->
<g id="node9" class="node">
<title>Node9</title>
<g id="a_node9"><a xlink:title=" ">
<polygon fill="white" stroke="#bfbfbf" points="561,-478.5 561,-497.5 595,-497.5 595,-478.5 561,-478.5"/>
<text text-anchor="middle" x="578" y="-485.5" font-family="Helvetica,sans-Serif" font-size="10.00">s32</text>
</a>
</g>
</g>
<!-- Node9&#45;&gt;Node8 -->
<g id="edge8" class="edge">
<title>Node9&#45;&gt;Node8</title>
<path fill="none" stroke="#9a32cd" stroke-dasharray="5,2" d="M561.06,-471.48C541.03,-453.14 508.4,-423.26 492.42,-408.62"/>
<polygon fill="#9a32cd" stroke="#9a32cd" points="558.81,-474.17 568.54,-478.34 563.53,-469.01 558.81,-474.17"/>
<text text-anchor="middle" x="561.5" y="-441" font-family="Helvetica,sans-Serif" font-size="10.00"> seed</text>
</g>
<!-- Node9&#45;&gt;Node11 -->
<g id="edge16" class="edge">
<title>Node9&#45;&gt;Node11</title>
<path fill="none" stroke="#9a32cd" stroke-dasharray="5,2" d="M583.59,-468.73C598.8,-418.99 640.54,-282.5 651.39,-247.02"/>
<polygon fill="#9a32cd" stroke="#9a32cd" points="580.19,-467.86 580.62,-478.45 586.89,-469.91 580.19,-467.86"/>
<text text-anchor="middle" x="621.5" y="-396.5" font-family="Helvetica,sans-Serif" font-size="10.00"> seed</text>
</g>
<!-- Node10 -->
<g id="node10" class="node">
<title>Node10</title>
<g id="a_node10"><a xlink:title=" ">
<polygon fill="white" stroke="#bfbfbf" points="916.5,-389.5 916.5,-408.5 951.5,-408.5 951.5,-389.5 916.5,-389.5"/>
<text text-anchor="middle" x="934" y="-396.5" font-family="Helvetica,sans-Serif" font-size="10.00">u16</text>
</a>
</g>
</g>
<!-- Node10&#45;&gt;Node1 -->
<g id="edge10" class="edge">
<title>Node10&#45;&gt;Node1</title>
<path fill="none" stroke="#9a32cd" stroke-dasharray="5,2" d="M939.25,-379.29C949.25,-339.96 967.55,-246.59 938,-177 903.23,-95.12 872.94,-79.01 794,-38 766.98,-23.96 733.61,-17.18 706.22,-13.93"/>
<polygon fill="#9a32cd" stroke="#9a32cd" points="935.83,-378.52 936.64,-389.09 942.59,-380.33 935.83,-378.52"/>
<text text-anchor="middle" x="1009.5" y="-251.5" font-family="Helvetica,sans-Serif" font-size="10.00"> large_cave_num_max</text>
<text text-anchor="middle" x="1009.5" y="-240.5" font-family="Helvetica,sans-Serif" font-size="10.00">small_cave_num_min</text>
<text text-anchor="middle" x="1009.5" y="-229.5" font-family="Helvetica,sans-Serif" font-size="10.00">small_cave_num_max</text>
<text text-anchor="middle" x="1009.5" y="-218.5" font-family="Helvetica,sans-Serif" font-size="10.00">large_cave_num_min</text>
</g>
<!-- Node10&#45;&gt;Node11 -->
<g id="edge12" class="edge">
<title>Node10&#45;&gt;Node11</title>
<path fill="none" stroke="#9a32cd" stroke-dasharray="5,2" d="M910.07,-384.37C853.96,-352.41 715.19,-273.35 669.13,-247.12"/>
<polygon fill="#9a32cd" stroke="#9a32cd" points="908.52,-387.52 918.95,-389.42 911.99,-381.43 908.52,-387.52"/>
<text text-anchor="middle" x="901" y="-341" font-family="Helvetica,sans-Serif" font-size="10.00"> octaves</text>
</g>
<!-- Node11&#45;&gt;Node1 -->
<g id="edge11" class="edge">
<title>Node11&#45;&gt;Node1</title>
<path fill="none" stroke="#9a32cd" stroke-dasharray="5,2" d="M654,-217.81C654,-171.44 654,-52.52 654,-19.57"/>
<polygon fill="#9a32cd" stroke="#9a32cd" points="650.5,-217.94 654,-227.94 657.5,-217.94 650.5,-217.94"/>
<text text-anchor="middle" x="698" y="-151" font-family="Helvetica,sans-Serif" font-size="10.00"> np_cave1</text>
<text text-anchor="middle" x="698" y="-140" font-family="Helvetica,sans-Serif" font-size="10.00">np_cave2</text>
<text text-anchor="middle" x="698" y="-129" font-family="Helvetica,sans-Serif" font-size="10.00">np_cavern</text>
<text text-anchor="middle" x="698" y="-118" font-family="Helvetica,sans-Serif" font-size="10.00">np_mountain</text>
<text text-anchor="middle" x="698" y="-107" font-family="Helvetica,sans-Serif" font-size="10.00">np_floatland</text>
<text text-anchor="middle" x="698" y="-96" font-family="Helvetica,sans-Serif" font-size="10.00">np_ridge</text>
<text text-anchor="middle" x="698" y="-85" font-family="Helvetica,sans-Serif" font-size="10.00">np_filler_depth</text>
<text text-anchor="middle" x="698" y="-74" font-family="Helvetica,sans-Serif" font-size="10.00">np_mount_height</text>
<text text-anchor="middle" x="698" y="-63" font-family="Helvetica,sans-Serif" font-size="10.00">np_terrain_base</text>
<text text-anchor="middle" x="698" y="-52" font-family="Helvetica,sans-Serif" font-size="10.00">np_terrain_persist</text>
<text text-anchor="middle" x="698" y="-41" font-family="Helvetica,sans-Serif" font-size="10.00">...</text>
</g>
<!-- Node12 -->
<g id="node12" class="node">
<title>Node12</title>
<g id="a_node12"><a xlink:title=" ">
<polygon fill="white" stroke="#bfbfbf" points="820,-389.5 820,-408.5 858,-408.5 858,-389.5 820,-389.5"/>
<text text-anchor="middle" x="839" y="-396.5" font-family="Helvetica,sans-Serif" font-size="10.00">float</text>
</a>
</g>
</g>
<!-- Node12&#45;&gt;Node1 -->
<g id="edge18" class="edge">
<title>Node12&#45;&gt;Node1</title>
<path fill="none" stroke="#9a32cd" stroke-dasharray="5,2" d="M840.25,-379.39C843.12,-320.29 843.58,-135.12 746,-38 735.26,-27.31 720.54,-20.81 706.01,-16.87"/>
<polygon fill="#9a32cd" stroke="#9a32cd" points="836.75,-379.28 839.67,-389.46 843.74,-379.68 836.75,-379.28"/>
<text text-anchor="middle" x="886.5" y="-257" font-family="Helvetica,sans-Serif" font-size="10.00"> floatland_density</text>
<text text-anchor="middle" x="886.5" y="-246" font-family="Helvetica,sans-Serif" font-size="10.00">cavern_threshold</text>
<text text-anchor="middle" x="886.5" y="-235" font-family="Helvetica,sans-Serif" font-size="10.00">large_cave_flooded</text>
<text text-anchor="middle" x="886.5" y="-224" font-family="Helvetica,sans-Serif" font-size="10.00">cave_width</text>
<text text-anchor="middle" x="886.5" y="-213" font-family="Helvetica,sans-Serif" font-size="10.00">float_taper_exp</text>
</g>
<!-- Node12&#45;&gt;Node11 -->
<g id="edge13" class="edge">
<title>Node12&#45;&gt;Node11</title>
<path fill="none" stroke="#9a32cd" stroke-dasharray="5,2" d="M809.76,-389.67C808.83,-389.44 807.91,-389.22 807,-389 766.47,-379.35 747.29,-397.33 715,-371 694.46,-354.26 702.95,-340.13 692,-316 680.48,-290.62 665.64,-261.21 658.39,-247.02"/>
<polygon fill="#9a32cd" stroke="#9a32cd" points="809.21,-393.15 819.78,-392.32 811,-386.38 809.21,-393.15"/>
<text text-anchor="middle" x="739.5" y="-357.5" font-family="Helvetica,sans-Serif" font-size="10.00"> persist</text>
<text text-anchor="middle" x="739.5" y="-346.5" font-family="Helvetica,sans-Serif" font-size="10.00">offset</text>
<text text-anchor="middle" x="739.5" y="-335.5" font-family="Helvetica,sans-Serif" font-size="10.00">scale</text>
<text text-anchor="middle" x="739.5" y="-324.5" font-family="Helvetica,sans-Serif" font-size="10.00">lacunarity</text>
</g>
<!-- Node13 -->
<g id="node13" class="node">
<title>Node13</title>
<g id="a_node13"><a xlink:href="classirr_1_1core_1_1vector3d.html" target="_top" xlink:title="3d vector template class with lots of operators and methods.">
<polygon fill="white" stroke="black" points="666.5,-389.5 666.5,-408.5 797.5,-408.5 797.5,-389.5 666.5,-389.5"/>
<text text-anchor="middle" x="732" y="-396.5" font-family="Helvetica,sans-Serif" font-size="10.00">irr::core::vector3d&lt; T &gt;</text>
</a>
</g>
</g>
<!-- Node13&#45;&gt;Node11 -->
<g id="edge14" class="edge">
<title>Node13&#45;&gt;Node11</title>
<path fill="none" stroke="#9a32cd" stroke-dasharray="5,2" d="M670.56,-384.82C664.5,-381.25 659.1,-376.73 655,-371 627.44,-332.45 643.59,-270.14 650.95,-247.28"/>
<polygon fill="#9a32cd" stroke="#9a32cd" points="669.31,-388.11 679.82,-389.4 672.41,-381.83 669.31,-388.11"/>
<text text-anchor="middle" x="673.5" y="-341" font-family="Helvetica,sans-Serif" font-size="10.00"> spread</text>
</g>
<!-- Node14 -->
<g id="node14" class="node">
<title>Node14</title>
<g id="a_node14"><a xlink:title=" ">
<polygon fill="white" stroke="#bfbfbf" points="717.5,-478.5 717.5,-497.5 746.5,-497.5 746.5,-478.5 717.5,-478.5"/>
<text text-anchor="middle" x="732" y="-485.5" font-family="Helvetica,sans-Serif" font-size="10.00">T</text>
</a>
</g>
</g>
<!-- Node14&#45;&gt;Node13 -->
<g id="edge15" class="edge">
<title>Node14&#45;&gt;Node13</title>
<path fill="none" stroke="#9a32cd" stroke-dasharray="5,2" d="M732,-468.19C732,-449.74 732,-422.41 732,-408.62"/>
<polygon fill="#9a32cd" stroke="#9a32cd" points="728.5,-468.34 732,-478.34 735.5,-468.34 728.5,-468.34"/>
<text text-anchor="middle" x="737" y="-452" font-family="Helvetica,sans-Serif" font-size="10.00"> X</text>
<text text-anchor="middle" x="737" y="-441" font-family="Helvetica,sans-Serif" font-size="10.00">Y</text>
<text text-anchor="middle" x="737" y="-430" font-family="Helvetica,sans-Serif" font-size="10.00">Z</text>
</g>
</g>
</svg>
