<?xml version="1.0" encoding="UTF-8" standalone="no"?>
<!DOCTYPE svg PUBLIC "-//W3C//DTD SVG 1.1//EN"
 "http://www.w3.org/Graphics/SVG/1.1/DTD/svg11.dtd">
<!-- Generated by graphviz version 2.43.0 (0)
 -->
<!-- Title: irr::SEvent::SGUIEvent Pages: 1 -->
<svg width="1143pt" height="661pt"
 viewBox="0.00 0.00 1143.00 660.70" xmlns="http://www.w3.org/2000/svg" xmlns:xlink="http://www.w3.org/1999/xlink">
<g id="graph0" class="graph" transform="scale(1 1) rotate(0) translate(4 656.7)">
<title>irr::SEvent::SGUIEvent</title>
<polygon fill="white" stroke="transparent" points="-4,4 -4,-656.7 1139,-656.7 1139,4 -4,4"/>
<!-- Node1 -->
<g id="node1" class="node">
<title>Node1</title>
<g id="a_node1"><a xlink:title="Any kind of GUI event.">
<polygon fill="#bfbfbf" stroke="black" points="1010,-330.2 1010,-349.2 1135,-349.2 1135,-330.2 1010,-330.2"/>
<text text-anchor="middle" x="1072.5" y="-337.2" font-family="Helvetica,sans-Serif" font-size="10.00">irr::SEvent::SGUIEvent</text>
</a>
</g>
</g>
<!-- Node2 -->
<g id="node2" class="node">
<title>Node2</title>
<g id="a_node2"><a xlink:href="classirr_1_1gui_1_1IGUIElement.html" target="_top" xlink:title="Base class of all GUI elements.">
<polygon fill="white" stroke="black" points="804,-351.2 804,-370.2 920,-370.2 920,-351.2 804,-351.2"/>
<text text-anchor="middle" x="862" y="-358.2" font-family="Helvetica,sans-Serif" font-size="10.00">irr::gui::IGUIElement</text>
</a>
</g>
</g>
<!-- Node2&#45;&gt;Node1 -->
<g id="edge1" class="edge">
<title>Node2&#45;&gt;Node1</title>
<path fill="none" stroke="#9a32cd" stroke-dasharray="5,2" d="M930.26,-353.92C955.88,-351.34 984.93,-348.41 1010,-345.89"/>
<polygon fill="#9a32cd" stroke="#9a32cd" points="929.85,-350.44 920.25,-354.93 930.55,-357.41 929.85,-350.44"/>
<text text-anchor="middle" x="965" y="-366.7" font-family="Helvetica,sans-Serif" font-size="10.00"> Element</text>
<text text-anchor="middle" x="965" y="-355.7" font-family="Helvetica,sans-Serif" font-size="10.00">Caller</text>
</g>
<!-- Node2&#45;&gt;Node2 -->
<g id="edge6" class="edge">
<title>Node2&#45;&gt;Node2</title>
<path fill="none" stroke="#9a32cd" stroke-dasharray="5,2" d="M843.11,-380.1C844.37,-385.01 850.67,-388.7 862,-388.7 880.13,-388.7 885.37,-379.26 877.72,-370.45"/>
<polygon fill="#9a32cd" stroke="#9a32cd" points="846.48,-381.05 846.28,-370.45 839.83,-378.86 846.48,-381.05"/>
<text text-anchor="middle" x="862" y="-391.7" font-family="Helvetica,sans-Serif" font-size="10.00"> Parent</text>
</g>
<!-- Node3 -->
<g id="node3" class="node">
<title>Node3</title>
<g id="a_node3"><a xlink:href="classirr_1_1IReferenceCounted.html" target="_top" xlink:title="Base class of most objects of the Irrlicht Engine.">
<polygon fill="white" stroke="black" points="236,-610.2 236,-629.2 362,-629.2 362,-610.2 236,-610.2"/>
<text text-anchor="middle" x="299" y="-617.2" font-family="Helvetica,sans-Serif" font-size="10.00">irr::IReferenceCounted</text>
</a>
</g>
</g>
<!-- Node3&#45;&gt;Node2 -->
<g id="edge2" class="edge">
<title>Node3&#45;&gt;Node2</title>
<path fill="none" stroke="midnightblue" d="M372.25,-616.63C499.72,-610.62 754.14,-595.63 786,-570.7 852.15,-518.91 860.05,-404.03 860.91,-370.23"/>
<polygon fill="midnightblue" stroke="midnightblue" points="372.01,-613.14 362.18,-617.1 372.34,-620.13 372.01,-613.14"/>
</g>
<!-- Node17 -->
<g id="node17" class="node">
<title>Node17</title>
<g id="a_node17"><a xlink:href="classirr_1_1gui_1_1IGUIEnvironment.html" target="_top" xlink:title="GUI Environment. Used as factory and manager of all other GUI elements.">
<polygon fill="white" stroke="black" points="511,-623.2 511,-642.2 648,-642.2 648,-623.2 511,-623.2"/>
<text text-anchor="middle" x="579.5" y="-630.2" font-family="Helvetica,sans-Serif" font-size="10.00">irr::gui::IGUIEnvironment</text>
</a>
</g>
</g>
<!-- Node3&#45;&gt;Node17 -->
<g id="edge18" class="edge">
<title>Node3&#45;&gt;Node17</title>
<path fill="none" stroke="midnightblue" d="M372.21,-623.07C414.94,-625.06 468.74,-627.57 510.69,-629.53"/>
<polygon fill="midnightblue" stroke="midnightblue" points="372.31,-619.57 362.15,-622.6 371.98,-626.56 372.31,-619.57"/>
</g>
<!-- Node4 -->
<g id="node4" class="node">
<title>Node4</title>
<g id="a_node4"><a xlink:title=" ">
<polygon fill="white" stroke="#bfbfbf" points="29,-614.2 29,-633.2 67,-633.2 67,-614.2 29,-614.2"/>
<text text-anchor="middle" x="48" y="-621.2" font-family="Helvetica,sans-Serif" font-size="10.00">char</text>
</a>
</g>
</g>
<!-- Node4&#45;&gt;Node3 -->
<g id="edge3" class="edge">
<title>Node4&#45;&gt;Node3</title>
<path fill="none" stroke="#9a32cd" stroke-dasharray="5,2" d="M77.75,-623.23C116.19,-622.62 185.34,-621.51 235.94,-620.69"/>
<polygon fill="#9a32cd" stroke="#9a32cd" points="77.25,-619.74 67.31,-623.4 77.36,-626.74 77.25,-619.74"/>
<text text-anchor="middle" x="159.5" y="-624.7" font-family="Helvetica,sans-Serif" font-size="10.00"> DebugName</text>
</g>
<!-- Node5 -->
<g id="node5" class="node">
<title>Node5</title>
<g id="a_node5"><a xlink:title=" ">
<polygon fill="white" stroke="#bfbfbf" points="23,-561.2 23,-580.2 73,-580.2 73,-561.2 23,-561.2"/>
<text text-anchor="middle" x="48" y="-568.2" font-family="Helvetica,sans-Serif" font-size="10.00">int32_t</text>
</a>
</g>
</g>
<!-- Node5&#45;&gt;Node2 -->
<g id="edge19" class="edge">
<title>Node5&#45;&gt;Node2</title>
<path fill="none" stroke="#9a32cd" stroke-dasharray="5,2" d="M83.72,-570.97C221.88,-571.77 727.84,-571.93 786,-531.7 842.79,-492.41 857,-400.12 860.17,-370.22"/>
<polygon fill="#9a32cd" stroke="#9a32cd" points="83.35,-567.47 73.33,-570.9 83.3,-574.47 83.35,-567.47"/>
<text text-anchor="middle" x="437" y="-581.7" font-family="Helvetica,sans-Serif" font-size="10.00"> TabOrder</text>
<text text-anchor="middle" x="437" y="-570.7" font-family="Helvetica,sans-Serif" font-size="10.00">ID</text>
</g>
<!-- Node5&#45;&gt;Node3 -->
<g id="edge4" class="edge">
<title>Node5&#45;&gt;Node3</title>
<path fill="none" stroke="#9a32cd" stroke-dasharray="5,2" d="M83.31,-577.45C126.34,-585.91 200.39,-600.49 249.28,-610.11"/>
<polygon fill="#9a32cd" stroke="#9a32cd" points="83.82,-573.98 73.33,-575.48 82.46,-580.85 83.82,-573.98"/>
<text text-anchor="middle" x="159.5" y="-603.7" font-family="Helvetica,sans-Serif" font-size="10.00"> ReferenceCounter</text>
</g>
<!-- Node6 -->
<g id="node6" class="node">
<title>Node6</title>
<g id="a_node6"><a xlink:href="classirr_1_1IEventReceiver.html" target="_top" xlink:title="Interface of an object which can receive events.">
<polygon fill="white" stroke="black" points="526,-509.2 526,-528.2 633,-528.2 633,-509.2 526,-509.2"/>
<text text-anchor="middle" x="579.5" y="-516.2" font-family="Helvetica,sans-Serif" font-size="10.00">irr::IEventReceiver</text>
</a>
</g>
</g>
<!-- Node6&#45;&gt;Node2 -->
<g id="edge5" class="edge">
<title>Node6&#45;&gt;Node2</title>
<path fill="none" stroke="midnightblue" d="M640.8,-529.34C684.59,-533.77 743.38,-532.57 786,-504.7 835.3,-472.44 854.09,-396.87 859.33,-370.21"/>
<polygon fill="midnightblue" stroke="midnightblue" points="641.19,-525.86 630.86,-528.21 640.4,-532.82 641.19,-525.86"/>
</g>
<!-- Node7 -->
<g id="node7" class="node">
<title>Node7</title>
<g id="a_node7"><a xlink:title=" ">
<polygon fill="white" stroke="#bfbfbf" points="527,-433.2 527,-452.2 632,-452.2 632,-433.2 527,-433.2"/>
<text text-anchor="middle" x="579.5" y="-440.2" font-family="Helvetica,sans-Serif" font-size="10.00">string&lt; wchar_t &gt;</text>
</a>
</g>
</g>
<!-- Node7&#45;&gt;Node2 -->
<g id="edge7" class="edge">
<title>Node7&#45;&gt;Node2</title>
<path fill="none" stroke="#9a32cd" stroke-dasharray="5,2" d="M642.22,-443.04C684.14,-441.34 740.1,-435.22 786,-416.7 812.52,-405.99 838.03,-383.54 851.37,-370.55"/>
<polygon fill="#9a32cd" stroke="#9a32cd" points="642.03,-439.55 632.15,-443.38 642.26,-446.54 642.03,-439.55"/>
<text text-anchor="middle" x="732" y="-453.7" font-family="Helvetica,sans-Serif" font-size="10.00"> ToolTipText</text>
<text text-anchor="middle" x="732" y="-442.7" font-family="Helvetica,sans-Serif" font-size="10.00">Text</text>
</g>
<!-- Node8 -->
<g id="node8" class="node">
<title>Node8</title>
<g id="a_node8"><a xlink:title=" ">
<polygon fill="white" stroke="#bfbfbf" points="277,-456.2 277,-475.2 321,-475.2 321,-456.2 277,-456.2"/>
<text text-anchor="middle" x="299" y="-463.2" font-family="Helvetica,sans-Serif" font-size="10.00">string</text>
</a>
</g>
</g>
<!-- Node8&#45;&gt;Node7 -->
<g id="edge8" class="edge">
<title>Node8&#45;&gt;Node7</title>
<path fill="none" stroke="orange" stroke-dasharray="5,2" d="M331.01,-462.07C349.08,-460.03 372.31,-457.53 393,-455.7 438.18,-451.68 489.64,-448.16 526.88,-445.8"/>
<polygon fill="orange" stroke="orange" points="330.57,-458.6 321.03,-463.21 331.36,-465.55 330.57,-458.6"/>
<text text-anchor="middle" x="437" y="-458.7" font-family="Helvetica,sans-Serif" font-size="10.00"> &lt; wchar_t &gt;</text>
</g>
<!-- Node18 -->
<g id="node18" class="node">
<title>Node18</title>
<g id="a_node18"><a xlink:title=" ">
<polygon fill="white" stroke="#bfbfbf" points="540.5,-471.2 540.5,-490.2 618.5,-490.2 618.5,-471.2 540.5,-471.2"/>
<text text-anchor="middle" x="579.5" y="-478.2" font-family="Helvetica,sans-Serif" font-size="10.00">string&lt; c8 &gt;</text>
</a>
</g>
</g>
<!-- Node8&#45;&gt;Node18 -->
<g id="edge21" class="edge">
<title>Node8&#45;&gt;Node18</title>
<path fill="none" stroke="orange" stroke-dasharray="5,2" d="M331.56,-467.4C382.95,-470.16 484.53,-475.63 540.05,-478.62"/>
<polygon fill="orange" stroke="orange" points="331.56,-463.89 321.39,-466.85 331.19,-470.88 331.56,-463.89"/>
<text text-anchor="middle" x="437" y="-477.7" font-family="Helvetica,sans-Serif" font-size="10.00"> &lt; c8 &gt;</text>
</g>
<!-- Node9 -->
<g id="node9" class="node">
<title>Node9</title>
<g id="a_node9"><a xlink:href="classirr_1_1core_1_1dimension2d.html" target="_top" xlink:title=" ">
<polygon fill="white" stroke="black" points="518,-383.7 518,-413.7 641,-413.7 641,-383.7 518,-383.7"/>
<text text-anchor="start" x="526" y="-401.7" font-family="Helvetica,sans-Serif" font-size="10.00">irr::core::dimension2d</text>
<text text-anchor="middle" x="579.5" y="-390.7" font-family="Helvetica,sans-Serif" font-size="10.00">&lt; u32 &gt;</text>
</a>
</g>
</g>
<!-- Node9&#45;&gt;Node2 -->
<g id="edge9" class="edge">
<title>Node9&#45;&gt;Node2</title>
<path fill="none" stroke="#9a32cd" stroke-dasharray="5,2" d="M651.13,-393.6C690.9,-390.2 741.4,-385 786,-377.7 798.12,-375.71 811.22,-372.96 823.02,-370.24"/>
<polygon fill="#9a32cd" stroke="#9a32cd" points="650.67,-390.13 641,-394.45 651.26,-397.1 650.67,-390.13"/>
<text text-anchor="middle" x="732" y="-404.7" font-family="Helvetica,sans-Serif" font-size="10.00"> MinSize</text>
<text text-anchor="middle" x="732" y="-393.7" font-family="Helvetica,sans-Serif" font-size="10.00">MaxSize</text>
</g>
<!-- Node10 -->
<g id="node10" class="node">
<title>Node10</title>
<g id="a_node10"><a xlink:title=" ">
<polygon fill="white" stroke="#bfbfbf" points="271,-358.2 271,-377.2 327,-377.2 327,-358.2 271,-358.2"/>
<text text-anchor="middle" x="299" y="-365.2" font-family="Helvetica,sans-Serif" font-size="10.00">uint32_t</text>
</a>
</g>
</g>
<!-- Node10&#45;&gt;Node9 -->
<g id="edge10" class="edge">
<title>Node10&#45;&gt;Node9</title>
<path fill="none" stroke="#9a32cd" stroke-dasharray="5,2" d="M337.36,-367.68C374.08,-368.11 431.63,-369.95 481,-376.7 493.55,-378.41 506.87,-380.94 519.5,-383.67"/>
<polygon fill="#9a32cd" stroke="#9a32cd" points="337.15,-364.18 327.12,-367.59 337.09,-371.18 337.15,-364.18"/>
<text text-anchor="middle" x="437" y="-390.7" font-family="Helvetica,sans-Serif" font-size="10.00"> Width</text>
<text text-anchor="middle" x="437" y="-379.7" font-family="Helvetica,sans-Serif" font-size="10.00">Height</text>
</g>
<!-- Node11 -->
<g id="node11" class="node">
<title>Node11</title>
<g id="a_node11"><a xlink:href="classirr_1_1core_1_1dimension2d.html" target="_top" xlink:title="Specifies a 2 dimensional size.">
<polygon fill="white" stroke="black" points="223,-403.2 223,-422.2 375,-422.2 375,-403.2 223,-403.2"/>
<text text-anchor="middle" x="299" y="-410.2" font-family="Helvetica,sans-Serif" font-size="10.00">irr::core::dimension2d&lt; T &gt;</text>
</a>
</g>
</g>
<!-- Node11&#45;&gt;Node9 -->
<g id="edge11" class="edge">
<title>Node11&#45;&gt;Node9</title>
<path fill="none" stroke="orange" stroke-dasharray="5,2" d="M385.48,-408.4C428.19,-406.25 478.89,-403.7 517.6,-401.76"/>
<polygon fill="orange" stroke="orange" points="385.18,-404.91 375.37,-408.91 385.53,-411.9 385.18,-404.91"/>
<text text-anchor="middle" x="437" y="-410.7" font-family="Helvetica,sans-Serif" font-size="10.00"> &lt; u32 &gt;</text>
</g>
<!-- Node12 -->
<g id="node12" class="node">
<title>Node12</title>
<g id="a_node12"><a xlink:title=" ">
<polygon fill="white" stroke="#bfbfbf" points="33.5,-403.2 33.5,-422.2 62.5,-422.2 62.5,-403.2 33.5,-403.2"/>
<text text-anchor="middle" x="48" y="-410.2" font-family="Helvetica,sans-Serif" font-size="10.00">T</text>
</a>
</g>
</g>
<!-- Node12&#45;&gt;Node11 -->
<g id="edge12" class="edge">
<title>Node12&#45;&gt;Node11</title>
<path fill="none" stroke="#9a32cd" stroke-dasharray="5,2" d="M73.17,-412.7C107.49,-412.7 171.86,-412.7 222.96,-412.7"/>
<polygon fill="#9a32cd" stroke="#9a32cd" points="72.74,-409.2 62.74,-412.7 72.74,-416.2 72.74,-409.2"/>
<text text-anchor="middle" x="159.5" y="-426.7" font-family="Helvetica,sans-Serif" font-size="10.00"> Width</text>
<text text-anchor="middle" x="159.5" y="-415.7" font-family="Helvetica,sans-Serif" font-size="10.00">Height</text>
</g>
<!-- Node13 -->
<g id="node13" class="node">
<title>Node13</title>
<g id="a_node13"><a xlink:href="classirr_1_1core_1_1rect.html" target="_top" xlink:title=" ">
<polygon fill="white" stroke="black" points="520,-312.2 520,-331.2 639,-331.2 639,-312.2 520,-312.2"/>
<text text-anchor="middle" x="579.5" y="-319.2" font-family="Helvetica,sans-Serif" font-size="10.00">irr::core::rect&lt; s32 &gt;</text>
</a>
</g>
</g>
<!-- Node13&#45;&gt;Node2 -->
<g id="edge13" class="edge">
<title>Node13&#45;&gt;Node2</title>
<path fill="none" stroke="#9a32cd" stroke-dasharray="5,2" d="M624.87,-309.99C668.27,-301 735.07,-293.88 786,-318.7 797.67,-324.38 793.39,-334.21 804,-341.7 809.46,-345.54 815.75,-348.65 822.11,-351.16"/>
<polygon fill="#9a32cd" stroke="#9a32cd" points="623.93,-306.61 614.91,-312.17 625.42,-313.45 623.93,-306.61"/>
<text text-anchor="middle" x="732" y="-365.7" font-family="Helvetica,sans-Serif" font-size="10.00"> AbsoluteClippingRect</text>
<text text-anchor="middle" x="732" y="-354.7" font-family="Helvetica,sans-Serif" font-size="10.00">LastParentRect</text>
<text text-anchor="middle" x="732" y="-343.7" font-family="Helvetica,sans-Serif" font-size="10.00">RelativeRect</text>
<text text-anchor="middle" x="732" y="-332.7" font-family="Helvetica,sans-Serif" font-size="10.00">DesiredRect</text>
<text text-anchor="middle" x="732" y="-321.7" font-family="Helvetica,sans-Serif" font-size="10.00">AbsoluteRect</text>
</g>
<!-- Node14 -->
<g id="node14" class="node">
<title>Node14</title>
<g id="a_node14"><a xlink:title=" ">
<polygon fill="white" stroke="#bfbfbf" points="245.5,-313.2 245.5,-332.2 352.5,-332.2 352.5,-313.2 245.5,-313.2"/>
<text text-anchor="middle" x="299" y="-320.2" font-family="Helvetica,sans-Serif" font-size="10.00">position2d&lt; s32 &gt;</text>
</a>
</g>
</g>
<!-- Node14&#45;&gt;Node13 -->
<g id="edge14" class="edge">
<title>Node14&#45;&gt;Node13</title>
<path fill="none" stroke="#9a32cd" stroke-dasharray="5,2" d="M362.78,-322.47C409.81,-322.3 473.71,-322.07 519.74,-321.91"/>
<polygon fill="#9a32cd" stroke="#9a32cd" points="362.7,-318.97 352.71,-322.51 362.72,-325.97 362.7,-318.97"/>
<text text-anchor="middle" x="437" y="-336.7" font-family="Helvetica,sans-Serif" font-size="10.00"> UpperLeftCorner</text>
<text text-anchor="middle" x="437" y="-325.7" font-family="Helvetica,sans-Serif" font-size="10.00">LowerRightCorner</text>
</g>
<!-- Node15 -->
<g id="node15" class="node">
<title>Node15</title>
<g id="a_node15"><a xlink:href="classirr_1_1core_1_1rect.html" target="_top" xlink:title="Rectangle template.">
<polygon fill="white" stroke="black" points="245.5,-260.2 245.5,-279.2 352.5,-279.2 352.5,-260.2 245.5,-260.2"/>
<text text-anchor="middle" x="299" y="-267.2" font-family="Helvetica,sans-Serif" font-size="10.00">irr::core::rect&lt; T &gt;</text>
</a>
</g>
</g>
<!-- Node15&#45;&gt;Node13 -->
<g id="edge15" class="edge">
<title>Node15&#45;&gt;Node13</title>
<path fill="none" stroke="orange" stroke-dasharray="5,2" d="M361.08,-281.1C410.86,-290.39 480.36,-303.37 527.27,-312.13"/>
<polygon fill="orange" stroke="orange" points="361.55,-277.63 351.08,-279.23 360.27,-284.51 361.55,-277.63"/>
<text text-anchor="middle" x="437" y="-306.7" font-family="Helvetica,sans-Serif" font-size="10.00"> &lt; s32 &gt;</text>
</g>
<!-- Node19 -->
<g id="node19" class="node">
<title>Node19</title>
<g id="a_node19"><a xlink:href="classirr_1_1core_1_1rect.html" target="_top" xlink:title=" ">
<polygon fill="white" stroke="black" points="521,-245.2 521,-264.2 638,-264.2 638,-245.2 521,-245.2"/>
<text text-anchor="middle" x="579.5" y="-252.2" font-family="Helvetica,sans-Serif" font-size="10.00">irr::core::rect&lt; f32 &gt;</text>
</a>
</g>
</g>
<!-- Node15&#45;&gt;Node19 -->
<g id="edge24" class="edge">
<title>Node15&#45;&gt;Node19</title>
<path fill="none" stroke="orange" stroke-dasharray="5,2" d="M362.89,-258.97C372.94,-257.62 383.23,-256.45 393,-255.7 435.7,-252.38 484.11,-252.24 520.76,-252.87"/>
<polygon fill="orange" stroke="orange" points="362.38,-255.51 352.96,-260.37 363.35,-262.44 362.38,-255.51"/>
<text text-anchor="middle" x="437" y="-258.7" font-family="Helvetica,sans-Serif" font-size="10.00"> &lt; f32 &gt;</text>
</g>
<!-- Node16 -->
<g id="node16" class="node">
<title>Node16</title>
<g id="a_node16"><a xlink:title=" ">
<polygon fill="white" stroke="#bfbfbf" points="0,-260.2 0,-279.2 96,-279.2 96,-260.2 0,-260.2"/>
<text text-anchor="middle" x="48" y="-267.2" font-family="Helvetica,sans-Serif" font-size="10.00">position2d&lt; T &gt;</text>
</a>
</g>
</g>
<!-- Node16&#45;&gt;Node15 -->
<g id="edge16" class="edge">
<title>Node16&#45;&gt;Node15</title>
<path fill="none" stroke="#9a32cd" stroke-dasharray="5,2" d="M106.19,-269.7C148.13,-269.7 204.66,-269.7 245.47,-269.7"/>
<polygon fill="#9a32cd" stroke="#9a32cd" points="106.13,-266.2 96.13,-269.7 106.13,-273.2 106.13,-266.2"/>
<text text-anchor="middle" x="159.5" y="-283.7" font-family="Helvetica,sans-Serif" font-size="10.00"> UpperLeftCorner</text>
<text text-anchor="middle" x="159.5" y="-272.7" font-family="Helvetica,sans-Serif" font-size="10.00">LowerRightCorner</text>
</g>
<!-- Node17&#45;&gt;Node2 -->
<g id="edge17" class="edge">
<title>Node17&#45;&gt;Node2</title>
<path fill="none" stroke="#9a32cd" stroke-dasharray="5,2" d="M654.74,-642.75C697.69,-644.39 750.17,-638.68 786,-608.7 861.9,-545.19 862.74,-407.68 861.47,-370.26"/>
<polygon fill="#9a32cd" stroke="#9a32cd" points="654.78,-639.25 644.61,-642.22 654.41,-646.24 654.78,-639.25"/>
<text text-anchor="middle" x="732" y="-644.7" font-family="Helvetica,sans-Serif" font-size="10.00"> Environment</text>
</g>
<!-- Node18&#45;&gt;Node2 -->
<g id="edge20" class="edge">
<title>Node18&#45;&gt;Node2</title>
<path fill="none" stroke="#9a32cd" stroke-dasharray="5,2" d="M628.98,-488.24C672.85,-492.62 737.78,-492.78 786,-465.7 825.06,-443.76 848.87,-392.01 857.41,-370.42"/>
<polygon fill="#9a32cd" stroke="#9a32cd" points="629.18,-484.75 618.86,-487.12 628.41,-491.7 629.18,-484.75"/>
<text text-anchor="middle" x="732" y="-492.7" font-family="Helvetica,sans-Serif" font-size="10.00"> Name</text>
</g>
<!-- Node19&#45;&gt;Node2 -->
<g id="edge22" class="edge">
<title>Node19&#45;&gt;Node2</title>
<path fill="none" stroke="#9a32cd" stroke-dasharray="5,2" d="M648.27,-263.53C706.06,-271.33 780.66,-282.15 786,-286.7 805.6,-303.35 785.86,-323.46 804,-341.7 807.82,-345.54 812.45,-348.61 817.39,-351.06"/>
<polygon fill="#9a32cd" stroke="#9a32cd" points="648.43,-260.02 638.06,-262.16 647.5,-266.96 648.43,-260.02"/>
<text text-anchor="middle" x="732" y="-289.7" font-family="Helvetica,sans-Serif" font-size="10.00"> ScaleRect</text>
</g>
<!-- Node20 -->
<g id="node20" class="node">
<title>Node20</title>
<g id="a_node20"><a xlink:title=" ">
<polygon fill="white" stroke="#bfbfbf" points="246,-200.2 246,-219.2 352,-219.2 352,-200.2 246,-200.2"/>
<text text-anchor="middle" x="299" y="-207.2" font-family="Helvetica,sans-Serif" font-size="10.00">position2d&lt; f32 &gt;</text>
</a>
</g>
</g>
<!-- Node20&#45;&gt;Node19 -->
<g id="edge23" class="edge">
<title>Node20&#45;&gt;Node19</title>
<path fill="none" stroke="#9a32cd" stroke-dasharray="5,2" d="M362.34,-212.68C397.43,-215.08 441.91,-219.31 481,-226.7 504.71,-231.17 530.96,-238.88 550.25,-245.07"/>
<polygon fill="#9a32cd" stroke="#9a32cd" points="362.45,-209.18 352.24,-212.03 361.99,-216.17 362.45,-209.18"/>
<text text-anchor="middle" x="437" y="-240.7" font-family="Helvetica,sans-Serif" font-size="10.00"> UpperLeftCorner</text>
<text text-anchor="middle" x="437" y="-229.7" font-family="Helvetica,sans-Serif" font-size="10.00">LowerRightCorner</text>
</g>
<!-- Node21 -->
<g id="node21" class="node">
<title>Node21</title>
<g id="a_node21"><a xlink:href="classbool.html" target="_top" xlink:title=" ">
<polygon fill="white" stroke="black" points="560.5,-193.2 560.5,-212.2 598.5,-212.2 598.5,-193.2 560.5,-193.2"/>
<text text-anchor="middle" x="579.5" y="-200.2" font-family="Helvetica,sans-Serif" font-size="10.00">bool</text>
</a>
</g>
</g>
<!-- Node21&#45;&gt;Node2 -->
<g id="edge25" class="edge">
<title>Node21&#45;&gt;Node2</title>
<path fill="none" stroke="#9a32cd" stroke-dasharray="5,2" d="M608.95,-197.63C659.14,-189.41 760.51,-176.21 786,-198.7 834.04,-241.07 763.37,-292.17 804,-341.7 807.18,-345.57 811.16,-348.65 815.55,-351.11"/>
<polygon fill="#9a32cd" stroke="#9a32cd" points="608.06,-194.23 598.78,-199.34 609.22,-201.13 608.06,-194.23"/>
<text text-anchor="middle" x="732" y="-256.7" font-family="Helvetica,sans-Serif" font-size="10.00"> IsTabStop</text>
<text text-anchor="middle" x="732" y="-245.7" font-family="Helvetica,sans-Serif" font-size="10.00">IsSubElement</text>
<text text-anchor="middle" x="732" y="-234.7" font-family="Helvetica,sans-Serif" font-size="10.00">IsTabGroup</text>
<text text-anchor="middle" x="732" y="-223.7" font-family="Helvetica,sans-Serif" font-size="10.00">IsEnabled</text>
<text text-anchor="middle" x="732" y="-212.7" font-family="Helvetica,sans-Serif" font-size="10.00">NoClip</text>
<text text-anchor="middle" x="732" y="-201.7" font-family="Helvetica,sans-Serif" font-size="10.00">IsVisible</text>
</g>
<!-- Node22 -->
<g id="node22" class="node">
<title>Node22</title>
<g id="a_node22"><a xlink:title=" ">
<polygon fill="white" stroke="#bfbfbf" points="499,-155.2 499,-174.2 660,-174.2 660,-155.2 499,-155.2"/>
<text text-anchor="middle" x="579.5" y="-162.2" font-family="Helvetica,sans-Serif" font-size="10.00">list&lt; irr::gui::IGUIElement * &gt;</text>
</a>
</g>
</g>
<!-- Node22&#45;&gt;Node2 -->
<g id="edge26" class="edge">
<title>Node22&#45;&gt;Node2</title>
<path fill="none" stroke="#9a32cd" stroke-dasharray="5,2" d="M670.04,-156.55C717.42,-154.36 769.2,-156.05 786,-171.7 813.8,-197.58 780.19,-312.09 804,-341.7 807.14,-345.6 811.1,-348.7 815.47,-351.18"/>
<polygon fill="#9a32cd" stroke="#9a32cd" points="669.82,-153.06 660.01,-157.07 670.18,-160.05 669.82,-153.06"/>
<text text-anchor="middle" x="732" y="-174.7" font-family="Helvetica,sans-Serif" font-size="10.00"> Children</text>
</g>
<!-- Node23 -->
<g id="node23" class="node">
<title>Node23</title>
<g id="a_node23"><a xlink:title=" ">
<polygon fill="white" stroke="#bfbfbf" points="553,-117.2 553,-136.2 606,-136.2 606,-117.2 553,-117.2"/>
<text text-anchor="middle" x="579.5" y="-124.2" font-family="Helvetica,sans-Serif" font-size="10.00">iterator</text>
</a>
</g>
</g>
<!-- Node23&#45;&gt;Node2 -->
<g id="edge27" class="edge">
<title>Node23&#45;&gt;Node2</title>
<path fill="none" stroke="#9a32cd" stroke-dasharray="5,2" d="M615.97,-117.03C661.92,-106.89 741.42,-97.86 786,-141.7 817.82,-172.98 776.31,-306.7 804,-341.7 807.04,-345.54 810.89,-348.61 815.14,-351.07"/>
<polygon fill="#9a32cd" stroke="#9a32cd" points="615.08,-113.64 606.14,-119.33 616.68,-120.46 615.08,-113.64"/>
<text text-anchor="middle" x="732" y="-144.7" font-family="Helvetica,sans-Serif" font-size="10.00"> ParentPos</text>
</g>
<!-- Node24 -->
<g id="node24" class="node">
<title>Node24</title>
<g id="a_node24"><a xlink:title=" ">
<polygon fill="white" stroke="#bfbfbf" points="519,-79.2 519,-98.2 640,-98.2 640,-79.2 519,-79.2"/>
<text text-anchor="middle" x="579.5" y="-86.2" font-family="Helvetica,sans-Serif" font-size="10.00">EGUI_ELEMENT_TYPE</text>
</a>
</g>
</g>
<!-- Node24&#45;&gt;Node2 -->
<g id="edge28" class="edge">
<title>Node24&#45;&gt;Node2</title>
<path fill="none" stroke="#9a32cd" stroke-dasharray="5,2" d="M650.26,-80.8C702.11,-76.64 767.02,-75.61 786,-93.7 826,-131.82 770.09,-298.07 804,-341.7 807.01,-345.57 810.83,-348.66 815.07,-351.12"/>
<polygon fill="#9a32cd" stroke="#9a32cd" points="649.75,-77.33 640.08,-81.67 650.35,-84.3 649.75,-77.33"/>
<text text-anchor="middle" x="732" y="-96.7" font-family="Helvetica,sans-Serif" font-size="10.00"> Type</text>
</g>
<!-- Node25 -->
<g id="node25" class="node">
<title>Node25</title>
<g id="a_node25"><a xlink:title=" ">
<polygon fill="white" stroke="#bfbfbf" points="527.5,-14.2 527.5,-33.2 631.5,-33.2 631.5,-14.2 527.5,-14.2"/>
<text text-anchor="middle" x="579.5" y="-21.2" font-family="Helvetica,sans-Serif" font-size="10.00">EGUI_ALIGNMENT</text>
</a>
</g>
</g>
<!-- Node25&#45;&gt;Node2 -->
<g id="edge29" class="edge">
<title>Node25&#45;&gt;Node2</title>
<path fill="none" stroke="#9a32cd" stroke-dasharray="5,2" d="M618.63,-11.48C664.93,0.69 742.22,12.06 786,-30.7 835.53,-79.06 761.92,-286.73 804,-341.7 806.98,-345.59 810.79,-348.69 815.02,-351.17"/>
<polygon fill="#9a32cd" stroke="#9a32cd" points="617.68,-8.12 608.97,-14.16 619.54,-14.86 617.68,-8.12"/>
<text text-anchor="middle" x="732" y="-66.7" font-family="Helvetica,sans-Serif" font-size="10.00"> AlignRight</text>
<text text-anchor="middle" x="732" y="-55.7" font-family="Helvetica,sans-Serif" font-size="10.00">AlignBottom</text>
<text text-anchor="middle" x="732" y="-44.7" font-family="Helvetica,sans-Serif" font-size="10.00">AlignLeft</text>
<text text-anchor="middle" x="732" y="-33.7" font-family="Helvetica,sans-Serif" font-size="10.00">AlignTop</text>
</g>
<!-- Node26 -->
<g id="node26" class="node">
<title>Node26</title>
<g id="a_node26"><a xlink:title=" ">
<polygon fill="white" stroke="#bfbfbf" points="808.5,-313.2 808.5,-332.2 915.5,-332.2 915.5,-313.2 808.5,-313.2"/>
<text text-anchor="middle" x="862" y="-320.2" font-family="Helvetica,sans-Serif" font-size="10.00">EGUI_EVENT_TYPE</text>
</a>
</g>
</g>
<!-- Node26&#45;&gt;Node1 -->
<g id="edge30" class="edge">
<title>Node26&#45;&gt;Node1</title>
<path fill="none" stroke="#9a32cd" stroke-dasharray="5,2" d="M925.66,-322.25C946.78,-322.61 970.45,-323.56 992,-325.7 1002.46,-326.73 1013.61,-328.36 1024.16,-330.15"/>
<polygon fill="#9a32cd" stroke="#9a32cd" points="925.56,-318.75 915.52,-322.12 925.47,-325.75 925.56,-318.75"/>
<text text-anchor="middle" x="965" y="-328.7" font-family="Helvetica,sans-Serif" font-size="10.00"> EventType</text>
</g>
</g>
</svg>
