<?xml version="1.0" encoding="UTF-8" standalone="no"?>
<!DOCTYPE svg PUBLIC "-//W3C//DTD SVG 1.1//EN"
 "http://www.w3.org/Graphics/SVG/1.1/DTD/svg11.dtd">
<!-- Generated by graphviz version 2.43.0 (0)
 -->
<!-- Title: MapgenFractalParams Pages: 1 -->
<!--zoomable 396 -->
<svg id="main" version="1.1" xmlns="http://www.w3.org/2000/svg" xmlns:xlink="http://www.w3.org/1999/xlink" xml:space="preserve" onload="init(evt)">
<style type="text/css"><![CDATA[
.edge:hover path { stroke: red; }
.edge:hover polygon { stroke: red; fill: red; }
]]></style>
<script type="text/javascript"><![CDATA[
var edges = document.getElementsByTagName('g');
if (edges && edges.length) {
  for (var i=0;i<edges.length;i++) {
    if (edges[i].id.substr(0,4)=='edge') {
      edges[i].setAttribute('class','edge');
    }
  }
}
]]></script>
        <defs>
                <circle id="rim" cx="0" cy="0" r="7"/>
                <circle id="rim2" cx="0" cy="0" r="3.5"/>
                <g id="zoomPlus">
                        <use xlink:href="#rim" fill="#404040">
                                <set attributeName="fill" to="#808080" begin="zoomplus.mouseover" end="zoomplus.mouseout"/>
                        </use>
                        <path d="M-4,0h8M0,-4v8" fill="none" stroke="white" stroke-width="1.5" pointer-events="none"/>
                </g>
                <g id="zoomMin">
                        <use xlink:href="#rim" fill="#404040">
                                <set attributeName="fill" to="#808080" begin="zoomminus.mouseover" end="zoomminus.mouseout"/>
                        </use>
                        <path d="M-4,0h8" fill="none" stroke="white" stroke-width="1.5" pointer-events="none"/>
                </g>
                <g id="dirArrow">
                        <path fill="none" stroke="white" stroke-width="1.5" d="M0,-3.0v7 M-2.5,-0.5L0,-3.0L2.5,-0.5"/>
                </g>
               <g id="resetDef">
                       <use xlink:href="#rim2" fill="#404040">
                               <set attributeName="fill" to="#808080" begin="reset.mouseover" end="reset.mouseout"/>
                       </use>
               </g>
        </defs>

<script type="text/javascript">
var viewWidth = 1007;
var viewHeight = 396;
var sectionId = 'dynsection-1';
</script>
<script xlink:href="svgpan.js"/>
<svg id="graph" class="graph">
<g id="viewport">
<title>MapgenFractalParams</title>
<polygon fill="white" stroke="transparent" points="-4,4 -4,-392 1003,-392 1003,4 -4,4"/>
<!-- Node1 -->
<g id="node1" class="node">
<title>Node1</title>
<g id="a_node1"><a xlink:title=" ">
<polygon fill="#bfbfbf" stroke="black" points="547.5,-0.5 547.5,-19.5 672.5,-19.5 672.5,-0.5 547.5,-0.5"/>
<text text-anchor="middle" x="610" y="-7.5" font-family="Helvetica,sans-Serif" font-size="10.00">MapgenFractalParams</text>
</a>
</g>
</g>
<!-- Node2 -->
<g id="node2" class="node">
<title>Node2</title>
<g id="a_node2"><a xlink:href="structMapgenParams.html" target="_top" xlink:title=" ">
<polygon fill="white" stroke="black" points="350,-140 350,-159 442,-159 442,-140 350,-140"/>
<text text-anchor="middle" x="396" y="-147" font-family="Helvetica,sans-Serif" font-size="10.00">MapgenParams</text>
</a>
</g>
</g>
<!-- Node2&#45;&gt;Node1 -->
<g id="edge1" class="edge">
<title>Node2&#45;&gt;Node1</title>
<path fill="none" stroke="midnightblue" d="M413.81,-133.2C440.98,-110.37 495,-67 546,-38 558.68,-30.79 573.68,-24.36 585.96,-19.59"/>
<polygon fill="midnightblue" stroke="midnightblue" points="411.34,-130.7 405.97,-139.84 415.86,-136.04 411.34,-130.7"/>
</g>
<!-- Node3 -->
<g id="node3" class="node">
<title>Node3</title>
<g id="a_node3"><a xlink:title=" ">
<polygon fill="white" stroke="#bfbfbf" points="0,-279.5 0,-298.5 34,-298.5 34,-279.5 0,-279.5"/>
<text text-anchor="middle" x="17" y="-286.5" font-family="Helvetica,sans-Serif" font-size="10.00">s16</text>
</a>
</g>
</g>
<!-- Node3&#45;&gt;Node1 -->
<g id="edge9" class="edge">
<title>Node3&#45;&gt;Node1</title>
<path fill="none" stroke="#9a32cd" stroke-dasharray="5,2" d="M11.54,-269.68C7.39,-251.84 4.32,-224.75 17,-206 135.45,-30.9 257.65,-92.14 462,-38 491.03,-30.31 523.85,-24.08 551.19,-19.55"/>
<polygon fill="#9a32cd" stroke="#9a32cd" points="8.18,-270.67 14.13,-279.43 14.94,-268.87 8.18,-270.67"/>
<text text-anchor="middle" x="153.5" y="-158" font-family="Helvetica,sans-Serif" font-size="10.00"> dungeon_ymin</text>
<text text-anchor="middle" x="153.5" y="-147" font-family="Helvetica,sans-Serif" font-size="10.00">dungeon_ymax</text>
<text text-anchor="middle" x="153.5" y="-136" font-family="Helvetica,sans-Serif" font-size="10.00">large_cave_depth</text>
</g>
<!-- Node3&#45;&gt;Node2 -->
<g id="edge2" class="edge">
<title>Node3&#45;&gt;Node2</title>
<path fill="none" stroke="#9a32cd" stroke-dasharray="5,2" d="M18.97,-269.32C22.01,-250.34 29.7,-221.56 49,-206 72.12,-187.35 260.88,-164.96 349.88,-155.31"/>
<polygon fill="#9a32cd" stroke="#9a32cd" points="15.47,-269.07 17.63,-279.44 22.41,-269.98 15.47,-269.07"/>
<text text-anchor="middle" x="99" y="-253" font-family="Helvetica,sans-Serif" font-size="10.00"> mapgen_edge_max</text>
<text text-anchor="middle" x="99" y="-242" font-family="Helvetica,sans-Serif" font-size="10.00">mapgen_limit</text>
<text text-anchor="middle" x="99" y="-231" font-family="Helvetica,sans-Serif" font-size="10.00">mapgen_edge_min</text>
<text text-anchor="middle" x="99" y="-220" font-family="Helvetica,sans-Serif" font-size="10.00">water_level</text>
<text text-anchor="middle" x="99" y="-209" font-family="Helvetica,sans-Serif" font-size="10.00">chunksize</text>
</g>
<!-- Node4 -->
<g id="node4" class="node">
<title>Node4</title>
<g id="a_node4"><a xlink:href="classbool.html" target="_top" xlink:title=" ">
<polygon fill="white" stroke="black" points="211,-279.5 211,-298.5 249,-298.5 249,-279.5 211,-279.5"/>
<text text-anchor="middle" x="230" y="-286.5" font-family="Helvetica,sans-Serif" font-size="10.00">bool</text>
</a>
</g>
</g>
<!-- Node4&#45;&gt;Node2 -->
<g id="edge3" class="edge">
<title>Node4&#45;&gt;Node2</title>
<path fill="none" stroke="#9a32cd" stroke-dasharray="5,2" d="M227.08,-269.27C225.34,-251.12 225.75,-223.8 240,-206 266.5,-172.9 314.25,-159.52 349.97,-154.12"/>
<polygon fill="#9a32cd" stroke="#9a32cd" points="223.61,-269.73 228.34,-279.22 230.56,-268.86 223.61,-269.73"/>
<text text-anchor="middle" x="314" y="-231" font-family="Helvetica,sans-Serif" font-size="10.00"> m_mapgen_edges_calculated</text>
</g>
<!-- Node5 -->
<g id="node5" class="node">
<title>Node5</title>
<g id="a_node5"><a xlink:title=" ">
<polygon fill="white" stroke="#bfbfbf" points="351,-279.5 351,-298.5 429,-298.5 429,-279.5 351,-279.5"/>
<text text-anchor="middle" x="390" y="-286.5" font-family="Helvetica,sans-Serif" font-size="10.00">MapgenType</text>
</a>
</g>
</g>
<!-- Node5&#45;&gt;Node2 -->
<g id="edge4" class="edge">
<title>Node5&#45;&gt;Node2</title>
<path fill="none" stroke="#9a32cd" stroke-dasharray="5,2" d="M390.81,-269.36C392.13,-239.23 394.67,-180.99 395.62,-159.1"/>
<polygon fill="#9a32cd" stroke="#9a32cd" points="387.31,-269.26 390.38,-279.4 394.31,-269.56 387.31,-269.26"/>
<text text-anchor="middle" x="414.5" y="-231" font-family="Helvetica,sans-Serif" font-size="10.00"> mgtype</text>
</g>
<!-- Node6 -->
<g id="node6" class="node">
<title>Node6</title>
<g id="a_node6"><a xlink:title=" ">
<polygon fill="white" stroke="#bfbfbf" points="447.5,-279.5 447.5,-298.5 482.5,-298.5 482.5,-279.5 447.5,-279.5"/>
<text text-anchor="middle" x="465" y="-286.5" font-family="Helvetica,sans-Serif" font-size="10.00">u64</text>
</a>
</g>
</g>
<!-- Node6&#45;&gt;Node2 -->
<g id="edge5" class="edge">
<title>Node6&#45;&gt;Node2</title>
<path fill="none" stroke="#9a32cd" stroke-dasharray="5,2" d="M460.82,-269.67C456.5,-252.58 448.85,-226.69 438,-206 428.57,-188.02 413.43,-169.74 404.13,-159.29"/>
<polygon fill="#9a32cd" stroke="#9a32cd" points="457.44,-270.58 463.18,-279.49 464.24,-268.95 457.44,-270.58"/>
<text text-anchor="middle" x="472.5" y="-231" font-family="Helvetica,sans-Serif" font-size="10.00"> seed</text>
</g>
<!-- Node7 -->
<g id="node7" class="node">
<title>Node7</title>
<g id="a_node7"><a xlink:title=" ">
<polygon fill="white" stroke="#bfbfbf" points="515.5,-279.5 515.5,-298.5 550.5,-298.5 550.5,-279.5 515.5,-279.5"/>
<text text-anchor="middle" x="533" y="-286.5" font-family="Helvetica,sans-Serif" font-size="10.00">u32</text>
</a>
</g>
</g>
<!-- Node7&#45;&gt;Node2 -->
<g id="edge6" class="edge">
<title>Node7&#45;&gt;Node2</title>
<path fill="none" stroke="#9a32cd" stroke-dasharray="5,2" d="M518.48,-271.7C515.81,-268.29 513.18,-264.63 511,-261 497.38,-238.27 505.31,-226.06 488,-206 468.87,-183.83 438.6,-167.98 418.05,-159.03"/>
<polygon fill="#9a32cd" stroke="#9a32cd" points="515.88,-274.05 524.98,-279.48 521.25,-269.56 515.88,-274.05"/>
<text text-anchor="middle" x="528.5" y="-236.5" font-family="Helvetica,sans-Serif" font-size="10.00"> flags</text>
<text text-anchor="middle" x="528.5" y="-225.5" font-family="Helvetica,sans-Serif" font-size="10.00">spflags</text>
</g>
<!-- Node11 -->
<g id="node11" class="node">
<title>Node11</title>
<g id="a_node11"><a xlink:href="structNoiseParams.html" target="_top" xlink:title=" ">
<polygon fill="white" stroke="black" points="689,-140 689,-159 769,-159 769,-140 689,-140"/>
<text text-anchor="middle" x="729" y="-147" font-family="Helvetica,sans-Serif" font-size="10.00">NoiseParams</text>
</a>
</g>
</g>
<!-- Node7&#45;&gt;Node11 -->
<g id="edge17" class="edge">
<title>Node7&#45;&gt;Node11</title>
<path fill="none" stroke="#9a32cd" stroke-dasharray="5,2" d="M543.94,-270.82C557.94,-249.36 581.93,-214.42 595,-206 625.64,-186.26 641.64,-202.67 675,-188 691.72,-180.65 708.63,-167.84 718.97,-159.26"/>
<polygon fill="#9a32cd" stroke="#9a32cd" points="540.93,-269.03 538.45,-279.33 546.81,-272.83 540.93,-269.03"/>
<text text-anchor="middle" x="608.5" y="-231" font-family="Helvetica,sans-Serif" font-size="10.00"> flags</text>
</g>
<!-- Node8 -->
<g id="node8" class="node">
<title>Node8</title>
<g id="a_node8"><a xlink:href="structBiomeParams.html" target="_top" xlink:title=" ">
<polygon fill="white" stroke="black" points="109,-279.5 109,-298.5 193,-298.5 193,-279.5 109,-279.5"/>
<text text-anchor="middle" x="151" y="-286.5" font-family="Helvetica,sans-Serif" font-size="10.00">BiomeParams</text>
</a>
</g>
</g>
<!-- Node8&#45;&gt;Node2 -->
<g id="edge7" class="edge">
<title>Node8&#45;&gt;Node2</title>
<path fill="none" stroke="#9a32cd" stroke-dasharray="5,2" d="M151.87,-269.2C153.76,-250.55 159.54,-222.46 177,-206 201.69,-182.73 293.02,-165.56 349.65,-156.88"/>
<polygon fill="#9a32cd" stroke="#9a32cd" points="148.36,-269.17 151.13,-279.4 155.34,-269.68 148.36,-269.17"/>
<text text-anchor="middle" x="200" y="-231" font-family="Helvetica,sans-Serif" font-size="10.00"> bparams</text>
</g>
<!-- Node9 -->
<g id="node9" class="node">
<title>Node9</title>
<g id="a_node9"><a xlink:title=" ">
<polygon fill="white" stroke="#bfbfbf" points="537,-368.5 537,-387.5 571,-387.5 571,-368.5 537,-368.5"/>
<text text-anchor="middle" x="554" y="-375.5" font-family="Helvetica,sans-Serif" font-size="10.00">s32</text>
</a>
</g>
</g>
<!-- Node9&#45;&gt;Node8 -->
<g id="edge8" class="edge">
<title>Node9&#45;&gt;Node8</title>
<path fill="none" stroke="#9a32cd" stroke-dasharray="5,2" d="M526.79,-371.13C457.17,-356.1 272.31,-316.19 190.69,-298.57"/>
<polygon fill="#9a32cd" stroke="#9a32cd" points="526.43,-374.63 536.94,-373.32 527.9,-367.79 526.43,-374.63"/>
<text text-anchor="middle" x="437.5" y="-331" font-family="Helvetica,sans-Serif" font-size="10.00"> seed</text>
</g>
<!-- Node9&#45;&gt;Node11 -->
<g id="edge16" class="edge">
<title>Node9&#45;&gt;Node11</title>
<path fill="none" stroke="#9a32cd" stroke-dasharray="5,2" d="M576.75,-363.02C606.29,-343.71 657.44,-306.08 686,-261 708.03,-226.22 721.89,-178.34 726.89,-159.06"/>
<polygon fill="#9a32cd" stroke="#9a32cd" points="574.86,-360.08 568.32,-368.42 578.63,-365.97 574.86,-360.08"/>
<text text-anchor="middle" x="686.5" y="-286.5" font-family="Helvetica,sans-Serif" font-size="10.00"> seed</text>
</g>
<!-- Node10 -->
<g id="node10" class="node">
<title>Node10</title>
<g id="a_node10"><a xlink:title=" ">
<polygon fill="white" stroke="#bfbfbf" points="606.5,-279.5 606.5,-298.5 641.5,-298.5 641.5,-279.5 606.5,-279.5"/>
<text text-anchor="middle" x="624" y="-286.5" font-family="Helvetica,sans-Serif" font-size="10.00">u16</text>
</a>
</g>
</g>
<!-- Node10&#45;&gt;Node1 -->
<g id="edge10" class="edge">
<title>Node10&#45;&gt;Node1</title>
<path fill="none" stroke="#9a32cd" stroke-dasharray="5,2" d="M596.84,-279.37C588.12,-275.21 579.33,-269.28 574,-261 537.89,-204.92 556.1,-176.45 569,-111 576,-75.47 595.75,-36.67 605.04,-19.73"/>
<polygon fill="#9a32cd" stroke="#9a32cd" points="595.55,-282.62 606.13,-283.2 598.22,-276.15 595.55,-282.62"/>
<text text-anchor="middle" x="624.5" y="-174.5" font-family="Helvetica,sans-Serif" font-size="10.00"> large_cave_num_max</text>
<text text-anchor="middle" x="624.5" y="-163.5" font-family="Helvetica,sans-Serif" font-size="10.00">small_cave_num_min</text>
<text text-anchor="middle" x="624.5" y="-152.5" font-family="Helvetica,sans-Serif" font-size="10.00">fractal</text>
<text text-anchor="middle" x="624.5" y="-141.5" font-family="Helvetica,sans-Serif" font-size="10.00">small_cave_num_max</text>
<text text-anchor="middle" x="624.5" y="-130.5" font-family="Helvetica,sans-Serif" font-size="10.00">iterations</text>
<text text-anchor="middle" x="624.5" y="-119.5" font-family="Helvetica,sans-Serif" font-size="10.00">large_cave_num_min</text>
</g>
<!-- Node10&#45;&gt;Node11 -->
<g id="edge12" class="edge">
<title>Node10&#45;&gt;Node11</title>
<path fill="none" stroke="#9a32cd" stroke-dasharray="5,2" d="M624.45,-269.39C625.75,-251.52 630.11,-224.57 644,-206 653.54,-193.24 661.56,-196.55 675,-188 689.83,-178.57 706.36,-166.91 717.18,-159.12"/>
<polygon fill="#9a32cd" stroke="#9a32cd" points="620.95,-269.26 623.97,-279.41 627.94,-269.59 620.95,-269.26"/>
<text text-anchor="middle" x="665" y="-231" font-family="Helvetica,sans-Serif" font-size="10.00"> octaves</text>
</g>
<!-- Node11&#45;&gt;Node1 -->
<g id="edge11" class="edge">
<title>Node11&#45;&gt;Node1</title>
<path fill="none" stroke="#9a32cd" stroke-dasharray="5,2" d="M714.89,-132.19C689.48,-102.84 636.89,-42.07 617.44,-19.6"/>
<polygon fill="#9a32cd" stroke="#9a32cd" points="712.37,-134.63 721.56,-139.9 717.66,-130.05 712.37,-134.63"/>
<text text-anchor="middle" x="717.5" y="-85" font-family="Helvetica,sans-Serif" font-size="10.00"> np_cave1</text>
<text text-anchor="middle" x="717.5" y="-74" font-family="Helvetica,sans-Serif" font-size="10.00">np_cave2</text>
<text text-anchor="middle" x="717.5" y="-63" font-family="Helvetica,sans-Serif" font-size="10.00">np_filler_depth</text>
<text text-anchor="middle" x="717.5" y="-52" font-family="Helvetica,sans-Serif" font-size="10.00">np_dungeons</text>
<text text-anchor="middle" x="717.5" y="-41" font-family="Helvetica,sans-Serif" font-size="10.00">np_seabed</text>
</g>
<!-- Node12 -->
<g id="node12" class="node">
<title>Node12</title>
<g id="a_node12"><a xlink:title=" ">
<polygon fill="white" stroke="#bfbfbf" points="903,-279.5 903,-298.5 941,-298.5 941,-279.5 903,-279.5"/>
<text text-anchor="middle" x="922" y="-286.5" font-family="Helvetica,sans-Serif" font-size="10.00">float</text>
</a>
</g>
</g>
<!-- Node12&#45;&gt;Node1 -->
<g id="edge18" class="edge">
<title>Node12&#45;&gt;Node1</title>
<path fill="none" stroke="#9a32cd" stroke-dasharray="5,2" d="M920.2,-268.96C916.3,-235.06 904.79,-162.94 874,-111 850.11,-70.71 840.09,-58.54 798,-38 776.44,-27.48 718.66,-20.2 672.79,-15.87"/>
<polygon fill="#9a32cd" stroke="#9a32cd" points="916.76,-269.68 921.28,-279.26 923.72,-268.95 916.76,-269.68"/>
<text text-anchor="middle" x="951.5" y="-180" font-family="Helvetica,sans-Serif" font-size="10.00"> julia_w</text>
<text text-anchor="middle" x="951.5" y="-169" font-family="Helvetica,sans-Serif" font-size="10.00">julia_x</text>
<text text-anchor="middle" x="951.5" y="-158" font-family="Helvetica,sans-Serif" font-size="10.00">julia_y</text>
<text text-anchor="middle" x="951.5" y="-147" font-family="Helvetica,sans-Serif" font-size="10.00">julia_z</text>
<text text-anchor="middle" x="951.5" y="-136" font-family="Helvetica,sans-Serif" font-size="10.00">large_cave_flooded</text>
<text text-anchor="middle" x="951.5" y="-125" font-family="Helvetica,sans-Serif" font-size="10.00">slice_w</text>
<text text-anchor="middle" x="951.5" y="-114" font-family="Helvetica,sans-Serif" font-size="10.00">cave_width</text>
</g>
<!-- Node12&#45;&gt;Node11 -->
<g id="edge13" class="edge">
<title>Node12&#45;&gt;Node11</title>
<path fill="none" stroke="#9a32cd" stroke-dasharray="5,2" d="M893.32,-277.26C882.82,-272.83 871.06,-267.26 861,-261 810,-229.25 757.71,-179.24 737.6,-159.21"/>
<polygon fill="#9a32cd" stroke="#9a32cd" points="892.31,-280.63 902.9,-281.14 894.94,-274.14 892.31,-280.63"/>
<text text-anchor="middle" x="885.5" y="-247.5" font-family="Helvetica,sans-Serif" font-size="10.00"> persist</text>
<text text-anchor="middle" x="885.5" y="-236.5" font-family="Helvetica,sans-Serif" font-size="10.00">offset</text>
<text text-anchor="middle" x="885.5" y="-225.5" font-family="Helvetica,sans-Serif" font-size="10.00">scale</text>
<text text-anchor="middle" x="885.5" y="-214.5" font-family="Helvetica,sans-Serif" font-size="10.00">lacunarity</text>
</g>
<!-- Node13 -->
<g id="node13" class="node">
<title>Node13</title>
<g id="a_node13"><a xlink:href="classirr_1_1core_1_1vector3d.html" target="_top" xlink:title="3d vector template class with lots of operators and methods.">
<polygon fill="white" stroke="black" points="750.5,-279.5 750.5,-298.5 881.5,-298.5 881.5,-279.5 750.5,-279.5"/>
<text text-anchor="middle" x="816" y="-286.5" font-family="Helvetica,sans-Serif" font-size="10.00">irr::core::vector3d&lt; T &gt;</text>
</a>
</g>
</g>
<!-- Node13&#45;&gt;Node1 -->
<g id="edge19" class="edge">
<title>Node13&#45;&gt;Node1</title>
<path fill="none" stroke="#9a32cd" stroke-dasharray="5,2" d="M835.57,-272.37C838.6,-268.97 841.29,-265.13 843,-261 852.35,-238.42 848.67,-229.78 843,-206 823.58,-124.6 825.05,-88.07 758,-38 744.45,-27.88 706.74,-21.09 672.77,-16.85"/>
<polygon fill="#9a32cd" stroke="#9a32cd" points="832.98,-270.01 828.19,-279.46 837.82,-275.06 832.98,-270.01"/>
<text text-anchor="middle" x="854.5" y="-152.5" font-family="Helvetica,sans-Serif" font-size="10.00"> offset</text>
<text text-anchor="middle" x="854.5" y="-141.5" font-family="Helvetica,sans-Serif" font-size="10.00">scale</text>
</g>
<!-- Node13&#45;&gt;Node11 -->
<g id="edge14" class="edge">
<title>Node13&#45;&gt;Node11</title>
<path fill="none" stroke="#9a32cd" stroke-dasharray="5,2" d="M750.06,-274.78C743.88,-271.21 738.32,-266.7 734,-261 710.56,-230.09 721,-179.16 726.44,-159.05"/>
<polygon fill="#9a32cd" stroke="#9a32cd" points="748.98,-278.14 759.5,-279.36 752.03,-271.84 748.98,-278.14"/>
<text text-anchor="middle" x="752.5" y="-231" font-family="Helvetica,sans-Serif" font-size="10.00"> spread</text>
</g>
<!-- Node14 -->
<g id="node14" class="node">
<title>Node14</title>
<g id="a_node14"><a xlink:title=" ">
<polygon fill="white" stroke="#bfbfbf" points="801.5,-368.5 801.5,-387.5 830.5,-387.5 830.5,-368.5 801.5,-368.5"/>
<text text-anchor="middle" x="816" y="-375.5" font-family="Helvetica,sans-Serif" font-size="10.00">T</text>
</a>
</g>
</g>
<!-- Node14&#45;&gt;Node13 -->
<g id="edge15" class="edge">
<title>Node14&#45;&gt;Node13</title>
<path fill="none" stroke="#9a32cd" stroke-dasharray="5,2" d="M816,-358.19C816,-339.74 816,-312.41 816,-298.62"/>
<polygon fill="#9a32cd" stroke="#9a32cd" points="812.5,-358.34 816,-368.34 819.5,-358.34 812.5,-358.34"/>
<text text-anchor="middle" x="821" y="-342" font-family="Helvetica,sans-Serif" font-size="10.00"> X</text>
<text text-anchor="middle" x="821" y="-331" font-family="Helvetica,sans-Serif" font-size="10.00">Y</text>
<text text-anchor="middle" x="821" y="-320" font-family="Helvetica,sans-Serif" font-size="10.00">Z</text>
</g>
</g>
</svg>
        <g id="navigator" transform="translate(0 0)" fill="#404254">
                <rect fill="#f2f5e9" fill-opacity="0.5" stroke="#606060" stroke-width=".5" x="0" y="0" width="60" height="60"/>
                <use id="zoomplus" xlink:href="#zoomPlus" x="17" y="9" onmousedown="handleZoom(evt,'in')"/>
                <use id="zoomminus" xlink:href="#zoomMin" x="42" y="9" onmousedown="handleZoom(evt,'out')"/>
                <use id="reset" xlink:href="#resetDef" x="30" y="36" onmousedown="handleReset()"/>
                <g id="arrowUp" xlink:href="#dirArrow" transform="translate(30 24)" onmousedown="handlePan(0,-1)">
                  <use xlink:href="#rim" fill="#404040">
                        <set attributeName="fill" to="#808080" begin="arrowUp.mouseover" end="arrowUp.mouseout"/>
                  </use>
                  <path fill="none" stroke="white" stroke-width="1.5" d="M0,-3.0v7 M-2.5,-0.5L0,-3.0L2.5,-0.5"/>
                </g>
                <g id="arrowRight" xlink:href="#dirArrow" transform="rotate(90) translate(36 -43)" onmousedown="handlePan(1,0)">
                  <use xlink:href="#rim" fill="#404040">
                        <set attributeName="fill" to="#808080" begin="arrowRight.mouseover" end="arrowRight.mouseout"/>
                  </use>
                  <path fill="none" stroke="white" stroke-width="1.5" d="M0,-3.0v7 M-2.5,-0.5L0,-3.0L2.5,-0.5"/>
                </g>
                <g id="arrowDown" xlink:href="#dirArrow" transform="rotate(180) translate(-30 -48)" onmousedown="handlePan(0,1)">
                  <use xlink:href="#rim" fill="#404040">
                        <set attributeName="fill" to="#808080" begin="arrowDown.mouseover" end="arrowDown.mouseout"/>
                  </use>
                  <path fill="none" stroke="white" stroke-width="1.5" d="M0,-3.0v7 M-2.5,-0.5L0,-3.0L2.5,-0.5"/>
                </g>
                <g id="arrowLeft" xlink:href="#dirArrow" transform="rotate(270) translate(-36 17)" onmousedown="handlePan(-1,0)">
                  <use xlink:href="#rim" fill="#404040">
                        <set attributeName="fill" to="#808080" begin="arrowLeft.mouseover" end="arrowLeft.mouseout"/>
                  </use>
                  <path fill="none" stroke="white" stroke-width="1.5" d="M0,-3.0v7 M-2.5,-0.5L0,-3.0L2.5,-0.5"/>
                </g>
        </g>
        <svg viewBox="0 0 15 15" width="100%" height="30px" preserveAspectRatio="xMaxYMin meet">
         <g id="arrow_out" transform="scale(0.3 0.3)">
          <a xlink:href="structMapgenFractalParams__coll__graph_org.svg" target="_base">
           <rect id="button" ry="5" rx="5" y="6" x="6" height="38" width="38"
                fill="#f2f5e9" fill-opacity="0.5" stroke="#606060" stroke-width="1.0"/>
           <path id="arrow"
             d="M 11.500037,31.436501 C 11.940474,20.09759 22.043105,11.32322 32.158766,21.979434 L 37.068811,17.246167 C 37.068811,17.246167 37.088388,32 37.088388,32 L 22.160133,31.978069 C 22.160133,31.978069 26.997745,27.140456 26.997745,27.140456 C 18.528582,18.264221 13.291696,25.230495 11.500037,31.436501 z"
             style="fill:#404040;"/>
          </a>
         </g>
        </svg>
</svg>
