<?xml version="1.0" encoding="UTF-8" standalone="no"?>
<!DOCTYPE svg PUBLIC "-//W3C//DTD SVG 1.1//EN"
 "http://www.w3.org/Graphics/SVG/1.1/DTD/svg11.dtd">
<!-- Generated by graphviz version 2.43.0 (0)
 -->
<!-- Title: Lighting Pages: 1 -->
<svg width="230pt" height="219pt"
 viewBox="0.00 0.00 230.00 219.00" xmlns="http://www.w3.org/2000/svg" xmlns:xlink="http://www.w3.org/1999/xlink">
<g id="graph0" class="graph" transform="scale(1 1) rotate(0) translate(4 215)">
<title>Lighting</title>
<polygon fill="white" stroke="transparent" points="-4,4 -4,-215 226,-215 226,4 -4,4"/>
<!-- Node1 -->
<g id="node1" class="node">
<title>Node1</title>
<g id="a_node1"><a xlink:title=" ">
<polygon fill="#bfbfbf" stroke="black" points="19,-0.5 19,-19.5 75,-19.5 75,-0.5 19,-0.5"/>
<text text-anchor="middle" x="47" y="-7.5" font-family="Helvetica,sans-Serif" font-size="10.00">Lighting</text>
</a>
</g>
</g>
<!-- Node2 -->
<g id="node2" class="node">
<title>Node2</title>
<g id="a_node2"><a xlink:href="structAutoExposure.html" target="_top" xlink:title=" ">
<polygon fill="white" stroke="black" points="107,-68.5 107,-87.5 191,-87.5 191,-68.5 107,-68.5"/>
<text text-anchor="middle" x="149" y="-75.5" font-family="Helvetica,sans-Serif" font-size="10.00">AutoExposure</text>
</a>
</g>
</g>
<!-- Node2&#45;&gt;Node1 -->
<g id="edge1" class="edge">
<title>Node2&#45;&gt;Node1</title>
<path fill="none" stroke="#9a32cd" stroke-dasharray="5,2" d="M127.07,-62.81C106.79,-49.69 77.29,-30.6 60.34,-19.63"/>
<polygon fill="#9a32cd" stroke="#9a32cd" points="125.37,-65.88 135.67,-68.37 129.17,-60 125.37,-65.88"/>
<text text-anchor="middle" x="128.5" y="-41" font-family="Helvetica,sans-Serif" font-size="10.00"> exposure</text>
</g>
<!-- Node3 -->
<g id="node3" class="node">
<title>Node3</title>
<g id="a_node3"><a xlink:title=" ">
<polygon fill="white" stroke="#bfbfbf" points="0,-191.5 0,-210.5 38,-210.5 38,-191.5 0,-191.5"/>
<text text-anchor="middle" x="19" y="-198.5" font-family="Helvetica,sans-Serif" font-size="10.00">float</text>
</a>
</g>
</g>
<!-- Node3&#45;&gt;Node1 -->
<g id="edge3" class="edge">
<title>Node3&#45;&gt;Node1</title>
<path fill="none" stroke="#9a32cd" stroke-dasharray="5,2" d="M14.26,-181.37C8.44,-155.25 0.67,-106.5 12,-67 17.31,-48.49 30.72,-30.15 39.32,-19.74"/>
<polygon fill="#9a32cd" stroke="#9a32cd" points="10.92,-182.46 16.64,-191.38 17.73,-180.84 10.92,-182.46"/>
<text text-anchor="middle" x="55" y="-81" font-family="Helvetica,sans-Serif" font-size="10.00"> saturation</text>
<text text-anchor="middle" x="55" y="-70" font-family="Helvetica,sans-Serif" font-size="10.00">shadow_intensity</text>
</g>
<!-- Node3&#45;&gt;Node2 -->
<g id="edge2" class="edge">
<title>Node3&#45;&gt;Node2</title>
<path fill="none" stroke="#9a32cd" stroke-dasharray="5,2" d="M35.71,-184.44C63.43,-158.65 117.99,-107.86 139.74,-87.62"/>
<polygon fill="#9a32cd" stroke="#9a32cd" points="33.28,-181.92 28.35,-191.3 38.05,-187.05 33.28,-181.92"/>
<text text-anchor="middle" x="169.5" y="-165" font-family="Helvetica,sans-Serif" font-size="10.00"> luminance_max</text>
<text text-anchor="middle" x="169.5" y="-154" font-family="Helvetica,sans-Serif" font-size="10.00">luminance_min</text>
<text text-anchor="middle" x="169.5" y="-143" font-family="Helvetica,sans-Serif" font-size="10.00">center_weight_power</text>
<text text-anchor="middle" x="169.5" y="-132" font-family="Helvetica,sans-Serif" font-size="10.00">speed_bright_dark</text>
<text text-anchor="middle" x="169.5" y="-121" font-family="Helvetica,sans-Serif" font-size="10.00">speed_dark_bright</text>
<text text-anchor="middle" x="169.5" y="-110" font-family="Helvetica,sans-Serif" font-size="10.00">exposure_correction</text>
</g>
</g>
</svg>
