<?xml version="1.0" encoding="UTF-8" standalone="no"?>
<!DOCTYPE svg PUBLIC "-//W3C//DTD SVG 1.1//EN"
 "http://www.w3.org/Graphics/SVG/1.1/DTD/svg11.dtd">
<!-- Generated by graphviz version 2.43.0 (0)
 -->
<!-- Title: RollbackAction Pages: 1 -->
<!--zoomable 475 -->
<svg id="main" version="1.1" xmlns="http://www.w3.org/2000/svg" xmlns:xlink="http://www.w3.org/1999/xlink" xml:space="preserve" onload="init(evt)">
<style type="text/css"><![CDATA[
.edge:hover path { stroke: red; }
.edge:hover polygon { stroke: red; fill: red; }
]]></style>
<script type="text/javascript"><![CDATA[
var edges = document.getElementsByTagName('g');
if (edges && edges.length) {
  for (var i=0;i<edges.length;i++) {
    if (edges[i].id.substr(0,4)=='edge') {
      edges[i].setAttribute('class','edge');
    }
  }
}
]]></script>
        <defs>
                <circle id="rim" cx="0" cy="0" r="7"/>
                <circle id="rim2" cx="0" cy="0" r="3.5"/>
                <g id="zoomPlus">
                        <use xlink:href="#rim" fill="#404040">
                                <set attributeName="fill" to="#808080" begin="zoomplus.mouseover" end="zoomplus.mouseout"/>
                        </use>
                        <path d="M-4,0h8M0,-4v8" fill="none" stroke="white" stroke-width="1.5" pointer-events="none"/>
                </g>
                <g id="zoomMin">
                        <use xlink:href="#rim" fill="#404040">
                                <set attributeName="fill" to="#808080" begin="zoomminus.mouseover" end="zoomminus.mouseout"/>
                        </use>
                        <path d="M-4,0h8" fill="none" stroke="white" stroke-width="1.5" pointer-events="none"/>
                </g>
                <g id="dirArrow">
                        <path fill="none" stroke="white" stroke-width="1.5" d="M0,-3.0v7 M-2.5,-0.5L0,-3.0L2.5,-0.5"/>
                </g>
               <g id="resetDef">
                       <use xlink:href="#rim2" fill="#404040">
                               <set attributeName="fill" to="#808080" begin="reset.mouseover" end="reset.mouseout"/>
                       </use>
               </g>
        </defs>

<script type="text/javascript">
var viewWidth = 1035;
var viewHeight = 475;
var sectionId = 'dynsection-0';
</script>
<script xlink:href="svgpan.js"/>
<svg id="graph" class="graph">
<g id="viewport">
<title>RollbackAction</title>
<polygon fill="white" stroke="transparent" points="-4,4 -4,-471 1031,-471 1031,4 -4,4"/>
<!-- Node1 -->
<g id="node1" class="node">
<title>Node1</title>
<g id="a_node1"><a xlink:title=" ">
<polygon fill="#bfbfbf" stroke="black" points="938,-196.5 938,-215.5 1027,-215.5 1027,-196.5 938,-196.5"/>
<text text-anchor="middle" x="982.5" y="-203.5" font-family="Helvetica,sans-Serif" font-size="10.00">RollbackAction</text>
</a>
</g>
</g>
<!-- Node2 -->
<g id="node2" class="node">
<title>Node2</title>
<g id="a_node2"><a xlink:href="structItemStack.html" target="_top" xlink:title=" ">
<polygon fill="white" stroke="black" points="735.5,-325.5 735.5,-344.5 801.5,-344.5 801.5,-325.5 735.5,-325.5"/>
<text text-anchor="middle" x="768.5" y="-332.5" font-family="Helvetica,sans-Serif" font-size="10.00">ItemStack</text>
</a>
</g>
</g>
<!-- Node2&#45;&gt;Node1 -->
<g id="edge1" class="edge">
<title>Node2&#45;&gt;Node1</title>
<path fill="none" stroke="#9a32cd" stroke-dasharray="5,2" d="M811.57,-327.92C843.55,-320.99 887.43,-308.01 920,-285 946.83,-266.05 967.57,-232.02 976.58,-215.51"/>
<polygon fill="#9a32cd" stroke="#9a32cd" points="810.73,-324.52 801.64,-329.96 812.14,-331.37 810.73,-324.52"/>
<text text-anchor="middle" x="879" y="-324" font-family="Helvetica,sans-Serif" font-size="10.00"> inventory_stack</text>
</g>
<!-- Node3 -->
<g id="node3" class="node">
<title>Node3</title>
<g id="a_node3"><a xlink:title=" ">
<polygon fill="white" stroke="#bfbfbf" points="547,-366.5 547,-385.5 582,-385.5 582,-366.5 547,-366.5"/>
<text text-anchor="middle" x="564.5" y="-373.5" font-family="Helvetica,sans-Serif" font-size="10.00">u16</text>
</a>
</g>
</g>
<!-- Node3&#45;&gt;Node2 -->
<g id="edge2" class="edge">
<title>Node3&#45;&gt;Node2</title>
<path fill="none" stroke="#9a32cd" stroke-dasharray="5,2" d="M592.27,-371.35C619.27,-366.57 662.13,-358.75 699,-351 710.83,-348.51 723.76,-345.56 735.16,-342.86"/>
<polygon fill="#9a32cd" stroke="#9a32cd" points="591.65,-367.9 582.41,-373.08 592.86,-374.8 591.65,-367.9"/>
<text text-anchor="middle" x="673.5" y="-374" font-family="Helvetica,sans-Serif" font-size="10.00"> count</text>
<text text-anchor="middle" x="673.5" y="-363" font-family="Helvetica,sans-Serif" font-size="10.00">wear</text>
</g>
<!-- Node4 -->
<g id="node4" class="node">
<title>Node4</title>
<g id="a_node4"><a xlink:title=" ">
<polygon fill="white" stroke="#bfbfbf" points="542.5,-261.5 542.5,-280.5 586.5,-280.5 586.5,-261.5 542.5,-261.5"/>
<text text-anchor="middle" x="564.5" y="-268.5" font-family="Helvetica,sans-Serif" font-size="10.00">string</text>
</a>
</g>
</g>
<!-- Node4&#45;&gt;Node1 -->
<g id="edge17" class="edge">
<title>Node4&#45;&gt;Node1</title>
<path fill="none" stroke="#9a32cd" stroke-dasharray="5,2" d="M596.6,-273.47C659.46,-277.41 805.43,-281.3 920,-244 938.86,-237.86 957.86,-224.82 969.65,-215.74"/>
<polygon fill="#9a32cd" stroke="#9a32cd" points="596.76,-269.97 586.54,-272.79 596.28,-276.95 596.76,-269.97"/>
<text text-anchor="middle" x="768.5" y="-300" font-family="Helvetica,sans-Serif" font-size="10.00"> inventory_list</text>
<text text-anchor="middle" x="768.5" y="-289" font-family="Helvetica,sans-Serif" font-size="10.00">inventory_location</text>
<text text-anchor="middle" x="768.5" y="-278" font-family="Helvetica,sans-Serif" font-size="10.00">actor</text>
</g>
<!-- Node4&#45;&gt;Node2 -->
<g id="edge3" class="edge">
<title>Node4&#45;&gt;Node2</title>
<path fill="none" stroke="#9a32cd" stroke-dasharray="5,2" d="M596.32,-280.77C634.61,-292.9 699.49,-313.45 737.43,-325.47"/>
<polygon fill="#9a32cd" stroke="#9a32cd" points="597.33,-277.41 586.74,-277.73 595.21,-284.09 597.33,-277.41"/>
<text text-anchor="middle" x="673.5" y="-315" font-family="Helvetica,sans-Serif" font-size="10.00"> name</text>
</g>
<!-- Node18 -->
<g id="node18" class="node">
<title>Node18</title>
<g id="a_node18"><a xlink:href="structRollbackNode.html" target="_top" xlink:title=" ">
<polygon fill="white" stroke="black" points="726.5,-215.5 726.5,-234.5 810.5,-234.5 810.5,-215.5 726.5,-215.5"/>
<text text-anchor="middle" x="768.5" y="-222.5" font-family="Helvetica,sans-Serif" font-size="10.00">RollbackNode</text>
</a>
</g>
</g>
<!-- Node4&#45;&gt;Node18 -->
<g id="edge22" class="edge">
<title>Node4&#45;&gt;Node18</title>
<path fill="none" stroke="#9a32cd" stroke-dasharray="5,2" d="M592.07,-256.74C607.87,-248.95 628.55,-239.91 648,-235 673.53,-228.55 703.01,-226.03 726.3,-225.14"/>
<polygon fill="#9a32cd" stroke="#9a32cd" points="590.26,-253.74 582.93,-261.38 593.43,-259.98 590.26,-253.74"/>
<text text-anchor="middle" x="673.5" y="-249" font-family="Helvetica,sans-Serif" font-size="10.00"> meta</text>
<text text-anchor="middle" x="673.5" y="-238" font-family="Helvetica,sans-Serif" font-size="10.00">name</text>
</g>
<!-- Node5 -->
<g id="node5" class="node">
<title>Node5</title>
<g id="a_node5"><a xlink:href="classItemStackMetadata.html" target="_top" xlink:title=" ">
<polygon fill="white" stroke="black" points="508,-328.5 508,-347.5 621,-347.5 621,-328.5 508,-328.5"/>
<text text-anchor="middle" x="564.5" y="-335.5" font-family="Helvetica,sans-Serif" font-size="10.00">ItemStackMetadata</text>
</a>
</g>
</g>
<!-- Node5&#45;&gt;Node2 -->
<g id="edge4" class="edge">
<title>Node5&#45;&gt;Node2</title>
<path fill="none" stroke="#9a32cd" stroke-dasharray="5,2" d="M631.34,-337.02C666.16,-336.5 707.36,-335.89 735.25,-335.48"/>
<polygon fill="#9a32cd" stroke="#9a32cd" points="631.18,-333.52 621.23,-337.17 631.28,-340.52 631.18,-333.52"/>
<text text-anchor="middle" x="673.5" y="-339" font-family="Helvetica,sans-Serif" font-size="10.00"> metadata</text>
</g>
<!-- Node6 -->
<g id="node6" class="node">
<title>Node6</title>
<g id="a_node6"><a xlink:href="classSimpleMetadata.html" target="_top" xlink:title=" ">
<polygon fill="white" stroke="black" points="272,-333.5 272,-352.5 369,-352.5 369,-333.5 272,-333.5"/>
<text text-anchor="middle" x="320.5" y="-340.5" font-family="Helvetica,sans-Serif" font-size="10.00">SimpleMetadata</text>
</a>
</g>
</g>
<!-- Node6&#45;&gt;Node5 -->
<g id="edge5" class="edge">
<title>Node6&#45;&gt;Node5</title>
<path fill="none" stroke="midnightblue" d="M379.14,-341.81C418.03,-341.01 469.08,-339.95 507.6,-339.15"/>
<polygon fill="midnightblue" stroke="midnightblue" points="378.95,-338.31 369.02,-342.02 379.09,-345.31 378.95,-338.31"/>
</g>
<!-- Node7 -->
<g id="node7" class="node">
<title>Node7</title>
<g id="a_node7"><a xlink:href="classIMetadata.html" target="_top" xlink:title=" ">
<polygon fill="white" stroke="black" points="35,-303.5 35,-322.5 101,-322.5 101,-303.5 35,-303.5"/>
<text text-anchor="middle" x="68" y="-310.5" font-family="Helvetica,sans-Serif" font-size="10.00">IMetadata</text>
</a>
</g>
</g>
<!-- Node7&#45;&gt;Node6 -->
<g id="edge6" class="edge">
<title>Node7&#45;&gt;Node6</title>
<path fill="none" stroke="midnightblue" d="M111.42,-318.08C155.91,-323.41 225.68,-331.76 271.99,-337.31"/>
<polygon fill="midnightblue" stroke="midnightblue" points="111.58,-314.57 101.24,-316.86 110.75,-321.52 111.58,-314.57"/>
</g>
<!-- Node8 -->
<g id="node8" class="node">
<title>Node8</title>
<g id="a_node8"><a xlink:title=" ">
<polygon fill="white" stroke="#bfbfbf" points="8.5,-342 8.5,-372 127.5,-372 127.5,-342 8.5,-342"/>
<text text-anchor="start" x="16.5" y="-360" font-family="Helvetica,sans-Serif" font-size="10.00">unordered_map&lt; std</text>
<text text-anchor="middle" x="68" y="-349" font-family="Helvetica,sans-Serif" font-size="10.00">::string, std::string &gt;</text>
</a>
</g>
</g>
<!-- Node8&#45;&gt;Node6 -->
<g id="edge7" class="edge">
<title>Node8&#45;&gt;Node6</title>
<path fill="none" stroke="#9a32cd" stroke-dasharray="5,2" d="M138.19,-348.32C143.54,-347.81 148.85,-347.36 154,-347 193.56,-344.2 238.57,-343.26 271.65,-342.98"/>
<polygon fill="#9a32cd" stroke="#9a32cd" points="137.52,-344.87 127.92,-349.35 138.22,-351.83 137.52,-344.87"/>
<text text-anchor="middle" x="202.5" y="-350" font-family="Helvetica,sans-Serif" font-size="10.00"> m_stringvars</text>
</g>
<!-- Node9 -->
<g id="node9" class="node">
<title>Node9</title>
<g id="a_node9"><a xlink:href="classbool.html" target="_top" xlink:title=" ">
<polygon fill="white" stroke="black" points="49,-396.5 49,-415.5 87,-415.5 87,-396.5 49,-396.5"/>
<text text-anchor="middle" x="68" y="-403.5" font-family="Helvetica,sans-Serif" font-size="10.00">bool</text>
</a>
</g>
</g>
<!-- Node9&#45;&gt;Node1 -->
<g id="edge16" class="edge">
<title>Node9&#45;&gt;Node1</title>
<path fill="none" stroke="#9a32cd" stroke-dasharray="5,2" d="M96.92,-413.24C142.96,-424.51 237.83,-445 319.5,-445 319.5,-445 319.5,-445 769.5,-445 894.3,-445 963.49,-260.38 978.42,-215.67"/>
<polygon fill="#9a32cd" stroke="#9a32cd" points="97.63,-409.81 87.08,-410.78 95.94,-416.6 97.63,-409.81"/>
<text text-anchor="middle" x="564.5" y="-459" font-family="Helvetica,sans-Serif" font-size="10.00"> inventory_add</text>
<text text-anchor="middle" x="564.5" y="-448" font-family="Helvetica,sans-Serif" font-size="10.00">actor_is_guess</text>
</g>
<!-- Node9&#45;&gt;Node5 -->
<g id="edge14" class="edge">
<title>Node9&#45;&gt;Node5</title>
<path fill="none" stroke="#9a32cd" stroke-dasharray="5,2" d="M97.33,-404.59C133.19,-402.62 196.83,-398.55 251,-392 353.86,-379.57 379.02,-372.31 481,-354 492.2,-351.99 504.24,-349.72 515.56,-347.53"/>
<polygon fill="#9a32cd" stroke="#9a32cd" points="96.93,-401.1 87.13,-405.13 97.31,-408.09 96.93,-401.1"/>
<text text-anchor="middle" x="320.5" y="-392" font-family="Helvetica,sans-Serif" font-size="10.00"> toolcaps_overridden</text>
</g>
<!-- Node9&#45;&gt;Node6 -->
<g id="edge8" class="edge">
<title>Node9&#45;&gt;Node6</title>
<path fill="none" stroke="#9a32cd" stroke-dasharray="5,2" d="M96.76,-397.38C113.31,-392.35 134.78,-386.03 154,-381 176.82,-375.03 235.76,-361.68 276.76,-352.51"/>
<polygon fill="#9a32cd" stroke="#9a32cd" points="95.69,-394.04 87.15,-400.32 97.74,-400.74 95.69,-394.04"/>
<text text-anchor="middle" x="202.5" y="-384" font-family="Helvetica,sans-Serif" font-size="10.00"> m_modified</text>
</g>
<!-- Node10 -->
<g id="node10" class="node">
<title>Node10</title>
<g id="a_node10"><a xlink:href="structToolCapabilities.html" target="_top" xlink:title=" ">
<polygon fill="white" stroke="black" points="273.5,-220.5 273.5,-239.5 367.5,-239.5 367.5,-220.5 273.5,-220.5"/>
<text text-anchor="middle" x="320.5" y="-227.5" font-family="Helvetica,sans-Serif" font-size="10.00">ToolCapabilities</text>
</a>
</g>
</g>
<!-- Node10&#45;&gt;Node5 -->
<g id="edge9" class="edge">
<title>Node10&#45;&gt;Node5</title>
<path fill="none" stroke="#9a32cd" stroke-dasharray="5,2" d="M352.28,-243.73C402.07,-265.96 499.06,-309.24 542.07,-328.44"/>
<polygon fill="#9a32cd" stroke="#9a32cd" points="353.53,-240.46 342.98,-239.58 350.68,-246.86 353.53,-240.46"/>
<text text-anchor="middle" x="435.5" y="-302" font-family="Helvetica,sans-Serif" font-size="10.00"> toolcaps_override</text>
</g>
<!-- Node11 -->
<g id="node11" class="node">
<title>Node11</title>
<g id="a_node11"><a xlink:title=" ">
<polygon fill="white" stroke="#bfbfbf" points="49,-215.5 49,-234.5 87,-234.5 87,-215.5 49,-215.5"/>
<text text-anchor="middle" x="68" y="-222.5" font-family="Helvetica,sans-Serif" font-size="10.00">float</text>
</a>
</g>
</g>
<!-- Node11&#45;&gt;Node10 -->
<g id="edge10" class="edge">
<title>Node11&#45;&gt;Node10</title>
<path fill="none" stroke="#9a32cd" stroke-dasharray="5,2" d="M97.26,-225.56C140.06,-226.42 221.77,-228.05 273.3,-229.08"/>
<polygon fill="#9a32cd" stroke="#9a32cd" points="97.08,-222.06 87.02,-225.36 96.94,-229.06 97.08,-222.06"/>
<text text-anchor="middle" x="202.5" y="-231" font-family="Helvetica,sans-Serif" font-size="10.00"> full_punch_interval</text>
</g>
<!-- Node12 -->
<g id="node12" class="node">
<title>Node12</title>
<g id="a_node12"><a xlink:title=" ">
<polygon fill="white" stroke="#bfbfbf" points="0,-155.5 0,-196.5 136,-196.5 136,-155.5 0,-155.5"/>
<text text-anchor="start" x="8" y="-184.5" font-family="Helvetica,sans-Serif" font-size="10.00">unordered_map&lt; std</text>
<text text-anchor="start" x="8" y="-173.5" font-family="Helvetica,sans-Serif" font-size="10.00">::string, struct ToolGroup</text>
<text text-anchor="middle" x="68" y="-162.5" font-family="Helvetica,sans-Serif" font-size="10.00">Cap &gt;</text>
</a>
</g>
</g>
<!-- Node12&#45;&gt;Node10 -->
<g id="edge11" class="edge">
<title>Node12&#45;&gt;Node10</title>
<path fill="none" stroke="#9a32cd" stroke-dasharray="5,2" d="M146.15,-189.42C178.65,-195.43 216.79,-202.98 251,-211 262.9,-213.79 275.83,-217.26 287.23,-220.47"/>
<polygon fill="#9a32cd" stroke="#9a32cd" points="146.73,-185.96 136.26,-187.6 145.47,-192.85 146.73,-185.96"/>
<text text-anchor="middle" x="202.5" y="-214" font-family="Helvetica,sans-Serif" font-size="10.00"> groupcaps</text>
</g>
<!-- Node13 -->
<g id="node13" class="node">
<title>Node13</title>
<g id="a_node13"><a xlink:title=" ">
<polygon fill="white" stroke="#bfbfbf" points="53.5,-115.5 53.5,-134.5 82.5,-134.5 82.5,-115.5 53.5,-115.5"/>
<text text-anchor="middle" x="68" y="-122.5" font-family="Helvetica,sans-Serif" font-size="10.00">int</text>
</a>
</g>
</g>
<!-- Node13&#45;&gt;Node10 -->
<g id="edge12" class="edge">
<title>Node13&#45;&gt;Node10</title>
<path fill="none" stroke="#9a32cd" stroke-dasharray="5,2" d="M92.7,-126.17C128.82,-128.82 198.94,-137.38 251,-165 277.36,-178.98 300.86,-205.94 312.25,-220.35"/>
<polygon fill="#9a32cd" stroke="#9a32cd" points="92.84,-122.67 82.64,-125.53 92.39,-129.66 92.84,-122.67"/>
<text text-anchor="middle" x="202.5" y="-179" font-family="Helvetica,sans-Serif" font-size="10.00"> max_drop_level</text>
<text text-anchor="middle" x="202.5" y="-168" font-family="Helvetica,sans-Serif" font-size="10.00">punch_attack_uses</text>
</g>
<!-- Node13&#45;&gt;Node18 -->
<g id="edge21" class="edge">
<title>Node13&#45;&gt;Node18</title>
<path fill="none" stroke="#9a32cd" stroke-dasharray="5,2" d="M92.89,-124.86C127.75,-124.89 194.55,-125.86 251,-132 429.44,-151.4 639.11,-196.01 726.28,-215.55"/>
<polygon fill="#9a32cd" stroke="#9a32cd" points="92.74,-121.36 82.75,-124.88 92.75,-128.36 92.74,-121.36"/>
<text text-anchor="middle" x="435.5" y="-180" font-family="Helvetica,sans-Serif" font-size="10.00"> param1</text>
<text text-anchor="middle" x="435.5" y="-169" font-family="Helvetica,sans-Serif" font-size="10.00">param2</text>
</g>
<!-- Node14 -->
<g id="node14" class="node">
<title>Node14</title>
<g id="a_node14"><a xlink:title=" ">
<polygon fill="white" stroke="#bfbfbf" points="8.5,-254 8.5,-284 127.5,-284 127.5,-254 8.5,-254"/>
<text text-anchor="start" x="16.5" y="-272" font-family="Helvetica,sans-Serif" font-size="10.00">unordered_map&lt; std</text>
<text text-anchor="middle" x="68" y="-261" font-family="Helvetica,sans-Serif" font-size="10.00">::string, s16 &gt;</text>
</a>
</g>
</g>
<!-- Node14&#45;&gt;Node10 -->
<g id="edge13" class="edge">
<title>Node14&#45;&gt;Node10</title>
<path fill="none" stroke="#9a32cd" stroke-dasharray="5,2" d="M138.02,-259.9C172.09,-255.21 213.76,-249.19 251,-243 258.28,-241.79 265.99,-240.42 273.49,-239.03"/>
<polygon fill="#9a32cd" stroke="#9a32cd" points="137.14,-256.48 127.71,-261.31 138.09,-263.42 137.14,-256.48"/>
<text text-anchor="middle" x="202.5" y="-260" font-family="Helvetica,sans-Serif" font-size="10.00"> damageGroups</text>
</g>
<!-- Node15 -->
<g id="node15" class="node">
<title>Node15</title>
<g id="a_node15"><a xlink:title=" ">
<polygon fill="white" stroke="#bfbfbf" points="749,-177.5 749,-196.5 788,-196.5 788,-177.5 749,-177.5"/>
<text text-anchor="middle" x="768.5" y="-184.5" font-family="Helvetica,sans-Serif" font-size="10.00">Type</text>
</a>
</g>
</g>
<!-- Node15&#45;&gt;Node1 -->
<g id="edge15" class="edge">
<title>Node15&#45;&gt;Node1</title>
<path fill="none" stroke="#9a32cd" stroke-dasharray="5,2" d="M798.46,-185.58C828.88,-184.55 878.04,-184.21 920,-190 930.05,-191.39 940.83,-193.85 950.5,-196.42"/>
<polygon fill="#9a32cd" stroke="#9a32cd" points="798,-182.09 788.15,-185.98 798.27,-189.09 798,-182.09"/>
<text text-anchor="middle" x="879" y="-193" font-family="Helvetica,sans-Serif" font-size="10.00"> type</text>
</g>
<!-- Node16 -->
<g id="node16" class="node">
<title>Node16</title>
<g id="a_node16"><a xlink:title=" ">
<polygon fill="white" stroke="#bfbfbf" points="744.5,-139.5 744.5,-158.5 792.5,-158.5 792.5,-139.5 744.5,-139.5"/>
<text text-anchor="middle" x="768.5" y="-146.5" font-family="Helvetica,sans-Serif" font-size="10.00">time_t</text>
</a>
</g>
</g>
<!-- Node16&#45;&gt;Node1 -->
<g id="edge18" class="edge">
<title>Node16&#45;&gt;Node1</title>
<path fill="none" stroke="#9a32cd" stroke-dasharray="5,2" d="M802.9,-149.56C834.01,-150.98 881.28,-155.44 920,-169 938.35,-175.42 957.17,-187.76 969.08,-196.41"/>
<polygon fill="#9a32cd" stroke="#9a32cd" points="802.73,-146.05 792.61,-149.18 802.47,-153.05 802.73,-146.05"/>
<text text-anchor="middle" x="879" y="-172" font-family="Helvetica,sans-Serif" font-size="10.00"> unix_time</text>
</g>
<!-- Node17 -->
<g id="node17" class="node">
<title>Node17</title>
<g id="a_node17"><a xlink:title=" ">
<polygon fill="white" stroke="#bfbfbf" points="751,-101.5 751,-120.5 786,-120.5 786,-101.5 751,-101.5"/>
<text text-anchor="middle" x="768.5" y="-108.5" font-family="Helvetica,sans-Serif" font-size="10.00">u32</text>
</a>
</g>
</g>
<!-- Node17&#45;&gt;Node1 -->
<g id="edge19" class="edge">
<title>Node17&#45;&gt;Node1</title>
<path fill="none" stroke="#9a32cd" stroke-dasharray="5,2" d="M796.22,-110.43C827.74,-110.88 880.81,-115.24 920,-137 945.81,-151.34 966.29,-180.71 975.77,-196.1"/>
<polygon fill="#9a32cd" stroke="#9a32cd" points="796.03,-106.93 786.03,-110.41 796.02,-113.93 796.03,-106.93"/>
<text text-anchor="middle" x="879" y="-140" font-family="Helvetica,sans-Serif" font-size="10.00"> inventory_index</text>
</g>
<!-- Node18&#45;&gt;Node1 -->
<g id="edge20" class="edge">
<title>Node18&#45;&gt;Node1</title>
<path fill="none" stroke="#9a32cd" stroke-dasharray="5,2" d="M820.88,-220.4C856.69,-217.19 903.96,-212.95 937.93,-209.9"/>
<polygon fill="#9a32cd" stroke="#9a32cd" points="820.27,-216.94 810.63,-221.31 820.9,-223.91 820.27,-216.94"/>
<text text-anchor="middle" x="879" y="-232" font-family="Helvetica,sans-Serif" font-size="10.00"> n_new</text>
<text text-anchor="middle" x="879" y="-221" font-family="Helvetica,sans-Serif" font-size="10.00">n_old</text>
</g>
<!-- Node19 -->
<g id="node19" class="node">
<title>Node19</title>
<g id="a_node19"><a xlink:href="classirr_1_1core_1_1vector3d.html" target="_top" xlink:title=" ">
<polygon fill="white" stroke="black" points="717,-51 717,-81 820,-81 820,-51 717,-51"/>
<text text-anchor="start" x="725" y="-69" font-family="Helvetica,sans-Serif" font-size="10.00">irr::core::vector3d</text>
<text text-anchor="middle" x="768.5" y="-58" font-family="Helvetica,sans-Serif" font-size="10.00">&lt; s16 &gt;</text>
</a>
</g>
</g>
<!-- Node19&#45;&gt;Node1 -->
<g id="edge23" class="edge">
<title>Node19&#45;&gt;Node1</title>
<path fill="none" stroke="#9a32cd" stroke-dasharray="5,2" d="M830.32,-67.53C859.77,-70.95 894.25,-79.17 920,-98 954.84,-123.47 972.78,-175.06 978.96,-196.41"/>
<polygon fill="#9a32cd" stroke="#9a32cd" points="830.43,-64.02 820.13,-66.51 829.73,-70.99 830.43,-64.02"/>
<text text-anchor="middle" x="879" y="-101" font-family="Helvetica,sans-Serif" font-size="10.00"> p</text>
</g>
<!-- Node20 -->
<g id="node20" class="node">
<title>Node20</title>
<g id="a_node20"><a xlink:title=" ">
<polygon fill="white" stroke="#bfbfbf" points="547.5,-0.5 547.5,-19.5 581.5,-19.5 581.5,-0.5 547.5,-0.5"/>
<text text-anchor="middle" x="564.5" y="-7.5" font-family="Helvetica,sans-Serif" font-size="10.00">s16</text>
</a>
</g>
</g>
<!-- Node20&#45;&gt;Node19 -->
<g id="edge24" class="edge">
<title>Node20&#45;&gt;Node19</title>
<path fill="none" stroke="#9a32cd" stroke-dasharray="5,2" d="M591.88,-10.68C619.28,-12.05 663.1,-16.09 699,-28 715.39,-33.44 732.38,-42.83 745.34,-50.92"/>
<polygon fill="#9a32cd" stroke="#9a32cd" points="591.68,-7.17 581.55,-10.26 591.4,-14.16 591.68,-7.17"/>
<text text-anchor="middle" x="673.5" y="-53" font-family="Helvetica,sans-Serif" font-size="10.00"> X</text>
<text text-anchor="middle" x="673.5" y="-42" font-family="Helvetica,sans-Serif" font-size="10.00">Y</text>
<text text-anchor="middle" x="673.5" y="-31" font-family="Helvetica,sans-Serif" font-size="10.00">Z</text>
</g>
<!-- Node21 -->
<g id="node21" class="node">
<title>Node21</title>
<g id="a_node21"><a xlink:href="classirr_1_1core_1_1vector3d.html" target="_top" xlink:title="3d vector template class with lots of operators and methods.">
<polygon fill="white" stroke="black" points="499,-54.5 499,-73.5 630,-73.5 630,-54.5 499,-54.5"/>
<text text-anchor="middle" x="564.5" y="-61.5" font-family="Helvetica,sans-Serif" font-size="10.00">irr::core::vector3d&lt; T &gt;</text>
</a>
</g>
</g>
<!-- Node21&#45;&gt;Node19 -->
<g id="edge25" class="edge">
<title>Node21&#45;&gt;Node19</title>
<path fill="none" stroke="orange" stroke-dasharray="5,2" d="M640.27,-64.74C665.79,-64.99 693.71,-65.27 716.87,-65.5"/>
<polygon fill="orange" stroke="orange" points="640.28,-61.24 630.25,-64.64 640.21,-68.24 640.28,-61.24"/>
<text text-anchor="middle" x="673.5" y="-69" font-family="Helvetica,sans-Serif" font-size="10.00"> &lt; s16 &gt;</text>
</g>
<!-- Node22 -->
<g id="node22" class="node">
<title>Node22</title>
<g id="a_node22"><a xlink:title=" ">
<polygon fill="white" stroke="#bfbfbf" points="306,-52.5 306,-71.5 335,-71.5 335,-52.5 306,-52.5"/>
<text text-anchor="middle" x="320.5" y="-59.5" font-family="Helvetica,sans-Serif" font-size="10.00">T</text>
</a>
</g>
</g>
<!-- Node22&#45;&gt;Node21 -->
<g id="edge26" class="edge">
<title>Node22&#45;&gt;Node21</title>
<path fill="none" stroke="#9a32cd" stroke-dasharray="5,2" d="M345.46,-62.11C376.66,-62.26 432.91,-62.56 481,-63 486.73,-63.05 492.68,-63.11 498.65,-63.18"/>
<polygon fill="#9a32cd" stroke="#9a32cd" points="345.17,-58.61 335.16,-62.06 345.14,-65.61 345.17,-58.61"/>
<text text-anchor="middle" x="435.5" y="-88" font-family="Helvetica,sans-Serif" font-size="10.00"> X</text>
<text text-anchor="middle" x="435.5" y="-77" font-family="Helvetica,sans-Serif" font-size="10.00">Y</text>
<text text-anchor="middle" x="435.5" y="-66" font-family="Helvetica,sans-Serif" font-size="10.00">Z</text>
</g>
</g>
</svg>
        <g id="navigator" transform="translate(0 0)" fill="#404254">
                <rect fill="#f2f5e9" fill-opacity="0.5" stroke="#606060" stroke-width=".5" x="0" y="0" width="60" height="60"/>
                <use id="zoomplus" xlink:href="#zoomPlus" x="17" y="9" onmousedown="handleZoom(evt,'in')"/>
                <use id="zoomminus" xlink:href="#zoomMin" x="42" y="9" onmousedown="handleZoom(evt,'out')"/>
                <use id="reset" xlink:href="#resetDef" x="30" y="36" onmousedown="handleReset()"/>
                <g id="arrowUp" xlink:href="#dirArrow" transform="translate(30 24)" onmousedown="handlePan(0,-1)">
                  <use xlink:href="#rim" fill="#404040">
                        <set attributeName="fill" to="#808080" begin="arrowUp.mouseover" end="arrowUp.mouseout"/>
                  </use>
                  <path fill="none" stroke="white" stroke-width="1.5" d="M0,-3.0v7 M-2.5,-0.5L0,-3.0L2.5,-0.5"/>
                </g>
                <g id="arrowRight" xlink:href="#dirArrow" transform="rotate(90) translate(36 -43)" onmousedown="handlePan(1,0)">
                  <use xlink:href="#rim" fill="#404040">
                        <set attributeName="fill" to="#808080" begin="arrowRight.mouseover" end="arrowRight.mouseout"/>
                  </use>
                  <path fill="none" stroke="white" stroke-width="1.5" d="M0,-3.0v7 M-2.5,-0.5L0,-3.0L2.5,-0.5"/>
                </g>
                <g id="arrowDown" xlink:href="#dirArrow" transform="rotate(180) translate(-30 -48)" onmousedown="handlePan(0,1)">
                  <use xlink:href="#rim" fill="#404040">
                        <set attributeName="fill" to="#808080" begin="arrowDown.mouseover" end="arrowDown.mouseout"/>
                  </use>
                  <path fill="none" stroke="white" stroke-width="1.5" d="M0,-3.0v7 M-2.5,-0.5L0,-3.0L2.5,-0.5"/>
                </g>
                <g id="arrowLeft" xlink:href="#dirArrow" transform="rotate(270) translate(-36 17)" onmousedown="handlePan(-1,0)">
                  <use xlink:href="#rim" fill="#404040">
                        <set attributeName="fill" to="#808080" begin="arrowLeft.mouseover" end="arrowLeft.mouseout"/>
                  </use>
                  <path fill="none" stroke="white" stroke-width="1.5" d="M0,-3.0v7 M-2.5,-0.5L0,-3.0L2.5,-0.5"/>
                </g>
        </g>
        <svg viewBox="0 0 15 15" width="100%" height="30px" preserveAspectRatio="xMaxYMin meet">
         <g id="arrow_out" transform="scale(0.3 0.3)">
          <a xlink:href="structRollbackAction__coll__graph_org.svg" target="_base">
           <rect id="button" ry="5" rx="5" y="6" x="6" height="38" width="38"
                fill="#f2f5e9" fill-opacity="0.5" stroke="#606060" stroke-width="1.0"/>
           <path id="arrow"
             d="M 11.500037,31.436501 C 11.940474,20.09759 22.043105,11.32322 32.158766,21.979434 L 37.068811,17.246167 C 37.068811,17.246167 37.088388,32 37.088388,32 L 22.160133,31.978069 C 22.160133,31.978069 26.997745,27.140456 26.997745,27.140456 C 18.528582,18.264221 13.291696,25.230495 11.500037,31.436501 z"
             style="fill:#404040;"/>
          </a>
         </g>
        </svg>
</svg>
