<?xml version="1.0" encoding="UTF-8" standalone="no"?>
<!DOCTYPE svg PUBLIC "-//W3C//DTD SVG 1.1//EN"
 "http://www.w3.org/Graphics/SVG/1.1/DTD/svg11.dtd">
<!-- Generated by graphviz version 2.43.0 (0)
 -->
<!-- Title: QuicktuneValue Pages: 1 -->
<svg width="501pt" height="128pt"
 viewBox="0.00 0.00 501.00 128.00" xmlns="http://www.w3.org/2000/svg" xmlns:xlink="http://www.w3.org/1999/xlink">
<g id="graph0" class="graph" transform="scale(1 1) rotate(0) translate(4 124)">
<title>QuicktuneValue</title>
<polygon fill="white" stroke="transparent" points="-4,4 -4,-124 497,-124 497,4 -4,4"/>
<!-- Node1 -->
<g id="node1" class="node">
<title>Node1</title>
<g id="a_node1"><a xlink:title=" ">
<polygon fill="#bfbfbf" stroke="black" points="146.5,-0.5 146.5,-19.5 239.5,-19.5 239.5,-0.5 146.5,-0.5"/>
<text text-anchor="middle" x="193" y="-7.5" font-family="Helvetica,sans-Serif" font-size="10.00">QuicktuneValue</text>
</a>
</g>
</g>
<!-- Node2 -->
<g id="node2" class="node">
<title>Node2</title>
<g id="a_node2"><a xlink:title=" ">
<polygon fill="white" stroke="#bfbfbf" points="0,-95 0,-114 98,-114 98,-95 0,-95"/>
<text text-anchor="middle" x="49" y="-102" font-family="Helvetica,sans-Serif" font-size="10.00">anonymous:@55</text>
</a>
</g>
</g>
<!-- Node2&#45;&gt;Node1 -->
<g id="edge1" class="edge">
<title>Node2&#45;&gt;Node1</title>
<path fill="none" stroke="#9a32cd" stroke-dasharray="5,2" d="M60.98,-86.75C72.33,-72.01 90.64,-50.92 111,-38 124.03,-29.73 139.85,-23.74 154.11,-19.54"/>
<polygon fill="#9a32cd" stroke="#9a32cd" points="58.02,-84.87 54.86,-94.99 63.63,-89.05 58.02,-84.87"/>
<text text-anchor="middle" x="123.5" y="-52" font-family="Helvetica,sans-Serif" font-size="10.00"> @55</text>
</g>
<!-- Node3 -->
<g id="node3" class="node">
<title>Node3</title>
<g id="a_node3"><a xlink:title=" ">
<polygon fill="white" stroke="#bfbfbf" points="116,-95 116,-114 154,-114 154,-95 116,-95"/>
<text text-anchor="middle" x="135" y="-102" font-family="Helvetica,sans-Serif" font-size="10.00">float</text>
</a>
</g>
</g>
<!-- Node3&#45;&gt;Node1 -->
<g id="edge2" class="edge">
<title>Node3&#45;&gt;Node1</title>
<path fill="none" stroke="#9a32cd" stroke-dasharray="5,2" d="M136.65,-84.67C138.66,-70.69 143.12,-51.76 153,-38 158.57,-30.24 167.11,-24.04 174.87,-19.54"/>
<polygon fill="#9a32cd" stroke="#9a32cd" points="133.17,-84.28 135.5,-94.62 140.13,-85.08 133.17,-84.28"/>
<text text-anchor="middle" x="170.5" y="-63" font-family="Helvetica,sans-Serif" font-size="10.00"> min</text>
<text text-anchor="middle" x="170.5" y="-52" font-family="Helvetica,sans-Serif" font-size="10.00">current</text>
<text text-anchor="middle" x="170.5" y="-41" font-family="Helvetica,sans-Serif" font-size="10.00">max</text>
</g>
<!-- Node4 -->
<g id="node4" class="node">
<title>Node4</title>
<g id="a_node4"><a xlink:href="classbool.html" target="_top" xlink:title=" ">
<polygon fill="white" stroke="black" points="173,-95 173,-114 211,-114 211,-95 173,-95"/>
<text text-anchor="middle" x="192" y="-102" font-family="Helvetica,sans-Serif" font-size="10.00">bool</text>
</a>
</g>
</g>
<!-- Node4&#45;&gt;Node1 -->
<g id="edge3" class="edge">
<title>Node4&#45;&gt;Node1</title>
<path fill="none" stroke="#9a32cd" stroke-dasharray="5,2" d="M192.2,-84.94C192.42,-65.04 192.75,-34.3 192.91,-19.52"/>
<polygon fill="#9a32cd" stroke="#9a32cd" points="188.7,-84.93 192.09,-94.96 195.7,-85 188.7,-84.93"/>
<text text-anchor="middle" x="215" y="-52" font-family="Helvetica,sans-Serif" font-size="10.00"> modified</text>
</g>
<!-- Node5 -->
<g id="node5" class="node">
<title>Node5</title>
<g id="a_node5"><a xlink:title=" ">
<polygon fill="white" stroke="#bfbfbf" points="229.5,-89.5 229.5,-119.5 358.5,-119.5 358.5,-89.5 229.5,-89.5"/>
<text text-anchor="start" x="237.5" y="-107.5" font-family="Helvetica,sans-Serif" font-size="10.00">anonymous:value_QVT</text>
<text text-anchor="middle" x="294" y="-96.5" font-family="Helvetica,sans-Serif" font-size="10.00">_FLOAT</text>
</a>
</g>
</g>
<!-- Node5&#45;&gt;Node1 -->
<g id="edge4" class="edge">
<title>Node5&#45;&gt;Node1</title>
<path fill="none" stroke="#9a32cd" stroke-dasharray="5,2" d="M279.54,-81.01C270.02,-67.42 256.65,-50.38 242,-38 233.25,-30.6 222.15,-24.29 212.73,-19.63"/>
<polygon fill="#9a32cd" stroke="#9a32cd" points="276.7,-83.06 285.21,-89.37 282.49,-79.13 276.7,-83.06"/>
<text text-anchor="middle" x="317" y="-52" font-family="Helvetica,sans-Serif" font-size="10.00"> value_QVT_FLOAT</text>
</g>
<!-- Node6 -->
<g id="node6" class="node">
<title>Node6</title>
<g id="a_node6"><a xlink:title=" ">
<polygon fill="white" stroke="#bfbfbf" points="377,-95 377,-114 493,-114 493,-95 377,-95"/>
<text text-anchor="middle" x="435" y="-102" font-family="Helvetica,sans-Serif" font-size="10.00">QuicktuneValueType</text>
</a>
</g>
</g>
<!-- Node6&#45;&gt;Node1 -->
<g id="edge5" class="edge">
<title>Node6&#45;&gt;Node1</title>
<path fill="none" stroke="#9a32cd" stroke-dasharray="5,2" d="M422.74,-86.86C410.45,-71.52 390.08,-49.44 367,-38 327.01,-18.17 276.04,-12.18 239.62,-10.69"/>
<polygon fill="#9a32cd" stroke="#9a32cd" points="420.12,-89.2 429,-94.99 425.67,-84.93 420.12,-89.2"/>
<text text-anchor="middle" x="420.5" y="-52" font-family="Helvetica,sans-Serif" font-size="10.00"> type</text>
</g>
</g>
</svg>
