<?xml version="1.0" encoding="UTF-8" standalone="no"?>
<!DOCTYPE svg PUBLIC "-//W3C//DTD SVG 1.1//EN"
 "http://www.w3.org/Graphics/SVG/1.1/DTD/svg11.dtd">
<!-- Generated by graphviz version 2.43.0 (0)
 -->
<!-- Title: irr::scene::SViewFrustum Pages: 1 -->
<!--zoomable 245 -->
<svg id="main" version="1.1" xmlns="http://www.w3.org/2000/svg" xmlns:xlink="http://www.w3.org/1999/xlink" xml:space="preserve" onload="init(evt)">
<style type="text/css"><![CDATA[
.edge:hover path { stroke: red; }
.edge:hover polygon { stroke: red; fill: red; }
]]></style>
<script type="text/javascript"><![CDATA[
var edges = document.getElementsByTagName('g');
if (edges && edges.length) {
  for (var i=0;i<edges.length;i++) {
    if (edges[i].id.substr(0,4)=='edge') {
      edges[i].setAttribute('class','edge');
    }
  }
}
]]></script>
        <defs>
                <circle id="rim" cx="0" cy="0" r="7"/>
                <circle id="rim2" cx="0" cy="0" r="3.5"/>
                <g id="zoomPlus">
                        <use xlink:href="#rim" fill="#404040">
                                <set attributeName="fill" to="#808080" begin="zoomplus.mouseover" end="zoomplus.mouseout"/>
                        </use>
                        <path d="M-4,0h8M0,-4v8" fill="none" stroke="white" stroke-width="1.5" pointer-events="none"/>
                </g>
                <g id="zoomMin">
                        <use xlink:href="#rim" fill="#404040">
                                <set attributeName="fill" to="#808080" begin="zoomminus.mouseover" end="zoomminus.mouseout"/>
                        </use>
                        <path d="M-4,0h8" fill="none" stroke="white" stroke-width="1.5" pointer-events="none"/>
                </g>
                <g id="dirArrow">
                        <path fill="none" stroke="white" stroke-width="1.5" d="M0,-3.0v7 M-2.5,-0.5L0,-3.0L2.5,-0.5"/>
                </g>
               <g id="resetDef">
                       <use xlink:href="#rim2" fill="#404040">
                               <set attributeName="fill" to="#808080" begin="reset.mouseover" end="reset.mouseout"/>
                       </use>
               </g>
        </defs>

<script type="text/javascript">
var viewWidth = 899;
var viewHeight = 245;
var sectionId = 'dynsection-0';
</script>
<script xlink:href="svgpan.js"/>
<svg id="graph" class="graph">
<g id="viewport">
<title>irr::scene::SViewFrustum</title>
<polygon fill="white" stroke="transparent" points="-4,4 -4,-241 895,-241 895,4 -4,4"/>
<!-- Node1 -->
<g id="node1" class="node">
<title>Node1</title>
<g id="a_node1"><a xlink:title="Defines the view frustum. That&#39;s the space visible by the camera.">
<polygon fill="#bfbfbf" stroke="black" points="754,-107.5 754,-126.5 891,-126.5 891,-107.5 754,-107.5"/>
<text text-anchor="middle" x="822.5" y="-114.5" font-family="Helvetica,sans-Serif" font-size="10.00">irr::scene::SViewFrustum</text>
</a>
</g>
</g>
<!-- Node2 -->
<g id="node2" class="node">
<title>Node2</title>
<g id="a_node2"><a xlink:href="classirr_1_1core_1_1plane3d.html" target="_top" xlink:title=" ">
<polygon fill="white" stroke="black" points="547.5,-102 547.5,-132 646.5,-132 646.5,-102 547.5,-102"/>
<text text-anchor="start" x="555.5" y="-120" font-family="Helvetica,sans-Serif" font-size="10.00">irr::core::plane3d</text>
<text text-anchor="middle" x="597" y="-109" font-family="Helvetica,sans-Serif" font-size="10.00">&lt; f32 &gt;</text>
</a>
</g>
</g>
<!-- Node2&#45;&gt;Node1 -->
<g id="edge1" class="edge">
<title>Node2&#45;&gt;Node1</title>
<path fill="none" stroke="#9a32cd" stroke-dasharray="5,2" d="M657,-117C686.72,-117 722.9,-117 753.76,-117"/>
<polygon fill="#9a32cd" stroke="#9a32cd" points="656.77,-113.5 646.77,-117 656.77,-120.5 656.77,-113.5"/>
<text text-anchor="middle" x="702.5" y="-120" font-family="Helvetica,sans-Serif" font-size="10.00"> planes</text>
</g>
<!-- Node3 -->
<g id="node3" class="node">
<title>Node3</title>
<g id="a_node3"><a xlink:href="classirr_1_1core_1_1vector3d.html" target="_top" xlink:title=" ">
<polygon fill="white" stroke="black" points="305,-148 305,-178 408,-178 408,-148 305,-148"/>
<text text-anchor="start" x="313" y="-166" font-family="Helvetica,sans-Serif" font-size="10.00">irr::core::vector3d</text>
<text text-anchor="middle" x="356.5" y="-155" font-family="Helvetica,sans-Serif" font-size="10.00">&lt; f32 &gt;</text>
</a>
</g>
</g>
<!-- Node3&#45;&gt;Node1 -->
<g id="edge10" class="edge">
<title>Node3&#45;&gt;Node1</title>
<path fill="none" stroke="#9a32cd" stroke-dasharray="5,2" d="M418.19,-163.06C450.03,-162.71 489.67,-161.68 525,-159 619.27,-151.86 642.53,-146.17 736,-132 746.88,-130.35 758.5,-128.42 769.57,-126.51"/>
<polygon fill="#9a32cd" stroke="#9a32cd" points="418.11,-159.56 408.14,-163.15 418.17,-166.56 418.11,-159.56"/>
<text text-anchor="middle" x="597" y="-171" font-family="Helvetica,sans-Serif" font-size="10.00"> cameraPosition</text>
<text text-anchor="middle" x="597" y="-160" font-family="Helvetica,sans-Serif" font-size="10.00">BoundingCenter</text>
</g>
<!-- Node3&#45;&gt;Node2 -->
<g id="edge2" class="edge">
<title>Node3&#45;&gt;Node2</title>
<path fill="none" stroke="#9a32cd" stroke-dasharray="5,2" d="M417.98,-151.34C457.98,-143.62 509.74,-133.64 547.12,-126.43"/>
<polygon fill="#9a32cd" stroke="#9a32cd" points="417.24,-147.91 408.08,-153.24 418.56,-154.79 417.24,-147.91"/>
<text text-anchor="middle" x="484" y="-148" font-family="Helvetica,sans-Serif" font-size="10.00"> Normal</text>
</g>
<!-- Node10 -->
<g id="node10" class="node">
<title>Node10</title>
<g id="a_node10"><a xlink:href="classirr_1_1core_1_1aabbox3d.html" target="_top" xlink:title=" ">
<polygon fill="white" stroke="black" points="543,-14 543,-44 651,-44 651,-14 543,-14"/>
<text text-anchor="start" x="551" y="-32" font-family="Helvetica,sans-Serif" font-size="10.00">irr::core::aabbox3d</text>
<text text-anchor="middle" x="597" y="-21" font-family="Helvetica,sans-Serif" font-size="10.00">&lt; f32 &gt;</text>
</a>
</g>
</g>
<!-- Node3&#45;&gt;Node10 -->
<g id="edge14" class="edge">
<title>Node3&#45;&gt;Node10</title>
<path fill="none" stroke="#9a32cd" stroke-dasharray="5,2" d="M410.49,-142.41C415.96,-138.61 420.98,-134.16 425,-129 447.65,-99.9 415.71,-72.81 443,-48 469.54,-23.87 510.21,-19.8 542.96,-21.39"/>
<polygon fill="#9a32cd" stroke="#9a32cd" points="408.28,-139.66 401.6,-147.88 411.95,-145.63 408.28,-139.66"/>
<text text-anchor="middle" x="484" y="-62" font-family="Helvetica,sans-Serif" font-size="10.00"> MinEdge</text>
<text text-anchor="middle" x="484" y="-51" font-family="Helvetica,sans-Serif" font-size="10.00">MaxEdge</text>
</g>
<!-- Node4 -->
<g id="node4" class="node">
<title>Node4</title>
<g id="a_node4"><a xlink:title=" ">
<polygon fill="white" stroke="#bfbfbf" points="121.5,-153.5 121.5,-172.5 159.5,-172.5 159.5,-153.5 121.5,-153.5"/>
<text text-anchor="middle" x="140.5" y="-160.5" font-family="Helvetica,sans-Serif" font-size="10.00">float</text>
</a>
</g>
</g>
<!-- Node4&#45;&gt;Node1 -->
<g id="edge11" class="edge">
<title>Node4&#45;&gt;Node1</title>
<path fill="none" stroke="#9a32cd" stroke-dasharray="5,2" d="M166.67,-177.64C182.54,-186.01 203.79,-195.68 224,-200 243.99,-204.28 249.56,-200.46 270,-200 439.46,-196.22 484.96,-217.06 651,-183 708.52,-171.2 771.95,-141.99 802.7,-126.69"/>
<polygon fill="#9a32cd" stroke="#9a32cd" points="168,-174.38 157.55,-172.66 164.65,-180.52 168,-174.38"/>
<text text-anchor="middle" x="484" y="-216" font-family="Helvetica,sans-Serif" font-size="10.00"> BoundingRadius</text>
<text text-anchor="middle" x="484" y="-205" font-family="Helvetica,sans-Serif" font-size="10.00">FarNearDistance</text>
</g>
<!-- Node4&#45;&gt;Node2 -->
<g id="edge6" class="edge">
<title>Node4&#45;&gt;Node2</title>
<path fill="none" stroke="#9a32cd" stroke-dasharray="5,2" d="M169.7,-154.49C198.97,-146.08 246.23,-133.68 288,-128 379.06,-115.62 486.57,-114.9 547.47,-115.77"/>
<polygon fill="#9a32cd" stroke="#9a32cd" points="168.4,-151.23 159.78,-157.39 170.36,-157.95 168.4,-151.23"/>
<text text-anchor="middle" x="356.5" y="-131" font-family="Helvetica,sans-Serif" font-size="10.00"> D</text>
</g>
<!-- Node4&#45;&gt;Node3 -->
<g id="edge3" class="edge">
<title>Node4&#45;&gt;Node3</title>
<path fill="none" stroke="#9a32cd" stroke-dasharray="5,2" d="M169.99,-163C204.27,-163 262.47,-163 304.56,-163"/>
<polygon fill="#9a32cd" stroke="#9a32cd" points="169.75,-159.5 159.75,-163 169.75,-166.5 169.75,-159.5"/>
<text text-anchor="middle" x="247" y="-188" font-family="Helvetica,sans-Serif" font-size="10.00"> X</text>
<text text-anchor="middle" x="247" y="-177" font-family="Helvetica,sans-Serif" font-size="10.00">Y</text>
<text text-anchor="middle" x="247" y="-166" font-family="Helvetica,sans-Serif" font-size="10.00">Z</text>
</g>
<!-- Node5 -->
<g id="node5" class="node">
<title>Node5</title>
<g id="a_node5"><a xlink:href="classirr_1_1core_1_1vector3d.html" target="_top" xlink:title="3d vector template class with lots of operators and methods.">
<polygon fill="white" stroke="black" points="75,-217.5 75,-236.5 206,-236.5 206,-217.5 75,-217.5"/>
<text text-anchor="middle" x="140.5" y="-224.5" font-family="Helvetica,sans-Serif" font-size="10.00">irr::core::vector3d&lt; T &gt;</text>
</a>
</g>
</g>
<!-- Node5&#45;&gt;Node3 -->
<g id="edge4" class="edge">
<title>Node5&#45;&gt;Node3</title>
<path fill="none" stroke="orange" stroke-dasharray="5,2" d="M208.97,-215.48C228.85,-211.38 250.49,-206.2 270,-200 288.65,-194.07 308.77,-185.48 324.81,-178.07"/>
<polygon fill="orange" stroke="orange" points="208.19,-212.07 199.07,-217.47 209.57,-218.93 208.19,-212.07"/>
<text text-anchor="middle" x="247" y="-215" font-family="Helvetica,sans-Serif" font-size="10.00"> &lt; f32 &gt;</text>
</g>
<!-- Node6 -->
<g id="node6" class="node">
<title>Node6</title>
<g id="a_node6"><a xlink:title=" ">
<polygon fill="white" stroke="#bfbfbf" points="0,-91.5 0,-110.5 29,-110.5 29,-91.5 0,-91.5"/>
<text text-anchor="middle" x="14.5" y="-98.5" font-family="Helvetica,sans-Serif" font-size="10.00">T</text>
</a>
</g>
</g>
<!-- Node6&#45;&gt;Node5 -->
<g id="edge5" class="edge">
<title>Node6&#45;&gt;Node5</title>
<path fill="none" stroke="#9a32cd" stroke-dasharray="5,2" d="M26.35,-119.13C37.28,-136.48 55.3,-162.77 75,-182 89.56,-196.21 109.02,-209.12 122.75,-217.43"/>
<polygon fill="#9a32cd" stroke="#9a32cd" points="29.27,-117.19 21.05,-110.51 23.31,-120.86 29.27,-117.19"/>
<text text-anchor="middle" x="52" y="-186" font-family="Helvetica,sans-Serif" font-size="10.00"> X</text>
<text text-anchor="middle" x="52" y="-175" font-family="Helvetica,sans-Serif" font-size="10.00">Y</text>
<text text-anchor="middle" x="52" y="-164" font-family="Helvetica,sans-Serif" font-size="10.00">Z</text>
</g>
<!-- Node7 -->
<g id="node7" class="node">
<title>Node7</title>
<g id="a_node7"><a xlink:href="classirr_1_1core_1_1plane3d.html" target="_top" xlink:title="Template plane class with some intersection testing methods.">
<polygon fill="white" stroke="black" points="292.5,-58.5 292.5,-77.5 420.5,-77.5 420.5,-58.5 292.5,-58.5"/>
<text text-anchor="middle" x="356.5" y="-65.5" font-family="Helvetica,sans-Serif" font-size="10.00">irr::core::plane3d&lt; T &gt;</text>
</a>
</g>
</g>
<!-- Node6&#45;&gt;Node7 -->
<g id="edge9" class="edge">
<title>Node6&#45;&gt;Node7</title>
<path fill="none" stroke="#9a32cd" stroke-dasharray="5,2" d="M39.47,-98.67C91.45,-93.63 215.99,-81.54 292.29,-74.13"/>
<polygon fill="#9a32cd" stroke="#9a32cd" points="38.86,-95.22 29.25,-99.67 39.54,-102.18 38.86,-95.22"/>
<text text-anchor="middle" x="140.5" y="-98" font-family="Helvetica,sans-Serif" font-size="10.00"> D</text>
</g>
<!-- Node7&#45;&gt;Node2 -->
<g id="edge7" class="edge">
<title>Node7&#45;&gt;Node2</title>
<path fill="none" stroke="orange" stroke-dasharray="5,2" d="M430.88,-73.18C460.44,-76.3 494.65,-81.24 525,-89 537.71,-92.25 551.21,-97.17 562.98,-101.99"/>
<polygon fill="orange" stroke="orange" points="430.94,-69.67 420.64,-72.15 430.24,-76.63 430.94,-69.67"/>
<text text-anchor="middle" x="484" y="-92" font-family="Helvetica,sans-Serif" font-size="10.00"> &lt; f32 &gt;</text>
</g>
<!-- Node8 -->
<g id="node8" class="node">
<title>Node8</title>
<g id="a_node8"><a xlink:title=" ">
<polygon fill="white" stroke="#bfbfbf" points="96.5,-17.5 96.5,-36.5 184.5,-36.5 184.5,-17.5 96.5,-17.5"/>
<text text-anchor="middle" x="140.5" y="-24.5" font-family="Helvetica,sans-Serif" font-size="10.00">vector3d&lt; T &gt;</text>
</a>
</g>
</g>
<!-- Node8&#45;&gt;Node7 -->
<g id="edge8" class="edge">
<title>Node8&#45;&gt;Node7</title>
<path fill="none" stroke="#9a32cd" stroke-dasharray="5,2" d="M194.76,-37.2C228.74,-43.71 272.49,-52.1 305.77,-58.47"/>
<polygon fill="#9a32cd" stroke="#9a32cd" points="195.03,-33.69 184.55,-35.25 193.71,-40.57 195.03,-33.69"/>
<text text-anchor="middle" x="247" y="-54" font-family="Helvetica,sans-Serif" font-size="10.00"> Normal</text>
</g>
<!-- Node11 -->
<g id="node11" class="node">
<title>Node11</title>
<g id="a_node11"><a xlink:href="classirr_1_1core_1_1aabbox3d.html" target="_top" xlink:title="Axis aligned bounding box in 3d dimensional space.">
<polygon fill="white" stroke="black" points="288,-0.5 288,-19.5 425,-19.5 425,-0.5 288,-0.5"/>
<text text-anchor="middle" x="356.5" y="-7.5" font-family="Helvetica,sans-Serif" font-size="10.00">irr::core::aabbox3d&lt; T &gt;</text>
</a>
</g>
</g>
<!-- Node8&#45;&gt;Node11 -->
<g id="edge16" class="edge">
<title>Node8&#45;&gt;Node11</title>
<path fill="none" stroke="#9a32cd" stroke-dasharray="5,2" d="M194.61,-17.62C204.36,-16.19 214.46,-14.89 224,-14 244.69,-12.06 267.29,-11 287.83,-10.43"/>
<polygon fill="#9a32cd" stroke="#9a32cd" points="193.97,-14.18 184.62,-19.16 195.03,-21.1 193.97,-14.18"/>
<text text-anchor="middle" x="247" y="-28" font-family="Helvetica,sans-Serif" font-size="10.00"> MinEdge</text>
<text text-anchor="middle" x="247" y="-17" font-family="Helvetica,sans-Serif" font-size="10.00">MaxEdge</text>
</g>
<!-- Node9 -->
<g id="node9" class="node">
<title>Node9</title>
<g id="a_node9"><a xlink:title=" ">
<polygon fill="white" stroke="#bfbfbf" points="547.5,-63.5 547.5,-82.5 646.5,-82.5 646.5,-63.5 547.5,-63.5"/>
<text text-anchor="middle" x="597" y="-70.5" font-family="Helvetica,sans-Serif" font-size="10.00">CMatrix4&lt; f32 &gt;</text>
</a>
</g>
</g>
<!-- Node9&#45;&gt;Node1 -->
<g id="edge12" class="edge">
<title>Node9&#45;&gt;Node1</title>
<path fill="none" stroke="#9a32cd" stroke-dasharray="5,2" d="M656.46,-84.51C692.76,-91.65 738.85,-100.73 773.1,-107.47"/>
<polygon fill="#9a32cd" stroke="#9a32cd" points="656.98,-81.04 646.5,-82.55 655.63,-87.91 656.98,-81.04"/>
<text text-anchor="middle" x="702.5" y="-101" font-family="Helvetica,sans-Serif" font-size="10.00"> Matrices</text>
</g>
<!-- Node10&#45;&gt;Node1 -->
<g id="edge13" class="edge">
<title>Node10&#45;&gt;Node1</title>
<path fill="none" stroke="#9a32cd" stroke-dasharray="5,2" d="M660.88,-45.96C684.75,-53.08 711.96,-62.03 736,-72 761.1,-82.41 788.67,-97.67 805.53,-107.47"/>
<polygon fill="#9a32cd" stroke="#9a32cd" points="661.81,-42.58 651.23,-43.12 659.83,-49.3 661.81,-42.58"/>
<text text-anchor="middle" x="702.5" y="-75" font-family="Helvetica,sans-Serif" font-size="10.00"> boundingBox</text>
</g>
<!-- Node11&#45;&gt;Node10 -->
<g id="edge15" class="edge">
<title>Node11&#45;&gt;Node10</title>
<path fill="none" stroke="orange" stroke-dasharray="5,2" d="M435.26,-5.79C463.61,-5.36 495.86,-6.17 525,-10 531.96,-10.91 539.2,-12.31 546.29,-13.95"/>
<polygon fill="orange" stroke="orange" points="434.93,-2.3 425,-6 435.07,-9.29 434.93,-2.3"/>
<text text-anchor="middle" x="484" y="-13" font-family="Helvetica,sans-Serif" font-size="10.00"> &lt; f32 &gt;</text>
</g>
</g>
</svg>
        <g id="navigator" transform="translate(0 0)" fill="#404254">
                <rect fill="#f2f5e9" fill-opacity="0.5" stroke="#606060" stroke-width=".5" x="0" y="0" width="60" height="60"/>
                <use id="zoomplus" xlink:href="#zoomPlus" x="17" y="9" onmousedown="handleZoom(evt,'in')"/>
                <use id="zoomminus" xlink:href="#zoomMin" x="42" y="9" onmousedown="handleZoom(evt,'out')"/>
                <use id="reset" xlink:href="#resetDef" x="30" y="36" onmousedown="handleReset()"/>
                <g id="arrowUp" xlink:href="#dirArrow" transform="translate(30 24)" onmousedown="handlePan(0,-1)">
                  <use xlink:href="#rim" fill="#404040">
                        <set attributeName="fill" to="#808080" begin="arrowUp.mouseover" end="arrowUp.mouseout"/>
                  </use>
                  <path fill="none" stroke="white" stroke-width="1.5" d="M0,-3.0v7 M-2.5,-0.5L0,-3.0L2.5,-0.5"/>
                </g>
                <g id="arrowRight" xlink:href="#dirArrow" transform="rotate(90) translate(36 -43)" onmousedown="handlePan(1,0)">
                  <use xlink:href="#rim" fill="#404040">
                        <set attributeName="fill" to="#808080" begin="arrowRight.mouseover" end="arrowRight.mouseout"/>
                  </use>
                  <path fill="none" stroke="white" stroke-width="1.5" d="M0,-3.0v7 M-2.5,-0.5L0,-3.0L2.5,-0.5"/>
                </g>
                <g id="arrowDown" xlink:href="#dirArrow" transform="rotate(180) translate(-30 -48)" onmousedown="handlePan(0,1)">
                  <use xlink:href="#rim" fill="#404040">
                        <set attributeName="fill" to="#808080" begin="arrowDown.mouseover" end="arrowDown.mouseout"/>
                  </use>
                  <path fill="none" stroke="white" stroke-width="1.5" d="M0,-3.0v7 M-2.5,-0.5L0,-3.0L2.5,-0.5"/>
                </g>
                <g id="arrowLeft" xlink:href="#dirArrow" transform="rotate(270) translate(-36 17)" onmousedown="handlePan(-1,0)">
                  <use xlink:href="#rim" fill="#404040">
                        <set attributeName="fill" to="#808080" begin="arrowLeft.mouseover" end="arrowLeft.mouseout"/>
                  </use>
                  <path fill="none" stroke="white" stroke-width="1.5" d="M0,-3.0v7 M-2.5,-0.5L0,-3.0L2.5,-0.5"/>
                </g>
        </g>
        <svg viewBox="0 0 15 15" width="100%" height="30px" preserveAspectRatio="xMaxYMin meet">
         <g id="arrow_out" transform="scale(0.3 0.3)">
          <a xlink:href="structirr_1_1scene_1_1SViewFrustum__coll__graph_org.svg" target="_base">
           <rect id="button" ry="5" rx="5" y="6" x="6" height="38" width="38"
                fill="#f2f5e9" fill-opacity="0.5" stroke="#606060" stroke-width="1.0"/>
           <path id="arrow"
             d="M 11.500037,31.436501 C 11.940474,20.09759 22.043105,11.32322 32.158766,21.979434 L 37.068811,17.246167 C 37.068811,17.246167 37.088388,32 37.088388,32 L 22.160133,31.978069 C 22.160133,31.978069 26.997745,27.140456 26.997745,27.140456 C 18.528582,18.264221 13.291696,25.230495 11.500037,31.436501 z"
             style="fill:#404040;"/>
          </a>
         </g>
        </svg>
</svg>
