<?xml version="1.0" encoding="UTF-8" standalone="no"?>
<!DOCTYPE svg PUBLIC "-//W3C//DTD SVG 1.1//EN"
 "http://www.w3.org/Graphics/SVG/1.1/DTD/svg11.dtd">
<!-- Generated by graphviz version 2.43.0 (0)
 -->
<!-- Title: GenNotifyEvent Pages: 1 -->
<svg width="353pt" height="284pt"
 viewBox="0.00 0.00 352.50 284.00" xmlns="http://www.w3.org/2000/svg" xmlns:xlink="http://www.w3.org/1999/xlink">
<g id="graph0" class="graph" transform="scale(1 1) rotate(0) translate(4 280)">
<title>GenNotifyEvent</title>
<polygon fill="white" stroke="transparent" points="-4,4 -4,-280 348.5,-280 348.5,4 -4,4"/>
<!-- Node1 -->
<g id="node1" class="node">
<title>Node1</title>
<g id="a_node1"><a xlink:title=" ">
<polygon fill="#bfbfbf" stroke="black" points="77.5,-0.5 77.5,-19.5 170.5,-19.5 170.5,-0.5 77.5,-0.5"/>
<text text-anchor="middle" x="124" y="-7.5" font-family="Helvetica,sans-Serif" font-size="10.00">GenNotifyEvent</text>
</a>
</g>
</g>
<!-- Node2 -->
<g id="node2" class="node">
<title>Node2</title>
<g id="a_node2"><a xlink:title=" ">
<polygon fill="white" stroke="#bfbfbf" points="0,-73 0,-92 88,-92 88,-73 0,-73"/>
<text text-anchor="middle" x="44" y="-80" font-family="Helvetica,sans-Serif" font-size="10.00">GenNotifyType</text>
</a>
</g>
</g>
<!-- Node2&#45;&gt;Node1 -->
<g id="edge1" class="edge">
<title>Node2&#45;&gt;Node1</title>
<path fill="none" stroke="#9a32cd" stroke-dasharray="5,2" d="M61.49,-66.08C77.62,-51.87 100.99,-31.27 114.11,-19.72"/>
<polygon fill="#9a32cd" stroke="#9a32cd" points="59,-63.62 53.81,-72.86 63.63,-68.87 59,-63.62"/>
<text text-anchor="middle" x="104.5" y="-41" font-family="Helvetica,sans-Serif" font-size="10.00"> type</text>
</g>
<!-- Node3 -->
<g id="node3" class="node">
<title>Node3</title>
<g id="a_node3"><a xlink:title=" ">
<polygon fill="white" stroke="#bfbfbf" points="106.5,-73 106.5,-92 141.5,-92 141.5,-73 106.5,-73"/>
<text text-anchor="middle" x="124" y="-80" font-family="Helvetica,sans-Serif" font-size="10.00">u32</text>
</a>
</g>
</g>
<!-- Node3&#45;&gt;Node1 -->
<g id="edge2" class="edge">
<title>Node3&#45;&gt;Node1</title>
<path fill="none" stroke="#9a32cd" stroke-dasharray="5,2" d="M124,-62.44C124,-48.53 124,-30.32 124,-19.72"/>
<polygon fill="#9a32cd" stroke="#9a32cd" points="120.5,-62.86 124,-72.86 127.5,-62.86 120.5,-62.86"/>
<text text-anchor="middle" x="130.5" y="-41" font-family="Helvetica,sans-Serif" font-size="10.00"> id</text>
</g>
<!-- Node4 -->
<g id="node4" class="node">
<title>Node4</title>
<g id="a_node4"><a xlink:href="classirr_1_1core_1_1vector3d.html" target="_top" xlink:title=" ">
<polygon fill="white" stroke="black" points="159.5,-67.5 159.5,-97.5 262.5,-97.5 262.5,-67.5 159.5,-67.5"/>
<text text-anchor="start" x="167.5" y="-85.5" font-family="Helvetica,sans-Serif" font-size="10.00">irr::core::vector3d</text>
<text text-anchor="middle" x="211" y="-74.5" font-family="Helvetica,sans-Serif" font-size="10.00">&lt; s16 &gt;</text>
</a>
</g>
</g>
<!-- Node4&#45;&gt;Node1 -->
<g id="edge3" class="edge">
<title>Node4&#45;&gt;Node1</title>
<path fill="none" stroke="#9a32cd" stroke-dasharray="5,2" d="M185.56,-60.88C168.76,-47.27 147.6,-30.13 134.97,-19.89"/>
<polygon fill="#9a32cd" stroke="#9a32cd" points="183.42,-63.66 193.39,-67.23 187.83,-58.22 183.42,-63.66"/>
<text text-anchor="middle" x="181.5" y="-41" font-family="Helvetica,sans-Serif" font-size="10.00"> pos</text>
</g>
<!-- Node5 -->
<g id="node5" class="node">
<title>Node5</title>
<g id="a_node5"><a xlink:title=" ">
<polygon fill="white" stroke="#bfbfbf" points="161,-167.5 161,-186.5 195,-186.5 195,-167.5 161,-167.5"/>
<text text-anchor="middle" x="178" y="-174.5" font-family="Helvetica,sans-Serif" font-size="10.00">s16</text>
</a>
</g>
</g>
<!-- Node5&#45;&gt;Node4 -->
<g id="edge4" class="edge">
<title>Node5&#45;&gt;Node4</title>
<path fill="none" stroke="#9a32cd" stroke-dasharray="5,2" d="M184.5,-157.79C190.78,-140.17 200.18,-113.82 205.93,-97.7"/>
<polygon fill="#9a32cd" stroke="#9a32cd" points="181.11,-156.87 181.05,-167.46 187.7,-159.22 181.11,-156.87"/>
<text text-anchor="middle" x="205" y="-141" font-family="Helvetica,sans-Serif" font-size="10.00"> X</text>
<text text-anchor="middle" x="205" y="-130" font-family="Helvetica,sans-Serif" font-size="10.00">Y</text>
<text text-anchor="middle" x="205" y="-119" font-family="Helvetica,sans-Serif" font-size="10.00">Z</text>
</g>
<!-- Node6 -->
<g id="node6" class="node">
<title>Node6</title>
<g id="a_node6"><a xlink:href="classirr_1_1core_1_1vector3d.html" target="_top" xlink:title="3d vector template class with lots of operators and methods.">
<polygon fill="white" stroke="black" points="213.5,-167.5 213.5,-186.5 344.5,-186.5 344.5,-167.5 213.5,-167.5"/>
<text text-anchor="middle" x="279" y="-174.5" font-family="Helvetica,sans-Serif" font-size="10.00">irr::core::vector3d&lt; T &gt;</text>
</a>
</g>
</g>
<!-- Node6&#45;&gt;Node4 -->
<g id="edge5" class="edge">
<title>Node6&#45;&gt;Node4</title>
<path fill="none" stroke="orange" stroke-dasharray="5,2" d="M266.7,-159.26C253.76,-141.67 233.63,-114.28 221.44,-97.7"/>
<polygon fill="orange" stroke="orange" points="263.98,-161.48 272.72,-167.46 269.62,-157.33 263.98,-161.48"/>
<text text-anchor="middle" x="279.5" y="-130" font-family="Helvetica,sans-Serif" font-size="10.00"> &lt; s16 &gt;</text>
</g>
<!-- Node7 -->
<g id="node7" class="node">
<title>Node7</title>
<g id="a_node7"><a xlink:title=" ">
<polygon fill="white" stroke="#bfbfbf" points="264.5,-256.5 264.5,-275.5 293.5,-275.5 293.5,-256.5 264.5,-256.5"/>
<text text-anchor="middle" x="279" y="-263.5" font-family="Helvetica,sans-Serif" font-size="10.00">T</text>
</a>
</g>
</g>
<!-- Node7&#45;&gt;Node6 -->
<g id="edge6" class="edge">
<title>Node7&#45;&gt;Node6</title>
<path fill="none" stroke="#9a32cd" stroke-dasharray="5,2" d="M279,-246.19C279,-227.74 279,-200.41 279,-186.62"/>
<polygon fill="#9a32cd" stroke="#9a32cd" points="275.5,-246.34 279,-256.34 282.5,-246.34 275.5,-246.34"/>
<text text-anchor="middle" x="284" y="-230" font-family="Helvetica,sans-Serif" font-size="10.00"> X</text>
<text text-anchor="middle" x="284" y="-219" font-family="Helvetica,sans-Serif" font-size="10.00">Y</text>
<text text-anchor="middle" x="284" y="-208" font-family="Helvetica,sans-Serif" font-size="10.00">Z</text>
</g>
</g>
</svg>
