<?xml version="1.0" encoding="UTF-8" standalone="no"?>
<!DOCTYPE svg PUBLIC "-//W3C//DTD SVG 1.1//EN"
 "http://www.w3.org/Graphics/SVG/1.1/DTD/svg11.dtd">
<!-- Generated by graphviz version 2.43.0 (0)
 -->
<!-- Title: TileDef Pages: 1 -->
<svg width="565pt" height="301pt"
 viewBox="0.00 0.00 565.00 300.54" xmlns="http://www.w3.org/2000/svg" xmlns:xlink="http://www.w3.org/1999/xlink">
<g id="graph0" class="graph" transform="scale(1 1) rotate(0) translate(4 296.54)">
<title>TileDef</title>
<polygon fill="white" stroke="transparent" points="-4,4 -4,-296.54 561,-296.54 561,4 -4,4"/>
<!-- Node1 -->
<g id="node1" class="node">
<title>Node1</title>
<g id="a_node1"><a xlink:title=" ">
<polygon fill="#bfbfbf" stroke="black" points="505,-131.04 505,-150.04 557,-150.04 557,-131.04 505,-131.04"/>
<text text-anchor="middle" x="531" y="-138.04" font-family="Helvetica,sans-Serif" font-size="10.00">TileDef</text>
</a>
</g>
</g>
<!-- Node2 -->
<g id="node2" class="node">
<title>Node2</title>
<g id="a_node2"><a xlink:href="classirr_1_1video_1_1SColor.html" target="_top" xlink:title="Class representing a 32 bit ARGB color.">
<polygon fill="white" stroke="black" points="265.5,-255.04 265.5,-274.04 363.5,-274.04 363.5,-255.04 265.5,-255.04"/>
<text text-anchor="middle" x="314.5" y="-262.04" font-family="Helvetica,sans-Serif" font-size="10.00">irr::video::SColor</text>
</a>
</g>
</g>
<!-- Node2&#45;&gt;Node1 -->
<g id="edge1" class="edge">
<title>Node2&#45;&gt;Node1</title>
<path fill="none" stroke="#9a32cd" stroke-dasharray="5,2" d="M373.86,-259.04C409.63,-253.14 454.6,-240.91 487,-215.54 509.1,-198.24 521.86,-166.19 527.13,-150.18"/>
<polygon fill="#9a32cd" stroke="#9a32cd" points="372.92,-255.65 363.56,-260.61 373.98,-262.57 372.92,-255.65"/>
<text text-anchor="middle" x="440" y="-257.54" font-family="Helvetica,sans-Serif" font-size="10.00"> color</text>
</g>
<!-- Node3 -->
<g id="node3" class="node">
<title>Node3</title>
<g id="a_node3"><a xlink:title=" ">
<polygon fill="white" stroke="#bfbfbf" points="41,-273.04 41,-292.04 97,-292.04 97,-273.04 41,-273.04"/>
<text text-anchor="middle" x="69" y="-280.04" font-family="Helvetica,sans-Serif" font-size="10.00">uint32_t</text>
</a>
</g>
</g>
<!-- Node3&#45;&gt;Node2 -->
<g id="edge2" class="edge">
<title>Node3&#45;&gt;Node2</title>
<path fill="none" stroke="#9a32cd" stroke-dasharray="5,2" d="M107.62,-279.76C149.98,-276.63 218.9,-271.53 265.2,-268.11"/>
<polygon fill="#9a32cd" stroke="#9a32cd" points="107.17,-276.28 97.46,-280.51 107.69,-283.26 107.17,-276.28"/>
<text text-anchor="middle" x="196" y="-278.54" font-family="Helvetica,sans-Serif" font-size="10.00"> color</text>
</g>
<!-- Node4 -->
<g id="node4" class="node">
<title>Node4</title>
<g id="a_node4"><a xlink:title=" ">
<polygon fill="white" stroke="#bfbfbf" points="300,-199.04 300,-218.04 329,-218.04 329,-199.04 300,-199.04"/>
<text text-anchor="middle" x="314.5" y="-206.04" font-family="Helvetica,sans-Serif" font-size="10.00">u8</text>
</a>
</g>
</g>
<!-- Node4&#45;&gt;Node1 -->
<g id="edge3" class="edge">
<title>Node4&#45;&gt;Node1</title>
<path fill="none" stroke="#9a32cd" stroke-dasharray="5,2" d="M339.49,-207.6C373.72,-205.47 437.88,-198.47 487,-175.54 500.26,-169.35 512.93,-158.17 521.04,-150.11"/>
<polygon fill="#9a32cd" stroke="#9a32cd" points="338.89,-204.13 329.09,-208.16 339.26,-211.12 338.89,-204.13"/>
<text text-anchor="middle" x="440" y="-203.54" font-family="Helvetica,sans-Serif" font-size="10.00"> scale</text>
</g>
<!-- Node5 -->
<g id="node5" class="node">
<title>Node5</title>
<g id="a_node5"><a xlink:href="structTileAnimationParams.html" target="_top" xlink:title=" ">
<polygon fill="white" stroke="black" points="254,-151.04 254,-170.04 375,-170.04 375,-151.04 254,-151.04"/>
<text text-anchor="middle" x="314.5" y="-158.04" font-family="Helvetica,sans-Serif" font-size="10.00">TileAnimationParams</text>
</a>
</g>
</g>
<!-- Node5&#45;&gt;Node1 -->
<g id="edge4" class="edge">
<title>Node5&#45;&gt;Node1</title>
<path fill="none" stroke="#9a32cd" stroke-dasharray="5,2" d="M385.7,-160.83C416.89,-160.04 453.95,-157.85 487,-152.54 492.82,-151.61 498.97,-150.17 504.74,-148.61"/>
<polygon fill="#9a32cd" stroke="#9a32cd" points="385.29,-157.34 375.37,-161.05 385.44,-164.34 385.29,-157.34"/>
<text text-anchor="middle" x="440" y="-163.54" font-family="Helvetica,sans-Serif" font-size="10.00"> animation</text>
</g>
<!-- Node6 -->
<g id="node6" class="node">
<title>Node6</title>
<g id="a_node6"><a xlink:title=" ">
<polygon fill="white" stroke="#bfbfbf" points="12.5,-223.54 12.5,-253.54 125.5,-253.54 125.5,-223.54 12.5,-223.54"/>
<text text-anchor="start" x="20.5" y="-241.54" font-family="Helvetica,sans-Serif" font-size="10.00">anonymous:vertical</text>
<text text-anchor="middle" x="69" y="-230.54" font-family="Helvetica,sans-Serif" font-size="10.00">_frames</text>
</a>
</g>
</g>
<!-- Node6&#45;&gt;Node5 -->
<g id="edge5" class="edge">
<title>Node6&#45;&gt;Node5</title>
<path fill="none" stroke="#9a32cd" stroke-dasharray="5,2" d="M135.59,-225.57C166.49,-218.65 203.59,-209.14 236,-197.54 241.86,-195.44 273.06,-180.34 294.04,-170.09"/>
<polygon fill="#9a32cd" stroke="#9a32cd" points="134.8,-222.16 125.79,-227.73 136.31,-229 134.8,-222.16"/>
<text text-anchor="middle" x="196" y="-222.54" font-family="Helvetica,sans-Serif" font-size="10.00"> vertical_frames</text>
</g>
<!-- Node7 -->
<g id="node7" class="node">
<title>Node7</title>
<g id="a_node7"><a xlink:title=" ">
<polygon fill="white" stroke="#bfbfbf" points="8.5,-185.04 8.5,-204.04 129.5,-204.04 129.5,-185.04 8.5,-185.04"/>
<text text-anchor="middle" x="69" y="-192.04" font-family="Helvetica,sans-Serif" font-size="10.00">anonymous:sheet_2d</text>
</a>
</g>
</g>
<!-- Node7&#45;&gt;Node5 -->
<g id="edge6" class="edge">
<title>Node7&#45;&gt;Node5</title>
<path fill="none" stroke="#9a32cd" stroke-dasharray="5,2" d="M139.85,-185.63C169.51,-181.75 204.47,-177.07 236,-172.54 241.8,-171.71 247.83,-170.82 253.86,-169.91"/>
<polygon fill="#9a32cd" stroke="#9a32cd" points="139.05,-182.2 129.59,-186.96 139.96,-189.14 139.05,-182.2"/>
<text text-anchor="middle" x="196" y="-185.54" font-family="Helvetica,sans-Serif" font-size="10.00"> sheet_2d</text>
</g>
<!-- Node8 -->
<g id="node8" class="node">
<title>Node8</title>
<g id="a_node8"><a xlink:title=" ">
<polygon fill="white" stroke="#bfbfbf" points="0,-147.04 0,-166.04 138,-166.04 138,-147.04 0,-147.04"/>
<text text-anchor="middle" x="69" y="-154.04" font-family="Helvetica,sans-Serif" font-size="10.00">enum TileAnimationType</text>
</a>
</g>
</g>
<!-- Node8&#45;&gt;Node5 -->
<g id="edge7" class="edge">
<title>Node8&#45;&gt;Node5</title>
<path fill="none" stroke="#9a32cd" stroke-dasharray="5,2" d="M148.56,-157.83C182.67,-158.39 221.97,-159.04 253.65,-159.56"/>
<polygon fill="#9a32cd" stroke="#9a32cd" points="148.21,-154.32 138.15,-157.66 148.09,-161.32 148.21,-154.32"/>
<text text-anchor="middle" x="196" y="-161.54" font-family="Helvetica,sans-Serif" font-size="10.00"> type</text>
</g>
<!-- Node9 -->
<g id="node9" class="node">
<title>Node9</title>
<g id="a_node9"><a xlink:title=" ">
<polygon fill="white" stroke="#bfbfbf" points="50,-106.04 50,-125.04 88,-125.04 88,-106.04 50,-106.04"/>
<text text-anchor="middle" x="69" y="-113.04" font-family="Helvetica,sans-Serif" font-size="10.00">float</text>
</a>
</g>
</g>
<!-- Node9&#45;&gt;Node5 -->
<g id="edge8" class="edge">
<title>Node9&#45;&gt;Node5</title>
<path fill="none" stroke="#9a32cd" stroke-dasharray="5,2" d="M98.56,-116.03C131.92,-117.12 188.61,-120.59 236,-131.54 255.74,-136.1 277.24,-144.44 292.58,-151"/>
<polygon fill="#9a32cd" stroke="#9a32cd" points="98.27,-112.52 88.18,-115.74 98.08,-119.52 98.27,-112.52"/>
<text text-anchor="middle" x="196" y="-145.54" font-family="Helvetica,sans-Serif" font-size="10.00"> frame_length</text>
<text text-anchor="middle" x="196" y="-134.54" font-family="Helvetica,sans-Serif" font-size="10.00">length</text>
</g>
<!-- Node10 -->
<g id="node10" class="node">
<title>Node10</title>
<g id="a_node10"><a xlink:title=" ">
<polygon fill="white" stroke="#bfbfbf" points="54.5,-39.04 54.5,-58.04 83.5,-58.04 83.5,-39.04 54.5,-39.04"/>
<text text-anchor="middle" x="69" y="-46.04" font-family="Helvetica,sans-Serif" font-size="10.00">int</text>
</a>
</g>
</g>
<!-- Node10&#45;&gt;Node5 -->
<g id="edge9" class="edge">
<title>Node10&#45;&gt;Node5</title>
<path fill="none" stroke="#9a32cd" stroke-dasharray="5,2" d="M93.82,-44.58C129.17,-40.14 195.68,-37.49 236,-71.54 256.3,-88.68 237.06,-108.08 254,-128.54 262.3,-138.57 274.59,-145.92 285.85,-151.02"/>
<polygon fill="#9a32cd" stroke="#9a32cd" points="92.92,-41.18 83.51,-46.04 93.9,-48.11 92.92,-41.18"/>
<text text-anchor="middle" x="196" y="-107.54" font-family="Helvetica,sans-Serif" font-size="10.00"> frames_w</text>
<text text-anchor="middle" x="196" y="-96.54" font-family="Helvetica,sans-Serif" font-size="10.00">frames_h</text>
<text text-anchor="middle" x="196" y="-85.54" font-family="Helvetica,sans-Serif" font-size="10.00">aspect_w</text>
<text text-anchor="middle" x="196" y="-74.54" font-family="Helvetica,sans-Serif" font-size="10.00">aspect_h</text>
</g>
<!-- Node11 -->
<g id="node11" class="node">
<title>Node11</title>
<g id="a_node11"><a xlink:title=" ">
<polygon fill="white" stroke="#bfbfbf" points="20,-1.04 20,-20.04 118,-20.04 118,-1.04 20,-1.04"/>
<text text-anchor="middle" x="69" y="-8.04" font-family="Helvetica,sans-Serif" font-size="10.00">anonymous:@51</text>
</a>
</g>
</g>
<!-- Node11&#45;&gt;Node5 -->
<g id="edge10" class="edge">
<title>Node11&#45;&gt;Node5</title>
<path fill="none" stroke="#9a32cd" stroke-dasharray="5,2" d="M128.34,-0.82C163.87,1.6 207.73,-2.18 236,-28.54 269.03,-59.33 227.48,-91.99 254,-128.54 261.37,-138.7 272.97,-145.95 283.99,-150.96"/>
<polygon fill="#9a32cd" stroke="#9a32cd" points="127.74,2.64 118.08,-1.71 128.35,-4.34 127.74,2.64"/>
<text text-anchor="middle" x="196" y="-31.54" font-family="Helvetica,sans-Serif" font-size="10.00"> @51</text>
</g>
<!-- Node12 -->
<g id="node12" class="node">
<title>Node12</title>
<g id="a_node12"><a xlink:href="classbool.html" target="_top" xlink:title=" ">
<polygon fill="white" stroke="black" points="295.5,-100.04 295.5,-119.04 333.5,-119.04 333.5,-100.04 295.5,-100.04"/>
<text text-anchor="middle" x="314.5" y="-107.04" font-family="Helvetica,sans-Serif" font-size="10.00">bool</text>
</a>
</g>
</g>
<!-- Node12&#45;&gt;Node1 -->
<g id="edge11" class="edge">
<title>Node12&#45;&gt;Node1</title>
<path fill="none" stroke="#9a32cd" stroke-dasharray="5,2" d="M343.66,-102.54C378.49,-95.25 439.05,-87.12 487,-104.54 501.28,-109.73 514.12,-121.96 521.98,-130.73"/>
<polygon fill="#9a32cd" stroke="#9a32cd" points="342.72,-99.16 333.72,-104.74 344.24,-105.99 342.72,-99.16"/>
<text text-anchor="middle" x="440" y="-140.54" font-family="Helvetica,sans-Serif" font-size="10.00"> tileable_horizontal</text>
<text text-anchor="middle" x="440" y="-129.54" font-family="Helvetica,sans-Serif" font-size="10.00">tileable_vertical</text>
<text text-anchor="middle" x="440" y="-118.54" font-family="Helvetica,sans-Serif" font-size="10.00">backface_culling</text>
<text text-anchor="middle" x="440" y="-107.54" font-family="Helvetica,sans-Serif" font-size="10.00">has_color</text>
</g>
<!-- Node13 -->
<g id="node13" class="node">
<title>Node13</title>
<g id="a_node13"><a xlink:title=" ">
<polygon fill="white" stroke="#bfbfbf" points="292.5,-62.04 292.5,-81.04 336.5,-81.04 336.5,-62.04 292.5,-62.04"/>
<text text-anchor="middle" x="314.5" y="-69.04" font-family="Helvetica,sans-Serif" font-size="10.00">string</text>
</a>
</g>
</g>
<!-- Node13&#45;&gt;Node1 -->
<g id="edge12" class="edge">
<title>Node13&#45;&gt;Node1</title>
<path fill="none" stroke="#9a32cd" stroke-dasharray="5,2" d="M346.57,-64.94C382.71,-58.97 443.03,-54.37 487,-78.54 507.89,-90.02 520.81,-116.52 526.54,-130.87"/>
<polygon fill="#9a32cd" stroke="#9a32cd" points="345.84,-61.52 336.61,-66.73 347.07,-68.41 345.84,-61.52"/>
<text text-anchor="middle" x="440" y="-81.54" font-family="Helvetica,sans-Serif" font-size="10.00"> name</text>
</g>
<!-- Node14 -->
<g id="node14" class="node">
<title>Node14</title>
<g id="a_node14"><a xlink:title=" ">
<polygon fill="white" stroke="#bfbfbf" points="281.5,-24.04 281.5,-43.04 347.5,-43.04 347.5,-24.04 281.5,-24.04"/>
<text text-anchor="middle" x="314.5" y="-31.04" font-family="Helvetica,sans-Serif" font-size="10.00">AlignStyle</text>
</a>
</g>
</g>
<!-- Node14&#45;&gt;Node1 -->
<g id="edge13" class="edge">
<title>Node14&#45;&gt;Node1</title>
<path fill="none" stroke="#9a32cd" stroke-dasharray="5,2" d="M357.83,-25.19C395.18,-20.28 449.37,-19.37 487,-45.54 516.28,-65.91 525.96,-111.19 528.87,-130.97"/>
<polygon fill="#9a32cd" stroke="#9a32cd" points="357.16,-21.76 347.77,-26.67 358.17,-28.68 357.16,-21.76"/>
<text text-anchor="middle" x="440" y="-48.54" font-family="Helvetica,sans-Serif" font-size="10.00"> align_style</text>
</g>
</g>
</svg>
