<?xml version="1.0" encoding="UTF-8" standalone="no"?>
<!DOCTYPE svg PUBLIC "-//W3C//DTD SVG 1.1//EN"
 "http://www.w3.org/Graphics/SVG/1.1/DTD/svg11.dtd">
<!-- Generated by graphviz version 2.43.0 (0)
 -->
<!-- Title: con::ConnectionCommand Pages: 1 -->
<svg width="922pt" height="240pt"
 viewBox="0.00 0.00 922.00 240.00" xmlns="http://www.w3.org/2000/svg" xmlns:xlink="http://www.w3.org/1999/xlink">
<g id="graph0" class="graph" transform="scale(1 1) rotate(0) translate(4 236)">
<title>con::ConnectionCommand</title>
<polygon fill="white" stroke="transparent" points="-4,4 -4,-236 918,-236 918,4 -4,4"/>
<!-- Node1 -->
<g id="node1" class="node">
<title>Node1</title>
<g id="a_node1"><a xlink:title=" ">
<polygon fill="#bfbfbf" stroke="black" points="516,-0.5 516,-19.5 661,-19.5 661,-0.5 516,-0.5"/>
<text text-anchor="middle" x="588.5" y="-7.5" font-family="Helvetica,sans-Serif" font-size="10.00">con::ConnectionCommand</text>
</a>
</g>
</g>
<!-- Node2 -->
<g id="node2" class="node">
<title>Node2</title>
<g id="a_node2"><a xlink:href="classAddress.html" target="_top" xlink:title=" ">
<polygon fill="white" stroke="black" points="201.5,-78.5 201.5,-97.5 257.5,-97.5 257.5,-78.5 201.5,-78.5"/>
<text text-anchor="middle" x="229.5" y="-85.5" font-family="Helvetica,sans-Serif" font-size="10.00">Address</text>
</a>
</g>
</g>
<!-- Node2&#45;&gt;Node1 -->
<g id="edge1" class="edge">
<title>Node2&#45;&gt;Node1</title>
<path fill="none" stroke="#9a32cd" stroke-dasharray="5,2" d="M267.57,-78.94C335.8,-64.5 478.28,-34.33 548.14,-19.55"/>
<polygon fill="#9a32cd" stroke="#9a32cd" points="266.73,-75.54 257.67,-81.04 268.18,-82.39 266.73,-75.54"/>
<text text-anchor="middle" x="473.5" y="-46.5" font-family="Helvetica,sans-Serif" font-size="10.00"> address</text>
</g>
<!-- Node3 -->
<g id="node3" class="node">
<title>Node3</title>
<g id="a_node3"><a xlink:title=" ">
<polygon fill="white" stroke="#bfbfbf" points="53,-145.5 53,-164.5 136,-164.5 136,-145.5 53,-145.5"/>
<text text-anchor="middle" x="94.5" y="-152.5" font-family="Helvetica,sans-Serif" font-size="10.00">struct in_addr</text>
</a>
</g>
</g>
<!-- Node3&#45;&gt;Node2 -->
<g id="edge2" class="edge">
<title>Node3&#45;&gt;Node2</title>
<path fill="none" stroke="#9a32cd" stroke-dasharray="5,2" d="M121.62,-140.94C148.36,-128.07 188.47,-108.76 211.5,-97.67"/>
<polygon fill="#9a32cd" stroke="#9a32cd" points="119.92,-137.88 112.43,-145.37 122.96,-144.18 119.92,-137.88"/>
<text text-anchor="middle" x="183" y="-119" font-family="Helvetica,sans-Serif" font-size="10.00"> ipv4</text>
</g>
<!-- Node4 -->
<g id="node4" class="node">
<title>Node4</title>
<g id="a_node4"><a xlink:title=" ">
<polygon fill="white" stroke="#bfbfbf" points="0,-145.5 0,-164.5 35,-164.5 35,-145.5 0,-145.5"/>
<text text-anchor="middle" x="17.5" y="-152.5" font-family="Helvetica,sans-Serif" font-size="10.00">u16</text>
</a>
</g>
</g>
<!-- Node4&#45;&gt;Node1 -->
<g id="edge7" class="edge">
<title>Node4&#45;&gt;Node1</title>
<path fill="none" stroke="#9a32cd" stroke-dasharray="5,2" d="M37.9,-139.42C63.41,-121.92 109.05,-93.08 152.5,-78 275.67,-35.25 427.85,-19.73 515.98,-14.13"/>
<polygon fill="#9a32cd" stroke="#9a32cd" points="35.65,-136.71 29.45,-145.3 39.65,-142.46 35.65,-136.71"/>
<text text-anchor="middle" x="172.5" y="-85.5" font-family="Helvetica,sans-Serif" font-size="10.00"> peer_id</text>
</g>
<!-- Node4&#45;&gt;Node2 -->
<g id="edge3" class="edge">
<title>Node4&#45;&gt;Node2</title>
<path fill="none" stroke="#9a32cd" stroke-dasharray="5,2" d="M44.47,-141.92C63.27,-133.83 89.08,-123.34 112.5,-116 142.34,-106.65 177.38,-98.99 201.28,-94.24"/>
<polygon fill="#9a32cd" stroke="#9a32cd" points="42.83,-138.82 35.06,-146.03 45.63,-145.23 42.83,-138.82"/>
<text text-anchor="middle" x="131.5" y="-119" font-family="Helvetica,sans-Serif" font-size="10.00"> m_port</text>
</g>
<!-- Node5 -->
<g id="node5" class="node">
<title>Node5</title>
<g id="a_node5"><a xlink:title=" ">
<polygon fill="white" stroke="#bfbfbf" points="154,-145.5 154,-164.5 243,-164.5 243,-145.5 154,-145.5"/>
<text text-anchor="middle" x="198.5" y="-152.5" font-family="Helvetica,sans-Serif" font-size="10.00">struct in6_addr</text>
</a>
</g>
</g>
<!-- Node5&#45;&gt;Node2 -->
<g id="edge4" class="edge">
<title>Node5&#45;&gt;Node2</title>
<path fill="none" stroke="#9a32cd" stroke-dasharray="5,2" d="M205.05,-135.7C207.49,-129.37 210.42,-122.28 213.5,-116 216.57,-109.74 220.57,-102.99 223.8,-97.8"/>
<polygon fill="#9a32cd" stroke="#9a32cd" points="201.65,-134.79 201.46,-145.38 208.22,-137.22 201.65,-134.79"/>
<text text-anchor="middle" x="226" y="-119" font-family="Helvetica,sans-Serif" font-size="10.00"> ipv6</text>
</g>
<!-- Node6 -->
<g id="node6" class="node">
<title>Node6</title>
<g id="a_node6"><a xlink:title=" ">
<polygon fill="white" stroke="#bfbfbf" points="261.5,-145.5 261.5,-164.5 391.5,-164.5 391.5,-145.5 261.5,-145.5"/>
<text text-anchor="middle" x="326.5" y="-152.5" font-family="Helvetica,sans-Serif" font-size="10.00">anonymous:m_address</text>
</a>
</g>
</g>
<!-- Node6&#45;&gt;Node2 -->
<g id="edge5" class="edge">
<title>Node6&#45;&gt;Node2</title>
<path fill="none" stroke="#9a32cd" stroke-dasharray="5,2" d="M288.31,-141.69C279.07,-137.78 269.55,-132.9 261.5,-127 250.37,-118.84 240.65,-106.04 234.93,-97.58"/>
<polygon fill="#9a32cd" stroke="#9a32cd" points="287.18,-145.01 297.77,-145.42 289.75,-138.5 287.18,-145.01"/>
<text text-anchor="middle" x="290" y="-119" font-family="Helvetica,sans-Serif" font-size="10.00"> m_address</text>
</g>
<!-- Node7 -->
<g id="node7" class="node">
<title>Node7</title>
<g id="a_node7"><a xlink:title=" ">
<polygon fill="white" stroke="#bfbfbf" points="410,-145.5 410,-164.5 471,-164.5 471,-145.5 410,-145.5"/>
<text text-anchor="middle" x="440.5" y="-152.5" font-family="Helvetica,sans-Serif" font-size="10.00">unsigned</text>
</a>
</g>
</g>
<!-- Node7&#45;&gt;Node2 -->
<g id="edge6" class="edge">
<title>Node7&#45;&gt;Node2</title>
<path fill="none" stroke="#9a32cd" stroke-dasharray="5,2" d="M403.55,-142.41C379.37,-134.85 347.07,-124.78 318.5,-116 298.13,-109.74 275.1,-102.75 257.58,-97.46"/>
<polygon fill="#9a32cd" stroke="#9a32cd" points="402.79,-145.84 413.38,-145.49 404.88,-139.16 402.79,-145.84"/>
<text text-anchor="middle" x="391" y="-119" font-family="Helvetica,sans-Serif" font-size="10.00"> m_addr_family</text>
</g>
<!-- Node8 -->
<g id="node8" class="node">
<title>Node8</title>
<g id="a_node8"><a xlink:href="classBuffer.html" target="_top" xlink:title=" ">
<polygon fill="white" stroke="black" points="473.5,-78.5 473.5,-97.5 553.5,-97.5 553.5,-78.5 473.5,-78.5"/>
<text text-anchor="middle" x="513.5" y="-85.5" font-family="Helvetica,sans-Serif" font-size="10.00">Buffer&lt; u8 &gt;</text>
</a>
</g>
</g>
<!-- Node7&#45;&gt;Node8 -->
<g id="edge10" class="edge">
<title>Node7&#45;&gt;Node8</title>
<path fill="none" stroke="#9a32cd" stroke-dasharray="5,2" d="M446.6,-136.13C449.64,-129.21 453.89,-121.61 459.5,-116 467.5,-108 478.37,-101.94 488.25,-97.61"/>
<polygon fill="#9a32cd" stroke="#9a32cd" points="443.32,-134.91 442.99,-145.5 449.86,-137.43 443.32,-134.91"/>
<text text-anchor="middle" x="478.5" y="-119" font-family="Helvetica,sans-Serif" font-size="10.00"> m_size</text>
</g>
<!-- Node8&#45;&gt;Node1 -->
<g id="edge8" class="edge">
<title>Node8&#45;&gt;Node1</title>
<path fill="none" stroke="#9a32cd" stroke-dasharray="5,2" d="M529.41,-70.88C544.87,-55.22 567.73,-32.04 580,-19.62"/>
<polygon fill="#9a32cd" stroke="#9a32cd" points="526.64,-68.71 522.1,-78.28 531.62,-73.62 526.64,-68.71"/>
<text text-anchor="middle" x="573" y="-46.5" font-family="Helvetica,sans-Serif" font-size="10.00"> data</text>
</g>
<!-- Node9 -->
<g id="node9" class="node">
<title>Node9</title>
<g id="a_node9"><a xlink:title=" ">
<polygon fill="white" stroke="#bfbfbf" points="585,-145.5 585,-164.5 614,-164.5 614,-145.5 585,-145.5"/>
<text text-anchor="middle" x="599.5" y="-152.5" font-family="Helvetica,sans-Serif" font-size="10.00">u8</text>
</a>
</g>
</g>
<!-- Node9&#45;&gt;Node1 -->
<g id="edge14" class="edge">
<title>Node9&#45;&gt;Node1</title>
<path fill="none" stroke="#9a32cd" stroke-dasharray="5,2" d="M598.08,-135.51C595.68,-104.31 590.92,-42.41 589.17,-19.65"/>
<polygon fill="#9a32cd" stroke="#9a32cd" points="594.59,-135.78 598.84,-145.48 601.57,-135.24 594.59,-135.78"/>
<text text-anchor="middle" x="627.5" y="-85.5" font-family="Helvetica,sans-Serif" font-size="10.00"> channelnum</text>
</g>
<!-- Node9&#45;&gt;Node8 -->
<g id="edge9" class="edge">
<title>Node9&#45;&gt;Node8</title>
<path fill="none" stroke="#9a32cd" stroke-dasharray="5,2" d="M579.54,-139.07C574.32,-135.15 568.69,-130.92 563.5,-127 550.27,-117.01 535.13,-105.49 525,-97.77"/>
<polygon fill="#9a32cd" stroke="#9a32cd" points="577.71,-142.07 587.81,-145.26 581.91,-136.47 577.71,-142.07"/>
<text text-anchor="middle" x="576" y="-119" font-family="Helvetica,sans-Serif" font-size="10.00"> data</text>
</g>
<!-- Node10 -->
<g id="node10" class="node">
<title>Node10</title>
<g id="a_node10"><a xlink:href="classBuffer.html" target="_top" xlink:title=" ">
<polygon fill="white" stroke="black" points="489.5,-145.5 489.5,-164.5 563.5,-164.5 563.5,-145.5 489.5,-145.5"/>
<text text-anchor="middle" x="526.5" y="-152.5" font-family="Helvetica,sans-Serif" font-size="10.00">Buffer&lt; T &gt;</text>
</a>
</g>
</g>
<!-- Node10&#45;&gt;Node8 -->
<g id="edge11" class="edge">
<title>Node10&#45;&gt;Node8</title>
<path fill="none" stroke="orange" stroke-dasharray="5,2" d="M508.98,-137.96C506.33,-134.62 503.99,-130.91 502.5,-127 498.74,-117.11 503.49,-105.37 507.86,-97.58"/>
<polygon fill="orange" stroke="orange" points="506.53,-140.47 515.89,-145.43 511.67,-135.71 506.53,-140.47"/>
<text text-anchor="middle" x="521.5" y="-119" font-family="Helvetica,sans-Serif" font-size="10.00"> &lt; u8 &gt;</text>
</g>
<!-- Node11 -->
<g id="node11" class="node">
<title>Node11</title>
<g id="a_node11"><a xlink:title=" ">
<polygon fill="white" stroke="#bfbfbf" points="481,-212.5 481,-231.5 510,-231.5 510,-212.5 481,-212.5"/>
<text text-anchor="middle" x="495.5" y="-219.5" font-family="Helvetica,sans-Serif" font-size="10.00">int</text>
</a>
</g>
</g>
<!-- Node11&#45;&gt;Node10 -->
<g id="edge12" class="edge">
<title>Node11&#45;&gt;Node10</title>
<path fill="none" stroke="#9a32cd" stroke-dasharray="5,2" d="M494.36,-202.05C494.65,-195.74 495.74,-188.83 498.5,-183 501.96,-175.67 508.33,-169.28 514.12,-164.56"/>
<polygon fill="#9a32cd" stroke="#9a32cd" points="490.86,-202.46 494.5,-212.41 497.86,-202.36 490.86,-202.46"/>
<text text-anchor="middle" x="517.5" y="-186" font-family="Helvetica,sans-Serif" font-size="10.00"> m_size</text>
</g>
<!-- Node12 -->
<g id="node12" class="node">
<title>Node12</title>
<g id="a_node12"><a xlink:title=" ">
<polygon fill="white" stroke="#bfbfbf" points="542,-212.5 542,-231.5 571,-231.5 571,-212.5 542,-212.5"/>
<text text-anchor="middle" x="556.5" y="-219.5" font-family="Helvetica,sans-Serif" font-size="10.00">T</text>
</a>
</g>
</g>
<!-- Node12&#45;&gt;Node10 -->
<g id="edge13" class="edge">
<title>Node12&#45;&gt;Node10</title>
<path fill="none" stroke="#9a32cd" stroke-dasharray="5,2" d="M548.1,-202.79C542.33,-190.31 534.95,-174.31 530.48,-164.63"/>
<polygon fill="#9a32cd" stroke="#9a32cd" points="545.09,-204.62 552.45,-212.23 551.44,-201.69 545.09,-204.62"/>
<text text-anchor="middle" x="556" y="-186" font-family="Helvetica,sans-Serif" font-size="10.00"> data</text>
</g>
<!-- Node13 -->
<g id="node13" class="node">
<title>Node13</title>
<g id="a_node13"><a xlink:href="classbool.html" target="_top" xlink:title=" ">
<polygon fill="white" stroke="black" points="684.5,-78.5 684.5,-97.5 722.5,-97.5 722.5,-78.5 684.5,-78.5"/>
<text text-anchor="middle" x="703.5" y="-85.5" font-family="Helvetica,sans-Serif" font-size="10.00">bool</text>
</a>
</g>
</g>
<!-- Node13&#45;&gt;Node1 -->
<g id="edge15" class="edge">
<title>Node13&#45;&gt;Node1</title>
<path fill="none" stroke="#9a32cd" stroke-dasharray="5,2" d="M681.66,-72.57C658,-56.93 621.03,-32.5 601.54,-19.62"/>
<polygon fill="#9a32cd" stroke="#9a32cd" points="680.04,-75.69 690.31,-78.28 683.89,-69.85 680.04,-75.69"/>
<text text-anchor="middle" x="678" y="-52" font-family="Helvetica,sans-Serif" font-size="10.00"> raw</text>
<text text-anchor="middle" x="678" y="-41" font-family="Helvetica,sans-Serif" font-size="10.00">reliable</text>
</g>
<!-- Node14 -->
<g id="node14" class="node">
<title>Node14</title>
<g id="a_node14"><a xlink:title=" ">
<polygon fill="white" stroke="#bfbfbf" points="741,-78.5 741,-97.5 914,-97.5 914,-78.5 741,-78.5"/>
<text text-anchor="middle" x="827.5" y="-85.5" font-family="Helvetica,sans-Serif" font-size="10.00">const ConnectionCommandType</text>
</a>
</g>
</g>
<!-- Node14&#45;&gt;Node1 -->
<g id="edge16" class="edge">
<title>Node14&#45;&gt;Node1</title>
<path fill="none" stroke="#9a32cd" stroke-dasharray="5,2" d="M798.1,-74.39C772.61,-63.76 734.56,-48.62 700.5,-38 677.3,-30.76 650.89,-24.31 629.55,-19.53"/>
<polygon fill="#9a32cd" stroke="#9a32cd" points="796.98,-77.71 807.55,-78.36 799.69,-71.26 796.98,-77.71"/>
<text text-anchor="middle" x="772" y="-46.5" font-family="Helvetica,sans-Serif" font-size="10.00"> type</text>
</g>
</g>
</svg>
