<?xml version="1.0" encoding="UTF-8" standalone="no"?>
<!DOCTYPE svg PUBLIC "-//W3C//DTD SVG 1.1//EN"
 "http://www.w3.org/Graphics/SVG/1.1/DTD/svg11.dtd">
<!-- Generated by graphviz version 2.43.0 (0)
 -->
<!-- Title: ActiveObjectMessage Pages: 1 -->
<svg width="186pt" height="95pt"
 viewBox="0.00 0.00 185.50 95.00" xmlns="http://www.w3.org/2000/svg" xmlns:xlink="http://www.w3.org/1999/xlink">
<g id="graph0" class="graph" transform="scale(1 1) rotate(0) translate(4 91)">
<title>ActiveObjectMessage</title>
<polygon fill="white" stroke="transparent" points="-4,4 -4,-91 181.5,-91 181.5,4 -4,4"/>
<!-- Node1 -->
<g id="node1" class="node">
<title>Node1</title>
<g id="a_node1"><a xlink:title=" ">
<polygon fill="#bfbfbf" stroke="black" points="14.5,-0.5 14.5,-19.5 136.5,-19.5 136.5,-0.5 14.5,-0.5"/>
<text text-anchor="middle" x="75.5" y="-7.5" font-family="Helvetica,sans-Serif" font-size="10.00">ActiveObjectMessage</text>
</a>
</g>
</g>
<!-- Node2 -->
<g id="node2" class="node">
<title>Node2</title>
<g id="a_node2"><a xlink:title=" ">
<polygon fill="white" stroke="#bfbfbf" points="0,-67.5 0,-86.5 35,-86.5 35,-67.5 0,-67.5"/>
<text text-anchor="middle" x="17.5" y="-74.5" font-family="Helvetica,sans-Serif" font-size="10.00">u16</text>
</a>
</g>
</g>
<!-- Node2&#45;&gt;Node1 -->
<g id="edge1" class="edge">
<title>Node2&#45;&gt;Node1</title>
<path fill="none" stroke="#9a32cd" stroke-dasharray="5,2" d="M32.1,-59.63C43.45,-46.92 58.73,-29.8 67.8,-19.63"/>
<polygon fill="#9a32cd" stroke="#9a32cd" points="29.37,-57.44 25.32,-67.23 34.59,-62.1 29.37,-57.44"/>
<text text-anchor="middle" x="56" y="-41" font-family="Helvetica,sans-Serif" font-size="10.00"> id</text>
</g>
<!-- Node3 -->
<g id="node3" class="node">
<title>Node3</title>
<g id="a_node3"><a xlink:title=" ">
<polygon fill="white" stroke="#bfbfbf" points="53.5,-67.5 53.5,-86.5 97.5,-86.5 97.5,-67.5 53.5,-67.5"/>
<text text-anchor="middle" x="75.5" y="-74.5" font-family="Helvetica,sans-Serif" font-size="10.00">string</text>
</a>
</g>
</g>
<!-- Node3&#45;&gt;Node1 -->
<g id="edge2" class="edge">
<title>Node3&#45;&gt;Node1</title>
<path fill="none" stroke="#9a32cd" stroke-dasharray="5,2" d="M75.5,-57.04C75.5,-44.67 75.5,-29.12 75.5,-19.63"/>
<polygon fill="#9a32cd" stroke="#9a32cd" points="72,-57.23 75.5,-67.23 79,-57.23 72,-57.23"/>
<text text-anchor="middle" x="102" y="-41" font-family="Helvetica,sans-Serif" font-size="10.00"> datastring</text>
</g>
<!-- Node4 -->
<g id="node4" class="node">
<title>Node4</title>
<g id="a_node4"><a xlink:href="classbool.html" target="_top" xlink:title=" ">
<polygon fill="white" stroke="black" points="132.5,-67.5 132.5,-86.5 170.5,-86.5 170.5,-67.5 132.5,-67.5"/>
<text text-anchor="middle" x="151.5" y="-74.5" font-family="Helvetica,sans-Serif" font-size="10.00">bool</text>
</a>
</g>
</g>
<!-- Node4&#45;&gt;Node1 -->
<g id="edge3" class="edge">
<title>Node4&#45;&gt;Node1</title>
<path fill="none" stroke="#9a32cd" stroke-dasharray="5,2" d="M143.77,-57.88C140.18,-51.03 135.39,-43.54 129.5,-38 121.03,-30.03 109.75,-23.89 99.69,-19.5"/>
<polygon fill="#9a32cd" stroke="#9a32cd" points="140.72,-59.63 148.15,-67.19 147.06,-56.65 140.72,-59.63"/>
<text text-anchor="middle" x="157.5" y="-41" font-family="Helvetica,sans-Serif" font-size="10.00"> reliable</text>
</g>
</g>
</svg>
