<?xml version="1.0" encoding="UTF-8" standalone="no"?>
<!DOCTYPE svg PUBLIC "-//W3C//DTD SVG 1.1//EN"
 "http://www.w3.org/Graphics/SVG/1.1/DTD/svg11.dtd">
<!-- Generated by graphviz version 2.43.0 (0)
 -->
<!-- Title: ToolGroupCap Pages: 1 -->
<svg width="176pt" height="117pt"
 viewBox="0.00 0.00 175.50 117.00" xmlns="http://www.w3.org/2000/svg" xmlns:xlink="http://www.w3.org/1999/xlink">
<g id="graph0" class="graph" transform="scale(1 1) rotate(0) translate(4 113)">
<title>ToolGroupCap</title>
<polygon fill="white" stroke="transparent" points="-4,4 -4,-113 171.5,-113 171.5,4 -4,4"/>
<!-- Node1 -->
<g id="node1" class="node">
<title>Node1</title>
<g id="a_node1"><a xlink:title=" ">
<polygon fill="#bfbfbf" stroke="black" points="18.5,-0.5 18.5,-19.5 102.5,-19.5 102.5,-0.5 18.5,-0.5"/>
<text text-anchor="middle" x="60.5" y="-7.5" font-family="Helvetica,sans-Serif" font-size="10.00">ToolGroupCap</text>
</a>
</g>
</g>
<!-- Node2 -->
<g id="node2" class="node">
<title>Node2</title>
<g id="a_node2"><a xlink:title=" ">
<polygon fill="white" stroke="#bfbfbf" points="0,-84 0,-103 29,-103 29,-84 0,-84"/>
<text text-anchor="middle" x="14.5" y="-91" font-family="Helvetica,sans-Serif" font-size="10.00">int</text>
</a>
</g>
</g>
<!-- Node2&#45;&gt;Node1 -->
<g id="edge1" class="edge">
<title>Node2&#45;&gt;Node1</title>
<path fill="none" stroke="#9a32cd" stroke-dasharray="5,2" d="M21.57,-74.38C26.11,-63.52 32.46,-49.6 39.5,-38 43.44,-31.5 48.69,-24.75 52.96,-19.63"/>
<polygon fill="#9a32cd" stroke="#9a32cd" points="18.31,-73.11 17.81,-83.69 24.8,-75.73 18.31,-73.11"/>
<text text-anchor="middle" x="62.5" y="-52" font-family="Helvetica,sans-Serif" font-size="10.00"> uses</text>
<text text-anchor="middle" x="62.5" y="-41" font-family="Helvetica,sans-Serif" font-size="10.00">maxlevel</text>
</g>
<!-- Node3 -->
<g id="node3" class="node">
<title>Node3</title>
<g id="a_node3"><a xlink:title=" ">
<polygon fill="white" stroke="#bfbfbf" points="47.5,-78.5 47.5,-108.5 167.5,-108.5 167.5,-78.5 47.5,-78.5"/>
<text text-anchor="start" x="55.5" y="-96.5" font-family="Helvetica,sans-Serif" font-size="10.00">unordered_map&lt; int,</text>
<text text-anchor="middle" x="107.5" y="-85.5" font-family="Helvetica,sans-Serif" font-size="10.00"> float &gt;</text>
</a>
</g>
</g>
<!-- Node3&#45;&gt;Node1 -->
<g id="edge2" class="edge">
<title>Node3&#45;&gt;Node1</title>
<path fill="none" stroke="#9a32cd" stroke-dasharray="5,2" d="M100.05,-68.75C96.41,-58.84 91.5,-47.46 85.5,-38 81.26,-31.31 75.26,-24.77 70.2,-19.8"/>
<polygon fill="#9a32cd" stroke="#9a32cd" points="96.81,-70.08 103.38,-78.39 103.42,-67.8 96.81,-70.08"/>
<text text-anchor="middle" x="111" y="-46.5" font-family="Helvetica,sans-Serif" font-size="10.00"> times</text>
</g>
</g>
</svg>
