<?xml version="1.0" encoding="UTF-8" standalone="no"?>
<!DOCTYPE svg PUBLIC "-//W3C//DTD SVG 1.1//EN"
 "http://www.w3.org/Graphics/SVG/1.1/DTD/svg11.dtd">
<!-- Generated by graphviz version 2.43.0 (0)
 -->
<!-- Title: RollbackNode Pages: 1 -->
<svg width="109pt" height="106pt"
 viewBox="0.00 0.00 108.50 106.00" xmlns="http://www.w3.org/2000/svg" xmlns:xlink="http://www.w3.org/1999/xlink">
<g id="graph0" class="graph" transform="scale(1 1) rotate(0) translate(4 102)">
<title>RollbackNode</title>
<polygon fill="white" stroke="transparent" points="-4,4 -4,-102 104.5,-102 104.5,4 -4,4"/>
<!-- Node1 -->
<g id="node1" class="node">
<title>Node1</title>
<g id="a_node1"><a xlink:title=" ">
<polygon fill="#bfbfbf" stroke="black" points="4.5,-0.5 4.5,-19.5 88.5,-19.5 88.5,-0.5 4.5,-0.5"/>
<text text-anchor="middle" x="46.5" y="-7.5" font-family="Helvetica,sans-Serif" font-size="10.00">RollbackNode</text>
</a>
</g>
</g>
<!-- Node2 -->
<g id="node2" class="node">
<title>Node2</title>
<g id="a_node2"><a xlink:title=" ">
<polygon fill="white" stroke="#bfbfbf" points="0,-78.5 0,-97.5 29,-97.5 29,-78.5 0,-78.5"/>
<text text-anchor="middle" x="14.5" y="-85.5" font-family="Helvetica,sans-Serif" font-size="10.00">int</text>
</a>
</g>
</g>
<!-- Node2&#45;&gt;Node1 -->
<g id="edge1" class="edge">
<title>Node2&#45;&gt;Node1</title>
<path fill="none" stroke="#9a32cd" stroke-dasharray="5,2" d="M11.4,-68.21C10.68,-58.74 11.15,-47.31 15.5,-38 19.01,-30.5 25.7,-24.25 31.97,-19.66"/>
<polygon fill="#9a32cd" stroke="#9a32cd" points="7.93,-68.7 12.63,-78.2 14.88,-67.85 7.93,-68.7"/>
<text text-anchor="middle" x="36" y="-52" font-family="Helvetica,sans-Serif" font-size="10.00"> param1</text>
<text text-anchor="middle" x="36" y="-41" font-family="Helvetica,sans-Serif" font-size="10.00">param2</text>
</g>
<!-- Node3 -->
<g id="node3" class="node">
<title>Node3</title>
<g id="a_node3"><a xlink:title=" ">
<polygon fill="white" stroke="#bfbfbf" points="56.5,-78.5 56.5,-97.5 100.5,-97.5 100.5,-78.5 56.5,-78.5"/>
<text text-anchor="middle" x="78.5" y="-85.5" font-family="Helvetica,sans-Serif" font-size="10.00">string</text>
</a>
</g>
</g>
<!-- Node3&#45;&gt;Node1 -->
<g id="edge2" class="edge">
<title>Node3&#45;&gt;Node1</title>
<path fill="none" stroke="#9a32cd" stroke-dasharray="5,2" d="M70.78,-68.67C64.23,-53.11 55.12,-31.47 50.13,-19.62"/>
<polygon fill="#9a32cd" stroke="#9a32cd" points="67.72,-70.42 74.83,-78.28 74.17,-67.71 67.72,-70.42"/>
<text text-anchor="middle" x="80" y="-52" font-family="Helvetica,sans-Serif" font-size="10.00"> meta</text>
<text text-anchor="middle" x="80" y="-41" font-family="Helvetica,sans-Serif" font-size="10.00">name</text>
</g>
</g>
</svg>
