<?xml version="1.0" encoding="UTF-8" standalone="no"?>
<!DOCTYPE svg PUBLIC "-//W3C//DTD SVG 1.1//EN"
 "http://www.w3.org/Graphics/SVG/1.1/DTD/svg11.dtd">
<!-- Generated by graphviz version 2.43.0 (0)
 -->
<!-- Title: HTTPFetchResult Pages: 1 -->
<svg width="302pt" height="106pt"
 viewBox="0.00 0.00 302.00 106.00" xmlns="http://www.w3.org/2000/svg" xmlns:xlink="http://www.w3.org/1999/xlink">
<g id="graph0" class="graph" transform="scale(1 1) rotate(0) translate(4 102)">
<title>HTTPFetchResult</title>
<polygon fill="white" stroke="transparent" points="-4,4 -4,-102 298,-102 298,4 -4,4"/>
<!-- Node1 -->
<g id="node1" class="node">
<title>Node1</title>
<g id="a_node1"><a xlink:title=" ">
<polygon fill="#bfbfbf" stroke="black" points="68.5,-0.5 68.5,-19.5 167.5,-19.5 167.5,-0.5 68.5,-0.5"/>
<text text-anchor="middle" x="118" y="-7.5" font-family="Helvetica,sans-Serif" font-size="10.00">HTTPFetchResult</text>
</a>
</g>
</g>
<!-- Node2 -->
<g id="node2" class="node">
<title>Node2</title>
<g id="a_node2"><a xlink:title=" ">
<polygon fill="white" stroke="#bfbfbf" points="0,-78.5 0,-97.5 44,-97.5 44,-78.5 0,-78.5"/>
<text text-anchor="middle" x="22" y="-85.5" font-family="Helvetica,sans-Serif" font-size="10.00">string</text>
</a>
</g>
</g>
<!-- Node2&#45;&gt;Node1 -->
<g id="edge1" class="edge">
<title>Node2&#45;&gt;Node1</title>
<path fill="none" stroke="#9a32cd" stroke-dasharray="5,2" d="M28.12,-68.55C32.31,-58.36 38.8,-46.16 48,-38 57.45,-29.62 69.79,-23.71 81.47,-19.61"/>
<polygon fill="#9a32cd" stroke="#9a32cd" points="24.74,-67.59 24.56,-78.19 31.31,-70.02 24.74,-67.59"/>
<text text-anchor="middle" x="60.5" y="-46.5" font-family="Helvetica,sans-Serif" font-size="10.00"> data</text>
</g>
<!-- Node3 -->
<g id="node3" class="node">
<title>Node3</title>
<g id="a_node3"><a xlink:href="classbool.html" target="_top" xlink:title=" ">
<polygon fill="white" stroke="black" points="62,-78.5 62,-97.5 100,-97.5 100,-78.5 62,-78.5"/>
<text text-anchor="middle" x="81" y="-85.5" font-family="Helvetica,sans-Serif" font-size="10.00">bool</text>
</a>
</g>
</g>
<!-- Node3&#45;&gt;Node1 -->
<g id="edge2" class="edge">
<title>Node3&#45;&gt;Node1</title>
<path fill="none" stroke="#9a32cd" stroke-dasharray="5,2" d="M77.65,-68.42C76.81,-58.83 77.26,-47.25 82,-38 85.99,-30.21 93.38,-24.07 100.43,-19.63"/>
<polygon fill="#9a32cd" stroke="#9a32cd" points="74.2,-69.05 79.03,-78.48 81.13,-68.1 74.2,-69.05"/>
<text text-anchor="middle" x="108" y="-52" font-family="Helvetica,sans-Serif" font-size="10.00"> timeout</text>
<text text-anchor="middle" x="108" y="-41" font-family="Helvetica,sans-Serif" font-size="10.00">succeeded</text>
</g>
<!-- Node4 -->
<g id="node4" class="node">
<title>Node4</title>
<g id="a_node4"><a xlink:title=" ">
<polygon fill="white" stroke="#bfbfbf" points="138.5,-78.5 138.5,-97.5 173.5,-97.5 173.5,-78.5 138.5,-78.5"/>
<text text-anchor="middle" x="156" y="-85.5" font-family="Helvetica,sans-Serif" font-size="10.00">u64</text>
</a>
</g>
</g>
<!-- Node4&#45;&gt;Node1 -->
<g id="edge3" class="edge">
<title>Node4&#45;&gt;Node1</title>
<path fill="none" stroke="#9a32cd" stroke-dasharray="5,2" d="M148.39,-68.76C144.36,-59.44 139.18,-47.98 134,-38 130.79,-31.81 126.79,-25.06 123.59,-19.86"/>
<polygon fill="#9a32cd" stroke="#9a32cd" points="145.27,-70.35 152.4,-78.18 151.71,-67.61 145.27,-70.35"/>
<text text-anchor="middle" x="170" y="-52" font-family="Helvetica,sans-Serif" font-size="10.00"> caller</text>
<text text-anchor="middle" x="170" y="-41" font-family="Helvetica,sans-Serif" font-size="10.00">request_id</text>
</g>
<!-- Node5 -->
<g id="node5" class="node">
<title>Node5</title>
<g id="a_node5"><a xlink:title=" ">
<polygon fill="white" stroke="#bfbfbf" points="212,-78.5 212,-97.5 250,-97.5 250,-78.5 212,-78.5"/>
<text text-anchor="middle" x="231" y="-85.5" font-family="Helvetica,sans-Serif" font-size="10.00">long</text>
</a>
</g>
</g>
<!-- Node5&#45;&gt;Node1 -->
<g id="edge4" class="edge">
<title>Node5&#45;&gt;Node1</title>
<path fill="none" stroke="#9a32cd" stroke-dasharray="5,2" d="M223.42,-69.04C218.21,-58.65 210.36,-46.08 200,-38 189.13,-29.52 175.48,-23.65 162.45,-19.6"/>
<polygon fill="#9a32cd" stroke="#9a32cd" points="220.39,-70.83 227.75,-78.45 226.75,-67.91 220.39,-70.83"/>
<text text-anchor="middle" x="256" y="-46.5" font-family="Helvetica,sans-Serif" font-size="10.00"> response_code</text>
</g>
</g>
</svg>
