<?xml version="1.0" encoding="UTF-8" standalone="no"?>
<!DOCTYPE svg PUBLIC "-//W3C//DTD SVG 1.1//EN"
 "http://www.w3.org/Graphics/SVG/1.1/DTD/svg11.dtd">
<!-- Generated by graphviz version 2.43.0 (0)
 -->
<!-- Title: irr::video::COpenGL3DriverBase::SUserClipPlane Pages: 1 -->
<svg width="342pt" height="373pt"
 viewBox="0.00 0.00 342.00 373.00" xmlns="http://www.w3.org/2000/svg" xmlns:xlink="http://www.w3.org/1999/xlink">
<g id="graph0" class="graph" transform="scale(1 1) rotate(0) translate(4 369)">
<title>irr::video::COpenGL3DriverBase::SUserClipPlane</title>
<polygon fill="white" stroke="transparent" points="-4,4 -4,-369 338,-369 338,4 -4,4"/>
<!-- Node1 -->
<g id="node1" class="node">
<title>Node1</title>
<g id="a_node1"><a xlink:title=" ">
<polygon fill="#bfbfbf" stroke="black" points="86.5,-0.5 86.5,-30.5 233.5,-30.5 233.5,-0.5 86.5,-0.5"/>
<text text-anchor="start" x="94.5" y="-18.5" font-family="Helvetica,sans-Serif" font-size="10.00">irr::video::COpenGL3Driver</text>
<text text-anchor="middle" x="160" y="-7.5" font-family="Helvetica,sans-Serif" font-size="10.00">Base::SUserClipPlane</text>
</a>
</g>
</g>
<!-- Node2 -->
<g id="node2" class="node">
<title>Node2</title>
<g id="a_node2"><a xlink:href="classirr_1_1core_1_1plane3d.html" target="_top" xlink:title=" ">
<polygon fill="white" stroke="black" points="66.5,-78.5 66.5,-108.5 165.5,-108.5 165.5,-78.5 66.5,-78.5"/>
<text text-anchor="start" x="74.5" y="-96.5" font-family="Helvetica,sans-Serif" font-size="10.00">irr::core::plane3d</text>
<text text-anchor="middle" x="116" y="-85.5" font-family="Helvetica,sans-Serif" font-size="10.00">&lt; f32 &gt;</text>
</a>
</g>
</g>
<!-- Node2&#45;&gt;Node1 -->
<g id="edge1" class="edge">
<title>Node2&#45;&gt;Node1</title>
<path fill="none" stroke="#9a32cd" stroke-dasharray="5,2" d="M129.49,-69.2C136.76,-56.64 145.5,-41.54 151.76,-30.73"/>
<polygon fill="#9a32cd" stroke="#9a32cd" points="126.26,-67.8 124.28,-78.2 132.32,-71.3 126.26,-67.8"/>
<text text-anchor="middle" x="156.5" y="-52" font-family="Helvetica,sans-Serif" font-size="10.00"> Plane</text>
</g>
<!-- Node3 -->
<g id="node3" class="node">
<title>Node3</title>
<g id="a_node3"><a xlink:href="classirr_1_1core_1_1vector3d.html" target="_top" xlink:title=" ">
<polygon fill="white" stroke="black" points="64.5,-156.5 64.5,-186.5 167.5,-186.5 167.5,-156.5 64.5,-156.5"/>
<text text-anchor="start" x="72.5" y="-174.5" font-family="Helvetica,sans-Serif" font-size="10.00">irr::core::vector3d</text>
<text text-anchor="middle" x="116" y="-163.5" font-family="Helvetica,sans-Serif" font-size="10.00">&lt; f32 &gt;</text>
</a>
</g>
</g>
<!-- Node3&#45;&gt;Node2 -->
<g id="edge2" class="edge">
<title>Node3&#45;&gt;Node2</title>
<path fill="none" stroke="#9a32cd" stroke-dasharray="5,2" d="M116,-146.09C116,-133.76 116,-119.22 116,-108.73"/>
<polygon fill="#9a32cd" stroke="#9a32cd" points="112.5,-146.2 116,-156.2 119.5,-146.21 112.5,-146.2"/>
<text text-anchor="middle" x="136" y="-130" font-family="Helvetica,sans-Serif" font-size="10.00"> Normal</text>
</g>
<!-- Node4 -->
<g id="node4" class="node">
<title>Node4</title>
<g id="a_node4"><a xlink:title=" ">
<polygon fill="white" stroke="#bfbfbf" points="0,-256.5 0,-275.5 38,-275.5 38,-256.5 0,-256.5"/>
<text text-anchor="middle" x="19" y="-263.5" font-family="Helvetica,sans-Serif" font-size="10.00">float</text>
</a>
</g>
</g>
<!-- Node4&#45;&gt;Node2 -->
<g id="edge6" class="edge">
<title>Node4&#45;&gt;Node2</title>
<path fill="none" stroke="#9a32cd" stroke-dasharray="5,2" d="M19.75,-246.36C21.42,-223.53 26.79,-184.41 44,-156 56.01,-136.17 76.63,-119.53 92.74,-108.58"/>
<polygon fill="#9a32cd" stroke="#9a32cd" points="16.25,-246.22 19.18,-256.4 23.24,-246.62 16.25,-246.22"/>
<text text-anchor="middle" x="49.5" y="-169" font-family="Helvetica,sans-Serif" font-size="10.00"> D</text>
</g>
<!-- Node4&#45;&gt;Node3 -->
<g id="edge3" class="edge">
<title>Node4&#45;&gt;Node3</title>
<path fill="none" stroke="#9a32cd" stroke-dasharray="5,2" d="M35.3,-249.46C53.68,-231.93 83.33,-203.66 101.11,-186.7"/>
<polygon fill="#9a32cd" stroke="#9a32cd" points="32.77,-247.03 27.95,-256.46 37.6,-252.1 32.77,-247.03"/>
<text text-anchor="middle" x="87" y="-230" font-family="Helvetica,sans-Serif" font-size="10.00"> X</text>
<text text-anchor="middle" x="87" y="-219" font-family="Helvetica,sans-Serif" font-size="10.00">Y</text>
<text text-anchor="middle" x="87" y="-208" font-family="Helvetica,sans-Serif" font-size="10.00">Z</text>
</g>
<!-- Node5 -->
<g id="node5" class="node">
<title>Node5</title>
<g id="a_node5"><a xlink:href="classirr_1_1core_1_1vector3d.html" target="_top" xlink:title="3d vector template class with lots of operators and methods.">
<polygon fill="white" stroke="black" points="56.5,-256.5 56.5,-275.5 187.5,-275.5 187.5,-256.5 56.5,-256.5"/>
<text text-anchor="middle" x="122" y="-263.5" font-family="Helvetica,sans-Serif" font-size="10.00">irr::core::vector3d&lt; T &gt;</text>
</a>
</g>
</g>
<!-- Node5&#45;&gt;Node3 -->
<g id="edge4" class="edge">
<title>Node5&#45;&gt;Node3</title>
<path fill="none" stroke="orange" stroke-dasharray="5,2" d="M120.79,-246.29C119.64,-228.67 117.96,-202.67 116.92,-186.7"/>
<polygon fill="orange" stroke="orange" points="117.31,-246.71 121.45,-256.46 124.29,-246.26 117.31,-246.71"/>
<text text-anchor="middle" x="142" y="-219" font-family="Helvetica,sans-Serif" font-size="10.00"> &lt; f32 &gt;</text>
</g>
<!-- Node6 -->
<g id="node6" class="node">
<title>Node6</title>
<g id="a_node6"><a xlink:title=" ">
<polygon fill="white" stroke="#bfbfbf" points="160.5,-345.5 160.5,-364.5 189.5,-364.5 189.5,-345.5 160.5,-345.5"/>
<text text-anchor="middle" x="175" y="-352.5" font-family="Helvetica,sans-Serif" font-size="10.00">T</text>
</a>
</g>
</g>
<!-- Node6&#45;&gt;Node5 -->
<g id="edge5" class="edge">
<title>Node6&#45;&gt;Node5</title>
<path fill="none" stroke="#9a32cd" stroke-dasharray="5,2" d="M164.49,-336.74C153.25,-318.3 135.89,-289.8 127.25,-275.62"/>
<polygon fill="#9a32cd" stroke="#9a32cd" points="161.53,-338.62 169.72,-345.34 167.51,-334.98 161.53,-338.62"/>
<text text-anchor="middle" x="162" y="-319" font-family="Helvetica,sans-Serif" font-size="10.00"> X</text>
<text text-anchor="middle" x="162" y="-308" font-family="Helvetica,sans-Serif" font-size="10.00">Y</text>
<text text-anchor="middle" x="162" y="-297" font-family="Helvetica,sans-Serif" font-size="10.00">Z</text>
</g>
<!-- Node7 -->
<g id="node7" class="node">
<title>Node7</title>
<g id="a_node7"><a xlink:href="classirr_1_1core_1_1plane3d.html" target="_top" xlink:title="Template plane class with some intersection testing methods.">
<polygon fill="white" stroke="black" points="206,-256.5 206,-275.5 334,-275.5 334,-256.5 206,-256.5"/>
<text text-anchor="middle" x="270" y="-263.5" font-family="Helvetica,sans-Serif" font-size="10.00">irr::core::plane3d&lt; T &gt;</text>
</a>
</g>
</g>
<!-- Node6&#45;&gt;Node7 -->
<g id="edge9" class="edge">
<title>Node6&#45;&gt;Node7</title>
<path fill="none" stroke="#9a32cd" stroke-dasharray="5,2" d="M191.94,-338.48C211.97,-320.14 244.6,-290.26 260.58,-275.62"/>
<polygon fill="#9a32cd" stroke="#9a32cd" points="189.47,-336.01 184.46,-345.34 194.19,-341.17 189.47,-336.01"/>
<text text-anchor="middle" x="244.5" y="-308" font-family="Helvetica,sans-Serif" font-size="10.00"> D</text>
</g>
<!-- Node7&#45;&gt;Node2 -->
<g id="edge7" class="edge">
<title>Node7&#45;&gt;Node2</title>
<path fill="none" stroke="orange" stroke-dasharray="5,2" d="M258.51,-247.8C239.77,-220.46 200.65,-166.18 160,-127 153.16,-120.41 144.95,-114.01 137.49,-108.65"/>
<polygon fill="orange" stroke="orange" points="255.74,-249.96 264.25,-256.28 261.54,-246.03 255.74,-249.96"/>
<text text-anchor="middle" x="234" y="-169" font-family="Helvetica,sans-Serif" font-size="10.00"> &lt; f32 &gt;</text>
</g>
<!-- Node8 -->
<g id="node8" class="node">
<title>Node8</title>
<g id="a_node8"><a xlink:title=" ">
<polygon fill="white" stroke="#bfbfbf" points="226,-345.5 226,-364.5 314,-364.5 314,-345.5 226,-345.5"/>
<text text-anchor="middle" x="270" y="-352.5" font-family="Helvetica,sans-Serif" font-size="10.00">vector3d&lt; T &gt;</text>
</a>
</g>
</g>
<!-- Node8&#45;&gt;Node7 -->
<g id="edge8" class="edge">
<title>Node8&#45;&gt;Node7</title>
<path fill="none" stroke="#9a32cd" stroke-dasharray="5,2" d="M270,-335.19C270,-316.74 270,-289.41 270,-275.62"/>
<polygon fill="#9a32cd" stroke="#9a32cd" points="266.5,-335.34 270,-345.34 273.5,-335.34 266.5,-335.34"/>
<text text-anchor="middle" x="290" y="-308" font-family="Helvetica,sans-Serif" font-size="10.00"> Normal</text>
</g>
<!-- Node9 -->
<g id="node9" class="node">
<title>Node9</title>
<g id="a_node9"><a xlink:href="classbool.html" target="_top" xlink:title=" ">
<polygon fill="white" stroke="black" points="184,-84 184,-103 222,-103 222,-84 184,-84"/>
<text text-anchor="middle" x="203" y="-91" font-family="Helvetica,sans-Serif" font-size="10.00">bool</text>
</a>
</g>
</g>
<!-- Node9&#45;&gt;Node1 -->
<g id="edge10" class="edge">
<title>Node9&#45;&gt;Node1</title>
<path fill="none" stroke="#9a32cd" stroke-dasharray="5,2" d="M193.08,-74.97C185.44,-61.47 175.02,-43.05 167.93,-30.52"/>
<polygon fill="#9a32cd" stroke="#9a32cd" points="190.1,-76.8 198.07,-83.78 196.19,-73.35 190.1,-76.8"/>
<text text-anchor="middle" x="205.5" y="-52" font-family="Helvetica,sans-Serif" font-size="10.00"> Enabled</text>
</g>
</g>
</svg>
