<?xml version="1.0" encoding="UTF-8" standalone="no"?>
<!DOCTYPE svg PUBLIC "-//W3C//DTD SVG 1.1//EN"
 "http://www.w3.org/Graphics/SVG/1.1/DTD/svg11.dtd">
<!-- Generated by graphviz version 2.43.0 (0)
 -->
<!-- Title: irr::video::mem_destination_mgr Pages: 1 -->
<svg width="361pt" height="219pt"
 viewBox="0.00 0.00 360.50 219.00" xmlns="http://www.w3.org/2000/svg" xmlns:xlink="http://www.w3.org/1999/xlink">
<g id="graph0" class="graph" transform="scale(1 1) rotate(0) translate(4 215)">
<title>irr::video::mem_destination_mgr</title>
<polygon fill="white" stroke="transparent" points="-4,4 -4,-215 356.5,-215 356.5,4 -4,4"/>
<!-- Node1 -->
<g id="node1" class="node">
<title>Node1</title>
<g id="a_node1"><a xlink:title=" ">
<polygon fill="#bfbfbf" stroke="black" points="67,-0.5 67,-19.5 243,-19.5 243,-0.5 67,-0.5"/>
<text text-anchor="middle" x="155" y="-7.5" font-family="Helvetica,sans-Serif" font-size="10.00">irr::video::mem_destination_mgr</text>
</a>
</g>
</g>
<!-- Node2 -->
<g id="node2" class="node">
<title>Node2</title>
<g id="a_node2"><a xlink:href="classirr_1_1io_1_1IWriteFile.html" target="_top" xlink:title="Interface providing write access to a file.">
<polygon fill="white" stroke="black" points="15.5,-67.5 15.5,-86.5 110.5,-86.5 110.5,-67.5 15.5,-67.5"/>
<text text-anchor="middle" x="63" y="-74.5" font-family="Helvetica,sans-Serif" font-size="10.00">irr::io::IWriteFile</text>
</a>
</g>
</g>
<!-- Node2&#45;&gt;Node1 -->
<g id="edge1" class="edge">
<title>Node2&#45;&gt;Node1</title>
<path fill="none" stroke="#9a32cd" stroke-dasharray="5,2" d="M83.64,-61.42C101.82,-48.57 127.71,-30.28 142.79,-19.63"/>
<polygon fill="#9a32cd" stroke="#9a32cd" points="81.56,-58.6 75.41,-67.23 85.59,-64.32 81.56,-58.6"/>
<text text-anchor="middle" x="124.5" y="-41" font-family="Helvetica,sans-Serif" font-size="10.00"> file</text>
</g>
<!-- Node3 -->
<g id="node3" class="node">
<title>Node3</title>
<g id="a_node3"><a xlink:href="classirr_1_1IReferenceCounted.html" target="_top" xlink:title="Base class of most objects of the Irrlicht Engine.">
<polygon fill="white" stroke="black" points="0,-124.5 0,-143.5 126,-143.5 126,-124.5 0,-124.5"/>
<text text-anchor="middle" x="63" y="-131.5" font-family="Helvetica,sans-Serif" font-size="10.00">irr::IReferenceCounted</text>
</a>
</g>
</g>
<!-- Node3&#45;&gt;Node2 -->
<g id="edge2" class="edge">
<title>Node3&#45;&gt;Node2</title>
<path fill="none" stroke="midnightblue" d="M63,-114.12C63,-104.82 63,-94.06 63,-86.71"/>
<polygon fill="midnightblue" stroke="midnightblue" points="59.5,-114.41 63,-124.41 66.5,-114.41 59.5,-114.41"/>
</g>
<!-- Node4 -->
<g id="node4" class="node">
<title>Node4</title>
<g id="a_node4"><a xlink:title=" ">
<polygon fill="white" stroke="#bfbfbf" points="1,-191.5 1,-210.5 39,-210.5 39,-191.5 1,-191.5"/>
<text text-anchor="middle" x="20" y="-198.5" font-family="Helvetica,sans-Serif" font-size="10.00">char</text>
</a>
</g>
</g>
<!-- Node4&#45;&gt;Node3 -->
<g id="edge3" class="edge">
<title>Node4&#45;&gt;Node3</title>
<path fill="none" stroke="#9a32cd" stroke-dasharray="5,2" d="M17.05,-181.26C16.9,-174.8 17.76,-167.75 21,-162 25.51,-153.99 33.48,-147.99 41.28,-143.7"/>
<polygon fill="#9a32cd" stroke="#9a32cd" points="13.57,-181.63 18.03,-191.24 20.54,-180.95 13.57,-181.63"/>
<text text-anchor="middle" x="53" y="-165" font-family="Helvetica,sans-Serif" font-size="10.00"> DebugName</text>
</g>
<!-- Node5 -->
<g id="node5" class="node">
<title>Node5</title>
<g id="a_node5"><a xlink:title=" ">
<polygon fill="white" stroke="#bfbfbf" points="82,-191.5 82,-210.5 132,-210.5 132,-191.5 82,-191.5"/>
<text text-anchor="middle" x="107" y="-198.5" font-family="Helvetica,sans-Serif" font-size="10.00">int32_t</text>
</a>
</g>
</g>
<!-- Node5&#45;&gt;Node3 -->
<g id="edge4" class="edge">
<title>Node5&#45;&gt;Node3</title>
<path fill="none" stroke="#9a32cd" stroke-dasharray="5,2" d="M97.65,-182.52C93.93,-175.94 89.48,-168.49 85,-162 80.6,-155.63 75.1,-148.88 70.7,-143.72"/>
<polygon fill="#9a32cd" stroke="#9a32cd" points="94.6,-184.23 102.48,-191.31 100.73,-180.86 94.6,-184.23"/>
<text text-anchor="middle" x="137.5" y="-165" font-family="Helvetica,sans-Serif" font-size="10.00"> ReferenceCounter</text>
</g>
<!-- Node6 -->
<g id="node6" class="node">
<title>Node6</title>
<g id="a_node6"><a xlink:title=" ">
<polygon fill="white" stroke="#bfbfbf" points="129,-67.5 129,-86.5 181,-86.5 181,-67.5 129,-67.5"/>
<text text-anchor="middle" x="155" y="-74.5" font-family="Helvetica,sans-Serif" font-size="10.00">JOCTET</text>
</a>
</g>
</g>
<!-- Node6&#45;&gt;Node1 -->
<g id="edge5" class="edge">
<title>Node6&#45;&gt;Node1</title>
<path fill="none" stroke="#9a32cd" stroke-dasharray="5,2" d="M155,-57.04C155,-44.67 155,-29.12 155,-19.63"/>
<polygon fill="#9a32cd" stroke="#9a32cd" points="151.5,-57.23 155,-67.23 158.5,-57.23 151.5,-57.23"/>
<text text-anchor="middle" x="171" y="-41" font-family="Helvetica,sans-Serif" font-size="10.00"> buffer</text>
</g>
<!-- Node7 -->
<g id="node7" class="node">
<title>Node7</title>
<g id="a_node7"><a xlink:title=" ">
<polygon fill="white" stroke="#bfbfbf" points="199.5,-67.5 199.5,-86.5 352.5,-86.5 352.5,-67.5 199.5,-67.5"/>
<text text-anchor="middle" x="276" y="-74.5" font-family="Helvetica,sans-Serif" font-size="10.00">struct jpeg_destination_mgr</text>
</a>
</g>
</g>
<!-- Node7&#45;&gt;Node1 -->
<g id="edge6" class="edge">
<title>Node7&#45;&gt;Node1</title>
<path fill="none" stroke="#9a32cd" stroke-dasharray="5,2" d="M250.79,-62.46C226.8,-49.57 191.44,-30.57 171.06,-19.63"/>
<polygon fill="#9a32cd" stroke="#9a32cd" points="249.22,-65.58 259.68,-67.23 252.53,-59.42 249.22,-65.58"/>
<text text-anchor="middle" x="233" y="-41" font-family="Helvetica,sans-Serif" font-size="10.00"> pub</text>
</g>
</g>
</svg>
