<?xml version="1.0" encoding="UTF-8" standalone="no"?>
<!DOCTYPE svg PUBLIC "-//W3C//DTD SVG 1.1//EN"
 "http://www.w3.org/Graphics/SVG/1.1/DTD/svg11.dtd">
<!-- Generated by graphviz version 2.43.0 (0)
 -->
<!-- Title: ICraftAction Pages: 1 -->
<svg width="397pt" height="351pt"
 viewBox="0.00 0.00 396.50 351.00" xmlns="http://www.w3.org/2000/svg" xmlns:xlink="http://www.w3.org/1999/xlink">
<g id="graph0" class="graph" transform="scale(1 1) rotate(0) translate(4 347)">
<title>ICraftAction</title>
<polygon fill="white" stroke="transparent" points="-4,4 -4,-347 392.5,-347 392.5,4 -4,4"/>
<!-- Node1 -->
<g id="node1" class="node">
<title>Node1</title>
<g id="a_node1"><a xlink:title=" ">
<polygon fill="#bfbfbf" stroke="black" points="127,-0.5 127,-19.5 201,-19.5 201,-0.5 127,-0.5"/>
<text text-anchor="middle" x="164" y="-7.5" font-family="Helvetica,sans-Serif" font-size="10.00">ICraftAction</text>
</a>
</g>
</g>
<!-- Node2 -->
<g id="node2" class="node">
<title>Node2</title>
<g id="a_node2"><a xlink:href="structInventoryAction.html" target="_top" xlink:title=" ">
<polygon fill="white" stroke="black" points="0,-67.5 0,-86.5 94,-86.5 94,-67.5 0,-67.5"/>
<text text-anchor="middle" x="47" y="-74.5" font-family="Helvetica,sans-Serif" font-size="10.00">InventoryAction</text>
</a>
</g>
</g>
<!-- Node2&#45;&gt;Node1 -->
<g id="edge1" class="edge">
<title>Node2&#45;&gt;Node1</title>
<path fill="none" stroke="midnightblue" d="M71.68,-62.29C94.87,-49.4 128.86,-30.52 148.47,-19.63"/>
<polygon fill="midnightblue" stroke="midnightblue" points="69.82,-59.32 62.78,-67.23 73.22,-65.44 69.82,-59.32"/>
</g>
<!-- Node3 -->
<g id="node3" class="node">
<title>Node3</title>
<g id="a_node3"><a xlink:href="structInventoryLocation.html" target="_top" xlink:title=" ">
<polygon fill="white" stroke="black" points="112,-67.5 112,-86.5 216,-86.5 216,-67.5 112,-67.5"/>
<text text-anchor="middle" x="164" y="-74.5" font-family="Helvetica,sans-Serif" font-size="10.00">InventoryLocation</text>
</a>
</g>
</g>
<!-- Node3&#45;&gt;Node1 -->
<g id="edge2" class="edge">
<title>Node3&#45;&gt;Node1</title>
<path fill="none" stroke="#9a32cd" stroke-dasharray="5,2" d="M164,-57.04C164,-44.67 164,-29.12 164,-19.63"/>
<polygon fill="#9a32cd" stroke="#9a32cd" points="160.5,-57.23 164,-67.23 167.5,-57.23 160.5,-57.23"/>
<text text-anchor="middle" x="187" y="-41" font-family="Helvetica,sans-Serif" font-size="10.00"> craft_inv</text>
</g>
<!-- Node4 -->
<g id="node4" class="node">
<title>Node4</title>
<g id="a_node4"><a xlink:title=" ">
<polygon fill="white" stroke="#bfbfbf" points="84.5,-140 84.5,-159 123.5,-159 123.5,-140 84.5,-140"/>
<text text-anchor="middle" x="104" y="-147" font-family="Helvetica,sans-Serif" font-size="10.00">Type</text>
</a>
</g>
</g>
<!-- Node4&#45;&gt;Node3 -->
<g id="edge3" class="edge">
<title>Node4&#45;&gt;Node3</title>
<path fill="none" stroke="#9a32cd" stroke-dasharray="5,2" d="M115.06,-131.32C120.67,-123.06 127.8,-113.21 135,-105 140.81,-98.38 148.06,-91.63 153.86,-86.54"/>
<polygon fill="#9a32cd" stroke="#9a32cd" points="112.06,-129.51 109.46,-139.78 117.9,-133.37 112.06,-129.51"/>
<text text-anchor="middle" x="147.5" y="-108" font-family="Helvetica,sans-Serif" font-size="10.00"> type</text>
</g>
<!-- Node5 -->
<g id="node5" class="node">
<title>Node5</title>
<g id="a_node5"><a xlink:title=" ">
<polygon fill="white" stroke="#bfbfbf" points="142,-140 142,-159 186,-159 186,-140 142,-140"/>
<text text-anchor="middle" x="164" y="-147" font-family="Helvetica,sans-Serif" font-size="10.00">string</text>
</a>
</g>
</g>
<!-- Node5&#45;&gt;Node3 -->
<g id="edge4" class="edge">
<title>Node5&#45;&gt;Node3</title>
<path fill="none" stroke="#9a32cd" stroke-dasharray="5,2" d="M164,-129.44C164,-115.53 164,-97.32 164,-86.72"/>
<polygon fill="#9a32cd" stroke="#9a32cd" points="160.5,-129.86 164,-139.86 167.5,-129.86 160.5,-129.86"/>
<text text-anchor="middle" x="179.5" y="-108" font-family="Helvetica,sans-Serif" font-size="10.00"> name</text>
</g>
<!-- Node6 -->
<g id="node6" class="node">
<title>Node6</title>
<g id="a_node6"><a xlink:href="classirr_1_1core_1_1vector3d.html" target="_top" xlink:title=" ">
<polygon fill="white" stroke="black" points="204.5,-134.5 204.5,-164.5 307.5,-164.5 307.5,-134.5 204.5,-134.5"/>
<text text-anchor="start" x="212.5" y="-152.5" font-family="Helvetica,sans-Serif" font-size="10.00">irr::core::vector3d</text>
<text text-anchor="middle" x="256" y="-141.5" font-family="Helvetica,sans-Serif" font-size="10.00">&lt; s16 &gt;</text>
</a>
</g>
</g>
<!-- Node6&#45;&gt;Node3 -->
<g id="edge5" class="edge">
<title>Node6&#45;&gt;Node3</title>
<path fill="none" stroke="#9a32cd" stroke-dasharray="5,2" d="M229.05,-127.84C211.18,-114.15 188.65,-96.89 175.34,-86.69"/>
<polygon fill="#9a32cd" stroke="#9a32cd" points="227.32,-130.93 237.38,-134.23 231.57,-125.37 227.32,-130.93"/>
<text text-anchor="middle" x="217" y="-108" font-family="Helvetica,sans-Serif" font-size="10.00"> p</text>
</g>
<!-- Node7 -->
<g id="node7" class="node">
<title>Node7</title>
<g id="a_node7"><a xlink:title=" ">
<polygon fill="white" stroke="#bfbfbf" points="205,-234.5 205,-253.5 239,-253.5 239,-234.5 205,-234.5"/>
<text text-anchor="middle" x="222" y="-241.5" font-family="Helvetica,sans-Serif" font-size="10.00">s16</text>
</a>
</g>
</g>
<!-- Node7&#45;&gt;Node6 -->
<g id="edge6" class="edge">
<title>Node7&#45;&gt;Node6</title>
<path fill="none" stroke="#9a32cd" stroke-dasharray="5,2" d="M228.69,-224.79C235.17,-207.17 244.85,-180.82 250.78,-164.7"/>
<polygon fill="#9a32cd" stroke="#9a32cd" points="225.3,-223.87 225.14,-234.46 231.87,-226.29 225.3,-223.87"/>
<text text-anchor="middle" x="249" y="-208" font-family="Helvetica,sans-Serif" font-size="10.00"> X</text>
<text text-anchor="middle" x="249" y="-197" font-family="Helvetica,sans-Serif" font-size="10.00">Y</text>
<text text-anchor="middle" x="249" y="-186" font-family="Helvetica,sans-Serif" font-size="10.00">Z</text>
</g>
<!-- Node8 -->
<g id="node8" class="node">
<title>Node8</title>
<g id="a_node8"><a xlink:href="classirr_1_1core_1_1vector3d.html" target="_top" xlink:title="3d vector template class with lots of operators and methods.">
<polygon fill="white" stroke="black" points="257.5,-234.5 257.5,-253.5 388.5,-253.5 388.5,-234.5 257.5,-234.5"/>
<text text-anchor="middle" x="323" y="-241.5" font-family="Helvetica,sans-Serif" font-size="10.00">irr::core::vector3d&lt; T &gt;</text>
</a>
</g>
</g>
<!-- Node8&#45;&gt;Node6 -->
<g id="edge7" class="edge">
<title>Node8&#45;&gt;Node6</title>
<path fill="none" stroke="orange" stroke-dasharray="5,2" d="M310.88,-226.26C298.13,-208.67 278.29,-181.28 266.29,-164.7"/>
<polygon fill="orange" stroke="orange" points="308.12,-228.42 316.82,-234.46 313.79,-224.31 308.12,-228.42"/>
<text text-anchor="middle" x="324.5" y="-197" font-family="Helvetica,sans-Serif" font-size="10.00"> &lt; s16 &gt;</text>
</g>
<!-- Node9 -->
<g id="node9" class="node">
<title>Node9</title>
<g id="a_node9"><a xlink:title=" ">
<polygon fill="white" stroke="#bfbfbf" points="308.5,-323.5 308.5,-342.5 337.5,-342.5 337.5,-323.5 308.5,-323.5"/>
<text text-anchor="middle" x="323" y="-330.5" font-family="Helvetica,sans-Serif" font-size="10.00">T</text>
</a>
</g>
</g>
<!-- Node9&#45;&gt;Node8 -->
<g id="edge8" class="edge">
<title>Node9&#45;&gt;Node8</title>
<path fill="none" stroke="#9a32cd" stroke-dasharray="5,2" d="M323,-313.19C323,-294.74 323,-267.41 323,-253.62"/>
<polygon fill="#9a32cd" stroke="#9a32cd" points="319.5,-313.34 323,-323.34 326.5,-313.34 319.5,-313.34"/>
<text text-anchor="middle" x="328" y="-297" font-family="Helvetica,sans-Serif" font-size="10.00"> X</text>
<text text-anchor="middle" x="328" y="-286" font-family="Helvetica,sans-Serif" font-size="10.00">Y</text>
<text text-anchor="middle" x="328" y="-275" font-family="Helvetica,sans-Serif" font-size="10.00">Z</text>
</g>
<!-- Node10 -->
<g id="node10" class="node">
<title>Node10</title>
<g id="a_node10"><a xlink:title=" ">
<polygon fill="white" stroke="#bfbfbf" points="234.5,-67.5 234.5,-86.5 269.5,-86.5 269.5,-67.5 234.5,-67.5"/>
<text text-anchor="middle" x="252" y="-74.5" font-family="Helvetica,sans-Serif" font-size="10.00">u16</text>
</a>
</g>
</g>
<!-- Node10&#45;&gt;Node1 -->
<g id="edge9" class="edge">
<title>Node10&#45;&gt;Node1</title>
<path fill="none" stroke="#9a32cd" stroke-dasharray="5,2" d="M237.69,-59.68C230.93,-52.52 222.5,-44.33 214,-38 204.35,-30.81 192.54,-24.34 182.82,-19.54"/>
<polygon fill="#9a32cd" stroke="#9a32cd" points="235.43,-62.4 244.75,-67.43 240.61,-57.68 235.43,-62.4"/>
<text text-anchor="middle" x="241.5" y="-41" font-family="Helvetica,sans-Serif" font-size="10.00"> count</text>
</g>
</g>
</svg>
