<?xml version="1.0" encoding="UTF-8" standalone="no"?>
<!DOCTYPE svg PUBLIC "-//W3C//DTD SVG 1.1//EN"
 "http://www.w3.org/Graphics/SVG/1.1/DTD/svg11.dtd">
<!-- Generated by graphviz version 2.43.0 (0)
 -->
<!-- Title: Catch::Matchers::Impl::MatcherBase&lt; T &gt; Pages: 1 -->
<svg width="1087pt" height="984pt"
 viewBox="0.00 0.00 1087.00 983.87" xmlns="http://www.w3.org/2000/svg" xmlns:xlink="http://www.w3.org/1999/xlink">
<g id="graph0" class="graph" transform="scale(1 1) rotate(0) translate(4 979.87)">
<title>Catch::Matchers::Impl::MatcherBase&lt; T &gt;</title>
<polygon fill="white" stroke="transparent" points="-4,4 -4,-979.87 1083,-979.87 1083,4 -4,4"/>
<!-- Node1 -->
<g id="node1" class="node">
<title>Node1</title>
<g id="a_node1"><a xlink:title=" ">
<polygon fill="#bfbfbf" stroke="black" points="392,-483.87 392,-513.87 515,-513.87 515,-483.87 392,-483.87"/>
<text text-anchor="start" x="400" y="-501.87" font-family="Helvetica,sans-Serif" font-size="10.00">Catch::Matchers::Impl</text>
<text text-anchor="middle" x="453.5" y="-490.87" font-family="Helvetica,sans-Serif" font-size="10.00">::MatcherBase&lt; T &gt;</text>
</a>
</g>
</g>
<!-- Node5 -->
<g id="node5" class="node">
<title>Node5</title>
<g id="a_node5"><a xlink:href="classCatch_1_1Matchers_1_1Exception_1_1ExceptionMessageMatcher.html" target="_top" xlink:title=" ">
<polygon fill="white" stroke="black" points="729.5,-934.37 729.5,-975.37 883.5,-975.37 883.5,-934.37 729.5,-934.37"/>
<text text-anchor="start" x="737.5" y="-963.37" font-family="Helvetica,sans-Serif" font-size="10.00">Catch::Matchers::Exception</text>
<text text-anchor="start" x="737.5" y="-952.37" font-family="Helvetica,sans-Serif" font-size="10.00">::ExceptionMessageMatcher</text>
<text text-anchor="middle" x="806.5" y="-941.37" font-family="Helvetica,sans-Serif" font-size="10.00">&lt; std::exception &gt;</text>
</a>
</g>
</g>
<!-- Node1&#45;&gt;Node5 -->
<g id="edge4" class="edge">
<title>Node1&#45;&gt;Node5</title>
<path fill="none" stroke="midnightblue" d="M456.69,-524.5C463.57,-599.24 487.08,-814.85 533,-865.87 582.86,-921.26 667.63,-942.3 729.41,-950.23"/>
<polygon fill="midnightblue" stroke="midnightblue" points="460.14,-523.79 455.76,-514.15 453.17,-524.42 460.14,-523.79"/>
</g>
<!-- Node6 -->
<g id="node6" class="node">
<title>Node6</title>
<g id="a_node6"><a xlink:href="structCatch_1_1Matchers_1_1Floating_1_1WithinAbsMatcher.html" target="_top" xlink:title=" ">
<polygon fill="white" stroke="black" points="723,-884.87 723,-914.87 890,-914.87 890,-884.87 723,-884.87"/>
<text text-anchor="start" x="731" y="-902.87" font-family="Helvetica,sans-Serif" font-size="10.00">Catch::Matchers::Floating</text>
<text text-anchor="middle" x="806.5" y="-891.87" font-family="Helvetica,sans-Serif" font-size="10.00">::WithinAbsMatcher&lt; double &gt;</text>
</a>
</g>
</g>
<!-- Node1&#45;&gt;Node6 -->
<g id="edge5" class="edge">
<title>Node1&#45;&gt;Node6</title>
<path fill="none" stroke="midnightblue" d="M457.68,-524.38C466.54,-591.54 493.46,-770.99 533,-813.87 581.52,-866.47 661.88,-887.1 722.79,-895.08"/>
<polygon fill="midnightblue" stroke="midnightblue" points="461.13,-523.72 456.37,-514.25 454.18,-524.62 461.13,-523.72"/>
</g>
<!-- Node7 -->
<g id="node7" class="node">
<title>Node7</title>
<g id="a_node7"><a xlink:href="structCatch_1_1Matchers_1_1Floating_1_1WithinRelMatcher.html" target="_top" xlink:title=" ">
<polygon fill="white" stroke="black" points="724,-835.87 724,-865.87 889,-865.87 889,-835.87 724,-835.87"/>
<text text-anchor="start" x="732" y="-853.87" font-family="Helvetica,sans-Serif" font-size="10.00">Catch::Matchers::Floating</text>
<text text-anchor="middle" x="806.5" y="-842.87" font-family="Helvetica,sans-Serif" font-size="10.00">::WithinRelMatcher&lt; double &gt;</text>
</a>
</g>
</g>
<!-- Node1&#45;&gt;Node7 -->
<g id="edge6" class="edge">
<title>Node1&#45;&gt;Node7</title>
<path fill="none" stroke="midnightblue" d="M454.8,-524.2C456.79,-575.86 468.58,-694.18 533,-761.87 582.66,-814.05 663.29,-835.68 723.98,-844.62"/>
<polygon fill="midnightblue" stroke="midnightblue" points="458.29,-523.85 454.5,-513.95 451.3,-524.05 458.29,-523.85"/>
</g>
<!-- Node8 -->
<g id="node8" class="node">
<title>Node8</title>
<g id="a_node8"><a xlink:href="structCatch_1_1Matchers_1_1Floating_1_1WithinUlpsMatcher.html" target="_top" xlink:title=" ">
<polygon fill="white" stroke="black" points="721,-786.87 721,-816.87 892,-816.87 892,-786.87 721,-786.87"/>
<text text-anchor="start" x="729" y="-804.87" font-family="Helvetica,sans-Serif" font-size="10.00">Catch::Matchers::Floating</text>
<text text-anchor="middle" x="806.5" y="-793.87" font-family="Helvetica,sans-Serif" font-size="10.00">::WithinUlpsMatcher&lt; double &gt;</text>
</a>
</g>
</g>
<!-- Node1&#45;&gt;Node8 -->
<g id="edge7" class="edge">
<title>Node1&#45;&gt;Node8</title>
<path fill="none" stroke="midnightblue" d="M457.18,-524.13C463.09,-567.62 481.14,-656.96 533,-708.87 582.99,-758.91 660.97,-782.05 720.73,-792.73"/>
<polygon fill="midnightblue" stroke="midnightblue" points="460.64,-523.6 455.92,-514.11 453.69,-524.47 460.64,-523.6"/>
</g>
<!-- Node9 -->
<g id="node9" class="node">
<title>Node9</title>
<g id="a_node9"><a xlink:href="classCatch_1_1Matchers_1_1Generic_1_1PredicateMatcher.html" target="_top" xlink:title=" ">
<polygon fill="white" stroke="black" points="737,-737.87 737,-767.87 876,-767.87 876,-737.87 737,-737.87"/>
<text text-anchor="start" x="745" y="-755.87" font-family="Helvetica,sans-Serif" font-size="10.00">Catch::Matchers::Generic</text>
<text text-anchor="middle" x="806.5" y="-744.87" font-family="Helvetica,sans-Serif" font-size="10.00">::PredicateMatcher&lt; T &gt;</text>
</a>
</g>
</g>
<!-- Node1&#45;&gt;Node9 -->
<g id="edge8" class="edge">
<title>Node1&#45;&gt;Node9</title>
<path fill="none" stroke="midnightblue" d="M460.85,-523.71C470.79,-557.88 493.12,-619.27 533,-655.87 589.8,-707.98 676.45,-732.47 736.74,-743.73"/>
<polygon fill="midnightblue" stroke="midnightblue" points="464.21,-522.74 458.16,-514.04 457.47,-524.62 464.21,-522.74"/>
</g>
<!-- Node10 -->
<g id="node10" class="node">
<title>Node10</title>
<g id="a_node10"><a xlink:href="structCatch_1_1Matchers_1_1StdString_1_1RegexMatcher.html" target="_top" xlink:title=" ">
<polygon fill="white" stroke="black" points="724.5,-688.87 724.5,-718.87 888.5,-718.87 888.5,-688.87 724.5,-688.87"/>
<text text-anchor="start" x="732.5" y="-706.87" font-family="Helvetica,sans-Serif" font-size="10.00">Catch::Matchers::StdString</text>
<text text-anchor="middle" x="806.5" y="-695.87" font-family="Helvetica,sans-Serif" font-size="10.00">::RegexMatcher&lt; std::string &gt;</text>
</a>
</g>
</g>
<!-- Node1&#45;&gt;Node10 -->
<g id="edge9" class="edge">
<title>Node1&#45;&gt;Node10</title>
<path fill="none" stroke="midnightblue" d="M467.12,-522.97C480.6,-546.68 504.01,-582.47 533,-604.87 590.06,-648.95 668.58,-674.7 726.69,-688.83"/>
<polygon fill="midnightblue" stroke="midnightblue" points="470.02,-520.99 462.12,-513.93 463.89,-524.38 470.02,-520.99"/>
</g>
<!-- Node11 -->
<g id="node11" class="node">
<title>Node11</title>
<g id="a_node11"><a xlink:href="structCatch_1_1Matchers_1_1StdString_1_1StringMatcherBase.html" target="_top" xlink:title=" ">
<polygon fill="white" stroke="black" points="733.5,-628.37 733.5,-669.37 879.5,-669.37 879.5,-628.37 733.5,-628.37"/>
<text text-anchor="start" x="741.5" y="-657.37" font-family="Helvetica,sans-Serif" font-size="10.00">Catch::Matchers::StdString</text>
<text text-anchor="start" x="741.5" y="-646.37" font-family="Helvetica,sans-Serif" font-size="10.00">::StringMatcherBase&lt; std</text>
<text text-anchor="middle" x="806.5" y="-635.37" font-family="Helvetica,sans-Serif" font-size="10.00">::string &gt;</text>
</a>
</g>
</g>
<!-- Node1&#45;&gt;Node11 -->
<g id="edge10" class="edge">
<title>Node1&#45;&gt;Node11</title>
<path fill="none" stroke="midnightblue" d="M478.16,-520.78C493.01,-533.59 513.06,-549.28 533,-559.87 597.18,-593.95 676.78,-618.1 733.35,-632.57"/>
<polygon fill="midnightblue" stroke="midnightblue" points="480.3,-517.99 470.48,-514 475.67,-523.24 480.3,-517.99"/>
</g>
<!-- Node16 -->
<g id="node16" class="node">
<title>Node16</title>
<g id="a_node16"><a xlink:href="structCatch_1_1Matchers_1_1Vector_1_1ApproxMatcher.html" target="_top" xlink:title=" ">
<polygon fill="white" stroke="black" points="733,-568.37 733,-609.37 880,-609.37 880,-568.37 733,-568.37"/>
<text text-anchor="start" x="741" y="-597.37" font-family="Helvetica,sans-Serif" font-size="10.00">Catch::Matchers::Vector</text>
<text text-anchor="start" x="741" y="-586.37" font-family="Helvetica,sans-Serif" font-size="10.00">::ApproxMatcher&lt; std::</text>
<text text-anchor="middle" x="806.5" y="-575.37" font-family="Helvetica,sans-Serif" font-size="10.00">vector&lt; T, AllocMatch &gt; &gt;</text>
</a>
</g>
</g>
<!-- Node1&#45;&gt;Node16 -->
<g id="edge15" class="edge">
<title>Node1&#45;&gt;Node16</title>
<path fill="none" stroke="midnightblue" d="M505.51,-517.27C514.61,-520.31 524.05,-523.3 533,-525.87 600.1,-545.11 677.76,-562.6 732.97,-574.25"/>
<polygon fill="midnightblue" stroke="midnightblue" points="506.39,-513.88 495.8,-513.97 504.14,-520.5 506.39,-513.88"/>
</g>
<!-- Node17 -->
<g id="node17" class="node">
<title>Node17</title>
<g id="a_node17"><a xlink:href="structCatch_1_1Matchers_1_1Vector_1_1ContainsElementMatcher.html" target="_top" xlink:title=" ">
<polygon fill="white" stroke="black" points="732,-508.37 732,-549.37 881,-549.37 881,-508.37 732,-508.37"/>
<text text-anchor="start" x="740" y="-537.37" font-family="Helvetica,sans-Serif" font-size="10.00">Catch::Matchers::Vector</text>
<text text-anchor="start" x="740" y="-526.37" font-family="Helvetica,sans-Serif" font-size="10.00">::ContainsElementMatcher</text>
<text text-anchor="middle" x="806.5" y="-515.37" font-family="Helvetica,sans-Serif" font-size="10.00">&lt; std::vector&lt; T, Alloc &gt; &gt;</text>
</a>
</g>
</g>
<!-- Node1&#45;&gt;Node17 -->
<g id="edge16" class="edge">
<title>Node1&#45;&gt;Node17</title>
<path fill="none" stroke="midnightblue" d="M525.38,-504.93C585.37,-510.05 671.05,-517.38 731.82,-522.57"/>
<polygon fill="midnightblue" stroke="midnightblue" points="525.5,-501.42 515.24,-504.06 524.9,-508.4 525.5,-501.42"/>
</g>
<!-- Node18 -->
<g id="node18" class="node">
<title>Node18</title>
<g id="a_node18"><a xlink:href="structCatch_1_1Matchers_1_1Vector_1_1ContainsMatcher.html" target="_top" xlink:title=" ">
<polygon fill="white" stroke="black" points="730,-448.37 730,-489.37 883,-489.37 883,-448.37 730,-448.37"/>
<text text-anchor="start" x="738" y="-477.37" font-family="Helvetica,sans-Serif" font-size="10.00">Catch::Matchers::Vector</text>
<text text-anchor="start" x="738" y="-466.37" font-family="Helvetica,sans-Serif" font-size="10.00">::ContainsMatcher&lt; std</text>
<text text-anchor="middle" x="806.5" y="-455.37" font-family="Helvetica,sans-Serif" font-size="10.00">::vector&lt; T, AllocMatch &gt; &gt;</text>
</a>
</g>
</g>
<!-- Node1&#45;&gt;Node18 -->
<g id="edge17" class="edge">
<title>Node1&#45;&gt;Node18</title>
<path fill="none" stroke="midnightblue" d="M525.28,-492.82C584.66,-487.74 669.24,-480.51 729.93,-475.33"/>
<polygon fill="midnightblue" stroke="midnightblue" points="524.9,-489.34 515.24,-493.68 525.5,-496.31 524.9,-489.34"/>
</g>
<!-- Node19 -->
<g id="node19" class="node">
<title>Node19</title>
<g id="a_node19"><a xlink:href="structCatch_1_1Matchers_1_1Vector_1_1EqualsMatcher.html" target="_top" xlink:title=" ">
<polygon fill="white" stroke="black" points="733,-388.37 733,-429.37 880,-429.37 880,-388.37 733,-388.37"/>
<text text-anchor="start" x="741" y="-417.37" font-family="Helvetica,sans-Serif" font-size="10.00">Catch::Matchers::Vector</text>
<text text-anchor="start" x="741" y="-406.37" font-family="Helvetica,sans-Serif" font-size="10.00">::EqualsMatcher&lt; std::</text>
<text text-anchor="middle" x="806.5" y="-395.37" font-family="Helvetica,sans-Serif" font-size="10.00">vector&lt; T, AllocMatch &gt; &gt;</text>
</a>
</g>
</g>
<!-- Node1&#45;&gt;Node19 -->
<g id="edge18" class="edge">
<title>Node1&#45;&gt;Node19</title>
<path fill="none" stroke="midnightblue" d="M511.76,-480.93C518.89,-478.83 526.1,-476.76 533,-474.87 600.37,-456.43 677.84,-437.92 732.91,-425.22"/>
<polygon fill="midnightblue" stroke="midnightblue" points="510.69,-477.6 502.11,-483.82 512.69,-484.31 510.69,-477.6"/>
</g>
<!-- Node20 -->
<g id="node20" class="node">
<title>Node20</title>
<g id="a_node20"><a xlink:href="structCatch_1_1Matchers_1_1Vector_1_1UnorderedEqualsMatcher.html" target="_top" xlink:title=" ">
<polygon fill="white" stroke="black" points="717,-328.37 717,-369.37 896,-369.37 896,-328.37 717,-328.37"/>
<text text-anchor="start" x="725" y="-357.37" font-family="Helvetica,sans-Serif" font-size="10.00">Catch::Matchers::Vector</text>
<text text-anchor="start" x="725" y="-346.37" font-family="Helvetica,sans-Serif" font-size="10.00">::UnorderedEqualsMatcher</text>
<text text-anchor="middle" x="806.5" y="-335.37" font-family="Helvetica,sans-Serif" font-size="10.00">&lt; std::vector&lt; T, AllocMatch &gt; &gt;</text>
</a>
</g>
</g>
<!-- Node1&#45;&gt;Node20 -->
<g id="edge19" class="edge">
<title>Node1&#45;&gt;Node20</title>
<path fill="none" stroke="midnightblue" d="M475.28,-476.48C490.11,-461.67 511.21,-442.86 533,-430.87 590.46,-399.25 661.6,-378.37 716.79,-365.6"/>
<polygon fill="midnightblue" stroke="midnightblue" points="472.62,-474.19 468.13,-483.79 477.62,-479.09 472.62,-474.19"/>
</g>
<!-- Node21 -->
<g id="node21" class="node">
<title>Node21</title>
<g id="a_node21"><a xlink:href="structCatch_1_1Matchers_1_1Impl_1_1MatcherBase.html" target="_top" xlink:title=" ">
<polygon fill="white" stroke="black" points="735.5,-278.87 735.5,-308.87 877.5,-308.87 877.5,-278.87 735.5,-278.87"/>
<text text-anchor="start" x="743.5" y="-296.87" font-family="Helvetica,sans-Serif" font-size="10.00">Catch::Matchers::Impl</text>
<text text-anchor="middle" x="806.5" y="-285.87" font-family="Helvetica,sans-Serif" font-size="10.00">::MatcherBase&lt; double &gt;</text>
</a>
</g>
</g>
<!-- Node1&#45;&gt;Node21 -->
<g id="edge20" class="edge">
<title>Node1&#45;&gt;Node21</title>
<path fill="none" stroke="orange" stroke-dasharray="5,2" d="M461.21,-473.97C471.26,-441.61 493.42,-385.72 533,-355.87 591.59,-311.68 676.07,-298.06 735.39,-294.32"/>
<polygon fill="orange" stroke="orange" points="457.85,-473.01 458.36,-483.59 464.56,-474.99 457.85,-473.01"/>
<text text-anchor="middle" x="616" y="-358.87" font-family="Helvetica,sans-Serif" font-size="10.00"> &lt; double &gt;</text>
</g>
<!-- Node22 -->
<g id="node22" class="node">
<title>Node22</title>
<g id="a_node22"><a xlink:href="structCatch_1_1Matchers_1_1Impl_1_1MatcherBase.html" target="_top" xlink:title=" ">
<polygon fill="white" stroke="black" points="727.5,-229.87 727.5,-259.87 885.5,-259.87 885.5,-229.87 727.5,-229.87"/>
<text text-anchor="start" x="735.5" y="-247.87" font-family="Helvetica,sans-Serif" font-size="10.00">Catch::Matchers::Impl</text>
<text text-anchor="middle" x="806.5" y="-236.87" font-family="Helvetica,sans-Serif" font-size="10.00">::MatcherBase&lt; std::string &gt;</text>
</a>
</g>
</g>
<!-- Node1&#45;&gt;Node22 -->
<g id="edge21" class="edge">
<title>Node1&#45;&gt;Node22</title>
<path fill="none" stroke="orange" stroke-dasharray="5,2" d="M455.73,-473.41C459.4,-427.6 474.12,-331.62 533,-283.87 587.01,-240.07 667.65,-233.46 727.2,-235.91"/>
<polygon fill="orange" stroke="orange" points="452.21,-473.44 455.02,-483.66 459.2,-473.92 452.21,-473.44"/>
<text text-anchor="middle" x="616" y="-286.87" font-family="Helvetica,sans-Serif" font-size="10.00"> &lt; std::string &gt;</text>
</g>
<!-- Node23 -->
<g id="node23" class="node">
<title>Node23</title>
<g id="a_node23"><a xlink:href="structCatch_1_1Matchers_1_1Impl_1_1MatcherBase.html" target="_top" xlink:title=" ">
<polygon fill="white" stroke="black" points="732,-169.37 732,-210.37 881,-210.37 881,-169.37 732,-169.37"/>
<text text-anchor="start" x="740" y="-198.37" font-family="Helvetica,sans-Serif" font-size="10.00">Catch::Matchers::Impl</text>
<text text-anchor="start" x="740" y="-187.37" font-family="Helvetica,sans-Serif" font-size="10.00">::MatcherBase&lt; std::vector</text>
<text text-anchor="middle" x="806.5" y="-176.37" font-family="Helvetica,sans-Serif" font-size="10.00">&lt; T, AllocMatch &gt; &gt;</text>
</a>
</g>
</g>
<!-- Node1&#45;&gt;Node23 -->
<g id="edge22" class="edge">
<title>Node1&#45;&gt;Node23</title>
<path fill="none" stroke="orange" stroke-dasharray="5,2" d="M458.04,-473.43C467.25,-411.22 493.98,-254.03 533,-220.87 587.33,-174.69 671.34,-171.93 731.72,-177.59"/>
<polygon fill="orange" stroke="orange" points="454.55,-473.17 456.58,-483.57 461.47,-474.17 454.55,-473.17"/>
<text text-anchor="middle" x="616" y="-223.87" font-family="Helvetica,sans-Serif" font-size="10.00"> &lt; std::vector&lt; T, AllocMatch &gt; &gt;</text>
</g>
<!-- Node24 -->
<g id="node24" class="node">
<title>Node24</title>
<g id="a_node24"><a xlink:href="structCatch_1_1Matchers_1_1Impl_1_1MatcherBase.html" target="_top" xlink:title=" ">
<polygon fill="white" stroke="black" points="732,-109.37 732,-150.37 881,-150.37 881,-109.37 732,-109.37"/>
<text text-anchor="start" x="740" y="-138.37" font-family="Helvetica,sans-Serif" font-size="10.00">Catch::Matchers::Impl</text>
<text text-anchor="start" x="740" y="-127.37" font-family="Helvetica,sans-Serif" font-size="10.00">::MatcherBase&lt; std::vector</text>
<text text-anchor="middle" x="806.5" y="-116.37" font-family="Helvetica,sans-Serif" font-size="10.00">&lt; T, Alloc &gt; &gt;</text>
</a>
</g>
</g>
<!-- Node1&#45;&gt;Node24 -->
<g id="edge23" class="edge">
<title>Node1&#45;&gt;Node24</title>
<path fill="none" stroke="orange" stroke-dasharray="5,2" d="M456.68,-473.42C463.36,-402.11 485.93,-202.81 533,-160.87 586.41,-113.27 670.99,-110.87 731.76,-117"/>
<polygon fill="orange" stroke="orange" points="453.17,-473.45 455.75,-483.72 460.14,-474.08 453.17,-473.45"/>
<text text-anchor="middle" x="616" y="-163.87" font-family="Helvetica,sans-Serif" font-size="10.00"> &lt; std::vector&lt; T, Alloc &gt; &gt;</text>
</g>
<!-- Node25 -->
<g id="node25" class="node">
<title>Node25</title>
<g id="a_node25"><a xlink:href="structCatch_1_1Matchers_1_1Impl_1_1MatcherBase.html" target="_top" xlink:title=" ">
<polygon fill="white" stroke="black" points="741,-59.87 741,-89.87 872,-89.87 872,-59.87 741,-59.87"/>
<text text-anchor="start" x="749" y="-77.87" font-family="Helvetica,sans-Serif" font-size="10.00">Catch::Matchers::Impl</text>
<text text-anchor="middle" x="806.5" y="-66.87" font-family="Helvetica,sans-Serif" font-size="10.00">::MatcherBase&lt; ArgT &gt;</text>
</a>
</g>
</g>
<!-- Node1&#45;&gt;Node25 -->
<g id="edge24" class="edge">
<title>Node1&#45;&gt;Node25</title>
<path fill="none" stroke="orange" stroke-dasharray="5,2" d="M455.65,-473.66C459.83,-394.05 477.05,-150.34 533,-99.87 588.73,-49.59 679.47,-51.85 740.78,-60.95"/>
<polygon fill="orange" stroke="orange" points="452.15,-473.6 455.14,-483.76 459.14,-473.95 452.15,-473.6"/>
<text text-anchor="middle" x="616" y="-102.87" font-family="Helvetica,sans-Serif" font-size="10.00"> &lt; ArgT &gt;</text>
</g>
<!-- Node26 -->
<g id="node26" class="node">
<title>Node26</title>
<g id="a_node26"><a xlink:href="structCatch_1_1Matchers_1_1Impl_1_1MatcherBase.html" target="_top" xlink:title=" ">
<polygon fill="white" stroke="black" points="717.5,-10.87 717.5,-40.87 895.5,-40.87 895.5,-10.87 717.5,-10.87"/>
<text text-anchor="start" x="725.5" y="-28.87" font-family="Helvetica,sans-Serif" font-size="10.00">Catch::Matchers::Impl</text>
<text text-anchor="middle" x="806.5" y="-17.87" font-family="Helvetica,sans-Serif" font-size="10.00">::MatcherBase&lt; std::exception &gt;</text>
</a>
</g>
</g>
<!-- Node1&#45;&gt;Node26 -->
<g id="edge25" class="edge">
<title>Node1&#45;&gt;Node26</title>
<path fill="none" stroke="orange" stroke-dasharray="5,2" d="M454.88,-473.37C456.76,-385.71 467.88,-98.91 533,-40.87 591.89,11.62 689.45,2.18 750.46,-10.84"/>
<polygon fill="orange" stroke="orange" points="451.38,-473.43 454.69,-483.49 458.38,-473.56 451.38,-473.43"/>
<text text-anchor="middle" x="616" y="-43.87" font-family="Helvetica,sans-Serif" font-size="10.00"> &lt; std::exception &gt;</text>
</g>
<!-- Node2 -->
<g id="node2" class="node">
<title>Node2</title>
<g id="a_node2"><a xlink:href="classCatch_1_1Matchers_1_1Impl_1_1MatcherUntypedBase.html" target="_top" xlink:title=" ">
<polygon fill="white" stroke="black" points="227,-508.87 227,-538.87 355,-538.87 355,-508.87 227,-508.87"/>
<text text-anchor="start" x="235" y="-526.87" font-family="Helvetica,sans-Serif" font-size="10.00">Catch::Matchers::Impl</text>
<text text-anchor="middle" x="291" y="-515.87" font-family="Helvetica,sans-Serif" font-size="10.00">::MatcherUntypedBase</text>
</a>
</g>
</g>
<!-- Node2&#45;&gt;Node1 -->
<g id="edge1" class="edge">
<title>Node2&#45;&gt;Node1</title>
<path fill="none" stroke="midnightblue" d="M365.38,-512.44C374.24,-511.06 383.23,-509.66 391.88,-508.31"/>
<polygon fill="midnightblue" stroke="midnightblue" points="364.78,-508.99 355.43,-513.99 365.85,-515.91 364.78,-508.99"/>
</g>
<!-- Node3 -->
<g id="node3" class="node">
<title>Node3</title>
<g id="a_node3"><a xlink:href="structCatch_1_1Matchers_1_1Impl_1_1MatcherMethod.html" target="_top" xlink:title=" ">
<polygon fill="white" stroke="black" points="227,-459.87 227,-489.87 355,-489.87 355,-459.87 227,-459.87"/>
<text text-anchor="start" x="235" y="-477.87" font-family="Helvetica,sans-Serif" font-size="10.00">Catch::Matchers::Impl</text>
<text text-anchor="middle" x="291" y="-466.87" font-family="Helvetica,sans-Serif" font-size="10.00">::MatcherMethod&lt; T &gt;</text>
</a>
</g>
</g>
<!-- Node3&#45;&gt;Node1 -->
<g id="edge2" class="edge">
<title>Node3&#45;&gt;Node1</title>
<path fill="none" stroke="midnightblue" d="M365.38,-485.84C374.24,-487.17 383.23,-488.51 391.88,-489.8"/>
<polygon fill="midnightblue" stroke="midnightblue" points="365.84,-482.37 355.43,-484.35 364.81,-489.29 365.84,-482.37"/>
</g>
<!-- Node4 -->
<g id="node4" class="node">
<title>Node4</title>
<g id="a_node4"><a xlink:href="structCatch_1_1Matchers_1_1Impl_1_1MatcherMethod.html" target="_top" xlink:title=" ">
<polygon fill="white" stroke="black" points="0,-459.87 0,-489.87 159,-489.87 159,-459.87 0,-459.87"/>
<text text-anchor="start" x="8" y="-477.87" font-family="Helvetica,sans-Serif" font-size="10.00">Catch::Matchers::Impl</text>
<text text-anchor="middle" x="79.5" y="-466.87" font-family="Helvetica,sans-Serif" font-size="10.00">::MatcherMethod&lt; ObjectT &gt;</text>
</a>
</g>
</g>
<!-- Node4&#45;&gt;Node3 -->
<g id="edge3" class="edge">
<title>Node4&#45;&gt;Node3</title>
<path fill="none" stroke="orange" stroke-dasharray="5,2" d="M169.18,-474.87C188.61,-474.87 208.8,-474.87 226.98,-474.87"/>
<polygon fill="orange" stroke="orange" points="169.11,-471.37 159.11,-474.87 169.11,-478.37 169.11,-471.37"/>
<text text-anchor="middle" x="193" y="-477.87" font-family="Helvetica,sans-Serif" font-size="10.00"> &lt; T &gt;</text>
</g>
<!-- Node12 -->
<g id="node12" class="node">
<title>Node12</title>
<g id="a_node12"><a xlink:href="structCatch_1_1Matchers_1_1StdString_1_1ContainsMatcher.html" target="_top" xlink:title=" ">
<polygon fill="white" stroke="black" points="933,-706.87 933,-736.87 1079,-736.87 1079,-706.87 933,-706.87"/>
<text text-anchor="start" x="941" y="-724.87" font-family="Helvetica,sans-Serif" font-size="10.00">Catch::Matchers::StdString</text>
<text text-anchor="middle" x="1006" y="-713.87" font-family="Helvetica,sans-Serif" font-size="10.00">::ContainsMatcher</text>
</a>
</g>
</g>
<!-- Node11&#45;&gt;Node12 -->
<g id="edge11" class="edge">
<title>Node11&#45;&gt;Node12</title>
<path fill="none" stroke="midnightblue" d="M879.01,-673.11C884.79,-675.32 890.51,-677.58 896,-679.87 912.88,-686.9 916.07,-690.96 933,-697.87 940.69,-701 948.95,-704.05 957.04,-706.86"/>
<polygon fill="midnightblue" stroke="midnightblue" points="879.86,-669.69 869.26,-669.47 877.41,-676.25 879.86,-669.69"/>
</g>
<!-- Node13 -->
<g id="node13" class="node">
<title>Node13</title>
<g id="a_node13"><a xlink:href="structCatch_1_1Matchers_1_1StdString_1_1EndsWithMatcher.html" target="_top" xlink:title=" ">
<polygon fill="white" stroke="black" points="933,-657.87 933,-687.87 1079,-687.87 1079,-657.87 933,-657.87"/>
<text text-anchor="start" x="941" y="-675.87" font-family="Helvetica,sans-Serif" font-size="10.00">Catch::Matchers::StdString</text>
<text text-anchor="middle" x="1006" y="-664.87" font-family="Helvetica,sans-Serif" font-size="10.00">::EndsWithMatcher</text>
</a>
</g>
</g>
<!-- Node11&#45;&gt;Node13 -->
<g id="edge12" class="edge">
<title>Node11&#45;&gt;Node13</title>
<path fill="none" stroke="midnightblue" d="M889.89,-658.88C904.11,-660.61 918.8,-662.39 932.72,-664.09"/>
<polygon fill="midnightblue" stroke="midnightblue" points="889.99,-655.37 879.64,-657.63 889.15,-662.32 889.99,-655.37"/>
</g>
<!-- Node14 -->
<g id="node14" class="node">
<title>Node14</title>
<g id="a_node14"><a xlink:href="structCatch_1_1Matchers_1_1StdString_1_1EqualsMatcher.html" target="_top" xlink:title=" ">
<polygon fill="white" stroke="black" points="933,-608.87 933,-638.87 1079,-638.87 1079,-608.87 933,-608.87"/>
<text text-anchor="start" x="941" y="-626.87" font-family="Helvetica,sans-Serif" font-size="10.00">Catch::Matchers::StdString</text>
<text text-anchor="middle" x="1006" y="-615.87" font-family="Helvetica,sans-Serif" font-size="10.00">::EqualsMatcher</text>
</a>
</g>
</g>
<!-- Node11&#45;&gt;Node14 -->
<g id="edge13" class="edge">
<title>Node11&#45;&gt;Node14</title>
<path fill="none" stroke="midnightblue" d="M889.89,-638.44C904.11,-636.64 918.8,-634.78 932.72,-633.02"/>
<polygon fill="midnightblue" stroke="midnightblue" points="889.12,-635.01 879.64,-639.74 890,-641.95 889.12,-635.01"/>
</g>
<!-- Node15 -->
<g id="node15" class="node">
<title>Node15</title>
<g id="a_node15"><a xlink:href="structCatch_1_1Matchers_1_1StdString_1_1StartsWithMatcher.html" target="_top" xlink:title=" ">
<polygon fill="white" stroke="black" points="933,-559.87 933,-589.87 1079,-589.87 1079,-559.87 933,-559.87"/>
<text text-anchor="start" x="941" y="-577.87" font-family="Helvetica,sans-Serif" font-size="10.00">Catch::Matchers::StdString</text>
<text text-anchor="middle" x="1006" y="-566.87" font-family="Helvetica,sans-Serif" font-size="10.00">::StartsWithMatcher</text>
</a>
</g>
</g>
<!-- Node11&#45;&gt;Node15 -->
<g id="edge14" class="edge">
<title>Node11&#45;&gt;Node15</title>
<path fill="none" stroke="midnightblue" d="M881.36,-624.75C886.35,-622.84 891.27,-620.87 896,-618.87 913.02,-611.66 916,-607.14 933,-599.87 941.15,-596.38 949.97,-593.01 958.54,-589.92"/>
<polygon fill="midnightblue" stroke="midnightblue" points="879.88,-621.57 871.73,-628.35 882.32,-628.13 879.88,-621.57"/>
</g>
</g>
</svg>
