<?xml version="1.0" encoding="UTF-8" standalone="no"?>
<!DOCTYPE svg PUBLIC "-//W3C//DTD SVG 1.1//EN"
 "http://www.w3.org/Graphics/SVG/1.1/DTD/svg11.dtd">
<!-- Generated by graphviz version 2.43.0 (0)
 -->
<!-- Title: Catch::SectionEndInfo Pages: 1 -->
<svg width="364pt" height="262pt"
 viewBox="0.00 0.00 364.00 262.00" xmlns="http://www.w3.org/2000/svg" xmlns:xlink="http://www.w3.org/1999/xlink">
<g id="graph0" class="graph" transform="scale(1 1) rotate(0) translate(4 258)">
<title>Catch::SectionEndInfo</title>
<polygon fill="white" stroke="transparent" points="-4,4 -4,-258 360,-258 360,4 -4,4"/>
<!-- Node1 -->
<g id="node1" class="node">
<title>Node1</title>
<g id="a_node1"><a xlink:title=" ">
<polygon fill="#bfbfbf" stroke="black" points="127.5,-0.5 127.5,-19.5 250.5,-19.5 250.5,-0.5 127.5,-0.5"/>
<text text-anchor="middle" x="189" y="-7.5" font-family="Helvetica,sans-Serif" font-size="10.00">Catch::SectionEndInfo</text>
</a>
</g>
</g>
<!-- Node2 -->
<g id="node2" class="node">
<title>Node2</title>
<g id="a_node2"><a xlink:href="structCatch_1_1SectionInfo.html" target="_top" xlink:title=" ">
<polygon fill="white" stroke="black" points="136.5,-67.5 136.5,-86.5 241.5,-86.5 241.5,-67.5 136.5,-67.5"/>
<text text-anchor="middle" x="189" y="-74.5" font-family="Helvetica,sans-Serif" font-size="10.00">Catch::SectionInfo</text>
</a>
</g>
</g>
<!-- Node2&#45;&gt;Node1 -->
<g id="edge1" class="edge">
<title>Node2&#45;&gt;Node1</title>
<path fill="none" stroke="#9a32cd" stroke-dasharray="5,2" d="M189,-57.04C189,-44.67 189,-29.12 189,-19.63"/>
<polygon fill="#9a32cd" stroke="#9a32cd" points="185.5,-57.23 189,-67.23 192.5,-57.23 185.5,-57.23"/>
<text text-anchor="middle" x="218" y="-41" font-family="Helvetica,sans-Serif" font-size="10.00"> sectionInfo</text>
</g>
<!-- Node3 -->
<g id="node3" class="node">
<title>Node3</title>
<g id="a_node3"><a xlink:href="structCatch_1_1SourceLineInfo.html" target="_top" xlink:title=" ">
<polygon fill="white" stroke="black" points="143,-145.5 143,-164.5 265,-164.5 265,-145.5 143,-145.5"/>
<text text-anchor="middle" x="204" y="-152.5" font-family="Helvetica,sans-Serif" font-size="10.00">Catch::SourceLineInfo</text>
</a>
</g>
</g>
<!-- Node3&#45;&gt;Node2 -->
<g id="edge2" class="edge">
<title>Node3&#45;&gt;Node2</title>
<path fill="none" stroke="#9a32cd" stroke-dasharray="5,2" d="M200.29,-135.22C197.23,-119.7 193.02,-98.36 190.7,-86.62"/>
<polygon fill="#9a32cd" stroke="#9a32cd" points="196.91,-136.15 202.28,-145.28 203.78,-134.79 196.91,-136.15"/>
<text text-anchor="middle" x="218" y="-113.5" font-family="Helvetica,sans-Serif" font-size="10.00"> lineInfo</text>
</g>
<!-- Node4 -->
<g id="node4" class="node">
<title>Node4</title>
<g id="a_node4"><a xlink:title=" ">
<polygon fill="white" stroke="#bfbfbf" points="185,-234.5 185,-253.5 223,-253.5 223,-234.5 185,-234.5"/>
<text text-anchor="middle" x="204" y="-241.5" font-family="Helvetica,sans-Serif" font-size="10.00">char</text>
</a>
</g>
</g>
<!-- Node4&#45;&gt;Node3 -->
<g id="edge3" class="edge">
<title>Node4&#45;&gt;Node3</title>
<path fill="none" stroke="#9a32cd" stroke-dasharray="5,2" d="M204,-224.19C204,-205.74 204,-178.41 204,-164.62"/>
<polygon fill="#9a32cd" stroke="#9a32cd" points="200.5,-224.34 204,-234.34 207.5,-224.34 200.5,-224.34"/>
<text text-anchor="middle" x="213.5" y="-197" font-family="Helvetica,sans-Serif" font-size="10.00"> file</text>
</g>
<!-- Node5 -->
<g id="node5" class="node">
<title>Node5</title>
<g id="a_node5"><a xlink:title=" ">
<polygon fill="white" stroke="#bfbfbf" points="76.5,-234.5 76.5,-253.5 121.5,-253.5 121.5,-234.5 76.5,-234.5"/>
<text text-anchor="middle" x="99" y="-241.5" font-family="Helvetica,sans-Serif" font-size="10.00">size_t</text>
</a>
</g>
</g>
<!-- Node5&#45;&gt;Node3 -->
<g id="edge4" class="edge">
<title>Node5&#45;&gt;Node3</title>
<path fill="none" stroke="#9a32cd" stroke-dasharray="5,2" d="M117.43,-227.73C139.54,-209.41 175.85,-179.32 193.59,-164.62"/>
<polygon fill="#9a32cd" stroke="#9a32cd" points="114.92,-225.26 109.45,-234.34 119.38,-230.65 114.92,-225.26"/>
<text text-anchor="middle" x="181" y="-197" font-family="Helvetica,sans-Serif" font-size="10.00"> line</text>
</g>
<!-- Node8 -->
<g id="node8" class="node">
<title>Node8</title>
<g id="a_node8"><a xlink:href="structCatch_1_1Counts.html" target="_top" xlink:title=" ">
<polygon fill="white" stroke="black" points="0,-106.5 0,-125.5 84,-125.5 84,-106.5 0,-106.5"/>
<text text-anchor="middle" x="42" y="-113.5" font-family="Helvetica,sans-Serif" font-size="10.00">Catch::Counts</text>
</a>
</g>
</g>
<!-- Node5&#45;&gt;Node8 -->
<g id="edge8" class="edge">
<title>Node5&#45;&gt;Node8</title>
<path fill="none" stroke="#9a32cd" stroke-dasharray="5,2" d="M80.09,-227.44C76.7,-223.95 73.47,-220.07 71,-216 52.73,-185.82 45.41,-143.46 43,-125.54"/>
<polygon fill="#9a32cd" stroke="#9a32cd" points="77.82,-230.1 87.52,-234.34 82.58,-224.97 77.82,-230.1"/>
<text text-anchor="middle" x="100" y="-208" font-family="Helvetica,sans-Serif" font-size="10.00"> passed</text>
<text text-anchor="middle" x="100" y="-197" font-family="Helvetica,sans-Serif" font-size="10.00">failedButOk</text>
<text text-anchor="middle" x="100" y="-186" font-family="Helvetica,sans-Serif" font-size="10.00">failed</text>
</g>
<!-- Node6 -->
<g id="node6" class="node">
<title>Node6</title>
<g id="a_node6"><a xlink:title=" ">
<polygon fill="white" stroke="#bfbfbf" points="81,-145.5 81,-164.5 125,-164.5 125,-145.5 81,-145.5"/>
<text text-anchor="middle" x="103" y="-152.5" font-family="Helvetica,sans-Serif" font-size="10.00">string</text>
</a>
</g>
</g>
<!-- Node6&#45;&gt;Node2 -->
<g id="edge5" class="edge">
<title>Node6&#45;&gt;Node2</title>
<path fill="none" stroke="#9a32cd" stroke-dasharray="5,2" d="M111.59,-136.23C117.17,-126.09 125.22,-113.72 135,-105 143.76,-97.19 155.2,-91.04 165.28,-86.6"/>
<polygon fill="#9a32cd" stroke="#9a32cd" points="108.33,-134.9 106.86,-145.39 114.56,-138.11 108.33,-134.9"/>
<text text-anchor="middle" x="162.5" y="-119" font-family="Helvetica,sans-Serif" font-size="10.00"> name</text>
<text text-anchor="middle" x="162.5" y="-108" font-family="Helvetica,sans-Serif" font-size="10.00">description</text>
</g>
<!-- Node7 -->
<g id="node7" class="node">
<title>Node7</title>
<g id="a_node7"><a xlink:title=" ">
<polygon fill="white" stroke="#bfbfbf" points="260,-67.5 260,-86.5 310,-86.5 310,-67.5 260,-67.5"/>
<text text-anchor="middle" x="285" y="-74.5" font-family="Helvetica,sans-Serif" font-size="10.00">double</text>
</a>
</g>
</g>
<!-- Node7&#45;&gt;Node1 -->
<g id="edge6" class="edge">
<title>Node7&#45;&gt;Node1</title>
<path fill="none" stroke="#9a32cd" stroke-dasharray="5,2" d="M272.93,-59.54C266.95,-52.24 259.25,-43.96 251,-38 240.25,-30.23 226.91,-24.06 215.36,-19.59"/>
<polygon fill="#9a32cd" stroke="#9a32cd" points="270.19,-61.72 279.09,-67.48 275.72,-57.43 270.19,-61.72"/>
<text text-anchor="middle" x="309" y="-41" font-family="Helvetica,sans-Serif" font-size="10.00"> durationInSeconds</text>
</g>
<!-- Node8&#45;&gt;Node1 -->
<g id="edge7" class="edge">
<title>Node8&#45;&gt;Node1</title>
<path fill="none" stroke="#9a32cd" stroke-dasharray="5,2" d="M41.43,-95.94C42.1,-86.32 44.44,-75.02 51,-67 72.19,-41.08 107.26,-27.05 136.74,-19.52"/>
<polygon fill="#9a32cd" stroke="#9a32cd" points="37.93,-96.11 41.28,-106.17 44.93,-96.22 37.93,-96.11"/>
<text text-anchor="middle" x="89" y="-74.5" font-family="Helvetica,sans-Serif" font-size="10.00"> prevAssertions</text>
</g>
</g>
</svg>
