<?xml version="1.0" encoding="UTF-8" standalone="no"?>
<!DOCTYPE svg PUBLIC "-//W3C//DTD SVG 1.1//EN"
 "http://www.w3.org/Graphics/SVG/1.1/DTD/svg11.dtd">
<!-- Generated by graphviz version 2.43.0 (0)
 -->
<!-- Title: CallInfo Pages: 1 -->
<svg width="250pt" height="117pt"
 viewBox="0.00 0.00 250.00 117.00" xmlns="http://www.w3.org/2000/svg" xmlns:xlink="http://www.w3.org/1999/xlink">
<g id="graph0" class="graph" transform="scale(1 1) rotate(0) translate(4 113)">
<title>CallInfo</title>
<polygon fill="white" stroke="transparent" points="-4,4 -4,-113 246,-113 246,4 -4,4"/>
<!-- Node1 -->
<g id="node1" class="node">
<title>Node1</title>
<g id="a_node1"><a xlink:title=" ">
<polygon fill="#bfbfbf" stroke="black" points="76,-0.5 76,-19.5 130,-19.5 130,-0.5 76,-0.5"/>
<text text-anchor="middle" x="103" y="-7.5" font-family="Helvetica,sans-Serif" font-size="10.00">CallInfo</text>
</a>
</g>
</g>
<!-- Node2 -->
<g id="node2" class="node">
<title>Node2</title>
<g id="a_node2"><a xlink:href="structlua__TValue.html" target="_top" xlink:title=" ">
<polygon fill="white" stroke="black" points="0,-89.5 0,-108.5 70,-108.5 70,-89.5 0,-89.5"/>
<text text-anchor="middle" x="35" y="-96.5" font-family="Helvetica,sans-Serif" font-size="10.00">lua_TValue</text>
</a>
</g>
</g>
<!-- Node2&#45;&gt;Node1 -->
<g id="edge1" class="edge">
<title>Node2&#45;&gt;Node1</title>
<path fill="none" stroke="#9a32cd" stroke-dasharray="5,2" d="M44.01,-80.38C50.83,-67.89 60.88,-51.11 72,-38 77.82,-31.14 85.42,-24.49 91.64,-19.51"/>
<polygon fill="#9a32cd" stroke="#9a32cd" points="40.87,-78.83 39.29,-89.31 47.06,-82.11 40.87,-78.83"/>
<text text-anchor="middle" x="85.5" y="-63" font-family="Helvetica,sans-Serif" font-size="10.00"> base</text>
<text text-anchor="middle" x="85.5" y="-52" font-family="Helvetica,sans-Serif" font-size="10.00">func</text>
<text text-anchor="middle" x="85.5" y="-41" font-family="Helvetica,sans-Serif" font-size="10.00">top</text>
</g>
<!-- Node3 -->
<g id="node3" class="node">
<title>Node3</title>
<g id="a_node3"><a xlink:title=" ">
<polygon fill="white" stroke="#bfbfbf" points="88.5,-89.5 88.5,-108.5 117.5,-108.5 117.5,-89.5 88.5,-89.5"/>
<text text-anchor="middle" x="103" y="-96.5" font-family="Helvetica,sans-Serif" font-size="10.00">int</text>
</a>
</g>
</g>
<!-- Node3&#45;&gt;Node1 -->
<g id="edge2" class="edge">
<title>Node3&#45;&gt;Node1</title>
<path fill="none" stroke="#9a32cd" stroke-dasharray="5,2" d="M103,-79.19C103,-60.74 103,-33.41 103,-19.62"/>
<polygon fill="#9a32cd" stroke="#9a32cd" points="99.5,-79.34 103,-89.34 106.5,-79.34 99.5,-79.34"/>
<text text-anchor="middle" x="124.5" y="-57.5" font-family="Helvetica,sans-Serif" font-size="10.00"> nresults</text>
<text text-anchor="middle" x="124.5" y="-46.5" font-family="Helvetica,sans-Serif" font-size="10.00">tailcalls</text>
</g>
<!-- Node4 -->
<g id="node4" class="node">
<title>Node4</title>
<g id="a_node4"><a xlink:title=" ">
<polygon fill="white" stroke="#bfbfbf" points="136,-89.5 136,-108.5 242,-108.5 242,-89.5 136,-89.5"/>
<text text-anchor="middle" x="189" y="-96.5" font-family="Helvetica,sans-Serif" font-size="10.00">const Instruction *</text>
</a>
</g>
</g>
<!-- Node4&#45;&gt;Node1 -->
<g id="edge3" class="edge">
<title>Node4&#45;&gt;Node1</title>
<path fill="none" stroke="#9a32cd" stroke-dasharray="5,2" d="M180.31,-80.13C173.42,-67.27 162.82,-50.13 150,-38 142.07,-30.5 131.68,-24.25 122.68,-19.66"/>
<polygon fill="#9a32cd" stroke="#9a32cd" points="177.36,-82.03 185.02,-89.34 183.59,-78.84 177.36,-82.03"/>
<text text-anchor="middle" x="196" y="-52" font-family="Helvetica,sans-Serif" font-size="10.00"> savedpc</text>
</g>
</g>
</svg>
