<?xml version="1.0" encoding="UTF-8" standalone="no"?>
<!DOCTYPE svg PUBLIC "-//W3C//DTD SVG 1.1//EN"
 "http://www.w3.org/Graphics/SVG/1.1/DTD/svg11.dtd">
<!-- Generated by graphviz version 2.43.0 (0)
 -->
<!-- Title: PlayerPhysicsOverride Pages: 1 -->
<svg width="155pt" height="117pt"
 viewBox="0.00 0.00 155.00 117.00" xmlns="http://www.w3.org/2000/svg" xmlns:xlink="http://www.w3.org/1999/xlink">
<g id="graph0" class="graph" transform="scale(1 1) rotate(0) translate(4 113)">
<title>PlayerPhysicsOverride</title>
<polygon fill="white" stroke="transparent" points="-4,4 -4,-113 151,-113 151,4 -4,4"/>
<!-- Node1 -->
<g id="node1" class="node">
<title>Node1</title>
<g id="a_node1"><a xlink:title=" ">
<polygon fill="#bfbfbf" stroke="black" points="0,-0.5 0,-19.5 126,-19.5 126,-0.5 0,-0.5"/>
<text text-anchor="middle" x="63" y="-7.5" font-family="Helvetica,sans-Serif" font-size="10.00">PlayerPhysicsOverride</text>
</a>
</g>
</g>
<!-- Node2 -->
<g id="node2" class="node">
<title>Node2</title>
<g id="a_node2"><a xlink:title=" ">
<polygon fill="white" stroke="#bfbfbf" points="15,-89.5 15,-108.5 53,-108.5 53,-89.5 15,-89.5"/>
<text text-anchor="middle" x="34" y="-96.5" font-family="Helvetica,sans-Serif" font-size="10.00">float</text>
</a>
</g>
</g>
<!-- Node2&#45;&gt;Node1 -->
<g id="edge1" class="edge">
<title>Node2&#45;&gt;Node1</title>
<path fill="none" stroke="#9a32cd" stroke-dasharray="5,2" d="M30.74,-79.45C29.42,-67.18 29.34,-51.02 35,-38 38.18,-30.69 44.37,-24.38 50.13,-19.71"/>
<polygon fill="#9a32cd" stroke="#9a32cd" points="27.28,-80.02 32.16,-89.42 34.21,-79.03 27.28,-80.02"/>
<text text-anchor="middle" x="52.5" y="-63" font-family="Helvetica,sans-Serif" font-size="10.00"> speed</text>
<text text-anchor="middle" x="52.5" y="-52" font-family="Helvetica,sans-Serif" font-size="10.00">gravity</text>
<text text-anchor="middle" x="52.5" y="-41" font-family="Helvetica,sans-Serif" font-size="10.00">jump</text>
</g>
<!-- Node3 -->
<g id="node3" class="node">
<title>Node3</title>
<g id="a_node3"><a xlink:href="classbool.html" target="_top" xlink:title=" ">
<polygon fill="white" stroke="black" points="73,-89.5 73,-108.5 111,-108.5 111,-89.5 73,-89.5"/>
<text text-anchor="middle" x="92" y="-96.5" font-family="Helvetica,sans-Serif" font-size="10.00">bool</text>
</a>
</g>
</g>
<!-- Node3&#45;&gt;Node1 -->
<g id="edge2" class="edge">
<title>Node3&#45;&gt;Node1</title>
<path fill="none" stroke="#9a32cd" stroke-dasharray="5,2" d="M85.9,-79.71C79.75,-61.25 70.51,-33.54 65.87,-19.62"/>
<polygon fill="#9a32cd" stroke="#9a32cd" points="82.63,-80.96 89.11,-89.34 89.27,-78.75 82.63,-80.96"/>
<text text-anchor="middle" x="114.5" y="-63" font-family="Helvetica,sans-Serif" font-size="10.00"> sneak_glitch</text>
<text text-anchor="middle" x="114.5" y="-52" font-family="Helvetica,sans-Serif" font-size="10.00">sneak</text>
<text text-anchor="middle" x="114.5" y="-41" font-family="Helvetica,sans-Serif" font-size="10.00">new_move</text>
</g>
</g>
</svg>
