<?xml version="1.0" encoding="UTF-8" standalone="no"?>
<!DOCTYPE svg PUBLIC "-//W3C//DTD SVG 1.1//EN"
 "http://www.w3.org/Graphics/SVG/1.1/DTD/svg11.dtd">
<!-- Generated by graphviz version 2.43.0 (0)
 -->
<!-- Title: LocVar Pages: 1 -->
<svg width="436pt" height="164pt"
 viewBox="0.00 0.00 435.50 164.00" xmlns="http://www.w3.org/2000/svg" xmlns:xlink="http://www.w3.org/1999/xlink">
<g id="graph0" class="graph" transform="scale(1 1) rotate(0) translate(4 160)">
<title>LocVar</title>
<polygon fill="white" stroke="transparent" points="-4,4 -4,-160 431.5,-160 431.5,4 -4,4"/>
<!-- Node1 -->
<g id="node1" class="node">
<title>Node1</title>
<g id="a_node1"><a xlink:title=" ">
<polygon fill="#bfbfbf" stroke="black" points="280.5,-0.5 280.5,-19.5 329.5,-19.5 329.5,-0.5 280.5,-0.5"/>
<text text-anchor="middle" x="305" y="-7.5" font-family="Helvetica,sans-Serif" font-size="10.00">LocVar</text>
</a>
</g>
</g>
<!-- Node2 -->
<g id="node2" class="node">
<title>Node2</title>
<g id="a_node2"><a xlink:href="unionTString.html" target="_top" xlink:title=" ">
<polygon fill="white" stroke="black" points="209.5,-68.5 209.5,-87.5 260.5,-87.5 260.5,-68.5 209.5,-68.5"/>
<text text-anchor="middle" x="235" y="-75.5" font-family="Helvetica,sans-Serif" font-size="10.00">TString</text>
</a>
</g>
</g>
<!-- Node2&#45;&gt;Node1 -->
<g id="edge1" class="edge">
<title>Node2&#45;&gt;Node1</title>
<path fill="none" stroke="#9a32cd" stroke-dasharray="5,2" d="M251.53,-61.41C265.28,-48.45 284.36,-30.46 295.62,-19.84"/>
<polygon fill="#9a32cd" stroke="#9a32cd" points="249.03,-58.96 244.15,-68.37 253.83,-64.06 249.03,-58.96"/>
<text text-anchor="middle" x="299.5" y="-41" font-family="Helvetica,sans-Serif" font-size="10.00"> varname</text>
</g>
<!-- Node3 -->
<g id="node3" class="node">
<title>Node3</title>
<g id="a_node3"><a xlink:title=" ">
<polygon fill="white" stroke="#bfbfbf" points="124,-136.5 124,-155.5 270,-155.5 270,-136.5 124,-136.5"/>
<text text-anchor="middle" x="197" y="-143.5" font-family="Helvetica,sans-Serif" font-size="10.00">LUAI_USER_ALIGNMENT_T</text>
</a>
</g>
</g>
<!-- Node3&#45;&gt;Node2 -->
<g id="edge2" class="edge">
<title>Node3&#45;&gt;Node2</title>
<path fill="none" stroke="#9a32cd" stroke-dasharray="5,2" d="M207.04,-127.56C214.4,-114.78 224.08,-97.96 229.91,-87.84"/>
<polygon fill="#9a32cd" stroke="#9a32cd" points="203.92,-125.96 201.97,-136.37 209.99,-129.45 203.92,-125.96"/>
<text text-anchor="middle" x="238.5" y="-110" font-family="Helvetica,sans-Serif" font-size="10.00"> dummy</text>
</g>
<!-- Node4 -->
<g id="node4" class="node">
<title>Node4</title>
<g id="a_node4"><a xlink:title=" ">
<polygon fill="white" stroke="#bfbfbf" points="0,-136.5 0,-155.5 38,-155.5 38,-136.5 0,-136.5"/>
<text text-anchor="middle" x="19" y="-143.5" font-family="Helvetica,sans-Serif" font-size="10.00">char</text>
</a>
</g>
</g>
<!-- Node4&#45;&gt;Node2 -->
<g id="edge3" class="edge">
<title>Node4&#45;&gt;Node2</title>
<path fill="none" stroke="#9a32cd" stroke-dasharray="5,2" d="M42.56,-131.37C57.46,-123.27 77.37,-113.35 96,-107 134.44,-93.89 181.07,-86.05 209.37,-82.13"/>
<polygon fill="#9a32cd" stroke="#9a32cd" points="40.59,-128.46 33.56,-136.38 44,-134.58 40.59,-128.46"/>
<text text-anchor="middle" x="119" y="-110" font-family="Helvetica,sans-Serif" font-size="10.00"> reserved</text>
</g>
<!-- Node5 -->
<g id="node5" class="node">
<title>Node5</title>
<g id="a_node5"><a xlink:title=" ">
<polygon fill="white" stroke="#bfbfbf" points="60.5,-136.5 60.5,-155.5 105.5,-155.5 105.5,-136.5 60.5,-136.5"/>
<text text-anchor="middle" x="83" y="-143.5" font-family="Helvetica,sans-Serif" font-size="10.00">size_t</text>
</a>
</g>
</g>
<!-- Node5&#45;&gt;Node2 -->
<g id="edge4" class="edge">
<title>Node5&#45;&gt;Node2</title>
<path fill="none" stroke="#9a32cd" stroke-dasharray="5,2" d="M112.07,-132.38C142.31,-119.25 188.84,-99.05 215.12,-87.63"/>
<polygon fill="#9a32cd" stroke="#9a32cd" points="110.65,-129.18 102.87,-136.37 113.44,-135.6 110.65,-129.18"/>
<text text-anchor="middle" x="177.5" y="-110" font-family="Helvetica,sans-Serif" font-size="10.00"> len</text>
</g>
<!-- Node6 -->
<g id="node6" class="node">
<title>Node6</title>
<g id="a_node6"><a xlink:title=" ">
<polygon fill="white" stroke="#bfbfbf" points="398.5,-136.5 398.5,-155.5 427.5,-155.5 427.5,-136.5 398.5,-136.5"/>
<text text-anchor="middle" x="413" y="-143.5" font-family="Helvetica,sans-Serif" font-size="10.00">int</text>
</a>
</g>
</g>
<!-- Node6&#45;&gt;Node1 -->
<g id="edge7" class="edge">
<title>Node6&#45;&gt;Node1</title>
<path fill="none" stroke="#9a32cd" stroke-dasharray="5,2" d="M399.74,-128.43C382.88,-107.38 352.84,-69.93 327,-38 321.98,-31.8 316.29,-24.81 311.95,-19.5"/>
<polygon fill="#9a32cd" stroke="#9a32cd" points="397.13,-130.77 406.11,-136.39 402.59,-126.39 397.13,-130.77"/>
<text text-anchor="middle" x="384" y="-81" font-family="Helvetica,sans-Serif" font-size="10.00"> endpc</text>
<text text-anchor="middle" x="384" y="-70" font-family="Helvetica,sans-Serif" font-size="10.00">startpc</text>
</g>
<!-- Node6&#45;&gt;Node2 -->
<g id="edge5" class="edge">
<title>Node6&#45;&gt;Node2</title>
<path fill="none" stroke="#9a32cd" stroke-dasharray="5,2" d="M388.92,-135.25C369.35,-127.41 341,-116.21 316,-107 297.57,-100.21 276.61,-92.98 260.63,-87.56"/>
<polygon fill="#9a32cd" stroke="#9a32cd" points="387.7,-138.53 398.28,-139.02 390.31,-132.04 387.7,-138.53"/>
<text text-anchor="middle" x="355.5" y="-110" font-family="Helvetica,sans-Serif" font-size="10.00"> hash</text>
</g>
<!-- Node7 -->
<g id="node7" class="node">
<title>Node7</title>
<g id="a_node7"><a xlink:title=" ">
<polygon fill="white" stroke="#bfbfbf" points="288,-136.5 288,-155.5 380,-155.5 380,-136.5 288,-136.5"/>
<text text-anchor="middle" x="334" y="-143.5" font-family="Helvetica,sans-Serif" font-size="10.00">anonymous:tsv</text>
</a>
</g>
</g>
<!-- Node7&#45;&gt;Node2 -->
<g id="edge6" class="edge">
<title>Node7&#45;&gt;Node2</title>
<path fill="none" stroke="#9a32cd" stroke-dasharray="5,2" d="M312.72,-130.81C293.03,-117.69 264.4,-98.6 247.95,-87.63"/>
<polygon fill="#9a32cd" stroke="#9a32cd" points="310.8,-133.74 321.06,-136.37 314.68,-127.91 310.8,-133.74"/>
<text text-anchor="middle" x="302.5" y="-110" font-family="Helvetica,sans-Serif" font-size="10.00"> tsv</text>
</g>
</g>
</svg>
