<?xml version="1.0" encoding="UTF-8" standalone="no"?>
<!DOCTYPE svg PUBLIC "-//W3C//DTD SVG 1.1//EN"
 "http://www.w3.org/Graphics/SVG/1.1/DTD/svg11.dtd">
<!-- Generated by graphviz version 2.43.0 (0)
 -->
<!-- Title: TileSpec Pages: 1 -->
<svg width="1480pt" height="459pt"
 viewBox="0.00 0.00 1480.00 459.00" xmlns="http://www.w3.org/2000/svg" xmlns:xlink="http://www.w3.org/1999/xlink">
<g id="graph0" class="graph" transform="scale(1 1) rotate(0) translate(4 455)">
<title>TileSpec</title>
<polygon fill="white" stroke="transparent" points="-4,4 -4,-455 1476,-455 1476,4 -4,4"/>
<!-- Node1 -->
<g id="node1" class="node">
<title>Node1</title>
<g id="a_node1"><a xlink:title=" ">
<polygon fill="#bfbfbf" stroke="black" points="1414,-408.5 1414,-427.5 1472,-427.5 1472,-408.5 1414,-408.5"/>
<text text-anchor="middle" x="1443" y="-415.5" font-family="Helvetica,sans-Serif" font-size="10.00">TileSpec</text>
</a>
</g>
</g>
<!-- Node2 -->
<g id="node2" class="node">
<title>Node2</title>
<g id="a_node2"><a xlink:title=" ">
<polygon fill="white" stroke="#bfbfbf" points="1014.5,-384.5 1014.5,-403.5 1043.5,-403.5 1043.5,-384.5 1014.5,-384.5"/>
<text text-anchor="middle" x="1029" y="-391.5" font-family="Helvetica,sans-Serif" font-size="10.00">u8</text>
</a>
</g>
</g>
<!-- Node2&#45;&gt;Node1 -->
<g id="edge1" class="edge">
<title>Node2&#45;&gt;Node1</title>
<path fill="none" stroke="#9a32cd" stroke-dasharray="5,2" d="M1053.69,-397.35C1070.27,-399.57 1092.95,-402.37 1113,-404 1224.11,-413.04 1356.84,-416.43 1413.79,-417.53"/>
<polygon fill="#9a32cd" stroke="#9a32cd" points="1054.15,-393.88 1043.77,-395.99 1053.2,-400.81 1054.15,-393.88"/>
<text text-anchor="middle" x="1308" y="-429" font-family="Helvetica,sans-Serif" font-size="10.00"> rotation</text>
<text text-anchor="middle" x="1308" y="-418" font-family="Helvetica,sans-Serif" font-size="10.00">emissive_light</text>
</g>
<!-- Node3 -->
<g id="node3" class="node">
<title>Node3</title>
<g id="a_node3"><a xlink:href="structTileLayer.html" target="_top" xlink:title="Defines a layer of a tile.">
<polygon fill="white" stroke="black" points="1277,-258.5 1277,-277.5 1339,-277.5 1339,-258.5 1277,-258.5"/>
<text text-anchor="middle" x="1308" y="-265.5" font-family="Helvetica,sans-Serif" font-size="10.00">TileLayer</text>
</a>
</g>
</g>
<!-- Node2&#45;&gt;Node3 -->
<g id="edge6" class="edge">
<title>Node2&#45;&gt;Node3</title>
<path fill="none" stroke="#9a32cd" stroke-dasharray="5,2" d="M1053.57,-386.73C1070.09,-381.82 1092.75,-375.44 1113,-371 1175.02,-357.39 1200.67,-382.46 1254,-348 1280.73,-330.73 1297.07,-294.7 1303.65,-277.51"/>
<polygon fill="#9a32cd" stroke="#9a32cd" points="1052.25,-383.47 1043.69,-389.71 1054.28,-390.18 1052.25,-383.47"/>
<text text-anchor="middle" x="1183.5" y="-396" font-family="Helvetica,sans-Serif" font-size="10.00"> scale</text>
<text text-anchor="middle" x="1183.5" y="-385" font-family="Helvetica,sans-Serif" font-size="10.00">material_flags</text>
<text text-anchor="middle" x="1183.5" y="-374" font-family="Helvetica,sans-Serif" font-size="10.00">material_type</text>
</g>
<!-- Node3&#45;&gt;Node1 -->
<g id="edge2" class="edge">
<title>Node3&#45;&gt;Node1</title>
<path fill="none" stroke="#9a32cd" stroke-dasharray="5,2" d="M1324.5,-285.48C1352.67,-317.25 1411.39,-383.48 1433.41,-408.32"/>
<polygon fill="#9a32cd" stroke="#9a32cd" points="1326.98,-283 1317.73,-277.84 1321.74,-287.65 1326.98,-283"/>
<text text-anchor="middle" x="1379" y="-368" font-family="Helvetica,sans-Serif" font-size="10.00"> layers</text>
</g>
<!-- Node4 -->
<g id="node4" class="node">
<title>Node4</title>
<g id="a_node4"><a xlink:href="classirr_1_1video_1_1SColor.html" target="_top" xlink:title="Class representing a 32 bit ARGB color.">
<polygon fill="white" stroke="black" points="846.5,-0.5 846.5,-19.5 944.5,-19.5 944.5,-0.5 846.5,-0.5"/>
<text text-anchor="middle" x="895.5" y="-7.5" font-family="Helvetica,sans-Serif" font-size="10.00">irr::video::SColor</text>
</a>
</g>
</g>
<!-- Node4&#45;&gt;Node3 -->
<g id="edge3" class="edge">
<title>Node4&#45;&gt;Node3</title>
<path fill="none" stroke="#9a32cd" stroke-dasharray="5,2" d="M954.64,-17.02C1032.29,-29.27 1169.81,-61.47 1254,-142 1288.81,-175.3 1301.74,-235.02 1305.6,-258.32"/>
<polygon fill="#9a32cd" stroke="#9a32cd" points="954.97,-13.52 944.55,-15.48 953.91,-20.45 954.97,-13.52"/>
<text text-anchor="middle" x="1029" y="-53" font-family="Helvetica,sans-Serif" font-size="10.00"> color</text>
</g>
<!-- Node5 -->
<g id="node5" class="node">
<title>Node5</title>
<g id="a_node5"><a xlink:title=" ">
<polygon fill="white" stroke="#bfbfbf" points="471,-35.5 471,-54.5 527,-54.5 527,-35.5 471,-35.5"/>
<text text-anchor="middle" x="499" y="-42.5" font-family="Helvetica,sans-Serif" font-size="10.00">uint32_t</text>
</a>
</g>
</g>
<!-- Node5&#45;&gt;Node4 -->
<g id="edge4" class="edge">
<title>Node5&#45;&gt;Node4</title>
<path fill="none" stroke="#9a32cd" stroke-dasharray="5,2" d="M537.31,-32.87C554.14,-27.95 574.38,-22.77 593,-20 681.71,-6.79 786.65,-6.78 846.41,-8.22"/>
<polygon fill="#9a32cd" stroke="#9a32cd" points="535.89,-29.64 527.32,-35.88 537.91,-36.35 535.89,-29.64"/>
<text text-anchor="middle" x="638.5" y="-23" font-family="Helvetica,sans-Serif" font-size="10.00"> color</text>
</g>
<!-- Node7 -->
<g id="node7" class="node">
<title>Node7</title>
<g id="a_node7"><a xlink:href="classirr_1_1video_1_1ITexture.html" target="_top" xlink:title="Interface of a Video Driver dependent Texture.">
<polygon fill="white" stroke="black" points="976.5,-234.5 976.5,-253.5 1081.5,-253.5 1081.5,-234.5 976.5,-234.5"/>
<text text-anchor="middle" x="1029" y="-241.5" font-family="Helvetica,sans-Serif" font-size="10.00">irr::video::ITexture</text>
</a>
</g>
</g>
<!-- Node5&#45;&gt;Node7 -->
<g id="edge18" class="edge">
<title>Node5&#45;&gt;Node7</title>
<path fill="none" stroke="#9a32cd" stroke-dasharray="5,2" d="M537.17,-44.13C638.95,-42.14 916.54,-39.4 945,-68 994.54,-117.79 917.74,-171.29 963,-225 966.64,-229.32 971.19,-232.68 976.2,-235.3"/>
<polygon fill="#9a32cd" stroke="#9a32cd" points="536.97,-40.64 527.04,-44.34 537.11,-47.63 536.97,-40.64"/>
<text text-anchor="middle" x="765" y="-51" font-family="Helvetica,sans-Serif" font-size="10.00"> Pitch</text>
</g>
<!-- Node11 -->
<g id="node11" class="node">
<title>Node11</title>
<g id="a_node11"><a xlink:href="classirr_1_1core_1_1dimension2d.html" target="_top" xlink:title=" ">
<polygon fill="white" stroke="black" points="703.5,-113 703.5,-143 826.5,-143 826.5,-113 703.5,-113"/>
<text text-anchor="start" x="711.5" y="-131" font-family="Helvetica,sans-Serif" font-size="10.00">irr::core::dimension2d</text>
<text text-anchor="middle" x="765" y="-120" font-family="Helvetica,sans-Serif" font-size="10.00">&lt; u32 &gt;</text>
</a>
</g>
</g>
<!-- Node5&#45;&gt;Node11 -->
<g id="edge12" class="edge">
<title>Node5&#45;&gt;Node11</title>
<path fill="none" stroke="#9a32cd" stroke-dasharray="5,2" d="M537.05,-56.31C574.24,-67.71 633.16,-85.86 684,-102 695,-105.49 706.82,-109.3 717.92,-112.9"/>
<polygon fill="#9a32cd" stroke="#9a32cd" points="537.75,-52.87 527.16,-53.29 535.7,-59.56 537.75,-52.87"/>
<text text-anchor="middle" x="638.5" y="-116" font-family="Helvetica,sans-Serif" font-size="10.00"> Width</text>
<text text-anchor="middle" x="638.5" y="-105" font-family="Helvetica,sans-Serif" font-size="10.00">Height</text>
</g>
<!-- Node6 -->
<g id="node6" class="node">
<title>Node6</title>
<g id="a_node6"><a xlink:title=" ">
<polygon fill="white" stroke="#bfbfbf" points="1011.5,-321.5 1011.5,-340.5 1046.5,-340.5 1046.5,-321.5 1011.5,-321.5"/>
<text text-anchor="middle" x="1029" y="-328.5" font-family="Helvetica,sans-Serif" font-size="10.00">u16</text>
</a>
</g>
</g>
<!-- Node6&#45;&gt;Node3 -->
<g id="edge5" class="edge">
<title>Node6&#45;&gt;Node3</title>
<path fill="none" stroke="#9a32cd" stroke-dasharray="5,2" d="M1056.63,-329.2C1107.88,-325.48 1218.31,-316.19 1254,-303 1269.72,-297.19 1285.46,-285.94 1295.65,-277.76"/>
<polygon fill="#9a32cd" stroke="#9a32cd" points="1056.37,-325.71 1046.64,-329.91 1056.86,-332.69 1056.37,-325.71"/>
<text text-anchor="middle" x="1183.5" y="-338" font-family="Helvetica,sans-Serif" font-size="10.00"> animation_frame_count</text>
<text text-anchor="middle" x="1183.5" y="-327" font-family="Helvetica,sans-Serif" font-size="10.00">animation_frame_length_ms</text>
</g>
<!-- Node7&#45;&gt;Node3 -->
<g id="edge7" class="edge">
<title>Node7&#45;&gt;Node3</title>
<path fill="none" stroke="#9a32cd" stroke-dasharray="5,2" d="M1091.76,-237.65C1137.14,-234.58 1200.04,-233.67 1254,-245 1266.57,-247.64 1279.82,-253.39 1289.92,-258.48"/>
<polygon fill="#9a32cd" stroke="#9a32cd" points="1091.49,-234.16 1081.78,-238.38 1092,-241.14 1091.49,-234.16"/>
<text text-anchor="middle" x="1183.5" y="-270" font-family="Helvetica,sans-Serif" font-size="10.00"> normal_texture</text>
<text text-anchor="middle" x="1183.5" y="-259" font-family="Helvetica,sans-Serif" font-size="10.00">texture</text>
<text text-anchor="middle" x="1183.5" y="-248" font-family="Helvetica,sans-Serif" font-size="10.00">flags_texture</text>
</g>
<!-- Node8 -->
<g id="node8" class="node">
<title>Node8</title>
<g id="a_node8"><a xlink:href="classirr_1_1IReferenceCounted.html" target="_top" xlink:title="Base class of most objects of the Irrlicht Engine.">
<polygon fill="white" stroke="black" points="702,-314.5 702,-333.5 828,-333.5 828,-314.5 702,-314.5"/>
<text text-anchor="middle" x="765" y="-321.5" font-family="Helvetica,sans-Serif" font-size="10.00">irr::IReferenceCounted</text>
</a>
</g>
</g>
<!-- Node8&#45;&gt;Node7 -->
<g id="edge8" class="edge">
<title>Node8&#45;&gt;Node7</title>
<path fill="none" stroke="midnightblue" d="M838.12,-327C872.84,-325.24 913.64,-318.19 945,-298 957.44,-289.99 951.59,-279.42 963,-270 971.62,-262.88 982.44,-257.52 992.77,-253.58"/>
<polygon fill="midnightblue" stroke="midnightblue" points="837.9,-323.5 828.03,-327.37 838.16,-330.5 837.9,-323.5"/>
</g>
<!-- Node9 -->
<g id="node9" class="node">
<title>Node9</title>
<g id="a_node9"><a xlink:title=" ">
<polygon fill="white" stroke="#bfbfbf" points="480,-295.5 480,-314.5 518,-314.5 518,-295.5 480,-295.5"/>
<text text-anchor="middle" x="499" y="-302.5" font-family="Helvetica,sans-Serif" font-size="10.00">char</text>
</a>
</g>
</g>
<!-- Node9&#45;&gt;Node8 -->
<g id="edge9" class="edge">
<title>Node9&#45;&gt;Node8</title>
<path fill="none" stroke="#9a32cd" stroke-dasharray="5,2" d="M528.36,-304.49C564.57,-304.13 629.11,-304.48 684,-310 694.52,-311.06 705.75,-312.7 716.36,-314.49"/>
<polygon fill="#9a32cd" stroke="#9a32cd" points="528.03,-300.99 518.08,-304.62 528.12,-307.99 528.03,-300.99"/>
<text text-anchor="middle" x="638.5" y="-313" font-family="Helvetica,sans-Serif" font-size="10.00"> DebugName</text>
</g>
<!-- Node10 -->
<g id="node10" class="node">
<title>Node10</title>
<g id="a_node10"><a xlink:title=" ">
<polygon fill="white" stroke="#bfbfbf" points="474,-333.5 474,-352.5 524,-352.5 524,-333.5 474,-333.5"/>
<text text-anchor="middle" x="499" y="-340.5" font-family="Helvetica,sans-Serif" font-size="10.00">int32_t</text>
</a>
</g>
</g>
<!-- Node10&#45;&gt;Node8 -->
<g id="edge10" class="edge">
<title>Node10&#45;&gt;Node8</title>
<path fill="none" stroke="#9a32cd" stroke-dasharray="5,2" d="M534.46,-340.52C576.87,-337.47 649.66,-332.23 701.92,-328.47"/>
<polygon fill="#9a32cd" stroke="#9a32cd" points="534.09,-337.04 524.36,-341.25 534.59,-344.02 534.09,-337.04"/>
<text text-anchor="middle" x="638.5" y="-338" font-family="Helvetica,sans-Serif" font-size="10.00"> ReferenceCounter</text>
</g>
<!-- Node11&#45;&gt;Node7 -->
<g id="edge11" class="edge">
<title>Node11&#45;&gt;Node7</title>
<path fill="none" stroke="#9a32cd" stroke-dasharray="5,2" d="M836.67,-116.97C873.17,-115.35 916.01,-120.39 945,-146 971.99,-169.84 938.32,-198.78 963,-225 966.79,-229.02 971.38,-232.21 976.34,-234.73"/>
<polygon fill="#9a32cd" stroke="#9a32cd" points="836.33,-113.48 826.56,-117.59 836.76,-120.47 836.33,-113.48"/>
<text text-anchor="middle" x="895.5" y="-160" font-family="Helvetica,sans-Serif" font-size="10.00"> Size</text>
<text text-anchor="middle" x="895.5" y="-149" font-family="Helvetica,sans-Serif" font-size="10.00">OriginalSize</text>
</g>
<!-- Node12 -->
<g id="node12" class="node">
<title>Node12</title>
<g id="a_node12"><a xlink:href="classirr_1_1core_1_1dimension2d.html" target="_top" xlink:title="Specifies a 2 dimensional size.">
<polygon fill="white" stroke="black" points="423,-118.5 423,-137.5 575,-137.5 575,-118.5 423,-118.5"/>
<text text-anchor="middle" x="499" y="-125.5" font-family="Helvetica,sans-Serif" font-size="10.00">irr::core::dimension2d&lt; T &gt;</text>
</a>
</g>
</g>
<!-- Node12&#45;&gt;Node11 -->
<g id="edge13" class="edge">
<title>Node12&#45;&gt;Node11</title>
<path fill="none" stroke="orange" stroke-dasharray="5,2" d="M585.44,-128C623.86,-128 668.31,-128 703.25,-128"/>
<polygon fill="orange" stroke="orange" points="585.3,-124.5 575.3,-128 585.3,-131.5 585.3,-124.5"/>
<text text-anchor="middle" x="638.5" y="-131" font-family="Helvetica,sans-Serif" font-size="10.00"> &lt; u32 &gt;</text>
</g>
<!-- Node13 -->
<g id="node13" class="node">
<title>Node13</title>
<g id="a_node13"><a xlink:title=" ">
<polygon fill="white" stroke="#bfbfbf" points="239,-118.5 239,-137.5 268,-137.5 268,-118.5 239,-118.5"/>
<text text-anchor="middle" x="253.5" y="-125.5" font-family="Helvetica,sans-Serif" font-size="10.00">T</text>
</a>
</g>
</g>
<!-- Node13&#45;&gt;Node12 -->
<g id="edge14" class="edge">
<title>Node13&#45;&gt;Node12</title>
<path fill="none" stroke="#9a32cd" stroke-dasharray="5,2" d="M278.42,-128C311.67,-128 373.37,-128 422.92,-128"/>
<polygon fill="#9a32cd" stroke="#9a32cd" points="278.29,-124.5 268.29,-128 278.29,-131.5 278.29,-124.5"/>
<text text-anchor="middle" x="372.5" y="-142" font-family="Helvetica,sans-Serif" font-size="10.00"> Width</text>
<text text-anchor="middle" x="372.5" y="-131" font-family="Helvetica,sans-Serif" font-size="10.00">Height</text>
</g>
<!-- Node14 -->
<g id="node14" class="node">
<title>Node14</title>
<g id="a_node14"><a xlink:title=" ">
<polygon fill="white" stroke="#bfbfbf" points="705.5,-74.5 705.5,-93.5 824.5,-93.5 824.5,-74.5 705.5,-74.5"/>
<text text-anchor="middle" x="765" y="-81.5" font-family="Helvetica,sans-Serif" font-size="10.00">E_TEXTURE_SOURCE</text>
</a>
</g>
</g>
<!-- Node14&#45;&gt;Node7 -->
<g id="edge15" class="edge">
<title>Node14&#45;&gt;Node7</title>
<path fill="none" stroke="#9a32cd" stroke-dasharray="5,2" d="M822.08,-73.27C861.61,-69.18 913.02,-71.43 945,-102 984.94,-140.18 926.74,-183.31 963,-225 966.7,-229.26 971.3,-232.59 976.33,-235.19"/>
<polygon fill="#9a32cd" stroke="#9a32cd" points="821.56,-69.81 812.05,-74.47 822.39,-76.76 821.56,-69.81"/>
<text text-anchor="middle" x="895.5" y="-105" font-family="Helvetica,sans-Serif" font-size="10.00"> Source</text>
</g>
<!-- Node15 -->
<g id="node15" class="node">
<title>Node15</title>
<g id="a_node15"><a xlink:title=" ">
<polygon fill="white" stroke="#bfbfbf" points="713.5,-276.5 713.5,-295.5 816.5,-295.5 816.5,-276.5 713.5,-276.5"/>
<text text-anchor="middle" x="765" y="-283.5" font-family="Helvetica,sans-Serif" font-size="10.00">ECOLOR_FORMAT</text>
</a>
</g>
</g>
<!-- Node15&#45;&gt;Node7 -->
<g id="edge16" class="edge">
<title>Node15&#45;&gt;Node7</title>
<path fill="none" stroke="#9a32cd" stroke-dasharray="5,2" d="M826.51,-276.3C871.85,-269.03 933.24,-259.19 976.3,-252.29"/>
<polygon fill="#9a32cd" stroke="#9a32cd" points="825.84,-272.86 816.52,-277.9 826.94,-279.77 825.84,-272.86"/>
<text text-anchor="middle" x="895.5" y="-286" font-family="Helvetica,sans-Serif" font-size="10.00"> ColorFormat</text>
<text text-anchor="middle" x="895.5" y="-275" font-family="Helvetica,sans-Serif" font-size="10.00">OriginalColorFormat</text>
</g>
<!-- Node16 -->
<g id="node16" class="node">
<title>Node16</title>
<g id="a_node16"><a xlink:title=" ">
<polygon fill="white" stroke="#bfbfbf" points="718,-238.5 718,-257.5 812,-257.5 812,-238.5 718,-238.5"/>
<text text-anchor="middle" x="765" y="-245.5" font-family="Helvetica,sans-Serif" font-size="10.00">E_DRIVER_TYPE</text>
</a>
</g>
</g>
<!-- Node16&#45;&gt;Node7 -->
<g id="edge17" class="edge">
<title>Node16&#45;&gt;Node7</title>
<path fill="none" stroke="#9a32cd" stroke-dasharray="5,2" d="M822.14,-245.67C830.15,-245.4 838.28,-245.17 846,-245 889.91,-244.06 939.79,-243.84 976.22,-243.84"/>
<polygon fill="#9a32cd" stroke="#9a32cd" points="821.98,-242.17 812.1,-246.02 822.22,-249.17 821.98,-242.17"/>
<text text-anchor="middle" x="895.5" y="-248" font-family="Helvetica,sans-Serif" font-size="10.00"> DriverType</text>
</g>
<!-- Node17 -->
<g id="node17" class="node">
<title>Node17</title>
<g id="a_node17"><a xlink:href="structirr_1_1io_1_1SNamedPath.html" target="_top" xlink:title="Used in places where we identify objects by a filename, but don&#39;t actually work with the real filenam...">
<polygon fill="white" stroke="black" points="710,-200.5 710,-219.5 820,-219.5 820,-200.5 710,-200.5"/>
<text text-anchor="middle" x="765" y="-207.5" font-family="Helvetica,sans-Serif" font-size="10.00">irr::io::SNamedPath</text>
</a>
</g>
</g>
<!-- Node17&#45;&gt;Node7 -->
<g id="edge19" class="edge">
<title>Node17&#45;&gt;Node7</title>
<path fill="none" stroke="#9a32cd" stroke-dasharray="5,2" d="M830.51,-215.07C864.64,-218.11 907.19,-222.47 945,-228 957.2,-229.79 970.33,-232.12 982.46,-234.46"/>
<polygon fill="#9a32cd" stroke="#9a32cd" points="830.47,-211.55 820.2,-214.17 829.86,-218.53 830.47,-211.55"/>
<text text-anchor="middle" x="895.5" y="-231" font-family="Helvetica,sans-Serif" font-size="10.00"> NamedPath</text>
</g>
<!-- Node18 -->
<g id="node18" class="node">
<title>Node18</title>
<g id="a_node18"><a xlink:href="classirr_1_1core_1_1string.html" target="_top" xlink:title=" ">
<polygon fill="white" stroke="black" points="451,-197 451,-227 547,-227 547,-197 451,-197"/>
<text text-anchor="start" x="459" y="-215" font-family="Helvetica,sans-Serif" font-size="10.00">irr::core::string&lt;</text>
<text text-anchor="middle" x="499" y="-204" font-family="Helvetica,sans-Serif" font-size="10.00"> fschar_t &gt;</text>
</a>
</g>
</g>
<!-- Node18&#45;&gt;Node17 -->
<g id="edge20" class="edge">
<title>Node18&#45;&gt;Node17</title>
<path fill="none" stroke="#9a32cd" stroke-dasharray="5,2" d="M557.45,-211.56C602.77,-211.22 665.51,-210.75 709.93,-210.41"/>
<polygon fill="#9a32cd" stroke="#9a32cd" points="557.17,-208.07 547.2,-211.64 557.22,-215.07 557.17,-208.07"/>
<text text-anchor="middle" x="638.5" y="-225" font-family="Helvetica,sans-Serif" font-size="10.00"> Path</text>
<text text-anchor="middle" x="638.5" y="-214" font-family="Helvetica,sans-Serif" font-size="10.00">InternalName</text>
</g>
<!-- Node19 -->
<g id="node19" class="node">
<title>Node19</title>
<g id="a_node19"><a xlink:title=" ">
<polygon fill="white" stroke="#bfbfbf" points="185,-241.5 185,-260.5 322,-260.5 322,-241.5 185,-241.5"/>
<text text-anchor="middle" x="253.5" y="-248.5" font-family="Helvetica,sans-Serif" font-size="10.00">basic_string&lt; fschar_t &gt;</text>
</a>
</g>
</g>
<!-- Node19&#45;&gt;Node18 -->
<g id="edge21" class="edge">
<title>Node19&#45;&gt;Node18</title>
<path fill="none" stroke="#9a32cd" stroke-dasharray="5,2" d="M324.17,-239.84C364.76,-233.34 414.87,-225.31 450.84,-219.55"/>
<polygon fill="#9a32cd" stroke="#9a32cd" points="323.39,-236.42 314.07,-241.46 324.49,-243.33 323.39,-236.42"/>
<text text-anchor="middle" x="372.5" y="-240" font-family="Helvetica,sans-Serif" font-size="10.00"> str</text>
</g>
<!-- Node20 -->
<g id="node20" class="node">
<title>Node20</title>
<g id="a_node20"><a xlink:title=" ">
<polygon fill="white" stroke="#bfbfbf" points="0,-191.5 0,-210.5 122,-210.5 122,-191.5 0,-191.5"/>
<text text-anchor="middle" x="61" y="-198.5" font-family="Helvetica,sans-Serif" font-size="10.00">static const size_type</text>
</a>
</g>
</g>
<!-- Node20&#45;&gt;Node18 -->
<g id="edge22" class="edge">
<title>Node20&#45;&gt;Node18</title>
<path fill="none" stroke="#9a32cd" stroke-dasharray="5,2" d="M132.23,-202.77C221.74,-205.03 374.05,-208.87 450.81,-210.81"/>
<polygon fill="#9a32cd" stroke="#9a32cd" points="132.25,-199.27 122.17,-202.52 132.07,-206.27 132.25,-199.27"/>
<text text-anchor="middle" x="253.5" y="-210" font-family="Helvetica,sans-Serif" font-size="10.00"> npos</text>
</g>
<!-- Node21 -->
<g id="node21" class="node">
<title>Node21</title>
<g id="a_node21"><a xlink:href="classirr_1_1core_1_1string.html" target="_top" xlink:title="Very simple string class with some useful features.">
<polygon fill="white" stroke="black" points="195.5,-156.5 195.5,-175.5 311.5,-175.5 311.5,-156.5 195.5,-156.5"/>
<text text-anchor="middle" x="253.5" y="-163.5" font-family="Helvetica,sans-Serif" font-size="10.00">irr::core::string&lt; T &gt;</text>
</a>
</g>
</g>
<!-- Node20&#45;&gt;Node21 -->
<g id="edge25" class="edge">
<title>Node20&#45;&gt;Node21</title>
<path fill="none" stroke="#9a32cd" stroke-dasharray="5,2" d="M123.85,-189.64C148.68,-185.07 176.98,-179.87 200.71,-175.52"/>
<polygon fill="#9a32cd" stroke="#9a32cd" points="123.01,-186.23 113.8,-191.48 124.27,-193.12 123.01,-186.23"/>
<text text-anchor="middle" x="153.5" y="-189" font-family="Helvetica,sans-Serif" font-size="10.00"> npos</text>
</g>
<!-- Node21&#45;&gt;Node18 -->
<g id="edge23" class="edge">
<title>Node21&#45;&gt;Node18</title>
<path fill="none" stroke="orange" stroke-dasharray="5,2" d="M321.77,-173.58C347.88,-176.99 377.95,-181.5 405,-187 420.07,-190.07 436.32,-194.16 450.96,-198.14"/>
<polygon fill="orange" stroke="orange" points="321.96,-170.07 311.6,-172.28 321.07,-177.02 321.96,-170.07"/>
<text text-anchor="middle" x="372.5" y="-190" font-family="Helvetica,sans-Serif" font-size="10.00"> &lt; fschar_t &gt;</text>
</g>
<!-- Node22 -->
<g id="node22" class="node">
<title>Node22</title>
<g id="a_node22"><a xlink:title=" ">
<polygon fill="white" stroke="#bfbfbf" points="9,-142.5 9,-161.5 113,-161.5 113,-142.5 9,-142.5"/>
<text text-anchor="middle" x="61" y="-149.5" font-family="Helvetica,sans-Serif" font-size="10.00">basic_string&lt; T &gt;</text>
</a>
</g>
</g>
<!-- Node22&#45;&gt;Node21 -->
<g id="edge24" class="edge">
<title>Node22&#45;&gt;Node21</title>
<path fill="none" stroke="#9a32cd" stroke-dasharray="5,2" d="M123.33,-151.13C137.68,-151.33 152.89,-151.87 167,-153 176.88,-153.79 187.35,-155.04 197.44,-156.46"/>
<polygon fill="#9a32cd" stroke="#9a32cd" points="123.1,-147.63 113.07,-151.04 123.04,-154.63 123.1,-147.63"/>
<text text-anchor="middle" x="153.5" y="-156" font-family="Helvetica,sans-Serif" font-size="10.00"> str</text>
</g>
<!-- Node23 -->
<g id="node23" class="node">
<title>Node23</title>
<g id="a_node23"><a xlink:href="classbool.html" target="_top" xlink:title=" ">
<polygon fill="white" stroke="black" points="746,-375.5 746,-394.5 784,-394.5 784,-375.5 746,-375.5"/>
<text text-anchor="middle" x="765" y="-382.5" font-family="Helvetica,sans-Serif" font-size="10.00">bool</text>
</a>
</g>
</g>
<!-- Node23&#45;&gt;Node1 -->
<g id="edge31" class="edge">
<title>Node23&#45;&gt;Node1</title>
<path fill="none" stroke="#9a32cd" stroke-dasharray="5,2" d="M793.99,-389.78C809.33,-392.35 828.69,-395.48 846,-398 1034.32,-425.36 1081.9,-432.4 1272,-441 1303.97,-442.45 1312.17,-444.33 1344,-441 1367.49,-438.54 1373.01,-435.43 1396,-430 1401.78,-428.63 1407.95,-427.09 1413.83,-425.57"/>
<polygon fill="#9a32cd" stroke="#9a32cd" points="794.53,-386.33 784.08,-388.12 793.36,-393.23 794.53,-386.33"/>
<text text-anchor="middle" x="1183.5" y="-443" font-family="Helvetica,sans-Serif" font-size="10.00"> world_aligned</text>
</g>
<!-- Node23&#45;&gt;Node3 -->
<g id="edge28" class="edge">
<title>Node23&#45;&gt;Node3</title>
<path fill="none" stroke="#9a32cd" stroke-dasharray="5,2" d="M794.33,-391.92C833.1,-399.57 902.67,-406.55 945,-371 969.6,-350.34 938.41,-321.67 963,-301 987.83,-280.13 1221.85,-282.29 1254,-278 1261.43,-277.01 1269.39,-275.66 1276.82,-274.28"/>
<polygon fill="#9a32cd" stroke="#9a32cd" points="794.77,-388.43 784.26,-389.78 793.32,-395.28 794.77,-388.43"/>
<text text-anchor="middle" x="1029" y="-304" font-family="Helvetica,sans-Serif" font-size="10.00"> has_color</text>
</g>
<!-- Node23&#45;&gt;Node7 -->
<g id="edge26" class="edge">
<title>Node23&#45;&gt;Node7</title>
<path fill="none" stroke="#9a32cd" stroke-dasharray="5,2" d="M793.35,-371.1C808.56,-363.77 828.01,-355.07 846,-349 888.8,-334.55 911.77,-356.59 945,-326 964.23,-308.29 945.17,-289.12 963,-270 969.8,-262.71 978.91,-257.43 988.16,-253.61"/>
<polygon fill="#9a32cd" stroke="#9a32cd" points="791.46,-368.12 784.02,-375.67 794.54,-374.41 791.46,-368.12"/>
<text text-anchor="middle" x="895.5" y="-363" font-family="Helvetica,sans-Serif" font-size="10.00"> IsRenderTarget</text>
<text text-anchor="middle" x="895.5" y="-352" font-family="Helvetica,sans-Serif" font-size="10.00">HasMipMaps</text>
</g>
<!-- Node24 -->
<g id="node24" class="node">
<title>Node24</title>
<g id="a_node24"><a xlink:title=" ">
<polygon fill="white" stroke="#bfbfbf" points="714,-162.5 714,-181.5 816,-181.5 816,-162.5 714,-162.5"/>
<text text-anchor="middle" x="765" y="-169.5" font-family="Helvetica,sans-Serif" font-size="10.00">E_TEXTURE_TYPE</text>
</a>
</g>
</g>
<!-- Node24&#45;&gt;Node7 -->
<g id="edge27" class="edge">
<title>Node24&#45;&gt;Node7</title>
<path fill="none" stroke="#9a32cd" stroke-dasharray="5,2" d="M826.21,-170.68C862.9,-172.45 909.42,-179.48 945,-201 956.41,-207.9 952.04,-217.41 963,-225 968.61,-228.88 975.01,-231.98 981.56,-234.45"/>
<polygon fill="#9a32cd" stroke="#9a32cd" points="826.26,-167.18 816.14,-170.31 826,-174.17 826.26,-167.18"/>
<text text-anchor="middle" x="895.5" y="-204" font-family="Helvetica,sans-Serif" font-size="10.00"> Type</text>
</g>
<!-- Node25 -->
<g id="node25" class="node">
<title>Node25</title>
<g id="a_node25"><a xlink:title=" ">
<polygon fill="white" stroke="#bfbfbf" points="963,-196.5 963,-215.5 1095,-215.5 1095,-196.5 963,-196.5"/>
<text text-anchor="middle" x="1029" y="-203.5" font-family="Helvetica,sans-Serif" font-size="10.00">vector&lt; FrameSpec &gt; *</text>
</a>
</g>
</g>
<!-- Node25&#45;&gt;Node3 -->
<g id="edge29" class="edge">
<title>Node25&#45;&gt;Node3</title>
<path fill="none" stroke="#9a32cd" stroke-dasharray="5,2" d="M1105.58,-198.52C1150.4,-197.02 1207.37,-200.33 1254,-220 1273.44,-228.2 1290.44,-246.68 1299.66,-258.17"/>
<polygon fill="#9a32cd" stroke="#9a32cd" points="1105.18,-195.04 1095.34,-198.96 1105.48,-202.03 1105.18,-195.04"/>
<text text-anchor="middle" x="1183.5" y="-223" font-family="Helvetica,sans-Serif" font-size="10.00"> frames</text>
</g>
<!-- Node26 -->
<g id="node26" class="node">
<title>Node26</title>
<g id="a_node26"><a xlink:title=" ">
<polygon fill="white" stroke="#bfbfbf" points="1011.5,-153.5 1011.5,-172.5 1046.5,-172.5 1046.5,-153.5 1011.5,-153.5"/>
<text text-anchor="middle" x="1029" y="-160.5" font-family="Helvetica,sans-Serif" font-size="10.00">u32</text>
</a>
</g>
</g>
<!-- Node26&#45;&gt;Node3 -->
<g id="edge30" class="edge">
<title>Node26&#45;&gt;Node3</title>
<path fill="none" stroke="#9a32cd" stroke-dasharray="5,2" d="M1056.55,-156.28C1101.09,-146.58 1192.07,-133.75 1254,-172 1286.07,-191.81 1300.24,-238.4 1305.01,-258.5"/>
<polygon fill="#9a32cd" stroke="#9a32cd" points="1055.73,-152.87 1046.77,-158.52 1057.3,-159.69 1055.73,-152.87"/>
<text text-anchor="middle" x="1183.5" y="-186" font-family="Helvetica,sans-Serif" font-size="10.00"> shader_id</text>
<text text-anchor="middle" x="1183.5" y="-175" font-family="Helvetica,sans-Serif" font-size="10.00">texture_id</text>
</g>
</g>
</svg>
