<?xml version="1.0" encoding="UTF-8" standalone="no"?>
<!DOCTYPE svg PUBLIC "-//W3C//DTD SVG 1.1//EN"
 "http://www.w3.org/Graphics/SVG/1.1/DTD/svg11.dtd">
<!-- Generated by graphviz version 2.43.0 (0)
 -->
<!-- Title: irr::io::SZipFileEntry Pages: 1 -->
<svg width="357pt" height="317pt"
 viewBox="0.00 0.00 357.00 317.00" xmlns="http://www.w3.org/2000/svg" xmlns:xlink="http://www.w3.org/1999/xlink">
<g id="graph0" class="graph" transform="scale(1 1) rotate(0) translate(4 313)">
<title>irr::io::SZipFileEntry</title>
<polygon fill="white" stroke="transparent" points="-4,4 -4,-313 353,-313 353,4 -4,4"/>
<!-- Node1 -->
<g id="node1" class="node">
<title>Node1</title>
<g id="a_node1"><a xlink:title="Contains extended info about zip files in the archive.">
<polygon fill="#bfbfbf" stroke="black" points="125.5,-0.5 125.5,-19.5 238.5,-19.5 238.5,-0.5 125.5,-0.5"/>
<text text-anchor="middle" x="182" y="-7.5" font-family="Helvetica,sans-Serif" font-size="10.00">irr::io::SZipFileEntry</text>
</a>
</g>
</g>
<!-- Node2 -->
<g id="node2" class="node">
<title>Node2</title>
<g id="a_node2"><a xlink:href="structirr_1_1io_1_1SZIPFileHeader.html" target="_top" xlink:title=" ">
<polygon fill="white" stroke="black" points="69,-67.5 69,-86.5 191,-86.5 191,-67.5 69,-67.5"/>
<text text-anchor="middle" x="130" y="-74.5" font-family="Helvetica,sans-Serif" font-size="10.00">irr::io::SZIPFileHeader</text>
</a>
</g>
</g>
<!-- Node2&#45;&gt;Node1 -->
<g id="edge1" class="edge">
<title>Node2&#45;&gt;Node1</title>
<path fill="none" stroke="#9a32cd" stroke-dasharray="5,2" d="M143.38,-59.27C153.52,-46.6 167.04,-29.7 175.1,-19.63"/>
<polygon fill="#9a32cd" stroke="#9a32cd" points="140.53,-57.24 137.01,-67.23 145.99,-61.61 140.53,-57.24"/>
<text text-anchor="middle" x="178.5" y="-41" font-family="Helvetica,sans-Serif" font-size="10.00"> header</text>
</g>
<!-- Node3 -->
<g id="node3" class="node">
<title>Node3</title>
<g id="a_node3"><a xlink:href="structirr_1_1io_1_1SZIPFileDataDescriptor.html" target="_top" xlink:title=" ">
<polygon fill="white" stroke="black" points="49.5,-200.5 49.5,-219.5 210.5,-219.5 210.5,-200.5 49.5,-200.5"/>
<text text-anchor="middle" x="130" y="-207.5" font-family="Helvetica,sans-Serif" font-size="10.00">irr::io::SZIPFileDataDescriptor</text>
</a>
</g>
</g>
<!-- Node3&#45;&gt;Node2 -->
<g id="edge2" class="edge">
<title>Node3&#45;&gt;Node2</title>
<path fill="none" stroke="#9a32cd" stroke-dasharray="5,2" d="M130,-190.09C130,-161.36 130,-107.82 130,-86.8"/>
<polygon fill="#9a32cd" stroke="#9a32cd" points="126.5,-190.4 130,-200.4 133.5,-190.4 126.5,-190.4"/>
<text text-anchor="middle" x="168.5" y="-141" font-family="Helvetica,sans-Serif" font-size="10.00"> DataDescriptor</text>
</g>
<!-- Node4 -->
<g id="node4" class="node">
<title>Node4</title>
<g id="a_node4"><a xlink:title=" ">
<polygon fill="white" stroke="#bfbfbf" points="0,-289.5 0,-308.5 56,-308.5 56,-289.5 0,-289.5"/>
<text text-anchor="middle" x="28" y="-296.5" font-family="Helvetica,sans-Serif" font-size="10.00">uint32_t</text>
</a>
</g>
</g>
<!-- Node4&#45;&gt;Node2 -->
<g id="edge4" class="edge">
<title>Node4&#45;&gt;Node2</title>
<path fill="none" stroke="#9a32cd" stroke-dasharray="5,2" d="M22.13,-279.45C16.74,-259.22 10.99,-226.22 21,-200 40.75,-148.26 93.65,-104.55 117.75,-86.67"/>
<polygon fill="#9a32cd" stroke="#9a32cd" points="18.82,-280.63 24.98,-289.25 25.54,-278.67 18.82,-280.63"/>
<text text-anchor="middle" x="30.5" y="-207.5" font-family="Helvetica,sans-Serif" font-size="10.00"> Sig</text>
</g>
<!-- Node4&#45;&gt;Node3 -->
<g id="edge3" class="edge">
<title>Node4&#45;&gt;Node3</title>
<path fill="none" stroke="#9a32cd" stroke-dasharray="5,2" d="M45.9,-282.73C67.39,-264.41 102.66,-234.32 119.89,-219.62"/>
<polygon fill="#9a32cd" stroke="#9a32cd" points="43.49,-280.19 38.15,-289.34 48.03,-285.51 43.49,-280.19"/>
<text text-anchor="middle" x="145" y="-263" font-family="Helvetica,sans-Serif" font-size="10.00"> CRC32</text>
<text text-anchor="middle" x="145" y="-252" font-family="Helvetica,sans-Serif" font-size="10.00">CompressedSize</text>
<text text-anchor="middle" x="145" y="-241" font-family="Helvetica,sans-Serif" font-size="10.00">UncompressedSize</text>
</g>
<!-- Node5 -->
<g id="node5" class="node">
<title>Node5</title>
<g id="a_node5"><a xlink:title=" ">
<polygon fill="white" stroke="#bfbfbf" points="229,-200.5 229,-219.5 279,-219.5 279,-200.5 229,-200.5"/>
<text text-anchor="middle" x="254" y="-207.5" font-family="Helvetica,sans-Serif" font-size="10.00">int16_t</text>
</a>
</g>
</g>
<!-- Node5&#45;&gt;Node2 -->
<g id="edge5" class="edge">
<title>Node5&#45;&gt;Node2</title>
<path fill="none" stroke="#9a32cd" stroke-dasharray="5,2" d="M251.15,-190.45C246.64,-167.32 235.69,-128.01 211,-105 201.78,-96.41 189.76,-90.55 177.8,-86.55"/>
<polygon fill="#9a32cd" stroke="#9a32cd" points="247.71,-191.12 252.88,-200.37 254.61,-189.92 247.71,-191.12"/>
<text text-anchor="middle" x="298.5" y="-174" font-family="Helvetica,sans-Serif" font-size="10.00"> LastModFileTime</text>
<text text-anchor="middle" x="298.5" y="-163" font-family="Helvetica,sans-Serif" font-size="10.00">GeneralBitFlag</text>
<text text-anchor="middle" x="298.5" y="-152" font-family="Helvetica,sans-Serif" font-size="10.00">ExtraFieldLength</text>
<text text-anchor="middle" x="298.5" y="-141" font-family="Helvetica,sans-Serif" font-size="10.00">LastModFileDate</text>
<text text-anchor="middle" x="298.5" y="-130" font-family="Helvetica,sans-Serif" font-size="10.00">CompressionMethod</text>
<text text-anchor="middle" x="298.5" y="-119" font-family="Helvetica,sans-Serif" font-size="10.00">FilenameLength</text>
<text text-anchor="middle" x="298.5" y="-108" font-family="Helvetica,sans-Serif" font-size="10.00">VersionToExtract</text>
</g>
<!-- Node6 -->
<g id="node6" class="node">
<title>Node6</title>
<g id="a_node6"><a xlink:title=" ">
<polygon fill="white" stroke="#bfbfbf" points="209,-67.5 209,-86.5 259,-86.5 259,-67.5 209,-67.5"/>
<text text-anchor="middle" x="234" y="-74.5" font-family="Helvetica,sans-Serif" font-size="10.00">int32_t</text>
</a>
</g>
</g>
<!-- Node6&#45;&gt;Node1 -->
<g id="edge6" class="edge">
<title>Node6&#45;&gt;Node1</title>
<path fill="none" stroke="#9a32cd" stroke-dasharray="5,2" d="M220.62,-59.27C210.48,-46.6 196.96,-29.7 188.9,-19.63"/>
<polygon fill="#9a32cd" stroke="#9a32cd" points="218.01,-61.61 226.99,-67.23 223.47,-57.24 218.01,-61.61"/>
<text text-anchor="middle" x="227.5" y="-41" font-family="Helvetica,sans-Serif" font-size="10.00"> Offset</text>
</g>
</g>
</svg>
