<?xml version="1.0" encoding="UTF-8" standalone="no"?>
<!DOCTYPE svg PUBLIC "-//W3C//DTD SVG 1.1//EN"
 "http://www.w3.org/Graphics/SVG/1.1/DTD/svg11.dtd">
<!-- Generated by graphviz version 2.43.0 (0)
 -->
<!-- Title: SkyboxParams Pages: 1 -->
<!--zoomable 252 -->
<svg id="main" version="1.1" xmlns="http://www.w3.org/2000/svg" xmlns:xlink="http://www.w3.org/1999/xlink" xml:space="preserve" onload="init(evt)">
<style type="text/css"><![CDATA[
.edge:hover path { stroke: red; }
.edge:hover polygon { stroke: red; fill: red; }
]]></style>
<script type="text/javascript"><![CDATA[
var edges = document.getElementsByTagName('g');
if (edges && edges.length) {
  for (var i=0;i<edges.length;i++) {
    if (edges[i].id.substr(0,4)=='edge') {
      edges[i].setAttribute('class','edge');
    }
  }
}
]]></script>
        <defs>
                <circle id="rim" cx="0" cy="0" r="7"/>
                <circle id="rim2" cx="0" cy="0" r="3.5"/>
                <g id="zoomPlus">
                        <use xlink:href="#rim" fill="#404040">
                                <set attributeName="fill" to="#808080" begin="zoomplus.mouseover" end="zoomplus.mouseout"/>
                        </use>
                        <path d="M-4,0h8M0,-4v8" fill="none" stroke="white" stroke-width="1.5" pointer-events="none"/>
                </g>
                <g id="zoomMin">
                        <use xlink:href="#rim" fill="#404040">
                                <set attributeName="fill" to="#808080" begin="zoomminus.mouseover" end="zoomminus.mouseout"/>
                        </use>
                        <path d="M-4,0h8" fill="none" stroke="white" stroke-width="1.5" pointer-events="none"/>
                </g>
                <g id="dirArrow">
                        <path fill="none" stroke="white" stroke-width="1.5" d="M0,-3.0v7 M-2.5,-0.5L0,-3.0L2.5,-0.5"/>
                </g>
               <g id="resetDef">
                       <use xlink:href="#rim2" fill="#404040">
                               <set attributeName="fill" to="#808080" begin="reset.mouseover" end="reset.mouseout"/>
                       </use>
               </g>
        </defs>

<script type="text/javascript">
var viewWidth = 578;
var viewHeight = 252;
var sectionId = 'dynsection-0';
</script>
<script xlink:href="svgpan.js"/>
<svg id="graph" class="graph">
<g id="viewport">
<title>SkyboxParams</title>
<polygon fill="white" stroke="transparent" points="-4,4 -4,-248 573.5,-248 573.5,4 -4,4"/>
<!-- Node1 -->
<g id="node1" class="node">
<title>Node1</title>
<g id="a_node1"><a xlink:title=" ">
<polygon fill="#bfbfbf" stroke="black" points="273.5,-0.5 273.5,-19.5 361.5,-19.5 361.5,-0.5 273.5,-0.5"/>
<text text-anchor="middle" x="317.5" y="-7.5" font-family="Helvetica,sans-Serif" font-size="10.00">SkyboxParams</text>
</a>
</g>
</g>
<!-- Node2 -->
<g id="node2" class="node">
<title>Node2</title>
<g id="a_node2"><a xlink:title=" ">
<polygon fill="white" stroke="#bfbfbf" points="0,-85 0,-104 119,-104 119,-85 0,-85"/>
<text text-anchor="middle" x="59.5" y="-92" font-family="Helvetica,sans-Serif" font-size="10.00">vector&lt; std::string &gt;</text>
</a>
</g>
</g>
<!-- Node2&#45;&gt;Node1 -->
<g id="edge1" class="edge">
<title>Node2&#45;&gt;Node1</title>
<path fill="none" stroke="#9a32cd" stroke-dasharray="5,2" d="M68.32,-75.77C75.64,-63.04 87.31,-46.66 102.5,-38 130.77,-21.88 219.02,-15.22 273.27,-12.59"/>
<polygon fill="#9a32cd" stroke="#9a32cd" points="65.22,-74.14 63.58,-84.6 71.39,-77.45 65.22,-74.14"/>
<text text-anchor="middle" x="124.5" y="-46.5" font-family="Helvetica,sans-Serif" font-size="10.00"> textures</text>
</g>
<!-- Node3 -->
<g id="node3" class="node">
<title>Node3</title>
<g id="a_node3"><a xlink:title=" ">
<polygon fill="white" stroke="#bfbfbf" points="137.5,-85 137.5,-104 175.5,-104 175.5,-85 137.5,-85"/>
<text text-anchor="middle" x="156.5" y="-92" font-family="Helvetica,sans-Serif" font-size="10.00">float</text>
</a>
</g>
</g>
<!-- Node3&#45;&gt;Node1 -->
<g id="edge2" class="edge">
<title>Node3&#45;&gt;Node1</title>
<path fill="none" stroke="#9a32cd" stroke-dasharray="5,2" d="M151.33,-74.97C149.2,-63.04 148.93,-47.95 157.5,-38 172.25,-20.87 231.4,-14.6 273.47,-12.32"/>
<polygon fill="#9a32cd" stroke="#9a32cd" points="147.94,-75.85 153.6,-84.8 154.76,-74.27 147.94,-75.85"/>
<text text-anchor="middle" x="212" y="-52" font-family="Helvetica,sans-Serif" font-size="10.00"> body_orbit_tilt</text>
<text text-anchor="middle" x="212" y="-41" font-family="Helvetica,sans-Serif" font-size="10.00">INVALID_SKYBOX_TILT</text>
</g>
<!-- Node4 -->
<g id="node4" class="node">
<title>Node4</title>
<g id="a_node4"><a xlink:href="structSkyColor.html" target="_top" xlink:title=" ">
<polygon fill="white" stroke="black" points="370,-85 370,-104 429,-104 429,-85 370,-85"/>
<text text-anchor="middle" x="399.5" y="-92" font-family="Helvetica,sans-Serif" font-size="10.00">SkyColor</text>
</a>
</g>
</g>
<!-- Node4&#45;&gt;Node1 -->
<g id="edge3" class="edge">
<title>Node4&#45;&gt;Node1</title>
<path fill="none" stroke="#9a32cd" stroke-dasharray="5,2" d="M383.91,-77.82C366.73,-60.53 339.72,-33.36 326.04,-19.6"/>
<polygon fill="#9a32cd" stroke="#9a32cd" points="381.5,-80.36 391.03,-84.98 386.47,-75.42 381.5,-80.36"/>
<text text-anchor="middle" x="390" y="-46.5" font-family="Helvetica,sans-Serif" font-size="10.00"> sky_color</text>
</g>
<!-- Node5 -->
<g id="node5" class="node">
<title>Node5</title>
<g id="a_node5"><a xlink:title=" ">
<polygon fill="white" stroke="#bfbfbf" points="272.5,-224.5 272.5,-243.5 320.5,-243.5 320.5,-224.5 272.5,-224.5"/>
<text text-anchor="middle" x="296.5" y="-231.5" font-family="Helvetica,sans-Serif" font-size="10.00">SColor</text>
</a>
</g>
</g>
<!-- Node5&#45;&gt;Node1 -->
<g id="edge7" class="edge">
<title>Node5&#45;&gt;Node1</title>
<path fill="none" stroke="#9a32cd" stroke-dasharray="5,2" d="M293.08,-214.48C288.26,-185.2 281.09,-126.55 290.5,-78 294.75,-56.09 306.14,-32.25 312.69,-19.77"/>
<polygon fill="#9a32cd" stroke="#9a32cd" points="289.66,-215.25 294.82,-224.5 296.55,-214.04 289.66,-215.25"/>
<text text-anchor="middle" x="326" y="-103" font-family="Helvetica,sans-Serif" font-size="10.00"> bgcolor</text>
<text text-anchor="middle" x="326" y="-92" font-family="Helvetica,sans-Serif" font-size="10.00">fog_sun_tint</text>
<text text-anchor="middle" x="326" y="-81" font-family="Helvetica,sans-Serif" font-size="10.00">fog_moon_tint</text>
</g>
<!-- Node5&#45;&gt;Node4 -->
<g id="edge4" class="edge">
<title>Node5&#45;&gt;Node4</title>
<path fill="none" stroke="#9a32cd" stroke-dasharray="5,2" d="M309,-216.31C331.1,-186.81 376.3,-126.47 393.06,-104.1"/>
<polygon fill="#9a32cd" stroke="#9a32cd" points="306.14,-214.3 302.94,-224.4 311.74,-218.49 306.14,-214.3"/>
<text text-anchor="middle" x="405.5" y="-198" font-family="Helvetica,sans-Serif" font-size="10.00"> night_sky</text>
<text text-anchor="middle" x="405.5" y="-187" font-family="Helvetica,sans-Serif" font-size="10.00">dawn_horizon</text>
<text text-anchor="middle" x="405.5" y="-176" font-family="Helvetica,sans-Serif" font-size="10.00">day_horizon</text>
<text text-anchor="middle" x="405.5" y="-165" font-family="Helvetica,sans-Serif" font-size="10.00">dawn_sky</text>
<text text-anchor="middle" x="405.5" y="-154" font-family="Helvetica,sans-Serif" font-size="10.00">day_sky</text>
<text text-anchor="middle" x="405.5" y="-143" font-family="Helvetica,sans-Serif" font-size="10.00">night_horizon</text>
<text text-anchor="middle" x="405.5" y="-132" font-family="Helvetica,sans-Serif" font-size="10.00">indoors</text>
</g>
<!-- Node6 -->
<g id="node6" class="node">
<title>Node6</title>
<g id="a_node6"><a xlink:href="classbool.html" target="_top" xlink:title=" ">
<polygon fill="white" stroke="black" points="447.5,-85 447.5,-104 485.5,-104 485.5,-85 447.5,-85"/>
<text text-anchor="middle" x="466.5" y="-92" font-family="Helvetica,sans-Serif" font-size="10.00">bool</text>
</a>
</g>
</g>
<!-- Node6&#45;&gt;Node1 -->
<g id="edge5" class="edge">
<title>Node6&#45;&gt;Node1</title>
<path fill="none" stroke="#9a32cd" stroke-dasharray="5,2" d="M455.8,-76.37C447.19,-63.95 433.99,-47.7 418.5,-38 401.42,-27.31 380.17,-20.81 361.57,-16.88"/>
<polygon fill="#9a32cd" stroke="#9a32cd" points="453.03,-78.53 461.46,-84.95 458.88,-74.67 453.03,-78.53"/>
<text text-anchor="middle" x="459" y="-46.5" font-family="Helvetica,sans-Serif" font-size="10.00"> clouds</text>
</g>
<!-- Node7 -->
<g id="node7" class="node">
<title>Node7</title>
<g id="a_node7"><a xlink:title=" ">
<polygon fill="white" stroke="#bfbfbf" points="503.5,-85 503.5,-104 547.5,-104 547.5,-85 503.5,-85"/>
<text text-anchor="middle" x="525.5" y="-92" font-family="Helvetica,sans-Serif" font-size="10.00">string</text>
</a>
</g>
</g>
<!-- Node7&#45;&gt;Node1 -->
<g id="edge6" class="edge">
<title>Node7&#45;&gt;Node1</title>
<path fill="none" stroke="#9a32cd" stroke-dasharray="5,2" d="M515.97,-75.93C508.15,-63.29 495.88,-46.95 480.5,-38 460.85,-26.57 403.05,-18.94 361.87,-14.79"/>
<polygon fill="#9a32cd" stroke="#9a32cd" points="513.01,-77.81 521.06,-84.7 519.07,-74.29 513.01,-77.81"/>
<text text-anchor="middle" x="537" y="-52" font-family="Helvetica,sans-Serif" font-size="10.00"> type</text>
<text text-anchor="middle" x="537" y="-41" font-family="Helvetica,sans-Serif" font-size="10.00">fog_tint_type</text>
</g>
</g>
</svg>
        <g id="navigator" transform="translate(0 0)" fill="#404254">
                <rect fill="#f2f5e9" fill-opacity="0.5" stroke="#606060" stroke-width=".5" x="0" y="0" width="60" height="60"/>
                <use id="zoomplus" xlink:href="#zoomPlus" x="17" y="9" onmousedown="handleZoom(evt,'in')"/>
                <use id="zoomminus" xlink:href="#zoomMin" x="42" y="9" onmousedown="handleZoom(evt,'out')"/>
                <use id="reset" xlink:href="#resetDef" x="30" y="36" onmousedown="handleReset()"/>
                <g id="arrowUp" xlink:href="#dirArrow" transform="translate(30 24)" onmousedown="handlePan(0,-1)">
                  <use xlink:href="#rim" fill="#404040">
                        <set attributeName="fill" to="#808080" begin="arrowUp.mouseover" end="arrowUp.mouseout"/>
                  </use>
                  <path fill="none" stroke="white" stroke-width="1.5" d="M0,-3.0v7 M-2.5,-0.5L0,-3.0L2.5,-0.5"/>
                </g>
                <g id="arrowRight" xlink:href="#dirArrow" transform="rotate(90) translate(36 -43)" onmousedown="handlePan(1,0)">
                  <use xlink:href="#rim" fill="#404040">
                        <set attributeName="fill" to="#808080" begin="arrowRight.mouseover" end="arrowRight.mouseout"/>
                  </use>
                  <path fill="none" stroke="white" stroke-width="1.5" d="M0,-3.0v7 M-2.5,-0.5L0,-3.0L2.5,-0.5"/>
                </g>
                <g id="arrowDown" xlink:href="#dirArrow" transform="rotate(180) translate(-30 -48)" onmousedown="handlePan(0,1)">
                  <use xlink:href="#rim" fill="#404040">
                        <set attributeName="fill" to="#808080" begin="arrowDown.mouseover" end="arrowDown.mouseout"/>
                  </use>
                  <path fill="none" stroke="white" stroke-width="1.5" d="M0,-3.0v7 M-2.5,-0.5L0,-3.0L2.5,-0.5"/>
                </g>
                <g id="arrowLeft" xlink:href="#dirArrow" transform="rotate(270) translate(-36 17)" onmousedown="handlePan(-1,0)">
                  <use xlink:href="#rim" fill="#404040">
                        <set attributeName="fill" to="#808080" begin="arrowLeft.mouseover" end="arrowLeft.mouseout"/>
                  </use>
                  <path fill="none" stroke="white" stroke-width="1.5" d="M0,-3.0v7 M-2.5,-0.5L0,-3.0L2.5,-0.5"/>
                </g>
        </g>
        <svg viewBox="0 0 15 15" width="100%" height="30px" preserveAspectRatio="xMaxYMin meet">
         <g id="arrow_out" transform="scale(0.3 0.3)">
          <a xlink:href="structSkyboxParams__coll__graph_org.svg" target="_base">
           <rect id="button" ry="5" rx="5" y="6" x="6" height="38" width="38"
                fill="#f2f5e9" fill-opacity="0.5" stroke="#606060" stroke-width="1.0"/>
           <path id="arrow"
             d="M 11.500037,31.436501 C 11.940474,20.09759 22.043105,11.32322 32.158766,21.979434 L 37.068811,17.246167 C 37.068811,17.246167 37.088388,32 37.088388,32 L 22.160133,31.978069 C 22.160133,31.978069 26.997745,27.140456 26.997745,27.140456 C 18.528582,18.264221 13.291696,25.230495 11.500037,31.436501 z"
             style="fill:#404040;"/>
          </a>
         </g>
        </svg>
</svg>
