<?xml version="1.0" encoding="UTF-8" standalone="no"?>
<!DOCTYPE svg PUBLIC "-//W3C//DTD SVG 1.1//EN"
 "http://www.w3.org/Graphics/SVG/1.1/DTD/svg11.dtd">
<!-- Generated by graphviz version 2.43.0 (0)
 -->
<!-- Title: NodeBoxConnected Pages: 1 -->
<svg width="171pt" height="216pt"
 viewBox="0.00 0.00 170.50 216.00" xmlns="http://www.w3.org/2000/svg" xmlns:xlink="http://www.w3.org/1999/xlink">
<g id="graph0" class="graph" transform="scale(1 1) rotate(0) translate(4 212)">
<title>NodeBoxConnected</title>
<polygon fill="white" stroke="transparent" points="-4,4 -4,-212 166.5,-212 166.5,4 -4,4"/>
<!-- Node1 -->
<g id="node1" class="node">
<title>Node1</title>
<g id="a_node1"><a xlink:title=" ">
<polygon fill="#bfbfbf" stroke="black" points="0,-0.5 0,-19.5 113,-19.5 113,-0.5 0,-0.5"/>
<text text-anchor="middle" x="56.5" y="-7.5" font-family="Helvetica,sans-Serif" font-size="10.00">NodeBoxConnected</text>
</a>
</g>
</g>
<!-- Node2 -->
<g id="node2" class="node">
<title>Node2</title>
<g id="a_node2"><a xlink:title=" ">
<polygon fill="white" stroke="#bfbfbf" points="5.5,-177.5 5.5,-207.5 107.5,-207.5 107.5,-177.5 5.5,-177.5"/>
<text text-anchor="start" x="13.5" y="-195.5" font-family="Helvetica,sans-Serif" font-size="10.00">vector&lt; irr::core::</text>
<text text-anchor="middle" x="56.5" y="-184.5" font-family="Helvetica,sans-Serif" font-size="10.00">aabbox3d &gt;</text>
</a>
</g>
</g>
<!-- Node2&#45;&gt;Node1 -->
<g id="edge1" class="edge">
<title>Node2&#45;&gt;Node1</title>
<path fill="none" stroke="#9a32cd" stroke-dasharray="5,2" d="M56.5,-167.19C56.5,-126.43 56.5,-46.14 56.5,-19.68"/>
<polygon fill="#9a32cd" stroke="#9a32cd" points="53,-167.34 56.5,-177.34 60,-167.34 53,-167.34"/>
<text text-anchor="middle" x="109.5" y="-151" font-family="Helvetica,sans-Serif" font-size="10.00"> connect_top</text>
<text text-anchor="middle" x="109.5" y="-140" font-family="Helvetica,sans-Serif" font-size="10.00">connect_left</text>
<text text-anchor="middle" x="109.5" y="-129" font-family="Helvetica,sans-Serif" font-size="10.00">disconnected_left</text>
<text text-anchor="middle" x="109.5" y="-118" font-family="Helvetica,sans-Serif" font-size="10.00">disconnected_top</text>
<text text-anchor="middle" x="109.5" y="-107" font-family="Helvetica,sans-Serif" font-size="10.00">disconnected_sides</text>
<text text-anchor="middle" x="109.5" y="-96" font-family="Helvetica,sans-Serif" font-size="10.00">disconnected</text>
<text text-anchor="middle" x="109.5" y="-85" font-family="Helvetica,sans-Serif" font-size="10.00">connect_front</text>
<text text-anchor="middle" x="109.5" y="-74" font-family="Helvetica,sans-Serif" font-size="10.00">disconnected_bottom</text>
<text text-anchor="middle" x="109.5" y="-63" font-family="Helvetica,sans-Serif" font-size="10.00">disconnected_right</text>
<text text-anchor="middle" x="109.5" y="-52" font-family="Helvetica,sans-Serif" font-size="10.00">connect_back</text>
<text text-anchor="middle" x="109.5" y="-41" font-family="Helvetica,sans-Serif" font-size="10.00">...</text>
</g>
</g>
</svg>
