<?xml version="1.0" encoding="UTF-8" standalone="no"?>
<!DOCTYPE svg PUBLIC "-//W3C//DTD SVG 1.1//EN"
 "http://www.w3.org/Graphics/SVG/1.1/DTD/svg11.dtd">
<!-- Generated by graphviz version 2.43.0 (0)
 -->
<!-- Title: BiomeParamsOriginal Pages: 1 -->
<svg width="400pt" height="317pt"
 viewBox="0.00 0.00 399.50 317.00" xmlns="http://www.w3.org/2000/svg" xmlns:xlink="http://www.w3.org/1999/xlink">
<g id="graph0" class="graph" transform="scale(1 1) rotate(0) translate(4 313)">
<title>BiomeParamsOriginal</title>
<polygon fill="white" stroke="transparent" points="-4,4 -4,-313 395.5,-313 395.5,4 -4,4"/>
<!-- Node1 -->
<g id="node1" class="node">
<title>Node1</title>
<g id="a_node1"><a xlink:title=" ">
<polygon fill="#bfbfbf" stroke="black" points="30,-0.5 30,-19.5 152,-19.5 152,-0.5 30,-0.5"/>
<text text-anchor="middle" x="91" y="-7.5" font-family="Helvetica,sans-Serif" font-size="10.00">BiomeParamsOriginal</text>
</a>
</g>
</g>
<!-- Node2 -->
<g id="node2" class="node">
<title>Node2</title>
<g id="a_node2"><a xlink:href="structBiomeParams.html" target="_top" xlink:title=" ">
<polygon fill="white" stroke="black" points="0,-100.5 0,-119.5 84,-119.5 84,-100.5 0,-100.5"/>
<text text-anchor="middle" x="42" y="-107.5" font-family="Helvetica,sans-Serif" font-size="10.00">BiomeParams</text>
</a>
</g>
</g>
<!-- Node2&#45;&gt;Node1 -->
<g id="edge1" class="edge">
<title>Node2&#45;&gt;Node1</title>
<path fill="none" stroke="midnightblue" d="M50.95,-91.1C61.56,-69.89 78.78,-35.44 86.73,-19.54"/>
<polygon fill="midnightblue" stroke="midnightblue" points="47.69,-89.79 46.35,-100.3 53.95,-92.92 47.69,-89.79"/>
</g>
<!-- Node3 -->
<g id="node3" class="node">
<title>Node3</title>
<g id="a_node3"><a xlink:title=" ">
<polygon fill="white" stroke="#bfbfbf" points="17,-200.5 17,-219.5 51,-219.5 51,-200.5 17,-200.5"/>
<text text-anchor="middle" x="34" y="-207.5" font-family="Helvetica,sans-Serif" font-size="10.00">s32</text>
</a>
</g>
</g>
<!-- Node3&#45;&gt;Node2 -->
<g id="edge2" class="edge">
<title>Node3&#45;&gt;Node2</title>
<path fill="none" stroke="#9a32cd" stroke-dasharray="5,2" d="M16.86,-192.42C14.46,-189.21 12.36,-185.68 11,-182 4.24,-163.65 2.9,-155.8 11,-138 14.43,-130.46 21.12,-124.21 27.4,-119.63"/>
<polygon fill="#9a32cd" stroke="#9a32cd" points="14.37,-194.88 23.58,-200.11 19.64,-190.28 14.37,-194.88"/>
<text text-anchor="middle" x="24.5" y="-157.5" font-family="Helvetica,sans-Serif" font-size="10.00"> seed</text>
</g>
<!-- Node4 -->
<g id="node4" class="node">
<title>Node4</title>
<g id="a_node4"><a xlink:href="structNoiseParams.html" target="_top" xlink:title=" ">
<polygon fill="white" stroke="black" points="118,-100.5 118,-119.5 198,-119.5 198,-100.5 118,-100.5"/>
<text text-anchor="middle" x="158" y="-107.5" font-family="Helvetica,sans-Serif" font-size="10.00">NoiseParams</text>
</a>
</g>
</g>
<!-- Node3&#45;&gt;Node4 -->
<g id="edge8" class="edge">
<title>Node3&#45;&gt;Node4</title>
<path fill="none" stroke="#9a32cd" stroke-dasharray="5,2" d="M40.48,-190.82C47.07,-174.77 58.79,-151.84 76,-138 87.91,-128.42 103.35,-122.19 117.61,-118.15"/>
<polygon fill="#9a32cd" stroke="#9a32cd" points="37.19,-189.61 36.87,-200.2 43.73,-192.12 37.19,-189.61"/>
<text text-anchor="middle" x="89.5" y="-157.5" font-family="Helvetica,sans-Serif" font-size="10.00"> seed</text>
</g>
<!-- Node4&#45;&gt;Node1 -->
<g id="edge3" class="edge">
<title>Node4&#45;&gt;Node1</title>
<path fill="none" stroke="#9a32cd" stroke-dasharray="5,2" d="M146.35,-91.96C131.9,-70.83 107.85,-35.65 96.84,-19.54"/>
<polygon fill="#9a32cd" stroke="#9a32cd" points="143.52,-94.02 152.05,-100.3 149.3,-90.07 143.52,-94.02"/>
<text text-anchor="middle" x="186" y="-74" font-family="Helvetica,sans-Serif" font-size="10.00"> np_heat_blend</text>
<text text-anchor="middle" x="186" y="-63" font-family="Helvetica,sans-Serif" font-size="10.00">np_heat</text>
<text text-anchor="middle" x="186" y="-52" font-family="Helvetica,sans-Serif" font-size="10.00">np_humidity_blend</text>
<text text-anchor="middle" x="186" y="-41" font-family="Helvetica,sans-Serif" font-size="10.00">np_humidity</text>
</g>
<!-- Node5 -->
<g id="node5" class="node">
<title>Node5</title>
<g id="a_node5"><a xlink:title=" ">
<polygon fill="white" stroke="#bfbfbf" points="92.5,-200.5 92.5,-219.5 127.5,-219.5 127.5,-200.5 92.5,-200.5"/>
<text text-anchor="middle" x="110" y="-207.5" font-family="Helvetica,sans-Serif" font-size="10.00">u16</text>
</a>
</g>
</g>
<!-- Node5&#45;&gt;Node4 -->
<g id="edge4" class="edge">
<title>Node5&#45;&gt;Node4</title>
<path fill="none" stroke="#9a32cd" stroke-dasharray="5,2" d="M107.27,-190.19C106.03,-175.03 106.54,-153.71 116,-138 120.83,-129.98 129.06,-123.92 136.96,-119.6"/>
<polygon fill="#9a32cd" stroke="#9a32cd" points="103.82,-190.86 108.44,-200.4 110.77,-190.06 103.82,-190.86"/>
<text text-anchor="middle" x="137" y="-157.5" font-family="Helvetica,sans-Serif" font-size="10.00"> octaves</text>
</g>
<!-- Node6 -->
<g id="node6" class="node">
<title>Node6</title>
<g id="a_node6"><a xlink:title=" ">
<polygon fill="white" stroke="#bfbfbf" points="151,-200.5 151,-219.5 189,-219.5 189,-200.5 151,-200.5"/>
<text text-anchor="middle" x="170" y="-207.5" font-family="Helvetica,sans-Serif" font-size="10.00">float</text>
</a>
</g>
</g>
<!-- Node6&#45;&gt;Node4 -->
<g id="edge5" class="edge">
<title>Node6&#45;&gt;Node4</title>
<path fill="none" stroke="#9a32cd" stroke-dasharray="5,2" d="M167.7,-190.22C165.1,-168.95 160.97,-135.22 159.05,-119.54"/>
<polygon fill="#9a32cd" stroke="#9a32cd" points="164.25,-190.8 168.94,-200.3 171.19,-189.95 164.25,-190.8"/>
<text text-anchor="middle" x="191.5" y="-174" font-family="Helvetica,sans-Serif" font-size="10.00"> persist</text>
<text text-anchor="middle" x="191.5" y="-163" font-family="Helvetica,sans-Serif" font-size="10.00">offset</text>
<text text-anchor="middle" x="191.5" y="-152" font-family="Helvetica,sans-Serif" font-size="10.00">scale</text>
<text text-anchor="middle" x="191.5" y="-141" font-family="Helvetica,sans-Serif" font-size="10.00">lacunarity</text>
</g>
<!-- Node7 -->
<g id="node7" class="node">
<title>Node7</title>
<g id="a_node7"><a xlink:href="classirr_1_1core_1_1vector3d.html" target="_top" xlink:title="3d vector template class with lots of operators and methods.">
<polygon fill="white" stroke="black" points="207.5,-200.5 207.5,-219.5 338.5,-219.5 338.5,-200.5 207.5,-200.5"/>
<text text-anchor="middle" x="273" y="-207.5" font-family="Helvetica,sans-Serif" font-size="10.00">irr::core::vector3d&lt; T &gt;</text>
</a>
</g>
</g>
<!-- Node7&#45;&gt;Node4 -->
<g id="edge6" class="edge">
<title>Node7&#45;&gt;Node4</title>
<path fill="none" stroke="#9a32cd" stroke-dasharray="5,2" d="M263.61,-191.69C254.31,-175.92 238.77,-152.87 220,-138 209.88,-129.98 197.01,-123.87 185.62,-119.5"/>
<polygon fill="#9a32cd" stroke="#9a32cd" points="260.59,-193.46 268.57,-200.43 266.68,-190.01 260.59,-193.46"/>
<text text-anchor="middle" x="274.5" y="-157.5" font-family="Helvetica,sans-Serif" font-size="10.00"> spread</text>
</g>
<!-- Node8 -->
<g id="node8" class="node">
<title>Node8</title>
<g id="a_node8"><a xlink:title=" ">
<polygon fill="white" stroke="#bfbfbf" points="258.5,-289.5 258.5,-308.5 287.5,-308.5 287.5,-289.5 258.5,-289.5"/>
<text text-anchor="middle" x="273" y="-296.5" font-family="Helvetica,sans-Serif" font-size="10.00">T</text>
</a>
</g>
</g>
<!-- Node8&#45;&gt;Node7 -->
<g id="edge7" class="edge">
<title>Node8&#45;&gt;Node7</title>
<path fill="none" stroke="#9a32cd" stroke-dasharray="5,2" d="M273,-279.19C273,-260.74 273,-233.41 273,-219.62"/>
<polygon fill="#9a32cd" stroke="#9a32cd" points="269.5,-279.34 273,-289.34 276.5,-279.34 269.5,-279.34"/>
<text text-anchor="middle" x="278" y="-263" font-family="Helvetica,sans-Serif" font-size="10.00"> X</text>
<text text-anchor="middle" x="278" y="-252" font-family="Helvetica,sans-Serif" font-size="10.00">Y</text>
<text text-anchor="middle" x="278" y="-241" font-family="Helvetica,sans-Serif" font-size="10.00">Z</text>
</g>
<!-- Node9 -->
<g id="node9" class="node">
<title>Node9</title>
<g id="a_node9"><a xlink:title=" ">
<polygon fill="white" stroke="#bfbfbf" points="356.5,-200.5 356.5,-219.5 391.5,-219.5 391.5,-200.5 356.5,-200.5"/>
<text text-anchor="middle" x="374" y="-207.5" font-family="Helvetica,sans-Serif" font-size="10.00">u32</text>
</a>
</g>
</g>
<!-- Node9&#45;&gt;Node4 -->
<g id="edge9" class="edge">
<title>Node9&#45;&gt;Node4</title>
<path fill="none" stroke="#9a32cd" stroke-dasharray="5,2" d="M361.06,-192.63C347.08,-176.14 323.25,-151.28 297,-138 266.07,-122.35 227.05,-115.75 198.22,-112.98"/>
<polygon fill="#9a32cd" stroke="#9a32cd" points="358.38,-194.88 367.43,-200.39 363.79,-190.44 358.38,-194.88"/>
<text text-anchor="middle" x="364.5" y="-157.5" font-family="Helvetica,sans-Serif" font-size="10.00"> flags</text>
</g>
</g>
</svg>
