<?xml version="1.0" encoding="UTF-8" standalone="no"?>
<!DOCTYPE svg PUBLIC "-//W3C//DTD SVG 1.1//EN"
 "http://www.w3.org/Graphics/SVG/1.1/DTD/svg11.dtd">
<!-- Generated by graphviz version 2.43.0 (0)
 -->
<!-- Title: HudElement Pages: 1 -->
<!--zoomable 323 -->
<svg id="main" version="1.1" xmlns="http://www.w3.org/2000/svg" xmlns:xlink="http://www.w3.org/1999/xlink" xml:space="preserve" onload="init(evt)">
<style type="text/css"><![CDATA[
.edge:hover path { stroke: red; }
.edge:hover polygon { stroke: red; fill: red; }
]]></style>
<script type="text/javascript"><![CDATA[
var edges = document.getElementsByTagName('g');
if (edges && edges.length) {
  for (var i=0;i<edges.length;i++) {
    if (edges[i].id.substr(0,4)=='edge') {
      edges[i].setAttribute('class','edge');
    }
  }
}
]]></script>
        <defs>
                <circle id="rim" cx="0" cy="0" r="7"/>
                <circle id="rim2" cx="0" cy="0" r="3.5"/>
                <g id="zoomPlus">
                        <use xlink:href="#rim" fill="#404040">
                                <set attributeName="fill" to="#808080" begin="zoomplus.mouseover" end="zoomplus.mouseout"/>
                        </use>
                        <path d="M-4,0h8M0,-4v8" fill="none" stroke="white" stroke-width="1.5" pointer-events="none"/>
                </g>
                <g id="zoomMin">
                        <use xlink:href="#rim" fill="#404040">
                                <set attributeName="fill" to="#808080" begin="zoomminus.mouseover" end="zoomminus.mouseout"/>
                        </use>
                        <path d="M-4,0h8" fill="none" stroke="white" stroke-width="1.5" pointer-events="none"/>
                </g>
                <g id="dirArrow">
                        <path fill="none" stroke="white" stroke-width="1.5" d="M0,-3.0v7 M-2.5,-0.5L0,-3.0L2.5,-0.5"/>
                </g>
               <g id="resetDef">
                       <use xlink:href="#rim2" fill="#404040">
                               <set attributeName="fill" to="#808080" begin="reset.mouseover" end="reset.mouseout"/>
                       </use>
               </g>
        </defs>

<script type="text/javascript">
var viewWidth = 638;
var viewHeight = 323;
var sectionId = 'dynsection-0';
</script>
<script xlink:href="svgpan.js"/>
<svg id="graph" class="graph">
<g id="viewport">
<title>HudElement</title>
<polygon fill="white" stroke="transparent" points="-4,4 -4,-319 634,-319 634,4 -4,4"/>
<!-- Node1 -->
<g id="node1" class="node">
<title>Node1</title>
<g id="a_node1"><a xlink:title=" ">
<polygon fill="#bfbfbf" stroke="black" points="553,-151.5 553,-170.5 630,-170.5 630,-151.5 553,-151.5"/>
<text text-anchor="middle" x="591.5" y="-158.5" font-family="Helvetica,sans-Serif" font-size="10.00">HudElement</text>
</a>
</g>
</g>
<!-- Node2 -->
<g id="node2" class="node">
<title>Node2</title>
<g id="a_node2"><a xlink:title=" ">
<polygon fill="white" stroke="#bfbfbf" points="407.5,-295.5 407.5,-314.5 441.5,-314.5 441.5,-295.5 407.5,-295.5"/>
<text text-anchor="middle" x="424.5" y="-302.5" font-family="Helvetica,sans-Serif" font-size="10.00">s16</text>
</a>
</g>
</g>
<!-- Node2&#45;&gt;Node1 -->
<g id="edge1" class="edge">
<title>Node2&#45;&gt;Node1</title>
<path fill="none" stroke="#9a32cd" stroke-dasharray="5,2" d="M451.71,-301.22C475.77,-296.57 511.21,-286.59 535,-266 565.87,-239.28 582.19,-191.08 588,-170.61"/>
<polygon fill="#9a32cd" stroke="#9a32cd" points="451.09,-297.77 441.85,-302.95 452.3,-304.67 451.09,-297.77"/>
<text text-anchor="middle" x="514.5" y="-292" font-family="Helvetica,sans-Serif" font-size="10.00"> z_index</text>
</g>
<!-- Node3 -->
<g id="node3" class="node">
<title>Node3</title>
<g id="a_node3"><a xlink:href="classirr_1_1core_1_1vector2d.html" target="_top" xlink:title=" ">
<polygon fill="white" stroke="black" points="373,-191 373,-221 476,-221 476,-191 373,-191"/>
<text text-anchor="start" x="381" y="-209" font-family="Helvetica,sans-Serif" font-size="10.00">irr::core::vector2d</text>
<text text-anchor="middle" x="424.5" y="-198" font-family="Helvetica,sans-Serif" font-size="10.00">&lt; f32 &gt;</text>
</a>
</g>
</g>
<!-- Node3&#45;&gt;Node1 -->
<g id="edge2" class="edge">
<title>Node3&#45;&gt;Node1</title>
<path fill="none" stroke="#9a32cd" stroke-dasharray="5,2" d="M486.18,-189.45C509.51,-183.09 535.36,-176.04 555.49,-170.55"/>
<polygon fill="#9a32cd" stroke="#9a32cd" points="485.08,-186.12 476.35,-192.13 486.92,-192.88 485.08,-186.12"/>
<text text-anchor="middle" x="514.5" y="-222" font-family="Helvetica,sans-Serif" font-size="10.00"> offset</text>
<text text-anchor="middle" x="514.5" y="-211" font-family="Helvetica,sans-Serif" font-size="10.00">scale</text>
<text text-anchor="middle" x="514.5" y="-200" font-family="Helvetica,sans-Serif" font-size="10.00">pos</text>
<text text-anchor="middle" x="514.5" y="-189" font-family="Helvetica,sans-Serif" font-size="10.00">align</text>
</g>
<!-- Node4 -->
<g id="node4" class="node">
<title>Node4</title>
<g id="a_node4"><a xlink:title=" ">
<polygon fill="white" stroke="#bfbfbf" points="124.5,-174.5 124.5,-193.5 156.5,-193.5 156.5,-174.5 124.5,-174.5"/>
<text text-anchor="middle" x="140.5" y="-181.5" font-family="Helvetica,sans-Serif" font-size="10.00">f32</text>
</a>
</g>
</g>
<!-- Node4&#45;&gt;Node3 -->
<g id="edge3" class="edge">
<title>Node4&#45;&gt;Node3</title>
<path fill="none" stroke="#9a32cd" stroke-dasharray="5,2" d="M166.84,-181.74C207.02,-178.7 287.67,-174.75 355,-185 363.61,-186.31 372.63,-188.47 381.2,-190.93"/>
<polygon fill="#9a32cd" stroke="#9a32cd" points="166.32,-178.27 156.63,-182.57 166.88,-185.25 166.32,-178.27"/>
<text text-anchor="middle" x="289.5" y="-199" font-family="Helvetica,sans-Serif" font-size="10.00"> X</text>
<text text-anchor="middle" x="289.5" y="-188" font-family="Helvetica,sans-Serif" font-size="10.00">Y</text>
</g>
<!-- Node5 -->
<g id="node5" class="node">
<title>Node5</title>
<g id="a_node5"><a xlink:href="classirr_1_1core_1_1vector2d.html" target="_top" xlink:title="2d vector template class with lots of operators and methods.">
<polygon fill="white" stroke="black" points="75,-217.5 75,-236.5 206,-236.5 206,-217.5 75,-217.5"/>
<text text-anchor="middle" x="140.5" y="-224.5" font-family="Helvetica,sans-Serif" font-size="10.00">irr::core::vector2d&lt; T &gt;</text>
</a>
</g>
</g>
<!-- Node5&#45;&gt;Node3 -->
<g id="edge4" class="edge">
<title>Node5&#45;&gt;Node3</title>
<path fill="none" stroke="orange" stroke-dasharray="5,2" d="M216.2,-221.44C265.61,-217.76 329.08,-213.03 372.71,-209.78"/>
<polygon fill="orange" stroke="orange" points="215.91,-217.95 206.2,-222.18 216.43,-224.93 215.91,-217.95"/>
<text text-anchor="middle" x="289.5" y="-223" font-family="Helvetica,sans-Serif" font-size="10.00"> &lt; f32 &gt;</text>
</g>
<!-- Node7 -->
<g id="node7" class="node">
<title>Node7</title>
<g id="a_node7"><a xlink:href="classirr_1_1core_1_1vector2d.html" target="_top" xlink:title=" ">
<polygon fill="white" stroke="black" points="373,-246 373,-276 476,-276 476,-246 373,-246"/>
<text text-anchor="start" x="381" y="-264" font-family="Helvetica,sans-Serif" font-size="10.00">irr::core::vector2d</text>
<text text-anchor="middle" x="424.5" y="-253" font-family="Helvetica,sans-Serif" font-size="10.00">&lt; s32 &gt;</text>
</a>
</g>
</g>
<!-- Node5&#45;&gt;Node7 -->
<g id="edge8" class="edge">
<title>Node5&#45;&gt;Node7</title>
<path fill="none" stroke="orange" stroke-dasharray="5,2" d="M216.2,-236.01C265.61,-241.96 329.08,-249.62 372.71,-254.88"/>
<polygon fill="orange" stroke="orange" points="216.54,-232.52 206.2,-234.8 215.71,-239.47 216.54,-232.52"/>
<text text-anchor="middle" x="289.5" y="-254" font-family="Helvetica,sans-Serif" font-size="10.00"> &lt; s32 &gt;</text>
</g>
<!-- Node6 -->
<g id="node6" class="node">
<title>Node6</title>
<g id="a_node6"><a xlink:title=" ">
<polygon fill="white" stroke="#bfbfbf" points="0,-164.5 0,-183.5 29,-183.5 29,-164.5 0,-164.5"/>
<text text-anchor="middle" x="14.5" y="-171.5" font-family="Helvetica,sans-Serif" font-size="10.00">T</text>
</a>
</g>
</g>
<!-- Node6&#45;&gt;Node5 -->
<g id="edge5" class="edge">
<title>Node6&#45;&gt;Node5</title>
<path fill="none" stroke="#9a32cd" stroke-dasharray="5,2" d="M37.99,-185.6C49.02,-191.13 62.58,-197.68 75,-203 86.97,-208.13 100.44,-213.24 111.96,-217.42"/>
<polygon fill="#9a32cd" stroke="#9a32cd" points="39.53,-182.46 29.03,-181.06 36.37,-188.71 39.53,-182.46"/>
<text text-anchor="middle" x="52" y="-208" font-family="Helvetica,sans-Serif" font-size="10.00"> X</text>
<text text-anchor="middle" x="52" y="-197" font-family="Helvetica,sans-Serif" font-size="10.00">Y</text>
</g>
<!-- Node9 -->
<g id="node9" class="node">
<title>Node9</title>
<g id="a_node9"><a xlink:href="classirr_1_1core_1_1vector3d.html" target="_top" xlink:title="3d vector template class with lots of operators and methods.">
<polygon fill="white" stroke="black" points="224,-138.5 224,-157.5 355,-157.5 355,-138.5 224,-138.5"/>
<text text-anchor="middle" x="289.5" y="-145.5" font-family="Helvetica,sans-Serif" font-size="10.00">irr::core::vector3d&lt; T &gt;</text>
</a>
</g>
</g>
<!-- Node6&#45;&gt;Node9 -->
<g id="edge10" class="edge">
<title>Node6&#45;&gt;Node9</title>
<path fill="none" stroke="#9a32cd" stroke-dasharray="5,2" d="M35.21,-158.46C38.95,-156.24 42.95,-154.27 47,-153 104.81,-134.84 174.3,-135.59 223.87,-139.68"/>
<polygon fill="#9a32cd" stroke="#9a32cd" points="32.94,-155.78 26.64,-164.3 36.88,-161.56 32.94,-155.78"/>
<text text-anchor="middle" x="52" y="-178" font-family="Helvetica,sans-Serif" font-size="10.00"> X</text>
<text text-anchor="middle" x="52" y="-167" font-family="Helvetica,sans-Serif" font-size="10.00">Y</text>
<text text-anchor="middle" x="52" y="-156" font-family="Helvetica,sans-Serif" font-size="10.00">Z</text>
</g>
<!-- Node7&#45;&gt;Node1 -->
<g id="edge6" class="edge">
<title>Node7&#45;&gt;Node1</title>
<path fill="none" stroke="#9a32cd" stroke-dasharray="5,2" d="M485.89,-253.74C502.75,-249.75 520.43,-243.57 535,-234 559.75,-217.74 577.83,-186.57 585.87,-170.74"/>
<polygon fill="#9a32cd" stroke="#9a32cd" points="485.13,-250.32 476.08,-255.84 486.6,-257.17 485.13,-250.32"/>
<text text-anchor="middle" x="514.5" y="-254" font-family="Helvetica,sans-Serif" font-size="10.00"> size</text>
</g>
<!-- Node8 -->
<g id="node8" class="node">
<title>Node8</title>
<g id="a_node8"><a xlink:title=" ">
<polygon fill="white" stroke="#bfbfbf" points="123.5,-285.5 123.5,-304.5 157.5,-304.5 157.5,-285.5 123.5,-285.5"/>
<text text-anchor="middle" x="140.5" y="-292.5" font-family="Helvetica,sans-Serif" font-size="10.00">s32</text>
</a>
</g>
</g>
<!-- Node8&#45;&gt;Node7 -->
<g id="edge7" class="edge">
<title>Node8&#45;&gt;Node7</title>
<path fill="none" stroke="#9a32cd" stroke-dasharray="5,2" d="M167.68,-292.9C208.01,-289.54 287.72,-282.35 355,-273 360.74,-272.2 366.74,-271.28 372.69,-270.31"/>
<polygon fill="#9a32cd" stroke="#9a32cd" points="167.3,-289.42 157.62,-293.73 167.87,-296.4 167.3,-289.42"/>
<text text-anchor="middle" x="289.5" y="-301" font-family="Helvetica,sans-Serif" font-size="10.00"> X</text>
<text text-anchor="middle" x="289.5" y="-290" font-family="Helvetica,sans-Serif" font-size="10.00">Y</text>
</g>
<!-- Node9&#45;&gt;Node1 -->
<g id="edge9" class="edge">
<title>Node9&#45;&gt;Node1</title>
<path fill="none" stroke="#9a32cd" stroke-dasharray="5,2" d="M365.35,-151.24C425,-153.83 506.03,-157.34 552.85,-159.37"/>
<polygon fill="#9a32cd" stroke="#9a32cd" points="365.37,-147.74 355.23,-150.8 365.07,-154.73 365.37,-147.74"/>
<text text-anchor="middle" x="424.5" y="-158" font-family="Helvetica,sans-Serif" font-size="10.00"> world_pos</text>
</g>
<!-- Node10 -->
<g id="node10" class="node">
<title>Node10</title>
<g id="a_node10"><a xlink:title=" ">
<polygon fill="white" stroke="#bfbfbf" points="402.5,-104.5 402.5,-123.5 446.5,-123.5 446.5,-104.5 402.5,-104.5"/>
<text text-anchor="middle" x="424.5" y="-111.5" font-family="Helvetica,sans-Serif" font-size="10.00">string</text>
</a>
</g>
</g>
<!-- Node10&#45;&gt;Node1 -->
<g id="edge11" class="edge">
<title>Node10&#45;&gt;Node1</title>
<path fill="none" stroke="#9a32cd" stroke-dasharray="5,2" d="M456.84,-108.4C479.29,-105.71 509.88,-104.79 535,-114 555.15,-121.39 573.01,-139.69 582.74,-151.15"/>
<polygon fill="#9a32cd" stroke="#9a32cd" points="456.26,-104.95 446.83,-109.78 457.22,-111.88 456.26,-104.95"/>
<text text-anchor="middle" x="514.5" y="-139" font-family="Helvetica,sans-Serif" font-size="10.00"> text2</text>
<text text-anchor="middle" x="514.5" y="-128" font-family="Helvetica,sans-Serif" font-size="10.00">name</text>
<text text-anchor="middle" x="514.5" y="-117" font-family="Helvetica,sans-Serif" font-size="10.00">text</text>
</g>
<!-- Node11 -->
<g id="node11" class="node">
<title>Node11</title>
<g id="a_node11"><a xlink:title=" ">
<polygon fill="white" stroke="#bfbfbf" points="375,-66.5 375,-85.5 474,-85.5 474,-66.5 375,-66.5"/>
<text text-anchor="middle" x="424.5" y="-73.5" font-family="Helvetica,sans-Serif" font-size="10.00">HudElementType</text>
</a>
</g>
</g>
<!-- Node11&#45;&gt;Node1 -->
<g id="edge12" class="edge">
<title>Node11&#45;&gt;Node1</title>
<path fill="none" stroke="#9a32cd" stroke-dasharray="5,2" d="M484.12,-75.84C501.4,-77.9 519.74,-82.3 535,-91 560.06,-105.29 578,-135.77 585.94,-151.37"/>
<polygon fill="#9a32cd" stroke="#9a32cd" points="484.39,-72.35 474.11,-74.89 483.73,-79.32 484.39,-72.35"/>
<text text-anchor="middle" x="514.5" y="-94" font-family="Helvetica,sans-Serif" font-size="10.00"> type</text>
</g>
<!-- Node12 -->
<g id="node12" class="node">
<title>Node12</title>
<g id="a_node12"><a xlink:title=" ">
<polygon fill="white" stroke="#bfbfbf" points="407,-0.5 407,-19.5 442,-19.5 442,-0.5 407,-0.5"/>
<text text-anchor="middle" x="424.5" y="-7.5" font-family="Helvetica,sans-Serif" font-size="10.00">u32</text>
</a>
</g>
</g>
<!-- Node12&#45;&gt;Node1 -->
<g id="edge13" class="edge">
<title>Node12&#45;&gt;Node1</title>
<path fill="none" stroke="#9a32cd" stroke-dasharray="5,2" d="M452.56,-7.84C476.69,-7.36 511.7,-10.45 535,-29 574.87,-60.74 586.48,-126.29 589.52,-151.15"/>
<polygon fill="#9a32cd" stroke="#9a32cd" points="452.16,-4.35 442.32,-8.26 452.45,-11.34 452.16,-4.35"/>
<text text-anchor="middle" x="514.5" y="-65" font-family="Helvetica,sans-Serif" font-size="10.00"> item</text>
<text text-anchor="middle" x="514.5" y="-54" font-family="Helvetica,sans-Serif" font-size="10.00">dir</text>
<text text-anchor="middle" x="514.5" y="-43" font-family="Helvetica,sans-Serif" font-size="10.00">number</text>
<text text-anchor="middle" x="514.5" y="-32" font-family="Helvetica,sans-Serif" font-size="10.00">style</text>
</g>
</g>
</svg>
        <g id="navigator" transform="translate(0 0)" fill="#404254">
                <rect fill="#f2f5e9" fill-opacity="0.5" stroke="#606060" stroke-width=".5" x="0" y="0" width="60" height="60"/>
                <use id="zoomplus" xlink:href="#zoomPlus" x="17" y="9" onmousedown="handleZoom(evt,'in')"/>
                <use id="zoomminus" xlink:href="#zoomMin" x="42" y="9" onmousedown="handleZoom(evt,'out')"/>
                <use id="reset" xlink:href="#resetDef" x="30" y="36" onmousedown="handleReset()"/>
                <g id="arrowUp" xlink:href="#dirArrow" transform="translate(30 24)" onmousedown="handlePan(0,-1)">
                  <use xlink:href="#rim" fill="#404040">
                        <set attributeName="fill" to="#808080" begin="arrowUp.mouseover" end="arrowUp.mouseout"/>
                  </use>
                  <path fill="none" stroke="white" stroke-width="1.5" d="M0,-3.0v7 M-2.5,-0.5L0,-3.0L2.5,-0.5"/>
                </g>
                <g id="arrowRight" xlink:href="#dirArrow" transform="rotate(90) translate(36 -43)" onmousedown="handlePan(1,0)">
                  <use xlink:href="#rim" fill="#404040">
                        <set attributeName="fill" to="#808080" begin="arrowRight.mouseover" end="arrowRight.mouseout"/>
                  </use>
                  <path fill="none" stroke="white" stroke-width="1.5" d="M0,-3.0v7 M-2.5,-0.5L0,-3.0L2.5,-0.5"/>
                </g>
                <g id="arrowDown" xlink:href="#dirArrow" transform="rotate(180) translate(-30 -48)" onmousedown="handlePan(0,1)">
                  <use xlink:href="#rim" fill="#404040">
                        <set attributeName="fill" to="#808080" begin="arrowDown.mouseover" end="arrowDown.mouseout"/>
                  </use>
                  <path fill="none" stroke="white" stroke-width="1.5" d="M0,-3.0v7 M-2.5,-0.5L0,-3.0L2.5,-0.5"/>
                </g>
                <g id="arrowLeft" xlink:href="#dirArrow" transform="rotate(270) translate(-36 17)" onmousedown="handlePan(-1,0)">
                  <use xlink:href="#rim" fill="#404040">
                        <set attributeName="fill" to="#808080" begin="arrowLeft.mouseover" end="arrowLeft.mouseout"/>
                  </use>
                  <path fill="none" stroke="white" stroke-width="1.5" d="M0,-3.0v7 M-2.5,-0.5L0,-3.0L2.5,-0.5"/>
                </g>
        </g>
        <svg viewBox="0 0 15 15" width="100%" height="30px" preserveAspectRatio="xMaxYMin meet">
         <g id="arrow_out" transform="scale(0.3 0.3)">
          <a xlink:href="structHudElement__coll__graph_org.svg" target="_base">
           <rect id="button" ry="5" rx="5" y="6" x="6" height="38" width="38"
                fill="#f2f5e9" fill-opacity="0.5" stroke="#606060" stroke-width="1.0"/>
           <path id="arrow"
             d="M 11.500037,31.436501 C 11.940474,20.09759 22.043105,11.32322 32.158766,21.979434 L 37.068811,17.246167 C 37.068811,17.246167 37.088388,32 37.088388,32 L 22.160133,31.978069 C 22.160133,31.978069 26.997745,27.140456 26.997745,27.140456 C 18.528582,18.264221 13.291696,25.230495 11.500037,31.436501 z"
             style="fill:#404040;"/>
          </a>
         </g>
        </svg>
</svg>
