<?xml version="1.0" encoding="UTF-8" standalone="no"?>
<!DOCTYPE svg PUBLIC "-//W3C//DTD SVG 1.1//EN"
 "http://www.w3.org/Graphics/SVG/1.1/DTD/svg11.dtd">
<!-- Generated by graphviz version 2.43.0 (0)
 -->
<!-- Title: Catch::Matchers::Floating::WithinRelMatcher Pages: 1 -->
<svg width="833pt" height="99pt"
 viewBox="0.00 0.00 833.00 98.50" xmlns="http://www.w3.org/2000/svg" xmlns:xlink="http://www.w3.org/1999/xlink">
<g id="graph0" class="graph" transform="scale(1 1) rotate(0) translate(4 94.5)">
<title>Catch::Matchers::Floating::WithinRelMatcher</title>
<polygon fill="white" stroke="transparent" points="-4,4 -4,-94.5 829,-94.5 829,4 -4,4"/>
<!-- Node1 -->
<g id="node1" class="node">
<title>Node1</title>
<g id="a_node1"><a xlink:title=" ">
<polygon fill="#bfbfbf" stroke="black" points="684,-13 684,-43 825,-43 825,-13 684,-13"/>
<text text-anchor="start" x="692" y="-31" font-family="Helvetica,sans-Serif" font-size="10.00">Catch::Matchers::Floating</text>
<text text-anchor="middle" x="754.5" y="-20" font-family="Helvetica,sans-Serif" font-size="10.00">::WithinRelMatcher</text>
</a>
</g>
</g>
<!-- Node2 -->
<g id="node2" class="node">
<title>Node2</title>
<g id="a_node2"><a xlink:href="structCatch_1_1Matchers_1_1Impl_1_1MatcherBase.html" target="_top" xlink:title=" ">
<polygon fill="white" stroke="black" points="452,-39 452,-69 594,-69 594,-39 452,-39"/>
<text text-anchor="start" x="460" y="-57" font-family="Helvetica,sans-Serif" font-size="10.00">Catch::Matchers::Impl</text>
<text text-anchor="middle" x="523" y="-46" font-family="Helvetica,sans-Serif" font-size="10.00">::MatcherBase&lt; double &gt;</text>
</a>
</g>
</g>
<!-- Node2&#45;&gt;Node1 -->
<g id="edge1" class="edge">
<title>Node2&#45;&gt;Node1</title>
<path fill="none" stroke="midnightblue" d="M604.28,-44.91C630.21,-41.97 658.73,-38.74 683.82,-35.89"/>
<polygon fill="midnightblue" stroke="midnightblue" points="603.65,-41.45 594.1,-46.06 604.44,-48.41 603.65,-41.45"/>
</g>
<!-- Node3 -->
<g id="node3" class="node">
<title>Node3</title>
<g id="a_node3"><a xlink:href="classCatch_1_1Matchers_1_1Impl_1_1MatcherUntypedBase.html" target="_top" xlink:title=" ">
<polygon fill="white" stroke="black" points="287,-60 287,-90 415,-90 415,-60 287,-60"/>
<text text-anchor="start" x="295" y="-78" font-family="Helvetica,sans-Serif" font-size="10.00">Catch::Matchers::Impl</text>
<text text-anchor="middle" x="351" y="-67" font-family="Helvetica,sans-Serif" font-size="10.00">::MatcherUntypedBase</text>
</a>
</g>
</g>
<!-- Node3&#45;&gt;Node2 -->
<g id="edge2" class="edge">
<title>Node3&#45;&gt;Node2</title>
<path fill="none" stroke="midnightblue" d="M425.46,-65.93C434.2,-64.85 443.1,-63.75 451.79,-62.67"/>
<polygon fill="midnightblue" stroke="midnightblue" points="424.8,-62.48 415.3,-67.18 425.66,-69.43 424.8,-62.48"/>
</g>
<!-- Node4 -->
<g id="node4" class="node">
<title>Node4</title>
<g id="a_node4"><a xlink:title=" ">
<polygon fill="white" stroke="#bfbfbf" points="57.5,-65.5 57.5,-84.5 101.5,-84.5 101.5,-65.5 57.5,-65.5"/>
<text text-anchor="middle" x="79.5" y="-72.5" font-family="Helvetica,sans-Serif" font-size="10.00">string</text>
</a>
</g>
</g>
<!-- Node4&#45;&gt;Node3 -->
<g id="edge3" class="edge">
<title>Node4&#45;&gt;Node3</title>
<path fill="none" stroke="#9a32cd" stroke-dasharray="5,2" d="M111.7,-75C154.33,-75 231.75,-75 286.77,-75"/>
<polygon fill="#9a32cd" stroke="#9a32cd" points="111.65,-71.5 101.65,-75 111.65,-78.5 111.65,-71.5"/>
<text text-anchor="middle" x="223" y="-78" font-family="Helvetica,sans-Serif" font-size="10.00"> m_cachedToString</text>
</g>
<!-- Node5 -->
<g id="node5" class="node">
<title>Node5</title>
<g id="a_node5"><a xlink:href="structCatch_1_1Matchers_1_1Impl_1_1MatcherMethod.html" target="_top" xlink:title=" ">
<polygon fill="white" stroke="black" points="287,-11 287,-41 415,-41 415,-11 287,-11"/>
<text text-anchor="start" x="295" y="-29" font-family="Helvetica,sans-Serif" font-size="10.00">Catch::Matchers::Impl</text>
<text text-anchor="middle" x="351" y="-18" font-family="Helvetica,sans-Serif" font-size="10.00">::MatcherMethod&lt; T &gt;</text>
</a>
</g>
</g>
<!-- Node5&#45;&gt;Node2 -->
<g id="edge4" class="edge">
<title>Node5&#45;&gt;Node2</title>
<path fill="none" stroke="midnightblue" d="M425.17,-38.05C434,-39.51 443,-40.99 451.79,-42.44"/>
<polygon fill="midnightblue" stroke="midnightblue" points="425.74,-34.6 415.3,-36.43 424.6,-41.5 425.74,-34.6"/>
</g>
<!-- Node6 -->
<g id="node6" class="node">
<title>Node6</title>
<g id="a_node6"><a xlink:href="structCatch_1_1Matchers_1_1Impl_1_1MatcherMethod.html" target="_top" xlink:title=" ">
<polygon fill="white" stroke="black" points="0,-11 0,-41 159,-41 159,-11 0,-11"/>
<text text-anchor="start" x="8" y="-29" font-family="Helvetica,sans-Serif" font-size="10.00">Catch::Matchers::Impl</text>
<text text-anchor="middle" x="79.5" y="-18" font-family="Helvetica,sans-Serif" font-size="10.00">::MatcherMethod&lt; ObjectT &gt;</text>
</a>
</g>
</g>
<!-- Node6&#45;&gt;Node5 -->
<g id="edge5" class="edge">
<title>Node6&#45;&gt;Node5</title>
<path fill="none" stroke="orange" stroke-dasharray="5,2" d="M169.31,-26C207.66,-26 251.65,-26 286.62,-26"/>
<polygon fill="orange" stroke="orange" points="169.18,-22.5 159.18,-26 169.17,-29.5 169.18,-22.5"/>
<text text-anchor="middle" x="223" y="-29" font-family="Helvetica,sans-Serif" font-size="10.00"> &lt; T &gt;</text>
</g>
<!-- Node7 -->
<g id="node7" class="node">
<title>Node7</title>
<g id="a_node7"><a xlink:title=" ">
<polygon fill="white" stroke="#bfbfbf" points="498,-0.5 498,-19.5 548,-19.5 548,-0.5 498,-0.5"/>
<text text-anchor="middle" x="523" y="-7.5" font-family="Helvetica,sans-Serif" font-size="10.00">double</text>
</a>
</g>
</g>
<!-- Node7&#45;&gt;Node1 -->
<g id="edge6" class="edge">
<title>Node7&#45;&gt;Node1</title>
<path fill="none" stroke="#9a32cd" stroke-dasharray="5,2" d="M558.53,-9.72C587.33,-9.78 629.42,-10.57 666,-14 671.82,-14.55 677.84,-15.24 683.87,-16.02"/>
<polygon fill="#9a32cd" stroke="#9a32cd" points="558.18,-6.22 548.18,-9.72 558.18,-13.22 558.18,-6.22"/>
<text text-anchor="middle" x="639" y="-28" font-family="Helvetica,sans-Serif" font-size="10.00"> m_epsilon</text>
<text text-anchor="middle" x="639" y="-17" font-family="Helvetica,sans-Serif" font-size="10.00">m_target</text>
</g>
</g>
</svg>
