<?xml version="1.0" encoding="UTF-8" standalone="no"?>
<!DOCTYPE svg PUBLIC "-//W3C//DTD SVG 1.1//EN"
 "http://www.w3.org/Graphics/SVG/1.1/DTD/svg11.dtd">
<!-- Generated by graphviz version 2.43.0 (0)
 -->
<!-- Title: ClientMediaDownloader::FileStatus Pages: 1 -->
<svg width="332pt" height="106pt"
 viewBox="0.00 0.00 332.00 106.00" xmlns="http://www.w3.org/2000/svg" xmlns:xlink="http://www.w3.org/1999/xlink">
<g id="graph0" class="graph" transform="scale(1 1) rotate(0) translate(4 102)">
<title>ClientMediaDownloader::FileStatus</title>
<polygon fill="white" stroke="transparent" points="-4,4 -4,-102 328,-102 328,4 -4,4"/>
<!-- Node1 -->
<g id="node1" class="node">
<title>Node1</title>
<g id="a_node1"><a xlink:title=" ">
<polygon fill="#bfbfbf" stroke="black" points="48,-0.5 48,-30.5 182,-30.5 182,-0.5 48,-0.5"/>
<text text-anchor="start" x="56" y="-18.5" font-family="Helvetica,sans-Serif" font-size="10.00">ClientMediaDownloader</text>
<text text-anchor="middle" x="115" y="-7.5" font-family="Helvetica,sans-Serif" font-size="10.00">::FileStatus</text>
</a>
</g>
</g>
<!-- Node2 -->
<g id="node2" class="node">
<title>Node2</title>
<g id="a_node2"><a xlink:title=" ">
<polygon fill="white" stroke="#bfbfbf" points="0,-78.5 0,-97.5 44,-97.5 44,-78.5 0,-78.5"/>
<text text-anchor="middle" x="22" y="-85.5" font-family="Helvetica,sans-Serif" font-size="10.00">string</text>
</a>
</g>
</g>
<!-- Node2&#45;&gt;Node1 -->
<g id="edge1" class="edge">
<title>Node2&#45;&gt;Node1</title>
<path fill="none" stroke="#9a32cd" stroke-dasharray="5,2" d="M31.22,-69.62C35.6,-62.56 41.34,-54.74 48,-49 56.62,-41.57 67.23,-35.41 77.44,-30.52"/>
<polygon fill="#9a32cd" stroke="#9a32cd" points="28.07,-68.08 26.14,-78.5 34.15,-71.56 28.07,-68.08"/>
<text text-anchor="middle" x="61.5" y="-52" font-family="Helvetica,sans-Serif" font-size="10.00"> sha1</text>
</g>
<!-- Node3 -->
<g id="node3" class="node">
<title>Node3</title>
<g id="a_node3"><a xlink:href="classbool.html" target="_top" xlink:title=" ">
<polygon fill="white" stroke="black" points="62,-78.5 62,-97.5 100,-97.5 100,-78.5 62,-78.5"/>
<text text-anchor="middle" x="81" y="-85.5" font-family="Helvetica,sans-Serif" font-size="10.00">bool</text>
</a>
</g>
</g>
<!-- Node3&#45;&gt;Node1 -->
<g id="edge2" class="edge">
<title>Node3&#45;&gt;Node1</title>
<path fill="none" stroke="#9a32cd" stroke-dasharray="5,2" d="M78.73,-68.12C78.68,-61.82 79.44,-54.9 82,-49 85.01,-42.07 90.26,-35.84 95.7,-30.74"/>
<polygon fill="#9a32cd" stroke="#9a32cd" points="75.26,-68.73 79.46,-78.46 82.24,-68.23 75.26,-68.73"/>
<text text-anchor="middle" x="105" y="-52" font-family="Helvetica,sans-Serif" font-size="10.00"> received</text>
</g>
<!-- Node4 -->
<g id="node4" class="node">
<title>Node4</title>
<g id="a_node4"><a xlink:title=" ">
<polygon fill="white" stroke="#bfbfbf" points="133,-78.5 133,-97.5 167,-97.5 167,-78.5 133,-78.5"/>
<text text-anchor="middle" x="150" y="-85.5" font-family="Helvetica,sans-Serif" font-size="10.00">s32</text>
</a>
</g>
</g>
<!-- Node4&#45;&gt;Node1 -->
<g id="edge3" class="edge">
<title>Node4&#45;&gt;Node1</title>
<path fill="none" stroke="#9a32cd" stroke-dasharray="5,2" d="M141.22,-69.32C135.28,-57.34 127.52,-41.72 121.99,-30.58"/>
<polygon fill="#9a32cd" stroke="#9a32cd" points="138.13,-70.95 145.71,-78.36 144.4,-67.84 138.13,-70.95"/>
<text text-anchor="middle" x="174.5" y="-52" font-family="Helvetica,sans-Serif" font-size="10.00"> current_remote</text>
</g>
<!-- Node5 -->
<g id="node5" class="node">
<title>Node5</title>
<g id="a_node5"><a xlink:title=" ">
<polygon fill="white" stroke="#bfbfbf" points="208.5,-78.5 208.5,-97.5 295.5,-97.5 295.5,-78.5 208.5,-78.5"/>
<text text-anchor="middle" x="252" y="-85.5" font-family="Helvetica,sans-Serif" font-size="10.00">vector&lt; s32 &gt;</text>
</a>
</g>
</g>
<!-- Node5&#45;&gt;Node1 -->
<g id="edge4" class="edge">
<title>Node5&#45;&gt;Node1</title>
<path fill="none" stroke="#9a32cd" stroke-dasharray="5,2" d="M240.2,-70.14C234.28,-62.75 226.55,-54.52 218,-49 205.95,-41.22 191.9,-35.19 178.13,-30.55"/>
<polygon fill="#9a32cd" stroke="#9a32cd" points="237.46,-72.32 246.26,-78.22 243.06,-68.12 237.46,-72.32"/>
<text text-anchor="middle" x="277" y="-52" font-family="Helvetica,sans-Serif" font-size="10.00"> available_remotes</text>
</g>
</g>
</svg>
