<?xml version="1.0" encoding="UTF-8" standalone="no"?>
<!DOCTYPE svg PUBLIC "-//W3C//DTD SVG 1.1//EN"
 "http://www.w3.org/Graphics/SVG/1.1/DTD/svg11.dtd">
<!-- Generated by graphviz version 2.43.0 (0)
 -->
<!-- Title: TKey Pages: 1 -->
<svg width="186pt" height="162pt"
 viewBox="0.00 0.00 185.50 162.00" xmlns="http://www.w3.org/2000/svg" xmlns:xlink="http://www.w3.org/1999/xlink">
<g id="graph0" class="graph" transform="scale(1 1) rotate(0) translate(4 158)">
<title>TKey</title>
<polygon fill="white" stroke="transparent" points="-4,4 -4,-158 181.5,-158 181.5,4 -4,4"/>
<!-- Node1 -->
<g id="node1" class="node">
<title>Node1</title>
<g id="a_node1"><a xlink:title=" ">
<polygon fill="#bfbfbf" stroke="black" points="87.5,-67.5 87.5,-86.5 128.5,-86.5 128.5,-67.5 87.5,-67.5"/>
<text text-anchor="middle" x="108" y="-74.5" font-family="Helvetica,sans-Serif" font-size="10.00">TKey</text>
</a>
</g>
</g>
<!-- Node2 -->
<g id="node2" class="node">
<title>Node2</title>
<g id="a_node2"><a xlink:href="structNode.html" target="_top" xlink:title=" ">
<polygon fill="white" stroke="black" points="47,-0.5 47,-19.5 89,-19.5 89,-0.5 47,-0.5"/>
<text text-anchor="middle" x="68" y="-7.5" font-family="Helvetica,sans-Serif" font-size="10.00">Node</text>
</a>
</g>
</g>
<!-- Node1&#45;&gt;Node2 -->
<g id="edge3" class="edge">
<title>Node1&#45;&gt;Node2</title>
<path fill="none" stroke="#9a32cd" stroke-dasharray="5,2" d="M102.89,-57.49C100.68,-51.05 97.73,-43.95 94,-38 89.72,-31.16 83.48,-24.61 78.19,-19.68"/>
<polygon fill="#9a32cd" stroke="#9a32cd" points="99.65,-58.85 105.93,-67.39 106.34,-56.8 99.65,-58.85"/>
<text text-anchor="middle" x="114.5" y="-41" font-family="Helvetica,sans-Serif" font-size="10.00"> i_key</text>
</g>
<!-- Node2&#45;&gt;Node1 -->
<g id="edge1" class="edge">
<title>Node2&#45;&gt;Node1</title>
<path fill="none" stroke="#9a32cd" stroke-dasharray="5,2" d="M65.16,-29.68C65.02,-36.14 65.86,-43.2 69,-49 73.31,-56.97 81.12,-63.07 88.62,-67.45"/>
<polygon fill="#9a32cd" stroke="#9a32cd" points="68.65,-30 66.1,-19.72 61.68,-29.35 68.65,-30"/>
<text text-anchor="middle" x="81.5" y="-41" font-family="Helvetica,sans-Serif" font-size="10.00"> next</text>
</g>
<!-- Node3 -->
<g id="node3" class="node">
<title>Node3</title>
<g id="a_node3"><a xlink:href="structlua__TValue.html" target="_top" xlink:title=" ">
<polygon fill="white" stroke="black" points="0,-134.5 0,-153.5 70,-153.5 70,-134.5 0,-134.5"/>
<text text-anchor="middle" x="35" y="-141.5" font-family="Helvetica,sans-Serif" font-size="10.00">lua_TValue</text>
</a>
</g>
</g>
<!-- Node3&#45;&gt;Node1 -->
<g id="edge4" class="edge">
<title>Node3&#45;&gt;Node1</title>
<path fill="none" stroke="#9a32cd" stroke-dasharray="5,2" d="M52.57,-127.36C66.92,-114.58 86.67,-96.99 98.31,-86.63"/>
<polygon fill="#9a32cd" stroke="#9a32cd" points="49.99,-124.97 44.85,-134.23 54.64,-130.2 49.99,-124.97"/>
<text text-anchor="middle" x="85.5" y="-108" font-family="Helvetica,sans-Serif" font-size="10.00"> tvk</text>
</g>
<!-- Node3&#45;&gt;Node2 -->
<g id="edge2" class="edge">
<title>Node3&#45;&gt;Node2</title>
<path fill="none" stroke="#9a32cd" stroke-dasharray="5,2" d="M38.49,-124.17C41.46,-108.73 46.04,-86.34 51,-67 55.34,-50.07 61.52,-30.61 65.11,-19.66"/>
<polygon fill="#9a32cd" stroke="#9a32cd" points="35.04,-123.57 36.62,-134.05 41.92,-124.87 35.04,-123.57"/>
<text text-anchor="middle" x="64.5" y="-74.5" font-family="Helvetica,sans-Serif" font-size="10.00"> i_val</text>
</g>
<!-- Node4 -->
<g id="node4" class="node">
<title>Node4</title>
<g id="a_node4"><a xlink:title=" ">
<polygon fill="white" stroke="#bfbfbf" points="88.5,-134.5 88.5,-153.5 177.5,-153.5 177.5,-134.5 88.5,-134.5"/>
<text text-anchor="middle" x="133" y="-141.5" font-family="Helvetica,sans-Serif" font-size="10.00">anonymous:nk</text>
</a>
</g>
</g>
<!-- Node4&#45;&gt;Node1 -->
<g id="edge5" class="edge">
<title>Node4&#45;&gt;Node1</title>
<path fill="none" stroke="#9a32cd" stroke-dasharray="5,2" d="M126,-124.79C121.2,-112.31 115.04,-96.31 111.32,-86.63"/>
<polygon fill="#9a32cd" stroke="#9a32cd" points="122.77,-126.16 129.63,-134.23 129.31,-123.64 122.77,-126.16"/>
<text text-anchor="middle" x="130" y="-108" font-family="Helvetica,sans-Serif" font-size="10.00"> nk</text>
</g>
</g>
</svg>
