<?xml version="1.0" encoding="UTF-8" standalone="no"?>
<!DOCTYPE svg PUBLIC "-//W3C//DTD SVG 1.1//EN"
 "http://www.w3.org/Graphics/SVG/1.1/DTD/svg11.dtd">
<!-- Generated by graphviz version 2.43.0 (0)
 -->
<!-- Title: Json::Value::ValueHolder Pages: 1 -->
<svg width="437pt" height="95pt"
 viewBox="0.00 0.00 436.50 95.00" xmlns="http://www.w3.org/2000/svg" xmlns:xlink="http://www.w3.org/1999/xlink">
<g id="graph0" class="graph" transform="scale(1 1) rotate(0) translate(4 91)">
<title>Json::Value::ValueHolder</title>
<polygon fill="white" stroke="transparent" points="-4,4 -4,-91 432.5,-91 432.5,4 -4,4"/>
<!-- Node1 -->
<g id="node1" class="node">
<title>Node1</title>
<g id="a_node1"><a xlink:title=" ">
<polygon fill="#bfbfbf" stroke="black" points="122.5,-0.5 122.5,-19.5 257.5,-19.5 257.5,-0.5 122.5,-0.5"/>
<text text-anchor="middle" x="190" y="-7.5" font-family="Helvetica,sans-Serif" font-size="10.00">Json::Value::ValueHolder</text>
</a>
</g>
</g>
<!-- Node2 -->
<g id="node2" class="node">
<title>Node2</title>
<g id="a_node2"><a xlink:title=" ">
<polygon fill="white" stroke="#bfbfbf" points="0,-67.5 0,-86.5 50,-86.5 50,-67.5 0,-67.5"/>
<text text-anchor="middle" x="25" y="-74.5" font-family="Helvetica,sans-Serif" font-size="10.00">double</text>
</a>
</g>
</g>
<!-- Node2&#45;&gt;Node1 -->
<g id="edge1" class="edge">
<title>Node2&#45;&gt;Node1</title>
<path fill="none" stroke="#9a32cd" stroke-dasharray="5,2" d="M44.2,-61.08C55.07,-53.25 69.22,-44.05 83,-38 101.6,-29.84 123.14,-23.81 142,-19.54"/>
<polygon fill="#9a32cd" stroke="#9a32cd" points="41.85,-58.47 35.91,-67.24 46.02,-64.08 41.85,-58.47"/>
<text text-anchor="middle" x="97" y="-41" font-family="Helvetica,sans-Serif" font-size="10.00"> real_</text>
</g>
<!-- Node3 -->
<g id="node3" class="node">
<title>Node3</title>
<g id="a_node3"><a xlink:title=" ">
<polygon fill="white" stroke="#bfbfbf" points="68,-67.5 68,-86.5 124,-86.5 124,-67.5 68,-67.5"/>
<text text-anchor="middle" x="96" y="-74.5" font-family="Helvetica,sans-Serif" font-size="10.00">uint64_t</text>
</a>
</g>
</g>
<!-- Node3&#45;&gt;Node1 -->
<g id="edge2" class="edge">
<title>Node3&#45;&gt;Node1</title>
<path fill="none" stroke="#9a32cd" stroke-dasharray="5,2" d="M106.62,-58.97C111.77,-51.76 118.48,-43.73 126,-38 136.46,-30.04 149.61,-23.96 161.27,-19.61"/>
<polygon fill="#9a32cd" stroke="#9a32cd" points="103.62,-57.15 100.98,-67.41 109.44,-61.04 103.62,-57.15"/>
<text text-anchor="middle" x="140" y="-41" font-family="Helvetica,sans-Serif" font-size="10.00"> uint_</text>
</g>
<!-- Node4 -->
<g id="node4" class="node">
<title>Node4</title>
<g id="a_node4"><a xlink:title=" ">
<polygon fill="white" stroke="#bfbfbf" points="142,-67.5 142,-86.5 180,-86.5 180,-67.5 142,-67.5"/>
<text text-anchor="middle" x="161" y="-74.5" font-family="Helvetica,sans-Serif" font-size="10.00">char</text>
</a>
</g>
</g>
<!-- Node4&#45;&gt;Node1 -->
<g id="edge3" class="edge">
<title>Node4&#45;&gt;Node1</title>
<path fill="none" stroke="#9a32cd" stroke-dasharray="5,2" d="M158.05,-57.12C157.82,-50.82 158.43,-43.9 161,-38 164.24,-30.56 170.65,-24.24 176.63,-19.59"/>
<polygon fill="#9a32cd" stroke="#9a32cd" points="154.61,-57.87 159.12,-67.45 161.57,-57.15 154.61,-57.87"/>
<text text-anchor="middle" x="179.5" y="-41" font-family="Helvetica,sans-Serif" font-size="10.00"> string_</text>
</g>
<!-- Node5 -->
<g id="node5" class="node">
<title>Node5</title>
<g id="a_node5"><a xlink:href="classbool.html" target="_top" xlink:title=" ">
<polygon fill="white" stroke="black" points="200,-67.5 200,-86.5 238,-86.5 238,-67.5 200,-67.5"/>
<text text-anchor="middle" x="219" y="-74.5" font-family="Helvetica,sans-Serif" font-size="10.00">bool</text>
</a>
</g>
</g>
<!-- Node5&#45;&gt;Node1 -->
<g id="edge4" class="edge">
<title>Node5&#45;&gt;Node1</title>
<path fill="none" stroke="#9a32cd" stroke-dasharray="5,2" d="M210.88,-57.79C205.31,-45.31 198.17,-29.31 193.85,-19.63"/>
<polygon fill="#9a32cd" stroke="#9a32cd" points="207.82,-59.53 215.09,-67.23 214.21,-56.68 207.82,-59.53"/>
<text text-anchor="middle" x="221" y="-41" font-family="Helvetica,sans-Serif" font-size="10.00"> bool_</text>
</g>
<!-- Node6 -->
<g id="node6" class="node">
<title>Node6</title>
<g id="a_node6"><a xlink:title=" ">
<polygon fill="white" stroke="#bfbfbf" points="256.5,-67.5 256.5,-86.5 321.5,-86.5 321.5,-67.5 256.5,-67.5"/>
<text text-anchor="middle" x="289" y="-74.5" font-family="Helvetica,sans-Serif" font-size="10.00">LargestInt</text>
</a>
</g>
</g>
<!-- Node6&#45;&gt;Node1 -->
<g id="edge5" class="edge">
<title>Node6&#45;&gt;Node1</title>
<path fill="none" stroke="#9a32cd" stroke-dasharray="5,2" d="M270.96,-60.86C261.93,-53.58 250.66,-44.95 240,-38 229.58,-31.22 217.31,-24.57 207.53,-19.57"/>
<polygon fill="#9a32cd" stroke="#9a32cd" points="268.9,-63.7 278.85,-67.33 273.34,-58.28 268.9,-63.7"/>
<text text-anchor="middle" x="266" y="-41" font-family="Helvetica,sans-Serif" font-size="10.00"> int_</text>
</g>
<!-- Node7 -->
<g id="node7" class="node">
<title>Node7</title>
<g id="a_node7"><a xlink:title=" ">
<polygon fill="white" stroke="#bfbfbf" points="339.5,-67.5 339.5,-86.5 428.5,-86.5 428.5,-67.5 339.5,-67.5"/>
<text text-anchor="middle" x="384" y="-74.5" font-family="Helvetica,sans-Serif" font-size="10.00">ObjectValues *</text>
</a>
</g>
</g>
<!-- Node7&#45;&gt;Node1 -->
<g id="edge6" class="edge">
<title>Node7&#45;&gt;Node1</title>
<path fill="none" stroke="#9a32cd" stroke-dasharray="5,2" d="M352.66,-63.84C332.35,-56.1 305.25,-46.06 281,-38 260.98,-31.35 238.23,-24.6 220.49,-19.51"/>
<polygon fill="#9a32cd" stroke="#9a32cd" points="351.45,-67.12 362.04,-67.43 353.96,-60.58 351.45,-67.12"/>
<text text-anchor="middle" x="327.5" y="-41" font-family="Helvetica,sans-Serif" font-size="10.00"> map_</text>
</g>
</g>
</svg>
