<svg width="29" height="29" viewBox="0 0 29 29" fill="none" xmlns="http://www.w3.org/2000/svg">
<g clip-path="url(#clip0_1330_582)">
<path d="M0 28.9389C0 23.681 0 18.4638 0 13.1651C0.265396 13.155 0.520585 13.1244 0.775774 13.1244C4.5934 13.1244 8.42123 13.1142 12.2389 13.1346C12.8615 13.1346 13.0453 12.9715 13.0453 12.3398C13.0146 8.48806 13.0453 4.62614 13.0146 0.774423C13.0146 0.183418 13.178 0.0101929 13.77 0.0101929C18.5777 0.0305724 23.3855 0.0305724 28.1933 0.0203826C28.6832 0.0203826 28.918 0.0917108 28.918 0.682716C28.8976 9.91462 28.9078 19.1363 28.9078 28.3682C28.9078 28.5517 28.8874 28.7249 28.8772 28.9389C19.2514 28.9389 9.66655 28.9389 0 28.9389ZM25.9986 26.1265C26.0293 25.9023 26.0497 25.78 26.0497 25.668C26.0497 22.611 26.0395 19.5643 26.0599 16.5074C26.0599 16.0081 25.8353 15.9469 25.4168 15.9469C22.477 15.9571 19.5475 15.9673 16.6077 15.9368C16.0157 15.9266 15.8319 16.0998 15.8421 16.701C15.8727 19.5847 15.8727 22.4786 15.8421 25.3725C15.8319 26.0348 16.0667 26.1469 16.6587 26.1469C19.4454 26.1265 22.2423 26.1367 25.0289 26.1367C25.3351 26.1265 25.6414 26.1265 25.9986 26.1265ZM25.9986 2.93465C25.8659 2.91427 25.7945 2.8837 25.7128 2.8837C22.5893 2.8837 19.476 2.8837 16.3525 2.87351C15.8421 2.87351 15.8523 3.15882 15.8523 3.50527C15.8523 6.48068 15.8625 9.44589 15.8421 12.4213C15.8421 12.9104 15.9952 13.0429 16.475 13.0429C19.476 13.0225 22.4668 13.0327 25.4678 13.0327C25.6414 13.0327 25.8149 13.0021 25.9986 12.9919C25.9986 9.59874 25.9986 6.27688 25.9986 2.93465ZM12.9023 15.9877C12.6472 15.9673 12.4634 15.9571 12.2797 15.9571C9.33991 15.9571 6.41034 15.9673 3.47057 15.9469C2.92957 15.9469 2.76625 16.11 2.76625 16.65C2.78666 19.5439 2.77645 22.4276 2.77645 25.3215C2.77645 26.1367 2.77645 26.1367 3.57264 26.1367C6.45117 26.1367 9.3195 26.1367 12.198 26.1367C12.4226 26.1367 12.6472 26.1163 12.8921 26.1061C12.9023 22.7129 12.9023 19.3809 12.9023 15.9877Z" fill="#E85929"/>
</g>
</svg>
